<?xml version="1.0" encoding="UTF-8"?>
<svg width="1024px" height="443px" viewBox="0 0 1024 443" version="1.1" xmlns="http://www.w3.org/2000/svg" xmlns:xlink="http://www.w3.org/1999/xlink">
    <title>banner-grey</title>
    <g id="banner-grey" stroke="none" stroke-width="1" fill="none" fill-rule="evenodd">
        <g id="Group" transform="translate(336.000000, 187.000000)">
            <rect id="Rectangle" stroke-opacity="0" stroke="#979797" stroke-width="0.75" x="0" y="0" width="96" height="96"></rect>
            <path d="M25.8721132,29.8959937 L28.5572698,78.2288138 C28.6755952,80.3586708 30.3950365,82.0369806 32.5082871,82.1216475 L32.6759188,82.125 L63.3191595,82.125 C65.4536441,82.125 67.225384,80.4993238 67.425494,78.3925521 L67.438005,78.2252494 L69.5797762,39.0614316 C69.613704,38.4410383 69.1382797,37.9106063 68.5178864,37.8766785 L68.4564548,37.875 L63,37.875 C62.4152279,37.875 61.9346635,38.3211661 61.8801499,38.891655 L61.875,39 L61.875,69 C61.875,71.633858 59.7862528,73.7798629 57.1748506,73.8719227 L57,73.875 L51,73.875 C48.366142,73.875 46.2201371,71.7862528 46.1280773,69.1748506 L46.125,69 L46.125,39 C46.125,38.4152279 45.6788339,37.9346635 45.108345,37.8801499 L45,37.875 L39,37.875 C38.4152279,37.875 37.9346635,38.3211661 37.8801499,38.891655 L37.875,39 L37.875,72 L34.125,72 L34.125,39 C34.125,36.366142 36.2137472,34.2201371 38.8251494,34.1280773 L39,34.125 L45,34.125 C47.633858,34.125 49.7798629,36.2137472 49.8719227,38.8251494 L49.875,39 L49.875,69 C49.875,69.5847721 50.3211661,70.0653365 50.891655,70.1198501 L51,70.125 L57,70.125 C57.5847721,70.125 58.0653365,69.6788339 58.1198501,69.108345 L58.125,69 L58.125,39 C58.125,36.366142 60.2137472,34.2201371 62.8251494,34.1280773 L63,34.125 L68.4564548,34.125 C68.545239,34.125 68.6340067,34.1274254 68.7226586,34.1322736 C71.3525868,34.2760978 73.3813319,36.478913 73.3306564,39.091446 L73.3241812,39.2662038 L71.1824099,78.4300215 C70.95791,82.5351632 67.6174345,85.7639239 63.5311709,85.8721942 L63.3191595,85.875 L32.6759188,85.875 C28.5672303,85.875 25.1620914,82.7196621 24.8275946,78.6482236 L24.8130435,78.4368264 L22.1278868,30.1040063 L25.8721132,29.8959937 Z M57,10.125 C59.633858,10.125 61.7798629,12.2137472 61.8719227,14.8251494 L61.875,15 L61.875,16.125 L75,16.125 C77.633858,16.125 79.7798629,18.2137472 79.8719227,20.8251494 L79.875,21 L79.875,23.25 C79.875,24.6514226 78.7767918,25.7963448 77.3940264,25.8711159 L77.25,25.875 L18,25.875 L18,22.125 L76.125,22.125 L76.125,21 C76.125,20.4152279 75.6788339,19.9346635 75.108345,19.8801499 L75,19.875 L61.5,19.875 C59.689295,19.875 58.2116332,18.4490726 58.1286735,16.6588768 L58.125,16.5 L58.125,15 C58.125,14.4152279 57.6788339,13.9346635 57.108345,13.8801499 L57,13.875 L39,13.875 C38.4152279,13.875 37.9346635,14.3211661 37.8801499,14.891655 L37.875,15 L37.875,18 L34.125,18 L34.125,15 C34.125,12.366142 36.2137472,10.2201371 38.8251494,10.1280773 L39,10.125 L57,10.125 Z" id="Shape" fill="#9E9E9E" fill-rule="nonzero"></path>
        </g>
        <g id="Group" transform="translate(464.000000, 187.000000)">
            <path d="M26.3001143,40.5562804 L21.285665,20.4984831 L89.01489,48.0134808 L21.2915945,75.102799 L26.1896828,55.5104459 C26.6565258,53.6430736 28.1759251,52.2313874 30.0589886,51.8942647 L30.2484816,51.8641572 L39.699169,50.5515618 C39.9432737,50.5176583 40.125,50.3089479 40.125,50.0625 C40.125,49.97374 40.0633249,49.8993849 39.980492,49.879952 L39.9375,49.875 L30,49.875 L30,46.125 L39.9375,46.125 C42.1121212,46.125 43.875,47.8878788 43.875,50.0625 C43.875,52.1218418 42.398659,53.8746055 40.3886241,54.2381723 L40.2150504,54.2659078 L30.764363,55.5785032 C30.3446981,55.63679 29.9965664,55.9250224 29.8579315,56.3192587 L29.8277171,56.4199545 L26.70825,68.8965 L78.984,47.98575 L26.71425,26.751 L29.9381487,39.6467718 C30.039035,40.0503168 30.3532162,40.3623506 30.7509462,40.463894 L30.8520442,40.4848258 L66.295858,46.148489 L65.704142,49.851511 L30.2603283,44.1878478 C28.396343,43.8899966 26.8780202,42.5447232 26.3510642,40.7441467 L26.3001143,40.5562804 Z" id="Path-36" fill="#9E9E9E" fill-rule="nonzero"></path>
            <rect id="frame" stroke-opacity="0" stroke="#979797" stroke-width="0.75" x="0" y="0" width="96" height="96"></rect>
        </g>
        <g id="Group" transform="translate(208.000000, 187.000000)">
            <rect id="Rectangle" stroke-opacity="0.01" stroke="#979797" stroke-width="0.5" x="0" y="0" width="96" height="96"></rect>
            <path d="M31.7015028,74.0223988 L34.2984972,76.7276012 L24.9234972,85.7276012 L22.3265028,83.0223988 L31.7015028,74.0223988 Z M25.6910622,67.6574997 L28.3089378,70.3425003 L13.3089378,84.9675003 L10.6910622,82.2824997 L25.6910622,67.6574997 Z M74.0956964,18.5696436 L74.5294522,18.5712017 L76.4004794,18.5879987 L76.3875756,20.4590568 C76.2963055,33.6932168 69.8919664,46.1605726 59.1705123,54.026198 L58.5576356,54.4688855 L52.7862528,58.6098936 L54.1681192,58.8624638 C53.0988633,64.7166402 50.3460755,70.1172876 46.2594838,74.3881374 L45.9425057,74.7144246 L38.6141889,82.1445235 L38.8952879,72.7394201 L42.5166488,72.8472084 L43.2726316,72.081124 C46.4067729,68.9034529 48.6814263,64.9776757 49.8992272,60.682799 L39.6499341,68.0379419 L37.4635152,64.9912926 L56.6251153,51.2400265 C66.0174847,44.4996203 71.8549913,33.917859 72.5652798,22.525515 L72.5748701,22.3546653 L72.4194018,22.3614835 C61.3866147,22.8905668 51.0757742,28.4034384 44.4424695,37.399288 L44.1954502,37.7382621 L38.5902528,45.5208936 L38.988568,47.6402524 C38.2051623,47.7873425 37.4313819,47.9701023 36.6694316,48.1873589 L34.6281309,51.0234265 L32.7383284,49.6627428 C30.1326468,50.8904519 27.7371781,52.5510471 25.6595167,54.5872848 L25.3486692,54.8971479 L24.4801634,55.77708 L29.0682528,55.7771436 L29.7699543,55.0761964 L30.4707528,55.7771436 L30.8943026,55.7775401 L36.5013015,61.462414 L33.8314273,64.0957145 L32.3570028,62.6006436 L32.1746016,62.7841446 L28.9175028,59.5263936 L15.5146049,59.5275401 L22.678795,52.2638473 C25.9593807,48.9376979 29.9660911,46.4489914 34.3603434,44.9778655 L41.1524138,35.5468175 C48.8090758,24.9147888 61.0908942,18.5929659 74.0956964,18.5696436 Z M19.7015028,62.0223988 L22.2984972,64.7276012 L12.9234972,73.7276012 L10.3265028,71.0223988 L19.7015028,62.0223988 Z M63.3596726,32.1257543 C65.4328239,34.2276994 65.4751332,37.5988288 63.4866003,39.7525774 L63.3596726,39.885579 L60.6897985,37.2522785 C61.3659727,36.5667129 61.3659727,35.4446204 60.6897985,34.7590549 C60.0278085,34.0878706 58.9653648,34.0878706 58.3033748,34.7590549 C57.6553745,35.4160551 57.6283745,36.4739631 58.2223748,37.1643723 L58.3033748,37.2522785 L55.6335006,39.885579 C53.5171587,37.7398434 53.5171587,34.2714899 55.6335006,32.1257543 C57.7640269,29.9656374 61.2291464,29.9656374 63.3596726,32.1257543 Z" id="Shape" fill="#9E9E9E" fill-rule="nonzero"></path>
        </g>
        <g id="Group" transform="translate(592.000000, 187.000000)">
            <path d="M49.875,60 L49.875,84 L46.125,84 L46.125,60 L49.875,60 Z M48,22.125 C54.6522118,22.125 60.9118344,24.6485998 65.6674361,29.0954349 L65.9509585,29.3645481 L63.349081,32.0650542 C59.2521899,28.1177909 53.8050168,25.875 48,25.875 C37.8900907,25.875 29.148718,32.7133339 26.6085109,42.3286857 L26.5319303,42.6269487 L26.2299557,43.8379573 L24.9962226,44.0267245 C18.6357356,44.9999102 13.875,50.4968948 13.875,57 C13.875,64.1663653 19.61847,69.9912713 26.7534223,70.1227302 L27,70.125 L27,73.875 C17.6801948,73.875 10.125,66.3198052 10.125,57 C10.125,49.1025655 15.5834323,42.361239 23.0847765,40.5816313 L23.214,40.551 L23.2708816,40.3637161 C26.5372467,29.7585793 36.3253107,22.2820539 47.6421246,22.1274437 L48,22.125 Z M42,70.125 L42,73.875 L27,73.875 L27,70.125 L42,70.125 Z M66,34.125 C76.9766594,34.125 85.875,43.0233406 85.875,54 C85.875,64.8668928 77.1537364,73.6968254 66.3286695,73.8723373 L66,73.875 L54,73.875 L54,70.125 L66,70.125 C74.9055916,70.125 82.125,62.9055916 82.125,54 C82.125,45.0944084 74.9055916,37.875 66,37.875 C64.3277416,37.875 62.6922492,38.1289884 61.1331623,38.6219205 L60.7450053,38.7501228 L59.5235211,35.204636 C61.5901483,34.4926456 63.7713091,34.125 66,34.125 Z M50.0980476,47.7743584 L50.184132,47.8959937 L61.5600943,64.9599371 L58.4399057,67.0400629 L47.99925,51.38025 L37.5600943,67.0400629 L34.4399057,64.9599371 L45.815868,47.8959937 C46.0081095,47.6076315 46.2555497,47.3601912 46.543912,47.1679497 C47.7085795,46.3915047 49.2680616,46.6685949 50.0980476,47.7743584 Z" id="Shape" fill="#9E9E9E" fill-rule="nonzero"></path>
            <rect id="Rectangle" x="0" y="0" width="96" height="96"></rect>
        </g>
        <g id="Group" transform="translate(208.000000, 315.000000)">
            <path d="M61.875,25.5 L43.125,25.5 L43.125,19.5 C43.125,16.8076118 45.3076118,14.625 48,14.625 C50.633858,14.625 52.7798629,16.7137472 52.8719227,19.3251494 L52.875,19.5 L49.125,19.5 C49.125,18.8786797 48.6213203,18.375 48,18.375 C47.4152279,18.375 46.9346635,18.8211661 46.8801499,19.391655 L46.875,19.5 L46.875,21.75 L58.125,21.75 L58.125,18 L58.1217246,17.8340946 C58.0368869,15.6892776 56.3144006,13.9654369 54.170138,13.878445 L54,13.875 L42,13.875 L41.8340946,13.8782754 C39.6892776,13.9631131 37.9654369,15.6855994 37.878445,17.829862 L37.875,18 L37.875,21.75 L39,21.75 L39,25.5 L34.125,25.5 L34.125,19.875 L23.25,19.875 C21.8485774,19.875 20.7036552,20.9732082 20.6288841,22.3559736 L20.625,22.5 L20.625,79.5 C20.625,80.9014226 21.7232082,82.0463448 23.1059736,82.1211159 L23.25,82.125 L73.5,82.125 C74.9014226,82.125 76.0463448,81.0267918 76.1211159,79.6440264 L76.125,79.5 L76.125,42 L79.875,42 L79.875,79.5 C79.875,82.9568005 77.1236603,85.7709911 73.6913702,85.8721826 L73.5,85.875 L23.25,85.875 C19.7931995,85.875 16.9790089,83.1236603 16.8778174,79.6913702 L16.875,79.5 L16.875,22.5 C16.875,19.0431995 19.6263397,16.2290089 23.0586298,16.1278174 L23.25,16.125 L34.3495057,16.1253219 C35.1737405,12.7500346 38.173428,10.2276013 41.778536,10.128054 L42,10.125 L54,10.125 L54.2132213,10.1278307 C57.8219991,10.2237574 60.8256314,12.7474625 61.6504943,16.1253219 L73.5,16.125 C76.9568005,16.125 79.7709911,18.8763397 79.8721826,22.3086298 L79.875,22.5 L79.875,24.375 L76.125,24.375 L76.125,22.5 C76.125,21.0985774 75.0267918,19.9536552 73.6440264,19.8788841 L73.5,19.875 L61.875,19.875 L61.875,25.5 Z M76.6741748,28.6741748 L79.3258252,31.3258252 L48,62.6516504 L34.6741748,49.3258252 L37.3258252,46.6741748 L48,57.34875 L76.6741748,28.6741748 Z" id="Shape" fill="#9E9E9E" fill-rule="nonzero"></path>
            <rect id="Rectangle" x="0" y="0" width="96" height="96"></rect>
        </g>
        <g id="Group" transform="translate(336.000000, 315.000000)">
            <path d="M42,82.125 L42,85.875 L30,85.875 L30,82.125 L42,82.125 Z M25.875,48 C25.875,60.2193001 35.7806999,70.125 48,70.125 C60.0971071,70.125 69.9266546,60.4164235 70.1220359,48.3658773 L70.125,48 L73.875,48 C73.875,61.6596558 63.2903882,72.847143 49.8755612,73.8080648 L49.875,82.125 L66,82.125 L66,85.875 L46.125,85.875 L46.1249781,73.8081035 C32.8502387,72.8574929 22.3467795,61.8927999 22.1284665,48.4278904 L22.125,48 L25.875,48 Z M48,10.125 C58.8668928,10.125 67.6968254,18.8462636 67.8723373,29.6713305 L67.875,30 L67.875,31.875 L57,31.875 C56.3786797,31.875 55.875,32.3786797 55.875,33 C55.875,33.5847721 56.3211661,34.0653365 56.891655,34.1198501 L57,34.125 L66,34.125 L66,37.875 L57,37.875 C54.3076118,37.875 52.125,35.6923882 52.125,33 C52.125,30.366142 54.2137472,28.2201371 56.8251494,28.1280773 L57,28.125 L64.017,28.125 L63.9892204,27.8978657 C62.9703,20.0715112 56.3395526,14.00805 48.2666564,13.8771603 L48,13.875 C39.1834643,13.875 32.0195568,20.9507422 31.8771603,29.7333436 L31.875,30 L31.875,48 C31.875,56.9055916 39.0944084,64.125 48,64.125 C56.1931443,64.125 62.9591031,58.0144927 63.9892204,50.1021343 L64.017,49.875 L57,49.875 C54.366142,49.875 52.2201371,47.7862528 52.1280773,45.1748506 L52.125,45 C52.125,42.366142 54.2137472,40.2201371 56.8251494,40.1280773 L57,40.125 L66,40.125 L66,43.875 L57,43.875 C56.3786797,43.875 55.875,44.3786797 55.875,45 C55.875,45.5847721 56.3211661,46.0653365 56.891655,46.1198501 L57,46.125 L67.875,46.125 L67.875,48 C67.875,58.9766594 58.9766594,67.875 48,67.875 C37.1331072,67.875 28.3031746,59.1537364 28.1276627,48.3286695 L28.125,48 L28.125,30 C28.125,19.0233406 37.0233406,10.125 48,10.125 Z" id="Shape" fill="#9E9E9E" fill-rule="nonzero"></path>
            <rect id="Rectangle" x="0" y="0" width="96" height="96"></rect>
        </g>
        <g id="Group" transform="translate(464.000000, 315.000000)">
            <path d="M66.1941626,15.8170996 L66.1941626,19.5670996 L62.0682772,19.5671616 L62.0682772,25.5376177 L71.7965113,35.2266827 L60.9220847,46.1011093 L52.4358919,37.6158854 L50.8449016,39.2068756 L59.3310944,47.6920996 L21.6776583,85.3455357 L10.5407265,74.2086039 L42.3605317,42.3887987 L45.0121821,45.0404491 L15.8431159,74.2086613 L21.6767469,80.0422923 L54.0268821,47.692157 L45.5425122,39.2068182 L52.4368033,32.3125271 L60.9211732,40.7978659 L66.4869875,35.2320516 L58.3191626,27.0959522 L58.3191626,15.8170996 L66.1941626,15.8170996 Z M84,46.125 L84,49.875 L79.875,49.875 L79.875,54 L76.125,54 L76.125,46.125 L84,46.125 Z M75,46.125 L75,49.875 L72,49.875 L72,46.125 L75,46.125 Z M79.875,42 L79.875,45 L76.125,45 L76.125,42 L79.875,42 Z M84,22.125 L84,25.875 L79.875,25.875 L79.875,30 L76.125,30 L76.125,22.125 L84,22.125 Z M75,22.125 L75,25.875 L72,25.875 L72,22.125 L75,22.125 Z M79.875,18 L79.875,21 L76.125,21 L76.125,18 L79.875,18 Z M57,16.125 L57,19.875 L54,19.875 L54,16.125 L57,16.125 Z M61.875,12 L61.875,15 L58.125,15 L58.125,12 L61.875,12 Z" id="Shape" fill="#9E9E9E" fill-rule="nonzero"></path>
            <rect id="Rectangle" x="0" y="0" width="96" height="96"></rect>
        </g>
        <g id="Group" transform="translate(592.000000, 315.000000)">
            <path d="M47.625,16.125 C56.445778,16.125 63.375,25.114261 63.375,36 C63.375,42.5986722 60.8288631,48.5004852 56.858673,52.1256007 L60,52.125 C67.5787427,52.125 73.7382962,58.2012707 73.8727558,65.7479072 L73.875,66 L73.875,78.375 L70.125,78.375 L70.125,66 C70.125,60.485782 65.7169286,56.0011242 60.2323731,55.877614 L60,55.875 L48,55.875 L47.9446256,55.8717362 L47.9446256,55.8717362 L47.625,55.875 L47.625,52.125 C54.1301238,52.125 59.625,44.996512 59.625,36 C59.625,27.003488 54.1301238,19.875 47.625,19.875 C41.1198762,19.875 35.625,27.003488 35.625,36 C35.625,42.3469259 38.3982169,47.9741354 42.5496323,50.6012488 L42.7693929,50.7367355 L40.8391676,53.9518141 C35.3719553,50.6694835 31.875,43.7117048 31.875,36 C31.875,25.114261 38.804222,16.125 47.625,16.125 Z M36.7766504,52.125 L48,63.34875 L52.6741748,58.6741748 L55.3258252,61.3258252 L48,68.6516504 L35.2515,55.90275 L35.0784186,55.9163776 C29.9943106,56.3751008 25.9941658,60.5920605 25.877614,65.7676269 L25.875,66 L25.875,78 L22.125,78 L22.125,66 C22.125,58.4212573 28.2012707,52.2617038 35.7479072,52.1272442 L36,52.125 L36.7766504,52.125 Z" id="Shape" fill="#9E9E9E" fill-rule="nonzero"></path>
            <rect id="Rectangle" x="0" y="0" width="96" height="96"></rect>
        </g>
        <g id="Group" transform="translate(720.000000, 187.000000)">
            <path d="M78,40.125 C82.020074,40.125 85.875,43.5173348 85.875,48 C85.875,50.8446709 85.0683181,52.6967791 83.2524193,54.8865065 L82.9779313,55.2105991 L81.8137375,56.5544731 L81.6429945,56.756019 L81.4500568,56.9692394 L81.0774491,57.3586381 L80.7141824,57.7269872 L79.9620975,58.4737554 L78.1381737,60.2460126 L76.009566,62.2832852 L72.9256782,65.2058819 L69.96451,67.9928674 L63.8813504,73.6808329 L59.7756519,77.4991679 L59.6987271,77.4164118 C58.3050717,78.870135 56.3568004,79.7863925 54.1975051,79.8269113 L53.9855351,79.8280692 L11.985352,79.4999428 L11.7674349,75.764479 C14.8186795,75.3830734 16.0638693,74.2761747 16.1227951,72.1605664 L16.125,72 L19.875,72 C19.875,73.4520152 19.5561365,74.7103168 18.944478,75.7629929 L18.9195,75.804 L54.0148311,76.0781836 C56.2122133,76.0953507 58.0173262,74.3714426 58.1204755,72.2094586 L58.125,72.0465088 L58.125,72 C58.125,69.7644432 56.3659622,67.9370834 54.1523853,67.8326506 L53.9855351,67.8280692 L7.45844592,67.4645763 L16.375787,58.6865687 L19.0064767,61.3590154 L16.5405,63.78525 L54.0148311,64.0781836 C57.8699,64.1083014 61.0641708,66.8882471 61.7422021,70.5480269 L68.4475928,64.2712659 L73.4412174,59.5515602 L76.0361097,57.0677637 L77.4497131,55.6924172 L78.1906306,54.9547672 L78.626252,54.5042027 L78.7816709,54.3325279 L79.6828214,53.2849802 L80.1999186,52.6900274 C81.6265855,51.0160716 82.125,49.9323395 82.125,48 C82.125,45.7586977 80.1481841,43.9644338 78.1498824,43.878242 L78,43.875 L78,40.125 Z M78,16.125 C82.020074,16.125 85.875,19.5173348 85.875,24 C85.875,26.8446709 85.0683181,28.6967791 83.2524193,30.8865065 L82.9779313,31.2105991 L81.8137375,32.5544731 L81.6037969,32.8021517 L81.3268812,33.110407 L80.9634886,33.4956712 L80.4128581,34.0600571 L79.6118671,34.8598851 L78.4863424,35.9614014 L76.5707016,37.8045675 L73.9915604,40.2525877 L69.4560278,44.5095095 L64.5873911,49.0420459 L62.0360874,46.2937102 L66.2162272,42.4035807 L70.561551,38.3317931 L73.6330465,35.4242704 L75.7178924,33.4240694 L76.6988041,32.4687326 L77.4008633,31.774649 L78.1368384,31.0292988 L78.5380898,30.6060204 L78.7335351,30.3887545 L79.2867033,29.7417805 L80.1999186,28.6900274 C81.6265855,27.0160716 82.125,25.9323395 82.125,24 C82.125,21.7586977 80.1481841,19.9644338 78.1498824,19.878242 L78,19.875 L36.76725,19.875 L16.5405,39.78525 L54.0148311,40.0781836 C58.2944532,40.1116182 61.7597174,43.5339007 61.8721825,47.7866808 L61.8747611,48.0611568 C61.8415389,52.3136059 58.4237256,55.7476059 54.1975077,55.8269113 L53.9855351,55.8280692 L11.985352,55.4999428 L11.7674349,51.764479 C14.8186795,51.3830734 16.0638693,50.2761747 16.1227951,48.1605664 L16.125,48 L19.875,48 C19.875,49.4520152 19.5561365,50.7103168 18.944478,51.7629929 L18.9195,51.804 L54.0148311,52.0781836 C56.2122151,52.0953507 58.0172717,50.371462 58.1203559,48.1958579 L58.125,48 C58.125,45.7644432 56.3659622,43.9370834 54.1523853,43.8326506 L53.9855351,43.8280692 L7.45844592,43.4645763 L35.2319838,16.125 L78,16.125 Z" id="Shape" fill="#9E9E9E" fill-rule="nonzero"></path>
            <rect id="Rectangle" x="0" y="0" width="96" height="96"></rect>
        </g>
        <g id="Group" transform="translate(720.000000, 315.000000)">
            <path d="M67.875,34.125 L67.875,36 C67.875,38.2226094 69.632835,40.0346544 71.8340946,40.1217246 L72,40.125 L73.875,40.125 L73.875,47.625 L70.125,47.625 L70.125,43.65 L69.9393258,43.6026464 C67.2463483,42.8744838 65.1255162,40.7536517 64.3973536,38.0606742 L64.34925,37.875 L6.375,37.875 L6.375,58.125 L64.34925,58.125 L64.3973536,57.9393258 C65.2853568,54.6552068 68.2445519,52.2219884 71.7867787,52.1278307 L72,52.125 L76.125,52.125 L76.125,40.125 L85.0392143,40.125 L94.8829643,55.875 L84,55.875 L84,52.125 L88.1175,52.125 L82.96125,43.875 L79.875,43.875 L79.875,55.875 L72,55.875 C69.7773906,55.875 67.9653456,57.632835 67.8782754,59.8340946 L67.875,60 L67.875,61.875 L2.625,61.875 L2.625,34.125 L67.875,34.125 Z" id="Path-5" fill="#9E9E9E" fill-rule="nonzero" transform="translate(48.753982, 48.000000) rotate(135.000000) translate(-48.753982, -48.000000) "></path>
            <rect id="Rectangle" x="0" y="0" width="96" height="96"></rect>
        </g>
        <path d="M397.592027,101.194007 L398.755084,104.757425 L398.361707,104.884963 L397.562475,105.138059 L396.947649,105.327269 L396.108851,105.578046 L395.458849,105.766996 L394.785246,105.9584 L394.082928,106.153798 L393.092993,106.423201 L391.752524,106.779346 L390.275453,107.163689 L386.635996,108.096935 L385.355575,108.430943 L384.138617,108.754083 L382.982211,109.0676 L381.883445,109.372739 L380.839411,109.670742 L380.337008,109.817457 L379.606898,110.035108 L378.90389,110.250321 L378.226756,110.46362 L377.789102,110.605015 L377.362038,110.745949 L376.945199,110.886576 L376.538224,111.027053 L376.140746,111.167534 L375.752404,111.308175 L375.372832,111.449133 L375.001668,111.590562 L374.283104,111.875455 L374.283104,111.875455 L373.934977,112.019231 L373.593802,112.1641 L373.259215,112.310219 L372.930852,112.457741 L372.60835,112.606824 L372.291343,112.757622 L371.825343,112.987377 L371.825343,112.987377 L371.520486,113.143144 L371.219851,113.301171 L370.923076,113.461614 L370.629796,113.624627 L370.339647,113.790367 L370.052266,113.958989 L369.767289,114.130648 L369.484352,114.3055 L369.203091,114.483701 L368.923142,114.665406 L368.783546,114.757621 C363.438472,118.308884 360.746988,123.232001 360.746988,130.634286 C360.746988,142.020819 369.973698,151.251429 381.355422,151.251429 C392.623328,151.251429 401.779106,142.204508 401.961094,130.975228 L401.963855,130.634286 L405.710843,130.634286 C405.710843,144.091098 394.80655,155 381.355422,155 C367.904294,155 357,144.091098 357,130.634286 C357,122.060912 360.255829,116.010266 366.499024,111.776962 L366.864307,111.533379 L367.325981,111.234953 L367.634698,111.041042 L367.944605,110.850968 L368.256082,110.664563 L368.727068,110.391469 L368.727068,110.391469 L369.044125,110.213506 L369.364079,110.038628 L369.687307,109.866667 L370.01419,109.697456 L370.345106,109.530827 L370.680435,109.366615 L371.19253,109.124461 L371.19253,109.124461 L371.540548,108.965557 L371.894306,108.808484 L372.254182,108.653075 L372.620555,108.499162 L372.993805,108.346579 L373.374311,108.195158 L373.762451,108.044733 L374.158606,107.895135 L374.563154,107.746199 L374.976474,107.597756 L375.398945,107.44964 L375.830946,107.301683 L376.725057,107.00558 L376.725057,107.00558 L377.423478,106.782679 L377.903058,106.633372 L378.644325,106.407935 L379.413007,106.180225 L380.482773,105.872099 L381.320398,105.636891 L382.486731,105.31672 L383.712417,104.987829 L385.332608,104.562413 L389.633593,103.457936 L391.055959,103.086513 L392.097616,102.809173 L393.066577,102.545583 L393.752728,102.354774 L394.409664,102.1682 L394.833862,102.045429 L395.655907,101.801756 L396.452701,101.557612 L396.833822,101.4379 L397.213146,101.316834 L397.592027,101.194007 Z M381.355422,53.32 C387.308429,53.32 392.932559,55.467048 397.329384,59.292188 L397.551889,59.4881306 L395.059236,62.286919 C391.310312,58.9452351 386.481168,57.0685714 381.355422,57.0685714 C369.973698,57.0685714 360.746988,66.2991807 360.746988,77.6857143 C360.746988,89.0722479 369.973698,98.3028571 381.355422,98.3028571 C392.623328,98.3028571 401.779106,89.255937 401.961094,78.0266564 L401.963855,77.6857143 L401.963855,55.4285714 L405.710843,55.4285714 L405.710843,130.4 L401.963855,130.4 L401.964769,90.6756377 C397.650965,97.5111845 390.033185,102.051429 381.355422,102.051429 C367.904294,102.051429 357,91.1425267 357,77.6857143 C357,64.2289019 367.904294,53.32 381.355422,53.32 Z M563.084337,32 L563.084015,64.6948532 C567.397924,57.8598289 575.015405,53.32 583.692771,53.32 C597.009388,53.32 607.829852,64.0118147 608.04493,77.2827826 L608.048193,77.6857143 L608.048193,92.9142857 C608.048193,96.019704 610.564568,98.5371429 613.668675,98.5371429 C616.725026,98.5371429 619.211591,96.0965678 619.287377,93.0571882 L619.289157,92.9142857 L619.289157,55.4285714 L623.036145,55.4285714 L623.036145,92.9142857 C623.036145,96.0197031 625.552519,98.5371429 628.656627,98.5371429 C632.849258,98.5371429 637.863848,97.2550651 642.904765,94.9209896 C648.540459,92.3115162 653.829956,88.5644262 657.71416,84.3805174 C661.863364,79.911161 664.173885,75.2232721 664.251016,70.8814104 L664.253012,70.6571429 C664.253012,63.4111669 658.381469,57.5371429 651.138554,57.5371429 C643.968068,57.5371429 638.141664,63.2942739 638.025853,70.4401797 L638.025033,70.52032 L638.02613,70.6301172 C638.074979,73.1114663 639.005965,75.3888427 641.023999,77.8750658 L641.268426,78.1709109 C641.517974,78.467786 641.782923,78.7678277 642.063616,79.0717246 L642.349569,79.376932 C642.398107,79.4280226 642.447085,79.4792267 642.496506,79.5305473 L642.798345,79.8398967 L643.190679,80.2307535 L643.190679,80.2307535 L643.599857,80.6265225 L644.113315,81.1083501 L644.113315,81.1083501 L644.469341,81.4339924 L644.836432,81.7633522 L645.407982,82.2646971 L645.407982,82.2646971 L645.803068,82.6040203 L646.209485,82.9475965 L646.627309,83.2955788 L647.056616,83.6481201 L647.497481,84.0053736 L648.180619,84.5504235 L648.650714,84.9201264 L649.132633,85.295077 L649.626453,85.675428 L650.134835,86.0632961 L647.869166,89.0489606 L647.308337,88.6213672 L646.765982,88.2043947 L645.985834,87.5975299 L645.487156,87.2044688 L645.004944,86.8199158 L644.538627,86.4432671 L644.08763,86.0739192 L643.65138,85.7112681 L643.125932,85.2664523 L643.125932,85.2664523 L642.621511,84.829978 L642.425379,84.6574599 L642.425379,84.6574599 L642.042383,84.3155597 C641.91673,84.2022396 641.793056,84.0895326 641.671267,83.9773381 L641.311458,83.6421911 L640.962382,83.3095153 L640.623466,82.9787068 C640.289438,82.6486308 639.969791,82.3204503 639.661942,81.9914487 L639.357931,81.6620727 L639.061213,81.3315456 L638.915409,81.1656617 L638.628555,80.832276 C635.848155,77.5543709 634.342118,74.2385976 634.279166,70.6572818 L634.277108,70.6571429 L634.278045,70.5296914 L634.277108,70.4228571 L634.278514,70.4228571 L634.279367,70.3781902 C634.428267,61.190597 641.919358,53.7885714 651.138554,53.7885714 C660.35775,53.7885714 667.848841,61.190597 668,70.3781902 L668,70.6571429 C668,76.1300821 665.270624,81.7493487 660.459671,86.9315144 C656.233162,91.4841406 650.543715,95.5145556 644.478592,98.3228659 C638.976294,100.870573 633.441252,102.285714 628.656627,102.285714 C625.59234,102.285714 622.871702,100.813755 621.162647,98.538053 C619.453756,100.81367 616.73305,102.285714 613.668675,102.285714 C608.549055,102.285714 604.388685,98.1769386 604.302566,93.0757036 L604.301205,92.9142857 L604.301205,77.6857143 C604.301205,66.2991807 595.074495,57.0685714 583.692771,57.0685714 C572.424865,57.0685714 563.269087,66.1154916 563.087098,77.3447721 L563.084337,77.6857143 L563.084337,100.411429 L559.337349,100.411429 L559.337814,91.0371828 C555.164809,97.585064 547.903487,101.973402 539.601252,102.144764 L539.205872,102.149725 L508.761376,102.285696 L508.724629,98.537358 L524.209337,98.3028571 C535.695094,98.3028571 544.817771,89.4389953 544.817771,78.1542857 C544.817771,66.7677521 535.591061,57.5371429 524.209337,57.5371429 C512.941431,57.5371429 503.785653,66.584063 503.603665,77.8133436 L503.600904,78.1542857 L503.13253,78.1542857 L503.13253,78.1838057 L503.600489,78.1937356 L503.289867,92.9544816 C503.278869,93.477099 503.225486,93.9889115 503.133064,94.4866924 L503.13253,130.165714 L499.385542,130.165714 L499.385838,100.392343 C497.798956,101.538757 495.842487,102.201274 493.73579,102.168343 C488.609547,102.088211 484.485228,97.9511663 484.398969,92.842455 L484.39759,92.6790849 L484.398504,90.6756377 C480.0847,97.5111845 472.46692,102.051429 463.789157,102.051429 C450.338029,102.051429 439.433735,91.1425267 439.433735,77.6857143 C439.433735,69.0687933 443.914395,61.5674304 450.693621,57.3024151 L441.307229,57.3028571 C429.988484,57.3028571 420.882528,66.1699611 420.701541,77.3463362 L420.698795,77.6285486 L420.698795,100.177143 L416.951807,100.177143 L416.952272,92.516342 C415.539755,94.7624041 413.735015,96.7240808 411.550298,98.4321256 L411.344165,98.5916678 L409.065799,95.6156895 C414.213275,91.6715246 416.886187,86.1941243 416.950614,78.2166085 L416.951807,77.6285486 L416.951807,55.1942857 L420.698795,55.1942857 L420.698791,64.7639788 C424.939226,58.1106772 432.376012,53.6929571 440.903312,53.5574917 L441.307229,53.5542857 L478.777108,53.5542857 L478.777108,57.3028571 L463.789157,57.3028571 C452.356081,57.3028571 443.180723,66.3499992 443.180723,77.6857143 C443.180723,89.0722479 452.407433,98.3028571 463.789157,98.3028571 C475.057063,98.3028571 484.212841,89.255937 484.394829,78.0266564 L484.39759,77.6857143 L484.39759,55.1942857 L488.144578,55.1942857 L488.144578,92.6790849 C488.144578,95.815241 490.659881,98.3712323 493.79433,98.4202288 C496.490216,98.4623698 498.777298,96.6120309 499.386192,94.0933943 L499.385542,54.96 L503.13253,54.96 L503.132627,65.9362348 C507.348778,58.6727188 515.208922,53.7885714 524.209337,53.7885714 C537.660465,53.7885714 548.564759,64.6974733 548.564759,78.1542857 C548.564759,86.7174105 544.131104,94.1080052 537.399224,98.3193961 L537.252134,98.4096914 L539.189145,98.4011912 C550.21979,98.3519264 559.157013,89.4812768 559.334654,78.4880564 L559.337349,78.1542857 L559.337349,32 L563.084337,32 Z M657.37341,91.5924782 C657.543234,91.7293075 657.710995,91.8655687 657.876696,92.0012898 L658.36762,92.4068614 C658.690785,92.6761999 659.005716,92.943491 659.31243,93.2089597 L659.766339,93.605824 C660.064839,93.8695266 660.355128,94.1315194 660.637223,94.3920275 L661.05422,94.7817042 C665.642102,99.1212879 667.932931,103.075895 667.998549,107.703394 L668,107.908571 C668,117.260662 660.416209,125.011429 651.138554,125.011429 C641.953676,125.011429 634.428954,117.414902 634.279378,108.188648 L634.277108,107.908571 L638.024096,107.908571 C638.024096,115.208089 643.948426,121.262857 651.138554,121.262857 C658.256781,121.262857 664.134399,115.328579 664.251239,108.127179 L664.253012,107.908571 C664.253012,104.458932 662.425101,101.261407 658.522995,97.5498563 L658.132483,97.183101 C657.735265,96.814634 657.317902,96.4409509 656.880158,96.0613225 L656.435612,95.6796854 L655.977428,95.2939228 L655.743205,95.0994439 L655.743205,95.0994439 L655.264465,94.7071892 L655.023133,94.5119495 L657.37341,91.5924782 Z M621.162651,35.0457143 C624.266757,35.0457143 626.783133,37.5631532 626.783133,40.6685714 C626.783133,43.726214 624.343588,46.2138297 621.305493,46.2896481 L621.162651,46.2914286 L621.162651,42.5428571 C622.197353,42.5428571 623.036145,41.7037108 623.036145,40.6685714 C623.036145,39.633432 622.197353,38.7942857 621.162651,38.7942857 C620.159303,38.7942857 619.340172,39.5833452 619.291449,40.5750257 L619.289157,40.6685714 L615.542169,40.6685714 C615.542169,37.5631532 618.058544,35.0457143 621.162651,35.0457143 Z" id="Shape" fill="#9E9E9E" fill-rule="nonzero"></path>
    </g>
</svg>