<?xml version="1.0" encoding="UTF-8"?><svg viewBox="0 0 116 116" version="1.1" xmlns="http://www.w3.org/2000/svg" xmlns:xlink="http://www.w3.org/1999/xlink">
  <title>airplane</title>
  <g id="airplane" stroke="none" stroke-width="1" fill="none" fill-rule="evenodd">
    <path d="M58.5,6.5 C65.0254567,6.5 70.3343928,11.7085444 70.4962001,18.1950252 L70.5,18.5 L70.5,40.028 L101.655418,55.6055728 C106.969677,58.2627024 110.364956,63.6398798 110.496061,69.5605339 L110.5,69.9164079 L110.5,75.3792156 L70.21,67.321 L68.617,93.206 L74.8613272,98.3346128 C77.357902,100.385371 77.7726873,104.030823 75.8423645,106.58512 L75.6892482,106.779407 C74.3372617,108.425303 72.2190458,109.226171 70.127056,108.899131 L69.8761939,108.854454 L58.5,106.579 L46.7889454,108.921427 C43.6134359,109.556528 40.5223615,107.55836 39.7769367,104.434398 L39.7287645,104.214639 C39.3201914,102.171773 40.0011762,100.069957 41.5140739,98.6555672 L41.7075004,98.4824029 L48.383,92.759 L46.793,67.32 L6.5,75.3792156 L6.5,69.9164079 C6.5,63.9748854 9.79107845,58.5333081 15.0280405,55.7682472 L15.3445825,55.6055728 L48.7111456,38.9222912 L52.2888544,46.0777088 L18.9222912,62.7609903 C17.7365471,63.3538624 16.7418749,64.2175683 15.9980456,65.2553967 L15.945,65.331 L54.2065224,57.6794799 L56.6165451,96.2398439 L52.725,99.575 L58.5,98.4207844 L63.606,99.441 L60.3820413,96.7938685 L62.789134,57.6786112 L101.054,65.331 L101.001954,65.2553967 C100.311256,64.2916989 99.4042691,63.4781373 98.3288504,62.8921445 L98.0777088,62.7609903 L62.5,44.972136 L62.5,18.5 C62.5,16.290861 60.709139,14.5 58.5,14.5 C56.3578046,14.5 54.6089211,16.1839685 54.5048953,18.3003597 L54.5,18.5 L54.5,34.5 L46.5,34.5 L46.5,18.5 C46.5,11.872583 51.872583,6.5 58.5,6.5 Z" id="Path-367" fill="#000000" fill-rule="nonzero"></path>
  </g>
</svg>
