<?xml version="1.0" encoding="UTF-8"?><svg viewBox="0 0 116 116" version="1.1" xmlns="http://www.w3.org/2000/svg" xmlns:xlink="http://www.w3.org/1999/xlink">
  <title>arrow-loop</title>
  <g id="arrow-loop" stroke="none" stroke-width="1" fill="none" fill-rule="evenodd">
    <path d="M62.352498,81.125354 L66.647502,87.874646 L49.951,98.5 L66.647502,109.125354 L62.352498,115.874646 L43.0040056,103.561969 C40.2083573,101.78292 39.3842407,98.0743953 41.1632896,95.278747 C41.582376,94.6201828 42.1254223,94.0505278 42.7612724,93.6009382 L43.0040056,93.4380311 L62.352498,81.125354 Z M58.5,14.5 C82.800529,14.5 102.5,34.199471 102.5,58.5 C102.5,82.5575237 83.1925485,102.10555 59.1961784,102.493978 L58.4675955,102.499869 L57.8061223,102.49451 L57.8709314,94.4947724 L58.5,94.5 C78.382251,94.5 94.5,78.382251 94.5,58.5 C94.5,38.617749 78.382251,22.5 58.5,22.5 C38.617749,22.5 22.5,38.617749 22.5,58.5 C22.5,68.0120534 26.2009785,76.9282075 32.6942991,83.6011843 L33.0648216,83.9764932 L27.4125279,89.6379043 C19.2014906,81.4400905 14.5,70.3373371 14.5,58.5 C14.5,34.199471 34.199471,14.5 58.5,14.5 Z" id="Shape" fill="#000000" fill-rule="nonzero"></path>
  </g>
</svg>
