<?xml version="1.0" encoding="UTF-8"?><svg viewBox="0 0 116 116" version="1.1" xmlns="http://www.w3.org/2000/svg" xmlns:xlink="http://www.w3.org/1999/xlink">
  <title>arrow-left-right</title>
  <g id="arrow-left-right" stroke="none" stroke-width="1" fill="none" fill-rule="evenodd">
    <path d="M32.2811992,39.1717988 L36.7188008,45.8282012 L17.711,58.5 L36.7188008,71.1717988 L32.2811992,77.8282012 L10.7773501,63.4923018 C8.02017797,61.654187 7.27513475,57.928971 9.11324951,55.1717988 C9.49773251,54.5950743 9.97881333,54.0899633 10.5346307,53.6783271 L10.7773501,53.5076982 L32.2811992,39.1717988 Z M84.7188008,39.1717988 L106.22265,53.5076982 C108.979822,55.345813 109.724865,59.071029 107.88675,61.8282012 C107.502267,62.4049257 107.021187,62.9100367 106.465369,63.3216729 L106.22265,63.4923018 L84.7188008,77.8282012 L80.2811992,71.1717988 L99.288,58.5 L80.2811992,45.8282012 L84.7188008,39.1717988 Z M90.5,54.5 L90.5,62.5 L26.5,62.5 L26.5,54.5 L90.5,54.5 Z" id="Shape" fill="#000000" fill-rule="nonzero"></path>
  </g>
</svg>
