<?xml version="1.0" encoding="UTF-8"?><svg viewBox="0 0 116 116" version="1.1" xmlns="http://www.w3.org/2000/svg" xmlns:xlink="http://www.w3.org/1999/xlink">
  <title>arrow-up-down</title>
  <g id="arrow-up-down" stroke="none" stroke-width="1" fill="none" fill-rule="evenodd">
    <path d="M71.1717988,80.2811992 L77.8282012,84.7188008 L63.4923018,106.22265 C63.0528926,106.881764 62.4873149,107.447341 61.8282012,107.88675 C59.1382771,109.680033 55.526955,109.014629 53.6455208,106.420795 L53.5076982,106.22265 L39.1717988,84.7188008 L45.8282012,80.2811992 L58.499,99.288 L71.1717988,80.2811992 Z M62.5,26.5 L62.5,90.5 L54.5,90.5 L54.5,26.5 L62.5,26.5 Z M63.3544792,10.579205 L63.4923018,10.7773501 L77.8282012,32.2811992 L71.1717988,36.7188008 L58.5,17.711 L45.8282012,36.7188008 L39.1717988,32.2811992 L53.5076982,10.7773501 C53.9471074,10.1182364 54.5126851,9.55265866 55.1717988,9.11324951 C57.8617229,7.31996682 61.473045,7.98537107 63.3544792,10.579205 Z" id="Shape" fill="#000000" fill-rule="nonzero"></path>
  </g>
</svg>
