<?xml version="1.0" encoding="UTF-8"?><svg viewBox="0 0 116 116" version="1.1" xmlns="http://www.w3.org/2000/svg" xmlns:xlink="http://www.w3.org/1999/xlink">
  <title>arrow-up-down-left-right</title>
  <g id="arrow-up-down-left-right" stroke="none" stroke-width="1" fill="none" fill-rule="evenodd">
    <path d="M24.2338847,44.2038323 L28.7661153,50.7961677 L23.378,54.5 L55.4527588,54.5 C59.2382105,54.5 62.3218575,57.5047834 62.4486998,61.2593502 L62.4519045,61.6093617 L62.062,86.5 L67.5989695,86.5 C70.2877242,86.5 72.4807876,88.6223067 72.59435,91.2831104 L72.5989695,91.5 C72.5989695,92.4195162 72.3454449,93.3193767 71.8688269,94.1016032 L71.7191791,94.3326441 L63.4442515,106.368902 C61.5669402,109.099537 57.8314618,109.791292 55.1008271,107.913981 C54.5820361,107.557312 54.1231574,107.121594 53.7405944,106.623229 L53.5557485,106.368902 L44.2038323,92.7661153 L50.7961677,88.2338847 L53.963,92.839 L54.436,62.5 L30.5,62.5 L30.5,67.5989695 C30.5,68.5184857 30.2464754,69.4183462 29.7698574,70.2005727 L29.6202096,70.4316136 C28.1004814,72.6421275 25.1195007,73.2492776 22.8643963,71.8480401 L22.6673559,71.7191791 L10.6310976,63.4442515 C10.0258415,63.028138 9.50213252,62.504429 9.08601897,61.8991729 C7.25449568,59.2351391 7.86824699,55.6146805 10.4349414,53.6963873 L10.6310976,53.5557485 L24.2338847,44.2038323 Z M61.895,94.5 L55.105,94.5 L58.5,99.438 L61.895,94.5 Z M93.9347958,45.0335231 L94.1356037,45.1519599 L94.3326441,45.2808209 L106.368902,53.5557485 C106.974158,53.971862 107.497867,54.495571 107.913981,55.1008271 C109.745504,57.7648609 109.131753,61.3853195 106.565059,63.3036127 L106.368902,63.4442515 L92.7661153,72.7961677 L88.2338847,66.2038323 L93.621,62.499 L66.5,62.5 L66.5,54.5 L86.5,54.499 L86.5,49.4010305 C86.5,48.4815143 86.7535246,47.5816538 87.2301426,46.7994273 L87.3797904,46.5683864 C88.8548207,44.4228877 91.7064116,43.7878241 93.9347958,45.0335231 Z M22.5,55.104 L17.561,58.5 L22.5,61.895 L22.5,55.104 Z M94.5,55.104 L94.5,61.894 L99.438,58.499 L94.5,55.104 Z M61.8991729,9.08601897 C62.4179639,9.44268773 62.8768426,9.87840619 63.2594056,10.3767707 L63.4442515,10.6310976 L72.7961677,24.2338847 L66.2038323,28.7661153 L62.499,23.378 L62.5,50.5 L54.5,50.5 L54.499,30.499 L49.4010305,30.5 C46.7122758,30.5 44.5192124,28.3776933 44.40565,25.7168896 L44.4010305,25.5 C44.4010305,24.5804838 44.6545551,23.6806233 45.1311731,22.8983968 L45.2808209,22.6673559 L53.5557485,10.6310976 C55.4330598,7.90046285 59.1685382,7.2087076 61.8991729,9.08601897 Z M58.499,17.561 L55.104,22.499 L61.894,22.499 L58.499,17.561 Z" id="Shape" fill="#000000" fill-rule="nonzero"></path>
  </g>
</svg>
