<?xml version="1.0" encoding="UTF-8"?><svg viewBox="0 0 116 116" version="1.1" xmlns="http://www.w3.org/2000/svg" xmlns:xlink="http://www.w3.org/1999/xlink"><title>article</title><g id="article" stroke="none" stroke-width="1" fill="none" fill-rule="evenodd"><path d="M74.5,62.5 C81.127417,62.5 86.5,67.872583 86.5,74.5 C86.5,81.0254567 81.2914556,86.3343928 74.8049748,86.4962001 L74.5,86.5 L42.5,86.5 C40.290861,86.5 38.5,88.290861 38.5,90.5 C38.5,92.6421954 40.1839685,94.3910789 42.3003597,94.4951047 L42.5,94.5 L74,94.5 C80.5254567,94.5 85.8343928,99.7085444 85.9962001,106.195025 L86,106.5 L78,106.5 C78,104.357805 76.3160315,102.608921 74.1996403,102.504895 L74,102.5 L42.5,102.5 C35.872583,102.5 30.5,97.127417 30.5,90.5 C30.5,83.9745433 35.7085444,78.6656072 42.1950252,78.5037999 L42.5,78.5 L74.5,78.5 C76.709139,78.5 78.5,76.709139 78.5,74.5 C78.5,72.3578046 76.8160315,70.6089211 74.6996403,70.5048953 L74.5,70.5 L34.5,70.5 L34.5,62.5 L74.5,62.5 Z M96,6 C99.2383969,6 101.877572,8.56557489 101.995862,11.7750617 L102,12 L102,106 L94,106 L94,14 L22,14 L22,46.5 L80.843,46.5 L66.5,32.157 L54.0355339,44.6213203 C52.1420828,46.5147715 49.1078417,46.5721488 47.1452518,44.7934523 L46.9644661,44.6213203 L42.5,40.157 L37.3284271,45.3284271 L31.6715729,39.6715729 L38.2573593,33.0857864 C40.5404244,30.8027213 44.2056321,30.7441812 46.5595763,32.910166 L46.7426407,33.0857864 L50.5,36.843 L62.2573593,25.0857864 C64.5404244,22.8027213 68.2056321,22.7441812 70.5595763,24.910166 L70.7426407,25.0857864 L91.6213203,45.9644661 C92.5590022,46.902148 93.0857864,48.1739176 93.0857864,49.5 C93.0857864,52.1887547 90.9634797,54.3818181 88.3026761,54.4953805 L88.0857864,54.5 L22,54.5 L22,106 L14,106 L14,12 C14,8.76160306 16.5655749,6.12242824 19.7750617,6.00413847 L20,6 L96,6 Z M34.5,18.5 C38.8349143,18.5 42.3645429,21.9478378 42.4961932,26.2508207 L42.5,26.5 L34.5,26.5 L34.5,34.5 C30.081722,34.5 26.5,30.918278 26.5,26.5 C26.5,22.081722 30.081722,18.5 34.5,18.5 Z" id="Shape" fill="#000000" fill-rule="nonzero"></path></g></svg>