<?xml version="1.0" encoding="UTF-8"?><svg viewBox="0 0 116 116" version="1.1" xmlns="http://www.w3.org/2000/svg" xmlns:xlink="http://www.w3.org/1999/xlink">
  <title>ascending-sort</title>
  <g id="ascending-sort" stroke="none" stroke-width="1" fill="none" fill-rule="evenodd">
    <path d="M14.5,18.5 L14.5,26.5 C14.5,28.6421954 16.1839685,30.3910789 18.3003597,30.4951047 L18.5,30.5 L34.5,30.5 C41.127417,30.5 46.5,35.872583 46.5,42.5 C46.5,49.0254567 41.2914556,54.3343928 34.8049748,54.4962001 L34.5,54.5 L18.5,54.5 C16.290861,54.5 14.5,56.290861 14.5,58.5 C14.5,60.6421954 16.1839685,62.3910789 18.3003597,62.4951047 L18.5,62.5 L66.5,62.5 C73.127417,62.5 78.5,67.872583 78.5,74.5 C78.5,81.0254567 73.2914556,86.3343928 66.8049748,86.4962001 L66.5,86.5 L18.5,86.5 C16.290861,86.5 14.5,88.290861 14.5,90.5 C14.5,92.6421954 16.1839685,94.3910789 18.3003597,94.4951047 L18.5,94.5 L106.5,94.5 L106.5,102.5 L18.5,102.5 C11.872583,102.5 6.5,97.127417 6.5,90.5 C6.5,83.9745433 11.7085444,78.6656072 18.1950252,78.5037999 L18.5,78.5 L66.5,78.5 C68.709139,78.5 70.5,76.709139 70.5,74.5 C70.5,72.3578046 68.8160315,70.6089211 66.6996403,70.5048953 L66.5,70.5 L18.5,70.5 C11.872583,70.5 6.5,65.127417 6.5,58.5 C6.5,51.9745433 11.7085444,46.6656072 18.1950252,46.5037999 L18.5,46.5 L34.5,46.5 C36.709139,46.5 38.5,44.709139 38.5,42.5 C38.5,40.3578046 36.8160315,38.6089211 34.6996403,38.5048953 L34.5,38.5 L18.5,38.5 C11.9745433,38.5 6.66560725,33.2914556 6.50379986,26.8049748 L6.5,26.5 L6.5,18.5 L14.5,18.5 Z M94.5,42.5 L94.5,74.5 L86.5,74.5 L86.5,42.5 L94.5,42.5 Z M95.3544792,26.579205 L95.4923018,26.7773501 L109.828201,48.2811992 L103.171799,52.7188008 L90.5,33.711 L77.8282012,52.7188008 L71.1717988,48.2811992 L85.5076982,26.7773501 C85.9471074,26.1182364 86.5126851,25.5526587 87.1717988,25.1132495 C89.8617229,23.3199668 93.473045,23.9853711 95.3544792,26.579205 Z" id="Shape" fill="#000000" fill-rule="nonzero"></path>
  </g>
</svg>
