<?xml version="1.0" encoding="UTF-8"?><svg viewBox="0 0 116 116" version="1.1" xmlns="http://www.w3.org/2000/svg" xmlns:xlink="http://www.w3.org/1999/xlink">
  <title>assignment</title>
  <g id="assignment" stroke="none" stroke-width="1" fill="none" fill-rule="evenodd">
    <path d="M66,6 L66.3049748,6.00379986 C71.3973242,6.13083018 75.7020344,9.43022544 77.3172086,14.000089 L92,14 C97.4292399,14 101.847932,18.3266708 101.996158,23.7200952 L102,24 L102,26.5 L94,26.5 L94,24 C94,22.9456382 93.1841222,22.0818349 92.1492623,22.0054857 L92,22 L78,22 L78,29.5 L50,29.5 L50,22 L50.0618877,22.0000487 C50.5539641,18.0537136 53.9203656,15 58,15 C61.9057323,15 65.1577414,17.7989217 65.8596843,21.500422 L70,21.5 L70,18 L69.9951047,17.8003597 C69.8944345,15.7522392 68.253315,14.1090931 66.2060394,14.0052149 L66,14 L50,14 L49.8003597,14.0048953 C47.7522392,14.1055655 46.1090931,15.746685 46.0052149,17.7939606 L46,18 L46,29.5 L38,29.5 L38,22 L25,22 C23.9456382,22 23.0818349,22.8158778 23.0054857,23.8507377 L23,24 L23,100 C23,101.054362 23.8158778,101.918165 24.8507377,101.994514 L25,102 L92,102 C93.0543618,102 93.9181651,101.184122 93.9945143,100.149262 L94,100 L94,50 L102,50 L102,100 C102,105.42924 97.6733292,109.847932 92.2799048,109.996158 L92,110 L25,110 C19.5707601,110 15.1520683,105.673329 15.0038418,100.279905 L15,100 L15,24 C15,18.5707601 19.3266708,14.1520683 24.7200952,14.0038418 L25,14 L38.6825166,14.0008664 C40.2960033,9.43477133 44.5945303,6.13686244 49.6810816,6.00415566 L50,6 L66,6 Z M95.1715729,31.1715729 L100.828427,36.8284271 L58,79.6568542 L39.1715729,60.8284271 L44.8284271,55.1715729 L58,68.343 L95.1715729,31.1715729 Z" id="Shape" fill="#000000" fill-rule="nonzero"></path>
  </g>
</svg>
