<?xml version="1.0" encoding="UTF-8"?><svg viewBox="0 0 116 116" version="1.1" xmlns="http://www.w3.org/2000/svg" xmlns:xlink="http://www.w3.org/1999/xlink">
  <title>backward-step</title>
  <g id="backward-step" stroke="none" stroke-width="1" fill="none" fill-rule="evenodd">
    <path d="M61,28.7338096 C61,30.6668062 59.4329966,32.2338096 57.5,32.2338096 C56.9449404,32.2338096 56.399012,32.101814 55.906796,31.8501711 L55.6992649,31.7350349 L40.0720704,22.3587182 C37.9409592,21.0800514 37.2499164,18.3158803 38.5285831,16.1847691 C38.861104,15.6305675 39.3085194,15.1554421 39.8394882,14.7907338 L40.0720704,14.6412818 L57.2137606,4.35626769 L59.7862394,8.64373231 L43.358,18.499 L56,26.084 L56,16 L90.5,16 C96.2039245,16 100.845573,20.548142 100.996226,26.2157049 L101,26.5 L101,90.5 C101,96.2039245 96.451858,100.845573 90.7842951,100.996226 L90.5,101 L26.5,101 C20.7960755,101 16.1544266,96.451858 16.0037742,90.7842951 L16,90.5 L16,26.5 C16,20.7960755 20.548142,16.1544266 26.2157049,16.0037742 L26.5,16 L26.5,21 C23.5365209,21 21.1204609,23.34378 21.0043672,26.2787929 L21,26.5 L21,90.5 C21,93.4634791 23.34378,95.8795391 26.2787929,95.9956328 L26.5,96 L90.5,96 C93.4634791,96 95.8795391,93.65622 95.9956328,90.7212071 L96,90.5 L96,26.5 C96,23.5365209 93.65622,21.1204609 90.7212071,21.0043672 L90.5,21 L61,21 L61,28.7338096 Z" id="Path-175" fill="#000000" fill-rule="nonzero"></path>
    <path d="M62.5,28.7338096 C62.5,31.4952334 60.2614237,33.7338096 57.5,33.7338096 C56.6844022,33.7338096 55.882605,33.5343154 55.1639124,33.1545231 L54.9275212,33.0212742 L39.3003267,23.6449576 C36.4588451,21.9400686 35.5374548,18.2545071 37.2423437,15.4130255 C37.6983724,14.6529776 38.3164726,14.0044755 39.0511711,13.5129923 L39.3003267,13.3550424 L56.442017,3.0700283 L60.557983,9.9299717 L46.273,18.499 L54.5,23.435 L54.5,14.5 L90.5,14.5 C97.0254567,14.5 102.334393,19.7085444 102.4962,26.1950252 L102.5,26.5 L102.5,90.5 C102.5,97.0254567 97.2914556,102.334393 90.8049748,102.4962 L90.5,102.5 L26.5,102.5 C19.9745433,102.5 14.6656072,97.2914556 14.5037999,90.8049748 L14.5,90.5 L14.5,26.5 C14.5,19.9745433 19.7085444,14.6656072 26.1950252,14.5037999 L26.5,14.5 L26.5,22.5 C24.3578046,22.5 22.6089211,24.1839685 22.5048953,26.3003597 L22.5,26.5 L22.5,90.5 C22.5,92.6421954 24.1839685,94.3910789 26.3003597,94.4951047 L26.5,94.5 L90.5,94.5 C92.6421954,94.5 94.3910789,92.8160315 94.4951047,90.6996403 L94.5,90.5 L94.5,26.5 C94.5,24.3578046 92.8160315,22.6089211 90.6996403,22.5048953 L90.5,22.5 L62.5,22.5 L62.5,28.7338096 Z" id="Path" fill="#000000" fill-rule="nonzero"></path>
  </g>
</svg>
