<?xml version="1.0" encoding="UTF-8"?><svg viewBox="0 0 116 116" version="1.1" xmlns="http://www.w3.org/2000/svg" xmlns:xlink="http://www.w3.org/1999/xlink">
  <title>ballot-box</title>
  <g id="ballot-box" stroke="none" stroke-width="1" fill="none" fill-rule="evenodd">
    <path d="M72.5,3.781467 C75.7383969,3.781467 78.3775718,6.34704189 78.4958615,9.55652874 L78.5,9.781467 L78.5,32.027467 L104.711146,45.1334369 C105.87231,45.7140191 106.813845,46.655554 107.394427,47.8167184 C108.841899,50.7116622 107.729442,54.2173442 104.915056,55.7597639 L104.711146,55.8665631 L64.7111456,75.8665631 C63.4205398,76.5118661 62.5826565,77.7988782 62.5057847,79.2287777 L62.5,79.4442719 L62.5,103.966 L100.318482,84.6642252 C101.593551,84.0134087 102.418618,82.7341218 102.494305,81.315294 L102.5,81.1014844 L102.5,63.2449699 L110.5,63.2449699 L110.5,81.1014844 C110.5,85.5035301 108.090866,89.5428126 104.239792,91.6397609 L103.955447,91.7897068 L64.682344,111.835353 C61.238961,113.592913 57.0227636,112.226284 55.2652036,108.782901 C54.8125326,107.896035 54.5548545,106.923969 54.5078456,105.931898 L54.5,105.600557 L54.5,79.4442719 C54.5,75.004711 56.9499742,70.9373239 60.8522467,68.8563841 L61.1334369,68.7111456 L97.556,50.5 L78.5,40.971467 L78.5,44.972136 L49.2623103,59.5909808 L45.6846016,52.4355633 L70.5,40.027 L70.5,13.062 L46.5,25.437934 L46.5,50.5 L38.5,50.5 L38.5,40.970467 L19.436,50.503 L52.2049758,66.9220384 L48.6212923,74.0744654 L14.5,56.978 L14.5,81.5557281 C14.5,82.9986693 15.2764259,84.3236642 16.5209887,85.031891 L16.7111456,85.1334369 L47.6416577,100.598693 L44.063949,107.75411 L13.1334369,92.2888544 C9.16257289,90.3034224 6.62025302,86.293108 6.50415316,81.8721848 L6.5,81.5557281 L6.5,53.7390917 C6.5,52.8059281 6.71765934,51.8856271 7.1356797,51.0513291 C7.61897608,50.0867511 8.32706611,49.3091943 9.16458995,48.7503569 L9.246,48.697 L9.3110821,48.5031715 C9.78676947,47.1562574 10.7410283,45.9765876 12.0812121,45.242102 L12.2851225,45.1353028 L38.5,32.027467 L38.5,25.437934 C38.5,22.5401178 40.066099,19.8770887 42.5792391,18.464556 L42.8336869,18.3275087 L69.7502652,4.448648 C70.6005476,4.01022112 71.54334,3.781467 72.5,3.781467 Z" id="Path" fill="#000000" fill-rule="nonzero"></path>
  </g>
</svg>
