<?xml version="1.0" encoding="UTF-8"?><svg viewBox="0 0 116 116" version="1.1" xmlns="http://www.w3.org/2000/svg" xmlns:xlink="http://www.w3.org/1999/xlink">
  <title>bandage</title>
  <g id="bandage" stroke="none" stroke-width="1" fill="none" fill-rule="evenodd">
    <path d="M99.3284271,17.6715729 C109.623094,27.9662395 109.72604,44.5932291 99.6372671,55.0145422 L99.3284271,55.3284271 L55.3284271,99.3284271 C44.929774,109.72708 28.070226,109.72708 17.6715729,99.3284271 C7.37690624,89.0337605 7.27395958,72.4067709 17.3627329,61.9854578 L17.6715729,61.6715729 L23.6715729,55.6715729 L29.3284271,61.3284271 L23.3284271,67.3284271 C16.0539683,74.602886 16.0539683,86.397114 23.3284271,93.6715729 C30.514173,100.857319 42.1101221,100.94495 49.403434,93.934466 L49.6715729,93.6715729 L93.6715729,49.6715729 C100.946032,42.397114 100.946032,30.602886 93.6715729,23.3284271 C86.485827,16.1426812 74.8898779,16.0550502 67.596566,23.065534 L67.3284271,23.3284271 L36.157,54.5 L38.601,56.944 L38.7210041,56.7756844 C38.9486233,56.4671678 39.1969351,56.169127 39.4659396,55.8834669 L39.6715729,55.6715729 C43.442809,51.9003367 49.557191,51.9003367 53.3284271,55.6715729 C57.0996633,59.442809 57.0996633,65.557191 53.3284271,69.3284271 C52.6813853,69.975469 52.6813853,71.024531 53.3284271,71.6715729 C53.975469,72.3186147 55.024531,72.3186147 55.6715729,71.6715729 C56.2805534,71.0625923 56.3163758,70.097497 55.77904,69.4466205 L55.6715729,69.3284271 L61.3284271,63.6715729 C65.0996633,67.442809 65.0996633,73.557191 61.3284271,77.3284271 C57.557191,81.0996633 51.442809,81.0996633 47.6715729,77.3284271 C43.9003367,73.557191 43.9003367,67.442809 47.6715729,63.6715729 C48.3186147,63.024531 48.3186147,61.975469 47.6715729,61.3284271 C47.024531,60.6813853 45.975469,60.6813853 45.3284271,61.3284271 C44.7194466,61.9374077 44.6836242,62.902503 45.22096,63.5533795 L45.3284271,63.6715729 L39.6715729,69.3284271 L29.7928932,59.4497475 C27.121352,56.7782063 27.0606352,52.4845068 29.6107427,49.7392312 L29.7928932,49.5502525 L61.6715729,17.6715729 C72.070226,7.27291971 88.929774,7.27291971 99.3284271,17.6715729 Z M69.1165331,39.4659396 L69.3284271,39.6715729 L63.6715729,45.3284271 C63.024531,44.6813853 61.975469,44.6813853 61.3284271,45.3284271 C60.6813853,45.975469 60.6813853,47.024531 61.3284271,47.6715729 C61.975469,48.3186147 63.024531,48.3186147 63.6715729,47.6715729 C67.442809,43.9003367 73.557191,43.9003367 77.3284271,47.6715729 C81.0996633,51.442809 81.0996633,57.557191 77.3284271,61.3284271 C73.6270287,65.0298256 67.6684641,65.09837 63.8834669,61.5340604 L63.6715729,61.3284271 L69.3284271,55.6715729 C69.975469,56.3186147 71.024531,56.3186147 71.6715729,55.6715729 C72.3186147,55.024531 72.3186147,53.975469 71.6715729,53.3284271 C71.024531,52.6813853 69.975469,52.6813853 69.3284271,53.3284271 C65.557191,57.0996633 59.442809,57.0996633 55.6715729,53.3284271 C51.9003367,49.557191 51.9003367,43.442809 55.6715729,39.6715729 C59.3729713,35.9701744 65.3315359,35.90163 69.1165331,39.4659396 Z" id="Shape" fill="#000000" fill-rule="nonzero"></path>
  </g>
</svg>
