<?xml version="1.0" encoding="UTF-8"?><svg viewBox="0 0 116 116" version="1.1" xmlns="http://www.w3.org/2000/svg" xmlns:xlink="http://www.w3.org/1999/xlink">
  <title>bar-chart</title>
  <g id="bar-chart" stroke="none" stroke-width="1" fill="none" fill-rule="evenodd">
    <path d="M107,102.5 L107,110.5 L10.5,110.5 L10.5,102.5 L107,102.5 Z M75.5,6.5 C79.2854517,6.5 82.3690987,9.50478338 82.495941,13.2593502 L82.5,13.5 L82.5,61.5 C82.5,57.7145483 85.5047834,54.6309013 89.2593502,54.504059 L89.5,54.5 L99.5,54.5 C103.285452,54.5 106.369099,57.5047834 106.495941,61.2593502 L106.5,61.5 L106.5,98.5 L98.5,98.5 L98.5,62.5 L90.5,62.5 L90.5,92.5 C90.5,96.8349143 87.0521622,100.364543 82.7491793,100.496193 L82.5,100.5 C78.1650857,100.5 74.6354571,97.0521622 74.5038068,92.7491793 L74.5,92.5 L74.5,14.5 L66.5,14.5 L66.5,92.5 C66.5,96.8349143 63.0521622,100.364543 58.7491793,100.496193 L58.5,100.5 C54.1650857,100.5 50.6354571,97.0521622 50.5038068,92.7491793 L50.5,92.5 L50.5,30.5 L42.5,30.5 L42.5,92.5 C42.5,96.8349143 39.0521622,100.364543 34.7491793,100.496193 L34.5,100.5 C30.1650857,100.5 26.6354571,97.0521622 26.5038068,92.7491793 L26.5,92.5 L26.5,62.5 L18.5,62.5 L18.5,98.5 L10.5,98.5 L10.5,61.5 C10.5,57.7145483 13.5047834,54.6309013 17.2593502,54.504059 L17.5,54.5 L27.5,54.5 C31.2854517,54.5 34.3690987,57.5047834 34.495941,61.2593502 L34.5,61.5 L34.5,29.5 C34.5,25.7145483 37.5047834,22.6309013 41.2593502,22.504059 L41.5,22.5 L51.5,22.5 C55.2854517,22.5 58.3690987,25.5047834 58.495941,29.2593502 L58.5,29.5 L58.5,13.5 C58.5,9.71454828 61.5047834,6.63090132 65.2593502,6.50405902 L65.5,6.5 L75.5,6.5 Z" id="Shape" fill="#000000" fill-rule="nonzero"></path>
  </g>
</svg>
