<?xml version="1.0" encoding="UTF-8"?><svg viewBox="0 0 116 116" version="1.1" xmlns="http://www.w3.org/2000/svg" xmlns:xlink="http://www.w3.org/1999/xlink">
  <title>barcode</title>
  <g id="barcode" stroke="none" stroke-width="1" fill="none" fill-rule="evenodd" transform="translate(0.000000, 0.000000)">
    <path d="M106.5,94.5 L106.5,102.5 L10.5,102.5 L10.5,94.5 L106.5,94.5 Z M106.5,14.5 L106.5,22.5 L10.5,22.5 L10.5,14.5 L106.5,14.5 Z M19.5,30.5 C23.2854517,30.5 26.3690987,33.5047834 26.495941,37.2593502 L26.5,37.5 L26.5,82.5 L18.5,82.5 L18.5,38.5 L14.5,38.5 L14.5,78.5 L16.5,78.5 L16.5,86.5 L13.5,86.5 C9.71454828,86.5 6.63090132,83.4952166 6.50405902,79.7406498 L6.5,79.5 L6.5,37.5 C6.5,33.7145483 9.50478338,30.6309013 13.2593502,30.504059 L13.5,30.5 L19.5,30.5 Z M38.5,31 L38.5,86 L30.5,86 L30.5,31 L38.5,31 Z M59.5,30.5 C63.2854517,30.5 66.3690987,33.5047834 66.495941,37.2593502 L66.5,37.5 L66.5,78.5 L70.5,78.5 L70.5,37.5 C70.5,33.7145483 73.5047834,30.6309013 77.2593502,30.504059 L77.5,30.5 L91.5,30.5 C95.2854517,30.5 98.3690987,33.5047834 98.495941,37.2593502 L98.5,37.5 L98.495941,86 L90.495941,86 L90.5,38.5 L78.5,38.5 L78.5,79.5 C78.5,83.2854517 75.4952166,86.3690987 71.7406498,86.495941 L71.5,86.5 L65.5,86.5 C61.7145483,86.5 58.6309013,83.4952166 58.504059,79.7406498 L58.5,79.5 L58.5,38.5 L50.5,38.5 L50.5,78.5 L54.5,78.5 L54.5,86.5 L49.5,86.5 C45.7145483,86.5 42.6309013,83.4952166 42.504059,79.7406498 L42.5,79.5 L42.5,37.5 C42.5,33.7145483 45.5047834,30.6309013 49.2593502,30.504059 L49.5,30.5 L59.5,30.5 Z M110.5,31 L110.5,86 L102.5,86 L102.5,31 L110.5,31 Z" id="Shape" fill="#000000" fill-rule="nonzero"></path>
  </g>
</svg>
