<?xml version="1.0" encoding="UTF-8"?><svg viewBox="0 0 116 116" version="1.1" xmlns="http://www.w3.org/2000/svg" xmlns:xlink="http://www.w3.org/1999/xlink">
  <title>bell</title>
  <g id="bell" stroke="none" stroke-width="1" fill="none" fill-rule="evenodd" transform="translate(0.000000, 0.000000)">
    <path d="M58.5,98.5 L51.607,98.5 L51.7017981,98.7025739 C52.9523586,101.300826 55.0472105,102.437954 58.2320669,102.497522 L58.5,102.5 C63.2782471,102.5 65.679183,100.18755 66.4868669,94.3387124 L66.5308885,94.0038611 L66.9688711,90.5 L94.5,90.5 L94.5,86.5 C94.5,84.3578046 92.8160315,82.6089211 90.6996403,82.5048953 L90.5,82.5 L86.5,82.5 L86.5,54 C86.5,38.6906667 74.2134399,26.2510133 58.9630312,26.0037512 L58.5,26 L46.5,26 L46.5,18.5 C46.5,11.872583 51.872583,6.5 58.5,6.5 C60.9424849,6.5 63.2835661,7.23563658 65.2576202,8.5826681 L65.5662241,8.80042001 L60.8521103,15.2639431 C60.1733609,14.7689032 59.3622477,14.5 58.5,14.5 C56.4916918,14.5 54.8290679,15.9800504 54.5433703,17.9089093 L54.532,18 L58.5,18 C78.1834285,18 94.1772686,33.7970058 94.495177,53.4046742 L94.5,54 L94.5,75.183 L94.56655,75.2065672 C99.1018181,76.8398894 102.369788,81.1274621 102.4962,86.1950252 L102.5,86.5 L102.5,98.5 L73.803,98.5 L73.730308,98.7723966 C71.685646,106.193849 66.5610589,110.368296 58.8682628,110.496936 L58.5,110.5 C50.6024024,110.5 45.3468089,106.311649 43.269692,98.7723966 L43.196,98.5 L14.5,98.5 L14.5,86.5 C14.5,81.3000267 17.8074765,76.8725559 22.43345,75.2065672 L22.5,75.183 L22.5,54 C22.5,41.1533116 29.2889968,29.4857368 40.1086851,23.0465138 L40.5214913,22.8045077 L44.5218726,29.7324908 C36.0452349,34.627102 30.6673038,43.5966753 30.5038353,53.5335141 L30.5,54 L30.5,82.5 L26.5,82.5 C24.3578046,82.5 22.6089211,84.1839685 22.5048953,86.3003597 L22.5,86.5 L22.5,90.5 L58.5,90.5 L58.5,98.5 Z" id="Path" fill="#000000" fill-rule="nonzero"></path>
  </g>
</svg>
