<?xml version="1.0" encoding="UTF-8"?><svg viewBox="0 0 116 116" version="1.1" xmlns="http://www.w3.org/2000/svg" xmlns:xlink="http://www.w3.org/1999/xlink">
  <title>bell-off</title>
  <g id="bell-off" stroke="none" stroke-width="1" fill="none" fill-rule="evenodd" transform="translate(0.000000, 0.000000)">
    <path d="M13.3284271,7.67157288 L109.328427,103.671573 L103.671573,109.328427 L92.8425729,98.499 L73.803,98.499 L73.730308,98.7723966 C71.685646,106.193849 66.5610589,110.368296 58.8682628,110.496936 L58.5,110.5 C50.6024024,110.5 45.3468089,106.311649 43.269692,98.7723966 L43.196,98.499 L14.5,98.5 L14.5,86.5 C14.5,81.3000267 17.8074765,76.8725559 22.43345,75.2065672 L22.5,75.183 L22.5,54 C22.5,51.9592659 22.6702077,49.9386121 23.0062729,47.9532304 L23.1400634,47.2103953 L30.9980267,48.7111995 C30.7090284,50.2243467 30.5444754,51.7670598 30.5078528,53.3293015 L30.5,54 L30.5,82.5 L26.5,82.5 C24.3578046,82.5 22.6089211,84.1839685 22.5048953,86.3003597 L22.5,86.5 L22.5,90.499 L58.5,90.5 L58.5,98.5 L51.607,98.499 L51.7017981,98.7025739 C52.9523586,101.300826 55.0472105,102.437954 58.2320669,102.497522 L58.5,102.5 C63.2782471,102.5 65.679183,100.18755 66.4868669,94.3387124 L66.5308885,94.0038611 L66.9688711,90.5 L84.8425729,90.499 L7.67157288,13.3284271 L13.3284271,7.67157288 Z M58.5,6.5 C61.2921705,6.5 63.9453376,7.46172108 66.0644162,9.18408987 L66.3377565,9.41304384 L61.1108522,15.4694018 C60.388249,14.8457633 59.4761949,14.5 58.5,14.5 C56.4916918,14.5 54.8290679,15.9800504 54.5433703,17.9089093 L54.532,18 L58.5,18 C78.1834285,18 94.1772686,33.7970058 94.495177,53.4046742 L94.5,54 L94.5,72.1995678 L86.5,72.1995678 L86.5,54 C86.5,38.6906667 74.2134399,26.2510133 58.9630312,26.0037512 L58.5,26 L46.5,26 L46.5,18.5 C46.5,11.872583 51.872583,6.5 58.5,6.5 Z" id="Shape" fill="#000000" fill-rule="nonzero"></path>
  </g>
</svg>
