<?xml version="1.0" encoding="UTF-8"?><svg viewBox="0 0 116 116" version="1.1" xmlns="http://www.w3.org/2000/svg" xmlns:xlink="http://www.w3.org/1999/xlink">
  <title>bicycle</title>
  <g id="bicycle" stroke="none" stroke-width="1" fill="none" fill-rule="evenodd">
    <path d="M28.5,46.5 C41.754834,46.5 52.5,57.245166 52.5,70.5 C52.5,83.754834 41.754834,94.5 28.5,94.5 C20.776764,94.5 13.6644189,90.8211635 9.17627697,84.7357923 L8.92504736,84.3887757 L15.4463015,79.7548525 C18.4325325,83.9573328 23.2494541,86.5 28.5,86.5 C37.336556,86.5 44.5,79.336556 44.5,70.5 C44.5,61.663444 37.336556,54.5 28.5,54.5 C21.21578,54.5 14.9367367,59.4066365 13.0641679,66.2687555 L13.004,66.5 L28.5,66.5 L28.5,74.5 L11.7617814,74.5 C11.4130666,74.4995769 11.0648692,74.4731018 10.7200977,74.4207904 C6.89779837,73.8408413 4.26936451,70.2720683 4.84954344,66.4493323 C4.8910502,66.176052 4.9360661,65.9194882 4.98536252,65.6780247 C7.24989234,54.585914 17.0434366,46.5 28.5,46.5 Z M72.6810208,22.5 C76.6473403,22.5 80.1341019,25.0943227 81.2872524,28.8668499 L81.3638952,29.1319433 L91.3255956,65.6581782 C91.4893004,66.2584291 91.5722488,66.8778261 91.5722488,67.5 C91.5722488,71.2854517 88.5674655,74.3690987 84.8128986,74.495941 L84.5722488,74.5 L73.003,74.5 L73.07964,74.7874562 C74.9411547,81.5117375 81.036342,86.3421353 88.1493724,86.4962053 L88.5,86.5 C97.336556,86.5 104.5,79.336556 104.5,70.5 C104.5,61.7686411 97.506099,54.6707953 88.8148707,54.5030364 L88.5,54.5 L88.5,46.5 C101.754834,46.5 112.5,57.245166 112.5,70.5 C112.5,83.754834 101.754834,94.5 88.5,94.5 C77.0773634,94.5 67.3042643,86.4612419 65.0040255,75.4124964 C64.9475643,75.1412961 64.8964752,74.8511627 64.8497261,74.5399747 C64.2753538,70.7168617 66.9090046,67.1520143 70.7321174,66.577677 C70.9616032,66.5432019 71.1925902,66.5201705 71.4242214,66.5086468 L71.7720439,66.5 L83.263,66.5 L73.6457846,31.2368826 C73.5379182,30.8413724 73.2015339,30.5559778 72.8024584,30.5073565 L72.6810208,30.5 L58.5,30.5 L58.5,22.5 L72.6810208,22.5 Z M62.5,34.5 L62.5,42.5 L57.418,42.5 L58.252,46.5 L74.5,46.5 L74.5,54.5 L59.831,54.5 L62.1892721,66.1065805 C62.2591404,66.4505474 62.3030062,66.7991191 62.3205723,67.1493395 L62.3293609,67.5 C62.3293609,71.2854517 59.3245775,74.3690987 55.5700107,74.495941 L55.3293609,74.5 L53,74.5 L53,66.5 L54.105,66.5 L49.231,42.5 L42,42.5 L42,34.5 L62.5,34.5 Z" id="Shape" fill="#000000" fill-rule="nonzero"></path>
  </g>
</svg>
