<?xml version="1.0" encoding="UTF-8"?><svg viewBox="0 0 116 116" version="1.1" xmlns="http://www.w3.org/2000/svg" xmlns:xlink="http://www.w3.org/1999/xlink">
  <title>bluetooth-diamonds</title>
  <g id="bluetooth-diamonds" stroke="none" stroke-width="1" fill="none" fill-rule="evenodd">
    <path d="M68.4955646,62.8387103 L83.2071068,77.5502525 C85.878648,80.2217937 85.9393648,84.5154932 83.3892573,87.2607688 L83.2071068,87.4497475 L64.7426407,105.914214 C62.3994949,108.257359 58.6005051,108.257359 56.2573593,105.914214 C55.1983304,104.855185 54.5760757,103.441029 54.5065337,101.951645 L54.5,101.671573 L54.5,71.2072477 L62.5,71.2072477 L62.5,96.842 L76.843,82.5 L62.8387103,68.4955646 L68.4955646,62.8387103 Z M60.5,9.32842712 C61.9976931,9.32842712 63.437653,9.88838597 64.5399794,10.8923653 L64.7426407,11.0857864 L83.2071068,29.5502525 C85.878648,32.2217937 85.9393648,36.5154932 83.3892573,39.2607688 L83.2071068,39.4497475 L27.3284271,95.3284271 L21.6715729,89.6715729 L76.843,34.5 L62.5,20.157 L62.5,45.1685625 L54.5,45.1685625 L54.5,15.3284271 C54.5,12.0147186 57.1862915,9.32842712 60.5,9.32842712 Z M95.2607688,45.6107427 L95.4497475,45.7928932 L103.207107,53.5502525 C105.878648,56.2217937 105.939365,60.5154932 103.389257,63.2607688 L103.207107,63.4497475 L95.4497475,71.2071068 C92.7782063,73.878648 88.4845068,73.9393648 85.7392312,71.3892573 L85.5502525,71.2071068 L79.6715729,65.3284271 L85.3284271,59.6715729 L90.5,64.843 L96.843,58.5 L90.5,52.157 L81.3284271,61.3284271 L75.6715729,55.6715729 L85.5502525,45.7928932 C88.2217937,43.121352 92.5154932,43.0606352 95.2607688,45.6107427 Z M31.2607688,45.6107427 L31.4497475,45.7928932 L41.3284271,55.6715729 L35.6715729,61.3284271 L26.5,52.157 L20.157,58.5 L26.5,64.843 L31.6715729,59.6715729 L37.3284271,65.3284271 L31.4497475,71.2071068 C28.7782063,73.878648 24.4845068,73.9393648 21.7392312,71.3892573 L21.5502525,71.2071068 L13.7928932,63.4497475 C11.121352,60.7782063 11.0606352,56.4845068 13.6107427,53.7392312 L13.7928932,53.5502525 L21.5502525,45.7928932 C24.2217937,43.121352 28.5154932,43.0606352 31.2607688,45.6107427 Z M27.3284271,21.6715729 L53.1019193,47.4450651 L47.4450651,53.1019193 L21.6715729,27.3284271 L27.3284271,21.6715729 Z" id="Shape" fill="#000000" fill-rule="nonzero"></path>
  </g>
</svg>
