<?xml version="1.0" encoding="UTF-8"?><svg viewBox="0 0 116 116" version="1.1" xmlns="http://www.w3.org/2000/svg" xmlns:xlink="http://www.w3.org/1999/xlink">
  <title>bluetooth</title>
  <g id="bluetooth" stroke="none" stroke-width="1" fill="none" fill-rule="evenodd">
    <path d="M64.6036116,70.2604659 L70.2604659,64.6036116 L83.2071068,77.5502525 C85.878648,80.2217937 85.9393648,84.5154932 83.3892573,87.2607688 L83.2071068,87.4497475 L64.7426407,105.914214 C62.3994949,108.257359 58.6005051,108.257359 56.2573593,105.914214 C55.1983304,104.855185 54.5760757,103.441029 54.5065337,101.951645 L54.5,101.671573 L54.5,72.4742579 L62.5,72.4742579 L62.5,96.842 L76.843,82.5 L64.6036116,70.2604659 Z M60.5,9.32842712 C61.9976931,9.32842712 63.437653,9.88838597 64.5399794,10.8923653 L64.7426407,11.0857864 L83.2071068,29.5502525 C85.878648,32.2217937 85.9393648,36.5154932 83.3892573,39.2607688 L83.2071068,39.4497475 L27.3284271,95.3284271 L21.6715729,89.6715729 L76.843,34.5 L62.5,20.157 L62.5,45.0030627 L54.5,45.0030627 L54.5,15.3284271 C54.5,12.0147186 57.1862915,9.32842712 60.5,9.32842712 Z M21.6715729,27.3284271 L27.3284271,21.6715729 L53.5630215,47.9061673 L47.9061673,53.5630215 L21.6715729,27.3284271 Z" id="Shape" fill="#000000" fill-rule="nonzero"></path>
  </g>
</svg>
