<?xml version="1.0" encoding="UTF-8"?><svg viewBox="0 0 116 116" version="1.1" xmlns="http://www.w3.org/2000/svg" xmlns:xlink="http://www.w3.org/1999/xlink">
  <title>bluetooth-off</title>
  <g id="bluetooth-off" stroke="none" stroke-width="1" fill="none" fill-rule="evenodd">
    <path d="M7.67157288,13.3284271 L13.3284271,7.67157288 L109.328427,103.671573 L103.671573,109.328427 L7.67157288,13.3284271 Z M62.5,70 L62.5,96.842 L70.9939297,88.3492161 L76.6507839,94.0060703 L64.7426407,105.914214 C62.3994949,108.257359 58.6005051,108.257359 56.2573593,105.914214 C55.1983304,104.855185 54.5760757,103.441029 54.5065337,101.951645 L54.5,101.671573 L54.5,70 L62.5,70 Z M48.6240861,62.7190596 L54.2809404,68.3759139 L27.3284271,95.3284271 L21.6715729,89.6715729 L48.6240861,62.7190596 Z M60.5,9.32842712 C61.9976931,9.32842712 63.437653,9.88838597 64.5399794,10.8923653 L64.7426407,11.0857864 L83.2071068,29.5502525 C85.878648,32.2217937 85.9393648,36.5154932 83.3892573,39.2607688 L83.2071068,39.4497475 L68.3878058,54.2690485 L62.7309515,48.6121942 L76.843,34.5 L62.5,20.157 L62.5,46.5 L54.5,46.5 L54.5,15.3284271 C54.5,12.0147186 57.1862915,9.32842712 60.5,9.32842712 Z" id="Shape" fill="#000000" fill-rule="nonzero"></path>
  </g>
</svg>
