<?xml version="1.0" encoding="UTF-8"?><svg viewBox="0 0 116 116" version="1.1" xmlns="http://www.w3.org/2000/svg" xmlns:xlink="http://www.w3.org/1999/xlink">
  <title>blur</title>
  <g id="blur" stroke="none" stroke-width="1" fill="none" fill-rule="evenodd" transform="translate(0.000000, 0.000000)">
    <path d="M54.5,10.5 L62.5,10.5 L62.5,94.279 L62.6156974,94.2673063 C80.366812,92.2470286 94.1997469,77.3165934 94.495177,59.0953258 L94.5,58.5 C94.5,41.5204858 82.6530816,26.9675927 66.325801,23.3520905 L65.8296711,23.2458864 L67.4491647,15.4115236 C87.7295686,19.6038216 102.5,37.5362961 102.5,58.5 C102.5,81.3424973 85.0935474,100.1195 62.8211425,102.290507 L62.5,102.319 L62.5,106.5 L54.5,106.5 L54.5,21.274 L54.4854034,21.2661683 C54.1710005,21.0820759 53.8530962,20.8787247 53.5301588,20.6570298 L53.2054871,20.4292544 C53.0923375,20.3482099 52.9632197,20.2921725 52.8267128,20.2648712 C52.2954194,20.1586125 51.7785814,20.5031712 51.6723227,21.0344645 C51.3982116,22.4050202 50.8320002,23.7004212 50.0122366,24.8324757 C47.2631919,28.6287755 42.2835474,29.8539749 38.1680712,28.0129109 L37.89,27.883 L37.9025363,28.0387768 C37.9512851,28.8792608 37.8862867,29.7247262 37.7075411,30.5519266 L37.6239717,30.9052551 C36.4977084,35.2851679 32.4450947,38.1373511 28.0964499,37.9075251 L27.775,37.884 L27.7885253,37.9073629 C28.2535521,38.7722755 28.5813839,39.7059135 28.7587929,40.6748001 L28.8182443,41.0397194 C29.464398,45.5627953 26.7868499,49.7941278 22.6391015,51.2623817 L22.436,51.331 L22.6877027,51.5597292 C23.2157888,52.0603863 23.6851112,52.6218594 24.085309,53.2335342 L24.2795994,53.543506 C26.6563336,57.5047296 25.7726151,62.513855 22.4091901,65.4478974 L22.188,65.634 L22.4955621,65.7407286 C23.2069635,66.0033379 23.8864635,66.3486826 24.5197499,66.7705069 L24.8324757,66.9877634 C28.6287755,69.7368081 29.8539749,74.7164526 28.0129109,78.8319288 L27.883,79.109 L28.0387768,79.0974637 C28.8792608,79.0487149 29.7247262,79.1137133 30.5519266,79.2924589 L30.9052551,79.3760283 C35.2869206,80.5027423 38.1396335,84.5581491 37.9072477,88.9087707 L37.893,89.118 L38.0632931,89.0367464 C38.6370794,88.7725205 39.2363325,88.5643016 39.8527699,88.4157099 L40.2246282,88.3337391 C45.4024452,87.2981757 50.4418142,90.5803853 51.6142085,95.6946836 L51.6723227,95.9655355 L43.8276773,97.5344645 C43.6404417,96.5982866 42.7297352,95.9911489 41.7935572,96.1783845 C41.598732,96.2173496 41.4124534,96.2895324 41.2427448,96.391426 L41.0960392,96.4897685 C37.8624686,98.8313196 33.3429395,98.108195 31.0013883,94.8746243 C29.7969464,93.2113474 29.3594115,91.1184826 29.7881122,89.1194831 L29.8552586,88.8346068 L29.8760283,88.7538358 C30.0601497,88.0378082 29.6289544,87.3080931 28.9129267,87.1239717 C28.7379693,87.0789827 28.5561817,87.0699848 28.3784922,87.0969783 L28.2461642,87.1239717 L28.1653932,87.1447414 C24.2988326,88.1389998 20.3583602,85.8105389 19.3641018,81.9439783 C18.8526773,79.9551053 19.2122182,77.8474407 20.3433962,76.1444376 L20.5266378,75.8813044 C21.0865892,75.1080382 20.9136634,74.0272518 20.1403972,73.4673004 C19.979475,73.3507705 19.799977,73.2630748 19.6099265,73.20772 L19.4655355,73.1723227 L19.2921136,73.1376383 C15.2946286,72.3381413 12.7021472,68.4494191 13.5016442,64.4519342 C13.9095031,62.4126396 15.1587056,60.6400151 16.942017,59.5700283 C17.6014989,59.1743391 17.8153452,58.318954 17.419656,57.659472 C17.3358439,57.5197851 17.2283966,57.3962547 17.1024987,57.294192 L16.9706426,57.1994819 L16.8270079,57.1085132 C13.4401683,54.9635148 12.4334571,50.4790741 14.5784555,47.0922345 C15.7151824,45.2974026 17.5811507,44.090654 19.6843146,43.790202 C20.466749,43.6784257 21.0104247,42.9535247 20.8986484,42.1710903 C20.873229,41.9931546 20.8145794,41.8220067 20.726168,41.6664246 L20.6543334,41.5527938 L20.404107,41.1953276 C18.0791458,37.8739543 18.8868973,33.2966958 22.2082705,30.9717345 C23.9643878,29.7424525 26.1700889,29.3421803 28.2461642,29.8760283 C28.9621918,30.0601497 29.6919069,29.6289544 29.8760283,28.9129267 C29.9210173,28.7379693 29.9300152,28.5561817 29.9030217,28.3784922 L29.8760283,28.2461642 L29.8552586,28.1653932 C28.8610002,24.2988326 31.1894611,20.3583602 35.0560217,19.3641018 C37.0448947,18.8526773 39.1525593,19.2122182 40.8555624,20.3433962 L41.1186956,20.5266378 C41.8919618,21.0865892 42.9727482,20.9136634 43.5326996,20.1403972 C43.6783619,19.9392445 43.778971,19.709067 43.8276773,19.4655355 C44.783061,14.6886171 49.3640891,11.5606699 54.1352299,12.3720482 L54.3956419,12.4202258 L54.5,12.443 L54.5,10.5 Z" id="Path" fill="#000000" fill-rule="nonzero"></path>
  </g>
</svg>
