<?xml version="1.0" encoding="UTF-8"?><svg viewBox="0 0 116 116" version="1.1" xmlns="http://www.w3.org/2000/svg" xmlns:xlink="http://www.w3.org/1999/xlink">
  <title>bold</title>
  <g id="bold" stroke="none" stroke-width="1" fill="none" fill-rule="evenodd">
    <path d="M68.5,14.5 C80.6502645,14.5 90.5,24.3497355 90.5,36.5 C90.5,42.7932847 87.8575434,48.4693906 83.621632,52.4793159 L83.251,52.821 L83.3609062,52.8701909 C92.1743176,56.9277679 98.3295345,65.7710651 98.4965167,76.0700425 L98.5,76.5 C98.5,90.7158095 87.0910514,102.266916 72.9299575,102.496517 L72.5,102.5 L24.9142136,102.5 C23.5881311,102.5 22.3163615,101.973216 21.3786797,101.035534 C19.4852285,99.1420828 19.4278512,96.1078417 21.2065477,94.1452518 L21.3786797,93.9644661 L23.6715729,91.6715729 C25.4038447,89.939301 26.4100289,87.6166707 26.4942486,85.1765704 L26.5,84.8431458 L26.5,42 L34.5,42 L34.5,84.8431458 C34.5,88.2488831 33.5160553,91.5531732 31.705589,94.3759631 L31.623,94.5 L72.5,94.5 C82.3306685,94.5 90.3206815,86.6192167 90.4970237,76.8306652 L90.5,76.5 C90.5,66.6693315 82.6192167,58.6793185 72.8306652,58.5029763 L72.5,58.5 L50.5,58.5 L50.5,50.5 L68.5,50.5 C76.2319865,50.5 82.5,44.2319865 82.5,36.5 C82.5,28.8724998 76.4002476,22.6696731 68.812645,22.503422 L68.5,22.5 L26.5,22.5 L26.5,26.5 L68.5,26.5 C74.0228475,26.5 78.5,30.9771525 78.5,36.5 C78.5,41.9292399 74.1733292,46.3479317 68.7799048,46.4961582 L68.5,46.5 L67,46.5 L67,38.5 L68.5,38.5 C69.6045695,38.5 70.5,37.6045695 70.5,36.5 C70.5,35.4456382 69.6841222,34.5818349 68.6492623,34.5054857 L68.5,34.5 L24.5,34.5 C21.2616031,34.5 18.6224282,31.9344251 18.5041385,28.7249383 L18.5,28.5 L18.5,20.5 C18.5,17.2616031 21.0655749,14.6224282 24.2750617,14.5041385 L24.5,14.5 L68.5,14.5 Z M46.5,42 L46.5,82.5 L72.5,82.5 C75.7383969,82.5 78.3775718,79.9344251 78.4958615,76.7249383 L78.5,76.5 C78.5,73.2616031 75.9344251,70.6224282 72.7249383,70.5041385 L72.5,70.5 L70.5,70.5 L70.5,62.5 L72.5,62.5 C80.2319865,62.5 86.5,68.7680135 86.5,76.5 C86.5,84.1275002 80.4002476,90.3303269 72.812645,90.496578 L72.5,90.5 L44.5,90.5 C41.2616031,90.5 38.6224282,87.9344251 38.5041385,84.7249383 L38.5,84.5 L38.5,42 L46.5,42 Z" id="Shape" fill="#000000" fill-rule="nonzero"></path>
  </g>
</svg>
