<?xml version="1.0" encoding="UTF-8"?><svg viewBox="0 0 116 116" version="1.1" xmlns="http://www.w3.org/2000/svg" xmlns:xlink="http://www.w3.org/1999/xlink">
  <title>bold-off</title>
  <g id="bold-off" stroke="none" stroke-width="1" fill="none" fill-rule="evenodd" transform="translate(-0.000000, 0.000000)">
    <path d="M13.3284271,7.67157288 L109.328427,103.671573 L103.671573,109.328427 L46.4995729,52.1555729 L46.5,82.5 L72.5,82.5 L72.5,90.5 L44.5,90.5 C41.2616031,90.5 38.6224282,87.9344251 38.5041385,84.7249383 L38.5,84.5 L38.4995729,44.1555729 L7.67157288,13.3284271 L13.3284271,7.67157288 Z M34.5,42 L34.5,84.8431458 C34.5,88.2488831 33.5160553,91.5531732 31.705589,94.3759631 L31.623,94.5 L72.5,94.5 C74.6356397,94.5 76.7143414,94.1296431 78.6712623,93.4154161 L79.1206682,93.2445023 L82.0648131,100.683051 C79.2221757,101.808155 76.191623,102.424893 73.0836293,102.493558 L72.5,102.5 L24.9142136,102.5 C23.5881311,102.5 22.3163615,101.973216 21.3786797,101.035534 C19.4852285,99.1420828 19.4278512,96.1078417 21.2065477,94.1452518 L21.3786797,93.9644661 L23.6715729,91.6715729 C25.4038447,89.939301 26.4100289,87.6166707 26.4942486,85.1765704 L26.5,84.8431458 L26.5,42 L34.5,42 Z M68.5,14.5 C80.6502645,14.5 90.5,24.3497355 90.5,36.5 C90.5,42.9744935 87.7031788,48.7957545 83.2517872,52.8215319 C92.1235733,56.8550329 98.3288476,65.7286969 98.4965167,76.0700425 L98.5,76.5 L90.5,76.5 C90.5,66.6693315 82.6192167,58.6793185 72.8306652,58.5029763 L72.5,58.5 L66.5,58.5 L66.5,50.5 L68.5,50.5 C76.2319865,50.5 82.5,44.2319865 82.5,36.5 C82.5,28.8724998 76.4002476,22.6696731 68.812645,22.503422 L68.5,22.5 L38.5,22.5 L38.5,14.5 L68.5,14.5 Z M68.5,26.5 C74.0228475,26.5 78.5,30.9771525 78.5,36.5 C78.5,41.9292399 74.1733292,46.3479317 68.7799048,46.4961582 L68.5,46.5 L67,46.5 L67,38.5 L68.5,38.5 C69.6045695,38.5 70.5,37.6045695 70.5,36.5 C70.5,35.4456382 69.6841222,34.5818349 68.6492623,34.5054857 L68.5,34.5 L50.5,34.5 L50.5,26.5 L68.5,26.5 Z" id="Shape" fill="#000000" fill-rule="nonzero"></path>
  </g>
</svg>
