<?xml version="1.0" encoding="UTF-8"?><svg viewBox="0 0 116 116" version="1.1" xmlns="http://www.w3.org/2000/svg" xmlns:xlink="http://www.w3.org/1999/xlink">
  <title>bolt</title>
  <g id="bolt" stroke="none" stroke-width="1" fill="none" fill-rule="evenodd">
    <path d="M52.5497946,13.37267 C53.4810079,11.5429175 55.4361127,10.4683823 57.4799481,10.6630333 C60.1565912,10.9179517 62.138562,13.2386207 61.9993444,15.8982055 L61.98338,16.1145561 L58.926,48.215 L81.0496449,46.8328423 C82.1791711,46.7622469 83.3073943,46.9666472 84.338159,47.4264898 L84.616788,47.55822 C88.0010662,49.2503591 89.4156358,53.3140529 87.853399,56.7280085 L87.7472832,56.9497055 L64.4760865,103.492099 L57.320669,99.9143902 L79.814,54.925 L58.2562541,56.273039 C54.4781742,56.509169 51.2130992,53.7025898 50.8523005,49.9632469 L50.833238,49.723319 C50.81796,49.478871 50.8155274,49.233874 50.8259237,48.9893384 L50.8511378,48.6230073 L52.523,31.061 L36.738,62.078 L58.7507609,60.7231556 C62.5290652,60.4906446 65.7914505,63.3003499 66.1486673,67.0400367 L66.1674999,67.2799828 C66.1824521,67.5229558 66.1847146,67.7664605 66.1743039,68.0095049 L66.1491851,68.3736023 L65.5357871,74.8142816 L57.5718233,74.0558088 L58.074,68.78 L35.4840846,70.1700847 C34.3411089,70.2404216 33.1999677,70.0291998 32.1601512,69.557069 L31.8791518,69.4218528 C28.5070027,67.7056698 27.1213913,63.632011 28.7078866,60.2292608 L28.8155775,60.0083246 L52.5497946,13.37267 Z" id="Path" fill="#000000" fill-rule="nonzero"></path>
  </g>
</svg>
