<?xml version="1.0" encoding="UTF-8"?><svg viewBox="0 0 116 116" version="1.1" xmlns="http://www.w3.org/2000/svg" xmlns:xlink="http://www.w3.org/1999/xlink">
  <title>bookmark</title>
  <g id="bookmark" stroke="none" stroke-width="1" fill="none" fill-rule="evenodd">
    <path d="M82.5,10.5 C89.0254567,10.5 94.3343928,15.7085444 94.4962001,22.1950252 L94.5,22.5 L94.5,98.5 C94.5,101.813708 91.8137085,104.5 88.5,104.5 C87.2945088,104.5 86.1192131,104.136937 85.1259213,103.461414 L84.9,103.3 L59.8365259,84.5023944 C59.1498473,83.9873855 58.2175152,83.9711698 57.5167712,84.4451769 L57.3798517,84.5465121 L44.0413814,95.319892 L39.0146845,89.0963625 L52.3531548,78.3229826 C55.8335198,75.5119186 60.745024,75.3612491 64.3846931,77.9195149 L64.6365259,78.1023944 L86.5,94.5 L86.5,22.5 C86.5,20.3578046 84.8160315,18.6089211 82.6996403,18.5048953 L82.5,18.5 L34.5,18.5 C32.3578046,18.5 30.6089211,20.1839685 30.5048953,22.3003597 L30.5,22.5 L30.5,102.5 L22.5,102.5 L22.5,22.5 C22.5,15.9745433 27.7085444,10.6656072 34.1950252,10.5037999 L34.5,10.5 L82.5,10.5 Z" id="Path" fill="#000000" fill-rule="nonzero"></path>
  </g>
</svg>
