<?xml version="1.0" encoding="UTF-8"?><svg viewBox="0 0 116 116" version="1.1" xmlns="http://www.w3.org/2000/svg" xmlns:xlink="http://www.w3.org/1999/xlink">
  <title>books</title>
  <g id="books" stroke="none" stroke-width="1" fill="none" fill-rule="evenodd">
    <path d="M98,46 C104.148885,46 110,51.148981 110,58 C110,62.1941217 108.782011,64.9777606 106.148368,68.1509266 L105.803022,68.5592924 L103.926319,70.7298097 L103.733392,70.9410505 L103.35891,71.3352691 L102.705167,72.0011938 L101.549052,73.1488059 L99.5845834,75.0601984 L96.849485,77.6834283 L92.1392458,82.1500834 L85.2241831,88.6457668 L77.2373867,96.0940689 L74.7213906,98.4315581 L74.6203302,98.3228651 C72.4951216,100.5075 69.5417368,101.879969 66.2724037,101.93597 L65.9689951,101.93738 L9.96875095,101.499878 L9.50386106,93.5308885 C12.8794701,93.1089374 13.9412176,92.1897347 13.9975989,90.175357 L14,90 L22,90 C22,91.1971417 21.8551613,92.3105936 21.5742581,93.3363465 L21.501,93.59 L66.0314932,93.937624 C68.1382416,93.9540829 69.8715734,92.3129884 69.9932933,90.2617565 L70,90.0620117 L70,90 C70,87.8362118 68.3077517,86.0651218 66.1706168,85.9438749 L65.9689951,85.9373798 L0.311351298,85.4244295 L14.7821068,71.1797796 L20.3942449,76.8809993 L19.688,77.575 L66.0314932,77.937624 C70.998946,77.9764322 75.2458492,81.0137169 77.0600761,85.323923 L83.9721156,78.8495164 L91.6424534,71.5971667 L94.6805818,68.684141 L96.4311674,66.9770737 L97.4030959,66.0024162 L97.8041393,65.5794374 L97.9271149,65.4392624 L99.7915972,63.2803918 C101.482214,61.2967347 102,60.170882 102,58 C102,55.8773518 100.06486,54.1101058 98.1768066,54.0049492 L98,54 L98,46 Z M98,14 C104.148885,14 110,19.148981 110,26 C110,30.1941217 108.782011,32.9777606 106.148368,36.1509266 L105.803022,36.5592924 L103.818626,38.8547461 L103.493353,39.2117285 L102.752325,39.9889188 L101.791228,40.9615994 L100.229516,42.5021366 L98.0601652,44.6004364 L94.5491905,47.9443897 L90.9612268,51.3252339 L82.9664778,58.7892598 L81.1370429,60.4887289 L77.964,57.07 L77.9662521,57.0909778 C77.9811624,57.2910429 77.9911914,57.4924609 77.9962207,57.6951124 L77.9996357,58.0932608 C77.9489216,64.5846654 72.7262976,69.8254182 66.2724079,69.93597 L65.9689951,69.9373798 L9.96875095,69.4998779 L9.50386106,61.5308885 C12.8794701,61.1089374 13.9412176,60.1897347 13.9975989,58.175357 L14,58 L22,58 C22,59.1971417 21.8551613,60.3105936 21.5742581,61.3363465 L21.501,61.59 L66.0314932,61.937624 C68.1382238,61.9540828 69.8714572,60.3130502 69.9931732,58.2333523 L70,58 C70,55.8362118 68.3077517,54.0651218 66.1706168,53.9438749 L65.9689951,53.9373798 L0.311351298,53.4244295 L40.3615654,14 L98,14 Z M98,22 L43.638,22 L19.688,45.575 L66.0314932,45.937624 C70.9238709,45.9758457 75.1173144,48.9225944 76.9761576,53.1293757 L77.069,53.347 L84.3372432,46.5682585 L89.2672695,41.9270405 L92.2040655,39.1330469 L94.7440055,36.6824671 L96.0482062,35.3994059 L96.8202075,34.6231134 L97.4142729,34.0075102 L97.6442319,33.7603207 L97.8292895,33.5537281 L99.7915972,31.2803918 C101.482214,29.2967347 102,28.170882 102,26 C102,23.8773518 100.06486,22.1101058 98.1768066,22.0049492 L98,22 Z" id="Shape" fill="#000000" fill-rule="nonzero"></path>
  </g>
</svg>
