<?xml version="1.0" encoding="UTF-8"?><svg viewBox="0 0 116 116" version="1.1" xmlns="http://www.w3.org/2000/svg" xmlns:xlink="http://www.w3.org/1999/xlink">
  <title>briefcase</title>
  <g id="briefcase" stroke="none" stroke-width="1" fill="none" fill-rule="evenodd" transform="translate(0.000000, 0.000000)">
    <path d="M14.5,62.5 L14.5,90.5 C14.5,92.6421954 16.1839685,94.3910789 18.3003597,94.4951047 L18.5,94.5 L98.5,94.5 C100.642195,94.5 102.391079,92.8160315 102.495105,90.6996403 L102.5,90.5 L102.5,38.5 C102.5,36.3578046 100.816032,34.6089211 98.6996403,34.5048953 L98.5,34.5 L70.5,34.5 L70.5,26.5 C70.5,24.3578046 68.8160315,22.6089211 66.6996403,22.5048953 L66.5,22.5 L50.5,22.5 C48.3578046,22.5 46.6089211,24.1839685 46.5048953,26.3003597 L46.5,26.5 L66.5,26.5 L66.5,34.5 L18.5,34.5 C16.3578046,34.5 14.6089211,36.1839685 14.5048953,38.3003597 L14.5,38.5 L14.5,50.5 L6.5,50.5 L6.5,38.5 C6.5,31.9745433 11.7085444,26.6656072 18.1950252,26.5037999 L18.5,26.5 L38.5,26.5 C38.5,19.9745433 43.7085444,14.6656072 50.1950252,14.5037999 L50.5,14.5 L66.5,14.5 C73.0254567,14.5 78.3343928,19.7085444 78.4962001,26.1950252 L78.5,26.5 L98.5,26.5 C105.025457,26.5 110.334393,31.7085444 110.4962,38.1950252 L110.5,38.5 L110.5,90.5 C110.5,97.0254567 105.291456,102.334393 98.8049748,102.4962 L98.5,102.5 L18.5,102.5 C11.9745433,102.5 6.66560725,97.2914556 6.50379986,90.8049748 L6.5,90.5 L6.5,61.5 C6.5,57.7145483 9.50478338,54.6309013 13.2593502,54.504059 L13.5,54.5 L46.5,54.5 L46.5,46.5 L66.5,46.5 C70.8349143,46.5 74.3645429,49.9478378 74.4961932,54.2508207 L74.5,54.5 L94.5,54.5 L94.5,62.5 L74.5,62.5 C74.5,66.8349143 71.0521622,70.3645429 66.7491793,70.4961932 L66.5,70.5 L50.5,70.5 C46.1650857,70.5 42.6354571,67.0521622 42.5038068,62.7491793 L42.5,62.5 L14.5,62.5 Z M50.5,62.5 L66.5,62.5 L66.5,54.5 L50.5,54.5 L50.5,62.5 Z" id="Path-329" fill="#000000" fill-rule="nonzero"></path>
  </g>
</svg>
