<?xml version="1.0" encoding="UTF-8"?><svg viewBox="0 0 116 116" version="1.1" xmlns="http://www.w3.org/2000/svg" xmlns:xlink="http://www.w3.org/1999/xlink">
  <title>brush</title>
  <g id="brush" stroke="none" stroke-width="1" fill="none" fill-rule="evenodd">
    <path d="M58.4237963,5.50548775 C59.8576943,3.14553062 62.9332216,2.39481137 65.2931787,3.82870937 C65.5436877,3.98091735 65.7801641,4.1547605 65.9999376,4.34815301 L66.2140446,4.54798472 L99.751116,37.7393131 L95.747,45.416 L103.567335,41.5161898 L112.89335,50.7460605 C114.856063,52.6885387 114.872466,55.8543211 112.929988,57.8170334 C112.689908,58.0596142 112.42578,58.2768159 112.141819,58.4653496 L111.925194,58.6013232 L80.5032932,77.2217092 L76.424874,70.3393769 L104.503,53.699 L102.011,51.232 L91.043785,56.703459 C89.6897908,57.3788766 88.1075609,57.402874 86.7392153,56.7794193 L86.5000528,56.6626778 C84.1195458,55.4213501 83.1555857,52.5323493 84.277192,50.1227136 L84.3784528,49.9173969 L89.929,39.273 L63.287,12.907 L43.538,45.409 L79.2508895,81.5679562 C81.8941334,84.2442407 81.9411317,88.5154188 79.4016139,91.2484695 L79.2202418,91.4366125 L75.4497475,95.2071068 C72.7782063,97.878648 68.4845068,97.9393648 65.7392312,95.3892573 L65.5502525,95.2071068 L51.226,80.883 L41.3873101,96.6274887 C40.8629973,97.4663892 40.2585097,98.2519485 39.5825658,98.973207 L39.2386795,99.3284271 C33.2830875,105.284019 23.6271649,105.284019 17.6715729,99.3284271 C16.8554656,98.5123199 16.1346405,97.6062059 15.5229423,96.6274887 C11.1193604,89.5817576 13.1727932,80.3304687 20.0856881,75.7963502 L20.3725113,75.6126899 L36.06,65.807 L21.8180475,51.9216874 C19.1465797,49.3170063 18.99634,45.0897977 21.4331408,42.3041066 L21.6073485,42.1121335 L25.5712421,37.9029128 L25.6155087,37.8581494 C28.2870499,35.1866082 32.5807493,35.1258914 35.326025,37.6759989 L35.5150037,37.8581494 L36.8284271,39.1715729 L31.1715729,44.8284271 L30.587,44.244 L28.106,46.879 L42.5568971,60.9688835 C45.2620385,63.6063964 45.3770967,67.8989834 42.8619411,70.6763164 L42.6821971,70.8675855 C42.3697833,71.1880099 42.0275432,71.4775509 41.6602661,71.7323488 L41.3801887,71.9168726 L24.6125028,82.3966763 C21.2169471,84.5188986 20.1847064,88.9919415 22.3069287,92.3874972 C22.5977413,92.8527973 22.9404348,93.2835805 23.3284271,93.6715729 C26.1598248,96.5029706 30.7504276,96.5029706 33.5818253,93.6715729 C33.8922192,93.361179 34.1736218,93.023399 34.4226631,92.6624691 L34.6033237,92.3874972 L45.1092996,75.5779358 C47.1582719,72.2995801 51.4769246,71.3029679 54.7552803,73.3519402 C55.1146722,73.5765602 55.4527358,73.8332379 55.7653811,74.1187197 L55.9950352,74.3381809 L70.5,88.843 L72.86,86.482 L37.2989231,50.476229 C35.1093296,48.2592656 34.6558659,44.8724817 36.1553069,42.1665628 L36.2970057,41.9224974 L58.4237963,5.50548775 Z" id="Path-298" fill="#000000" fill-rule="nonzero"></path>
  </g>
</svg>
