<?xml version="1.0" encoding="UTF-8"?><svg viewBox="0 0 116 116" version="1.1" xmlns="http://www.w3.org/2000/svg" xmlns:xlink="http://www.w3.org/1999/xlink">
  <title>calendar</title>
  <g id="calendar" stroke="none" stroke-width="1" fill="none" fill-rule="evenodd" transform="translate(0.000000, 0.000000)">
    <path d="M74.5,6.5 C81.0254567,6.5 86.3343928,11.7085444 86.4962001,18.1950252 L86.5,18.5 L86.5,22.5 L98.5,22.5 C105.025457,22.5 110.334393,27.7085444 110.4962,34.1950252 L110.5,34.5 L110.5,98.5 C110.5,105.025457 105.291456,110.334393 98.8049748,110.4962 L98.5,110.5 L18.5,110.5 C11.9745433,110.5 6.66560725,105.291456 6.50379986,98.8049748 L6.5,98.5 L6.5,34.5 C6.5,27.9745433 11.7085444,22.6656072 18.1950252,22.5037999 L18.5,22.5 L26.5,22.5 L26.5,30.5 L18.5,30.5 C16.3578046,30.5 14.6089211,32.1839685 14.5048953,34.3003597 L14.5,34.5 L14.5,98.5 C14.5,100.642195 16.1839685,102.391079 18.3003597,102.495105 L18.5,102.5 L98.5,102.5 C100.642195,102.5 102.391079,100.816032 102.495105,98.6996403 L102.5,98.5 L102.5,34.5 C102.5,32.3578046 100.816032,30.6089211 98.6996403,30.5048953 L98.5,30.5 L78.5,30.5 L78.5,18.5 C78.5,16.3578046 76.8160315,14.6089211 74.6996403,14.5048953 L74.5,14.5 L74.5,6.5 Z M38.5,86.5 L38.5,94.5 L22.5,94.5 L22.5,86.5 L38.5,86.5 Z M66.5,86.5 L66.5,94.5 L50.5,94.5 L50.5,86.5 L66.5,86.5 Z M94.5,70.5 L94.5,78.5 L78.5,78.5 L78.5,70.5 L94.5,70.5 Z M66.5,70.5 L66.5,78.5 L50.5,78.5 L50.5,70.5 L66.5,70.5 Z M38.5,70.5 L38.5,78.5 L22.5,78.5 L22.5,70.5 L38.5,70.5 Z M38.5,54.5 L38.5,62.5 L22.5,62.5 L22.5,54.5 L38.5,54.5 Z M66.5,54.5 L66.5,62.5 L50.5,62.5 L50.5,54.5 L66.5,54.5 Z M94.5,54.5 L94.5,62.5 L78.5,62.5 L78.5,54.5 L94.5,54.5 Z M66.5,38.5 L66.5,46.5 L50.5,46.5 L50.5,38.5 L66.5,38.5 Z M94.5,38.5 L94.5,46.5 L78.5,46.5 L78.5,38.5 L94.5,38.5 Z M27,6.5 C33.5254567,6.5 38.8343928,11.7085444 38.9962001,18.1950252 L39,18.5 L39,22.5 L74.5,22.5 L74.5,30.5 L31,30.5 L31,18.5 C31,16.3578046 29.3160315,14.6089211 27.1996403,14.5048953 L27,14.5 L27,6.5 Z" id="Shape" fill="#000000" fill-rule="nonzero"></path>
  </g>
</svg>
