<?xml version="1.0" encoding="UTF-8"?><svg viewBox="0 0 116 116" version="1.1" xmlns="http://www.w3.org/2000/svg" xmlns:xlink="http://www.w3.org/1999/xlink">
  <title>camera</title>
  <g id="camera" stroke="none" stroke-width="1" fill="none" fill-rule="evenodd">
    <path d="M70,22 C78.7313589,22 85.8292047,28.993901 85.9969636,37.6851293 L86,38 L86,64.318 L102,79.9850945 L102,35.6568542 L95.3879786,42.2688757 L89.7311243,36.6120214 L96.3431458,30 C97.8434368,28.499709 99.8782681,27.6568542 102,27.6568542 C106.334914,27.6568542 109.864543,31.104692 109.996193,35.4076749 L110,35.6568542 L110,79.9850945 C110,82.0776619 109.180095,84.0869316 107.716083,85.5820929 C104.690715,88.6718304 99.7745474,88.788641 96.6070603,85.8942145 L96.4030017,85.7011779 L79.2015008,68.8580417 C78.4879588,68.1593651 78.0635783,67.2212118 78.006593,66.2296783 L78,66 L78,38 C78,33.6650857 74.5521622,30.1354571 70.2491793,30.0038068 L70,30 L22,30 C17.6650857,30 14.1354571,33.4478378 14.0038068,37.7508207 L14,38 L14,82 C14,84.1421954 15.6839685,85.8910789 17.8003597,85.9951047 L18,86 L70,86 C74.3349143,86 77.8645429,82.5521622 77.9961932,78.2491793 L78,78 L86,78 C86,86.7313589 79.006099,93.8292047 70.3148707,93.9969636 L70,94 L18,94 C11.4745433,94 6.16560725,88.7914556 6.00379986,82.3049748 L6,82 L6,38 C6,29.2686411 12.993901,22.1707953 21.6851293,22.0030364 L22,22 L70,22 Z" id="Path-51" fill="#000000" fill-rule="nonzero"></path>
  </g>
</svg>
