<?xml version="1.0" encoding="UTF-8"?><svg viewBox="0 0 116 116" version="1.1" xmlns="http://www.w3.org/2000/svg" xmlns:xlink="http://www.w3.org/1999/xlink">
  <title>camera-off</title>
  <g id="camera-off" stroke="none" stroke-width="1" fill="none" fill-rule="evenodd">
    <path d="M12.8284271,7.17157288 L108.828427,103.171573 L103.171573,108.828427 L7.17157288,12.8284271 L12.8284271,7.17157288 Z M12.4544409,25.1584234 L17.2307662,31.5761112 C15.2877417,33.0221954 14.0942778,35.2556667 14.0053472,37.7050715 L14,38 L14,82 C14,84.1421954 15.6839685,85.8910789 17.8003597,85.9951047 L18,86 L70,86 C71.6069986,86 73.1337355,85.529012 74.4343481,84.6601417 L74.7095366,84.4678919 L79.4264789,90.9293511 C76.8232796,92.8297176 73.7040077,93.9078075 70.4281449,93.994349 L70,94 L18,94 C11.4745433,94 6.16560725,88.7914556 6.00379986,82.3049748 L6,82 L6,38 C6,32.8798425 8.42645389,28.1562283 12.4544409,25.1584234 Z M70,22 C78.7313589,22 85.8292047,28.993901 85.9969636,37.6851293 L86,38 L86,64.318 L102,79.9850945 L102,35.6568542 L94.955585,42.7012692 L89.2987308,37.044415 L96.3431458,30 C97.8434368,28.499709 99.8782681,27.6568542 102,27.6568542 C106.334914,27.6568542 109.864543,31.104692 109.996193,35.4076749 L110,35.6568542 L110,79.9850945 C110,82.0776619 109.180095,84.0869316 107.716083,85.5820929 C104.690715,88.6718304 99.7745474,88.788641 96.6070603,85.8942145 L96.4030017,85.7011779 L79.2015008,68.8580417 C78.4879588,68.1593651 78.0635783,67.2212118 78.006593,66.2296783 L78,66 L78,38 C78,33.6650857 74.5521622,30.1354571 70.2491793,30.0038068 L70,30 L40,30 L40,22 L70,22 Z" id="Shape" fill="#000000" fill-rule="nonzero"></path>
  </g>
</svg>
