<?xml version="1.0" encoding="UTF-8"?><svg viewBox="0 0 116 116" version="1.1" xmlns="http://www.w3.org/2000/svg" xmlns:xlink="http://www.w3.org/1999/xlink">
  <title>car-side-view</title>
  <g id="car-side-view" stroke="none" stroke-width="1" fill="none" fill-rule="evenodd" transform="translate(0.000000, 0.000000)">
    <path d="M79.914949,22.5 C87.8080745,22.5 94.9496841,27.140421 98.1665396,34.3219574 L98.3215673,34.6771872 L101.646,42.5 L104.5,42.5 C111.025457,42.5 116.334393,47.7085444 116.4962,54.1950252 L116.5,54.5 L116.5,66.5 L108.5,66.5 L108.5,54.5 C108.5,52.3578046 106.816032,50.6089211 104.69964,50.5048953 L104.5,50.5 L96.3537372,50.5 L90.95892,37.8063123 C89.1170891,33.4725927 84.916327,30.6257903 80.2281927,30.5040643 L79.914949,30.5 L57.127417,30.5 C54.0626931,30.5 51.1188433,31.6723658 48.8954496,33.7687425 L48.6421356,34.0147186 L32.4024836,50.2543707 L18.6753138,52.3662429 C12.9222642,53.2513275 8.6494671,58.1313905 8.50383945,63.9211555 L8.5,64.2267033 L8.5,74.5 L15.004,74.5 L15.0715355,74.2465662 C16.9076792,67.5713561 22.9598914,62.6424986 30.1851293,62.5030364 L30.5,62.5 L30.5,70.5 C26.081722,70.5 22.5,74.081722 22.5,78.5 C22.5,82.918278 26.081722,86.5 30.5,86.5 C34.8349143,86.5 38.3645429,83.0521622 38.4961932,78.7491793 L38.5,78.5 L38.5,74.5 L71.004,74.5 L71.0715355,74.2465662 C72.9076792,67.5713561 78.9598914,62.6424986 86.1851293,62.5030364 L86.5,62.5 L87,62.5 L87,70.5 L86.5,70.5 C82.081722,70.5 78.5,74.081722 78.5,78.5 C78.5,82.918278 82.081722,86.5 86.5,86.5 C90.8349143,86.5 94.3645429,83.0521622 94.4961932,78.7491793 L94.5,78.5 L94.5,74.5 L106.5,74.5 L106.5,82.5 L101.995,82.5 L101.928465,82.7534338 C100.092321,89.4286439 94.0401086,94.3575014 86.8148707,94.4969636 L86.5,94.5 C79.1362033,94.5 72.93429,89.5253861 71.0715355,82.7534338 L71.004,82.5 L45.995,82.5 L45.9284645,82.7534338 C44.0923208,89.4286439 38.0401086,94.3575014 30.8148707,94.4969636 L30.5,94.5 C23.1362033,94.5 16.93429,89.5253861 15.0715355,82.7534338 L15.004,82.5 L7.5,82.5 C3.71454828,82.5 0.630901317,79.4952166 0.504059018,75.7406498 L0.5,75.5 L0.5,64.2267033 C0.5,54.4727986 7.5317618,46.1603799 17.111499,44.5157992 L17.4588563,44.4592694 L28.597,42.745 L42.9852814,28.3578644 C46.6318221,24.7113237 51.5415029,22.6183314 56.6859164,22.5048677 L57.127417,22.5 L79.914949,22.5 Z" id="Path" fill="#000000" fill-rule="nonzero"></path>
  </g>
</svg>
