<?xml version="1.0" encoding="UTF-8"?><svg viewBox="0 0 116 116" version="1.1" xmlns="http://www.w3.org/2000/svg" xmlns:xlink="http://www.w3.org/1999/xlink">
  <title>car</title>
  <g id="car" stroke="none" stroke-width="1" fill="none" fill-rule="evenodd" transform="translate(0.000000, 0.000000)">
    <path d="M81.0837363,18.5 C85.8861902,18.5 90.2151064,21.3616398 92.1056383,25.7546535 L92.2254566,26.0433119 L97.207,38.5 L98.5,38.5 L98.5,46.5 L91.7918682,46.5 L84.7976431,29.0144373 C84.2166007,27.5618313 82.8456213,26.58758 81.2960859,26.5056084 L81.0837363,26.5 L35.9162637,26.5 C34.3517592,26.5 32.9380205,27.4110946 32.2864289,28.8193585 L32.2023569,29.0144373 L28.407,38.5 L74.5,38.5 L74.5,46.5 L22.5,46.5 C18.1650857,46.5 14.6354571,49.9478378 14.5038068,54.2508207 L14.5,54.5 L14.5,88.5 C14.5,89.5543618 15.3158778,90.4181651 16.3507377,90.4945143 L16.5,90.5 L24.5,90.5 C25.5543618,90.5 26.4181651,89.6841222 26.4945143,88.6492623 L26.5,88.5 L26.5,82.5 L18.5,82.5 L18.5,74.5 L98.5,74.5 L98.5,82.5 L90.5,82.5 L90.5,88.5 C90.5,89.5543618 91.3158778,90.4181651 92.3507377,90.4945143 L92.5,90.5 L100.5,90.5 C101.554362,90.5 102.418165,89.6841222 102.494514,88.6492623 L102.5,88.5 L102.5,58.5 L84.5,58.5 C83.4456382,58.5 82.5818349,59.3158778 82.5054857,60.3507377 L82.5,60.5 C82.5,61.5543618 83.3158778,62.4181651 84.3507377,62.4945143 L84.5,62.5 L88.5,62.5 C89.5543618,62.5 90.4181651,61.6841222 90.4945143,60.6492623 L90.5,60.5 L98.5,60.5 C98.5,65.9292399 94.1733292,70.3479317 88.7799048,70.4961582 L88.5,70.5 L84.5,70.5 C78.9771525,70.5 74.5,66.0228475 74.5,60.5 C74.5,55.0707601 78.8266708,50.6520683 84.2200952,50.5038418 L84.5,50.5 L103.5,50.5 C107.285452,50.5 110.369099,53.5047834 110.495941,57.2593502 L110.5,57.5 L110.5,88.5 C110.5,93.9292399 106.173329,98.3479317 100.779905,98.4961582 L100.5,98.5 L92.5,98.5 C87.0707601,98.5 82.6520683,94.1733292 82.5038418,88.7799048 L82.5,88.5 L82.5,82.5 L34.5,82.5 L34.5,88.5 C34.5,93.9292399 30.1733292,98.3479317 24.7799048,98.4961582 L24.5,98.5 L16.5,98.5 C11.0707601,98.5 6.65206828,94.1733292 6.5038418,88.7799048 L6.5,88.5 L6.5,54.5 C6.5,46.715415 12.0593848,40.2292938 19.4244861,38.795305 L19.694,38.745 L24.7745434,26.0433119 C26.55813,21.5843454 30.822815,18.6278339 35.6037517,18.5040435 L35.9162637,18.5 L81.0837363,18.5 Z M31.5,50.5 C37.4787016,50.5 42.3433652,55.2697636 42.4962926,61.2115925 L42.5,61.5 L42.5,62.5 L34.5,62.5 L34.5,61.5 C34.5,59.9023191 33.25108,58.5963391 31.6762728,58.5050927 L31.5,58.5 L28.5,58.5 C27.3954305,58.5 26.5,59.3954305 26.5,60.5 C26.5,61.5543618 27.3158778,62.4181651 28.3507377,62.4945143 L28.5,62.5 L34,62.5 L34,70.5 L28.5,70.5 C22.9771525,70.5 18.5,66.0228475 18.5,60.5 C18.5,55.0707601 22.8266708,50.6520683 28.2200952,50.5038418 L28.5,50.5 L31.5,50.5 Z" id="Shape" fill="#000000" fill-rule="nonzero"></path>
  </g>
</svg>
