<?xml version="1.0" encoding="UTF-8"?><svg viewBox="0 0 116 116" version="1.1" xmlns="http://www.w3.org/2000/svg" xmlns:xlink="http://www.w3.org/1999/xlink">
  <title>card</title>
  <g id="card" stroke="none" stroke-width="1" fill="none" fill-rule="evenodd">
    <path d="M82,6 C88.5254567,6 93.8343928,11.2085444 93.9962001,17.6950252 L94,18 L94,98 C94,104.525457 88.7914556,109.834393 82.3049748,109.9962 L82,110 L42,110 L42,102 L82,102 C84.1421954,102 85.8910789,100.316032 85.9951047,98.1996403 L86,98 L86,18 C86,15.8578046 84.3160315,14.1089211 82.1996403,14.0048953 L82,14 L34,14 C31.8578046,14 30.1089211,15.6839685 30.0048953,17.8003597 L30,18 L30,98 C30,100.142195 31.6839685,101.891079 33.8003597,101.995105 L34,102 L34,110 C27.4745433,110 22.1656072,104.791456 22.0037999,98.3049748 L22,98 L22,18 C22,11.4745433 27.2085444,6.16560725 33.6950252,6.00379986 L34,6 L82,6 Z M74,18 L74,26 L42,26 L42,18 L74,18 Z" id="Shape" fill="#000000" fill-rule="nonzero"></path>
  </g>
</svg>
