<?xml version="1.0" encoding="UTF-8"?><svg viewBox="0 0 116 116" version="1.1" xmlns="http://www.w3.org/2000/svg" xmlns:xlink="http://www.w3.org/1999/xlink">
  <title>chat-off</title>
  <g id="chat-off" stroke="none" stroke-width="1" fill="none" fill-rule="evenodd">
    <path d="M12.8284271,7.17157288 L108.828427,103.171573 L103.171573,108.828427 L88.2731217,93.9306681 C86.0087399,94.1813872 83.615506,94.0213592 81.1072547,93.4671697 C76.6758339,92.4880626 72.641072,90.1957525 69.4222819,86.9153144 L69.217,86.702 L68.6610233,86.7344998 C68.0727423,86.763582 67.4822744,86.7829992 66.8899167,86.7927125 L66,86.8 C41.8632076,86.8 22,70.7108018 22,50.4 C22,46.1430747 22.8819737,41.9835268 24.5819103,38.0645993 L31.9211696,41.2481935 C30.6525208,44.1728573 30,47.2502636 30,50.4 C30,65.87725 45.9540124,78.8 66,78.8 C67.2142926,78.8 68.4182389,78.7523998 69.6082286,78.6578108 L70.4980476,78.5780681 L72.6541576,78.3628823 L74.0121944,80.0513286 C75.1557384,81.4730961 76.4900087,82.674105 77.9588705,83.6163137 L7.17157288,12.8284271 L12.8284271,7.17157288 Z M14.6849745,41.5433753 L21.4511334,45.8117585 L21.1830984,46.2458531 C18.9019531,50.0215058 17.7095833,54.1453561 17.7095833,58.4 C17.7095833,67.7518408 23.5510943,76.4469281 33.2734366,81.7620675 L33.7113525,81.9977909 L36.9266856,83.7017968 L35.533534,87.0635124 L35.2962798,87.5981681 C34.3675661,89.621368 33.2059255,91.490159 31.8457074,93.1659396 L31.4698412,93.6181563 L31.3102986,93.802 L31.5239305,93.8373289 C32.242524,93.9452245 32.9722629,94 33.7095833,94 C38.2102244,94 42.4231637,91.9424079 45.4416113,88.3619426 L45.6973889,88.0513286 L47.0554258,86.3628823 L49.2115357,86.5780681 L50.1013547,86.6578108 C51.2913445,86.7523998 52.4952907,86.8 53.7095833,86.8 C54.5491335,86.8 55.3849865,86.7772464 56.216221,86.7319626 L57.0458819,86.6791769 L57.6267152,94.6580636 L56.6520071,94.7200844 C56.0011049,94.7555515 55.3480624,94.7792472 54.6932005,94.7911035 L53.7095833,94.8 L52.8196667,94.7927125 L51.9325846,94.7708695 L51.04856,94.7344998 L50.4942986,94.702 L50.1740807,95.0304792 C45.7850751,99.4476557 39.9474266,102 33.7095833,102 C29.5566532,102 25.5533497,100.87083 22.012774,98.7610771 L21.5901461,98.5032095 L16.1588862,95.1109178 L21.5898478,91.7181487 L21.9417003,91.4917766 C23.5525368,90.4249093 24.9804054,89.0541652 26.1582787,87.4521089 L26.4722986,87.01 L26.1672303,86.8109225 C15.9395884,80.0303648 9.70958334,69.7065169 9.70958334,58.4 C9.70958334,52.6326514 11.3286239,47.0610694 14.3755313,42.0432936 L14.6849745,41.5433753 Z M66,14 C90.1367924,14 110,30.0891982 110,50.4 C110,58.1271987 107.092912,65.4703605 101.820603,71.5717164 L101.465618,71.9766243 L95.4878999,66.6599629 C99.7200905,61.9015554 102,56.274358 102,50.4 C102,34.92275 86.0459876,22 66,22 C57.7454951,22 49.9544533,24.2095035 43.6816828,28.13917 L39.5882112,21.2639425 C47.1191247,16.5891517 56.3243994,14 66,14 Z" id="Shape" fill="#000000" fill-rule="nonzero"></path>
  </g>
</svg>
