<?xml version="1.0" encoding="UTF-8"?><svg viewBox="0 0 116 116" version="1.1" xmlns="http://www.w3.org/2000/svg" xmlns:xlink="http://www.w3.org/1999/xlink">
  <title>chess-knight</title>
  <g id="chess-knight" stroke="none" stroke-width="1" fill="none" fill-rule="evenodd" transform="translate(0.000000, 0.000000)">
    <path d="M71.297059,14.5 C73.6986046,14.5 76.0866527,14.8590851 78.3819996,15.5653457 C90.9717704,19.4391213 98.0927211,32.690737 94.4371936,45.2946163 L94.323116,45.6763434 L89.1532595,62.4783772 C87.5618262,67.6505353 86.6781868,73.0116855 86.5243093,78.4157317 L86.508,79.186 L86.56655,79.2065672 C91.1018181,80.8398894 94.3697881,85.1274621 94.4962001,90.1950252 L94.5,90.5 L94.5,98.5 L30.5,98.5 C27.5822692,98.5 25.0293591,100.061983 23.6318483,102.395369 L23.57,102.5 L98.5,102.5 L98.5,110.5 L14.5,110.5 L14.5,106.5 C14.5,97.7686411 21.493901,90.6707953 30.1851293,90.5030364 L30.5,90.5 L86.5,90.5 C86.5,88.3578046 84.8160315,86.6089211 82.6996403,86.5048953 L82.5,86.5 L78.5,86.5 L78.5,80.1235281 C78.5,73.6396849 79.4273292,67.1906985 81.2525684,60.9722179 L81.5070274,60.1256904 L86.676884,43.3236566 C89.2904356,34.8296138 84.5233556,25.8251294 76.0293128,23.2115778 C74.666527,22.7922591 73.2548182,22.5561615 71.8313417,22.5088722 L71.297059,22.5 L59.56,22.5 L36.5154442,35.6696077 C35.334739,36.3442964 34.5822843,37.5693385 34.5063492,38.9169218 L34.5,39.1425803 L34.5,41.8879613 L52.6764385,39.2913272 C55.9568425,38.822698 58.9960344,41.102092 59.4646636,44.382496 C59.6953503,45.9973033 59.258257,47.6320291 58.2620831,48.9133934 L58.0805062,49.1357724 L45.3465229,63.9920863 C41.9298994,67.978147 39.7031286,72.8076925 38.8691977,77.9319962 L38.782,78.5 L66.5,78.5 L66.5,86.5 L30.5,86.5 L30.5,82.5 C30.5,73.9866515 33.4806121,65.7481547 38.9146062,59.2097481 L39.2724701,58.7857553 L48.55,47.961 L35.6313708,49.8075572 C35.38154,49.8432473 35.1302303,49.8670858 34.8782863,49.8790125 L34.5,49.8879613 C30.1650857,49.8879613 26.6354571,46.4401235 26.5038068,42.1371406 L26.5,41.8879613 L26.5,39.1425803 C26.5,34.9467156 28.6906199,31.0642976 32.2615632,28.8916128 L32.5463327,28.7236626 L57.4377423,14.5 L71.297059,14.5 Z M71.297059,5 C74.1835299,5 77.0567792,5.37203804 79.8787727,6.11556657 L80.5290748,6.29374433 L81.1758152,6.48544513 C98.3447981,11.7682091 108.26797,29.5941849 103.823223,46.9748657 L103.684128,47.5014033 L103.534032,48.0330246 L103.403017,48.470159 L98.2331601,65.2721928 L90.586928,62.919506 L95.7480071,46.146387 L95.8515194,45.8026683 L95.9743541,45.3663714 C99.578515,32.1461838 92.1851273,18.4730304 79.2574473,14.2685189 L78.8640111,14.144018 L78.2991659,13.9765617 C76.2115544,13.3827045 74.0574588,13.0570024 71.8888258,13.0068427 L71.297059,13 L58.5,13 L58.5,5 L71.297059,5 Z" id="Shape" fill="#000000" fill-rule="nonzero"></path>
  </g>
</svg>
