<?xml version="1.0" encoding="UTF-8"?><svg viewBox="0 0 116 116" version="1.1" xmlns="http://www.w3.org/2000/svg" xmlns:xlink="http://www.w3.org/1999/xlink">
  <title>chess-rook</title>
  <g id="chess-rook" stroke="none" stroke-width="1" fill="none" fill-rule="evenodd" transform="translate(0.000000, 0.000000)">
    <path d="M86.5,54.5 L86.5,38.5 L94.5,38.5 L94.5,14.5 L86.5,14.5 L86.5,26.5 L66.5,26.5 L66.5,14.5 L50.5,14.5 L50.5,26.5 L30.5,26.5 L30.5,14.5 L22.5,14.5 L22.5,38.5 L74.5,38.5 L74.5,46.5 L30.5,46.5 L30.5,54.5 L38.5,54.5 L38.5,78.5 L74.5,78.5 L74.5,86.5 L30.5,86.5 L30.5,62.5 L28.5,62.5 C25.2616031,62.5 22.6224282,59.9344251 22.5041385,56.7249383 L22.5,56.5 L22.5,46.5 L20.5,46.5 C17.2616031,46.5 14.6224282,43.9344251 14.5041385,40.7249383 L14.5,40.5 L14.5,11.5 C14.5,8.8112453 16.6223067,6.61818189 19.2831104,6.50461951 L19.5,6.5 L33.5,6.5 C36.1887547,6.5 38.3818181,8.62230671 38.4953805,11.2831104 L38.5,11.5 L38.5,18.5 L42.5,18.5 L42.5,11.5 C42.5,8.8112453 44.6223067,6.61818189 47.2831104,6.50461951 L47.5,6.5 L69.5,6.5 C72.1887547,6.5 74.3818181,8.62230671 74.4953805,11.2831104 L74.5,11.5 L74.5,18.5 L78.5,18.5 L78.5,11.5 C78.5,8.8112453 80.6223067,6.61818189 83.2831104,6.50461951 L83.5,6.5 L97.5,6.5 C100.188755,6.5 102.381818,8.62230671 102.49538,11.2831104 L102.5,11.5 L102.5,40.5 C102.5,43.7383969 99.9344251,46.3775718 96.7249383,46.4958615 L96.5,46.5 L94.5,46.5 L94.5,54.5 C94.5,58.8349143 91.0521622,62.3645429 86.7491793,62.4961932 L86.5,62.5 L86.5,79.183 L86.56655,79.2065672 C91.1018181,80.8398894 94.3697881,85.1274621 94.4962001,90.1950252 L94.5,90.5 L94.5,98.5 L30.5,98.5 C27.5822692,98.5 25.0293591,100.061983 23.6318483,102.395369 L23.57,102.5 L98.5,102.5 L98.5,110.5 L14.5,110.5 L14.5,106.5 C14.5,97.7686411 21.493901,90.6707953 30.1851293,90.5030364 L30.5,90.5 L86.5,90.5 C86.5,88.3578046 84.8160315,86.6089211 82.6996403,86.5048953 L82.5,86.5 L78.5,86.5 L78.5,62.5 L50.5,62.5 L50.5,54.5 L86.5,54.5 Z" id="Path" fill="#000000" fill-rule="nonzero"></path>
  </g>
</svg>
