<?xml version="1.0" encoding="UTF-8"?><svg viewBox="0 0 116 116" version="1.1" xmlns="http://www.w3.org/2000/svg" xmlns:xlink="http://www.w3.org/1999/xlink">
  <title>chess-rook</title>
  <g id="chess-rook" stroke="none" stroke-width="1" fill="none" fill-rule="evenodd" transform="translate(0.000000, 0.000000)">
    <path d="M98.5,106.5 L18.5,106.5 C18.5,99.872583 23.872583,94.5 30.5,94.5 L84.5,94.5 L84.5,94.5 L90.5,94.5 L90.5,90.5 C90.5,86.081722 86.918278,82.5 82.5,82.5 L82.5,82.5 L82.5,82.5 L82.5,60.5 C82.5,59.3954305 83.3954305,58.5 84.5,58.5 L85,58.5 L85,58.5 L50.5,58.5 L86,58.5 L86.5,58.5 C88.709139,58.5 90.5,56.709139 90.5,54.5 L90.5,42.5 L90.5,42.5 L96.5,42.5 C97.6045695,42.5 98.5,41.6045695 98.5,40.5 L98.5,11.5 C98.5,10.9477153 98.0522847,10.5 97.5,10.5 L83.5,10.5 C82.9477153,10.5 82.5,10.9477153 82.5,11.5 L82.5,22.5 L82.5,22.5 L70.5,22.5 L70.5,11.5 C70.5,10.9477153 70.0522847,10.5 69.5,10.5 L47.5,10.5 C46.9477153,10.5 46.5,10.9477153 46.5,11.5 L46.5,22.5 L46.5,22.5 L34.5,22.5 L34.5,11.5 C34.5,10.9477153 34.0522847,10.5 33.5,10.5 L19.5,10.5 C18.9477153,10.5 18.5,10.9477153 18.5,11.5 L18.5,40.5 C18.5,41.6045695 19.3954305,42.5 20.5,42.5 L74.5,42.5 L74.5,42.5 L26.5,42.5 L26.5,56.5 C26.5,57.6045695 27.3954305,58.5 28.5,58.5 L34.5,58.5 L34.5,58.5 L34.5,82.5 L74.5,82.5" id="Path-331" stroke="#000000" stroke-width="8"></path>
  </g>
</svg>
