<?xml version="1.0" encoding="UTF-8"?><svg viewBox="0 0 116 116" version="1.1" xmlns="http://www.w3.org/2000/svg" xmlns:xlink="http://www.w3.org/1999/xlink">
  <title>circle-half-filled</title>
  <g id="circle-half-filled" stroke="none" stroke-width="1" fill="none" fill-rule="evenodd" transform="translate(-0.000000, 0.000000)">
    <path d="M58.5,6.5 C87.218807,6.5 110.5,29.781193 110.5,58.5 C110.5,86.9316189 87.6821027,110.033832 59.3599151,110.493033 L58.5,110.5 L54.5,110.5 L54.5,94.5 L38.5,94.5 L38.5,86.5 L54.5,86.5 L54.5,82.5 L30.5,82.5 L30.5,74.5 L54.5,74.5 L54.5,70.5 L22.5,70.5 L22.5,62.5 L54.5,62.5 L54.5,58.5 L18.5,58.5 L18.5,50.5 L54.5,50.5 L54.5,46.5 L22.5,46.5 L22.5,38.5 L54.5,38.5 L54.5,34.5 L30.5,34.5 L30.5,26.5 L54.5,26.5 L54.5,22.5 L42.5,22.5 L42.5,17.5 L42.0074024,17.6953481 C26.090638,24.1349062 14.8002544,39.6171311 14.5058947,57.7723795 L14.5,58.5 C14.5,76.9447558 25.9543253,93.2244662 42.8858519,99.6502603 L43.4005988,99.8419572 L40.6553609,107.356188 C20.310458,99.923412 6.5,80.5173846 6.5,58.5 C6.5,29.781193 29.781193,6.5 58.5,6.5 Z M62.8211425,14.709493 L62.5,14.68 L62.5,102.319 L62.8211425,102.290507 C84.8566069,100.142595 102.129099,81.7401286 102.494105,59.2276205 L102.5,58.5 C102.5,35.6575027 85.0935474,16.8805003 62.8211425,14.709493 Z" id="Path" fill="#000000" fill-rule="nonzero"></path>
  </g>
</svg>
