<?xml version="1.0" encoding="UTF-8"?><svg viewBox="0 0 116 116" version="1.1" xmlns="http://www.w3.org/2000/svg" xmlns:xlink="http://www.w3.org/1999/xlink">
  <title>circle-triangle-square</title>
  <g id="circle-triangle-square" stroke="none" stroke-width="1" fill="none" fill-rule="evenodd" transform="translate(-0.000000, 0.000000)">
    <path d="M36.2619667,58.5 C34.825762,58.5 33.424315,58.0582328 32.2477303,57.2346234 C29.1509662,55.0668886 28.3457584,50.8458353 30.3839622,47.6986441 L30.5273432,47.4857636 L52.7653766,15.7171446 C53.234019,15.0476553 53.8162743,14.4654 54.4857636,13.9967575 C57.5825277,11.8290227 61.824226,12.5172416 64.0836783,15.509559 L64.2346234,15.7171446 L86.4726568,47.4857636 C87.2962661,48.6623483 87.7380333,50.0637953 87.7380333,51.5 C87.7380333,55.2854517 84.7332499,58.3690987 80.9786831,58.495941 L80.7380333,58.5 L62,58.5 L62,50.5 L78.817,50.5 L58.5,21.475 L38.182,50.5 L58.5,50.5 L58.5,66.5 L22.5,66.5 C20.3578046,66.5 18.6089211,68.1839685 18.5048953,70.3003597 L18.5,70.5 L18.5,94.5 C18.5,96.6421954 20.1839685,98.3910789 22.3003597,98.4951047 L22.5,98.5 L46.5,98.5 C48.6421954,98.5 50.3910789,96.8160315 50.4951047,94.6996403 L50.5,94.5 L50.5,74.5 L58.5,74.5 L58.5,87.212 L58.8202425,87.1766544 C62.8177722,86.7758083 66.7284218,88.156102 69.238513,91.4714393 L69.4444171,91.7522 C72.4304529,95.9562094 77.2483062,98.5 82.5,98.5 C91.336556,98.5 98.5,91.336556 98.5,82.5 C98.5,73.663444 91.336556,66.5 82.5,66.5 C79.3441105,66.5 76.3336771,67.4112866 73.7539349,69.0992607 C69.3622853,71.9728003 66.626357,76.8059365 66.504265,82.1279239 L66.5,82.5 L58.5,82.5 C58.5,74.3039146 62.6444404,66.808051 69.3737231,62.4049538 C73.2457734,59.871398 77.776184,58.5 82.5,58.5 C95.754834,58.5 106.5,69.245166 106.5,82.5 C106.5,95.754834 95.754834,106.5 82.5,106.5 C74.6293176,106.5 67.3931326,102.679348 62.9222241,96.3848017 C62.2191059,95.3948887 60.9840482,94.9644811 59.4782661,95.1525201 C59.2099588,95.1860258 58.954007,95.2391271 58.7235223,95.3042116 L58.467,95.385 L58.4660712,95.4092185 C58.008891,101.51186 52.9874018,106.341977 46.8049748,106.4962 L46.5,106.5 L22.5,106.5 C15.9745433,106.5 10.6656072,101.291456 10.5037999,94.8049748 L10.5,94.5 L10.5,70.5 C10.5,63.9745433 15.7085444,58.6656072 22.1950252,58.5037999 L22.5,58.5 L36.2619667,58.5 Z" id="Path" fill="#000000" fill-rule="nonzero"></path>
  </g>
</svg>
