<?xml version="1.0" encoding="UTF-8"?><svg viewBox="0 0 116 116" version="1.1" xmlns="http://www.w3.org/2000/svg" xmlns:xlink="http://www.w3.org/1999/xlink">
  <title>clipboard</title>
  <g id="clipboard" stroke="none" stroke-width="1" fill="none" fill-rule="evenodd">
    <path d="M78.5,30.1311573 L50.5,30.1311573 L50.5,22.6311573 C50.7009305,18.3842451 54.2052488,15 58.5,15 C62.6247966,15 66.0204817,18.121698 66.4533948,22.1314337 L70.5,22.1313145 L70.5,18.1311573 L70.4951047,17.9315169 C70.3944345,15.8833964 68.753315,14.2402504 66.7060394,14.1363722 L66.5,14.1311573 L50.5,14.1311573 L50.3003597,14.1360526 C48.2522392,14.2367227 46.6090931,15.8778423 46.5052149,17.9251179 L46.5,18.1311573 L46.5,28.7623145 L38.5,28.7623145 L38.5,22.4991573 L25,22.5 C23.7625808,22.5 22.6008748,23.4955367 22.5062143,24.3847141 L22.5,24.5 L22.5,100 C22.5,101.060387 23.7860287,102.388831 24.8661634,102.49341 L25,102.5 L58.5,102.5 L58.5,110.5 L25,110.5 C19.567691,110.5 14.663332,105.684695 14.5039932,100.271156 L14.5,100 L14.5,24.5 C14.5,19.0519866 19.3086723,14.6489551 24.724135,14.5037007 L25,14.5 L39.0593037,14.4996592 C40.5679396,9.74254679 44.9615269,6.26956297 50.1855769,6.13519648 L50.5,6.13115727 L66.5,6.13115727 L66.8049748,6.13495713 C72.0329065,6.2653696 76.4306993,9.73932236 77.9404637,14.498926 L92,14.5 C97.4674457,14.5 102.332421,18.2869337 102.495765,23.7176461 L102.5,24 L102.5,98.5 C102.5,105.025457 97.2914556,110.334393 90.8049748,110.4962 L90.5,110.5 L90.5,102.5 C92.6421954,102.5 94.3910789,100.816032 94.4951047,98.6996403 L94.5,98.5 L94.5,24 C94.5,23.3280407 93.5859494,22.5721773 92.2010047,22.5048507 L92,22.5 L78.5,22.4991573 L78.5,30.1311573 Z" id="Path" fill="#000000" fill-rule="nonzero"></path>
  </g>
</svg>
