<?xml version="1.0" encoding="UTF-8"?><svg viewBox="0 0 116 116" version="1.1" xmlns="http://www.w3.org/2000/svg" xmlns:xlink="http://www.w3.org/1999/xlink">
  <title>clock</title>
  <g id="clock" stroke="none" stroke-width="1" fill="none" fill-rule="evenodd">
    <path d="M55.4954964,6.6044662 C59.2809469,6.60203517 62.366526,9.60483322 62.495786,13.3617344 L62.5,13.6025391 L62.5,55.7661315 C62.5,58.9688541 60.5913569,61.8529499 57.6663678,63.1128739 L57.4056656,63.2197955 L30.4528328,73.726832 L27.5471672,66.273168 L54.5,55.7661315 L54.5,14.68 L54.0721204,14.7197122 C31.9515162,16.9266844 14.8485183,35.4437343 14.5052602,57.8140054 L14.5,58.5 C14.5,82.800529 34.199471,102.5 58.5,102.5 C82.800529,102.5 102.5,82.800529 102.5,58.5 C102.5,39.1822313 89.9385462,22.3089188 71.8470369,16.5596299 L71.2971239,16.3888229 L73.6201733,8.73353446 C95.3555056,15.329269 110.5,35.4393782 110.5,58.5 C110.5,87.218807 87.218807,110.5 58.5,110.5 C29.781193,110.5 6.5,87.218807 6.5,58.5 C6.5,31.4279643 27.2689714,8.94502657 54.0789912,6.68552076 L54.5680726,6.64853831 L55.1141016,6.6151265 C55.2411316,6.60810063 55.3683101,6.6044662 55.4954964,6.6044662 Z" id="Path" fill="#000000" fill-rule="nonzero"></path>
  </g>
</svg>
