<?xml version="1.0" encoding="UTF-8"?><svg viewBox="0 0 116 116" version="1.1" xmlns="http://www.w3.org/2000/svg" xmlns:xlink="http://www.w3.org/1999/xlink">
  <title>closed-captions</title>
  <g id="closed-captions" stroke="none" stroke-width="1" fill="none" fill-rule="evenodd">
    <path d="M82.5,22.5 C86.8349143,22.5 90.3645429,25.9478378 90.4961932,30.2508207 L90.5,30.5 L90.5,46.5 L78.5,46.5 C71.872583,46.5 66.5,51.872583 66.5,58.5 C66.5,65.0254567 71.7085444,70.3343928 78.1950252,70.4962001 L78.5,70.5 L86.5,70.5 L86.5,78.5 L78.5,78.5 C67.454305,78.5 58.5,69.545695 58.5,58.5 C58.5,47.5693643 67.2687286,38.686775 78.1555106,38.5029071 L78.5,38.5 L82.5,38.5 L82.5,30.5 L18.5,30.5 C16.3578046,30.5 14.6089211,32.1839685 14.5048953,34.3003597 L14.5,34.5 L14.5,82.5 C14.5,84.6421954 16.1839685,86.3910789 18.3003597,86.4951047 L18.5,86.5 L98.5,86.5 C100.642195,86.5 102.391079,84.8160315 102.495105,82.6996403 L102.5,82.5 L102.5,34 C102.5,32.1314366 101.035722,30.6048736 99.1920352,30.5051789 L99,30.5 L99,22.5 C105.253563,22.5 110.341293,27.4915217 110.496358,33.7077325 L110.5,34 L110.5,82.5 C110.5,89.0254567 105.291456,94.3343928 98.8049748,94.4962001 L98.5,94.5 L18.5,94.5 C11.9745433,94.5 6.66560725,89.2914556 6.50379986,82.8049748 L6.5,82.5 L6.5,34.5 C6.5,27.9745433 11.7085444,22.6656072 18.1950252,22.5037999 L18.5,22.5 L82.5,22.5 Z M54.5,38.5 L54.5,46.5 L46.5,46.5 C39.872583,46.5 34.5,51.872583 34.5,58.5 C34.5,65.0254567 39.7085444,70.3343928 46.1950252,70.4962001 L46.5,70.5 L54.5,70.5 L54.5,78.5 L46.5,78.5 C35.454305,78.5 26.5,69.545695 26.5,58.5 C26.5,47.5693643 35.2687286,38.686775 46.1555106,38.5029071 L46.5,38.5 L54.5,38.5 Z" id="Shape" fill="#000000" fill-rule="nonzero"></path>
  </g>
</svg>
