<?xml version="1.0" encoding="UTF-8"?><svg viewBox="0 0 116 116" version="1.1" xmlns="http://www.w3.org/2000/svg" xmlns:xlink="http://www.w3.org/1999/xlink">
  <title>closed-captions-off</title>
  <g id="closed-captions-off" stroke="none" stroke-width="1" fill="none" fill-rule="evenodd">
    <path d="M13.3284271,7.67157288 L75.8665816,70.2101392 C76.6185135,70.3785031 77.3971003,70.4762956 78.1950252,70.4962001 L78.5,70.5 L86.5,70.5 L86.5,78.5 L84.156,78.4995729 L92.156,86.4995729 L98.5,86.5 C100.642195,86.5 102.391079,84.8160315 102.495105,82.6996403 L102.5,82.5 L102.5,34 C102.5,32.1314366 101.035722,30.6048736 99.1920352,30.5051789 L99,30.5 L99,22.5 C105.253563,22.5 110.341293,27.4915217 110.496358,33.7077325 L110.5,34 L110.5,82.5 C110.5,88.6000039 105.948498,93.6369475 100.056323,94.4000007 L109.328427,103.671573 L103.671573,109.328427 L41.7989607,47.4557984 C37.5080054,49.2846046 34.5,53.5410236 34.5,58.5 C34.5,65.0254567 39.7085444,70.3343928 46.1950252,70.4962001 L46.5,70.5 L54.5,70.5 L54.5,78.5 L46.5,78.5 C35.454305,78.5 26.5,69.545695 26.5,58.5 C26.5,51.3526303 30.2491972,45.0809324 35.8882114,41.5442869 L24.843,30.4995729 L18.5,30.5 C16.3578046,30.5 14.6089211,32.1839685 14.5048953,34.3003597 L14.5,34.5 L14.5,82.5 C14.5,84.6421954 16.1839685,86.3910789 18.3003597,86.4951047 L18.5,86.5 L74.5,86.5 L74.5,94.5 L18.5,94.5 C11.9745433,94.5 6.66560725,89.2914556 6.50379986,82.8049748 L6.5,82.5 L6.5,34.5 C6.5,28.3999961 11.0515022,23.3630525 16.9436767,22.5999993 L7.67157288,13.3284271 L13.3284271,7.67157288 Z M82.5,22.5 C86.8349143,22.5 90.3645429,25.9478378 90.4961932,30.2508207 L90.5,30.5 L90.5,46.5 L78.5,46.5 C74.2201466,46.5 70.3393014,48.7566424 68.1900682,52.3546384 L68.0281804,52.6340375 L61.0534061,48.7158079 C64.504283,42.5729605 70.9495403,38.6447305 78.1019319,38.5039165 L78.5,38.5 L82.5,38.5 L82.5,30.5 L42.5,30.5 L42.5,22.5 L82.5,22.5 Z" id="Shape" fill="#000000" fill-rule="nonzero"></path>
  </g>
</svg>
