<?xml version="1.0" encoding="UTF-8"?><svg viewBox="0 0 116 116" version="1.1" xmlns="http://www.w3.org/2000/svg" xmlns:xlink="http://www.w3.org/1999/xlink">
  <title>cloud-sun</title>
  <g id="cloud-sun" stroke="none" stroke-width="1" fill="none" fill-rule="evenodd">
    <path d="M85.5,10.5 L85.5011269,14.9136468 C88.0453368,15.4391124 90.4128778,16.447828 92.5035299,17.8395736 L94.6715729,15.6715729 L100.328427,21.3284271 L98.147583,23.5103069 C99.5243433,25.5998089 100.519775,27.9628153 101.034814,30.5002624 L105.5,30.5 L105.5,38.5 L101.033774,38.5006358 C100.480061,41.2256604 99.3642665,43.7946559 97.7567388,46.0606183 L97.449582,46.4818992 L91.0469446,41.6854177 L91.2731201,41.3732748 C92.6721855,39.3762144 93.4348331,37.0006484 93.4348331,34.5 C93.4348331,27.872583 88.0622501,22.5 81.4348331,22.5 C76.6488725,22.5 72.4480599,25.3233384 70.5334304,29.4714064 C79.0583817,33.51822 85.8058625,40.8319146 89.0379744,49.9512438 L89.2107747,50.4504437 L89.3314746,50.815 L89.664044,50.9075685 C99.8196295,53.782192 107.104153,63.1192864 107.104153,74 C107.104153,85.9280037 98.4025333,95.8236354 87.0009396,97.6852502 L87,98 L31,98 L30.5369688,97.9962488 C15.2865601,97.7489867 3,85.3093333 3,70 C3,54.536027 15.536027,42 31,42 C33.9291911,42 36.8016501,42.4512521 39.5393419,43.3271399 L40.1238989,43.52132 L37.5180659,51.0850251 L37.0368271,50.9260806 C35.1038318,50.3149424 33.0756799,50 31,50 C19.954305,50 11,58.954305 11,70 C11,80.9306357 19.7687286,89.813225 30.6555106,89.9970929 L31,90 L81.1041526,90 L83.4190233,89.9969636 C92.1102515,89.8292047 99.1041526,82.7313589 99.1041526,74 C99.1041526,66.1876345 93.4670231,59.5654989 85.8847509,58.2400692 L85.5489886,58.1850438 L82.9170247,57.7823404 L82.2728122,55.1988554 L82.1727687,54.8095672 C78.9544194,42.6490315 67.8942956,34 55.1041526,34 C50.0125451,34 45.1300644,35.3576207 40.8543946,37.891363 L40.3986272,38.1673276 L36.190322,31.3636398 L36.7052721,31.0510383 C42.0507338,27.8668462 48.1444934,26.1117452 54.4893655,26.005161 L55.1041526,26 L55.60207,26.0033997 C58.1134205,26.0377083 60.570646,26.3311641 62.9455649,26.8601029 C63.4421511,25.6573509 64.0516963,24.516205 64.7602966,23.4488831 L62.6497327,21.306417 L68.3502673,15.693583 L70.4262212,17.8013777 C72.5443784,16.4038589 74.938939,15.4007567 77.5002664,14.8884129 L77.5,10.5 L85.5,10.5 Z" id="Path" fill="#000000" fill-rule="nonzero"></path>
  </g>
</svg>
