<?xml version="1.0" encoding="UTF-8"?><svg viewBox="0 0 116 116" version="1.1" xmlns="http://www.w3.org/2000/svg" xmlns:xlink="http://www.w3.org/1999/xlink">
  <title>cloud</title>
  <g id="cloud" stroke="none" stroke-width="1" fill="none" fill-rule="evenodd">
    <path d="M30,94 C16.745166,94 6,83.254834 6,70 C6,59.1192864 13.284523,49.782192 23.4401086,46.9075685 L23.772,46.815 L23.8933779,46.4504437 C28.7134729,32.1867886 42.0883163,22.213973 57.5020826,22.0033997 L58,22 C64.6195853,22 70.9840744,23.7932486 76.5327228,27.1311517 L77.0505013,27.4485979 L72.8118349,34.2334124 C68.4050299,31.480356 63.3166333,30 58,30 C45.209857,30 34.1497332,38.6490315 30.9313839,50.8095672 L30.8313404,51.1988554 L30.1871279,53.7823404 L27.5551639,54.1850438 C19.8041465,55.3709876 14,62.0727468 14,70 C14,78.7313589 20.993901,85.8292047 29.6851293,85.9969636 L30,86 L82,86 C93.045695,86 102,77.045695 102,66 C102,54.954305 93.045695,46 82,46 C79.9243201,46 77.8961682,46.3149424 75.9631729,46.9260806 L75.4819341,47.0850251 L72.8761011,39.52132 C75.788288,38.518019 78.861581,38 82,38 C97.463973,38 110,50.536027 110,66 C110,81.3093333 97.7134399,93.7489867 82.4630312,93.9962488 L82,94 L30,94 Z" id="Path" fill="#000000" fill-rule="nonzero"></path>
  </g>
</svg>
