<?xml version="1.0" encoding="UTF-8"?><svg viewBox="0 0 116 116" version="1.1" xmlns="http://www.w3.org/2000/svg" xmlns:xlink="http://www.w3.org/1999/xlink">
  <title>cloud-off</title>
  <g id="cloud-off" stroke="none" stroke-width="1" fill="none" fill-rule="evenodd">
    <path d="M12.8284271,7.17157288 L108.828427,103.171573 L103.171573,108.828427 L7.17157288,12.8284271 L12.8284271,7.17157288 Z M26.7462625,40.1232839 L33.6873511,44.1008822 C32.5212831,46.1357237 31.6154773,48.3096591 30.9938203,50.5779306 L30.8313404,51.1988554 L30.1871279,53.7823404 L27.5551639,54.1850438 C19.8041465,55.3709876 14,62.0727468 14,70 C14,78.7313589 20.993901,85.8292047 29.6851293,85.9969636 L30,86 L74,86 L74,94 L30,94 C16.745166,94 6,83.254834 6,70 C6,59.1192864 13.284523,49.782192 23.4401086,46.9075685 L23.774,46.815 L23.8618103,46.5468076 C24.5355489,44.5376277 25.3857648,42.5948233 26.4015502,40.7387389 L26.7462625,40.1232839 Z M82,38 C97.463973,38 110,50.536027 110,66 C110,73.4882157 107.041154,80.5154446 101.879537,85.7181474 L101.539794,86.0548534 L95.9565999,80.3252863 C99.7980957,76.5819287 102,71.4709945 102,66 C102,54.954305 93.045695,46 82,46 C79.9243201,46 77.8961682,46.3149424 75.9631729,46.9260806 L75.4819341,47.0850251 L72.8761011,39.52132 C75.788288,38.518019 78.861581,38 82,38 Z M58,22 C65.5337846,22 72.7270318,24.3242142 78.7469642,28.5762889 L79.2077077,28.9071674 L74.490496,35.36843 C69.7368064,31.897876 64.0168358,30 58,30 C53.2128068,30 48.60926,31.1996963 44.5168473,33.4533557 L44.0469329,33.7180623 L40.0536799,26.7859681 C45.4687551,23.6665983 51.6176193,22 58,22 Z" id="Shape" fill="#000000" fill-rule="nonzero"></path>
  </g>
</svg>
