<?xml version="1.0" encoding="UTF-8"?><svg viewBox="0 0 116 116" version="1.1" xmlns="http://www.w3.org/2000/svg" xmlns:xlink="http://www.w3.org/1999/xlink">
  <title>clown</title>
  <g id="clown" stroke="none" stroke-width="1" fill="none" fill-rule="evenodd" transform="translate(0.000000, 0.000000)">
    <path d="M84,68 C92.836556,68 100,75.163444 100,84 C100,88.8321521 97.8392596,93.3158411 94.1978856,96.3294104 L94.05,96.448 L93.7086612,96.7667413 C84.3370273,105.395028 72.1271263,110.338896 59.1393606,110.496131 L58.5,110.5 C46.087675,110.5 34.3408546,106.130848 25.0447239,98.3103009 L24.3988768,97.7573539 L24.3002571,97.6708007 C21.3997579,95.1158605 21.1183112,90.693455 23.6723286,87.7918516 L23.8429028,87.6053984 L28.2132874,83.1623154 C30.7350951,80.5838533 34.802327,80.3477404 37.6136191,82.6145706 L38.5347949,83.3501098 L38.72584,83.4992615 C44.8897489,88.2841723 50.3771394,90.5 58.5,90.5 C67.5823832,90.5 74.1988328,87.2569724 80.9380251,81.3669365 L81.3425446,81.0103627 L86.6574554,86.9896373 C78.4509571,94.2843024 70.0815574,98.5 58.5,98.5 C48.6301856,98.5 41.5768394,95.7315433 34.2680427,90.163092 L33.294,89.405 L30.393,92.353 L30.6791367,92.5901166 C38.3185347,98.8343585 47.8314274,102.362679 57.9066982,102.496074 L58.5,102.5 C69.6822604,102.5 80.1980711,98.3163808 88.2569738,90.9117022 L88.8076622,90.397547 L88.9467042,90.2879369 C90.8638894,88.7765736 92,86.4859252 92,84 C92,79.581722 88.418278,76 84,76 C81.9484175,76 80.0280573,76.7709226 78.5599326,78.1342292 L78.258696,78.4251461 L77.78,78.875 L77.4863242,79.1646466 C72.5522433,83.9301116 66.3041867,86.3869758 59.0105514,86.49619 L58.5,86.5 C50.9879778,86.5 44.5627711,84.0406014 39.5138458,79.1647777 L39.219,78.875 L38.7424785,78.4263109 L38.6575245,78.3438161 C37.1642643,76.8502053 35.1544912,76 33,76 C28.6650857,76 25.1354571,79.4478378 25.0038068,83.7508207 L25,84 L17,84 C17,75.163444 24.163444,68 33,68 C37.1597055,68 41.0755283,69.5997673 44.0234986,72.4032771 L44.253,72.627 L44.828263,73.1714088 C48.3888719,76.7316045 52.8887938,78.5 58.5,78.5 C63.9469642,78.5 68.3455428,76.8344566 71.8549783,73.481076 L72.2560226,73.0895725 L72.7707413,72.6042911 L72.9778236,72.40202 C75.9256606,69.5992744 79.8409334,68 84,68 Z M82.5,14.5 C93.4306357,14.5 102.313225,23.2687286 102.497093,34.1555106 L102.5,34.5 L102.5,42.5 C102.5,49.0254567 97.2914556,54.3343928 90.8049748,54.4962001 L90.5,54.5 L70.5,54.5 L70.5,58.5 C70.5,65.0254567 65.2914556,70.3343928 58.8049748,70.4962001 L58.5,70.5 C51.872583,70.5 46.5,65.127417 46.5,58.5 C46.5,51.9745433 51.7085444,46.6656072 58.1950252,46.5037999 L58.5,46.5 L58.5,54.5 C56.290861,54.5 54.5,56.290861 54.5,58.5 C54.5,60.709139 56.290861,62.5 58.5,62.5 C60.6421954,62.5 62.3910789,60.8160315 62.4951047,58.6996403 L62.5,58.5 L62.5,46.5 L90.5,46.5 C92.6421954,46.5 94.3910789,44.8160315 94.4951047,42.6996403 L94.5,42.5 L94.5,34.5 C94.5,27.872583 89.127417,22.5 82.5,22.5 C75.9745433,22.5 70.6656072,27.7085444 70.5037999,34.1950252 L70.5,34.5 L70.5,42.5 L62.5,42.5 L62.5,34.5 C62.5,23.454305 71.454305,14.5 82.5,14.5 Z M34.5,14.5 C45.4306357,14.5 54.313225,23.2687286 54.4970929,34.1555106 L54.5,34.5 L54.5,42.5 L46.5,42.5 L46.5,34.5 C46.5,27.872583 41.127417,22.5 34.5,22.5 C27.9745433,22.5 22.6656072,27.7085444 22.5037999,34.1950252 L22.5,34.5 L22.5,42.5 C22.5,44.6421954 24.1839685,46.3910789 26.3003597,46.4951047 L26.5,46.5 L42.5,46.5 L42.5,54.5 L26.5,54.5 C19.9745433,54.5 14.6656072,49.2914556 14.5037999,42.8049748 L14.5,42.5 L14.5,34.5 C14.5,23.454305 23.454305,14.5 34.5,14.5 Z M86.5,30.5 L86.5,38.5 L78.5,38.5 L78.5,30.5 L86.5,30.5 Z M38.5,30.5 L38.5,38.5 L30.5,38.5 L30.5,30.5 L38.5,30.5 Z" id="Shape" fill="#000000" fill-rule="nonzero"></path>
  </g>
</svg>
