<?xml version="1.0" encoding="UTF-8"?><svg viewBox="0 0 116 116" version="1.1" xmlns="http://www.w3.org/2000/svg" xmlns:xlink="http://www.w3.org/1999/xlink">
  <title>comment-off</title>
  <g id="comment-off" stroke="none" stroke-width="1" fill="none" fill-rule="evenodd">
    <path d="M12.8284271,7.17157288 L108.828427,103.171573 L103.171573,108.828427 L48.843,54.4995729 L34.5,54.5 C32.290861,54.5 30.5,56.290861 30.5,58.5 C30.5,60.6421954 32.1839685,62.3910789 34.3003597,62.4951047 L34.5,62.5 L50.5,62.5 L50.5,70.5 L34.5,70.5 C27.872583,70.5 22.5,65.127417 22.5,58.5 C22.5,51.9745433 27.7085444,46.6656072 34.1950252,46.5037999 L34.5,46.5 L40.843,46.4995729 L16.343,21.9995729 L16,22 C14.9456382,22 14.0818349,22.8158778 14.0054857,23.8507377 L14,24 L14,76 C14,77.0543618 14.8158778,77.9181651 15.8507377,77.9945143 L16,78 L67.6568542,78 L84.8284271,95.1715729 L79.1715729,100.828427 L64.343,86 L16,86 C10.5707601,86 6.15206828,81.6733292 6.0038418,76.2799048 L6,76 L6,24 C6,20.6403306 7.65679535,17.6676265 10.1979206,15.8543532 L7.17157288,12.8284271 L12.8284271,7.17157288 Z M100,14 C105.42924,14 109.847932,18.3266708 109.996158,23.7200952 L110,24 L110,76 C110,81.4292399 105.673329,85.8479317 100.279905,85.9961582 L100,86 L100,78 C101.054362,78 101.918165,77.1841222 101.994514,76.1492623 L102,76 L102,24 C102,22.9456382 101.184122,22.0818349 100.149262,22.0054857 L100,22 L34.5,22 L34.5,14 L100,14 Z M82.5,30.5 C89.127417,30.5 94.5,35.872583 94.5,42.5 C94.5,49.0254567 89.2914556,54.3343928 82.8049748,54.4962001 L82.5,54.5 L66.5,54.5 L66.5,46.5 L82.5,46.5 C84.709139,46.5 86.5,44.709139 86.5,42.5 C86.5,40.3578046 84.8160315,38.6089211 82.6996403,38.5048953 L82.5,38.5 L50.5,38.5 L50.5,30.5 L82.5,30.5 Z" id="Shape" fill="#000000" fill-rule="nonzero"></path>
  </g>
</svg>
