<?xml version="1.0" encoding="UTF-8"?><svg viewBox="0 0 116 116" version="1.1" xmlns="http://www.w3.org/2000/svg" xmlns:xlink="http://www.w3.org/1999/xlink">
  <title>compass</title>
  <g id="compass" stroke="none" stroke-width="1" fill="none" fill-rule="evenodd">
    <path d="M78.3743515,25.6528442 L81.9520602,32.8082617 L49.2035043,49.1825397 L28.5042338,90.5793668 L29.08889,91.085682 C31.2470309,92.918904 33.5591741,94.5268236 35.9988097,95.8975877 L36.6673059,96.2655437 C41.9830882,99.1311977 47.7124686,100.809802 53.5000787,101.338164 L53.5,97.5 L61.5,97.5 L61.5007107,101.339684 C71.480075,100.433522 81.1434872,96.1325226 88.6484872,88.6275226 C96.1499385,81.1260713 100.448869,71.4700636 101.358742,61.4991952 L97.5,61.5 L97.5,53.5 L101.360932,53.49932 C100.843916,47.8057484 99.2139694,42.1688686 96.4367467,36.9274065 L96.1615967,36.4162859 L103.180626,32.577897 C114.16731,52.6685801 110.739992,77.8497264 94.3053415,94.2843768 C77.9504938,110.639225 52.9263457,114.118942 32.8711088,103.307481 C29.4282531,101.451492 26.1930796,99.202588 23.2195068,96.5861828 L22.8886279,96.2905613 L22.5167749,95.9500187 C20.2958203,93.8955408 19.6528464,90.6555391 20.8954039,87.9210438 L21.0099424,87.6811197 L42.0480868,45.6048309 C42.7705891,44.1598263 43.9123313,42.9699173 45.3201121,42.1883052 L45.6257956,42.0271222 L78.3743515,25.6528442 Z M82.2910749,11.771128 C85.6549343,13.5932023 88.8190746,15.7906056 91.7334909,18.339445 L92.5376381,19.0581203 C94.7076563,21.0507858 95.3849021,24.1722822 94.281312,26.8652827 L94.1760717,27.1088771 L94.0643974,27.3430045 L73.6197757,68.2322479 C72.5166695,70.4384603 70.7620436,72.2482415 68.5982321,73.4192575 L68.2532126,73.5988111 L36.6972262,89.3768042 L33.1195175,82.2213867 L60.762935,68.3990681 L54.1215725,61.7574638 L51.2931454,64.5858909 C48.1689511,61.4616966 48.1689511,56.3963767 51.2931454,53.2721824 C54.4173397,50.1479881 59.4826596,50.1479881 62.6068539,53.2721824 C64.6700011,55.3353296 65.3706926,58.2449982 64.7089284,60.8831411 L64.6779958,60.9988911 L67.086935,63.4080681 L86.5661858,24.4493264 L86.3861153,24.2908443 C84.1451869,22.340545 81.7332418,20.6366427 79.1805049,19.1927963 L78.4808359,18.8054779 C73.1222715,15.902948 67.3405096,14.20867 61.5006873,13.6850889 L61.5,18 L53.5,18 L53.5004127,13.696464 C43.5465599,14.6163983 33.9108662,18.9143501 26.4230905,26.4021259 C18.9316604,33.8935559 14.6316476,43.5367669 13.7154745,53.4992033 L17.5,53.5 L17.5,61.5 L13.7077791,61.4992702 C14.2093898,67.0648862 15.7745566,72.5780977 18.4364294,77.7231989 L18.704304,78.2327827 L11.6475536,82.001373 C0.949941731,61.9699101 4.46343981,37.048068 20.7662362,20.7452716 C37.1476091,4.36389871 62.2239214,0.901516388 82.2910749,11.771128 Z" id="Shape" fill="#000000" fill-rule="nonzero"></path>
  </g>
</svg>
