<?xml version="1.0" encoding="UTF-8"?><svg viewBox="0 0 116 116" version="1.1" xmlns="http://www.w3.org/2000/svg" xmlns:xlink="http://www.w3.org/1999/xlink">
  <title>cool-face</title>
  <g id="cool-face" stroke="none" stroke-width="1" fill="none" fill-rule="evenodd">
    <path d="M82.5,38.5 L82.5,46.5 L70.5,46.5 L70.5,50.5 C70.5,52.6421954 72.1839685,54.3910789 74.3003597,54.4951047 L74.5,54.5 L82.5,54.5 C84.6421954,54.5 86.3910789,52.8160315 86.4951047,50.6996403 L86.5,50.5 L86.5,45.4743954 C86.5,41.7118666 89.469839,38.6380762 93.2008397,38.4807147 L93.4400011,38.4746526 L97.635,38.438 L97.5103131,38.1818604 L97.2431088,37.6508721 L97.1153043,37.4049195 L97.1153043,37.4049195 L96.8714669,36.9523335 L96.7555046,36.7457944 C88.9780597,23.1009896 74.4923865,14.5 58.5,14.5 C34.199471,14.5 14.5,34.199471 14.5,58.5 C14.5,82.800529 34.199471,102.5 58.5,102.5 C77.1564229,102.5 93.5025706,90.6012017 100.067108,72.970691 C101.776762,68.3790373 102.446034,64.2578319 102.49684,59.1444466 L102.5,58.5 L110.5,58.5 C110.5,64.8083363 109.706315,70.0092726 107.564278,75.7621843 C99.8574462,96.4605796 80.5705876,110.5 58.5,110.5 C29.781193,110.5 6.5,87.218807 6.5,58.5 C6.5,29.781193 29.781193,6.5 58.5,6.5 C77.3956717,6.5 94.5191734,16.6672224 103.705743,32.7842061 L103.865313,33.0682791 L104.193796,33.6774869 L104.362787,34.0027187 L104.362787,34.0027187 L104.710464,34.6946807 C104.828538,34.9345889 104.948809,35.1837728 105.071331,35.4422971 L105.638047,36.6689219 L105.638047,36.6689219 L106.236203,38.0229507 L106.236203,38.0229507 C106.556181,38.7593269 106.724775,39.5523161 106.73245,40.354815 C106.763422,43.593045 104.223237,46.2566195 101.011293,46.4056828 L100.786138,46.4119784 L94.5,46.465 L94.5,50.5 C94.5,57.0254567 89.2914556,62.3343928 82.8049748,62.4962001 L82.5,62.5 L74.5,62.5 C67.9745433,62.5 62.6656072,57.2914556 62.5037999,50.8049748 L62.5,50.5 L62.5,46.5 L54.5,46.5 L54.5,49.5 C54.5,56.5771346 48.8448082,62.3334283 41.8068562,62.4964496 L41.5,62.5 L34.5,62.5 C27.9745433,62.5 22.6656072,57.2914556 22.5037999,50.8049748 L22.5,50.5 L22.5,45.5 C22.5,41.7145483 25.5047834,38.6309013 29.2593502,38.504059 L29.5,38.5 L42.5,38.5 L42.5,46.5 L30.5,46.5 L30.5,50.5 C30.5,52.6421954 32.1839685,54.3910789 34.3003597,54.4951047 L34.5,54.5 L41.5,54.5 C44.1887547,54.5 46.3818181,52.3776933 46.4953805,49.7168896 L46.5,49.5 L46.5,38.5 L82.5,38.5 Z M88.1,71.3 L92.9,77.7 C81.5773267,86.192005 70.08934,90.5 58.5,90.5 C47.1176125,90.5 35.8329909,86.3444882 24.7067296,78.1509256 L24.1,77.7 L28.9,71.3 C38.91066,78.807995 48.7560067,82.5 58.5,82.5 C68.2439933,82.5 78.08934,78.807995 88.1,71.3 Z" id="Shape" fill="#000000" fill-rule="nonzero"></path>
  </g>
</svg>
