<?xml version="1.0" encoding="UTF-8"?><svg viewBox="0 0 116 116" version="1.1" xmlns="http://www.w3.org/2000/svg" xmlns:xlink="http://www.w3.org/1999/xlink">
  <title>crop</title>
  <g id="crop" stroke="none" stroke-width="1" fill="none" fill-rule="evenodd">
    <path d="M90.5,94.5 L90.5,106.5 L82.5,106.5 L82.5,94.5 L90.5,94.5 Z M34.5,10.5 L34.5,78.5 C34.5,80.6421954 36.1839685,82.3910789 38.3003597,82.4951047 L38.5,82.5 L106.5,82.5 L106.5,90.5 L38.5,90.5 C31.9745433,90.5 26.6656072,85.2914556 26.5037999,78.8049748 L26.5,78.5 L26.5,10.5 L34.5,10.5 Z M78.5,26.5 C85.0254567,26.5 90.3343928,31.7085444 90.4962001,38.1950252 L90.5,38.5 L90.5,78.5 L82.5,78.5 L82.5,38.5 C82.5,36.3578046 80.8160315,34.6089211 78.6996403,34.5048953 L78.5,34.5 L38,34.5 L38,26.5 L78.5,26.5 Z M22.5,26.5 L22.5,34.5 L10.5,34.5 L10.5,26.5 L22.5,26.5 Z" id="Shape" fill="#000000" fill-rule="nonzero"></path>
  </g>
</svg>
