<?xml version="1.0" encoding="UTF-8"?><svg viewBox="0 0 116 116" version="1.1" xmlns="http://www.w3.org/2000/svg" xmlns:xlink="http://www.w3.org/1999/xlink">
  <title>cube</title>
  <g id="cube" stroke="none" stroke-width="1" fill="none" fill-rule="evenodd" transform="translate(0.000000, 0.000000)">
    <path d="M53.1334369,4.71114562 C56.4027884,3.07646987 60.2323094,3.02373839 63.5378009,4.55295119 L63.8665631,4.71114562 L104.711146,25.1334369 C105.87231,25.7140191 106.813845,26.655554 107.394427,27.8167184 C108.841899,30.7116622 107.729442,34.2173442 104.915056,35.7597639 L104.711146,35.8665631 L64.7111456,55.8665631 C63.4205398,56.5118661 62.5826565,57.7988782 62.5057847,59.2287777 L62.5,59.4442719 L62.5,103.966 L100.318482,84.6642252 C101.593551,84.0134087 102.418618,82.7341218 102.494305,81.315294 L102.5,81.1014844 L102.5,44.7461264 L110.5,44.7461264 L110.5,81.1014844 C110.5,85.5035301 108.090866,89.5428126 104.239792,91.6397609 L103.955447,91.7897068 L64.682344,111.835353 C61.238961,113.592913 57.0227636,112.226284 55.2652036,108.782901 C54.8125326,107.896035 54.5548545,106.923969 54.5078456,105.931898 L54.5,105.600557 L54.5,59.4442719 C54.5,55.004711 56.9499742,50.9373239 60.8522467,48.8563841 L61.1334369,48.7111456 L97.556,30.5 L60.2888544,11.8665631 C59.2331263,11.3386991 58.0021629,11.3057076 56.9245304,11.7675886 L56.7111456,11.8665631 L19.436,30.503 L52.2049758,46.9220384 L48.6212923,54.0744654 L14.5,36.978 L14.5,81.5557281 C14.5,82.9986693 15.2764259,84.3236642 16.5209887,85.031891 L16.7111456,85.1334369 L47.0629193,100.309324 L43.4852105,107.464741 L13.1334369,92.2888544 C9.16257289,90.3034224 6.62025302,86.293108 6.50415316,81.8721848 L6.5,81.5557281 L6.5,33.7390917 C6.5,32.8059281 6.71765934,31.8856271 7.1356797,31.0513291 C7.61897608,30.0867511 8.32706611,29.3091943 9.16458995,28.7503569 L9.246,28.697 L9.3110821,28.5031715 C9.78676947,27.1562574 10.7410283,25.9765876 12.0812121,25.242102 L12.2851225,25.1353028 L53.1334369,4.71114562 Z" id="Path" fill="#000000" fill-rule="nonzero"></path>
  </g>
</svg>
