<?xml version="1.0" encoding="UTF-8"?><svg viewBox="0 0 116 116" version="1.1" xmlns="http://www.w3.org/2000/svg" xmlns:xlink="http://www.w3.org/1999/xlink">
  <title>curly-bracers-off</title>
  <g id="curly-bracers-off" stroke="none" stroke-width="1" fill="none" fill-rule="evenodd">
    <path d="M13.3284271,7.67157288 L109.328427,103.671573 L103.671573,109.328427 L84.4985729,90.1545729 L84.4989892,90.5 L84.4951894,90.8049748 C84.3358713,97.1916636 79.1865796,102.339435 72.799286,102.496316 L72.4989892,102.5 L72.4989892,94.5 L72.6986296,94.4951047 C74.7467501,94.3944345 76.3898961,92.753315 76.4937743,90.7060394 L76.4989892,90.5 L76.4985729,82.1545729 L38.4995729,44.1555729 L38.5,50.6339377 C38.5,53.7645415 37.1321129,56.6759822 34.85309,58.66988 L34.645,58.845 L34.8055725,58.9931596 C37.0563754,61.1279763 38.4078633,64.0916575 38.4954616,67.2608364 L38.5,67.5893899 L38.5,90.5 C38.5,92.6421954 40.1839685,94.3910789 42.3003597,94.4951047 L42.5,94.5 L42.5,102.5 C35.9745433,102.5 30.6656072,97.2914556 30.5037999,90.8049748 L30.5,90.5 L30.5,67.5893899 C30.5,66.2726662 29.8271715,65.0529308 28.7263468,64.3488097 L28.538955,64.2363021 L26.2875569,62.9698907 C25.3409213,62.4374082 24.5934137,61.6111639 24.1580764,60.6161072 C23.0811601,58.1545842 24.1441634,55.297111 26.5326754,54.1249598 L26.7347689,54.0312263 L28.8967247,53.0853707 C29.8133826,52.6843328 30.4247691,51.8083689 30.4935251,50.8204049 L30.5,50.6339377 L30.4995729,36.1555729 L7.67157288,13.3284271 L13.3284271,7.67157288 Z M72.4989892,14.5 L72.803964,14.5037999 C79.1906528,14.6631179 84.3384239,19.8124096 84.4953052,26.1997032 L84.4989892,26.5 L84.4989892,50.6339377 L84.5054641,50.8204049 C84.5699228,51.7466211 85.111303,52.5743998 85.9340266,53.0046991 L86.1022646,53.0853707 L88.2642203,54.0312263 L88.4663139,54.1249598 C90.8548259,55.297111 91.9178292,58.1545842 90.8409128,60.6161072 C90.4418537,61.5282425 89.7804846,62.2985285 88.9438773,62.8307223 L88.7114324,62.9698907 L86.4600342,64.2363021 L86.2726425,64.3488097 C85.2365721,65.0115119 84.5796265,66.130952 84.5059238,67.3581189 L84.4989892,67.5893899 L76.4989892,67.5893899 L76.5035277,67.2608364 C76.5878816,64.2090345 77.8442373,61.3477901 79.947047,59.2337407 L80.1934168,58.9931596 L80.3533789,58.846 L80.1458992,58.66988 C77.94827,56.7471928 76.5978576,53.9713312 76.5042027,50.9684891 L76.4989892,50.6339377 L76.4989892,26.5 L76.4940939,26.3003597 C76.3934238,24.2522392 74.7523042,22.6090931 72.7050286,22.5052149 L72.4989892,22.5 L72.4989892,14.5 Z" id="Shape" fill="#000000" fill-rule="nonzero"></path>
  </g>
</svg>
