<?xml version="1.0" encoding="UTF-8"?><svg viewBox="0 0 116 116" version="1.1" xmlns="http://www.w3.org/2000/svg" xmlns:xlink="http://www.w3.org/1999/xlink">
  <title>curly-bracers</title>
  <g id="curly-bracers" stroke="none" stroke-width="1" fill="none" fill-rule="evenodd">
    <path d="M42.5,14.5 L42.5,22.5 C40.3578046,22.5 38.6089211,24.1839685 38.5048953,26.3003597 L38.5,26.5 L38.5,50.6339377 C38.5,53.7645415 37.1321129,56.6759822 34.85309,58.66988 L34.645,58.845 L34.8055725,58.9931596 C37.0563754,61.1279763 38.4078633,64.0916575 38.4954616,67.2608364 L38.5,67.5893899 L38.5,90.5 C38.5,92.6421954 40.1839685,94.3910789 42.3003597,94.4951047 L42.5,94.5 L42.5,102.5 C35.9745433,102.5 30.6656072,97.2914556 30.5037999,90.8049748 L30.5,90.5 L30.5,67.5893899 C30.5,66.2726662 29.8271715,65.0529308 28.7263468,64.3488097 L28.538955,64.2363021 L26.2875569,62.9698907 C25.3409213,62.4374082 24.5934137,61.6111639 24.1580764,60.6161072 C23.0811601,58.1545842 24.1441634,55.297111 26.5326754,54.1249598 L26.7347689,54.0312263 L28.8967247,53.0853707 C29.8133826,52.6843328 30.4247691,51.8083689 30.4935251,50.8204049 L30.5,50.6339377 L30.5,26.5 C30.5,19.9745433 35.7085444,14.6656072 42.1950252,14.5037999 L42.5,14.5 Z M73.7375996,14.5 L73.7375996,22.5 C75.879795,22.5 77.6286785,24.1839685 77.7327043,26.3003597 L77.7375996,26.5 L77.7375996,50.6339377 C77.7375996,53.7645415 79.1054867,56.6759822 81.3845096,58.66988 L81.5925996,58.845 L81.4320271,58.9931596 C79.1812242,61.1279763 77.8297363,64.0916575 77.742138,67.2608364 L77.7375996,67.5893899 L77.7375996,90.5 C77.7375996,92.6421954 76.0536311,94.3910789 73.9372399,94.4951047 L73.7375996,94.5 L73.7375996,102.5 C80.2630563,102.5 85.5719924,97.2914556 85.7337997,90.8049748 L85.7375996,90.5 L85.7375996,67.5893899 C85.7375996,66.2726662 86.4104281,65.0529308 87.5112528,64.3488097 L87.6986446,64.2363021 L89.9500427,62.9698907 C90.8966783,62.4374082 91.6441859,61.6111639 92.0795232,60.6161072 C93.1564395,58.1545842 92.0934362,55.297111 89.7049242,54.1249598 L89.5028307,54.0312263 L87.3408749,53.0853707 C86.424217,52.6843328 85.8128305,51.8083689 85.7440744,50.8204049 L85.7375996,50.6339377 L85.7375996,26.5 C85.7375996,19.9745433 80.5290552,14.6656072 74.0425744,14.5037999 L73.7375996,14.5 Z" id="Shape" fill="#000000" fill-rule="nonzero"></path>
  </g>
</svg>
