<?xml version="1.0" encoding="UTF-8"?><svg viewBox="0 0 116 116" version="1.1" xmlns="http://www.w3.org/2000/svg" xmlns:xlink="http://www.w3.org/1999/xlink">
  <title>cursive-f</title>
  <g id="cursive-f" stroke="none" stroke-width="1" fill="none" fill-rule="evenodd">
    <path d="M83,6.5 C93.5463656,6.5 102.313663,15.5410068 102.497069,26.1605514 L102.5,26.5 L94.5,26.5 C94.5,20.0767193 89.1605879,14.5 83,14.5 C77.7068985,14.5 73.744629,18.0396847 70.4605123,25.6868717 L70.1049038,26.5374318 L69.8177061,27.2574698 L69.4908881,28.1085152 L69.2786912,28.6801867 L69.0707125,29.2565353 L68.8666714,29.838616 L68.5673793,30.7247923 L68.3719551,31.3258186 L68.0842734,32.2453583 L67.8957129,32.8719235 L67.709407,33.5105504 L67.4335618,34.4934143 L67.2516652,35.166811 L66.981119,36.2067745 L66.8018784,36.9215343 L66.4448312,38.4072832 L66.0878261,39.9750372 L65.8187498,41.2097456 L65.5474882,42.4988896 L65.3649655,43.3903192 L65.0879578,44.7781014 L64.6153441,47.2348969 L64.2248879,49.3392705 L63.7176793,52.1572553 L63.305,54.5 L83,54.5 L83,62.5 L61.935,62.5 L61.6270613,64.3059886 L61.0815801,67.4083725 L60.5617603,70.2804118 L60.1610584,72.4245715 L59.7710847,74.4425271 L59.4841221,75.8788449 L59.2007025,77.2534552 L59.013197,78.1375446 L58.7333092,79.4181491 L58.4541167,80.6476544 L58.1745517,81.8300385 L57.9874408,82.5940806 L57.7993733,83.3401267 L57.6100329,84.0693554 L57.4191031,84.7829455 L57.1290363,85.8265866 L56.8336136,86.841671 L56.6331624,87.5044935 L56.3264405,88.4808235 L56.1174677,89.1214931 L55.7964802,90.0701189 L55.5770082,90.6960026 L55.3592582,91.3003049 C55.1391688,91.90315 54.9119158,92.5021638 54.6761942,93.1022087 C50.2869026,104.275437 43.8694849,110.5 34.5,110.5 C23.4076229,110.5 14.6834053,101.891328 14.5028544,90.8494912 L14.5,90.5 L22.5,90.5 C22.5,97.290861 27.709139,102.5 34.5,102.5 C39.728478,102.5 43.6348616,98.8858845 46.8844515,91.034556 L47.2301389,90.1771 L47.6543278,89.0697422 L48.0611675,87.9495921 L48.3562265,87.0960769 L48.6436777,86.2271717 L48.924443,85.3393644 L49.1994444,84.4291434 L49.3800317,83.8081429 L49.6474751,82.8527613 L49.9116129,81.8656007 L50.1733672,80.8431494 L50.347001,80.1401749 L50.6934123,78.6783269 L51.0405029,77.1350096 L51.3025812,75.9190498 L51.5671926,74.6490692 L51.8352592,73.3215558 L52.2922187,70.9716446 L52.5740059,69.4735413 L53.1590086,66.2625941 L53.818,62.5 L46.5,62.5 L46.5,54.5 L55.187,54.5 L55.857341,50.6629827 L56.3775428,47.7733979 L56.7788895,45.6114526 L57.072823,44.0715783 L57.3618093,42.597524 L57.6468545,41.1855909 L57.9289652,39.8320805 L58.1159057,38.9603707 L58.3953619,37.696012 L58.6745672,36.4802126 L58.9545279,35.3092739 L59.2362506,34.1794971 L59.5207415,33.0871836 L59.712437,32.3779611 L60.003778,31.339867 L60.2009722,30.663366 L60.5019589,29.6692172 L60.7065153,29.0185883 L61.0199432,28.0581106 L61.2337255,27.4265044 L61.45172,26.8005893 L61.787262,25.8699905 L62.1339587,24.9460324 L62.371784,24.3319231 L62.4928166,24.0250163 C66.9583006,12.7684791 73.4902983,6.5 83,6.5 Z" id="Path" fill="#000000" fill-rule="nonzero"></path>
  </g>
</svg>
