<?xml version="1.0" encoding="UTF-8"?><svg viewBox="0 0 116 116" version="1.1" xmlns="http://www.w3.org/2000/svg" xmlns:xlink="http://www.w3.org/1999/xlink">
  <title>dbl-arrow-loop-vert</title>
  <g id="dbl-arrow-loop-vert" stroke="none" stroke-width="1" fill="none" fill-rule="evenodd">
    <path d="M14.5054245,57.8060567 L22.505162,57.8708658 L22.4999344,58.4999344 C22.4999344,78.3821854 38.6176834,94.4999344 58.4999344,94.4999344 C67.9292392,94.4999344 76.7740367,90.8635221 83.4306114,84.470436 L83.8050508,84.105625 L89.4286421,89.7955478 C81.2484598,97.880368 70.2341766,102.499934 58.4999344,102.499934 C34.4424107,102.499934 14.8943839,83.1924828 14.5059565,59.1961127 L14.5000656,58.4675298 L14.5054245,57.8060567 Z M109.061356,50.2884998 L115.810648,54.5835038 L103.497971,73.9319962 C101.718922,76.7276445 98.0103971,77.5517611 95.2147488,75.7727122 C94.5561846,75.3536258 93.9865296,74.8105795 93.53694,74.1747294 L93.3740329,73.9319962 L81.0613558,54.5835038 L87.8106477,50.2884998 L98.4360018,66.9850018 L109.061356,50.2884998 Z M21.6572547,41.2272878 C22.315819,41.6463742 22.885474,42.1894205 23.3350636,42.8252706 L23.4979707,43.0680038 L35.8106477,62.4164962 L29.0613558,66.7115002 L18.4360018,50.0149982 L7.81064774,66.7115002 L1.06135584,62.4164962 L13.3740329,43.0680038 C15.1530817,40.2723555 18.8616065,39.4482389 21.6572547,41.2272878 Z M58.4999344,14.4999344 C82.8004634,14.4999344 102.499934,34.1994054 102.499934,58.4999344 L94.4999344,58.4999344 C94.4999344,38.6176834 78.3821854,22.4999344 58.4999344,22.4999344 C48.987881,22.4999344 40.0717269,26.2009128 33.3987501,32.6942334 L33.0234412,33.064756 L27.36203,27.4124623 C35.5598439,19.201425 46.6625973,14.4999344 58.4999344,14.4999344 Z" id="Shape" fill="#000000" fill-rule="nonzero"></path>
  </g>
</svg>
