<?xml version="1.0" encoding="UTF-8"?><svg viewBox="0 0 116 116" version="1.1" xmlns="http://www.w3.org/2000/svg" xmlns:xlink="http://www.w3.org/1999/xlink">
  <title>descending-sort</title>
  <g id="descending-sort" stroke="none" stroke-width="1" fill="none" fill-rule="evenodd">
    <path d="M106.5,18.5 L106.5,26.5 L18.5,26.5 L18.3003597,26.5048953 C16.1839685,26.6089211 14.5,28.3578046 14.5,30.5 C14.5,32.6421954 16.1839685,34.3910789 18.3003597,34.4951047 L18.5,34.5 L66.5,34.5 L66.8049748,34.5037999 C73.2914556,34.6656072 78.5,39.9745433 78.5,46.5 C78.5,53.0254567 73.2914556,58.3343928 66.8049748,58.4962001 L66.5,58.5 L18.5,58.5 L18.3003597,58.5048953 C16.1839685,58.6089211 14.5,60.3578046 14.5,62.5 C14.5,64.6421954 16.1839685,66.3910789 18.3003597,66.4951047 L18.5,66.5 L34.5,66.5 L34.8049748,66.5037999 C41.2914556,66.6656072 46.5,71.9745433 46.5,78.5 C46.5,85.0254567 41.2914556,90.3343928 34.8049748,90.4962001 L34.5,90.5 L18.5,90.5 L18.3003597,90.5048953 C16.2522392,90.6055655 14.6090931,92.246685 14.5052149,94.2939606 L14.5,94.5 L14.5,102.5 L6.5,102.5 L6.5,94.5 L6.50379986,94.1950252 C6.6631179,87.8083364 11.8124096,82.6605654 18.1997032,82.5036841 L18.5,82.5 L34.5,82.5 L34.6996403,82.4951047 C36.8160315,82.3910789 38.5,80.6421954 38.5,78.5 C38.5,76.3578046 36.8160315,74.6089211 34.6996403,74.5048953 L34.5,74.5 L18.5,74.5 L18.1950252,74.4962001 C11.7085444,74.3343928 6.5,69.0254567 6.5,62.5 C6.5,55.9745433 11.7085444,50.6656072 18.1950252,50.5037999 L18.5,50.5 L66.5,50.5 L66.6996403,50.4951047 C68.8160315,50.3910789 70.5,48.6421954 70.5,46.5 C70.5,44.3578046 68.8160315,42.6089211 66.6996403,42.5048953 L66.5,42.5 L18.5,42.5 L18.1950252,42.4962001 C11.7085444,42.3343928 6.5,37.0254567 6.5,30.5 C6.5,23.9745433 11.7085444,18.6656072 18.1950252,18.5037999 L18.5,18.5 L106.5,18.5 Z M103.171799,64.2811992 L109.828201,68.7188008 L95.4923018,90.2226499 C93.654187,92.979822 89.928971,93.7248652 87.1717988,91.8867505 C86.5950743,91.5022675 86.0899633,91.0211867 85.6783271,90.4653693 L85.5076982,90.2226499 L71.1717988,68.7188008 L77.8282012,64.2811992 L90.5,83.288 L103.171799,64.2811992 Z M94.5,42.5 L94.5,74.5 L86.5,74.5 L86.5,42.5 L94.5,42.5 Z" id="Shape" fill="#000000" fill-rule="nonzero"></path>
  </g>
</svg>
