<?xml version="1.0" encoding="UTF-8"?><svg viewBox="0 0 116 116" version="1.1" xmlns="http://www.w3.org/2000/svg" xmlns:xlink="http://www.w3.org/1999/xlink">
  <title>dice</title>
  <g id="dice" stroke="none" stroke-width="1" fill="none" fill-rule="evenodd">
    <path d="M90.5,14.5 C97.0254567,14.5 102.334393,19.7085444 102.4962,26.1950252 L102.5,26.5 L102.5,90.5 C102.5,97.0254567 97.2914556,102.334393 90.8049748,102.4962 L90.5,102.5 L42.5,102.5 L42.5,94.5 L90.5,94.5 C92.6421954,94.5 94.3910789,92.8160315 94.4951047,90.6996403 L94.5,90.5 L94.5,26.5 C94.5,24.3578046 92.8160315,22.6089211 90.6996403,22.5048953 L90.5,22.5 L26.5,22.5 C24.3578046,22.5 22.6089211,24.1839685 22.5048953,26.3003597 L22.5,26.5 L22.5,90.5 C22.5,92.6421954 24.1839685,94.3910789 26.3003597,94.4951047 L26.5,94.5 L26.5,102.5 C19.9745433,102.5 14.6656072,97.2914556 14.5037999,90.8049748 L14.5,90.5 L14.5,26.5 C14.5,19.9745433 19.7085444,14.6656072 26.1950252,14.5037999 L26.5,14.5 L90.5,14.5 Z M74.5,62.5 C81.127417,62.5 86.5,67.872583 86.5,74.5 C86.5,81.127417 81.127417,86.5 74.5,86.5 C67.9745433,86.5 62.6656072,81.2914556 62.5037999,74.8049748 L62.5,74.5 L70.5,74.5 C70.5,76.709139 72.290861,78.5 74.5,78.5 C76.709139,78.5 78.5,76.709139 78.5,74.5 C78.5,72.3578046 76.8160315,70.6089211 74.6996403,70.5048953 L74.5,70.5 L74.5,62.5 Z M42.5,30.5 C49.0254567,30.5 54.3343928,35.7085444 54.4962001,42.1950252 L54.5,42.5 L46.5,42.5 C46.5,40.290861 44.709139,38.5 42.5,38.5 C40.290861,38.5 38.5,40.290861 38.5,42.5 C38.5,44.6421954 40.1839685,46.3910789 42.3003597,46.4951047 L42.5,46.5 L58.5,46.5 C65.127417,46.5 70.5,51.872583 70.5,58.5 C70.5,65.127417 65.127417,70.5 58.5,70.5 C51.9745433,70.5 46.6656072,65.2914556 46.5037999,58.8049748 L46.5,58.5 L54.5,58.5 C54.5,60.709139 56.290861,62.5 58.5,62.5 C60.709139,62.5 62.5,60.709139 62.5,58.5 C62.5,56.3578046 60.8160315,54.6089211 58.6996403,54.5048953 L58.5,54.5 L42.5,54.5 C35.872583,54.5 30.5,49.127417 30.5,42.5 C30.5,35.872583 35.872583,30.5 42.5,30.5 Z" id="Shape" fill="#000000" fill-rule="nonzero"></path>
  </g>
</svg>
