<?xml version="1.0" encoding="UTF-8"?><svg viewBox="0 0 116 116" version="1.1" xmlns="http://www.w3.org/2000/svg" xmlns:xlink="http://www.w3.org/1999/xlink">
  <title>drop</title>
  <g id="drop" stroke="none" stroke-width="1" fill="none" fill-rule="evenodd" transform="translate(0.000000, 0.000000)">
    <path d="M53.8666967,9.76457935 C56.7646112,7.20567837 61.1882333,7.48050205 63.7471407,10.3784166 L64.4371957,11.1618848 L65.7966371,12.7173819 C66.0209139,12.9753617 66.2440421,13.2327071 66.4660217,13.4894188 L67.784114,15.0220898 L69.0746308,16.5395841 L70.3375647,18.041934 C70.5457547,18.2910655 70.7527951,18.5395672 70.9586857,18.78744 L72.1802312,20.2671345 L73.374175,21.7317658 L74.5405098,23.1813665 C75.5009495,24.3831134 76.432622,25.5692373 77.3355077,26.7398226 L78.4051517,28.137072 L79.447153,29.519437 L80.461504,30.8869499 L81.4481973,32.2396434 C82.7453465,34.0333695 83.968722,35.7876635 85.1182438,37.502872 L85.9665364,38.7819552 C94.3109616,51.49961 98.5,62.0235726 98.5,70.5 C98.5,85.6916016 89.9529042,99.3540469 76.687076,106.134867 L76.2575141,106.351209 L72.7017918,99.1848407 C83.5153992,93.8194755 90.5,82.7867308 90.5,70.5 C90.5,66.3152469 89.0715359,61.2153952 86.2071805,55.2327042 L85.7301029,54.2548046 C85.1588256,53.1049053 84.5361397,51.9234694 83.861995,50.7107153 L83.2715533,49.6635471 C82.7690147,48.7845239 82.2402144,47.8895539 81.6851338,46.9787167 L81.0064215,45.8781009 C80.4303138,44.9545826 79.8279186,44.0152289 79.1992176,43.0601195 L78.4321484,41.9064305 C78.3021987,41.7128902 78.1711964,41.518721 78.0391415,41.3239235 L77.2341787,40.1476035 C77.0979125,39.9502952 76.9605933,39.7523599 76.822221,39.5537981 L75.9793488,38.3549159 C75.8367634,38.1538511 75.6931247,37.9521611 75.5484324,37.7498466 L74.6676349,36.528471 L73.761545,35.2921379 C73.4552988,34.8775373 73.1448362,34.460449 72.8301557,34.0408779 L71.8734601,32.7747217 L70.891451,31.4936998 L69.8841215,30.1978428 L68.8514644,28.8871811 L67.7934728,27.5617455 L66.7101396,26.2215665 L65.6014577,24.8666746 L64.4674202,23.4971003 L63.30802,22.1128744 L62.1232501,20.7140274 L60.9131033,19.3005897 L59.6775728,17.872592 L58.5,16.525 L57.3287979,17.8652669 L56.1056183,19.2788403 L54.9073072,20.6781497 L53.7338578,22.0631655 L52.5852633,23.4338582 L51.4615169,24.7901979 C51.2762961,25.0150568 51.0921104,25.2393165 50.9089595,25.4629762 L49.8224724,26.7977311 L48.7608162,28.118059 L47.7239843,29.4239303 L46.7119697,30.7153153 L45.7247656,31.9921845 L44.7623652,33.254508 L43.8247616,34.5022565 L42.9119482,35.7354 L42.0239179,36.9539091 L41.1606641,38.1577541 L40.3221798,39.3469054 C40.1844962,39.5438711 40.0478443,39.7402234 39.9122241,39.9359615 L39.1108814,41.1030166 L38.3342912,42.2553037 C38.2069218,42.4461193 38.0805835,42.6363183 37.9552761,42.8259001 L37.2158019,43.9559798 C37.0946177,44.1430905 36.9744641,44.3295827 36.855341,44.5154558 L36.1529674,45.6232615 L35.475319,46.7161808 C34.2556242,48.7062021 33.1605512,50.6210214 32.1899109,52.4598169 L31.67281,53.4552518 C28.307725,60.0411545 26.5875749,65.6198065 26.5032595,70.1516838 L26.5,70.5 C26.5,87.9963809 40.5417829,102.213128 57.9708215,102.495713 L58.5,102.5 L58.5,110.5 C36.40861,110.5 18.5,92.59139 18.5,70.5 C18.5,62.0235727 22.6890382,51.4996104 31.0334632,38.7819558 L31.8817557,37.5028727 C33.0312775,35.7876642 34.2546529,34.0333702 35.5518021,32.2396442 L36.5384954,30.8869508 L37.5528464,29.5194379 L38.5948476,28.1370729 L39.6644915,26.7398236 C40.5673772,25.5692383 41.4990497,24.3831145 42.4594894,23.1813676 L43.6258241,21.7317669 L44.8197679,20.2671356 L46.0413133,18.7874412 C46.2472039,18.5395684 46.4542443,18.2910666 46.6624343,18.0419352 L47.9253682,16.5395853 L49.2158849,15.0220911 L50.5339772,13.4894201 L51.8796374,11.9415399 C52.3327846,11.4230413 52.7905252,10.9020025 53.2528581,10.378418 C53.4445742,10.1613025 53.6495812,9.9562955 53.8666967,9.76457935 Z" id="Path" fill="#000000" fill-rule="nonzero"></path>
  </g>
</svg>
