<?xml version="1.0" encoding="UTF-8"?><svg viewBox="0 0 116 116" version="1.1" xmlns="http://www.w3.org/2000/svg" xmlns:xlink="http://www.w3.org/1999/xlink">
  <title>duplicate</title>
  <g id="duplicate" stroke="none" stroke-width="1" fill="none" fill-rule="evenodd" transform="translate(0.000000, 0.000000)">
    <path d="M90.5,78.5 C90.5,85.0254567 85.2914556,90.3343928 78.8049748,90.4962001 L78.5,90.5 L22.5,90.5 C15.9745433,90.5 10.6656072,85.2914556 10.5037999,78.8049748 L10.5,78.5 L10.5,22.5 C10.5,15.9745433 15.7085444,10.6656072 22.1950252,10.5037999 L22.5,10.5 L70.5,10.5 L70.5,18.5 L22.5,18.5 C20.3578046,18.5 18.6089211,20.1839685 18.5048953,22.3003597 L18.5,22.5 L18.5,78.5 C18.5,80.6421954 20.1839685,82.3910789 22.3003597,82.4951047 L22.5,82.5 L78.5,82.5 C80.6421954,82.5 82.3910789,80.8160315 82.4951047,78.6996403 L82.5,78.5 L82.5,22.5 C82.5,20.3578046 80.8160315,18.6089211 78.6996403,18.5048953 L78.5,18.5 L78.5,10.5 L78.8049748,10.5037999 C85.1916636,10.6631179 90.3394346,15.8124096 90.4963159,22.1997032 L90.5,22.5 L90.5,26.5 L94.5,26.5 C101.025457,26.5 106.334393,31.7085444 106.4962,38.1950252 L106.5,38.5 L106.5,94.5 C106.5,101.025457 101.291456,106.334393 94.8049748,106.4962 L94.5,106.5 L38.5,106.5 C31.9745433,106.5 26.6656072,101.291456 26.5037999,94.8049748 L26.5,94.5 L34.5,94.5 C34.5,96.6421954 36.1839685,98.3910789 38.3003597,98.4951047 L38.5,98.5 L94.5,98.5 C96.6421954,98.5 98.3910789,96.8160315 98.4951047,94.6996403 L98.5,94.5 L98.5,38.5 C98.5,36.3578046 96.8160315,34.6089211 94.6996403,34.5048953 L94.5,34.5 L90.5,34.5 L90.5,78.5 Z" id="Path" fill="#000000" fill-rule="nonzero"></path>
  </g>
</svg>
