<?xml version="1.0" encoding="UTF-8"?><svg viewBox="0 0 116 116" version="1.1" xmlns="http://www.w3.org/2000/svg" xmlns:xlink="http://www.w3.org/1999/xlink">
  <title>ear-slash</title>
  <g id="ear-slash" stroke="none" stroke-width="1" fill="none" fill-rule="evenodd">
    <path d="M103.671573,7.67157288 L109.328427,13.3284271 L85.9085775,36.7478782 C86.2658173,38.4587701 86.4669028,40.2269953 86.4962488,42.0369688 L86.5,42.5 L86.5,70.5 C86.5,74.8349143 83.0521622,78.3645429 78.7491793,78.4961932 L78.5,78.5 L78.5,82.5 C78.5,93.545695 69.545695,102.5 58.5,102.5 C47.9906365,102.5 39.3744959,94.394149 38.5625479,84.0934165 L13.3284271,109.328427 L7.67157288,103.671573 L45.7729825,65.5701633 L51.4298367,71.2270175 L46.4995729,76.1565729 L46.5,82.5 C46.5,89.127417 51.872583,94.5 58.5,94.5 C65.0254567,94.5 70.3343928,89.2914556 70.4962001,82.8049748 L70.5,82.5 L70.5,78.5 C70.5,74.1650857 73.9478378,70.6354571 78.2508207,70.5038068 L78.5,70.5 L78.5,42.5 C78.5,31.454305 69.545695,22.5 58.5,22.5 C47.5693643,22.5 38.686775,31.2687286 38.5029071,42.1555106 L38.5,42.5 L38.5,50.5 L30.5,50.5 L30.5,42.5 C30.5,27.036027 43.036027,14.5 58.5,14.5 C68.8875895,14.5 77.9540341,20.1564937 82.7871569,28.5573044 L103.671573,7.67157288 Z M58.5,26.5 C67.2313589,26.5 74.3292047,33.493901 74.4969636,42.1851293 L74.5,42.5 L74.5,60.5 L74.4961582,60.7799048 C74.3479317,66.1733292 69.9292399,70.5 64.5,70.5 C63.4456382,70.5 62.5818349,71.3158778 62.5054857,72.3507377 L62.5,72.5 L62.5,82.5 L54.5,82.5 L54.5,72.5 L54.5038418,72.2200952 C54.6520683,66.8266708 59.0707601,62.5 64.5,62.5 C65.5543618,62.5 66.4181651,61.6841222 66.4945143,60.6492623 L66.5,60.5 L66.5,42.5 L66.4961932,42.2508207 C66.3645429,37.9478378 62.8349143,34.5 58.5,34.5 C54.1650857,34.5 50.6354571,37.9478378 50.5038068,42.2508207 L50.5,42.5 L50.5,58.5 L42.5,58.5 L42.5,42.5 L42.5030364,42.1851293 C42.6707953,33.493901 49.7686411,26.5 58.5,26.5 Z" id="Shape" fill="#000000" fill-rule="nonzero"></path>
  </g>
</svg>
