<?xml version="1.0" encoding="UTF-8"?><svg viewBox="0 0 116 116" version="1.1" xmlns="http://www.w3.org/2000/svg" xmlns:xlink="http://www.w3.org/1999/xlink">
  <title>envelope</title>
  <g id="envelope" stroke="none" stroke-width="1" fill="none" fill-rule="evenodd">
    <path d="M17.2636519,21.5377773 L98.0624992,21.9586046 C104.563849,21.9924658 109.835559,27.1916826 109.996227,33.6545827 L110,33.9584418 L110,82 C110,88.5254567 104.791456,93.8343928 98.3049748,93.9962001 L98,94 L18,94 C11.4745433,94 6.16560725,88.7914556 6.00379986,82.3049748 L6,82 L6,42 L14,42 L14,82 C14,84.1421954 15.6839685,85.8910789 17.8003597,85.9951047 L18,86 L98,86 C100.142195,86 101.891079,84.3160315 101.995105,82.1996403 L102,82 L102,33.9584418 C102,31.8241315 100.327947,30.0786711 98.2197195,29.9643929 L98.0208331,29.9584961 L19.635,29.55 L55.186342,65.4706397 C56.6885252,66.9884706 59.1051961,67.0513271 60.6829671,65.6501244 L60.8431204,65.4999495 L95.1715729,31.1715729 L100.828427,36.8284271 L66.4705889,71.1860375 C61.8385879,75.770286 54.4146621,75.8086242 49.735771,71.329741 L49.500254,71.0981083 L12.251867,33.4617173 C10.9458857,32.142132 10.2176195,30.3577802 10.227289,28.5012245 C10.2470046,24.7158241 13.2678077,21.6478687 17.0229843,21.5405829 L17.2636519,21.5377773 Z M31.1715729,63.1715729 L36.8284271,68.8284271 L20.8284271,84.8284271 L15.1715729,79.1715729 L31.1715729,63.1715729 Z M84.8284271,63.1715729 L100.828427,79.1715729 L95.1715729,84.8284271 L79.1715729,68.8284271 L84.8284271,63.1715729 Z" id="Shape" fill="#000000" fill-rule="nonzero"></path>
  </g>
</svg>
