<?xml version="1.0" encoding="UTF-8"?><svg viewBox="0 0 116 116" version="1.1" xmlns="http://www.w3.org/2000/svg" xmlns:xlink="http://www.w3.org/1999/xlink">
  <title>error</title>
  <g id="error" stroke="none" stroke-width="1" fill="none" fill-rule="evenodd">
    <path d="M58,6 C86.718807,6 110,29.281193 110,58 C110,86.718807 86.718807,110 58,110 C44.4101227,110 31.6378401,104.758289 22.0309208,95.5530929 L21.5829238,95.1187012 L27.1858633,89.4084413 C35.3608704,97.4298047 46.3146051,102 58,102 C82.300529,102 102,82.300529 102,58 C102,33.699471 82.300529,14 58,14 C33.699471,14 14,33.699471 14,58 C14,61.7139056 14.459385,65.3618327 15.3555685,68.8844855 L15.428,69.162 L88.5744649,41.2626413 L91.4255351,48.7373587 L10.5106096,79.6006165 L9.12152257,75.7835101 C7.0647745,70.1317217 6,64.1359431 6,58 C6,29.281193 29.281193,6 58,6 Z" id="Path" fill="#000000" fill-rule="nonzero"></path>
  </g>
</svg>
