<?xml version="1.0" encoding="UTF-8"?><svg viewBox="0 0 116 116" version="1.1" xmlns="http://www.w3.org/2000/svg" xmlns:xlink="http://www.w3.org/1999/xlink">
  <title>eye-off</title>
  <g id="eye-off" stroke="none" stroke-width="1" fill="none" fill-rule="evenodd">
    <path d="M12.8284271,7.17157288 L108.828427,103.171573 L103.171573,108.828427 L7.17157288,12.8284271 L12.8284271,7.17157288 Z M29.3007036,40.3254626 L33.7383052,46.9818649 L17.211,58 L38.5854931,72.2495937 C39.4484482,72.8248971 40.3336043,73.3600302 41.2386778,73.8541411 C39.2336872,69.5569788 38.0642161,64.3277987 38.0025672,58.4872793 L38,58 C38,56.1412398 38.2546836,54.3128548 38.7513379,52.5545426 L38.9075806,52.0291909 L46.5434798,54.4152007 C46.2295607,55.4198297 46.0488983,56.4668555 46.0086377,57.5390148 L46,58 C46,70.3378316 51.6566765,78.0259409 58.0704221,78.1283437 C60.754018,78.1711904 63.3289356,77.9093879 65.8204327,77.347303 L66.4415837,77.2005285 L68.3602052,84.9670522 C65.0023514,85.7965676 61.5348412,86.1846767 57.9427092,86.1273242 C51.7780212,86.0288979 46.433919,82.5548105 42.8337423,76.7968098 L40.33807,82.3347791 C38.4298076,81.4746959 36.5824853,80.4741401 34.8093247,79.3382771 L34.1478916,78.9059961 L2.78889745,58 L29.3007036,40.3254626 Z M80.8640616,36.4545963 L81.3638036,36.7732201 L81.8521084,37.0940039 L113.211103,58 L87.6567057,75.0362646 L83.2191041,68.3798622 L98.788,57.999 L77.4145069,43.7504063 C69.1138148,38.2166116 58.9084101,36.5183835 49.3449146,38.9575852 L48.833213,39.0922164 L46.7393416,31.3710959 C58.2919918,28.2381615 70.6666794,30.0511349 80.8640616,36.4545963 Z M58,38 C69.045695,38 78,46.954305 78,58 C78,59.747707 77.7748448,61.4688316 77.3348431,63.1304691 L77.1802327,63.6821 L69.508984,61.4123109 C69.8333224,60.316138 70,59.1714057 70,58 C70,51.372583 64.627417,46 58,46 C57.117133,46 56.2493568,46.0946701 55.4058399,46.2802673 L54.9861455,46.3806259 L52.9847469,38.6350205 C54.6114681,38.2146895 56.2933613,38 58,38 Z" id="Shape" fill="#000000" fill-rule="nonzero"></path>
  </g>
</svg>
