<?xml version="1.0" encoding="UTF-8"?><svg viewBox="0 0 116 116" version="1.1" xmlns="http://www.w3.org/2000/svg" xmlns:xlink="http://www.w3.org/1999/xlink">
  <title>eye-off</title>
  <g id="eye-off" stroke="none" stroke-width="1" fill="none" fill-rule="evenodd">
    <path d="M12.8284271,7.17157288 L68.8314721,63.1727374 L68.8703416,63.0918342 L68.8703416,63.0918342 C69.6110383,61.5141968 70,59.7886091 70,58 C70,51.372583 64.627417,46 58,46 C57.2032789,46 56.4188193,46.0770939 55.6532816,46.2285734 L55.1962829,46.3283657 L53.3363223,38.5475851 C54.8537041,38.1848618 56.416336,38 58,38 C69.045695,38 78,46.954305 78,58 C78,60.9700084 77.3495365,63.8557215 76.1119318,66.4917418 C75.7081368,67.3518 75.2077083,68.1733471 74.614517,68.9566815 L108.828427,103.171573 L103.171573,108.828427 L47.1682237,52.8267393 C46.4606029,54.3044713 46.0623827,55.9174304 46.0067563,57.5924561 L46,58 C46,70.3378316 51.6566765,78.0259409 58.0704221,78.1283437 C61.1297843,78.1771899 64.0487574,77.8301564 66.8650836,77.0927824 L67.4670247,76.9288011 L69.6459371,84.6263553 C65.8895901,85.6896478 61.9957047,86.1920349 57.9427092,86.1273242 C46.6902711,85.9476662 38.1718112,74.5211838 38.0025672,58.4872793 L38,58 C38,54.6052214 38.850056,51.3243984 40.4477974,48.4062238 C40.7411092,47.8705081 41.0207668,47.387835 41.2976347,46.9538225 L38.4228974,44.0795729 L36.056,45.436 L17.211,57.999 L38.5854931,72.2495937 L34.1478916,78.9059961 L2.78889745,58 L31.8360916,38.6352039 L32.5618974,38.2185729 L7.17157288,12.8284271 L12.8284271,7.17157288 Z M80.8665454,36.4561565 L81.3610792,36.7714569 L81.8521084,37.0940039 L113.211103,58 L86.3804488,75.8871025 L81.9428472,69.2307002 L98.788,58 L77.4145069,43.7504063 C68.9346332,38.0971571 58.4725765,36.450892 48.7467423,39.1157703 L48.2355508,39.2600094 L46.004811,31.5773146 C57.7561869,28.1651965 70.4450758,29.9109985 80.8665454,36.4561565 Z" id="Shape" fill="#000000" fill-rule="nonzero"></path>
  </g>
</svg>
