<?xml version="1.0" encoding="UTF-8"?><svg viewBox="0 0 116 116" version="1.1" xmlns="http://www.w3.org/2000/svg" xmlns:xlink="http://www.w3.org/1999/xlink">
  <title>eye</title>
  <g id="eye" stroke="none" stroke-width="1" fill="none" fill-rule="evenodd">
    <path d="M81.4085984,36.8022429 L81.8521084,37.0940039 L113.211103,58 L81.8521084,78.9059961 C74.4641714,83.8312874 66.5823847,86.2652665 57.9427092,86.1273242 C51.9328843,86.0313705 46.7029351,82.7272253 43.1083493,77.2264087 L42.834,76.796 L40.33807,82.3347791 C38.4298076,81.4746959 36.5824853,80.4741401 34.8093247,79.3382771 L34.1478916,78.9059961 L2.78889745,58 L34.1478916,37.0940039 C48.4441818,27.5631438 67.0248714,27.4658901 81.4085984,36.8022429 Z M58,38 C69.045695,38 78,46.954305 78,58 C78,65.0562611 74.3119064,71.4754736 68.4150855,75.0768637 L68.0852214,75.2740281 L64.046462,68.3683476 C67.7063773,66.2278609 70,62.3155444 70,58 C70,51.372583 64.627417,46 58,46 C51.4745433,46 46.1656072,51.2085444 46.0037999,57.6950252 L46,58 C46,70.3378316 51.6566765,78.0259409 58.0704221,78.1283437 C64.8487734,78.2365678 70.9865188,76.4040657 76.8938585,72.5911665 L77.4145069,72.2495937 L98.788,58 L77.4145069,43.7504063 C65.7947307,36.0038888 50.6976786,35.9138131 38.9970355,43.4801789 L38.5854931,43.7504063 L17.211,58 L38.5854931,72.2495937 C39.3893939,72.7855275 40.212561,73.2866009 41.0531485,73.752125 L41.239,73.853 L41.2292787,73.8318238 C39.2296823,69.5390549 38.0641105,64.3177901 38.0025672,58.4872793 L38,58 C38,46.954305 46.954305,38 58,38 Z" id="Shape" fill="#000000" fill-rule="nonzero"></path>
  </g>
</svg>
