<?xml version="1.0" encoding="UTF-8"?><svg viewBox="0 0 116 116" version="1.1" xmlns="http://www.w3.org/2000/svg" xmlns:xlink="http://www.w3.org/1999/xlink">
  <title>eye</title>
  <g id="eye" stroke="none" stroke-width="1" fill="none" fill-rule="evenodd">
    <path d="M58,38 C69.045695,38 78,46.954305 78,58 C78,66.9169434 72.1150898,74.6707072 63.7150517,77.170484 L63.35352,77.2743886 L61.2159906,69.5652403 C66.3655447,68.1374142 70,63.426339 70,58 C70,51.372583 64.627417,46 58,46 C51.4745433,46 46.1656072,51.2085444 46.0037999,57.6950252 L46,58 C46,70.3378316 51.6566765,78.0259409 58.0704221,78.1283437 C64.8487734,78.2365678 70.9865188,76.4040657 76.8938585,72.5911665 L77.4145069,72.2495937 L98.788,58 L77.4145069,43.7504063 C65.7947307,36.0038888 50.6976786,35.9138131 38.9970355,43.4801789 L38.5854931,43.7504063 L17.211,58 L38.5854931,72.2495937 L34.1478916,78.9059961 L2.78889745,58 L34.1478916,37.0940039 C48.4441818,27.5631438 67.0248714,27.4658901 81.4085984,36.8022429 L81.8521084,37.0940039 L113.211103,58 L81.8521084,78.9059961 C74.4641714,83.8312874 66.5823847,86.2652665 57.9427092,86.1273242 C46.6902711,85.9476662 38.1718112,74.5211838 38.0025672,58.4872793 L38,58 C38,46.954305 46.954305,38 58,38 Z" id="Path" fill="#000000" fill-rule="nonzero"></path>
  </g>
</svg>
