<?xml version="1.0" encoding="UTF-8"?><svg viewBox="0 0 116 116" version="1.1" xmlns="http://www.w3.org/2000/svg" xmlns:xlink="http://www.w3.org/1999/xlink">
  <title>eyedropper</title>
  <g id="eyedropper" stroke="none" stroke-width="1" fill="none" fill-rule="evenodd">
    <path d="M69.6715729,53.6715729 L75.3284271,59.3284271 L37.5644951,97.0923591 C35.7672225,98.8896317 33.5993437,100.269837 31.2145619,101.13798 L30.7649111,101.294733 C29.4964528,101.717553 28.3342028,102.405768 27.3548601,103.311978 L27.0923591,103.564495 L25.3284271,105.328427 C22.1174671,108.539387 17.7971386,110.385924 13.2683071,110.494887 L12.8431458,110.5 L6.5,110.5 L6.5,104.156854 C6.5,99.6158711 8.24923495,95.2552388 11.3745541,91.975823 L11.6715729,91.6715729 L13.4355049,89.9076409 C14.3809578,88.9621879 15.1127264,87.826855 15.583408,86.5783412 L15.7052668,86.2350889 C16.5090315,83.8237948 17.8307949,81.619797 19.575563,79.776799 L19.9076409,79.4355049 L62.843,36.5 L60.6715729,34.3284271 L66.3284271,28.6715729 L89.3284271,51.6715729 C89.975469,52.3186147 91.024531,52.3186147 91.6715729,51.6715729 C92.2805534,51.0625923 92.3163758,50.097497 91.77904,49.4466205 L91.6715729,49.3284271 L87.1216993,44.7785536 C86.7491842,44.4060385 86.4143761,43.9976382 86.1221512,43.5593009 C83.7203479,39.956596 84.6263645,35.1142785 88.1236037,32.6153351 L88.340952,32.465297 L98.8676247,25.4475151 C99.1566546,25.2548286 99.4259447,25.0340635 99.6715729,24.7884353 C101.731597,22.7284109 101.731597,19.3884515 99.6715729,17.3284271 C99.4259447,17.0827989 99.1566546,16.8620339 98.8676247,16.6693473 C96.5091148,15.0970073 93.3449117,15.6746036 91.6870993,17.9397192 L91.5524849,18.1323753 L84.534703,28.659048 C84.2424782,29.0973853 83.90767,29.5057856 83.5351549,29.8783007 C80.4774328,32.9360228 75.5603076,33.0010807 72.4234619,30.0734744 L72.2214464,29.8783007 L68.1715729,25.8284271 C67.2903516,24.9472058 65.8864969,24.9071503 64.9577635,25.7082606 L64.8284271,25.8284271 L59.1715729,20.1715729 C63.1466768,16.196469 69.5474899,16.125485 73.6092263,19.9586209 L73.8284271,20.1715729 L77.8783007,24.2214464 L84.8960825,13.6947737 C88.9629182,7.59452007 97.2049727,5.94610919 103.305226,10.0129449 C104.032593,10.4978564 104.710284,11.0534296 105.328427,11.6715729 C110.512646,16.8557916 110.512646,25.2610709 105.328427,30.4452896 C104.833913,30.9398042 104.301288,31.3942739 103.735606,31.8045559 L103.305226,32.1039175 L92.7785536,39.1216993 L97.3284271,43.6715729 C101.099663,47.442809 101.099663,53.557191 97.3284271,57.3284271 C93.6270287,61.0298256 87.6684641,61.09837 83.8834669,57.5340604 L83.6715729,57.3284271 L68.5,42.157 L25.5644951,85.0923591 C24.6190422,86.0378121 23.8872736,87.173145 23.416592,88.4216588 L23.2947332,88.7649111 C22.4909685,91.1762052 21.1692051,93.380203 19.424437,95.223201 L19.0923591,95.5644951 L17.3284271,97.3284271 C15.9898534,98.6670008 15.0848321,100.358082 14.7037409,102.183479 L14.676,102.323 L14.8165208,102.296259 C16.5345417,101.937585 18.1335837,101.114807 19.4317392,99.9032728 L19.6715729,99.6715729 L21.4355049,97.9076409 C23.2327775,96.1103683 25.4006563,94.7301633 27.7854381,93.8620198 L28.2350889,93.7052668 C29.5035472,93.2824474 30.6657972,92.5942316 31.6451399,91.6880221 L31.9076409,91.4355049 L34.843,88.5 L31.6715729,85.3284271 L37.3284271,79.6715729 L40.5,82.843 L69.6715729,53.6715729 Z" id="Path" fill="#000000" fill-rule="nonzero"></path>
  </g>
</svg>
