<?xml version="1.0" encoding="UTF-8"?><svg viewBox="0 0 116 116" version="1.1" xmlns="http://www.w3.org/2000/svg" xmlns:xlink="http://www.w3.org/1999/xlink">
  <title>faceid</title>
  <g id="faceid" stroke="none" stroke-width="1" fill="none" fill-rule="evenodd">
    <path d="M14.5,74.5 L14.5,98.5 C14.5,100.642195 16.1839685,102.391079 18.3003597,102.495105 L18.5,102.5 L42.5,102.5 L42.5,110.5 L18.5,110.5 C11.9745433,110.5 6.66560725,105.291456 6.50379986,98.8049748 L6.5,98.5 L6.5,74.5 L14.5,74.5 Z M110.5,74.5 L110.5,98.5 C110.5,105.025457 105.291456,110.334393 98.8049748,110.4962 L98.5,110.5 L74.5,110.5 L74.5,102.5 L98.5,102.5 C100.642195,102.5 102.391079,100.816032 102.495105,98.6996403 L102.5,98.5 L102.5,74.5 L110.5,74.5 Z M88.3437852,71.1309144 L92.6562148,77.8690856 C83.6272106,83.6476483 72.2178038,86.5 58.5,86.5 C45.0410227,86.5 33.8041549,83.7542688 24.8574027,78.1930494 L24.3437852,77.8690856 L28.6562148,71.1309144 C36.2938772,76.0190184 46.2178038,78.5 58.5,78.5 C70.5315391,78.5 80.3000824,76.1192496 87.873316,71.4271778 L88.3437852,71.1309144 Z M87.5,30.5 C91.2854517,30.5 94.3690987,33.5047834 94.495941,37.2593502 L94.5,37.5 L94.5,46.5 C94.5,50.918278 90.918278,54.5 86.5,54.5 C82.1650857,54.5 78.6354571,51.0521622 78.5038068,46.7491793 L78.5,46.5 L78.5,42.5 L86.5,42.5 L86.5,38.5 L74.5,38.5 C72.3578046,38.5 70.6089211,40.1839685 70.5048953,42.3003597 L70.5,42.5 L70.5,62.5 C70.5,69.0254567 65.2914556,74.3343928 58.8049748,74.4962001 L58.5,74.5 L50.5,74.5 L50.5,66.5 L58.5,66.5 C60.6421954,66.5 62.3910789,64.8160315 62.4951047,62.6996403 L62.5,62.5 L62.5,42.5 C62.5,35.9745433 67.7085444,30.6656072 74.1950252,30.5037999 L74.5,30.5 L87.5,30.5 Z M42.5,6.5 L42.5,14.5 L18.5,14.5 C16.3578046,14.5 14.6089211,16.1839685 14.5048953,18.3003597 L14.5,18.5 L14.5,30.5 L47.5,30.5 C51.2854517,30.5 54.3690987,33.5047834 54.495941,37.2593502 L54.5,37.5 L54.5,46.5 C54.5,50.918278 50.918278,54.5 46.5,54.5 C42.1650857,54.5 38.6354571,51.0521622 38.5038068,46.7491793 L38.5,46.5 L38.5,42.5 L46.5,42.5 L46.5,38.5 L14.5,38.5 L14.5,42.5 L6.5,42.5 L6.5,18.5 C6.5,11.9745433 11.7085444,6.66560725 18.1950252,6.50379986 L18.5,6.5 L42.5,6.5 Z M98.5,6.5 C105.025457,6.5 110.334393,11.7085444 110.4962,18.1950252 L110.5,18.5 L110.5,42.5 L102.5,42.5 L102.5,18.5 C102.5,16.3578046 100.816032,14.6089211 98.6996403,14.5048953 L98.5,14.5 L74.5,14.5 L74.5,6.5 L98.5,6.5 Z" id="Shape" fill="#000000" fill-rule="nonzero"></path>
  </g>
</svg>
