<?xml version="1.0" encoding="UTF-8"?><svg viewBox="0 0 116 116" version="1.1" xmlns="http://www.w3.org/2000/svg" xmlns:xlink="http://www.w3.org/1999/xlink">
  <title>fast-forward</title>
  <g id="fast-forward" stroke="none" stroke-width="1" fill="none" fill-rule="evenodd">
    <path d="M55.8906723,18.9289768 C57.9590222,16.446957 61.6073144,16.0579444 64.1479064,18.0062701 L64.3411064,18.1607555 L106.295141,53.122451 C106.620382,53.3934856 106.920365,53.6934677 107.191399,54.0187092 C109.611349,56.9226489 109.281493,61.2071378 106.489328,63.7097169 L106.295141,63.877549 L64.3411064,98.8392445 C63.2628164,99.7378195 61.903619,100.229917 60.5,100.229917 C57.2616031,100.229917 54.6224282,97.6643419 54.5041385,94.454855 L54.5,94.2299168 L54.5,62.2469996 C54.5,61.1390215 54.04067,60.0844677 53.2379604,59.3308968 L53.0607376,59.1741144 L14.5,27.04 L14.5,89.97 L40.1490854,68.6421014 L45.2641892,74.7931755 L16.3363278,98.848976 C13.7884695,100.967721 10.0054397,100.619857 7.88669438,98.0719982 C7.05034256,97.0662587 6.56721592,95.8168791 6.50651616,94.5153077 L6.5,94.2356704 L6.5,22.7700832 C6.5,19.4563747 9.1862915,16.7699328 12.5,16.7699328 C13.8100444,16.7699328 15.0813926,17.1987547 16.121773,17.9864856 L16.3411064,18.1607555 L58.1822128,53.0283442 C60.8269268,55.2322726 62.3932593,58.4617028 62.4947429,61.8915109 L62.5,62.2469996 L62.5,89.959 L100.251,58.499 L62.5,27.04 L62.5,42.5 L54.5,42.5 L54.5,22.7700832 C54.5,21.3664642 54.9920973,20.0072668 55.8906723,18.9289768 Z" id="Path" fill="#000000" fill-rule="nonzero"></path>
  </g>
</svg>
