<?xml version="1.0" encoding="UTF-8"?><svg viewBox="0 0 116 116" version="1.1" xmlns="http://www.w3.org/2000/svg" xmlns:xlink="http://www.w3.org/1999/xlink">
  <title>fast-reverse</title>
  <g id="fast-reverse" stroke="none" stroke-width="1" fill="none" fill-rule="evenodd">
    <path d="M59.4233534,18.9289768 C57.3550035,16.446957 53.7067114,16.0579444 51.1661194,18.0062701 L50.9729193,18.1607555 L9.01888472,53.122451 C8.69364327,53.3934856 8.39366111,53.6934677 8.12262656,54.0187092 C5.70267685,56.9226489 6.03253264,61.2071378 8.82469765,63.7097169 L9.01888472,63.877549 L50.9729193,98.8392445 C52.0512093,99.7378195 53.4104067,100.229917 54.8140257,100.229917 C58.0524227,100.229917 60.6915975,97.6643419 60.8098872,94.454855 L60.8140257,94.2299168 L60.8140257,62.2469996 C60.8140257,61.1390215 61.2733557,60.0844677 62.0760653,59.3308968 L62.2532881,59.1741144 L100.814026,27.04 L100.814026,89.97 L75.1649403,68.6421014 L70.0498365,74.7931755 L98.9776979,98.848976 C101.525556,100.967721 105.308586,100.619857 107.427331,98.0719982 C108.263683,97.0662587 108.74681,95.8168791 108.80751,94.5153077 L108.814026,94.2356704 L108.814026,22.7700832 C108.814026,19.4563747 106.127734,16.7699328 102.814026,16.7699328 C101.503981,16.7699328 100.232633,17.1987547 99.1922527,17.9864856 L98.9729193,18.1607555 L57.1318129,53.0283442 C54.4870989,55.2322726 52.9207664,58.4617028 52.8192828,61.8915109 L52.8140257,62.2469996 L52.8140257,89.959 L15.0630257,58.499 L52.8140257,27.04 L52.8140257,42.5 L60.8140257,42.5 L60.8140257,22.7700832 C60.8140257,21.3664642 60.3219284,20.0072668 59.4233534,18.9289768 Z" id="Path" fill="#000000" fill-rule="nonzero"></path>
  </g>
</svg>
