<?xml version="1.0" encoding="UTF-8"?><svg viewBox="0 0 116 116" version="1.1" xmlns="http://www.w3.org/2000/svg" xmlns:xlink="http://www.w3.org/1999/xlink">
  <title>file</title>
  <g id="file" stroke="none" stroke-width="1" fill="none" fill-rule="evenodd" transform="translate(0.000000, 0.000000)">
    <path d="M58.5,6.5 L58.5,14.5 L34.5,14.5 C32.3578046,14.5 30.6089211,16.1839685 30.5048953,18.3003597 L30.5,18.5 L30.5,98.5 C30.5,100.642195 32.1839685,102.391079 34.3003597,102.495105 L34.5,102.5 L82.5,102.5 C84.6421954,102.5 86.3910789,100.816032 86.4951047,98.6996403 L86.5,98.5 L86.5,37.8137085 C86.5,36.8286187 86.1366264,35.8809937 85.4841074,35.1500361 L85.3284271,34.9852814 L70.5,20.157 L70.5,26.5 C70.5,28.6421954 72.1839685,30.3910789 74.3003597,30.4951047 L74.5,30.5 L76.3462496,30.5 L76.3462496,38.5 L74.5,38.5 C67.9745433,38.5 62.6656072,33.2914556 62.5037999,26.8049748 L62.5,26.5 L62.5,12.9142136 C62.5,11.5881311 63.0267842,10.3163615 63.9644661,9.37867966 C65.8579172,7.48522854 68.8921583,7.42785124 70.8547482,9.20654774 L71.0355339,9.37867966 L90.9852814,29.3284271 C93.1523684,31.4955142 94.4049967,34.4061181 94.4948113,37.460657 L94.5,37.8137085 L94.5,98.5 C94.5,105.025457 89.2914556,110.334393 82.8049748,110.4962 L82.5,110.5 L34.5,110.5 C27.9745433,110.5 22.6656072,105.291456 22.5037999,98.8049748 L22.5,98.5 L22.5,18.5 C22.5,11.9745433 27.7085444,6.66560725 34.1950252,6.50379986 L34.5,6.5 L58.5,6.5 Z" id="Path" fill="#000000" fill-rule="nonzero"></path>
  </g>
</svg>
