<?xml version="1.0" encoding="UTF-8"?><svg viewBox="0 0 116 116" version="1.1" xmlns="http://www.w3.org/2000/svg" xmlns:xlink="http://www.w3.org/1999/xlink">
  <title>film</title>
  <g id="film" stroke="none" stroke-width="1" fill="none" fill-rule="evenodd">
    <path d="M98.5,6.5 C105.025457,6.5 110.334393,11.7085444 110.4962,18.1950252 L110.5,18.5 L110.5,98.5 C110.5,105.025457 105.291456,110.334393 98.8049748,110.4962 L98.5,110.5 L86.5,110.5 L86.5,96.5 C86.5,93.9394071 88.1040046,91.7534495 90.3620467,90.8920944 L90.5,90.842 L90.5,90.157 L90.3620467,90.1079056 C88.1704176,89.2718845 86.594919,87.1880328 86.5041385,84.7249383 L86.5,84.5 L86.5,80.5 C86.5,77.9394071 88.1040046,75.7534495 90.3620467,74.8920944 L90.5,74.842 L90.5,74.157 L90.3620467,74.1079056 C88.1704176,73.2718845 86.594919,71.1880328 86.5041385,68.7249383 L86.5,68.5 L86.5,64.5 C86.5,61.9394071 88.1040046,59.7534495 90.3620467,58.8920944 L90.5,58.842 L90.5,58.157 L90.3620467,58.1079056 C88.1704176,57.2718845 86.594919,55.1880328 86.5041385,52.7249383 L86.5,52.5 L86.5,48.5 C86.5,45.9394071 88.1040046,43.7534495 90.3620467,42.8920944 L90.5,42.842 L90.5,42.157 L90.3620467,42.1079056 C88.1704176,41.2718845 86.594919,39.1880328 86.5041385,36.7249383 L86.5,36.5 L86.5,32.5 C86.5,29.9394071 88.1040046,27.7534495 90.3620467,26.8920944 L90.5,26.842 L90.5,18.5 L92.5,18.5 C95.7383969,18.5 98.3775718,21.0655749 98.4958615,24.2750617 L98.5,24.5 L98.5,28.5 C98.5,31.0605929 96.8959954,33.2465505 94.6379533,34.1079056 L94.5,34.157 L94.5,34.842 L94.6379533,34.8920944 C96.8295824,35.7281155 98.405081,37.8119672 98.4958615,40.2750617 L98.5,40.5 L98.5,44.5 C98.5,47.0605929 96.8959954,49.2465505 94.6379533,50.1079056 L94.5,50.157 L94.5,50.842 L94.6379533,50.8920944 C96.8295824,51.7281155 98.405081,53.8119672 98.4958615,56.2750617 L98.5,56.5 L98.5,60.5 C98.5,63.0605929 96.8959954,65.2465505 94.6379533,66.1079056 L94.5,66.157 L94.5,66.842 L94.6379533,66.8920944 C96.8295824,67.7281155 98.405081,69.8119672 98.4958615,72.2750617 L98.5,72.5 L98.5,76.5 C98.5,79.0605929 96.8959954,81.2465505 94.6379533,82.1079056 L94.5,82.157 L94.5,82.842 L94.6379533,82.8920944 C96.8295824,83.7281155 98.405081,85.8119672 98.4958615,88.2750617 L98.5,88.5 L98.5,92.5 C98.5,95.0605929 96.8959954,97.2465505 94.6379533,98.1079056 L94.5,98.157 L94.5,102.5 L98.5,102.5 C100.642195,102.5 102.391079,100.816032 102.495105,98.6996403 L102.5,98.5 L102.5,18.5 C102.5,16.3578046 100.816032,14.6089211 98.6996403,14.5048953 L98.5,14.5 L18.5,14.5 C16.3578046,14.5 14.6089211,16.1839685 14.5048953,18.3003597 L14.5,18.5 L14.5,98.5 C14.5,100.642195 16.1839685,102.391079 18.3003597,102.495105 L18.5,102.5 L82.5,102.5 L82.5,110.5 L18.5,110.5 C11.9745433,110.5 6.66560725,105.291456 6.50379986,98.8049748 L6.5,98.5 L6.5,18.5 C6.5,11.9745433 11.7085444,6.66560725 18.1950252,6.50379986 L18.5,6.5 L98.5,6.5 Z M26.5,18.5 L26.5,26.842 L26.6379533,26.8920944 C28.8295824,27.7281155 30.405081,29.8119672 30.4958615,32.2750617 L30.5,32.5 L30.5,36.5 C30.5,39.0605929 28.8959954,41.2465505 26.6379533,42.1079056 L26.5,42.157 L26.5,42.842 L26.6379533,42.8920944 C28.8295824,43.7281155 30.405081,45.8119672 30.4958615,48.2750617 L30.5,48.5 L30.5,52.5 C30.5,55.0605929 28.8959954,57.2465505 26.6379533,58.1079056 L26.5,58.157 L26.5,58.842 L26.6379533,58.8920944 C28.8295824,59.7281155 30.405081,61.8119672 30.4958615,64.2750617 L30.5,64.5 L30.5,68.5 C30.5,71.0605929 28.8959954,73.2465505 26.6379533,74.1079056 L26.5,74.157 L26.5,74.842 L26.6379533,74.8920944 C28.8295824,75.7281155 30.405081,77.8119672 30.4958615,80.2750617 L30.5,80.5 L30.5,84.5 C30.5,87.0605929 28.8959954,89.2465505 26.6379533,90.1079056 L26.5,90.157 L26.5,98.5 L24.5,98.5 C21.2616031,98.5 18.6224282,95.9344251 18.5041385,92.7249383 L18.5,92.5 L18.5,88.5 C18.5,85.9394071 20.1040046,83.7534495 22.3620467,82.8920944 L22.5,82.842 L22.5,82.157 L22.3620467,82.1079056 C20.1704176,81.2718845 18.594919,79.1880328 18.5041385,76.7249383 L18.5,76.5 L18.5,72.5 C18.5,69.9394071 20.1040046,67.7534495 22.3620467,66.8920944 L22.5,66.842 L22.5,66.157 L22.3620467,66.1079056 C20.1704176,65.2718845 18.594919,63.1880328 18.5041385,60.7249383 L18.5,60.5 L18.5,56.5 C18.5,53.9394071 20.1040046,51.7534495 22.3620467,50.8920944 L22.5,50.842 L22.5,50.157 L22.3620467,50.1079056 C20.1704176,49.2718845 18.594919,47.1880328 18.5041385,44.7249383 L18.5,44.5 L18.5,40.5 C18.5,37.9394071 20.1040046,35.7534495 22.3620467,34.8920944 L22.5,34.842 L22.5,34.157 L22.3620467,34.1079056 C20.1704176,33.2718845 18.594919,31.1880328 18.5041385,28.7249383 L18.5,28.5 L18.5,24.5 C18.5,21.2616031 21.0655749,18.6224282 24.2750617,18.5041385 L24.5,18.5 L26.5,18.5 Z M47.1199958,35.6080068 L76.3507071,53.8772014 C77.1545711,54.3796164 77.8279523,55.0653522 78.315671,55.8782166 C79.9799674,58.6520439 79.1415565,62.2302354 76.4573759,63.9850406 L76.257688,64.1101487 L50.5724788,79.5212742 C49.7954018,79.9875205 48.9062197,80.2338096 48,80.2338096 C45.3112453,80.2338096 43.1181819,78.1115029 43.0046195,75.4506992 L43,75.2338096 L43,49 L51,49 L51,69.935 L69.341,58.93 L42.8800042,42.3919932 L47.1199958,35.6080068 Z" id="Shape" fill="#000000" fill-rule="nonzero"></path>
  </g>
</svg>
