<?xml version="1.0" encoding="UTF-8"?><svg viewBox="0 0 116 116" version="1.1" xmlns="http://www.w3.org/2000/svg" xmlns:xlink="http://www.w3.org/1999/xlink">
  <title>filter-off</title>
  <g id="filter-off" stroke="none" stroke-width="1" fill="none" fill-rule="evenodd">
    <path d="M13.3284271,7.67157288 L68.1555729,62.4995729 L68.5,62.5 L68.4995729,62.8435729 L109.328427,103.671573 L103.671573,109.328427 L64.8435729,70.4995729 L42.5,70.5 C40.290861,70.5 38.5,72.290861 38.5,74.5 C38.5,76.6421954 40.1839685,78.3910789 42.3003597,78.4951047 L42.5,78.5 L46.5,78.5 C55.2313589,78.5 62.3292047,85.493901 62.4969636,94.1851293 L62.5,94.5 L62.5,99 L54.5,99 L54.5,94.5 C54.5,90.1650857 51.0521622,86.6354571 46.7491793,86.5038068 L46.5,86.5 L42.5,86.5 C35.872583,86.5 30.5,81.127417 30.5,74.5 C30.5,67.9745433 35.7085444,62.6656072 42.1950252,62.5037999 L42.5,62.5 L56.8435729,62.4995729 L32.8435729,38.4995729 L26.5,38.5 C24.290861,38.5 22.5,40.290861 22.5,42.5 C22.5,44.6421954 24.1839685,46.3910789 26.3003597,46.4951047 L26.5,46.5 L34.5,46.5 L34.5,54.5 L26.5,54.5 C19.872583,54.5 14.5,49.127417 14.5,42.5 C14.5,36.3999961 19.0515022,31.3630525 24.9436767,30.5999993 L7.67157288,13.3284271 L13.3284271,7.67157288 Z M82.5,46.5 C89.127417,46.5 94.5,51.872583 94.5,58.5 C94.5,65.0254567 89.2914556,70.3343928 82.8049748,70.4962001 L82.5,70.5 L82.5,62.5 C84.709139,62.5 86.5,60.709139 86.5,58.5 C86.5,56.3578046 84.8160315,54.6089211 82.6996403,54.5048953 L82.5,54.5 L66.5,54.5 L66.5,46.5 L82.5,46.5 Z M98.5,14.5 C105.127417,14.5 110.5,19.872583 110.5,26.5 C110.5,33.0254567 105.291456,38.3343928 98.8049748,38.4962001 L98.5,38.5 L50.5,38.5 L50.5,30.5 L98.5,30.5 C100.709139,30.5 102.5,28.709139 102.5,26.5 C102.5,24.3578046 100.816032,22.6089211 98.6996403,22.5048953 L98.5,22.5 L34.5,22.5 L34.5,14.5 L98.5,14.5 Z" id="Shape" fill="#000000" fill-rule="nonzero"></path>
  </g>
</svg>
