<?xml version="1.0" encoding="UTF-8"?><svg viewBox="0 0 116 116" version="1.1" xmlns="http://www.w3.org/2000/svg" xmlns:xlink="http://www.w3.org/1999/xlink">
  <title>filter</title>
  <g id="filter" stroke="none" stroke-width="1" fill="none" fill-rule="evenodd">
    <path d="M98.5,14.5 C105.127417,14.5 110.5,19.872583 110.5,26.5 C110.5,33.0254567 105.291456,38.3343928 98.8049748,38.4962001 L98.5,38.5 L26.5,38.5 C24.290861,38.5 22.5,40.290861 22.5,42.5 C22.5,44.6421954 24.1839685,46.3910789 26.3003597,46.4951047 L26.5,46.5 L82.5,46.5 C89.127417,46.5 94.5,51.872583 94.5,58.5 C94.5,65.0254567 89.2914556,70.3343928 82.8049748,70.4962001 L82.5,70.5 L42.5,70.5 C40.290861,70.5 38.5,72.290861 38.5,74.5 C38.5,76.6421954 40.1839685,78.3910789 42.3003597,78.4951047 L42.5,78.5 L46.5,78.5 C55.2313589,78.5 62.3292047,85.493901 62.4969636,94.1851293 L62.5,94.5 L62.5,99 L54.5,99 L54.5,94.5 C54.5,90.1650857 51.0521622,86.6354571 46.7491793,86.5038068 L46.5,86.5 L42.5,86.5 C35.872583,86.5 30.5,81.127417 30.5,74.5 C30.5,67.9745433 35.7085444,62.6656072 42.1950252,62.5037999 L42.5,62.5 L82.5,62.5 C84.709139,62.5 86.5,60.709139 86.5,58.5 C86.5,56.3578046 84.8160315,54.6089211 82.6996403,54.5048953 L82.5,54.5 L26.5,54.5 C19.872583,54.5 14.5,49.127417 14.5,42.5 C14.5,35.9745433 19.7085444,30.6656072 26.1950252,30.5037999 L26.5,30.5 L98.5,30.5 C100.709139,30.5 102.5,28.709139 102.5,26.5 C102.5,24.3578046 100.816032,22.6089211 98.6996403,22.5048953 L98.5,22.5 L10.5,22.5 L10.5,14.5 L98.5,14.5 Z" id="Path-64" fill="#000000" fill-rule="nonzero"></path>
  </g>
</svg>
