<?xml version="1.0" encoding="UTF-8"?><svg viewBox="0 0 116 116" version="1.1" xmlns="http://www.w3.org/2000/svg" xmlns:xlink="http://www.w3.org/1999/xlink">
  <title>finger-print</title>
  <g id="finger-print" stroke="none" stroke-width="1" fill="none" fill-rule="evenodd">
    <path d="M77.4067145,38.8136608 L77.7132034,39.1152237 L84.7842712,46.1862915 C90.9582743,52.3602946 91.0317744,62.3246643 85.0047714,68.5889142 L84.7842712,68.8137085 L83.3700577,70.2279221 C77.9766006,75.6213792 69.2773635,75.6942637 63.794561,70.4465757 L63.5710678,70.2279221 C61.2811754,67.9380296 57.6008616,67.8859866 55.2477682,70.071793 L55.0857864,70.2279221 L53.6715729,71.6421356 C50.6063256,74.7073829 50.5484907,79.6411967 53.4980683,82.7769559 L53.6715729,82.9558441 L60.7426407,90.0269119 C67.6939731,96.9782443 78.9163208,97.0554814 85.9625646,90.258623 L86.1984848,90.0269119 L93.2695526,82.9558441 L98.9264069,88.6126984 L91.8553391,95.6837662 C81.8032438,105.735861 65.5680329,105.836382 55.3922754,95.985329 L55.0857864,95.6837662 L48.0147186,88.6126984 C41.8407155,82.4386953 41.7672155,72.4743255 47.7942185,66.2100756 L48.0147186,65.9852814 L49.4289322,64.5710678 C54.8223893,59.1776107 63.5216264,59.1047261 69.0044289,64.3524141 L69.2279221,64.5710678 C71.5178145,66.8609602 75.1981283,66.9130033 77.5512217,64.7271968 L77.7132034,64.5710678 L79.127417,63.1568542 C82.1926643,60.091607 82.2504991,55.1577932 79.3009216,52.022034 L79.127417,51.8431458 L72.0563492,44.7720779 C65.1050168,37.8207455 53.8826691,37.7435085 46.8364253,44.5403669 L46.6005051,44.7720779 L36.7010101,54.6715729 C24.3292006,67.0433824 24.2054825,87.0251804 36.3298558,99.5491897 L36.7010101,99.9264069 L42.3578644,105.583261 L36.7010101,111.240115 L31.0441559,105.583261 C15.5793939,90.1184992 15.4247463,65.1412517 30.580213,49.4862401 L31.0441559,49.0147186 L40.9436508,39.1152237 C50.9957461,29.0631284 67.2309569,28.9626075 77.4067145,38.8136608 Z M77.4302906,53.8074207 L77.7132034,54.0857864 L72.0563492,59.7426407 C65.8823461,53.5686376 55.9179764,53.4951376 49.6537264,59.5221406 L49.4289322,59.7426407 L46.6005051,62.5710678 C38.8713785,70.3001944 38.7908667,82.781561 46.3589699,90.6096927 L46.6005051,90.8553391 L60.7426407,104.997475 L55.0857864,110.654329 L40.9436508,96.5121933 C30.1183174,85.6868599 30.0100641,68.2027867 40.6188908,57.2442786 L40.9436508,56.9142136 L43.7720779,54.0857864 C53.0509351,44.8069293 68.0372836,44.7141407 77.4302906,53.8074207 Z M93.0315077,56.4989327 L100.968492,57.5010673 C99.8097323,66.6785374 96.2994825,74.26906 90.4411255,80.127417 C81.1651671,89.4033754 66.1852828,89.4990039 56.7917177,80.4143023 L56.5,80.127417 L62.1568542,74.4705627 C68.4052429,80.7189514 78.5358826,80.7189514 84.7842712,74.4705627 C89.2200105,70.0348235 91.9419658,64.2845852 92.9532595,57.0857953 L93.0315077,56.4989327 Z M87.8079271,31.1561698 L88.2558725,31.5969155 L95.2063008,38.5473439 L89.5494466,44.2041981 L82.5990182,37.2537697 C71.0004468,25.6551983 52.2675112,25.5392126 40.5262524,36.9058126 L40.0666976,37.360215 L38.7792972,38.6605682 L33.0941993,33.0320993 L34.5157571,31.5969155 C49.207281,16.9053916 72.935666,16.7584764 87.8079271,31.1561698 Z M94.6565748,20.9557488 L95.2695526,21.5588745 L89.6126984,27.2157288 C72.6014602,10.2044906 45.126488,10.0343782 27.9059752,26.7053916 L27.3873016,27.2157288 L21.7304474,21.5588745 C41.8346379,1.45468396 74.3050596,1.25364206 94.6565748,20.9557488 Z" id="Shape" fill="#000000" fill-rule="nonzero"></path>
  </g>
</svg>
