<?xml version="1.0" encoding="UTF-8"?><svg viewBox="0 0 116 116" version="1.1" xmlns="http://www.w3.org/2000/svg" xmlns:xlink="http://www.w3.org/1999/xlink">
  <title>flag</title>
  <g id="flag" stroke="none" stroke-width="1" fill="none" fill-rule="evenodd">
    <path d="M42.5,18.5 C47.302067,18.5 51.2253915,19.4638303 57.2711997,21.7506352 L61.3931472,23.3466855 L62.759967,23.8614776 C62.9063235,23.9156754 63.0509111,23.9688862 63.193798,24.0211234 L64.4357088,24.4653332 L65.2181007,24.733339 C65.3456907,24.7761758 65.471922,24.818106 65.596863,24.8591432 L66.331572,25.0947571 L67.0385955,25.3095816 C67.848583,25.5483337 68.6087481,25.7459564 69.3425472,25.9070535 L69.965608,26.0362991 C70.2744571,26.0965567 70.5796944,26.1503471 70.8831663,26.1980328 L71.4883036,26.2853718 C72.1928277,26.3780214 72.8944424,26.4387493 73.6166046,26.4721592 L74.2411798,26.4942135 C74.3462967,26.49681 74.4519697,26.4988758 74.5582673,26.5004244 C74.8773999,26.5050736 75.1910148,26.5072645 75.4991104,26.5070454 L76.4068372,26.4992072 L77.2814372,26.4772012 L78.1228999,26.4413186 C78.2603817,26.434198 78.3964823,26.4265113 78.5312015,26.4182647 L79.3229388,26.3621137 C79.4521316,26.3516514 79.5799427,26.3406413 79.7063717,26.3290894 L80.4483599,26.2533255 C83.9544616,25.8561798 86.2979121,25.0136158 87.4733957,23.8736688 L87.5908309,23.7546885 C90.0308129,21.1690729 94.3425894,22.8188436 94.4958033,26.3078793 L94.5,26.5 L94.5,66.5 C94.5,67.560866 94.0785726,68.5782816 93.3284271,69.3284271 C89.7204032,72.936451 83.4662074,74.5 74.5,74.5 C72.1819871,74.5 70.1655466,74.315227 68.0472387,73.8790066 L67.3368098,73.7241955 C66.7407193,73.587273 66.1333099,73.4303772 65.5059343,73.2520789 L64.7429465,73.0277562 L63.9574707,72.7823384 L63.1461865,72.5152767 L62.3057734,72.2260224 L61.4329108,71.9140266 L60.5242784,71.5787406 C60.3696744,71.5208883 60.2134416,71.4620426 60.0555108,71.4021923 L58.5864219,70.8361031 L55.5952614,69.6518148 L54.2798481,69.1437657 L53.4554127,68.8340576 L52.6693857,68.5468198 L51.9186836,68.2814329 C51.7963391,68.2389882 51.6753379,68.1974282 51.5556159,68.1567399 L50.85212,67.9229675 L50.1762407,67.7094973 L49.5248946,67.5157096 L48.8949985,67.340985 C48.0680666,67.1204522 47.2901122,66.9491023 46.5282464,66.8203272 L45.9593497,66.7316255 C45.4869265,66.6641876 45.0175761,66.6127352 44.5432689,66.575655 L43.9712072,66.5379542 L43.3913036,66.5134312 C43.1963529,66.5073843 42.9995812,66.5034305 42.8004749,66.5014665 L42.5,66.5 C39.8892125,66.5 37.6136199,66.6504216 35.6810978,66.9445736 L35.2412247,67.0150032 L33.9140195,59.1258635 C36.4107395,58.7058355 39.2694542,58.5 42.5,58.5 C44.8180129,58.5 46.8344534,58.684773 48.9527613,59.1209934 L49.6631902,59.2758045 C50.2592807,59.412727 50.8666901,59.5696228 51.4940657,59.7479211 L52.2570535,59.9722438 L53.0425293,60.2176616 L53.8538135,60.4847233 L54.6942266,60.7739776 L55.5670892,61.0859734 L56.4757216,61.4212594 C56.6303256,61.4791117 56.7865584,61.5379574 56.9444892,61.5978077 L58.4135781,62.1638969 L61.4047386,63.3481852 L62.7201519,63.8562343 L63.5445873,64.1659424 L64.3306143,64.4531802 L65.0813164,64.7185671 C65.2036609,64.7610118 65.3246621,64.8025718 65.4443841,64.8432601 L66.14788,65.0770325 L66.8237593,65.2905027 L67.4751054,65.4842904 L68.1050015,65.659015 C68.9319334,65.8795478 69.7098878,66.0508977 70.4717536,66.1796728 L71.0406503,66.2683745 C71.5130735,66.3358124 71.9824239,66.3872648 72.4567311,66.424345 L73.0287928,66.4620458 L73.6086964,66.4865688 C73.7061718,66.4895922 73.8041024,66.4920924 73.9025524,66.4940822 L74.5,66.5 C80.0805297,66.5 84.0110285,65.8056258 86.2586155,64.6570568 L86.499,64.528 L86.499,33.2 L86.3510662,33.2447475 C83.2452537,34.1384092 79.4563211,34.5370952 74.9819478,34.5054362 L74.4417327,34.4995756 C70.34083,34.4398322 67.0955753,33.818908 62.5836784,32.2906655 L61.6637816,31.9728168 L60.7063347,31.6301576 L59.7075648,31.2620726 L58.6636989,30.8679464 L57.570964,30.4471635 L55.5726803,29.6672896 L54.5306836,29.2673071 C54.3614786,29.2031781 54.194447,29.1403068 54.0295028,29.0786789 L53.0641981,28.7237158 L52.144865,28.3979009 C48.2547347,27.0481911 45.5432781,26.5 42.5,26.5 C37.0433796,26.5 33.0946389,27.2210086 30.6605548,28.4809197 L30.499,28.566 L30.5,107 L22.5,107 L22.5,26.5 C22.5,25.3574487 22.9885912,24.2694325 23.8425446,23.5103627 C27.7312848,20.0537048 33.9461041,18.5 42.5,18.5 Z" id="Path" fill="#000000" fill-rule="nonzero"></path>
  </g>
</svg>
