<?xml version="1.0" encoding="UTF-8"?><svg viewBox="0 0 116 116" version="1.1" xmlns="http://www.w3.org/2000/svg" xmlns:xlink="http://www.w3.org/1999/xlink">
  <title>flame</title>
  <g id="flame" stroke="none" stroke-width="1" fill="none" fill-rule="evenodd">
    <path d="M60.2061506,7.22307232 C63.1138751,5.18766515 67.0350581,7.66609949 66.4441825,11.1659009 C64.9601554,19.9559076 65.8221803,26.3495141 68.6561978,31.5362548 C68.7508157,31.7094219 68.8461505,31.8799688 68.9424929,32.0482418 L69.2348343,32.5465852 C69.6787537,33.2849065 70.1489699,33.9841935 70.671992,34.6760045 L71.0287873,35.1364507 C71.1505207,35.2897944 71.2751528,35.4431153 71.4029743,35.5967596 L71.7962983,36.0590093 C71.9980354,36.2909657 72.2076035,36.524429 72.4259843,36.7605682 L72.8747872,37.2367606 C73.0284989,37.3969116 73.1864183,37.5585981 73.3488362,37.7221665 L73.8498768,38.2188637 L74.3796543,38.7289303 L74.9399142,39.254444 L75.5324019,39.7974828 L76.158863,40.3601247 L76.8210429,40.9444475 L77.5206869,41.5525292 L78.2595405,42.1864476 L79.9358651,43.6021128 L81.1945865,44.6622521 L81.9785912,45.3296431 L82.7211562,45.9685666 L83.4245737,46.5816173 L84.0911362,47.17139 L84.7231361,47.7404795 L85.3228657,48.2914805 L85.8926176,48.8269879 L86.434684,49.3495964 C86.6991779,49.6081084 86.9541495,49.8627564 87.2008881,50.1149999 L87.6837702,50.6167133 C87.7625484,50.699942 87.8405073,50.7830117 87.9176947,50.8659764 L88.3719434,51.3629371 L88.8099687,51.8599729 L89.234063,52.3596784 L89.6465186,52.8646485 C89.7144187,52.949393 89.7819293,53.034465 89.8490983,53.1199186 L90.2483942,53.6376507 C90.3143875,53.7248466 90.3801347,53.8125321 90.4456835,53.9007614 L90.8369776,54.4370938 C90.9019239,54.5277141 90.9667672,54.6189862 91.0315555,54.7109642 L91.4200057,55.2717351 C95.0977241,60.667888 97,66.869196 97,74.5 C97,85.9389835 91.8170121,95.3561565 83.0250651,101.950396 C75.782626,107.382456 66.4279323,110.50089 58.5,110.50089 C22.7741356,110.50089 2.67865333,68.3851289 25.571253,43.7755842 C28.0564425,41.1040056 32.489201,42.8871902 32.5003415,46.4695133 L32.4924807,46.76501 L32.4058798,48.8693653 L32.3657183,49.9626334 L32.3332644,50.9934591 L32.3087835,51.9694262 L32.2925414,52.8981188 L32.2848033,53.7871206 L32.285835,54.6440155 L32.2959019,55.4763874 L32.3152696,56.2918202 C32.3192873,56.4267354 32.3237037,56.5612608 32.3285241,56.6955544 L32.3623408,57.4997983 C32.3687999,57.6337967 32.3756742,57.7678793 32.3829692,57.902204 L32.4078501,58.331714 L32.4656954,59.1677826 C32.4762348,59.3045808 32.4872237,59.440107 32.4986622,59.5743629 L32.5726901,60.3646698 C32.5859279,60.493852 32.5996157,60.6217675 32.6137537,60.7484182 L32.7039863,61.4931588 C33.4850344,67.4514909 35.3480535,70.3816624 38.3168548,70.4964859 L38.5,70.5 L38.5,78.5 C33.3362746,78.5 29.4865521,75.7799894 27.1912891,71.1609917 C25.9176852,68.5979854 25.1273624,65.5186834 24.6977231,61.9115694 L24.672,61.693 L24.5522943,62.2010822 C20.4486801,80.5646843 35.0056905,101.958782 57.6367336,102.490765 L58.5,102.50089 C64.6968886,102.50089 72.3672676,99.9439304 78.2249349,95.5504938 C85.0880753,90.4029203 89,83.2951918 89,74.5 C89,68.4723924 87.5795415,63.8417809 84.809345,59.7771947 L84.6503388,59.5459573 L84.3300124,59.0927941 L84.0047655,58.6500519 C83.895285,58.5039421 83.7846174,58.3591702 83.6723955,58.2153374 L83.3306999,57.7862572 L82.9774763,57.3604179 C82.9175227,57.2895818 82.8569969,57.218781 82.7958532,57.1479657 L82.4212078,56.7225001 C82.3574086,56.6514271 82.2928996,56.5802399 82.2276349,56.5088885 L81.8266122,56.0784116 C81.6896706,55.9339968 81.5493394,55.7885266 81.4052514,55.641602 L80.96135,55.1960665 L80.4927057,54.7394115 L79.9971157,54.2692438 L79.4723778,53.7831699 L78.9162893,53.2787964 L78.3266477,52.75373 L77.7012507,52.2055773 L76.6912955,51.3348258 L75.5885013,50.3986674 L73.8240804,48.9151024 L72.9676263,48.1877363 L72.1528769,47.4878267 L71.378014,46.8130634 L70.6412192,46.1611364 C70.5214914,46.0542566 70.4032739,45.948232 70.2865291,45.8430146 L69.6034269,45.2210104 L68.953847,44.6160671 L68.335971,44.0258744 L67.7479805,43.4481224 C65.2621469,40.9681477 63.5668716,38.7735129 61.9963355,36.0183179 L61.6358153,35.3721679 C59.1655506,30.8511576 57.8436261,25.7387817 57.738983,19.7719077 L57.736,19.612 L57.3861749,19.9615059 C47.6366248,29.7880094 44.0058088,42.113841 46.3574766,57.2895335 L46.4473107,57.8528999 C47.2051511,62.4757264 49.5984635,67.7738241 53.668848,73.700708 L54.173,74.425 L54.1949298,74.3030781 C54.3779449,73.1829932 54.3551943,71.8593958 54.1584283,70.1825504 L54.0705164,69.4926175 L53.9644944,68.7628752 L53.8408139,67.991194 C53.818754,67.8589673 53.7959772,67.7249043 53.7724928,67.5889608 L53.6231712,66.7503783 L53.1086189,63.9921272 L53.0804991,63.8330603 C51.9264621,57.273271 52.2204657,52.8212155 55.1462255,48.3200466 C57.2800521,45.0372365 62.3280445,46.4684077 62.4957181,50.3029626 L62.5,50.5 C62.5,51.9151635 63.4520746,53.5218107 65.8536835,56.0049496 L66.3714142,56.5314336 L66.9076407,57.0625276 L69.1585848,59.2416794 L69.8881337,59.9614595 C75.2233037,65.2857527 77.5,68.9943096 77.5,74.5 C77.5,77.142518 77.0250592,79.7390475 76.1066227,82.1516101 C75.244502,84.4162417 74.0029009,86.4887831 72.4372375,88.2631675 L72.0967982,88.6387904 L66.241347,83.1877638 C67.2564042,82.0973972 68.0694416,80.7780235 68.6300664,79.305366 C69.2015107,77.8042877 69.5,76.1724288 69.5,74.5 C69.5,72.5486975 68.7837791,70.8250653 66.9694515,68.5948448 L66.5782795,68.1259506 L66.1550188,67.6411546 C66.0817595,67.5589498 66.0071319,67.4760223 65.9311203,67.3923418 L65.4583172,66.8809835 L64.9515464,66.3501106 C64.8642122,66.2599253 64.7754313,66.1688666 64.6851882,66.0769046 L64.1260565,65.5140503 L63.5310782,64.9280687 L61.7353974,63.1930433 L60.956,62.429 L61.1858845,63.6822599 L61.4130763,64.8788479 L61.6522003,66.1739997 L61.8541316,67.3371616 L61.9685393,68.0491698 L62.0670911,68.7173579 L62.1500564,69.3476625 L62.217705,69.9460206 L62.2703064,70.518369 C62.2853623,70.7054764 62.2979553,70.8892384 62.3081304,71.0706443 L62.3314464,71.6087835 C62.3475984,72.1418335 62.3423929,72.6625845 62.3170434,73.1977519 L62.2850241,73.7387144 C62.2785834,73.8300055 62.2715944,73.9219445 62.2640626,74.014655 C61.9401809,78.0014231 60.3581103,81.4602122 57.2509786,84.4038107 C55.5531492,86.0122807 52.8434906,85.8273291 51.3799666,84.0030764 C44.0905706,74.916994 39.7851088,66.664859 38.5526893,59.1471001 C34.9716557,37.3027949 42.2749358,19.7749227 60.2061506,7.22307232 Z" id="Path" fill="#000000" fill-rule="nonzero"></path>
  </g>
</svg>
