<?xml version="1.0" encoding="UTF-8"?><svg viewBox="0 0 116 116" version="1.1" xmlns="http://www.w3.org/2000/svg" xmlns:xlink="http://www.w3.org/1999/xlink">
  <title>flashlight-off</title>
  <g id="flashlight-off" stroke="none" stroke-width="1" fill="none" fill-rule="evenodd">
    <path d="M13.3284271,7.67157288 L109.328427,103.671573 L103.671573,109.328427 L70.5005729,76.1565729 L39.4497475,107.207107 C36.7782063,109.878648 32.4845068,109.939365 29.7392312,107.389257 L29.5502525,107.207107 L9.79289322,87.4497475 C7.12135204,84.7782063 7.0606352,80.4845068 9.61074268,77.7392312 L9.79289322,77.5502525 L37.0518862,50.2912596 L42.7087404,55.9481138 L16.157,82.5 L34.5,100.843 L64.8435729,70.4995729 L62.4995729,68.1555729 L57.2054427,73.4514115 C53.5177025,77.1391518 47.5689561,77.2350744 43.7642355,73.6681488 L43.5485885,73.459346 C39.9818241,69.8925816 39.9145266,64.1515272 43.3466962,60.5027141 L43.5485885,60.2945573 L44.1715729,59.6715729 L49.8284271,65.3284271 L49.2054427,65.9514115 C48.7283585,66.4284958 48.6965529,67.1822407 49.1100259,67.696213 L49.2204853,67.8172937 L49.2357645,67.8318512 C49.8519311,68.4095073 50.7948934,68.4288664 51.4327251,67.9001182 L51.5485885,67.7945573 L56.8435729,62.4995729 L7.67157288,13.3284271 L13.3284271,7.67157288 Z M77.3284271,7.67157288 L107.241482,37.5853822 C109.87984,40.2896993 109.887548,44.5838211 107.303745,47.2974072 L107.119275,47.4841228 L91.1238834,63.0893834 C88.9687636,65.1919393 86.1054876,66.4044252 83.1047136,66.4945831 L82.7439972,66.5 L78.5,66.5 L78.5,58.5 L82.7439972,58.5 C83.7074727,58.5 84.635721,58.1523668 85.3604482,57.5255962 L85.5372926,57.3631278 L100.807,42.464 L71.6715729,13.3284271 L77.3284271,7.67157288 Z M71.3076786,17.7208863 L71.4937426,17.9060131 L84.8729609,31.7168191 L79.1270391,37.2831809 L66.454,24.202 L59.6715729,30.9852814 C58.9750092,31.6818451 58.561881,32.6088611 58.5064166,33.5871267 L58.5,33.8137085 L58.5,38.5 L50.5,38.5 L50.5,33.8137085 C50.5,30.7489846 51.6723658,27.8051348 53.7687425,25.5817411 L54.0147186,25.3284271 L61.5954945,17.7488981 C64.3090993,15.1200935 68.6032216,15.1275297 71.3076786,17.7208863 Z" id="Shape" fill="#000000" fill-rule="nonzero"></path>
  </g>
</svg>
