<?xml version="1.0" encoding="UTF-8"?><svg viewBox="0 0 116 116" version="1.1" xmlns="http://www.w3.org/2000/svg" xmlns:xlink="http://www.w3.org/1999/xlink">
  <title>flashlight</title>
  <g id="flashlight" stroke="none" stroke-width="1" fill="none" fill-rule="evenodd">
    <path d="M77.2347994,7.58094673 C82.5477699,12.5585567 87.9122836,17.7554293 93.3284271,23.1715729 C98.0491626,27.8923083 102.729606,32.7001073 107.363062,37.5879147 C109.94426,40.29758 109.926159,44.5416505 107.366445,47.2358214 L107.183737,47.4212333 L91.1238834,63.0893834 C88.9687636,65.1919393 86.1054876,66.4044252 83.1047136,66.4945831 L82.7439972,66.5 L80.157,66.499 L39.4497475,107.207107 C36.7782063,109.878648 32.4845068,109.939365 29.7392312,107.389257 L29.5502525,107.207107 L9.79289322,87.4497475 C7.12135204,84.7782063 7.0606352,80.4845068 9.61074268,77.7392312 L9.79289322,77.5502525 L50.5,36.842 L50.5,33.8137085 C50.5,30.7489846 51.6723658,27.8051348 53.7687425,25.5817411 L54.0147186,25.3284271 L61.5954945,17.7488981 C64.3090993,15.1200935 68.6032216,15.1275297 71.3076786,17.7208863 L71.4937426,17.9060131 L84.8729609,31.7168191 L79.1270391,37.2831809 L66.454,24.202 L59.6715729,30.9852814 C58.9750092,31.6818451 58.561881,32.6088611 58.5064166,33.5871267 L58.5,33.8137085 L58.5,40.1568542 L16.157,82.5 L34.5,100.843 L76.8431458,58.5 L82.7439972,58.5 C83.7074727,58.5 84.635721,58.1523668 85.3604482,57.5255962 L85.5372926,57.3631278 L100.886,42.387 L99.2649351,40.6843043 C96.1953068,37.4746664 93.1081305,34.3034863 90.0034063,31.1707609 L87.6715729,28.8284271 C82.9111468,24.0680011 78.1928551,19.4806267 73.5167587,15.06631 L71.7652006,13.4190533 L77.2347994,7.58094673 Z M65.3284271,51.6715729 C69.0298256,55.3729713 69.09837,61.3315359 65.5340604,65.1165331 L65.3284271,65.3284271 L57.2054427,73.4514115 C53.5177025,77.1391518 47.5689561,77.2350744 43.7642355,73.6681488 L43.5485885,73.459346 C39.9818241,69.8925816 39.9145266,64.1515272 43.3466962,60.5027141 L43.5485885,60.2945573 L44.1715729,59.6715729 L49.8284271,65.3284271 L49.2054427,65.9514115 C48.7283585,66.4284958 48.6965529,67.1822407 49.1100259,67.696213 L49.2204853,67.8172937 L49.2357645,67.8318512 C49.8519311,68.4095073 50.7948934,68.4288664 51.4327251,67.9001182 L51.5485885,67.7945573 L59.6715729,59.6715729 C60.3186147,59.024531 60.3186147,57.975469 59.6715729,57.3284271 C59.0625923,56.7194466 58.097497,56.6836242 57.4466205,57.22096 L57.3284271,57.3284271 L55.3284271,59.3284271 L49.6715729,53.6715729 L51.6715729,51.6715729 C55.442809,47.9003367 61.557191,47.9003367 65.3284271,51.6715729 Z" id="Shape" fill="#000000" fill-rule="nonzero"></path>
  </g>
</svg>
