<?xml version="1.0" encoding="UTF-8"?><svg viewBox="0 0 116 116" version="1.1" xmlns="http://www.w3.org/2000/svg" xmlns:xlink="http://www.w3.org/1999/xlink">
  <title>flowchart</title>
  <g id="flowchart" stroke="none" stroke-width="1" fill="none" fill-rule="evenodd">
    <path d="M65.7888784,88.3555798 L72.4452808,92.7931814 L63.4923018,106.22265 C63.0528926,106.881764 62.4873149,107.447341 61.8282012,107.88675 C59.1382771,109.680033 55.526955,109.014629 53.6455208,106.420795 L53.5076982,106.22265 L44.6750582,92.9736899 L51.3314606,88.5360883 L58.499,99.288 L65.7888784,88.3555798 Z M103.5,6.5 C107.285452,6.5 110.369099,9.50478338 110.495941,13.2593502 L110.5,13.5 L110.5,31.5 C110.5,35.2854517 107.495217,38.3690987 103.74065,38.495941 L103.5,38.5 L84.62,38.5 L72.2,50.543 L75.2071068,53.5502525 C77.878648,56.2217937 77.9393648,60.5154932 75.3892573,63.2607688 L75.2071068,63.4497475 L62.5,76.156 L62.5,91.5 L54.5,91.5 L54.5,72.8431458 L68.843,58.5 L58.5,48.157 L48.157,58.5 L53.3284271,63.6715729 L47.6715729,69.3284271 L41.7928932,63.4497475 C39.121352,60.7782063 39.0606352,56.4845068 41.6107427,53.7392312 L41.7928932,53.5502525 L53.5502525,41.7928932 C56.2217937,39.121352 60.5154932,39.0606352 63.2607688,41.6107427 L63.4497475,41.7928932 L66.543,44.886 L81.3790775,30.5 L102.5,30.5 L102.5,14.5 L86.5,14.5 L86.5,26.5 L78.5,26.5 L78.5,13.5 C78.5,9.71454828 81.5047834,6.63090132 85.2593502,6.50405902 L85.5,6.5 L103.5,6.5 Z M31.5,6.5 C35.2854517,6.5 38.3690987,9.50478338 38.495941,13.2593502 L38.5,13.5 L38.5,32.843 L47.5032414,41.8463871 L41.8463871,47.5032414 L30.5,36.1568542 L30.5,14.5 L14.5,14.5 L14.5,30.5 L26.5,30.5 L26.5,38.5 L13.5,38.5 C9.71454828,38.5 6.63090132,35.4952166 6.50405902,31.7406498 L6.5,31.5 L6.5,13.5 C6.5,9.71454828 9.50478338,6.63090132 13.2593502,6.50405902 L13.5,6.5 L31.5,6.5 Z" id="Shape" fill="#000000" fill-rule="nonzero"></path>
  </g>
</svg>
