<?xml version="1.0" encoding="UTF-8"?><svg viewBox="0 0 116 116" version="1.1" xmlns="http://www.w3.org/2000/svg" xmlns:xlink="http://www.w3.org/1999/xlink">
  <title>flowchart-horiz</title>
  <g id="flowchart-horiz" stroke="none" stroke-width="1" fill="none" fill-rule="evenodd">
    <path d="M43.6715729,67.6715729 L49.3284271,73.3284271 L38.3914282,84.2651496 C38.4491352,84.5893754 38.4845213,84.9213241 38.495941,85.2593502 L38.5,85.5 L38.5,106.5 L30.5,106.5 L30.5,86.5 L14.5,86.5 L14.5,102.5 L26.5,102.5 L26.5,110.5 L13.5,110.5 C9.71454828,110.5 6.63090132,107.495217 6.50405902,103.74065 L6.5,103.5 L6.5,85.5 C6.5,81.7145483 9.50478338,78.6309013 13.2593502,78.504059 L13.5,78.5 L32.842,78.5 L43.6715729,67.6715729 Z M31.5,6.5 C35.2854517,6.5 38.3690987,9.50478338 38.495941,13.2593502 L38.5,13.5 L38.5,26.5 L30.5,26.5 L30.5,14.5 L14.5,14.5 L14.5,30.5 L36.1568542,30.5 L56.1568542,50.5 L48.157,58.5 L58.5,68.843 L72.8431458,54.5 L90.5,54.5 L90.5,62.5 L76.156,62.5 L63.4497475,75.2071068 C60.7782063,77.878648 56.4845068,77.9393648 53.7392312,75.3892573 L53.5502525,75.2071068 L41.7928932,63.4497475 C39.121352,60.7782063 39.0606352,56.4845068 41.6107427,53.7392312 L41.7928932,53.5502525 L44.843,50.5 L32.843,38.5 L13.5,38.5 C9.71454828,38.5 6.63090132,35.4952166 6.50405902,31.7406498 L6.5,31.5 L6.5,13.5 C6.5,9.71454828 9.50478338,6.63090132 13.2593502,6.50405902 L13.5,6.5 L31.5,6.5 Z M92.7668666,44.537176 L106.22265,53.5076982 C106.881764,53.9471074 107.447341,54.5126851 107.88675,55.1717988 C109.680033,57.8617229 109.014629,61.473045 106.420795,63.3544792 L106.22265,63.4923018 L92.9550106,72.3373946 L88.517409,65.6809923 L99.288,58.499 L88.329265,51.1935784 L92.7668666,44.537176 Z M63.2607688,41.6107427 L63.4497475,41.7928932 L73.3284271,51.6715729 L67.6715729,57.3284271 L58.509,48.166 L58.499853,48.1779171 L52.7633874,42.6018108 L53.5502525,41.7928932 C56.2217937,39.121352 60.5154932,39.0606352 63.2607688,41.6107427 Z" id="Shape" fill="#000000" fill-rule="nonzero"></path>
  </g>
</svg>
