<?xml version="1.0" encoding="UTF-8"?><svg viewBox="0 0 116 116" version="1.1" xmlns="http://www.w3.org/2000/svg" xmlns:xlink="http://www.w3.org/1999/xlink">
  <title>folder</title>
  <g id="folder" stroke="none" stroke-width="1" fill="none" fill-rule="evenodd" transform="translate(0.000000, 0.000000)">
    <path d="M39.1862915,14.5 C42.2510154,14.5 45.1948652,15.6723658 47.4182589,17.7687425 L47.6715729,18.0147186 L50.9852814,21.3284271 C51.6818451,22.0249908 52.6088611,22.438119 53.5871267,22.4935834 L53.8137085,22.5 L86.5,22.5 C93.0254567,22.5 98.3343928,27.7085444 98.4962001,34.1950252 L98.5,34.5 L98.5,38.5 L90.5,38.5 L90.5,34.5 C90.5,32.3578046 88.8160315,30.6089211 86.6996403,30.5048953 L86.5,30.5 L53.8137085,30.5 C50.7489846,30.5 47.8051348,29.3276342 45.5817411,27.2312575 L45.3284271,26.9852814 L42.0147186,23.6715729 C41.3181549,22.9750092 40.3911389,22.561881 39.4128733,22.5064166 L39.1862915,22.5 L18.5,22.5 C16.3578046,22.5 14.6089211,24.1839685 14.5048953,26.3003597 L14.5,26.5 L14.5,63.375 L17.1714066,51.8016859 C18.4050475,46.4559087 23.1011134,42.6407763 28.5600585,42.5038114 L28.864101,42.5 L105.242949,42.5 C105.621353,42.5 105.998533,42.5429564 106.367246,42.628044 C108.987145,43.2326361 110.646826,45.7937242 110.159173,48.4119235 L110.114905,48.6242975 L99.8285934,93.1983141 C98.5949525,98.5440913 93.8988866,102.359224 88.4399415,102.496189 L88.135899,102.5 L22.5,102.5 L22.5,94.5 L88.135899,94.5 C89.9320007,94.5 91.4988841,93.3045538 91.9840512,91.5918344 L92.0334638,91.399438 L101.471,50.5 L28.864101,50.5 C27.0679993,50.5 25.5011159,51.6954462 25.0159488,53.4081656 L24.9665362,53.600562 L16.371956,90.8437428 C15.7510236,93.5344498 13.0664095,95.2123337 10.3757025,94.5914013 C8.18022945,94.0847537 6.60436891,92.1764995 6.50498506,89.9437609 L6.5,89.7194453 L6.5,26.5 C6.5,19.9745433 11.7085444,14.6656072 18.1950252,14.5037999 L18.5,14.5 L39.1862915,14.5 Z" id="Path" fill="#000000" fill-rule="nonzero"></path>
  </g>
</svg>
