<?xml version="1.0" encoding="UTF-8"?><svg viewBox="0 0 116 116" version="1.1" xmlns="http://www.w3.org/2000/svg" xmlns:xlink="http://www.w3.org/1999/xlink">
  <title>forward-step</title>
  <g id="forward-step" stroke="none" stroke-width="1" fill="none" fill-rule="evenodd">
    <path d="M54.5,28.7338096 C54.5,31.4952334 56.7385763,33.7338096 59.5,33.7338096 C60.3155978,33.7338096 61.117395,33.5343154 61.8360876,33.1545231 L62.0724788,33.0212742 L77.757688,23.6101487 C80.5991696,21.9052598 81.5205599,18.2196982 79.815671,15.3782166 C79.3821433,14.6556704 78.8019192,14.0335716 78.1137534,13.5513856 L77.8507071,13.3772014 L60.6199958,2.60800678 L56.3800042,9.39199322 L70.842,18.43 L62.5,23.435 L62.5,14.5 L26.5,14.5 C19.9745433,14.5 14.6656072,19.7085444 14.5037999,26.1950252 L14.5,26.5 L14.5,90.5 C14.5,97.0254567 19.7085444,102.334393 26.1950252,102.4962 L26.5,102.5 L90.5,102.5 C97.0254567,102.5 102.334393,97.2914556 102.4962,90.8049748 L102.5,90.5 L102.5,26.5 C102.5,19.9745433 97.2914556,14.6656072 90.8049748,14.5037999 L90.5,14.5 L90.5,22.5 C92.6421954,22.5 94.3910789,24.1839685 94.4951047,26.3003597 L94.5,26.5 L94.5,90.5 C94.5,92.6421954 92.8160315,94.3910789 90.6996403,94.4951047 L90.5,94.5 L26.5,94.5 C24.3578046,94.5 22.6089211,92.8160315 22.5048953,90.6996403 L22.5,90.5 L22.5,26.5 C22.5,24.3578046 24.1839685,22.6089211 26.3003597,22.5048953 L26.5,22.5 L54.5,22.5 L54.5,28.7338096 Z" id="Path" fill="#000000" fill-rule="nonzero"></path>
  </g>
</svg>
