<?xml version="1.0" encoding="UTF-8"?><svg viewBox="0 0 116 116" version="1.1" xmlns="http://www.w3.org/2000/svg" xmlns:xlink="http://www.w3.org/1999/xlink">
  <title>game-controller</title>
  <g id="game-controller" stroke="none" stroke-width="1" fill="none" fill-rule="evenodd">
    <path d="M38.1267861,23 C42.2449666,23 46.0611853,25.1607063 48.1799717,28.692017 C48.8155832,29.7513695 49.9321154,30.422399 51.1561651,30.4936883 L51.3732139,30.5 L66.25,30.5 C67.3887119,30.5 68.4347238,29.8723928 68.9705882,28.8676471 C70.8461136,25.3510369 74.4601683,23.1196753 78.4275717,23.0046706 L78.75,23 L90.5,23 C101.430636,23 110.313225,31.7687286 110.497093,42.6555106 L110.5,43 L110.5,82.5 C110.5,93.545695 101.545695,102.5 90.5,102.5 C79.5693643,102.5 70.686775,93.7312714 70.5029071,82.8444894 L70.5,82.5 L70.5,75 C70.5,72.8578046 68.8160315,71.1089211 66.6996403,71.0048953 L66.5,71 L46.5,71 L46.5,62.5 C46.5,58.1650857 49.9478378,54.6354571 54.2508207,54.5038068 L54.5,54.5 L66.5,54.5 L66.5,62.5 L54.5,62.5 L54.5,63 L66.5,63 C73.0254567,63 78.3343928,68.2085444 78.4962001,74.6950252 L78.5,75 L78.5,82.5 C78.5,89.127417 83.872583,94.5 90.5,94.5 C97.0254567,94.5 102.334393,89.2914556 102.4962,82.8049748 L102.5,82.5 L102.5,43 C102.5,36.4745433 97.2914556,31.1656072 90.8049748,31.0037999 L90.5,31 L78.75,31 C77.6112881,31 76.5652762,31.6276072 76.0294118,32.6323529 C74.1538864,36.1489631 70.5398317,38.3803247 66.5724283,38.4953294 L66.25,38.5 L51.3732139,38.5 C47.2550334,38.5 43.4388147,36.3392937 41.3200283,32.807983 C40.6844168,31.7486305 39.5678846,31.077601 38.3438349,31.0063117 L38.1267861,31 L26.5,31 C19.9745433,31 14.6656072,36.2085444 14.5037999,42.6950252 L14.5,43 L14.5,82.5 C14.5,89.127417 19.872583,94.5 26.5,94.5 C33.0254567,94.5 38.3343928,89.2914556 38.4962001,82.8049748 L38.5,82.5 L38.5,74.5 L46.5,74.5 L46.5,82.5 C46.5,93.545695 37.545695,102.5 26.5,102.5 C15.5693643,102.5 6.68677495,93.7312714 6.50290706,82.8444894 L6.5,82.5 L6.5,43 C6.5,32.0693643 15.2687286,23.186775 26.1555106,23.0029071 L26.5,23 L38.1267861,23 Z M30.5,67 L30.5,82.5 L22.5,82.5 L22.5,67 L30.5,67 Z M94.5,67 L94.5,82.5 L86.5,82.5 L86.5,67 L94.5,67 Z M90.5,34.5 C97.127417,34.5 102.5,39.872583 102.5,46.5 C102.5,53.0254567 97.2914556,58.3343928 90.8049748,58.4962001 L90.5,58.5 L90.5,50.5 C92.709139,50.5 94.5,48.709139 94.5,46.5 C94.5,44.290861 92.709139,42.5 90.5,42.5 C88.3578046,42.5 86.6089211,44.1839685 86.5048953,46.3003597 L86.5,46.5 L78.5,46.5 C78.5,39.872583 83.872583,34.5 90.5,34.5 Z M30.5,38.5 L30.5,42.5 L34.5,42.5 L34.5,50.5 L30.5,50.5 L30.5,54.5 L22.5,54.5 L22.5,50.5 L18.5,50.5 L18.5,42.5 L22.5,42.5 L22.5,38.5 L30.5,38.5 Z M90.5,14.5 L90.5,22.5 L74.5,22.5 L74.5,14.5 L90.5,14.5 Z M42.5,14.5 L42.5,22.5 L26.5,22.5 L26.5,14.5 L42.5,14.5 Z" id="Shape" fill="#000000" fill-rule="nonzero"></path>
  </g>
</svg>
