<?xml version="1.0" encoding="UTF-8"?><svg viewBox="0 0 116 116" version="1.1" xmlns="http://www.w3.org/2000/svg" xmlns:xlink="http://www.w3.org/1999/xlink">
  <title>gear</title>
  <g id="gear" stroke="none" stroke-width="1" fill="none" fill-rule="evenodd">
    <path d="M53.3233234,6.09607754 L53.4065543,6.33866815 L54.261,8.972 L54.4208072,8.95955624 C55.3106202,8.8948551 56.2042184,8.85429002 57.100912,8.8380513 L57.9986117,8.82992841 C59.1965678,8.82992841 60.3894324,8.87326747 61.5755717,8.95949484 L61.733,8.972 L62.5899769,6.33791102 C63.8099504,2.58320409 67.6567686,0.365764574 71.5203093,1.1656478 L71.7669158,1.2208162 L72.9566423,1.5153232 L73.6985356,1.70874173 L74.5931918,1.95486982 L75.0519556,2.08809902 L75.6677864,2.27618808 L76.2440566,2.46417702 L76.8409943,2.67117298 L77.4732469,2.9014623 L78.1427982,3.15541101 L78.851108,3.43332769 L79.9738893,3.88958326 C83.6200627,5.39847829 85.5300902,9.40371003 84.441662,13.168473 L84.3664135,13.413632 L83.511,16.043 L83.9951566,16.3440668 C85.7831538,17.4751096 87.4957824,18.7215338 89.1220208,20.0745945 L89.554,20.44 L91.7962845,18.8112656 C94.9856948,16.4940179 99.3932209,16.9565634 102.044593,19.8571929 L102.222612,20.0587371 L102.761488,20.6958322 L103.265299,21.3029683 L103.734704,21.8812587 L104.170548,22.4322125 L104.573925,22.9579246 L104.932752,23.4424544 L105.119591,23.7030157 L105.480854,24.2213501 L106.051099,25.0735782 L106.452038,25.6935448 L106.87064,26.3561372 L107.299256,27.0485342 C109.360173,30.4091727 108.554755,34.7669794 105.468786,37.1743814 L105.254852,37.3354655 L103.023,38.957 L103.314336,39.677789 C103.518941,40.1970783 103.714634,40.7200943 103.901303,41.2466331 L104.174524,42.039058 C104.531584,43.1045273 104.851617,44.1828077 105.133969,45.2723213 L105.332,46.069 L108.092772,46.0694821 C112.040634,46.0694384 115.338268,49.0426217 115.770949,52.955858 L115.794655,53.2068961 L115.856202,54.0395365 L115.906979,54.8272963 L115.951364,55.6661942 L115.962665,55.9277159 L115.985792,56.6099015 L115.998368,57.3149296 L115.998368,57.5589618 L115.984121,58.4916944 L115.960496,59.1639234 L115.925902,59.8789151 L115.880498,60.6381526 L115.793593,61.8464744 C115.485247,65.7823611 112.263429,68.837699 108.344503,68.9633028 L108.093433,68.9673215 L105.332,68.967 L105.321907,69.016937 C105.051098,70.1352136 104.740805,71.2421301 104.391728,72.3360025 L104.122659,73.1539347 C103.822732,74.0390364 103.497454,74.9145121 103.147344,75.7794084 L103.022,76.078 L105.255188,77.7006537 C108.446146,80.0189667 109.367645,84.3567352 107.424658,87.7754739 L107.290875,88.0019961 L106.851254,88.7117925 L106.4293,89.3789499 L106.024158,90.0044386 L105.634653,90.5895291 L105.259129,91.1359124 L104.897602,91.6426307 L104.417241,92.2854437 L103.866476,92.9908343 L103.703768,93.1942563 L103.238225,93.7669456 L102.73762,94.3695921 L102.2118,94.9909379 C99.6525215,97.9896364 95.2589832,98.570334 92.0162321,96.3796257 L91.7969537,96.2259605 L89.555,94.597 L89.1231323,94.9635657 C87.4970183,96.3166042 85.78452,97.56302 83.9966569,98.694069 L83.513,98.994 L84.3671973,101.622919 C85.586643,105.375845 83.7801918,109.428874 80.1954235,111.051104 L79.9591259,111.153427 L79.1862568,111.469261 L78.4527438,111.760985 L77.7573241,112.028879 L77.1267171,112.26307 L76.7817399,112.386795 L76.0640684,112.633005 L75.5231312,112.806096 L74.6736246,113.059042 L74.0051616,113.245605 L73.2919112,113.435281 L72.5326866,113.628584 L71.7420706,113.822194 C67.9052734,114.744778 64.0056724,112.627134 62.6732677,108.941271 L62.5900385,108.698681 L61.735,106.066 L61.5763091,106.079537 C60.6865225,106.144234 59.792951,106.184796 58.8962844,106.201034 L57.9986117,106.209157 L57.9986117,98.2091565 C59.7197137,98.2091565 61.4264566,98.1025267 63.1125294,97.8913135 L63.953814,97.777001 L67.2948737,97.2874502 L70.119,105.983 L70.5932924,105.867312 L71.274915,105.693841 L71.8989849,105.527991 L72.4639322,105.370486 L73.0019599,105.211766 L73.6290483,105.012235 L74.3666271,104.754333 L74.9247795,104.547286 L75.5340093,104.312552 L76.1930537,104.050411 L76.679,103.851 L73.855088,95.1575902 L76.847221,93.5905466 C80.1573547,91.8569592 83.2145361,89.672849 85.9312272,87.1070927 L86.4699996,86.5888732 L88.8847055,84.2235001 L96.291,89.602 L96.6066559,89.2305377 L97.0561368,88.6895496 L97.6511996,87.9535068 L98.148459,87.3131682 L98.4257682,86.9405943 L98.7015227,86.5540935 L99.0051553,86.1122086 L99.3350112,85.6166306 L99.6899148,85.06863 L100.06901,84.4691771 L100.345,84.022 L92.9461783,78.646058 L94.453116,75.6169842 C95.2623801,73.9902939 95.961764,72.3101256 96.5458513,70.5864485 C97.1511877,68.8000638 97.631653,66.9700513 97.9828593,65.1066606 L98.1254496,64.3060509 L98.6854412,60.9681949 L107.837608,60.9676233 L107.897211,60.1228526 L107.937576,59.4493469 L107.967492,58.8337264 L107.993402,58.0233999 L107.997932,57.3294249 L107.988898,56.8237166 L107.956143,55.9534343 L107.92116,55.3014853 L107.875505,54.593691 L107.836,54.069 L98.6853518,54.0695872 L98.1251969,50.7315277 C97.7736662,48.6366962 97.2596056,46.5817678 96.5891331,44.5810732 C96.0808795,43.0644409 95.4834768,41.5811973 94.8005892,40.1381046 L94.4520386,39.4199354 L92.9448229,36.390756 L100.345,31.014 L100.088451,30.5988385 L99.7127005,30.0039393 L99.1963794,29.2102359 L98.8855781,28.7488609 L98.4721217,28.160155 L98.1899012,27.778662 L97.8636557,27.3535692 L97.4944812,26.8869716 L97.083222,26.3803783 L96.6305362,25.8349024 L96.291,25.434 L88.8842773,30.8150457 L86.4692588,28.4494861 C83.7981503,25.8330812 80.7806902,23.5937798 77.5044308,21.800466 L76.8457541,21.4477702 L73.8532997,19.8807139 L76.678,11.184 L75.8939156,10.8665921 L75.2656045,10.6199701 L74.6891408,10.4011881 L74.1665078,10.2106123 L73.7004591,10.0486633 L73.2675187,9.9072455 L72.7550526,9.75120259 L72.2404416,9.60321534 L71.6385666,9.43883969 L70.9886664,9.26933263 L70.119,9.054 L67.2932876,17.7512992 L63.952598,17.2619058 C61.9941488,16.9750033 60.0061483,16.8299284 57.9986117,16.8299284 C56.2774579,16.8299284 54.5706641,16.9365646 52.884542,17.1477905 L52.0432328,17.2621098 L48.7020873,17.7516882 L45.876,9.053 L45.0549283,9.25771304 L44.4016531,9.42750364 L43.8066873,9.58934224 L43.0277226,9.81518134 L42.5841931,9.95365939 L42.1031419,10.1150507 L41.6290581,10.2830962 L41.0712162,10.4900154 L40.4623312,10.7246002 L39.8036652,10.9865686 L39.317,11.185 L42.1428073,19.8812032 L39.1505714,21.4482404 C35.8401287,23.1819227 32.782676,25.3662081 30.0657733,27.9322028 L29.5269594,28.4504708 L27.1116818,30.8164466 L19.704,25.434 L18.9403714,26.3484774 L18.5328056,26.8496603 L18.0023158,27.5229581 L17.7042762,27.9161518 L17.4152969,28.3135658 L17.1462075,28.6984128 L16.8294598,29.1670599 L16.4927824,29.6798306 L15.9278228,30.568093 L15.651,31.014 L23.0513125,36.3926469 L21.5444818,39.4213482 C20.7242464,41.0700059 20.0168901,42.7735784 19.4280419,44.5216905 C18.8328588,46.2886087 18.3597487,48.0980035 18.0129404,49.9399819 L17.8720534,50.7313673 L17.3119858,54.0688239 L8.16,54.07 L8.10008193,54.9152534 L8.05968927,55.5890232 L8.02975238,56.2048802 L8.01000631,56.7608304 L8,57.2541024 L7.99929038,57.7095597 L8.00831522,58.2149955 L8.02752481,58.7803186 L8.05718386,59.4035306 L8.09744996,60.0831481 L8.16,60.967 L17.311765,60.9680893 L17.8717727,64.3060447 C18.2389731,66.4947622 18.7835844,68.6398459 19.4985727,70.7249138 C19.9909669,72.160847 20.5634865,73.566297 21.2129764,74.9354731 L21.544121,75.6170115 L23.0510335,78.6460292 L15.651,84.023 L16.0989815,84.7411492 L16.4622024,85.3097526 L16.7998523,85.8253843 L17.1105422,86.286583 L17.5238345,86.87505 L17.8062058,87.2567435 L18.1326356,87.6820652 L18.5020272,88.1489187 L18.9135355,88.6557937 L19.3665021,89.2015762 L19.705,89.602 L27.1110578,84.2219298 L29.526358,86.5880251 C32.1974444,89.2046957 35.2149347,91.4442477 38.491266,93.2377833 L39.1499575,93.5905231 L42.141984,95.1575157 L39.317,103.851 L40.1021855,104.170066 L40.7302542,104.41658 L41.3064994,104.635269 L41.8289386,104.825767 L42.2948038,104.987649 L42.9619882,105.201743 L43.4760734,105.353965 L44.0493271,105.514534 L44.6801779,105.682726 L45.3674384,105.858026 L46.1421276,106.047743 L44.2392068,113.818129 L43.4282998,113.619363 L42.6634046,113.424224 L41.9433337,113.232198 L41.2665158,113.04256 L40.3275525,112.760147 L39.7512459,112.572149 L39.1545166,112.36523 L38.5224895,112.13503 L37.8531819,111.881186 L37.1366373,111.599946 L36.0228075,111.147343 C32.3764924,109.638516 30.4663685,105.633178 31.5547503,101.868626 L31.6299959,101.623482 L32.483,98.993 L32.000189,98.6938303 C30.2121627,97.562655 28.4995169,96.3160914 26.8732743,94.9628861 L26.441,94.597 L24.2011335,96.2255125 C21.0118022,98.5427512 16.6043602,98.080307 13.9529357,95.1798114 L13.7749127,94.9782763 L13.2357067,94.3408324 L12.7315932,93.7333676 L12.2619137,93.1547682 L11.8258234,92.6035237 L11.4222253,92.0775376 L11.0632195,91.5927718 L10.8764446,91.3323004 L10.5153046,90.8141504 L10.1392917,90.256419 L9.74701679,89.657645 L9.33748078,89.0167212 L8.91882612,88.347203 C8.84590261,88.2294177 8.77214237,88.1097069 8.69755466,87.9880868 C6.63648338,84.62742 7.44188514,80.2694713 10.5278584,77.8620921 L10.7417928,77.7010098 L12.973,76.079 L12.887523,75.8721254 C12.659218,75.3114663 12.4413563,74.7463361 12.2340809,74.1769953 L11.9311252,73.3198587 C11.4551662,71.9318543 11.0422243,70.521683 10.6937681,69.0928651 L10.664,68.967 L7.90419345,68.9674905 C3.95626241,68.967495 0.658619912,65.9941799 0.226665689,62.0889132 L0.203007316,61.8383948 L0.170281235,61.4080681 L0.114164103,60.5984674 L0.0688584158,59.8331153 L0.0345217722,59.1105286 L0.0114188679,58.4287086 L0,57.784902 L0,57.178733 L0.0131117962,56.5470519 L0.0367531325,55.8745806 L0.0713699883,55.159325 L0.143547583,54.0030771 L0.20377101,53.1909822 C0.51222558,49.2552094 3.73397306,46.199996 7.65256394,46.0743709 L7.90361178,46.0703506 L10.663,46.07 L10.6664304,46.0589028 C10.9332616,44.9532775 11.2386799,43.8587275 11.582011,42.7768785 L11.8466075,41.9678986 C12.1111836,41.1824523 12.3957109,40.40455 12.6998268,39.6348565 L12.973,38.958 L10.7418132,37.3361627 C7.5508219,35.0177774 6.62939358,30.6798976 8.57252448,27.2611678 L8.70631686,27.0346465 L9.15113671,26.3167081 L9.77194502,25.3408036 L10.1688919,24.7360361 L10.5322604,24.1978803 L10.7843474,23.834989 L10.9201505,23.6432854 L11.2770159,23.1533116 L11.7075492,22.5856136 L11.861343,22.387906 L12.2926465,21.8438676 L12.7646433,21.2634388 L13.5119438,20.3680609 L13.7852395,20.0465047 C16.3445384,17.0479619 20.7379466,16.4673234 23.9813548,18.6584833 L24.2006792,18.8121798 L26.442,20.441 L26.8740099,20.0755868 C28.5002589,18.7224301 30.2129068,17.4759141 32.0009314,16.344785 L32.484,16.044 L31.6299238,13.4137921 C30.410494,9.66078765 32.2170678,5.60770999 35.8019471,3.9855726 L36.038252,3.8832556 L36.8106872,3.56762735 L37.5437943,3.27608952 L38.2388353,3.0083602 L39.0813428,2.69775 L39.5221389,2.542922 L40.1121881,2.34557332 L40.8789132,2.10779598 L41.6508483,1.88548003 L42.341794,1.69737649 L43.078184,1.50588175 L43.8446065,1.31455124 C43.9792146,1.28158461 44.1159136,1.24841718 44.2547134,1.21504596 C48.0914359,0.292600777 51.9908967,2.41021532 53.3233234,6.09607754 Z M58.5,30.5 C73.8093333,30.5 86.2489867,42.7865601 86.4962488,58.0369688 L86.5,58.5 L78.5,58.5 C78.5,47.454305 69.545695,38.5 58.5,38.5 C47.454305,38.5 38.5,47.454305 38.5,58.5 C38.5,69.545695 47.454305,78.5 58.5,78.5 C63.7549421,78.5 68.6784136,76.4689822 72.3785977,72.9009363 L72.6927397,72.5913512 L78.3696842,78.2280436 C73.1494622,83.4855436 66.0586487,86.5 58.5,86.5 C43.036027,86.5 30.5,73.963973 30.5,58.5 C30.5,43.036027 43.036027,30.5 58.5,30.5 Z" id="Shape" fill="#000000" fill-rule="nonzero"></path>
  </g>
</svg>
