<?xml version="1.0" encoding="UTF-8"?><svg viewBox="0 0 116 116" version="1.1" xmlns="http://www.w3.org/2000/svg" xmlns:xlink="http://www.w3.org/1999/xlink">
  <title>gif</title>
  <g id="gif" stroke="none" stroke-width="1" fill="none" fill-rule="evenodd">
    <path d="M110.5,66.4944702 L110.5,98.5 C110.5,105.025457 105.291456,110.334393 98.8049748,110.4962 L98.5,110.5 L18.5,110.5 C11.9745433,110.5 6.66560725,105.291456 6.50379986,98.8049748 L6.5,98.5 L6.5,90.5 L14.5,90.5 L14.5,98.5 C14.5,100.642195 16.1839685,102.391079 18.3003597,102.495105 L18.5,102.5 L98.5,102.5 C100.642195,102.5 102.391079,100.816032 102.495105,98.6996403 L102.5,98.5 L102.5,66.4944702 L110.5,66.4944702 Z M34.5,30.5 C41.0254567,30.5 46.3343928,35.7085444 46.4962001,42.1950252 L46.5,42.5 L38.5,42.5 C38.5,40.3578046 36.8160315,38.6089211 34.6996403,38.5048953 L34.5,38.5 L18.5,38.5 C16.3578046,38.5 14.6089211,40.1839685 14.5048953,42.3003597 L14.5,42.5 L14.5,74.5 C14.5,76.6421954 16.1839685,78.3910789 18.3003597,78.4951047 L18.5,78.5 L34.5,78.5 C36.6421954,78.5 38.3910789,76.8160315 38.4951047,74.6996403 L38.5,74.5 L38.5,62.5 L30.5,62.5 L30.5,54.5 L39.5,54.5 C43.2854517,54.5 46.3690987,57.5047834 46.495941,61.2593502 L46.5,61.5 L46.5,74.5 C46.5,81.0254567 41.2914556,86.3343928 34.8049748,86.4962001 L34.5,86.5 L18.5,86.5 C11.9745433,86.5 6.66560725,81.2914556 6.50379986,74.8049748 L6.5,74.5 L6.5,42.5 C6.5,35.9745433 11.7085444,30.6656072 18.1950252,30.5037999 L18.5,30.5 L34.5,30.5 Z M98.5,6.5 C105.025457,6.5 110.334393,11.7085444 110.4962,18.1950252 L110.5,18.5 L110.5,38.5 L78.5,38.5 L78.5,54.5 L98.5,54.5 L98.5,62.5 L78.5,62.5 L78.5,82.5 L70.5,82.5 L70.5,37.5 C70.5,33.7145483 73.5047834,30.6309013 77.2593502,30.504059 L77.5,30.5 L102.5,30.5 L102.5,18.5 C102.5,16.3578046 100.816032,14.6089211 98.6996403,14.5048953 L98.5,14.5 L18.5,14.5 C16.3578046,14.5 14.6089211,16.1839685 14.5048953,18.3003597 L14.5,18.5 L14.5,26.5 L6.5,26.5 L6.5,18.5 C6.5,11.9745433 11.7085444,6.66560725 18.1950252,6.50379986 L18.5,6.5 L98.5,6.5 Z M62.5,34.5 L62.5,82.5 L54.5,82.5 L54.5,34.5 L62.5,34.5 Z" id="Shape" fill="#000000" fill-rule="nonzero"></path>
  </g>
</svg>
