<?xml version="1.0" encoding="UTF-8"?><svg viewBox="0 0 116 116" version="1.1" xmlns="http://www.w3.org/2000/svg" xmlns:xlink="http://www.w3.org/1999/xlink">
  <title>grid-rect</title>
  <g id="grid-rect" stroke="none" stroke-width="1" fill="none" fill-rule="evenodd">
    <path d="M98.5,18.5 C105.025457,18.5 110.334393,23.7085444 110.4962,30.1950252 L110.5,30.5 L110.5,62.5 L50.5,62.5 L50.5,54.5 L102.5,54.5 L102.5,30.5 C102.5,28.3578046 100.816032,26.6089211 98.6996403,26.5048953 L98.5,26.5 L78.5,26.5 L78.5,50.5 L70.5,50.5 L70.5,26.5 L18.5,26.5 C16.3578046,26.5 14.6089211,28.1839685 14.5048953,30.3003597 L14.5,30.5 L14.5,54.5 L38.5,54.5 L38.5,30.5 L46.5,30.5 L46.5,90.5 L70.5,90.5 L70.5,66 L78.5,66 L78.5,98.5 L18.5,98.5 C11.9745433,98.5 6.66560725,93.2914556 6.50379986,86.8049748 L6.5,86.5 L6.5,66.5 L14.5,66.5 L14.5,86.5 C14.5,88.6421954 16.1839685,90.3910789 18.3003597,90.4951047 L18.5,90.5 L38.5,90.5 L38.5,62.5 L6.5,62.5 L6.5,30.5 C6.5,23.9745433 11.7085444,18.6656072 18.1950252,18.5037999 L18.5,18.5 L98.5,18.5 Z M110.5,66 L110.5,86.5 C110.5,93.0254567 105.291456,98.3343928 98.8049748,98.4962001 L98.5,98.5 L82.5,98.5 L82.5,90.5 L98.5,90.5 C100.642195,90.5 102.391079,88.8160315 102.495105,86.6996403 L102.5,86.5 L102.5,66 L110.5,66 Z" id="Shape" fill="#000000" fill-rule="nonzero"></path>
  </g>
</svg>
