<?xml version="1.0" encoding="UTF-8"?><svg viewBox="0 0 116 116" version="1.1" xmlns="http://www.w3.org/2000/svg" xmlns:xlink="http://www.w3.org/1999/xlink">
  <title>grid</title>
  <g id="grid" stroke="none" stroke-width="1" fill="none" fill-rule="evenodd">
    <path d="M50.5,6.5 L50.5,14.5 L18.5,14.5 C16.3578046,14.5 14.6089211,16.1839685 14.5048953,18.3003597 L14.5,18.5 L14.5,54.5 L54.5,54.5 L54.5,6.5 L98.5,6.5 C105.025457,6.5 110.334393,11.7085444 110.4962,18.1950252 L110.5,18.5 L110.5,98.5 C110.5,105.025457 105.291456,110.334393 98.8049748,110.4962 L98.5,110.5 L54.5,110.5 L54.5,66.5 L62.5,66.5 L62.5,102.5 L98.5,102.5 C100.642195,102.5 102.391079,100.816032 102.495105,98.6996403 L102.5,98.5 L102.5,18.5 C102.5,16.3578046 100.816032,14.6089211 98.6996403,14.5048953 L98.5,14.5 L62.5,14.5 L62.5,62.5 L6.5,62.5 L6.5,18.5 C6.5,11.9745433 11.7085444,6.66560725 18.1950252,6.50379986 L18.5,6.5 L50.5,6.5 Z M14.5,66.5 L14.5,98.5 C14.5,100.642195 16.1839685,102.391079 18.3003597,102.495105 L18.5,102.5 L51,102.5 L51,110.5 L18.5,110.5 C11.9745433,110.5 6.66560725,105.291456 6.50379986,98.8049748 L6.5,98.5 L6.5,66.5 L14.5,66.5 Z M98.5,54.5 L98.5,62.5 L66.5,62.5 L66.5,54.5 L98.5,54.5 Z" id="Shape" fill="#000000" fill-rule="nonzero"></path>
  </g>
</svg>
