<?xml version="1.0" encoding="UTF-8"?><svg viewBox="0 0 116 116" version="1.1" xmlns="http://www.w3.org/2000/svg" xmlns:xlink="http://www.w3.org/1999/xlink">
  <title>hand</title>
  <g id="hand" stroke="none" stroke-width="1" fill="none" fill-rule="evenodd">
    <path d="M60.5,2.5 C65.9292399,2.5 70.3479317,6.82667079 70.4961582,12.2200952 L70.5,12.499 L70.5103168,12.4915288 C72.1103022,11.2929454 74.0813234,10.5626213 76.2200952,10.5038418 L76.5,10.5 C81.9292399,10.5 86.3479317,14.8266708 86.4961582,20.2200952 L86.5,20.5 L86.5,65.787 L92.0339407,57.4879865 C92.2863502,57.1093721 92.5681849,56.7514443 92.8767489,56.4174911 L93.1131417,56.1715729 C96.4862996,52.7984149 101.955269,52.7984149 105.328427,56.1715729 C108.93236,59.7755059 109.53497,65.3882279 106.816127,69.6664395 L106.645514,69.9266749 L85.8137706,100.740296 L79.1862294,96.2597044 L100.017973,65.4460837 C100.784054,64.3129228 100.638768,62.7956224 99.6715729,61.8284271 C99.4226093,61.5794635 99.0189595,61.5794635 98.7699959,61.8284271 L98.7277701,61.8750406 L98.690343,61.925588 L91.3243521,72.9745745 C89.1798848,76.1912753 84.8337994,77.0604924 81.6170986,74.9160251 C79.7446076,73.6676978 78.591128,71.5989573 78.5051687,69.3609987 L78.5,69.0916731 L78.5,20.5 C78.5,19.3954305 77.6045695,18.5 76.5,18.5 C75.4456382,18.5 74.5818349,19.3158778 74.5054857,20.3507377 L74.5,20.5 L74.5,52.5 C74.5,55.8137085 71.8137085,58.5 68.5,58.5 C65.2616031,58.5 62.6224282,55.9344251 62.5041385,52.7249383 L62.5,52.5 L62.5,12.5 C62.5,11.3954305 61.6045695,10.5 60.5,10.5 C59.4456382,10.5 58.5818349,11.3158778 58.5054857,12.3507377 L58.5,12.5 L58.5,52.5 C58.5,55.8137085 55.8137085,58.5 52.5,58.5 C49.2616031,58.5 46.6224282,55.9344251 46.5041385,52.7249383 L46.5,52.5 L46.5,20.5 C46.5,19.3954305 45.6045695,18.5 44.5,18.5 C43.4456382,18.5 42.5818349,19.3158778 42.5054857,20.3507377 L42.5,20.5 L42.5,52.5 C42.5,55.8137085 39.8137085,58.5 36.5,58.5 C33.2616031,58.5 30.6224282,55.9344251 30.5041385,52.7249383 L30.5,52.5 L30.5,32.5 C30.5,31.3954305 29.6045695,30.5 28.5,30.5 C27.4456382,30.5 26.5818349,31.3158778 26.5054857,32.3507377 L26.5,32.5 L26.5,74.5 C26.5,89.8093333 38.7865601,102.248987 54.0369688,102.496249 L54.5,102.5 L58.5,102.5 L58.5,110.5 L54.5,110.5 C34.8165715,110.5 18.8227314,94.7029942 18.504823,75.0953258 L18.5,74.5 L18.5,32.5 C18.5,26.9771525 22.9771525,22.5 28.5,22.5 C30.6217719,22.5 32.5892046,23.1608048 34.2077237,24.28784 L34.5,24.499 L34.5,20.5 C34.5,15.0707601 38.8266708,10.6520683 44.2200952,10.5038418 L44.5,10.5 C46.6217719,10.5 48.5892046,11.1608048 50.2077237,12.28784 L50.5,12.499 L50.5038418,12.2200952 C50.6495127,6.91966086 54.9196609,2.64951265 60.2200952,2.5038418 L60.5,2.5 Z" id="Path-323" fill="#000000" fill-rule="nonzero"></path>
  </g>
</svg>
