<?xml version="1.0" encoding="UTF-8"?><svg viewBox="0 0 116 116" version="1.1" xmlns="http://www.w3.org/2000/svg" xmlns:xlink="http://www.w3.org/1999/xlink">
  <title>hand-point</title>
  <g id="hand-point" stroke="none" stroke-width="1" fill="none" fill-rule="evenodd">
    <path d="M46.5079249,6.5 C41.078685,6.5 36.6599932,10.8266708 36.5117667,16.2200952 L36.5079249,16.5 L36.5079249,65.787 L30.9739842,57.4879865 C30.7215747,57.1093721 30.43974,56.7514443 30.131176,56.4174911 L29.8947832,56.1715729 C26.5216253,52.7984149 21.0526557,52.7984149 17.6794978,56.1715729 C14.0755648,59.7755059 13.472955,65.3882279 16.1917981,69.6664395 L16.3624107,69.9266749 L37.1941543,100.740296 L43.8216955,96.2597044 L22.9899519,65.4460837 C22.2238713,64.3129228 22.3691568,62.7956224 23.336352,61.8284271 C23.5853156,61.5794635 23.9889654,61.5794635 24.237929,61.8284271 L24.2801548,61.8750406 L24.3175819,61.925588 L31.6835728,72.9745745 C33.82804,76.1912753 38.1741254,77.0604924 41.3908263,74.9160251 C43.2633173,73.6676978 44.4167969,71.5989573 44.5027562,69.3609987 L44.5079249,69.0916731 L44.5079249,16.5 C44.5079249,15.3954305 45.4033554,14.5 46.5079249,14.5 C47.5622867,14.5 48.42609,15.3158778 48.5024392,16.3507377 L48.5079249,16.5 L48.5079249,58.5 L56.5079249,58.5 L56.5079249,46.5 L58.5079249,46.5 C59.5622867,46.5 60.42609,47.3158778 60.5024392,48.3507377 L60.5079249,48.491 L60.5079249,58.5 L68.5079249,58.5 L68.5079249,50.5 L70.5079249,50.5 C71.5622867,50.5 72.42609,51.3158778 72.5024392,52.3507377 L72.5079249,52.5 L72.5079249,58.5 L80.5079249,58.5 L80.5079249,54.5 L82.5079249,54.5 C83.5622867,54.5 84.42609,55.3158778 84.5024392,56.3507377 L84.5079249,56.5 L84.5079249,82.5 C84.5079249,93.4306357 75.7391963,102.313225 64.8524143,102.497093 L64.5079249,102.5 L64.5079249,110.5 C79.8172582,110.5 92.2569116,98.2134399 92.5041737,82.9630312 L92.5079249,82.5 L92.5079249,56.5 C92.5079249,51.0707601 88.1812541,46.6520683 82.7878297,46.5038418 L82.5079249,46.5 L78.5089249,46.5 L78.3574204,46.3037439 C76.5798434,44.0549559 73.8565022,42.5881776 70.7878297,42.5038418 L70.5079249,42.5 L66.5089249,42.5 L66.3574204,42.3037439 C64.5798434,40.0549559 61.8565022,38.5881776 58.7878297,38.5038418 L58.5079249,38.5 L56.5079249,38.5 L56.5079249,16.5 C56.5079249,11.0707601 52.1812541,6.65206828 46.7878297,6.5038418 L46.5079249,6.5 Z" id="Path" fill="#000000" fill-rule="nonzero"></path>
  </g>
</svg>
