<?xml version="1.0" encoding="UTF-8"?><svg viewBox="0 0 116 116" version="1.1" xmlns="http://www.w3.org/2000/svg" xmlns:xlink="http://www.w3.org/1999/xlink">
  <title>headphone</title>
  <g id="headphone" stroke="none" stroke-width="1" fill="none" fill-rule="evenodd">
    <path d="M58.5,6.5 C85.7442841,6.5 108.275542,27.5142178 110.345428,54.4627696 L110.401872,55.2811933 L102.416784,55.7694155 C101.002837,32.6437011 81.7845489,14.5 58.5,14.5 C34.199471,14.5 14.5,34.199471 14.5,58.5 C14.5,58.7064643 14.5058326,58.923511 14.5174988,59.1510902 L14.5486098,59.6202772 L14.5699995,59.8653756 L14.5699995,59.8653756 L14.6244486,60.3765265 C14.6555632,60.6390757 14.6925133,60.9120742 14.7352998,61.1954722 L14.8286551,61.7761195 L14.9375762,62.3844102 L14.9978745,62.6988941 L14.9978745,62.6988941 L15.1301478,63.3484836 L15.2779916,64.0254947 L15.5289561,65.092233 L15.5289561,65.092233 L15.8149648,66.2201713 L15.8149648,66.2201713 L16.0251094,67.0059823 L16.2508339,67.8187716 L16.618637,69.0883458 L16.8833195,69.9681927 L17.1635885,70.8747076 L17.4594458,71.8078017 L17.7708933,72.7673863 L18.097933,73.7533728 L18.6177318,75.281662 L18.9837601,76.3332651 L19.365387,77.4109597 L19.7626145,78.5146572 L20.4093255,80.278 L27.0407434,97.081529 C27.9683,99.4004203 30.52942,100.587303 32.8822387,99.8290011 L33.1671811,99.7270887 C35.3567859,98.8620596 36.4643795,96.4346151 35.7160984,94.2293795 L35.6404863,94.0233441 L25.9361957,69.4599344 C25.0177913,67.1992466 22.489415,66.0766241 20.2118197,66.8777182 L20.0055082,66.9558663 L16.9944918,59.5441337 C23.3197603,56.9744934 30.5170923,59.9339682 33.2261036,66.159285 L33.3929329,66.5612481 L43.0809022,91.0839205 C45.5576628,97.3532209 42.5686053,104.430677 36.3981655,107.0481 L35.9044938,107.245317 C29.5213418,109.638999 22.4068446,106.578158 19.7283458,100.330545 L19.6060599,100.035363 L14.8293255,87.932 L14.7736895,87.9541699 L14.2488086,86.6010653 L13.4937005,84.6234369 L12.9303255,83.12 L12.2792232,81.4682711 L12.3173255,81.453 L12.0994767,80.8543315 L11.4603743,79.0622264 L11.0557956,77.9015163 L10.6684107,76.7679191 L10.1195764,75.1181561 L10.1195764,75.1181561 L9.77518496,74.0519338 L9.44799437,73.0124985 L8.98946436,71.5033681 L8.98946436,71.5033681 L8.70528447,70.5304937 L8.43831231,69.5840807 L8.18854986,68.6640363 L7.95599909,67.7702673 L7.74066198,66.9026806 L7.44993623,65.6501891 L7.44993623,65.6501891 L7.27764188,64.8476513 L7.1979523,64.4560845 L7.1979523,64.4560845 L7.05148953,63.692297 C6.68388598,61.6898612 6.5,59.961742 6.5,58.5 C6.5,29.781193 29.781193,6.5 58.5,6.5 Z M100.005508,59.5441337 C102.948304,60.7396447 105.285676,62.9606379 106.641274,65.7557814 L106.79331,66.0808203 L99.4999894,69.3682917 C99.0077101,68.2761601 98.1271383,67.416004 96.9944918,66.9558663 C94.782795,66.0573645 92.2677036,67.0232498 91.2419721,69.0627354 L91.1502278,69.2570584 L91.0474831,69.5006717 L81.3595137,94.0233441 C80.4944847,96.2129489 81.5095136,98.680532 83.6010535,99.6298921 L83.8002647,99.7143919 L83.9044938,99.7546833 C86.2429968,100.631622 88.8456153,99.5387342 89.8704843,97.2891962 L89.9592566,97.081529 L99.5791503,73.0317945 L107.006964,76.00292 L106.787326,76.55 L114.22631,79.4541699 L106.22631,99.9541699 L98.7736895,97.0458301 L106.141326,78.164 L97.3870701,100.052654 C94.8552221,106.382274 87.7999757,109.57732 81.364053,107.341686 L81.0628424,107.232905 L80.8933953,107.167505 C74.6240949,104.690744 71.5004827,97.6716348 73.8069942,91.3783658 L73.9190978,91.0839205 L83.6370255,66.4875681 L83.8009692,66.0976058 C86.5382141,59.9000643 93.7150383,56.9886303 100.005508,59.5441337 Z M10.2006745,77.4817746 L18.2006745,96.9817746 L10.7993255,100.018225 L2.79932553,80.5182254 L10.2006745,77.4817746 Z" id="Shape" fill="#000000" fill-rule="nonzero"></path>
  </g>
</svg>
