<?xml version="1.0" encoding="UTF-8"?><svg viewBox="0 0 116 116" version="1.1" xmlns="http://www.w3.org/2000/svg" xmlns:xlink="http://www.w3.org/1999/xlink">
  <title>heart</title>
  <g id="heart" stroke="none" stroke-width="1" fill="none" fill-rule="evenodd" transform="translate(0.000000, 0.000000)">
    <path d="M62.9306023,18.5432003 C74.0102297,8.69464268 90.8462463,9.18939202 101.328427,19.6715729 C110.916838,29.259984 110.186455,43.2213203 101.901061,56.6054185 L101.48641,57.2612082 L101.185076,57.7230324 L100.695699,58.4527532 L100.161441,59.226901 L99.5822655,60.0455269 L99.1711776,60.6160129 L98.2890244,61.8164183 L97.3268326,63.0961691 L96.5526135,64.1081258 L95.4501545,65.5270235 L94.2674289,67.0256006 L92.6760206,69.0110562 L91.3123921,70.6893561 L89.8682275,72.4477299 L88.3434441,74.2862993 L86.3239682,76.6974709 L84.178234,79.2343748 L81.9060795,81.8972482 L79.0123915,85.2593098 L75.9361454,88.8035188 L72.6770617,92.530285 L68.6433376,97.1094575 L64.9871459,101.23317 L61.0660613,105.636842 L60.127,104.799 L60.1099192,104.804201 C58.043142,105.290575 55.7870937,104.831717 54.0415183,103.387459 L53.842411,103.216439 C53.6397919,103.035819 53.44785,102.843568 53.2691333,102.64243 L47.1919569,95.7923393 L44.3268999,92.5482388 L40.2454362,87.9071819 L36.4224732,83.5350778 L34.0169732,80.7691157 L30.6227319,76.842367 L27.4844557,73.181092 L25.5340049,70.887083 L23.2548961,68.1840883 L21.15189,65.6631853 L19.5959095,63.7770613 L18.5024866,62.4383972 L17.4719853,61.1646336 L15.893986,59.1854749 L14.7568223,57.7311155 L13.9768187,56.7153235 L13.0337469,55.4605939 L12.3989888,54.5940801 L11.8262806,53.791271 L11.4788886,53.2913758 L11.1589864,52.819673 L10.8665386,52.3761142 L10.6015102,51.9606512 L10.3638657,51.5732355 L10.1535702,51.2138188 L9.97058824,50.8823529 C4.64647691,40.8996442 6.31893698,29.0242088 15.6715729,19.6715729 C26.0489319,9.29421383 42.6536854,8.70553641 53.735294,18.2508463 L54.0693977,18.5432003 L66.815477,29.8730486 C71.7692066,34.2763638 72.2154056,41.8617474 67.8120904,46.815477 C67.6559276,46.9911601 67.4946369,47.1622173 67.3284271,47.3284271 C62.4526215,52.2042328 54.5473785,52.2042328 49.6715729,47.3284271 C44.9849631,42.6418174 44.9849631,35.0433217 49.6715729,30.3567119 L49.9244954,30.1111126 L50.184523,29.8730486 L55.4994337,35.8523232 C55.4408647,35.9043845 55.3838379,35.9581554 55.3284271,36.0135662 C53.7660117,37.5759816 53.7660117,40.1091575 55.3284271,41.6715729 C57.0800385,43.4231842 59.9199615,43.4231842 61.6715729,41.6715729 C61.7269837,41.6161621 61.7807545,41.5591353 61.8328159,41.5005663 C63.2518546,39.9041477 63.1601543,37.4879064 61.6606997,36.0025846 L61.5005663,35.8523232 L48.754487,24.5224749 C40.8407438,17.4880365 28.8154377,17.8414166 21.3284271,25.3284271 C14.4836956,32.1731587 13.3504795,40.2196492 17.0294118,47.1176471 L17.1038776,47.2543402 L17.2742995,47.5504445 L17.4733463,47.8768001 L17.7009836,48.2333599 L18.0959718,48.8247291 L18.3949353,49.2565926 L18.8967519,49.960696 L19.4625111,50.7322275 L20.0920969,51.5710276 L21.0306303,52.7937924 L21.8086944,53.7889328 L22.9447785,55.2195729 L23.8706901,56.370186 L24.8597719,57.5871646 L25.911908,58.8703492 L27.0269824,60.2195806 L29.0249883,62.6146372 L31.1969647,65.1919762 L34.5289811,69.1050805 L37.6544367,72.7408447 L41.0276294,76.6352704 L44.6476321,80.7870827 L48.5135179,85.1950064 L51.2269192,88.2752767 L56.2365124,93.9371467 L58.5,96.487 L59.6041497,95.2472542 L64.1373322,90.125347 L67.8625535,85.8850586 L70.8760261,82.4302952 L73.7234768,79.1418554 L76.8353391,75.5160408 L79.3222265,72.5892129 L81.2672222,70.2781042 L83.4481101,67.658585 L85.1377596,65.6040745 L86.7111135,63.6665354 L87.5992444,62.5602454 L88.9862276,60.8102968 L89.762426,59.8167223 L90.496593,58.8654992 L91.4100467,57.6631599 L92.2486496,56.5363 L93.0123284,55.4850269 L93.7010098,54.5094479 L94.1682596,53.8275026 L94.5932511,53.1882411 L94.8530867,52.7858023 L95.0989394,52.3945815 C101.642149,41.8247814 102.165427,31.8222814 95.6715729,25.3284271 C88.2747673,17.9316215 76.4483638,17.4975872 68.5333273,24.2714349 L68.245513,24.5224749 L62.9306023,18.5432003 Z" id="Path" fill="#000000" fill-rule="nonzero"></path>
  </g>
</svg>
