<?xml version="1.0" encoding="UTF-8"?><svg viewBox="0 0 116 116" version="1.1" xmlns="http://www.w3.org/2000/svg" xmlns:xlink="http://www.w3.org/1999/xlink">
  <title>home</title>
  <g id="home" stroke="none" stroke-width="1" fill="none" fill-rule="evenodd">
    <path d="M53.5650022,9.75635082 C56.2405164,7.10841925 60.5154266,7.05915628 63.2505032,9.60042924 L63.4387846,9.7819304 L105.914214,52.2573593 C107.039432,53.3825776 107.671573,54.9087011 107.671573,56.5 C107.671573,59.7383969 105.105998,62.3775718 101.896511,62.4958615 L101.671573,62.5 L94.5,62.5 L94.5,98.5 C94.5,105.025457 89.2914556,110.334393 82.8049748,110.4962 L82.5,110.5 L58.5,110.5 L58.5,102.5 L82.5,102.5 C84.6421954,102.5 86.3910789,100.816032 86.4951047,98.6996403 L86.5,98.5 L86.5,54.5 L96.843,54.5 L58.485,16.142 L19.727,54.5 L30.5,54.5 L30.5,98.5 C30.5,100.642195 32.1839685,102.391079 34.3003597,102.495105 L34.5,102.5 L42.5,102.5 L42.5,77.5 C42.5,73.7145483 45.5047834,70.6309013 49.2593502,70.504059 L49.5,70.5 L67.5,70.5 C71.2854517,70.5 74.3690987,73.5047834 74.495941,77.2593502 L74.5,77.5 L74.5,94.5 L66.5,94.5 L66.5,78.5 L50.5,78.5 L50.5,103.5 C50.5,107.285452 47.4952166,110.369099 43.7406498,110.495941 L43.5,110.5 L34.5,110.5 C27.9745433,110.5 22.6656072,105.291456 22.5037999,98.8049748 L22.5,98.5 L22.5,62.5 L14.8640295,62.5 C13.3561953,62.5 11.9072987,61.9324537 10.8025098,60.9163486 L10.599464,60.7206014 C8.32825872,58.4257378 8.28870984,54.760276 10.466862,52.417586 L10.6434286,52.235434 L53.5650022,9.75635082 Z" id="Path" fill="#000000" fill-rule="nonzero"></path>
  </g>
</svg>
