<?xml version="1.0" encoding="UTF-8"?><svg viewBox="0 0 116 116" version="1.1" xmlns="http://www.w3.org/2000/svg" xmlns:xlink="http://www.w3.org/1999/xlink">
  <title>indent-increase</title>
  <g id="indent-increase" stroke="none" stroke-width="1" fill="none" fill-rule="evenodd">
    <path d="M98.5,14.5 C105.127417,14.5 110.5,19.872583 110.5,26.5 C110.5,33.0254567 105.291456,38.3343928 98.8049748,38.4962001 L98.5,38.5 L50.5,38.5 C48.290861,38.5 46.5,40.290861 46.5,42.5 C46.5,44.6421954 48.1839685,46.3910789 50.3003597,46.4951047 L50.5,46.5 L98.5,46.5 C105.127417,46.5 110.5,51.872583 110.5,58.5 C110.5,65.0254567 105.291456,70.3343928 98.8049748,70.4962001 L98.5,70.5 L50.5,70.5 C48.290861,70.5 46.5,72.290861 46.5,74.5 C46.5,76.6421954 48.1839685,78.3910789 50.3003597,78.4951047 L50.5,78.5 L98.5,78.5 C105.025457,78.5 110.334393,83.7085444 110.4962,90.1950252 L110.5,90.5 L110.5,98.5 L102.5,98.5 L102.5,90.5 C102.5,88.3578046 100.816032,86.6089211 98.6996403,86.5048953 L98.5,86.5 L50.5,86.5 C43.872583,86.5 38.5,81.127417 38.5,74.5 C38.5,67.9745433 43.7085444,62.6656072 50.1950252,62.5037999 L50.5,62.5 L98.5,62.5 C100.709139,62.5 102.5,60.709139 102.5,58.5 C102.5,56.3578046 100.816032,54.6089211 98.6996403,54.5048953 L98.5,54.5 L50.5,54.5 C43.872583,54.5 38.5,49.127417 38.5,42.5 C38.5,35.9745433 43.7085444,30.6656072 50.1950252,30.5037999 L50.5,30.5 L98.5,30.5 C100.709139,30.5 102.5,28.709139 102.5,26.5 C102.5,24.3578046 100.816032,22.6089211 98.6996403,22.5048953 L98.5,22.5 L10.5,22.5 L10.5,14.5 L98.5,14.5 Z M10.647502,41.125354 L29.917356,53.3879885 C30.7032019,53.8880722 31.361823,54.5642534 31.8410606,55.3629829 C33.505357,58.1368101 32.6669461,61.7150016 29.9827656,63.4698068 L29.7830776,63.5949149 L14.0724788,73.0212742 C13.2954018,73.4875205 12.4062197,73.7338096 11.5,73.7338096 C8.8112453,73.7338096 6.61818189,71.6115029 6.50461951,68.9506992 L6.5,68.7338096 L6.5,54.5 L14.5,54.5 L14.5,63.434 L22.892,58.399 L6.35249803,47.874646 L10.647502,41.125354 Z" id="Shape" fill="#000000" fill-rule="nonzero"></path>
  </g>
</svg>
