<?xml version="1.0" encoding="UTF-8"?><svg viewBox="0 0 116 116" version="1.1" xmlns="http://www.w3.org/2000/svg" xmlns:xlink="http://www.w3.org/1999/xlink">
  <title>indent-decrease</title>
  <g id="indent-decrease" stroke="none" stroke-width="1" fill="none" fill-rule="evenodd">
    <path d="M98.5,14.5 C105.127417,14.5 110.5,19.872583 110.5,26.5 C110.5,33.0254567 105.291456,38.3343928 98.8049748,38.4962001 L98.5,38.5 L18.5,38.5 C16.290861,38.5 14.5,40.290861 14.5,42.5 C14.5,44.6421954 16.1839685,46.3910789 18.3003597,46.4951047 L18.5,46.5 L66.5,46.5 C73.127417,46.5 78.5,51.872583 78.5,58.5 C78.5,65.0254567 73.2914556,70.3343928 66.8049748,70.4962001 L66.5,70.5 L18.5,70.5 C16.290861,70.5 14.5,72.290861 14.5,74.5 C14.5,76.6421954 16.1839685,78.3910789 18.3003597,78.4951047 L18.5,78.5 L66.5,78.5 C73.0254567,78.5 78.3343928,83.7085444 78.4962001,90.1950252 L78.5,90.5 L78.5,98.5 L70.5,98.5 L70.5,90.5 C70.5,88.3578046 68.8160315,86.6089211 66.6996403,86.5048953 L66.5,86.5 L18.5,86.5 C11.872583,86.5 6.5,81.127417 6.5,74.5 C6.5,67.9745433 11.7085444,62.6656072 18.1950252,62.5037999 L18.5,62.5 L66.5,62.5 C68.709139,62.5 70.5,60.709139 70.5,58.5 C70.5,56.3578046 68.8160315,54.6089211 66.6996403,54.5048953 L66.5,54.5 L18.5,54.5 C11.872583,54.5 6.5,49.127417 6.5,42.5 C6.5,35.9745433 11.7085444,30.6656072 18.1950252,30.5037999 L18.5,30.5 L98.5,30.5 C100.709139,30.5 102.5,28.709139 102.5,26.5 C102.5,24.3578046 100.816032,22.6089211 98.6996403,22.5048953 L98.5,22.5 L10.5,22.5 L10.5,14.5 L98.5,14.5 Z M106.402006,41.125354 L110.69701,47.874646 L94.1575079,58.399 L102.549508,63.434 L102.549508,54.5 L110.549508,54.5 L110.549508,68.7338096 L110.544888,68.9506992 C110.431326,71.6115029 108.238263,73.7338096 105.549508,73.7338096 C104.73391,73.7338096 103.932113,73.5343154 103.21342,73.1545231 L102.977029,73.0212742 L87.2664303,63.5949149 L87.0667423,63.4698068 C84.3825618,61.7150016 83.5441509,58.1368101 85.2084472,55.3629829 C85.6344363,54.6530011 86.2021604,54.0398476 86.8749868,53.5611317 L87.1321518,53.3879885 L106.402006,41.125354 Z" id="Shape" fill="#000000" fill-rule="nonzero"></path>
  </g>
</svg>
