<?xml version="1.0" encoding="UTF-8"?><svg viewBox="0 0 116 116" version="1.1" xmlns="http://www.w3.org/2000/svg" xmlns:xlink="http://www.w3.org/1999/xlink">
  <title>info</title>
  <g id="info" stroke="none" stroke-width="1" fill="none" fill-rule="evenodd">
    <path d="M55.8083561,6.57854721 C59.4253934,6.57854721 62.3721532,9.44833579 62.4959507,13.0352498 L62.5,13.2701736 L62.5,30.5 L58.25,30.5 C56.1789322,30.5 54.5,32.1789322 54.5,34.25 C54.5,36.2542592 56.0723611,37.8912737 58.0508414,37.994802 L58.25,38 L59,38 C60.5976809,38 61.9036609,36.75108 61.9949073,35.1762728 L62,35 L70,35 C70,40.9787016 65.2302364,45.8433652 59.2884075,45.9962926 L59,46 L58.25,46 C51.7606542,46 46.5,40.7393458 46.5,34.25 C46.5,29.1583594 49.7385708,24.8231276 54.2681698,23.1918471 L54.5,23.111 L54.5,14.679 L53.8127101,14.7463162 C31.6323619,17.0909563 14.5,35.8723615 14.5,58.5 C14.5,82.800529 34.199471,102.5 58.5,102.5 C82.800529,102.5 102.5,82.800529 102.5,58.5 C102.5,46.7653599 97.8898801,35.7719084 89.8193465,27.5952847 L89.4129414,27.1888104 L95.0337234,21.4961124 C104.86289,31.2011068 110.5,44.4083291 110.5,58.5 C110.5,87.218807 87.218807,110.5 58.5,110.5 C29.781193,110.5 6.5,87.218807 6.5,58.5 C6.5,30.9298424 28.0175108,8.19378424 55.4173422,6.58998109 C55.5475409,6.58236013 55.6779346,6.57854721 55.8083561,6.57854721 Z M62.5,58 L62.5,90.5 L54.5,90.5 L54.5,58 L62.5,58 Z" id="Shape" fill="#000000" fill-rule="nonzero"></path>
  </g>
</svg>
