<?xml version="1.0" encoding="UTF-8"?><svg viewBox="0 0 116 116" version="1.1" xmlns="http://www.w3.org/2000/svg" xmlns:xlink="http://www.w3.org/1999/xlink">
  <title>keyboard-chevron-down</title>
  <g id="keyboard-chevron-down" stroke="none" stroke-width="1" fill="none" fill-rule="evenodd">
    <path d="M71.6715729,87.6715729 L77.3284271,93.3284271 L58.5,112.156854 L39.6715729,93.3284271 L45.3284271,87.6715729 L58.5,100.843 L71.6715729,87.6715729 Z M98.5,6.5 C105.025457,6.5 110.334393,11.7085444 110.4962,18.1950252 L110.5,18.5 L110.5,66.5 C110.5,73.0254567 105.291456,78.3343928 98.8049748,78.4962001 L98.5,78.5 L45,78.5 C40.6650857,78.5 37.1354571,75.0521622 37.0038068,70.7491793 L37,70.5 L37,62.5 C37,58.1650857 40.4478378,54.6354571 44.7508207,54.5038068 L45,54.5 L76.5,54.5 C79.0605929,54.5 81.2465505,56.1040046 82.1079056,58.3620467 L82.157,58.5 L82.842,58.5 L82.8920944,58.3620467 C83.7281155,56.1704176 85.8119672,54.594919 88.2750617,54.5041385 L88.5,54.5 L92.5,54.5 C95.7383969,54.5 98.3775718,57.0655749 98.4958615,60.2750617 L98.5,60.5 L98.5,62.5 L90.157,62.5 L90.1079056,62.6379533 C89.2752623,64.8207273 87.2048517,66.3923396 84.7547753,66.4946885 L84.5,66.5 L80.5,66.5 C77.9394071,66.5 75.7534495,64.8959954 74.8920944,62.6379533 L74.842,62.5 L45,62.5 L45,70.5 L98.5,70.5 C100.642195,70.5 102.391079,68.8160315 102.495105,66.6996403 L102.5,66.5 L102.5,18.5 C102.5,16.3578046 100.816032,14.6089211 98.6996403,14.5048953 L98.5,14.5 L18.5,14.5 C16.3578046,14.5 14.6089211,16.1839685 14.5048953,18.3003597 L14.5,18.5 L14.5,66.5 C14.5,68.6421954 16.1839685,70.3910789 18.3003597,70.4951047 L18.5,70.5 L26.5,70.5 L26.5,78.5 L18.5,78.5 C11.9745433,78.5 6.66560725,73.2914556 6.50379986,66.8049748 L6.5,66.5 L6.5,18.5 C6.5,11.9745433 11.7085444,6.66560725 18.1950252,6.50379986 L18.5,6.5 L98.5,6.5 Z M28.5,54.5 C31.7383969,54.5 34.3775718,57.0655749 34.4958615,60.2750617 L34.5,60.5 L34.5,62.5 L18.5,62.5 L18.5,60.5 C18.5,57.2616031 21.0655749,54.6224282 24.2750617,54.5041385 L24.5,54.5 L28.5,54.5 Z M28.5,36.5 C31.0605929,36.5 33.2465505,38.1040046 34.1079056,40.3620467 L34.157,40.5 L34.842,40.5 L34.8920944,40.3620467 C35.7281155,38.1704176 37.8119672,36.594919 40.2750617,36.5041385 L40.5,36.5 L44.5,36.5 C47.0605929,36.5 49.2465505,38.1040046 50.1079056,40.3620467 L50.157,40.5 L50.842,40.5 L50.8920944,40.3620467 C51.7281155,38.1704176 53.8119672,36.594919 56.2750617,36.5041385 L56.5,36.5 L60.5,36.5 C63.0605929,36.5 65.2465505,38.1040046 66.1079056,40.3620467 L66.157,40.5 L66.842,40.5 L66.8920944,40.3620467 C67.7281155,38.1704176 69.8119672,36.594919 72.2750617,36.5041385 L72.5,36.5 L76.5,36.5 C79.0605929,36.5 81.2465505,38.1040046 82.1079056,40.3620467 L82.157,40.5 L82.842,40.5 L82.8920944,40.3620467 C83.7281155,38.1704176 85.8119672,36.594919 88.2750617,36.5041385 L88.5,36.5 L92.5,36.5 C95.7383969,36.5 98.3775718,39.0655749 98.4958615,42.2750617 L98.5,42.5 L98.5,44.5 L90.157,44.5 L90.1079056,44.6379533 C89.2752623,46.8207273 87.2048517,48.3923396 84.7547753,48.4946885 L84.5,48.5 L80.5,48.5 C77.9394071,48.5 75.7534495,46.8959954 74.8920944,44.6379533 L74.842,44.5 L74.157,44.5 L74.1079056,44.6379533 C73.2718845,46.8295824 71.1880328,48.405081 68.7249383,48.4958615 L68.5,48.5 L64.5,48.5 C61.9394071,48.5 59.7534495,46.8959954 58.8920944,44.6379533 L58.842,44.5 L58.157,44.5 L58.1079056,44.6379533 C57.2718845,46.8295824 55.1880328,48.405081 52.7249383,48.4958615 L52.5,48.5 L48.5,48.5 C45.9394071,48.5 43.7534495,46.8959954 42.8920944,44.6379533 L42.842,44.5 L42.157,44.5 L42.1079056,44.6379533 C41.2718845,46.8295824 39.1880328,48.405081 36.7249383,48.4958615 L36.5,48.5 L32.5,48.5 C29.9394071,48.5 27.7534495,46.8959954 26.8920944,44.6379533 L26.842,44.5 L18.5,44.5 L18.5,42.5 C18.5,39.2616031 21.0655749,36.6224282 24.2750617,36.5041385 L24.5,36.5 L28.5,36.5 Z M28.5,18.5 C31.0605929,18.5 33.2465505,20.1040046 34.1079056,22.3620467 L34.157,22.5 L34.842,22.5 L34.8920944,22.3620467 C35.7281155,20.1704176 37.8119672,18.594919 40.2750617,18.5041385 L40.5,18.5 L44.5,18.5 C47.0605929,18.5 49.2465505,20.1040046 50.1079056,22.3620467 L50.157,22.5 L50.842,22.5 L50.8920944,22.3620467 C51.7281155,20.1704176 53.8119672,18.594919 56.2750617,18.5041385 L56.5,18.5 L60.5,18.5 C63.0605929,18.5 65.2465505,20.1040046 66.1079056,22.3620467 L66.157,22.5 L66.842,22.5 L66.8920944,22.3620467 C67.7281155,20.1704176 69.8119672,18.594919 72.2750617,18.5041385 L72.5,18.5 L76.5,18.5 C79.0605929,18.5 81.2465505,20.1040046 82.1079056,22.3620467 L82.157,22.5 L82.842,22.5 L82.8920944,22.3620467 C83.7281155,20.1704176 85.8119672,18.594919 88.2750617,18.5041385 L88.5,18.5 L92.5,18.5 C95.7383969,18.5 98.3775718,21.0655749 98.4958615,24.2750617 L98.5,24.5 L98.5,26.5 L90.157,26.5 L90.1079056,26.6379533 C89.2752623,28.8207273 87.2048517,30.3923396 84.7547753,30.4946885 L84.5,30.5 L80.5,30.5 C77.9394071,30.5 75.7534495,28.8959954 74.8920944,26.6379533 L74.842,26.5 L74.157,26.5 L74.1079056,26.6379533 C73.2718845,28.8295824 71.1880328,30.405081 68.7249383,30.4958615 L68.5,30.5 L64.5,30.5 C61.9394071,30.5 59.7534495,28.8959954 58.8920944,26.6379533 L58.842,26.5 L58.157,26.5 L58.1079056,26.6379533 C57.2718845,28.8295824 55.1880328,30.405081 52.7249383,30.4958615 L52.5,30.5 L48.5,30.5 C45.9394071,30.5 43.7534495,28.8959954 42.8920944,26.6379533 L42.842,26.5 L42.157,26.5 L42.1079056,26.6379533 C41.2718845,28.8295824 39.1880328,30.405081 36.7249383,30.4958615 L36.5,30.5 L32.5,30.5 C29.9394071,30.5 27.7534495,28.8959954 26.8920944,26.6379533 L26.842,26.5 L18.5,26.5 L18.5,24.5 C18.5,21.2616031 21.0655749,18.6224282 24.2750617,18.5041385 L24.5,18.5 L28.5,18.5 Z" id="Shape" fill="#000000" fill-rule="nonzero"></path>
  </g>
</svg>
