<?xml version="1.0" encoding="UTF-8"?><svg viewBox="0 0 116 116" version="1.1" xmlns="http://www.w3.org/2000/svg" xmlns:xlink="http://www.w3.org/1999/xlink">
  <title>knob</title>
  <g id="knob" stroke="none" stroke-width="1" fill="none" fill-rule="evenodd" transform="translate(0.000000, 0.000000)">
    <path d="M10.5,54.5 L10.5,62.5 L2.5,62.5 L2.5,54.5 L10.5,54.5 Z M58.5,14.5 C82.800529,14.5 102.5,34.199471 102.5,58.5 C102.5,82.5575237 83.1925485,102.10555 59.2276205,102.494105 L58.5,102.5 L58.5,94.5 C78.382251,94.5 94.5,78.382251 94.5,58.5 C94.5,38.617749 78.382251,22.5 58.5,22.5 C38.617749,22.5 22.5,38.617749 22.5,58.5 C22.5,66.6406898 25.2069013,74.3538817 30.0922624,80.6165874 L30.413,81.023 L55.6663258,55.6768297 L61.3336742,61.3231703 L35.2874944,87.4662583 C35.1561949,87.5980301 35.0196781,87.724506 34.8782669,87.8453784 C31.9489221,90.3492593 27.5444224,90.0043526 25.0405416,87.0750078 C18.2804179,79.1661919 14.5,69.1197548 14.5,58.5 C14.5,34.199471 34.199471,14.5 58.5,14.5 Z M21.6715729,89.6715729 L27.3284271,95.3284271 L21.8284271,100.828427 L16.1715729,95.1715729 L21.6715729,89.6715729 Z M95.3284271,89.6715729 L100.828427,95.1715729 L95.1715729,100.828427 L89.6715729,95.3284271 L95.3284271,89.6715729 Z M21.8284271,16.1715729 L27.3284271,21.6715729 L21.6715729,27.3284271 L16.1715729,21.8284271 L21.8284271,16.1715729 Z M95.1715729,16.1715729 L100.828427,21.8284271 L95.3284271,27.3284271 L89.6715729,21.6715729 L95.1715729,16.1715729 Z M62.5,2.5 L62.5,10.5 L54.5,10.5 L54.5,2.5 L62.5,2.5 Z M114.5,54.5 L114.5,62.5 L106.5,62.5 L106.5,54.5 L114.5,54.5 Z" id="Shape" fill="#000000" fill-rule="nonzero"></path>
  </g>
</svg>
