<?xml version="1.0" encoding="UTF-8"?><svg viewBox="0 0 116 116" version="1.1" xmlns="http://www.w3.org/2000/svg" xmlns:xlink="http://www.w3.org/1999/xlink">
  <title>light-bulb</title>
  <g id="light-bulb" stroke="none" stroke-width="1" fill="none" fill-rule="evenodd">
    <path d="M78.5,82.5 L78.5,83.5 C78.5,87.2854517 75.4952166,90.3690987 71.7406498,90.495941 L71.5,90.5 L45.4889316,90.5 C41.71337,90.5 38.6339556,87.5103144 38.4939053,83.7658836 L38.4889794,83.5258739 L38.462,76.413 L38.4287659,76.3902023 C28.720736,69.8657749 22.6630545,58.9625185 22.5032422,46.9861098 L22.5,46.5 C22.5,26.617749 38.617749,10.5 58.5,10.5 C78.382251,10.5 94.5,26.617749 94.5,46.5 C94.5,59.2459669 87.8174371,70.8354039 77.1336588,77.3079272 L76.7207769,77.5543389 L70.7362528,81.0724295 L70.5587313,52.098123 L66.9852814,55.6715729 C62.3770947,60.2797595 54.9534673,60.3565626 50.2514326,55.9019822 L50.0147186,55.6715729 L46.5,52.157 L46.5,58.5 L38.5,58.5 L38.5,52.1568542 C38.5,47.7385763 42.081722,44.1568542 46.5,44.1568542 C48.5206971,44.1568542 50.4625727,44.9213483 51.938939,46.2901651 L52.1568542,46.5 L55.6715729,50.0147186 C57.1816001,51.5247459 59.5985644,51.5750801 61.1690541,50.1657214 L61.3284271,50.0147186 L64.901877,46.4412687 C68.0260714,43.3170744 73.0913912,43.3170744 76.2155855,46.4412687 C77.6294561,47.8551393 78.4598881,49.7442281 78.5504527,51.7341307 L78.5585811,52.049109 L78.643,65.952 C83.490689,60.9341908 86.3780196,54.2045609 86.4962236,46.9629164 L86.5,46.5 C86.5,31.036027 73.963973,18.5 58.5,18.5 C43.036027,18.5 30.5,31.036027 30.5,46.5 C30.5,56.4424992 35.7222894,65.4715536 44.0695458,70.5006808 L44.4631042,70.7334797 L46.4460054,71.8848831 L46.484,82.5 L78.5,82.5 Z M74.5,91.5 L74.5,99.5 L42.5,99.5 L42.5,91.5 L74.5,91.5 Z M66.5,100.5 L66.5,108.5 L50.5,108.5 L50.5,100.5 L66.5,100.5 Z" id="Shape" fill="#000000" fill-rule="nonzero"></path>
  </g>
</svg>
