<?xml version="1.0" encoding="UTF-8"?><svg viewBox="0 0 116 116" version="1.1" xmlns="http://www.w3.org/2000/svg" xmlns:xlink="http://www.w3.org/1999/xlink">
  <title>line-chart</title>
  <g id="line-chart" stroke="none" stroke-width="1" fill="none" fill-rule="evenodd">
    <path d="M14.5,95 L14.5,102.5 L107,102.5 L107,110.5 L13.5,110.5 C9.71454828,110.5 6.63090132,107.495217 6.50405902,103.74065 L6.5,103.5 L6.5,95 L14.5,95 Z M14.5,10.5 L14.5,80.842 L30.0147186,65.3284271 C34.6229053,60.7202405 42.0465327,60.6434374 46.7485674,65.0980178 L46.9852814,65.3284271 L55.6715729,74.0147186 C57.1816001,75.5247459 59.5985644,75.5750801 61.1690541,74.1657214 L61.3284271,74.0147186 L81.146,54.196 L77.6486631,50.6633985 C76.9717824,49.9795092 76.5066125,49.1148341 76.3089706,48.1731284 C75.7566963,45.5417039 77.3832922,42.9594764 79.9640357,42.3018024 L80.175352,42.2527319 L94.7023966,39.203846 C95.5151491,39.0332683 96.3544624,39.0332683 97.1672148,39.203846 C100.336562,39.8690176 102.392491,42.9219793 101.849025,46.0873297 L101.806872,46.3083218 L98.4077423,62.5041774 L90.5783199,60.8609653 L93.348,47.662 L88.4082542,48.6967937 C90.5844626,51.8492875 90.3108925,56.1539963 87.6420732,59.0081198 L87.446596,59.2102583 L66.9852814,79.6715729 C62.3770947,84.2797595 54.9534673,84.3565626 50.2514326,79.9019822 L50.0147186,79.6715729 L41.3284271,70.9852814 C39.8183999,69.4752541 37.4014356,69.4249199 35.8309459,70.8342786 L35.6715729,70.9852814 L18.4497475,88.2071068 C17.1369928,89.5198614 15.3565154,90.2573593 13.5,90.2573593 C9.71454828,90.2573593 6.63090132,87.2525759 6.50405902,83.4980091 L6.5,83.2573593 L6.5,10.5 L14.5,10.5 Z" id="Shape" fill="#000000" fill-rule="nonzero"></path>
  </g>
</svg>
