<?xml version="1.0" encoding="UTF-8"?><svg viewBox="0 0 116 116" version="1.1" xmlns="http://www.w3.org/2000/svg" xmlns:xlink="http://www.w3.org/1999/xlink">
  <title>link-off</title>
  <g id="link-off" stroke="none" stroke-width="1" fill="none" fill-rule="evenodd">
    <path d="M12.8284271,7.17157288 L108.828427,103.171573 L103.171573,108.828427 L56.343,61.9995729 L38,62 L38,54 L48.343,53.9995729 L7.17157288,12.8284271 L12.8284271,7.17157288 Z M26,38 L26,46 L18,46 C15.8578046,46 14.1089211,47.6839685 14.0048953,49.8003597 L14,50 L14,66 C14,68.1421954 15.6839685,69.8910789 17.8003597,69.9951047 L18,70 L42,70 C44.1421954,70 45.8910789,68.3160315 45.9951047,66.1996403 L46,66 L54,66 C54,72.5254567 48.7914556,77.8343928 42.3049748,77.9962001 L42,78 L18,78 C11.4745433,78 6.16560725,72.7914556 6.00379986,66.3049748 L6,66 L6,50 C6,43.4745433 11.2085444,38.1656072 17.6950252,38.0037999 L18,38 L26,38 Z M98,38 L98.3049748,38.0037999 C104.691664,38.1631179 109.839435,43.3124096 109.996316,49.6997032 L110,50 L110,66 L109.9962,66.3049748 C109.836882,72.6916636 104.68759,77.8394346 98.3002968,77.9963159 L98,78 L90,78 L90,70 L98,70 L98.1996403,69.9951047 C100.247761,69.8944345 101.890907,68.253315 101.994785,66.2060394 L102,66 L102,50 L101.995105,49.8003597 C101.894435,47.7522392 100.253315,46.1090931 98.2060394,46.0052149 L98,46 L74,46 L73.8003597,46.0048953 C71.7522392,46.1055655 70.1090931,47.746685 70.0052149,49.7939606 L70,50 L62,50 L62.0037999,49.6950252 C62.1631179,43.3083364 67.3124096,38.1605654 73.6997032,38.0036841 L74,38 L98,38 Z" id="Shape" fill="#000000" fill-rule="nonzero"></path>
  </g>
</svg>
