<?xml version="1.0" encoding="UTF-8"?><svg viewBox="0 0 116 116" version="1.1" xmlns="http://www.w3.org/2000/svg" xmlns:xlink="http://www.w3.org/1999/xlink">
  <title>list</title>
  <g id="list" stroke="none" stroke-width="1" fill="none" fill-rule="evenodd">
    <path d="M15,26 C19.3349143,26 22.8645429,29.4478378 22.9961932,33.7508207 L23,34 L15,34 L15,42 C10.581722,42 7,38.418278 7,34 C7,29.581722 10.581722,26 15,26 Z M15,50 C19.3349143,50 22.8645429,53.4478378 22.9961932,57.7508207 L23,58 L15,58 L15,66 C10.581722,66 7,62.418278 7,58 C7,53.581722 10.581722,50 15,50 Z M15,74 C19.3349143,74 22.8645429,77.4478378 22.9961932,81.7508207 L23,82 L15,82 L15,90 C10.581722,90 7,86.418278 7,82 C7,77.581722 10.581722,74 15,74 Z M107,54 L107,62 L26.5,62 L26.5,54 L107,54 Z M107,30 L107,38 L26.5,38 L26.5,30 L107,30 Z M107,78 L107,86 L26.5,86 L26.5,78 L107,78 Z" id="Shape" fill="#000000" fill-rule="nonzero"></path>
  </g>
</svg>
