<?xml version="1.0" encoding="UTF-8"?><svg viewBox="0 0 116 116" version="1.1" xmlns="http://www.w3.org/2000/svg" xmlns:xlink="http://www.w3.org/1999/xlink">
  <title>lock</title>
  <g id="lock" stroke="none" stroke-width="1" fill="none" fill-rule="evenodd">
    <path d="M58,6 C73.3093333,6 85.7489867,18.2865601 85.9962488,33.5369688 L86,34 L78,34 C78,22.954305 69.045695,14 58,14 C47.0693643,14 38.186775,22.7687286 38.0029071,33.6555106 L38,34 L38,38 L92,38 C97.4292399,38 101.847932,42.3266708 101.996158,47.7200952 L102,48 L102,99.5 C102,104.92924 97.6733292,109.347932 92.2799048,109.496158 L92,109.5 L24,109.5 C18.5707601,109.5 14.1520683,105.173329 14.0038418,99.7799048 L14,99.5 L14,48 C14,42.5707601 18.3266708,38.1520683 23.7200952,38.0038418 L24,38 L25.5,38 L25.5,46 L24,46 C22.9456382,46 22.0818349,46.8158778 22.0054857,47.8507377 L22,48 L22,99.5 C22,100.554362 22.8158778,101.418165 23.8507377,101.494514 L24,101.5 L92,101.5 C93.0543618,101.5 93.9181651,100.684122 93.9945143,99.6492623 L94,99.5 L94,48 C94,46.9456382 93.1841222,46.0818349 92.1492623,46.0054857 L92,46 L30,46 L30,34 C30,18.536027 42.536027,6 58,6 Z M58,54 C64.5254567,54 69.8343928,59.2085444 69.9962001,65.6950252 L70,66 L70,66.5 C70,69.7882325 68.6062023,72.832465 66.281746,74.9684645 L66.046,75.179 L66.0125767,86.0126164 C65.9989344,90.3446806 62.5493423,93.8649069 58.2490209,93.9962034 L58,94 C53.6650857,94 50.1354571,90.5521622 50.0038068,86.2491793 L50,86 L58,86 L58.0089071,85.9963188 L58.0126164,85.9874233 L58.0607137,70.7143809 L60.155438,69.5854065 C61.2215193,69.0108304 61.9191952,67.9320446 61.9934244,66.7159547 L62,66.5 L62,66 C62,63.790861 60.209139,62 58,62 C55.8578046,62 54.1089211,63.6839685 54.0048953,65.8003597 L54,66 L54,66.5 C54,67.4149748 54.348319,68.2659476 54.9632704,68.9115736 L55.1225158,69.0686203 L49.6853388,74.9369341 C47.4374344,72.8541801 46.0979732,69.9579497 46.0051646,66.8465645 L46,66.5 L46,66 C46,59.372583 51.372583,54 58,54 Z" id="Shape" fill="#000000" fill-rule="nonzero"></path>
  </g>
</svg>
