<?xml version="1.0" encoding="UTF-8"?><svg viewBox="0 0 116 116" version="1.1" xmlns="http://www.w3.org/2000/svg" xmlns:xlink="http://www.w3.org/1999/xlink">
  <title>lock-off</title>
  <g id="lock-off" stroke="none" stroke-width="1" fill="none" fill-rule="evenodd">
    <path d="M25.5,38 L25.5,46 L24,46 C22.9456382,46 22.0818349,46.8158778 22.0054857,47.8507377 L22,48 L22,99.5 C22,100.554362 22.8158778,101.418165 23.8507377,101.494514 L24,101.5 L92,101.5 L92,109.5 L24,109.5 C18.5707601,109.5 14.1520683,105.173329 14.0038418,99.7799048 L14,99.5 L14,48 C14,42.5707601 18.3266708,38.1520683 23.7200952,38.0038418 L24,38 L25.5,38 Z M108.828427,103.171573 L103.171573,108.828427 L31.6505729,37.307 L31.4963472,37.2822078 L30.1494702,36.398093 L29.7367257,35.9156709 L29.2868615,34.9896883 L29.2485729,34.905 L7.17157288,12.8284271 L12.8284271,7.17157288 L31.2765729,25.62 L31.3818329,25.2914895 C35.1095933,13.8860538 45.7890845,6 58,6 C73.3093333,6 85.7489867,18.2865601 85.9962488,33.5369688 L86,34 L78,34 C78,22.954305 69.045695,14 58,14 C49.1786468,14 41.4740344,19.7633577 38.8970598,28.0557743 L37.6605729,32.004 L43.6565729,38 L92,38 C97.4292399,38 101.847932,42.3266708 101.996158,47.7200952 L102,48 L102,83.5 L94,83.5 L94,48 C94,46.9456382 93.1841222,46.0818349 92.1492623,46.0054857 L92,46 L51.6565729,46 L108.828427,103.171573 Z M47.9440826,59.4501315 L54.6447883,63.8205482 C54.4508568,64.1178832 54.2977058,64.4389209 54.189576,64.7761113 C54.0895508,65.0880284 54.0282373,65.4129269 54.0077129,65.7474016 L54,66 L54,66.5 C54,68.3685634 55.4642776,69.8951264 57.3079648,69.9948211 L57.5,70 L57.5,70.045 L58,70.0452759 L58,86 L58.0089071,85.9963188 L58.0126164,85.9874233 L66.0125767,86.0126164 C65.998672,90.4279895 62.415395,94 58,94 C53.6650857,94 50.1354571,90.5521622 50.0038068,86.2491793 L50,86 L50.0000857,75.2181326 C47.6194613,73.1682973 46.0876511,70.1600134 46.0036415,66.7922675 L46,66.5 L46,66 C46,64.7445163 46.1942054,63.5103432 46.5716852,62.3332156 C46.8988853,61.3128797 47.3611343,60.3439055 47.9440826,59.4501315 Z" id="Shape" fill="#000000" fill-rule="nonzero"></path>
  </g>
</svg>
