<?xml version="1.0" encoding="UTF-8"?><svg viewBox="0 0 116 116" version="1.1" xmlns="http://www.w3.org/2000/svg" xmlns:xlink="http://www.w3.org/1999/xlink">
  <title>loop</title>
  <g id="loop" stroke="none" stroke-width="1" fill="none" fill-rule="evenodd">
    <path d="M26.5,14.5 L26.5,22.5 L18.5,22.5 C16.3578046,22.5 14.6089211,24.1839685 14.5048953,26.3003597 L14.5,26.5 L14.5,90.5 C14.5,92.6421954 16.1839685,94.3910789 18.3003597,94.4951047 L18.5,94.5 L54.5,94.5 L54.5,88.2661904 C54.5,87.4505926 54.6994942,86.6487954 55.0792866,85.9301028 L55.2125354,85.6937116 C56.5938111,83.3915853 59.5352232,82.6018765 61.8735759,83.8653842 L62.0724788,83.9787258 L77.6996733,93.3550424 C78.5441709,93.861741 79.2509577,94.5685278 79.7576563,95.4130255 C81.4219527,98.1868527 80.5835418,101.765044 77.8993612,103.519849 L77.6996733,103.644958 L60.557983,113.929972 L56.442017,107.070028 L70.726,98.5 L62.5,93.564 L62.5,102.5 L18.5,102.5 C11.9745433,102.5 6.66560725,97.2914556 6.50379986,90.8049748 L6.5,90.5 L6.5,26.5 C6.5,19.9745433 11.7085444,14.6656072 18.1950252,14.5037999 L18.5,14.5 L26.5,14.5 Z M56.3800042,2.60800678 L60.6199958,9.39199322 L46.158,18.43 L54.5,23.435 L54.5,14.5 L98.5,14.5 C105.025457,14.5 110.334393,19.7085444 110.4962,26.1950252 L110.5,26.5 L110.5,90.5 C110.5,97.0254567 105.291456,102.334393 98.8049748,102.4962 L98.5,102.5 L90.5,102.5 L90.5,94.5 L98.5,94.5 C100.642195,94.5 102.391079,92.8160315 102.495105,90.6996403 L102.5,90.5 L102.5,26.5 C102.5,24.3578046 100.816032,22.6089211 98.6996403,22.5048953 L98.5,22.5 L62.5,22.5 L62.5,28.7338096 C62.5,29.6400294 62.2537108,30.5292114 61.7874646,31.3062884 C60.4061889,33.6084147 57.4647768,34.3981235 55.1264241,33.1346158 L54.9275212,33.0212742 L39.242312,23.6101487 C38.4294476,23.12243 37.7437117,22.4490488 37.2412967,21.6451848 C35.5278704,18.9037027 36.2991565,15.3135037 38.9471817,13.5091391 L39.1492929,13.3772014 L56.3800042,2.60800678 Z" id="Shape" fill="#000000" fill-rule="nonzero"></path>
  </g>
</svg>
