<?xml version="1.0" encoding="UTF-8"?><svg viewBox="0 0 116 116" version="1.1" xmlns="http://www.w3.org/2000/svg" xmlns:xlink="http://www.w3.org/1999/xlink">
  <title>magnifying-glass</title>
  <g id="magnifying-glass" stroke="none" stroke-width="1" fill="none" fill-rule="evenodd">
    <path d="M46.5,6.5 C68.59139,6.5 86.5,24.40861 86.5,46.5 C86.5,55.6618947 83.4018564,64.3417495 77.8704922,71.3207739 L77.583,71.676 L84.194,78.5 L87.1139685,78.5 C90.2446334,78.5 93.2464736,79.7232169 95.4834054,81.9004257 L95.7287733,82.14625 L107.329103,94.1105198 C109.913121,96.866806 109.835372,101.160231 107.198079,103.82186 L107.009931,104.004868 L103.354914,107.431446 C100.662726,109.955373 96.4887239,109.947773 93.806583,107.456597 L93.6175788,107.274433 L79.6715729,93.3284271 L85.3284271,87.6715729 L98.59,100.933 L100.796,98.864 L89.9855701,87.7154167 C89.2860098,86.9939951 88.342735,86.5643696 87.3450766,86.5066753 L87.1139685,86.5 L80.8058229,86.5 L66.5282623,71.7617511 L69.275864,68.9779966 C75.1507755,63.0257834 78.5,55.0325833 78.5,46.5 C78.5,28.826888 64.173112,14.5 46.5,14.5 C28.826888,14.5 14.5,28.826888 14.5,46.5 C14.5,64.173112 28.826888,78.5 46.5,78.5 C50.0040821,78.5 53.4262135,77.9381173 56.6736686,76.8499998 L57.2804969,76.6398196 L59.975081,84.1723635 C55.6865698,85.7064739 51.1447194,86.5 46.5,86.5 C24.40861,86.5 6.5,68.59139 6.5,46.5 C6.5,24.40861 24.40861,6.5 46.5,6.5 Z" id="Path" fill="#000000" fill-rule="nonzero"></path>
  </g>
</svg>
