<?xml version="1.0" encoding="UTF-8"?><svg viewBox="0 0 116 116" version="1.1" xmlns="http://www.w3.org/2000/svg" xmlns:xlink="http://www.w3.org/1999/xlink">
  <title>magnifying-glass-off</title>
  <g id="magnifying-glass-off" stroke="none" stroke-width="1" fill="none" fill-rule="evenodd">
    <path d="M57.2342666,85.0423103 L56.5225581,85.2330602 L56.5225581,85.2330602 L55.926205,85.3820668 L55.926205,85.3820668 L55.1245455,85.5670377 L55.1245455,85.5670377 L54.3995713,85.7193689 L54.3995713,85.7193689 L53.5005164,85.8888362 L53.5005164,85.8888362 L52.9373488,85.9841553 L52.4023918,86.0670458 L52.4023918,86.0670458 L51.5692614,86.1814188 L51.5692614,86.1814188 L51.2305324,86.2228317 L51.2305324,86.2228317 C50.8627788,86.2662058 50.4937486,86.3045538 50.1237905,86.3378158 C49.2407626,86.4172092 48.3523593,86.4676283 47.459755,86.4886879 C47.1402538,86.4962247 46.8203716,86.5 46.5,86.5 C46.108212,86.5 45.7170585,86.4943553 45.3266238,86.4830872 L44.7053921,86.4603884 L44.7053921,86.4603884 L44.1777361,86.4335962 L44.1777361,86.4335962 L43.7889529,86.4094223 L43.7889529,86.4094223 L43.0844058,86.3559924 L42.8236792,86.3330616 L42.8236792,86.3330616 L42.4017754,86.2923153 C40.6560469,86.1144358 38.9319913,85.8231546 37.2372795,85.4211785 L13.3284271,109.328427 L7.67157288,103.671573 L103.671573,7.67157288 L109.328427,13.3284271 L85.4210574,37.2367942 C85.7670522,38.6954097 86.0310265,40.1756613 86.2112503,41.6722902 L86.2944214,42.422499 L86.3422404,42.9257957 L86.3422404,42.9257957 L86.3988618,43.6357426 L86.3988618,43.6357426 L86.442361,44.3360494 L86.442361,44.3360494 L86.4721973,44.9960589 L86.4721973,44.9960589 C86.4907162,45.4963263 86.5,45.9975785 86.5,46.5 C86.5,46.9833156 86.4913783,47.4652897 86.4742325,47.9457434 C86.4669251,48.1502397 86.4580762,48.3545535 86.4476891,48.5585751 C86.4310998,48.884778 86.4105806,49.2100065 86.386166,49.5344397 L86.3543465,49.9305987 L86.3543465,49.9305987 L86.3143008,50.3722399 L86.3143008,50.3722399 L86.2152795,51.2897324 L86.2152795,51.2897324 L86.1021144,52.1552496 L86.1021144,52.1552496 L85.9541108,53.1152999 L85.9541108,53.1152999 L85.8510331,53.7064644 L85.8510331,53.7064644 L85.6742282,54.6177639 L85.6742282,54.6177639 L85.551316,55.1923057 L85.551316,55.1923057 L85.4630751,55.5811087 L85.4630751,55.5811087 L85.3936618,55.8744088 L85.3936618,55.8744088 C85.2055389,56.6584063 84.9939398,57.4346933 84.7594491,58.202675 C84.6662014,58.5074637 84.569607,58.8107212 84.469447,59.112608 L84.3169741,59.5636415 L84.3169741,59.5636415 L84.1765309,59.9632207 L84.1765309,59.9632207 L83.950534,60.580283 L83.950534,60.580283 L83.8675682,60.7991159 C83.678674,61.2928395 83.4800462,61.7824963 83.2718257,62.2678277 L83.0892898,62.686636 L83.0892898,62.686636 L82.8530203,63.2100761 L82.8530203,63.2100761 L82.4730452,64.0122585 L82.4730452,64.0122585 L82.1490199,64.661988 L82.1490199,64.661988 L81.7078352,65.5020288 L81.7078352,65.5020288 L81.3845682,66.0880821 L81.3845682,66.0880821 L80.9233779,66.8864997 L80.9233779,66.8864997 L80.5941891,67.431453 L80.5941891,67.431453 L80.4395329,67.6804539 L80.4395329,67.6804539 C80.1861592,68.0861062 79.9250929,68.4874395 79.6567324,68.8841881 L79.4075916,69.2481784 L79.4075916,69.2481784 L79.2096409,69.5308257 L79.2096409,69.5308257 C78.693468,70.2630759 78.1515088,70.9790805 77.5849546,71.6774271 L84.194,78.5 L87.1139685,78.5 C90.2446334,78.5 93.2464736,79.7232169 95.4834054,81.9004257 L95.7287733,82.14625 L107.329103,94.1105198 C109.913121,96.866806 109.835372,101.160231 107.198079,103.82186 L107.009931,104.004868 L103.354914,107.431446 C100.662726,109.955373 96.4887239,109.947773 93.806583,107.456597 L93.6175788,107.274433 L79.6715729,93.3284271 L85.3284271,87.6715729 L98.59,100.933 L100.796,98.864 L89.9855701,87.7154167 C89.2860098,86.9939951 88.342735,86.5643696 87.3450766,86.5066753 L87.1139685,86.5 L80.8058229,86.5 L66.5282623,71.7617511 L68.657,69.603 L68.6492099,69.5957927 C68.9992835,69.2599685 69.3410303,68.9170739 69.6742855,68.5674024 C69.8964006,68.3343458 70.1147436,68.0982788 70.3292657,67.8592882 L70.5805693,67.5755198 C70.8082899,67.3157111 71.0315456,67.0525806 71.2502776,66.7862357 L71.6259273,66.3206138 L71.931644,65.927672 L71.931644,65.927672 L72.377143,65.3310344 C72.9973221,64.4808655 73.5740424,63.6023212 74.1056074,62.6984954 L74.56453,61.8916366 L74.56453,61.8916366 L74.8339464,61.390714 C75.0255705,61.0267661 75.2101128,60.6591499 75.3874707,60.2880524 L75.7072513,59.597616 C76.0454057,58.8441135 76.3543985,58.0769617 76.6333764,57.2976819 L76.825141,56.7460956 C77.3604332,55.1595386 77.7722689,53.5248892 78.053601,51.854711 C78.0942699,51.6140351 78.132084,51.3726735 78.1671676,51.1306163 C78.3323831,49.9902678 78.4371314,48.8342269 78.4790739,47.6665787 C78.4930025,47.278899 78.5,46.890013 78.5,46.5 C78.5,46.0585709 78.491086,45.6183446 78.4733113,45.179487 L78.4578134,44.8406482 L78.4578134,44.8406482 L78.4213794,44.2369149 L44.2371938,78.4213989 L44.5277302,78.4403439 L45.2061454,78.4743789 C45.6360826,78.4914384 46.0674245,78.5 46.5,78.5 C46.9389643,78.5 47.376644,78.4911824 47.8128571,78.4736171 L48.24078,78.4535559 L48.7298569,78.4236762 L49.3875525,78.3717327 L49.8635066,78.3256712 L50.4640829,78.2573145 L51.3525481,78.135039 L52.0889208,78.0143248 L52.4621254,77.9463569 L53.131681,77.8128392 L53.4350515,77.7474032 L54.0930457,77.5947477 L54.4091107,77.5161441 L55.0523291,77.3454735 L55.3400151,77.2644423 L55.6762074,77.1660153 L55.973008,77.0757618 C56.411936,76.9399347 56.8478402,76.794592 57.2804969,76.6398196 L59.975081,84.1723635 L59.3511321,84.3897323 L59.3511321,84.3897323 L58.6990768,84.6045723 L58.6990768,84.6045723 L58.3059304,84.7281026 L58.3059304,84.7281026 L57.6270156,84.9309504 C57.4961295,84.9687913 57.3652969,85.0058859 57.2342666,85.0423103 Z M46.5,6.5 C59.9900148,6.5 72.3385187,13.2336925 79.7139426,24.2035254 L79.9951525,24.6275256 L73.3004876,29.0071902 C67.4229691,20.0229368 57.4348515,14.5 46.5,14.5 C28.826888,14.5 14.5,28.826888 14.5,46.5 C14.5,57.2288324 19.8164572,67.0474762 28.5070507,72.9666015 L28.9105438,73.2370121 L24.5067568,79.9158339 C13.3554796,72.5630625 6.5,60.1117069 6.5,46.5 C6.5,24.40861 24.40861,6.5 46.5,6.5 Z" id="Shape" fill="#000000" fill-rule="nonzero"></path>
  </g>
</svg>
