<?xml version="1.0" encoding="UTF-8"?><svg viewBox="0 0 116 116" version="1.1" xmlns="http://www.w3.org/2000/svg" xmlns:xlink="http://www.w3.org/1999/xlink">
  <title>map-pin</title>
  <g id="map-pin" stroke="none" stroke-width="1" fill="none" fill-rule="evenodd">
    <path d="M58.5,6.5 C78.1834285,6.5 94.1772686,22.2970058 94.495177,41.9046742 L94.5,42.5 L86.5,42.5 C86.5,27.036027 73.963973,14.5 58.5,14.5 C43.1906667,14.5 30.7510133,26.7865601 30.5033605,42.0920412 L30.4995973,42.5567582 C30.3630694,52.1775145 32.8745745,62.2235346 38.0832469,72.7222651 C42.7303258,82.0890335 49.289415,91.3392323 57.773767,100.467779 L58.476,101.218 L59.0923653,100.553741 C67.571054,91.3364842 74.0487796,82.3072728 78.5369269,73.4785238 L78.9167531,72.7222651 C81.149944,68.2209897 82.9578369,63.3553103 84.2536788,58.436415 L84.5059942,57.4520186 L92.268604,59.3864147 C90.8221,65.1911441 88.7260725,70.9507897 86.0832469,76.2777349 C80.9594391,86.6054101 73.4071829,97.0484215 63.4410489,107.62266 C63.3604511,107.708175 63.2776543,107.791592 63.1927416,107.872825 C60.5370175,110.413463 56.360742,110.381429 53.7440542,107.844927 L53.5565339,107.656032 C43.7743139,97.4294413 36.2224499,86.9720301 30.9167531,76.2777349 C25.2945144,64.9454101 22.4717686,53.9023518 22.4936815,43.227275 L22.5,42.5 C22.5,22.617749 38.617749,6.5 58.5,6.5 Z M58.5,22.5 C69.545695,22.5 78.5,31.454305 78.5,42.5 C78.5,53.4306357 69.7312714,62.313225 58.8444894,62.4970929 L58.5,62.5 L58.5,54.5 C65.127417,54.5 70.5,49.127417 70.5,42.5 C70.5,35.872583 65.127417,30.5 58.5,30.5 C51.9745433,30.5 46.6656072,35.7085444 46.5037999,42.1950252 L46.5,42.5 L38.5,42.5 C38.5,31.454305 47.454305,22.5 58.5,22.5 Z" id="Shape" fill="#000000" fill-rule="nonzero"></path>
  </g>
</svg>
