<?xml version="1.0" encoding="UTF-8"?><svg viewBox="0 0 116 116" version="1.1" xmlns="http://www.w3.org/2000/svg" xmlns:xlink="http://www.w3.org/1999/xlink">
  <title>map</title>
  <g id="map" stroke="none" stroke-width="1" fill="none" fill-rule="evenodd" transform="translate(0.000000, 0.000000)">
    <path d="M42.5373662,7.21132925 C43.4978873,7.02217798 44.5205028,7.11258841 45.4769544,7.52531331 L45.736068,7.64589803 L68.4330616,18.9943949 L64.8553529,26.1498124 L46.5,16.972 L46.5,74.5 L38.5,74.5 L38.5,16.972 L14.5,28.972 L14.5,100.027 L37.1334369,88.7111456 C40.4027884,87.0764699 44.2323094,87.0237384 47.5378009,88.5529512 L47.8665631,88.7111456 L72.7111456,101.133437 C73.7668737,101.661301 74.9978371,101.694292 76.0754696,101.232411 L76.2888544,101.133437 L102.5,88.027 L102.5,16.972 L78.5,28.972 L78.5,90.5 L70.5,90.5 L70.5,28.354102 C70.5,25.7910777 71.8998133,23.440698 74.1352907,22.2157756 L74.3695048,22.0931116 L103.263932,7.64589803 C103.958209,7.29875945 104.723775,7.11803399 105.5,7.11803399 C108.188755,7.11803399 110.381818,9.2403407 110.49538,11.9011444 L110.5,12.118034 L110.5,88.645898 C110.5,91.2089223 109.100187,93.559302 106.864709,94.7842244 L106.630495,94.9068884 L79.8665631,108.288854 C76.5972116,109.92353 72.7676906,109.976262 69.4621991,108.447049 L69.1334369,108.288854 L44.2888544,95.8665631 C43.2331263,95.3386991 42.0021629,95.3057076 40.9245304,95.7675886 L40.7111456,95.8665631 L13.736068,109.354102 C13.0417908,109.701241 12.2762255,109.881966 11.5,109.881966 C8.8112453,109.881966 6.61818189,107.759659 6.50461951,105.098856 L6.5,104.881966 L6.5,28.354102 C6.5,25.7910777 7.89981332,23.440698 10.1352907,22.2157756 L10.3695048,22.0931116 L39.263932,7.64589803 C39.9582092,7.29875945 40.7237745,7.11803399 41.5,7.11803399 C41.7906762,7.11803399 42.075559,7.14283816 42.3526474,7.19044535 L42.501,7.219 L42.5373662,7.21132925 Z" id="Path" fill="#000000" fill-rule="nonzero"></path>
  </g>
</svg>
