<?xml version="1.0" encoding="UTF-8"?><svg viewBox="0 0 116 116" version="1.1" xmlns="http://www.w3.org/2000/svg" xmlns:xlink="http://www.w3.org/1999/xlink">
  <title>marker</title>
  <g id="marker" stroke="none" stroke-width="1" fill="none" fill-rule="evenodd">
    <path d="M51.6566774,100.22547 L48.8282503,97.3970429 C47.3134894,95.882282 44.8860965,95.8363801 43.3160246,97.2593373 L43.1713961,97.3970429 L37.5145418,91.7401886 C41.1164387,88.1382917 46.4384163,87.304823 50.8363568,89.2397823 L51.1737235,89.3947154 L103.982579,36.5858597 L87.0120165,19.6152969 L34.2031608,72.4241527 L34.2335542,72.4878751 C36.2855398,76.8497272 35.5645719,82.1923026 32.0706504,85.8649977 L31.8576876,86.0833344 L29.0292605,88.9117615 L35.3932215,95.2757225 C38.0699401,97.9524411 38.125705,102.257611 35.5605164,105.002182 L35.3932215,105.175217 L33.0334244,107.535015 C31.3900091,109.17843 29.0429656,109.894964 26.7713864,109.461176 L26.5096604,109.406005 L11.5030891,105.942951 C10.5899885,105.732235 9.75448152,105.269157 9.09185276,104.606528 C7.19061607,102.705292 7.14058353,99.6538643 8.94175512,97.6920913 L9.09185276,97.5354607 L14.8871248,91.7401886 L20.5439791,97.3970429 L18.5761009,99.364921 L27.7684891,101.486241 L29.0292605,100.22547 L22.6652994,93.8615089 C19.9885808,91.1847904 19.9328159,86.87962 22.4980045,84.1350492 L22.6652994,83.962014 L26.2008333,80.4264801 C27.7155942,78.9117192 27.7614961,76.4843263 26.3385389,74.9142544 L26.2008333,74.7696259 L23.3724062,71.9411987 L82.062269,13.2513359 C84.7389876,10.5746173 89.044158,10.5188523 91.7887287,13.084041 L91.961764,13.2513359 L110.34654,31.6361122 C113.023259,34.3128308 113.079024,38.6180012 110.513835,41.3625719 L110.34654,41.5356071 L51.6566774,100.22547 Z" id="Path" fill="#000000" fill-rule="nonzero"></path>
  </g>
</svg>
