<?xml version="1.0" encoding="UTF-8"?><svg viewBox="0 0 116 116" version="1.1" xmlns="http://www.w3.org/2000/svg" xmlns:xlink="http://www.w3.org/1999/xlink">
  <title>marker-off</title>
  <g id="marker-off" stroke="none" stroke-width="1" fill="none" fill-rule="evenodd">
    <path d="M40.1078644,55.6078644 L45.7647186,61.2647186 L34.8897166,72.1406477 L34.9200225,72.2035307 C36.9720081,76.5653827 36.2510402,81.9079582 32.7571187,85.5806532 L32.5441559,85.7989899 L29.7165234,88.6275494 L36.0796898,94.991378 C38.7564084,97.6680966 38.8121733,101.973267 36.2469847,104.717838 L36.0796898,104.890873 L33.7198927,107.25067 C32.0764774,108.894085 29.7294339,109.610619 27.4578547,109.176831 L27.1961287,109.121661 L12.1895574,105.658606 C11.2764568,105.447891 10.4409498,104.984813 9.77832106,104.322184 C7.87708438,102.420947 7.82705183,99.3695198 9.62822343,97.4077468 L9.77832106,97.2511162 L15.5735931,91.4558441 L21.2304474,97.1126984 L19.2633639,99.0807089 L28.455752,101.202029 L29.7165234,99.9412579 L23.3517677,93.5771645 C20.6750491,90.9004459 20.6192842,86.5952755 23.1844728,83.8507048 L23.3517677,83.6776695 L26.8873016,80.1421356 C28.4020625,78.6273747 28.4479644,76.1999818 27.0250072,74.6299099 L26.8873016,74.4852814 L24.0588745,71.6568542 L40.1078644,55.6078644 Z M12.8284271,7.17157288 L108.828427,103.171573 L103.171573,108.828427 L7.17157288,12.8284271 L12.8284271,7.17157288 Z M63.7352814,77.2352814 L69.3921356,82.8921356 L52.3431458,99.9411255 L49.5147186,97.1126984 C47.9999577,95.5979375 45.5725648,95.5520356 44.0024929,96.9749928 L43.8578644,97.1126984 L38.2010101,91.4558441 C41.8779465,87.7789077 47.3473803,86.9869522 51.7964693,89.0799775 L51.8602794,89.1112104 L63.7352814,77.2352814 Z M92.475197,12.7996965 L92.6482323,12.9669914 L111.033009,31.3517677 C113.709727,34.0284863 113.765492,38.3336567 111.200304,41.0782274 L111.033009,41.2512627 L82.8921356,69.3921356 L77.2352814,63.7352814 L104.669842,36.3016476 L87.6992795,19.3310848 L61.7647186,45.2647186 L56.1078644,39.6078644 L82.7487373,12.9669914 C85.4254559,10.2902728 89.7306263,10.2345079 92.475197,12.7996965 Z" id="Shape" fill="#000000" fill-rule="nonzero"></path>
  </g>
</svg>
