<?xml version="1.0" encoding="UTF-8"?><svg viewBox="0 0 116 116" version="1.1" xmlns="http://www.w3.org/2000/svg" xmlns:xlink="http://www.w3.org/1999/xlink">
  <title>megaphone</title>
  <g id="megaphone" stroke="none" stroke-width="1" fill="none" fill-rule="evenodd">
    <path d="M80.2573593,11.0857864 C82.6005051,8.74264069 86.3994949,8.74264069 88.7426407,11.0857864 C89.8016696,12.1448154 90.4239243,13.5589715 90.4934663,15.0483546 L90.5,15.3284271 L90.5,101.671573 C90.5,104.985281 87.8137085,107.671573 84.5,107.671573 C83.0023069,107.671573 81.562347,107.111614 80.4600206,106.107635 L80.2573593,105.914214 L52.843,78.5 L33.5,78.5 C29.7145483,78.5 26.6309013,75.4952166 26.504059,71.7406498 L26.5,70.5 L56.1568542,70.5 L82.5,96.843 L82.5,20.156 L56.1568542,46.5 L34.5,46.5 L34.5,58.5 L26.5,58.5 L26.5,46.5 C26.5,42.1650857 29.9478378,38.6354571 34.2508207,38.5038068 L34.5,38.5 L52.842,38.5 L80.2573593,11.0857864 Z" id="Path" fill="#000000" fill-rule="nonzero"></path>
  </g>
</svg>
