<?xml version="1.0" encoding="UTF-8"?><svg viewBox="0 0 116 116" version="1.1" xmlns="http://www.w3.org/2000/svg" xmlns:xlink="http://www.w3.org/1999/xlink">
  <title>megaphone-medium</title>
  <g id="megaphone-medium" stroke="none" stroke-width="1" fill="none" fill-rule="evenodd">
    <path d="M60.2573593,11.0857864 C62.6005051,8.74264069 66.3994949,8.74264069 68.7426407,11.0857864 C69.8016696,12.1448154 70.4239243,13.5589715 70.4934663,15.0483546 L70.5,15.3284271 L70.5,101.671573 C70.5,104.985281 67.8137085,107.671573 64.5,107.671573 C63.0023069,107.671573 61.562347,107.111614 60.4600206,106.107635 L60.2573593,105.914214 L32.843,78.5 L13.5,78.5 C9.71454828,78.5 6.63090132,75.4952166 6.50405902,71.7406498 L6.5,70.5 L36.1568542,70.5 L62.5,96.843 L62.5,20.156 L36.1568542,46.5 L14.5,46.5 L14.5,58.5 L6.5,58.5 L6.5,46.5 C6.5,42.1650857 9.94783777,38.6354571 14.2508207,38.5038068 L14.5,38.5 L32.842,38.5 L60.2573593,11.0857864 Z M86.225,27.2610521 C91.5979302,27.2610521 96.2224515,30.9330205 97.5032731,36.0604798 L97.5709733,36.346822 L97.549,36.3510521 L97.6873474,36.8253659 C99.4757481,43.0936168 100.412697,49.3762127 100.49418,55.6647765 L100.5,56.5631825 C100.5,66.1679732 98.5046376,75.7540868 94.532218,85.2969548 L94.1765801,86.1388597 L86.8234199,82.9875053 L87.1628114,82.1834723 C90.7270063,73.6084736 92.5,65.0765228 92.5,56.5631825 C92.5,50.748825 91.6731469,44.9284081 90.0148831,39.0924249 L89.7599074,38.2169094 L89.7630263,38.0892234 L89.715999,37.9021961 C89.2842066,36.3609393 87.8651734,35.2610521 86.225,35.2610521 C84.2229678,35.2610521 82.6,36.8840199 82.6,38.8860521 C82.6,39.3988956 82.704182,39.8897366 82.9034836,40.3427897 L82.9848167,40.5151065 L83.0752479,40.683031 L83.047,40.6980521 L83.0862902,40.7900008 L83.513562,41.9252891 L83.8725877,42.8481512 C85.6193268,47.4049833 86.5,51.9831736 86.5,56.5631825 C86.5,62.3325604 85.1026407,67.9462718 82.3349182,73.359338 L82.033134,73.9385395 L74.966866,70.1878255 L75.2449693,69.6527252 C77.4238351,65.3692414 78.5,61.0207978 78.5,56.5631825 C78.5,53.0064932 77.8149771,49.4201314 76.4306511,45.7849949 L76.1718704,45.1245104 L75.700815,43.8627404 L75.7062978,43.8731664 L75.72,43.8670521 L75.5807148,43.5641337 C74.9905587,42.222589 74.6582826,40.7770183 74.6070016,39.2919897 L74.6,38.8860521 C74.6,32.4657419 79.8046898,27.2610521 86.225,27.2610521 Z" id="Shape" fill="#000000" fill-rule="nonzero"></path>
  </g>
</svg>
