<?xml version="1.0" encoding="UTF-8"?><svg viewBox="0 0 116 116" version="1.1" xmlns="http://www.w3.org/2000/svg" xmlns:xlink="http://www.w3.org/1999/xlink">
  <title>megaphone-loud</title>
  <g id="megaphone-loud" stroke="none" stroke-width="1" fill="none" fill-rule="evenodd">
    <path d="M60.2573593,11.0857864 C62.6005051,8.74264069 66.3994949,8.74264069 68.7426407,11.0857864 C69.8016696,12.1448154 70.4239243,13.5589715 70.4934663,15.0483546 L70.5,15.3284271 L70.5,101.671573 C70.5,104.985281 67.8137085,107.671573 64.5,107.671573 C63.0023069,107.671573 61.562347,107.111614 60.4600206,106.107635 L60.2573593,105.914214 L32.843,78.5 L13.5,78.5 C9.71454828,78.5 6.63090132,75.4952166 6.50405902,71.7406498 L6.5,70.5 L36.1568542,70.5 L62.5,96.843 L62.5,20.156 L36.1568542,46.5 L14.5,46.5 L14.5,58.5 L6.5,58.5 L6.5,46.5 C6.5,42.1650857 9.94783777,38.6354571 14.2508207,38.5038068 L14.5,38.5 L32.842,38.5 L60.2573593,11.0857864 Z M98.3,17.5 C103.511681,17.5 108.046518,20.921271 109.539553,25.8172241 L109.622298,26.1013052 L109.608,26.1044271 L109.698952,26.4033062 L109.876187,27.0271351 L110.054225,27.6933036 L110.239168,28.421528 L110.922905,31.2266595 L110.999056,31.5233514 C113.33198,40.5060982 114.5,49.5008468 114.5,58.5 C114.5,72.0374307 111.857124,85.5594804 106.585929,99.0447872 L106.213907,99.9855627 L98.7860932,97.0144373 C103.933897,84.1449288 106.5,71.314412 106.5,58.5 C106.5,50.5315034 105.507834,42.5589617 103.520759,34.5756883 L103.037643,32.6693625 L102.480314,30.3710871 L102.246214,29.458077 L102.100045,28.9249416 L101.956168,28.4332684 L101.883583,28.1978993 L101.899,28.1924271 L101.855606,28.0514885 C101.349811,26.5468105 99.9272773,25.5 98.3,25.5 C96.2289322,25.5 94.55,27.1789322 94.55,29.25 C94.55,29.5817009 94.6915134,30.1673038 94.9211986,30.7439585 L94.996,30.9234271 L95.0031452,30.9208957 C98.6625433,40.0826892 100.5,49.2833272 100.5,58.5 C100.5,65.0885949 99.56091,71.6710776 97.6873474,78.2378166 L97.563,78.6614271 L97.5709733,78.6642301 C96.3934735,83.9407735 91.6974289,87.75 86.225,87.75 C79.8046898,87.75 74.6,82.5453102 74.6,76.125 C74.6,74.4977245 74.9369081,72.9104217 75.5807148,71.4469183 L75.726,71.1304271 L76.1718704,69.9386721 L76.1934526,69.8844986 C77.7367492,66.0416274 78.5,62.2542831 78.5,58.5 C78.5,54.0423847 77.4238351,49.6939411 75.2449693,45.4104574 L74.966866,44.875357 L82.033134,41.124643 C85.001047,46.7161299 86.5,52.5245729 86.5,58.5 C86.5,63.0800089 85.6193268,67.6581992 83.8725877,72.2150313 L83.513562,73.1378934 L83.0862902,74.2731817 L83.065,74.3214271 L83.0752479,74.3280211 L83.016,74.4354271 L82.9937022,74.4905825 L82.988,74.4884271 L82.9034836,74.6682624 L82.9034836,74.6682624 C82.704182,75.1213155 82.6,75.6121565 82.6,76.125 C82.6,78.1270322 84.2229678,79.75 86.225,79.75 C87.8651734,79.75 89.2842066,78.6501128 89.715999,77.1088559 L89.7630263,76.9218287 L90.758,77.1434271 L89.7599074,76.8462731 C91.5883945,70.7168312 92.5,64.6050754 92.5,58.5 C92.5,50.5924142 90.9704267,42.6698447 87.8972653,34.7116877 L87.6886406,34.1807289 C86.9957562,32.6057284 86.55,30.8772166 86.55,29.25 C86.55,22.7606542 91.8106542,17.5 98.3,17.5 Z" id="Shape" fill="#000000" fill-rule="nonzero"></path>
  </g>
</svg>
