<?xml version="1.0" encoding="UTF-8"?><svg viewBox="0 0 116 116" version="1.1" xmlns="http://www.w3.org/2000/svg" xmlns:xlink="http://www.w3.org/1999/xlink">
  <title>megaphone-off</title>
  <g id="megaphone-off" stroke="none" stroke-width="1" fill="none" fill-rule="evenodd">
    <path d="M13.3284271,7.67157288 L109.328427,103.671573 L103.671573,109.328427 L90.4995729,96.1555729 L90.5,101.671573 C90.5,104.985281 87.8137085,107.671573 84.5,107.671573 C83.0023069,107.671573 81.562347,107.111614 80.4600206,106.107635 L80.2573593,105.914214 L52.843,78.5 L33.5,78.5 C29.7145483,78.5 26.6309013,75.4952166 26.504059,71.7406498 L26.5,70.5 L56.1568542,70.5 L82.499,96.842 L82.4995729,88.1555729 L40.8435729,46.4995729 L34.5,46.5 L34.5,58.5 L26.5,58.5 L26.5,46.5000152 C26.5,42.5987976 29.2924385,39.3497892 32.9875704,38.6427636 L7.67157288,13.3284271 L13.3284271,7.67157288 Z M88.7426407,11.0857864 C89.8016696,12.1448154 90.4239243,13.5589715 90.4934663,15.0483546 L90.5,15.3284271 L90.5,70.5 L82.5,70.5 L82.499,20.157 L57.3284271,45.3284271 L51.6715729,39.6715729 L80.2573593,11.0857864 C82.6005051,8.74264069 86.3994949,8.74264069 88.7426407,11.0857864 Z" id="Shape" fill="#000000" fill-rule="nonzero"></path>
  </g>
</svg>
