<?xml version="1.0" encoding="UTF-8"?><svg viewBox="0 0 116 116" version="1.1" xmlns="http://www.w3.org/2000/svg" xmlns:xlink="http://www.w3.org/1999/xlink">
  <title>megaphone-low</title>
  <g id="megaphone-low" stroke="none" stroke-width="1" fill="none" fill-rule="evenodd">
    <path d="M60.2573593,11.0857864 C62.6005051,8.74264069 66.3994949,8.74264069 68.7426407,11.0857864 C69.8016696,12.1448154 70.4239243,13.5589715 70.4934663,15.0483546 L70.5,15.3284271 L70.5,101.671573 C70.5,104.985281 67.8137085,107.671573 64.5,107.671573 C63.0023069,107.671573 61.562347,107.111614 60.4600206,106.107635 L60.2573593,105.914214 L32.843,78.5 L13.5,78.5 C9.71454828,78.5 6.63090132,75.4952166 6.50405902,71.7406498 L6.5,70.5 L36.1568542,70.5 L62.5,96.843 L62.5,20.156 L36.1568542,46.5 L14.5,46.5 L14.5,58.5 L6.5,58.5 L6.5,46.5 C6.5,42.1650857 9.94783777,38.6354571 14.2508207,38.5038068 L14.5,38.5 L32.842,38.5 L60.2573593,11.0857864 Z M82.033134,41.124643 C85.001047,46.7161299 86.5,52.5245729 86.5,58.5 C86.5,64.243161 85.1158179,69.9779294 82.3792782,75.6724749 L82.0809041,76.2824494 L74.9190959,72.7175506 C77.3181511,67.8978981 78.5,63.1705025 78.5,58.5 C78.5,54.0423847 77.4238351,49.6939411 75.2449693,45.4104574 L74.966866,44.875357 L82.033134,41.124643 Z" id="Shape" fill="#000000" fill-rule="nonzero"></path>
  </g>
</svg>
