<?xml version="1.0" encoding="UTF-8"?><svg viewBox="0 0 116 116" version="1.1" xmlns="http://www.w3.org/2000/svg" xmlns:xlink="http://www.w3.org/1999/xlink">
  <title>microphone</title>
  <g id="microphone" stroke="none" stroke-width="1" fill="none" fill-rule="evenodd">
    <path d="M50.5,102.5 L50.5,110.5 L34.5,110.5 L34.5,102.5 L50.5,102.5 Z M26,59 C26,76.673112 40.326888,91 58,91 C75.4963809,91 89.7131276,76.9582171 89.9957129,59.5291785 L90,59 L98,59 C98,79.5696911 82.4735798,96.5129925 62.5010721,98.7495715 L62.5,102.5 L82.5,102.5 L82.5,110.5 L54.5,110.5 L54.5003485,98.8490191 C34.2638889,97.0950086 18.3395457,80.2731466 18.0053589,59.6614731 L18,59 L26,59 Z M58.5,6 C73.8093333,6 86.2489867,18.2865601 86.4962488,33.5369688 L86.5,34 L86.5,38 L70.5,38 L70.5,38.5 L62.5,38.5 L62.5,38 C62.5,33.6650857 65.9478378,30.1354571 70.2508207,30.0038068 L70.5,30 L78.099,30 L78.0936711,29.9693024 C76.2509473,20.9641358 68.356099,14.1635495 58.8444894,14.0029071 L58.5,14 C47.5670162,14 38.1931107,23.2623444 38.0029449,34.1623719 L38,34.5 L38,58.5 C38,69.4237595 46.8303877,78 58,78 C67.7628278,78 75.9679382,71.5020576 78.011128,62.7577549 L78.069,62.5 L72.5,62.5 C67.0707601,62.5 62.6520683,58.1733292 62.5038418,52.7799048 L62.5,52.5 C62.5,47.0707601 66.8266708,42.6520683 72.2200952,42.5038418 L72.5,42.5 L82.5,42.5 L82.5,50.5 L72.5,50.5 C71.3954305,50.5 70.5,51.3954305 70.5,52.5 C70.5,53.5543618 71.3158778,54.4181651 72.3507377,54.4945143 L72.5,54.5 L86.5,54.5 L86.5,58.5 C86.5,73.8317023 73.6105147,86 58,86 C42.6189128,86 30.2495783,74.1360511 30.0037297,58.960859 L30,58.5 L30,34.5 C30,19.036027 43.036027,6 58.5,6 Z" id="Shape" fill="#000000" fill-rule="nonzero"></path>
  </g>
</svg>
