<?xml version="1.0" encoding="UTF-8"?><svg viewBox="0 0 116 116" version="1.1" xmlns="http://www.w3.org/2000/svg" xmlns:xlink="http://www.w3.org/1999/xlink">
  <title>microphone-off</title>
  <g id="microphone-off" stroke="none" stroke-width="1" fill="none" fill-rule="evenodd">
    <path d="M50.5,102.5 L50.5,110.5 L34.5,110.5 L34.5,102.5 L50.5,102.5 Z M12.8284271,7.17157288 L80.4355729,74.779 L80.5700544,74.7667888 L80.5825729,74.926 L83.7108516,78.0546877 C87.5645565,72.8633559 89.8832684,66.464428 89.9957129,59.5291785 L90,59 L98,59 C98,68.3494981 94.79231,76.9498001 89.4174116,83.7604244 L108.828427,103.171573 L103.171573,108.828427 L83.860889,89.5168913 C77.9635525,94.519435 70.5972228,97.8431235 62.500186,98.7496707 L62.5,102.5 L82.5,102.5 L82.5,110.5 L54.5,110.5 L54.4997404,98.8489664 C34.2635699,97.0946716 18.3395424,80.2729401 18.0053589,59.6614731 L18,59 L26,59 C26,76.673112 40.326888,91 58,91 C65.6508581,91 72.6745981,88.3149888 78.1803388,83.835848 L76.0555729,81.712 L75.5097226,82.1301783 L74.6115498,82.7935809 L74.1341174,83.1327914 L73.6724303,83.4473752 L73.2524702,83.7151079 L73.2524702,83.7151079 C69.7045706,85.8678131 65.0085468,87 58,87 C42.7569027,87 30.2523381,74.2923598 30.0037711,58.9652493 L30,58.5 L30,52.5 L38,52.5 L38,58.5 C38,69.6660683 47.0728074,79 58,79 C63.6302578,79 66.9010317,78.2114334 69.1025845,76.8756307 L69.3612124,76.7052966 L69.3612124,76.7052966 L69.7080513,76.459185 L70.3375729,75.994 L7.17157288,12.8284271 L12.8284271,7.17157288 Z M82.5,42.5 L82.5,50.5 L72.5,50.5 C71.4456382,50.5 70.5818349,51.3158778 70.5054857,52.3507377 L70.5,52.5 L62.5,52.5 C62.5,47.0707601 66.8266708,42.6520683 72.2200952,42.5038418 L72.5,42.5 L82.5,42.5 Z M58.5,6 C73.8093333,6 86.2489867,18.2865601 86.4962488,33.5369688 L86.5,34 L86.5,38 L70.5,38 L70.5,38.5 L62.5,38.5 L62.5,38 C62.5,33.6650857 65.9478378,30.1354571 70.2508207,30.0038068 L70.5,30 L78.099,30 L78.0936711,29.9693024 C76.2509473,20.9641358 68.356099,14.1635495 58.8444894,14.0029071 L58.5,14 C51.3235091,14 44.5590346,18.0334125 40.8349795,24.3173092 L40.6348803,24.6622883 L33.6773821,20.7134634 C38.7494354,11.776931 48.2544339,6 58.5,6 Z" id="Shape" fill="#000000" fill-rule="nonzero"></path>
  </g>
</svg>
