<?xml version="1.0" encoding="UTF-8"?><svg viewBox="0 0 116 116" version="1.1" xmlns="http://www.w3.org/2000/svg" xmlns:xlink="http://www.w3.org/1999/xlink">
  <title>moon</title>
  <g id="moon" stroke="none" stroke-width="1" fill="none" fill-rule="evenodd" transform="translate(0.000000, 0.000000)">
    <path d="M58.5,6.5 C62.1644933,6.5 65.7820794,6.8796851 69.3108106,7.62614852 L70.1235368,7.80491429 L68.3421432,15.6040576 C65.1403555,14.8727409 61.845895,14.5 58.5,14.5 C34.199471,14.5 14.5,34.199471 14.5,58.5 C14.5,82.800529 34.199471,102.5 58.5,102.5 C73.3246014,102.5 86.7451086,95.1008084 94.7783703,83.4163912 L95.136,82.885 L94.9348162,82.9784048 C90.0135468,85.1980617 84.6359623,86.417117 79.0758264,86.4959211 L78.5,86.5 C56.40861,86.5 38.5,68.59139 38.5,46.5 C38.5,36.669149 42.0651315,27.3834456 48.4070066,20.1477302 L48.7759591,19.7325701 L54.7191318,25.0878198 C49.4582902,30.9262197 46.5,38.4774361 46.5,46.5 C46.5,64.173112 60.826888,78.5 78.5,78.5 C86.1928616,78.5 93.4555074,75.7812887 99.1980957,70.9056563 L99.5231235,70.6215897 C101.561001,68.7979629 104.691372,68.9716178 106.51503,71.009482 C107.724785,72.3613339 108.098443,74.2665033 107.488942,75.9751631 C100.16359,96.5108697 80.6597398,110.5 58.5,110.5 C29.781193,110.5 6.5,87.218807 6.5,58.5 C6.5,29.781193 29.781193,6.5 58.5,6.5 Z" id="Path" fill="#000000" fill-rule="nonzero"></path>
  </g>
</svg>
