<?xml version="1.0" encoding="UTF-8"?><svg viewBox="0 0 116 116" version="1.1" xmlns="http://www.w3.org/2000/svg" xmlns:xlink="http://www.w3.org/1999/xlink">
  <title>motorcycle</title>
  <g id="motorcycle" stroke="none" stroke-width="1" fill="none" fill-rule="evenodd">
    <path d="M20.5,56.5 C31.545695,56.5 40.5,65.454305 40.5,76.5 C40.5,87.545695 31.545695,96.5 20.5,96.5 C14.716513,96.5 9.32662034,94.025769 5.56259744,89.7996845 L5.29652038,89.4948517 L11.3758747,84.2947121 C13.6453331,86.9478798 16.9421157,88.5 20.5,88.5 C27.127417,88.5 32.5,83.127417 32.5,76.5 C32.5,69.872583 27.127417,64.5 20.5,64.5 C13.9745433,64.5 8.66560725,69.7085444 8.50379986,76.1950252 L8.5,76.5 L0.5,76.5 C0.5,65.454305 9.454305,56.5 20.5,56.5 Z M72.8944487,22.5 C75.1449029,22.5 77.2521867,23.5814608 78.5651052,25.3958733 L78.7188008,25.6170986 L93.239,47.397 L94.5,48.028 L94.5,40.471 L92.2888544,41.5777088 L88.7111456,34.4222912 L92.7111456,32.4222912 L92.9300436,32.3176158 L93.1507959,32.2214537 C94.1850017,31.7924621 95.2735136,31.6394815 96.3285458,31.7332499 L96.6730425,31.7725763 L96.9014773,31.8082269 C97.582961,31.9265778 98.2294552,32.1469176 98.8246629,32.452949 L99.0211436,32.5581108 L99.2136912,32.6694861 L99.4021715,32.7869407 L99.4964478,32.848431 C100.126816,33.2690917 100.692115,33.7996487 101.160352,34.4294381 L101.297864,34.6217535 C101.845283,35.4109986 102.229026,36.3223613 102.399977,37.3067267 L102.435628,37.5351614 C102.456847,37.6882854 102.47294,37.8430478 102.483728,37.9992699 L102.49591,38.2346753 L102.5,38.472136 L102.5,49.645898 L102.49243,49.9713801 L102.483851,50.125161 C102.405324,51.286524 102.043537,52.3702013 101.467016,53.3076683 L101.267752,53.6139047 C100.832171,54.2487582 100.304263,54.7935418 99.7117056,55.2390298 L99.4137666,55.450408 L99.2254611,55.5732734 C98.4639092,56.05293 97.6034384,56.3898809 96.6815802,56.5465945 L96.4899616,56.5761794 C95.3546725,56.739374 94.1697444,56.6256126 93.0399368,56.1999752 L92.8147413,56.1106791 L92.5912019,56.0130042 L92.3695048,55.9068884 L89.598,54.52 L89.4708027,54.5260239 C79.7014745,55.0212322 71.7816234,62.5264756 70.6411,72.1119034 L70.599,72.5 L72.9,72.5 L72.9063289,72.4693024 C74.7490527,63.4641358 82.643901,56.6635495 92.1555106,56.5029071 L92.5,56.5 C103.545695,56.5 112.5,65.454305 112.5,76.5 C112.5,87.545695 103.545695,96.5 92.5,96.5 C86.716513,96.5 81.3266203,94.025769 77.5625974,89.7996845 L77.2965204,89.4948517 L83.3758747,84.2947121 C85.6453331,86.9478798 88.9421157,88.5 92.5,88.5 C99.127417,88.5 104.5,83.127417 104.5,76.5 C104.5,69.872583 99.127417,64.5 92.5,64.5 C85.9745433,64.5 80.6656072,69.7085444 80.5037999,76.1950252 L80.5,76.5 L80.5,80.5 L62.5,80.5 L62.5,74.5 C62.5,61.5102627 71.3454207,50.5864841 83.3415139,47.4234122 L83.597,47.357 L72.359,30.5 L58.5,30.5 L58.5,22.5 L72.8944487,22.5 Z M36.6114562,38.5 C38.3413301,38.5 40.049144,38.8739911 41.6183968,39.5944709 L41.9780193,39.7668737 L54.5996894,46.0777088 C55.0757652,46.3157467 55.593741,46.4559744 56.1230729,46.4911815 L56.3885438,46.5 L66.5,46.5 L66.5,54.5 L56.3885438,54.5 C54.6586699,54.5 52.950856,54.1260089 51.3816032,53.4055291 L51.0219807,53.2331263 L38.4003106,46.9222912 C37.9242348,46.6842533 37.406259,46.5440256 36.8769271,46.5088185 L36.6114562,46.5 L22.5,46.5 L22.9630312,46.5037512 C38.0593954,46.7485157 50.2514843,58.9406046 50.4962488,74.0369688 L50.5,74.5 L50.5,82.5 L72.5,82.5 L72.5,90.5 L49.5,90.5 C45.7145483,90.5 42.6309013,87.4952166 42.504059,83.7406498 L42.5,83.5 L42.5,74.5 C42.5,63.5693643 33.7312714,54.686775 22.8444894,54.5029071 L22.5,54.5 L10.5,54.5 L10.5,50.5 C10.5,43.9745433 15.7085444,38.6656072 22.1950252,38.5037999 L22.5,38.5 L36.6114562,38.5 Z" id="Shape" fill="#000000" fill-rule="nonzero"></path>
  </g>
</svg>
