<?xml version="1.0" encoding="UTF-8"?><svg viewBox="0 0 116 116" version="1.1" xmlns="http://www.w3.org/2000/svg" xmlns:xlink="http://www.w3.org/1999/xlink">
  <title>mouse</title>
  <g id="mouse" stroke="none" stroke-width="1" fill="none" fill-rule="evenodd">
    <path d="M58.5,6.5 C78.1834285,6.5 94.1772686,22.2970058 94.495177,41.9046742 L94.5,42.5 L94.5,74.5 C94.5,94.382251 78.382251,110.5 58.5,110.5 C38.8165715,110.5 22.8227314,94.7029942 22.504823,75.0953258 L22.5,74.5 L22.5,50.5 L30.5,50.5 L30.5,74.5 C30.5,89.963973 43.036027,102.5 58.5,102.5 C73.8093333,102.5 86.2489867,90.2134399 86.4962488,74.9630312 L86.5,74.5 L86.5,42.5 C86.5,27.036027 73.963973,14.5 58.5,14.5 C43.1906667,14.5 30.7510133,26.7865601 30.5037512,42.0369688 L30.5,42.5 L22.5,42.5 C22.5,22.617749 38.617749,6.5 58.5,6.5 Z M62,18.5 L62,23.018 L62.2982182,23.1135304 C66.9706412,24.6713969 70.3647471,29.0247739 70.4960529,34.1891784 L70.5,34.5 L70.5,42.5 L70.4962001,42.8049748 C70.369179,47.8969546 67.0702535,52.2014095 62.500906,53.8168569 L62.5,58.5 L54.5,58.5 L54.5006185,53.9817514 C49.6748275,52.5128341 46.1381958,48.0848988 46.0039562,42.8111784 L46,42.5 L46,42 L54,42 L54,42.5 L54.0048953,42.6996403 C54.1055655,44.7477608 55.746685,46.3909069 57.7939606,46.4947851 L58,46.5 L58.5,46.5 L58.6996403,46.4951047 C60.7477608,46.3944345 62.3909069,44.753315 62.4947851,42.7060394 L62.5,42.5 L62.5,34.5 L62.4951047,34.3003597 C62.3944345,32.2522392 60.753315,30.6090931 58.7060394,30.5052149 L58.5,30.5 L58,30.5 L57.8003597,30.5048953 C55.7522392,30.6055655 54.1090931,32.246685 54.0052149,34.2939606 L54,34.5 L54,35 L46,35 L46,34.5 L46.0037999,34.1950252 C46.1281746,29.2091318 49.2936635,24.9782906 53.7151717,23.2875963 L53.9990843,23.1831465 L54,18.5 L62,18.5 Z" id="Shape" fill="#000000" fill-rule="nonzero"></path>
  </g>
</svg>
