<?xml version="1.0" encoding="UTF-8"?><svg viewBox="0 0 116 116" version="1.1" xmlns="http://www.w3.org/2000/svg" xmlns:xlink="http://www.w3.org/1999/xlink">
  <title>musical-notes</title>
  <g id="musical-notes" stroke="none" stroke-width="1" fill="none" fill-rule="evenodd">
    <path d="M102.1921,11.3774852 C102.362044,11.8873175 102.462567,12.4172029 102.491355,12.9528711 L102.5,13.2748518 L102.5,67 L102.483398,66.9996978 C102.451988,73.5767878 98.1388664,80.3959398 91.47041,84.245975 C82.0856772,89.6642529 70.7136104,88.2941435 66.1499019,80.3895685 C61.5861934,72.4849935 66.0856772,61.95144 75.47041,56.533162 C80.3742299,53.7019403 85.9227718,52.66283 90.8267496,53.6210393 L91.245482,53.7080677 L89.5235728,61.5205595 C86.5348088,60.8618222 82.8360806,61.5181944 79.47041,63.4613653 C73.5497788,66.8796433 71.0143966,72.8151205 73.0781051,76.3895685 C75.1418136,79.9640165 81.5497788,80.7360497 87.47041,77.3177717 C91.8304564,74.8004977 94.5339023,70.4540417 94.4830021,66.8320957 L94.4752507,66.5862976 L94.4997106,66.585224 L94.4997106,32.049224 L67.6946399,40.9848236 L65.1648178,33.3953572 L94.4997106,23.617224 L94.5,16.049 L55.8675445,28.9271887 C55.101903,29.1824026 54.5698959,29.8700819 54.5063858,30.6643723 L54.5,30.8245553 L54.5,91 L46.5,91 C46.5,90.1365132 46.2437161,89.1086622 45.8923048,88.5 C43.8285963,84.925552 37.4206312,84.1535188 31.5,87.5717968 C25.5793688,90.9900748 23.0439867,96.925552 25.1076952,100.5 C27.1714037,104.074448 33.5793688,104.846481 39.5,101.428203 C40.8928489,100.624042 42.1333684,99.656026 43.1792745,98.5722218 L43.520644,98.2067312 L49.4561021,103.57053 C47.7804969,105.424717 45.7672162,107.047429 43.5,108.356406 C34.1152672,113.774684 22.7432004,112.404575 18.1794919,104.5 C13.6157834,96.595425 18.1152672,86.0618715 27.5,80.6435935 C33.8290576,76.9895104 41.0619834,76.4228842 46.5009049,78.8658301 L46.5,30.8245553 C46.5,26.6159024 49.1332477,22.8689408 53.067479,21.4320882 L53.3377223,21.3377223 L94.6026334,7.58275199 C97.7462933,6.53486535 101.144213,8.23382527 102.1921,11.3774852 Z" id="Path" fill="#000000" fill-rule="nonzero"></path>
  </g>
</svg>
