<?xml version="1.0" encoding="UTF-8"?><svg viewBox="0 0 116 116" version="1.1" xmlns="http://www.w3.org/2000/svg" xmlns:xlink="http://www.w3.org/1999/xlink">
  <title>next</title>
  <g id="next" stroke="none" stroke-width="1" fill="none" fill-rule="evenodd">
    <path d="M91.5,14.5 C95.2854517,14.5 98.3690987,17.5047834 98.495941,21.2593502 L98.5,21.5 L98.5,95.5 C98.5,99.2854517 95.4952166,102.369099 91.7406498,102.495941 L91.5,102.5 L72.5,102.5 C69.2616031,102.5 66.6224282,99.9344251 66.5041385,96.7249383 L66.5,96.5 L66.5,62.2469996 C66.5,61.1390215 66.04067,60.0844677 65.2379604,59.3308968 L65.0607376,59.1741144 L26.5,27.04 L26.5,89.97 L52.1490854,68.6421014 L57.2641892,74.7931755 L28.3363278,98.848976 C25.7884695,100.967721 22.0054397,100.619857 19.8866944,98.0719982 C19.0503426,97.0662587 18.5672159,95.8168791 18.5065162,94.5153077 L18.5,94.2356704 L18.5,22.7700832 C18.5,19.4563747 21.1862915,16.7700832 24.5,16.7700832 C25.8100444,16.7700832 27.0813926,17.1987547 28.121773,17.9864856 L28.3411064,18.1607555 L70.1822128,53.0283442 C72.8269268,55.2322726 74.3932593,58.4617028 74.4947429,61.8915109 L74.5,62.2469996 L74.5,94.5 L90.5,94.5 L90.5,22.5 L74.5,22.5 L74.5,34.5 L66.5,34.5 L66.5,21.5 C66.5,17.7145483 69.5047834,14.6309013 73.2593502,14.504059 L73.5,14.5 L91.5,14.5 Z" id="Path" fill="#000000" fill-rule="nonzero"></path>
  </g>
</svg>
