<?xml version="1.0" encoding="UTF-8"?><svg viewBox="0 0 116 116" version="1.1" xmlns="http://www.w3.org/2000/svg" xmlns:xlink="http://www.w3.org/1999/xlink">
  <title>numbered-list</title>
  <g id="numbered-list" stroke="none" stroke-width="1" fill="none" fill-rule="evenodd">
    <path d="M14.5,48.5 C18.3659932,48.5 21.5,51.6340068 21.5,55.5 C21.5,59.2854517 18.4952166,62.3690987 14.7406498,62.495941 L14.5,62.5 L21,62.5 L21,68.5 L7.5,68.5 L7.5,63.5 C7.5,59.6340068 10.6340068,56.5 14.5,56.5 C15.0522847,56.5 15.5,56.0522847 15.5,55.5 C15.5,54.9871642 15.1139598,54.5644928 14.6166211,54.5067277 L14.5,54.5 L9.5,54.5 L9.5,48.5 L14.5,48.5 Z M10.5103627,26.472744 C11.9780348,24.8216129 14.5063243,24.67289 16.1574554,26.140562 C16.9544786,26.8490271 17.4332307,27.8440412 17.493522,28.9024975 L17.5,29.1301993 L17.5,37.5 L21,37.5 L21,43.5 L8,43.5 L8,37.5 L11.5,37.5 L11.5,31.889 L8.25777204,29.0069085 L10.5103627,26.472744 Z M16.8698007,73.5 C19.0789397,73.5 20.8698007,75.290861 20.8698007,77.5 C20.8698007,78.5663812 20.4441835,79.5852563 19.6931387,80.3335187 L19.527256,80.4896373 L17.91,81.926 L18.0136355,81.9648604 C20.5668993,82.9475644 22.3987852,85.3835118 22.495941,88.2593502 L22.5,88.5 C22.5,92.2854517 19.4952166,95.3690987 15.7406498,95.495941 L15.5,95.5 L8,95.5 L8,89.5 L15.5,89.5 C16.0522847,89.5 16.5,89.0522847 16.5,88.5 C16.5,87.9871642 16.1139598,87.5644928 15.6166211,87.5067277 L15.5,87.5 L13.1301993,87.5 C11.9876481,87.5 10.8996318,87.0114088 10.140562,86.1574554 C8.72181238,84.561362 8.81349403,82.1456128 10.3126431,80.6605936 L10.472744,80.5103627 L11.608,79.5 L8,79.5 L8,73.5 L16.8698007,73.5 Z M106.5,30.5 L106.5,38.5 L26.5,38.5 L26.5,30.5 L106.5,30.5 Z M106.5,54.5 L106.5,62.5 L26.5,62.5 L26.5,54.5 L106.5,54.5 Z M106.5,78.5 L106.5,86.5 L26.5,86.5 L26.5,78.5 L106.5,78.5 Z" id="Shape" fill="#000000" fill-rule="nonzero"></path>
  </g>
</svg>
