<?xml version="1.0" encoding="UTF-8"?><svg viewBox="0 0 116 116" version="1.1" xmlns="http://www.w3.org/2000/svg" xmlns:xlink="http://www.w3.org/1999/xlink">
  <title>numpad</title>
  <g id="numpad" stroke="none" stroke-width="1" fill="none" fill-rule="evenodd">
    <path d="M51.1934433,35.8911929 L49.556607,35.2083716 L49.1366219,35.0394495 L48.7717949,34.9008607 L48.6041934,34.8408009 L48.6041934,34.8408009 C47.9201827,34.6011206 47.4279537,34.5 47,34.5 C46.9060806,34.5 46.812787,34.5018691 46.7192784,34.505801 L46.4372669,34.5239792 L46.1489209,34.5556976 L46.0007962,34.5769978 L46.0007962,34.5769978 L45.6934903,34.631207 L45.3672389,34.7018637 L45.1954322,34.7437233 L45.1954322,34.7437233 L44.8313041,34.8412319 L44.4356194,34.9580954 L44.0033335,35.0954766 L43.5294021,35.2545387 L43.0087806,35.4364445 L41.3217634,36.0479112 L40.5761389,36.3104354 L39.8845128,36.5433929 C37.7715394,37.2354818 36.3522105,37.5 34.5,37.5 C28.075588,37.5 23.5,32.7032028 23.5,26.5 C23.5,20.4248678 28.4248678,15.5 34.5,15.5 C40.4787016,15.5 45.3433652,20.2697636 45.4962926,26.2115925 L45.5,26.5 L37.5,26.5 C37.5,24.8431458 36.1568542,23.5 34.5,23.5 C32.8431458,23.5 31.5,24.8431458 31.5,26.5 C31.5,28.3672023 32.5805575,29.5 34.5,29.5 L34.7807216,29.494199 L35.0627331,29.4760208 L35.3510791,29.4443024 L35.4992038,29.4230022 L35.4992038,29.4230022 L35.8065097,29.368793 L36.1327611,29.2981363 L36.3045678,29.2562767 L36.3045678,29.2562767 L36.6686959,29.1587681 L37.0643806,29.0419046 L37.4966665,28.9045234 L37.9705979,28.7454613 L38.4912194,28.5635555 L40.1782366,27.9520888 L40.9238611,27.6895646 L41.6154872,27.4566071 C43.7284606,26.7645182 45.1477895,26.5 47,26.5 C48.4365093,26.5 49.7807399,26.7761507 51.249716,27.2908863 L51.7630753,27.4781774 L52.0288512,27.5804798 L52.0288512,27.5804798 L52.7340066,27.8651405 L53.7945524,28.310236 L54.4537833,28.5796431 C56.0255889,29.2039202 57.0564054,29.464857 58.2448375,29.4966462 L58.5,29.5 C60.1568542,29.5 61.5,28.1568542 61.5,26.5 C61.5,24.8431458 60.1568542,23.5 58.5,23.5 C56.9023191,23.5 55.5963391,24.74892 55.5050927,26.3237272 L55.5,26.5 L47.5,26.5 C47.5,20.4248678 52.4248678,15.5 58.5,15.5 C64.5751322,15.5 69.5,20.4248678 69.5,26.5 C69.5,32.4787016 64.7302364,37.3433652 58.7884075,37.4962926 L58.5,37.5 C55.8932922,37.5 53.9136158,36.9970436 51.1934433,35.8911929 Z M82.5,15.5 C88.5751322,15.5 93.5,20.4248678 93.5,26.5 C93.5,32.5751322 88.5751322,37.5 82.5,37.5 C81.1586136,37.5 80.0648825,37.3451157 78.6634044,36.9463463 L78.1223397,36.7852018 L77.5459152,36.6001501 L76.9276221,36.3901482 L76.2609518,36.1541532 L73.9147217,35.2948103 L73.5264023,35.1599563 L73.2774616,35.0766856 C72.1756564,34.7134733 71.3499125,34.5315741 70.6791759,34.5037799 L70.5,34.5 L70.5,26.5 C72.1994302,26.5 73.8423793,26.8394381 75.782097,27.47887 L76.5514975,27.7416109 L77.4723153,28.0757998 L78.8090423,28.568148 L79.5542492,28.8314277 L80.3889516,29.1052937 L80.3889516,29.1052937 L80.7485066,29.2117917 L81.0756384,29.2995636 L81.3749277,29.3697824 L81.6509553,29.4236213 L81.9083019,29.4622532 L82.0314013,29.476233 L82.0314013,29.476233 L82.2693152,29.4942538 L82.5,29.5 C84.1568542,29.5 85.5,28.1568542 85.5,26.5 C85.5,24.8431458 84.1568542,23.5 82.5,23.5 C80.9023191,23.5 79.5963391,24.74892 79.5050927,26.3237272 L79.5,26.5 L71.5,26.5 C71.5,20.4248678 76.4248678,15.5 82.5,15.5 Z M58.5,61.5 C52.4248678,61.5 47.5,56.5751322 47.5,50.5 C47.5,44.4248678 52.4248678,39.5 58.5,39.5 C64.41976,39.5 69.2473394,44.1761808 69.4903993,50.0362034 C69.8154847,50.0113674 70.1497423,50 70.5,50 C70.7691597,50 71.0288709,50.0067128 71.2827439,50.0207614 L71.51,50.035 L71.5147692,49.9250145 C71.8089463,44.2123521 76.4614355,39.6517017 82.2115925,39.5037074 L82.5,39.5 C88.5751322,39.5 93.5,44.4248678 93.5,50.5 C93.5,56.6102034 88.6748635,61.5 82.5,61.5 C80.8850415,61.5 79.6102311,61.2583389 77.8957283,60.6404513 L77.3068727,60.4203699 L76.6790289,60.1713123 L76.0057783,59.892171 L74.0662662,59.056381 L73.5760248,58.851495 L72.9252523,58.5918535 L72.5416682,58.4486654 L72.1933926,58.3278939 L71.8762227,58.2282463 C71.8257197,58.2133268 71.7763377,58.1992337 71.7279891,58.1859399 L71.449598,58.115554 C71.2713373,58.0747376 71.1068095,58.0458491 70.950411,58.0271647 L70.7212098,58.0065757 L70.6098686,58.001617 L70.6098686,58.001617 L70.5,58 C70.4271283,58 70.3536252,58.0021201 70.2787902,58.0065757 L70.049589,58.0271647 C69.8931905,58.0458491 69.7286627,58.0747376 69.550402,58.115554 L69.2720109,58.1859399 L68.9688179,58.2755104 L68.8066074,58.3278939 L68.8066074,58.3278939 L68.4583318,58.4486654 L68.0747477,58.5918535 L67.6516527,58.7587512 L67.184844,58.9506511 L66.6701191,59.1688462 L64.9942217,59.892171 L64.3209711,60.1713123 L63.6931273,60.4203699 L63.1042717,60.6404513 C61.485019,61.2240118 60.2579611,61.4719876 58.7661439,61.4977393 L58.5,61.5 Z M82.5,47.5 C80.9023191,47.5 79.5963391,48.74892 79.5050927,50.3237272 L79.5,50.5 L74.013,50.5 C74.534624,50.6533824 75.0846344,50.8447742 75.6925209,51.0793946 L76.3207914,51.3286179 L76.9941992,51.6078203 L78.9337338,52.443619 L79.4239752,52.648505 L80.0747477,52.9081465 L80.4583318,53.0513346 L80.8066074,53.1721061 L81.1237773,53.2717537 C81.1742803,53.2866732 81.2236623,53.3007663 81.2720109,53.3140601 L81.550402,53.384446 C81.7286627,53.4252624 81.8931905,53.4541509 82.049589,53.4728353 L82.2787902,53.4934243 C82.3536252,53.4978799 82.4271283,53.5 82.5,53.5 C84.2325722,53.5 85.5,52.2155878 85.5,50.5 C85.5,48.8431458 84.1568542,47.5 82.5,47.5 Z M58.5,47.5 C56.8431458,47.5 55.5,48.8431458 55.5,50.5 C55.5,52.0976809 56.74892,53.4036609 58.3237272,53.4949073 L58.5,53.5 C58.5728717,53.5 58.6463748,53.4978799 58.7212098,53.4934243 L58.950411,53.4728353 C59.1068095,53.4541509 59.2713373,53.4252624 59.449598,53.384446 L59.7279891,53.3140601 L60.0311821,53.2244896 L60.1933926,53.1721061 L60.1933926,53.1721061 L60.5416682,53.0513346 L60.9252523,52.9081465 L61.3483473,52.7412488 L61.815156,52.5493489 L62.3298809,52.3311538 L64.0057783,51.607829 L64.6790289,51.3286877 L65.3068727,51.0796301 L65.8957283,50.8595487 C66.2794262,50.7212683 66.6411024,50.6018309 66.9894978,50.4997284 L61.5,50.5 C61.5,48.8431458 60.1568542,47.5 58.5,47.5 Z M37.1096339,72.0969659 L36.968148,71.6393429 L36.8012804,71.1413536 L36.6077369,70.5970264 L36.3862232,70.0003896 L35.6784721,68.1285917 L35.5288563,67.7166369 L35.3977364,67.3431389 L35.2299878,66.8363187 L35.1336108,66.5216036 L35.0465321,66.2154579 L34.9276003,65.7536276 L34.8148083,65.2630455 C34.6095048,64.3254926 34.5,63.4146121 34.5,62.5 C34.5,61.064151 34.6671884,59.8984599 35.0817738,58.4623521 L35.2609927,57.8722055 C35.3573894,57.5686397 35.4641099,57.2513741 35.5817957,56.9160842 L35.8319778,56.2201907 L36.1125415,55.4685442 L36.4884134,54.4791114 L36.7751554,53.6968164 L36.9355552,53.236263 L37.0070196,53.0222753 L37.0070196,53.0222753 L37.1332995,52.6235382 L37.2384762,52.2593323 C37.2543201,52.201212 37.2693395,52.1443079 37.2835618,52.0885086 L37.3595491,51.7660799 C37.4598392,51.2996515 37.5,50.9046777 37.5,50.5 C37.5,48.673726 36.290385,47.5 34.5,47.5 C32.8431458,47.5 31.5,48.8431458 31.5,50.5 C31.5,52.0976809 32.74892,53.4036609 34.3237272,53.4949073 L34.5,53.5 L34.5,61.5 C28.4248678,61.5 23.5,56.5751322 23.5,50.5 C23.5,44.4248678 28.4248678,39.5 34.5,39.5 C40.6556402,39.5 45.5,44.2006289 45.5,50.5 C45.5,51.935849 45.3328116,53.1015401 44.9182262,54.5376479 L44.7390073,55.1277945 C44.6426106,55.4313603 44.5358901,55.7486259 44.4182043,56.0839158 L44.1680222,56.7798093 L43.8874585,57.5314558 L43.5115866,58.5208886 L43.2248446,59.3031836 L43.0644448,59.763737 L42.9929804,59.9777247 L42.9929804,59.9777247 L42.8667005,60.3764618 L42.7615238,60.7406677 C42.7456799,60.798788 42.7306605,60.8556921 42.7164382,60.9114914 L42.6404509,61.2339201 C42.5401608,61.7003485 42.5,62.0953223 42.5,62.5 C42.5,62.8042431 42.5414556,63.1490781 42.6296361,63.5517693 L42.7012473,63.8581115 L42.7547234,64.0619083 L42.8858027,64.5000536 L43.0142907,64.8830346 L43.3089479,65.6950957 L43.9020628,67.2580695 L43.9020628,67.2580695 L44.2081615,68.0881827 C45.0728946,70.4910064 45.4602584,72.1475389 45.4970804,74.1742749 L45.5,74.5 C45.5,80.5751322 40.5751322,85.5 34.5,85.5 C28.4248678,85.5 23.5,80.5751322 23.5,74.5 C23.5,68.5212984 28.2697636,63.6566348 34.2115925,63.5037074 L34.5,63.5 L34.5,71.5 C32.8431458,71.5 31.5,72.8431458 31.5,74.5 C31.5,76.1568542 32.8431458,77.5 34.5,77.5 C36.0976809,77.5 37.4036609,76.25108 37.4949073,74.6762728 L37.5,74.5 C37.5,73.758968 37.3896247,73.049065 37.1096339,72.0969659 Z M58.5,63.5 C64.5751322,63.5 69.5,68.4248678 69.5,74.5 C69.5,80.4787016 64.7302364,85.3433652 58.7884075,85.4962926 L58.5,85.5 L58.5,77.5 C60.1568542,77.5 61.5,76.1568542 61.5,74.5 C61.5,72.8431458 60.1568542,71.5 58.5,71.5 C56.9023191,71.5 55.5963391,72.74892 55.5050927,74.3237272 L55.5009997,74.5581091 L55.5093937,74.6829971 L55.5399539,74.8983189 L55.5399539,74.8983189 L55.5738489,75.0654389 L55.6197947,75.2553464 L55.6788487,75.4714096 L55.8405108,75.9954768 L56.0672942,76.6645872 L56.3676581,77.5056875 L56.9612798,79.1189104 L57.2277066,79.8615359 L57.3823497,80.3103078 L57.5271135,80.7474627 C58.1592308,82.6964909 58.5,84.3492217 58.5,86 C58.5,87.636332 58.2837256,88.9408349 57.7241799,90.7732809 L57.4152132,91.7374795 L57.4152132,91.7374795 L57.1757089,92.440956 L56.908164,93.2012303 L56.4510505,94.4796203 L56.2478841,95.070024 L56.0717654,95.6080211 L55.9215747,96.0988372 C55.8986414,96.1769985 55.8767418,96.2534116 55.8558525,96.3281854 L55.7424543,96.7580281 C55.5730423,97.4445503 55.5,97.9889185 55.5,98.5 C55.5,100.326274 56.709615,101.5 58.5,101.5 C60.1568542,101.5 61.5,100.156854 61.5,98.5 C61.5,96.9023191 60.25108,95.5963391 58.6762728,95.5050927 L58.5,95.5 L58.5,87.5 C64.5751322,87.5 69.5,92.4248678 69.5,98.5 C69.5,104.575132 64.5751322,109.5 58.5,109.5 C52.3443598,109.5 47.5,104.799371 47.5,98.5 C47.5,96.4017589 47.9192221,94.6391386 48.8737321,91.9120313 L49.4554,90.2813331 L49.7383384,89.4633501 L49.8982854,88.9794365 L50.0980086,88.3335785 L50.0980086,88.3335785 L50.2060045,87.9492897 L50.2951944,87.5963805 L50.3330897,87.4301808 L50.3330897,87.4301808 L50.396186,87.115266 L50.443297,86.8196306 L50.4612106,86.6775302 L50.4864589,86.4017388 L50.4940757,86.2668377 L50.4940757,86.2668377 L50.5,86 C50.5,85.3963924 50.3433013,84.586103 50.0120218,83.5143271 L49.7993905,82.8598015 L49.5977912,82.2813429 L48.6556177,79.70874 L48.4598272,79.1580787 L48.2073634,78.4193978 L48.0648034,77.9771197 L47.8866183,77.3751982 L47.8866183,77.3751982 L47.7898661,77.006883 L47.7476559,76.8305498 L47.6748253,76.4900906 L47.6439079,76.3245876 L47.6439079,76.3245876 L47.5923267,75.999593 C47.5698055,75.8384111 47.5520399,75.6785138 47.5383618,75.5168034 L47.5089224,75.0231347 L47.5089224,75.0231347 L47.5009419,74.6787996 L47.5,74.5 C47.5,68.4248678 52.4248678,63.5 58.5,63.5 Z M82.5,63.5 C88.5751322,63.5 93.5,68.4248678 93.5,74.5 C93.5,80.5751322 88.5751322,85.5 82.5,85.5 C80.6041115,85.5 78.8341319,85.0435922 76.5116733,84.1340872 L76.0695723,83.9582461 L73.7407139,82.9925291 L73.0401635,82.7120798 L72.63172,82.5549995 L72.2657951,82.4203691 L71.9386575,82.3069379 L71.5125147,82.1738041 L71.5125147,82.1738041 L71.2660202,82.1078998 L71.0452529,82.0588178 L70.8464814,82.0253075 L70.623264,82.0034123 L70.623264,82.0034123 L70.5,82 L70.5,74 C70.794986,74 71.0759666,74.0084193 71.350386,74.0267807 L71.51,74.038 L71.5147692,73.9250145 C71.8089463,68.2123521 76.4614355,63.6517017 82.2115925,63.5037074 L82.5,63.5 Z M82.5,71.5 C80.9023191,71.5 79.5963391,72.74892 79.5050927,74.3237272 L79.5,74.5 L73.84,74.5 L74.0704638,74.5718706 L74.5515431,74.7323558 L75.0642168,74.9161464 L75.6141554,75.1244193 L76.2070293,75.358351 L77.189248,75.7599325 L79.0632879,76.5395085 L79.6578269,76.7730289 L80.1990101,76.9720741 L80.6899512,77.1376732 C81.4680476,77.3863717 82.049775,77.5 82.5,77.5 C84.1568542,77.5 85.5,76.1568542 85.5,74.5 C85.5,72.8431458 84.1568542,71.5 82.5,71.5 Z" id="Shape" fill="#000000" fill-rule="nonzero"></path>
  </g>
</svg>
