<?xml version="1.0" encoding="UTF-8"?><svg viewBox="0 0 116 116" version="1.1" xmlns="http://www.w3.org/2000/svg" xmlns:xlink="http://www.w3.org/1999/xlink">
  <title>package</title>
  <g id="package" stroke="none" stroke-width="1" fill="none" fill-rule="evenodd">
    <path d="M63.5378009,4.55295119 L63.8665631,4.71114562 L104.711146,25.1334369 C105.87231,25.7140191 106.813845,26.655554 107.394427,27.8167184 C108.841899,30.7116622 107.729442,34.2173442 104.915056,35.7597639 L104.711146,35.8665631 L64.7111456,55.8665631 C63.4205398,56.5118661 62.5826565,57.7988782 62.5057847,59.2287777 L62.5,59.4442719 L62.5,103.966 L100.318482,84.6642252 C101.593551,84.0134087 102.418618,82.7341218 102.494305,81.315294 L102.5,81.1014844 L102.5,42.6470483 L110.5,42.6470483 L110.5,81.1014844 C110.5,85.5035301 108.090866,89.5428126 104.239792,91.6397609 L103.955447,91.7897068 L64.682344,111.835353 C61.238961,113.592913 57.0227636,112.226284 55.2652036,108.782901 C54.8125326,107.896035 54.5548545,106.923969 54.5078456,105.931898 L54.5,105.600557 L54.5,59.4442719 C54.5,55.004711 56.9499742,50.9373239 60.8522467,48.8563841 L61.1334369,48.7111456 L97.556,30.5 L60.2888544,11.8665631 C59.2331263,11.3386991 58.0021629,11.3057076 56.9245304,11.7675886 L56.7111456,11.8665631 L43.649,18.397 L68.3125816,30.9342535 L64.720708,38.082474 L34.398,23.022 L19.436,30.503 L52.2049758,46.9220384 L48.6212923,54.0744654 L14.5,36.978 L14.5,81.5557281 C14.5,82.9986693 15.2764259,84.3236642 16.5209887,85.031891 L16.7111456,85.1334369 L48.8737664,101.214747 L45.2960577,108.370165 L13.1334369,92.2888544 C9.16257289,90.3034224 6.62025302,86.293108 6.50415316,81.8721848 L6.5,81.5557281 L6.5,33.7390917 C6.5,32.8059281 6.71765934,31.8856271 7.1356797,31.0513291 C7.61897608,30.0867511 8.32706611,29.3091943 9.16458995,28.7503569 L9.246,28.697 L9.3110821,28.5031715 C9.78676947,27.1562574 10.7410283,25.9765876 12.0812121,25.242102 L12.2851225,25.1353028 L53.1334369,4.71114562 C56.4027884,3.07646987 60.2323094,3.02373839 63.5378009,4.55295119 Z M85.5,63.118034 C88.1887547,63.118034 90.3818181,65.2403407 90.4953805,67.9011444 L90.5,68.118034 L90.5,81.263932 C90.5,83.4553989 89.3060633,85.4654958 87.398182,86.5175789 L87.1832816,86.6304952 L72.2888544,94.0777088 L68.7111456,86.9222912 L82.5,80.028 L82.5,72.971 L74.5,76.971 L74.5,82.5 L66.5,82.5 L66.5,75.736068 C66.5,73.5446011 67.6939367,71.5345042 69.601818,70.4824211 L69.8167184,70.3695048 L83.263932,63.645898 C83.9582092,63.2987594 84.7237745,63.118034 85.5,63.118034 Z" id="Shape" fill="#000000" fill-rule="nonzero"></path>
  </g>
</svg>
