<?xml version="1.0" encoding="UTF-8"?><svg viewBox="0 0 116 116" version="1.1" xmlns="http://www.w3.org/2000/svg" xmlns:xlink="http://www.w3.org/1999/xlink">
  <title>paper-plane</title>
  <g id="paper-plane" stroke="none" stroke-width="1" fill="none" fill-rule="evenodd">
    <path d="M10.2004992,15.3595655 C11.1687724,15.1023679 12.1898483,15.142484 13.1318115,15.4712797 L13.3866499,15.5681021 L105.302512,53.3876495 C107.856216,54.4383921 109.074606,57.3603729 108.023863,59.9140763 C107.555482,61.0524212 106.685031,61.9750179 105.583089,62.509769 L105.343477,62.6183594 L13.4334379,101.392907 C10.889161,102.466274 7.95648139,101.273866 6.88311459,98.7295888 C6.48828048,97.7936858 6.38869568,96.7618562 6.59396241,95.7714529 L6.65750976,95.5024733 L13.9192353,68.1642124 C14.634487,65.4715003 16.682153,63.3863546 19.2702009,62.580048 L19.543,62.5 L18.5,62.5 L18.5,54.5 L19.34,54.5 L19.1104992,54.4269216 C16.6891624,53.6102973 14.7706257,51.6677191 14.0130365,49.1698989 L13.9363386,48.9001766 L6.65168659,21.4756042 C5.94276667,18.8067292 7.53162418,16.0684854 10.2004992,15.3595655 Z M95.6,58.045 L15.936,25.268 L21.6682197,46.8463957 L82.4691797,54.0276115 L81.5308203,61.9723885 L53.569,58.67 L53.6103229,58.7780739 C53.8372547,59.4019929 53.9713477,60.0704919 53.995897,60.7668659 L54,61 C54,64.4006268 51.4734164,67.256557 48.1253921,67.6925373 L47.8904977,67.7190046 L21.6511163,70.2179933 L15.96,91.643 L95.6,58.045 Z" id="Path-36" fill="#000000" fill-rule="nonzero"></path>
  </g>
</svg>
