<?xml version="1.0" encoding="UTF-8"?><svg viewBox="0 0 116 116" version="1.1" xmlns="http://www.w3.org/2000/svg" xmlns:xlink="http://www.w3.org/1999/xlink">
  <title>paperclip</title>
  <g id="paperclip" stroke="none" stroke-width="1" fill="none" fill-rule="evenodd">
    <path d="M82.5,86.5 L82.5,78.5 L34.5,78.5 C23.454305,78.5 14.5,69.545695 14.5,58.5 C14.5,47.5693643 23.2687286,38.686775 34.1555106,38.5029071 L34.5,38.5 L90.5,38.5 C97.127417,38.5 102.5,43.872583 102.5,50.5 C102.5,57.0254567 97.2914556,62.3343928 90.8049748,62.4962001 L90.5,62.5 L34.5,62.5 C32.290861,62.5 30.5,60.709139 30.5,58.5 C30.5,56.3578046 32.1839685,54.6089211 34.3003597,54.5048953 L34.5,54.5 L82.5,54.5 L82.5,46.5 L34.5,46.5 C27.872583,46.5 22.5,51.872583 22.5,58.5 C22.5,65.0254567 27.7085444,70.3343928 34.1950252,70.4962001 L34.5,70.5 L90.5,70.5 C101.545695,70.5 110.5,61.545695 110.5,50.5 C110.5,39.5693643 101.731271,30.686775 90.8444894,30.5029071 L90.5,30.5 L34.5,30.5 C19.036027,30.5 6.5,43.036027 6.5,58.5 C6.5,73.8093333 18.7865601,86.2489867 34.0369688,86.4962488 L34.5,86.5 L82.5,86.5 Z" id="Path" fill="#000000" fill-rule="nonzero"></path>
  </g>
</svg>
