<?xml version="1.0" encoding="UTF-8"?><svg viewBox="0 0 116 116" version="1.1" xmlns="http://www.w3.org/2000/svg" xmlns:xlink="http://www.w3.org/1999/xlink">
  <title>pause</title>
  <g id="pause" stroke="none" stroke-width="1" fill="none" fill-rule="evenodd">
    <path d="M43.5,6.5 C47.2854517,6.5 50.3690987,9.50478338 50.495941,13.2593502 L50.5,13.5 L50.5,83 L42.5,83 L42.5,14.5 L34.5,14.5 L34.5,102.5 L42.5,102.5 L42.5,98.5 L50.5,98.5 L50.5,103.5 C50.5,107.285452 47.4952166,110.369099 43.7406498,110.495941 L43.5,110.5 L33.5,110.5 C29.7145483,110.5 26.6309013,107.495217 26.504059,103.74065 L26.5,103.5 L26.5,13.5 C26.5,9.71454828 29.5047834,6.63090132 33.2593502,6.50405902 L33.5,6.5 L43.5,6.5 Z M86,6.5 L86,14.5 L74.5,14.5 L74.5,102.5 L82,102.5 L82,34 L90,34 L90,103.5 C90,107.285452 86.9952166,110.369099 83.2406498,110.495941 L83,110.5 L73.5,110.5 C69.7145483,110.5 66.6309013,107.495217 66.504059,103.74065 L66.5,103.5 L66.5,13.5 C66.5,9.71454828 69.5047834,6.63090132 73.2593502,6.50405902 L73.5,6.5 L86,6.5 Z" id="Shape" fill="#000000" fill-rule="nonzero"></path>
  </g>
</svg>
