<?xml version="1.0" encoding="UTF-8"?><svg viewBox="0 0 116 116" version="1.1" xmlns="http://www.w3.org/2000/svg" xmlns:xlink="http://www.w3.org/1999/xlink">
  <title>pause-circle</title>
  <g id="pause-circle" stroke="none" stroke-width="1" fill="none" fill-rule="evenodd">
    <path d="M58,0 C90.0325155,0 116,25.9674845 116,58 C116,89.7121903 90.5492684,115.480044 58.9591361,115.99223 L58,116 L58,108 C85.6142375,108 108,85.6142375 108,58 C108,30.3857625 85.6142375,8 58,8 C30.3857625,8 8,30.3857625 8,58 C8,71.2329446 13.1591228,83.6392537 22.2071266,92.9123953 L22.6340953,93.3447703 L16.9755619,98.9999449 C6.17866704,88.1966375 0,73.5824134 0,58 C0,25.9674845 25.9674845,0 58,0 Z M47.5,22.5 C51.2854517,22.5 54.3690987,25.5047834 54.495941,29.2593502 L54.5,29.5 L54.5,66.5 L46.5,66.5 L46.5,30.5 L42.5,30.5 L42.5,86.5 L46.5,86.5 L46.5,82.5 L54.5,82.5 L54.5,87.5 C54.5,91.2854517 51.4952166,94.3690987 47.7406498,94.495941 L47.5,94.5 L41.5,94.5 C37.7145483,94.5 34.6309013,91.4952166 34.504059,87.7406498 L34.5,87.5 L34.5,29.5 C34.5,25.7145483 37.5047834,22.6309013 41.2593502,22.504059 L41.5,22.5 L47.5,22.5 Z M78.5,22.5 L78.5,30.5 L70.5,30.5 L70.5,86.5 L74.5,86.5 L74.5,42.5 L82.5,42.5 L82.5,87.5 C82.5,91.2854517 79.4952166,94.3690987 75.7406498,94.495941 L75.5,94.5 L69.5,94.5 C65.7145483,94.5 62.6309013,91.4952166 62.504059,87.7406498 L62.5,87.5 L62.5,29.5 C62.5,25.7145483 65.5047834,22.6309013 69.2593502,22.504059 L69.5,22.5 L78.5,22.5 Z" id="Shape" fill="#000000" fill-rule="nonzero"></path>
  </g>
</svg>
