<?xml version="1.0" encoding="UTF-8"?><svg viewBox="0 0 116 116" version="1.1" xmlns="http://www.w3.org/2000/svg" xmlns:xlink="http://www.w3.org/1999/xlink">
  <title>paw</title>
  <g id="paw" stroke="none" stroke-width="1" fill="none" fill-rule="evenodd">
    <path d="M44.5,6.5 C52.5770001,6.5 58.5,14.7921999 58.5,24.5 C58.5,28.492503 57.5018045,32.3105627 55.6701537,35.4233422 L55.4368684,35.8087279 L48.6455356,31.5805133 C49.8172122,29.6985734 50.5,27.1961745 50.5,24.5 C50.5,18.7438271 47.4686949,14.5 44.5,14.5 C41.5862809,14.5 38.6122491,18.5881037 38.503099,24.1817859 L38.5,24.5 C38.5,33.2829552 41.370334,36.8937549 47.5142314,38.0770333 L48.0906698,38.1794442 C48.3835496,38.2272823 48.6834291,38.2701291 48.990348,38.3082547 L49.6135832,38.3782907 L50.0829756,38.4224995 L50.5492046,38.4597278 L51.0193393,38.4903059 L51.5004484,38.5145641 L51.999601,38.5328326 L52.5238659,38.5454418 L53.3728124,38.5544669 L54.3180244,38.5526164 L55.3833596,38.541005 L58.143979,38.5007976 L58.5,38.5 C61.5006938,38.5 64.4891653,39.5790958 67.4741228,41.5453617 C72.0490079,44.5589527 76.6470206,49.6495102 81.3690919,56.4384723 L82.1572698,57.585627 L82.5522527,58.1708771 L82.5522527,58.1708771 L83.3440713,59.3644795 L83.740933,59.9727344 L83.740933,59.9727344 C86.092663,63.5966637 88.3181119,67.3677071 90.614068,71.5195322 L91.5700122,73.2664427 L94.6307056,78.9211103 L94.8148561,79.2501596 L94.8819556,79.364028 C98.5642077,85.1942605 99.2048176,92.8175178 96.5632535,99.1106558 C93.6629574,106.020185 87.3122206,110.356182 78.9212426,110.496489 L78.5,110.5 L38.5,110.5 C29.0470425,110.5 22.5243734,105.666048 19.9017685,97.9791025 C17.8279632,91.9007078 18.5400995,84.5761081 21.5140749,80.0165605 L21.7929035,79.6071782 L25.0348782,75.1908134 L30.1854769,68.2160694 L31.9013074,65.8575151 L33.2476796,63.982142 L34.4444766,62.2904445 L35.4802951,60.799121 L36.2122806,59.721462 L36.7072434,58.9743648 L37.0233833,58.4843896 L37.2907262,58.0570316 L37.5078465,57.6943783 L37.6733188,57.3985168 L37.7542365,57.2394132 L37.8111437,57.111541 L45.2403045,60.0792962 L45.1387561,60.3194842 L45.0177178,60.5804313 L44.877066,60.8624528 L44.6290434,61.3256895 L44.3361968,61.8381175 L43.9981096,62.4008012 L43.6143656,63.0148048 L43.1845484,63.6811927 L42.7082416,64.4010292 L42.1850287,65.1753786 L41.4137271,66.294482 L40.3297904,67.8361477 L38.8508011,69.9020709 L37.1741947,72.2115895 L34.9771717,75.1995365 L28.6049969,83.8364977 L28.2887688,84.2768399 C26.6550014,86.6367261 26.1438928,91.4995598 27.4732315,95.3958975 C28.9756617,99.7995721 32.379313,102.390566 38.1297588,102.496612 L38.5,102.5 L78.5,102.5 C83.8662828,102.5 87.4808007,100.078509 89.1867465,96.0143442 C90.7682626,92.2466147 90.4290361,87.5454723 88.3151049,83.9588969 L88.1557802,83.6931303 L88.1704282,83.7088845 L88.1635535,83.6859345 L88.0568025,83.4679667 L87.3351368,82.1163393 L85.5664879,78.9048247 L83.3631684,74.9858775 L82.2281832,72.9983898 L81.3474781,71.472545 L80.4693796,69.9677076 L79.6076504,68.5100372 L79.0490547,67.577379 L78.2451917,66.2564525 L77.4943989,65.0524519 L77.0301501,64.3276619 L76.6730514,63.7803048 L75.961387,62.7070718 L75.2532875,61.6629107 L74.9006447,61.1518934 L74.9006447,61.1518934 L74.1983135,60.1523081 C73.9648784,59.8241447 73.732131,59.5010418 73.5001087,59.1830854 L72.8062549,58.2447416 C69.348238,53.6310807 66.0618077,50.1947417 63.0733205,48.2261506 C61.2953432,47.0549526 59.7584454,46.5 58.5,46.5 L54.6448236,46.5504157 L53.9027906,46.555073 L52.8815705,46.552089 L52.2501611,46.5428 L51.6488228,46.527149 L51.0694535,46.5046881 L50.2238683,46.4572489 L50.2238683,46.4572489 L49.6639753,46.4158046 L49.0976945,46.3659834 L48.8096267,46.3377916 C37.4743142,45.1928582 30.6463175,38.73834 30.5023238,24.9474158 L30.5,24.5 C30.5,14.7921999 36.4229999,6.5 44.5,6.5 Z M20.5,34.5 C28.5770001,34.5 34.5,42.7921999 34.5,52.5 C34.5,55.9016251 33.7761634,59.1794609 32.4221661,62.0087047 L32.2031539,62.4516522 L25.078231,58.8135931 C25.9885999,57.0306896 26.5,54.8350202 26.5,52.5 C26.5,46.7438271 23.4686949,42.5 20.5,42.5 C17.5313051,42.5 14.5,46.7438271 14.5,52.5 C14.5,58.1495771 17.4200741,62.3423026 20.3350277,62.4956513 L20.5,62.5 L20.5,70.5 C12.4229999,70.5 6.5,62.2078001 6.5,52.5 C6.5,42.7921999 12.4229999,34.5 20.5,34.5 Z M97.5,34.5 C105.577,34.5 111.5,42.7921999 111.5,52.5 C111.5,55.244422 111.029294,57.9104502 110.132035,60.3305864 L109.946909,60.8112854 L102.518338,57.8420542 C103.154664,56.2500609 103.5,54.4199577 103.5,52.5 C103.5,46.7438271 100.468695,42.5 97.5,42.5 C94.5313051,42.5 91.5,46.7438271 91.5,52.5 C91.5,58.1495771 94.4200741,62.3423026 97.3350277,62.4956513 L97.5,62.5 L97.5,70.5 C89.4229999,70.5 83.5,62.2078001 83.5,52.5 C83.5,42.7921999 89.4229999,34.5 97.5,34.5 Z M73.5,6.5 C81.5770001,6.5 87.5,14.7921999 87.5,24.5 C87.5,27.9384544 86.7603675,31.2502741 85.3782983,34.0997655 L85.1661818,34.5236798 L78.0568649,30.8552178 C78.9803357,29.0655723 79.5,26.8537351 79.5,24.5 C79.5,18.7438271 76.4686949,14.5 73.5,14.5 C70.5313051,14.5 67.5,18.7438271 67.5,24.5 C67.5,30.1495771 70.4200741,34.3423026 73.3350277,34.4956513 L73.5,34.5 L73.5,42.5 C65.4229999,42.5 59.5,34.2078001 59.5,24.5 C59.5,14.7921999 65.4229999,6.5 73.5,6.5 Z" id="Shape" fill="#000000" fill-rule="nonzero"></path>
  </g>
</svg>
