<?xml version="1.0" encoding="UTF-8"?><svg viewBox="0 0 116 116" version="1.1" xmlns="http://www.w3.org/2000/svg" xmlns:xlink="http://www.w3.org/1999/xlink">
  <title>people</title>
  <g id="people" stroke="none" stroke-width="1" fill="none" fill-rule="evenodd">
    <path d="M74.5,6.5 C87.187299,6.5 97,19.2299905 97,34.5 C97,42.1350048 94.5468248,49.1350048 90.5077371,54.2262536 L90.286,54.5 L90.5,54.5 C101.430636,54.5 110.313225,63.2687286 110.497093,74.1555106 L110.5,74.5 L110.5,106.5 L102.5,106.5 L102.5,74.5 C102.5,67.9745433 97.2914556,62.6656072 90.8049748,62.5037999 L90.5,62.5 L74.501506,62.500055 C76.948075,65.7572663 78.423292,69.7857729 78.4970929,74.1555106 L78.5,74.5 L78.5,106.5 L70.5,106.5 L70.5,74.5 C70.5,67.9745433 65.2914556,62.6656072 58.8049748,62.5037999 L58.5,62.5 L42.5,62.5 L42.5,54.5 C50.2472367,54.5 57,45.7396585 57,34.5 C57,23.2603415 50.2472367,14.5 42.5,14.5 C34.7527633,14.5 28,23.2603415 28,34.5 C28,42.4648468 31.4516158,49.4746444 36.5199029,52.6912755 L36.7979472,52.8629492 L33.129,58.973 L43,68.843 L48.1715729,63.6715729 L53.8284271,69.3284271 L47.9497475,75.2071068 C45.2782063,77.878648 40.9845068,77.9393648 38.2392312,75.3892573 L38.0502525,75.2071068 L25.394,62.551 L25.2916926,62.560078 C19.3310322,63.15606 14.6554943,68.1139494 14.5037999,74.1950252 L14.5,74.5 L14.5,106.5 L6.5,106.5 L6.5,74.5 C6.5,63.5693643 15.2687286,54.686775 26.1555106,54.5029071 L26.7142371,54.5012156 C22.4848916,49.3282948 20,42.1692527 20,34.5 C20,19.2299905 29.812701,6.5 42.5,6.5 C55.187299,6.5 65,19.2299905 65,34.5 C65,42.1350048 62.5468248,49.1350048 58.5077371,54.2262536 L58.286,54.5 L58.5,54.5 C65.0423981,54.5 70.8510888,57.6413745 74.5,62.4980551 L74.5,54.5 C82.2472367,54.5 89,45.7396585 89,34.5 C89,23.2603415 82.2472367,14.5 74.5,14.5 C72.4753883,14.5 70.5025109,15.0838642 68.6638294,16.2186624 L68.3206694,16.4378853 L63.9106391,9.7631843 C67.1252142,7.63928789 70.7424797,6.5 74.5,6.5 Z" id="Path" fill="#000000" fill-rule="nonzero"></path>
  </g>
</svg>
