<?xml version="1.0" encoding="UTF-8"?><svg viewBox="0 0 116 116" version="1.1" xmlns="http://www.w3.org/2000/svg" xmlns:xlink="http://www.w3.org/1999/xlink">
  <title>person</title>
  <g id="person" stroke="none" stroke-width="1" fill="none" fill-rule="evenodd">
    <path d="M36.6815721,62.5 L58.409,84.69 L67.056276,75.2917739 L72.943724,80.7082261 L63.5837201,90.8821435 C63.5012997,90.9717309 63.4165563,91.0591531 63.3295765,91.1443208 C60.6300634,93.787594 56.3359627,93.8031132 53.6176809,91.2242509 L53.43063,91.0401213 L33.415,70.599 L33.1798406,70.6315632 C27.2380049,71.4983832 22.6524743,76.5452788 22.5037258,82.6917732 L22.5,83 L22.5,107 L14.5,107 L14.5,83 C14.5,71.7936916 23.4918088,62.6875326 34.6540902,62.5028595 L35,62.5 L36.6815721,62.5 Z M58.5,6 C74.0616322,6 86.5,19.9437647 86.5,37.5 C86.5,47.098388 82.8247837,55.950273 77.0217021,62.0646312 L76.598,62.5 L78.5,62.5 C91.6222857,62.5 102.284846,73.0313372 102.496785,86.1031161 L102.5,86.5 L102.5,106.5 L94.5,106.5 L94.5,86.5 C94.5,77.7686411 87.506099,70.6707953 78.8148707,70.5030364 L78.5,70.5 L58.5,70.5 L58.5,62.5 C69.1023266,62.5 78.5,51.1599156 78.5,37.5 C78.5,24.1713206 69.4267956,14 58.5,14 C47.5732044,14 38.5,24.1713206 38.5,37.5 C38.5,47.3965095 42.720751,55.8349584 49.2800065,59.7065107 L49.599207,59.8902666 L45.6837603,66.8666036 C36.2496571,61.5717434 30.5,50.2905784 30.5,37.5 C30.5,19.9437647 42.9383678,6 58.5,6 Z" id="Shape" fill="#000000" fill-rule="nonzero"></path>
  </g>
</svg>
