<?xml version="1.0" encoding="UTF-8"?><svg viewBox="0 0 116 116" version="1.1" xmlns="http://www.w3.org/2000/svg" xmlns:xlink="http://www.w3.org/1999/xlink">
  <title>person-with-tie</title>
  <g id="person-with-tie" stroke="none" stroke-width="1" fill="none" fill-rule="evenodd" transform="translate(0.000000, 0.000000)">
    <path d="M58.5,6 C74.0616322,6 86.5,19.9437647 86.5,37.5 C86.5,47.3290075 82.6460538,56.3752089 76.5997481,62.5005899 L78,62.5 C91.3956666,62.5 102.280363,73.2507401 102.496718,86.5948477 L102.5,87 L102.5,106.5 L94.5,106.5 L94.5,87 C94.5,77.9945098 87.2854948,70.6740577 78.320899,70.5030582 L78,70.5 L60.232,70.5 L56.482,74.5 L58.592,76.75 L63.6715729,71.6715729 L69.3284271,77.3284271 L63.064,83.592 L70.3024218,105.758393 L62.6975782,108.241607 L58.46,95.266 L54.2947332,107.764911 L46.7052668,105.235089 L53.7467933,84.1105096 C53.7939954,83.9689032 53.8469195,83.8308146 53.9052229,83.696415 L53.981,83.529 L48.723046,77.9197056 C46.9763071,76.0565175 46.9217215,73.1895927 48.5592892,71.263671 L48.723046,71.0802944 L56.767072,62.5 L58.5,62.5 C69.1023266,62.5 78.5,51.1599156 78.5,37.5 C78.5,24.1713206 69.4267956,14 58.5,14 C47.5732044,14 38.5,24.1713206 38.5,37.5 C38.5,47.3965095 42.720751,55.8349584 49.2800065,59.7065107 L49.599207,59.8902666 L45.6837603,66.8666036 C36.2496571,61.5717434 30.5,50.2905784 30.5,37.5 C30.5,19.9437647 42.9383678,6 58.5,6 Z M35,62.5 L35,70.5 C28.1994788,70.5 22.6673491,75.9306294 22.5037258,82.6917732 L22.5,83 L22.5,107 L14.5,107 L14.5,83 C14.5,71.7936916 23.4918088,62.6875326 34.6540902,62.5028595 L35,62.5 Z" id="Shape" fill="#000000" fill-rule="nonzero"></path>
  </g>
</svg>
