<?xml version="1.0" encoding="UTF-8"?><svg viewBox="0 0 116 116" version="1.1" xmlns="http://www.w3.org/2000/svg" xmlns:xlink="http://www.w3.org/1999/xlink">
  <title>person-with-mustache</title>
  <g id="person-with-mustache" stroke="none" stroke-width="1" fill="none" fill-rule="evenodd" transform="translate(0.000000, 0.000000)">
    <path d="M74.9635013,74.7610488 L80.6638837,80.3659039 C79.981118,81.1148863 79.2748545,81.8280107 78.5471678,82.5037968 L78.223,82.8 L86.8,82.8 C99.7582571,82.8 110.287535,93.1996955 110.496825,106.108077 L110.5,106.5 L102.5,106.5 C102.5,97.9348718 95.6412674,90.9716863 87.1164847,90.8031264 L86.8,90.8 L58.07435,90.7995007 C50.8752837,90.7272196 43.7610097,87.5204606 36.7726515,81.3719787 L36.3267574,80.9755292 L41.6732426,75.0244708 C47.574447,80.3261666 53.1565063,82.8452498 58.4660203,82.8001443 C63.6438299,82.7561577 68.9945172,80.2693598 74.5652192,75.1324786 L74.9635013,74.7610488 Z M30.3,82.5 L30.3,90.5 L30,90.5 C21.5452705,90.5 14.6715949,97.2692963 14.5031631,105.683699 L14.5,106 L6.5,106 C6.5,93.1510953 16.8119343,82.7106719 29.6113845,82.5031483 L30.3,82.5 Z M50.5,54.5 C53.4364555,54.5 56.1265656,55.5547302 58.2121536,57.3060141 L58.5,57.556 L58.5303224,57.5285265 C60.5790408,55.7072579 63.2558386,54.5771188 66.1950252,54.5037999 L66.5,54.5 L71.1862915,54.5 C74.2510154,54.5 77.1948652,55.6723658 79.4182589,57.7687425 L79.6715729,58.0147186 L85.3284271,63.6715729 C85.5964406,63.9395864 86.0309764,63.9395864 86.2989899,63.6715729 C86.4019536,63.5686092 86.4688218,63.4362974 86.4914506,63.2942992 L86.5,63.1862915 L86.5,58.5 L94.5,58.5 L94.5,63.1862915 C94.5,65.4900392 93.5848398,67.6994315 91.9558441,69.3284271 C88.6314804,72.6527908 83.2829319,72.7192781 79.8776008,69.5278889 L79.6715729,69.3284271 L74.0147186,63.6715729 C73.3181549,62.9750092 72.3911389,62.561881 71.4128733,62.5064166 L71.1862915,62.5 L66.5,62.5 C64.3578046,62.5 62.6089211,64.1839685 62.5048953,66.3003597 L62.5,66.5 L54.5,66.5 C54.5,64.3578046 52.8160315,62.6089211 50.6996403,62.5048953 L50.5,62.5 L45.8137085,62.5 C44.8286187,62.5 43.8809937,62.8633736 43.1500361,63.5158926 L42.9852814,63.6715729 L37.3284271,69.3284271 C35.6994315,70.9574228 33.4900392,71.872583 31.1862915,71.872583 C26.4762089,71.872583 22.6417179,68.1237299 22.5038389,63.447044 L22.5,63.1862915 L22.5,58.5 L30.5,58.5 L30.5,63.1862915 C30.5,63.5653198 30.8072632,63.872583 31.1862915,63.872583 C31.3319042,63.872583 31.4727457,63.8263075 31.5891546,63.7419005 L31.6715729,63.6715729 L37.3284271,58.0147186 C39.4955142,55.8476316 42.4061181,54.5950033 45.460657,54.5051887 L45.8137085,54.5 L50.5,54.5 Z M58.5,15.6 C76.6121854,15.6 91.0095237,31.1308533 91.2956593,51.3848092 L91.3,52 L83.3,52 C83.3,35.7142664 72.2111673,23.6 58.5,23.6 C44.9259444,23.6 33.9220389,35.4731925 33.7033182,51.5126874 L33.7,52 L25.7,52 C25.7,31.4461925 40.2048633,15.6 58.5,15.6 Z" id="Shape" fill="#000000" fill-rule="nonzero"></path>
  </g>
</svg>
