<?xml version="1.0" encoding="UTF-8"?><svg viewBox="0 0 116 116" version="1.1" xmlns="http://www.w3.org/2000/svg" xmlns:xlink="http://www.w3.org/1999/xlink">
  <title>person-with-caps</title>
  <g id="person-with-caps" stroke="none" stroke-width="1" fill="none" fill-rule="evenodd" transform="translate(0.000000, 0.000000)">
    <path d="M35,70.5 L35,78.5 C28.1994788,78.5 22.6673491,83.9306294 22.5037258,90.6917732 L22.5,91 L22.5,106.5 L14.5,106.5 L14.5,91 C14.5,79.7936916 23.4918088,70.6875326 34.6540902,70.5028595 L35,70.5 Z M58.5,94.5 C53.3942202,94.5 48.5822024,92.573347 44.9170336,89.1801537 L44.5966343,88.8769601 L50.1584572,83.1266448 C52.3839083,85.2791467 55.3406785,86.5 58.5,86.5 C63.7248272,86.5 68.1697498,83.1608309 69.8171317,78.5001286 L58.5,78.5 L58.5,70.5 C69.1023266,70.5 78.5,59.1599156 78.5,45.5 C78.5,44.4134654 78.4423777,43.3597547 78.3269398,42.3311305 L73.6241691,47.0326852 C68.8000212,51.8568326 61.8495509,53.8891125 55.1863962,52.4237901 L53.7258742,52.1077464 L52.7982727,51.9128327 L51.0548962,51.5608554 L49.8462925,51.3299675 L49.0881801,51.1917905 L48.0231326,51.0081324 L47.0454536,50.8527851 L46.442663,50.7649385 L45.8793888,50.6896593 L45.3559055,50.6269417 L44.8724875,50.5767796 L44.4294091,50.539167 L44.0269448,50.5140979 L43.665369,50.5015662 L43.3199565,50.5018022 L42.9173314,50.51622 L42.6948569,50.5288361 L42.6948569,50.5288361 L42.2078512,50.5648836 L41.3730036,50.6459962 L41.3730036,50.6459962 L40.4142326,50.7595633 L39.7069188,50.8533077 L38.9455976,50.9614803 C40.1907242,58.4542816 43.9800956,64.5784669 49.2807627,67.7069516 L49.599207,67.8902666 L45.6837603,74.8666036 C37.9637622,70.5337795 32.6926819,62.1761146 31.0471598,52.2385627 C27.6667593,52.3342846 24.6236038,49.9618949 23.9798293,46.5323525 C23.5484408,44.2342416 24.2940959,41.8854196 25.9419153,40.2592864 L26.024,40.18 L31.999,33.046 L32,32.75 C32,18.3975001 43.5186501,6.735325 57.8159083,6.50351675 L58.25,6.5 C68.0519486,6.5 76.8908399,11.9225909 81.4159032,20.3954306 L81.6186052,20.7826521 L74.5005395,24.4341094 C71.3969261,18.3839979 65.1707484,14.5 58.25,14.5 C49.523901,14.5 42.2281981,20.624254 40.4266148,28.8090384 L40.339,29.229 L40.9655416,29.09123 C45.5960041,28.0938636 50.1608791,27.5643603 54.6576535,27.5055169 L55.5,27.5 C58.7089247,27.5 62.3727125,27.7411034 66.4971294,28.2217611 L67.9719417,28.4013494 C68.7189205,28.4961144 69.4802653,28.598334 70.2560078,28.7079995 L71.8266989,28.9372561 C73.1516212,29.1365723 74.5165957,29.3565561 75.9217691,29.5971679 L77.627282,29.8958011 C78.2022244,29.9986444 78.783608,30.1047856 79.3714422,30.2142222 C80.9148156,30.501638 82.15962,31.4694204 82.8535975,32.7499253 L84.5,32.75 L84.5,33.785 L84.6865741,34.3170534 C85.8235144,37.6593613 86.4266883,41.1163396 86.4937159,44.8055274 L86.5,45.5 C86.5,55.098388 82.8247837,63.950273 77.0217021,70.0646312 L76.598,70.5 L78.5,70.5 C91.6222857,70.5 102.284846,81.0313372 102.496785,94.1031161 L102.5,94.5 L102.5,106.5 L94.5,106.5 L94.5,94.5 C94.5,85.7686411 87.506099,78.6707953 78.8148707,78.5030364 L78.5,78.5 L78.099778,78.5007366 C76.2464121,87.6293309 68.1755714,94.5 58.5,94.5 Z M55.5,35.5 C50.1051921,35.5 44.5618275,36.2773735 38.8635339,37.8392124 L38.284,38.001 L33.471,43.748 L34.2723933,43.6087994 L35.2062948,43.4506455 L36.0990116,43.3046508 L36.9508372,43.1708162 L38.1525462,42.9928669 L38.9034271,42.8894375 L39.6144437,42.7981721 L40.2858892,42.7190719 L40.9180571,42.6521379 L41.5112406,42.5973712 L42.0657333,42.5547729 L42.5818286,42.5243443 C42.6646609,42.520287 42.7459056,42.5167369 42.8255688,42.5136939 L43.2846178,42.5015216 L43.7364823,42.5018302 L44.2369729,42.5164693 L44.7744141,42.5457413 C44.9597529,42.5579367 45.1513,42.5725698 45.3491053,42.5896396 L46.2816408,42.6828968 L46.2816408,42.6828968 L46.9507666,42.7633321 L47.6581902,42.8583706 L48.4042107,42.9680059 L49.5962657,43.1598133 L49.5962657,43.1598133 L50.4400884,43.3059117 L51.3235557,43.4665839 L52.2469671,43.6418233 L53.7076339,43.9319815 L55.2598585,44.2548791 L56.9046512,44.6104937 C60.7883185,45.4645674 64.8346652,44.3382843 67.7161253,41.6198176 L67.967315,41.3758308 L72.245,37.097 L70.7305051,36.8624849 L69.2436813,36.6445595 C68.7546335,36.5750902 68.272149,36.5087925 67.796237,36.4456639 L66.3882284,36.2657827 C62.4547906,35.7830423 58.996898,35.5290856 56.0202871,35.5023581 L55.5,35.5 Z" id="Shape" fill="#000000" fill-rule="nonzero"></path>
  </g>
</svg>
