<?xml version="1.0" encoding="UTF-8"?><svg viewBox="0 0 116 116" version="1.1" xmlns="http://www.w3.org/2000/svg" xmlns:xlink="http://www.w3.org/1999/xlink">
  <title>person-with-hat</title>
  <g id="person-with-hat" stroke="none" stroke-width="1" fill="none" fill-rule="evenodd" transform="translate(0.000000, 0.000000)">
    <path d="M47.2245514,4.4256793 L47.7211254,4.63606808 L48.6919179,5.03407662 C52.8338571,6.69313717 56.1308971,7.5 58.5,7.5 C61.142461,7.5 64.9393525,6.4961958 69.7768739,4.42506943 C71.270023,3.78648019 72.8769497,3.457075 74.5005543,3.45715 C81.026011,3.45745143 86.3347065,8.66624103 86.4962142,15.152553 L86.5,15.4575195 L86.5,27.376 L99.0636066,30.5178397 C100.428647,30.8524346 101.5201,31.8603881 101.968584,33.1787873 L102.034,33.3894826 C102.62873,35.503677 101.451864,37.697522 99.3912193,38.3868982 L99.1954717,38.4470712 L99.0755875,38.4787331 C94.7995604,39.5374309 90.5224842,40.4288012 86.2445701,41.1527618 C86.4141977,42.5800132 86.5,44.0311688 86.5,45.5 C86.5,55.098388 82.8247837,63.950273 77.0217021,70.0646312 L76.599,70.499 L78.5,70.5 C91.6222857,70.5 102.284846,81.0313372 102.496785,94.1031161 L102.5,94.5 L102.5,106.5 L94.5,106.5 L94.5,94.5 C94.5,85.7686411 87.506099,78.6707953 78.8148707,78.5030364 L78.5,78.5 L58.5,78.5 L58.5,70.5 C69.1023266,70.5 78.5,59.1599156 78.5,45.5 C78.5,44.4166618 78.4407698,43.348981 78.3238208,42.3006459 C71.7158762,43.1005767 65.1083931,43.5 58.5,43.5 C51.8915768,43.5 45.2840724,43.1005732 38.6782616,42.3020244 C38.5592092,43.349463 38.5,44.4168626 38.5,45.5 C38.5,55.3965095 42.720751,63.8349584 49.2800065,67.7065107 L49.599207,67.8902666 L45.6837603,74.8666036 C36.2496571,69.5717434 30.5,58.2905784 30.5,45.5 C30.5,44.0310847 30.5858156,42.5799864 30.7555596,41.1528882 C26.7874094,40.4812816 22.818602,39.6654028 18.8506866,38.7054472 L17.5298575,38.38057 L19.4701425,30.61943 C32.4885874,33.8740412 45.4962576,35.5 58.5,35.5 C65.3684117,35.5 72.2379085,35.0463873 79.1095019,34.1387681 L80.049,34.01 L78.5,33.6231056 L78.5,15.4573348 C78.500102,13.2481958 76.7093238,11.457252 74.5001848,11.45715 C73.9584798,11.457125 73.4218101,11.5671373 72.9241099,11.7799932 C67.1805524,14.2390284 62.4109244,15.5 58.5,15.5 C54.5890756,15.5 49.8194476,14.2390284 44.0757421,11.7799298 C42.0445819,10.9102161 39.6929857,11.8514371 38.8231252,13.8821605 C38.645414,14.2970342 38.5394553,14.7383815 38.5091058,15.1876469 L38.5,15.4580078 L38.5,23.326 L38.6134681,23.3517497 C44.8989865,24.7090873 51.1779172,25.4226969 57.4540101,25.4940537 L58.5,25.5 C63.2850856,25.5 68.0711964,25.1266767 72.8601204,24.3795698 L73.9653075,24.2005251 L75.290735,32.0899638 C69.6965012,33.0297963 64.0988451,33.5 58.5,33.5 C50.5325652,33.5 42.568724,32.5478211 34.6144687,30.6458208 L33.5298575,30.38057 L30.5,29.6231056 L30.5,15.4584366 C30.4998259,13.8336378 30.8296155,12.2257268 31.4693757,10.7321814 C34.0788113,4.64035183 41.1324743,1.81713931 47.2245514,4.4256793 Z M36.6815721,70.5 L58.529,92.813 L63.6715729,87.6715729 L69.3284271,93.3284271 L63.4198208,99.2364851 C60.7203076,101.879758 56.426207,101.895277 53.7079252,99.3164152 L53.5208742,99.1322857 L33.415,78.599 L33.1798406,78.6315632 C27.2380049,79.4983832 22.6524743,84.5452788 22.5037258,90.6917732 L22.5,91 L22.5,106.5 L14.5,106.5 L14.5,91 C14.5,79.7936916 23.4918088,70.6875326 34.6540902,70.5028595 L35,70.5 L36.6815721,70.5 Z" id="Shape" fill="#000000" fill-rule="nonzero"></path>
  </g>
</svg>
