<?xml version="1.0" encoding="UTF-8"?><svg viewBox="0 0 116 116" version="1.1" xmlns="http://www.w3.org/2000/svg" xmlns:xlink="http://www.w3.org/1999/xlink">
  <title>person-with-headphones</title>
  <g id="person-with-headphones" stroke="none" stroke-width="1" fill="none" fill-rule="evenodd" transform="translate(0.000000, 0.000000)">
    <path d="M58.5,22 C74.0616322,22 86.5,35.9437647 86.5,53.5 C86.5,63.098388 82.8247837,71.950273 77.0217021,78.0646312 L76.598,78.5 L78.5,78.5 C91.6222857,78.5 102.284846,89.0313372 102.496785,102.103116 L102.5,102.5 L102.5,106.5 L94.5,106.5 L94.5,102.5 C94.5,93.7686411 87.506099,86.6707953 78.8148707,86.5030364 L78.5,86.5 L58.5,86.5 L58.5,78.5 C69.1023266,78.5 78.5,67.1599156 78.5,53.5 C78.5,40.1713206 69.4267956,30 58.5,30 C47.5732044,30 38.5,40.1713206 38.5,53.5 C38.5,63.3965095 42.720751,71.8349584 49.2800065,75.7065107 L49.599207,75.8902666 L45.6837603,82.8666036 C36.2496571,77.5717434 30.5,66.2905784 30.5,53.5 C30.5,35.9437647 42.9383678,22 58.5,22 Z M35,78.5 L35,86.5 C28.1994788,86.5 22.6673491,91.9306294 22.5037258,98.6917732 L22.5,99 L22.5,106.5 L14.5,106.5 L14.5,99 C14.5,87.7936916 23.4918088,78.6875326 34.6540902,78.5028595 L35,78.5 Z M58.5,6.5 C76.9904934,6.5 92.2250691,20.4402411 94.2673063,38.3843026 L94.296,38.662 L94.4158696,38.6833359 C98.9336171,39.5599071 102.365821,43.4776013 102.496158,48.2200952 L102.5,48.5 L102.5,60.5 C102.5,65.9292399 98.1733292,70.3479317 92.7799048,70.4961582 L92.5,70.5 L86.5,70.5 L86.5,42.5 C86.5,27.036027 73.963973,14.5 58.5,14.5 C43.1906667,14.5 30.7510133,26.7865601 30.5037512,42.0369688 L30.5,42.5 L30.5,70.5 L24.5,70.5 C19.0707601,70.5 14.6520683,66.1733292 14.5038418,60.7799048 L14.5,60.5 L14.5,48.5 C14.5,43.6324056 17.9777996,39.5770948 22.5841304,38.6833359 L22.703,38.662 L22.7326937,38.3843026 C24.7529714,20.633188 39.6834066,6.80025305 57.9046742,6.50482297 L58.5,6.5 Z" id="Shape" fill="#000000" fill-rule="nonzero"></path>
  </g>
</svg>
