<?xml version="1.0" encoding="UTF-8"?><svg viewBox="0 0 116 116" version="1.1" xmlns="http://www.w3.org/2000/svg" xmlns:xlink="http://www.w3.org/1999/xlink">
  <title>person-with-long-hair</title>
  <g id="person-with-long-hair" stroke="none" stroke-width="1" fill="none" fill-rule="evenodd" transform="translate(0.000000, 0.000000)">
    <path d="M62.5,22 L62.5,26.138779 C62.5,32.6240757 67.6469849,37.9158684 74.0923993,38.1319282 L74.3954644,38.1383236 L83.1805557,38.2148561 L84.1623818,40.7430224 C85.699171,44.7001982 86.5,49.0137464 86.5,53.5 C86.5,63.098388 82.8247837,71.950273 77.0217021,78.0646312 L76.598,78.5 L78.5,78.5 C91.6222857,78.5 102.284846,89.0313372 102.496785,102.103116 L102.5,102.5 L102.5,106.5 L94.5,106.5 L94.5,102.5 C94.5,93.7686411 87.506099,86.6707953 78.8148707,86.5030364 L78.5,86.5 L58.5,86.5 L58.5,78.5 C69.1023266,78.5 78.5,67.1599156 78.5,53.5 C78.5,51.029378 78.1918351,48.6428394 77.5967527,46.3871719 L77.535,46.165 L74.325774,46.1380201 C64.8506314,46.0554761 56.9615517,39.3940179 54.9798644,30.5127849 L54.948,30.364 L54.6589042,30.4272809 C45.6300692,32.4631818 38.6599604,41.5606911 38.5027147,53.1010938 L38.5,53.5 C38.5,63.3965095 42.720751,71.8349584 49.2800065,75.7065107 L49.599207,75.8902666 L45.6837603,82.8666036 C36.2496571,77.5717434 30.5,66.2905784 30.5,53.5 C30.5,36.1193271 42.6908443,22.2792365 58.0340973,22.0041728 L58.5,22 L62.5,22 Z M58.7768133,6.5 C82.7162901,6.5 102.214383,25.6254217 102.764885,49.4704455 L102.775752,50.1944518 L102.999904,82.4722229 L95.0000964,82.5277771 L94.7759453,50.250006 C94.6399288,30.6636337 78.8814519,14.8196977 59.3692295,14.5047776 L58.5,14.5 C38.8165715,14.5 22.8227314,30.2970058 22.504823,49.9046742 L22.5,50.5 L22.5,82.75 L22.6862539,82.6088327 C26.0291001,80.0935511 30.1661627,78.5771095 34.6540902,78.5028595 L35,78.5 L35,86.5 C28.1994788,86.5 22.6673491,91.9306294 22.5037258,98.6917732 L22.5,99 L22.5,106.5 L14.5,106.5 L14.5,50.5 C14.5,26.4424763 33.8074515,6.89444953 57.7723795,6.50589474 L58.7768133,6.5 Z" id="Shape" fill="#000000" fill-rule="nonzero"></path>
  </g>
</svg>
