<?xml version="1.0" encoding="UTF-8"?><svg viewBox="0 0 116 116" version="1.1" xmlns="http://www.w3.org/2000/svg" xmlns:xlink="http://www.w3.org/1999/xlink">
  <title>person-with-bow-tie</title>
  <g id="person-with-bow-tie" stroke="none" stroke-width="1" fill="none" fill-rule="evenodd" transform="translate(0.000000, 0.000000)">
    <path d="M58.5,6 C74.0616322,6 86.5,19.9437647 86.5,37.5 C86.5,52.1268446 77.9350887,65.1423118 66.1781128,69.1995106 L68.5103068,71.8659816 L62.4896932,77.1340184 L58.305,72.351 L39.0355339,91.6213203 C37.1420828,93.5147715 34.1078417,93.5721488 32.1452518,91.7934523 L31.9644661,91.6213203 C31.0892963,90.7461506 30.5720641,89.5799533 30.5069895,88.3501959 L30.5,88.0857864 L30.5003933,71.3320984 C25.8758905,73.1137933 22.6298504,77.5524004 22.5038049,82.6895973 L22.5,83 L22.5,107 L14.5,107 L14.5,83 C14.5,72.9602324 21.7636452,64.445341 31.5605356,62.7879237 C32.0312872,62.7082829 32.5816848,62.6462868 33.2301428,62.5961396 C35.2506227,62.4398347 37.2346578,63.1669347 38.6802218,64.5859884 L38.8739594,64.7837667 L45.4181488,71.7642355 L42.085,74.888 L39.6587451,77.3155993 L38.5,76.157 L38.5,80.842 L54.827912,64.5152817 C56.0498518,63.283231 57.6867563,62.5525592 59.419342,62.4614301 L59.9509925,62.4271803 L60.2030633,62.4033733 C70.1557658,61.2716691 78.5,50.3299753 78.5,37.5 C78.5,24.1713206 69.4267956,14 58.5,14 C47.5732044,14 38.5,24.1713206 38.5,37.5 C38.5,47.3965095 42.720751,55.8349584 49.2800065,59.7065107 L49.599207,59.8902666 L45.6837603,66.8666036 C36.2496571,61.5717434 30.5,50.2905784 30.5,37.5 C30.5,19.9437647 42.9383678,6 58.5,6 Z M63.4497475,91.2071068 C60.7782063,93.878648 56.4845068,93.9393648 53.7392312,91.3892573 L53.5502525,91.2071068 L47.6608817,85.317736 L53.317736,79.6608817 L58.5,84.843 L78.6768313,64.6663292 C80.2351395,63.1008779 82.4414384,62.3660021 84.6270842,62.6807187 C84.8657827,62.7151039 85.0902901,62.7542082 85.3039583,62.7996743 C94.4613771,64.7482635 102.321528,76.0066239 102.497004,86.6378301 L102.5,87 L102.5,106.5 L94.5,106.5 L94.5,87 C94.5,81.1114821 90.7634652,74.6353662 86.5006733,71.8679916 L86.5,88.4784228 C86.5,91.2398466 84.2614237,93.4784228 81.5,93.4784228 C80.2075157,93.4784228 78.968801,92.978111 78.040455,92.0883569 L77.859,91.9052463 L71.5872,85.2414588 L77.4128,79.7585412 L78.5,80.914 L78.5,76.156 L63.4497475,91.2071068 Z" id="Shape" fill="#000000" fill-rule="nonzero"></path>
  </g>
</svg>
