<?xml version="1.0" encoding="UTF-8"?><svg viewBox="0 0 116 116" version="1.1" xmlns="http://www.w3.org/2000/svg" xmlns:xlink="http://www.w3.org/1999/xlink">
  <title>phone</title>
  <g id="phone" stroke="none" stroke-width="1" fill="none" fill-rule="evenodd">
    <path d="M41.4980402,75.046362 C60.7129245,94.2612463 88.5142676,105.032619 97.4481103,96.8663878 L97.7130293,96.6131188 L109.442539,84.8836086 C109.654335,84.6718134 109.852318,84.4466428 110.035268,84.2094853 C112.347435,81.2122318 111.851803,76.9353228 108.956479,74.5415889 L108.768416,74.3913854 L88.809757,58.9947055 C86.0862714,56.8937308 82.2521108,57.0883486 79.7563088,59.4212088 L79.5843854,59.5874338 L72.964292,66.2075272 L53.1653021,46.4085373 L47.5084478,52.0653916 L75.9937292,80.5506729 L81.6505835,74.8938187 L78.6211462,71.8643814 L84.619533,65.8659946 L102.981682,80.0307577 L92.056175,90.9562645 C91.6510607,91.3613789 90.2217711,91.7124931 87.9289536,91.6090561 L87.6250065,91.5929536 C84.5538377,91.4065248 80.6397062,90.4595991 76.3400724,88.8120759 C66.5043164,85.0432348 55.9738125,78.2084257 47.1548944,69.3895077 C38.3359764,60.5705897 31.5011673,50.0400858 27.7323262,40.2043298 C26.084803,35.904696 25.1378773,31.9905644 24.9514485,28.9193956 C24.8077282,26.5517924 25.1359742,25.0407325 25.5356358,24.5468631 L25.5881376,24.4882271 L36.5129374,13.5634273 L50.6784075,31.9248691 L44.6800207,37.9232559 L41.6505835,34.8938187 L35.9937292,40.5506729 L40.43738,44.9943238 C42.7272725,47.2842162 46.4075863,47.3362592 48.7606797,45.1504528 L48.9226614,44.9943238 L56.9569684,36.9600168 C59.3891966,34.5277886 59.6868417,30.7002474 57.6925537,27.926427 L57.5496967,27.7346451 L42.1530168,7.77598599 C41.9700667,7.5388285 41.7720836,7.31365789 41.5602885,7.1018627 C38.8835699,4.42514412 34.5783995,4.36937915 31.8338287,6.93456779 L31.6607935,7.1018627 L19.9312834,18.8313729 C11.2950411,27.4676152 22.0890661,55.6373879 41.4980402,75.046362 Z" id="Path" fill="#000000" fill-rule="nonzero"></path>
  </g>
</svg>
