<?xml version="1.0" encoding="UTF-8"?><svg viewBox="0 0 116 116" version="1.1" xmlns="http://www.w3.org/2000/svg" xmlns:xlink="http://www.w3.org/1999/xlink">
  <title>phone-down</title>
  <g id="phone-down" stroke="none" stroke-width="1" fill="none" fill-rule="evenodd">
    <path d="M58.5,34 C31.32605,34 4.051021,46.0420075 3.50823781,58.1335857 L3.5,58.5 L3.5,75.0880323 C3.5,75.387556 3.51922449,75.6867708 3.55755493,75.9838317 C4.04198425,79.7381589 7.41668033,82.4119256 11.1566088,82.057248 L11.3957994,82.0304774 L36.3957994,78.8046709 C39.8072079,78.3644892 42.3807534,75.5157127 42.4959706,72.1013329 L42.5,71.8622259 L42.5,62.5 L70.5,62.5 L70.5,54.5 L30.2157288,54.5 L30.2157288,62.5 L34.5,62.5 L34.5,70.983 L11.5,73.951 L11.5,58.5 C11.5,57.9270817 12.2623851,56.6681462 13.9567929,55.1200204 L14.1831021,54.9164835 C16.4865715,52.8766643 19.923858,50.7785329 24.1291331,48.9032075 C33.749036,44.6132509 46.0281665,42 58.5,42 C70.9718335,42 83.250964,44.6132509 92.8708669,48.9032075 C97.076142,50.7785329 100.513429,52.8766643 102.816898,54.9164835 C104.592672,56.4890062 105.429047,57.7895919 105.495663,58.4214137 L105.5,58.5 L105.5,73.95 L82.5,70.983 L82.5,62.5 L86.7842712,62.5 L86.7842712,54.5 L80.5,54.5 C77.2616031,54.5 74.6224282,57.0655749 74.5041385,60.2750617 L74.5,60.5 L74.5,71.8622259 C74.5,75.301916 76.9960134,78.2188632 80.3675752,78.7700758 L80.6042006,78.8046709 L105.604201,82.0304774 C105.901262,82.0688078 106.200476,82.0880323 106.5,82.0880323 C110.285452,82.0880323 113.369099,79.083249 113.495941,75.3286821 L113.5,75.0880323 L113.5,58.5 C113.5,46.286509 85.9484344,34 58.5,34 Z" id="Path" fill="#000000" fill-rule="nonzero"></path>
  </g>
</svg>
