<?xml version="1.0" encoding="UTF-8"?><svg viewBox="0 0 116 116" version="1.1" xmlns="http://www.w3.org/2000/svg" xmlns:xlink="http://www.w3.org/1999/xlink">
  <title>phone-beaming</title>
  <g id="phone-beaming" stroke="none" stroke-width="1" fill="none" fill-rule="evenodd">
    <path d="M66.7485674,29.0980178 L66.9852814,29.3284271 L72.1568542,34.5 L69.3284271,37.3284271 C68.7194466,37.9374077 68.6836242,38.902503 69.22096,39.5533795 L69.3284271,39.6715729 L77.3284271,47.6715729 C77.9374077,48.2805534 78.902503,48.3163758 79.5533795,47.77904 L79.6715729,47.6715729 L82.5,44.8431458 L87.6715729,50.0147186 C92.2797595,54.6229053 92.3565626,62.0465327 87.9019822,66.7485674 L87.6715729,66.9852814 L46.9852814,107.671573 C42.3770947,112.27976 34.9534673,112.356563 30.2514326,107.901982 L30.0147186,107.671573 L13.7928932,91.4497475 C11.121352,88.7782063 11.0606352,84.4845068 13.6107427,81.7392312 L13.7928932,81.5502525 L17.5502525,77.7928932 C20.2217937,75.121352 24.5154932,75.0606352 27.2607688,77.6107427 L27.4497475,77.7928932 L41.3284271,91.6715729 L35.6715729,97.3284271 L22.5,84.157 L20.157,86.5 L35.6715729,102.014719 C37.1816001,103.524746 39.5985644,103.57508 41.1690541,102.165721 L41.3284271,102.014719 L82.0147186,61.3284271 C83.5247459,59.8183999 83.5750801,57.4014356 82.1657214,55.8309459 L82.0147186,55.6715729 L81.887,55.544 L81.743779,55.5981526 C78.4283583,56.7776339 74.5972385,56.0896031 71.8834669,53.5340604 L71.6715729,53.3284271 L63.6715729,45.3284271 C60.9479023,42.6047566 60.1913272,38.6588896 61.4018474,35.256221 L61.455,35.112 L61.3284271,34.9852814 C59.8183999,33.4752541 57.4014356,33.4249199 55.8309459,34.8342786 L55.6715729,34.9852814 L13.3284271,77.3284271 C12.7194466,77.9374077 12.6836242,78.902503 13.22096,79.5533795 L13.3284271,79.6715729 L7.67157288,85.3284271 C3.97017442,81.6270287 3.90163,75.6684641 7.46593963,71.8834669 L7.67157288,71.6715729 L50.0147186,29.3284271 C54.6229053,24.7202405 62.0465327,24.6434374 66.7485674,29.0980178 Z M75.5498647,2.64023522 C83.6103332,4.83270078 91.5203077,9.8634534 99.306517,17.6496627 C105.609941,23.9530868 110.113477,30.3427324 112.780543,36.8384452 C113.127546,37.6828607 113.30615,38.5870038 113.30615,39.4999939 C113.30615,43.2854456 110.301372,46.3690952 106.546802,46.4959408 L106.306152,46.5 L100.917878,46.5 C97.8844129,46.4995612 95.207323,44.5472678 94.2674835,41.681823 L94.1912126,41.4340014 C93.2481467,38.1516121 90.7886588,34.4455131 86.7359278,30.392782 C83.8687064,27.5255607 81.1532125,25.4343671 78.6076704,24.0972156 L78.5,24.042 L78.499,27.431 L78.7683959,27.5233785 C81.16136,28.3792804 83.1988415,29.59661 84.843609,31.1878677 L85.1673153,31.5111086 C87.385691,33.7976559 88.8513133,36.3263345 89.4836355,39.0695225 L89.5682898,39.4628628 L81.7236808,41.0319736 C81.4633727,39.7305902 80.7281876,38.4244259 79.4255151,37.0817217 C78.5701509,36.2000719 77.3789352,35.4873606 75.800275,34.961368 L75.4560416,34.8515198 C72.5962773,33.9786548 70.6165908,31.3904828 70.5049754,28.42071 L70.5,28.1577148 L70.5,22.4633995 C70.5018682,18.5974071 73.6373879,15.4649146 77.5033804,15.4667816 C78.4342908,15.4672311 79.3560781,15.653357 80.2015652,16.0105748 C84.2186198,17.6914502 88.2676474,20.6107932 92.392782,24.7359278 C97.0187938,29.3619396 100.109929,33.8732958 101.602479,38.3320827 L101.656,38.5 L104.778,38.5 L104.684929,38.2954496 C102.457774,33.5401715 98.9661139,28.7197497 94.1860807,23.8480296 L93.6496627,23.306517 C86.9512719,16.6081261 80.3706825,12.3633954 73.9327151,10.4954086 L73.4501353,10.3597648 L75.5498647,2.64023522 Z" id="Shape" fill="#000000" fill-rule="nonzero"></path>
  </g>
</svg>
