<?xml version="1.0" encoding="UTF-8"?><svg viewBox="0 0 116 116" version="1.1" xmlns="http://www.w3.org/2000/svg" xmlns:xlink="http://www.w3.org/1999/xlink">
  <title>photo-cam-rotate</title>
  <g id="photo-cam-rotate" stroke="none" stroke-width="1" fill="none" fill-rule="evenodd">
    <path d="M71.1862915,14.5 C74.2510154,14.5 77.1948652,15.6723658 79.4182589,17.7687425 L79.6715729,18.0147186 L86.9852814,25.3284271 C87.6818451,26.0249908 88.6088611,26.438119 89.5871267,26.4935834 L89.8137085,26.5 L98.5,26.5 C105.025457,26.5 110.334393,31.7085444 110.4962,38.1950252 L110.5,38.5 L110.5,90.5 C110.5,97.0254567 105.291456,102.334393 98.8049748,102.4962 L98.5,102.5 L34.5,102.5 L34.5,94.5 L56.843,94.5 L48.3786797,86.0355339 C46.4852285,84.1420828 46.4278512,81.1078417 48.2065477,79.1452518 L48.3786797,78.9644661 L57.6715729,69.6715729 L63.3284271,75.3284271 L60.2527986,78.4050903 C68.2647335,77.5321169 74.5,70.7442207 74.5,62.5 C74.5,58.3087031 72.8859279,54.3827708 70.0482023,51.4256531 L69.7603653,51.1331967 L75.3907558,45.4500019 C79.908306,49.9255781 82.5,56.012301 82.5,62.5 C82.5,75.2160387 72.6106391,85.6222935 60.1033922,86.4472892 L63.3284271,89.6715729 L58.499,94.5 L98.5,94.5 C100.642195,94.5 102.391079,92.8160315 102.495105,90.6996403 L102.5,90.5 L102.5,38.5 C102.5,36.3578046 100.816032,34.6089211 98.6996403,34.5048953 L98.5,34.5 L89.8137085,34.5 C86.7489846,34.5 83.8051348,33.3276342 81.5817411,31.2312575 L81.3284271,30.9852814 L74.0147186,23.6715729 C73.3181549,22.9750092 72.3911389,22.561881 71.4128733,22.5064166 L71.1862915,22.5 L46.2469996,22.5 C45.1390215,22.5 44.0844677,22.95933 43.3308968,23.7620396 L43.1741144,23.9392624 L37.9716558,30.1822128 C35.7677274,32.8269268 32.5382972,34.3932593 29.1084891,34.4947429 L28.7530004,34.5 L18.5,34.5 C16.3578046,34.5 14.6089211,36.1839685 14.5048953,38.3003597 L14.5,38.5 L14.5,90.5 C14.5,92.6421954 16.1839685,94.3910789 18.3003597,94.4951047 L18.5,94.5 L18.5,102.5 C11.9745433,102.5 6.66560725,97.2914556 6.50379986,90.8049748 L6.5,90.5 L6.5,38.5 C6.5,31.9745433 11.7085444,26.6656072 18.1950252,26.5037999 L18.5,26.5 L28.7530004,26.5 C29.8609785,26.5 30.9155323,26.04067 31.6691032,25.2379604 L31.8258856,25.0607376 L37.0283442,18.8177872 C39.2322726,16.1730732 42.4617028,14.6067407 45.8915109,14.5052571 L46.2469996,14.5 L71.1862915,14.5 Z M59.3284271,29.6715729 L68.6213203,38.9644661 C70.5147715,40.8579172 70.5721488,43.8921583 68.7934523,45.8547482 L68.6213203,46.0355339 L59.3284271,55.3284271 L53.6715729,49.6715729 L56.7472014,46.5949097 C48.7352665,47.4678831 42.5,54.2557793 42.5,62.5 C42.5,66.6748944 44.1013522,70.5866556 46.9192955,73.5403651 L47.2051309,73.8325168 L41.5576229,79.4987019 C37.0713207,75.0271877 34.5,68.9622493 34.5,62.5 C34.5,49.7843012 44.3888322,39.378263 56.8956047,38.552777 L53.6715729,35.3284271 L59.3284271,29.6715729 Z" id="Shape" fill="#000000" fill-rule="nonzero"></path>
  </g>
</svg>
