<?xml version="1.0" encoding="UTF-8"?><svg viewBox="0 0 116 116" version="1.1" xmlns="http://www.w3.org/2000/svg" xmlns:xlink="http://www.w3.org/1999/xlink">
  <title>photo-cam</title>
  <g id="photo-cam" stroke="none" stroke-width="1" fill="none" fill-rule="evenodd">
    <path d="M71.1862915,14.5 C74.2510154,14.5 77.1948652,15.6723658 79.4182589,17.7687425 L79.6715729,18.0147186 L86.9852814,25.3284271 C87.6818451,26.0249908 88.6088611,26.438119 89.5871267,26.4935834 L89.8137085,26.5 L98.5,26.5 C105.025457,26.5 110.334393,31.7085444 110.4962,38.1950252 L110.5,38.5 L110.5,90.5 C110.5,97.0254567 105.291456,102.334393 98.8049748,102.4962 L98.5,102.5 L34.5,102.5 L34.5,94.5 L98.5,94.5 C100.642195,94.5 102.391079,92.8160315 102.495105,90.6996403 L102.5,90.5 L102.5,38.5 C102.5,36.3578046 100.816032,34.6089211 98.6996403,34.5048953 L98.5,34.5 L89.8137085,34.5 C86.7489846,34.5 83.8051348,33.3276342 81.5817411,31.2312575 L81.3284271,30.9852814 L74.0147186,23.6715729 C73.3181549,22.9750092 72.3911389,22.561881 71.4128733,22.5064166 L71.1862915,22.5 L46.2469996,22.5 C45.1390215,22.5 44.0844677,22.95933 43.3308968,23.7620396 L43.1741144,23.9392624 L37.9716558,30.1822128 C35.7677274,32.8269268 32.5382972,34.3932593 29.1084891,34.4947429 L28.7530004,34.5 L18.5,34.5 C16.3578046,34.5 14.6089211,36.1839685 14.5048953,38.3003597 L14.5,38.5 L14.5,90.5 C14.5,92.6421954 16.1839685,94.3910789 18.3003597,94.4951047 L18.5,94.5 L18.5,102.5 C11.9745433,102.5 6.66560725,97.2914556 6.50379986,90.8049748 L6.5,90.5 L6.5,38.5 C6.5,31.9745433 11.7085444,26.6656072 18.1950252,26.5037999 L18.5,26.5 L28.7530004,26.5 C29.8609785,26.5 30.9155323,26.04067 31.6691032,25.2379604 L31.8258856,25.0607376 L37.0283442,18.8177872 C39.2322726,16.1730732 42.4617028,14.6067407 45.8915109,14.5052571 L46.2469996,14.5 L71.1862915,14.5 Z M58.5,34.5 C67.4601115,34.5 75.716505,38.7431567 80.9600154,45.7778073 L81.2331951,46.1506218 L74.741756,50.8262198 C71.0023937,45.6346182 65.017135,42.5 58.5,42.5 C47.454305,42.5 38.5,51.454305 38.5,62.5 C38.5,73.545695 47.454305,82.5 58.5,82.5 C69.4306357,82.5 78.313225,73.7312714 78.4970929,62.8444894 L78.5,62.5 L86.5,62.5 C86.5,77.963973 73.963973,90.5 58.5,90.5 C43.036027,90.5 30.5,77.963973 30.5,62.5 C30.5,47.036027 43.036027,34.5 58.5,34.5 Z M90.5,38.5 C94.8349143,38.5 98.3645429,41.9478378 98.4961932,46.2508207 L98.5,46.5 L90.5,46.5 L90.5,54.5 C86.081722,54.5 82.5,50.918278 82.5,46.5 C82.5,42.081722 86.081722,38.5 90.5,38.5 Z" id="Shape" fill="#000000" fill-rule="nonzero"></path>
  </g>
</svg>
