<?xml version="1.0" encoding="UTF-8"?><svg viewBox="0 0 116 116" version="1.1" xmlns="http://www.w3.org/2000/svg" xmlns:xlink="http://www.w3.org/1999/xlink">
  <title>picture</title>
  <g id="picture" stroke="none" stroke-width="1" fill="none" fill-rule="evenodd">
    <path d="M98.5,6.5 C105.025457,6.5 110.334393,11.7085444 110.4962,18.1950252 L110.5,18.5 L110.5,58.5 L102.5,58.5 L102.5,18.5 C102.5,16.3578046 100.816032,14.6089211 98.6996403,14.5048953 L98.5,14.5 L18.5,14.5 C16.3578046,14.5 14.6089211,16.1839685 14.5048953,18.3003597 L14.5,18.5 L14.5,65.048 L21.724,58.043 L21.7321895,58.0323969 C21.7846399,57.9642044 21.8396939,57.9079567 21.9049462,57.8490453 L22.0631503,57.7134058 C24.7775397,55.0838411 29.0735098,55.0920032 31.774531,57.6863439 L31.9603465,57.8715398 L42.545,68.797 L67.4289322,43.9142136 C71.2631707,40.0799751 77.4363852,40.0102616 81.3556774,43.7050733 L81.5710678,43.9142136 L106.985281,69.3284271 C109.152368,71.4955142 110.404997,74.4061181 110.494811,77.460657 L110.5,77.8137085 L110.5,87.5 C110.5,91.2854517 107.495217,94.3690987 103.74065,94.495941 L103.5,94.5 L14.5,94.5 L14.5,98.5 C14.5,100.642195 16.1839685,102.391079 18.3003597,102.495105 L18.5,102.5 L99,102.5 C100.868563,102.5 102.395126,101.035722 102.494821,99.1920352 L102.5,99 L110.5,99 C110.5,105.253563 105.508478,110.341293 99.2922675,110.496358 L99,110.5 L18.5,110.5 C11.9745433,110.5 6.66560725,105.291456 6.50379986,98.8049748 L6.5,98.5 L6.5,86.5 L102.5,86.5 L102.5,77.8137085 C102.5,76.8286187 102.136626,75.8809937 101.484107,75.1500361 L101.328427,74.9852814 L75.9142136,49.5710678 C75.1742728,48.831127 73.9987886,48.7921828 73.2130012,49.4542351 L73.0857864,49.5710678 L46.0468469,76.6100074 C44.1533958,78.5034585 41.1191547,78.5608358 39.1565648,76.7821393 L38.9201119,76.5534495 L26.911,64.157 L14.9807292,75.7268541 C13.0566087,77.5926679 10.0180313,77.6016681 8.08328177,75.7879821 L7.91049803,75.6180813 C7.06619893,74.7473979 6.56922431,73.601853 6.50671347,72.396483 L6.5,72.1373521 L6.5,18.5 C6.5,11.9745433 11.7085444,6.66560725 18.1950252,6.50379986 L18.5,6.5 L98.5,6.5 Z M34.5,22.5 C41.0254567,22.5 46.3343928,27.7085444 46.4962001,34.1950252 L46.5,34.5 L38.5,34.5 C38.5,32.290861 36.709139,30.5 34.5,30.5 C32.290861,30.5 30.5,32.290861 30.5,34.5 C30.5,36.6421954 32.1839685,38.3910789 34.3003597,38.4951047 L34.5,38.5 L34.5,46.5 C27.872583,46.5 22.5,41.127417 22.5,34.5 C22.5,27.872583 27.872583,22.5 34.5,22.5 Z" id="Shape" fill="#000000" fill-rule="nonzero"></path>
  </g>
</svg>
