<?xml version="1.0" encoding="UTF-8"?><svg viewBox="0 0 116 116" version="1.1" xmlns="http://www.w3.org/2000/svg" xmlns:xlink="http://www.w3.org/1999/xlink">
  <title>pie-chart</title>
  <g id="pie-chart" stroke="none" stroke-width="1" fill="none" fill-rule="evenodd">
    <path d="M62.5,6.5 L62.5,48.828 L92.3997458,18.866555 L95.2311271,21.6920618 C104.940772,31.3815608 110.5,44.5055263 110.5,58.5 C110.5,68.7203423 107.541583,78.509806 102.077695,86.8824589 L101.717806,87.4264827 L95.0733163,82.9710646 C99.8901378,75.7876032 102.5,67.3433494 102.5,58.5 C102.5,48.2317269 98.9704002,38.5301104 92.6778165,30.7853055 L92.284,30.308 L63.0392266,59.6140515 C61.1477552,61.5094802 58.1135757,61.5700282 56.1491281,59.7933836 L55.9681626,59.6214407 C55.0908826,58.7459922 54.5722592,57.5783971 54.5070084,56.3469823 L54.5,56.0822141 L54.5,14.68 L54.1788575,14.709493 C32.1433931,16.8574045 14.8709008,35.2598714 14.5058947,57.7723795 L14.5,58.5 C14.5,82.800529 34.199471,102.5 58.5,102.5 C68.8151092,102.5 78.5578063,98.9379016 86.318457,92.593326 L86.806,92.187 L62.6878792,68.34464 L68.3121208,62.65536 L98.2558661,92.2567961 L95.4368733,95.1014714 C85.7370783,104.889637 72.5583673,110.5 58.5,110.5 C29.781193,110.5 6.5,87.218807 6.5,58.5 C6.5,30.0683811 29.3178973,6.96616762 57.6400849,6.50696651 L58.5,6.5 L62.5,6.5 Z M67.3497693,7.25068542 C74.7758467,8.52463603 81.7782867,11.3936765 87.9313883,15.625052 L88.5241841,16.038785 L83.9002545,22.567129 C78.7586625,18.9254154 72.896813,16.4243569 66.6660939,15.2556179 L65.9971214,15.1355027 L67.3497693,7.25068542 Z" id="Shape" fill="#000000" fill-rule="nonzero"></path>
  </g>
</svg>
