<?xml version="1.0" encoding="UTF-8"?><svg viewBox="0 0 116 116" version="1.1" xmlns="http://www.w3.org/2000/svg" xmlns:xlink="http://www.w3.org/1999/xlink">
  <title>play-queue</title>
  <g id="play-queue" stroke="none" stroke-width="1" fill="none" fill-rule="evenodd">
    <path d="M18.647502,9.12535405 L37.9720452,21.4227906 C38.7268162,21.9030995 39.3646253,22.5461151 39.8387821,23.3047659 C41.5522084,26.0462481 40.7809223,29.636447 38.1328971,31.4408116 L37.9307859,31.5727494 L22.1499947,41.4357439 C21.3553367,41.9324051 20.4370986,42.1957524 19.5,42.1957524 C16.8112453,42.1957524 14.6181819,40.0734456 14.5046195,37.412642 L14.5,37.1957524 L14.5,22.5 L22.5,22.5 L22.5,31.782 L31.001,26.469 L14.352498,15.874646 L18.647502,9.12535405 Z M98.5,22.5 L98.5,30.5 L50.5,30.5 L50.5,22.5 L98.5,22.5 Z M98.5,46.5 L98.5,54.5 L18.5,54.5 L18.5,46.5 L98.5,46.5 Z M98.5,70.5 L98.5,78.5 L18.5,78.5 L18.5,70.5 L98.5,70.5 Z M98.5,94.5 L98.5,102.5 L18.5,102.5 L18.5,94.5 L98.5,94.5 Z" id="Shape" fill="#000000" fill-rule="nonzero"></path>
  </g>
</svg>
