<?xml version="1.0" encoding="UTF-8"?><svg viewBox="0 0 116 116" version="1.1" xmlns="http://www.w3.org/2000/svg" xmlns:xlink="http://www.w3.org/1999/xlink">
  <title>play-circle</title>
  <g id="play-circle" stroke="none" stroke-width="1" fill="none" fill-rule="evenodd">
    <path d="M58,0 C90.0325155,0 116,25.9674845 116,58 C116,89.7121903 90.5492684,115.480044 58.9591361,115.99223 L58,116 L58,108 C85.6142375,108 108,85.6142375 108,58 C108,30.3857625 85.6142375,8 58,8 C30.3857625,8 8,30.3857625 8,58 C8,71.3428063 13.2457367,83.8436265 22.4275664,93.1369494 L22.8608426,93.5702157 L17.2383444,99.2612186 C6.28230386,88.4370599 0,73.7118911 0,58 C0,25.9674845 25.9674845,0 58,0 Z M40.5674764,23.0757422 L89.3139062,52.5075489 C90.2862799,53.0946425 91.10118,53.9095425 91.6882736,54.8819163 C93.6430467,58.1195092 92.668218,62.3076305 89.5265523,64.3588994 L89.3139062,64.4924511 L43.6012146,92.0925668 C42.6654448,92.6575599 41.5931067,92.9561801 40.5,92.9561801 C37.2616031,92.9561801 34.6224282,90.3906052 34.5041385,87.1811184 L34.5,86.9561801 L34.5,42.5 L42.5,42.5 L42.5,83.412 L83.759,58.5 L36.4325236,29.9242578 L40.5674764,23.0757422 Z" id="Shape" fill="#000000" fill-rule="nonzero"></path>
  </g>
</svg>
