<?xml version="1.0" encoding="UTF-8"?><svg viewBox="0 0 116 116" version="1.1" xmlns="http://www.w3.org/2000/svg" xmlns:xlink="http://www.w3.org/1999/xlink">
  <title>power</title>
  <g id="power" stroke="none" stroke-width="1" fill="none" fill-rule="evenodd">
    <path d="M22.0416569,21.4218349 L27.6509087,27.1258944 C19.2902727,35.3475673 14.5,46.5384965 14.5,58.5 C14.5,82.800529 34.199471,102.5 58.5,102.5 C82.800529,102.5 102.5,82.800529 102.5,58.5 C102.5,46.9410089 98.0277807,36.0988499 90.1709216,27.9556177 L89.7685086,27.5438907 L95.4534992,21.9153135 C105.028308,31.5860875 110.5,44.615599 110.5,58.5 C110.5,87.218807 87.218807,110.5 58.5,110.5 C29.781193,110.5 6.5,87.218807 6.5,58.5 C6.5,44.3713394 12.166893,31.1324693 22.0416569,21.4218349 Z M62.5,2.5 L62.5,66.5 L54.5,66.5 L54.5,2.5 L62.5,2.5 Z" id="Shape" fill="#000000" fill-rule="nonzero"></path>
  </g>
</svg>
