<?xml version="1.0" encoding="UTF-8"?><svg viewBox="0 0 116 116" version="1.1" xmlns="http://www.w3.org/2000/svg" xmlns:xlink="http://www.w3.org/1999/xlink">
  <title>present</title>
  <g id="present" stroke="none" stroke-width="1" fill="none" fill-rule="evenodd">
    <path d="M62.5,10.5 L62.5,22.5 L18.5,22.5 C16.3578046,22.5 14.6089211,24.1839685 14.5048953,26.3003597 L14.5,26.5 L14.5,74.5 C14.5,76.6421954 16.1839685,78.3910789 18.3003597,78.4951047 L18.5,78.5 L53.6715729,78.5 C55.6296734,78.5 57.3686964,79.4379819 58.4638348,80.8891386 L58.499,80.939 L58.5866548,80.8226033 C58.6883298,80.6918396 58.7961668,80.5643155 58.910166,80.4404237 L59.0857864,80.2573593 C60.1448154,79.1983304 61.5589715,78.5760757 63.0483546,78.5065337 L63.3284271,78.5 L98.5,78.5 C100.642195,78.5 102.391079,76.8160315 102.495105,74.6996403 L102.5,74.5 L102.5,26.5 C102.5,24.3578046 100.816032,22.6089211 98.6996403,22.5048953 L98.5,22.5 L66.5,22.5 L66.5,14.5 L98.5,14.5 C105.025457,14.5 110.334393,19.7085444 110.4962,26.1950252 L110.5,26.5 L110.5,74.5 C110.5,81.0254567 105.291456,86.3343928 98.8049748,86.4962001 L98.5,86.5 L68.157,86.5 L85.3284271,103.671573 L79.6715729,109.328427 L62.5,92.157 L62.5,106.5 L54.5,106.5 L54.5,92.156 L37.3284271,109.328427 L31.6715729,103.671573 L48.842,86.5 L18.5,86.5 C11.9745433,86.5 6.66560725,81.2914556 6.50379986,74.8049748 L6.5,74.5 L6.5,26.5 C6.5,19.9745433 11.7085444,14.6656072 18.1950252,14.5037999 L18.5,14.5 L54.5,14.5 L54.5,10.5 L62.5,10.5 Z M51.2700239,32.6239533 L51.4768336,32.7369005 L73.4457048,45.2905411 C74.3758924,45.822077 75.1467942,46.5929787 75.67833,47.5231664 C77.2832455,50.3317686 76.3689098,53.8913159 73.6480088,55.5886267 L73.4457048,55.7094589 L55.1059501,66.1893187 L51.1368386,59.2433735 L66.437,50.499 L50.5,41.392 L50.5,66.5 L42.5,66.5 L42.5,37.9463594 C42.5,36.9021977 42.7724919,35.8761119 43.2905411,34.9695257 C44.8954567,32.1609235 48.4263448,31.1415041 51.2700239,32.6239533 Z" id="Shape" fill="#000000" fill-rule="nonzero"></path>
  </g>
</svg>
