<?xml version="1.0" encoding="UTF-8"?><svg viewBox="0 0 116 116" version="1.1" xmlns="http://www.w3.org/2000/svg" xmlns:xlink="http://www.w3.org/1999/xlink">
  <title>previous</title>
  <g id="previous" stroke="none" stroke-width="1" fill="none" fill-rule="evenodd">
    <path d="M25.5,14.5 C21.7145483,14.5 18.6309013,17.5047834 18.504059,21.2593502 L18.5,21.5 L18.5,95.5 C18.5,99.2854517 21.5047834,102.369099 25.2593502,102.495941 L25.5,102.5 L44.5,102.5 C47.7383969,102.5 50.3775718,99.9344251 50.4958615,96.7249383 L50.5,96.5 L50.5,62.2469996 C50.5,61.1390215 50.95933,60.0844677 51.7620396,59.3308968 L51.9392624,59.1741144 L90.5,27.04 L90.5,89.97 L64.8509146,68.6421014 L59.7358108,74.7931755 L88.6636722,98.848976 C91.2115305,100.967721 94.9945603,100.619857 97.1133056,98.0719982 C97.9496574,97.0662587 98.4327841,95.8168791 98.4934838,94.5153077 L98.5,94.2356704 L98.5,22.7700832 C98.5,19.4563747 95.8137085,16.7700832 92.5,16.7700832 C91.1899556,16.7700832 89.9186074,17.1987547 88.878227,17.9864856 L88.6588936,18.1607555 L46.8177872,53.0283442 C44.1730732,55.2322726 42.6067407,58.4617028 42.5052571,61.8915109 L42.5,62.2469996 L42.5,94.5 L26.5,94.5 L26.5,22.5 L42.5,22.5 L42.5,34.5 L50.5,34.5 L50.5,21.5 C50.5,17.7145483 47.4952166,14.6309013 43.7406498,14.504059 L43.5,14.5 L25.5,14.5 Z" id="Path" fill="#000000" fill-rule="nonzero"></path>
  </g>
</svg>
