<?xml version="1.0" encoding="UTF-8"?><svg viewBox="0 0 116 116" version="1.1" xmlns="http://www.w3.org/2000/svg" xmlns:xlink="http://www.w3.org/1999/xlink">
  <title>printer</title>
  <g id="printer" stroke="none" stroke-width="1" fill="none" fill-rule="evenodd">
    <path d="M82.5,6.5 C89.0254567,6.5 94.3343928,11.7085444 94.4962001,18.1950252 L94.5,18.5 L94.5,26.5 L18.5,26.5 C16.3578046,26.5 14.6089211,28.1839685 14.5048953,30.3003597 L14.5,30.5 L14.5,82.5 C14.5,84.6421954 16.1839685,86.3910789 18.3003597,86.4951047 L18.5,86.5 L22.5,86.5 L22.5,57.5 C22.5,53.7145483 25.5047834,50.6309013 29.2593502,50.504059 L29.5,50.5 L87.5,50.5 C91.2854517,50.5 94.3690987,53.5047834 94.495941,57.2593502 L94.5,57.5 L94.5,86.5 L98.5,86.5 C100.642195,86.5 102.391079,84.8160315 102.495105,82.6996403 L102.5,82.5 L102.5,30.5 C102.5,28.3578046 100.816032,26.6089211 98.6996403,26.5048953 L98.5,26.5 L98.5,18.5 C105.025457,18.5 110.334393,23.7085444 110.4962,30.1950252 L110.5,30.5 L110.5,82.5 C110.5,89.0254567 105.291456,94.3343928 98.8049748,94.4962001 L98.5,94.5 L94.5,94.5 L94.5,103.5 C94.5,107.285452 91.4952166,110.369099 87.7406498,110.495941 L87.5,110.5 L42.5,110.5 L42.5,102.5 L86.5,102.5 L86.5,58.5 L30.5,58.5 L30.5,94.5 L18.5,94.5 C11.9745433,94.5 6.66560725,89.2914556 6.50379986,82.8049748 L6.5,82.5 L6.5,30.5 C6.5,23.9745433 11.7085444,18.6656072 18.1950252,18.5037999 L18.5,18.5 L86.5,18.5 C86.5,16.3578046 84.8160315,14.6089211 82.6996403,14.5048953 L82.5,14.5 L26.5,14.5 L26.5,6.5 L82.5,6.5 Z M72.5,62.5 C78.0228475,62.5 82.5,66.9771525 82.5,72.5 C82.5,77.9292399 78.1733292,82.3479317 72.7799048,82.4961582 L72.5,82.5 L44.5,82.5 C43.3954305,82.5 42.5,83.3954305 42.5,84.5 C42.5,85.5543618 43.3158778,86.4181651 44.3507377,86.4945143 L44.5,86.5 L70.5,86.5 C77.0254567,86.5 82.3343928,91.7085444 82.4962001,98.1950252 L82.5,98.5 L74.5,98.5 C74.5,96.3578046 72.8160315,94.6089211 70.6996403,94.5048953 L70.5,94.5 L44.5,94.5 C38.9771525,94.5 34.5,90.0228475 34.5,84.5 C34.5,79.0707601 38.8266708,74.6520683 44.2200952,74.5038418 L44.5,74.5 L72.5,74.5 C73.6045695,74.5 74.5,73.6045695 74.5,72.5 C74.5,71.4456382 73.6841222,70.5818349 72.6492623,70.5054857 L72.5,70.5 L38.5,70.5 L38.5,62.5 L72.5,62.5 Z M86.5,30.5 C90.918278,30.5 94.5,34.081722 94.5,38.5 C94.5,42.8349143 91.0521622,46.3645429 86.7491793,46.4961932 L86.5,46.5 L86.5,38.5 L78.5,38.5 C78.5,34.081722 82.081722,30.5 86.5,30.5 Z" id="Shape" fill="#000000" fill-rule="nonzero"></path>
  </g>
</svg>
