<?xml version="1.0" encoding="UTF-8"?><svg viewBox="0 0 116 116" version="1.1" xmlns="http://www.w3.org/2000/svg" xmlns:xlink="http://www.w3.org/1999/xlink">
  <title>qrcode</title>
  <g id="qrcode" stroke="none" stroke-width="1" fill="none" fill-rule="evenodd">
    <path d="M48.5,6.5 C51.7383969,6.5 54.3775718,9.06557489 54.4958615,12.2750617 L54.5,12.5 L54.5,38.5 L62.5,38.5 L62.5,12.5 C62.5,9.26160306 65.0655749,6.62242824 68.2750617,6.50413847 L68.5,6.5 L104.5,6.5 C107.738397,6.5 110.377572,9.06557489 110.495862,12.2750617 L110.5,12.5 L110.5,48.5 C110.5,51.7383969 107.934425,54.3775718 104.724938,54.4958615 L104.5,54.5 L70.5,54.5 L70.5,62.5 L103.5,62.5 C107.285452,62.5 110.369099,65.5047834 110.495941,69.2593502 L110.5,69.5 L110.5,75.5 C110.5,79.2854517 107.495217,82.3690987 103.74065,82.495941 L103.5,82.5 L70.5,82.5 L70.5,102.5 L74.5,102.5 L74.5,93.5 C74.5,89.7145483 77.5047834,86.6309013 81.2593502,86.504059 L81.5,86.5 L87.5,86.5 C91.2854517,86.5 94.3690987,89.5047834 94.495941,93.2593502 L94.5,93.5 L94.5,102.5 L98.5,102.5 L98.5,93.5 C98.5,89.7145483 101.504783,86.6309013 105.25935,86.504059 L105.5,86.5 L106.5,86.5 L106.5,103.5 C106.5,107.285452 103.495217,110.369099 99.7406498,110.495941 L99.5,110.5 L93.5,110.5 C89.7145483,110.5 86.6309013,107.495217 86.504059,103.74065 L86.5,103.5 L86.5,94.5 L82.5,94.5 L82.5,103.5 C82.5,107.285452 79.4952166,110.369099 75.7406498,110.495941 L75.5,110.5 L69.5,110.5 C65.7145483,110.5 62.6309013,107.495217 62.504059,103.74065 L62.5,103.5 L62.5,81.5 C62.5,77.7145483 65.5047834,74.6309013 69.2593502,74.504059 L69.5,74.5 L102.5,74.5 L102.5,70.5 L69.5,70.5 C65.7145483,70.5 62.6309013,67.4952166 62.504059,63.7406498 L62.5,63.5 L62.5,51.5 C62.5,48.8112453 64.6223067,46.6181819 67.2831104,46.5046195 L67.5,46.5 L102.5,46.5 L102.5,14.5 L70.5,14.5 L70.5,40.5 C70.5,43.7383969 67.9344251,46.3775718 64.7249383,46.4958615 L64.5,46.5 L52.5,46.5 C49.2616031,46.5 46.6224282,43.9344251 46.5041385,40.7249383 L46.5,40.5 L46.5,14.5 L14.5,14.5 L14.5,46.5 L48.5,46.5 C51.7383969,46.5 54.3775718,49.0655749 54.4958615,52.2750617 L54.5,52.5 L54.5,64.5 C54.5,67.7383969 51.9344251,70.3775718 48.7249383,70.4958615 L48.5,70.5 L14.5,70.5 L14.5,102.5 L46.5,102.5 L46.5,74.5 L54.5,74.5 L54.5,104.5 C54.5,107.738397 51.9344251,110.377572 48.7249383,110.495862 L48.5,110.5 L12.5,110.5 C9.26160306,110.5 6.62242824,107.934425 6.50413847,104.724938 L6.5,104.5 L6.5,68.5 C6.5,65.2616031 9.06557489,62.6224282 12.2750617,62.5041385 L12.5,62.5 L46.5,62.5 L46.5,54.5 L12.5,54.5 C9.26160306,54.5 6.62242824,51.9344251 6.50413847,48.7249383 L6.5,48.5 L6.5,12.5 C6.5,9.26160306 9.06557489,6.62242824 12.2750617,6.50413847 L12.5,6.5 L48.5,6.5 Z" id="Path" fill="#000000" fill-rule="nonzero"></path>
  </g>
</svg>
