<?xml version="1.0" encoding="UTF-8"?><svg viewBox="0 0 116 116" version="1.1" xmlns="http://www.w3.org/2000/svg" xmlns:xlink="http://www.w3.org/1999/xlink">
  <title>question</title>
  <g id="question" stroke="none" stroke-width="1" fill="none" fill-rule="evenodd">
    <path d="M58.5,6.5 C87.218807,6.5 110.5,29.781193 110.5,58.5 C110.5,86.9316189 87.6821027,110.033832 59.3599151,110.493033 L58.5,110.5 L54.5,110.5 L54.5,90.5 L50.5,90.5 C50.5,86.081722 54.081722,82.5 58.5,82.5 C62.918278,82.5 66.5,86.081722 66.5,90.5 C66.5,93.4177308 64.9380173,95.9706409 62.6046306,97.3681517 L62.5,97.43 L62.5,102.32 L62.8211425,102.290507 C84.8566069,100.142595 102.129099,81.7401286 102.494105,59.2276205 L102.5,58.5 C102.5,34.199471 82.800529,14.5 58.5,14.5 C34.199471,14.5 14.5,34.199471 14.5,58.5 C14.5,70.2346401 19.1101199,81.2280916 27.1806535,89.4047153 L27.5870586,89.8111896 L21.9662766,95.5038876 C12.13711,85.7988932 6.5,72.5916709 6.5,58.5 C6.5,29.781193 29.781193,6.5 58.5,6.5 Z M58.5,26.5 C69.545695,26.5 78.5,35.454305 78.5,46.5 C78.5,54.5700537 73.5341248,61.8081763 66.0048451,64.7125921 C64.8755929,65.1482016 63.9281597,66.5222084 63.3017294,68.9294666 L63.176749,69.4422943 C63.0163374,70.1458052 62.8810846,70.9284442 62.7739124,71.7922026 L62.698844,72.4552624 L62.6345798,73.1489286 C62.6149895,73.3852726 62.5972456,73.6267487 62.5813937,73.8733881 L62.5395596,74.6288273 L62.5229851,75.0182227 L62.5229851,75.0182227 L62.4986927,75.8204817 L62.4864371,76.6541873 C62.4833642,77.0789328 62.4849078,77.5155408 62.4912221,77.9641162 L62.4991322,78.4166847 L54.5008678,78.5833153 C54.2637175,67.2001009 56.7257491,59.9084298 62.8449682,57.3611825 L63.1256365,57.2486683 C67.569251,55.5345463 70.5,51.2627675 70.5,46.5 C70.5,39.872583 65.127417,34.5 58.5,34.5 C51.9745433,34.5 46.6656072,39.7085444 46.5037999,46.1950252 L46.5,46.5 L38.5,46.5 C38.5,35.454305 47.454305,26.5 58.5,26.5 Z" id="Shape" fill="#000000" fill-rule="nonzero"></path>
  </g>
</svg>
