<?xml version="1.0" encoding="UTF-8"?><svg viewBox="0 0 116 116" version="1.1" xmlns="http://www.w3.org/2000/svg" xmlns:xlink="http://www.w3.org/1999/xlink">
  <title>quote</title>
  <g id="quote" stroke="none" stroke-width="1" fill="none" fill-rule="evenodd">
    <path d="M34.5,18.5 C47.6222857,18.5 58.2848457,29.0313372 58.4967847,42.1031161 L58.5,42.5 L58.5,65.5 C58.5,83.5431428 44.0194113,98.2041629 26.0457153,98.4955789 L25.5,98.5 L25.2082115,98.493239 L25.09235,98.4882098 C21.4786059,98.2788246 18.6263891,95.3451738 18.5040875,91.7412332 L18.5,91.5 L18.5,81.5 C18.5,77.7145483 21.5047834,74.6309013 25.2155261,74.5043147 L25.7186578,74.4974489 C28.1601197,74.4404047 30.4264216,73.4194216 32.0830089,71.6889842 L32.295592,71.4592725 L38.2580291,76.7930652 C35.3100837,80.0884575 31.2041031,82.1328955 26.7064796,82.4558247 L26.5,82.468 L26.5,90.479 L26.7353506,90.4700108 C39.8321926,89.8327128 50.2825709,79.1172378 50.4966507,65.9134207 L50.5,65.5 L50.5,42.5 C50.5,33.663444 43.336556,26.5 34.5,26.5 C25.663444,26.5 18.5,33.663444 18.5,42.5 C18.5,51.336556 25.663444,58.5 34.5,58.5 C35.4662527,58.5 36.4196283,58.414806 37.3532554,58.2470306 L37.8183915,58.1562733 L39.4673069,65.9844965 C37.8445823,66.3263027 36.1822326,66.5 34.5,66.5 C21.245166,66.5 10.5,55.754834 10.5,42.5 C10.5,29.245166 21.245166,18.5 34.5,18.5 Z M82.5,18.5 C95.6222857,18.5 106.284846,29.0313372 106.496785,42.1031161 L106.5,42.5 L106.5,65.5 C106.5,83.5431428 92.0194113,98.2041629 74.0457153,98.4955789 L73.5,98.5 L73.2082115,98.493239 L73.09235,98.4882098 C69.4786059,98.2788246 66.6263891,95.3451738 66.5040875,91.7412332 L66.5,91.5 L66.5,81.5 C66.5,77.7145483 69.5047834,74.6309013 73.2155261,74.5043147 L73.7186578,74.4974489 C76.1601197,74.4404047 78.4264216,73.4194216 80.0830089,71.6889842 L80.295592,71.4592725 L86.2580291,76.7930652 C83.3100837,80.0884575 79.2041031,82.1328955 74.7064796,82.4558247 L74.5,82.468 L74.5,90.479 L74.7353506,90.4700108 C87.8321926,89.8327128 98.2825709,79.1172378 98.4966507,65.9134207 L98.5,65.5 L98.5,42.5 C98.5,33.663444 91.336556,26.5 82.5,26.5 C73.663444,26.5 66.5,33.663444 66.5,42.5 C66.5,51.336556 73.663444,58.5 82.5,58.5 C83.4662527,58.5 84.4196283,58.414806 85.3532554,58.2470306 L85.8183915,58.1562733 L87.4673069,65.9844965 C85.8445823,66.3263027 84.1822326,66.5 82.5,66.5 C69.245166,66.5 58.5,55.754834 58.5,42.5 C58.5,29.245166 69.245166,18.5 82.5,18.5 Z" id="Shape" fill="#000000" fill-rule="nonzero"></path>
  </g>
</svg>
