<?xml version="1.0" encoding="UTF-8"?><svg viewBox="0 0 116 116" version="1.1" xmlns="http://www.w3.org/2000/svg" xmlns:xlink="http://www.w3.org/1999/xlink">
  <title>reader</title>
  <g id="reader" stroke="none" stroke-width="1" fill="none" fill-rule="evenodd">
    <path d="M57.5,6 C70.187299,6 80,18.7299905 80,34 C80,49.0688047 70.4441889,61.6640863 58.0000083,61.9933928 L58,62 L42,62 C35.4745433,62 30.1656072,67.2085444 30.0037999,73.6950252 L30,74 L28.0524067,74.0000257 C42.649073,78.2205216 52.6572162,84.1810289 57.8458435,91.983069 L57.982,92.193 L58.1144364,91.9893598 C62.9919287,84.5853989 72.1690223,78.8368495 85.4482081,74.6607211 L86,74.489 L86,74 C86,67.4745433 80.7914556,62.1656072 74.3049748,62.0037999 L74,62 L74,54 C83.5426416,54 91.5243433,60.6831778 93.5198807,69.6243087 L93.599,70 L106,70 L106.657596,77.9455757 C76.6621588,82.9448152 62.2887774,92.3770923 62.0043093,105.598201 L62,106 L54,106 L53.9956413,105.598588 C53.7107944,92.5220926 39.4594322,83.1373031 9.7539024,78.0980439 L8.84900291,77.9466698 L10.1509971,70.0533302 C14.3718697,70.7495566 18.3431961,71.5401302 22.0619637,72.4263751 C22.8548112,62.2289183 31.2962849,54.177865 41.6555106,54.0029071 L41.7197232,54.0035906 C37.439601,48.773372 35,41.6124706 35,34 C35,18.7299905 44.812701,6 57.5,6 Z M57.5,14 C49.7527633,14 43,22.7603415 43,34 C43,39.856899 44.8604365,45.2628543 47.9894344,49.0324107 L48.2607271,49.3514804 L42.9230029,54 L57.5,54 C65.2472367,54 72,45.2396585 72,34 C72,22.7603415 65.2472367,14 57.5,14 Z" id="Shape" fill="#000000" fill-rule="nonzero"></path>
  </g>
</svg>
