<?xml version="1.0" encoding="UTF-8"?><svg viewBox="0 0 116 116" version="1.1" xmlns="http://www.w3.org/2000/svg" xmlns:xlink="http://www.w3.org/1999/xlink">
  <title>record</title>
  <g id="record" stroke="none" stroke-width="1" fill="none" fill-rule="evenodd">
    <path d="M58.5,6.5 C87.218807,6.5 110.5,29.781193 110.5,58.5 C110.5,86.9316189 87.6821027,110.033832 59.3599151,110.493033 L58.5,110.5 L58.5,102.5 C82.800529,102.5 102.5,82.800529 102.5,58.5 C102.5,34.199471 82.800529,14.5 58.5,14.5 C34.199471,14.5 14.5,34.199471 14.5,58.5 C14.5,77.137564 26.1948294,93.5507014 43.3838378,99.83587 L43.9063921,100.023221 L41.2538828,107.570684 C20.6002267,100.312084 6.5,80.7477952 6.5,58.5 C6.5,29.781193 29.781193,6.5 58.5,6.5 Z M58.5,22.5 C78.382251,22.5 94.5,38.617749 94.5,58.5 C94.5,78.382251 78.382251,94.5 58.5,94.5 C38.617749,94.5 22.5,78.382251 22.5,58.5 C22.5,53.0085449 23.7333654,47.6857229 26.0727602,42.8474314 L26.3372381,42.3118535 L33.4806166,45.9135397 C31.5298622,49.7825544 30.5,54.0633564 30.5,58.5 C30.5,73.963973 43.036027,86.5 58.5,86.5 C73.963973,86.5 86.5,73.963973 86.5,58.5 C86.5,43.036027 73.963973,30.5 58.5,30.5 C51.2071541,30.5 44.3656037,33.2954991 39.1974121,38.2166302 L38.8553584,38.5478474 L33.2422895,32.8475441 C39.9305302,26.2616566 48.9232677,22.5 58.5,22.5 Z" id="Shape" fill="#000000" fill-rule="nonzero"></path>
  </g>
</svg>
