<?xml version="1.0" encoding="UTF-8"?><svg viewBox="0 0 116 116" version="1.1" xmlns="http://www.w3.org/2000/svg" xmlns:xlink="http://www.w3.org/1999/xlink">
  <title>redo</title>
  <g id="redo" stroke="none" stroke-width="1" fill="none" fill-rule="evenodd">
    <path d="M84.5,30.5 L84.5,38.5 L44.5,38.5 L44.1555106,38.5029071 C33.2687286,38.686775 24.5,47.5693643 24.5,58.5 C24.5,69.4306357 33.2687286,78.313225 44.1555106,78.4970929 L44.5,78.5 L84.5,78.5 L84.5,86.5 L44.5,86.5 L44.0369688,86.4962488 C28.7865601,86.2489867 16.5,73.8093333 16.5,58.5 C16.5,43.1906667 28.7865601,30.7510133 44.0369688,30.5037512 L44.5,30.5 L84.5,30.5 Z M76.5425152,15.1717988 L98.0463643,29.5076982 L98.2890837,29.6783271 C98.8449011,30.0899633 99.3259819,30.5950743 99.7104649,31.1717988 C101.503748,33.8617229 100.838343,37.473045 98.2445094,39.3544792 L98.0463643,39.4923018 L76.5425152,53.8282012 L72.1049136,47.1717988 L91.1127144,34.5 L72.1049136,21.8282012 L76.5425152,15.1717988 Z" id="Shape" fill="#000000" fill-rule="nonzero"></path>
  </g>
</svg>
