<?xml version="1.0" encoding="UTF-8"?><svg viewBox="0 0 116 116" version="1.1" xmlns="http://www.w3.org/2000/svg" xmlns:xlink="http://www.w3.org/1999/xlink">
  <title>remote</title>
  <g id="remote" stroke="none" stroke-width="1" fill="none" fill-rule="evenodd">
    <path d="M90.2257523,4.99188525 L90.4629319,5.2192252 L111.543595,25.9755701 C116.187364,30.547897 116.321711,37.970706 111.903713,42.70713 L111.675146,42.945623 L69.2753637,85.0830511 L63.6361594,79.4086017 L105.974611,37.332789 L106.124374,37.1722502 C107.473339,35.6454127 107.455468,33.3400436 106.082994,31.8343024 L105.930761,31.6761047 L84.8500979,10.9197598 C83.3367449,9.42968913 80.9354572,9.38913177 79.3737445,10.791392 L79.2152537,10.9415999 L20.8284264,69.3284273 C13.5539675,76.6028861 13.5539675,88.3971142 20.8284264,95.671573 C28.0255234,102.86867 39.6342437,102.974385 46.9607845,95.9751758 L47.2301635,95.7126971 L55.6936388,87.3017899 L61.3328431,92.9762392 L52.8693677,101.387146 C42.4337449,111.757952 25.5748367,111.731692 15.1715721,101.328427 C4.87690549,91.0337606 4.77395882,74.4067711 14.8627321,63.985458 L15.1715721,63.671573 L73.5583995,5.28474566 C78.1413473,0.701797819 85.5155446,0.597129676 90.2257523,4.99188525 Z M34.5,70.5 L34.5,78.5 C32.290861,78.5 30.5,80.290861 30.5,82.5 C30.5,84.709139 32.290861,86.5 34.5,86.5 C36.6421954,86.5 38.3910789,84.8160315 38.4951047,82.6996403 L38.5,82.5 L46.5,82.5 C46.5,89.127417 41.127417,94.5 34.5,94.5 C27.872583,94.5 22.5,89.127417 22.5,82.5 C22.5,75.9745433 27.7085444,70.6656072 34.1950252,70.5037999 L34.5,70.5 Z M58.5,52.8431458 L69.3284271,63.6715729 L63.6715729,69.3284271 L58.5,64.157 L53.3284271,69.3284271 L47.6715729,63.6715729 L58.5,52.8431458 Z M63.6715729,47.6715729 L69.3284271,53.3284271 L64.8284271,57.8284271 L59.1715729,52.1715729 L63.6715729,47.6715729 Z M53.3284271,47.6715729 L56.8284271,51.1715729 L51.1715729,56.8284271 L47.6715729,53.3284271 L53.3284271,47.6715729 Z M81.3284271,43.6715729 L85.3284271,47.6715729 L79.6715729,53.3284271 L75.6715729,49.3284271 L81.3284271,43.6715729 Z M89.4720917,35.8152375 L93.3284271,39.6715729 L87.6715729,45.3284271 L83.8152375,41.4720917 L89.4720917,35.8152375 Z M69.3284271,31.6715729 L72.8284271,35.1715729 L67.1715729,40.8284271 L63.6715729,37.3284271 L69.3284271,31.6715729 Z M77.3284271,23.6715729 L81.2829633,27.626109 L75.626109,33.2829633 L71.6715729,29.3284271 L77.3284271,23.6715729 Z" id="Shape" fill="#000000" fill-rule="nonzero"></path>
  </g>
</svg>
