<?xml version="1.0" encoding="UTF-8"?><svg viewBox="0 0 116 116" version="1.1" xmlns="http://www.w3.org/2000/svg" xmlns:xlink="http://www.w3.org/1999/xlink">
  <title>robot</title>
  <g id="robot" stroke="none" stroke-width="1" fill="none" fill-rule="evenodd">
    <path d="M60.5,6.5 C65.9292399,6.5 70.3479317,10.8266708 70.4961582,16.2200952 L70.5,16.5 L70.5,18.5 C70.5,21.4177308 68.9380173,23.9706409 66.6046306,25.3681517 L66.5,25.428 L66.5,30.5 L78.5,30.5 C89.4306357,30.5 98.313225,39.2687286 98.4970929,50.1555106 L98.5,50.5 L98.5,54.5 L98.8049748,54.5037999 C105.190104,54.663079 110.336921,59.8098956 110.4962,66.1950252 L110.5,66.5 L110.5,82.5 C110.5,89.0254567 105.291456,94.3343928 98.8049748,94.4962001 L98.5,94.5 L90.5,94.5 L90.5,98.5 C90.5,105.025457 85.2914556,110.334393 78.8049748,110.4962 L78.5,110.5 L38.5,110.5 C31.9745433,110.5 26.6656072,105.291456 26.5037999,98.8049748 L26.5,98.5 L34.5,98.5 C34.5,100.642195 36.1839685,102.391079 38.3003597,102.495105 L38.5,102.5 L78.5,102.5 C80.6421954,102.5 82.3910789,100.816032 82.4951047,98.6996403 L82.5,98.5 L82.5,94.5 L34.5,94.5 L34.5,86.5 L98.5,86.5 C100.642195,86.5 102.391079,84.8160315 102.495105,82.6996403 L102.5,82.5 L102.5,66.5 C102.5,64.3578046 100.816032,62.6089211 98.6996403,62.5048953 L98.5,62.5 L98.5,78.5 L90.5,78.5 L90.5,50.5 C90.5,43.9745433 85.2914556,38.6656072 78.8049748,38.5037999 L78.5,38.5 L38.5,38.5 C31.9745433,38.5 26.6656072,43.7085444 26.5037999,50.1950252 L26.5,50.5 L26.5,94.5 L18.5,94.5 C11.9745433,94.5 6.66560725,89.2914556 6.50379986,82.8049748 L6.5,82.5 L6.5,66.5 C6.5,59.9745433 11.7085444,54.6656072 18.1950252,54.5037999 L18.5,54.5 L18.5,50.5 C18.5,39.5693643 27.2687286,30.686775 38.1555106,30.5029071 L38.5,30.5 L50.5,30.5 L50.5,25.429 L50.3953694,25.3681517 C48.1286509,24.0105698 46.5898859,21.5626682 46.5038068,18.7491793 L46.5,18.5 L46.5,16.5 C46.5,11.0707601 50.8266708,6.65206828 56.2200952,6.5038418 L56.5,6.5 L60.5,6.5 Z M18.5,62.5 L18.3003597,62.5048953 C16.2522392,62.6055655 14.6090931,64.246685 14.5052149,66.2939606 L14.5,66.5 L14.5,82.5 C14.5,84.6421954 16.1839685,86.3910789 18.3003597,86.4951047 L18.5,86.5 L18.5,62.5 Z M74.5,54.5 C81.127417,54.5 86.5,59.872583 86.5,66.5 C86.5,73.0254567 81.2914556,78.3343928 74.8049748,78.4962001 L74.5,78.5 L42.5,78.5 C35.872583,78.5 30.5,73.127417 30.5,66.5 C30.5,59.872583 35.872583,54.5 42.5,54.5 C49.0254567,54.5 54.3343928,59.7085444 54.4962001,66.1950252 L54.5,66.5 L46.5,66.5 C46.5,64.290861 44.709139,62.5 42.5,62.5 C40.290861,62.5 38.5,64.290861 38.5,66.5 C38.5,68.6421954 40.1839685,70.3910789 42.3003597,70.4951047 L42.5,70.5 L74.5,70.5 C76.709139,70.5 78.5,68.709139 78.5,66.5 C78.5,64.290861 76.709139,62.5 74.5,62.5 C72.3578046,62.5 70.6089211,64.1839685 70.5048953,66.3003597 L70.5,66.5 L62.5,66.5 C62.5,59.872583 67.872583,54.5 74.5,54.5 Z M60.5,14.5 L56.5,14.5 C55.4456382,14.5 54.5818349,15.3158778 54.5054857,16.3507377 L54.5,16.5 L54.5,18.5 L62.5,18.5 L62.5,16.5 C62.5,15.4456382 61.6841222,14.5818349 60.6492623,14.5054857 L60.5,14.5 Z" id="Shape" fill="#000000" fill-rule="nonzero"></path>
  </g>
</svg>
