<?xml version="1.0" encoding="UTF-8"?><svg viewBox="0 0 116 116" version="1.1" xmlns="http://www.w3.org/2000/svg" xmlns:xlink="http://www.w3.org/1999/xlink">
  <title>rocket</title>
  <g id="rocket" stroke="none" stroke-width="1" fill="none" fill-rule="evenodd">
    <path d="M34.2298727,91.6144507 L39.7701273,97.3855493 L27.2701273,109.385549 L21.7298727,103.614451 L34.2298727,91.6144507 Z M26.2075995,83.1359994 L31.7924005,88.8640006 L11.7924005,108.364001 L6.20759946,102.635999 L26.2075995,83.1359994 Z M104.540562,5.67741293 L105.234092,5.68095037 L109.225617,5.71678408 L109.191474,10.4977562 L109.171203,12.0404286 L109.140944,13.537019 L109.099973,14.9899736 C108.774011,25.0136379 107.607766,32.0098655 104.487295,39.7543932 C99.5899904,51.9087484 90.4091355,62.3347302 75.753454,71.112387 C73.1901922,72.6475891 70.6063709,74.0360262 67.7191396,75.4503909 L67.7708727,75.1674129 L67.6925544,75.5830714 C66.2612368,82.8833348 63.0300412,88.203264 56.8301881,94.5753656 L56.4122451,95.0019759 L43.9598018,107.62737 L44.4486745,91.2705046 L48.7294121,91.3976669 L50.7165135,89.384268 L51.4593301,88.6211567 C54.4600164,85.4954652 56.5100638,82.803698 57.8976854,79.9548299 L55.704707,80.9366162 L54.1888471,81.626239 L53.6930031,81.8565724 L53.1750911,82.1021375 L52.1878786,82.5808373 C49.9578743,83.6798426 48.2323859,84.6595351 46.8030132,85.6546372 L46.5177142,85.8562787 L41.8533538,79.3567601 C43.9785831,77.8315955 46.443764,76.4521309 49.7017754,74.8953936 L50.7737779,74.3915174 L55.0447553,72.4625276 L59.9857843,70.2522464 L61.5562155,69.5283226 C65.3891895,67.740469 68.5506532,66.1012238 71.6429132,64.2491914 C84.8369068,56.3469763 92.8376347,47.2611728 97.0669915,36.7645608 C99.7632655,30.0728242 100.80166,23.8757632 101.102845,14.7483693 L101.132288,13.7490897 L100.867015,13.7614032 C82.270687,14.6491685 66.5217595,22.6729781 51.3648072,42.5311591 L50.8707657,43.1829091 L50.5473076,43.6143534 L49.9184934,44.4638959 L49.613125,44.8819438 L49.613125,44.8819438 L49.0204351,45.7044667 L48.4517667,46.5087243 L47.643697,47.6804218 L47.643697,47.6804218 L47.1348676,48.4381333 L46.649888,49.1768733 L46.1887089,49.89644 L45.64563,50.7686285 L45.64563,50.7686285 L45.139567,51.6101494 L44.7613037,52.2610206 L44.4066201,52.8918106 L44.0754672,53.5023175 L43.7677959,54.0923396 C43.6691469,54.2855771 43.5744034,54.4753668 43.4835571,54.6616751 L43.1648727,55.3344129 L44.2093653,59.916271 C39.0093012,61.1008713 34.2415348,63.6990768 30.4298684,67.419173 L30.024067,67.8219503 L32.0028727,67.8214129 L33.5305003,66.2946314 L35.0578727,67.8224129 L35.617274,67.8229715 L43.5338334,75.8494831 L37.8381019,81.467191 L34.8598727,78.4474129 L34.6153764,78.6932161 L31.7438727,75.8214129 L18.4288727,75.8224129 L23.7701273,81.3855493 L11.2701273,93.3855493 L5.72987269,87.6144507 L18.0138727,75.8224129 L10.8973287,75.8229715 L24.3432585,62.1902926 C27.386667,59.1046146 30.9340236,56.5941029 34.8128317,54.754824 C35.7326286,52.0027361 37.3303537,48.8842449 39.5934728,45.3429764 L40.1593731,44.4697227 L40.7516848,43.5794772 L41.0577311,43.1279257 L41.6895768,42.211851 L42.0153651,41.7472823 L42.0153651,41.7472823 L42.6866451,40.8049683 L43.0321256,40.3271774 L43.0321256,40.3271774 L43.7427399,39.3582139 L44.4795219,38.3712564 C62.3433646,14.6429908 81.6895347,5.65319858 104.540562,5.67741293 Z M87.547495,28.7810264 C90.8835721,32.163438 90.9442281,37.5874611 87.7294628,41.0441131 L87.547495,41.2340998 L81.8517634,35.6163919 C82.1772619,35.2863726 82.1772619,34.7287536 81.8517634,34.3987343 C81.5565246,34.0993949 81.1010033,34.0993949 80.8057645,34.3987343 C80.5053044,34.7033675 80.4821921,35.2019318 80.7364276,35.5364006 L80.8057645,35.6163919 L75.110033,41.2340998 C71.7121766,37.789051 71.7121766,32.2260752 75.110033,28.7810264 C78.5381491,25.3052976 84.1193788,25.3052976 87.547495,28.7810264 Z" id="Shape" fill="#000000" fill-rule="nonzero"></path>
  </g>
</svg>
