<?xml version="1.0" encoding="UTF-8"?><svg viewBox="0 0 116 116" version="1.1" xmlns="http://www.w3.org/2000/svg" xmlns:xlink="http://www.w3.org/1999/xlink">
  <title>ruler</title>
  <g id="ruler" stroke="none" stroke-width="1" fill="none" fill-rule="evenodd" transform="translate(0.000000, 0.000000)">
    <path d="M85.5502525,9.79289322 C88.2217937,7.12135204 92.5154932,7.0606352 95.2607688,9.61074268 L95.4497475,9.79289322 L107.207107,21.5502525 C109.878648,24.2217937 109.939365,28.5154932 107.389257,31.2607688 L107.207107,31.4497475 L39.4497475,99.2071068 C36.7782063,101.878648 32.4845068,101.939365 29.7392312,99.3892573 L29.5502525,99.2071068 L23.6715729,93.3284271 L29.3284271,87.6715729 L34.5,92.843 L36.843,90.5 L34.6715729,88.3284271 L40.3284271,82.6715729 L42.5,84.843 L44.843,82.5 L42.6715729,80.3284271 L48.3284271,74.6715729 L50.5,76.843 L52.843,74.5 L47.6715729,69.3284271 L53.3284271,63.6715729 L58.5,68.843 L60.843,66.5 L58.6715729,64.3284271 L64.3284271,58.6715729 L66.5,60.843 L68.843,58.5 L66.6715729,56.3284271 L72.3284271,50.6715729 L74.5,52.843 L76.843,50.5 L71.6715729,45.3284271 L77.3284271,39.6715729 L82.5,44.843 L84.843,42.5 L82.6715729,40.3284271 L88.3284271,34.6715729 L90.5,36.843 L92.843,34.5 L90.6715729,32.3284271 L96.3284271,26.6715729 L98.5,28.843 L100.843,26.5 L90.5,16.157 L16.157,90.5 L29.3284271,103.671573 L23.6715729,109.328427 L9.79289322,95.4497475 C7.12135204,92.7782063 7.0606352,88.4845068 9.61074268,85.7392312 L9.79289322,85.5502525 L85.5502525,9.79289322 Z" id="Path" fill="#000000" fill-rule="nonzero"></path>
  </g>
</svg>
