<?xml version="1.0" encoding="UTF-8"?><svg viewBox="0 0 116 116" version="1.1" xmlns="http://www.w3.org/2000/svg" xmlns:xlink="http://www.w3.org/1999/xlink">
  <title>sailboat</title>
  <g id="sailboat" stroke="none" stroke-width="1" fill="none" fill-rule="evenodd">
    <path d="M30.5,90.5 C30.5,101.06 54.0224,101.1656 54.492848,90.8168 L54.5,90.5 L62.5,90.5 C62.5,95.2012422 67.4481367,98.5 74.5,98.5 C81.4343322,98.5 86.3344777,95.3102844 86.4958897,90.7338846 L86.5,90.5 L94.5,90.5 L94.5040706,90.7323874 C94.6639212,95.2796969 99.5163872,98.4614365 106.350012,98.4997763 L106.699178,98.4990081 L106.778858,106.498611 C100.219715,106.563943 94.3042272,104.460426 90.5781761,100.637048 L90.5,100.555 L90.4075609,100.651431 C86.8061217,104.336404 81.1649582,106.420437 74.8642258,106.497768 L74.5,106.500089 C68.0527639,106.500089 62.2631368,104.407269 58.5924391,100.651431 L58.509,100.565 L58.34,100.74 C50.66,108.42 34.34,108.42 26.66,100.74 L26.511,100.585 L26.4092253,100.692619 C22.8097854,104.385713 17.1729534,106.459843 10.8814908,106.499454 L10.5178054,106.499479 L10.5669403,98.4996298 C17.4619574,98.5419788 22.33538,95.3610405 22.4959121,90.7363874 L22.5,90.5 L30.5,90.5 Z M56.4949207,12.3406049 C59.7333157,12.3380651 62.3746608,14.9014036 62.4956709,18.1139509 L62.5,18.3391113 L62.499,78.175 L90.7108309,78.0337873 L102.463826,78.0028314 L110.5,78 L110.498696,82.435037 L110.488143,83.273223 L110.46673,84.0703126 L110.434139,84.8280108 L110.390048,85.5480225 L110.334139,86.2320527 C109.98323,90.0094969 109.047656,92.1359549 107.265601,94.0075134 L107.106158,94.1720249 L106.78987,94.4941221 L106.709036,94.5811801 L100.761319,89.2309781 C100.861084,89.1200706 100.990658,88.8530852 101.134093,88.4790396 L101.260059,88.1333535 L101.390583,87.7420894 L101.523432,87.3121068 L101.656375,86.8502654 L101.78718,86.3634248 L101.876,86.008 L15.241,86.481 L15.2764084,86.5833778 C15.4667023,87.1145675 15.6927263,87.65914 15.9553029,88.2173205 L16.1591019,88.6385109 L8.99561406,92.2000334 C7.43173062,89.0545078 6.58693403,85.9748016 6.50636408,82.9732739 L6.5,82.5 L6.5,78.5 L13.1223971,78.492023 L54.499,78.225 L54.5,22.516 L53.6819848,23.2449258 L52.9422566,23.9243886 L52.3374129,24.4934907 L51.720974,25.0852776 L51.0929532,25.6997398 L50.4533642,26.336868 L49.8022203,26.9966528 L48.8038688,28.0287904 L48.123897,28.7451754 L47.4324176,29.484184 L46.7294442,30.2458067 L46.0149901,31.0300343 L44.9218125,32.248739 L44.178716,33.0894373 L43.042638,34.3928041 L42.2709834,35.2899143 L41.4879293,36.2095729 L40.693489,37.1517704 L39.887676,38.1164973 L38.6576625,39.6058099 L37.823477,40.6268193 L36.5509678,42.2005116 L35.6884942,43.2777447 L34.3736159,44.9357284 L33.4829384,46.0691264 L32.1258176,47.8113132 L30.743412,49.6039796 L28.8609514,52.0726702 L27.419725,53.9829986 L25.9533656,55.9437006 L24.4619188,57.9547446 L22.4343767,60.7143911 L21.4039448,62.127731 L19.3098267,65.0213966 L18.247,66.5 L46.5,66.5 L46.5,74.5 L14.3575575,74.4999995 C13.1143413,74.4993967 11.9020101,74.1126271 10.8881357,73.3931508 C8.18349964,71.473858 7.54818631,67.7232517 9.47019865,65.0280186 L11.1967629,62.6051489 L12.3327513,61.0204378 L14.5686659,57.9242524 L15.6686225,56.4127565 L16.756599,54.925644 L17.8326105,53.4629043 L18.8966722,52.0245266 L19.9487994,50.6105001 L21.5046461,48.5350953 L23.0337258,46.5144202 L24.0382669,45.1976908 L25.0309495,43.9052589 L26.4977721,42.012145 L27.9379986,40.1736397 L29.3516804,38.3897065 L30.7388688,36.6603093 L31.6489679,35.5376576 L32.5473302,34.4392172 L33.4339709,33.3649772 L34.7419873,31.7989696 L36.0237156,30.2873526 L36.863622,29.309807 L37.6918829,28.3564081 L38.5085135,27.427145 L39.3135289,26.5220071 L40.1069445,25.6409835 L40.8887753,24.7840636 L42.0398335,23.5438544 L43.1649117,22.3578178 L43.9005558,21.5972046 L44.6246913,20.8606412 L45.5136998,19.9737406 L46.3847796,19.1243799 L47.0687546,18.471906 L47.7412894,17.8434334 L48.5658933,17.0915782 L49.5318958,16.2388029 L50.3173309,15.5693412 L50.9328929,15.0607139 L51.5371059,14.5760232 C51.6368632,14.4972356 51.7361482,14.4194449 51.8349614,14.3426508 L52.4221795,13.8938452 L52.9682785,13.4902837 C53.9929081,12.7443014 55.2274536,12.3418796 56.4949207,12.3406049 Z M69.7282391,6.88576293 L71.0353722,7.06291079 L72.880115,7.32939705 L73.5134123,7.42997099 L74.2251658,7.55444498 L74.6670935,7.64224321 L74.9212109,7.69884097 L75.2459753,7.7817853 L75.4274086,7.83633369 C96.7843787,14.747684 110.229195,36.9823963 110.495955,69.5111349 L110.5,70.5 L110.5,74.5 L82.5,74.5 L82.5,66.5 L102.427,66.5 L102.413831,66.1016125 C101.337907,39.0346966 90.2629887,21.3444648 73.5011618,15.6261399 L72.9691197,15.4502453 L71.9934732,15.2889571 L71.343,15.189 L71.4857871,16.130128 C73.9026936,32.5275473 73.7293689,46.7191874 71.5615555,63.3725294 L71.4033277,64.5663034 L63.4751251,63.4969094 C65.6966523,47.0270982 65.9265042,33.2900375 63.5742763,17.316959 L63.3263369,15.6909493 L63.0189123,13.8359502 L63.0189123,13.8359502 C62.9182235,13.2420524 62.9075429,12.6363779 62.9872296,12.0392994 C63.425594,8.75471307 66.4436428,6.44739442 69.7282391,6.88576293 Z" id="Shape" fill="#000000" fill-rule="nonzero"></path>
  </g>
</svg>
