<?xml version="1.0" encoding="UTF-8"?><svg viewBox="0 0 116 116" version="1.1" xmlns="http://www.w3.org/2000/svg" xmlns:xlink="http://www.w3.org/1999/xlink">
  <title>scale</title>
  <g id="scale" stroke="none" stroke-width="1" fill="none" fill-rule="evenodd">
    <path d="M62.5,24.5 L62.5,80.5 C62.5,87.0254567 67.7085444,92.3343928 74.1950252,92.4962001 L74.5,92.5 L90.5,92.5 C97.0254567,92.5 102.334393,97.7085444 102.4962,104.195025 L102.5,104.5 L102.5,110.5 L34.5,110.5 L34.5,102.5 L93.964,102.5 L93.9538827,102.481123 C93.2911749,101.34981 92.0885221,100.573162 90.6996403,100.504895 L90.5,100.5 L74.5,100.5 C68.0566779,100.5 62.3250094,97.453049 58.6672512,92.7214038 L58.5,92.501 L58.3327488,92.7214038 C54.7403077,97.3685553 49.1473632,100.390643 42.8444894,100.497093 L42.5,100.5 L26.5,100.5 C24.3578046,100.5 22.6089211,102.183968 22.5048953,104.30036 L22.5,104.5 L14.5,104.5 C14.5,97.9745433 19.7085444,92.6656072 26.1950252,92.5037999 L26.5,92.5 L42.5,92.5 C49.0254567,92.5 54.3343928,87.2914556 54.4962001,80.8049748 L54.5,80.5 L54.5,24.5 L62.5,24.5 Z M62.5,8.5 C62.5,10.6421954 64.1839685,12.3910789 66.3003597,12.4951047 L66.5,12.5 L106.5,12.5 L106.5,20.5 L94.5,20.5 L94.5,31.557 L112.972136,68.5 L80.028,68.5 L80.1118891,68.5920356 C81.1594881,69.7149461 82.6329987,70.4353412 84.2750617,70.4958615 L84.5,70.5 L102.5,70.5 L102.5,78.5 L84.5,78.5 C76.8724998,78.5 70.6696731,72.4002476 70.503422,64.812645 L70.5,64.5 L70.5,60.5 L100.028,60.5 L90.5,41.443 L81.9625105,58.5192509 L74.807093,54.9415421 L86.5,31.555 L86.5,20.5 L66.5,20.5 C63.5635445,20.5 60.8734344,19.4452698 58.7878464,17.6939859 L58.5,17.443 L58.4696776,17.4714735 C56.4209592,19.2927421 53.7441614,20.4228812 50.8049748,20.4962001 L50.5,20.5 L30.5,20.5 L30.5,31.557 L42.2301535,55.0160352 L35.074736,58.5937439 L26.499,41.443 L16.971,60.5 L46.5,60.5 L46.5,64.5 C46.5,72.1275002 40.4002476,78.3303269 32.812645,78.496578 L32.5,78.5 L14.5,78.5 L14.5,70.5 L32.5,70.5 C34.2321658,70.5 35.7928938,69.7659875 36.8881109,68.5920356 L36.971,68.5 L4.02786405,68.5 L22.5,31.555 L22.5,20.5 L10.5,20.5 L10.5,12.5 L50.5,12.5 C52.6421954,12.5 54.3910789,10.8160315 54.4951047,8.69964034 L54.5,8.5 L62.5,8.5 Z" id="Shape" fill="#000000" fill-rule="nonzero"></path>
  </g>
</svg>
