<?xml version="1.0" encoding="UTF-8"?><svg viewBox="0 0 116 116" version="1.1" xmlns="http://www.w3.org/2000/svg" xmlns:xlink="http://www.w3.org/1999/xlink">
  <title>scan</title>
  <g id="scan" stroke="none" stroke-width="1" fill="none" fill-rule="evenodd">
    <path d="M22.5,74.5 L22.5,90.5 C22.5,92.6421954 24.1839685,94.3910789 26.3003597,94.4951047 L26.5,94.5 L42.5,94.5 L42.5,102.5 L26.5,102.5 C19.9745433,102.5 14.6656072,97.2914556 14.5037999,90.8049748 L14.5,90.5 L14.5,74.5 L22.5,74.5 Z M102.5,74.5 L102.5,90.5 C102.5,97.0254567 97.2914556,102.334393 90.8049748,102.4962 L90.5,102.5 L74.5,102.5 L74.5,94.5 L90.5,94.5 C92.6421954,94.5 94.3910789,92.8160315 94.4951047,90.6996403 L94.5,90.5 L94.5,74.5 L102.5,74.5 Z M90.5,14.5 C97.0254567,14.5 102.334393,19.7085444 102.4962,26.1950252 L102.5,26.5 L102.5,42.5 L94.5,42.5 L94.5,26.5 C94.5,24.3578046 92.8160315,22.6089211 90.6996403,22.5048953 L90.5,22.5 L74.5,22.5 L74.5,14.5 L90.5,14.5 Z M42.5,14.5 L42.5,22.5 L26.5,22.5 C24.3578046,22.5 22.6089211,24.1839685 22.5048953,26.3003597 L22.5,26.5 L22.5,42.5 L14.5,42.5 L14.5,26.5 C14.5,19.9745433 19.7085444,14.6656072 26.1950252,14.5037999 L26.5,14.5 L42.5,14.5 Z M106.5,54.5 L106.5,62.5 L10.5,62.5 L10.5,54.5 L106.5,54.5 Z" id="Shape" fill="#000000" fill-rule="nonzero"></path>
  </g>
</svg>
