<?xml version="1.0" encoding="UTF-8"?><svg viewBox="0 0 116 116" version="1.1" xmlns="http://www.w3.org/2000/svg" xmlns:xlink="http://www.w3.org/1999/xlink">
  <title>scissors</title>
  <g id="scissors" stroke="none" stroke-width="1" fill="none" fill-rule="evenodd">
    <path d="M24.5,18.5 C34.4411255,18.5 42.5,26.5588745 42.5,36.5 C42.5,36.8541136 42.489725,37.2070536 42.4692762,37.5584807 L42.445,37.885 L74.612,54.024 L96.132,43.2269124 L96.0190237,43.2055882 C89.5713244,42.0688971 82.8539668,42.9398682 76.81951,45.8185015 L76.2888544,46.0777088 L68.4536988,49.9952866 L64.87599,42.839869 L72.7111456,38.9222912 L73.2293856,38.6678437 C84.1440483,33.4066508 96.8648276,33.4079356 107.778608,38.671698 L108.288854,38.9222912 L115.431739,42.4937335 L83.53,58.499 L115.431739,74.5062665 L108.288854,78.0777088 C97.2627929,83.5907395 84.3145899,83.6755554 73.2293856,78.3321563 L72.7111456,78.0777088 L46.5,64.972 L46.5,68.8811238 L33.8169662,75.759121 L31.7051545,73.5655881 L31.4767292,73.3357633 C29.6231724,71.5293923 27.1481293,70.5 24.5,70.5 C18.9771525,70.5 14.5,74.9771525 14.5,80.5 C14.5,86.0228475 18.9771525,90.5 24.5,90.5 C30.0228475,90.5 34.5,86.0228475 34.5,80.5 C34.5,79.7360999 34.4150684,78.9862157 34.2487527,78.2586653 L34.1588292,77.8967897 L41.8850127,75.821678 L42.0132748,76.3286825 C42.3356002,77.685869 42.5,79.0835457 42.5,80.5 C42.5,90.4411255 34.4411255,98.5 24.5,98.5 C14.5588745,98.5 6.5,90.4411255 6.5,80.5 C6.5,70.6693315 14.3807833,62.6793185 24.1693348,62.5029763 L24.5,62.5 L24.9364181,62.5052228 C28.4148517,62.5885339 31.7244745,63.6659268 34.5282439,65.5497741 L34.8910565,65.8000514 L35.108,65.9589124 L38.5,64.1189124 L38.5,63.4442719 L38.5059162,63.0670166 C38.5805413,60.6888044 39.3591509,58.3998711 40.7284043,56.4788772 L41.0792871,56.0055253 L41.3330252,55.648397 L41.4693192,55.4481144 L41.7602078,55.0046243 L42.0747653,54.5045837 L42.4121128,53.9488119 L44.232,55.035 L44.2888544,54.9222912 L76.2888544,70.9222912 C82.4585949,74.0071615 89.3816862,74.964535 96.0190237,73.7944118 L96.132,73.773 L33.3127948,42.2532177 L34.1588292,39.1032103 C34.3843986,38.2633563 34.5,37.3912168 34.5,36.5 C34.5,30.9771525 30.0228475,26.5 24.5,26.5 C18.9771525,26.5 14.5,30.9771525 14.5,36.5 C14.5,42.0228475 18.9771525,46.5 24.5,46.5 C27.1481293,46.5 29.6231724,45.4706077 31.4767292,43.6642367 L31.7051545,43.4344119 L37.4683452,48.9828921 C34.0993906,52.4822158 29.455516,54.5 24.5,54.5 C14.5588745,54.5 6.5,46.4411255 6.5,36.5 C6.5,26.5588745 14.5588745,18.5 24.5,18.5 Z" id="Path" fill="#000000" fill-rule="nonzero"></path>
  </g>
</svg>
