<?xml version="1.0" encoding="UTF-8"?><svg viewBox="0 0 116 116" version="1.1" xmlns="http://www.w3.org/2000/svg" xmlns:xlink="http://www.w3.org/1999/xlink">
  <title>scooter</title>
  <g id="scooter" stroke="none" stroke-width="1" fill="none" fill-rule="evenodd">
    <path d="M80.7229833,20.5 C86.487914,20.5 91.4224485,24.5959773 92.5062406,30.229315 L92.5597104,30.5272122 L98.2218417,64.5 L91.5,64.5 C82.7686411,64.5 75.6707953,71.493901 75.5030364,80.1851293 L75.5,80.5 L75.5,86.5 L30.5,86.5 L30.5,82.5 C30.5,79.1862915 27.8137085,76.5 24.5,76.5 C21.1862915,76.5 18.5,79.1862915 18.5,82.5 C18.5,85.7383969 21.0655749,88.3775718 24.2750617,88.4958615 L24.5,88.5 L24.5,96.5 C16.7680135,96.5 10.5,90.2319865 10.5,82.5 C10.5,74.7680135 16.7680135,68.5 24.5,68.5 C30.7691782,68.5 36.0759199,72.6206809 37.8594863,78.3013041 L37.919,78.5 L67.582,78.5 L67.6142689,78.1430132 C68.697956,67.0254465 77.3672722,58.1306499 88.3798721,56.7009686 L88.803,56.65 L84.668559,31.8424041 C84.3581851,29.9801609 82.7918248,28.5981057 80.9241957,28.5050059 L80.7229833,28.5 L67.5,28.5 L67.5,20.5 L80.7229833,20.5 Z M92.5,68.5 C100.231986,68.5 106.5,74.7680135 106.5,82.5 C106.5,90.1275002 100.400248,96.3303269 92.812645,96.496578 L92.5,96.5 L92.5,88.5 C95.8137085,88.5 98.5,85.8137085 98.5,82.5 C98.5,79.1862915 95.8137085,76.5 92.5,76.5 C89.1862915,76.5 86.5,79.1862915 86.5,82.5 C86.5,83.9895348 87.0403895,85.3848539 88.003395,86.4727301 L88.1888823,86.673052 L82.4416697,92.2380809 C79.9320704,89.6463243 78.5,86.1808283 78.5,82.5 C78.5,74.7680135 84.7680135,68.5 92.5,68.5 Z" id="Shape" fill="#000000" fill-rule="nonzero"></path>
  </g>
</svg>
