<?xml version="1.0" encoding="UTF-8"?><svg viewBox="0 0 116 116" version="1.1" xmlns="http://www.w3.org/2000/svg" xmlns:xlink="http://www.w3.org/1999/xlink">
  <title>shield-alt</title>
  <g id="shield-alt" stroke="none" stroke-width="1" fill="none" fill-rule="evenodd">
    <path d="M58.5,4.84314575 L61.3284271,7.67157288 L61.3812197,7.72053153 L61.5286906,7.83707423 L61.7309835,7.97685319 L61.9868672,8.13795129 L62.2951106,8.31845144 L62.8529571,8.62138679 L62.8529571,8.62138679 L63.2867136,8.84200466 L63.7685209,9.07531467 L64.3907309,9.36203172 L64.7215282,9.50904755 L64.7215282,9.50904755 L65.4223831,9.81030774 L66.1754192,10.1210912 C66.435106,10.2262576 66.7034564,10.3329882 66.9804374,10.4412602 L67.8372387,10.7706769 L68.745624,11.1092038 L69.7053942,11.4567029 L70.6694685,11.7967154 L71.6298863,12.1276134 L72.6308935,12.4651906 L74.2084689,12.9840603 L75.3108682,13.3382963 L76.4537918,13.6991801 L78.2441192,14.2529507 L79.4882717,14.6304145 L81.4303551,15.2090129 L82.77562,15.6030004 L84.8692846,16.2063422 L87.0538141,16.8244895 L89.3291454,17.4574119 L91.6952157,18.105079 L93.3229754,18.5450336 C96.2929975,19.3465196 98.3816964,21.9879279 98.4951392,25.0415314 L98.5,25.304245 L98.5,69.6555898 C98.5,78.8640055 93.9733151,87.4731512 86.4121839,92.6947538 L86.0316055,92.952998 L61.273501,109.458401 C59.663983,110.531413 57.5874472,110.576122 55.9390111,109.592528 L55.726499,109.458401 L30.9683945,92.952998 C23.3065295,87.8450881 18.6542403,79.3031638 18.5037653,70.1154983 L18.5,69.6555898 L18.5,66.5 L26.5,66.5 L26.5,69.6555898 C26.5,76.2089123 29.7096786,82.3373181 35.074833,86.0710111 L35.4059961,86.2965957 L58.5,101.691 L81.5940039,86.2965957 C87.0466978,82.6614664 90.3654303,76.5914245 90.4959985,70.056266 L90.5,69.6555898 L90.5,26.069 L88.4618843,25.5160724 L85.6483372,24.7402691 L83.623643,24.1724847 L81.6716891,23.6164525 L80.4105681,23.2521575 L78.5788148,22.7151007 L76.818562,22.1890619 L74.5819779,21.5043402 L72.4705776,20.8380639 L70.9685162,20.3500689 L70.005688,20.0301632 L68.6189203,19.5582371 L67.3007089,19.0955852 L66.4597586,18.7921669 L65.6489335,18.4926665 L64.8680957,18.1970025 L64.1171076,17.9050931 L63.3958314,17.6168569 L62.7041294,17.3322123 L62.0418638,17.0510776 L61.4088969,16.7733713 L60.805091,16.4990119 L60.5140804,16.3630617 L60.5140804,16.3630617 L59.9537576,16.0935694 L59.6844111,15.9600069 L59.6844111,15.9600069 L59.1672615,15.6951984 L58.678722,15.4334102 L58.5,15.333 L58.3213047,15.433403 L57.706179,15.7611033 L57.706179,15.7611033 L57.0463005,16.0935538 L56.4859951,16.3630413 L55.5912106,16.7733424 L55.5912106,16.7733424 L54.9582695,17.0510417 L54.2960336,17.3321684 L53.6043653,17.6168039 L52.8831272,17.9050299 L51.7455259,18.3442791 L50.5406192,18.7920651 L49.6997271,19.0954677 L48.3816137,19.5580933 L47.4648208,19.8716436 L46.517427,20.1893956 L45.038659,20.6740803 L43.4902657,21.1686773 L42.4190936,21.5040515 L41.3166333,21.8440349 L39.0172979,22.5381558 L37.2096422,23.0714521 L35.9646835,23.4331861 L34.0371191,23.9852957 L32.036991,24.54906 L29.2564744,25.319351 L26.5,26.069 L26.5,54.5 L50.5,54.5 L50.5,62.5 L18.5,62.5 L18.5,25.3023492 C18.5,22.1389134 20.622975,19.3691954 23.6802582,18.5441624 L26.8945145,17.6710523 L29.1995184,17.033368 L31.41385,16.4104195 L33.537435,15.8022402 L34.902707,15.4050089 L36.874883,14.8215192 L38.7561147,14.2528877 L39.9597079,13.8820711 L41.6892011,13.3382777 L42.7915666,12.9840508 L44.3691151,12.4651882 L45.3701156,12.1276129 L46.3305316,11.7967154 L47.2946058,11.4567029 L48.254376,11.1092038 L49.1627613,10.7706769 L50.0195626,10.4412602 C50.2965436,10.3329882 50.564894,10.2262576 50.8245808,10.1210912 L51.5776169,9.81030774 L52.2784718,9.50904755 L52.6092691,9.36203172 L52.6092691,9.36203172 L53.2314791,9.07531467 L53.7132864,8.84200466 L54.1470429,8.62138679 L54.5315175,8.41537817 L54.9409326,8.18133228 L54.9409326,8.18133228 L55.2690165,7.97685319 L55.4713094,7.83707423 L55.6187803,7.72053153 L55.6715729,7.67157288 L58.5,4.84314575 Z M62.5,26.5 L62.5,54.5 L87,54.5 L87,62.5 L62.5,62.5 L62.5,90.5 L54.5,90.5 L54.5,26.5 L62.5,26.5 Z" id="Shape" fill="#000000" fill-rule="nonzero"></path>
  </g>
</svg>
