<?xml version="1.0" encoding="UTF-8"?><svg viewBox="0 0 116 116" version="1.1" xmlns="http://www.w3.org/2000/svg" xmlns:xlink="http://www.w3.org/1999/xlink">
  <title>ship</title>
  <g id="ship" stroke="none" stroke-width="1" fill="none" fill-rule="evenodd">
    <path d="M30.5,90.5 C30.5,101.06 54.0224,101.1656 54.492848,90.8168 L54.5,90.5 L62.5,90.5 C62.5,95.2012422 67.4481367,98.5 74.5,98.5 C81.4343322,98.5 86.3344777,95.3102844 86.4958897,90.7338846 L86.5,90.5 L94.5,90.5 L94.5040706,90.7323874 C94.6639212,95.2796969 99.5163872,98.4614365 106.350012,98.4997763 L106.699178,98.4990081 L106.778858,106.498611 C100.219715,106.563943 94.3042272,104.460426 90.5781761,100.637048 L90.5,100.555 L90.4075609,100.651431 C86.8061217,104.336404 81.1649582,106.420437 74.8642258,106.497768 L74.5,106.500089 C68.0527639,106.500089 62.2631368,104.407269 58.5924391,100.651431 L58.509,100.565 L58.34,100.74 C50.66,108.42 34.34,108.42 26.66,100.74 L26.511,100.585 L26.4092253,100.692619 C22.8097854,104.385713 17.1729534,106.459843 10.8814908,106.499454 L10.5178054,106.499479 L10.5669403,98.4996298 C17.4619574,98.5419788 22.33538,95.3610405 22.4959121,90.7363874 L22.5,90.5 L30.5,90.5 Z M67.5,6.5 C71.2854517,6.5 74.3690987,9.50478338 74.495941,13.2593502 L74.5,13.5 L74.5,22.5 L87,22.5 C93.5254567,22.5 98.8343928,27.7085444 98.9962001,34.1950252 L99,34.5 L99,50.5 L91,50.5 L91,34.5 C91,32.3578046 89.3160315,30.6089211 87.1996403,30.5048953 L87,30.5 L66.5,30.5 L66.5,14.5 L50.5,14.5 L50.5,22.5 L62.5,22.5 L62.5,30.5 L30.5,30.5 C28.3578046,30.5 26.6089211,32.1839685 26.5048953,34.3003597 L26.5,34.5 L26.5002509,52.7775327 C36.5909165,47.9542398 46.8328269,44.5630825 56.913762,42.7198262 L58.4970184,42.4405198 L59.1793386,42.5581097 C75.6996926,45.4051991 92.4922736,52.2908291 107.896796,62.6164236 L108.751164,63.193603 L110.5,64.3842999 L110.5,66.5 C110.5,76.3421255 108.341181,85.037497 104.000236,92.5151096 L103.678712,93.0600777 L96.8173416,88.9464905 C100.188772,83.3230217 102.06669,76.7834729 102.433324,69.2736912 L102.461,68.611 L101.785054,68.1684117 C88.318626,59.4288072 73.8351105,53.4842466 59.6001564,50.7652009 L58.502,50.562 L58.3302299,50.5934638 C44.072658,53.2038215 29.3589503,59.183294 15.2513865,68.17688 L14.538,68.635 L14.5396364,68.6747641 C14.8126279,76.0746712 16.4951546,82.5362955 19.5681832,88.1062542 L19.8699133,88.6425004 L12.9308813,92.6236856 C8.74190588,85.3224844 6.60807599,76.8407519 6.50400261,67.2406724 L6.5,66.5 L6.5,64.359265 L8.28119922,63.1717988 C11.651328,60.9250463 15.0619389,58.839636 18.5002959,56.9202902 L18.5,34.5 C18.5,27.9745433 23.7085444,22.6656072 30.1950252,22.5037999 L30.5,22.5 L42.5,22.5 L42.5,13.5 C42.5,9.71454828 45.5047834,6.63090132 49.2593502,6.50405902 L49.5,6.5 L67.5,6.5 Z" id="Shape" fill="#000000" fill-rule="nonzero"></path>
  </g>
</svg>
