<?xml version="1.0" encoding="UTF-8"?><svg viewBox="0 0 116 116" version="1.1" xmlns="http://www.w3.org/2000/svg" xmlns:xlink="http://www.w3.org/1999/xlink">
  <title>ship-side-view</title>
  <g id="ship-side-view" stroke="none" stroke-width="1" fill="none" fill-rule="evenodd">
    <path d="M86.5,90.5 L94.5,90.5 L94.5040706,90.7323874 C94.6639212,95.2796969 99.5163872,98.4614365 106.350012,98.4997763 L106.699178,98.4990081 L106.778858,106.498611 C100.219715,106.563943 94.3042272,104.460426 90.5781761,100.637048 L90.5,100.555 L90.4075609,100.651431 C86.8061217,104.336404 81.1649582,106.420437 74.8642258,106.497768 L74.5,106.500089 C68.0527639,106.500089 62.2631368,104.407269 58.5924391,100.651431 L58.509,100.565 L58.34,100.74 C50.66,108.42 34.34,108.42 26.66,100.74 L26.511,100.585 L26.4092253,100.692619 C22.8097854,104.385713 17.1729534,106.459843 10.8814908,106.499454 L10.5178054,106.499479 L10.5669403,98.4996298 C17.4619574,98.5419788 22.33538,95.3610405 22.4959121,90.7363874 L22.5,90.5 L30.5,90.5 C30.5,101.06 54.0224,101.1656 54.492848,90.8168 L54.5,90.5 L62.5,90.5 C62.5,95.2012422 67.4481367,98.5 74.5,98.5 C81.4343322,98.5 86.3344777,95.3102844 86.4958897,90.7338846 L86.5,90.5 Z M66.5,30.5 L66.5,14.5 L58.5,14.5 L58.5,22.5 L62.5,22.5 L62.5,30.5 L34.5,30.5 C32.3578046,30.5 30.6089211,32.1839685 30.5048953,34.3003597 L30.5,34.5 L30.5,46.5 L112.5,46.5 L112.5,54.5 L8.655,54.5 L8.68072411,54.8188958 C9.55889514,65.1375026 13.6401422,74.2222927 20.9831063,82.1995351 L21.4188078,82.6675082 L15.5945772,88.1518803 C5.71855196,77.6638521 0.659394549,65.2753475 0.503707019,51.1728426 L0.5,50.5 L0.5,46.5 L22.5,46.5 L22.5,34.5 C22.5,27.9745433 27.7085444,22.6656072 34.1950252,22.5037999 L34.5,22.5 L50.5,22.5 L50.5,13.5 C50.5,9.71454828 53.5047834,6.63090132 57.2593502,6.50405902 L57.5,6.5 L67.5,6.5 C71.2854517,6.5 74.3690987,9.50478338 74.495941,13.2593502 L74.5,13.5 L74.5,22.5 L86.5,22.5 L86.5,13.5 C86.5,9.71454828 89.5047834,6.63090132 93.2593502,6.50405902 L93.5,6.5 L103.5,6.5 C107.285452,6.5 110.369099,9.50478338 110.495941,13.2593502 L110.5,13.5 L110.5,26.5 L102.5,26.5 L102.5,14.5 L94.5,14.5 L94.5,22.5 L98.5,22.5 L98.5,30.5 L66.5,30.5 Z" id="Shape" fill="#000000" fill-rule="nonzero"></path>
  </g>
</svg>
