<?xml version="1.0" encoding="UTF-8"?><svg viewBox="0 0 116 116" version="1.1" xmlns="http://www.w3.org/2000/svg" xmlns:xlink="http://www.w3.org/1999/xlink">
  <title>shuffle</title>
  <g id="shuffle" stroke="none" stroke-width="1" fill="none" fill-rule="evenodd">
    <path d="M22.9807863,30.5 C26.228474,30.5 29.3322054,31.8160725 31.5881984,34.1386226 L31.826636,34.3913045 L71.0705972,77.2028985 C71.7777276,77.9743135 72.7567419,78.4356734 73.7957322,78.4937595 L74.0192137,78.5 L90.5,78.5 L90.5,87.435 L98.726,82.499 L84.442017,73.9299717 L88.557983,67.0700283 L105.699673,77.3550424 C108.541155,79.0599314 109.462545,82.7454929 107.757656,85.5869745 C107.301628,86.3470224 106.683527,86.9955245 105.948829,87.4870077 L105.699673,87.6449576 L90.0724788,97.0212742 C87.7045774,98.442015 84.6332762,97.6741897 83.2125354,95.3062884 C82.7929138,94.6069191 82.5514574,93.8167447 82.5073623,93.0050693 L82.5,92.7338096 L82.5,86.5 L74.0192137,86.5 C70.771526,86.5 67.6677946,85.1839275 65.4118016,82.8613774 L65.173364,82.6086955 L25.9294028,39.7971015 C25.2222724,39.0256865 24.2432581,38.5643266 23.2042678,38.5062405 L22.9807863,38.5 L10.5,38.5 L10.5,30.5 L22.9807863,30.5 Z M39.3791691,62.5310307 L45.2764022,67.9368278 L31.826636,82.6093001 L31.5881984,82.8619819 C29.4127765,85.1015838 26.4490878,86.4053156 23.3281699,86.4955826 L22.9807863,86.5006045 L10.5,86.5006045 L10.5,78.5006045 L22.9807863,78.5006045 L23.2042678,78.494364 C24.1633358,78.440746 25.0713,78.0435102 25.761489,77.3759755 L25.9294028,77.203503 L39.3791691,62.5310307 Z M83.2125354,21.6943161 C84.5938111,19.3921898 87.5352232,18.6024811 89.8735759,19.8659887 L90.0724788,19.9793303 L105.699673,29.355647 L105.948829,29.5135968 C106.683527,30.00508 107.301628,30.6535821 107.757656,31.41363 C109.421953,34.1874573 108.583542,37.7656487 105.899361,39.5204539 L105.699673,39.6455621 L88.557983,49.9305762 L84.442017,43.0706328 L98.725,34.5006438 L90.5,29.5656438 L90.5,38.5006045 L74.0192137,38.5006045 L73.7957322,38.506845 C72.8366642,38.560463 71.9287,38.9576988 71.238511,39.6252335 L71.0705972,39.797706 L56.1513137,56.0732879 L50.2540806,50.6674909 L65.173364,34.391909 L65.4118016,34.1392271 C67.5872235,31.8996252 70.5509122,30.5958935 73.6718301,30.5056264 L74.0192137,30.5006045 L82.5,30.5006438 L82.5,24.2667949 L82.5073623,23.9955352 C82.5514574,23.1838598 82.7929138,22.3936854 83.2125354,21.6943161 Z" id="Shape" fill="#000000" fill-rule="nonzero"></path>
  </g>
</svg>
