<?xml version="1.0" encoding="UTF-8"?><svg viewBox="0 0 116 116" version="1.1" xmlns="http://www.w3.org/2000/svg" xmlns:xlink="http://www.w3.org/1999/xlink">
  <title>signature</title>
  <g id="signature" stroke="none" stroke-width="1" fill="none" fill-rule="evenodd">
    <path d="M30.5,22.5 L30.5,30.5 C26.081722,30.5 22.5,34.081722 22.5,38.5 C22.5,42.918278 26.081722,46.5 30.5,46.5 C34.8349143,46.5 38.3645429,43.0521622 38.4961932,38.7491793 L38.5,38.5 L38.5,23.5 L46.4997737,23.4574492 L46.8327115,56.9784583 C49.9652359,56.2674886 53.363794,55.5722279 57.0325156,54.88705 C57.9050273,54.7240979 58.8051902,54.7963442 59.6405439,55.096368 C62.2394355,56.0297802 63.5895726,58.8932832 62.6561533,61.4921576 C62.2984752,62.4880378 61.9972083,63.3961461 61.7515086,64.2105947 L61.622,64.648 L61.6407773,64.6318815 C61.8413751,64.4393011 62.0496059,64.2307099 62.2658814,64.0055979 L62.7092804,63.5331954 L62.9392533,63.2801901 L62.9392533,63.2801901 L63.4162031,62.7400048 L64.0452163,61.9995272 L64.0452163,61.9995272 L64.7120369,61.1849015 L65.2736751,60.4786243 L67.1190189,58.0761712 L68.2076373,56.6562219 L68.9403841,55.7154895 L69.6137377,54.8677926 L70.2388259,54.1010286 L70.6342325,53.6288389 L71.0164305,53.1836546 L71.3887172,52.7618898 L71.7543897,52.3599586 L72.116745,51.9742751 L72.4790803,51.6012534 L72.8446928,51.2373075 L73.2168795,50.8788516 L73.4064685,50.7005618 C76.2858347,48.013582 79.2133866,46.5 82.5,46.5 C86.2449233,46.5 89.0568394,48.5236236 90.7145406,51.8339538 C91.763449,53.9285611 92.3404783,56.4134854 92.6863886,59.5722551 L92.777,60.469 L92.9561983,60.2584613 C96.066031,56.6679642 100.273615,54.6023287 106.062835,54.503702 L106.5,54.5 L106.5,62.5 C102.292325,62.5 99.9563416,63.9015901 98.0782012,66.7188008 L97.9078142,66.9887923 L97.9078142,66.9887923 L97.6971106,67.3446901 L97.3246729,67.9996678 L95.7182037,70.9090969 L95.3862809,71.4825725 L95.3862809,71.4825725 L95.3047637,71.6113789 L95.3047637,71.6113789 C94.1373451,73.3625067 92.6991353,74.5 90.5,74.5 C88.6855831,74.5 87.2739891,73.5254478 86.4343588,72.131734 C85.9898213,71.3938401 85.7288753,70.6009826 85.541077,69.6620367 L85.5067986,69.4854296 L85.4437947,69.1276324 L85.3872677,68.7568434 L85.3361049,68.3648057 L85.2669846,67.7188459 L85.2036747,66.9786312 L85.1628416,66.4190294 L85.1008704,65.4597962 L84.9097205,62.3823164 L84.84035,61.5176758 L84.7810425,60.8949954 L84.7103191,60.2314026 L84.6341554,59.6092185 L84.5940985,59.3133839 L84.5940985,59.3133839 L84.5101642,58.7516882 L84.4213093,58.2292351 C84.4061017,58.1453816 84.3906976,58.0631272 84.3751016,57.9824537 L84.2792553,57.51724 L84.179008,57.0891029 C84.1448818,56.9524737 84.1100567,56.8218796 84.0745674,56.697176 L83.9661413,56.340593 C83.5431346,55.0403265 83.0368619,54.5 82.5,54.5 C81.8953374,54.5 81.2481048,54.7173636 80.4969511,55.2096329 L80.227423,55.3948835 L79.9486655,55.6035259 L79.8056383,55.7167946 L79.8056383,55.7167946 L79.5119125,55.9615787 L79.2074587,56.2311599 L78.8916775,56.5261005 L78.5639694,56.8469628 L78.2237351,57.1943087 L77.8703752,57.5687007 L77.5032902,57.9707007 L77.1218807,58.4008712 L76.7255474,58.8597741 L76.3136909,59.3479717 L75.6654888,60.1364255 L74.9789877,60.9939547 L74.2521648,61.9224567 L73.4829969,62.9238288 L72.1509532,64.6670376 L71.5471184,65.4443271 L70.6712976,66.5453976 L70.6712976,66.5453976 L69.9662348,67.4042292 L69.9662348,67.4042292 L69.2811373,68.2103814 L69.0121491,68.518241 L69.0121491,68.518241 L68.4819835,69.1091634 C65.0677493,72.8432592 62.2483967,74.5 58.5,74.5 C54.6309428,74.5 52.7959823,71.4665994 52.9361283,67.7589336 C52.976467,66.691745 53.1664962,65.4644855 53.5034354,64.0577584 L53.588,63.711 L53.5582306,63.7174981 C51.1954727,64.2015648 48.9760918,64.6902453 46.9020962,65.1815662 L46.9901199,78.7977153 L46.9991997,81.9424834 L47,83 C47,95.8441142 40.0275984,103 31,103 C23.9768032,103 16.9819905,97.1682901 15.0615981,88.3880956 C14.8541968,87.4398392 14.7034237,86.4605677 14.6106432,85.4521145 L14.5619448,84.8435553 L22.543425,84.2995199 C22.6003419,85.1345421 22.7125689,85.92765 22.8768494,86.6787543 C24.0059119,91.8409224 27.7950503,95 31,95 C35.5621452,95 39,91.4716753 39,83 L38.9841598,77.4655312 L38.9184732,67.2946244 L37.9079483,67.6025044 L36.935794,67.9102225 C36.6181494,68.0127566 36.3069177,68.1152461 36.0021166,68.2176737 L35.1070225,68.5247531 L34.250618,68.8313558 C30.3445053,70.2608923 27.7057293,71.6714256 26.382933,73.0149579 L26.2717025,73.1311039 L20.4156033,67.6807734 C22.610232,65.322758 26.398451,63.1862239 31.8545991,61.1981214 L32.834778,60.8488057 C33.3335397,60.6749034 33.845321,60.5021233 34.3701731,60.3304151 L35.4373199,59.9884132 L35.9839924,59.8184563 L35.9839924,59.8184563 L37.1035924,59.480575 L37.6765425,59.3126283 L37.6765425,59.3126283 L38.8487998,58.9786669 L38.788,52.187 L38.5755064,52.315531 C36.2897921,53.6544714 33.6421377,54.4423914 30.8148707,54.4969636 L30.5,54.5 C21.663444,54.5 14.5,47.336556 14.5,38.5 C14.5,29.663444 21.663444,22.5 30.5,22.5 Z M37,74.5 L37,82.5 L10.5,82.5 L10.5,74.5 L37,74.5 Z M106.5,74.5 L106.5,82.5 L48.5,82.5 L48.5,74.5 L106.5,74.5 Z" id="Shape" fill="#000000" fill-rule="nonzero"></path>
  </g>
</svg>
