<?xml version="1.0" encoding="UTF-8"?><svg viewBox="0 0 116 116" version="1.1" xmlns="http://www.w3.org/2000/svg" xmlns:xlink="http://www.w3.org/1999/xlink">
  <title>slideview-horiz</title>
  <g id="slideview-horiz" stroke="none" stroke-width="1" fill="none" fill-rule="evenodd">
    <path d="M110.5,54.5 L110.5,62.5 L102.5,62.5 L102.5,54.5 L110.5,54.5 Z M110.5,38.5 L110.5,46.5 L102.5,46.5 L102.5,38.5 L110.5,38.5 Z M110.5,22.5 L110.5,30.5 L102.5,30.5 L102.5,22.5 L110.5,22.5 Z M110.5,70.5 L110.5,78.5 L102.5,78.5 L102.5,70.5 L110.5,70.5 Z M110.5,86.5 L110.5,94.5 L102.5,94.5 L102.5,86.5 L110.5,86.5 Z M82.5,14.5 C89.0254567,14.5 94.3343928,19.7085444 94.4962001,26.1950252 L94.5,26.5 L94.5,90.5 C94.5,97.0254567 89.2914556,102.334393 82.8049748,102.4962 L82.5,102.5 L18.5,102.5 C11.9745433,102.5 6.66560725,97.2914556 6.50379986,90.8049748 L6.5,90.5 L6.5,18.5 L14.5,18.5 L14.5,90.5 C14.5,92.6421954 16.1839685,94.3910789 18.3003597,94.4951047 L18.5,94.5 L82.5,94.5 C84.6421954,94.5 86.3910789,92.8160315 86.4951047,90.6996403 L86.5,90.5 L86.5,26.5 C86.5,24.3578046 84.8160315,22.6089211 82.6996403,22.5048953 L82.5,22.5 L17.7727273,22.5 L17.7727273,14.5 L82.5,14.5 Z" id="Shape" fill="#000000" fill-rule="nonzero"></path>
  </g>
</svg>
