<?xml version="1.0" encoding="UTF-8"?><svg viewBox="0 0 116 116" version="1.1" xmlns="http://www.w3.org/2000/svg" xmlns:xlink="http://www.w3.org/1999/xlink">
  <title>sliders</title>
  <g id="sliders" stroke="none" stroke-width="1" fill="none" fill-rule="evenodd" transform="translate(0.000000, 0.000000)">
    <path d="M58.5,70.5 C63.6999733,70.5 68.1274441,73.8074765 69.7934328,78.43345 L69.816,78.5 L106.5,78.5 L106.5,86.5 L69.816,86.5 L69.7934328,86.56655 C68.1601106,91.1018181 63.8725379,94.3697881 58.8049748,94.4962001 L58.5,94.5 L58.5,86.5 C60.6421954,86.5 62.3910789,84.8160315 62.4951047,82.6996403 L62.5,82.5 L62.4951047,82.3003597 C62.3910789,80.1839685 60.6421954,78.5 58.5,78.5 C56.3578046,78.5 54.6089211,80.1839685 54.5048953,82.3003597 L54.5,82.5 L54.5,86.5 L10.5,86.5 L10.5,78.5 L47.183,78.5 L47.2065672,78.43345 C48.8398894,73.8981819 53.1274621,70.6302119 58.1950252,70.5037999 L58.5,70.5 Z M82.5,46.5 C87.6999733,46.5 92.1274441,49.8074765 93.7934328,54.43345 L93.816,54.5 L106.5,54.5 L106.5,62.5 L93.816,62.5 L93.7934328,62.56655 C92.1601106,67.1018181 87.8725379,70.3697881 82.8049748,70.4962001 L82.5,70.5 L82.5,62.5 C84.6421954,62.5 86.3910789,60.8160315 86.4951047,58.6996403 L86.5,58.5 L86.4951047,58.3003597 C86.3910789,56.1839685 84.6421954,54.5 82.5,54.5 C80.3578046,54.5 78.6089211,56.1839685 78.5048953,58.3003597 L78.5,58.5 L78.5,62.5 L10.5,62.5 L10.5,54.5 L71.183,54.5 L71.2065672,54.43345 C72.8398894,49.8981819 77.1274621,46.6302119 82.1950252,46.5037999 L82.5,46.5 Z M34.5,22.5 C39.6999733,22.5 44.1274441,25.8074765 45.7934328,30.43345 L45.816,30.5 L106.5,30.5 L106.5,38.5 L45.816,38.5 L45.7934328,38.56655 C44.1601106,43.1018181 39.8725379,46.3697881 34.8049748,46.4962001 L34.5,46.5 L34.5,38.5 C36.6421954,38.5 38.3910789,36.8160315 38.4951047,34.6996403 L38.5,34.5 L38.4951047,34.3003597 C38.3910789,32.1839685 36.6421954,30.5 34.5,30.5 C32.3578046,30.5 30.6089211,32.1839685 30.5048953,34.3003597 L30.5,34.5 L30.5,38.5 L10.5,38.5 L10.5,30.5 L23.183,30.5 L23.2065672,30.43345 C24.8398894,25.8981819 29.1274621,22.6302119 34.1950252,22.5037999 L34.5,22.5 Z" id="Shape" fill="#000000" fill-rule="nonzero"></path>
  </g>
</svg>
