<?xml version="1.0" encoding="UTF-8"?><svg viewBox="0 0 116 116" version="1.1" xmlns="http://www.w3.org/2000/svg" xmlns:xlink="http://www.w3.org/1999/xlink">
  <title>slideview</title>
  <g id="slideview" stroke="none" stroke-width="1" fill="none" fill-rule="evenodd">
    <path d="M98.5,14.5 C105.025457,14.5 110.334393,19.7085444 110.4962,26.1950252 L110.5,26.5 L110.5,74.5 C110.5,81.0254567 105.291456,86.3343928 98.8049748,86.4962001 L98.5,86.5 L18.5,86.5 C11.9745433,86.5 6.66560725,81.2914556 6.50379986,74.8049748 L6.5,74.5 L6.5,18.5 L14.5,18.5 L14.5,74.5 C14.5,76.6421954 16.1839685,78.3910789 18.3003597,78.4951047 L18.5,78.5 L98.5,78.5 C100.642195,78.5 102.391079,76.8160315 102.495105,74.6996403 L102.5,74.5 L102.5,26.5 C102.5,24.3578046 100.816032,22.6089211 98.6996403,22.5048953 L98.5,22.5 L18.5,22.5 L18.5,14.5 L98.5,14.5 Z M22.5,94.5 L22.5,102.5 L14.5,102.5 L14.5,94.5 L22.5,94.5 Z M38.5,94.5 L38.5,102.5 L30.5,102.5 L30.5,94.5 L38.5,94.5 Z M54.5,94.5 L54.5,102.5 L46.5,102.5 L46.5,94.5 L54.5,94.5 Z M70.5,94.5 L70.5,102.5 L62.5,102.5 L62.5,94.5 L70.5,94.5 Z M86.5,94.5 L86.5,102.5 L78.5,102.5 L78.5,94.5 L86.5,94.5 Z M102.5,94.5 L102.5,102.5 L94.5,102.5 L94.5,94.5 L102.5,94.5 Z" id="Shape" fill="#000000" fill-rule="nonzero"></path>
  </g>
</svg>
