<?xml version="1.0" encoding="UTF-8"?><svg viewBox="0 0 116 116" version="1.1" xmlns="http://www.w3.org/2000/svg" xmlns:xlink="http://www.w3.org/1999/xlink">
  <title>snowflake</title>
  <g id="snowflake" stroke="none" stroke-width="1" fill="none" fill-rule="evenodd">
    <path d="M69.6715729,9.67157288 L75.3284271,15.3284271 L62.5,28.156 L62.4995552,56.1895729 L86.7778088,70.2073984 L104.301892,65.511941 L106.372445,73.2393477 L96.5760202,75.8643984 L102.069219,79.0358984 L98.0692194,85.9641016 L92.5751542,82.7921016 L95.2008719,92.5890795 L87.4734653,94.6596318 L82.7769428,77.1351016 L62.4995552,65.4275729 L62.5,88.843 L75.3284271,101.671573 L69.6715729,107.328427 L62.5,100.157 L62.5,106.5 L54.5,106.5 L54.5,100.156 L47.3284271,107.328427 L41.6715729,101.671573 L54.5,88.842 L54.4995552,60.8095729 L30.2221912,46.7926016 L12.6981076,51.488059 L10.6275552,43.7606523 L20.4239798,41.1356016 L14.9307806,37.9641016 L18.9307806,31.0358984 L24.4231137,34.2068984 L21.7991281,24.4109205 L29.5265347,22.3403682 L34.2213251,39.8638984 L54.4995552,51.5715729 L54.5,28.157 L41.6715729,15.3284271 L47.3284271,9.67157288 L54.5,16.843 L54.5,10.5 L62.5,10.5 L62.5,16.842 L69.6715729,9.67157288 Z M46.1704408,60.9996722 L50.1704408,67.9278754 L34.2221912,77.1356016 L29.5265347,94.6596318 L21.7991281,92.5890795 L24.4239798,82.7926016 L18.9307806,85.9641016 L14.9307806,79.0358984 L20.4248458,75.8638984 L10.6275552,73.2393477 L12.6981076,65.511941 L30.2230572,70.2068984 L46.1704408,60.9996722 Z M87.4734653,22.3403682 L95.2008719,24.4109205 L92.5760202,34.2073984 L98.0692194,31.0358984 L102.069219,37.9641016 L96.5768863,41.1351016 L106.372445,43.7606523 L104.301892,51.488059 L86.7786749,46.7921016 L71.9067928,55.3783867 L67.9067928,48.4501835 L82.7778088,39.8643984 L87.4734653,22.3403682 Z" id="Shape" fill="#000000" fill-rule="nonzero"></path>
  </g>
</svg>
