<?xml version="1.0" encoding="UTF-8"?><svg viewBox="0 0 116 116" version="1.1" xmlns="http://www.w3.org/2000/svg" xmlns:xlink="http://www.w3.org/1999/xlink">
  <title>sparkles</title>
  <g id="sparkles" stroke="none" stroke-width="1" fill="none" fill-rule="evenodd">
    <path d="M86.5,10.5 L86.5,14.5 C86.5,23.2313589 93.493901,30.3292047 102.185129,30.4969636 L102.5,30.5 L106.5,30.5 L106.5,38.5 L102.5,38.5 C93.7686411,38.5 86.6707953,45.493901 86.5030364,54.1851293 L86.5,54.5 L86.5,58 L78.5,58 L78.5,54.5 C78.5,46.2820029 82.6304418,39.0287222 88.9285757,34.7029077 L89.228,34.5 L88.9285757,34.2970923 C86.4905884,32.6225835 84.3774165,30.5094116 82.7029077,28.0714243 L82.5,27.771 L82.2970923,28.0714243 C80.6225835,30.5094116 78.5094116,32.6225835 76.0714243,34.2970923 L75.77,34.5 L76.0825152,34.7100165 C77.1905567,35.4718988 78.2380362,36.3293209 79.2130856,37.2757581 L79.5354031,37.594525 L73.857048,43.2297963 C70.9660536,40.3166991 67.0859513,38.6122847 62.9177541,38.5053537 L62.5,38.5 L58.5,38.5 L58.5,30.5 L62.5,30.5 C71.2313589,30.5 78.3292047,23.506099 78.4969636,14.8148707 L78.5,14.5 L78.5,10.5 L86.5,10.5 Z M34.5,40.5 C34.5,48.1275002 40.5997524,54.3303269 48.187355,54.496578 L48.5,54.5 L48.5,62.5 C40.8724998,62.5 34.6696731,68.5997524 34.503422,76.187355 L34.5,76.5 L34.5,78.5 L26.5001424,78.5337537 L26.4972354,78.1892643 L26.5,76.5 C26.5,69.2308706 30.0254771,62.7851605 35.4598734,58.7794278 L35.848,58.5 L35.7817333,58.4533771 C33.7560574,57.015774 31.984226,55.2439426 30.5466229,53.2182667 L30.5,53.151 L30.4533771,53.2182667 C28.8850828,55.4280949 26.9190292,57.3358273 24.6595764,58.8371036 L24.454,58.971 L24.6940387,59.144789 C25.5301226,59.7590217 26.3290118,60.4292925 27.0852836,61.1526401 L27.4067751,61.4658872 L21.7710727,67.1438145 C18.8870235,64.2812131 15.0412705,62.6100847 10.913674,62.5052487 L10.5,62.5 L10.5,54.5 L12.5,54.5 C20.1275002,54.5 26.3303269,48.4002476 26.496578,40.812645 L26.5,40.5 L34.5,40.5 Z M70.5,74.5 L78.499814,74.4614283 L78.5022915,74.7376767 C78.6263141,81.1630207 83.7979913,86.3385692 90.1990639,86.4962961 L90.5,86.5 L90.5385717,94.499814 L90.2623233,94.5022915 C83.8369793,94.6263141 78.6614308,99.7979913 78.5037039,106.199064 L78.5,106.5 L70.500186,106.538572 L70.4971496,106.223701 L70.5029551,106.152842 C70.6111645,99.8010967 73.6832325,94.1625551 78.4102878,90.5720803 L78.505,90.501 L78.4490112,90.4599926 C76.9873131,89.353779 75.6818634,88.050802 74.5720803,86.5897122 L74.501,86.494 L74.4599926,86.5509888 C73.353779,88.0126869 72.050802,89.3181366 70.5897122,90.4279197 L70.496,90.497 L70.7514067,90.6901427 C71.3280899,91.1377361 71.8820039,91.6181345 72.4104269,92.1298398 L72.7244001,92.4406077 L67.0348045,98.0645301 C64.8753248,95.8798331 61.9778998,94.5973202 58.860631,94.5053161 L58.5,94.5 L58.4614283,86.500186 L58.7376767,86.4977085 C65.1630207,86.3736859 70.3385692,81.2020087 70.4962961,74.8009361 L70.5,74.5 Z" id="Shape" fill="#000000" fill-rule="nonzero"></path>
  </g>
</svg>
