<?xml version="1.0" encoding="UTF-8"?><svg viewBox="0 0 116 116" version="1.1" xmlns="http://www.w3.org/2000/svg" xmlns:xlink="http://www.w3.org/1999/xlink">
  <title>speaker</title>
  <g id="speaker" stroke="none" stroke-width="1" fill="none" fill-rule="evenodd">
    <path d="M90.5,6.5 L90.5,14.5 L26.5,14.5 C24.3578046,14.5 22.6089211,16.1839685 22.5048953,18.3003597 L22.5,18.5 L22.5,98.5 C22.5,100.642195 24.1839685,102.391079 26.3003597,102.495105 L26.5,102.5 L90.5,102.5 C92.6421954,102.5 94.3910789,100.816032 94.4951047,98.6996403 L94.5,98.5 L94.5,18.5 L102.5,18.5 L102.5,98.5 C102.5,105.025457 97.2914556,110.334393 90.8049748,110.4962 L90.5,110.5 L26.5,110.5 C19.9745433,110.5 14.6656072,105.291456 14.5037999,98.8049748 L14.5,98.5 L14.5,18.5 C14.5,11.9745433 19.7085444,6.66560725 26.1950252,6.50379986 L26.5,6.5 L90.5,6.5 Z M39.860556,53.6053928 L45.1878464,59.5736403 C40.9590379,63.3482979 38.5,68.7211499 38.5,74.5 C38.5,80.2502599 40.935619,85.5968857 45.1183426,89.3640799 L45.4275035,89.6368925 L40.1954197,95.6887764 C34.0841999,90.4053945 30.5,82.7389003 30.5,74.5 C30.5,66.5760687 33.8148104,59.1780333 39.5156499,53.9183923 L39.860556,53.6053928 Z M77.0284313,53.5068272 C83.0064595,58.7864476 86.5,66.3654882 86.5,74.5 C86.5,82.3090096 83.2810569,89.60978 77.7238774,94.8579783 L77.3807278,95.1767188 L71.9848488,89.2704094 C76.1103331,85.5014545 78.5,80.1974803 78.5,74.5 C78.5,68.8258274 76.1289644,63.5436039 72.0423998,59.7823229 L71.7327011,59.5030962 L77.0284313,53.5068272 Z M58.5,62.5 C65.127417,62.5 70.5,67.872583 70.5,74.5 C70.5,81.0254567 65.2914556,86.3343928 58.8049748,86.4962001 L58.5,86.5 L58.5,78.5 C60.709139,78.5 62.5,76.709139 62.5,74.5 C62.5,72.290861 60.709139,70.5 58.5,70.5 C56.290861,70.5 54.5,72.290861 54.5,74.5 C54.5,75.8986728 55.2212531,77.1673235 56.3792448,77.8928866 L56.5656735,78.0028757 L52.6857719,84.9990435 C48.9014705,82.9003636 46.5,78.9091381 46.5,74.5 C46.5,67.872583 51.872583,62.5 58.5,62.5 Z M51.5381135,16.0909722 L55.0223537,23.2923658 C52.278468,24.6199362 50.5,27.3988247 50.5,30.5 C50.5,34.918278 54.081722,38.5 58.5,38.5 C62.918278,38.5 66.5,34.918278 66.5,30.5 C66.5,28.4797465 65.7526667,26.5866588 64.4268191,25.1264518 L64.2126918,24.8995347 L69.9248626,19.2985434 C72.8360856,22.2675541 74.5,26.2575536 74.5,30.5 C74.5,39.336556 67.336556,46.5 58.5,46.5 C49.663444,46.5 42.5,39.336556 42.5,30.5 C42.5,24.4211909 45.9226046,18.9564091 51.224105,16.2471462 L51.5381135,16.0909722 Z" id="Shape" fill="#000000" fill-rule="nonzero"></path>
  </g>
</svg>
