<?xml version="1.0" encoding="UTF-8"?><svg viewBox="0 0 116 116" version="1.1" xmlns="http://www.w3.org/2000/svg" xmlns:xlink="http://www.w3.org/1999/xlink">
  <title>square-cut-top-bottom</title>
  <g id="square-cut-top-bottom" stroke="none" stroke-width="1" fill="none" fill-rule="evenodd">
    <path d="M98.5,6.5 C105.025457,6.5 110.334393,11.7085444 110.4962,18.1950252 L110.5,18.5 L110.5,26.5 L102.5,26.5 L102.5,18.5 C102.5,16.3578046 100.816032,14.6089211 98.6996403,14.5048953 L98.5,14.5 L18.5,14.5 C16.3578046,14.5 14.6089211,16.1839685 14.5048953,18.3003597 L14.5,18.5 L14.5,30.5 L110.5,30.5 L110.5,72.5 L112.5,72.5 L112.5,96.5 C112.5,103.025457 107.291456,108.334393 100.804975,108.4962 L100.5,108.5 L20.5,108.5 C13.9745433,108.5 8.66560725,103.291456 8.50379986,96.8049748 L8.5,96.5 L8.5,88.5 L16.5,88.5 L16.5,96.5 C16.5,98.6421954 18.1839685,100.391079 20.3003597,100.495105 L20.5,100.5 L100.5,100.5 C102.642195,100.5 104.391079,98.8160315 104.495105,96.6996403 L104.5,96.5 L104.5,86.5 L6.5,86.5 L6.5,42.5 L14.5,42.5 L14.5,78.5 L102.5,78.5 L102.5,38.5 L6.5,38.5 L6.5,18.5 C6.5,11.9745433 11.7085444,6.66560725 18.1950252,6.50379986 L18.5,6.5 L98.5,6.5 Z" id="Path" fill="#000000" fill-rule="nonzero"></path>
  </g>
</svg>
