<?xml version="1.0" encoding="UTF-8"?><svg viewBox="0 0 116 116" version="1.1" xmlns="http://www.w3.org/2000/svg" xmlns:xlink="http://www.w3.org/1999/xlink">
  <title>square-arrow-up</title>
  <g id="square-arrow-up" stroke="none" stroke-width="1" fill="none" fill-rule="evenodd">
    <path d="M46.5,42.5 L46.5,50.5 L34.5,50.5 C32.3578046,50.5 30.6089211,52.1839685 30.5048953,54.3003597 L30.5,54.5 L30.5,98.5 C30.5,100.642195 32.1839685,102.391079 34.3003597,102.495105 L34.5,102.5 L82.5,102.5 C84.6421954,102.5 86.3910789,100.816032 86.4951047,98.6996403 L86.5,98.5 L86.5,54.5 C86.5,52.3578046 84.8160315,50.6089211 82.6996403,50.5048953 L82.5,50.5 L70.5,50.5 L70.5,42.5 L82.5,42.5 C89.0254567,42.5 94.3343928,47.7085444 94.4962001,54.1950252 L94.5,54.5 L94.5,98.5 C94.5,105.025457 89.2914556,110.334393 82.8049748,110.4962 L82.5,110.5 L34.5,110.5 C27.9745433,110.5 22.6656072,105.291456 22.5037999,98.8049748 L22.5,98.5 L22.5,54.5 C22.5,47.9745433 27.7085444,42.6656072 34.1950252,42.5037999 L34.5,42.5 L46.5,42.5 Z M62.5,26.5 L62.5,74.5 L54.5,74.5 L54.5,26.5 L62.5,26.5 Z M62.5595763,8.91016605 L62.7426407,9.08578644 L85.3284271,31.6715729 L79.6715729,37.3284271 L58.5,16.157 L37.3284271,37.3284271 L31.6715729,31.6715729 L54.2573593,9.08578644 C56.5404244,6.80272135 60.2056321,6.74418122 62.5595763,8.91016605 Z" id="Shape" fill="#000000" fill-rule="nonzero"></path>
  </g>
</svg>
