<?xml version="1.0" encoding="UTF-8"?><svg viewBox="0 0 116 116" version="1.1" xmlns="http://www.w3.org/2000/svg" xmlns:xlink="http://www.w3.org/1999/xlink">
  <title>square-cut-bottom</title>
  <g id="square-cut-bottom" stroke="none" stroke-width="1" fill="none" fill-rule="evenodd">
    <path d="M98.5,110.5 C105.025457,110.5 110.334393,105.291456 110.4962,98.8049748 L110.5,98.5 L110.5,78.5 L14.5,78.5 L14.5,18.5 C14.5,16.3578046 16.1839685,14.6089211 18.3003597,14.5048953 L18.5,14.5 L98.5,14.5 C100.642195,14.5 102.391079,16.1839685 102.495105,18.3003597 L102.5,18.5 L102.5,74.5 L110.5,74.5 L110.5,18.5 C110.5,11.9745433 105.291456,6.66560725 98.8049748,6.50379986 L98.5,6.5 L18.5,6.5 C11.9745433,6.5 6.66560725,11.7085444 6.50379986,18.1950252 L6.5,18.5 L6.5,86.5 L102.5,86.5 L102.5,98.5 C102.5,100.642195 100.816032,102.391079 98.6996403,102.495105 L98.5,102.5 L18.5,102.5 C16.3578046,102.5 14.6089211,100.816032 14.5048953,98.6996403 L14.5,98.5 L14.5,90 L6.5,90 L6.5,98.5 C6.5,105.025457 11.7085444,110.334393 18.1950252,110.4962 L18.5,110.5 L98.5,110.5 Z" id="Path" fill="#000000" fill-rule="nonzero"></path>
  </g>
</svg>
