<?xml version="1.0" encoding="UTF-8"?><svg viewBox="0 0 116 116" version="1.1" xmlns="http://www.w3.org/2000/svg" xmlns:xlink="http://www.w3.org/1999/xlink">
  <title>star</title>
  <g id="star" stroke="none" stroke-width="1" fill="none" fill-rule="evenodd" transform="translate(0.000000, 0.000000)">
    <path d="M60.973536,7.82894825 C63.4079069,8.62041859 65.3165267,10.5290384 66.1079971,12.9634093 L73.9228576,37.0000258 L99.7136182,37 C104.131896,37 107.713618,40.581722 107.713618,45 C107.713618,47.5575551 106.490789,49.960952 104.423436,51.4666543 L83.5657821,66.6593238 L91.4888652,91.0288066 C92.8549614,95.2305874 90.5561848,99.7442435 86.3544041,101.11034 C83.915428,101.903307 81.2441342,101.478873 79.1710505,99.9689969 L51.7942352,80.0298135 L56.5040528,73.5631592 L83.8808681,93.5023426 L76.7642216,71.6132634 L74.649506,73.151713 L69.9396884,66.6850587 L99.712,45 L76.5235784,44.9992124 L76.9176704,46.211344 L69.3096733,48.68488 L58.5,15.4369453 L51.489,37 L53.5,37 L53.5,45 L17.2863818,45 L36.0357306,58.6555951 L36.1984256,58.1572912 L43.8064227,60.6308272 L33.1191319,93.5023426 L45.406975,84.5528153 L50.1167926,91.0194696 L37.8289495,99.9689969 C34.257515,102.570157 29.253638,101.783595 26.6524776,98.2121602 C25.2006737,96.2188104 24.7524217,93.6723819 25.4250337,91.3112107 L25.5111348,91.0288066 L33.4339801,66.6576046 L12.5765642,51.4666543 C9.00512964,48.8654939 8.21856705,43.861617 10.8197275,40.2901824 C12.2675181,38.3023428 14.5452779,37.0953131 16.9920057,37.0054052 L17.2863818,37 L43.076,37 L50.8920029,12.9634093 C52.2580991,8.76162857 56.7717552,6.46285204 60.973536,7.82894825 Z" id="Path" fill="#000000" fill-rule="nonzero"></path>
  </g>
</svg>
