<?xml version="1.0" encoding="UTF-8"?><svg viewBox="0 0 116 116" version="1.1" xmlns="http://www.w3.org/2000/svg" xmlns:xlink="http://www.w3.org/1999/xlink">
  <title>stop-circle</title>
  <g id="stop-circle" stroke="none" stroke-width="1" fill="none" fill-rule="evenodd">
    <path d="M58,0 C90.0325155,0 116,25.9674845 116,58 C116,89.7121903 90.5492684,115.480044 58.9591361,115.99223 L58,116 L58,108 C85.6142375,108 108,85.6142375 108,58 C108,30.3857625 85.6142375,8 58,8 C30.3857625,8 8,30.3857625 8,58 C8,71.2329446 13.1591228,83.6392537 22.2071266,92.9123953 L22.6340953,93.3447703 L16.9755619,98.9999449 C6.17866704,88.1966375 0,73.5824134 0,58 C0,25.9674845 25.9674845,0 58,0 Z M78.5,26.5 C85.0254567,26.5 90.3343928,31.7085444 90.4962001,38.1950252 L90.5,38.5 L90.5,78.5 C90.5,85.0254567 85.2914556,90.3343928 78.8049748,90.4962001 L78.5,90.5 L50.5,90.5 L50.5,82.5 L78.5,82.5 C80.6421954,82.5 82.3910789,80.8160315 82.4951047,78.6996403 L82.5,78.5 L82.5,38.5 C82.5,36.3578046 80.8160315,34.6089211 78.6996403,34.5048953 L78.5,34.5 L38.5,34.5 C36.3578046,34.5 34.6089211,36.1839685 34.5048953,38.3003597 L34.5,38.5 L34.5,78.5 C34.5,80.6421954 36.1839685,82.3910789 38.3003597,82.4951047 L38.5,82.5 L38.5,90.5 C31.9745433,90.5 26.6656072,85.2914556 26.5037999,78.8049748 L26.5,78.5 L26.5,38.5 C26.5,31.9745433 31.7085444,26.6656072 38.1950252,26.5037999 L38.5,26.5 L78.5,26.5 Z" id="Shape" fill="#000000" fill-rule="nonzero"></path>
  </g>
</svg>
