<?xml version="1.0" encoding="UTF-8"?><svg viewBox="0 0 116 116" version="1.1" xmlns="http://www.w3.org/2000/svg" xmlns:xlink="http://www.w3.org/1999/xlink">
  <title>stop</title>
  <g id="stop" stroke="none" stroke-width="1" fill="none" fill-rule="evenodd">
    <path d="M74.5,14.5 L74.5,22.5 L26.4501562,22.5 C24.3174219,22.5 22.5726496,24.1696758 22.4563306,26.2762653 L22.4502344,26.4750005 L22.0502344,90.4750005 C22.0368459,92.617154 23.7098512,94.376528 25.8255509,94.4937789 L26.0501562,94.5 L90.5,94.5 C92.6421954,94.5 94.3910789,92.8160315 94.4951047,90.6996403 L94.5,90.5 L94.5,26.5 C94.5,24.3578046 92.8160315,22.6089211 90.6996403,22.5048953 L90.5,22.5 L90.5,14.5 C97.0254567,14.5 102.334393,19.7085444 102.4962,26.1950252 L102.5,26.5 L102.5,90.5 C102.5,97.0254567 97.2914556,102.334393 90.8049748,102.4962 L90.5,102.5 L25.9751577,102.5 C19.4498284,102.458982 14.1735489,97.2173595 14.0522843,90.729994 L14.0503906,90.4250015 L14.4503906,26.4250015 C14.4909938,19.9284913 19.6883334,14.664208 26.1465201,14.5037677 L26.4501562,14.5 L74.5,14.5 Z" id="Path" fill="#000000" fill-rule="nonzero"></path>
  </g>
</svg>
