<?xml version="1.0" encoding="UTF-8"?><svg viewBox="0 0 116 116" version="1.1" xmlns="http://www.w3.org/2000/svg" xmlns:xlink="http://www.w3.org/1999/xlink">
  <title>strike-through</title>
  <g id="strike-through" stroke="none" stroke-width="1" fill="none" fill-rule="evenodd">
    <path d="M98.5,14.5 L98.5,22.5 L90.5,22.5 L90.5,70.5 C90.5,87.9963809 76.4582171,102.213128 59.0291785,102.495713 L58.5,102.5 C41.0036191,102.5 26.7868724,88.4582171 26.5042871,71.0291785 L26.5,70.5 L26.5,66.5 L34.5,66.5 L34.5,70.5 C34.5,83.754834 45.245166,94.5 58.5,94.5 C71.6222857,94.5 82.2848457,83.9686628 82.4967847,70.8968839 L82.5,70.5 L82.5,22.5 L74.5,22.5 L74.5,14.5 L98.5,14.5 Z M78.5,54.5 L78.5,62.5 L10.5,62.5 L10.5,54.5 L78.5,54.5 Z M106.5,54.5 L106.5,62.5 L95,62.5 L95,54.5 L106.5,54.5 Z M42.5,14.5 L42.5,22.5 L34.5,22.5 L34.5,51 L26.5,51 L26.5,22.5 L18.5,22.5 L18.5,14.5 L42.5,14.5 Z" id="Shape" fill="#000000" fill-rule="nonzero"></path>
  </g>
</svg>
