<?xml version="1.0" encoding="UTF-8"?><svg viewBox="0 0 116 116" version="1.1" xmlns="http://www.w3.org/2000/svg" xmlns:xlink="http://www.w3.org/1999/xlink">
  <title>strike-through-off</title>
  <g id="strike-through-off" stroke="none" stroke-width="1" fill="none" fill-rule="evenodd">
    <path d="M13.3284271,7.67157288 L109.328427,103.671573 L103.671573,109.328427 L56.8435729,62.4995729 L11,62.5 L11,54.5 L48.8435729,54.4995729 L34.4995729,40.1555729 L34.5,51 L26.5,51 L26.4995729,32.1555729 L7.67157288,13.3284271 L13.3284271,7.67157288 Z M34.5,66.5 L34.5,70.5 C34.5,83.754834 45.245166,94.5 58.5,94.5 C64.6009672,94.5 70.333629,92.2189358 74.7285772,88.1816948 L75.0639953,87.8676828 L80.5863092,93.655951 C74.6761104,99.2945933 66.8347655,102.5 58.5,102.5 C41.0036191,102.5 26.7868724,88.4582171 26.5042871,71.0291785 L26.5,70.5 L26.5,66.5 L34.5,66.5 Z M98.5,14.5 L98.5,22.5 L90.5,22.5 L90.5,70.5 L82.5,70.5 L82.5,22.5 L74.5,22.5 L74.5,14.5 L98.5,14.5 Z M106.5,54.5 L106.5,62.5 L95,62.5 L95,54.5 L106.5,54.5 Z" id="Shape" fill="#000000" fill-rule="nonzero"></path>
  </g>
</svg>
