<?xml version="1.0" encoding="UTF-8"?><svg viewBox="0 0 116 116" version="1.1" xmlns="http://www.w3.org/2000/svg" xmlns:xlink="http://www.w3.org/1999/xlink">
  <title>subscript</title>
  <g id="subscript" stroke="none" stroke-width="1" fill="none" fill-rule="evenodd" transform="translate(0.000000, 0.000000)">
    <path d="M49.2108686,21.0433627 C50.0043578,18.3983985 52.7917752,16.8974815 55.4367394,17.6909707 C56.9699765,18.1509419 58.1854126,19.3152701 58.7148991,20.8158067 L58.7891314,21.0433627 L81.8313051,97.8506085 L74.1686949,100.149392 L54,32.92 L44.976,63 L60,63 L60,71 L42.576,71 L33.8313051,100.149392 L26.1654125,97.8616068 L36.5149521,63 L36.623,63 L49.2108686,21.0433627 Z M94.5,86.5 C92.3578046,86.5 90.6089211,88.1839685 90.5048953,90.3003597 L90.5,90.5 L82.5,90.5 C82.5,83.872583 87.872583,78.5 94.5,78.5 C101.025457,78.5 106.334393,83.7085444 106.4962,90.1950252 L106.5,90.5 L106.5,110.5 C104.293911,110.5 102.296384,109.60704 100.849145,108.162847 C98.8426758,109.584301 96.4129423,110.433751 93.8094753,110.496286 L93.5,110.5 L92.5,110.5 C86.9771525,110.5 82.5,106.022847 82.5,100.5 C82.5,95.0707601 86.8266708,90.6520683 92.2200952,90.5038418 L92.5,90.5 L98.5,90.5 C98.5,88.290861 96.709139,86.5 94.5,86.5 Z M98.166,98.5 L92.5,98.5 C91.3954305,98.5 90.5,99.3954305 90.5,100.5 C90.5,101.554362 91.3158778,102.418165 92.3507377,102.494514 L92.5,102.5 L93.5,102.5 C95.7687434,102.5 97.7055865,100.889486 98.1356174,98.6825254 L98.166,98.5 Z" id="Shape" fill="#000000" fill-rule="nonzero"></path>
  </g>
</svg>
