<?xml version="1.0" encoding="UTF-8"?><svg viewBox="0 0 116 116" version="1.1" xmlns="http://www.w3.org/2000/svg" xmlns:xlink="http://www.w3.org/1999/xlink">
  <title>sun</title>
  <g id="sun" stroke="none" stroke-width="1" fill="none" fill-rule="evenodd">
    <path d="M21.8284271,16.1715729 L35.845,30.188 L36.0279053,30.0539151 L36.7624931,29.5218005 C36.9992673,29.3529853 37.2279906,29.1927076 37.4487751,29.0409116 L38.087425,28.6109127 C38.2924445,28.4760242 38.4896375,28.3495614 38.6791163,28.2314684 L38.9271933,28.0789662 C39.3268016,27.8368432 39.7813248,27.5822089 40.2922138,27.3139916 L40.932429,26.9855425 L41.6273125,26.6436422 L42.3774214,26.2878793 L43.001,26 L43.3268218,25.8453593 C43.7047655,25.6694781 44.0860268,25.5000738 44.4704508,25.3372613 L45.0494396,25.0980005 L48.1246815,32.4827453 L47.3583655,32.8157139 L46.6422035,33.1339793 L46.354,33.264 L45.8957057,33.4896364 C43.4467933,34.7265923 41.1892707,36.3203935 39.1973058,38.2167657 L38.7745479,38.6277426 C36.1498836,41.233155 34.0603104,44.3318457 32.6392253,47.7441561 C31.3112868,50.9328024 30.5835404,54.3524734 30.5067783,57.8769679 L30.5,58.5 L30.5,62.5 L2.5,62.5 L2.5,54.5 L22.721,54.5 L22.7841807,53.9581868 C23.1614207,50.9645386 23.9108978,48.0483111 25.0126007,45.2633032 L25.2540638,44.6685439 C26.5259495,41.6144913 28.2125452,38.7579295 30.2561513,36.1755716 L30.373,36.03 L16.1715729,21.8284271 L21.8284271,16.1715729 Z M25.0609541,71.8582701 L32.3631626,68.6053186 L32.7489916,69.3823829 L33.1164324,70.1103444 L33.6326624,71.1095943 L33.9532258,71.7135497 L34.2546756,72.2674031 L34.5368045,72.7708691 L34.7994051,73.2236621 L35.0385811,73.6201079 L35.2959304,74.0333514 L35.5889313,74.4930139 L36.0949883,75.2690271 L36.234,75.479 L36.2984507,75.5640559 C36.9012725,76.3470414 37.5459213,77.0989933 38.2298601,77.8164399 L38.644918,78.2427395 C41.2435961,80.8560992 44.3317621,82.937697 47.7315904,84.3555381 C50.9235517,85.6866917 54.3473185,86.4162511 57.8761923,86.4932048 L58.5,86.5 L62.5,86.5 L62.5,114.5 L54.5,114.5 L54.5,94.279 L53.9525854,94.2151129 C50.9553066,93.8369384 48.0356907,93.0856143 45.2477439,91.9812404 L44.6523618,91.7391924 C41.6699985,90.4954481 38.876164,88.8561442 36.3423486,86.8750365 L36.03,86.626 L21.8284271,100.828427 L16.1715729,95.1715729 L30.319,81.023 L29.707,80.113 L29.6774212,80.0730808 C27.9161871,77.7233326 26.4438584,75.1618599 25.300833,72.4432213 L25.0609541,71.8582701 Z M114.5,54.5 L114.5,62.5 L94.278,62.5 L94.2235202,62.9802838 C93.8564687,65.9340395 93.1271306,68.8130019 92.0545657,71.5656139 L91.8194838,72.1535065 C90.6037961,75.1174414 88.9982441,77.8981464 87.0547561,80.4258609 L86.627,80.97 L100.828427,95.1715729 L95.1715729,100.828427 L81.176,86.833 L80.7640804,87.1207209 L80.0802647,87.5860626 L79.7188008,87.8282012 C78.0518256,88.939518 76.2045407,89.969281 74.1773682,90.920292 L73.7952063,91.0975744 C73.412901,91.2772364 73.0271645,91.4502616 72.6381577,91.6165297 L72.0522147,91.8608489 L69.0009816,84.4656962 C69.4026114,84.2975617 69.7954438,84.1268891 70.1794835,83.9537091 L70.6746442,83.7227671 C73.3577576,82.4249148 75.8198764,80.7027716 77.9661554,78.626364 L78.3911719,78.2063797 C80.9739848,75.5995204 83.0259223,72.511371 84.4178844,69.1176661 C85.7107471,65.9655731 86.4187315,62.590912 86.4934061,59.1145136 L86.5,58.5 L86.5,54.5 L114.5,54.5 Z M62.5,2.5 L62.5,22.721 L63.0200613,22.781446 C65.9996096,23.1550681 68.9026727,23.8973945 71.6762518,24.9887544 L72.2685889,25.2279523 C75.2309694,26.4550549 78.008636,28.0721293 80.5316664,30.0269078 L80.969,30.373 L95.1715729,16.1715729 L100.828427,21.8284271 L86.712,35.944 L87.2,36.6 C87.6137919,37.1517225 88.0632549,37.834307 88.5527654,38.6529866 L88.6772559,38.8632577 C89.8031304,40.5903734 90.78127,42.4147974 91.5976076,44.3176548 L91.8961222,45.034866 L84.5887026,48.2793038 L83.9653895,47.0121083 L83.5713401,46.2291466 L83.0134654,45.1486054 L82.664242,44.4915151 L82.3336211,43.8855772 C82.2800891,43.7888758 82.2273483,43.6943248 82.1754066,43.6019339 L81.896,43.114 L81.6725381,42.7770737 C80.7792242,41.4633824 79.774056,40.225083 78.6676618,39.0766229 L78.2480397,38.6501898 C75.6556023,36.0709494 72.5839784,34.0177792 69.2070269,32.6189494 C66.0312737,31.3034618 62.6275102,30.5827336 59.1200203,30.5067128 L58.5,30.5 L54.5,30.5 L54.5,2.5 L62.5,2.5 Z" id="Shape" fill="#000000" fill-rule="nonzero"></path>
  </g>
</svg>
