<?xml version="1.0" encoding="UTF-8"?><svg viewBox="0 0 116 116" version="1.1" xmlns="http://www.w3.org/2000/svg" xmlns:xlink="http://www.w3.org/1999/xlink">
  <title>superscript</title>
  <g id="superscript" stroke="none" stroke-width="1" fill="none" fill-rule="evenodd" transform="translate(0.000000, 0.000000)">
    <path d="M49.2108686,21.0433627 C50.0043578,18.3983985 52.7917752,16.8974815 55.4367394,17.6909707 C56.9699765,18.1509419 58.1854126,19.3152701 58.7148991,20.8158067 L58.7891314,21.0433627 L81.8313051,97.8506085 L74.1686949,100.149392 L54,32.92 L44.976,63 L60,63 L60,71 L42.576,71 L33.8313051,100.149392 L26.1654125,97.8616068 L36.5149521,63 L36.623,63 L49.2108686,21.0433627 Z M94.5,14.5 C92.3578046,14.5 90.6089211,16.1839685 90.5048953,18.3003597 L90.5,18.5 L82.5,18.5 C82.5,11.872583 87.872583,6.5 94.5,6.5 C101.025457,6.5 106.334393,11.7085444 106.4962,18.1950252 L106.5,18.5 L106.5,38.5 C104.293911,38.5 102.296384,37.6070402 100.849145,36.1628472 C98.8426758,37.5843007 96.4129423,38.4337515 93.8094753,38.4962862 L93.5,38.5 L92.5,38.5 C86.9771525,38.5 82.5,34.0228475 82.5,28.5 C82.5,23.0707601 86.8266708,18.6520683 92.2200952,18.5038418 L92.5,18.5 L98.5,18.5 C98.5,16.290861 96.709139,14.5 94.5,14.5 Z M98.166,26.5 L92.5,26.5 C91.3954305,26.5 90.5,27.3954305 90.5,28.5 C90.5,29.5543618 91.3158778,30.4181651 92.3507377,30.4945143 L92.5,30.5 L93.5,30.5 C95.7687434,30.5 97.7055865,28.8894859 98.1356174,26.6825254 L98.166,26.5 Z" id="Shape" fill="#000000" fill-rule="nonzero"></path>
  </g>
</svg>
