<?xml version="1.0" encoding="UTF-8"?><svg viewBox="0 0 116 116" version="1.1" xmlns="http://www.w3.org/2000/svg" xmlns:xlink="http://www.w3.org/1999/xlink">
  <title>symmetry</title>
  <g id="symmetry" stroke="none" stroke-width="1" fill="none" fill-rule="evenodd" transform="translate(0.000000, 0.000000)">
    <path d="M62.5,10.5 L62.5,22.5 L66.5,22.5 L66.5,30.5 L62.5,30.5 L62.5,106.5 L54.5,106.5 L54.5,94.5 L18.5,94.5 C11.9745433,94.5 6.66560725,89.2914556 6.50379986,82.8049748 L6.5,82.5 L6.5,34.5 C6.5,27.9745433 11.7085444,22.6656072 18.1950252,22.5037999 L18.5,22.5 L50.5,22.5 L50.5,30.5 L18.5,30.5 C16.3578046,30.5 14.6089211,32.1839685 14.5048953,34.3003597 L14.5,34.5 L14.5,82.5 C14.5,84.6421954 16.1839685,86.3910789 18.3003597,86.4951047 L18.5,86.5 L54.5,86.5 L54.5,10.5 L62.5,10.5 Z M74.5,86.5 L74.5,94.5 L66.5,94.5 L66.5,86.5 L74.5,86.5 Z M90.5,86.5 L90.5,94.5 L82.5,94.5 L82.5,86.5 L90.5,86.5 Z M110.5,74.5 L110.5,82.5 C110.5,89.0254567 105.291456,94.3343928 98.8049748,94.4962001 L98.5,94.5 L98,94.5 L98,86.5 L98.5,86.5 C100.642195,86.5 102.391079,84.8160315 102.495105,82.6996403 L102.5,82.5 L102.5,74.5 L110.5,74.5 Z M110.5,58.5 L110.5,66.5 L102.5,66.5 L102.5,58.5 L110.5,58.5 Z M110.5,42.5 L110.5,50.5 L102.5,50.5 L102.5,42.5 L110.5,42.5 Z M98.5,22.5 C105.025457,22.5 110.334393,27.7085444 110.4962,34.1950252 L110.5,34.5 L102.5,34.5 C102.5,32.3578046 100.816032,30.6089211 98.6996403,30.5048953 L98.5,30.5 L90.5,30.5 L90.5,22.5 L98.5,22.5 Z M82.5,22.5 L82.5,30.5 L74.5,30.5 L74.5,22.5 L82.5,22.5 Z" id="Shape" fill="#000000" fill-rule="nonzero"></path>
  </g>
</svg>
