<?xml version="1.0" encoding="UTF-8"?><svg viewBox="0 0 116 116" version="1.1" xmlns="http://www.w3.org/2000/svg" xmlns:xlink="http://www.w3.org/1999/xlink">
  <title>table</title>
  <g id="table" stroke="none" stroke-width="1" fill="none" fill-rule="evenodd">
    <path d="M38.5,90.5 L38.5,98.5 L30.5,98.5 L30.5,90.5 L38.5,90.5 Z M86.5,90.5 L86.5,98.5 L78.5,98.5 L78.5,90.5 L86.5,90.5 Z M106.5,78.5 L106.5,86.5 L10.5,86.5 L10.5,78.5 L106.5,78.5 Z M38.5,66.5 L38.5,74.5 L30.5,74.5 L30.5,66.5 L38.5,66.5 Z M86.5,66.5 L86.5,74.5 L78.5,74.5 L78.5,66.5 L86.5,66.5 Z M105.5,54.5 L105.5,62.5 L9.5,62.5 L9.5,54.5 L105.5,54.5 Z M38.5,42.5 L38.5,50.5 L30.5,50.5 L30.5,42.5 L38.5,42.5 Z M86.5,42.5 L86.5,50.5 L78.5,50.5 L78.5,42.5 L86.5,42.5 Z M106.5,30.5 L106.5,38.5 L10.5,38.5 L10.5,30.5 L106.5,30.5 Z M38.5,18.5 L38.5,26.5 L30.5,26.5 L30.5,18.5 L38.5,18.5 Z M86.5,18.5 L86.5,26.5 L78.5,26.5 L78.5,18.5 L86.5,18.5 Z" id="Shape" fill="#000000" fill-rule="nonzero"></path>
  </g>
</svg>
