<?xml version="1.0" encoding="UTF-8"?><svg viewBox="0 0 116 116" version="1.1" xmlns="http://www.w3.org/2000/svg" xmlns:xlink="http://www.w3.org/1999/xlink">
  <title>tag</title>
  <g id="tag" stroke="none" stroke-width="1" fill="none" fill-rule="evenodd">
    <path d="M70.3750153,14.4389646 L94.4360119,14.0639881 L94.5609967,14.0649644 C98.8953819,14.1326892 102.370714,17.6352499 102.435122,21.9397644 L102.435122,22.1889728 L102.025152,48.421505 C101.993937,50.4192796 101.21654,52.3290375 99.8524814,53.7786472 L99.6322518,54.0036547 L47.1312642,105.575421 C44.0658219,108.586608 39.1858075,108.629182 36.069019,105.719114 L35.8682868,105.525141 L9.45663193,79.1120909 C6.44594513,76.0053183 6.4594926,71.0847295 9.44003592,67.9945052 L9.63431224,67.7997777 L55.2163418,23.6275016 L60.7836582,29.3724984 L15.2016225,73.5447744 L41.5251411,99.8682868 L94.0261286,48.2965203 L94.4360119,22.0639881 L70.5,22.4379883 L70.5,42 C70.5,44.1421954 72.1839685,45.8910789 74.3003597,45.9951047 L74.5,46 L74.75,46 C76.8210678,46 78.5,44.3210678 78.5,42.25 C78.5,40.2457408 76.9276389,38.6087263 74.9491586,38.505198 L74.75,38.5 L74.5,38.5 L74.5,30.5 L74.75,30.5 C81.2393458,30.5 86.5,35.7606542 86.5,42.25 C86.5,48.6395097 81.399967,53.8378429 75.0486211,53.9962793 L74.75,54 L74.5,54 C67.9745433,54 62.6656072,48.7914556 62.5037999,42.3049748 L62.5,42 L62.5,22.4379883 C62.5,18.0684432 66.0060035,14.5072304 70.3750153,14.4389646 Z" id="Path-12" fill="#000000" fill-rule="nonzero"></path>
  </g>
</svg>
