<?xml version="1.0" encoding="UTF-8"?><svg viewBox="0 0 116 116" version="1.1" xmlns="http://www.w3.org/2000/svg" xmlns:xlink="http://www.w3.org/1999/xlink">
  <title>taxi</title>
  <g id="taxi" stroke="none" stroke-width="1" fill="none" fill-rule="evenodd">
    <path d="M81.0837363,22.5 C85.8861902,22.5 90.2151064,25.3616398 92.1056383,29.7546535 L92.2254566,30.0433119 L97.207,42.5 L99.9316943,49.1193607 C100.141916,49.6300714 99.8983208,50.2145023 99.3876101,50.4247236 C99.2668619,50.4744265 99.1375484,50.5 99.0069708,50.5 L91.7918682,50.5 L84.7976431,33.0144373 C84.2166007,31.5618313 82.8456213,30.58758 81.2960859,30.5056084 L81.0837363,30.5 L35.9162637,30.5 C34.3517592,30.5 32.9380205,31.4110946 32.2864289,32.8193585 L32.2023569,33.0144373 L28.407,42.5 L74.5,42.5 L74.5,50.5 L22.5,50.5 C18.1650857,50.5 14.6354571,53.9478378 14.5038068,58.2508207 L14.5,58.5 L14.5,92.5 C14.5,93.5543618 15.3158778,94.4181651 16.3507377,94.4945143 L16.5,94.5 L20.5,94.5 C21.5543618,94.5 22.4181651,93.6841222 22.4945143,92.6492623 L22.5,92.5 L22.5,86.5 L18.5,86.5 L18.5,78.5 L98.5,78.5 L98.5,86.5 L94.5,86.5 L94.5,92.5 C94.5,93.5543618 95.3158778,94.4181651 96.3507377,94.4945143 L96.5,94.5 L100.5,94.5 C101.554362,94.5 102.418165,93.6841222 102.494514,92.6492623 L102.5,92.5 L102.5,62.5 L84.5,62.5 C83.4456382,62.5 82.5818349,63.3158778 82.5054857,64.3507377 L82.5,64.5 C82.5,65.6045695 83.3954305,66.5 84.5,66.5 C85.5543618,66.5 86.4181651,65.6841222 86.4945143,64.6492623 L86.5,64.5 L94.5,64.5 C94.5,70.0228475 90.0228475,74.5 84.5,74.5 C78.9771525,74.5 74.5,70.0228475 74.5,64.5 C74.5,59.0707601 78.8266708,54.6520683 84.2200952,54.5038418 L84.5,54.5 L103.5,54.5 C107.285452,54.5 110.369099,57.5047834 110.495941,61.2593502 L110.5,61.5 L110.5,92.5 C110.5,97.9292399 106.173329,102.347932 100.779905,102.496158 L100.5,102.5 L96.5,102.5 C91.0707601,102.5 86.6520683,98.1733292 86.5038418,92.7799048 L86.5,92.5 L86.5,86.5 L30.5,86.5 L30.5,92.5 C30.5,97.9292399 26.1733292,102.347932 20.7799048,102.496158 L20.5,102.5 L16.5,102.5 C11.0707601,102.5 6.65206828,98.1733292 6.5038418,92.7799048 L6.5,92.5 L6.5,58.5 C6.5,50.715415 12.0593848,44.2292938 19.4244861,42.795305 L19.694,42.745 L24.7745434,30.0433119 C26.55813,25.5843454 30.822815,22.6278339 35.6037517,22.5040435 L35.9162637,22.5 L81.0837363,22.5 Z M32.5,54.5 C37.9292399,54.5 42.3479317,58.8266708 42.4961582,64.2200952 L42.5,64.5 L42.5,66.5 L34.5,66.5 L34.5,64.5 C34.5,63.3954305 33.6045695,62.5 32.5,62.5 C31.3954305,62.5 30.5,63.3954305 30.5,64.5 C30.5,65.5543618 31.3158778,66.4181651 32.3507377,66.4945143 L32.5,66.5 L34,66.5 L34,74.5 L32.5,74.5 C26.9771525,74.5 22.5,70.0228475 22.5,64.5 C22.5,58.9771525 26.9771525,54.5 32.5,54.5 Z M74.5,12.5 L74.5,20.5 L42.5,20.5 L42.5,12.5 L74.5,12.5 Z" id="Shape" fill="#000000" fill-rule="nonzero"></path>
  </g>
</svg>
