<?xml version="1.0" encoding="UTF-8"?><svg viewBox="0 0 116 116" version="1.1" xmlns="http://www.w3.org/2000/svg" xmlns:xlink="http://www.w3.org/1999/xlink">
  <title>text-size</title>
  <g id="text-size" stroke="none" stroke-width="1" fill="none" fill-rule="evenodd" transform="translate(-0.000000, 0.000000)">
    <path d="M73.7108686,20.5433627 C74.5043578,17.8983985 77.2917752,16.3974815 79.9367394,17.1909707 C81.4699765,17.6509419 82.6854126,18.8152701 83.2148991,20.3158067 L83.2891314,20.5433627 L106.331305,97.3506085 L98.6686949,99.6493915 L78.5,32.42 L69.476,62.5 L84.5,62.5 L84.5,70.5 L67.076,70.5 L58.3313051,99.6493915 L50.6654125,97.3616068 L61.0149521,62.5 L61.123,62.5 L73.7108686,20.5433627 Z M25.8686081,46.530886 C26.6321446,43.9730389 29.3246579,42.5184627 31.882505,43.2819991 C33.3695269,43.7258862 34.5482127,44.8548989 35.0597152,46.3101901 L35.1313919,46.530886 L50.3328761,97.4558579 L42.6671239,99.7441421 L30.5,58.984 L26.268,73.16 L34.5,73.16 L34.5,81.16 L23.88,81.16 L18.3328761,99.7441421 L10.6638702,97.4668149 L17.844055,73.16 L17.919,73.16 L25.8686081,46.530886 Z" id="Shape" fill="#000000" fill-rule="nonzero"></path>
  </g>
</svg>
