<?xml version="1.0" encoding="UTF-8"?><svg viewBox="0 0 116 116" version="1.1" xmlns="http://www.w3.org/2000/svg" xmlns:xlink="http://www.w3.org/1999/xlink">
  <title>text-rulers</title>
  <g id="text-rulers" stroke="none" stroke-width="1" fill="none" fill-rule="evenodd">
    <path d="M106,22 L106,30 L94,29.9992983 L94,106 L86,106 L86,82.4992983 L78.5,82.5 C78.5,80.3578046 76.8160315,78.6089211 74.6996403,78.5048953 L74.5,78.5 L42.5,78.5 C35.872583,78.5 30.5,73.127417 30.5,66.5 C30.5,59.9745433 35.7085444,54.6656072 42.1950252,54.5037999 L42.5,54.5 L74.5,54.5 C76.709139,54.5 78.5,52.709139 78.5,50.5 C78.5,48.3578046 76.8160315,46.6089211 74.6996403,46.5048953 L74.5,46.5 L34.5,46.5 L34.5,38.5 L74.5,38.5 C79.9338607,38.5 84.5241639,42.1116989 86.0012931,47.0654802 L86,30 L34,30 L34,22 L106,22 Z M30,98 L30,106 L22,106 L22,98 L30,98 Z M21.8562892,9.48229831 L29.8562108,9.51770169 L29.517,86 L82.5,86 L82.5,94 L10,94 L10,86 L21.517,85.9992983 L21.8562892,9.48229831 Z M106,86 L106,94 L98,94 L98,86 L106,86 Z M86.0005412,53.9370404 C84.5503431,58.7965827 80.1041121,62.3640114 74.8049748,62.4962001 L74.5,62.5 L42.5,62.5 C40.290861,62.5 38.5,64.290861 38.5,66.5 C38.5,68.6421954 40.1839685,70.3910789 42.3003597,70.4951047 L42.5,70.5 L74.5,70.5 C79.9338795,70.5 84.5241957,74.1117239 86.0013085,79.0655317 L86.0005412,53.9370404 Z M18,22 L18,30 L9.5,30 L9.5,22 L18,22 Z M94,10 L94,18 L86,18 L86,10 L94,10 Z" id="Shape" fill="#000000" fill-rule="nonzero"></path>
  </g>
</svg>
