<?xml version="1.0" encoding="UTF-8"?><svg viewBox="0 0 116 116" version="1.1" xmlns="http://www.w3.org/2000/svg" xmlns:xlink="http://www.w3.org/1999/xlink">
  <title>text-align-center</title>
  <g id="text-align-center" stroke="none" stroke-width="1" fill="none" fill-rule="evenodd" transform="translate(0.000000, 0.000000)">
    <path d="M22.5,14.5 C15.872583,14.5 10.5,19.872583 10.5,26.5 C10.5,33.0254567 15.7085444,38.3343928 22.1950252,38.4962001 L22.5,38.5 L78.5,38.5 C80.709139,38.5 82.5,40.290861 82.5,42.5 C82.5,44.6421954 80.8160315,46.3910789 78.6996403,46.4951047 L78.5,46.5 L38.5,46.5 L38.5,54.5 L78.5,54.5 C85.127417,54.5 90.5,49.127417 90.5,42.5 C90.5,35.9745433 85.2914556,30.6656072 78.8049748,30.5037999 L78.5,30.5 L22.5,30.5 C20.290861,30.5 18.5,28.709139 18.5,26.5 C18.5,24.3578046 20.1839685,22.6089211 22.3003597,22.5048953 L22.5,22.5 L110.5,22.5 L110.5,14.5 L22.5,14.5 Z M98.5,62.5 C105.127417,62.5 110.5,67.872583 110.5,74.5 C110.5,81.0254567 105.291456,86.3343928 98.8049748,86.4962001 L98.5,86.5 L42.5,86.5 C40.290861,86.5 38.5,88.290861 38.5,90.5 C38.5,92.6421954 40.1839685,94.3910789 42.3003597,94.4951047 L42.5,94.5 L82.5,94.5 L82.5,102.5 L42.5,102.5 C35.872583,102.5 30.5,97.127417 30.5,90.5 C30.5,83.9745433 35.7085444,78.6656072 42.1950252,78.5037999 L42.5,78.5 L98.5,78.5 C100.709139,78.5 102.5,76.709139 102.5,74.5 C102.5,72.3578046 100.816032,70.6089211 98.6996403,70.5048953 L98.5,70.5 L10.5,70.5 L10.5,62.5 L98.5,62.5 Z" id="Shape" fill="#000000" fill-rule="nonzero"></path>
  </g>
</svg>
