<?xml version="1.0" encoding="UTF-8"?><svg viewBox="0 0 116 116" version="1.1" xmlns="http://www.w3.org/2000/svg" xmlns:xlink="http://www.w3.org/1999/xlink">
  <title>text-font</title>
  <g id="text-font" stroke="none" stroke-width="1" fill="none" fill-rule="evenodd">
    <path d="M29.7108686,20.5433627 C30.5043578,17.8983985 33.2917752,16.3974815 35.9367394,17.1909707 C37.4699765,17.6509419 38.6854126,18.8152701 39.2148991,20.3158067 L39.2891314,20.5433627 L62.3313051,97.3506085 L54.6686949,99.6493915 L34.5,32.42 L25.476,62.5 L40.5,62.5 L40.5,70.5 L23.076,70.5 L14.3313051,99.6493915 L6.66541253,97.3616068 L17.0149521,62.5 L17.123,62.5 L29.7108686,20.5433627 Z M82.5,46.5 C93.4306357,46.5 102.313225,55.2687286 102.497093,66.1555106 L102.5,66.5 L102.5,90.5 C102.5,92.6421954 104.183968,94.3910789 106.30036,94.4951047 L106.5,94.5 L106.5,102.5 C101.867586,102.5 97.8482447,99.8751207 95.8481839,96.0315689 C92.0098511,99.9642585 86.6887209,102.399968 80.8618863,102.496989 L80.5,102.5 L78.5,102.5 C69.663444,102.5 62.5,95.336556 62.5,86.5 C62.5,77.7686411 69.493901,70.6707953 78.1851293,70.5030364 L78.5,70.5 L90.5,70.5 L90.5,78.5 L78.5,78.5 C74.081722,78.5 70.5,82.081722 70.5,86.5 C70.5,90.8349143 73.9478378,94.3645429 78.2508207,94.4961932 L78.5,94.5 L80.5,94.5 C87.1671725,94.5 92.8275397,89.6144927 93.8020181,83.0189199 C94.2328299,80.103072 94.463027,77.4576219 94.4958927,75.0869428 L94.5,74.5 L94.5,66.5 C94.5,59.872583 89.127417,54.5 82.5,54.5 C75.9745433,54.5 70.6656072,59.7085444 70.5037999,66.1950252 L70.5,66.5 L62.5,66.5 C62.5,55.454305 71.454305,46.5 82.5,46.5 Z" id="Shape" fill="#000000" fill-rule="nonzero"></path>
  </g>
</svg>
