<?xml version="1.0" encoding="UTF-8"?><svg viewBox="0 0 116 116" version="1.1" xmlns="http://www.w3.org/2000/svg" xmlns:xlink="http://www.w3.org/1999/xlink">
  <title>text-shadow-off</title>
  <g id="text-shadow-off" stroke="none" stroke-width="1" fill="none" fill-rule="evenodd">
    <path d="M13.3284271,7.67157288 L109.328427,103.671573 L103.671573,109.328427 L7.67157288,13.3284271 L13.3284271,7.67157288 Z M42.844,58.5 L58.843,74.5 L50.5,74.5 L50.5,100.5 C50.5,103.738397 47.9344251,106.377572 44.7249383,106.495862 L44.5,106.5 L30.5,106.5 L30.5,98.5 L22.5,98.5 L22.5,90.5 L34.5,90.5 L34.5,64.5 C34.5,61.2616031 37.0655749,58.6224282 40.2750617,58.5041385 L40.5,58.5 L42.844,58.5 Z M74.843,90.5 L90.843,106.5 L78.5,106.5 L78.5,98.5 L70.5,98.5 L70.5,90.5 L74.843,90.5 Z M85.6715729,10.5 C87.169266,10.5 88.6092258,11.0599588 89.7115523,12.0639381 L89.9142136,12.2573593 L96.7426407,19.0857864 C97.8016696,20.1448154 98.4239243,21.5589715 98.4934663,23.0483546 L98.5,23.3284271 L98.5,82.843 L82.5,66.843 L82.5,10.5 L85.6715729,10.5 Z M37.6715729,10.5 C39.169266,10.5 40.6092258,11.0599588 41.7115523,12.0639381 L41.9142136,12.2573593 L48.7426407,19.0857864 C49.8016696,20.1448154 50.4239243,21.5589715 50.4934663,23.0483546 L50.5,23.3284271 L50.5,34.843 L34.5,18.843 L34.5,10.5 L37.6715729,10.5 Z" id="Shape" fill="#000000" fill-rule="nonzero"></path>
  </g>
</svg>
