<?xml version="1.0" encoding="UTF-8"?><svg viewBox="0 0 116 116" version="1.1" xmlns="http://www.w3.org/2000/svg" xmlns:xlink="http://www.w3.org/1999/xlink">
  <title>text-align-right</title>
  <g id="text-align-right" stroke="none" stroke-width="1" fill="none" fill-rule="evenodd" transform="translate(0.000000, 0.000000)">
    <path d="M18.5,14.5 C11.872583,14.5 6.5,19.872583 6.5,26.5 C6.5,33.0254567 11.7085444,38.3343928 18.1950252,38.4962001 L18.5,38.5 L98.5,38.5 C100.709139,38.5 102.5,40.290861 102.5,42.5 C102.5,44.6421954 100.816032,46.3910789 98.6996403,46.4951047 L98.5,46.5 L58.5,46.5 L58.5,54.5 L98.5,54.5 C105.127417,54.5 110.5,49.127417 110.5,42.5 C110.5,35.9745433 105.291456,30.6656072 98.8049748,30.5037999 L98.5,30.5 L18.5,30.5 C16.290861,30.5 14.5,28.709139 14.5,26.5 C14.5,24.3578046 16.1839685,22.6089211 18.3003597,22.5048953 L18.5,22.5 L106.5,22.5 L106.5,14.5 L18.5,14.5 Z M18.5,62.5 C11.872583,62.5 6.5,67.872583 6.5,74.5 C6.5,81.0254567 11.7085444,86.3343928 18.1950252,86.4962001 L18.5,86.5 L98.5,86.5 C100.709139,86.5 102.5,88.290861 102.5,90.5 C102.5,92.6421954 100.816032,94.3910789 98.6996403,94.4951047 L98.5,94.5 L66.5,94.5 C59.9745433,94.5 54.6656072,99.7085444 54.5037999,106.195025 L54.5,106.5 L62.5,106.5 C62.5,104.357805 64.1839685,102.608921 66.3003597,102.504895 L66.5,102.5 L98.5,102.5 C105.127417,102.5 110.5,97.127417 110.5,90.5 C110.5,83.9745433 105.291456,78.6656072 98.8049748,78.5037999 L98.5,78.5 L18.5,78.5 C16.290861,78.5 14.5,76.709139 14.5,74.5 C14.5,72.3578046 16.1839685,70.6089211 18.3003597,70.5048953 L18.5,70.5 L106.5,70.5 L106.5,62.5 L18.5,62.5 Z" id="Shape" fill="#000000" fill-rule="nonzero"></path>
  </g>
</svg>
