<?xml version="1.0" encoding="UTF-8"?><svg viewBox="0 0 116 116" version="1.1" xmlns="http://www.w3.org/2000/svg" xmlns:xlink="http://www.w3.org/1999/xlink">
  <title>text-align-left</title>
  <g id="text-align-left" stroke="none" stroke-width="1" fill="none" fill-rule="evenodd" transform="translate(0.000000, 0.000000)">
    <path d="M98.5,14.5 C105.127417,14.5 110.5,19.872583 110.5,26.5 C110.5,33.0254567 105.291456,38.3343928 98.8049748,38.4962001 L98.5,38.5 L18.5,38.5 C16.290861,38.5 14.5,40.290861 14.5,42.5 C14.5,44.6421954 16.1839685,46.3910789 18.3003597,46.4951047 L18.5,46.5 L58.5,46.5 L58.5,54.5 L18.5,54.5 C11.872583,54.5 6.5,49.127417 6.5,42.5 C6.5,35.9745433 11.7085444,30.6656072 18.1950252,30.5037999 L18.5,30.5 L98.5,30.5 C100.709139,30.5 102.5,28.709139 102.5,26.5 C102.5,24.3578046 100.816032,22.6089211 98.6996403,22.5048953 L98.5,22.5 L10.5,22.5 L10.5,14.5 L98.5,14.5 Z M98.5,62.5 C105.127417,62.5 110.5,67.872583 110.5,74.5 C110.5,81.0254567 105.291456,86.3343928 98.8049748,86.4962001 L98.5,86.5 L18.5,86.5 C16.290861,86.5 14.5,88.290861 14.5,90.5 C14.5,92.6421954 16.1839685,94.3910789 18.3003597,94.4951047 L18.5,94.5 L50.5,94.5 C57.0254567,94.5 62.3343928,99.7085444 62.4962001,106.195025 L62.5,106.5 L54.5,106.5 C54.5,104.357805 52.8160315,102.608921 50.6996403,102.504895 L50.5,102.5 L18.5,102.5 C11.872583,102.5 6.5,97.127417 6.5,90.5 C6.5,83.9745433 11.7085444,78.6656072 18.1950252,78.5037999 L18.5,78.5 L98.5,78.5 C100.709139,78.5 102.5,76.709139 102.5,74.5 C102.5,72.3578046 100.816032,70.6089211 98.6996403,70.5048953 L98.5,70.5 L10.5,70.5 L10.5,62.5 L98.5,62.5 Z" id="Shape" fill="#000000" fill-rule="nonzero"></path>
  </g>
</svg>
