<?xml version="1.0" encoding="UTF-8"?><svg viewBox="0 0 116 116" version="1.1" xmlns="http://www.w3.org/2000/svg" xmlns:xlink="http://www.w3.org/1999/xlink">
  <title>text-shadow</title>
  <g id="text-shadow" stroke="none" stroke-width="1" fill="none" fill-rule="evenodd">
    <path d="M68.5,58.5 C71.7383969,58.5 74.3775718,61.0655749 74.4958615,64.2750617 L74.5,64.5 L74.5,74.5 L50.5,74.5 L50.5,100.5 C50.5,103.738397 47.9344251,106.377572 44.7249383,106.495862 L44.5,106.5 L30.5,106.5 L30.5,98.5 L22.5,98.5 L22.5,90.5 L34.5,90.5 L34.5,64.5 C34.5,61.2616031 37.0655749,58.6224282 40.2750617,58.5041385 L40.5,58.5 L68.5,58.5 Z M85.6715729,10.5 C87.169266,10.5 88.6092258,11.0599588 89.7115523,12.0639381 L89.9142136,12.2573593 L96.7426407,19.0857864 C97.8016696,20.1448154 98.4239243,21.5589715 98.4934663,23.0483546 L98.5,23.3284271 L98.5,100.5 C98.5,103.738397 95.9344251,106.377572 92.7249383,106.495862 L92.5,106.5 L78.5,106.5 L78.5,98.5 L70.5,98.5 L70.5,90.5 L82.5,90.5 L82.5,10.5 L85.6715729,10.5 Z M37.6715729,10.5 C39.169266,10.5 40.6092258,11.0599588 41.7115523,12.0639381 L41.9142136,12.2573593 L48.7426407,19.0857864 C49.8016696,20.1448154 50.4239243,21.5589715 50.4934663,23.0483546 L50.5,23.3284271 L50.5,50.5 L40.5,50.5 C37.2616031,50.5 34.6224282,47.9344251 34.5041385,44.7249383 L34.5,44.5 L34.5,10.5 L37.6715729,10.5 Z" id="Shape" fill="#000000" fill-rule="nonzero"></path>
  </g>
</svg>
