<?xml version="1.0" encoding="UTF-8"?><svg viewBox="0 0 116 116" version="1.1" xmlns="http://www.w3.org/2000/svg" xmlns:xlink="http://www.w3.org/1999/xlink">
  <title>text-off</title>
  <g id="text-off" stroke="none" stroke-width="1" fill="none" fill-rule="evenodd">
    <path d="M12.8284271,7.17157288 L108.828427,103.171573 L103.171573,108.828427 L7.17157288,12.8284271 L12.8284271,7.17157288 Z M48.5,62.5 L48.5,70.5 L18.5,70.5 C16.290861,70.5 14.5,72.290861 14.5,74.5 C14.5,76.6421954 16.1839685,78.3910789 18.3003597,78.4951047 L18.5,78.5 L58.5,78.5 C69.4306357,78.5 78.313225,87.2687286 78.4970929,98.1555106 L78.5,98.5 L70.5,98.5 C70.5,91.9745433 65.2914556,86.6656072 58.8049748,86.5037999 L58.5,86.5 L18.5,86.5 C11.872583,86.5 6.5,81.127417 6.5,74.5 C6.5,67.9745433 11.7085444,62.6656072 18.1950252,62.5037999 L18.5,62.5 L48.5,62.5 Z M98.5,46.5 C105.127417,46.5 110.5,51.872583 110.5,58.5 C110.5,65.0254567 105.291456,70.3343928 98.8049748,70.4962001 L98.5,70.5 L82.5,70.5 L82.5,62.5 L98.5,62.5 C100.709139,62.5 102.5,60.709139 102.5,58.5 C102.5,56.3578046 100.816032,54.6089211 98.6996403,54.5048953 L98.5,54.5 L66.5,54.5 L66.5,46.5 L98.5,46.5 Z M18.5,30.5 L18.5,38.5 C16.290861,38.5 14.5,40.290861 14.5,42.5 C14.5,44.6421954 16.1839685,46.3910789 18.3003597,46.4951047 L18.5,46.5 L34.5,46.5 L34.5,54.5 L18.5,54.5 C11.872583,54.5 6.5,49.127417 6.5,42.5 C6.5,35.872583 11.872583,30.5 18.5,30.5 Z M98.5,14.5 C105.127417,14.5 110.5,19.872583 110.5,26.5 C110.5,33.0254567 105.291456,38.3343928 98.8049748,38.4962001 L98.5,38.5 L50.5,38.5 L50.5,30.5 L98.5,30.5 C100.709139,30.5 102.5,28.709139 102.5,26.5 C102.5,24.3578046 100.816032,22.6089211 98.6996403,22.5048953 L98.5,22.5 L35.5,22.5 L35.5,14.5 L98.5,14.5 Z" id="Shape" fill="#000000" fill-rule="nonzero"></path>
  </g>
</svg>
