<?xml version="1.0" encoding="UTF-8"?><svg viewBox="0 0 116 116" version="1.1" xmlns="http://www.w3.org/2000/svg" xmlns:xlink="http://www.w3.org/1999/xlink">
  <title>thermometer</title>
  <g id="thermometer" stroke="none" stroke-width="1" fill="none" fill-rule="evenodd">
    <path d="M58.499902,6.5 C67.231341,6.5 74.3292308,13.4938446 74.4970639,22.1850942 L74.500103,22.4999657 L74.5,68.611 L74.534571,68.6415549 C79.440596,73.0458015 82.375982,79.3098707 82.4961605,86.0679739 L82.5,86.5 C82.5,99.754834 71.754834,110.5 58.5,110.5 C45.245166,110.5 34.5,99.754834 34.5,86.5 C34.5,79.7272913 37.3283334,73.4187753 42.14256,68.9367277 L42.5,68.61 L42.4995096,62.5 L50.5,62.5 L50.5007351,72.4962541 L48.9027031,73.6965062 C44.8985368,76.703961 42.5,81.3989066 42.5,86.5 C42.5,95.336556 49.663444,102.5 58.5,102.5 C67.336556,102.5 74.5,95.336556 74.5,86.5 C74.5,81.5267794 72.2202109,76.9395925 68.3953563,73.9258162 L68.0981016,73.6971106 L66.500532,72.4970494 L66.500103,22.5000343 C66.5000651,18.0817162 62.918298,14.5 58.499902,14.5 C54.1650816,14.5 50.6355166,17.947843 50.5039028,22.2507901 L50.500098,22.4999673 L50.5,26.5 L42.5,26.5 L42.500098,22.5000327 C42.5000258,13.6635095 49.6633959,6.5 58.499902,6.5 Z M62.5,42.5 L62.5,77.332 L62.6940206,77.4193417 C66.0421569,78.9683085 68.3888218,82.314512 68.4961582,86.2200952 L68.5,86.5 C68.5,92.0228475 64.0228475,96.5 58.5,96.5 C53.0707601,96.5 48.6520683,92.1733292 48.5038418,86.7799048 L48.5,86.5 L56.5,86.5 C56.5,87.6045695 57.3954305,88.5 58.5,88.5 C59.6045695,88.5 60.5,87.6045695 60.5,86.5 C60.5,85.4456382 59.6841222,84.5818349 58.6492623,84.5054857 L58.5,84.5 L54.5,84.5 L54.5,42.5 L62.5,42.5 Z M50.5,51.5 L50.5,59.5 L42.5,59.5 L42.5,51.5 L50.5,51.5 Z M50.5,40.5 L50.5,48.5 L42.5,48.5 L42.5,40.5 L50.5,40.5 Z M50.5,29.5 L50.5,37.5 L42.5,37.5 L42.5,29.5 L50.5,29.5 Z" id="Shape" fill="#000000" fill-rule="nonzero"></path>
  </g>
</svg>
