<?xml version="1.0" encoding="UTF-8"?><svg viewBox="0 0 116 116" version="1.1" xmlns="http://www.w3.org/2000/svg" xmlns:xlink="http://www.w3.org/1999/xlink">
  <title>three-dots</title>
  <g id="three-dots" stroke="none" stroke-width="1" fill="none" fill-rule="evenodd">
    <path d="M53.5849587,69.7244952 L53.0899131,69.5808933 L52.5701696,69.4225545 L51.6925415,69.1424385 L49.1558971,68.3096966 C45.2993029,67.0755865 42.3014568,66.5 38.5,66.5 C34.9283538,66.5 32.17836,66.9998992 28.6796233,68.1017148 L25.0118723,69.3092136 C23.7838575,69.6993588 22.7715416,69.9734711 21.7559404,70.1713082 C20.8324321,70.3512058 19.9358826,70.4595323 19.0386458,70.4906439 L18.5,70.5 C11.872583,70.5 6.5,65.127417 6.5,58.5 C6.5,51.872583 11.872583,46.5 18.5,46.5 C25.0254567,46.5 30.3343928,51.7085444 30.4962001,58.1950252 L30.5,58.5 L22.5,58.5 C22.5,56.290861 20.709139,54.5 18.5,54.5 C16.290861,54.5 14.5,56.290861 14.5,58.5 C14.5,60.6421954 16.1839685,62.3910789 18.3003597,62.4951047 L18.5,62.5 C19.0390158,62.5 19.6010082,62.4407129 20.2263081,62.3189057 C20.8112376,62.2049626 21.4472361,62.0383039 22.239926,61.79419 L22.9856666,61.5560669 L25.5708929,60.6975782 C30.1110756,59.2150695 33.7609097,58.5 38.5,58.5 C43.0031994,58.5 46.6334803,59.1537832 50.9128045,60.4759789 L55.6544634,61.9831291 L56.6055593,62.2676304 L57.0227805,62.3786648 L57.224738,62.4251783 L57.5038074,62.4753498 L57.6484601,62.4921699 L57.739842,62.4990336 L57.9529059,62.5050874 L58.5,62.5 C60.709139,62.5 62.5,60.709139 62.5,58.5 C62.5,56.290861 60.709139,54.5 58.5,54.5 C56.3578046,54.5 54.6089211,56.1839685 54.5048953,58.3003597 L54.5,58.5 L46.5,58.5 C46.5,51.872583 51.872583,46.5 58.5,46.5 C65.127417,46.5 70.5,51.872583 70.5,58.5 C70.5,65.0254567 65.2914556,70.3343928 58.8049748,70.4962001 L58.5,70.5 C56.9298952,70.5 55.3946375,70.2354633 53.5849587,69.7244952 Z M98.5,46.5 C105.127417,46.5 110.5,51.872583 110.5,58.5 C110.5,65.0254567 105.291456,70.3343928 98.8049748,70.4962001 L98.5,70.5 L98.5,62.5 C100.709139,62.5 102.5,60.709139 102.5,58.5 C102.5,56.290861 100.709139,54.5 98.5,54.5 C96.3578046,54.5 94.6089211,56.1839685 94.5048953,58.3003597 L94.5,58.5 L86.5,58.5 C86.5,51.872583 91.872583,46.5 98.5,46.5 Z M78.5,58.5 C83.0031994,58.5 86.6334803,59.1537832 90.9128045,60.4759789 L95.6544634,61.9831291 L96.6055593,62.2676304 L97.0227805,62.3786648 L97.224738,62.4251783 L97.5038074,62.4753498 L97.6484601,62.4921699 L97.739842,62.4990336 L97.9529059,62.5050874 L98.5,62.5 L98.5,70.5 C96.9298952,70.5 95.3946375,70.2354633 93.5849587,69.7244952 L93.0899131,69.5808933 L92.5701696,69.4225545 L91.6925415,69.1424385 L89.1558971,68.3096966 C85.2993029,67.0755865 82.3014568,66.5 78.5,66.5 C77.5363307,66.5 76.609123,66.5414807 75.7083462,66.6221067 L75.0375626,66.6898795 L74.1420412,58.74016 C75.5487401,58.5816979 76.9953166,58.5 78.5,58.5 Z" id="Shape" fill="#000000" fill-rule="nonzero"></path>
  </g>
</svg>
