<?xml version="1.0" encoding="UTF-8"?><svg viewBox="0 0 116 116" version="1.1" xmlns="http://www.w3.org/2000/svg" xmlns:xlink="http://www.w3.org/1999/xlink">
  <title>three-dots-vert</title>
  <g id="three-dots-vert" stroke="none" stroke-width="1" fill="none" fill-rule="evenodd">
    <path d="M62.5,58.5 L62.5050874,57.9529059 L62.4990336,57.739842 L62.4921699,57.6484601 L62.4753498,57.5038074 L62.4251783,57.224738 L62.3786648,57.0227805 L62.2676304,56.6055593 L61.9831291,55.6544634 L60.4759789,50.9128045 C59.1537832,46.6334803 58.5,43.0031994 58.5,38.5 C58.5,33.9978642 59.1453503,30.4787821 60.4809511,26.2454901 L60.6975782,25.5708929 L61.5560669,22.9856666 L61.79419,22.239926 C62.0383039,21.4472361 62.2049626,20.8112376 62.3189057,20.2263081 C62.4163515,19.7260682 62.4737844,19.2663451 62.4928597,18.8264893 L62.5,18.5 L62.4951047,18.3003597 C62.3910789,16.1839685 60.6421954,14.5 58.5,14.5 C56.290861,14.5 54.5,16.290861 54.5,18.5 C54.5,20.6421954 56.1839685,22.3910789 58.3003597,22.4951047 L58.5,22.5 L58.5,30.5 L58.1950252,30.4962001 C51.7085444,30.3343928 46.5,25.0254567 46.5,18.5 C46.5,11.872583 51.872583,6.5 58.5,6.5 C65.0254567,6.5 70.3343928,11.7085444 70.4962001,18.1950252 L70.5,18.5 L70.4906439,19.0386458 C70.4595323,19.9358826 70.3512058,20.8324321 70.1713082,21.7559404 C69.9982008,22.6445914 69.7666951,23.5307272 69.4501567,24.5610499 L69.3092136,25.0118723 L68.1017148,28.6796233 C66.9998992,32.17836 66.5,34.9283538 66.5,38.5 C66.5,42.0778417 67.0098621,44.9438345 68.0987315,48.4838976 L68.3096966,49.1558971 L69.1424385,51.6925415 L69.4225545,52.5701696 L69.5808933,53.0899131 L69.7244952,53.5849587 C70.1890116,55.2301213 70.4498658,56.6484895 70.4934548,58.0724212 L70.5,58.5 L70.4962001,58.8049748 C70.3343928,65.2914556 65.0254567,70.5 58.5,70.5 C51.872583,70.5 46.5,65.127417 46.5,58.5 C46.5,51.9745433 51.7085444,46.6656072 58.1950252,46.5037999 L58.5,46.5 L58.5,54.5 L58.3003597,54.5048953 C56.1839685,54.6089211 54.5,56.3578046 54.5,58.5 C54.5,60.709139 56.290861,62.5 58.5,62.5 C60.6421954,62.5 62.3910789,60.8160315 62.4951047,58.6996403 L62.5,58.5 Z M58.5162796,74.3659216 L66.4659992,75.261443 L66.3982264,75.9322265 C66.3176003,76.8330033 66.2761197,77.760211 66.2761197,78.7238803 C66.2761197,82.301722 66.7859817,85.1677148 67.8748511,88.707778 L68.0858162,89.3797774 L68.9185582,91.9164218 L69.1986741,92.79405 L69.4302281,93.5629262 L69.5006148,93.8088391 C69.9651313,95.4540016 70.2259854,96.8723698 70.2695745,98.2963016 L70.272,98.5 L70.5,98.5 L70.4962001,98.8049748 C70.3343928,105.291456 65.0254567,110.5 58.5,110.5 C51.872583,110.5 46.5,105.127417 46.5,98.5 C46.5,91.9745433 51.7085444,86.6656072 58.1950252,86.5037999 L58.5,86.5 L58.5,94.5 L58.3003597,94.5048953 C56.1839685,94.6089211 54.5,96.3578046 54.5,98.5 C54.5,100.709139 56.290861,102.5 58.5,102.5 C60.6340398,102.5 62.3777568,100.828829 62.4938451,98.7237935 L62.2761197,98.7238803 L62.280468,98.1050012 L62.2719453,97.9161847 L62.2497513,97.7156384 L62.2209874,97.5457329 L62.1622817,97.2774675 L62.0488322,96.8474981 L61.7506284,95.8505311 L60.2520985,91.1366849 C58.9299029,86.8573606 58.2761197,83.2270797 58.2761197,78.7238803 C58.2761197,77.4699775 58.3328543,76.2564267 58.4434684,75.0726785 L58.5162796,74.3659216 Z" id="Shape" fill="#000000" fill-rule="nonzero"></path>
  </g>
</svg>
