<?xml version="1.0" encoding="UTF-8"?><svg viewBox="0 0 116 116" version="1.1" xmlns="http://www.w3.org/2000/svg" xmlns:xlink="http://www.w3.org/1999/xlink">
  <title>three-circles-joined</title>
  <g id="three-circles-joined" stroke="none" stroke-width="1" fill="none" fill-rule="evenodd">
    <path d="M31.128158,80.4292518 C33.8831854,93.2167617 45.2458026,102.5 58.5,102.5 C71.5554079,102.5 82.7819496,93.4921306 85.7453726,80.988319 L85.8352824,80.5964431 L93.6453178,82.3294601 C90.0173991,98.6790824 75.4615679,110.5 58.5,110.5 C41.6280375,110.5 27.1447903,98.8050561 23.4172584,82.6064041 L23.3076038,82.1141647 L31.128158,80.4292518 Z M74.5,6.5 C94.382251,6.5 110.5,22.617749 110.5,42.5 C110.5,62.382251 94.382251,78.5 74.5,78.5 C68.8588576,78.5 63.3953126,77.1985101 58.4515519,74.7328166 L58.0585328,74.5308452 C57.3251943,74.1458421 56.6989846,73.5846931 56.2361612,72.8978109 C54.7371902,70.673169 55.2658273,67.6772685 57.3965943,66.0933511 L57.5887501,65.9573136 L58.0120607,65.6693741 C60.8754278,63.6528806 63.2354769,61.4461401 65.1034025,59.0316745 C68.5583743,54.3177085 70.5,48.5705373 70.5,42.5 C70.5,27.036027 57.963973,14.5 42.5,14.5 C27.036027,14.5 14.5,27.036027 14.5,42.5 C14.5,57.963973 27.036027,70.5 42.5,70.5 C44.6770806,70.5 46.8185819,70.2522806 48.8967945,69.7668899 L49.5183319,69.6141526 L51.516827,77.3605077 C48.5935752,78.1146823 45.5704065,78.5 42.5,78.5 C22.617749,78.5 6.5,62.382251 6.5,42.5 C6.5,22.617749 22.617749,6.5 42.5,6.5 C62.1834285,6.5 78.1772686,22.2970058 78.495177,41.9046742 L78.5,42.5 C78.5,50.4222623 76.277205,57.3855713 71.8903239,63.3166757 L71.5572511,63.759572 C70.0780711,65.778752 68.3836718,67.6495894 66.4946282,69.3384984 L66.700403,69.4005386 C69.0273215,70.0738 71.4513528,70.4447238 73.9276415,70.4942779 L74.5,70.5 C89.963973,70.5 102.5,57.963973 102.5,42.5 C102.5,27.036027 89.963973,14.5 74.5,14.5 C73.644316,14.5 72.7938854,14.5382652 71.9502798,14.614276 L71.3188798,14.6783533 L70.4213406,6.72886128 C71.769305,6.57666904 73.130353,6.5 74.5,6.5 Z M46.5151013,19.8522226 L52.7310694,24.8882668 C49.1286765,29.3346851 46.969714,34.7550971 46.5682998,40.5290261 C50.3288656,39.2086336 54.3504087,38.5 58.5,38.5 C59.9949042,38.5 61.4793462,38.5913333 62.947437,38.7724219 L63.6800926,38.8704385 L62.5379094,46.7884823 C61.2096735,46.5968834 59.8615601,46.5 58.5,46.5 C54.5260661,46.5 50.703475,47.335164 47.2264052,48.8644133 C48.0819886,52.5515384 49.6780371,56.0124018 51.9248067,59.067482 L52.2476632,59.4978393 L45.8942902,64.3593875 C43.3474602,61.0310321 41.411406,57.3057555 40.1604436,53.3363858 C37.3532777,55.7689648 35.017416,58.7692411 33.3361287,62.2042188 L33.1474276,62.5974271 L25.9083959,59.1920755 C28.7538869,53.1431848 33.1670246,48.1104869 38.5569522,44.5233836 C38.5188157,43.8527742 38.5,43.177778 38.5,42.5 C38.5,34.328519 41.2357116,26.5659542 46.1749283,20.2786069 L46.5151013,19.8522226 Z M84.0850546,49.1740219 C87.3105744,52.4323536 89.8917997,56.2772933 91.676681,60.5034168 L91.9151236,61.0820498 L84.4921452,64.0652346 C83.1742284,60.7858977 81.2417851,57.786782 78.8096153,55.2250549 L78.3996463,54.8021772 L84.0850546,49.1740219 Z" id="Shape" fill="#000000" fill-rule="nonzero"></path>
  </g>
</svg>
