<?xml version="1.0" encoding="UTF-8"?><svg viewBox="0 0 116 116" version="1.1" xmlns="http://www.w3.org/2000/svg" xmlns:xlink="http://www.w3.org/1999/xlink">
  <title>thumbs-up</title>
  <g id="thumbs-up" stroke="none" stroke-width="1" fill="none" fill-rule="evenodd" transform="translate(0.000000, 0.000000)">
    <path d="M42.5,33.5 L55.8899234,6.72015325 C56.9624477,4.57510468 59.5708058,3.70565195 61.7158544,4.77817624 C62.0938585,4.96717831 62.4422471,5.21035016 62.75,5.5 C65.3682836,7.96426696 66.424748,11.6656545 65.5016876,15.1407056 L61.1705356,31.4462191 C60.0362637,35.7164191 62.5784357,40.0976091 66.8486357,41.231881 C67.5187187,41.4098718 68.209097,41.5 68.9024166,41.5 L92.5,41.5 C95.8137085,41.5 98.5,44.1862915 98.5,47.5 C98.5,50.8137085 95.8137085,53.5 92.5,53.5 L90.5,53.5 L90.5,53.5 C93.8137085,53.5 96.5,56.1862915 96.5,59.5 C96.5,62.8137085 93.8137085,65.5 90.5,65.5 L86.5,65.5 L86.5,65.5 C89.8137085,65.5 92.5,68.1862915 92.5,71.5 C92.5,74.8137085 89.8137085,77.5 86.5,77.5 L81.5,77.5 L81.5,77.5 C84.2614237,77.5 86.5,79.7385763 86.5,82.5 C86.5,85.2614237 84.2614237,87.5 81.5,87.5 L50.5,87.5 C41.663444,87.5 34.5,80.336556 34.5,71.5 L34.5,47.5 C34.5,44.1862915 31.8137085,41.5 28.5,41.5 C25.1862915,41.5 22.5,44.1862915 22.5,47.5 L22.5,81.5 L22.5,81.5" id="Path-227" stroke="#000000" stroke-width="8"></path>
  </g>
</svg>
