<?xml version="1.0" encoding="UTF-8"?><svg viewBox="0 0 116 116" version="1.1" xmlns="http://www.w3.org/2000/svg" xmlns:xlink="http://www.w3.org/1999/xlink">
  <title>thumbs-up</title>
  <g id="thumbs-up" stroke="none" stroke-width="1" fill="none" fill-rule="evenodd" transform="translate(0.000000, 0.000000)">
    <path d="M52.3122146,4.93129887 C54.3726959,0.810336306 59.3837462,-0.860013804 63.5047088,1.20046748 C64.2309119,1.56356902 64.9002189,2.03073891 65.4914588,2.58720003 C69.0958846,5.97960075 70.5991173,11.0363612 69.4519688,15.8333669 L69.3676281,16.1675961 L65.0364761,32.4731096 C64.4693401,34.6082095 65.7404261,36.7988046 67.8755261,37.3659405 C68.1268073,37.4326871 68.3837964,37.4747223 68.642833,37.4915682 L68.9024166,37.5 L92.5,37.5 C98.0228475,37.5 102.5,41.9771525 102.5,47.5 C102.5,50.3082275 101.342448,52.8460944 99.4784591,54.6624866 L99.33,54.802 L99.3472849,54.8346206 C100.042393,56.150077 100.452713,57.6392639 100.496158,59.2200952 L100.5,59.5 C100.5,62.9634806 98.7392353,66.0157126 96.0640127,67.8103894 L95.85,67.95 L95.8846199,68.0383147 C96.2520208,69.033997 96.4654907,70.1042143 96.4961582,71.2200952 L96.5,71.5 C96.5,75.6187337 94.0099778,79.1558916 90.4531816,80.6882255 L90.327,80.74 L90.3650296,80.9385288 C90.438958,81.3611574 90.4834019,81.7939265 90.4961629,82.2346377 L90.5,82.5 C90.5,87.3818027 86.6131863,91.3557914 81.7653623,91.4961629 L81.5,91.5 L50.5,91.5 C39.5693643,91.5 30.686775,82.7312714 30.5029071,71.8444894 L30.5,71.5 L30.5,47.5 C30.5,46.3954305 29.6045695,45.5 28.5,45.5 C27.4456382,45.5 26.5818349,46.3158778 26.5054857,47.3507377 L26.5,47.5 L26.5,81.5 L18.5,81.5 L18.5,47.5 C18.5,41.9771525 22.9771525,37.5 28.5,37.5 C33.9292399,37.5 38.3479317,41.8266708 38.4961582,47.2200952 L38.5,47.5 L38.5,71.5 C38.5,78.0254567 43.7085444,83.3343928 50.1950252,83.4962001 L50.5,83.5 L81.5,83.5 C82.0522847,83.5 82.5,83.0522847 82.5,82.5 C82.5,81.9871642 82.1139598,81.5644928 81.6166211,81.5067277 L81.5,81.5 L81.5,73.5 L86.5,73.5 C87.6045695,73.5 88.5,72.6045695 88.5,71.5 C88.5,70.4456382 87.6841222,69.5818349 86.6492623,69.5054857 L86.5,69.5 L86.5,61.5 L90.5,61.5 C91.6045695,61.5 92.5,60.6045695 92.5,59.5 C92.5,58.4456382 91.6841222,57.5818349 90.6492623,57.5054857 L90.5,57.5 L90.5,49.5 L92.5,49.5 C93.6045695,49.5 94.5,48.6045695 94.5,47.5 C94.5,46.4456382 93.6841222,45.5818349 92.6492623,45.5054857 L92.5,45.5 L68.9024166,45.5 C67.8624372,45.5 66.8268698,45.3648077 65.8217452,45.0978215 C59.5149883,43.4225892 55.7211318,37.0256846 57.2299736,30.7150578 L57.304595,30.4193287 L61.6357471,14.1138152 C62.1815973,12.0588495 61.5568589,9.87004013 60.0085412,8.41279997 C59.9842752,8.38996142 59.9568052,8.3707876 59.927,8.35588501 C59.7790073,8.28188862 59.6030451,8.32512676 59.5047135,8.45039944 L59.4676321,8.50900764 L46.0777088,35.2888544 L38.9222912,31.7111456 L52.3122146,4.93129887 Z" id="Path" fill="#000000" fill-rule="nonzero"></path>
  </g>
</svg>
