<?xml version="1.0" encoding="UTF-8"?><svg viewBox="0 0 116 116" version="1.1" xmlns="http://www.w3.org/2000/svg" xmlns:xlink="http://www.w3.org/1999/xlink">
  <title>thumbs-down</title>
  <g id="thumbs-down" stroke="none" stroke-width="1" fill="none" fill-rule="evenodd">
    <path d="M52.3122146,110.886611 C54.3726959,115.007574 59.3837462,116.677924 63.5047088,114.617443 C64.2309119,114.254341 64.9002189,113.787171 65.4914588,113.23071 C69.0958846,109.838309 70.5991173,104.781549 69.4519688,99.9845433 L69.3676281,99.6503141 L65.0364761,83.3448006 C64.4693401,81.2097007 65.7404261,79.0191056 67.8755261,78.4519697 C68.1268073,78.3852231 68.3837964,78.343188 68.642833,78.326342 L68.9024166,78.3179102 L92.5,78.3179102 C98.0228475,78.3179102 102.5,73.8407577 102.5,68.3179102 C102.5,65.5096827 101.342448,62.9718158 99.4784591,61.1554236 L99.33,61.0159102 L99.3472849,60.9832896 C100.042393,59.6678332 100.452713,58.1786463 100.496158,56.597815 L100.5,56.3179102 C100.5,52.8544296 98.7392353,49.8021976 96.0640127,48.0075208 L95.85,47.8679102 L95.8846199,47.7795955 C96.2520208,46.7839132 96.4654907,45.7136959 96.4961582,44.597815 L96.5,44.3179102 C96.5,40.1991765 94.0099778,36.6620186 90.4531816,35.1296847 L90.327,35.0779102 L90.3650296,34.8793814 C90.438958,34.4567528 90.4834019,34.0239837 90.4961629,33.5832725 L90.5,33.3179102 C90.5,28.4361075 86.6131863,24.4621188 81.7653623,24.3217473 L81.5,24.3179102 L50.5,24.3179102 C39.5693643,24.3179102 30.686775,33.0866388 30.5029071,43.9734208 L30.5,44.3179102 L30.5,68.3179102 C30.5,69.4224797 29.6045695,70.3179102 28.5,70.3179102 C27.4456382,70.3179102 26.5818349,69.5020324 26.5054857,68.4671725 L26.5,68.3179102 L26.5,34.3179102 L18.5,34.3179102 L18.5,68.3179102 C18.5,73.8407577 22.9771525,78.3179102 28.5,78.3179102 C33.9292399,78.3179102 38.3479317,73.9912394 38.4961582,68.597815 L38.5,68.3179102 L38.5,44.3179102 C38.5,37.7924535 43.7085444,32.4835174 50.1950252,32.3217101 L50.5,32.3179102 L81.5,32.3179102 C82.0522847,32.3179102 82.5,32.7656255 82.5,33.3179102 C82.5,33.830746 82.1139598,34.2534174 81.6166211,34.3111825 L81.5,34.3179102 L81.5,42.3179102 L86.5,42.3179102 C87.6045695,42.3179102 88.5,43.2133407 88.5,44.3179102 C88.5,45.372272 87.6841222,46.2360753 86.6492623,46.3124245 L86.5,46.3179102 L86.5,54.3179102 L90.5,54.3179102 C91.6045695,54.3179102 92.5,55.2133407 92.5,56.3179102 C92.5,57.372272 91.6841222,58.2360753 90.6492623,58.3124245 L90.5,58.3179102 L90.5,66.3179102 L92.5,66.3179102 C93.6045695,66.3179102 94.5,67.2133407 94.5,68.3179102 C94.5,69.372272 93.6841222,70.2360753 92.6492623,70.3124245 L92.5,70.3179102 L68.9024166,70.3179102 C67.8624372,70.3179102 66.8268698,70.4531025 65.8217452,70.7200887 C59.5149883,72.395321 55.7211318,78.7922256 57.2299736,85.1028524 L57.304595,85.3985815 L61.6357471,101.704095 C62.1815973,103.759061 61.5568589,105.94787 60.0085412,107.40511 C59.9842752,107.427949 59.9568052,107.447123 59.927,107.462025 C59.7790073,107.536022 59.6030451,107.492783 59.5047135,107.367511 L59.4676321,107.308903 L46.0777088,80.5290558 L38.9222912,84.1067646 L52.3122146,110.886611 Z" id="Path" fill="#000000" fill-rule="nonzero"></path>
  </g>
</svg>
