<?xml version="1.0" encoding="UTF-8"?><svg viewBox="0 0 116 116" version="1.1" xmlns="http://www.w3.org/2000/svg" xmlns:xlink="http://www.w3.org/1999/xlink">
  <title>train</title>
  <g id="train" stroke="none" stroke-width="1" fill="none" fill-rule="evenodd">
    <path d="M72.2860871,6.5 C74.7269401,6.5 77.1094809,7.24545391 79.1158592,8.63568716 C89.4003963,15.7630276 94.3885748,29.6038414 94.4981535,49.8162695 L94.5,50.5 L94.5,74.5 C94.5,81.0254567 89.2914556,86.3343928 82.8049748,86.4962001 L82.5,86.5 L44.156,86.5 L40.156,90.5 L83.999,90.5 L87.2961677,88.2338847 L98.2961677,104.233885 L91.7359021,108.812069 L84.431,98.5 L32.156,98.5 L21.3284271,109.328427 L15.6715729,103.671573 L32.943,86.399 L32.7000302,86.3659041 C27.0243562,85.5121661 22.6504378,80.683348 22.5037999,74.8049748 L22.5,74.5 L22.5,66.5 L30.5,66.5 L30.5,74.5 C30.5,76.6421954 32.1839685,78.3910789 34.3003597,78.4951047 L34.5,78.5 L82.5,78.5 C84.6421954,78.5 86.3910789,76.8160315 86.4951047,74.6996403 L86.5,74.5 L86.5,50.5 L86.4982472,49.8518422 L86.4842378,48.5723022 L86.4562527,47.3151056 C86.4038107,45.4460541 86.3043184,43.6523153 86.1583077,41.9334546 L86.0540813,40.7986357 L85.9361068,39.6859744 L85.8044189,38.5954419 C84.3267357,27.0810143 80.5146303,19.3383647 74.5592758,15.2112136 C73.9580284,14.7946051 73.2550558,14.5519621 72.5282141,14.5074617 L72.2851562,14.5 L44.6140068,14.5 C43.830432,14.5001421 43.0641396,14.7304247 42.4113807,15.1615244 C36.5306947,19.0481134 32.7349852,26.6558798 31.2319132,38.1443946 L31.0996858,39.2158997 C30.9111303,40.8397048 30.7666507,42.5380042 30.6667985,44.3112214 L30.6068478,45.5044698 L30.5818424,46.1094269 L30.5818424,46.1094269 L30.5417941,47.3360244 L30.5267604,47.9576718 L30.5267604,47.9576718 L30.5066961,49.2176812 L30.5016748,49.8560502 L30.5016748,49.8560502 L30.5,54.5 L44.5,54.5 C49.9292399,54.5 54.3479317,58.8266708 54.4961582,64.2200952 L54.5,64.5 C54.5,70.0228475 50.0228475,74.5 44.5,74.5 C39.0707601,74.5 34.6520683,70.1733292 34.5038418,64.7799048 L34.5,64.5 L34.5,63.5 L42.5,63.5 L42.5,64.5 C42.5,65.6045695 43.3954305,66.5 44.5,66.5 C45.6045695,66.5 46.5,65.6045695 46.5,64.5 C46.5,63.4456382 45.6841222,62.5818349 44.6492623,62.5054857 L44.5,62.5 L22.5,62.5 L22.5017751,49.8192774 L22.5159873,48.4723522 C22.8323462,28.6366332 27.8487179,15.1967735 38.0015403,8.48669814 C39.8476837,7.26745427 41.9925882,6.58379212 44.1989301,6.50722457 L44.6132812,6.5 L72.2860871,6.5 Z M72.5,54.5 L72.5,62.5 C71.3954305,62.5 70.5,63.3954305 70.5,64.5 C70.5,65.6045695 71.3954305,66.5 72.5,66.5 C73.5543618,66.5 74.4181651,65.6841222 74.4945143,64.6492623 L74.5,64.5 L74.5,63.5 L82.5,63.5 L82.5,64.5 C82.5,70.0228475 78.0228475,74.5 72.5,74.5 C66.9771525,74.5 62.5,70.0228475 62.5,64.5 C62.5,59.0707601 66.8266708,54.6520683 72.2200952,54.5038418 L72.5,54.5 Z M70.5,18.5 L70.5,26.5 L46.5,26.5 L46.5,18.5 L70.5,18.5 Z" id="Shape" fill="#000000" fill-rule="nonzero"></path>
  </g>
</svg>
