<?xml version="1.0" encoding="UTF-8"?><svg viewBox="0 0 116 116" version="1.1" xmlns="http://www.w3.org/2000/svg" xmlns:xlink="http://www.w3.org/1999/xlink">
  <title>train-side-view</title>
  <g id="train-side-view" stroke="none" stroke-width="1" fill="none" fill-rule="evenodd">
    <path d="M50.2388357,22.5 C56.1315795,22.5 61.9310372,23.9464867 67.1294442,26.708375 L67.6650455,26.9987745 L107.436246,48.9998638 C113.124023,52.146294 116.654219,58.1335208 116.654219,64.6335851 C116.654219,74.3900645 108.833897,82.3200098 99.119695,82.4969791 L98.787804,82.5 L4.5,82.5 L4.5,74.5 L98.787804,74.5 C104.236874,74.5 108.654219,70.0826556 108.654219,64.6335851 C108.654219,61.1496133 106.817719,57.9324328 103.837788,56.1574889 L103.563754,56.0001362 L63.7925545,33.9990468 C59.8033347,31.7922444 55.3381039,30.5942273 50.7855379,30.5053367 L50.2388357,30.5 L4.5,30.5 L4.5,22.5 L50.2388357,22.5 Z M46.5930862,34.5 C52.2267635,34.5 57.7788203,35.8221482 62.8038165,38.3563802 L63.3599578,38.642944 L83.6189519,49.3055724 C85.9188145,50.5160265 87.3587268,52.9010449 87.3587268,55.5 C87.3587268,59.2854517 84.3539435,62.3690987 80.5993766,62.495941 L80.3587268,62.5 L34.5,62.5 L34.5,54.5 L76.312,54.5 L59.6339863,45.7222898 C55.7804319,43.6941032 51.5093132,42.5939144 47.1607072,42.5057531 L46.5930862,42.5 L38.5,42.5 L38.5,50.5 L30.5,50.5 L30.5,41.5 C30.5,37.7145483 33.5047834,34.6309013 37.2593502,34.504059 L37.5,34.5 L46.5930862,34.5 Z M15.5,34.5 C19.2854517,34.5 22.3690987,37.5047834 22.495941,41.2593502 L22.5,41.5 L22.5,55.5 C22.5,59.2854517 19.4952166,62.3690987 15.7406498,62.495941 L15.5,62.5 L4.5,62.5 L4.5,54.5 L14.5,54.5 L14.5,42.5 L4.5,42.5 L4.5,34.5 L15.5,34.5 Z M112.5,86.5 L112.5,94.5 L4.5,94.5 L4.5,86.5 L112.5,86.5 Z" id="Shape" fill="#000000" fill-rule="nonzero"></path>
  </g>
</svg>
