<?xml version="1.0" encoding="UTF-8"?><svg viewBox="0 0 116 116" version="1.1" xmlns="http://www.w3.org/2000/svg" xmlns:xlink="http://www.w3.org/1999/xlink">
  <title>trash-can</title>
  <g id="trash-can" stroke="none" stroke-width="1" fill="none" fill-rule="evenodd">
    <path d="M29.9938414,33.7781199 L33.5740503,98.2218801 C33.6880109,100.27317 35.3335524,101.892523 37.3636433,101.994863 L37.5678917,102 L78.425546,102 C80.4812928,102 82.1900487,100.444925 82.4032822,98.4222133 L82.419578,98.2184236 L85.275273,46 L78,46 L78,86 C78,90.3349143 74.5521622,93.8645429 70.2491793,93.9961932 L70,94 L62,94 C57.6650857,94 54.1354571,90.5521622 54.0038068,86.2491793 L54,86 L54,46 L46,46 L46,90 L38,90 L38,46 C38,41.6650857 41.4478378,38.1354571 45.7508207,38.0038068 L46,38 L54,38 C58.3349143,38 61.8645429,41.4478378 61.9961932,45.7508207 L62,46 L62,86 L70,86 L70,46 C70,41.6650857 73.4478378,38.1354571 77.7508207,38.0038068 L78,38 L85.275273,38 C85.4209703,38 85.5666404,38.0039802 85.7121203,38.0119361 C90.0405668,38.248648 93.3766568,41.8840801 93.2731424,46.1878318 L93.2633369,46.4368472 L90.4076419,98.6552709 C90.0651722,104.917573 84.9641481,109.841511 78.7281581,109.996249 L78.425546,110 L37.5678917,110 C31.3001794,110 26.1068911,105.181333 25.6068834,98.9673895 L25.5863675,98.6656402 L22.0061586,34.2218801 L29.9938414,33.7781199 Z M70,6 C74.3349143,6 77.8645429,9.44783777 77.9961932,13.7508207 L78,14 L94,14 C98.3349143,14 101.864543,17.4478378 101.996193,21.7508207 L102,22 L102,25 C102,27.6887547 99.8776933,29.8818181 97.2168896,29.9953805 L97,30 L18,30 L18,22 L76,22 C72.7616031,22 70.1224282,19.4344251 70.0041385,16.2249383 L70,16 L70,14 L46,14 L46,18 L38,18 L38,14 C38,9.66508574 41.4478378,6.13545713 45.7508207,6.00380682 L46,6 L70,6 Z" id="Shape" fill="#000000" fill-rule="nonzero"></path>
  </g>
</svg>
