<?xml version="1.0" encoding="UTF-8"?><svg viewBox="0 0 116 116" version="1.1" xmlns="http://www.w3.org/2000/svg" xmlns:xlink="http://www.w3.org/1999/xlink">
  <title>triangular-ruler</title>
  <g id="triangular-ruler" stroke="none" stroke-width="1" fill="none" fill-rule="evenodd" transform="translate(0.000000, 0.000000)">
    <path d="M8.25735931,11.0857864 C10.5404244,8.80272135 14.2056321,8.74418122 16.5595763,10.910166 L16.7426407,11.0857864 L105.914214,100.257359 C107.039432,101.382578 107.671573,102.908701 107.671573,104.5 C107.671573,107.738397 105.105998,110.377572 101.896511,110.495862 L101.671573,110.5 L18.5,110.5 C11.9745433,110.5 6.66560725,105.291456 6.50379986,98.8049748 L6.5,98.5 L6.5,39.3284271 C6.5,37.7371282 7.13214104,36.2110047 8.25735931,35.0857864 C10.5404244,32.8027213 14.2056321,32.7441812 16.5595763,34.910166 L16.7426407,35.0857864 L65.9142136,84.2573593 C67.0394318,85.3825776 67.6715729,86.9087011 67.6715729,88.5 C67.6715729,91.7383969 65.105998,94.3775718 61.8965111,94.4958615 L61.6715729,94.5 L34.5,94.5 C27.9745433,94.5 22.6656072,89.2914556 22.5037999,82.8049748 L22.5,82.5 L22.5,66.5 L30.5,66.5 L30.5,82.5 C30.5,84.6421954 32.1839685,86.3910789 34.3003597,86.4951047 L34.5,86.5 L56.843,86.5 L14.5,44.157 L14.5,98.5 C14.5,100.642195 16.1839685,102.391079 18.3003597,102.495105 L18.5,102.5 L96.843,102.5 L90.5,96.157 L88.3284271,98.3284271 L82.6715729,92.6715729 L84.843,90.5 L74.5,80.157 L72.3284271,82.3284271 L66.6715729,76.6715729 L68.843,74.5 L58.5,64.157 L56.3284271,66.3284271 L50.6715729,60.6715729 L52.843,58.5 L42.5,48.157 L40.3284271,50.3284271 L34.6715729,44.6715729 L36.843,42.5 L26.5,32.157 L24.3284271,34.3284271 L18.6715729,28.6715729 L20.843,26.5 L14.5,20.157 L14.5,26.5 L6.5,26.5 L6.5,15.3284271 C6.5,13.7371282 7.13214104,12.2110047 8.25735931,11.0857864 Z" id="Path" fill="#000000" fill-rule="nonzero"></path>
  </g>
</svg>
