<?xml version="1.0" encoding="UTF-8"?><svg viewBox="0 0 116 116" version="1.1" xmlns="http://www.w3.org/2000/svg" xmlns:xlink="http://www.w3.org/1999/xlink">
  <title>truck-side-view</title>
  <g id="truck-side-view" stroke="none" stroke-width="1" fill="none" fill-rule="evenodd">
    <path d="M30.5,62.5 C37.8637967,62.5 44.06571,67.4746139 45.9284645,74.2465662 L45.995,74.5 L78.5,74.5 L78.5,78.5 C78.5,82.918278 82.081722,86.5 86.5,86.5 C90.918278,86.5 94.5,82.918278 94.5,78.5 C94.5,74.1650857 91.0521622,70.6354571 86.7491793,70.5038068 L86.5,70.5 L86.5,62.5 C93.8637967,62.5 100.06571,67.4746139 101.928465,74.2465662 L101.995,74.5 L108.5,74.5 L108.5,58.5 C108.5,56.3578046 106.816032,54.6089211 104.69964,54.5048953 L104.5,54.5 L96.027864,54.5 L89.1334369,40.7111456 C88.4881339,39.4205398 87.2011218,38.5826565 85.7712223,38.5057847 L85.5557281,38.5 L82.5,38.5 L82.5,30.5 L85.5557281,30.5 C89.995289,30.5 94.0626761,32.9499742 96.1436159,36.8522467 L96.2888544,37.1334369 L100.971,46.5 L104.5,46.5 C111.025457,46.5 116.334393,51.7085444 116.4962,58.1950252 L116.5,58.5 L116.5,75.5 C116.5,79.2854517 113.495217,82.3690987 109.74065,82.495941 L109.5,82.5 L101.995,82.5 L101.928465,82.7534338 C100.092321,89.4286439 94.0401086,94.3575014 86.8148707,94.4969636 L86.5,94.5 C79.1362033,94.5 72.93429,89.5253861 71.0715355,82.7534338 L71.004,82.5 L45.995,82.5 L45.9284645,82.7534338 C44.0923208,89.4286439 38.0401086,94.3575014 30.8148707,94.4969636 L30.5,94.5 C23.1362033,94.5 16.93429,89.5253861 15.0715355,82.7534338 L15.004,82.5 L7.5,82.5 C3.71454828,82.5 0.630901317,79.4952166 0.504059018,75.7406498 L0.5,75.5 L0.5,29.5 C0.5,25.7145483 3.50478338,22.6309013 7.25935025,22.504059 L7.5,22.5 L71.5,22.5 C75.2854517,22.5 78.3690987,25.5047834 78.495941,29.2593502 L78.5,29.5 L78.5,46.5 L90.5,46.5 L90.5,54.5 L78.5,54.5 L78.5,58.5 L70.5,58.5 L70.5,30.5 L8.5,30.5 L8.5,74.5 L22.5,74.5 L22.5,78.5 C22.5,82.918278 26.081722,86.5 30.5,86.5 C34.918278,86.5 38.5,82.918278 38.5,78.5 C38.5,74.1650857 35.0521622,70.6354571 30.7491793,70.5038068 L30.5,70.5 L30.5,62.5 Z" id="Path-349" fill="#000000" fill-rule="nonzero"></path>
  </g>
</svg>
