<?xml version="1.0" encoding="UTF-8"?><svg viewBox="0 0 116 116" version="1.1" xmlns="http://www.w3.org/2000/svg" xmlns:xlink="http://www.w3.org/1999/xlink">
  <title>truck</title>
  <g id="truck" stroke="none" stroke-width="1" fill="none" fill-rule="evenodd">
    <path d="M98.5,6.5 C105.025457,6.5 110.334393,11.7085444 110.4962,18.1950252 L110.5,18.5 L110.5,87.5 C110.5,91.2854517 107.495217,94.3690987 103.74065,94.495941 L103.5,94.5 L102.5,94.5 L102.5,100.5 C102.5,105.92924 98.1733292,110.347932 92.7799048,110.496158 L92.5,110.5 L88.5,110.5 C83.0707601,110.5 78.6520683,106.173329 78.5038418,100.779905 L78.5,100.5 L78.5,94.5 L38.5,94.5 L38.5,100.5 C38.5,105.92924 34.1733292,110.347932 28.7799048,110.496158 L28.5,110.5 L24.5,110.5 C19.0707601,110.5 14.6520683,106.173329 14.5038418,100.779905 L14.5,100.5 L14.5,94.5 C10.1650857,94.5 6.63545713,91.0521622 6.50380682,86.7491793 L6.5,86.5 L6.5,58.5 C6.5,51.9745433 11.7085444,46.6656072 18.1950252,46.5037999 L18.5,46.5 L22.5,46.5 L22.5,34.5 C22.5,27.9745433 27.7085444,22.6656072 34.1950252,22.5037999 L34.5,22.5 L82.5,22.5 C89.0254567,22.5 94.3343928,27.7085444 94.4962001,34.1950252 L94.5,34.5 L94.5,54.5 L38.5,54.5 L38.5,46.5 L86.5,46.5 L86.5,34.5 C86.5,32.3578046 84.8160315,30.6089211 82.6996403,30.5048953 L82.5,30.5 L34.5,30.5 C32.3578046,30.5 30.6089211,32.1839685 30.5048953,34.3003597 L30.5,34.5 L30.5,54.5 L18.5,54.5 C16.3578046,54.5 14.6089211,56.1839685 14.5048953,58.3003597 L14.5,58.5 L14.5,86.5 L22.5,86.5 L22.5,100.5 C22.5,101.554362 23.3158778,102.418165 24.3507377,102.494514 L24.5,102.5 L28.5,102.5 C29.5543618,102.5 30.4181651,101.684122 30.4945143,100.649262 L30.5,100.5 L30.5,86.5 L90.5,86.5 L90.5,94.5 L86.5,94.5 L86.5,100.5 C86.5,101.554362 87.3158778,102.418165 88.3507377,102.494514 L88.5,102.5 L92.5,102.5 C93.5543618,102.5 94.4181651,101.684122 94.4945143,100.649262 L94.5,100.5 L94.5,86.5 L102.5,86.5 L102.5,18.5 C102.5,16.3578046 100.816032,14.6089211 98.6996403,14.5048953 L98.5,14.5 L18.5,14.5 C16.3578046,14.5 14.6089211,16.1839685 14.5048953,18.3003597 L14.5,18.5 L14.5,42.5 L6.5,42.5 L6.5,18.5 C6.5,11.9745433 11.7085444,6.66560725 18.1950252,6.50379986 L18.5,6.5 L98.5,6.5 Z M30.5,58.5 L30.5,66.5 C28.290861,66.5 26.5,68.290861 26.5,70.5 C26.5,72.709139 28.290861,74.5 30.5,74.5 C32.6421954,74.5 34.3910789,72.8160315 34.4951047,70.6996403 L34.5,70.5 L42.5,70.5 C42.5,77.127417 37.127417,82.5 30.5,82.5 C23.872583,82.5 18.5,77.127417 18.5,70.5 C18.5,63.9745433 23.7085444,58.6656072 30.1950252,58.5037999 L30.5,58.5 Z M86.5,58.5 L86.5,66.5 C84.290861,66.5 82.5,68.290861 82.5,70.5 C82.5,72.709139 84.290861,74.5 86.5,74.5 C88.6421954,74.5 90.3910789,72.8160315 90.4951047,70.6996403 L90.5,70.5 L98.5,70.5 C98.5,77.127417 93.127417,82.5 86.5,82.5 C79.872583,82.5 74.5,77.127417 74.5,70.5 C74.5,63.9745433 79.7085444,58.6656072 86.1950252,58.5037999 L86.5,58.5 Z" id="Shape" fill="#000000" fill-rule="nonzero"></path>
  </g>
</svg>
