<?xml version="1.0" encoding="UTF-8"?><svg viewBox="0 0 116 116" version="1.1" xmlns="http://www.w3.org/2000/svg" xmlns:xlink="http://www.w3.org/1999/xlink">
  <title>two-circles-joined</title>
  <g id="two-circles-joined" stroke="none" stroke-width="1" fill="none" fill-rule="evenodd">
    <path d="M74.5,17.5 C96.59139,17.5 114.5,35.40861 114.5,57.5 C114.5,79.59139 96.59139,97.5 74.5,97.5 C52.40861,97.5 34.5,79.59139 34.5,57.5 C34.5,50.1942939 36.4653545,43.1686525 40.1270988,37.0317844 L40.4545895,36.492618 L47.2592242,40.6993919 C44.1632254,45.7073009 42.5,51.4762617 42.5,57.5 C42.5,69.6980705 49.3250853,80.3020568 59.3647926,85.7014959 C68.66435,79.9295953 74.5,69.7325545 74.5,58.5 C74.5,40.826888 60.173112,26.5 42.5,26.5 C24.826888,26.5 10.5,40.826888 10.5,58.5 C10.5,75.9963809 24.5417829,90.2131276 41.9708215,90.4957129 L42.5,90.5 L42.5,98.5 C20.40861,98.5 2.5,80.59139 2.5,58.5 C2.5,36.40861 20.40861,18.5 42.5,18.5 C64.59139,18.5 82.5,36.40861 82.5,58.5 C82.5,70.4518696 77.2104193,81.469766 68.467081,88.9313157 C70.4202131,89.3048397 72.4373155,89.5 74.5,89.5 C92.173112,89.5 106.5,75.173112 106.5,57.5 C106.5,40.0036191 92.4582171,25.7868724 75.0291785,25.5042871 L74.5,25.5 L74.5,17.5 Z" id="Path" fill="#000000" fill-rule="nonzero"></path>
  </g>
</svg>
