<?xml version="1.0" encoding="UTF-8"?><svg viewBox="0 0 116 116" version="1.1" xmlns="http://www.w3.org/2000/svg" xmlns:xlink="http://www.w3.org/1999/xlink">
  <title>umbrella</title>
  <g id="umbrella" stroke="none" stroke-width="1" fill="none" fill-rule="evenodd">
    <path d="M62.5,10.5 L62.5005635,14.6517742 C88.8545557,16.658928 109.785694,38.3303433 110.482151,65.1251438 C110.510932,66.2324693 110.137022,67.3126375 109.42981,68.165192 C107.865351,70.0511709 105.105522,70.3610441 103.166472,68.9070103 L102.819879,68.6280762 C98.543878,65.1577051 94.4588113,63.5 90.5,63.5 C86.7156579,63.5 82.8168885,65.0144813 78.7449763,68.1793466 L78.0963836,68.697784 L78.0963836,68.697784 C77.27279,69.3781225 76.2398173,69.7537046 75.1715896,69.7612197 C72.6069809,69.7792622 70.5133285,67.7148624 70.495286,65.1502537 C70.4188081,54.2794637 68.1661001,44.1507147 63.7350943,34.7235968 L63.3807525,33.9808076 L70.5814249,30.4950771 C74.8044278,39.2187752 77.3382505,48.4922597 78.1816876,58.2919732 L78.232,58.919 L78.3363673,58.8603007 C82.1625452,56.7229385 86.0652878,55.5891013 90.0246109,55.5050449 L90.5,55.5 C94.1892559,55.5 97.8297249,56.4108239 101.405871,58.1952495 L101.751,58.371 L101.747311,58.3492487 C98.0406704,38.5448433 81.075073,23.4574798 60.4810028,22.5438567 C53.0953902,32.7520541 48.6459535,43.8681719 47.110247,55.9481122 L46.993,56.924 L47.0030287,56.9204233 C50.4120581,55.4002133 54.4182252,54.5573249 58.1183565,54.5028214 L58.5,54.5 L62.5,54.5 L62.5,94.5 C62.5,103.336556 55.336556,110.5 46.5,110.5 C37.7686411,110.5 30.6707953,103.506099 30.5030364,94.8148707 L30.5,94.5 L30.5,90.5 L38.5,90.5 L38.5,94.5 C38.5,98.918278 42.081722,102.5 46.5,102.5 C50.8349143,102.5 54.3645429,99.0521622 54.4961932,94.7491793 L54.5,94.5 L54.5,62.945 C50.9581834,63.6853929 47.6142893,65.223898 46.7662731,66.7015997 L46.697984,66.8318055 L46.6153729,66.9972758 L46.5458434,67.1272636 L46.4734059,67.2450467 L46.3820705,67.3739028 L45.9661215,67.8972476 L45.6816231,68.1576613 C45.4256709,68.3872472 45.2411853,68.5307231 45.0006198,68.6454454 L44.924,68.679 L44.7551641,68.8190577 C43.0793025,70.1266523 40.6803348,70.0989139 39.0316163,68.6933849 L38.8579059,68.5375184 C34.5127548,64.4357809 30.411439,62.5 26.5,62.5 C25.7144577,62.5 24.9266542,62.5771449 24.1332524,62.7326612 L23.6565128,62.8353854 L21.8272324,55.0473347 C23.3777211,54.6831513 24.9372325,54.5 26.5,54.5 C30.4931323,54.5 34.4064165,55.6845142 38.2251381,57.9907732 L38.783,58.336 L38.7887451,58.2692138 C39.8249547,45.7059792 43.6858841,34.0183794 50.3529213,23.2529267 C30.1752627,27.0304102 14.8494906,44.5803861 14.5058947,65.7723795 L14.5,66.5 L6.5,66.5 C6.5,39.1270685 27.6502285,16.6940375 54.5000369,14.6515557 L54.5,10.5 L62.5,10.5 Z" id="Path" fill="#000000" fill-rule="nonzero"></path>
  </g>
</svg>
