<?xml version="1.0" encoding="UTF-8"?><svg viewBox="0 0 116 116" version="1.1" xmlns="http://www.w3.org/2000/svg" xmlns:xlink="http://www.w3.org/1999/xlink">
  <title>underline</title>
  <g id="underline" stroke="none" stroke-width="1" fill="none" fill-rule="evenodd">
    <path d="M42.5,14.5 L42.5,22.5 L34.5,22.5 L34.5,62.5 C34.5,75.6222857 45.0313372,86.2848457 58.1031161,86.4967847 L58.5,86.5 C71.6222857,86.5 82.2848457,75.9686628 82.4967847,62.8968839 L82.5,62.5 L82.5,22.5 L74.5,22.5 L74.5,14.5 L98.5,14.5 L98.5,22.5 L90.5,22.5 L90.5,62.5 C90.5,79.9963809 76.4582171,94.2131276 59.0291785,94.4957129 L58.5,94.5 C41.0036191,94.5 26.7868724,80.4582171 26.5042871,63.0291785 L26.5,62.5 L26.5,22.5 L18.5,22.5 L18.5,14.5 L42.5,14.5 Z M90.5,102.5 L90.5,110.5 L26.5,110.5 L26.5,102.5 L90.5,102.5 Z" id="Shape" fill="#000000" fill-rule="nonzero"></path>
  </g>
</svg>
