<?xml version="1.0" encoding="UTF-8"?><svg viewBox="0 0 116 116" version="1.1" xmlns="http://www.w3.org/2000/svg" xmlns:xlink="http://www.w3.org/1999/xlink">
  <title>underline-off</title>
  <g id="underline-off" stroke="none" stroke-width="1" fill="none" fill-rule="evenodd">
    <path d="M90.5,102.5 L90.5,110.5 L26.5,110.5 L26.5,102.5 L90.5,102.5 Z M13.3284271,7.67157288 L109.328427,103.671573 L103.671573,109.328427 L34.4995729,40.1555729 L34.5,62.5 C34.5,75.6222857 45.0313372,86.2848457 58.1031161,86.4967847 L58.5,86.5 C62.7484627,86.5 66.7390967,85.396104 70.200719,83.4594949 L74.1997369,90.3905014 C69.7051282,92.9259858 64.5362407,94.4064243 59.0291785,94.4957129 L58.5,94.5 C41.0036191,94.5 26.7868724,80.4582171 26.5042871,63.0291785 L26.5,62.5 L26.4995729,32.1555729 L7.67157288,13.3284271 L13.3284271,7.67157288 Z M98.5,14.5 L98.5,22.5 L90.5,22.5 L90.5,62.5 C90.5,66.0372131 89.9260841,69.440381 88.8662909,72.621465 L81.6894457,68.7076696 C82.1855084,66.8498579 82.4642538,64.903297 82.4967847,62.8968839 L82.5,62.5 L82.5,22.5 L74.5,22.5 L74.5,14.5 L98.5,14.5 Z" id="Shape" fill="#000000" fill-rule="nonzero"></path>
  </g>
</svg>
