<?xml version="1.0" encoding="UTF-8"?><svg viewBox="0 0 116 116" version="1.1" xmlns="http://www.w3.org/2000/svg" xmlns:xlink="http://www.w3.org/1999/xlink">
  <title>undo</title>
  <g id="undo" stroke="none" stroke-width="1" fill="none" fill-rule="evenodd">
    <path d="M74.5,30.5 C89.963973,30.5 102.5,43.036027 102.5,58.5 C102.5,73.8093333 90.2134399,86.2489867 74.9630312,86.4962488 L74.5,86.5 L34.5,86.5 L34.5,78.5 L74.5,78.5 C85.545695,78.5 94.5,69.545695 94.5,58.5 C94.5,47.5693643 85.7312714,38.686775 74.8444894,38.5029071 L74.5,38.5 L34.5,38.5 L34.5,30.5 L74.5,30.5 Z M40.2811992,15.1717988 L44.7188008,21.8282012 L25.711,34.5 L44.7188008,47.1717988 L40.2811992,53.8282012 L18.7773501,39.4923018 C16.020178,37.654187 15.2751348,33.928971 17.1132495,31.1717988 C17.4977325,30.5950743 17.9788133,30.0899633 18.5346307,29.6783271 L18.7773501,29.5076982 L40.2811992,15.1717988 Z" id="Shape" fill="#000000" fill-rule="nonzero"></path>
  </g>
</svg>
