<?xml version="1.0" encoding="UTF-8"?><svg viewBox="0 0 116 116" version="1.1" xmlns="http://www.w3.org/2000/svg" xmlns:xlink="http://www.w3.org/1999/xlink">
  <title>valve</title>
  <g id="valve" stroke="none" stroke-width="1" fill="none" fill-rule="evenodd">
    <path d="M90.5,34.5 C92.709139,34.5 94.5,32.709139 94.5,30.5 C94.5,28.3578046 92.8160315,26.6089211 90.6996403,26.5048953 L90.5,26.5 L86.5,26.5 L86.5,30.5 L86.4031198,30.5 L86.5001687,34.5001703 L90.5,34.5 Z M38.5,30.5 L38.5968802,30.5 L38.499,26.5 L34.5,26.5 C32.3578046,26.5 30.6089211,28.1839685 30.5048953,30.3003597 L30.5,30.5 C30.5,32.6421954 32.1839685,34.3910789 34.3003597,34.4951047 L34.5,34.5 L38.5,34.5 L38.5,30.5 Z M62.5,30.5 L60.4998594,30.5 L60.5005573,50.3518313 L57.6989609,51.231688 C53.4185729,52.5759674 49.8845919,55.6878399 47.9922869,59.7413637 L47.829602,60.1014503 L46.7816748,62.4998837 L42.5320807,62.4998714 L42.0403002,62.5036867 C28.3013827,62.7242146 16.880252,72.8741254 14.8282438,86.1948719 L14.783,86.5 L22.901,86.5 L22.942195,86.3009445 C24.8661161,77.2909777 32.7911744,70.6652702 42.1508543,70.5030464 L42.5025059,70.5 L46.7826396,70.5026822 L47.8299502,72.8993467 C50.357432,78.6832333 56.0783278,82.5 62.5,82.5 C68.8049146,82.5 74.4343037,78.8207631 77.0290351,73.2128694 L77.1700498,72.8993467 L78.2180303,70.5011492 L106.500163,70.5 L106.500163,78.5 L83.288,78.501 L83.182122,78.6841783 C79.0028864,85.7747251 71.3930785,90.3482484 62.9241504,90.4962944 L62.5,90.5 C53.8615347,90.5 46.0667676,85.8929009 41.817878,78.6841783 L41.725,78.525 L41.589713,78.5342109 C36.1769004,78.9423776 31.6920021,82.960202 30.7024511,88.2893625 L30.645429,88.6218973 C30.1087741,91.9268835 27.3115854,94.377083 23.9837228,94.4955169 L23.7392987,94.5 L12.8940995,94.5 C9.41138511,94.5 6.58809465,91.6766451 6.58809465,88.1939206 C6.58809465,88.0329317 6.59425953,87.872002 6.60657573,87.711485 C8.00934151,69.429247 23.0083491,55.0924872 41.3860973,54.517531 L41.706,54.51 L41.9084005,54.1656063 C44.2992778,50.1808967 47.8051996,46.9624253 51.9798006,44.9236517 L52.5,44.677 L52.5,38.5 L45.428,38.5 L45.3681517,38.6046306 C44.0105698,40.8713491 41.5626682,42.4101141 38.7491793,42.4961932 L38.5,42.5 L34.5,42.5 C27.872583,42.5 22.5,37.127417 22.5,30.5 C22.5,23.9745433 27.7085444,18.6656072 34.1950252,18.5037999 L34.5,18.5 L38.5,18.5 C41.3327936,18.5 43.831581,19.9754109 45.2548836,22.2386436 L45.412,22.5 L55.57,22.5 L55.6318483,22.3953694 C56.9894302,20.1286509 59.4373318,18.5898859 62.2508207,18.5038068 L62.5,18.5 C65.3327936,18.5 67.831581,19.9754109 69.2548836,22.2386436 L69.412,22.5 L79.57,22.5 L79.6318483,22.3953694 C80.9894302,20.1286509 83.4373318,18.5898859 86.2508207,18.5038068 L86.5,18.5 L90.5,18.5 C97.127417,18.5 102.5,23.872583 102.5,30.5 C102.5,37.0254567 97.2914556,42.3343928 90.8049748,42.4962001 L90.5,42.5 L86.5,42.5 C83.6672064,42.5 81.168419,41.0245891 79.7451164,38.7613564 L79.588,38.5 L72.499,38.5 L72.5,44.678 L72.5713516,44.7101932 C76.9435617,46.7340296 80.6156171,50.038984 83.0916978,54.1657703 L83.287,54.499 L106.500163,54.5 L106.500163,62.5 L78.2183543,62.4999502 L77.170398,60.1014503 C75.3755495,55.9935079 71.9128958,52.8027971 67.6775307,51.3551302 L67.3018395,51.2319394 L64.500673,50.3520547 L64.4998302,30.5 L62.5968802,30.5 L62.5,26.543 L62.5,30.5 Z" id="Path" fill="#000000" fill-rule="nonzero"></path>
  </g>
</svg>
