<?xml version="1.0" encoding="UTF-8"?><svg viewBox="0 0 116 116" version="1.1" xmlns="http://www.w3.org/2000/svg" xmlns:xlink="http://www.w3.org/1999/xlink">
  <title>video</title>
  <g id="video" stroke="none" stroke-width="1" fill="none" fill-rule="evenodd">
    <path d="M98.5,6.5 C105.025457,6.5 110.334393,11.7085444 110.4962,18.1950252 L110.5,18.5 L110.5,94.5 L85.4290715,94.5011597 C84.0846216,96.8244139 81.6052719,98.4088107 78.7491793,98.4961932 L78.5,98.5 L78.5,94.5 L26.5,94.5 L26.5,86.5 L71.57,86.5 L71.6318483,86.3953694 C72.9894302,84.1286509 75.4373318,82.5898859 78.2508207,82.5038068 L78.5,82.5 C81.4610634,82.5 84.0463894,84.1087228 85.4296499,86.49984 L102.5,86.5 L102.5,18.5 C102.5,16.3578046 100.816032,14.6089211 98.6996403,14.5048953 L98.5,14.5 L18.5,14.5 C16.3578046,14.5 14.6089211,16.1839685 14.5048953,18.3003597 L14.5,18.5 L14.5,98.5 C14.5,100.642195 16.1839685,102.391079 18.3003597,102.495105 L18.5,102.5 L98.5,102.5 C100.642195,102.5 102.391079,100.816032 102.495105,98.6996403 L102.5,98.5 L110.5,98.5 C110.5,105.025457 105.291456,110.334393 98.8049748,110.4962 L98.5,110.5 L18.5,110.5 C11.9745433,110.5 6.66560725,105.291456 6.50379986,98.8049748 L6.5,98.5 L6.5,18.5 C6.5,11.9745433 11.7085444,6.66560725 18.1950252,6.50379986 L18.5,6.5 L98.5,6.5 Z M47.3826142,24.7701024 L47.5869745,24.8874232 L81.6996733,45.3550424 C82.5441709,45.861741 83.2509577,46.5685278 83.7576563,47.4130255 C85.4219527,50.1868527 84.5835418,53.7650442 81.8993612,55.5198494 L81.6996733,55.6449576 L52.4860229,73.1731478 L48.3700568,66.3132044 L74.726,50.5 L46.5,33.564 L46.5,66.5 L38.5,66.5 L38.5,30.0323808 C38.5,28.9449171 38.795547,27.8778986 39.3550424,26.9454062 C41.0193388,24.171579 44.5711128,23.2274985 47.3826142,24.7701024 Z" id="Shape" fill="#000000" fill-rule="nonzero"></path>
  </g>
</svg>
