<?xml version="1.0" encoding="UTF-8"?><svg viewBox="0 0 116 116" version="1.1" xmlns="http://www.w3.org/2000/svg" xmlns:xlink="http://www.w3.org/1999/xlink">
  <title>wand</title>
  <g id="wand" stroke="none" stroke-width="1" fill="none" fill-rule="evenodd">
    <path d="M70,22 L66,22 L66,14 L70,14 L70,10 L78,10 L77.9998067,13.343 L82.4142136,13.3431458 L82.4142136,21.3431458 L78.4142207,21.3430019 L78.4135136,27.1815826 L87.0477824,35.7806447 C89.724501,38.4573633 89.780266,42.7625337 87.2150773,45.5071044 L87.0477824,45.6801397 L80.3345238,52.3933983 C77.6578052,55.0701169 73.3526348,55.1258818 70.6080641,52.5606932 L70.4352278,52.3948891 L70.6023238,52.5664335 C73.1129339,55.2526091 73.1129339,59.4336824 70.6023238,62.119858 L70.4350288,62.2928932 L28.008622,104.7193 C25.3319034,107.396019 21.026733,107.451784 18.2821623,104.886595 L18.109127,104.7193 L11.0380592,97.6482323 C8.36134064,94.9715137 8.30557567,90.6663433 10.8707643,87.9217726 L11.0380592,87.7487373 L49.5753788,49.2114178 L55.232233,54.868272 L17.400805,92.6985614 L23.0576593,98.3554157 L64.0698526,57.3432223 L57.7071068,50.9791847 C55.0303882,48.3024661 54.9746232,43.9972958 57.5398119,41.252725 L57.7071068,41.0796898 L59.1213203,39.6654762 C61.7980389,36.9887576 66.1032093,36.9329927 68.8477801,39.4981813 L69.0208153,39.6654762 L75.3835611,46.0295138 L80.6812051,40.7318698 L70.4142136,30.5046981 L70.4138067,14 L70,14 L70,22 Z M102,18 L102,22 L106,22 L106,30 L102,30 L102,34 L94,34 L94,30 L90,30 L90,22 L94,22 L94,18 L102,18 Z M102,50 L102,54 L106,54 L106,62 L102,62 L102,66 L94,66 L94,62 L90,62 L90,54 L94,54 L94,50 L102,50 Z" id="Shape" fill="#000000" fill-rule="nonzero"></path>
  </g>
</svg>
