<?xml version="1.0" encoding="UTF-8"?><svg viewBox="0 0 116 116" version="1.1" xmlns="http://www.w3.org/2000/svg" xmlns:xlink="http://www.w3.org/1999/xlink">
  <title>warning-mark</title>
  <g id="warning-mark" stroke="none" stroke-width="1" fill="none" fill-rule="evenodd">
    <path d="M39.2448009,86.3416529 C42.2461291,80.4327879 49.4692678,78.0757637 55.3781328,81.077092 C57.5553176,82.1829636 59.3404982,83.9252217 60.4991666,86.0678695 L60.6768736,86.4094752 L62.4222912,89.9003106 C63.4102482,91.8762246 65.8129404,92.6771219 67.7888544,91.6891649 C68.4925904,91.3372969 69.0753184,90.7865569 69.466253,90.1077303 L69.5777088,89.9003106 L71.2668737,86.5219807 C74.2307447,80.5942387 81.4388212,78.1915465 87.3665631,81.1554175 C89.5783049,82.2612884 91.3916258,84.0219488 92.5623653,86.1932381 L92.7331263,86.5219807 L94.4222912,89.9003106 C95.4102482,91.8762246 97.8129404,92.6771219 99.7888544,91.6891649 C100.49259,91.3372969 101.075318,90.7865569 101.466253,90.1077303 L101.577709,89.9003106 L102.422291,88.2111456 L109.577709,91.7888544 L108.733126,93.4780193 C107.571962,95.8003482 105.688892,97.6834181 103.366563,98.8445825 C97.5314421,101.762143 90.4556845,99.4795352 87.4088926,93.7532934 L87.2668737,93.4780193 L85.5777088,90.0996894 C85.190654,89.3255798 84.562964,88.6978899 83.7888544,88.3108351 C81.8746877,87.3537517 79.5599997,88.0754663 78.5190007,89.9179087 L78.4222912,90.0996894 L76.7331263,93.4780193 C75.5719619,95.8003482 73.688892,97.6834181 71.3665631,98.8445825 C65.5314421,101.762143 58.4556845,99.4795352 55.4088926,93.7532934 L55.2668737,93.4780193 L53.521456,89.987184 C53.1382735,89.220819 52.5191336,88.5977481 51.7552091,88.2097229 C49.8491236,87.2415525 47.532755,87.9461248 46.47858,89.7776842 L46.3774318,89.9645765 L44.6989464,93.2690947 C43.5466287,95.5377202 41.703011,97.3813379 39.4343855,98.5336556 C33.6178466,101.488088 26.527784,99.2503084 23.4448119,93.5434644 L23.3010536,93.2690947 L21.6225682,89.9645765 C21.234543,89.200652 20.6114721,88.5815121 19.8451071,88.1983296 C17.9309404,87.2412463 15.6162524,87.9629608 14.5752535,89.8054032 L14.478544,89.987184 L13.5777088,91.7888544 L6.42229124,88.2111456 L7.32312643,86.4094752 C10.2869974,80.4817333 17.4950739,78.0790411 23.4228159,81.0429121 C25.6069562,82.1349822 27.4031277,83.8659071 28.5753337,86.0011787 L28.7551991,86.3416529 L30.4336845,89.646171 C31.4341273,91.6157926 33.8418402,92.4014674 35.8114618,91.4010246 C36.4920495,91.0553293 37.057885,90.522983 37.4442595,89.8686947 L37.5663155,89.646171 L39.2448009,86.3416529 Z M58,2.78889745 L93.3282012,55.7811992 L86.6717988,60.2188008 L58,17.211 L33.473,54 L78,54 L78,62 L18.5259316,62 L58,2.78889745 Z M58,45 C60.209139,45 62,46.790861 62,49 C62,51.209139 60.209139,53 58,53 C55.790861,53 54,51.209139 54,49 C54,46.790861 55.790861,45 58,45 Z M62,26 L62,42 L54,42 L54,26 L62,26 Z" id="Shape" fill="#000000" fill-rule="nonzero"></path>
  </g>
</svg>
