<?xml version="1.0" encoding="UTF-8"?><svg viewBox="0 0 116 116" version="1.1" xmlns="http://www.w3.org/2000/svg" xmlns:xlink="http://www.w3.org/1999/xlink">
  <title>wave</title>
  <g id="wave" stroke="none" stroke-width="1" fill="none" fill-rule="evenodd">
    <path d="M52.5,14.5 C57.9292399,14.5 62.3479317,18.8266708 62.4961582,24.2200952 L62.5,24.5 L62.5,92.5 C62.5,93.6045695 63.3954305,94.5 64.5,94.5 C65.5543618,94.5 66.4181651,93.6841222 66.4945143,92.6492623 L66.5,92.5 L66.5,40.5 C66.5,34.9771525 70.9771525,30.5 76.5,30.5 C81.9292399,30.5 86.3479317,34.8266708 86.4961582,40.2200952 L86.5,40.5 L86.5,64.5 C86.5,65.6045695 87.3954305,66.5 88.5,66.5 C89.6045695,66.5 90.5,65.6045695 90.5,64.5 C90.5,59.0707601 94.8266708,54.6520683 100.220095,54.5038418 L100.5,54.5 L106.5,54.5 L106.5,62.5 L100.5,62.5 C99.3954305,62.5 98.5,63.3954305 98.5,64.5 C98.5,70.0228475 94.0228475,74.5 88.5,74.5 C83.0707601,74.5 78.6520683,70.1733292 78.5038418,64.7799048 L78.5,64.5 L78.5,40.5 C78.5,39.3954305 77.6045695,38.5 76.5,38.5 C75.4456382,38.5 74.5818349,39.3158778 74.5054857,40.3507377 L74.5,40.5 L74.5,92.5 C74.5,98.0228475 70.0228475,102.5 64.5,102.5 C59.0707601,102.5 54.6520683,98.1733292 54.5038418,92.7799048 L54.5,92.5 L54.5,24.5 C54.5,23.3954305 53.6045695,22.5 52.5,22.5 C51.4456382,22.5 50.5818349,23.3158778 50.5054857,24.3507377 L50.5,24.5 L50.5,76.5 C50.5,82.0228475 46.0228475,86.5 40.5,86.5 C35.0707601,86.5 30.6520683,82.1733292 30.5038418,76.7799048 L30.5,76.5 L30.5,52.5 C30.5,51.3954305 29.6045695,50.5 28.5,50.5 C27.3954305,50.5 26.5,51.3954305 26.5,52.5 C26.5,57.9292399 22.1733292,62.3479317 16.7799048,62.4961582 L16.5,62.5 L10.5,62.5 L10.5,54.5 L16.5,54.5 C17.6045695,54.5 18.5,53.6045695 18.5,52.5 C18.5,46.9771525 22.9771525,42.5 28.5,42.5 C33.9292399,42.5 38.3479317,46.8266708 38.4961582,52.2200952 L38.5,52.5 L38.5,76.5 C38.5,77.6045695 39.3954305,78.5 40.5,78.5 C41.5543618,78.5 42.4181651,77.6841222 42.4945143,76.6492623 L42.5,76.5 L42.5,24.5 C42.5,18.9771525 46.9771525,14.5 52.5,14.5 Z" id="Path" fill="#000000" fill-rule="nonzero"></path>
  </g>
</svg>
