<?xml version="1.0" encoding="UTF-8"?><svg viewBox="0 0 116 116" version="1.1" xmlns="http://www.w3.org/2000/svg" xmlns:xlink="http://www.w3.org/1999/xlink">
  <title>wifi-off</title>
  <g id="wifi-off" stroke="none" stroke-width="1" fill="none" fill-rule="evenodd" transform="translate(-0.000000, 0.000000)">
    <path d="M13.3284271,7.67157288 L109.328427,103.671573 L103.671573,109.328427 L72.2808025,77.9358135 C72.7163227,80.0796432 72.140508,82.3880592 70.5533592,84.096668 L70.3712083,84.285646 L61.3284271,93.3284271 L55.6715729,87.6715729 L63.747,79.595 L63.4254327,79.4543952 C62.0269093,78.8698136 60.5394434,78.5550079 58.9392339,78.5065998 L58.5,78.5 C55.9368711,78.5 53.6545194,79.1652908 51.5621424,80.5199834 L51.2151563,80.752153 C48.5090703,82.6220077 44.8789702,82.3501926 42.4828911,80.1322999 L42.2861206,79.9429749 L35.6257105,73.2825648 C32.8919986,70.5489016 32.891991,66.1167179 35.6256748,63.3830341 C35.8859335,63.1227755 36.1663133,62.8834488 36.4642063,62.6672803 C37.5171178,61.9032262 38.5166725,61.2018593 39.4639316,60.5628554 L40.393798,59.9446272 C41.6104823,59.1480078 42.7348254,58.4620638 43.7693424,57.8860269 L47.6612229,64.875538 C46.7829771,65.3645605 45.8006371,65.9651339 44.7167184,66.67649 L43.8847726,67.2307667 L43.0149705,67.8265149 L42.5659471,68.1399182 L42.5659471,68.1399182 L42.115,68.458 L47.364,73.708 L47.4587569,73.6486706 C50.6535357,71.6407313 54.1992488,70.5862206 58.0208662,70.5050725 L58.5,70.5 C61.2654397,70.5 63.8927805,71.0040651 66.3529896,72.0080747 L31.2235729,36.8795729 L30.204637,37.4599563 L28.4025063,38.4957954 L28.0436073,38.7084473 L27.6531312,38.9503084 L27.2312299,39.221297 L26.7780554,39.5213315 L26.2937596,39.8503302 L25.5092959,40.3979577 L24.6556639,41.0102957 L23.4107793,41.9269306 L22.3977491,42.689188 L21.6848868,43.2328167 L20.1698248,44.4048034 L18.988,45.331 L25.025,51.368 L28.1875402,49.3167486 L29.8347095,48.2629909 L30.9504924,47.5578546 L35.2055614,54.3323943 L33.335612,55.5186754 L30.7107892,57.2125496 L28.7305878,58.505337 C26.0340875,60.272677 22.4916657,59.9646982 20.1420835,57.791363 L19.9436595,57.6005138 L12.5379695,50.1948238 C9.80429236,47.4611549 9.80429108,43.0289951 12.5379635,40.2953228 C12.7255475,40.1077387 12.9236435,39.9309698 13.1312925,39.7658715 L14.9477152,38.3324667 L15.8082396,37.6618455 L17.0398847,36.713264 L17.8217961,36.1189797 L18.9363009,35.2844852 L19.6406381,34.7659798 L20.6395605,34.0447352 L21.2673621,33.6014508 L21.8648403,33.1880985 L22.4321612,32.804589 L22.969491,32.4508332 L23.4769959,32.1267416 L23.9548421,31.832225 L24.4031958,31.5671941 L25.3605729,31.0165729 L7.67157288,13.3284271 L13.3284271,7.67157288 Z M58.5,38.5 C71.4104489,38.5 82.8778115,42.7887711 92.7347408,51.2983456 C92.8640911,51.4100149 92.9893089,51.5263832 93.1101425,51.6472168 C95.7816712,54.3187456 95.8423944,58.6124192 93.2923017,61.3577215 L93.1101522,61.5467021 L85.6368905,69.0199638 L79.9800362,63.3631095 L86.683,56.659 L86.5677405,56.5624717 C78.5424271,49.9633217 69.4364771,46.6294834 59.1089138,46.5036993 L58.5,46.5 L58.5,38.5 Z M58.5,22.5 C76.2888995,22.5 92.2318958,28.8871481 106.160114,41.5535956 L106.716168,42.0636022 L101.283832,47.9363978 C88.6766191,36.2747258 74.4739152,30.5 58.5,30.5 C54.0034837,30.5 49.6536493,30.957427 45.445714,31.8710668 L44.5461838,32.0738292 L42.7253839,24.2837915 C47.8153151,23.0940994 53.0754814,22.5 58.5,22.5 Z" id="Shape" fill="#000000" fill-rule="nonzero"></path>
  </g>
</svg>
