<?xml version="1.0" encoding="UTF-8"?><svg viewBox="0 0 116 116" version="1.1" xmlns="http://www.w3.org/2000/svg" xmlns:xlink="http://www.w3.org/1999/xlink">
  <title>wifi</title>
  <g id="wifi" stroke="none" stroke-width="1" fill="none" fill-rule="evenodd">
    <path d="M58.5,22.5 C76.2888995,22.5 92.2318958,28.8871481 106.160114,41.5535956 L106.716168,42.0636022 L101.283832,47.9363978 C88.6766191,36.2747258 74.4739152,30.5 58.5,30.5 C43.9545033,30.5 30.8846439,35.2871868 19.1489811,44.9391156 L18.846,45.189 L24.637,50.981 L24.9393138,50.7251164 C34.472942,42.7393699 45.4878656,38.6449871 57.8371552,38.5037824 L58.5,38.5 C71.1875652,38.5 82.4814428,42.6419683 92.2228017,50.8614005 L92.7784995,51.3340796 C92.8370879,51.384453 92.8936505,51.435232 92.9490066,51.4868575 L93.1122742,51.6447143 C95.783844,54.3161439 95.8447108,58.6097419 93.2946619,61.3553373 L93.1125153,61.544339 L85.9141347,68.7427192 C83.2891464,71.3657523 79.0728119,71.48519 76.3097602,69.0160733 C71.4202107,64.6602824 65.5469122,62.5 58.5,62.5 C52.1182252,62.5 46.7001965,64.271823 42.1042448,67.8389781 L41.764,68.107 L47.365,73.708 L47.4580216,73.6491328 C50.6529791,71.6409011 54.1989303,70.5862335 58.0208306,70.5050732 L58.5,70.5 C62.2666125,70.5 65.7770154,71.4351049 68.9608697,73.2966358 C69.4760941,73.5984797 69.9506945,73.9649289 70.3730246,74.3871927 C73.0461318,77.05988 73.1059629,81.3568382 70.5540407,84.0965184 L70.3717621,84.2850922 L61.3284271,93.3284271 L55.6715729,87.6715729 L63.748,79.595 L63.4277819,79.4553774 C62.0286313,78.8701896 60.5404677,78.5550637 58.9394555,78.5066065 L58.5,78.5 C55.936681,78.5 53.6541768,79.1653895 51.5641662,80.5185625 L51.2175983,80.7504635 C48.5123444,82.6234875 44.8811512,82.3521303 42.4844803,80.1338732 L42.2876617,79.944516 L35.3279839,72.9848374 C32.595641,70.2497375 32.598017,65.8174976 35.3332077,63.0852787 C35.4248753,62.9937108 35.5161736,62.9071464 35.6133287,62.8220747 L35.774,62.687 L36.1049096,62.4045971 C42.2059796,57.2611513 49.5325898,54.6188143 57.9260662,54.5039171 L58.5,54.5 C67.0957142,54.5 74.5876537,57.1211042 80.81323,62.336013 L80.917,62.425 L86.683,56.659 L86.5671752,56.5620069 C78.541997,49.9631632 69.4362283,46.6294774 59.1088999,46.5036991 L58.5,46.5 C47.3859695,46.5 37.6755075,50.1797911 29.1918006,57.6160239 C26.4835685,59.9819603 22.4374948,59.9038308 19.8252901,57.4754835 L19.6367523,57.2936066 L12.417239,50.0740933 C9.6830189,47.3404034 9.68336621,42.9077759 12.4175572,40.1742394 C12.5285722,40.0632509 12.6414734,39.9575389 12.762598,39.8538324 L13.4031989,39.3123721 C26.5204799,28.2957676 41.3549605,22.6668279 57.7642057,22.5036533 L58.5,22.5 Z" id="Path" fill="#000000" fill-rule="nonzero"></path>
  </g>
</svg>
