<?xml version="1.0" encoding="UTF-8"?><svg viewBox="0 0 116 116" version="1.1" xmlns="http://www.w3.org/2000/svg" xmlns:xlink="http://www.w3.org/1999/xlink">
  <title>wind</title>
  <g id="wind" stroke="none" stroke-width="1" fill="none" fill-rule="evenodd">
    <path d="M94.5,30.5 C103.336556,30.5 110.5,37.663444 110.5,46.5 C110.5,55.2313589 103.506099,62.3292047 94.8148707,62.4969636 L94.5,62.5 L10.5,62.5 L10.5,54.5 L94.5,54.5 C98.918278,54.5 102.5,50.918278 102.5,46.5 C102.5,42.081722 98.918278,38.5 94.5,38.5 C90.1650857,38.5 86.6354571,41.9478378 86.5038068,46.2508207 L86.5,46.5 L78.5,46.5 C78.5,37.663444 85.663444,30.5 94.5,30.5 Z M58.5,26.5 C65.127417,26.5 70.5,31.872583 70.5,38.5 C70.5,45.0254567 65.2914556,50.3343928 58.8049748,50.4962001 L58.5,50.5 L10.5,50.5 L10.5,42.5 L58.5,42.5 C60.709139,42.5 62.5,40.709139 62.5,38.5 C62.5,36.290861 60.709139,34.5 58.5,34.5 C56.3578046,34.5 54.6089211,36.1839685 54.5048953,38.3003597 L54.5,38.5 L46.5,38.5 C46.5,31.872583 51.872583,26.5 58.5,26.5 Z M74.5,66.5 C81.127417,66.5 86.5,71.872583 86.5,78.5 C86.5,85.127417 81.127417,90.5 74.5,90.5 C67.9745433,90.5 62.6656072,85.2914556 62.5037999,78.8049748 L62.5,78.5 L70.5,78.5 C70.5,80.709139 72.290861,82.5 74.5,82.5 C76.709139,82.5 78.5,80.709139 78.5,78.5 C78.5,76.3578046 76.8160315,74.6089211 74.6996403,74.5048953 L74.5,74.5 L10.5,74.5 L10.5,66.5 L74.5,66.5 Z" id="Shape" fill="#000000" fill-rule="nonzero"></path>
  </g>
</svg>
