<?xml version="1.0" encoding="UTF-8"?><svg viewBox="0 0 116 116" version="1.1" xmlns="http://www.w3.org/2000/svg" xmlns:xlink="http://www.w3.org/1999/xlink">
  <title>wrench</title>
  <g id="wrench" stroke="none" stroke-width="1" fill="none" fill-rule="evenodd">
    <path d="M86.0719243,16.4191926 L86.3284271,16.6715729 L89.675727,20.0188727 L85.4527318,23.0207529 L84.7448228,23.534386 L84.0638009,24.0395536 L83.0922643,24.7817132 L83.0922643,24.7817132 L82.4776263,25.2662791 L81.8892083,25.7428292 L81.32682,26.2114918 L81.0553273,26.4429055 L81.0553273,26.4429055 L80.5316259,26.8999779 L79.912911,27.4606934 L79.912911,27.4606934 L79.3337507,28.0098376 L78.8986517,28.4409901 L78.6904465,28.6538896 L78.6904465,28.6538896 L78.2926053,29.0744154 C78.2283538,29.1439224 78.1651273,29.213141 78.1029218,29.2820738 L77.7419098,29.6922618 L77.5705336,29.8948235 L77.5705336,29.8948235 L77.245922,30.2949628 L77.0926388,30.4925725 L77.0926388,30.4925725 L76.8039988,30.8829521 C74.4978585,34.109496 74.6649355,36.6750115 76.8089933,38.9140324 L77.075738,39.1811691 L77.2161679,39.3136022 L77.2161679,39.3136022 C80.2192191,42.0914245 83.5321561,42.1074407 87.6576841,38.6573504 L88.0873821,38.2880514 C88.52002,37.9063304 88.9615394,37.4872568 89.4124968,37.030051 L89.8666208,36.5601054 C90.0190579,36.3992007 90.1725643,36.2340303 90.3271605,36.0645651 L90.7942396,35.5432567 L91.3874727,34.8551209 L91.3874727,34.8551209 L91.9913584,34.1261134 L92.4822991,33.5132523 L92.9803357,32.8738435 L93.2320535,32.5441295 L93.2320535,32.5441295 L93.7409658,31.8645741 L94.2572831,31.1580378 L96.928991,27.45875 L100.246494,30.5919474 C102.057085,32.3019497 103.375348,34.1899138 104.198246,36.2276099 C106.275304,41.3709127 105.106626,46.4588205 102.030818,51.5904183 C101.914918,51.7837825 101.80193,51.968572 101.688881,52.1495773 L101.346587,52.6860323 L100.98611,53.2285281 L100.589629,53.8058096 L99.6652017,55.1221078 L99.5889231,55.236812 C99.6753905,55.078802 99.752876,54.9114728 99.8271825,54.6643981 L99.8714097,54.5060749 L92.1285903,52.4939251 C92.1786543,52.301277 92.3067933,52.0212672 92.4838517,51.6902882 L92.6761368,51.3436673 L92.6761368,51.3436673 L93.0629809,50.6937005 L93.0629809,50.6937005 L93.4939863,50.0083845 L93.7897387,49.5519884 L94.3579195,48.6946743 L95.075719,47.6241155 L95.1690169,47.4775506 C96.7548736,44.8317485 97.4597155,42.4973711 97.1257248,40.4589082 L97.115,40.406 L96.8772295,40.674854 C88.3334255,50.2142645 79.7104413,52.2858405 72.050642,45.4292065 L71.7838321,45.1863978 C67.2786715,41.0191243 65.9003699,35.850493 68.0304822,30.4660424 C69.3790588,27.0571404 72.0981625,23.6473399 76.1658571,20.1405709 L76.419,19.923 L76.1980757,19.8869011 C73.0896044,19.4252208 69.5851029,21.157149 65.6194228,25.0404447 L65.3284271,25.3284271 L59.3284271,31.3284271 C55.4396904,35.2171638 55.3689861,41.4781217 59.1163142,45.453121 L59.3284271,45.6715729 L62.4390266,48.7821724 L23.9505714,80.5769832 C20.1783845,83.6931376 19.6465651,89.2772416 22.7627195,93.0494286 C22.941335,93.2656473 23.1301168,93.4732625 23.3284271,93.6715729 C26.8098751,97.1530209 32.4544176,97.1530209 35.9358656,93.6715729 C36.0628862,93.5445524 36.1860239,93.4137362 36.305113,93.279306 L36.4806895,93.0749729 L70.2312066,52.5743523 L73.3284271,55.6715729 C76.2809865,58.6241322 80.6010711,59.3756928 84.2498252,57.9262546 L84.35,57.884 L81.2283976,54.8841324 L86.7716024,49.1158676 L96.3430182,58.313836 L93.3284271,61.3284271 C87.4003211,67.2565332 78.3903683,68.2244817 71.4558467,64.2322728 L71.103,64.023 L42.6264597,98.1964481 C42.4082625,98.4582847 42.1822261,98.7134365 41.9486652,98.9615588 L41.5927199,99.3284271 C34.9870775,105.934069 24.2772152,105.934069 17.6715729,99.3284271 C17.2941862,98.9510405 16.9349325,98.5559465 16.5950255,98.1444801 C10.7409784,91.058002 11.6522004,80.6112733 18.5824656,74.6396676 L18.8555199,74.4092892 L50.967,47.882 L50.9615815,47.8727793 C46.8080327,40.9990317 47.6239084,31.9639609 53.4092085,25.9393046 L53.6715729,25.6715729 L59.6715729,19.6715729 C68.4510066,10.8921391 78.1856362,8.78552482 86.0719243,16.4191926 Z M30.5,78.5 C34.8349143,78.5 38.3645429,81.9478378 38.4961932,86.2508207 L38.5,86.5 L30.5,86.5 L30.5,94.5 C26.081722,94.5 22.5,90.918278 22.5,86.5 C22.5,82.081722 26.081722,78.5 30.5,78.5 Z" id="Shape" fill="#000000" fill-rule="nonzero"></path>
  </g>
</svg>
