<?xml version="1.0" standalone="no"?>
<!DOCTYPE svg PUBLIC "-//W3C//DTD SVG 1.1//EN" "http://www.w3.org/Graphics/SVG/1.1/DTD/svg11.dtd" >
<svg xmlns="http://www.w3.org/2000/svg">
<metadata>
<json>
<![CDATA[
{
	"fontFamily": "graphis",
	"fontURL": "https://github.com/loreanvictor/graphis",
	"designer": "Eugene Ghanizadeh Khoub",
	"designerURL": "https://github.com/loreanvictor",
	"license": "MIT",
	"description": "a stylish and convenient icon font\nFont generated by IcoMoon.",
	"majorVersion": 0,
	"version": "Version 1.0",
	"fontId": "graphis",
	"psName": "graphis",
	"subFamily": "Regular",
	"fullName": "graphis"
}
]]>
</json>
</metadata>
<defs>
<font id="graphis" horiz-adv-x="1024">
<font-face units-per-em="1024" ascent="901.880742913001" descent="-122.11925708699903" />
<missing-glyph horiz-adv-x="1024" />
<glyph unicode="&#x20;" horiz-adv-x="256.25024437927664" d="" />
<glyph unicode="&#x3c;" glyph-name="icon-prev" data-tags="icon-prev" d="M745.004 789.227l-31.403 31.078-439.678-444.259 439.842-435.259 31.076 31.404-408.432 404.186z" />
<glyph unicode="&#x3e;" glyph-name="icon-next" data-tags="icon-next" d="M273.923 789.227l31.403 31.078 439.678-444.259-439.842-435.259-31.076 31.404 408.432 404.186z" />
<glyph unicode="&#xab;" glyph-name="icon-prev-prev" data-tags="icon-prev-prev" d="M572.222 820.305l31.403-31.078-408.595-412.849 408.432-404.186-31.076-31.404-439.842 435.259 439.678 444.259zM854.981 820.305l31.403-31.078-408.595-412.849 408.432-404.186-31.076-31.404-439.842 435.259 439.678 444.259z" />
<glyph unicode="&#xb6;" glyph-name="pilcrow" data-tags="pilcrow" horiz-adv-x="1034" d="M804.095 749.616v-44.181h-123.707v-684.807h-44.181v684.807h-225.323c-84.431 0-153.058-67.667-154.607-151.729l-0.027-2.905c0-84.431 67.667-153.058 151.729-154.607l2.905-0.027h13.254v256.25h44.181v-631.789h-44.181v331.358h-13.254c-108.704 0-197.032 87.241-198.788 195.527l-0.027 3.288c0 108.704 87.241 197.032 195.527 198.788l3.288 0.027h393.212z" />
<glyph unicode="&#xbb;" glyph-name="icon-next-next" data-tags="icon-next-next" d="M446.704 820.305l439.678-444.259-439.842-435.259-31.076 31.404 408.432 404.186-408.595 412.849 31.403 31.078zM163.945 820.305l439.678-444.259-439.842-435.259-31.076 31.404 408.432 404.186-408.595 412.849 31.403 31.078z" />
<glyph unicode="&#x1b78;" glyph-name="strike-through" data-tags="strike-through" d="M870.367 749.616v-44.181h-83.944v-437.393c0-147.355-118.26-267.089-265.048-269.468l-4.456-0.036c-147.355 0-267.089 118.26-269.468 265.048l-0.036 4.456v35.345h44.181v-35.345c0-124.443 100.881-225.323 225.323-225.323 123.198 0 223.303 98.874 225.293 221.597l0.030 3.726v437.393h-83.944v44.181h212.069zM693.643 396.167v-44.181h-600.863v44.181h600.863zM941.057 396.167v-44.181h-101.616v44.181h101.616zM375.539 749.616v-44.181h-83.944v-265.087h-44.181v265.087h-83.944v44.181h212.069z" />
<glyph unicode="&#x1b7a;" glyph-name="strike-through-off" data-tags="strike-through-off" d="M108.401 813.835l848.276-848.276-31.241-31.241-633.848 633.853 0.007-127.823h-44.181v128.125l43.865 0.007-214.119 214.114 31.241 31.241zM291.595 303.387v-35.345c0-124.443 100.881-225.323 225.323-225.323 57.335 0 111.241 21.478 152.515 59.46l2.997 2.809 30.498-31.966c-49.783-47.495-115.804-74.484-186.010-74.484-147.355 0-267.089 118.26-269.468 265.048l-0.036 4.456v35.345h44.181zM870.367 749.616v-44.181h-83.944v-437.393c0-10.971-0.657-21.864-1.959-32.64l-0.859-6.45-43.722 6.357c1.305 8.974 2.072 18.059 2.291 27.225l0.066 5.508v437.393h-83.944v44.181h212.069zM446.229 396.167v-44.181h-353.448v44.181h353.448zM693.643 396.167v-44.181h-101.616v44.181h101.616zM941.057 396.167v-44.181h-101.616v44.181h101.616zM375.539 749.616v-44.181h-83.944v-8.837h-44.181v8.837h-13.254v44.181h141.379z" />
<glyph unicode="&#x1e6e;" glyph-name="underline" data-tags="underline" d="M799.678-27.971v-44.181h-565.518v44.181h565.518zM375.539 749.616v-44.181h-83.944v-437.393c0-123.198 98.874-223.303 221.597-225.293l3.726-0.030c123.198 0 223.303 98.874 225.293 221.597l0.030 3.726v437.393h-83.944v44.181h212.069v-44.181h-83.944v-437.393c0-147.355-118.26-267.089-265.048-269.468l-4.456-0.036c-147.355 0-267.089 118.26-269.468 265.048l-0.036 4.456v437.393h-83.944v44.181h212.069z" />
<glyph unicode="&#x2131;" glyph-name="text-font" data-tags="text-font" d="M728.988 466.857c89.29 0 161.859-71.588 163.444-160.5l0.026-2.97v-212.069c0-26.186 20.71-47.534 46.645-48.56l1.955-0.039v-44.181c-43.083 0-79.307 29.365-89.75 69.172-31.824-41.585-81.591-68.192-136.913-69.145l-3.079-0.027h-17.672c-70.761 0-128.125 57.364-128.125 128.125 0 69.83 55.864 126.614 125.339 128.095l2.786 0.030h106.035v-44.181h-106.035c-46.361 0-83.944-37.583-83.944-83.944 0-45.561 36.298-82.646 81.554-83.911l2.39-0.033h17.672c65.485 0 121.080 47.985 130.652 112.766 3.89 26.329 5.975 50.293 6.273 71.868l0.037 5.344v70.69c0 65.881-53.407 119.288-119.288 119.288-64.966 0-117.803-51.935-119.258-116.551l-0.031-2.738h-44.181c0 90.282 73.188 163.47 163.47 163.47zM313.736 726.396c9.372-2.812 16.824-9.878 20.16-19.002l0.577-1.735 203.606-678.686-42.317-12.695-190.91 636.378-97.56-325.182h150.578v-44.181h-163.832l-80.095-267.016-42.336 12.634 88.636 298.563h0.925l114.063 380.183c4.908 16.36 22.15 25.644 38.51 20.735z" />
<glyph unicode="&#x2139;" glyph-name="info" data-tags="info" d="M493.135 819.611c24.686 0 44.818-19.499 45.834-43.935l0.040-1.939v-138.992h-24.3c-25.621 0-46.39-20.769-46.39-46.39 0-24.98 19.744-45.348 44.477-46.351l1.912-0.039h6.627c21.333 0 38.742 16.799 39.72 37.891l0.043 1.872h44.181c0-45.561-36.298-82.646-81.554-83.911l-2.39-0.033h-6.627c-50.021 0-90.571 40.551-90.571 90.571 0 42.518 29.298 78.193 68.806 87.939l1.884 0.44v97.002c0 0.78-0.527 1.435-1.243 1.633l-0.55 0.058c-211.789-12.397-378.165-188.195-378.165-401.351 0-222.045 180.003-402.048 402.048-402.048s402.048 180.003 402.048 402.048c0 107.241-42.156 207.739-115.928 282.451l-3.654 3.654 31.041 31.439c84.355-83.29 132.722-196.607 132.722-317.543 0-246.446-199.783-446.229-446.229-446.229s-446.229 199.783-446.229 446.229c0 236.587 184.651 431.695 419.764 445.456 0.893 0.052 1.787 0.078 2.681 0.078zM539.009 378.495v-287.177h-44.181v287.177h44.181z" />
<glyph unicode="&#x2194;" glyph-name="arrow-left-right" data-tags="arrow-left-right" d="M292.596 533.836l24.507-36.761-184.498-122.999 184.498-122.999-24.507-36.761-190.013 126.675c-18.272 12.182-23.21 36.869-11.028 55.141 2.496 3.744 5.606 7.033 9.195 9.73l1.834 1.298 190.013 126.675zM741.242 533.836l190.013-126.675c18.272-12.182 23.21-36.869 11.028-55.141-2.496-3.744-5.606-7.033-9.195-9.73l-1.834-1.298-190.013-126.675-24.507 36.761 184.489 122.999-184.489 122.999 24.507 36.761zM799.678 396.167v-44.181h-565.518v44.181h565.518z" />
<glyph unicode="&#x2195;" glyph-name="arrow-up-down" data-tags="arrow-up-down" d="M639.918 174.261l36.761-24.507-126.675-190.013c-2.912-4.368-6.661-8.116-11.028-11.028-17.718-11.813-41.469-7.527-54 9.404l-1.141 1.625-126.675 190.013 36.761 24.507 122.99-184.489 123.008 184.489zM539.009 656.835v-565.518h-44.181v565.518h44.181zM548.862 790.037l1.141-1.625 126.675-190.013-36.761-24.507-122.999 184.498-122.999-184.498-36.761 24.507 126.675 190.013c2.912 4.368 6.661 8.116 11.028 11.028 17.718 11.813 41.469 7.527 54-9.404z" />
<glyph unicode="&#x219e;" glyph-name="indent-decrease" data-tags="indent-decrease" d="M870.367 749.616c51.241 0 92.781-41.54 92.781-92.781 0-50.401-40.188-91.415-90.268-92.747l-2.512-0.033h-706.897c-26.84 0-48.599-21.758-48.599-48.599 0-26.186 20.71-47.534 46.645-48.56l1.955-0.039h424.138c51.241 0 92.781-41.54 92.781-92.781 0-50.401-40.188-91.415-90.268-92.747l-2.512-0.033h-424.138c-26.84 0-48.599-21.758-48.599-48.599 0-26.186 20.71-47.534 46.645-48.56l1.955-0.039h424.138c50.401 0 91.415-40.188 92.747-90.268l0.033-2.512v-70.69h-44.181v70.69c0 26.186-20.71 47.534-46.645 48.56l-1.955 0.039h-424.138c-51.241 0-92.781 41.54-92.781 92.781 0 50.401 40.188 91.415 90.268 92.747l2.512 0.033h424.138c26.84 0 48.599 21.758 48.599 48.599 0 26.186-20.71 47.534-46.645 48.56l-1.955 0.039h-424.138c-51.241 0-92.781 41.54-92.781 92.781 0 50.401 40.188 91.415 90.268 92.747l2.512 0.033h706.897c26.84 0 48.599 21.758 48.599 48.599 0 26.186-20.71 47.534-46.645 48.56l-1.955 0.039h-777.587v44.181h777.587zM913.021 499.053l22.731-37.885-145.155-87.083 111.699-67.022v102.359h44.181v-125.773l-0.046-1.697c-0.881-16.291-14.37-29.23-30.881-29.23-4.905 0-9.729 1.166-14.078 3.39l-1.834 1.017-139.761 83.914c-17.508 11.711-22.918 35.231-11.962 53.491 2.938 4.897 6.892 9.095 11.583 12.318l2.055 1.32 151.468 90.881z" />
<glyph unicode="&#x21a0;" glyph-name="indent-increase" data-tags="indent-increase" d="M870.367 749.616c51.241 0 92.781-41.54 92.781-92.781 0-50.401-40.188-91.415-90.268-92.747l-2.512-0.033h-424.138c-26.84 0-48.599-21.758-48.599-48.599 0-26.186 20.71-47.534 46.645-48.56l1.955-0.039h424.138c51.241 0 92.781-41.54 92.781-92.781 0-50.401-40.188-91.415-90.268-92.747l-2.512-0.033h-424.138c-26.84 0-48.599-21.758-48.599-48.599 0-26.186 20.71-47.534 46.645-48.56l1.955-0.039h424.138c50.401 0 91.415-40.188 92.747-90.268l0.033-2.512v-70.69h-44.181v70.69c0 26.186-20.71 47.534-46.645 48.56l-1.955 0.039h-424.138c-51.241 0-92.781 41.54-92.781 92.781 0 50.401 40.188 91.415 90.268 92.747l2.512 0.033h424.138c26.84 0 48.599 21.758 48.599 48.599 0 26.186-20.71 47.534-46.645 48.56l-1.955 0.039h-424.138c-51.241 0-92.781 41.54-92.781 92.781 0 50.401 40.188 91.415 90.268 92.747l2.512 0.033h424.138c26.84 0 48.599 21.758 48.599 48.599 0 26.186-20.71 47.534-46.645 48.56l-1.955 0.039h-777.587v44.181h777.587zM104.146 499.053l151.468-90.881c5.596-3.358 10.281-8.042 13.638-13.638 10.956-18.26 5.546-41.781-11.962-53.491l-1.677-1.063-138.085-82.851c-4.807-2.884-10.306-4.407-15.912-4.407-16.511 0-30 12.939-30.881 29.23l-0.046 1.697v125.773h44.181v-102.359l111.699 67.022-145.155 87.083 22.731 37.885z" />
<glyph unicode="&#x21a5;" glyph-name="square-arrow-up" data-tags="square-arrow-up" d="M410.884 502.201v-44.181h-106.035c-26.186 0-47.534-20.71-48.56-46.645l-0.039-1.955v-388.794c0-26.186 20.71-47.534 46.645-48.56l1.955-0.039h424.138c26.186 0 47.534 20.71 48.56 46.645l0.039 1.955v388.794c0 26.186-20.71 47.534-46.645 48.56l-1.955 0.039h-106.035v44.181h106.035c50.401 0 91.415-40.188 92.747-90.268l0.033-2.512v-388.794c0-50.401-40.188-91.415-90.268-92.747l-2.512-0.033h-424.138c-50.401 0-91.415 40.188-92.747 90.268l-0.033 2.512v388.794c0 50.401 40.188 91.415 90.268 92.747l2.512 0.033h106.035zM539.009 656.835v-424.138h-44.181v424.138h44.181zM543.552 802.749l1.483-1.41 199.573-199.573-31.241-31.241-196.449 196.454-196.449-196.454-31.241 31.241 199.573 199.573c15.043 15.043 39.141 15.513 54.749 1.41z" />
<glyph unicode="&#x21a9;" glyph-name="backward-step" data-tags="backward-step" d="M539.009 637.097c0-17.081-13.847-30.927-30.927-30.927-4.905 0-9.729 1.166-14.078 3.39l-1.834 1.017-138.085 82.851c-18.831 11.299-24.937 35.724-13.638 54.554 2.938 4.897 6.892 9.095 11.583 12.318l2.055 1.32 151.468 90.881 22.731-37.885-145.164-87.083 111.707-67.022v89.104h304.85c50.401 0 91.415-40.188 92.747-90.268l0.033-2.512v-565.518c0-50.401-40.188-91.415-90.268-92.747l-2.512-0.033h-565.518c-50.401 0-91.415 40.188-92.747 90.268l-0.033 2.512v565.518c0 50.401 40.188 91.415 90.268 92.747l2.512 0.033v-44.181c-26.186 0-47.534-20.71-48.56-46.645l-0.039-1.955v-565.518c0-26.186 20.71-47.534 46.645-48.56l1.955-0.039h565.518c26.186 0 47.534 20.71 48.56 46.645l0.039 1.955v565.518c0 26.186-20.71 47.534-46.645 48.56l-1.955 0.039h-260.669v-68.338z" />
<glyph unicode="&#x21aa;" glyph-name="forward-step" data-tags="forward-step" d="M494.828 637.097c0-17.081 13.847-30.927 30.927-30.927 4.905 0 9.729 1.166 14.078 3.39l1.834 1.017 138.598 83.159c18.831 11.299 24.937 35.723 13.638 54.554-2.828 4.714-6.598 8.783-11.066 11.957l-1.957 1.305-152.255 95.159-23.416-37.466 146.142-91.331-112.344-67.403v89.104h-304.85c-50.401 0-91.415-40.188-92.747-90.268l-0.033-2.512v-565.518c0-50.401 40.188-91.415 90.268-92.747l2.512-0.033h565.518c50.401 0 91.415 40.188 92.747 90.268l0.033 2.512v565.518c0 50.401-40.188 91.415-90.268 92.747l-2.512 0.033v-44.181c26.186 0 47.534-20.71 48.56-46.645l0.039-1.955v-565.518c0-26.186-20.71-47.534-46.645-48.56l-1.955-0.039h-565.518c-26.186 0-47.534 20.71-48.56 46.645l-0.039 1.955v565.518c0 26.186 20.71 47.534 46.645 48.56l1.955 0.039h260.669v-68.338z" />
<glyph unicode="&#x21ba;" glyph-name="undo" data-tags="undo" d="M658.298 608.236c129.323 0 234.16-104.836 234.16-234.16 0-128.030-102.75-232.061-230.288-234.129l-3.872-0.031h-353.448v44.181h353.448c104.922 0 189.979 85.056 189.979 189.979 0 103.873-83.363 188.276-186.837 189.954l-3.142 0.025h-353.448v44.181h353.448zM363.286 745.905l24.507-36.761-184.498-122.999 184.498-122.999-24.507-36.761-190.013 126.675c-18.272 12.182-23.21 36.869-11.028 55.141 2.496 3.744 5.606 7.033 9.195 9.73l1.834 1.298 190.013 126.675z" />
<glyph unicode="&#x21bb;" glyph-name="redo" data-tags="redo" d="M751.078 608.236v-44.181l-356.59-0.025c-103.473-1.678-186.837-86.080-186.837-189.954s83.363-188.276 186.837-189.954l3.142-0.025h353.448v-44.181l-357.321 0.031c-127.537 2.068-230.288 106.099-230.288 234.129s102.75 232.061 230.288 234.129l3.872 0.031h353.448zM674.897 745.905l191.846-127.974c3.589-2.697 6.699-5.986 9.195-9.73 11.813-17.718 7.527-41.469-9.404-54l-1.625-1.141-190.013-126.675-24.507 36.761 184.498 122.999-184.498 122.999 24.507 36.761z" />
<glyph unicode="&#x21f9;" glyph-name="text-size" data-tags="text-size" horiz-adv-x="1034" d="M286.766 495.845c8.921-2.663 16.020-9.371 19.213-18.040l0.586-1.759 134.323-449.984-42.335-12.637-120.211 402.702-55.182-184.845h90.527v-44.181h-103.719l-51.838-173.677-42.353 12.577 60.639 205.28h0.627l73.075 244.764c4.653 15.587 21.061 24.452 36.649 19.798zM711.366 726.396c9.372-2.812 16.824-9.878 20.16-19.002l0.577-1.735 203.606-678.686-42.317-12.695-190.91 636.378-97.56-325.182h150.578v-44.181h-163.832l-80.095-267.016-42.336 12.634 88.636 298.563h0.925l114.063 380.183c4.908 16.36 22.15 25.644 38.51 20.735z" />
<glyph unicode="&#x2202;" glyph-name="quote" data-tags="quote" d="M304.85 714.271c108.704 0 197.032-87.241 198.788-195.527l0.027-3.288v-203.232c0-152.187-122.137-275.845-274.357-278.295l-4.622-0.037-2.197 0.073c-24.983 1.447-44.729 21.66-45.725 46.543l-0.039 1.974v88.362c0 26.186 20.71 47.534 46.405 48.559l4.435 0.066c25.203 0.589 48.617 11.174 65.669 29.076l2.015 2.183 32.928-29.457c-24.493-27.38-58.877-44.041-96.32-45.851l-3.519-0.126-3.016-0.034c-2.169 0-3.973-1.563-4.347-3.624l-0.071-0.794v-88.362c0-2.080 1.448-3.841 2.94-4.281l0.559-0.101 0.92-0.036c128.030 0 232.061 102.75 234.129 230.288l0.031 3.872v203.232c0 85.401-69.232 154.634-154.634 154.634s-154.634-69.232-154.634-154.634c0-85.401 69.232-154.634 154.634-154.634 9.326 0 18.535 0.823 27.558 2.444l4.495 0.877 9.106-43.232c-13.442-2.832-27.216-4.27-41.16-4.27-109.802 0-198.815 89.013-198.815 198.815s89.013 198.815 198.815 198.815zM728.988 714.271c108.704 0 197.032-87.241 198.788-195.527l0.027-3.288v-203.232c0-152.187-122.137-275.845-274.357-278.295l-4.622-0.037-2.197 0.073c-24.983 1.447-44.729 21.66-45.725 46.543l-0.039 1.974v88.362c0 26.186 20.71 47.534 46.405 48.559l4.435 0.066c25.203 0.589 48.617 11.174 65.669 29.076l2.015 2.183 32.928-29.457c-24.493-27.38-58.877-44.041-96.32-45.851l-3.519-0.126-3.016-0.034c-2.169 0-3.973-1.563-4.347-3.624l-0.071-0.794v-88.362c0-2.080 1.448-3.841 2.94-4.281l0.559-0.101 0.92-0.036c128.030 0 232.061 102.75 234.129 230.288l0.031 3.872v203.232c0 85.401-69.232 154.634-154.634 154.634s-154.634-69.232-154.634-154.634c0-85.401 69.232-154.634 154.634-154.634 9.326 0 18.535 0.823 27.558 2.444l4.495 0.877 9.106-43.232c-13.442-2.832-27.216-4.27-41.16-4.27-109.802 0-198.815 89.013-198.815 198.815s89.013 198.815 198.815 198.815z" />
<glyph unicode="&#x2206;" glyph-name="filter-off" data-tags="filter-off" d="M108.401 813.835l848.276-848.276-31.241-31.241-848.276 848.276 31.241 31.241zM516.919 325.477v-44.181h-141.379c-26.84 0-48.599-21.758-48.599-48.599 0-26.186 20.71-47.534 46.645-48.56l1.955-0.039h35.345c69.83 0 126.614-55.864 128.095-125.339l0.030-2.786v-39.763h-44.181v39.763c0 45.561-36.298 82.646-81.554 83.911l-2.39 0.033h-35.345c-51.241 0-92.781 41.54-92.781 92.781 0 50.401 40.188 91.415 90.268 92.747l2.512 0.033h141.379zM728.988 466.857c51.241 0 92.781-41.54 92.781-92.781 0-50.401-40.188-91.415-90.268-92.747l-2.512-0.033h-70.69v44.181h70.69c26.84 0 48.599 21.758 48.599 48.599 0 26.186-20.71 47.534-46.645 48.56l-1.955 0.039h-212.069v44.181h212.069zM234.16 608.236v-44.181c-26.84 0-48.599-21.758-48.599-48.599 0-26.186 20.71-47.534 46.645-48.56l1.955-0.039h141.379v-44.181h-141.379c-51.241 0-92.781 41.54-92.781 92.781s41.54 92.781 92.781 92.781zM870.367 749.616c51.241 0 92.781-41.54 92.781-92.781 0-50.401-40.188-91.415-90.268-92.747l-2.512-0.033h-494.828v44.181h494.828c26.84 0 48.599 21.758 48.599 48.599 0 26.186-20.71 47.534-46.645 48.56l-1.955 0.039h-636.207v44.181h636.207z" />
<glyph unicode="&#x2207;" glyph-name="filter" data-tags="filter" d="M870.367 749.616c51.241 0 92.781-41.54 92.781-92.781 0-50.401-40.188-91.415-90.268-92.747l-2.512-0.033h-636.207c-26.84 0-48.599-21.758-48.599-48.599 0-26.186 20.71-47.534 46.645-48.56l1.955-0.039h494.828c51.241 0 92.781-41.54 92.781-92.781 0-50.401-40.188-91.415-90.268-92.747l-2.512-0.033h-353.448c-26.84 0-48.599-21.758-48.599-48.599 0-26.186 20.71-47.534 46.645-48.56l1.955-0.039h35.345c69.83 0 126.614-55.864 128.095-125.339l0.030-2.786v-39.763h-44.181v39.763c0 45.561-36.298 82.646-81.554 83.911l-2.39 0.033h-35.345c-51.241 0-92.781 41.54-92.781 92.781 0 50.401 40.188 91.415 90.268 92.747l2.512 0.033h353.448c26.84 0 48.599 21.758 48.599 48.599 0 26.186-20.71 47.534-46.645 48.56l-1.955 0.039h-494.828c-51.241 0-92.781 41.54-92.781 92.781 0 50.401 40.188 91.415 90.268 92.747l2.512 0.033h636.207c26.84 0 48.599 21.758 48.599 48.599 0 26.186-20.71 47.534-46.645 48.56l-1.955 0.039h-777.587v44.181h777.587z" />
<glyph unicode="&#x2229;" glyph-name="two-circles-joined" data-tags="two-circles-joined" d="M658.298 723.107c187.884 0 340.194-152.31 340.194-340.194s-152.31-340.194-340.194-340.194c-187.884 0-340.194 152.31-340.194 340.194 0 95.334 39.453 184.377 107.555 248.217l3.487 3.224 29.768-32.647c-61.154-55.762-96.63-134.401-96.63-218.796 0-115.547 66.204-215.632 162.749-264.39 89.8 52.611 146.519 149.057 146.519 255.555 0 163.484-132.529 296.013-296.013 296.013s-296.013-132.529-296.013-296.013c0-163.484 132.529-296.013 296.013-296.013 20.829 0 41.364 2.148 61.384 6.368l5.99 1.328 10.013-43.031c-25.183-5.86-51.099-8.846-77.388-8.846-187.884 0-340.194 152.31-340.194 340.194s152.31 340.194 340.194 340.194c187.884 0 340.194-152.31 340.194-340.194 0-110.911-53.553-212.359-140.389-275.389 26.316-7.675 54.155-11.789 82.954-11.789 163.484 0 296.013 132.529 296.013 296.013s-132.529 296.013-296.013 296.013c-19.26 0-38.27-1.837-56.857-5.45l-6.179-1.27-9.361 43.178c23.615 5.12 47.845 7.725 72.397 7.725z" />
<glyph unicode="&#x2243;" glyph-name="closed-captions" data-tags="closed-captions" d="M728.988 678.926c31.031 0 56.315-24.609 57.399-55.375l0.036-2.060v-128.125h-92.781c-65.881 0-119.288-53.407-119.288-119.288 0-64.966 51.935-117.803 116.551-119.258l2.738-0.031h70.69v-44.181h-70.69c-90.282 0-163.47 73.188-163.47 163.47 0 89.29 71.588 161.859 160.5 163.444l2.97 0.026h48.599v83.944c0 6.89-5.256 12.551-11.978 13.194l-1.276 0.061h-565.518c-26.186 0-47.534-20.71-48.56-46.645l-0.039-1.955v-424.138c0-26.186 20.71-47.534 46.645-48.56l1.955-0.039h706.897c26.186 0 47.534 20.71 48.56 46.645l0.039 1.955v428.557c0 23.758-18.753 43.137-42.264 44.14l-1.917 0.041v44.181c47.974 0 87.018-38.231 88.328-85.889l0.034-2.473v-428.557c0-50.401-40.188-91.415-90.268-92.747l-2.512-0.033h-706.897c-50.401 0-91.415 40.188-92.747 90.268l-0.033 2.512v424.138c0 50.401 40.188 91.415 90.268 92.747l2.512 0.033h565.518zM481.573 537.547v-44.181h-70.69c-65.881 0-119.288-53.407-119.288-119.288 0-64.966 51.935-117.803 116.551-119.258l2.738-0.031h70.69v-44.181h-70.69c-90.282 0-163.47 73.188-163.47 163.47 0 89.29 71.588 161.859 160.5 163.444l2.97 0.026h70.69z" />
<glyph unicode="&#x2244;" glyph-name="closed-captions-off" data-tags="closed-captions-off" d="M108.401 813.835l848.276-848.276-31.241-31.241-848.276 848.276 31.241 31.241zM874.785 678.926c47.974 0 87.018-38.231 88.328-85.889l0.034-2.473v-428.557c0-50.401-40.188-91.415-90.268-92.747l-2.512-0.033v44.181c26.186 0 47.534 20.71 48.56 46.645l0.039 1.955v428.557c0 23.758-18.753 43.137-42.264 44.14l-1.917 0.041v44.181zM163.47 678.926v-44.181c-26.186 0-47.534-20.71-48.56-46.645l-0.039-1.955v-424.138c0-26.186 20.71-47.534 46.645-48.56l1.955-0.039h565.518v-44.181h-565.518c-50.401 0-91.415 40.188-92.747 90.268l-0.033 2.512v424.138c0 51.241 41.54 92.781 92.781 92.781zM290.292 484.441l32.585-29.836c-20.011-21.854-31.283-50.282-31.283-80.529 0-64.966 51.935-117.803 116.551-119.258l2.738-0.031h70.69v-44.181h-70.69c-90.282 0-163.47 73.188-163.47 163.47 0 41.4 15.48 80.443 42.879 110.365zM764.332 254.788v-44.181h-35.345v44.181h35.345zM728.988 678.926c31.031 0 56.315-24.609 57.399-55.375l0.036-2.060v-128.125h-92.781c-51.307 0-96.306-32.688-112.758-80.241l-0.885-2.657-42.080 13.462c21.155 66.127 82.196 112.183 152.424 113.585l3.298 0.033h48.599v83.944c0 6.89-5.256 12.551-11.978 13.194l-1.276 0.061h-424.138v44.181h424.138zM481.573 537.547v-44.181h-35.345v44.181h35.345z" />
<glyph unicode="&#x2254;" glyph-name="icon-list" data-tags="icon-list" d="M132.543 223.861c31.031 0 56.315-24.609 57.399-55.375l0.036-2.060h-44.181c0 7.32-5.934 13.254-13.254 13.254s-13.254-5.934-13.254-13.254c0-6.89 5.256-12.551 11.978-13.194l1.276-0.061v-44.181c-31.721 0-57.435 25.715-57.435 57.435s25.715 57.435 57.435 57.435zM945.475 188.516v-44.181h-711.316v44.181h711.316zM132.543 435.93c31.031 0 56.315-24.609 57.399-55.375l0.036-2.060h-44.181c0 7.32-5.934 13.254-13.254 13.254s-13.254-5.934-13.254-13.254c0-6.89 5.256-12.551 11.978-13.194l1.276-0.061v-44.181c-31.721 0-57.435 25.715-57.435 57.435s25.715 57.435 57.435 57.435zM945.475 400.585v-44.181h-711.316v44.181h711.316zM132.543 647.999c31.031 0 56.315-24.609 57.399-55.375l0.036-2.060h-44.181c0 7.32-5.934 13.254-13.254 13.254s-13.254-5.934-13.254-13.254c0-6.89 5.256-12.551 11.978-13.194l1.276-0.061v-44.181c-31.721 0-57.435 25.715-57.435 57.435s25.715 57.435 57.435 57.435zM945.475 612.654v-44.181h-711.316v44.181h711.316z" />
<glyph unicode="&#x2261;" glyph-name="icon-capture-code" data-tags="icon-capture-code" d="M870.367 749.616c51.241 0 92.781-41.54 92.781-92.781 0-50.401-40.188-91.415-90.268-92.747l-2.512-0.033h-706.897c-26.84 0-48.599-21.758-48.599-48.599 0-26.186 20.71-47.534 46.645-48.56l1.955-0.039h706.897c51.241 0 92.781-41.54 92.781-92.781 0-50.401-40.188-91.415-90.268-92.747l-2.512-0.033h-706.897c-26.84 0-48.599-21.758-48.599-48.599 0-26.186 20.71-47.534 46.645-48.56l1.955-0.039h353.448c89.29 0 161.859-71.588 163.444-160.5l0.026-2.97h-44.181c0 64.966-51.935 117.803-116.551 119.258l-2.738 0.031h-353.448c-51.241 0-92.781 41.54-92.781 92.781 0 50.401 40.188 91.415 90.268 92.747l2.512 0.033h706.897c26.84 0 48.599 21.758 48.599 48.599 0 26.186-20.71 47.534-46.645 48.56l-1.955 0.039h-706.897c-51.241 0-92.781 41.54-92.781 92.781 0 50.401 40.188 91.415 90.268 92.747l2.512 0.033h706.897c26.84 0 48.599 21.758 48.599 48.599 0 26.186-20.71 47.534-46.645 48.56l-1.955 0.039h-777.587v44.181h777.587z" />
<glyph unicode="&#x2262;" glyph-name="icon-dont-capture-code" data-tags="icon-dont-capture-code" d="M103.983 818.253l848.276-848.276-31.241-31.241-848.276 848.276 31.241 31.241zM516.919 325.477v-44.181h-353.448c-26.84 0-48.599-21.758-48.599-48.599 0-26.186 20.71-47.534 46.645-48.56l1.955-0.039h353.448c89.29 0 161.859-71.588 163.444-160.5l0.026-2.97h-44.181c0 64.966-51.935 117.803-116.551 119.258l-2.738 0.031h-353.448c-51.241 0-92.781 41.54-92.781 92.781 0 50.401 40.188 91.415 90.268 92.747l2.512 0.033h353.448zM870.367 466.857c51.241 0 92.781-41.54 92.781-92.781 0-50.401-40.188-91.415-90.268-92.747l-2.512-0.033h-212.069v44.181h212.069c26.84 0 48.599 21.758 48.599 48.599 0 26.186-20.71 47.534-46.645 48.56l-1.955 0.039h-353.448v44.181h353.448zM234.16 608.236v-44.181h-70.69c-26.84 0-48.599-21.758-48.599-48.599 0-26.186 20.71-47.534 46.645-48.56l1.955-0.039h212.069v-44.181h-212.069c-51.241 0-92.781 41.54-92.781 92.781 0 50.401 40.188 91.415 90.268 92.747l2.512 0.033h70.69zM870.367 749.616c51.241 0 92.781-41.54 92.781-92.781 0-50.401-40.188-91.415-90.268-92.747l-2.512-0.033h-494.828v44.181h494.828c26.84 0 48.599 21.758 48.599 48.599 0 26.186-20.71 47.534-46.645 48.56l-1.955 0.039h-636.207v44.181h636.207z" />
<glyph unicode="&#x2263;" glyph-name="lines" data-tags="lines" d="M949.894 78.063v-44.181h-857.113v44.181h857.113zM941.057 290.132v-44.181h-848.276v44.181h848.276zM949.894 502.201v-44.181h-857.113v44.181h857.113zM949.894 714.271v-44.181h-857.113v44.181h857.113z" />
<glyph unicode="&#x2276;" glyph-name="ascending-sort" data-tags="ascending-sort" d="M114.871 727.525v-70.69c0-26.186 20.71-47.534 46.645-48.56l1.955-0.039h141.379c51.241 0 92.781-41.54 92.781-92.781 0-50.401-40.188-91.415-90.268-92.747l-2.512-0.033h-141.379c-26.84 0-48.599-21.758-48.599-48.599 0-26.186 20.71-47.534 46.645-48.56l1.955-0.039h424.138c51.241 0 92.781-41.54 92.781-92.781 0-50.401-40.188-91.415-90.268-92.747l-2.512-0.033h-424.138c-26.84 0-48.599-21.758-48.599-48.599 0-26.186 20.71-47.534 46.645-48.56l1.955-0.039h777.587v-44.181h-777.587c-51.241 0-92.781 41.54-92.781 92.781 0 50.401 40.188 91.415 90.268 92.747l2.512 0.033h424.138c26.84 0 48.599 21.758 48.599 48.599 0 26.186-20.71 47.534-46.645 48.56l-1.955 0.039h-424.138c-51.241 0-92.781 41.54-92.781 92.781 0 50.401 40.188 91.415 90.268 92.747l2.512 0.033h141.379c26.84 0 48.599 21.758 48.599 48.599 0 26.186-20.71 47.534-46.645 48.56l-1.955 0.039h-141.379c-50.401 0-91.415 40.188-92.747 90.268l-0.033 2.512v70.69h44.181zM821.769 515.456v-282.759h-44.181v282.759h44.181zM831.621 648.656l1.141-1.625 126.675-190.013-36.761-24.507-122.999 184.498-122.999-184.498-36.761 24.507 126.675 190.013c2.912 4.368 6.661 8.116 11.028 11.028 17.718 11.813 41.469 7.527 54-9.404z" />
<glyph unicode="&#x2277;" glyph-name="descending-sort" data-tags="descending-sort" d="M941.057 727.525v-44.181l-779.541-0.039c-25.934-1.026-46.645-22.375-46.645-48.56s20.71-47.534 46.645-48.56l1.955-0.039 426.651-0.033c50.080-1.331 90.268-42.345 90.268-92.747s-40.188-91.415-90.268-92.747l-2.512-0.033-426.093-0.039c-25.934-1.026-46.645-22.375-46.645-48.56s20.71-47.534 46.645-48.56l1.955-0.039 143.892-0.033c50.080-1.331 90.268-42.345 90.268-92.747s-40.188-91.415-90.268-92.747l-2.512-0.033-143.334-0.039c-25.27-1-45.58-21.293-46.604-46.556l-0.041-2.005v-70.69h-44.181v70.69l0.033 2.512c1.309 49.245 40.99 88.926 90.235 90.235l2.512 0.033 143.334 0.039c25.934 1.026 46.645 22.375 46.645 48.56s-20.71 47.534-46.645 48.56l-1.955 0.039-143.892 0.033c-50.080 1.331-90.268 42.345-90.268 92.747s40.188 91.415 90.268 92.747l2.512 0.033 426.093 0.039c25.934 1.026 46.645 22.375 46.645 48.56s-20.71 47.534-46.645 48.56l-1.955 0.039-426.651 0.033c-50.080 1.331-90.268 42.345-90.268 92.747s40.188 91.415 90.268 92.747l2.512 0.033h777.587zM922.676 315.64l36.761-24.507-126.675-190.013c-12.182-18.272-36.869-23.21-55.141-11.028-3.744 2.496-7.033 5.606-9.73 9.195l-1.298 1.834-126.675 190.013 36.761 24.507 122.999-184.489 122.999 184.489zM821.769 515.456v-282.759h-44.181v282.759h44.181z" />
<glyph unicode="&#x2278;" glyph-name="sort-off" data-tags="sort-off" d="M108.401 813.835l848.276-848.276-31.241-31.241-848.276 848.276 31.241 31.241zM375.539 466.857v-44.181h-212.069c-26.84 0-48.599-21.758-48.599-48.599 0-26.186 20.71-47.534 46.645-48.56l1.955-0.039h141.379c51.241 0 92.781-41.54 92.781-92.781 0-50.401-40.188-91.415-90.268-92.747l-2.512-0.033h-141.379c-26.186 0-47.534-20.71-48.56-46.645l-0.039-1.955v-70.69h-44.181v70.69c0 50.401 40.188 91.415 90.268 92.747l2.512 0.033h141.379c26.84 0 48.599 21.758 48.599 48.599 0 26.186-20.71 47.534-46.645 48.56l-1.955 0.039h-141.379c-51.241 0-92.781 41.54-92.781 92.781 0 50.401 40.188 91.415 90.268 92.747l2.512 0.033h212.069zM587.608 608.236c51.241 0 92.781-41.54 92.781-92.781 0-50.401-40.188-91.415-90.268-92.747l-2.512-0.033h-70.69v44.181h70.69c26.84 0 48.599 21.758 48.599 48.599 0 26.186-20.71 47.534-46.645 48.56l-1.955 0.039h-212.069v44.181h212.069zM114.871 656.835c0-26.186 20.71-47.534 46.645-48.56l1.955-0.039h70.69v-44.181h-70.69c-50.401 0-91.415 40.188-92.747 90.268l-0.033 2.512h44.181zM941.057 749.616v-44.181h-706.897v44.181h706.897z" />
<glyph unicode="&#x2280;" glyph-name="icon-preview-off" data-tags="icon-preview-off" d="M99.625 820.305l848.276-848.276-31.241-31.241-848.276 848.276 31.241 31.241zM364.674 458.954l38.753-21.218c-8.922-16.295-13.923-34.464-14.513-53.394l-0.059-3.796c0-58.951 14.265-107.218 36.853-140.499l22.092 37.574c18.141-10.663 38.8-16.363 60.345-16.363 16.679 0 32.837 3.413 47.738 9.93l3.416 1.559 18.974-39.9c-21.731-10.334-45.565-15.769-70.127-15.769-28.067 0-55.146 7.102-79.155 20.413l-2.501 1.419c21.615-31.256 50.662-48.972 82.067-49.473 36.295-0.58 70.569 4.89 103.464 16.337l5.47 1.963 15.327-41.437c-39.704-14.685-81.199-21.737-124.966-21.039-91.306 1.457-161.754 95.979-163.154 231.177l-0.021 4.109c0 27.758 6.945 54.561 20.001 78.408zM283.316 539.97l24.507-36.761-184.002-122.654 205.42-136.95c12.962-8.641 26.468-16.299 40.428-22.94l6.011-2.784-18.155-40.279c-16.019 7.22-31.535 15.601-46.441 25.102l-6.35 4.14-260.552 173.702 239.135 159.424zM703.051 559.75l4.297-2.739 4.205-2.763 260.552-173.702-237.31-158.206-24.507 36.761 182.16 121.446-205.402 136.941c-84.671 56.447-190.529 69.369-285.634 36.013l-4.45-1.598-15.231 41.473c106.281 39.033 225.002 26.823 321.319-33.627zM508.143 544.016c90.282 0 163.47-73.188 163.47-163.47 0-22.768-4.671-44.913-13.587-65.34l-1.84-4.062-39.993 18.776c7.368 15.694 11.238 32.864 11.238 50.625 0 65.881-53.407 119.288-119.288 119.288-16.051 0-31.619-3.16-46.055-9.209l-3.585-1.573-18.409 40.163c21.177 9.706 44.274 14.799 68.048 14.799z" />
<glyph unicode="&#x2299;" glyph-name="blur" data-tags="blur" horiz-adv-x="1034" d="M494.828 798.215h44.181v-754.763l5.086 0.365c168.5 13.678 301.359 153.419 304.137 324.78l0.044 5.479c0 156.289-109.038 290.232-259.341 323.515l-4.567 0.978 8.944 43.266c173.076-35.778 299.145-188.836 299.145-367.759 0-199.108-154.953-362.026-350.848-374.74l-2.602-0.145v-49.253h-44.181v761.054l-1.565 0.756c-4.116 2.067-8.351 4.624-12.75 7.639l-2.66 1.865c-2.529 1.812-5.415 3.064-8.465 3.674-11.398 2.279-22.498-4.726-25.468-15.793l-0.328-1.404c-2.049-10.243-6.28-19.924-12.407-28.386-23.082-31.874-67.203-39.498-99.569-17.622l-2.167 1.521c-1.553 1.124-3.524 1.498-5.38 1.021-3.157-0.812-5.164-3.829-4.794-6.98l0.161-0.861 0.183-0.714c2.91-11.316 2.91-23.184 0-34.5-9.526-37.048-47.283-59.359-84.331-49.833-2.101 0.541-4.334 0.135-6.111-1.109-3.082-2.157-4.025-6.23-2.348-9.483l0.523-0.865 2.211-3.159c6.309-9.014 10.408-19.386 11.964-30.278 5.473-38.315-21.15-73.814-59.466-79.287-1.943-0.277-3.667-1.392-4.717-3.050-1.817-2.868-1.186-6.587 1.341-8.714l0.736-0.539 1.269-0.804c9.19-5.82 16.89-13.709 22.487-23.036 19.816-33.027 9.107-75.866-23.92-95.682-1.882-1.129-3.2-2.999-3.631-5.151-0.779-3.894 1.492-7.69 5.164-8.914l0.946-0.251 1.532-0.306c10.243-2.049 19.924-6.28 28.386-12.407 31.874-23.082 39.498-67.203 17.622-99.569l-1.521-2.167c-1.124-1.553-1.498-3.524-1.021-5.38 0.812-3.157 3.829-5.164 6.98-4.794l0.861 0.161 0.714 0.183c11.316 2.91 23.184 2.91 34.5 0 36.335-9.343 58.495-45.842 50.346-82.193l-0.698-2.852c-0.477-1.856-0.103-3.829 1.021-5.38 1.896-2.619 5.396-3.389 8.181-1.941l0.812 0.501 0.2 0.145c8.461 6.127 18.143 10.358 28.386 12.407 38.648 7.73 76.263-16.727 85.089-54.866l0.468-2.173-43.323-8.664c-3.090 15.45-18.12 25.47-33.57 22.38-3.349-0.67-6.545-1.935-9.439-3.729l-1.899-1.284c-22.644-16.397-54.292-11.333-70.689 11.31-8.345 11.524-11.433 25.993-8.589 39.857l0.564 2.439 0.183 0.714c3.45 13.416-4.63 27.089-18.046 30.54-3.512 0.903-7.172 1.032-10.726 0.387l-1.768-0.387-0.714-0.183c-27.076-6.963-54.67 9.343-61.632 36.42-3.543 13.78-1.116 28.375 6.608 40.232l1.563 2.264c9.241 12.761 6.387 30.599-6.374 39.84-2.767 2.003-5.866 3.49-9.148 4.395l-1.99 0.472-1.532 0.306c-28.144 5.628-46.397 33.008-40.768 61.153 2.712 13.56 10.707 25.446 22.165 33.070l2.057 1.301c12.104 7.262 16.030 22.962 8.767 35.067-1.71 2.849-3.954 5.331-6.603 7.314l-1.638 1.129-1.269 0.804c-23.742 15.037-30.8 46.474-15.763 70.217 7.549 11.92 19.687 20.14 33.48 22.763l2.313 0.385c14.161 2.023 23.999 15.142 21.976 29.303-0.479 3.354-1.611 6.575-3.324 9.484l-1.097 1.706-2.211 3.159c-16.346 23.352-10.667 55.532 12.684 71.878 11.66 8.163 26.141 11.126 40.010 8.268l2.44-0.565c13.416-3.45 27.089 4.63 30.54 18.046 0.903 3.512 1.032 7.172 0.387 10.726l-0.387 1.768-0.183 0.714c-6.963 27.076 9.343 54.67 36.42 61.632 13.78 3.543 28.375 1.116 40.232-6.608l2.264-1.563c12.761-9.241 30.599-6.387 39.84 6.374 2.404 3.319 4.064 7.119 4.868 11.138 7.16 35.799 41.985 59.017 77.785 51.857 5.111-1.022 10.068-2.642 14.772-4.817l2.004-0.979v35.76z" />
<glyph unicode="&#x229a;" glyph-name="blur-off" data-tags="blur-off" d="M108.401 813.835l848.276-848.276-31.241-31.241-848.276 848.276 31.241 31.241zM539.009 303.387v-259.935l3.346 0.229c60.625 4.602 117.961 25.603 166.841 60.496l4.054 2.94 26.207-35.57c-56.893-41.916-124.324-67.001-195.63-72.058l-4.818-0.306v-49.244h-44.181v353.448h44.181zM203.838 606.464l25.336-36.194c-3.082-2.157-4.025-6.23-2.348-9.483l0.523-0.865 2.211-3.159c6.309-9.014 10.408-19.386 11.964-30.278 5.473-38.315-21.15-73.814-59.466-79.287-1.943-0.277-3.667-1.392-4.717-3.050-1.817-2.868-1.186-6.587 1.341-8.714l0.736-0.539 1.269-0.804c9.19-5.82 16.89-13.709 22.487-23.036 19.816-33.027 9.107-75.866-23.92-95.682-1.882-1.129-3.2-2.999-3.631-5.151-0.779-3.894 1.492-7.69 5.164-8.914l0.946-0.251 1.532-0.306c10.243-2.049 19.924-6.28 28.386-12.407 31.874-23.082 39.498-67.203 17.622-99.569l-1.521-2.167c-1.124-1.553-1.498-3.524-1.021-5.38 0.812-3.157 3.829-5.164 6.98-4.794l0.861 0.161 0.714 0.183c11.316 2.91 23.184 2.91 34.5 0 36.335-9.343 58.495-45.842 50.346-82.193l-0.698-2.852c-0.477-1.856-0.103-3.829 1.021-5.38 1.896-2.619 5.396-3.389 8.181-1.941l0.812 0.501 0.2 0.145c8.461 6.127 18.143 10.358 28.386 12.407 38.648 7.73 76.263-16.727 85.089-54.866l0.468-2.173-43.323-8.664c-3.090 15.45-18.12 25.47-33.57 22.38-3.349-0.67-6.545-1.935-9.439-3.729l-1.899-1.284c-22.644-16.397-54.292-11.333-70.689 11.31-8.345 11.524-11.433 25.993-8.589 39.857l0.564 2.439 0.183 0.714c3.45 13.416-4.63 27.089-18.046 30.54-3.512 0.903-7.172 1.032-10.726 0.387l-1.768-0.387-0.714-0.183c-27.076-6.963-54.67 9.343-61.632 36.42-3.543 13.78-1.116 28.375 6.608 40.232l1.563 2.264c9.241 12.761 6.387 30.599-6.374 39.84-2.767 2.003-5.866 3.49-9.148 4.395l-1.99 0.472-1.532 0.306c-28.144 5.628-46.397 33.008-40.768 61.153 2.712 13.56 10.707 25.446 22.165 33.070l2.057 1.301c12.104 7.262 16.030 22.962 8.767 35.067-1.71 2.849-3.954 5.331-6.603 7.314l-1.638 1.129-1.269 0.804c-23.742 15.037-30.8 46.474-15.763 70.217 7.549 11.92 19.687 20.14 33.48 22.763l2.313 0.385c14.161 2.023 23.999 15.142 21.976 29.303-0.479 3.354-1.611 6.575-3.324 9.484l-1.097 1.706-2.211 3.159c-16.346 23.352-10.667 55.532 12.684 71.878zM593.312 741.835c173.076-35.778 299.145-188.836 299.145-367.759 0-80.785-25.6-157.747-72.265-221.522l-3.142-4.232-35.288 26.583c42.933 56.993 66.514 126.266 66.514 199.172 0 156.289-109.038 290.232-259.341 323.515l-4.567 0.978 8.944 43.266zM539.009 798.215v-353.448h-44.181v266.226l-1.565 0.756c-4.116 2.067-8.351 4.624-12.75 7.639l-2.66 1.865c-2.529 1.812-5.415 3.064-8.465 3.674-11.398 2.279-22.498-4.726-25.468-15.793l-0.328-1.404c-2.049-10.243-6.28-19.924-12.407-28.386-23.082-31.874-67.203-39.498-99.569-17.622l-2.167 1.521c-1.293 0.937-2.879 1.352-4.445 1.189l-0.935-0.168-11.003 42.789c13.78 3.543 28.375 1.116 40.232-6.608l2.264-1.563c12.761-9.241 30.599-6.387 39.84 6.374 2.404 3.319 4.064 7.119 4.868 11.138 7.16 35.799 41.985 59.017 77.785 51.857 5.111-1.022 10.068-2.642 14.772-4.817l2.004-0.979v35.76h44.181z" />
<glyph unicode="&#x229e;" glyph-name="grid" data-tags="grid" d="M446.229 820.305v-44.181h-282.759c-26.186 0-47.534-20.71-48.56-46.645l-0.039-1.955v-331.358h379.957v424.138h375.539c50.401 0 91.415-40.188 92.747-90.268l0.033-2.512v-706.897c0-50.401-40.188-91.415-90.268-92.747l-2.512-0.033h-375.539v375.539h44.181v-331.358h331.358c26.186 0 47.534 20.71 48.56 46.645l0.039 1.955v706.897c0 26.186-20.71 47.534-46.645 48.56l-1.955 0.039h-331.358v-424.138h-468.319v375.539c0 50.401 40.188 91.415 90.268 92.747l2.512 0.033h282.759zM114.871 303.387v-282.759c0-26.186 20.71-47.534 46.645-48.56l1.955-0.039h287.177v-44.181h-287.177c-50.401 0-91.415 40.188-92.747 90.268l-0.033 2.512v282.759h44.181zM870.367 396.167v-44.181h-282.759v44.181h282.759z" />
<glyph unicode="&#x229f;" glyph-name="stack-horiz" data-tags="stack-horiz" d="M70.69 444.766h44.181v-189.979h804.095v238.578h-848.276v234.16c0 50.401 40.188 91.415 90.268 92.747l2.512 0.033h706.897c50.401 0 91.415-40.188 92.747-90.268l0.033-2.512v-141.379h-44.181v141.379c0 26.186-20.71 47.534-46.645 48.56l-1.955 0.039h-706.897c-26.186 0-47.534-20.71-48.56-46.645l-0.039-1.955v-189.979h848.276v-326.94h-848.276v-189.979c0-26.186 20.71-47.534 46.645-48.56l1.955-0.039h706.897c26.186 0 47.534 20.71 48.56 46.645l0.039 1.955v141.379h44.181v-141.379c0-50.401-40.188-91.415-90.268-92.747l-2.512-0.033h-706.897c-50.401 0-91.415 40.188-92.747 90.268l-0.033 2.512v424.138z" />
<glyph unicode="&#x22a2;" glyph-name="text-align-left" data-tags="text-align-left" horiz-adv-x="1034" d="M870.367 325.477c51.241 0 92.781-41.54 92.781-92.781 0-50.401-40.188-91.415-90.268-92.747l-2.512-0.033h-706.897c-26.84 0-48.599-21.758-48.599-48.599 0-26.186 20.71-47.534 46.645-48.56l1.955-0.039h282.759c50.401 0 91.415-40.188 92.747-90.268l0.033-2.512h-44.181c0 26.186-20.71 47.534-46.645 48.56l-1.955 0.039h-282.759c-51.241 0-92.781 41.54-92.781 92.781 0 50.401 40.188 91.415 90.268 92.747l2.512 0.033h706.897c26.84 0 48.599 21.758 48.599 48.599 0 26.186-20.71 47.534-46.645 48.56l-1.955 0.039h-777.587v44.181h777.587zM870.367 749.616c51.241 0 92.781-41.54 92.781-92.781 0-50.401-40.188-91.415-90.268-92.747l-2.512-0.033h-706.897c-26.84 0-48.599-21.758-48.599-48.599 0-26.186 20.71-47.534 46.645-48.56l1.955-0.039h353.448v-44.181h-353.448c-51.241 0-92.781 41.54-92.781 92.781 0 50.401 40.188 91.415 90.268 92.747l2.512 0.033h706.897c26.84 0 48.599 21.758 48.599 48.599 0 26.186-20.71 47.534-46.645 48.56l-1.955 0.039h-777.587v44.181h777.587z" />
<glyph unicode="&#x22a3;" glyph-name="text-align-right" data-tags="text-align-right" d="M941.057 325.477v-44.181l-779.541-0.039c-25.934-1.026-46.645-22.375-46.645-48.56s20.71-47.534 46.645-48.56l1.955-0.039 709.41-0.033c50.080-1.331 90.268-42.345 90.268-92.747s-40.188-91.415-90.268-92.747l-2.512-0.033-284.713-0.039c-25.27-1-45.58-21.293-46.604-46.556l-0.041-2.005h-44.181l0.033 2.512c1.309 49.245 40.99 88.926 90.235 90.235l2.512 0.033 284.713 0.039c25.934 1.026 46.645 22.375 46.645 48.56s-20.71 47.534-46.645 48.56l-1.955 0.039-709.41 0.033c-50.080 1.331-90.268 42.345-90.268 92.747s40.188 91.415 90.268 92.747l2.512 0.033h777.587zM941.057 749.616v-44.181l-779.541-0.039c-25.934-1.026-46.645-22.375-46.645-48.56s20.71-47.534 46.645-48.56l1.955-0.039 709.41-0.033c50.080-1.331 90.268-42.345 90.268-92.747s-40.188-91.415-90.268-92.747l-2.512-0.033h-353.448v44.181l355.403 0.039c25.934 1.026 46.645 22.375 46.645 48.56s-20.71 47.534-46.645 48.56l-1.955 0.039-709.41 0.033c-50.080 1.331-90.268 42.345-90.268 92.747s40.188 91.415 90.268 92.747l2.512 0.033h777.587z" />
<glyph unicode="&#x22a4;" glyph-name="text-align-center" data-tags="text-align-center" horiz-adv-x="1034" d="M870.367 325.477c51.241 0 92.781-41.54 92.781-92.781 0-50.401-40.188-91.415-90.268-92.747l-2.512-0.033h-494.828c-26.84 0-48.599-21.758-48.599-48.599 0-26.186 20.71-47.534 46.645-48.56l1.955-0.039h353.448v-44.181h-353.448c-51.241 0-92.781 41.54-92.781 92.781 0 50.401 40.188 91.415 90.268 92.747l2.512 0.033h494.828c26.84 0 48.599 21.758 48.599 48.599 0 26.186-20.71 47.534-46.645 48.56l-1.955 0.039h-777.587v44.181h777.587zM963.148 749.616v-44.181l-779.541-0.039c-25.934-1.026-46.645-22.375-46.645-48.56s20.71-47.534 46.645-48.56l1.955-0.039 497.34-0.033c50.080-1.331 90.268-42.345 90.268-92.747s-40.188-91.415-90.268-92.747l-2.512-0.033h-353.448v44.181l355.403 0.039c25.934 1.026 46.645 22.375 46.645 48.56s-20.71 47.534-46.645 48.56l-1.955 0.039-497.34 0.033c-50.080 1.331-90.268 42.345-90.268 92.747s40.188 91.415 90.268 92.747l2.512 0.033h777.587z" />
<glyph unicode="&#x22a8;" glyph-name="text-justify-left" data-tags="text-justify-left" d="M870.367 749.616c51.241 0 92.781-41.54 92.781-92.781 0-50.401-40.188-91.415-90.268-92.747l-2.512-0.033h-706.897c-26.84 0-48.599-21.758-48.599-48.599 0-26.186 20.71-47.534 46.645-48.56l1.955-0.039h706.897c51.241 0 92.781-41.54 92.781-92.781 0-50.401-40.188-91.415-90.268-92.747l-2.512-0.033h-706.897c-26.84 0-48.599-21.758-48.599-48.599 0-26.186 20.71-47.534 46.645-48.56l1.955-0.039h282.759c51.241 0 92.781-41.54 92.781-92.781 0-50.401-40.188-91.415-90.268-92.747l-2.512-0.033h-282.759c-26.186 0-47.534-20.71-48.56-46.645l-0.039-1.955h-44.181c0 50.401 40.188 91.415 90.268 92.747l2.512 0.033h282.759c26.84 0 48.599 21.758 48.599 48.599 0 26.186-20.71 47.534-46.645 48.56l-1.955 0.039h-282.759c-51.241 0-92.781 41.54-92.781 92.781 0 50.401 40.188 91.415 90.268 92.747l2.512 0.033h706.897c26.84 0 48.599 21.758 48.599 48.599 0 26.186-20.71 47.534-46.645 48.56l-1.955 0.039h-706.897c-51.241 0-92.781 41.54-92.781 92.781 0 50.401 40.188 91.415 90.268 92.747l2.512 0.033h706.897c26.84 0 48.599 21.758 48.599 48.599 0 26.186-20.71 47.534-46.645 48.56l-1.955 0.039h-777.587v44.181h777.587z" />
<glyph unicode="&#x22c0;" glyph-name="chevron-up" data-tags="chevron-up" d="M482.554 653.711c18.452 18.452 48.050 18.965 67.122 1.538l1.609-1.538 405.394-405.394-31.241-31.241-405.394 405.394c-1.533 1.533-3.915 1.704-5.637 0.511l-0.612-0.511-405.394-405.394-31.241 31.241 405.394 405.394z" />
<glyph unicode="&#x22c1;" glyph-name="chevron-down" data-tags="chevron-down" d="M925.437 531.077l31.241-31.241-405.394-405.394c-18.452-18.452-48.050-18.965-67.122-1.538l-1.609 1.538-405.394 405.394 31.241 31.241 405.394-405.394c1.533-1.533 3.915-1.704 5.637-0.511l0.612 0.511 405.394 405.394z" />
<glyph unicode="&#x22ee;" glyph-name="three-dots-vert" data-tags="three-dots-vert" d="M530.976 233.14l43.904-4.946-0.629-6.222c-0.748-8.353-1.132-16.944-1.132-25.856 0-33.193 4.757-59.811 14.795-92.384l1.827-5.813 8.236-25.128 1.551-4.894 1.358-4.456 1.225-4.221c3.829-13.56 5.947-25.067 6.301-36.425l0.035-2.168h1.255l-0.033-2.512c-1.331-50.080-42.345-90.268-92.747-90.268-51.241 0-92.781 41.54-92.781 92.781 0 50.401 40.188 91.415 90.268 92.747l2.512 0.033v-44.181l-1.955-0.039c-25.934-1.026-46.645-22.375-46.645-48.56 0-26.84 21.758-48.599 48.599-48.599 26.186 0 47.534 20.71 48.56 46.645l0.012 0.727-1.21-0.008 0.042 4.134-0.010 3.174-0.154 2.273-0.19 1.465-0.284 1.621-0.92 3.97-1.501 5.377-2.219 7.305-11.384 35.742c-12.569 39.277-18.723 71.333-18.723 111.663 0 10.665 0.481 20.975 1.42 31.025l0.618 5.999zM516.919 820.305c50.401 0 91.415-40.188 92.747-90.268l0.033-2.512-0.075-4.317c-0.251-7.198-1.125-14.425-2.585-21.918-1.431-7.349-3.369-14.764-6.047-23.475l-1.193-3.816-8.388-25.343-2.314-7.17c-10.097-32.078-14.742-57.627-14.742-90.685 0-33.193 4.757-59.811 14.795-92.384l2.405-7.613 7.657-23.326 1.551-4.894 1.984-6.583 1.697-6.102c3.099-11.705 4.842-21.939 5.191-32.037l0.065-3.783-0.033-2.512c-1.331-50.080-42.345-90.268-92.747-90.268-51.241 0-92.781 41.54-92.781 92.781 0 50.401 40.188 91.415 90.268 92.747l2.512 0.033v-44.181l-1.955-0.039c-25.934-1.026-46.645-22.375-46.645-48.56 0-26.84 21.758-48.599 48.599-48.599 26.186 0 47.534 20.71 48.56 46.645l0.039 1.955 0.006 1.391 0.048 3.927-0.036 2.358-0.137 1.871-0.194 1.503-0.417 2.272-0.638 2.733-0.902 3.359-1.944 6.582-2.785 8.936-9.623 30.128c-12.569 39.277-18.723 71.333-18.723 111.663 0 38.275 5.471 68.115 16.909 104.353l1.856 5.778 8.021 24.174 1.754 5.528c2.277 7.398 3.857 13.432 4.962 19.104 0.986 5.060 1.575 9.789 1.771 14.373l0.073 3.414-0.039 1.955c-1.026 25.934-22.375 46.645-48.56 46.645-26.84 0-48.599-21.758-48.599-48.599 0-26.186 20.71-47.534 46.645-48.56l1.955-0.039v-44.181l-2.512 0.033c-50.080 1.331-90.268 42.345-90.268 92.747 0 51.241 41.54 92.781 92.781 92.781z" />
<glyph unicode="&#x22ef;" glyph-name="three-dots" data-tags="three-dots" d="M516.919 466.857c51.241 0 92.781-41.54 92.781-92.781 0-50.401-40.188-91.415-90.268-92.747l-2.512-0.033c-11.346 0-22.652 1.771-35.82 5.256l-6.102 1.697-6.583 1.984-4.894 1.551-25.128 8.236c-35.277 11.289-63.052 16.621-98.198 16.621-33.058 0-58.607-4.646-90.685-14.742l-7.17-2.314-25.343-8.388c-10.406-3.306-18.892-5.603-27.291-7.24-7.493-1.459-14.72-2.333-21.918-2.585l-4.317-0.075c-51.241 0-92.781 41.54-92.781 92.781s41.54 92.781 92.781 92.781c50.401 0 91.415-40.188 92.747-90.268l0.033-2.512h-44.181c0 26.84-21.758 48.599-48.599 48.599s-48.599-21.758-48.599-48.599c0-26.186 20.71-47.534 46.645-48.56l1.955-0.039c5.657 0 11.463 0.613 17.788 1.845 5.672 1.105 11.706 2.685 19.104 4.962l5.528 1.754 24.174 8.021c38.898 12.701 69.841 18.763 110.131 18.763 40.33 0 72.385-6.154 111.663-18.723l30.128-9.623 8.936-2.785 6.582-1.944 3.359-0.902 2.733-0.638 2.272-0.417 1.503-0.194 1.871-0.137 2.358-0.036 3.927 0.048 1.391 0.006c26.84 0 48.599 21.758 48.599 48.599s-21.758 48.599-48.599 48.599c-26.186 0-47.534-20.71-48.56-46.645l-0.039-1.955h-44.181c0 51.241 41.54 92.781 92.781 92.781zM834.547 286.553l-6.102 1.697-6.583 1.984-4.894 1.551-25.128 8.236c-35.277 11.289-63.052 16.621-98.198 16.621-8.913 0-17.502-0.384-25.856-1.132l-6.222-0.629-4.946 43.904c11.939 1.345 24.226 2.039 37.024 2.039 40.33 0 72.385-6.154 111.663-18.723l30.128-9.623 8.936-2.785 6.582-1.944 3.359-0.902 2.733-0.638 2.272-0.417 1.503-0.194 1.871-0.137 2.358-0.036 3.927 0.048 1.391 0.006c26.84 0 48.599 21.758 48.599 48.599s-21.758 48.599-48.599 48.599c-26.186 0-47.534-20.71-48.56-46.645l-0.039-1.955h-44.181c0 51.241 41.54 92.781 92.781 92.781s92.781-41.54 92.781-92.781c0-50.401-40.188-91.415-90.268-92.747l-2.512-0.033c-11.346 0-22.652 1.771-35.82 5.256z" />
<glyph unicode="&#x2317;" glyph-name="table" data-tags="table" d="M326.94 91.317v-70.69h-44.181v70.69h44.181zM751.078 91.317v-70.69h-44.181v70.69h44.181zM941.057 184.098v-44.181h-848.276v44.181h848.276zM326.94 303.387v-70.69h-44.181v70.69h44.181zM751.078 303.387v-70.69h-44.181v70.69h44.181zM932.22 396.167v-44.181h-848.276v44.181h848.276zM326.94 515.456v-70.69h-44.181v70.69h44.181zM751.078 515.456v-70.69h-44.181v70.69h44.181zM941.057 608.236v-44.181h-848.276v44.181h848.276zM326.94 727.525v-70.69h-44.181v70.69h44.181zM751.078 727.525v-70.69h-44.181v70.69h44.181z" />
<glyph unicode="&#x2328;" glyph-name="keyboard" data-tags="keyboard" d="M870.367 678.926c50.401 0 91.415-40.188 92.747-90.268l0.033-2.512v-424.138c0-50.401-40.188-91.415-90.268-92.747l-2.512-0.033h-472.738c-31.031 0-56.315 24.609-57.399 55.375l-0.036 2.060v70.69c0 31.031 24.609 56.315 55.375 57.399l2.060 0.036h278.341c20.079 0 36.681-14.882 39.379-34.216l0.127-1.129h27.012l0.136 1.129c2.615 18.73 18.277 33.282 37.508 34.173l1.872 0.043h35.345c21.333 0 38.742-16.799 39.72-37.891l0.043-1.872v-17.672h-44.181v13.254h-26.765l-0.127-1.129c-2.615-18.73-18.277-33.282-37.508-34.173l-1.872-0.043h-35.345c-20.079 0-36.681 14.882-39.379 34.216l-0.136 1.129h-274.17c-6.89 0-12.551-5.256-13.194-11.978l-0.061-1.276v-70.69c0-6.89 5.256-12.551 11.978-13.194l1.276-0.061h472.738c26.186 0 47.534 20.71 48.56 46.645l0.039 1.955v424.138c0 26.186-20.71 47.534-46.645 48.56l-1.955 0.039h-706.897c-26.186 0-47.534-20.71-48.56-46.645l-0.039-1.955v-424.138c0-26.186 20.71-47.534 46.645-48.56l1.955-0.039h70.69v-44.181h-70.69c-50.401 0-91.415 40.188-92.747 90.268l-0.033 2.512v424.138c0 50.401 40.188 91.415 90.268 92.747l2.512 0.033h706.897zM251.832 254.788c21.333 0 38.742-16.799 39.72-37.891l0.043-1.872v-17.672h-44.181v13.254h-26.509v-13.254h-44.181v17.672c0 21.333 16.799 38.742 37.891 39.72l1.872 0.043h35.345zM251.832 413.839c20.079 0 36.681-14.882 39.379-34.216l0.127-1.129h27.012l0.136 1.129c2.615 18.73 18.277 33.282 37.508 34.173l1.872 0.043h35.345c20.079 0 36.681-14.882 39.379-34.216l0.127-1.129h27.012l0.136 1.129c2.615 18.73 18.277 33.282 37.508 34.173l1.872 0.043h35.345c20.079 0 36.681-14.882 39.379-34.216l0.127-1.129h27.012l0.136 1.129c2.615 18.73 18.277 33.282 37.508 34.173l1.872 0.043h35.345c20.079 0 36.681-14.882 39.379-34.216l0.127-1.129h27.012l0.136 1.129c2.615 18.73 18.277 33.282 37.508 34.173l1.872 0.043h35.345c21.333 0 38.742-16.799 39.72-37.891l0.043-1.872v-17.672h-44.181v13.254h-26.765l-0.127-1.129c-2.615-18.73-18.277-33.282-37.508-34.173l-1.872-0.043h-35.345c-20.079 0-36.681 14.882-39.379 34.216l-0.136 1.129h-27.012l-0.127-1.129c-2.615-18.73-18.277-33.282-37.508-34.173l-1.872-0.043h-35.345c-20.079 0-36.681 14.882-39.379 34.216l-0.136 1.129h-27.012l-0.127-1.129c-2.615-18.73-18.277-33.282-37.508-34.173l-1.872-0.043h-35.345c-20.079 0-36.681 14.882-39.379 34.216l-0.136 1.129h-27.012l-0.127-1.129c-2.615-18.73-18.277-33.282-37.508-34.173l-1.872-0.043h-35.345c-20.079 0-36.681 14.882-39.379 34.216l-0.136 1.129h-26.756v-13.254h-44.181v17.672c0 21.333 16.799 38.742 37.891 39.72l1.872 0.043h35.345zM251.832 572.891c20.079 0 36.681-14.882 39.379-34.216l0.127-1.129h27.012l0.136 1.129c2.615 18.73 18.277 33.282 37.508 34.173l1.872 0.043h35.345c20.079 0 36.681-14.882 39.379-34.216l0.127-1.129h27.012l0.136 1.129c2.615 18.73 18.277 33.282 37.508 34.173l1.872 0.043h35.345c20.079 0 36.681-14.882 39.379-34.216l0.127-1.129h27.012l0.136 1.129c2.615 18.73 18.277 33.282 37.508 34.173l1.872 0.043h35.345c20.079 0 36.681-14.882 39.379-34.216l0.127-1.129h27.012l0.136 1.129c2.615 18.73 18.277 33.282 37.508 34.173l1.872 0.043h35.345c21.333 0 38.742-16.799 39.72-37.891l0.043-1.872v-17.672h-44.181v13.254h-26.765l-0.127-1.129c-2.615-18.73-18.277-33.282-37.508-34.173l-1.872-0.043h-35.345c-20.079 0-36.681 14.882-39.379 34.216l-0.136 1.129h-27.012l-0.127-1.129c-2.615-18.73-18.277-33.282-37.508-34.173l-1.872-0.043h-35.345c-20.079 0-36.681 14.882-39.379 34.216l-0.136 1.129h-27.012l-0.127-1.129c-2.615-18.73-18.277-33.282-37.508-34.173l-1.872-0.043h-35.345c-20.079 0-36.681 14.882-39.379 34.216l-0.136 1.129h-27.012l-0.127-1.129c-2.615-18.73-18.277-33.282-37.508-34.173l-1.872-0.043h-35.345c-20.079 0-36.681 14.882-39.379 34.216l-0.136 1.129h-26.756v-13.254h-44.181v17.672c0 21.333 16.799 38.742 37.891 39.72l1.872 0.043h35.345z" />
<glyph unicode="&#x232e;" glyph-name="eyedropper" data-tags="eyedropper" horiz-adv-x="1034" d="M633.841 407.369l31.241-31.241-333.69-333.69c-14.455-14.455-31.879-25.569-51.046-32.583l-3.856-1.348c-13.089-4.363-25.073-11.483-35.152-20.865l-2.479-2.392-15.586-15.586c-25.91-25.91-60.753-40.833-97.291-41.768l-3.66-0.047h-42.795v42.795c0 36.643 14.087 71.832 39.26 98.33l2.554 2.621 15.586 15.586c9.756 9.756 17.291 21.484 22.111 34.384l1.148 3.249c6.464 19.393 17.079 37.126 31.085 51.972l2.846 2.93 388.765 388.76-72.746 72.742 31.241 31.241 247.414-247.414c10.894-10.894 28.556-10.894 39.449 0 10.474 10.474 10.878 27.207 1.208 38.163l-1.208 1.286-40.203 40.203c-2.675 2.675-5.078 5.606-7.176 8.754-17.196 25.793-10.775 60.437 14.16 78.422l1.77 1.227 93.016 62.011c3.28 2.187 6.336 4.693 9.124 7.48 23.379 23.379 23.379 61.284 0 84.663-2.788 2.788-5.844 5.293-9.124 7.48-26.898 17.933-63.032 11.224-81.768-14.799l-1.25-1.804-62.011-93.016c-2.098-3.147-4.501-6.079-7.176-8.754-21.882-21.882-57.031-22.417-79.561-1.602l-1.666 1.602-35.786 35.786c-12.874 12.874-33.471 13.318-46.877 1.331l-1.408-1.331-31.241 31.241c29.987 29.987 78.241 30.576 108.945 1.764l1.821-1.764 35.786-35.786c5.176-5.176 13.568-5.176 18.744 0l0.878 0.969 0.778 1.051 62.011 93.016c31.875 47.813 96.474 60.732 144.287 28.857 5.701-3.801 11.013-8.155 15.857-13 40.633-40.633 40.633-106.511 0-147.144-3.876-3.876-8.051-7.438-12.484-10.653l-3.373-2.346-93.016-62.011c-6.091-4.061-7.737-12.29-3.676-18.38l0.778-1.051 0.878-0.969 40.203-40.203c28.147-28.147 28.147-73.783 0-101.931-27.561-27.561-71.889-28.135-100.149-1.723l-1.782 1.723-143.431 143.436-388.76-388.765c-9.756-9.756-17.291-21.484-22.111-34.384l-1.148-3.249c-6.464-19.393-17.079-37.126-31.085-51.972l-2.846-2.93-15.586-15.586c-17.777-17.777-28.063-41.645-28.829-66.698l-0.028-1.6 1.609 0.019c24.051 0.735 47.010 10.244 64.536 26.731l2.162 2.097 15.586 15.586c14.455 14.455 31.879 25.569 51.046 32.583l3.856 1.348c13.089 4.363 25.073 11.483 35.152 20.865l2.479 2.392 35.315 35.31-37.402 37.397 31.241 31.241 37.397-37.402 267.139 267.143z" />
<glyph unicode="&#x2360;" glyph-name="remote" data-tags="remote" d="M788.085 837.314l1.966-1.881 186.273-183.407c35.861-35.309 36.94-92.603 2.908-129.23l-2.603-2.692-373.841-371.519-31.143 31.338 374.213 371.893c18.309 18.594 18.591 48.196 1.017 67.132l-1.551 1.597-186.273 183.407c-18.493 18.208-47.898 18.602-66.862 1.264l-1.6-1.529-515.919-515.919c-69.455-69.455-69.455-182.064 0-251.519 68.745-68.745 179.66-69.707 249.584-2.756l2.422 2.363 74.785 74.321 31.143-31.338-74.785-74.321c-87.031-86.49-227.63-86.271-314.391 0.489-85.842 85.842-86.7 224.485-2.576 311.382l2.576 2.618 515.919 515.919c35.391 35.391 92.311 36.241 128.735 2.387zM304.85 254.788v-44.181c-26.84 0-48.599-21.758-48.599-48.599s21.758-48.599 48.599-48.599c26.186 0 47.534 20.71 48.56 46.645l0.039 1.955h44.181c0-51.241-41.54-92.781-92.781-92.781s-92.781 41.54-92.781 92.781c0 50.401 40.188 91.415 90.268 92.747l2.512 0.033zM516.919 405.317l86.31-86.31-31.241-31.241-55.070 55.074-55.070-55.074-31.241 31.241 86.31 86.31zM571.988 460.387l31.241-31.241-39.763-39.763-31.241 31.241 39.763 39.763zM461.849 460.387l30.927-30.927-31.241-31.241-30.927 30.927 31.241 31.241zM709.264 495.731l35.345-35.345-31.241-31.241-35.345 35.345 31.241 31.241zM781.223 565.152l34.075-34.075-31.241-31.241-34.075 34.075 31.241 31.241zM603.229 601.766l30.927-30.927-31.241-31.241-30.927 30.927 31.241 31.241zM673.918 672.456l34.943-34.943-31.241-31.241-34.943 34.943 31.241 31.241z" />
<glyph unicode="&#x2385;" glyph-name="square-halved-horiz" data-tags="square-halved-horiz" d="M70.69 727.525c0 50.401 40.188 91.415 90.268 92.747l2.512 0.033h375.539v-848.276h331.358c26.186 0 47.534 20.71 48.56 46.645l0.039 1.955v706.897c0 26.186-20.71 47.534-46.645 48.56l-1.955 0.039h-282.759v44.181h282.759c50.401 0 91.415-40.188 92.747-90.268l0.033-2.512v-706.897c0-50.401-40.188-91.415-90.268-92.747l-2.512-0.033h-375.539v848.276h-331.358c-26.186 0-47.534-20.71-48.56-46.645l-0.039-1.955v-706.897c0-26.186 20.71-47.534 46.645-48.56l1.955-0.039h287.177v-44.181h-287.177c-50.401 0-91.415 40.188-92.747 90.268l-0.033 2.512v706.897z" />
<glyph unicode="&#x238a;" glyph-name="circle-triangle-square" data-tags="circle-triangle-square" horiz-adv-x="1034" d="M497.885 756.459c21.41 14.987 50.703 10.311 66.438-10.243l1.246-1.702 196.5-280.714c5.719-8.169 8.786-17.898 8.786-27.87 0-26.186-20.71-47.534-46.645-48.56l-1.955-0.039h-165.574v44.181h165.574c2.44 0 4.418 1.978 4.418 4.418 0 0.68-0.157 1.347-0.454 1.952l-0.344 0.582-196.5 280.714c-1.399 1.999-4.154 2.485-6.153 1.086l-0.591-0.495-0.495-0.591-196.5-280.714c-1.399-1.999-0.913-4.754 1.086-6.153 0.557-0.389 1.194-0.645 1.86-0.747l0.674-0.052h183.246v-114.871h-304.85c-26.186 0-47.534-20.71-48.56-46.645l-0.039-1.955v-212.069c0-26.186 20.71-47.534 46.645-48.56l1.955-0.039h212.069c26.186 0 47.534 20.71 48.56 46.645l0.039 1.955v176.725h44.181v-128.399l1.262 0.335c3.641 0.941 7.393 1.696 11.217 2.254l2.302 0.312c31.853 3.978 62.903-6.399 82.614-32.231l1.761-2.391c28.845-40.611 75.424-65.204 126.168-65.204 85.401 0 154.634 69.232 154.634 154.634s-69.232 154.634-154.634 154.634c-30.484 0-59.603-8.815-84.54-25.131-42.488-27.801-68.951-74.621-70.058-126.136l-0.036-3.366h-44.181c0 67.903 34.328 129.99 90.085 166.474 32.073 20.986 69.587 32.342 108.729 32.342 109.802 0 198.815-89.013 198.815-198.815s-89.013-198.815-198.815-198.815c-65.208 0-125.142 31.645-162.187 83.801-9.3 13.093-25.071 18.589-42.88 16.366-7.539-0.942-14.444-3.271-18.982-6.117l-0.829-0.545-0.445-0.309v-0.415c0-50.401-40.188-91.415-90.268-92.747l-2.512-0.033h-212.069c-50.401 0-91.415 40.188-92.747 90.268l-0.033 2.512v212.069c0 50.401 40.188 91.415 90.268 92.747l2.512 0.033h260.669v26.509h-139.065c-9.14 0-18.078 2.578-25.796 7.411l-2.074 1.374c-21.41 14.987-27.043 44.11-13.117 65.931l1.172 1.753 196.5 280.714c3.253 4.649 7.296 8.69 11.945 11.945z" />
<glyph unicode="&#x23b6;" glyph-name="symmetry" data-tags="symmetry" horiz-adv-x="1034" d="M530.173 807.051v-119.288h48.599v-44.181h-48.599v-684.807h-44.181v119.288h-331.358c-50.401 0-91.415 40.188-92.747 90.268l-0.033 2.512v424.138c0 50.401 40.188 91.415 90.268 92.747l2.512 0.033h282.759v-44.181h-282.759c-26.186 0-47.534-20.71-48.56-46.645l-0.039-1.955v-424.138c0-26.186 20.71-47.534 46.645-48.56l1.955-0.039h331.358v684.807h44.181zM954.311 241.533v-70.69c0-50.401-40.188-91.415-90.268-92.747l-2.512-0.033h-4.418v44.181h4.418c26.186 0 47.534 20.71 48.56 46.645l0.039 1.955v70.69h44.181zM790.841 122.244v-44.181h-70.69v44.181h70.69zM649.462 122.244v-44.181h-70.69v44.181h70.69zM954.311 382.913v-70.69h-44.181v70.69h44.181zM954.311 524.292v-70.69h-44.181v70.69h44.181zM861.531 687.763c50.401 0 91.415-40.188 92.747-90.268l0.033-2.512h-44.181c0 26.186-20.71 47.534-46.645 48.56l-1.955 0.039h-70.69v44.181h70.69zM720.151 687.763v-44.181h-70.69v44.181h70.69z" />
<glyph unicode="&#x23c0;" glyph-name="flashlight-off" data-tags="flashlight-off" d="M108.401 813.835l436.119-435.694c-0.855 5.88-3.552 11.336-7.876 15.66-3.039 3.039-6.63 5.274-10.561 6.634l-1.993 0.607 11.282 42.717c12.211-3.225 23.407-9.611 32.512-18.716 11.674-11.674 18.817-26.731 20.644-42.763l0.267-2.839-42.821-3.184 410.703-410.698-31.241-31.241-848.276 848.276 31.241 31.241zM336.771 437.239l31.241-31.241-240.866-240.866c-1.533-1.533-1.704-3.915-0.511-5.637l0.511-0.612 174.58-174.58c1.533-1.533 3.915-1.704 5.637-0.511l0.612 0.511 237.004 237.004 31.241-31.241-237.004-237.004c-18.452-18.452-48.050-18.965-67.122-1.538l-1.609 1.538-174.58 174.58c-18.452 18.452-18.965 48.050-1.538 67.122l1.538 1.609 240.866 240.866zM399.681 354.352l31.241-31.241-5.504-5.504c-9.692-9.692-9.692-25.408 0-35.101l0.575-0.557c10.58-9.92 26.894-10.045 37.615-0.558l1.259 1.184 39.397 39.397 31.241-31.241-39.397-39.397c-27.527-27.527-71.931-28.244-100.332-1.618l-1.599 1.548c-26.374 26.374-26.934 68.784-1.684 95.84l1.684 1.743 5.504 5.504zM673.918 813.835l264.203-264.208c18.223-18.678 18.37-48.28 0.709-67.136l-1.558-1.59-141.339-137.892c-16.607-16.202-38.653-25.568-61.769-26.321l-3.021-0.049h-37.501v44.181h37.501c11.889 0 23.337 4.356 32.2 12.198l1.738 1.615 141.339 137.892c1.553 1.514 1.753 3.893 0.581 5.629l-0.542 0.657-263.782 263.782 31.241 31.241zM618.944 726.633l1.686-1.518 1.584-1.563 118.221-122.035-31.733-30.741-118.221 122.035c-1.509 1.558-3.887 1.766-5.627 0.601l-0.67-0.551-66.286-66.286c-8.544-8.544-13.578-19.943-14.175-31.955l-0.060-2.41v-41.409h-44.181v41.409c0 23.623 9.009 46.316 25.124 63.488l2.051 2.117 66.835 66.827c18.191 17.623 46.614 18.182 65.452 1.99z" />
<glyph unicode="&#x23db;" glyph-name="square-halved" data-tags="square-halved" d="M870.367 820.305c50.401 0 91.415-40.188 92.747-90.268l0.033-2.512v-375.539h-848.276v-331.358c0-26.186 20.71-47.534 46.645-48.56l1.955-0.039h706.897c26.186 0 47.534 20.71 48.56 46.645l0.039 1.955v282.759h44.181v-282.759c0-50.401-40.188-91.415-90.268-92.747l-2.512-0.033h-706.897c-50.401 0-91.415 40.188-92.747 90.268l-0.033 2.512v375.539h848.276v331.358c0 26.186-20.71 47.534-46.645 48.56l-1.955 0.039h-706.897c-26.186 0-47.534-20.71-48.56-46.645l-0.039-1.955v-287.177h-44.181v287.177c0 50.401 40.188 91.415 90.268 92.747l2.512 0.033h706.897z" />
<glyph unicode="&#x23e9;" glyph-name="fast-forward" data-tags="fast-forward" d="M504.044 715.249c13.619 16.343 37.576 18.994 54.397 6.361l1.605-1.27 370.715-308.929c2.258-1.882 4.341-3.965 6.222-6.222 16.718-20.063 14.533-49.615-4.589-67.025l-1.633-1.422-370.715-308.929c-7.146-5.955-16.154-9.216-25.456-9.216-21.333 0-38.742 16.799-39.72 37.891l-0.043 1.872v282.608c0 13.622-5.715 26.579-15.683 35.756l-1.803 1.58-362.471 302.055v-612.623l248.37 206.534 28.249-33.97-255.613-212.563c-16.885-14.042-41.956-11.735-55.997 5.149-5.481 6.592-8.673 14.763-9.132 23.287l-0.057 2.137v631.486c0 21.96 17.802 39.764 39.763 39.764 8.586 0 16.923-2.78 23.774-7.891l1.682-1.326 369.717-308.098c20.398-16.999 32.499-41.886 33.338-68.332l0.047-2.945v-273.163l363.468 302.878c1.667 1.388 2.051 3.744 1.019 5.566l-0.453 0.656-0.27 0.295-0.295 0.27-363.468 302.887v-164.901h-44.181v174.338c0 9.302 3.261 18.31 9.216 25.456z" />
<glyph unicode="&#x23ea;" glyph-name="fast-reverse" data-tags="fast-reverse" d="M514.895 715.249c-13.619 16.343-37.576 18.994-54.397 6.361l-1.605-1.27-370.715-308.929c-2.258-1.882-4.341-3.965-6.222-6.222-16.718-20.063-14.533-49.615 4.589-67.025l1.633-1.422 370.715-308.929c7.146-5.955 16.154-9.216 25.456-9.216 21.333 0 38.742 16.799 39.72 37.891l0.043 1.872v282.608c0 13.622 5.715 26.579 15.683 35.756l1.803 1.58 362.471 302.055v-612.623l-248.37 206.534-28.249-33.97 255.613-212.563c16.885-14.042 41.956-11.735 55.997 5.149 5.481 6.592 8.673 14.763 9.132 23.287l0.057 2.137v631.486c0 21.96-17.802 39.764-39.763 39.764-8.586 0-16.923-2.78-23.774-7.891l-1.682-1.326-369.717-308.098c-20.398-16.999-32.499-41.886-33.338-68.332l-0.047-2.945v-273.163l-363.468 302.878c-1.667 1.388-2.051 3.744-1.019 5.566l0.453 0.656 0.27 0.295 0.295 0.27 363.468 302.887v-164.901h44.181v174.338c0 9.302-3.261 18.31-9.216 25.456z" />
<glyph unicode="&#x23ed;" glyph-name="next" data-tags="next" d="M808.514 749.616c26.186 0 47.534-20.71 48.56-46.645l0.039-1.955v-653.88c0-26.186-20.71-47.534-46.645-48.56l-1.955-0.039h-167.888c-21.333 0-38.742 16.799-39.72 37.891l-0.043 1.872v302.667c0 13.622-5.715 26.579-15.683 35.756l-1.803 1.58-362.471 302.055v-612.623l248.37 206.534 28.249-33.97-255.613-212.563c-16.885-14.042-41.956-11.735-55.997 5.149-5.481 6.592-8.673 14.763-9.132 23.287l-0.057 2.137v631.486c0 21.96 17.802 39.763 39.763 39.763 8.586 0 16.923-2.779 23.774-7.89l1.682-1.326 369.717-308.098c20.398-16.999 32.499-41.886 33.338-68.332l0.047-2.945v-298.249h163.47c2.169 0 3.973 1.563 4.347 3.624l0.071 0.794v653.88c0 2.169-1.563 3.973-3.624 4.347l-0.794 0.071h-159.052c-2.169 0-3.973-1.563-4.347-3.624l-0.071-0.794v-114.871h-44.181v114.871c0 26.186 20.71 47.534 46.645 48.56l1.955 0.039h159.052z" />
<glyph unicode="&#x23ee;" glyph-name="previous" data-tags="previous" d="M225.323 749.616c-26.186 0-47.534-20.71-48.56-46.645l-0.039-1.955v-653.88c0-26.186 20.71-47.534 46.645-48.56l1.955-0.039h167.888c21.333 0 38.742 16.799 39.72 37.891l0.043 1.872v302.667c0 13.622 5.715 26.579 15.683 35.756l1.803 1.58 362.471 302.055v-612.623l-248.37 206.534-28.249-33.97 255.613-212.563c16.885-14.042 41.956-11.735 55.997 5.149 5.481 6.592 8.673 14.763 9.132 23.287l0.057 2.137v631.486c0 21.96-17.802 39.763-39.763 39.763-8.586 0-16.923-2.779-23.774-7.89l-1.682-1.326-369.717-308.098c-20.398-16.999-32.499-41.886-33.338-68.332l-0.047-2.945v-298.249h-163.47c-2.169 0-3.973 1.563-4.347 3.624l-0.071 0.794v653.88c0 2.169 1.563 3.973 3.624 4.347l0.794 0.071h159.052c2.169 0 3.973-1.563 4.347-3.624l0.071-0.794v-114.871h44.181v114.871c0 26.186-20.71 47.534-46.645 48.56l-1.955 0.039h-159.052z" />
<glyph unicode="&#x23f8;" glyph-name="pause-circle" data-tags="pause-circle" d="M512.5 877.741c275.726 0 499.247-223.52 499.247-499.247 0-272.969-219.072-494.77-490.99-499.179l-8.256-0.067v44.181c251.325 0 455.065 203.74 455.065 455.065s-203.74 455.065-455.065 455.065c-251.325 0-455.065-203.74-455.065-455.065 0-120.425 46.964-233.359 129.304-317.748l3.886-3.935-31.25-31.231c-92.945 93-146.121 218.776-146.121 352.915 0 275.726 223.52 499.247 499.247 499.247zM419.72 678.926c26.186 0 47.534-20.71 48.56-46.645l0.039-1.955v-326.94h-44.181v326.94c0 2.169-1.563 3.973-3.624 4.347l-0.794 0.071h-53.018c-2.169 0-3.973-1.563-4.347-3.624l-0.071-0.794v-512.5c0-2.169 1.563-3.973 3.624-4.347l0.794-0.071h53.018c2.169 0 3.973 1.563 4.347 3.624l0.071 0.794v44.181h44.181v-44.181c0-26.186-20.71-47.534-46.645-48.56l-1.955-0.039h-53.018c-26.186 0-47.534 20.71-48.56 46.645l-0.039 1.955v512.5c0 26.186 20.71 47.534 46.645 48.56l1.955 0.039h53.018zM693.643 678.926v-44.181h-79.526c-2.169 0-3.973-1.563-4.347-3.624l-0.071-0.794v-512.5c0-2.169 1.563-3.973 3.624-4.347l0.794-0.071h53.018c2.169 0 3.973 1.563 4.347 3.624l0.071 0.794v397.629h44.181v-397.629c0-26.186-20.71-47.534-46.645-48.56l-1.955-0.039h-53.018c-26.186 0-47.534 20.71-48.56 46.645l-0.039 1.955v512.5c0 26.186 20.71 47.534 46.645 48.56l1.955 0.039h79.526z" />
<glyph unicode="&#x23f9;" glyph-name="stop-circle" data-tags="stop-circle" d="M512.5 877.741c275.726 0 499.247-223.52 499.247-499.247 0-272.969-219.072-494.77-490.99-499.179l-8.256-0.067v44.181c251.325 0 455.065 203.74 455.065 455.065s-203.74 455.065-455.065 455.065c-251.325 0-455.065-203.74-455.065-455.065 0-120.425 46.964-233.359 129.304-317.748l3.886-3.935-31.25-31.231c-92.945 93-146.121 218.776-146.121 352.915 0 275.726 223.52 499.247 499.247 499.247zM693.643 643.581c50.401 0 91.415-40.188 92.747-90.268l0.033-2.512v-353.448c0-50.401-40.188-91.415-90.268-92.747l-2.512-0.033h-247.414v44.181h247.414c26.186 0 47.534 20.71 48.56 46.645l0.039 1.955v353.448c0 26.186-20.71 47.534-46.645 48.56l-1.955 0.039h-353.448c-26.186 0-47.534-20.71-48.56-46.645l-0.039-1.955v-353.448c0-26.186 20.71-47.534 46.645-48.56l1.955-0.039v-44.181c-50.401 0-91.415 40.188-92.747 90.268l-0.033 2.512v353.448c0 50.401 40.188 91.415 90.268 92.747l2.512 0.033h353.448z" />
<glyph unicode="&#x23fa;" glyph-name="record" data-tags="record" d="M516.919 820.305c246.446 0 446.229-199.783 446.229-446.229 0-243.981-195.808-442.229-438.85-446.169l-7.379-0.060v44.181c222.045 0 402.048 180.003 402.048 402.048s-180.003 402.048-402.048 402.048c-222.045 0-402.048-180.003-402.048-402.048 0-170.298 106.858-320.269 263.926-377.701l4.775-1.712-14.649-41.682c-177.232 62.287-298.233 230.178-298.233 421.094 0 246.446 199.783 446.229 446.229 446.229zM516.919 678.926c168.363 0 304.85-136.485 304.85-304.85s-136.485-304.85-304.85-304.85c-168.363 0-304.85 136.485-304.85 304.85 0 46.449 10.413 91.452 30.166 132.371l2.32 4.704 39.451-19.89c-18.165-36.028-27.757-75.896-27.757-117.183 0-143.964 116.705-260.669 260.669-260.669s260.669 116.705 260.669 260.669c0 143.964-116.705 260.669-260.669 260.669-67.912 0-131.655-26.059-179.769-71.904l-3.116-3.018-30.999 31.481c56.643 55.776 132.777 87.623 213.883 87.623z" />
<glyph unicode="&#x2517;" glyph-name="crop" data-tags="crop" d="M786.423 55.973v-106.035h-44.181v106.035h44.181zM291.595 798.215v-600.863c0-26.186 20.71-47.534 46.645-48.56l1.955-0.039h600.863v-44.181h-600.863c-50.401 0-91.415 40.188-92.747 90.268l-0.033 2.512v600.863h44.181zM693.643 643.581c50.401 0 91.415-40.188 92.747-90.268l0.033-2.512v-353.448h-44.181v353.448c0 26.186-20.71 47.534-46.645 48.56l-1.955 0.039h-357.866v44.181h357.866zM198.815 643.581v-44.181h-106.035v44.181h106.035z" />
<glyph unicode="&#x2551;" glyph-name="pause" data-tags="pause" d="M384.375 820.305c26.186 0 47.534-20.71 48.56-46.645l0.039-1.955v-614.117h-44.181v614.117c0 2.169-1.563 3.973-3.624 4.347l-0.794 0.071h-88.362c-2.169 0-3.973-1.563-4.347-3.624l-0.071-0.794v-795.26c0-2.169 1.563-3.973 3.624-4.347l0.794-0.071h88.362c2.169 0 3.973 1.563 4.347 3.624l0.071 0.794v44.181h44.181v-44.181c0-26.186-20.71-47.534-46.645-48.56l-1.955-0.039h-88.362c-26.186 0-47.534 20.71-48.56 46.645l-0.039 1.955v795.26c0 26.186 20.71 47.534 46.645 48.56l1.955 0.039h88.362zM759.914 820.305v-44.181h-110.453c-2.169 0-3.973-1.563-4.347-3.624l-0.071-0.794v-795.26c0-2.169 1.563-3.973 3.624-4.347l0.794-0.071h83.944c2.169 0 3.973 1.563 4.347 3.624l0.071 0.794v614.117h44.181v-614.117c0-26.186-20.71-47.534-46.645-48.56l-1.955-0.039h-83.944c-26.186 0-47.534 20.71-48.56 46.645l-0.039 1.955v795.26c0 26.186 20.71 47.534 46.645 48.56l1.955 0.039h110.453z" />
<glyph unicode="&#x256a;" glyph-name="square-cut-top-bottom" data-tags="square-cut-top-bottom" d="M870.367 820.305c50.401 0 91.415-40.188 92.747-90.268l0.033-2.512v-70.69h-44.181v70.69c0 26.186-20.71 47.534-46.645 48.56l-1.955 0.039h-706.897c-26.186 0-47.534-20.71-48.56-46.645l-0.039-1.955v-119.288h848.276v-364.494h11.045v-212.069c0-50.401-40.188-91.415-90.268-92.747l-2.512-0.033h-706.897c-50.401 0-91.415 40.188-92.747 90.268l-0.033 2.512v70.69h44.181v-70.69c0-26.186 20.71-47.534 46.645-48.56l1.955-0.039h706.897c26.186 0 47.534 20.71 48.56 46.645l0.039 1.955v108.244h-859.322v375.539h44.181v-331.358h804.095v379.957h-848.276v163.47c0 50.401 40.188 91.415 90.268 92.747l2.512 0.033h706.897z" />
<glyph unicode="&#x256b;" glyph-name="square-cut-left-right" data-tags="square-cut-left-right" d="M870.367 820.305c50.401 0 91.415-40.188 92.747-90.268l0.033-2.512v-706.897c0-50.401-40.188-91.415-90.268-92.747l-2.512-0.033h-70.69v44.181h70.69c26.186 0 47.534 20.71 48.56 46.645l0.039 1.955v706.897c0 26.186-20.71 47.534-46.645 48.56l-1.955 0.039h-119.288v-848.276h-375.539v44.181h331.358v804.095h-379.957v-848.276h-163.47c-50.401 0-91.415 40.188-92.747 90.268l-0.033 2.512v706.897c0 50.401 40.188 91.415 90.268 92.747l2.512 0.033h70.69v-44.181h-70.69c-26.186 0-47.534-20.71-48.56-46.645l-0.039-1.955v-706.897c0-26.186 20.71-47.534 46.645-48.56l1.955-0.039h119.288v848.276h587.608z" />
<glyph unicode="&#x25a2;" glyph-name="stop" data-tags="stop" d="M658.298 749.616v-44.181h-424.579c-26.070 0-47.369-20.534-48.547-46.349l-0.050-1.946-3.534-565.518c-0.163-26.186 20.413-47.664 46.34-48.851l2.258-0.052h569.493c26.186 0 47.534 20.71 48.56 46.645l0.039 1.955v565.518c0 26.186-20.71 47.534-46.645 48.56l-1.955 0.039v44.181c50.401 0 91.415-40.188 92.747-90.268l0.033-2.512v-565.518c0-50.401-40.188-91.415-90.268-92.747l-2.512-0.033h-570.073c-50.4 0.317-91.163 40.761-92.181 90.848l-0.018 2.512 3.534 565.518c0.313 50.178 40.415 90.848 90.277 92.167l2.501 0.033h424.579z" />
<glyph unicode="&#x25a3;" glyph-name="qrcode" data-tags="qrcode" horiz-adv-x="1034" d="M437.393 820.305c21.333 0 38.742-16.799 39.72-37.891l0.043-1.872v-242.996h97.198v242.996c0 21.333 16.799 38.742 37.891 39.72l1.872 0.043h318.104c21.333 0 38.742-16.799 39.72-37.891l0.043-1.872v-318.104c0-21.333-16.799-38.742-37.891-39.72l-1.872-0.043h-313.685v-92.781c0-2.169 1.563-3.973 3.624-4.347l0.794-0.071h300.431c26.186 0 47.534-20.71 48.56-46.645l0.039-1.955v-53.018c0-26.186-20.71-47.534-46.645-48.56l-1.955-0.039h-300.431c-2.169 0-3.973-1.563-4.347-3.624l-0.071-0.794v-194.397c0-2.169 1.563-3.973 3.624-4.347l0.794-0.071h53.018c2.169 0 3.973 1.563 4.347 3.624l0.071 0.794v88.362c0 26.186 20.71 47.534 46.645 48.56l1.955 0.039h53.018c26.186 0 47.534-20.71 48.56-46.645l0.039-1.955v-88.362c0-2.169 1.563-3.973 3.624-4.347l0.794-0.071h53.018c2.169 0 3.973 1.563 4.347 3.624l0.071 0.794v88.362c0 26.186 20.71 47.534 46.645 48.56l1.955 0.039h8.837v-44.181h-8.837c-2.169 0-3.973-1.563-4.347-3.624l-0.071-0.794v-88.362c0-26.186-20.71-47.534-46.645-48.56l-1.955-0.039h-53.018c-26.186 0-47.534 20.71-48.56 46.645l-0.039 1.955v88.362c0 2.169-1.563 3.973-3.624 4.347l-0.794 0.071h-53.018c-2.169 0-3.973-1.563-4.347-3.624l-0.071-0.794v-88.362c0-26.186-20.71-47.534-46.645-48.56l-1.955-0.039h-53.018c-26.186 0-47.534 20.71-48.56 46.645l-0.039 1.955v194.397c0 26.186 20.71 47.534 46.645 48.56l1.955 0.039h300.431c2.169 0 3.973 1.563 4.347 3.624l0.071 0.794v53.018c0 2.169-1.563 3.973-3.624 4.347l-0.794 0.071h-300.431c-26.186 0-47.534 20.71-48.56 46.645l-0.039 1.955v106.035c0 16.511 12.939 30 29.23 30.881l1.697 0.046h322.522v309.268h-309.268v-242.996c0-21.333-16.799-38.742-37.891-39.72l-1.872-0.043h-106.035c-21.333 0-38.742 16.799-39.72 37.891l-0.043 1.872v242.996h-309.268v-309.268h313.685c21.333 0 38.742-16.799 39.72-37.891l0.043-1.872v-106.035c0-21.333-16.799-38.742-37.891-39.72l-1.872-0.043h-313.685v-309.268h309.268v260.669h44.181v-265.087c0-21.333-16.799-38.742-37.891-39.72l-1.872-0.043h-318.104c-21.333 0-38.742 16.799-39.72 37.891l-0.043 1.872v318.104c0 21.333 16.799 38.742 37.891 39.72l1.872 0.043h313.685v97.198h-313.685c-21.333 0-38.742 16.799-39.72 37.891l-0.043 1.872v318.104c0 21.333 16.799 38.742 37.891 39.72l1.872 0.043h318.104z" />
<glyph unicode="&#x25a4;" glyph-name="stack-horiz-compact" data-tags="stack-horiz-compact" d="M918.966 396.167v119.288h44.181v-375.539h-848.276v-119.288c0-26.186 20.71-47.534 46.645-48.56l1.955-0.039h706.897c26.186 0 47.534 20.71 48.56 46.645l0.039 1.955v70.69h44.181v-70.69c0-50.401-40.188-91.415-90.268-92.747l-2.512-0.033h-706.897c-50.401 0-91.415 40.188-92.747 90.268l-0.033 2.512v282.759h44.181v-119.288h804.095v167.888h-848.276v256.25h848.276v119.288c0 26.186-20.71 47.534-46.645 48.56l-1.955 0.039h-706.897c-26.186 0-47.534-20.71-48.56-46.645l-0.039-1.955v-70.69h-44.181v70.69c0 50.401 40.188 91.415 90.268 92.747l2.512 0.033h706.897c50.401 0 91.415-40.188 92.747-90.268l0.033-2.512v-163.47h-848.276v-167.888h804.095z" />
<glyph unicode="&#x25a5;" glyph-name="stack-vert-compact" data-tags="stack-vert-compact" d="M282.759-72.152v848.276h-119.288c-26.186 0-47.534-20.71-48.56-46.645l-0.039-1.955v-706.897c0-26.186 20.71-47.534 46.645-48.56l1.955-0.039h70.69v-44.181h-70.69c-50.401 0-91.415 40.188-92.747 90.268l-0.033 2.512v706.897c0 50.401 40.188 91.415 90.268 92.747l2.512 0.033h282.759v-44.181h-119.288v-804.095h167.888v848.276h256.25v-848.276h119.288c26.186 0 47.534 20.71 48.56 46.645l0.039 1.955v706.897c0 26.186-20.71 47.534-46.645 48.56l-1.955 0.039h-70.69v44.181h70.69c50.401 0 91.415-40.188 92.747-90.268l0.033-2.512v-706.897c0-50.401-40.188-91.415-90.268-92.747l-2.512-0.033h-163.47v848.276h-167.888v-804.095h141.379v-44.181h-397.629z" />
<glyph unicode="&#x25a6;" glyph-name="grid-compact" data-tags="grid-compact" d="M963.148 303.387h-44.181v189.979h-238.578v-238.578h282.759v-234.16c0-50.401-40.188-91.415-90.268-92.747l-2.512-0.033h-141.379v44.181h141.379c26.186 0 47.534 20.71 48.56 46.645l0.039 1.955v189.979h-238.578v-282.759h-234.16v44.181h189.979v238.578h-238.578v-282.759h-234.16c-50.401 0-91.415 40.188-92.747 90.268l-0.033 2.512v424.138h44.181v-424.138c0-26.186 20.71-47.534 46.645-48.56l1.955-0.039h189.979v238.578h-189.979v44.181h189.979v189.979h44.181v-189.979h238.578v238.578h-189.979v44.181h189.979v189.979h44.181v-189.979h238.578v189.979c0 26.186-20.71 47.534-46.645 48.56l-1.955 0.039h-472.738v-282.759h-326.94v234.16c0 50.401 40.188 91.415 90.268 92.747l2.512 0.033h141.379v-44.181h-141.379c-26.186 0-47.534-20.71-48.56-46.645l-0.039-1.955v-189.979h238.578v282.759h516.919c50.401 0 91.415-40.188 92.747-90.268l0.033-2.512v-424.138z" />
<glyph unicode="&#x25b6;" glyph-name="play" data-tags="play" d="M245.438 812.792l668.709-397.046c6.925-4.111 12.718-9.879 16.861-16.784 13.446-22.41 6.725-51.302-14.885-65.554l-1.785-1.123-628.666-377.199c-7.553-4.531-16.196-6.926-25.004-6.926-26.186 0-47.534 20.71-48.56 46.645l-0.039 1.955v660.078h44.181v-660.078c0-2.44 1.978-4.418 4.418-4.418 0.534 0 1.061 0.097 1.557 0.283l0.717 0.346 628.666 377.199c2.092 1.255 2.771 3.969 1.515 6.062-0.251 0.418-0.569 0.791-0.939 1.104l-0.594 0.422-668.709 397.046 22.556 37.989z" />
<glyph unicode="&#x25b9;" glyph-name="play-circle" data-tags="play-circle" d="M512.5 877.741c275.726 0 499.247-223.52 499.247-499.247 0-272.969-219.072-494.77-490.99-499.179l-8.256-0.067v44.181c251.325 0 455.065 203.74 455.065 455.065s-203.74 455.065-455.065 455.065c-251.325 0-455.065-203.74-455.065-455.065 0-121.454 47.775-235.273 131.369-319.852l3.884-3.883-31.051-31.43c-94.314 93.179-148.383 219.91-148.383 355.164 0 275.726 223.52 499.247 499.247 499.247zM351.612 675.746l430.734-260.066c6.751-4.076 12.408-9.734 16.485-16.485 13.508-22.373 6.867-51.283-14.703-65.595l-1.782-1.128-403.927-243.88c-6.201-3.745-13.308-5.724-20.552-5.724-21.333 0-38.742 16.799-39.72 37.891l-0.043 1.872v392.825h44.181v-384.994l397.226 239.832c1.857 1.121 2.594 3.391 1.848 5.349l-0.349 0.717c-0.247 0.409-0.558 0.774-0.92 1.082l-0.579 0.416-430.734 260.066 22.836 37.822z" />
<glyph unicode="&#x25bc;" glyph-name="wifi" data-tags="wifi" d="M516.919 678.926c153.804 0 291.504-55.154 412.166-164.866l4.883-4.477-30.001-32.434c-113.806 105.271-242.499 157.596-387.047 157.596-133.778 0-253.934-44.813-361.288-134.887l-5.151-4.369-0.124-0.119c-1.533-1.533-1.704-3.915-0.511-5.637l0.511-0.612 63.774-63.774c1.646-1.646 4.286-1.733 6.036-0.198 85.35 74.799 184.584 112.398 296.753 112.398 110.891 0 209.147-36.748 293.844-109.867 0.898-0.776 1.768-1.584 2.607-2.422 18.452-18.452 18.965-48.050 1.538-67.122l-1.538-1.609-63.561-63.561c-18.211-18.211-47.464-19.054-66.693-1.922-45.676 40.693-100.724 60.943-166.195 60.943-62.758 0-115.933-18.607-160.452-55.975l-3.633-3.121c-1.533-1.533-1.704-3.915-0.511-5.637l0.511-0.612 61.428-61.428c1.508-1.508 3.88-1.724 5.636-0.51 28.95 20.004 61.487 30.083 97.021 30.083 30.934 0 59.628-7.639 85.679-22.86 3.594-2.1 6.903-4.653 9.847-7.596 18.452-18.452 18.965-48.050 1.538-67.122l-1.538-1.609-79.904-79.904-31.241 31.241 79.904 79.904c1.726 1.726 1.726 4.522 0 6.248-0.267 0.267-0.569 0.499-0.895 0.691-19.23 11.236-40.224 16.825-63.389 16.825-26.59 0-50.361-7.364-71.905-22.251-18.706-12.926-43.772-11.111-60.409 4.104l-1.584 1.514-61.428 61.428c-18.979 18.98-18.979 49.751 0 68.729 0.798 0.798 1.623 1.567 2.473 2.307 53.39 46.43 118.008 69.729 192.851 69.729 76.135 0 141.679-24.11 195.585-72.135 1.529-1.362 3.757-1.474 5.399-0.372l0.664 0.547 63.561 63.561c1.533 1.533 1.704 3.915 0.511 5.637l-0.628 0.724-0.12 0.108c-76.695 66.211-164.711 99.129-264.973 99.129-101.418 0-190.313-33.682-267.634-101.444-18.687-16.376-46.594-15.958-64.771 0.633l-1.626 1.553-63.774 63.774c-18.98 18.98-18.98 49.751 0 68.729 0.891 0.891 1.817 1.747 2.774 2.567 116.526 99.676 248.489 149.749 395.030 149.749z" />
<glyph unicode="&#x25bd;" glyph-name="wifi-off" data-tags="wifi-off" horiz-adv-x="1034" d="M117.236 813.835l848.276-848.276-31.241-31.241-848.276 848.276 31.241 31.241zM440.348 384.836l11.998-42.521c-3.682-1.039-7.921-2.635-12.7-4.785l-4.229-1.978c-5.815-2.819-12.33-6.36-19.524-10.621l-5.522-3.33-2.856-1.766-5.9-3.735c-1.004-0.645-2.019-1.3-3.043-1.968l-6.272-4.137-6.518-4.405-6.762-4.674-10.594-7.511-3.651-2.638c-0.188-0.136-0.365-0.287-0.53-0.451-1.533-1.533-1.704-3.915-0.511-5.637l0.511-0.612 58.853-58.853c1.508-1.508 3.88-1.724 5.636-0.51 28.95 20.004 61.487 30.083 97.021 30.083 30.934 0 59.628-7.639 85.679-22.86 3.594-2.1 6.903-4.653 9.847-7.596 18.452-18.452 18.965-48.050 1.538-67.122l-1.538-1.609-79.904-79.904-31.241 31.241 79.904 79.904c1.726 1.726 1.726 4.522 0 6.248-0.267 0.267-0.569 0.499-0.895 0.691-19.23 11.236-40.224 16.825-63.389 16.825-26.59 0-50.361-7.364-71.905-22.251-18.706-12.926-43.772-11.111-60.409 4.104l-1.584 1.514-58.852 58.852c-18.98 18.98-18.98 49.751 0 68.73 1.807 1.807 3.754 3.468 5.822 4.969l7.96 5.723c1.306 0.93 2.603 1.848 3.888 2.755l7.595 5.296c1.246 0.859 2.481 1.707 3.708 2.541l7.235 4.871 3.528 2.329 6.881 4.446 6.646 4.164 3.236 1.976 6.3 3.741c2.062 1.2 4.086 2.353 6.072 3.459l5.846 3.178c12.421 6.581 23.264 11.185 32.628 13.828zM525.754 537.547c110.891 0 209.147-36.748 293.844-109.867 0.898-0.776 1.768-1.584 2.607-2.422 18.452-18.452 18.965-48.050 1.538-67.122l-1.538-1.609-66.035-66.035c-16.76-16.76-43.166-18.986-62.495-5.266-31.745 22.532-58.572 39.046-80.285 49.507l-2.929 1.389 18.676 40.039c22.696-10.587 49.521-26.665 80.645-48.263l9.466-6.645c1.538-1.091 3.567-1.073 5.072-0.030l0.61 0.509 66.035 66.035c1.533 1.533 1.704 3.915 0.511 5.637l-0.628 0.724-0.12 0.108c-76.695 66.211-164.711 99.129-264.973 99.129-7.209 0-14.354-0.17-21.433-0.51l-7.058-0.397-2.843 44.089c10.333 0.667 20.777 0.999 31.334 0.999zM231.094 600.582l22.087-38.264-3.297-1.952-3.569-2.208-3.842-2.463-4.113-2.718-6.676-4.553-4.787-3.353-7.683-5.504-8.283-6.073-5.854-4.363-9.277-7.016-9.87-7.58-14.078-10.983-11.242-8.891c-0.131-0.104-0.256-0.216-0.374-0.334-1.533-1.533-1.704-3.915-0.511-5.637l0.511-0.612 65.438-65.438c1.48-1.48 3.796-1.719 5.546-0.571l30.054 19.558 13.166 8.454 14.721 9.33 10.394 6.477 9.169 5.602 4.126 2.474 5.618 3.303 4.935 2.814 21.57-38.558-4.625-2.64-9.281-5.511-8.836-5.407-12.803-8.003-14.746-9.381-20.251-13.070-18.995-12.396c-18.635-12.214-43.089-10.151-59.402 4.75l-1.604 1.532-65.438 65.438c-18.98 18.98-18.98 49.751 0 68.73 1.302 1.302 2.678 2.529 4.119 3.676l15.876 12.528 11.172 8.688 10.546 8.083 6.685 5.053 6.408 4.786 6.133 4.518 8.686 6.277 5.449 3.852 5.178 3.587 4.907 3.321 4.637 3.057 4.368 2.793 4.1 2.529c1.322 0.8 2.6 1.555 3.833 2.266zM525.754 678.926c153.804 0 291.504-55.154 412.166-164.866l4.883-4.477-30.001-32.434c-113.806 105.271-242.499 157.596-387.047 157.596-55.244 0-108.115-7.641-158.681-22.914l-6.881-2.13-13.354 42.115c57.012 18.078 116.677 27.11 178.916 27.11z" />
<glyph unicode="&#x25d0;" glyph-name="circle-half-filled" data-tags="circle-half-filled" horiz-adv-x="1034" d="M525.754 820.305c246.446 0 446.229-199.783 446.229-446.229 0-243.981-195.808-442.229-438.85-446.169l-7.379-0.060h-22.091v141.379h-189.979v44.181h189.979v61.853h-260.669v44.181h260.669v61.853h-331.358v44.181h331.358v61.853h-366.703v44.181h366.703v61.853h-331.358v44.181h331.358v61.853h-260.669v44.181h260.669v61.853h-119.288v44.181h163.47v-776.977l4.344 0.245c207.538 13.47 372.152 184.413 375.559 394.544l0.054 6.648c0 222.045-180.003 402.048-402.048 402.048s-402.048-180.003-402.048-402.048c0-168.537 104.661-317.288 259.374-376.004l4.704-1.752-15.161-41.499c-174.584 63.782-293.098 230.314-293.098 419.254 0 246.446 199.783 446.229 446.229 446.229z" />
<glyph unicode="&#x25d9;" glyph-name="speaker" data-tags="speaker" d="M799.678 820.305v-44.181h-565.518c-26.186 0-47.534-20.71-48.56-46.645l-0.039-1.955v-706.897c0-26.186 20.71-47.534 46.645-48.56l1.955-0.039h565.518c26.186 0 47.534 20.71 48.56 46.645l0.039 1.955v706.897h44.181v-706.897c0-50.401-40.188-91.415-90.268-92.747l-2.512-0.033h-565.518c-50.401 0-91.415 40.188-92.747 90.268l-0.033 2.512v706.897c0 50.401 40.188 91.415 90.268 92.747l2.512 0.033h565.518zM361.043 407.438l29.421-32.96c-40.155-35.843-63.523-86.901-63.523-141.78 0-54.669 23.197-105.528 62.996-141.308l2.804-2.471-28.895-33.423c-51.118 44.193-81.085 108.292-81.085 177.202 0 67.601 28.834 130.602 78.283 174.741zM671.866 408.263c50.004-44.162 79.212-107.529 79.212-175.565 0-65.26-26.867-126.251-73.277-170.14l-2.989-2.778-29.799 32.619c39.174 35.789 61.883 86.193 61.883 140.3 0 53.978-22.609 104.253-61.535 139.982l-2.743 2.469 29.247 33.115zM516.919 325.477c51.241 0 92.781-41.54 92.781-92.781 0-50.401-40.188-91.415-90.268-92.747l-2.512-0.033v44.181c26.84 0 48.599 21.758 48.599 48.599s-21.758 48.599-48.599 48.599c-26.84 0-48.599-21.758-48.599-48.599 0-17.16 8.955-32.729 23.263-41.485l1.816-1.059-21.427-38.638c-29.268 16.231-47.833 47.086-47.833 81.18 0 51.241 41.54 92.781 92.781 92.781zM516.919 749.616v-44.181c-46.361 0-83.944-37.583-83.944-83.944s37.583-83.944 83.944-83.944c45.561 0 82.646 36.298 83.911 81.554l0.033 2.39c0 21.327-7.962 41.346-22.044 56.701l-1.958 2.065 31.546 30.932c23.319-23.781 36.637-55.717 36.637-89.699 0-69.83-55.864-126.614-125.339-128.095l-2.786-0.030c-70.761 0-128.125 57.364-128.125 128.125 0 69.83 55.864 126.614 125.339 128.095l2.786 0.030z" />
<glyph unicode="&#x25dd;" glyph-name="superscript" data-tags="superscript" horiz-adv-x="1034" d="M486.043 721.978c9.372-2.812 16.824-9.878 20.16-19.002l0.577-1.735 203.606-678.686-42.317-12.695-190.91 636.378-97.56-325.182h150.578v-44.181h-163.832l-80.095-267.016-42.336 12.634 88.636 298.563h0.925l114.063 380.183c4.908 16.36 22.15 25.644 38.51 20.735zM835.022 820.305c50.401 0 91.415-40.188 92.747-90.268l0.033-2.512v-106.035c0-6.89 5.256-12.551 11.978-13.194l1.276-0.061v-44.181c-20.085 0-37.761 10.309-48.027 25.924-17.134-15.643-39.702-25.26-64.263-25.891l-2.581-0.033h-8.837c-41.481 0-75.107 33.627-75.107 75.107 0 40.727 32.416 73.882 72.853 75.074l2.254 0.033h53.018v-44.181h-53.018c-17.081 0-30.927-13.847-30.927-30.927 0-16.511 12.939-30 29.23-30.881l1.697-0.046h8.837c27.266 0 50.414 19.98 54.399 46.953 1.806 12.224 2.801 23.333 2.999 33.306l0.037 3.687v35.345c0 26.84-21.758 48.599-48.599 48.599-26.186 0-47.534-20.71-48.56-46.645l-0.039-1.955h-44.181c0 51.241 41.54 92.781 92.781 92.781z" />
<glyph unicode="&#x25de;" glyph-name="subscript" data-tags="subscript" horiz-adv-x="1034" d="M835.022 184.098c50.401 0 91.415-40.188 92.747-90.268l0.033-2.512v-106.035c0-6.89 5.256-12.551 11.978-13.194l1.276-0.061v-44.181c-20.085 0-37.761 10.309-48.027 25.924-17.134-15.643-39.702-25.26-64.263-25.891l-2.581-0.033h-8.837c-41.481 0-75.107 33.627-75.107 75.107 0 40.727 32.416 73.882 72.853 75.074l2.254 0.033h53.018v-44.181h-53.018c-17.081 0-30.927-13.847-30.927-30.927 0-16.511 12.939-30 29.23-30.881l1.697-0.046h8.837c27.266 0 50.414 19.98 54.399 46.953 1.806 12.224 2.801 23.333 2.999 33.306l0.037 3.687v35.345c0 26.84-21.758 48.599-48.599 48.599-26.186 0-47.534-20.71-48.56-46.645l-0.039-1.955h-44.181c0 51.241 41.54 92.781 92.781 92.781zM486.043 721.978c9.372-2.812 16.824-9.878 20.16-19.002l0.577-1.735 203.606-678.686-42.317-12.695-190.91 636.378-97.56-325.182h150.578v-44.181h-163.832l-80.095-267.016-42.336 12.634 88.636 298.563h0.925l114.063 380.183c4.908 16.36 22.15 25.644 38.51 20.735z" />
<glyph unicode="&#x25e7;" glyph-name="square-cut-left" data-tags="square-cut-left" d="M326.94-72.152h-163.47c-50.401 0-91.415 40.188-92.747 90.268l-0.033 2.512v706.897c0 50.401 40.188 91.415 90.268 92.747l2.512 0.033h75.107v-44.181h-75.107c-26.186 0-47.534-20.71-48.56-46.645l-0.039-1.955v-706.897c0-26.186 20.71-47.534 46.645-48.56l1.955-0.039h119.288v848.276h587.608c50.401 0 91.415-40.188 92.747-90.268l0.033-2.512v-706.897c0-50.401-40.188-91.415-90.268-92.747l-2.512-0.033h-494.828v44.181h494.828c26.186 0 47.534 20.71 48.56 46.645l0.039 1.955v706.897c0 26.186-20.71 47.534-46.645 48.56l-1.955 0.039-543.428 0.009v-848.285z" />
<glyph unicode="&#x25e8;" glyph-name="square-cut-right" data-tags="square-cut-right" d="M963.148 20.628c0-50.401-40.188-91.415-90.268-92.747l-2.512-0.033h-163.47v848.276h-543.428c-26.186 0-47.534-20.71-48.56-46.645l-0.039-1.955v-706.897c0-26.186 20.71-47.534 46.645-48.56l1.955-0.039h494.828v-44.181h-494.828c-50.401 0-91.415 40.188-92.747 90.268l-0.033 2.512v706.897c0 50.401 40.188 91.415 90.268 92.747l2.512 0.033h587.608v-848.276h119.288c26.186 0 47.534 20.71 48.56 46.645l0.039 1.955v706.897c0 26.186-20.71 47.534-46.645 48.56l-1.955 0.039h-75.107v44.181h75.107c50.401 0 91.415-40.188 92.747-90.268l0.033-2.512v-706.897z" />
<glyph unicode="&#x25eb;" glyph-name="stack-vert" data-tags="stack-vert" d="M397.629-27.971h238.578v848.276h234.16c50.401 0 91.415-40.188 92.747-90.268l0.033-2.512v-706.897c0-50.401-40.188-91.415-90.268-92.747l-2.512-0.033h-141.379v44.181h141.379c26.186 0 47.534 20.71 48.56 46.645l0.039 1.955v706.897c0 26.186-20.71 47.534-46.645 48.56l-1.955 0.039h-189.979v-848.276h-326.94v848.276h-189.979c-26.186 0-47.534-20.71-48.56-46.645l-0.039-1.955v-706.897c0-26.186 20.71-47.534 46.645-48.56l1.955-0.039h141.379v-44.181h-141.379c-50.401 0-91.415 40.188-92.747 90.268l-0.033 2.512v706.897c0 50.401 40.188 91.415 90.268 92.747l2.512 0.033h424.138v-44.181h-189.979v-804.095z" />
<glyph unicode="&#x2600;" glyph-name="sun" data-tags="sun" d="M233.751 260.961l40.327 17.965 5.141-10.312 3.225-6.332 3.063-5.896 4.287-8.024 2.652-4.8 2.484-4.358c0.4-0.69 0.793-1.36 1.179-2.013l2.235-3.704 2.453-3.937 4.323-6.737 4.173-6.348 1.956-2.562c5.375-6.891 11.1-13.519 17.154-19.856l3.672-3.768c24.187-24.323 52.933-43.7 84.589-56.902 29.817-12.434 61.805-19.232 94.754-19.913l5.5-0.057h22.091v-234.16h-44.181v190.782l-1.066 0.063c-30.686 2.307-60.552 9.192-88.821 20.362l-5.281 2.144c-28.619 11.935-55.192 28.175-78.834 48.056l-3.287 2.813-134.030-134.043-31.241 31.241 132.771 132.775-5.753 8.445-5.947 8.857-0.495 0.656c-14.916 19.899-27.384 41.59-37.062 64.609l-2.031 4.953zM1011.747 396.167v-44.181h-190.782l-0.038-0.722c-2.239-30.235-8.921-59.677-19.769-87.588l-2.083-5.215c-12.407-30.25-29.613-58.249-50.848-82.962l-0.701-0.794 134.043-134.039-31.241-31.241-131.627 131.631-0.128-0.108c-3.498-2.591-7.389-5.363-11.685-8.331l-6.749-4.599-3.080-2.063c-14.177-9.451-29.941-18.238-47.293-26.375l-3.332-1.546c-3.237-1.521-6.503-2.986-9.798-4.394l-4.961-2.069-16.85 40.841c3.674 1.539 7.27 3.101 10.789 4.688l3.901 1.809c25.356 12.164 48.603 28.389 68.826 47.994l3.756 3.716c24.039 24.263 43.14 53.010 56.101 84.609 12.040 29.354 18.632 60.779 19.328 93.131l0.061 5.719v22.091h234.16zM183.508 738.727l131.989-131.993 6.959 5.245 6.004 4.425 5.639 4.046c0.91 0.643 1.804 1.27 2.684 1.881l5.096 3.479c2.458 1.646 4.783 3.151 6.974 4.515l1.985 1.22c2.676 1.621 5.67 3.321 8.988 5.103l5.219 2.736 5.708 2.861c1.984 0.975 4.050 1.971 6.198 2.989l6.693 3.119 1.768 0.811 2.372 1.131c3.341 1.565 6.715 3.070 10.116 4.513l5.124 2.12 16.984-40.783-10.247-4.477-5.907-2.656-4.278-2.108c-22.8-11.516-43.815-26.352-62.355-44.002l-3.935-3.825c-24.429-24.25-43.879-53.094-57.111-84.866-12.404-29.786-19.186-61.736-19.864-94.643l-0.057-5.493v-22.091h-234.16v44.181h190.765l0.079 1.037c2.301 30.649 9.169 60.479 20.312 88.719l2.139 5.276c11.963 28.724 28.26 55.389 48.223 79.101l2.703 3.148-134.043 134.039 31.241 31.241zM539.009 868.905v-190.765l0.926-0.070c30.502-2.279 60.196-9.081 88.319-20.12l5.254-2.119c29.781-12.336 57.361-29.33 81.747-50.239l1.035-0.898 134.039 134.035 31.241-31.241-132.754-132.74 2.983-4.132 5.3-7.208 2.815-3.77c3.432-4.576 7.218-10.343 11.383-17.328l0.988-1.679 0.18-0.274c9.752-14.959 18.194-30.777 25.199-47.286l2.058-4.973-40.356-17.917-3.798 7.754-3.647 7.313-3.494 6.871-3.339 6.425-3.182 5.978-3.023 5.527c-0.49 0.884-0.974 1.749-1.451 2.594l-2.488 4.353-0.757 1.161c-8.748 13.163-18.691 25.533-29.709 36.946l-3.713 3.769c-24.129 24.005-52.721 43.118-84.164 56.143-29.665 12.288-61.467 19.004-94.215 19.676l-5.466 0.056h-22.091v234.16h44.181z" />
<glyph unicode="&#x2601;" glyph-name="icon-cloud" data-tags="icon-cloud" d="M512.5 683.344c78.374 0 152.123-29.732 208.151-82.123l3.34-3.17-30.654-31.816c-48.268 46.505-112.445 72.929-180.837 72.929-119.111 0-222.099-80.567-252.026-193.851l-0.902-3.514-3.557-14.268-14.535-2.224c-74.937-11.466-131.026-76.229-131.026-152.846 0-84.431 67.667-153.058 151.729-154.607l2.905-0.027v-44.181c-109.802 0-198.815 89.013-198.815 198.815 0 93.045 64.309 172.468 152.687 193.435l1.522 0.361 0.671 2.206c38.483 124.946 153.802 213.031 287.132 214.853l4.216 0.029zM724.57 541.964c129.323 0 234.16-104.836 234.16-234.16 0-128.030-102.75-232.061-230.288-234.129l-3.872-0.031h-459.483v44.181h459.483c104.922 0 189.979 85.056 189.979 189.979s-85.056 189.979-189.979 189.979c-19.702 0-38.971-2.992-57.339-8.8l-4.573-1.51-14.391 41.772c24.348 8.388 50.046 12.719 76.304 12.719z" />
<glyph unicode="&#x2602;" glyph-name="umbrella" data-tags="umbrella" d="M539.009 798.215l0.004-49.137c231.875-11.319 417.897-199.827 423.981-433.887 0.171-6.576-2.050-12.993-6.25-18.056-9.582-11.551-26.715-13.148-38.265-3.565l-1.588 1.304c-40.007 32.469-78.959 48.276-117.213 48.276-36.614 0-73.86-14.477-112.065-44.185l-5.977-4.78c-4.927-4.070-11.106-6.316-17.496-6.361-15.341-0.108-27.865 12.241-27.973 27.583-0.69 98.021-21.043 189.469-61.072 274.568l-3.118 6.533 39.767 19.251c39.624-81.853 62.091-169.278 67.394-262.111l0.315-6.107 1.022 0.682c37.786 25.021 76.194 38.183 115.040 39.061l4.164 0.047c38.241 0 76.062-11.899 113.292-35.293l3.319-2.119-0.313 2.779c-23.892 195.549-188.050 347.237-388.11 352.591-74.848-101.404-117.361-212.962-127.712-335.102l-0.438-5.36 1.376 0.832c31.432 18.887 74.185 29.904 112.634 30.487l3.194 0.024h22.091v-340.194c0-70.761-57.364-128.125-128.125-128.125-69.83 0-126.614 55.864-128.095 125.339l-0.030 2.786v35.345h44.181v-35.345c0-46.361 37.583-83.944 83.944-83.944 45.561 0 82.646 36.298 83.911 81.554l0.033 2.39v294.538l-0.356-0.046c-40.061-5.196-82.106-23.025-93.082-42.904l-0.731-1.423c-2.424-5.109-6.458-9.122-11.326-11.551l-1.194-0.549-0.248-0.227c-9.849-8.124-24.239-8.182-34.167 0.084l-1.269 1.125c-40.679 38.401-80.011 56.965-118.296 56.965-17.902 0-35.938-4.035-54.259-12.236l-3.931-1.822-19.090 39.844c25.482 12.208 51.304 18.394 77.279 18.394 39.827 0 79.007-14.464 117.395-42.777l2.84-2.12 0.143 2.876c6.759 126.524 45.96 242.921 117.446 348.801-198.736-22.094-353.754-189.063-357.060-392.912l-0.054-6.648h-44.181c0 239.040 187.958 434.18 424.143 445.692l-0.005 49.136h44.181z" />
<glyph unicode="&#x260e;" glyph-name="numpad" data-tags="numpad" d="M516.919 316.641c46.361 0 83.944-37.583 83.944-83.944 0-45.561-36.298-82.646-81.554-83.911l-2.39-0.033v44.181c21.96 0 39.763 17.802 39.763 39.763s-17.802 39.763-39.763 39.763c-21.333 0-38.742-16.799-39.72-37.891l-0.043-1.872c0-0.483 0.011-0.971 0.035-1.466l0.112-1.52 0.198-1.608 0.293-1.729 0.398-1.884 0.514-2.074 0.637-2.297 0.771-2.554 1.979-6.017 3.394-9.575 6.188-16.843 2.158-6.1 1.882-5.624c5.195-16.017 7.95-29.381 7.95-42.323 0-11.573-1.414-21.262-5.025-34.011l-1.458-4.934-1.674-5.279-1.898-5.682-3.287-9.404-3.001-8.364-2.058-5.869-1.802-5.374-1.555-4.934c-3.346-11.038-4.752-18.902-4.752-26.601 0-23.548 16.71-39.763 39.763-39.763 21.96 0 39.763 17.802 39.763 39.763 0 21.333-16.799 38.742-37.891 39.72l-1.872 0.043v44.181c46.361 0 83.944-37.583 83.944-83.944s-37.583-83.944-83.944-83.944c-47.16 0-83.944 35.693-83.944 83.944 0 15.795 3.093 29.607 10.214 50.423l7.345 20.745 2.5 7.373 1.407 4.392 1.21 4.029c0.372 1.288 0.713 2.523 1.024 3.715l0.848 3.447c0.381 1.665 0.701 3.247 0.963 4.775l0.45 2.99 0.309 2.89c0.161 1.905 0.235 3.775 0.235 5.675 0 7.462-1.904 16.694-5.795 28.693l-1.087 3.278-1.842 5.287-2.267 6.237-4.102 11.114-2.732 7.565-2.282 6.565-1.289 3.901-1.115 3.575-0.953 3.298-0.801 3.068-0.66 2.886-0.28 1.389-0.467 2.702-0.352 2.638-0.248 2.623-0.089 1.32-0.112 2.688-0.027 1.379-0.009 1.411c0 46.361 37.583 83.944 83.944 83.944zM304.85 528.71c47.16 0 83.944-35.693 83.944-83.944 0-11.381-1.37-20.782-4.824-32.634l-1.493-4.882-0.834-2.558-2.345-6.804-2.736-7.482-5.566-14.743-1.754-4.844-2.208-6.478-1.207-3.871-0.529-1.821-0.914-3.445c-1.505-6.101-2.098-11.104-2.098-16.472 0-3.7 0.479-7.685 1.452-12.129l0.71-3.048 0.802-3.011 0.967-3.199 1.671-4.947 2.944-8.028 4.645-12.219 2.561-6.937c7.228-20.050 10.417-33.591 10.733-49.791l0.026-2.727c0-46.361-37.583-83.944-83.944-83.944s-83.944 37.583-83.944 83.944c0 45.561 36.298 82.646 81.554 83.911l2.39 0.033v-44.181c-21.96 0-39.763-17.802-39.763-39.763s17.802-39.763 39.763-39.763c21.333 0 38.742 16.799 39.72 37.891l0.043 1.872c0 8.99-1.449 17.19-5.121 28.678l-1.59 4.781c-0.285 0.829-0.581 1.676-0.887 2.539l-1.966 5.415-7.413 19.643-1.887 5.254-1.055 3.093-1.342 4.23-0.772 2.666-1.036 3.971-0.966 4.183c-1.62 7.398-2.475 14.509-2.475 21.58 0 11.381 1.37 20.782 4.824 32.634l1.493 4.882 0.834 2.558 2.345 6.804 2.736 7.482 5.566 14.743 1.754 4.844 2.208 6.478 1.207 3.871 0.529 1.821 0.914 3.445c1.505 6.101 2.098 11.104 2.098 16.472 0 23.548-16.71 39.763-39.763 39.763-21.96 0-39.763-17.802-39.763-39.763 0-21.333 16.799-38.742 37.891-39.72l1.872-0.043v-44.181c-46.361 0-83.944 37.583-83.944 83.944s37.583 83.944 83.944 83.944zM728.988 316.641c46.361 0 83.944-37.583 83.944-83.944s-37.583-83.944-83.944-83.944c-14.734 0-29.059 3.704-48.212 11.209l-6.364 2.556-18.087 7.522-6.293 2.518-3.731 1.433-3.396 1.247-3.094 1.071-2.825 0.905-2.588 0.748-2.383 0.6-1.125 0.247-2.137 0.395-1.020 0.15-1.964 0.212c-0.641 0.052-1.268 0.085-1.889 0.101l-0.927 0.012v44.181c9.981 0 18.188-1.355 29.614-5.146l5.265-1.834 5.778-2.17 2.476-0.967 5.268-2.111 22.306-9.249c16.128-6.508 26.818-9.45 35.327-9.45 21.96 0 39.763 17.802 39.763 39.763s-17.802 39.763-39.763 39.763c-21.333 0-38.742-16.799-39.72-37.891l-0.043-1.872h-44.181c0 46.361 37.583 83.944 83.944 83.944zM728.988 528.71c46.361 0 83.944-37.583 83.944-83.944 0-46.711-36.742-83.944-83.944-83.944-14.001 0-25.076 2.443-41.828 8.938l-5.204 2.072-5.596 2.324-6.040 2.587-8.616 3.741-4.934 2.087-6.597 2.67-3.926 1.489-3.599 1.271-3.315 1.064c-2.657 0.804-5.064 1.403-7.334 1.83l-2.667 0.43-2.579 0.275c-0.85 0.067-1.693 0.111-2.534 0.132l-1.264 0.016c-1.266 0-2.524-0.047-3.8-0.148l-2.579-0.275-2.667-0.43c-2.27-0.426-4.678-1.026-7.334-1.83l-3.315-1.064-3.599-1.271-3.926-1.489-4.296-1.72-7.235-3.037-11.695-5.068-8.558-3.585-5.204-2.072c-15.914-6.17-26.705-8.683-39.749-8.92l-2.079-0.019c-46.361 0-83.944 37.583-83.944 83.944s37.583 83.944 83.944 83.944c45.561 0 82.646-36.298 83.911-81.554l0.033-2.39h-44.181c0 21.96-17.802 39.763-39.763 39.763s-39.763-17.802-39.763-39.763c0-21.333 16.799-38.742 37.891-39.72l1.872-0.043c1.266 0 2.524 0.047 3.8 0.148l2.579 0.275 2.667 0.43c2.27 0.426 4.678 1.026 7.334 1.83l3.315 1.064 3.599 1.271 3.926 1.489 4.296 1.72 7.235 3.037 11.695 5.068 8.558 3.585 5.204 2.072c16.751 6.494 27.827 8.938 41.828 8.938s25.076-2.443 41.828-8.938l5.204-2.072 5.596-2.324 6.040-2.587 8.616-3.741 4.934-2.087 6.597-2.67 3.926-1.489 3.599-1.271 3.315-1.064c2.657-0.804 5.064-1.403 7.334-1.83l2.667-0.43 2.579-0.275c1.275-0.101 2.533-0.148 3.8-0.148 22.669 0 39.763 17.323 39.763 39.763 0 21.96-17.802 39.763-39.763 39.763-21.333 0-38.742-16.799-39.72-37.891l-0.043-1.872h-44.181c0 46.361 37.583 83.944 83.944 83.944zM516.919 740.779c46.361 0 83.944-37.583 83.944-83.944 0-45.561-36.298-82.646-81.554-83.911l-2.39-0.033c-21.003 0-37.060 4.082-59.692 13.289l-14.299 5.967-4.863 1.943-4.205 1.553c-7.344 2.574-13.106 3.757-18.558 3.757-2.493 0-4.909-0.114-7.375-0.369l-2.992-0.375c-2.022-0.297-4.109-0.693-6.326-1.197l-3.433-0.843-1.806-0.486-3.82-1.111-4.14-1.302-4.508-1.504-4.927-1.717-18.265-6.596-6.015-2.079-5.578-1.833-5.206-1.598c-13.445-3.953-23.618-5.498-36.061-5.498-49.304 0-83.944 36.315-83.944 83.944 0 46.361 37.583 83.944 83.944 83.944 45.561 0 82.646-36.298 83.911-81.554l0.033-2.39h-44.181c0 21.96-17.802 39.763-39.763 39.763s-39.763-17.802-39.763-39.763c0-23.683 15.339-39.763 39.763-39.763 2.493 0 4.909 0.114 7.375 0.369l2.992 0.375c2.022 0.297 4.109 0.693 6.326 1.197l3.433 0.843 1.806 0.486 3.82 1.111 4.14 1.302 4.508 1.504 4.927 1.717 18.265 6.596 6.015 2.079 5.578 1.833 5.206 1.598c13.445 3.953 23.618 5.498 36.061 5.498 11.023 0 21.489-2.15 33.168-6.243l2.107-0.754 4.369-1.655 7.206-2.925 8.070-3.392c18.707-7.831 30.216-11.145 44.069-11.507l2.628-0.034c21.96 0 39.763 17.802 39.763 39.763s-17.802 39.763-39.763 39.763c-21.333 0-38.742-16.799-39.72-37.891l-0.043-1.872h-44.181c0 46.361 37.583 83.944 83.944 83.944zM728.988 740.779c46.361 0 83.944-37.583 83.944-83.944s-37.583-83.944-83.944-83.944c-10.972 0-20.070 1.38-32.335 5.005l-6 1.867-6.579 2.215-5.759 2.036-6.262 2.281-11.915 4.394-6.197 2.181-2.296 0.768c-10.857 3.578-19.317 5.438-26.703 5.724l-1.989 0.039v44.181c12.25 0 24.399-2.299 38.599-6.724l5.244-1.697 5.26-1.81 7.959-2.889 9.473-3.501 4.902-1.769 4.471-1.566 4.082-1.372 3.735-1.187 5.040-1.456 3.045-0.768c2.447-0.576 4.683-0.993 6.815-1.277l2.514-0.279 2.455-0.16 2.438-0.051c21.96 0 39.763 17.802 39.763 39.763s-17.802 39.763-39.763 39.763c-21.333 0-38.742-16.799-39.72-37.891l-0.043-1.872h-44.181c0 46.361 37.583 83.944 83.944 83.944z" />
<glyph unicode="&#x261d;" glyph-name="hand-point" data-tags="hand-point" d="M410.953 820.305c-40.727 0-73.882-32.416-75.074-72.853l-0.033-2.254v-464.712c0-1.477-0.739-2.857-1.967-3.676-1.805-1.203-4.172-0.903-5.627 0.604l-0.499 0.622-65.088 97.631c-2.304 3.455-4.943 6.676-7.88 9.612-24.63 24.63-64.563 24.63-89.192 0-27.396-27.396-32.017-70.034-11.439-102.592l1.409-2.155 184.074-272.276 36.602 24.745-184.074 272.276c-10.326 15.274-8.367 35.725 4.67 48.762 7.376 7.376 19.335 7.376 26.711 0 0.587-0.587 1.133-1.21 1.637-1.868l0.723-1.011 65.088-97.631c14.889-22.333 45.062-28.368 67.395-13.479 12.906 8.603 20.891 22.821 21.591 38.228l0.050 2.209v464.712c0 17.081 13.847 30.927 30.927 30.927 16.511 0 30-12.939 30.881-29.23l0.046-1.697v-371.121h44.181v119.288h30.927c16.511 0 30-12.939 30.881-29.23l0.046-1.582v-88.477h44.181v83.944h30.927c16.511 0 30-12.939 30.881-29.23l0.046-1.582v-53.132h44.181v48.599h30.927c16.511 0 30-12.939 30.881-29.23l0.046-1.697v-229.741c0-103.873-83.363-188.276-186.837-189.954l-3.142-0.025v-44.181c128.030 0 232.061 102.75 234.129 230.288l0.031 3.872v229.741c0 40.727-32.416 73.882-72.853 75.074l-2.254 0.033h-42.307l-0.72 1.134c-13.012 20.005-35.291 33.427-60.753 34.177l-2.254 0.033h-42.307l-0.72 1.134c-13.012 20.005-35.291 33.427-60.753 34.177l-2.254 0.033h-30.927v207.651c0 40.727-32.416 73.882-72.853 75.074l-2.254 0.033z" />
</font>
</defs>
</svg>
