<?xml version="1.0" encoding="UTF-8"?>
<svg width="128px" height="128px" viewBox="0 0 128 128" version="1.1" xmlns="http://www.w3.org/2000/svg" xmlns:xlink="http://www.w3.org/1999/xlink">
    <title>arrow-right</title>
    <g id="arrow-right" stroke="none" stroke-width="1" fill="none" fill-rule="evenodd">
        <rect id="Rectangle" stroke-opacity="0.01" stroke="#979797" stroke-width="0.1" x="0" y="0" width="128" height="128"></rect>
        <path d="M67.1092883,30.7479672 L111.803836,60.2371533 L111.98827,60.3654398 C113.911163,61.7743594 114.408908,64.4599279 113.081684,66.4715021 C112.792635,66.9095909 112.429558,67.2931653 112.009335,67.6053828 L111.794539,67.7554672 L67.6061894,96.7540719 L65.9602201,94.2459281 L110.14857,65.2473235 L110.271793,65.1571642 C110.390114,65.0609744 110.493312,64.947111 110.577618,64.8193351 C111.007014,64.1685317 110.863345,63.3060847 110.268466,62.8265076 L110.151669,62.7412188 L65.4571213,33.2520328 L67.1092883,30.7479672 Z M80,62.5 L80,65.5 L16,65.5 L16,62.5 L80,62.5 Z" id="Shape" fill="#000000" fill-rule="nonzero"></path>
    </g>
</svg>