<?xml version="1.0" encoding="UTF-8"?>
<svg width="128px" height="128px" viewBox="0 0 128 128" version="1.1" xmlns="http://www.w3.org/2000/svg" xmlns:xlink="http://www.w3.org/1999/xlink">
    <title>article</title>
    <g id="article" stroke="none" stroke-width="1" fill="none" fill-rule="evenodd">
        <rect id="Rectangle" stroke-opacity="0.01" stroke="#979797" stroke-width="0.1" x="0" y="0" width="128" height="128"></rect>
        <path d="M102,14.5 C103.868563,14.5 105.395126,15.9642776 105.494821,17.8079648 L105.5,18 L105.5,112 L102.5,112 L102.5,18 C102.5,17.7545401 102.323125,17.5503916 102.089876,17.5080557 L102,17.5 L26,17.5 C25.7545401,17.5 25.5503916,17.6768752 25.5080557,17.9101244 L25.5,18 L25.5,112 L22.5,112 L22.5,18 C22.5,16.1314366 23.9642776,14.6048736 25.8079648,14.5051789 L26,14.5 L102,14.5 Z M84,71.5 C87.0375661,71.5 89.5,73.9624339 89.5,77 C89.5,79.9634791 87.15622,82.3795391 84.2212071,82.4956328 L84,82.5 L44,82.5 C42.6192881,82.5 41.5,83.6192881 41.5,85 C41.5,86.3254834 42.5315359,87.4100387 43.8356243,87.4946823 L44,87.5 L84.5,87.5 C87.2614237,87.5 89.5,89.7385763 89.5,92.5 C89.5,95.1887547 87.3776933,97.3818181 84.7168896,97.4953805 L84.5,97.5 L44,97.5 C42.6192881,97.5 41.5,98.6192881 41.5,100 C41.5,101.325483 42.5315359,102.410039 43.8356243,102.494682 L44,102.5 L80,102.5 C85.1562447,102.5 89.3530394,106.607894 89.4962236,111.729521 L89.5,112 L86.5,112 C86.5,108.488189 83.7150038,105.626849 80.2331341,105.504103 L80,105.5 L44,105.5 C40.9624339,105.5 38.5,103.037566 38.5,100 C38.5,97.0365209 40.84378,94.6204609 43.7787929,94.5043672 L44,94.5 L84.5,94.5 C85.6045695,94.5 86.5,93.6045695 86.5,92.5 C86.5,91.4456382 85.6841222,90.5818349 84.6492623,90.5054857 L84.5,90.5 L44,90.5 C40.9624339,90.5 38.5,88.0375661 38.5,85 C38.5,82.0365209 40.84378,79.6204609 43.7787929,79.5043672 L44,79.5 L84,79.5 C85.3807119,79.5 86.5,78.3807119 86.5,77 C86.5,75.6745166 85.4684641,74.5899613 84.1643757,74.5053177 L84,74.5 L40,74.5 L40,71.5 L84,71.5 Z M86,30.5 C87.8685634,30.5 89.3951264,31.9642776 89.4948211,33.8079648 L89.5,34 L89.5,48 L86.5,48 L86.5,34 C86.5,33.7545401 86.3231248,33.5503916 86.0898756,33.5080557 L86,33.5 L42,33.5 C41.7545401,33.5 41.5503916,33.6768752 41.5080557,33.9101244 L41.5,34 L41.5,54.5 C41.5,54.7454599 41.6768752,54.9496084 41.9101244,54.9919443 L42,55 L88,55 L88,58 L42,58 C40.1314366,58 38.6048736,56.5357224 38.5051789,54.6920352 L38.5,54.5 L38.5,34 C38.5,32.1314366 39.9642776,30.6048736 41.8079648,30.5051789 L42,30.5 L86,30.5 Z" id="Shape" fill="#000000" fill-rule="nonzero"></path>
    </g>
</svg>