<?xml version="1.0" encoding="UTF-8"?>
<svg   viewBox="0 0 128 128" version="1.1" xmlns="http://www.w3.org/2000/svg" xmlns:xlink="http://www.w3.org/1999/xlink">
    <title>ascending-sort</title>
    <g id="ascending-sort" stroke="none" stroke-width="1" fill="none" fill-rule="evenodd">
        <path d="M18,31 L18,43 L18.0053177,43.1643757 C18.0864345,44.414127 19.085873,45.4135655 20.3356243,45.4946823 L20.5,45.5 L44.5,45.5 L44.7212071,45.5043672 C47.65622,45.6204609 50,48.0365209 50,51 C50,53.9634791 47.65622,56.3795391 44.7212071,56.4956328 L44.5,56.5 L20.5,56.5 L20.3356243,56.5053177 C19.0315359,56.5899613 18,57.6745166 18,59 C18,60.3254834 19.0315359,61.4100387 20.3356243,61.4946823 L20.5,61.5 L60.5,61.5 L60.7212071,61.5043672 C63.65622,61.6204609 66,64.0365209 66,67 C66,69.9634791 63.65622,72.3795391 60.7212071,72.4956328 L60.5,72.5 L20.5,72.5 L20.3356243,72.5053177 C19.0315359,72.5899613 18,73.6745166 18,75 C18,76.3254834 19.0315359,77.4100387 20.3356243,77.4946823 L20.5,77.5 L76.5,77.5 L76.7212071,77.5043672 C79.65622,77.6204609 82,80.0365209 82,83 C82,85.9634791 79.65622,88.3795391 76.7212071,88.4956328 L76.5,88.5 L20.5,88.5 L20.3356243,88.5053177 C19.0315359,88.5899613 18,89.6745166 18,91 C18,92.3254834 19.0315359,93.4100387 20.3356243,93.4946823 L20.5,93.5 L96.5,93.5 L96.5,96.5 L20.5,96.5 L20.2787929,96.4956328 C17.34378,96.3795391 15,93.9634791 15,91 C15,88.0365209 17.34378,85.6204609 20.2787929,85.5043672 L20.5,85.5 L76.5,85.5 L76.6643757,85.4946823 C77.9684641,85.4100387 79,84.3254834 79,83 C79,81.6745166 77.9684641,80.5899613 76.6643757,80.5053177 L76.5,80.5 L20.5,80.5 L20.2787929,80.4956328 C17.34378,80.3795391 15,77.9634791 15,75 C15,72.0365209 17.34378,69.6204609 20.2787929,69.5043672 L20.5,69.5 L60.5,69.5 L60.6643757,69.4946823 C61.9684641,69.4100387 63,68.3254834 63,67 C63,65.6745166 61.9684641,64.5899613 60.6643757,64.5053177 L60.5,64.5 L20.5,64.5 L20.2787929,64.4956328 C17.34378,64.3795391 15,61.9634791 15,59 C15,56.0365209 17.34378,53.6204609 20.2787929,53.5043672 L20.5,53.5 L44.5,53.5 L44.6643757,53.4946823 C45.9684641,53.4100387 47,52.3254834 47,51 C47,49.6745166 45.9684641,48.5899613 44.6643757,48.5053177 L44.5,48.5 L20.5,48.5 L20.2787929,48.4956328 C17.4190368,48.3825159 15.1205826,46.0858675 15.0045933,43.2268507 L15,43 L15,31 L18,31 Z M98,48.5 L98,80.5 L95,80.5 L95,48.5 L98,48.5 Z M99.2973968,34.0019201 L99.412176,34.1641006 L113.748075,55.6679497 L111.251925,57.3320503 L96.9160251,35.8282012 C96.7628489,35.5984368 96.4524142,35.5363499 96.2226499,35.6895261 C96.1860325,35.7139377 96.1528793,35.7430223 96.1239962,35.775974 L96.0839749,35.8282012 L81.7480754,57.3320503 L79.2519246,55.6679497 L93.587824,34.1641006 C93.844146,33.7796176 94.1740663,33.4496972 94.5585493,33.1933752 C96.1114394,32.1581152 98.1907489,32.5275689 99.2973968,34.0019201 Z" id="Shape" fill="#000000" fill-rule="nonzero"></path>
    </g>
</svg>