<?xml version="1.0" encoding="UTF-8"?>
<svg width="128px" height="128px" viewBox="0 0 128 128" version="1.1" xmlns="http://www.w3.org/2000/svg" xmlns:xlink="http://www.w3.org/1999/xlink">
    <title>assignment</title>
    <g id="assignment" stroke="none" stroke-width="1" fill="none" fill-rule="evenodd">
        <rect id="Rectangle" stroke-opacity="0.01" stroke="#979797" stroke-width="0.1" x="0" y="0" width="128" height="128"></rect>
        <path d="M81.5,33 L58.5,33 L58.5,24 C58.5,20.9624339 60.9624339,18.5 64,18.5 C67.0375661,18.5 69.5,20.9624339 69.5,24 C69.5,24.9579714 69.2534365,25.8826148 68.7933329,26.6984929 L68.6489286,26.9399179 L66.1144907,25.3347311 C66.365311,24.9387097 66.5,24.4811825 66.5,24 C66.5,22.6192881 65.3807119,21.5 64,21.5 C62.6745166,21.5 61.5899613,22.5315359 61.5053177,23.8356243 L61.5,24 L61.5,30 L78.5,30 L78.5,24 L78.495897,23.7668659 C78.3758783,20.3623711 75.6376289,17.6241217 72.2331341,17.504103 L72,17.5 L56,17.5 L55.7668659,17.504103 C52.3623711,17.6241217 49.6241217,20.3623711 49.504103,23.7668659 L49.5,24 L49.5,30 L52,30 L52,33 L46.5,33 L46.5,25.5 L31,25.5 C28.5857267,25.5 26.6155109,27.4012365 26.504898,29.7881643 L26.5,30 L26.5,106 C26.5,108.414273 28.4012365,110.384489 30.7881643,110.495102 L31,110.5 L98,110.5 C100.414273,110.5 102.384489,108.598763 102.495102,106.211836 L102.5,106 L102.5,56 L105.5,56 L105.5,106 C105.5,110.060917 102.272526,113.368018 98.2427311,113.496146 L98,113.5 L31,113.5 C26.9390827,113.5 23.6319825,110.272526 23.5038536,106.242731 L23.5,106 L23.5,30 C23.5,25.9390827 26.7274744,22.6319825 30.7572689,22.5038536 L31,22.5 L46.6177536,22.4999881 C47.3228307,18.0549169 51.1109428,14.6363328 55.7223459,14.5039796 L56,14.5 L72,14.5 L72.2704787,14.5037764 C76.8851272,14.6327871 80.6768036,18.0526116 81.3822464,22.4999881 L98,22.5 C102.060917,22.5 105.368018,25.7274744 105.496146,29.7572689 L105.5,30 L105.5,32.5 L102.5,32.5 L102.5,30 C102.5,27.5857267 100.598763,25.6155109 98.2118357,25.504898 L98,25.5 L81.5,25.5 L81.5,33 Z M102.93934,38.9393398 L105.06066,41.0606602 L64,82.1213203 L46.9393398,65.0606602 L49.0606602,62.9393398 L64,77.879 L102.93934,38.9393398 Z" id="Shape" fill="#000000" fill-rule="nonzero"></path>
    </g>
</svg>