<?xml version="1.0" encoding="UTF-8"?>
<svg width="128px" height="128px" viewBox="0 0 128 128" version="1.1" xmlns="http://www.w3.org/2000/svg" xmlns:xlink="http://www.w3.org/1999/xlink">
    <title>books</title>
    <g id="books" stroke="none" stroke-width="1" fill="none" fill-rule="evenodd">
        <rect id="Rectangle" stroke-opacity="0.01" stroke="#979797" stroke-width="0.1" x="0" y="0" width="128" height="128"></rect>
        <path d="M104,54.5 C108.834241,54.5 113.5,58.6058679 113.5,64 C113.5,67.5318375 112.515637,69.7939837 110.227704,72.5506485 L109.878243,72.9630269 L108.227862,74.8703771 L108.056874,75.071196 L107.791044,75.3614268 L107.210247,75.9628566 L105.94808,77.2212436 L104.245007,78.8806782 L101.611085,81.4101163 L97.1393603,85.655075 L89.0280833,93.2760952 L79.0205215,102.599334 L78.9160422,102.488281 C77.2360735,104.262068 74.8758059,105.383067 72.2572501,105.435804 L71.9885257,105.437456 L15.9882816,104.999954 L15.8139479,102.011583 C20.3439529,101.445333 22.4054514,99.5963284 22.496816,96.2368368 L22.5,96 L25.5,96 C25.5,98.4830155 24.739005,100.483938 23.2766149,101.975533 L23.194,102.056 L72.0119625,102.437548 C75.4900155,102.46472 78.3454714,99.7286203 78.4941229,96.2921263 L78.5,96 C78.5,92.4738613 75.7179343,89.5933206 72.2225832,89.4433837 L71.9885257,89.4374561 L12.3667567,88.9716611 L22.5358999,78.9614107 L24.6404517,81.0993681 L19.632,86.028 L72.0119625,86.4375477 C77.173456,86.4778718 81.3536293,90.6018364 81.4962389,95.7292274 L81.4999536,96.073813 L81.4976287,96.1998178 L90.2213222,88.0462805 L97.4610514,81.2188833 L101.568959,77.2972152 L103.16481,75.753009 L104.423615,74.5163045 L105.017826,73.9204305 L105.422515,73.5045057 L105.788201,73.1092442 L105.788201,73.1092442 L107.69431,70.9020219 C109.737603,68.5045581 110.5,66.8468331 110.5,64 C110.5,60.4333901 107.39615,57.6244669 104.212339,57.5040253 L104,57.5 L104,54.5 Z M104,22.5 C108.834241,22.5 113.5,26.6058679 113.5,32 C113.5,35.5318375 112.515637,37.7939837 110.227704,40.5506485 L109.878243,40.9630269 L108.227862,42.8703771 L107.976363,43.1650177 L107.590201,43.5891484 L106.973267,44.2351751 L106.041305,45.1783802 L104.69559,46.5070248 L103.049638,48.1040079 L100.568536,50.4790663 L96.9673847,53.8872542 L91.5042801,59.0084255 L85.4361738,64.656505 L83.3951308,62.4578364 L90.5562407,55.7880837 L96.6751222,50.0371224 L100.152151,46.7284667 L102.28615,44.6684786 L103.803095,43.1769025 L104.480083,42.4971359 L105.038376,41.9240171 L105.551323,41.3773832 L105.847668,41.0397234 L107.69431,38.9020219 C109.737603,36.5045581 110.5,34.8468331 110.5,32 C110.5,28.4333901 107.39615,25.6244669 104.212339,25.5040253 L104,25.5 L48.613,25.5 L19.632,54.028 L72.0119625,54.4375477 C77.173456,54.4778718 81.3536293,58.6018364 81.4962389,63.7292274 L81.499712,64.0737301 C81.459694,69.1960283 77.3462731,73.3333115 72.257253,73.4358038 L71.9885257,73.4374561 L15.9882816,72.9999542 L15.8139479,70.0115832 C20.3439529,69.4453326 22.4054514,67.5963284 22.496816,64.2368368 L22.5,64 L25.5,64 C25.5,66.4830155 24.739005,68.4839379 23.2766149,69.9755325 L23.194,70.056 L72.0119625,70.4375477 C75.4900315,70.4647201 78.3454283,67.7286217 78.4939361,64.2811558 L78.5,64 C78.5,60.4738613 75.7179343,57.5933206 72.2225832,57.4433837 L71.9885257,57.4374561 L12.3667567,56.9716611 L47.385587,22.5 L104,22.5 Z" id="Shape" fill="#000000" fill-rule="nonzero"></path>
    </g>
</svg>