<?xml version="1.0" encoding="UTF-8"?>
<svg width="128px" height="128px" viewBox="0 0 128 128" version="1.1" xmlns="http://www.w3.org/2000/svg" xmlns:xlink="http://www.w3.org/1999/xlink">
    <title>camera-off</title>
    <g id="camera-off" stroke="none" stroke-width="1" fill="none" fill-rule="evenodd">
        <rect id="Rectangle" stroke-opacity="0.01" stroke="#979797" stroke-width="0.1" x="0" y="0" width="128" height="128"></rect>
        <path d="M17.0606602,14.9393398 L113.06066,110.93934 L110.93934,113.06066 L14.9393398,17.0606602 L17.0606602,14.9393398 Z M23.2623362,31.3551441 L24.3152716,34.1642947 C20.342067,35.6535447 17.6256646,39.4094132 17.504244,43.6998235 L17.5,44 L17.5,88 C17.5,91.5118106 20.2849962,94.3731506 23.7668659,94.495897 L24,94.5 L76,94.5 C78.1308191,94.5 80.1623538,93.865264 81.8831752,92.6984994 L82.1835811,92.4870979 L83.9524344,94.9101451 C81.7646922,96.507223 79.1476313,97.4150985 76.3942377,97.4943329 L76,97.5 L24,97.5 C18.8437553,97.5 14.6469606,93.3921061 14.5037764,88.2704787 L14.5,88 L14.5,44 C14.5,38.3245135 18.0348298,33.3145358 23.2623362,31.3551441 Z M76,30.5 C83.3522907,30.5 89.3318345,36.3774286 89.4965146,43.6901692 L89.5,44 L89.5,71.37 L106.250938,87.7713706 C107.194578,88.6953517 108.683786,88.7202808 109.65688,87.8573335 L109.786276,87.7341565 C110.198029,87.3136424 110.446743,86.7629946 110.492368,86.1803572 L110.5,85.9850945 L110.5,41.6568542 C110.5,40.2761424 109.380712,39.1568542 108,39.1568542 C107.403263,39.1568542 106.828523,39.3702019 106.377757,39.7546564 L106.232233,39.8890873 L97.0606602,49.0606602 L94.9393398,46.9393398 L104.110913,37.767767 C105.142363,36.7363169 106.541309,36.1568542 108,36.1568542 C110.963479,36.1568542 113.379539,38.5006343 113.495633,41.4356471 L113.5,41.6568542 L113.5,85.9850945 C113.5,87.4237346 112.936316,88.8051075 111.929807,89.8330309 C109.863683,91.9431154 106.514846,92.0363757 104.335907,90.0869947 L104.152064,89.9149019 L86.9505628,73.0717656 C86.6984218,72.8248775 86.5425654,72.4982487 86.507541,72.1502704 L86.5,72 L86.5,44 C86.5,38.2960755 81.951858,33.6544266 76.2842951,33.5037742 L76,33.5 L40,33.5 L40,30.5 L76,30.5 Z" id="Shape" fill="#000000" fill-rule="nonzero"></path>
    </g>
</svg>