<?xml version="1.0" encoding="UTF-8"?>
<svg   viewBox="0 0 128 128" version="1.1" xmlns="http://www.w3.org/2000/svg" xmlns:xlink="http://www.w3.org/1999/xlink">
    <title>camera</title>
    <g id="camera" stroke="none" stroke-width="1" fill="none" fill-rule="evenodd">
        <rect id="Rectangle" stroke-opacity="0.01" stroke="#979797" stroke-width="0.1" x="0" y="0" width="128" height="128"></rect>
        <path d="M76,30.5 C83.3522907,30.5 89.3318345,36.3774286 89.4965146,43.6901692 L89.5,44 L89.5,71.37 L106.250938,87.7713706 C107.194578,88.6953517 108.683786,88.7202808 109.65688,87.8573335 L109.786276,87.7341565 C110.198029,87.3136424 110.446743,86.7629946 110.492368,86.1803572 L110.5,85.9850945 L110.5,41.6568542 C110.5,40.2761424 109.380712,39.1568542 108,39.1568542 C107.403263,39.1568542 106.828523,39.3702019 106.377757,39.7546564 L106.232233,39.8890873 L97.0606602,49.0606602 L94.9393398,46.9393398 L104.110913,37.767767 C105.142363,36.7363169 106.541309,36.1568542 108,36.1568542 C110.963479,36.1568542 113.379539,38.5006343 113.495633,41.4356471 L113.5,41.6568542 L113.5,85.9850945 C113.5,87.4237346 112.936316,88.8051075 111.929807,89.8330309 C109.863683,91.9431154 106.514846,92.0363757 104.335907,90.0869947 L104.152064,89.9149019 L86.9505628,73.0717656 C86.6984218,72.8248775 86.5425654,72.4982487 86.507541,72.1502704 L86.5,72 L86.5,44 C86.5,38.2960755 81.951858,33.6544266 76.2842951,33.5037742 L76,33.5 L28,33.5 C22.2960755,33.5 17.6544266,38.048142 17.5037742,43.7157049 L17.5,44 L17.5,88 C17.5,91.5118106 20.2849962,94.3731506 23.7668659,94.495897 L24,94.5 L76,94.5 C81.7039245,94.5 86.3455734,89.951858 86.4962258,84.2842951 L86.5,84 L86.5,80 L89.5,80 L89.5,84 C89.5,91.3522907 83.6225714,97.3318345 76.3098308,97.4965146 L76,97.5 L24,97.5 C18.8437553,97.5 14.6469606,93.3921061 14.5037764,88.2704787 L14.5,88 L14.5,44 C14.5,36.6477093 20.3774286,30.6681655 27.6901692,30.5034854 L28,30.5 L76,30.5 Z" id="Path-51" fill="#000000" fill-rule="nonzero"></path>
    </g>
</svg>