<?xml version="1.0" encoding="UTF-8"?>
<svg width="128px" height="128px" viewBox="0 0 128 128" version="1.1" xmlns="http://www.w3.org/2000/svg" xmlns:xlink="http://www.w3.org/1999/xlink">
    <title>card</title>
    <g id="card" stroke="none" stroke-width="1" fill="none" fill-rule="evenodd">
        <rect id="Rectangle" stroke-opacity="0.01" stroke="#979797" stroke-width="0.1" x="0" y="0" width="128" height="128"></rect>
        <path d="M88,14.5 C93.1562447,14.5 97.3530394,18.6078939 97.4962236,23.7295213 L97.5,24 L97.5,104 C97.5,109.156245 93.3921061,113.353039 88.2704787,113.496224 L88,113.5 L48,113.5 L48,110.5 L88,110.5 C91.5118106,110.5 94.3731506,107.715004 94.495897,104.233134 L94.5,104 L94.5,24 C94.5,20.4881894 91.7150038,17.6268494 88.2331341,17.504103 L88,17.5 L40,17.5 C36.4881894,17.5 33.6268494,20.2849962 33.504103,23.7668659 L33.5,24 L33.5,104 C33.5,107.511811 36.2849962,110.373151 39.7668659,110.495897 L40,110.5 L40,113.5 C34.8437553,113.5 30.6469606,109.392106 30.5037764,104.270479 L30.5,104 L30.5,24 C30.5,18.8437553 34.6078939,14.6469606 39.7295213,14.5037764 L40,14.5 L88,14.5 Z M80,22.5 L80,25.5 L48,25.5 L48,22.5 L80,22.5 Z" id="Shape" fill="#000000" fill-rule="nonzero"></path>
    </g>
</svg>