<?xml version="1.0" encoding="UTF-8"?>
<svg   viewBox="0 0 128 128" version="1.1" xmlns="http://www.w3.org/2000/svg" xmlns:xlink="http://www.w3.org/1999/xlink">
    <title>chat</title>
    <g id="chat" stroke="none" stroke-width="1" fill="none" fill-rule="evenodd">
        <rect id="Rectangle" stroke-opacity="0.01" stroke="#979797" stroke-width="0.1" x="0" y="0" width="128" height="128"></rect>
        <path d="M24.3421125,43.7273427 L26.5251752,45.7850689 L26.1781778,46.1589717 C21.3720379,51.4193514 18.7460398,57.7547532 18.7460398,64.4 C18.7460398,74.7335324 25.1393119,84.2409539 35.6373519,89.9702319 L36.0771396,90.2067575 L37.2828895,90.8457597 L36.7360462,92.1653086 L36.538641,92.6060076 C35.1345381,95.6580471 33.130045,98.3276061 30.6822638,100.435706 L30.2921111,100.763872 L30.0785681,100.935 L30.3922428,101.075643 C32.5475785,102.010509 34.8635292,102.5 37.2460398,102.5 C42.5193307,102.5 47.4387073,100.088645 50.9232779,95.9331075 L51.1819135,95.6181823 L51.6911774,94.9850149 L52.4997186,95.0657096 L53.4391792,95.1499074 C54.695375,95.2497734 55.9655838,95.3 57.2460398,95.3 C59.6843695,95.3 62.0928243,95.117867 64.450079,94.7592189 L65.3316079,94.6164627 L65.8395283,97.5731528 L64.9019806,97.7249878 C62.6736863,98.0640451 60.4037613,98.2546645 58.1080916,98.2928385 L57.2460398,98.3 L56.2281115,98.2900003 C55.550841,98.2766732 54.8763496,98.2500363 54.2051314,98.2101596 L53.2008207,98.1404233 L52.9985681,98.122 L52.6969674,98.4649997 C48.6903443,102.915136 43.1658005,105.5 37.2460398,105.5 C33.5613314,105.5 30.0102269,104.501857 26.8596243,102.63169 L26.4509694,102.38282 L24.4142469,101.11071 L26.4508575,99.838422 L26.8253322,99.5980752 C29.4207802,97.8872284 31.595412,95.5046178 33.1471965,92.6778593 L33.3752676,92.2505429 L33.4185681,92.165 L32.9199621,91.8763183 C22.2649229,85.579397 15.7460398,75.4654541 15.7460398,64.4 C15.7460398,56.9696448 18.6755733,49.9128174 23.9846545,44.1121811 L24.3421125,43.7273427 Z M72,22.5 C94.8584159,22.5 113.5,37.5996831 113.5,56.4 C113.5,63.5010986 110.824958,70.2649381 105.94184,75.9222747 L105.597581,76.3151676 L103.355937,74.3214196 C107.983272,69.1187361 110.5,62.9070319 110.5,56.4 C110.5,39.4122651 93.3243641,25.5 72,25.5 C50.6756359,25.5 33.5,39.4122651 33.5,56.4 C33.5,73.3877349 50.6756359,87.3 72,87.3 C73.280456,87.3 74.5506648,87.2497734 75.8068606,87.1499074 L76.7463212,87.0657096 L77.5548624,86.9850149 L78.0641263,87.6181823 C81.5615849,91.9665703 86.5948768,94.5 92,94.5 C94.3825106,94.5 96.6984613,94.0105092 98.853797,93.0756429 L99.167,92.935 L98.9539287,92.7638718 C96.3286572,90.6075528 94.1854018,87.8186807 92.7073988,84.6060076 L92.5099936,84.1653086 L92.4855822,84.1064031 L95.2570215,82.9578718 L95.2707026,82.9915396 C96.8261337,86.558994 99.3238662,89.5567239 102.420708,91.5980752 L102.795182,91.838422 L104.831793,93.1107104 L102.79507,94.3828197 C99.5443521,96.4131746 95.8449131,97.5 92,97.5 C86.0802393,97.5 80.5556955,94.9151357 76.5490724,90.4649997 L76.247,90.122 L76.0452191,90.1404233 C75.0434868,90.2200721 74.033834,90.2700096 73.0179283,90.2900003 L72,90.3 C49.1415841,90.3 30.5,75.2003169 30.5,56.4 C30.5,37.5996831 49.1415841,22.5 72,22.5 Z" id="Shape" fill="#000000" fill-rule="nonzero"></path>
    </g>
</svg>