<?xml version="1.0" encoding="UTF-8"?>
<svg width="128px" height="128px" viewBox="0 0 128 128" version="1.1" xmlns="http://www.w3.org/2000/svg" xmlns:xlink="http://www.w3.org/1999/xlink">
    <title>cloud-off</title>
    <g id="cloud-off" stroke="none" stroke-width="1" fill="none" fill-rule="evenodd">
        <rect id="Rectangle" stroke-opacity="0.01" stroke="#979797" stroke-width="0.1" x="0" y="0" width="128" height="128"></rect>
        <path d="M17.0606602,14.9393398 L113.06066,110.93934 L110.93934,113.06066 L14.9393398,17.0606602 L17.0606602,14.9393398 Z M34.9153527,47.3662834 L37.518261,48.8578828 C36.2387326,51.0907175 35.2465435,53.4778528 34.5685541,55.9690454 L34.4056181,56.5939823 L34.1640384,57.5627892 L33.177052,57.713803 C24.2099815,59.0858088 17.5,66.8334906 17.5,76 C17.5,86.1049902 25.6016943,94.3177283 35.6638763,94.4970078 L36,94.5 L80,94.5 L80,97.5 L36,97.5 C24.1258779,97.5 14.5,87.8741221 14.5,76 C14.5,65.8320797 21.6022628,57.1678966 31.3141977,55.0121422 L31.747,54.921 L31.838789,54.5963066 C32.5149301,52.2798527 33.4396861,50.0492498 34.5946645,47.938843 L34.9153527,47.3662834 Z M88,46.5 C102.083261,46.5 113.5,57.9167389 113.5,72 C113.5,78.814867 110.811869,85.2058441 106.118171,89.9438908 L105.795046,90.2643637 L103.701348,88.115776 C108.020913,83.906563 110.5,78.1522471 110.5,72 C110.5,59.5735931 100.426407,49.5 88,49.5 C85.6676569,49.5 83.3853306,49.854457 81.2093565,50.5424362 L80.6676113,50.7213672 L79.6904239,47.8849778 C82.3414708,46.9716443 85.1396328,46.5 88,46.5 Z M64,30.5 C72.6098987,30.5 80.7097243,33.7640804 86.8662853,39.5175111 L87.2407773,39.8728657 L85.1592754,42.0332706 C79.5122191,36.5924578 72.0014195,33.5 64,33.5 C58.7810218,33.5 53.7565021,34.8113341 49.2926939,37.2734831 L48.7990413,37.5517829 L47.3015715,34.9522475 C52.3395856,32.0500849 58.058577,30.5 64,30.5 Z" id="Shape" fill="#000000" fill-rule="nonzero"></path>
    </g>
</svg>