<?xml version="1.0" encoding="UTF-8"?>
<svg width="128px" height="128px" viewBox="0 0 128 128" version="1.1" xmlns="http://www.w3.org/2000/svg" xmlns:xlink="http://www.w3.org/1999/xlink">
    <title>cloud</title>
    <g id="cloud" stroke="none" stroke-width="1" fill="none" fill-rule="evenodd">
        <rect id="Rectangle" stroke-opacity="0.01" stroke="#979797" stroke-width="0.1" x="0" y="0" width="128" height="128"></rect>
        <path d="M14.5,76 C14.5,65.8320797 21.6022628,57.1678966 31.3141977,55.0121422 L31.745,54.921 L31.8527877,54.5476615 C35.945647,40.5881884 48.7307932,30.7054481 63.5366662,30.5031639 L64,30.5 C72.6098987,30.5 80.7097243,33.7640804 86.8662853,39.5175111 L87.2407773,39.8728657 L85.1592754,42.0332706 C79.5122191,36.5924578 72.0014195,33.5 64,33.5 C50.0602002,33.5 38.0082735,42.930408 34.509031,56.1909802 L34.4056181,56.5939823 L34.1640384,57.5627892 L33.177052,57.713803 C24.2099815,59.0858088 17.5,66.8334906 17.5,76 C17.5,86.1049902 25.6016943,94.3177283 35.6638763,94.4970078 L36,94.5 L88,94.5 C100.426407,94.5 110.5,84.4264069 110.5,72 C110.5,59.5735931 100.426407,49.5 88,49.5 C85.6676569,49.5 83.3853306,49.854457 81.2093565,50.5424362 L80.6676113,50.7213672 L79.6904239,47.8849778 C82.3414708,46.9716443 85.1396328,46.5 88,46.5 C102.083261,46.5 113.5,57.9167389 113.5,72 C113.5,85.9424285 102.310454,97.2713986 88.4216891,97.4965837 L88,97.5 L36,97.5 C24.1258779,97.5 14.5,87.8741221 14.5,76 Z" id="Path" fill="#000000" fill-rule="nonzero"></path>
    </g>
</svg>