<?xml version="1.0" encoding="UTF-8"?>
<svg width="128px" height="128px" viewBox="0 0 128 128" version="1.1" xmlns="http://www.w3.org/2000/svg" xmlns:xlink="http://www.w3.org/1999/xlink">
    <title>comment</title>
    <g id="comment" stroke="none" stroke-width="1" fill="none" fill-rule="evenodd">
        <rect id="Rectangle" stroke-opacity="0.01" stroke="#979797" stroke-width="0.1" x="0" y="0" width="128" height="128"></rect>
        <path d="M22,89.5 C17.9390827,89.5 14.6319825,86.2725256 14.5038536,82.2427311 L14.5,82 L14.5,30 C14.5,25.9390827 17.7274744,22.6319825 21.7572689,22.5038536 L22,22.5 L106,22.5 C110.060917,22.5 113.368018,25.7274744 113.496146,29.7572689 L113.5,30 L113.5,82 C113.5,86.0609173 110.272526,89.3680175 106.242731,89.4961464 L106,89.5 L96,89.5 L96,86.5 L106,86.5 C108.414273,86.5 110.384489,84.5987635 110.495102,82.2118357 L110.5,82 L110.5,30 C110.5,27.5857267 108.598763,25.6155109 106.211836,25.504898 L106,25.5 L22,25.5 C19.5857267,25.5 17.6155109,27.4012365 17.504898,29.7881643 L17.5,30 L17.5,82 C17.5,84.4142733 19.4012365,86.3844891 21.7881643,86.495102 L22,86.5 L72.6213203,86.5 L86.5,100.379 L86.5,88 L89.5,88 L89.5,101.585786 C89.5,102.248828 89.2366079,102.884712 88.767767,103.353553 C87.8339045,104.287416 86.3450416,104.328019 85.3629183,103.475362 L85.232233,103.353553 L71.379,89.5 L22,89.5 Z M92,38.5 C95.0375661,38.5 97.5,40.9624339 97.5,44 C97.5,46.9634791 95.15622,49.3795391 92.2212071,49.4956328 L92,49.5 L36,49.5 C34.6192881,49.5 33.5,50.6192881 33.5,52 C33.5,53.3254834 34.5315359,54.4100387 35.8356243,54.4946823 L36,54.5 L91.5,54.5 C94.5375661,54.5 97,56.9624339 97,60 C97,62.9634791 94.65622,65.3795391 91.7212071,65.4956328 L91.5,65.5 L36,65.5 C34.6192881,65.5 33.5,66.6192881 33.5,68 C33.5,69.3254834 34.5315359,70.4100387 35.8356243,70.4946823 L36,70.5 L56.5,70.5 C61.3818027,70.5 65.3557914,74.3868137 65.4961629,79.2346377 L65.5,79.5 L62.5,79.5 C62.5,76.2616031 59.9344251,73.6224282 56.7249383,73.5041385 L56.5,73.5 L36,73.5 C32.9624339,73.5 30.5,71.0375661 30.5,68 C30.5,65.0365209 32.84378,62.6204609 35.7787929,62.5043672 L36,62.5 L91.5,62.5 C92.8807119,62.5 94,61.3807119 94,60 C94,58.6745166 92.9684641,57.5899613 91.6643757,57.5053177 L91.5,57.5 L36,57.5 C32.9624339,57.5 30.5,55.0375661 30.5,52 C30.5,49.0365209 32.84378,46.6204609 35.7787929,46.5043672 L36,46.5 L92,46.5 C93.3807119,46.5 94.5,45.3807119 94.5,44 C94.5,42.6745166 93.4684641,41.5899613 92.1643757,41.5053177 L92,41.5 L32,41.5 L32,38.5 L92,38.5 Z" id="Shape" fill="#000000" fill-rule="nonzero"></path>
    </g>
</svg>