<?xml version="1.0" encoding="UTF-8"?>
<svg   viewBox="0 0 128 128" version="1.1" xmlns="http://www.w3.org/2000/svg" xmlns:xlink="http://www.w3.org/1999/xlink">
    <title>descending-sort</title>
    <g id="descending-sort" stroke="none" stroke-width="1" fill="none" fill-rule="evenodd">
        <path d="M96.5,31 L96.5,34 L20.5,34 C19.1192881,34 18,35.1192881 18,36.5 C18,37.8254834 19.0315359,38.9100387 20.3356243,38.9946823 L20.5,39 L76.5,39 C79.5375661,39 82,41.4624339 82,44.5 C82,47.4634791 79.65622,49.8795391 76.7212071,49.9956328 L76.5,50 L20.5,50 C19.1192881,50 18,51.1192881 18,52.5 C18,53.8254834 19.0315359,54.9100387 20.3356243,54.9946823 L20.5,55 L60.5,55 C63.5375661,55 66,57.4624339 66,60.5 C66,63.4634791 63.65622,65.8795391 60.7212071,65.9956328 L60.5,66 L20.5,66 C19.1192881,66 18,67.1192881 18,68.5 C18,69.8254834 19.0315359,70.9100387 20.3356243,70.9946823 L20.5,71 L44.5,71 C47.5375661,71 50,73.4624339 50,76.5 C50,79.4634791 47.65622,81.8795391 44.7212071,81.9956328 L44.5,82 L20.5,82 C19.1745166,82 18.0899613,83.0315359 18.0053177,84.3356243 L18,84.5 L18,96.5 L15,96.5 L15,84.5 C15,81.5365209 17.34378,79.1204609 20.2787929,79.0043672 L20.5,79 L44.5,79 C45.8807119,79 47,77.8807119 47,76.5 C47,75.1745166 45.9684641,74.0899613 44.6643757,74.0053177 L44.5,74 L20.5,74 C17.4624339,74 15,71.5375661 15,68.5 C15,65.5365209 17.34378,63.1204609 20.2787929,63.0043672 L20.5,63 L60.5,63 C61.8807119,63 63,61.8807119 63,60.5 C63,59.1745166 61.9684641,58.0899613 60.6643757,58.0053177 L60.5,58 L20.5,58 C17.4624339,58 15,55.5375661 15,52.5 C15,49.5365209 17.34378,47.1204609 20.2787929,47.0043672 L20.5,47 L76.5,47 C77.8807119,47 79,45.8807119 79,44.5 C79,43.1745166 77.9684641,42.0899613 76.6643757,42.0053177 L76.5,42 L20.5,42 C17.4624339,42 15,39.5375661 15,36.5 C15,33.5365209 17.34378,31.1204609 20.2787929,31.0043672 L20.5,31 L96.5,31 Z M111.251925,71.6679497 L113.748075,73.3320503 L99.412176,94.8358994 C98.3399424,96.4442498 96.1668997,96.8788584 94.5585493,95.8066248 C94.2381468,95.5930231 93.955635,95.3283115 93.72203,95.0235059 L93.587824,94.8358994 L79.2519246,73.3320503 L81.7480754,71.6679497 L96.0839749,93.1717988 C96.1205923,93.226725 96.1677238,93.2738564 96.2226499,93.3104739 C96.4268849,93.4466305 96.6948594,93.4127027 96.8594684,93.2421114 L96.9160251,93.1717988 L111.251925,71.6679497 Z M98,48.5 L98,80.5 L95,80.5 L95,48.5 L98,48.5 Z" id="Shape" fill="#000000" fill-rule="nonzero"></path>
    </g>
</svg>