<?xml version="1.0" encoding="UTF-8"?>
<svg   viewBox="0 0 128 128" version="1.1" xmlns="http://www.w3.org/2000/svg" xmlns:xlink="http://www.w3.org/1999/xlink">
    <title>envelope</title>
    <g id="envelope" stroke="none" stroke-width="1" fill="none" fill-rule="evenodd">
        <rect id="Rectangle" stroke-opacity="0.01" stroke="#979797" stroke-width="0.1" x="0" y="0" width="128" height="128"></rect>
        <path d="M23.2506313,30.0377434 L104.049478,30.4585707 C109.186674,30.4853269 113.354074,34.5859148 113.49625,39.6889519 L113.5,39.9584418 L113.5,88 C113.5,93.1562447 109.392106,97.3530394 104.270479,97.4962236 L104,97.5 L24,97.5 C18.8437553,97.5 14.6469606,93.3921061 14.5037764,88.2704787 L14.5,88 L14.5,40 L17.5,40 L17.5,88 C17.5,91.5118106 20.2849962,94.3731506 23.7668659,94.495897 L24,94.5 L104,94.5 C107.511811,94.5 110.373151,91.7150038 110.495897,88.2331341 L110.5,88 L110.5,39.9584418 C110.5,36.4595576 107.73471,33.6037646 104.266113,33.4638138 L104.033854,33.45853 L23.2350065,33.0377027 C22.4065906,33.033388 21.7315291,33.701454 21.7272144,34.5298699 C21.7254014,34.8779741 21.8446559,35.2142324 22.0619776,35.4822905 L22.1610526,35.5928327 L59.4094395,73.2292237 C61.8745368,75.7199991 65.8551028,75.7996238 68.4168352,73.4528943 L68.6255801,73.2530995 L102.93934,38.9393398 L105.06066,41.0606602 L70.712005,75.409135 C67.05191,79.0314971 61.1898584,79.0685557 57.4845578,75.5428949 L57.2771565,75.3395244 L20.0287695,37.7031334 C19.1892101,36.8548286 18.721039,35.7077452 18.7272551,34.5142451 C18.7398293,32.1000046 20.6513014,30.1397177 23.0387729,30.041538 L23.2506313,30.0377434 Z M38.9393398,70.9393398 L41.0606602,73.0606602 L25.0606602,89.0606602 L22.9393398,86.9393398 L38.9393398,70.9393398 Z M89.0606602,70.9393398 L105.06066,86.9393398 L102.93934,89.0606602 L86.9393398,73.0606602 L89.0606602,70.9393398 Z" id="Shape" fill="#000000" fill-rule="nonzero"></path>
    </g>
</svg>