<?xml version="1.0" encoding="UTF-8"?>
<svg   viewBox="0 0 128 128" version="1.1" xmlns="http://www.w3.org/2000/svg" xmlns:xlink="http://www.w3.org/1999/xlink">
    <title>error</title>
    <g id="error" stroke="none" stroke-width="1" fill="none" fill-rule="evenodd">
        <rect id="Rectangle" stroke-opacity="0.01" stroke="#979797" stroke-width="0.1" x="0" y="0" width="128" height="128"></rect>
        <path d="M64,22.5 C86.9198171,22.5 105.5,41.0801829 105.5,64 C105.5,86.9198171 86.9198171,105.5 64,105.5 C53.1765325,105.5 43.0067048,101.336097 35.3445088,94.018666 L34.9364435,93.6236498 L37.0375458,91.4823023 C44.1894418,98.4997833 53.7770654,102.5 64,102.5 C85.2629629,102.5 102.5,85.2629629 102.5,64 C102.5,42.7370371 85.2629629,25.5 64,25.5 C42.7370371,25.5 25.5,42.7370371 25.5,64 C25.5,67.8294726 26.0588028,71.5807621 27.1440846,75.1672708 L27.318,75.724 L90.132091,51.7651572 L91.2012423,54.5681762 L25.5116457,79.6240598 L24.9907381,78.1926449 C23.3496417,73.683036 22.5,68.898677 22.5,64 C22.5,41.0801829 41.0801829,22.5 64,22.5 Z" id="Path" fill="#000000" fill-rule="nonzero"></path>
    </g>
</svg>