<?xml version="1.0" encoding="UTF-8"?>
<svg   viewBox="0 0 128 128" version="1.1" xmlns="http://www.w3.org/2000/svg" xmlns:xlink="http://www.w3.org/1999/xlink">
    <title>error-mark-off</title>
    <g id="error-mark-off" stroke="none" stroke-width="1" fill="none" fill-rule="evenodd">
        <rect id="Rectangle" stroke-opacity="0.01" stroke="#979797" stroke-width="0.1" x="0" y="0" width="128" height="128"></rect>
        <path d="M17.0606602,14.9393398 L113.06066,110.93934 L110.93934,113.06066 L14.9393398,17.0606602 L17.0606602,14.9393398 Z M60.2459691,89.3060391 C61.9535651,90.1733895 63.3565623,91.5352306 64.2744338,93.2098892 L64.4408056,93.5275092 L66.1862233,97.0183446 C67.7916534,100.229205 71.6960281,101.530663 74.9068884,99.9252329 C76.0809546,99.3381998 77.0477557,98.4105342 77.6828155,97.2667124 L77.8137767,97.0183446 L79.5029417,93.6400147 L82.1862233,94.9816554 L80.4970583,98.3599853 C79.5778032,100.198496 78.0870395,101.689259 76.2485292,102.608514 C71.6395334,104.913012 66.0528161,103.11936 63.6318309,98.6087072 L63.5029417,98.3599853 L61.757524,94.86915 C61.1348524,93.6238068 60.1287501,92.6113166 58.8873727,91.9807757 C55.7578628,90.3911834 51.9477429,91.5764679 50.2602209,94.6218982 L50.1484846,94.8324129 L48.4699992,98.136931 C47.5577477,99.9329262 46.098217,101.392457 44.3022218,102.304708 C39.7079035,104.63833 34.1099461,102.880072 31.6604616,98.3848321 L31.5300008,98.136931 L29.8515154,94.8324129 C29.2209745,93.5910356 28.2084842,92.5849332 26.9631411,91.9622616 C23.8236333,90.3925077 20.0210914,91.6018827 18.3528777,94.6579323 L18.242476,94.86915 L17.3416408,96.6708204 L14.6583592,95.3291796 L15.5591944,93.5275092 C17.9055923,88.8347135 23.6119862,86.9325822 28.3047819,89.2789801 C30.0178331,90.1355057 31.4294213,91.4884399 32.3578733,93.1572559 L32.526252,93.4738165 L34.2047374,96.7783346 C35.8304568,99.9789698 39.7429903,101.255691 42.9436255,99.6299718 C44.0846901,99.0503834 45.0272551,98.1479239 45.6558326,97.038081 L45.7952626,96.7783346 L47.473748,93.4738165 C49.8497995,88.7959651 55.5681177,86.9299876 60.2459691,89.3060391 Z M110.658359,95.3291796 L113.341641,96.6708204 L112.497058,98.3599853 C111.631877,100.090348 110.260446,101.512672 108.569317,102.440406 L108.248529,102.608514 L106.906888,99.9252329 C108.080955,99.3381998 109.047756,98.4105342 109.682816,97.2667124 L109.813777,97.0183446 L110.658359,95.3291796 Z M64,14.5 C78.0832611,14.5 89.5,25.9167389 89.5,40 C89.5,50.8952352 82.6046129,60.469126 72.5202285,64.0414403 L72.1452816,64.1709952 L71.1875657,61.3279721 C80.2641003,58.2704026 86.5,49.7323371 86.5,40 C86.5,27.5735931 76.4264069,17.5 64,17.5 C54.2367807,17.5 45.6881463,23.7748708 42.6533049,32.8681507 L42.5333021,33.2383327 L39.6716251,32.3378857 C42.9861108,21.8042421 52.7855885,14.5 64,14.5 Z M48.242748,56.0611119 C50.4116603,58.189261 52.9875571,59.8607761 55.8162783,60.9658385 L56.3180575,61.154947 L55.2938802,63.9747096 C52.0432269,62.7940267 49.0723288,60.9607279 46.5566758,58.6006599 L46.1416456,58.2024594 L48.242748,56.0611119 Z M79.4654243,32.0984905 L80.5345757,34.9015095 L52.3155103,45.665065 L51.246359,42.862046 L79.4654243,32.0984905 Z" id="Shape" fill="#000000" fill-rule="nonzero"></path>
    </g>
</svg>