<?xml version="1.0" encoding="UTF-8"?>
<svg   viewBox="0 0 128 128" version="1.1" xmlns="http://www.w3.org/2000/svg" xmlns:xlink="http://www.w3.org/1999/xlink">
    <title>eye-off</title>
    <g id="eye-off" stroke="none" stroke-width="1" fill="none" fill-rule="evenodd">
        <rect id="Rectangle" stroke-opacity="0.01" stroke="#979797" stroke-width="0.1" x="0" y="0" width="128" height="128"></rect>
        <path d="M17.0606602,14.9393398 L113.06066,110.93934 L110.93934,113.06066 L14.9393398,17.0606602 L17.0606602,14.9393398 Z M48.6406351,55.606833 L51.2720404,57.0475641 C50.1872404,59.0288835 49.578983,61.2386315 49.5071883,63.5388013 L49.5,64 C49.5,77.5726337 56.0691558,86.500913 64.0305118,86.6280251 C68.2551064,86.6954756 72.2503598,86.0578535 76.0840663,84.72377 L76.7215332,84.4949755 L77.7622576,87.3086729 C73.3852665,88.9276251 68.8123334,89.7047547 63.9826195,89.6276428 C54.2623157,89.4724471 46.6534981,79.2616999 46.5022937,64.4502349 L46.5,64 C46.5,61.0275206 47.2431762,58.1592044 48.6406351,55.606833 Z M39.1107964,46.7900268 L40.7748969,49.2861777 L18.704,63.999 L43.1987426,80.3297195 C44.7056235,81.3343067 46.2760266,82.2247194 47.8992088,82.99688 L48.5980584,83.3205541 L47.3653374,86.0555859 C45.5961658,85.258193 43.8824964,84.3325387 42.2360916,83.2831639 L41.5346421,82.8258703 L13.2958365,64 L39.1107964,46.7900268 Z M56.6639848,76.5102836 C58.8696169,77.8067463 61.3823399,78.5 64,78.5 C66.0367407,78.5 68.0113306,78.0806343 69.8310486,77.2802868 L70.2185839,77.1029665 L71.5069171,79.8122463 C69.1810125,80.9182746 66.6303013,81.5 64,81.5 C61.001915,81.5 58.1111412,80.7438013 55.5460447,79.3259398 L55.1437677,79.0965821 L56.6639848,76.5102836 Z M85.5124395,44.5578928 L85.9941438,44.8646847 L86.4653579,45.1741297 L114.704163,64 L89.0957051,81.0723056 L87.4316045,78.5761547 L109.295,64 L84.8012574,47.6702805 C74.9564855,41.1070993 62.6483665,39.6047651 51.5902991,43.4830387 L51.072882,43.6687749 L50.0386477,40.8526855 C61.7715508,36.5436707 74.8772205,37.8891032 85.5124395,44.5578928 Z M64,46.5 C73.6649831,46.5 81.5,54.3350169 81.5,64 C81.5,66.4382698 81.0001272,68.808295 80.0458381,70.9945123 L79.8489349,71.4292707 L77.1333386,70.1543054 C78.029319,68.2459233 78.5,66.1577964 78.5,64 C78.5,55.9918711 72.0081289,49.5 64,49.5 C62.0384862,49.5 60.1344062,49.8889202 58.3701911,50.6330339 L57.9655849,50.8110423 L56.7155605,48.0838754 C58.9820459,47.0450091 61.4539688,46.5 64,46.5 Z" id="Shape" fill="#000000" fill-rule="nonzero"></path>
    </g>
</svg>