<?xml version="1.0" encoding="UTF-8"?>
<svg   viewBox="0 0 128 128" version="1.1" xmlns="http://www.w3.org/2000/svg" xmlns:xlink="http://www.w3.org/1999/xlink">
    <title>eye</title>
    <g id="eye" stroke="none" stroke-width="1" fill="none" fill-rule="evenodd">
        <rect id="Rectangle" stroke-opacity="0.01" stroke="#979797" stroke-width="0.1" x="0" y="0" width="128" height="128"></rect>
        <path d="M64,46.5 C73.6649831,46.5 81.5,54.3350169 81.5,64 C81.5,73.6649831 73.6649831,81.5 64,81.5 C61.001915,81.5 58.1111412,80.7438013 55.5460447,79.3259398 L55.1437677,79.0965821 L56.6639848,76.5102836 C58.8696169,77.8067463 61.3823399,78.5 64,78.5 C72.0081289,78.5 78.5,72.0081289 78.5,64 C78.5,55.9918711 72.0081289,49.5 64,49.5 C56.0972412,49.5 49.6711012,55.8221564 49.5033605,63.6846885 L49.5,64 C49.5,77.5726337 56.0691558,86.500913 64.0305118,86.6280251 C71.3249654,86.7444894 77.95339,84.7615907 84.2751465,80.6751275 L84.8012574,80.3297195 L109.294,64 L84.8012574,47.6702805 C72.3449875,39.3661007 56.1591677,39.273832 43.620019,47.3934745 L43.1987426,47.6702805 L18.705,63.999 L43.1987426,80.3297195 C44.7056235,81.3343067 46.2760266,82.2247194 47.8992088,82.99688 L48.5980584,83.3205541 L47.3653374,86.0555859 C45.5961658,85.258193 43.8824964,84.3325387 42.2360916,83.2831639 L41.5346421,82.8258703 L13.2958365,64 L41.5346421,45.1741297 C54.9938456,36.2013273 72.4848157,36.105872 86.0298015,44.8877636 L86.4653579,45.1741297 L114.704163,64 L86.4653579,82.8258703 C79.490058,87.4760703 72.1029322,89.7572929 63.9826195,89.6276428 C54.2623157,89.4724471 46.6534981,79.2616999 46.5022937,64.4502349 L46.5,64 C46.5,54.3350169 54.3350169,46.5 64,46.5 Z" id="Path" fill="#000000" fill-rule="nonzero"></path>
    </g>
</svg>