<?xml version="1.0" encoding="UTF-8"?>
<svg   viewBox="0 0 128 128" version="1.1" xmlns="http://www.w3.org/2000/svg" xmlns:xlink="http://www.w3.org/1999/xlink">
    <title>filter</title>
    <g id="filter" stroke="none" stroke-width="1" fill="none" fill-rule="evenodd">
        <path d="M112.992228,31.0000201 L113.007772,33.9999799 L20.2577216,34.4805501 C19.0089286,34.4870205 18,35.5011903 18,36.75 C18,37.940864 18.9251616,38.9156449 20.0959512,38.9948092 L20.25,39 L92.5,39 C95.5375661,39 98,41.4624339 98,44.5 C98,47.4634791 95.65622,49.8795391 92.7212071,49.9956328 L92.5,50 L36.5,50 C35.1192881,50 34,51.1192881 34,52.5 C34,53.8254834 35.0315359,54.9100387 36.3356243,54.9946823 L36.5,55 L76,55 C79.0375661,55 81.5,57.4624339 81.5,60.5 C81.5,63.4634791 79.15622,65.8795391 76.2212071,65.9956328 L76,66 L52.5,66 C51.1192881,66 50,67.1192881 50,68.5 C50,69.8254834 51.0315359,70.9100387 52.3356243,70.9946823 L52.5,71 L68,71 C70.9634791,71 73.3795391,73.34378 73.4956328,76.2787929 L73.5,76.5 L73.5,76.75 C73.5,79.5770076 71.2655511,81.8821316 68.4664046,81.995621 L68.25,82 C67.059136,82 66.0843551,82.9251616 66.0051908,84.0959512 L66,84.25 L66,96.5 L63,96.5 L63,84.25 C63,81.3505051 65.3505051,79 68.25,79 C69.440864,79 70.4156449,78.0748384 70.4948092,76.9040488 L70.5,76.75 L70.5,76.5 C70.5,75.1745166 69.4684641,74.0899613 68.1643757,74.0053177 L68,74 L52.5,74 C49.4624339,74 47,71.5375661 47,68.5 C47,65.5365209 49.34378,63.1204609 52.2787929,63.0043672 L52.5,63 L76,63 C77.3807119,63 78.5,61.8807119 78.5,60.5 C78.5,59.1745166 77.4684641,58.0899613 76.1643757,58.0053177 L76,58 L36.5,58 C33.4624339,58 31,55.5375661 31,52.5 C31,49.5365209 33.34378,47.1204609 36.2787929,47.0043672 L36.5,47 L92.5,47 C93.8807119,47 95,45.8807119 95,44.5 C95,43.1745166 93.9684641,42.0899613 92.6643757,42.0053177 L92.5,42 L20.25,42 C17.3505051,42 15,39.6494949 15,36.75 C15,33.9228929 17.2269528,31.6136939 20.0257831,31.4860761 L20.2421777,31.4805903 L112.992228,31.0000201 Z" id="Path-64" fill="#000000" fill-rule="nonzero"></path>
    </g>
</svg>