<?xml version="1.0" encoding="UTF-8"?>
<svg   viewBox="0 0 128 128" version="1.1" xmlns="http://www.w3.org/2000/svg" xmlns:xlink="http://www.w3.org/1999/xlink">
    <title>gear</title>
    <g id="gear" stroke="none" stroke-width="1" fill="none" fill-rule="evenodd">
        <path d="M56.8320783,10.1728412 L56.9082514,10.3917118 L58.521,15.359 L59.0559314,15.2960858 C60.5550075,15.1320332 62.0663223,15.0357865 63.5867065,15.0082612 L64.5,15 C66.3282283,15 68.1443154,15.0991756 69.9427888,15.2959458 L70.476,15.359 L72.0909114,10.3911873 C72.9541035,7.7345449 75.6641625,6.15871574 78.3898047,6.69580863 L78.6169384,6.74547952 L79.8615385,7.05336189 L80.6273329,7.25283224 L81.3307964,7.44466437 L82.0027125,7.6377126 L82.6139116,7.82392896 L83.1829201,8.00909189 L83.7825238,8.21668116 L84.4265304,8.45100642 L85.1156838,8.71220494 L85.8505315,9.00039244 L86.6256141,9.31325052 C86.7597134,9.36808101 86.8957896,9.42406149 87.0338464,9.48119325 C89.6148647,10.5492954 90.9741373,13.3740979 90.2285906,16.0409686 L90.1615705,16.2628012 L88.548,21.226 L88.8508715,21.3941095 C92.1298736,23.2503182 95.1874566,25.4762601 97.9633489,28.0242289 L98.214,28.259 L102.444864,25.1866577 C104.699198,23.5487847 107.808187,23.8612732 109.696987,25.8821609 L109.865277,26.0705776 L110.427312,26.7348725 L110.949461,27.3638701 L111.431971,27.9579879 L111.875159,28.5177919 L112.279436,29.0440675 L112.64027,29.530837 L112.818648,29.7792211 L113.18172,30.2996026 L113.764386,31.1698441 L114.178906,31.8105336 L114.614678,32.5000862 L115.068834,33.2336938 C116.526789,35.6111115 115.970179,38.6893751 113.808043,40.4102734 L113.613111,40.5585424 L109.393,43.624 L109.574306,44.0129482 C110.161483,45.3028114 110.693083,46.6182403 111.16735,47.9560103 L111.445017,48.7613274 C112.080024,50.6561931 112.599799,52.5909531 113.000796,54.5571232 L113.086,54.998 L118.304919,54.9980759 C121.100269,54.998045 123.437792,57.0914701 123.766426,59.8495526 L123.788639,60.0746092 L123.852938,60.9428928 L123.905703,61.7591387 L123.955006,62.6983735 L123.98678,63.5756729 L123.999927,64.2454105 L123.999927,64.5147822 L123.990575,65.2737066 L123.986163,65.4474363 L123.962332,66.1320838 L123.926901,66.8679475 L123.879931,67.6555837 L123.78839,68.9290506 C123.570061,71.7159197 121.300349,73.8827935 118.530949,73.994914 L118.305339,73.9994738 L113.086,74 L112.993706,74.4775769 C112.641324,76.1990543 112.197875,77.8963812 111.665751,79.5638552 L111.39231,80.395078 C110.858901,81.9692018 110.246569,83.5134121 109.558136,85.0225366 L109.394,85.373 L113.613511,88.438301 C115.869775,90.077535 116.532557,93.1347144 115.189723,95.5565611 L115.066022,95.7685524 L114.607676,96.5088021 L114.170587,97.2001736 L113.754434,97.843031 L113.358776,98.4378506 L112.982992,98.9852666 L112.627089,99.4849197 L112.271378,99.9644009 L112.067753,100.231362 L111.539611,100.905184 L110.93936,101.646136 L110.41843,102.273431 L109.86131,102.931799 C108.052368,105.051332 104.956469,105.474346 102.65242,103.954586 L102.4452,103.811068 L98.216,100.739 L97.9643394,100.974862 C95.1886603,103.522773 92.1313104,105.748699 88.8525517,107.604939 L88.55,107.772 L90.1624103,112.73447 C91.0256193,115.391055 89.7594713,118.258824 87.2416039,119.425306 L87.0289029,119.518533 L86.2229853,119.847999 L85.4629947,120.150415 L84.7484576,120.425889 L83.9278069,120.729126 L83.1702256,120.992941 L82.8854201,121.08707 L82.2899246,121.273934 L81.6573263,121.460554 L80.9727498,121.651821 L80.2356062,121.848007 L79.4454507,122.049305 L78.6077517,122.254469 C75.8917995,122.907538 73.1316506,121.421166 72.1672253,118.82524 L72.0910528,118.606366 L70.478,113.64 L69.9439063,113.703932 C68.4448744,113.867975 66.9336046,113.964216 65.413266,113.991739 L64.5,114 L64.5,111 C66.5059128,111 68.4955313,110.873078 70.4609282,110.621657 L71.3017351,110.506289 L72.5546325,110.322708 L74.9442624,117.679438 C75.3299934,118.86659 76.5270607,119.578927 77.7354402,119.372929 L77.9002143,119.339105 L78.7181779,119.138827 L79.4792326,118.944967 L80.1829335,118.757715 L80.8286916,118.577345 L81.4285833,118.400271 L81.7004823,118.316253 L82.2023295,118.1534 L82.91339,117.90586 L83.6862533,117.620292 L84.3684693,117.357253 L85.1005341,117.06593 L85.8875978,116.744118 C87.0409514,116.266809 87.65757,115.017775 87.3560718,113.823878 L87.3092317,113.661494 L84.9201027,106.307748 L86.0421525,105.720107 C89.8397896,103.731204 93.3453761,101.223914 96.4581605,98.2777546 L97.0371799,97.7202262 L97.9426946,96.8332113 L104.20835,101.383867 C105.216116,102.11605 106.599621,101.990763 107.456553,101.118742 L107.575292,100.9891 L108.119319,100.346285 L108.621076,99.7421121 L109.293901,98.9092569 L109.69622,98.3940542 L109.869897,98.1664287 L110.200151,97.7216561 L110.52389,97.2670845 L110.872714,96.7588554 L111.246003,96.197603 L111.643317,95.5838037 L112.064335,94.9178213 L112.511926,94.1948453 C113.163106,93.1329686 112.930114,91.7635135 111.989347,90.9740862 L111.850156,90.8653525 L105.593367,86.3194297 L106.158468,85.183527 C107.083606,83.3239217 107.883198,81.4030174 108.551007,79.4322706 C109.254115,77.3573575 109.809873,75.2309967 110.212991,73.0656825 L110.356995,72.2518881 L110.566991,71.0001921 L118.305197,70.9994738 C119.610181,70.9994716 120.695632,69.9957332 120.797555,68.6947333 L120.829655,68.2741641 L120.886199,67.4623462 L120.931279,66.7068595 L120.964955,66.00826 L120.994322,65.0687377 L120.998827,64.2431038 L120.987945,63.6558535 L120.958024,62.8325453 L120.911021,61.9369596 L120.860176,61.1507008 L120.797331,60.3027133 C120.699604,59.0559554 119.698652,58.0822182 118.466873,58.0032506 L118.304953,57.9980759 L110.566764,57.9981624 L110.356706,56.7463901 C109.95484,54.3516007 109.367091,52.0021098 108.600496,49.7145831 C108.019388,47.9805536 107.336382,46.2847715 106.555699,44.6350084 L106.157237,43.8139977 L105.592031,42.6780555 L111.849737,38.1315047 C112.857468,37.3993318 113.165842,36.0448645 112.601356,34.9604212 L112.514758,34.807434 L112.071357,34.0910992 L111.651655,33.4269315 L111.156064,32.6634405 L110.708491,31.9974191 L110.370767,31.5134216 L110.217534,31.2999748 L109.885427,30.851844 L109.510075,30.3633006 L109.091888,29.8351303 L108.631182,29.2678989 L108.128205,28.6620238 L107.57927,28.0132899 C106.770609,27.0658001 105.396155,26.86417 104.354604,27.514962 L104.208173,27.6137426 L97.9419656,32.1660297 L97.0363336,31.2789449 C93.9728076,28.2781591 90.510153,25.711329 86.749138,23.6579811 L86.0404759,23.2790152 L84.9183055,22.6913691 L87.3084032,15.3357433 C87.7116435,14.0946606 87.0924841,12.7521954 85.8867065,12.2532087 L85.4964876,12.0926439 L84.7415843,11.7878666 L84.0367362,11.5114146 L83.3824906,11.2634036 L82.7795913,11.0439709 L82.229071,10.8532743 L81.7138113,10.6855755 L81.1413738,10.5113764 L80.840348,10.4237385 L80.5323582,10.3364464 L79.8548446,10.151619 L79.1235476,9.96111543 L77.9061857,9.66005273 C76.6925368,9.36823374 75.4594775,10.0162721 75.0016368,11.1593315 L74.9440837,11.3182298 L72.5531039,18.6770295 L71.3003453,18.4935069 C69.0627205,18.1657067 66.7919968,18 64.5,18 C62.4940269,18 60.5043491,18.1269294 58.5388946,18.3783658 L57.6980631,18.4937401 L56.4451336,18.677332 L54.055035,11.3186187 C53.6517732,10.077543 52.3617815,9.35539862 51.0929899,9.66044823 L50.6829185,9.75991342 L49.8930454,9.95706442 L49.1603168,10.1477094 L48.4852438,10.3316202 L47.5822962,10.5941066 L47.0534856,10.7598767 L46.5130293,10.9413257 L45.9440387,11.1432621 L45.3124918,11.3777682 L44.6306569,11.640641 L43.8990071,11.9317748 L43.1123941,12.2533733 C41.9590047,12.7306517 41.3423461,13.9796998 41.643829,15.1735981 L41.6906671,15.3359829 L44.0805864,22.6919136 L42.9584979,23.2795526 C39.1605063,25.2685649 35.6546086,27.7760561 32.541582,30.722489 L31.9625181,31.2800697 L31.056789,32.1673106 L24.7912885,27.614536 C23.7355568,26.847516 22.2674658,27.0215271 21.4202955,28.0140944 L21.1492854,28.3328712 L20.3781842,29.2567161 L19.9187562,29.8220398 L19.3985732,30.4809288 L18.9586072,31.0601088 L18.6321307,31.5093397 L18.3036936,31.9795605 L17.9427616,32.5140701 L17.5597331,33.0979897 L16.9352934,34.0801532 L16.487941,34.8026914 C15.8367149,35.8645645 16.0696829,37.2340549 17.0105879,38.023601 L17.1497997,38.1323523 L23.4070212,42.6798498 L22.8419597,43.8156128 C21.9042795,45.7003324 21.0955711,47.6479978 20.422317,49.6466852 C19.7418046,51.6669203 19.2008745,53.7356892 18.8043895,55.841488 L18.643325,56.7462067 L18.4332997,57.9977529 L10.6949201,57.9990087 C9.44434501,57.9990196 8.3953763,58.920821 8.22082056,60.1370868 L8.20306658,60.2973485 L8.1138795,61.5365527 L8.0687681,62.2923315 L8.03506864,62.9911957 L8.01268178,63.6323974 L8.00143782,64.2148975 L8.00117171,64.7567627 L8.01204259,65.3437003 L8.03421933,65.9882782 L8.06780117,66.6897467 L8.11284723,67.4475497 L8.16963354,68.2643804 L8.2024626,68.6949337 C8.30014904,69.9417163 9.30110283,70.9154963 10.5329899,70.9944787 L10.6949253,70.9996552 L18.4330013,71.0001478 L18.6430042,72.2518811 C19.0627853,74.7540083 19.6854675,77.2065934 20.5029613,79.5905907 C21.0659328,81.2323431 21.7204852,82.8391732 22.4629851,84.4044269 L22.8415473,85.1835582 L23.4066395,86.3194399 L17.1497121,90.8656413 C16.0939593,91.6326934 15.8057937,93.0827468 16.4880446,94.1951868 L16.7092796,94.5543023 L17.1407094,95.2443123 L17.5483025,95.8820115 L17.9316843,96.4669849 L18.2903338,96.9986843 L18.6279399,97.4825065 L18.7811131,97.6958688 L19.1133957,98.1442327 L19.4889576,98.6330357 L19.9073876,99.1614915 L20.3683687,99.7290339 L20.871654,100.335245 L21.4209317,100.984342 C22.229611,101.931788 23.6040386,102.133385 24.645453,101.482673 L24.791864,101.383905 L31.0560936,96.8319717 L31.9618312,97.7192574 C35.0253316,100.720348 38.4880208,103.287465 42.2491181,105.341067 L42.9577963,105.72008 L44.0798062,106.307702 L41.6908218,113.661834 C41.3050948,114.848986 41.8548412,116.128898 42.9508263,116.67141 L43.103628,116.740741 L44.2572567,117.209545 L44.9618367,117.485877 L45.6158377,117.733784 L46.2185164,117.953129 L46.7688347,118.143752 L47.2970111,118.315442 L47.5577239,118.396114 L48.148871,118.570814 L48.7980066,118.752397 L49.5045412,118.94059 L50.2680296,119.135202 L51.1001039,119.338972 L50.3865086,122.252866 L49.5408526,122.045703 L48.7482512,121.843652 L48.0082591,121.646521 L47.320287,121.454037 L46.3840529,121.173114 L45.8150004,120.987939 L45.2156081,120.780427 L44.571834,120.546195 L43.8829346,120.285104 L43.1451761,119.99575 L41.9655114,119.516456 C39.3843957,118.448403 38.0250556,115.623529 38.7706018,112.956705 L38.837622,112.734876 L40.449,107.772 L40.1472579,107.604831 C36.8681884,105.748396 33.8105732,103.522205 31.0346913,100.973972 L30.782,100.738 L26.5553224,103.810881 C24.3010459,105.448747 21.1921171,105.136329 19.3032817,103.115537 L19.1349883,102.927129 L18.5726057,102.262466 L18.0501403,101.633124 L17.567345,101.038685 L17.123903,100.478583 L16.719403,99.9520305 L16.3583824,99.4650145 L16.1800659,99.2167166 L15.8171197,98.696522 L15.433974,98.1286229 L15.0301079,97.5124712 L14.6051466,96.8476518 L13.9306799,95.763589 C12.4726172,93.386154 13.0292147,90.3077925 15.1913832,88.5868869 L15.386319,88.4386175 L19.605,85.373 L19.3649431,84.8530686 C18.8587037,83.7321345 18.3943564,82.5920023 17.9730552,81.4347816 L17.6651685,80.563695 C16.9879997,78.5889174 16.4363473,76.5699704 16.0142872,74.5165472 L15.913,74 L10.6948315,73.9996552 C7.89943146,73.9996584 5.56190133,71.9061398 5.23357543,69.1509679 L5.21138797,68.9261539 L5.1775918,68.4825236 L5.11911504,67.6407945 L5.07217913,66.850841 L5.03684319,66.1121069 L5.01320646,65.4238428 L5.00143782,64.785016 L5.00143782,64.186634 L5.01384634,63.5522305 L5.03769392,62.8673333 L5.07314836,62.1311947 L5.1196661,61.3504715 L5.14797034,60.92973 L5.21175485,60.0692832 C5.43016141,57.2824915 7.69982501,55.1157043 10.4690664,55.0035699 L10.6946637,54.9990087 L15.913,54.997 L16.0026418,54.5402803 C16.3503362,52.8385003 16.7870177,51.1602848 17.3103833,49.5111385 L17.5792791,48.6890133 C18.1170382,47.0925695 18.7359193,45.5267466 19.4329903,43.9969278 L19.606,43.625 L15.3862727,40.5592789 C13.1299838,38.9199929 12.4672516,35.8627341 13.810187,33.4408912 L13.9338968,33.2289004 L14.3940361,32.4858839 L15.039419,31.4708545 L15.4450486,30.8524362 L15.8234634,30.2918608 L16.1964509,29.7579845 L16.5483846,29.2740438 L17.026949,28.6437383 L17.5786966,27.9448676 L18.0622861,27.3498266 L18.8525641,26.4028544 L19.1384378,26.0664995 C20.9473973,23.9470745 24.0432064,23.5241022 26.3474722,25.0440028 L26.5547126,25.1875347 L30.783,28.26 L31.0354303,28.0253496 C33.811329,25.4772045 36.8689477,23.2510982 40.1480091,21.3947433 L40.45,21.226 L38.8374885,16.2630061 C37.9742904,13.6063657 39.240525,10.7385604 41.7584724,9.57214234 L41.97118,9.47892022 L42.7766403,9.14967186 L43.5362055,8.84744953 L44.250349,8.57214749 L44.9090552,8.32746725 L45.2281702,8.21279487 L45.5451531,8.10177741 L46.1264838,7.90684444 L46.6962916,7.72795682 L47.0180589,7.63163637 L47.6768042,7.44267191 L48.3878696,7.24891174 L49.1517663,7.05012768 L49.9627147,6.84765304 C50.1034318,6.81319025 50.2464243,6.77849582 50.3916958,6.74356863 C53.1075982,6.09059697 55.86765,7.57694977 56.8320783,10.1728412 Z M64.5,39 C78.4424285,39 89.7713986,50.1895458 89.9965837,64.0783109 L90,64.5 L87,64.5 C87,52.0735931 76.9264069,42 64.5,42 C52.0735931,42 42,52.0735931 42,64.5 C42,76.9264069 52.0735931,87 64.5,87 C70.4261207,87 75.9840713,84.7001794 80.1491581,80.6665101 L80.4667849,80.3528176 L82.595639,82.4665772 C77.8400941,87.2560819 71.3856595,90 64.5,90 C50.4167389,90 39,78.5832611 39,64.5 C39,50.4167389 50.4167389,39 64.5,39 Z" id="Shape" fill="#000000" fill-rule="nonzero"></path>
    </g>
</svg>