<?xml version="1.0" encoding="UTF-8"?>
<svg width="128px" height="128px" viewBox="0 0 128 128" version="1.1" xmlns="http://www.w3.org/2000/svg" xmlns:xlink="http://www.w3.org/1999/xlink">
    <title>link-off</title>
    <g id="link-off" stroke="none" stroke-width="1" fill="none" fill-rule="evenodd">
        <rect id="Rectangle" stroke-opacity="0.01" stroke="#979797" stroke-width="0.1" x="0" y="0" width="128" height="128"></rect>
        <path d="M17.0606602,14.9393398 L113.06066,110.93934 L110.93934,113.06066 L14.9393398,17.0606602 L17.0606602,14.9393398 Z M40,46.5 L40,49.5 L24,49.5 C20.4881894,49.5 17.6268494,52.2849962 17.504103,55.7668659 L17.5,56 L17.5,72 C17.5,75.5118106 20.2849962,78.3731506 23.7668659,78.495897 L24,78.5 L48,78.5 C51.5118106,78.5 54.3731506,75.7150038 54.495897,72.2331341 L54.5,72 L57.5,72 C57.5,77.1562447 53.3921061,81.3530394 48.2704787,81.4962236 L48,81.5 L24,81.5 C18.8437553,81.5 14.6469606,77.3921061 14.5037764,72.2704787 L14.5,72 L14.5,56 C14.5,50.8437553 18.6078939,46.6469606 23.7295213,46.5037764 L24,46.5 L40,46.5 Z M104,46.5 L104.270479,46.5037764 C109.302253,46.6444486 113.355551,50.697747 113.496224,55.7295213 L113.5,56 L113.5,72 L113.496224,72.2704787 C113.355551,77.302253 109.302253,81.3555514 104.270479,81.4962236 L104,81.5 L88,81.5 L88,78.5 L104,78.5 L104.233134,78.495897 C107.637629,78.3758783 110.375878,75.6376289 110.495897,72.2331341 L110.5,72 L110.5,56 L110.495897,55.7668659 C110.375878,52.3623711 107.637629,49.6241217 104.233134,49.504103 L104,49.5 L80,49.5 L79.7668659,49.504103 C76.3623711,49.6241217 73.6241217,52.3623711 73.504103,55.7668659 L73.5,56 L70.5,56 L70.5037764,55.7295213 C70.6444486,50.697747 74.697747,46.6444486 79.7295213,46.5037764 L80,46.5 L104,46.5 Z M56,62.5 L56,65.5 L44,65.5 L44,62.5 L56,62.5 Z M84,62.5 L84,65.5 L71.5,65.5 L71.5,62.5 L84,62.5 Z" id="Shape" fill="#000000" fill-rule="nonzero"></path>
    </g>
</svg>