<?xml version="1.0" encoding="UTF-8"?>
<svg width="128px" height="128px" viewBox="0 0 128 128" version="1.1" xmlns="http://www.w3.org/2000/svg" xmlns:xlink="http://www.w3.org/1999/xlink">
    <title>list</title>
    <g id="list" stroke="none" stroke-width="1" fill="none" fill-rule="evenodd">
        <rect id="Rectangle" stroke-opacity="0.01" stroke="#979797" stroke-width="0.1" x="0" y="0" width="128" height="128"></rect>
        <path d="M29,81.5 C31.9634791,81.5 34.3795391,83.84378 34.4956328,86.7787929 L34.5,87 L31.5,87 C31.5,85.6192881 30.3807119,84.5 29,84.5 C27.6192881,84.5 26.5,85.6192881 26.5,87 C26.5,88.3254834 27.5315359,89.4100387 28.8356243,89.4946823 L29,89.5 L29,92.5 C25.9624339,92.5 23.5,90.0375661 23.5,87 C23.5,83.9624339 25.9624339,81.5 29,81.5 Z M104,86.5 L104,89.5 L40,89.5 L40,86.5 L104,86.5 Z M28,58.5 C30.9634791,58.5 33.3795391,60.84378 33.4956328,63.7787929 L33.5,64 L30.5,64 C30.5,62.6192881 29.3807119,61.5 28,61.5 C26.6192881,61.5 25.5,62.6192881 25.5,64 C25.5,65.3254834 26.5315359,66.4100387 27.8356243,66.4946823 L28,66.5 L28,69.5 C24.9624339,69.5 22.5,67.0375661 22.5,64 C22.5,60.9624339 24.9624339,58.5 28,58.5 Z M104,62.5 L104,65.5 L40,65.5 L40,62.5 L104,62.5 Z M28,34.5 C30.9634791,34.5 33.3795391,36.84378 33.4956328,39.7787929 L33.5,40 L30.5,40 C30.5,38.6192881 29.3807119,37.5 28,37.5 C26.6192881,37.5 25.5,38.6192881 25.5,40 C25.5,41.3254834 26.5315359,42.4100387 27.8356243,42.4946823 L28,42.5 L28,45.5 C24.9624339,45.5 22.5,43.0375661 22.5,40 C22.5,36.9624339 24.9624339,34.5 28,34.5 Z M104,38.5 L104,41.5 L40,41.5 L40,38.5 L104,38.5 Z" id="Shape" fill="#000000" fill-rule="nonzero"></path>
    </g>
</svg>