<?xml version="1.0" encoding="UTF-8"?>
<svg width="128px" height="128px" viewBox="0 0 128 128" version="1.1" xmlns="http://www.w3.org/2000/svg" xmlns:xlink="http://www.w3.org/1999/xlink">
    <title>lock</title>
    <g id="lock" stroke="none" stroke-width="1" fill="none" fill-rule="evenodd">
        <rect id="Rectangle" stroke-opacity="0.01" stroke="#979797" stroke-width="0.1" x="0" y="0" width="128" height="128"></rect>
        <path d="M64,14.5 C77.9424285,14.5 89.2713986,25.6895458 89.4965837,39.5783109 L89.5,40 L86.5,40 C86.5,27.5735931 76.4264069,17.5 64,17.5 C51.6978572,17.5 41.7017071,27.3731286 41.5030144,39.6279214 L41.5,40 L41.5,46.5 L98,46.5 C102.060917,46.5 105.368018,49.7274744 105.496146,53.7572689 L105.5,54 L105.5,105.5 C105.5,109.560917 102.272526,112.868018 98.2427311,112.996146 L98,113 L30,113 C25.9390827,113 22.6319825,109.772526 22.5038536,105.742731 L22.5,105.5 L22.5,54 C22.5,49.9390827 25.7274744,46.6319825 29.7572689,46.5038536 L30,46.5 L31.5,46.5 L31.5,49.5 L30,49.5 C27.5857267,49.5 25.6155109,51.4012365 25.504898,53.7881643 L25.5,54 L25.5,105.5 C25.5,107.914273 27.4012365,109.884489 29.7881643,109.995102 L30,110 L98,110 C100.414273,110 102.384489,108.098763 102.495102,105.711836 L102.5,105.5 L102.5,54 C102.5,51.5857267 100.598763,49.6155109 98.2118357,49.504898 L98,49.5 L38.5,49.5 L38.5,40 C38.5,25.9167389 49.9167389,14.5 64,14.5 Z M64,62.5 C69.1562447,62.5 73.3530394,66.6078939 73.4962236,71.7295213 L73.5,72 L73.5,72.5 C73.5,75.4405695 72.076635,78.1308932 69.7688639,79.7977144 L69.55,79.949 L69.5125891,92.0047436 C69.5032561,94.9683939 67.1565527,97.3797761 64.2212259,97.4956414 L64,97.5 C61.0365209,97.5 58.6204609,95.15622 58.5043672,92.2212071 L58.5,92 L58.5,82.5 L61.5,82.5 L61.5,92 C61.5,93.3807119 62.6192881,94.5 64,94.5 C65.3292071,94.5 66.417934,93.4676974 66.5067631,92.160122 L66.512604,91.9952961 L66.5560177,78.2094908 L67.3415394,77.7861254 C69.2003172,76.7843169 70.4080598,74.8797607 70.4949724,72.7470555 L70.5,72.5 L70.5,72 C70.5,68.4101491 67.5898509,65.5 64,65.5 C60.4881894,65.5 57.6268494,68.2849962 57.504103,71.7668659 L57.5,72 L57.5,72.5 C57.5,75.7383969 60.0655749,78.3775718 63.2750617,78.4958615 L63.5,78.5 L63.5,81.5 C58.6181973,81.5 54.6442086,77.6131863 54.5038371,72.7653623 L54.5,72.5 L54.5,72 C54.5,66.7532949 58.7532949,62.5 64,62.5 Z" id="Shape" fill="#000000" fill-rule="nonzero"></path>
    </g>
</svg>