<?xml version="1.0" encoding="UTF-8"?>
<svg   viewBox="0 0 128 128" version="1.1" xmlns="http://www.w3.org/2000/svg" xmlns:xlink="http://www.w3.org/1999/xlink">
    <title>lock-off</title>
    <g id="lock-off" stroke="none" stroke-width="1" fill="none" fill-rule="evenodd">
        <rect id="Rectangle" stroke-opacity="0.01" stroke="#979797" stroke-width="0.1" x="0" y="0" width="128" height="128"></rect>
        <path d="M17.0606602,14.9393398 L113.06066,110.93934 L110.93934,113.06066 L14.9393398,17.0606602 L17.0606602,14.9393398 Z M31.5,46.5 L31.5,49.5 L30,49.5 C27.5857267,49.5 25.6155109,51.4012365 25.504898,53.7881643 L25.5,54 L25.5,105.5 C25.5,107.914273 27.4012365,109.884489 29.7881643,109.995102 L30,110 L98,110 C99.3460676,110 100.591106,109.406621 101.438815,108.402808 L101.593032,108.209828 L103.986387,110.018654 C102.634915,111.80686 100.555306,112.909319 98.2847722,112.994655 L98,113 L30,113 C25.9390827,113 22.6319825,109.772526 22.5038536,105.742731 L22.5,105.5 L22.5,54 C22.5,49.9390827 25.7274744,46.6319825 29.7572689,46.5038536 L30,46.5 L31.5,46.5 Z M69.1950228,76.236335 L71.5409163,78.106304 C71.0097274,78.7726854 70.3873357,79.3600981 69.6939278,79.8507903 L69.55,79.947 L69.5125891,92.0047436 C69.5032561,94.9683939 67.1565527,97.3797761 64.2212259,97.4956414 L64,97.5 C61.0365209,97.5 58.6204609,95.15622 58.5043672,92.2212071 L58.5,92 L58.5,82.5 L61.5,82.5 L61.5,92 C61.5,93.3807119 62.6192881,94.5 64,94.5 C65.3292071,94.5 66.417934,93.4676974 66.5067631,92.160122 L66.512604,91.9952961 L66.5560177,78.2094908 L67.3415394,77.7861254 C68.0567175,77.4006724 68.6880631,76.8723207 69.1950228,76.236335 Z M98,46.5 C102.060917,46.5 105.368018,49.7274744 105.496146,53.7572689 L105.5,54 L105.5,96.5 L102.5,96.5 L102.5,54 C102.5,51.5857267 100.598763,49.6155109 98.2118357,49.504898 L98,49.5 L56,49.5 L56,46.5 L98,46.5 Z M57.7214195,64.8703921 L59.7048385,67.1211807 C58.381315,68.2874838 57.5826194,69.9326045 57.5060587,71.7171247 L57.5,72 L57.5,72.5 C57.5,75.7383969 60.0655749,78.3775718 63.2750617,78.4958615 L63.5,78.5 L63.5,81.5 C58.6181973,81.5 54.6442086,77.6131863 54.5038371,72.7653623 L54.5,72.5 L54.5,72 C54.5,69.2365 55.688588,66.661745 57.7214195,64.8703921 Z M64,14.5 C77.9424285,14.5 89.2713986,25.6895458 89.4965837,39.5783109 L89.5,40 L86.5,40 C86.5,27.5735931 76.4264069,17.5 64,17.5 C54.2066243,17.5 45.637648,23.8135438 42.6271281,32.947031 L42.5096821,33.3138661 L39.6448289,32.4235763 C42.93175,21.846631 52.752925,14.5 64,14.5 Z" id="Shape" fill="#000000" fill-rule="nonzero"></path>
    </g>
</svg>