<?xml version="1.0" encoding="UTF-8"?>
<svg   viewBox="0 0 128 128" version="1.1" xmlns="http://www.w3.org/2000/svg" xmlns:xlink="http://www.w3.org/1999/xlink">
    <title>magnifying-glass-off</title>
    <g id="magnifying-glass-off" stroke="none" stroke-width="1" fill="none" fill-rule="evenodd">
        <path d="M111.43934,15.4393398 L113.56066,17.5606602 L17.5606602,113.56066 L15.4393398,111.43934 L111.43934,15.4393398 Z M89.8071674,48.6746256 C89.935428,49.9399287 90,51.2161416 90,52.5 C90,61.76324 86.6244066,70.4963642 80.6512353,77.275258 L80.2,77.776 L89.135,87 L93.1139685,87 C95.5771125,87 97.9395256,87.9564616 99.7069091,89.6601711 L99.9340223,89.8866146 L111.50526,101.820373 C113.151928,103.576818 113.117175,106.304264 111.465012,108.018374 L111.300078,108.181025 L107.645061,111.607603 C105.93032,113.215173 103.280462,113.225194 101.554766,111.667645 L101.385346,111.506666 L87.4393398,97.5606602 L89.5606602,95.4393398 L103.506666,109.385346 C104.04336,109.92204 104.888543,109.968671 105.478761,109.516153 L105.593238,109.418991 L109.248254,105.992414 C109.81485,105.46123 109.877175,104.593726 109.415892,103.989379 L109.299193,103.853889 L97.7803211,91.9750521 C96.6241034,90.7827026 95.0581941,90.0808711 93.406305,90.0065699 L93.1139685,90 L87.8646836,90 L76.0247964,77.7780799 L77.055147,76.734172 C83.3872941,70.3187069 87,61.6966868 87,52.5 C87,51.5537823 86.9619438,50.612389 86.8862672,49.6772944 L86.8224627,48.9771775 L89.8071674,48.6746256 Z M64.1225544,84.9937396 L65.1330234,87.8184435 C61.1137854,89.256228 56.8567093,90 52.5,90 C51.4676529,90 50.4402507,89.9582495 49.4194909,89.8752083 L48.655193,89.8051925 L48.959294,86.8206452 C50.1299622,86.9399268 51.3111723,87 52.5,87 C56.5110973,87 60.4264441,86.315933 64.1225544,84.9937396 Z M52.5,15 C65.1396229,15 76.7075124,21.3032851 83.6251802,31.5774797 L83.9030697,31.9961708 L81.3925704,33.638545 C75.057966,23.9555997 64.2873866,18 52.5,18 C33.4461761,18 18,33.4461761 18,52.5 C18,64.0730173 23.7406463,74.667267 33.118288,81.045497 L33.5343604,81.3241439 L31.8829403,83.8287021 C21.4260481,76.9337845 15,65.2623895 15,52.5 C15,31.7893219 31.7893219,15 52.5,15 Z" id="Shape" fill="#000000" fill-rule="nonzero"></path>
    </g>
</svg>