<?xml version="1.0" encoding="UTF-8"?>
<svg   viewBox="0 0 128 128" version="1.1" xmlns="http://www.w3.org/2000/svg" xmlns:xlink="http://www.w3.org/1999/xlink">
    <title>marker</title>
    <g id="marker" stroke="none" stroke-width="1" fill="none" fill-rule="evenodd">
        <rect id="Rectangle" stroke-opacity="0.01" stroke="#979797" stroke-width="0.1" x="0" y="0" width="128" height="128"></rect>
        <path d="M89.5,46.5 L89.5,48 C89.5,51.5118106 92.2849962,54.3731506 95.7668659,54.495897 L96,54.5 L97.5,54.5 L97.5,63.5 L94.5,63.5 L94.5,57.381 L94.4072142,57.3670584 C90.4367113,56.6968017 87.3031983,53.5632887 86.6329416,49.5927858 L86.618,49.5 L7.5,49.5 L7.5,78.5 L86.618,78.5 L86.6329416,78.4072142 C87.3760523,74.0051349 91.1470126,70.6318886 95.7295213,70.5037764 L96,70.5 L102.5,70.5 L102.5,54.5 L112.831371,54.5 L124.706371,73.5 L112,73.5 L112,70.5 L119.294,70.5 L111.169,57.5 L105.5,57.5 L105.5,73.5 L96,73.5 C92.4881894,73.5 89.6268494,76.2849962 89.504103,79.7668659 L89.5,80 L89.5,81.5 L4.5,81.5 L4.5,46.5 L89.5,46.5 Z" id="Path-5" fill="#000000" fill-rule="nonzero" transform="translate(64.603186, 64.000000) rotate(135.000000) translate(-64.603186, -64.000000) "></path>
    </g>
</svg>