<?xml version="1.0" encoding="UTF-8"?>
<svg width="128px" height="128px" viewBox="0 0 128 128" version="1.1" xmlns="http://www.w3.org/2000/svg" xmlns:xlink="http://www.w3.org/1999/xlink">
    <title>marker-off</title>
    <g id="marker-off" stroke="none" stroke-width="1" fill="none" fill-rule="evenodd">
        <rect id="Rectangle" stroke-opacity="0.01" stroke="#979797" stroke-width="0.1" x="0" y="0" width="128" height="128"></rect>
        <path d="M17.0606602,14.9393398 L113.06066,110.93934 L110.93934,113.06066 L14.9393398,17.0606602 L17.0606602,14.9393398 Z M48.4053338,55.4491146 L50.5266541,57.570435 L38.7833129,69.3137761 L38.8383571,69.3899509 C41.4256386,73.0281496 41.1444124,78.0798665 37.9946784,81.4107786 L37.8060914,81.6047062 L33.2098973,86.2009003 L44.5236058,97.5146088 L37.218223,104.819992 L15.3863011,99.7818558 L24.3710625,90.7970944 L26.4923829,92.9184147 L21.334746,98.0760516 L36.2723768,101.523197 L40.2809651,97.5146088 L28.9672566,86.2009003 L35.684771,79.4833859 C38.1679961,77.0001607 38.2219793,73.0075982 35.8467205,70.4587497 L35.684771,70.2909977 L34.6241109,69.2303375 L48.4053338,55.4491146 Z M71.0327508,78.0765316 L73.1540711,80.1978519 L59.3728482,93.9790749 L58.312188,92.9184147 C55.8289629,90.4351896 51.8364003,90.3812064 49.2875519,92.7564652 L49.1197999,92.9184147 L48.0591397,93.9790749 L41.6951787,87.6151138 L43.816499,85.4937935 L48.1439925,89.8198728 L48.2187531,89.7648286 C51.5002656,87.4312022 55.9317223,87.4312022 59.2132348,89.7648286 L59.2894096,89.8198728 L71.0327508,78.0765316 Z M94.7281873,9.12626113 L119.476925,33.8749985 L81.9040711,71.4478519 L79.7827508,69.3265316 L115.234991,33.8742914 L94.7288944,13.3681947 L58.7766541,49.320435 L56.6553338,47.1991146 L94.7281873,9.12626113 Z" id="Shape" fill="#000000" fill-rule="nonzero"></path>
    </g>
</svg>