<?xml version="1.0" encoding="UTF-8"?>
<svg width="128px" height="128px" viewBox="0 0 128 128" version="1.1" xmlns="http://www.w3.org/2000/svg" xmlns:xlink="http://www.w3.org/1999/xlink">
    <title>microphone-off</title>
    <g id="microphone-off" stroke="none" stroke-width="1" fill="none" fill-rule="evenodd">
        <rect id="Rectangle" stroke-opacity="0.01" stroke="#979797" stroke-width="0.1" x="0" y="0" width="128" height="128"></rect>
        <path d="M56,110.5 L56,113.5 L40,113.5 L40,110.5 L56,110.5 Z M33.5,64 C33.5,80.8446849 47.1553151,94.5 64,94.5 C70.2848633,94.5 76.27946,92.596172 81.3303799,89.1015344 L81.7869366,88.7794664 L83.5384727,91.215061 C78.2867633,94.9917809 72.060554,97.1772007 65.5003144,97.4669251 L65.5,110.5 L80,110.5 L80,113.5 L62.5,113.5 L62.4999059,97.4670136 C44.8775316,96.6904508 30.7922005,82.299249 30.504488,64.5539838 L30.5,64 L33.5,64 Z M17.0606602,14.9393398 L113.06066,110.93934 L110.93934,113.06066 L14.9393398,17.0606602 L17.0606602,14.9393398 Z M41.5,47.5 L41.5,64 C41.5,76.4264069 51.5735931,86.5 64,86.5 C68.2273686,86.5 72.2783584,85.3334761 75.79251,83.166081 L76.1955861,82.9115646 L77.8239807,85.4311541 C73.7364685,88.072887 68.9720755,89.5 64,89.5 C50.0575715,89.5 38.7286014,78.3104542 38.5034163,64.4216891 L38.5,64 L38.5,47.5 L41.5,47.5 Z M97.5,64 C97.5,70.5761788 95.5997803,76.8725579 92.090402,82.2600773 L91.7669427,82.7473306 L89.282047,81.0664697 C92.562351,76.2170419 94.3873582,70.5279431 94.4949525,64.5602685 L94.5,64 L97.5,64 Z M88,54.5 L88,57.5 L76,57.5 C74.6192881,57.5 73.5,58.6192881 73.5,60 C73.5,61.3254834 74.5315359,62.4100387 75.8356243,62.4946823 L76,62.5 L89.5,62.5 L89.5,64 C89.5,68.257692 88.4540495,72.3666102 86.4866165,76.0350433 L86.235897,76.4912821 L83.6216154,75.0197076 C85.1638639,72.2798723 86.1143101,69.24921 86.4048093,66.0841138 L86.45,65.5 L76,65.5 C73.0365209,65.5 70.6204609,63.15622 70.5043672,60.2212071 L70.5,60 C70.5,57.0365209 72.84378,54.6204609 75.7787929,54.5043672 L76,54.5 L88,54.5 Z M64,14.5 C77.9424285,14.5 89.2713986,25.6895458 89.4965837,39.5783109 L89.5,40 L89.5,41.5 L76,41.5 C74.6192881,41.5 73.5,42.6192881 73.5,44 C73.5,45.3254834 74.5315359,46.4100387 75.8356243,46.4946823 L76,46.5 L88,46.5 L88,49.5 L76,49.5 C72.9624339,49.5 70.5,47.0375661 70.5,44 C70.5,41.0365209 72.84378,38.6204609 75.7787929,38.5043672 L76,38.5 L86.451,38.5 L86.4254131,38.1546502 C85.4966392,26.713136 76.0079424,17.6916722 64.3720786,17.5030144 L64,17.5 C54.4670138,17.5 46.0751175,23.4832273 42.8625947,32.2698283 L42.7299479,32.6427526 L39.8947121,31.6622231 C43.4186112,21.472744 53.0440746,14.5 64,14.5 Z" id="Shape" fill="#000000" fill-rule="nonzero"></path>
    </g>
</svg>