<?xml version="1.0" encoding="UTF-8"?>
<svg   viewBox="0 0 128 128" version="1.1" xmlns="http://www.w3.org/2000/svg" xmlns:xlink="http://www.w3.org/1999/xlink">
    <title>microphone</title>
    <g id="microphone" stroke="none" stroke-width="1" fill="none" fill-rule="evenodd">
        <rect id="Rectangle" stroke-opacity="0.01" stroke="#979797" stroke-width="0.1" x="0" y="0" width="128" height="128"></rect>
        <path d="M56,110.5 L56,113.5 L40,113.5 L40,110.5 L56,110.5 Z M33.5,64 C33.5,80.8446849 47.1553151,94.5 64,94.5 C80.676238,94.5 94.2265748,81.1164256 94.4959139,64.5043733 L94.5,64 L97.5,64 C97.5,81.9986336 83.3058284,96.6820409 65.5007208,97.466986 L65.5,110.5 L88,110.5 L88,113.5 L62.5,113.5 L62.4999059,97.4670136 C44.8775316,96.6904508 30.7922005,82.299249 30.504488,64.5539838 L30.5,64 L33.5,64 Z M64,14.5 C77.9424285,14.5 89.2713986,25.6895458 89.4965837,39.5783109 L89.5,40 L89.5,41.5 L76,41.5 C74.6192881,41.5 73.5,42.6192881 73.5,44 C73.5,45.3254834 74.5315359,46.4100387 75.8356243,46.4946823 L76,46.5 L88,46.5 L88,49.5 L76,49.5 C72.9624339,49.5 70.5,47.0375661 70.5,44 C70.5,41.0365209 72.84378,38.6204609 75.7787929,38.5043672 L76,38.5 L86.451,38.5 L86.4254131,38.1546502 C85.4966392,26.713136 76.0079424,17.6916722 64.3720786,17.5030144 L64,17.5 C51.6978572,17.5 41.7017071,27.3731286 41.5030144,39.6279214 L41.5,40 L41.5,64 C41.5,76.4264069 51.5735931,86.5 64,86.5 C75.8050865,86.5 85.4867587,77.4085822 86.4254131,65.8453498 L86.45,65.5 L76,65.5 C73.0365209,65.5 70.6204609,63.15622 70.5043672,60.2212071 L70.5,60 C70.5,57.0365209 72.84378,54.6204609 75.7787929,54.5043672 L76,54.5 L88,54.5 L88,57.5 L76,57.5 C74.6192881,57.5 73.5,58.6192881 73.5,60 C73.5,61.3254834 74.5315359,62.4100387 75.8356243,62.4946823 L76,62.5 L89.5,62.5 L89.5,64 C89.5,78.0832611 78.0832611,89.5 64,89.5 C50.0575715,89.5 38.7286014,78.3104542 38.5034163,64.4216891 L38.5,64 L38.5,40 C38.5,25.9167389 49.9167389,14.5 64,14.5 Z" id="Shape" fill="#000000" fill-rule="nonzero"></path>
    </g>
</svg>