<?xml version="1.0" encoding="UTF-8"?>
<svg width="128px" height="128px" viewBox="0 0 128 128" version="1.1" xmlns="http://www.w3.org/2000/svg" xmlns:xlink="http://www.w3.org/1999/xlink">
    <title>paper-plane</title>
    <g id="paper-plane" stroke="none" stroke-width="1" fill="none" fill-rule="evenodd">
        <rect id="Rectangle" stroke-opacity="0.01" stroke="#979797" stroke-width="0.1" x="0" y="0" width="128" height="128"></rect>
        <path d="M36.0369616,53.8325048 L29.828532,28.9987865 L116.011912,64.0107846 L29.8332756,98.4822392 L35.8897195,74.2564635 C36.4145332,72.1572087 38.1183792,70.5683957 40.2323436,70.1807908 L40.4688772,70.1427019 L53.0697937,68.3925746 C53.8896497,68.2787057 54.5,67.5777258 54.5,66.75 C54.5,66.1027913 54.0081253,65.5704661 53.3778052,65.5064536 L53.25,65.5 L40,65.5 L40,62.5 L53.25,62.5 C55.5972102,62.5 57.5,64.4027898 57.5,66.75 C57.5,69.0024518 55.8909856,70.9207746 53.696647,71.3292722 L53.4824988,71.3640514 L40.8815823,73.1141787 C39.9307075,73.2462447 39.1450905,73.9095361 38.8497071,74.8121058 L38.800147,74.9840703 L34.166,93.517 L107.988,63.989 L34.171,34.001 L38.9473891,53.104898 C39.1759767,54.0192484 39.8973233,54.7221874 40.8058086,54.9334573 L40.9782681,54.9672403 L88.2366864,62.5187912 L87.7633136,65.4812088 L40.5048953,57.9296579 C38.4071172,57.5944482 36.6973987,56.0833456 36.0988568,54.0594578 L36.0369616,53.8325048 Z" id="Path-36" fill="#000000" fill-rule="nonzero"></path>
    </g>
</svg>