<?xml version="1.0" encoding="UTF-8"?>
<svg width="128px" height="128px" viewBox="0 0 128 128" version="1.1" xmlns="http://www.w3.org/2000/svg" xmlns:xlink="http://www.w3.org/1999/xlink">
    <title>people</title>
    <g id="people" stroke="none" stroke-width="1" fill="none" fill-rule="evenodd">
        <rect id="Rectangle" stroke-opacity="0.01" stroke="#979797" stroke-width="0.1" x="0" y="0" width="128" height="128"></rect>
        <path d="M47.5,22.5 C58.6435296,22.5 67.5,33.9894752 67.5,48 C67.5,57.7021016 63.2529878,66.1952647 56.9404909,70.5013126 L64,70.5 C73.5551538,70.5 81.3216951,78.1579601 81.4969736,87.6712297 L81.5,88 L81.5,104.5 L78.5,104.5 L78.5,88 C78.5,80.0972412 72.1778436,73.6711012 64.3153115,73.5033605 L64,73.5 L48,73.5 L47.9171256,73.4955899 L47.9171256,73.4955899 L47.5,73.5 L47.5,70.5 C56.7910062,70.5 64.5,60.4991432 64.5,48 C64.5,35.5008568 56.7910062,25.5 47.5,25.5 C38.2089938,25.5 30.5,35.5008568 30.5,48 C30.5,56.7936668 34.3610358,64.62489 40.2069928,68.3189677 L40.5111304,68.5063349 L38.9669503,71.0783979 C31.9957859,66.893145 27.5,57.9480252 27.5,48 C27.5,33.9894752 36.3564704,22.5 47.5,22.5 Z M79.5,22.5 C90.6435296,22.5 99.5,33.9894752 99.5,48 C99.5,57.7021016 95.2529878,66.1952647 88.9404909,70.5013126 L96,70.5 C105.555154,70.5 113.321695,78.1579601 113.496974,87.6712297 L113.5,88 L113.5,104.5 L110.5,104.5 L110.5,88 C110.5,80.0972412 104.177844,73.6711012 96.3153115,73.5033605 L96,73.5 L80,73.5 L79.9171256,73.4955899 L79.9171256,73.4955899 L79.5,73.5 L79.5,70.5 C88.7910062,70.5 96.5,60.4991432 96.5,48 C96.5,35.5008568 88.7910062,25.5 79.5,25.5 C76.9864983,25.5 74.5483709,26.2262428 72.313168,27.6145393 L71.9425349,27.8520412 L70.2887736,25.3490284 C73.1036171,23.4892379 76.2444704,22.5 79.5,22.5 Z M32.6213203,70.5 L48,85.879 L54.9393398,78.9393398 L57.0606602,81.0606602 L48,90.1213203 L31.391,73.512 L31.3710201,73.5133966 C23.7589642,73.8382771 17.6666281,80.0318239 17.5033605,87.6846885 L17.5,88 L17.5,104 L14.5,104 L14.5,88 C14.5,78.4448462 22.1579601,70.6783049 31.6712297,70.5030264 L32,70.5 L32.6213203,70.5 Z" id="Shape" fill="#000000" fill-rule="nonzero"></path>
    </g>
</svg>