<?xml version="1.0" encoding="UTF-8"?>
<svg   viewBox="0 0 128 128" version="1.1" xmlns="http://www.w3.org/2000/svg" xmlns:xlink="http://www.w3.org/1999/xlink">
    <title>person</title>
    <g id="person" stroke="none" stroke-width="1" fill="none" fill-rule="evenodd">
        <rect id="Rectangle" stroke-opacity="0.01" stroke="#979797" stroke-width="0.1" x="0" y="0" width="128" height="128"></rect>
        <path d="M63.5,22.5 C74.6435296,22.5 83.5,33.9894752 83.5,48 C83.5,57.7021016 79.2529878,66.1952647 72.9404909,70.5013126 L80,70.5 C89.5551538,70.5 97.3216951,78.1579601 97.4969736,87.6712297 L97.5,88 L97.5,104.5 L94.5,104.5 L94.5,88 C94.5,80.0972412 88.1778436,73.6711012 80.3153115,73.5033605 L80,73.5 L64,73.5 L63.9171256,73.4955899 L63.9171256,73.4955899 L63.5,73.5 L63.5,70.5 C72.7910062,70.5 80.5,60.4991432 80.5,48 C80.5,35.5008568 72.7910062,25.5 63.5,25.5 C54.2089938,25.5 46.5,35.5008568 46.5,48 C46.5,56.7936668 50.3610358,64.62489 56.2069928,68.3189677 L56.5111304,68.5063349 L54.9669503,71.0783979 C47.9957859,66.893145 43.5,57.9480252 43.5,48 C43.5,33.9894752 52.3564704,22.5 63.5,22.5 Z M48.6213203,70.5 L64,85.879 L70.9393398,78.9393398 L73.0606602,81.0606602 L64,90.1213203 L47.391,73.512 L47.3710201,73.5133966 C39.7589642,73.8382771 33.6666281,80.0318239 33.5033605,87.6846885 L33.5,88 L33.5,104 L30.5,104 L30.5,88 C30.5,78.4448462 38.1579601,70.6783049 47.6712297,70.5030264 L48,70.5 L48.6213203,70.5 Z" id="Shape" fill="#000000" fill-rule="nonzero"></path>
    </g>
</svg>