<?xml version="1.0" encoding="UTF-8"?>
<svg   viewBox="0 0 128 128" version="1.1" xmlns="http://www.w3.org/2000/svg" xmlns:xlink="http://www.w3.org/1999/xlink">
    <title>reader</title>
    <g id="reader" stroke="none" stroke-width="1" fill="none" fill-rule="evenodd">
        <rect id="Rectangle" stroke-opacity="0.01" stroke="#979797" stroke-width="0.1" x="0" y="0" width="128" height="128"></rect>
        <path d="M80,62.5 C89.1158364,62.5 96.6037495,69.4699679 97.42522,78.3713843 L97.435,78.5 L112,78.5 L112.246598,81.4795909 C81.1983096,86.6543057 65.8092915,96.7584096 65.504616,111.550325 L65.5,112 L62.5,112 L62.4953342,111.55047 C62.1904548,96.9111247 46.9421099,86.8581554 16.19243,81.6367465 L15.2558761,81.4800012 L15.7441239,78.5199988 L16.5519952,78.6549314 L18.1481345,78.9316193 L19.671404,79.2087039 C21.1823662,79.4900729 22.6563991,79.7842986 24.0934383,80.0914093 L25.5181439,80.402816 C25.9889338,80.5080506 26.4556109,80.614718 26.9181728,80.722819 L28.2935105,81.0514246 C29.6564979,81.3843336 30.9824272,81.7301559 32.271234,82.0889197 L33.5476642,82.4519985 C35.8650916,83.1255555 38.057674,83.8426424 40.1250145,84.6034336 L41.2402316,85.0227459 C53.1871419,89.6122743 60.7584162,95.7289483 63.8721669,103.408758 L63.992,103.715 L64.1115525,103.410644 C67.2034379,95.7087773 74.7347701,89.5777447 86.6229199,84.9828263 L87.7156607,84.5693372 C89.1886453,84.0236581 90.7256052,83.5005327 92.3263932,82.9998992 L93.5389496,82.6286404 L94.7754277,82.2658102 C95.3996449,82.0865012 96.0328276,81.9103509 96.674968,81.7373559 L97.569,81.5 L94.5,81.5 L94.5,80 C94.5,72.0972412 88.1778436,65.6711012 80.3153115,65.5033605 L80,65.5 L80,62.5 Z M63.5,14.5 C74.6435296,14.5 83.5,25.9894752 83.5,40 C83.5,53.8000135 74.9076711,65.1541669 64.000731,65.4922489 L64,65.5 L48,65.5 C40.0972412,65.5 33.6711012,71.8221564 33.5033605,79.6846885 L33.5,80 L30.5,80 C30.5,70.4448462 38.1579601,62.6783049 47.6712297,62.5030264 L48,62.5 L63.5,62.5 C72.7910062,62.5 80.5,52.4991432 80.5,40 C80.5,27.5008568 72.7910062,17.5 63.5,17.5 C54.2089938,17.5 46.5,27.5008568 46.5,40 C46.5,46.4436463 48.5659372,52.431294 52.0939978,56.6630548 L52.3755555,56.9934695 L50.1133496,58.9638564 C45.9255042,54.1557812 43.5,47.3199885 43.5,40 C43.5,25.9894752 52.3564704,14.5 63.5,14.5 Z" id="Shape" fill="#000000" fill-rule="nonzero"></path>
    </g>
</svg>