<?xml version="1.0" encoding="UTF-8"?>
<svg   viewBox="0 0 128 128" version="1.1" xmlns="http://www.w3.org/2000/svg" xmlns:xlink="http://www.w3.org/1999/xlink">
    <title>rocket</title>
    <g id="rocket" stroke="none" stroke-width="1" fill="none" fill-rule="evenodd">
        <rect id="Rectangle" stroke-opacity="0.01" stroke="#979797" stroke-width="0.1" x="0" y="0" width="128" height="128"></rect>
        <path d="M42.9612023,99.417919 L45.0387977,101.582081 L32.5387977,113.582081 L30.4612023,111.417919 L42.9612023,99.417919 Z M34.9528498,90.9259998 L37.0471502,93.0740002 L17.0471502,112.574 L14.9528498,110.426 L34.9528498,90.9259998 Z M98.9356131,25.8199734 L99.5095374,25.8220002 L101.006359,25.8354378 L100.996036,27.3322843 C100.876542,44.6588696 92.4915587,60.9840379 78.4535734,71.2852884 L69.2932023,77.8599734 L70.5153524,78.0839938 C69.1257053,85.6923117 65.5498387,92.7109641 60.2422378,98.2622122 L59.8196271,98.697404 L51.8361075,106.791806 L52.1348568,96.7961528 L55.1335178,96.8857765 L55.0636374,99.2469838 L57.6837278,96.5907635 C62.3642937,91.8451897 65.6463626,85.8837625 67.1809272,79.377723 L52.4294454,89.9652543 L50.6803102,87.5279348 L76.2291104,69.1929135 C89.3080413,59.8068572 97.3163449,44.9406932 97.9558866,29.0210957 L97.9617515,28.8314544 L97.804608,28.8351559 C82.3613919,29.2182678 67.8462136,36.7867755 58.5938264,49.3379142 L58.2617022,49.7937358 L50.9312023,59.9709734 L51.2975192,61.9179258 C50.591886,62.0504135 49.8919446,62.2039938 49.1985508,62.3782113 L45.5052764,67.5072884 L43.0708473,65.7541327 L44.3511039,63.9746569 C40.1387332,65.7068596 36.2793823,68.2421605 32.9984231,71.4606542 L32.5835537,71.8743993 L29.7474915,74.7497046 L38.5832023,74.7499734 L39.1320772,74.2024736 L39.6792023,74.7499734 L40.2714389,74.7504691 L47.4537301,82.0325144 L45.3178308,84.1391548 L44.0072023,82.8099734 L43.7524872,83.0655243 L38.4362023,77.7489734 L22.5742963,77.7504691 L30.4476544,69.7677589 C35.1453132,65.0048548 40.988681,61.5633023 47.3891026,59.7562862 L55.827273,48.0405802 C65.8475962,34.1263753 81.9195845,25.8525531 98.9356131,25.8199734 Z M26.9612023,83.417919 L29.0387977,85.582081 L16.5387977,97.582081 L14.4612023,95.417919 L26.9612023,83.417919 Z M83.7676092,43.5365475 C86.1511817,45.9532251 86.2041499,49.8299811 83.926514,52.311551 L83.7676092,52.4785535 L81.6317099,50.3719131 C82.9173202,49.068447 82.9173202,46.946654 81.6317099,45.643188 C80.3574469,44.3512269 78.3001418,44.3512269 77.0258788,45.643188 C75.7845999,46.9017069 75.7417971,48.9230895 76.8974706,50.2342197 L77.0258788,50.3719131 L74.8899795,52.4785535 C72.4522349,50.0069514 72.4522349,46.0081496 74.8899795,43.5365475 C77.3390714,41.0534404 81.3185173,41.0534404 83.7676092,43.5365475 Z" id="Shape" fill="#000000" fill-rule="nonzero"></path>
    </g>
</svg>