<?xml version="1.0" encoding="UTF-8"?>
<svg width="128px" height="128px" viewBox="0 0 128 128" version="1.1" xmlns="http://www.w3.org/2000/svg" xmlns:xlink="http://www.w3.org/1999/xlink">
    <title>sort-off</title>
    <g id="sort-off" stroke="none" stroke-width="1" fill="none" fill-rule="evenodd">
        <path d="M17.5606602,15.4393398 L113.56066,111.43934 L111.43934,113.56066 L15.4393398,17.5606602 L17.5606602,15.4393398 Z M56.5,63 L56.5,66 L20.5,66 C19.1192881,66 18,67.1192881 18,68.5 C18,69.8254834 19.0315359,70.9100387 20.3356243,70.9946823 L20.5,71 L44.5,71 C47.5375661,71 50,73.4624339 50,76.5 C50,79.4634791 47.65622,81.8795391 44.7212071,81.9956328 L44.5,82 L20.5,82 C19.1745166,82 18.0899613,83.0315359 18.0053177,84.3356243 L18,84.5 L18,96.5 L15,96.5 L15,84.5 C15,81.5365209 17.34378,79.1204609 20.2787929,79.0043672 L20.5,79 L44.5,79 C45.8807119,79 47,77.8807119 47,76.5 C47,75.1745166 45.9684641,74.0899613 44.6643757,74.0053177 L44.5,74 L20.5,74 C17.4624339,74 15,71.5375661 15,68.5 C15,65.5365209 17.34378,63.1204609 20.2787929,63.0043672 L20.5,63 L56.5,63 Z M98,64.5 L98,88.5 L95,88.5 L95,64.5 L98,64.5 Z M99.2973968,50.0019201 L99.412176,50.1641006 L113.748075,71.6679497 L111.251925,73.3320503 L96.9160251,51.8282012 C96.7628489,51.5984368 96.4524142,51.5363499 96.2226499,51.6895261 C96.1860325,51.7139377 96.1528793,51.7430223 96.1239962,51.775974 L96.0839749,51.8282012 L81.7480754,73.3320503 L79.2519246,71.6679497 L93.587824,50.1641006 C93.844146,49.7796176 94.1740663,49.4496972 94.5585493,49.1933752 C96.1114394,48.1581152 98.1907489,48.5275689 99.2973968,50.0019201 Z M40.5,47 L40.5,50 L20.5,50 C19.1192881,50 18,51.1192881 18,52.5 C18,53.8254834 19.0315359,54.9100387 20.3356243,54.9946823 L20.5,55 L48.5,55 L48.5,58 L20.5,58 C17.4624339,58 15,55.5375661 15,52.5 C15,49.5365209 17.34378,47.1204609 20.2787929,47.0043672 L20.5,47 L40.5,47 Z M76.5,39 C79.5375661,39 82,41.4624339 82,44.5 C82,47.4634791 79.65622,49.8795391 76.7212071,49.9956328 L76.5,50 L56.5,50 L56.5,47 L76.5,47 C77.8807119,47 79,45.8807119 79,44.5 C79,43.1745166 77.9684641,42.0899613 76.6643757,42.0053177 L76.5,42 L48.5,42 L48.5,39 L76.5,39 Z M24.5,31 L24.5,34 L20.5,34 C19.1192881,34 18,35.1192881 18,36.5 C18,37.8254834 19.0315359,38.9100387 20.3356243,38.9946823 L20.5,39 L32.5,39 L32.5,42 L20.5,42 C17.4624339,42 15,39.5375661 15,36.5 C15,33.5365209 17.34378,31.1204609 20.2787929,31.0043672 L20.5,31 L24.5,31 Z M96.5,31 L96.5,34 L40.5,34 L40.5,31 L96.5,31 Z" id="Shape" fill="#000000" fill-rule="nonzero"></path>
    </g>
</svg>