<?xml version="1.0" encoding="UTF-8"?>
<svg   viewBox="0 0 128 128" version="1.1" xmlns="http://www.w3.org/2000/svg" xmlns:xlink="http://www.w3.org/1999/xlink">
    <title>sort-off</title>
    <g id="sort-off" stroke="none" stroke-width="1" fill="none" fill-rule="evenodd">
        <path d="M17.5606602,15.4393398 L113.56066,111.43934 L111.43934,113.56066 L15.4393398,17.5606602 L17.5606602,15.4393398 Z M56.5,63 L56.5,66 L28.5,66 C27.1192881,66 26,67.1192881 26,68.5 C26,69.8254834 27.0315359,70.9100387 28.3356243,70.9946823 L28.5,71 L52.5,71 C55.5375661,71 58,73.4624339 58,76.5 C58,79.4634791 55.65622,81.8795391 52.7212071,81.9956328 L52.5,82 L28.5,82 C27.1745166,82 26.0899613,83.0315359 26.0053177,84.3356243 L26,84.5 L26,96.5 L23,96.5 L23,84.5 C23,81.5365209 25.34378,79.1204609 28.2787929,79.0043672 L28.5,79 L52.5,79 C53.8807119,79 55,77.8807119 55,76.5 C55,75.1745166 53.9684641,74.0899613 52.6643757,74.0053177 L52.5,74 L28.5,74 C25.4624339,74 23,71.5375661 23,68.5 C23,65.5365209 25.34378,63.1204609 28.2787929,63.0043672 L28.5,63 L56.5,63 Z M68.5,55 C71.4634791,55 73.8795391,57.34378 73.9956328,60.2787929 L74,60.5 L71,60.5 C71,59.1745166 69.9684641,58.0899613 68.6643757,58.0053177 L68.5,58 L64.5,58 L64.5,55 L68.5,55 Z M40.5,47 L40.5,50 L28.5,50 C27.1192881,50 26,51.1192881 26,52.5 C26,53.8254834 27.0315359,54.9100387 28.3356243,54.9946823 L28.5,55 L48.5,55 L48.5,58 L28.5,58 C25.4624339,58 23,55.5375661 23,52.5 C23,49.5365209 25.34378,47.1204609 28.2787929,47.0043672 L28.5,47 L40.5,47 Z M84.5,39 C87.5375661,39 90,41.4624339 90,44.5 C90,47.4634791 87.65622,49.8795391 84.7212071,49.9956328 L84.5,50 L56.5,50 L56.5,47 L84.5,47 C85.8807119,47 87,45.8807119 87,44.5 C87,43.1745166 85.9684641,42.0899613 84.6643757,42.0053177 L84.5,42 L49,42 L49,39 L84.5,39 Z M26,36.5 C26,37.8254834 27.0315359,38.9100387 28.3356243,38.9946823 L28.5,39 L32.5,39 L32.5,42 L28.5,42 C25.5365209,42 23.1204609,39.65622 23.0043672,36.7212071 L23,36.5 L26,36.5 Z M104.5,31 L104.5,34 L40.5,34 L40.5,31 L104.5,31 Z" id="Shape" fill="#000000" fill-rule="nonzero"></path>
    </g>
</svg>