<?xml version="1.0" encoding="UTF-8"?>
<svg   viewBox="0 0 128 128" version="1.1" xmlns="http://www.w3.org/2000/svg" xmlns:xlink="http://www.w3.org/1999/xlink">
    <title>tag</title>
    <g id="tag" stroke="none" stroke-width="1" fill="none" fill-rule="evenodd">
        <rect id="Rectangle" stroke-opacity="0.01" stroke="#979797" stroke-width="0.1" x="0" y="0" width="128" height="128"></rect>
        <path d="M92.0219389,30.0646593 C94.9850564,30.110958 97.3642044,32.4921983 97.4344299,35.4286667 L97.4353407,35.6499151 L97.025132,61.9032695 C97.0042029,63.2427343 96.4953211,64.5252674 95.5992397,65.5129048 L95.4148906,65.7064298 L51.3890873,109.732233 C49.3008671,111.820453 45.9512337,111.878459 43.792935,109.906251 L43.6109127,109.732233 L17.2612295,83.382396 C15.1861838,81.2810839 15.1492453,77.9311519 17.1349882,75.7852995 L17.3101478,75.6043752 L54.4460315,38.9326901 L56.5539685,41.0673099 L19.4180849,77.738995 C18.4783677,78.6669657 18.428402,80.1555438 19.2748654,81.1430102 L19.4069321,81.2856117 L45.732233,107.610913 C46.6660955,108.544775 48.1549584,108.585378 49.1370817,107.732721 L49.267767,107.610913 L93.2935702,63.5851094 C93.7069202,63.1717595 93.9608824,62.6282293 94.0149388,62.0502169 L94.0254982,61.8564002 L94.4357068,35.6030458 C94.456415,34.2777242 93.441949,33.1771855 92.1393422,33.0721783 L91.9750697,33.0642932 L67.9609423,33.4382934 C66.6502387,33.4587731 65.5880816,34.4852216 65.5052061,35.7753965 L65.5,35.9379883 L65.5,55.5 C65.5,59.0118106 68.2849962,61.8731506 71.7668659,61.995897 L72,62 L72.25,62 C75.7017797,62 78.5,59.2017797 78.5,55.75 C78.5,52.3749265 75.8247632,49.6246881 72.4791269,49.504122 L72.25,49.5 L72,49.5 L72,46.5 L72.25,46.5 C77.3586339,46.5 81.5,50.6413661 81.5,55.75 C81.5,60.7690088 77.5026704,64.8543912 72.5179652,64.9961932 L72.25,65 L72,65 C66.8437553,65 62.6469606,60.8921061 62.5037764,55.7704787 L62.5,55.5 L62.5,35.9379883 C62.5,33.0071959 64.7942319,30.6053538 67.6953756,30.4463525 L67.914073,30.4386595 L91.8500849,30.0646593 L92.0219389,30.0646593 Z" id="Path-12" fill="#000000" fill-rule="nonzero"></path>
    </g>
</svg>