<?xml version="1.0" encoding="UTF-8"?>
<svg width="128px" height="128px" viewBox="0 0 128 128" version="1.1" xmlns="http://www.w3.org/2000/svg" xmlns:xlink="http://www.w3.org/1999/xlink">
    <title>text-rulers</title>
    <g id="text-rulers" stroke="none" stroke-width="1" fill="none" fill-rule="evenodd">
        <rect id="Rectangle" stroke-opacity="0.01" stroke="#979797" stroke-width="0.1" x="0" y="0" width="128" height="128"></rect>
        <path d="M112,30.5 L112,33.5 L97.5,33.4993619 L97.5,112 L94.5,112 L94.5,33.5 L40,33.5 L40,30.5 L112,30.5 Z M33.5,104 L33.5,112 L30.5,112 L30.5,104 L33.5,104 Z M30.3562647,15.4933619 L33.3562353,15.5066381 L33.006,94.5 L88.5,94.5 L88.5,97.5 L16,97.5 L16,94.5 L30.006,94.4993619 L30.3562647,15.4933619 Z M112,94.5 L112,97.5 L104,97.5 L104,94.5 L112,94.5 Z M84,46.5 C87.0375661,46.5 89.5,48.9624339 89.5,52 C89.5,54.9634791 87.15622,57.3795391 84.2212071,57.4956328 L84,57.5 L44,57.5 C42.6192881,57.5 41.5,58.6192881 41.5,60 C41.5,61.3254834 42.5315359,62.4100387 43.8356243,62.4946823 L44,62.5 L84.5,62.5 C87.2614237,62.5 89.5,64.7385763 89.5,67.5 C89.5,70.1887547 87.3776933,72.3818181 84.7168896,72.4953805 L84.5,72.5 L44,72.5 C42.6192881,72.5 41.5,73.6192881 41.5,75 C41.5,76.3254834 42.5315359,77.4100387 43.8356243,77.4946823 L44,77.5 L80,77.5 C85.1562447,77.5 89.3530394,81.6078939 89.4962236,86.7295213 L89.5,87 L86.5,87 C86.5,83.4881894 83.7150038,80.6268494 80.2331341,80.504103 L80,80.5 L44,80.5 C40.9624339,80.5 38.5,78.0375661 38.5,75 C38.5,72.0365209 40.84378,69.6204609 43.7787929,69.5043672 L44,69.5 L84.5,69.5 C85.6045695,69.5 86.5,68.6045695 86.5,67.5 C86.5,66.4456382 85.6841222,65.5818349 84.6492623,65.5054857 L84.5,65.5 L44,65.5 C40.9624339,65.5 38.5,63.0375661 38.5,60 C38.5,57.0365209 40.84378,54.6204609 43.7787929,54.5043672 L44,54.5 L84,54.5 C85.3807119,54.5 86.5,53.3807119 86.5,52 C86.5,50.6745166 85.4684641,49.5899613 84.1643757,49.5053177 L84,49.5 L40,49.5 L40,46.5 L84,46.5 Z M24,30.5 L24,33.5 L15.5,33.5 L15.5,30.5 L24,30.5 Z M97.5,16 L97.5,24 L94.5,24 L94.5,16 L97.5,16 Z" id="Shape" fill="#000000" fill-rule="nonzero"></path>
    </g>
</svg>