<?xml version="1.0" encoding="UTF-8"?>
<svg   viewBox="0 0 128 128" version="1.1" xmlns="http://www.w3.org/2000/svg" xmlns:xlink="http://www.w3.org/1999/xlink">
    <title>text-off</title>
    <g id="text-off" stroke="none" stroke-width="1" fill="none" fill-rule="evenodd">
        <rect id="Rectangle" stroke-opacity="0.01" stroke="#979797" stroke-width="0.1" x="0" y="0" width="128" height="128"></rect>
        <path d="M17.0606602,14.9393398 L113.06066,110.93934 L110.93934,113.06066 L14.9393398,17.0606602 L17.0606602,14.9393398 Z M71.5,78.5 L71.5,81.5 L24,81.5 C20.4101491,81.5 17.5,84.4101491 17.5,88 C17.5,91.5118106 20.2849962,94.3731506 23.7668659,94.495897 L24,94.5 L64,94.5 C73.5551538,94.5 81.3216951,102.15796 81.4969736,111.67123 L81.5,112 L78.5,112 C78.5,104.097241 72.1778436,97.6711012 64.3153115,97.5033605 L64,97.5 L24,97.5 C18.7532949,97.5 14.5,93.2467051 14.5,88 C14.5,82.8437553 18.6078939,78.6469606 23.7295213,78.5037764 L24,78.5 L71.5,78.5 Z M104,62.5 C109.246705,62.5 113.5,66.7532949 113.5,72 C113.5,77.1562447 109.392106,81.3530394 104.270479,81.4962236 L104,81.5 L88,81.5 L88,78.5 L104,78.5 C107.589851,78.5 110.5,75.5898509 110.5,72 C110.5,68.4881894 107.715004,65.6268494 104.233134,65.504103 L104,65.5 L72,65.5 L72,62.5 L104,62.5 Z M40,46.5 L40,49.5 L24,49.5 C20.4101491,49.5 17.5,52.4101491 17.5,56 C17.5,59.5118106 20.2849962,62.3731506 23.7668659,62.495897 L24,62.5 L56,62.5 L56,65.5 L24,65.5 C18.7532949,65.5 14.5,61.2467051 14.5,56 C14.5,50.8437553 18.6078939,46.6469606 23.7295213,46.5037764 L24,46.5 L40,46.5 Z M104,30.5 C109.246705,30.5 113.5,34.7532949 113.5,40 C113.5,45.1562447 109.392106,49.3530394 104.270479,49.4962236 L104,49.5 L56,49.5 L56,46.5 L104,46.5 C107.589851,46.5 110.5,43.5898509 110.5,40 C110.5,36.4881894 107.715004,33.6268494 104.233134,33.504103 L104,33.5 L40,33.5 L40,30.5 L104,30.5 Z M24,30.5 L24,33.5 L16,33.5 L16,30.5 L24,30.5 Z" id="Shape" fill="#000000" fill-rule="nonzero"></path>
    </g>
</svg>