<?xml version="1.0" encoding="UTF-8"?>
<svg width="128px" height="128px" viewBox="0 0 128 128" version="1.1" xmlns="http://www.w3.org/2000/svg" xmlns:xlink="http://www.w3.org/1999/xlink">
    <title>trash-can</title>
    <g id="trash-can" stroke="none" stroke-width="1" fill="none" fill-rule="evenodd">
        <rect id="Rectangle" stroke-opacity="0.01" stroke="#979797" stroke-width="0.1" x="0" y="0" width="128" height="128"></rect>
        <path d="M33.4976905,39.916795 L37.0778994,104.360555 C37.2649091,107.72673 39.9900015,110.377113 43.3336355,110.495847 L43.5678917,110.5 L84.425546,110.5 C87.7990343,110.5 90.5975013,107.922984 90.8988961,104.588764 L90.9158479,104.354938 L93.771543,52.1365148 C93.846938,50.7578629 92.7904396,49.5791251 91.4117878,49.50373 L91.3435559,49.5009327 L84,49.5 C82.6745166,49.5 81.5899613,50.5315359 81.5053177,51.8356243 L81.5,52 L81.5,92 C81.5,94.9634791 79.15622,97.3795391 76.2212071,97.4956328 L76,97.5 L68,97.5 C65.0365209,97.5 62.6204609,95.15622 62.5043672,92.2212071 L62.5,92 L62.5,52 C62.5,50.6745166 61.4684641,49.5899613 60.1643757,49.5053177 L60,49.5 L52,49.5 C50.6745166,49.5 49.5899613,50.5315359 49.5053177,51.8356243 L49.5,52 L49.5,96 L46.5,96 L46.5,52 C46.5,49.0365209 48.84378,46.6204609 51.7787929,46.5043672 L52,46.5 L60,46.5 C62.9634791,46.5 65.3795391,48.84378 65.4956328,51.7787929 L65.5,52 L65.5,92 C65.5,93.3254834 66.5315359,94.4100387 67.8356243,94.4946823 L68,94.5 L76,94.5 C77.3254834,94.5 78.4100387,93.4684641 78.4946823,92.1643757 L78.5,92 L78.5,52 C78.5,49.0365209 80.84378,46.6204609 83.7787929,46.5043672 L84,46.5 L91.275273,46.5 C91.3754399,46.5 91.4755881,46.5027364 91.5756055,46.5082061 C94.5346631,46.6700295 96.8191341,49.1422437 96.7754203,52.0792169 L96.7670669,52.3003325 L93.9113719,104.518756 C93.6407967,109.466416 89.6182076,113.358807 84.6949627,113.496244 L84.425546,113.5 L43.5678917,113.5 C38.6159567,113.5 34.5111811,109.700589 34.1011996,104.795591 L34.0825184,104.526965 L30.5023095,40.083205 L33.4976905,39.916795 Z M76,14.5 C78.9634791,14.5 81.3795391,16.84378 81.4956328,19.7787929 L81.5,20 L81.5,22 C81.5,22.2454599 81.6768752,22.4496084 81.9101244,22.4919443 L82,22.5 L100,22.5 C102.963479,22.5 105.379539,24.84378 105.495633,27.7787929 L105.5,28 L105.5,31 C105.5,32.3254834 104.468464,33.4100387 103.164376,33.4946823 L103,33.5 L24,33.5 L24,30.5 L102.5,30.5 L102.5,28 C102.5,26.6745166 101.468464,25.5899613 100.164376,25.5053177 L100,25.5 L82,25.5 C80.1314366,25.5 78.6048736,24.0357224 78.5051789,22.1920352 L78.5,22 L78.5,20 C78.5,18.6745166 77.4684641,17.5899613 76.1643757,17.5053177 L76,17.5 L52,17.5 C50.6745166,17.5 49.5899613,18.5315359 49.5053177,19.8356243 L49.5,20 L49.5,24 L46.5,24 L46.5,20 C46.5,17.0365209 48.84378,14.6204609 51.7787929,14.5043672 L52,14.5 L76,14.5 Z" id="Shape" fill="#000000" fill-rule="nonzero"></path>
    </g>
</svg>