<?xml version="1.0" encoding="UTF-8"?>
<svg width="128px" height="128px" viewBox="0 0 128 128" version="1.1" xmlns="http://www.w3.org/2000/svg" xmlns:xlink="http://www.w3.org/1999/xlink">
    <title>wand</title>
    <g id="wand" stroke="none" stroke-width="1" fill="none" fill-rule="evenodd">
        <rect id="Rectangle" stroke-opacity="0.01" stroke="#979797" stroke-width="0.1" x="0" y="0" width="128" height="128"></rect>
        <path d="M88.1553301,22.2536797 L88.1553301,25.2536797 L81.6550077,25.2532062 L81.6543006,34.6301493 L94.2094962,47.1345424 L81.1258928,60.2181458 L69.8109691,48.9045138 L66.2754352,52.4400478 L77.5903589,63.7536797 L28.799991,112.544048 L15.3649622,99.1090187 L57.0842623,57.3897186 L59.2055826,59.511039 L19.6063876,99.1090953 L28.7987758,108.301483 L73.346503,63.7537562 L62.0340097,52.4399712 L69.8121843,44.6617966 L81.1246776,55.9755817 L89.961391,47.1388682 L78.6553301,35.8767618 L78.6553301,22.2536797 L88.1553301,22.2536797 Z M112,62.5 L112,65.5 L105.5,65.5 L105.5,72 L102.5,72 L102.5,62.5 L112,62.5 Z M100,62.5 L100,65.5 L96,65.5 L96,62.5 L100,62.5 Z M105.5,56 L105.5,60 L102.5,60 L102.5,56 L105.5,56 Z M112,30.5 L112,33.5 L105.5,33.5 L105.5,40 L102.5,40 L102.5,30.5 L112,30.5 Z M100,30.5 L100,33.5 L96,33.5 L96,30.5 L100,30.5 Z M105.5,24 L105.5,28 L102.5,28 L102.5,24 L105.5,24 Z M76,22.5 L76,25.5 L72,25.5 L72,22.5 L76,22.5 Z M81.5,16 L81.5,20 L78.5,20 L78.5,16 L81.5,16 Z" id="Shape" fill="#000000" fill-rule="nonzero"></path>
    </g>
</svg>