<?xml version="1.0" encoding="UTF-8"?>
<svg   viewBox="0 0 128 128" version="1.1" xmlns="http://www.w3.org/2000/svg" xmlns:xlink="http://www.w3.org/1999/xlink">
    <title>warning</title>
    <g id="warning" stroke="none" stroke-width="1" fill="none" fill-rule="evenodd">
        <rect id="Rectangle" stroke-opacity="0.01" stroke="#979797" stroke-width="0.1" x="0" y="0" width="128" height="128"></rect>
        <path d="M64,25.2958365 L113.248075,99.1679497 L110.751925,100.83205 L64,30.705 L18.803,98.5 L100,98.5 L100,101.5 L13.1972244,101.5 L64,25.2958365 Z M64,85.5 C65.3807119,85.5 66.5,86.6192881 66.5,88 C66.5,89.3807119 65.3807119,90.5 64,90.5 C62.6192881,90.5 61.5,89.3807119 61.5,88 C61.5,86.6192881 62.6192881,85.5 64,85.5 Z M64,87.5 C63.7238576,87.5 63.5,87.7238576 63.5,88 C63.5,88.2761424 63.7238576,88.5 64,88.5 C64.2761424,88.5 64.5,88.2761424 64.5,88 C64.5,87.7238576 64.2761424,87.5 64,87.5 Z M65.5,52 L65.5,76 L62.5,76 L62.5,52 L65.5,52 Z" id="Shape" fill="#000000" fill-rule="nonzero"></path>
    </g>
</svg>