<?xml version="1.0" encoding="UTF-8"?>
<svg   viewBox="0 0 128 128" version="1.1" xmlns="http://www.w3.org/2000/svg" xmlns:xlink="http://www.w3.org/1999/xlink">
    <title>warning-mark-off</title>
    <g id="warning-mark-off" stroke="none" stroke-width="1" fill="none" fill-rule="evenodd">
        <rect id="Rectangle" stroke-opacity="0.01" stroke="#979797" stroke-width="0.1" x="0" y="0" width="128" height="128"></rect>
        <path d="M17.0606602,14.9393398 L113.06066,110.93934 L110.93934,113.06066 L14.9393398,17.0606602 L17.0606602,14.9393398 Z M28.3047819,89.2789801 C30.0178331,90.1355057 31.4294213,91.4884399 32.3578733,93.1572559 L32.526252,93.4738165 L34.2047374,96.7783346 C35.8304568,99.9789698 39.7429903,101.255691 42.9436255,99.6299718 C44.0846901,99.0503834 45.0272551,98.1479239 45.6558326,97.038081 L45.7952626,96.7783346 L47.473748,93.4738165 C49.8497995,88.7959651 55.5681177,86.9299876 60.2459691,89.3060391 C61.9535651,90.1733895 63.3565623,91.5352306 64.2744338,93.2098892 L64.4408056,93.5275092 L66.1862233,97.0183446 C67.7916534,100.229205 71.6960281,101.530663 74.9068884,99.9252329 C76.0809546,99.3381998 77.0477557,98.4105342 77.6828155,97.2667124 L77.8137767,97.0183446 L79.5029417,93.6400147 L82.1862233,94.9816554 L80.4970583,98.3599853 C79.5778032,100.198496 78.0870395,101.689259 76.2485292,102.608514 C71.6395334,104.913012 66.0528161,103.11936 63.6318309,98.6087072 L63.5029417,98.3599853 L61.757524,94.86915 C61.1348524,93.6238068 60.1287501,92.6113166 58.8873727,91.9807757 C55.7578628,90.3911834 51.9477429,91.5764679 50.2602209,94.6218982 L50.1484846,94.8324129 L48.4699992,98.136931 C47.5577477,99.9329262 46.098217,101.392457 44.3022218,102.304708 C39.7079035,104.63833 34.1099461,102.880072 31.6604616,98.3848321 L31.5300008,98.136931 L29.8515154,94.8324129 C29.2209745,93.5910356 28.2084842,92.5849332 26.9631411,91.9622616 C23.8236333,90.3925077 20.0210914,91.6018827 18.3528777,94.6579323 L18.242476,94.86915 L17.3416408,96.6708204 L14.6583592,95.3291796 L15.5591944,93.5275092 C17.9055923,88.8347135 23.6119862,86.9325822 28.3047819,89.2789801 Z M110.658359,95.3291796 L113.341641,96.6708204 L112.497058,98.3599853 C111.631877,100.090348 110.260446,101.512672 108.569317,102.440406 L108.248529,102.608514 L106.906888,99.9252329 C108.080955,99.3381998 109.047756,98.4105342 109.682816,97.2667124 L109.813777,97.0183446 L110.658359,95.3291796 Z M38.8772992,50.9798878 L41.37345,52.6439884 L34.802,62.5 L56,62.5 L56,65.5 L29.1972244,65.5 L38.8772992,50.9798878 Z M88,62.5 L88,65.5 L72,65.5 L72,62.5 L88,62.5 Z M64,13.2958365 L97.2480754,63.1679497 L94.7519246,64.8320503 L63.999,18.705 L49.3633365,40.6591587 L46.8671856,38.9950581 L64,13.2958365 Z M65.5,32 L65.5,48 L62.5,48 L62.5,32 L65.5,32 Z" id="Shape" fill="#000000" fill-rule="nonzero"></path>
    </g>
</svg>