<?xml version="1.0" encoding="UTF-8"?>
<svg  viewBox="0 0 116 116" version="1.1" xmlns="http://www.w3.org/2000/svg" xmlns:xlink="http://www.w3.org/1999/xlink">
    <title>airplane</title>
    <g id="airplane" stroke="none" stroke-width="1" fill="none" fill-rule="evenodd">
        <path d="M58.5,8 C64.2039245,8 68.8455734,12.548142 68.9962258,18.2157049 L69,18.5 L69,40.954 L100.984597,56.9472136 C105.794625,59.3522273 108.869922,64.2161255 108.995971,69.5737784 L109,69.9164079 L109,73.5495098 L68.819,65.513 L67.073,93.879 L73.9092181,99.4937022 C75.7696464,101.021911 76.0886857,103.730856 74.6726204,105.644641 L74.5301588,105.827298 C73.5235434,107.052743 71.9505845,107.6536 70.3927501,107.422308 L70.1703681,107.383583 L58.5,105.049 L46.4947712,107.450556 C44.1273814,107.924033 41.8225628,106.446109 41.2459828,104.127227 L41.1996356,103.920465 C40.8956377,102.400476 41.3958888,100.836972 42.5117195,99.7765152 L42.6836874,99.6212878 L49.926,93.412 L48.183,65.512 L8,73.5495098 L8,69.9164079 C8,64.5386337 10.9750882,59.612803 15.7107474,57.1040455 L16.0154029,56.9472136 L49.381966,40.263932 L51.618034,44.736068 L18.2514708,61.4193496 C15.8606236,62.6147732 14.1239377,64.7374346 13.3888737,67.225131 L13.345,67.381 L52.8165765,59.4871749 L55.0728407,95.5874024 L47.39,102.172 L58.5,99.9504902 L69.19,102.088 L61.9262758,96.1211678 L64.1807088,59.486632 L103.654,67.381 L103.611126,67.225131 C102.904334,64.8331152 101.271486,62.7785948 99.0214733,61.561366 L98.7485292,61.4193496 L64,44.045085 L64,18.5 C64,15.4624339 61.5375661,13 58.5,13 C55.5365209,13 53.1204609,15.34378 53.0043672,18.2787929 L53,18.5 L53,34.5 L48,34.5 L48,18.5 C48,12.7010101 52.7010101,8 58.5,8 Z" id="Path" fill="#000000" fill-rule="nonzero"></path>
    </g>
</svg>