<?xml version="1.0" encoding="UTF-8"?>
<svg  viewBox="0 0 116 116" version="1.1" xmlns="http://www.w3.org/2000/svg" xmlns:xlink="http://www.w3.org/1999/xlink">
    <title>arrow-left-right</title>
    <g id="arrow-left-right" stroke="none" stroke-width="1" fill="none" fill-rule="evenodd">
        <path d="M33.1132495,40.4198743 L35.8867505,44.5801257 L15.007,58.5 L35.8867505,72.4198743 L33.1132495,76.5801257 L11.6094004,62.2442263 C9.54152129,60.8656403 8.98273888,58.0717282 10.361325,56.0038491 C10.6438023,55.5801332 10.995801,55.2079574 11.4019088,54.9027344 L11.6094004,54.7557737 L33.1132495,40.4198743 Z M83.8867505,40.4198743 L105.3906,54.7557737 C107.458479,56.1343597 108.017261,58.9282718 106.638675,60.9961509 C106.356198,61.4198743 106.004199,61.7920426 105.598091,62.0972656 L105.3906,62.2442263 L83.8867505,76.5801257 L81.1132495,72.4198743 L101.992,58.5 L81.1132495,44.5801257 L83.8867505,40.4198743 Z M90.5,56 L90.5,61 L26.5,61 L26.5,56 L90.5,56 Z" id="Shape" fill="#000000" fill-rule="nonzero"></path>
    </g>
</svg>