<?xml version="1.0" encoding="UTF-8"?>
<svg  viewBox="0 0 116 116" version="1.1" xmlns="http://www.w3.org/2000/svg" xmlns:xlink="http://www.w3.org/1999/xlink">
    <title>arrow-loop</title>
    <g id="arrow-loop" stroke="none" stroke-width="1" fill="none" fill-rule="evenodd">
        <path d="M64.1343305,81.4059735 L66.8656695,85.5940265 L47.076,98.5 L66.8656695,111.405974 L64.1343305,115.594026 L43.703003,102.269248 C41.621305,100.911619 41.0343312,98.123493 42.3919604,96.041795 C42.6844782,95.5932676 43.0542999,95.2011589 43.4835238,94.8833703 L43.703003,94.7307523 L64.1343305,81.4059735 Z M58.5,16 C81.9721019,16 101,35.0278981 101,58.5 C101,81.7373808 82.350757,100.618998 59.1831639,100.994227 L58.4797472,100.999918 L57.818274,100.994559 L57.8587797,95.9947232 L58.5,96 C79.2106781,96 96,79.2106781 96,58.5 C96,37.7893219 79.2106781,21 58.5,21 C37.7893219,21 21,37.7893219 21,58.5 C21,68.4103408 24.8588738,77.7034098 31.6260749,84.6542696 L32.0050165,85.0380078 L28.472333,88.5763898 C20.5403278,80.6571587 16,69.9349975 16,58.5 C16,35.0278981 35.0278981,16 58.5,16 Z" id="Shape" fill="#000000" fill-rule="nonzero"></path>
    </g>
</svg>