<?xml version="1.0" encoding="UTF-8"?>
<svg  viewBox="0 0 116 116" version="1.1" xmlns="http://www.w3.org/2000/svg" xmlns:xlink="http://www.w3.org/1999/xlink">
    <title>arrow-up-down</title>
    <g id="arrow-up-down" stroke="none" stroke-width="1" fill="none" fill-rule="evenodd">
        <path d="M72.4198743,81.1132495 L76.5801257,83.8867505 L62.2442263,105.3906 C61.9146695,105.884935 61.4904862,106.309118 60.9961509,106.638675 C58.9909348,107.975486 56.303021,107.490565 54.8849391,105.574419 L54.7557737,105.3906 L40.4198743,83.8867505 L44.5801257,81.1132495 L58.499,101.992 L72.4198743,81.1132495 Z M61,26.5 L61,90.5 L56,90.5 L56,26.5 L61,26.5 Z M62.1150609,11.4255806 L62.2442263,11.6094004 L76.5801257,33.1132495 L72.4198743,35.8867505 L58.5,15.007 L44.5801257,35.8867505 L40.4198743,33.1132495 L54.7557737,11.6094004 C55.0853305,11.1150651 55.5095138,10.6908818 56.0038491,10.361325 C58.0090652,9.02451422 60.696979,9.50943473 62.1150609,11.4255806 Z" id="Shape" fill="#000000" fill-rule="nonzero"></path>
    </g>
</svg>