<?xml version="1.0" encoding="UTF-8"?>
<svg  viewBox="0 0 116 116" version="1.1" xmlns="http://www.w3.org/2000/svg" xmlns:xlink="http://www.w3.org/1999/xlink">
    <title>arrow-up-down-left-right</title>
    <g id="arrow-up-down-left-right" stroke="none" stroke-width="1" fill="none" fill-rule="evenodd">
        <path d="M25.0836779,45.4398952 L27.9163221,49.5601048 L14.913,58.5 L24,64.747 L24,56 L55.4527588,56 C58.416238,56 60.8322979,58.34378 60.9483916,61.2787929 L60.9520875,61.585927 L60.539,88 L67.5989695,88 C69.4675329,88 70.994096,89.4642776 71.0937906,91.3079648 L71.0989695,91.5 C71.0989695,92.1293577 70.9293021,92.7455612 70.6098803,93.2844971 L70.4831162,93.4828509 L62.2081887,105.519109 C60.8002051,107.567085 57.9985963,108.085902 55.9506203,106.677918 C55.5723353,106.417847 55.2365226,106.101737 54.9544882,105.740893 L54.7918113,105.519109 L45.4398952,91.9163221 L49.5601048,89.0836779 L58.5,102.086 L64.746,93 L55.4606323,93 L55.9526978,61.5078115 C55.952752,61.2554081 55.7758829,61.0504881 55.5426344,61.0080664 L55.4527588,61 L29,61 L29,67.5989695 C29,68.306997 28.7852647,68.9983761 28.3841467,69.5818204 C27.3268104,71.1197641 25.2590084,71.5489711 23.6839513,70.5910691 L23.5171491,70.4831162 L11.4808908,62.2081887 C11.0269488,61.8961035 10.634167,61.5033218 10.3220819,61.0493797 C8.95676449,59.0634635 9.40324068,56.3688973 11.2989348,54.9235893 L11.4808908,54.7918113 L25.0836779,45.4398952 Z M93.1454756,46.3115937 L93.3160487,46.4089309 L93.4828509,46.5168838 L105.519109,54.7918113 C105.973051,55.1038965 106.365833,55.4966782 106.677918,55.9506203 C108.043236,57.9365365 107.596759,60.6311027 105.701065,62.0764107 L105.519109,62.2081887 L91.9163221,71.5601048 L89.0836779,67.4398952 L102.086,58.499 L93,52.253 L93,61 L66.5,61 L66.5,56 L88,55.999 L88,49.4010305 C88,48.7716728 88.1696674,48.1554693 88.4890892,47.6165334 L88.6158533,47.4181796 C89.6354275,45.9351625 91.5945803,45.4831007 93.1454756,46.3115937 Z M61.0493797,10.3220819 C61.4276647,10.5821528 61.7634774,10.8982631 62.0455118,11.2591069 L62.2081887,11.4808908 L71.5601048,25.0836779 L67.4398952,27.9163221 L58.499,14.913 L52.253,23.999 L61,24 L61,50.5 L56,50.5 L55.999,28.999 L49.4010305,29 C47.5324671,29 46.005904,27.5357224 45.9062094,25.6920352 L45.9010305,25.5 C45.9010305,24.8706423 46.0706979,24.2544388 46.3901197,23.7155029 L46.5168838,23.5171491 L54.7918113,11.4808908 C56.1997949,9.43291477 59.0014037,8.91409833 61.0493797,10.3220819 Z" id="Shape" fill="#000000" fill-rule="nonzero"></path>
    </g>
</svg>