<?xml version="1.0" encoding="UTF-8"?>
<svg   viewBox="0 0 116 116" version="1.1" xmlns="http://www.w3.org/2000/svg" xmlns:xlink="http://www.w3.org/1999/xlink">
    <title>article</title>
    <g id="article" stroke="none" stroke-width="1" fill="none" fill-rule="evenodd">
        <path d="M96,7.5 C98.4142733,7.5 100.384489,9.40123652 100.495102,11.7881643 L100.5,12 L100.5,106 L95.5,106 L95.5,12.5 L20.5,12.5 L20.5,106 L15.5,106 L15.5,12 C15.5,9.58572667 17.4012365,7.61551091 19.7881643,7.50489799 L20,7.5 L96,7.5 Z M78,64.5 C81.5898509,64.5 84.5,67.4101491 84.5,71 C84.5,74.5118106 81.7150038,77.3731506 78.2331341,77.495897 L78,77.5 L38,77.5 C37.1715729,77.5 36.5,78.1715729 36.5,79 C36.5,79.7796961 37.0948881,80.4204487 37.85554,80.4931334 L38,80.5 L78.5,80.5 C81.8137085,80.5 84.5,83.1862915 84.5,86.5 C84.5,89.7383969 81.9344251,92.3775718 78.7249383,92.4958615 L78.5,92.5 L38,92.5 C37.1715729,92.5 36.5,93.1715729 36.5,94 C36.5,94.7796961 37.0948881,95.4204487 37.85554,95.4931334 L38,95.5 L74,95.5 C79.7039245,95.5 84.3455734,100.048142 84.4962258,105.715705 L84.5,106 L79.5,106 C79.5,103.036521 77.15622,100.620461 74.2212071,100.504367 L74,100.5 L38,100.5 C34.4101491,100.5 31.5,97.5898509 31.5,94 C31.5,90.4881894 34.2849962,87.6268494 37.7668659,87.504103 L38,87.5 L78.5,87.5 C79.0522847,87.5 79.5,87.0522847 79.5,86.5 C79.5,85.9871642 79.1139598,85.5644928 78.6166211,85.5067277 L78.5,85.5 L38,85.5 C34.4101491,85.5 31.5,82.5898509 31.5,79 C31.5,75.4881894 34.2849962,72.6268494 37.7668659,72.504103 L38,72.5 L78,72.5 C78.8284271,72.5 79.5,71.8284271 79.5,71 C79.5,70.2203039 78.9051119,69.5795513 78.14446,69.5068666 L78,69.5 L34,69.5 L34,64.5 L78,64.5 Z M80,23.5 C82.4142733,23.5 84.3844891,25.4012365 84.495102,27.7881643 L84.5,28 L84.5,42 L79.5,42 L79.5,28.5 L36.5,28.5 L36.5,48 L82,48 L82,53 L36,53 C33.5857267,53 31.6155109,51.0987635 31.504898,48.7118357 L31.5,48.5 L31.5,28 C31.5,25.5857267 33.4012365,23.6155109 35.7881643,23.504898 L36,23.5 L80,23.5 Z" id="Shape" fill="#000000" fill-rule="nonzero"></path>
    </g>
</svg>