<?xml version="1.0" encoding="UTF-8"?>
<svg width="128px" height="128px" viewBox="0 0 128 128" version="1.1" xmlns="http://www.w3.org/2000/svg" xmlns:xlink="http://www.w3.org/1999/xlink">
    <title>article</title>
    <g id="article" stroke="none" stroke-width="1" fill="none" fill-rule="evenodd">
        <path d="M102,13.5 C104.414273,13.5 106.384489,15.4012365 106.495102,17.7881643 L106.5,18 L106.5,112 L101.5,112 L101.5,18.5 L26.5,18.5 L26.5,112 L21.5,112 L21.5,18 C21.5,15.5857267 23.4012365,13.6155109 25.7881643,13.504898 L26,13.5 L102,13.5 Z M84,70.5 C87.5898509,70.5 90.5,73.4101491 90.5,77 C90.5,80.5118106 87.7150038,83.3731506 84.2331341,83.495897 L84,83.5 L44,83.5 C43.1715729,83.5 42.5,84.1715729 42.5,85 C42.5,85.7796961 43.0948881,86.4204487 43.85554,86.4931334 L44,86.5 L84.5,86.5 C87.8137085,86.5 90.5,89.1862915 90.5,92.5 C90.5,95.7383969 87.9344251,98.3775718 84.7249383,98.4958615 L84.5,98.5 L44,98.5 C43.1715729,98.5 42.5,99.1715729 42.5,100 C42.5,100.779696 43.0948881,101.420449 43.85554,101.493133 L44,101.5 L80,101.5 C85.7039245,101.5 90.3455734,106.048142 90.4962258,111.715705 L90.5,112 L85.5,112 C85.5,109.036521 83.15622,106.620461 80.2212071,106.504367 L80,106.5 L44,106.5 C40.4101491,106.5 37.5,103.589851 37.5,100 C37.5,96.4881894 40.2849962,93.6268494 43.7668659,93.504103 L44,93.5 L84.5,93.5 C85.0522847,93.5 85.5,93.0522847 85.5,92.5 C85.5,91.9871642 85.1139598,91.5644928 84.6166211,91.5067277 L84.5,91.5 L44,91.5 C40.4101491,91.5 37.5,88.5898509 37.5,85 C37.5,81.4881894 40.2849962,78.6268494 43.7668659,78.504103 L44,78.5 L84,78.5 C84.8284271,78.5 85.5,77.8284271 85.5,77 C85.5,76.2203039 84.9051119,75.5795513 84.14446,75.5068666 L84,75.5 L40,75.5 L40,70.5 L84,70.5 Z M86,29.5 C88.4142733,29.5 90.3844891,31.4012365 90.495102,33.7881643 L90.5,34 L90.5,48 L85.5,48 L85.5,34.5 L42.5,34.5 L42.5,54 L88,54 L88,59 L42,59 C39.5857267,59 37.6155109,57.0987635 37.504898,54.7118357 L37.5,54.5 L37.5,34 C37.5,31.5857267 39.4012365,29.6155109 41.7881643,29.504898 L42,29.5 L86,29.5 Z" id="Shape" fill="#000000" fill-rule="nonzero"></path>
    </g>
</svg>