<?xml version="1.0" encoding="UTF-8"?>
<svg  viewBox="0 0 116 116" version="1.1" xmlns="http://www.w3.org/2000/svg" xmlns:xlink="http://www.w3.org/1999/xlink">
    <title>article</title>
    <g id="article" stroke="none" stroke-width="1" fill="none" fill-rule="evenodd">
        <path d="M74.5,64 C80.2989899,64 85,68.7010101 85,74.5 C85,80.2039245 80.451858,84.8455734 74.7842951,84.9962258 L74.5,85 L42.5,85 C39.4624339,85 37,87.4624339 37,90.5 C37,93.4634791 39.34378,95.8795391 42.2787929,95.9956328 L42.5,96 L74,96 C79.7039245,96 84.3455734,100.548142 84.4962258,106.215705 L84.5,106.5 L79.5,106.5 C79.5,103.536521 77.15622,101.120461 74.2212071,101.004367 L74,101 L42.5,101 C36.7010101,101 32,96.2989899 32,90.5 C32,84.7960755 36.548142,80.1544266 42.2157049,80.0037742 L42.5,80 L74.5,80 C77.5375661,80 80,77.5375661 80,74.5 C80,71.5365209 77.65622,69.1204609 74.7212071,69.0043672 L74.5,69 L34.5,69 L34.5,64 L74.5,64 Z M96,7.5 C98.4142733,7.5 100.384489,9.40123652 100.495102,11.7881643 L100.5,12 L100.5,106 L95.5,106 L95.5,12.5 L20.5,12.5 L20.5,48 L84.465,48 L66.5,30.035 L52.9748737,43.5606602 C51.6568542,44.8786797 49.5491693,44.9257518 48.1747452,43.7018765 L48.0251263,43.5606602 L42.5,38.035 L35.5355339,45 L26.5,45 L26.5,40 L33.464,40 L39.3180195,34.1464466 C41.0204613,32.4440048 43.7476098,32.3908035 45.5140958,33.9868427 L45.6819805,34.1464466 L50.5,38.965 L63.3180195,26.1464466 C65.0204613,24.4440048 67.7476098,24.3908035 69.5140958,25.9868427 L69.6819805,26.1464466 L90.5606602,47.0251263 C91.2170375,47.6815036 91.5857864,48.5717423 91.5857864,49.5 C91.5857864,51.3685634 90.1215088,52.8951264 88.2778216,52.9948211 L88.0857864,53 L20.5,53 L20.5,106 L15.5,106 L15.5,12 C15.5,9.58572667 17.4012365,7.61551091 19.7881643,7.50489799 L20,7.5 L96,7.5 Z M34.5,20 C38.0118106,20 40.8731506,22.7849962 40.995897,26.2668659 L41,26.5 L36,26.5 C36,25.6715729 35.3284271,25 34.5,25 C33.6715729,25 33,25.6715729 33,26.5 C33,27.2796961 33.5948881,27.9204487 34.35554,27.9931334 L34.5,28 L34.5,33 C30.9101491,33 28,30.0898509 28,26.5 C28,22.9101491 30.9101491,20 34.5,20 Z" id="Shape" fill="#000000" fill-rule="nonzero"></path>
    </g>
</svg>