<?xml version="1.0" encoding="UTF-8"?>
<svg  viewBox="0 0 116 116" version="1.1" xmlns="http://www.w3.org/2000/svg" xmlns:xlink="http://www.w3.org/1999/xlink">
    <title>ascending-sort</title>
    <g id="ascending-sort" stroke="none" stroke-width="1" fill="none" fill-rule="evenodd">
        <path d="M13,18.5 L13,26.5 C13,29.4634791 15.34378,31.8795391 18.2787929,31.9956328 L18.5,32 L34.5,32 C40.2989899,32 45,36.7010101 45,42.5 C45,48.2039245 40.451858,52.8455734 34.7842951,52.9962258 L34.5,53 L18.5,53 C15.4624339,53 13,55.4624339 13,58.5 C13,61.4634791 15.34378,63.8795391 18.2787929,63.9956328 L18.5,64 L66.5,64 C72.2989899,64 77,68.7010101 77,74.5 C77,80.2039245 72.451858,84.8455734 66.7842951,84.9962258 L66.5,85 L18.5,85 C15.4624339,85 13,87.4624339 13,90.5 C13,93.4634791 15.34378,95.8795391 18.2787929,95.9956328 L18.5,96 L106.5,96 L106.5,101 L18.5,101 C12.7010101,101 8,96.2989899 8,90.5 C8,84.7960755 12.548142,80.1544266 18.2157049,80.0037742 L18.5,80 L66.5,80 C69.5375661,80 72,77.5375661 72,74.5 C72,71.5365209 69.65622,69.1204609 66.7212071,69.0043672 L66.5,69 L18.5,69 C12.7010101,69 8,64.2989899 8,58.5 C8,52.7960755 12.548142,48.1544266 18.2157049,48.0037742 L18.5,48 L34.5,48 C37.5375661,48 40,45.5375661 40,42.5 C40,39.5365209 37.65622,37.1204609 34.7212071,37.0043672 L34.5,37 L18.5,37 C12.7960755,37 8.15442656,32.451858 8.00377424,26.7842951 L8,26.5 L8,18.5 L13,18.5 Z M93,42.5 L93,74.5 L88,74.5 L88,42.5 L93,42.5 Z M94.1150609,27.4255806 L94.2442263,27.6094004 L108.580126,49.1132495 L104.419874,51.8867505 L90.5,31.007 L76.5801257,51.8867505 L72.4198743,49.1132495 L86.7557737,27.6094004 C87.0853305,27.1150651 87.5095138,26.6908818 88.0038491,26.361325 C90.0090652,25.0245142 92.696979,25.5094347 94.1150609,27.4255806 Z" id="Shape" fill="#000000" fill-rule="nonzero"></path>
    </g>
</svg>