<?xml version="1.0" encoding="UTF-8"?>
<svg   viewBox="0 0 116 116" version="1.1" xmlns="http://www.w3.org/2000/svg" xmlns:xlink="http://www.w3.org/1999/xlink">
    <title>ascending-sort</title>
    <g id="ascending-sort" stroke="none" stroke-width="1" fill="none" fill-rule="evenodd">
        <path d="M13,24 L13,36 L13.0068666,36.14446 C13.0750085,36.8575712 13.6424288,37.4249915 14.35554,37.4931334 L14.5,37.5 L38.5,37.5 L38.7331341,37.504103 C42.2150038,37.6268494 45,40.4881894 45,44 C45,47.5118106 42.2150038,50.3731506 38.7331341,50.495897 L38.5,50.5 L14.5,50.5 L14.35554,50.5068666 C13.5948881,50.5795513 13,51.2203039 13,52 C13,52.7796961 13.5948881,53.4204487 14.35554,53.4931334 L14.5,53.5 L54.5,53.5 L54.7331341,53.504103 C58.2150038,53.6268494 61,56.4881894 61,60 C61,63.5118106 58.2150038,66.3731506 54.7331341,66.495897 L54.5,66.5 L14.5,66.5 L14.35554,66.5068666 C13.5948881,66.5795513 13,67.2203039 13,68 C13,68.7796961 13.5948881,69.4204487 14.35554,69.4931334 L14.5,69.5 L70.5,69.5 L70.7331341,69.504103 C74.2150038,69.6268494 77,72.4881894 77,76 C77,79.5118106 74.2150038,82.3731506 70.7331341,82.495897 L70.5,82.5 L14.5,82.5 L14.35554,82.5068666 C13.5948881,82.5795513 13,83.2203039 13,84 C13,84.7796961 13.5948881,85.4204487 14.35554,85.4931334 L14.5,85.5 L90.5,85.5 L90.5,90.5 L14.5,90.5 L14.2668659,90.495897 C10.7849962,90.3731506 8,87.5118106 8,84 C8,80.4881894 10.7849962,77.6268494 14.2668659,77.504103 L14.5,77.5 L70.5,77.5 L70.64446,77.4931334 C71.4051119,77.4204487 72,76.7796961 72,76 C72,75.2203039 71.4051119,74.5795513 70.64446,74.5068666 L70.5,74.5 L14.5,74.5 L14.2668659,74.495897 C10.7849962,74.3731506 8,71.5118106 8,68 C8,64.4881894 10.7849962,61.6268494 14.2668659,61.504103 L14.5,61.5 L54.5,61.5 L54.64446,61.4931334 C55.4051119,61.4204487 56,60.7796961 56,60 C56,59.2203039 55.4051119,58.5795513 54.64446,58.5068666 L54.5,58.5 L14.5,58.5 L14.2668659,58.495897 C10.7849962,58.3731506 8,55.5118106 8,52 C8,48.4881894 10.7849962,45.6268494 14.2668659,45.504103 L14.5,45.5 L38.5,45.5 L38.64446,45.4931334 C39.4051119,45.4204487 40,44.7796961 40,44 C40,43.2203039 39.4051119,42.5795513 38.64446,42.5068666 L38.5,42.5 L14.5,42.5 L14.2668659,42.495897 C10.8623711,42.3758783 8.12412174,39.6376289 8.00410301,36.2331341 L8,36 L8,24 L13,24 Z M93,42.5 L93,74.5 L88,74.5 L88,42.5 L93,42.5 Z M94.1150609,27.4255806 L94.2442263,27.6094004 L108.580126,49.1132495 L104.419874,51.8867505 L90.5,31.007 L76.5801257,51.8867505 L72.4198743,49.1132495 L86.7557737,27.6094004 C87.0853305,27.1150651 87.5095138,26.6908818 88.0038491,26.361325 C90.0090652,25.0245142 92.696979,25.5094347 94.1150609,27.4255806 Z" id="Shape" fill="#000000" fill-rule="nonzero"></path>
    </g>
</svg>