<?xml version="1.0" encoding="UTF-8"?>
<svg   viewBox="0 0 128 128" version="1.1" xmlns="http://www.w3.org/2000/svg" xmlns:xlink="http://www.w3.org/1999/xlink">
    <title>ascending-sort</title>
    <g id="ascending-sort" stroke="none" stroke-width="1" fill="none" fill-rule="evenodd">
        <path d="M19,30 L19,42 L19.0068666,42.14446 C19.0750085,42.8575712 19.6424288,43.4249915 20.35554,43.4931334 L20.5,43.5 L44.5,43.5 L44.7331341,43.504103 C48.2150038,43.6268494 51,46.4881894 51,50 C51,53.5118106 48.2150038,56.3731506 44.7331341,56.495897 L44.5,56.5 L20.5,56.5 L20.35554,56.5068666 C19.5948881,56.5795513 19,57.2203039 19,58 C19,58.7796961 19.5948881,59.4204487 20.35554,59.4931334 L20.5,59.5 L60.5,59.5 L60.7331341,59.504103 C64.2150038,59.6268494 67,62.4881894 67,66 C67,69.5118106 64.2150038,72.3731506 60.7331341,72.495897 L60.5,72.5 L20.5,72.5 L20.35554,72.5068666 C19.5948881,72.5795513 19,73.2203039 19,74 C19,74.7796961 19.5948881,75.4204487 20.35554,75.4931334 L20.5,75.5 L76.5,75.5 L76.7331341,75.504103 C80.2150038,75.6268494 83,78.4881894 83,82 C83,85.5118106 80.2150038,88.3731506 76.7331341,88.495897 L76.5,88.5 L20.5,88.5 L20.35554,88.5068666 C19.5948881,88.5795513 19,89.2203039 19,90 C19,90.7796961 19.5948881,91.4204487 20.35554,91.4931334 L20.5,91.5 L96.5,91.5 L96.5,96.5 L20.5,96.5 L20.2668659,96.495897 C16.7849962,96.3731506 14,93.5118106 14,90 C14,86.4881894 16.7849962,83.6268494 20.2668659,83.504103 L20.5,83.5 L76.5,83.5 L76.64446,83.4931334 C77.4051119,83.4204487 78,82.7796961 78,82 C78,81.2203039 77.4051119,80.5795513 76.64446,80.5068666 L76.5,80.5 L20.5,80.5 L20.2668659,80.495897 C16.7849962,80.3731506 14,77.5118106 14,74 C14,70.4881894 16.7849962,67.6268494 20.2668659,67.504103 L20.5,67.5 L60.5,67.5 L60.64446,67.4931334 C61.4051119,67.4204487 62,66.7796961 62,66 C62,65.2203039 61.4051119,64.5795513 60.64446,64.5068666 L60.5,64.5 L20.5,64.5 L20.2668659,64.495897 C16.7849962,64.3731506 14,61.5118106 14,58 C14,54.4881894 16.7849962,51.6268494 20.2668659,51.504103 L20.5,51.5 L44.5,51.5 L44.64446,51.4931334 C45.4051119,51.4204487 46,50.7796961 46,50 C46,49.2203039 45.4051119,48.5795513 44.64446,48.5068666 L44.5,48.5 L20.5,48.5 L20.2668659,48.495897 C16.8623711,48.3758783 14.1241217,45.6376289 14.004103,42.2331341 L14,42 L14,30 L19,30 Z M99,48.5 L99,80.5 L94,80.5 L94,48.5 L99,48.5 Z M100.115061,33.4255806 L100.244226,33.6094004 L114.580126,55.1132495 L110.419874,57.8867505 L96.5,37.007 L82.5801257,57.8867505 L78.4198743,55.1132495 L92.7557737,33.6094004 C93.0853305,33.1150651 93.5095138,32.6908818 94.0038491,32.361325 C96.0090652,31.0245142 98.696979,31.5094347 100.115061,33.4255806 Z" id="Shape" fill="#000000" fill-rule="nonzero"></path>
    </g>
</svg>