<?xml version="1.0" encoding="UTF-8"?>
<svg   viewBox="0 0 116 116" version="1.1" xmlns="http://www.w3.org/2000/svg" xmlns:xlink="http://www.w3.org/1999/xlink">
    <title>assignment</title>
    <g id="assignment" stroke="none" stroke-width="1" fill="none" fill-rule="evenodd">
        <path d="M76,28.5 L51,28.5 L51,20.5 C51,16.9101491 53.9101491,14 57.5,14 C61.0118106,14 63.8731506,16.7849962 63.995897,20.2668659 L64,20.5 L59,20.5 C59,19.6715729 58.3284271,19 57.5,19 C56.7203039,19 56.0795513,19.5948881 56.0068666,20.35554 L56,20.5 L56,23.5 L71,23.5 L71,18.5 L70.9956328,18.2787929 C70.8825159,15.4190368 68.5858675,13.1205826 65.7268507,13.0045933 L65.5,13 L49.5,13 L49.2787929,13.0043672 C46.4190368,13.1174841 44.1205826,15.4141325 44.0045933,18.2731493 L44,18.5 L44,23.5 L45.5,23.5 L45.5,28.5 L39,28.5 L39,21 L24.5,21 C22.6314366,21 21.1048736,22.4642776 21.0051789,24.3079648 L21,24.5 L21,100.5 C21,102.368563 22.4642776,103.895126 24.3079648,103.994821 L24.5,104 L91.5,104 C93.3685634,104 94.8951264,102.535722 94.9948211,100.692035 L95,100.5 L95,50.5 L100,50.5 L100,100.5 C100,105.109067 96.331547,108.861321 91.7551603,108.996243 L91.5,109 L24.5,109 C19.8909327,109 16.1386785,105.331547 16.0037566,100.75516 L16,100.5 L16,24.5 C16,19.8909327 19.668453,16.1386785 24.2448397,16.0037566 L24.5,16 L39.2993409,16.0004292 C40.3983206,11.5000461 44.397904,8.13680167 49.2047146,8.00407205 L49.5,8 L65.5,8 L65.7842951,8.00377424 C70.5959987,8.13167654 74.6008419,11.4966167 75.7006591,16.0004292 L91.5,16 C96.1090673,16 99.8613215,19.668453 99.9962434,24.2448397 L100,24.5 L100,27 L95,27 L95,24.5 C95,22.6314366 93.5357224,21.1048736 91.6920352,21.0051789 L91.5,21 L76,21 L76,28.5 Z M95.732233,32.732233 L99.267767,36.267767 L57.5,78.0355339 L39.732233,60.267767 L43.267767,56.732233 L57.5,70.965 L95.732233,32.732233 Z" id="Shape" fill="#000000" fill-rule="nonzero"></path>
    </g>
</svg>