<?xml version="1.0" encoding="UTF-8"?>
<svg width="128px" height="128px" viewBox="0 0 128 128" version="1.1" xmlns="http://www.w3.org/2000/svg" xmlns:xlink="http://www.w3.org/1999/xlink">
    <title>assignment</title>
    <g id="assignment" stroke="none" stroke-width="1" fill="none" fill-rule="evenodd">
        <path d="M82.5,34 L57.5,34 L57.5,26 C57.5,22.4101491 60.4101491,19.5 64,19.5 C67.5118106,19.5 70.3731506,22.2849962 70.495897,25.7668659 L70.5,26 L65.5,26 C65.5,25.1715729 64.8284271,24.5 64,24.5 C63.2203039,24.5 62.5795513,25.0948881 62.5068666,25.85554 L62.5,26 L62.5,29 L77.5,29 L77.5,24 L77.4956328,23.7787929 C77.3825159,20.9190368 75.0858675,18.6205826 72.2268507,18.5045933 L72,18.5 L56,18.5 L55.7787929,18.5043672 C52.9190368,18.6174841 50.6205826,20.9141325 50.5045933,23.7731493 L50.5,24 L50.5,29 L52,29 L52,34 L45.5,34 L45.5,26.5 L31,26.5 C29.1314366,26.5 27.6048736,27.9642776 27.5051789,29.8079648 L27.5,30 L27.5,106 C27.5,107.868563 28.9642776,109.395126 30.8079648,109.494821 L31,109.5 L98,109.5 C99.8685634,109.5 101.395126,108.035722 101.494821,106.192035 L101.5,106 L101.5,56 L106.5,56 L106.5,106 C106.5,110.609067 102.831547,114.361321 98.2551603,114.496243 L98,114.5 L31,114.5 C26.3909327,114.5 22.6386785,110.831547 22.5037566,106.25516 L22.5,106 L22.5,30 C22.5,25.3909327 26.168453,21.6386785 30.7448397,21.5037566 L31,21.5 L45.7993409,21.5004292 C46.8983206,17.0000461 50.897904,13.6368017 55.7047146,13.504072 L56,13.5 L72,13.5 L72.2842951,13.5037742 C77.0959987,13.6316765 81.1008419,16.9966167 82.2006591,21.5004292 L98,21.5 C102.609067,21.5 106.361321,25.168453 106.496243,29.7448397 L106.5,30 L106.5,32.5 L101.5,32.5 L101.5,30 C101.5,28.1314366 100.035722,26.6048736 98.1920352,26.5051789 L98,26.5 L82.5,26.5 L82.5,34 Z M102.232233,38.232233 L105.767767,41.767767 L64,83.5355339 L46.232233,65.767767 L49.767767,62.232233 L64,76.465 L102.232233,38.232233 Z" id="Shape" fill="#000000" fill-rule="nonzero"></path>
    </g>
</svg>