<?xml version="1.0" encoding="UTF-8"?>
<svg  viewBox="0 0 116 116" version="1.1" xmlns="http://www.w3.org/2000/svg" xmlns:xlink="http://www.w3.org/1999/xlink">
    <title>backward-step</title>
    <g id="backward-step" stroke="none" stroke-width="1" fill="none" fill-rule="evenodd">
        <path d="M61,28.7338096 C61,30.6668062 59.4329966,32.2338096 57.5,32.2338096 C56.9449404,32.2338096 56.399012,32.101814 55.906796,31.8501711 L55.6992649,31.7350349 L40.0720704,22.3587182 C37.9409592,21.0800514 37.2499164,18.3158803 38.5285831,16.1847691 C38.861104,15.6305675 39.3085194,15.1554421 39.8394882,14.7907338 L40.0720704,14.6412818 L57.2137606,4.35626769 L59.7862394,8.64373231 L43.358,18.499 L56,26.084 L56,16 L90.5,16 C96.2039245,16 100.845573,20.548142 100.996226,26.2157049 L101,26.5 L101,90.5 C101,96.2039245 96.451858,100.845573 90.7842951,100.996226 L90.5,101 L26.5,101 C20.7960755,101 16.1544266,96.451858 16.0037742,90.7842951 L16,90.5 L16,26.5 C16,20.7960755 20.548142,16.1544266 26.2157049,16.0037742 L26.5,16 L26.5,21 C23.5365209,21 21.1204609,23.34378 21.0043672,26.2787929 L21,26.5 L21,90.5 C21,93.4634791 23.34378,95.8795391 26.2787929,95.9956328 L26.5,96 L90.5,96 C93.4634791,96 95.8795391,93.65622 95.9956328,90.7212071 L96,90.5 L96,26.5 C96,23.5365209 93.65622,21.1204609 90.7212071,21.0043672 L90.5,21 L61,21 L61,28.7338096 Z" id="Path-175" fill="#000000" fill-rule="nonzero"></path>
    </g>
</svg>