<?xml version="1.0" encoding="UTF-8"?>
<svg  viewBox="0 0 116 116" version="1.1" xmlns="http://www.w3.org/2000/svg" xmlns:xlink="http://www.w3.org/1999/xlink">
    <title>ballot-box</title>
    <g id="ballot-box" stroke="none" stroke-width="1" fill="none" fill-rule="evenodd">
        <path d="M72.5,5.281467 C74.9142733,5.281467 76.8844891,7.18270352 76.995102,9.5696313 L77,9.781467 L77,32.954467 L104.040325,46.4750776 C104.911199,46.9105143 105.61735,47.6166655 106.052786,48.4875388 C107.130558,50.6430814 106.315987,53.2500917 104.238747,54.4195544 L104.040325,54.5249224 L64.0403252,74.5249224 C62.2486789,75.4207455 61.0915547,77.2159687 61.0051955,79.204736 L61,79.4442719 L61,105.600557 C61,105.679581 61.0187311,105.757481 61.0546574,105.827867 C61.1662485,106.046494 61.4165987,106.147915 61.6435971,106.079583 L61.7273103,106.045899 L101.000413,86.000253 C102.770491,85.0967758 103.90986,83.3124536 103.994885,81.3391443 L104,81.1014844 L104,58.5 L109,58.5 L109,81.1014844 C109,84.9433853 106.902818,88.4694963 103.548247,90.3083105 L103.273516,90.453679 L64.0004132,110.499325 C61.2948979,111.880265 57.9821714,110.806485 56.6012314,108.10097 C56.2499523,107.41275 56.0481223,106.659229 56.007608,105.889759 L56,105.600557 L56,79.4442719 C56,75.571826 58.1303166,72.0229949 61.5261622,70.1970342 L61.8042572,70.0527864 L100.909,50.499 L77,38.544467 L77,44.045085 L43.618034,60.736068 L41.381966,56.263932 L72,40.954 L72,10.601 L45.8125663,24.1047293 C45.3551311,24.3405943 45.0535457,24.7925269 45.0064581,25.2986719 L45,25.437934 L45,50.5 L40,50.5 L40,38.544467 L16.086,50.502 L51.5330351,68.2631184 L49.293233,72.7333854 L13,54.549 L13,81.5557281 C13,83.5588496 14.0882147,85.3966611 15.8284013,86.3633069 L16.0403252,86.4750776 L51.7249755,104.317403 L49.4889075,108.789539 L13.8042572,90.9472136 C10.3406363,89.2154031 8.11917182,85.7229045 8.00465126,81.8689734 L8,81.5557281 L8,53.7390917 C8,53.039219 8.16324451,52.3489933 8.47675978,51.7232697 C8.91533554,50.8479465 9.60073395,50.1779719 10.4062667,49.7554578 L10.543,49.687 L10.5627963,49.5841228 C10.8201427,48.3528061 11.5890738,47.2401343 12.7575216,46.5823115 L12.9559429,46.4769436 L40,32.954467 L40,25.437934 C40,23.0918671 41.2633827,20.9352047 43.2925334,19.7843998 L43.5211206,19.6607134 L70.4376989,5.78185275 C71.0754107,5.45303259 71.782505,5.281467 72.5,5.281467 Z" id="Path" fill="#000000" fill-rule="nonzero"></path>
    </g>
</svg>