<?xml version="1.0" encoding="UTF-8"?>
<svg  viewBox="0 0 116 116" version="1.1" xmlns="http://www.w3.org/2000/svg" xmlns:xlink="http://www.w3.org/1999/xlink">
    <title>bandage</title>
    <g id="bandage" stroke="none" stroke-width="1" fill="none" fill-rule="evenodd">
        <path d="M47.3151707,19.7848467 L47.5814755,20.0459415 L52.267767,24.732233 L48.732233,28.267767 L44.0459415,23.5814755 C38.8562398,18.3917737 30.4924531,18.3106846 25.2035613,23.3382082 L24.9540585,23.5814755 L23.5814755,24.9540585 C18.3917737,30.1437602 18.3106846,38.5075469 23.3382082,43.7964387 L23.5814755,44.0459415 L34.5,54.964 L69.4185245,20.0459415 C76.5551179,12.9093482 88.0717472,12.8223166 95.3151707,19.7848467 L95.5814755,20.0459415 L96.9540585,21.4185245 C104.090652,28.5551179 104.177683,40.0717472 97.2151533,47.3151707 L96.9540585,47.5814755 L86.035417,58.499417 L96.9540585,69.4185245 C104.090652,76.5551179 104.177683,88.0717472 97.2151533,95.3151707 L96.9540585,95.5814755 L95.5814755,96.9540585 C88.4448821,104.090652 76.9282528,104.177683 69.6848293,97.2151533 L69.4185245,96.9540585 L64.732233,92.267767 L68.267767,88.732233 L72.9540585,93.4185245 C78.1437602,98.6082263 86.5075469,98.6893154 91.7964387,93.6617918 L92.0459415,93.4185245 L93.4185245,92.0459415 C98.6082263,86.8562398 98.6893154,78.4924531 93.6617918,73.2035613 L93.4185245,72.9540585 L82.499417,62.035417 L47.5814755,96.9540585 C40.4448821,104.090652 28.9282528,104.177683 21.6848293,97.2151533 L21.4185245,96.9540585 L20.0216556,95.5540938 C12.9956875,88.3085642 13.0858241,76.7919587 20.1589544,69.6564955 L20.4241149,69.3942386 L25.2596354,64.705249 L28.7403646,68.294751 L23.9048441,72.9837406 C18.6359243,78.0929961 18.4261864,86.4545458 23.3717571,91.8201492 L23.7568713,92.2213374 L24.9540585,93.4185245 C30.1437602,98.6082263 38.5075469,98.6893154 43.7964387,93.6617918 L44.0459415,93.4185245 L93.4185245,44.0459415 C98.6082263,38.8562398 98.6893154,30.4924531 93.6617918,25.2035613 L93.4185245,24.9540585 L92.0459415,23.5814755 C86.8562398,18.3917737 78.4924531,18.3106846 73.2035613,23.3382082 L72.9540585,23.5814755 L34.5,62.0355339 L20.0459415,47.5814755 C12.9093482,40.4448821 12.8223166,28.9282528 19.7848467,21.6848293 L20.0459415,21.4185245 L21.4185245,20.0459415 C28.5551179,12.9093482 40.0717472,12.8223166 47.3151707,19.7848467 Z M48.5,54 C52.0118106,54 54.8731506,56.7849962 54.995897,60.2668659 L55,60.5 L55,68.5 C55,69.3284271 55.6715729,70 56.5,70 C57.3284271,70 58,69.3284271 58,68.5 C58,67.7203039 57.4051119,67.0795513 56.64446,67.0068666 L56.5,67 L56.5,62 C60.0898509,62 63,64.9101491 63,68.5 C63,72.0898509 60.0898509,75 56.5,75 C52.9881894,75 50.1268494,72.2150038 50.004103,68.7331341 L50,68.5 L50,60.5 C50,59.6715729 49.3284271,59 48.5,59 C47.6715729,59 47,59.6715729 47,60.5 C47,61.2796961 47.5948881,61.9204487 48.35554,61.9931334 L48.5,62 L48.5,67 C44.9101491,67 42,64.0898509 42,60.5 C42,56.9101491 44.9101491,54 48.5,54 Z M60.5,42 C64.0118106,42 66.8731506,44.7849962 66.995897,48.2668659 L67,48.5 L67,56.5 C67,57.3284271 67.6715729,58 68.5,58 C69.3284271,58 70,57.3284271 70,56.5 C70,55.7203039 69.4051119,55.0795513 68.64446,55.0068666 L68.5,55 L68.5,50 C72.0898509,50 75,52.9101491 75,56.5 C75,60.0898509 72.0898509,63 68.5,63 C64.9881894,63 62.1268494,60.2150038 62.004103,56.7331341 L62,56.5 L62,48.5 C62,47.6715729 61.3284271,47 60.5,47 C59.6715729,47 59,47.6715729 59,48.5 C59,49.2796961 59.5948881,49.9204487 60.35554,49.9931334 L60.5,50 L60.5,55 C56.9101491,55 54,52.0898509 54,48.5 C54,44.9101491 56.9101491,42 60.5,42 Z" id="Shape" fill="#000000" fill-rule="nonzero"></path>
    </g>
</svg>