<?xml version="1.0" encoding="UTF-8"?>
<svg  viewBox="0 0 116 116" version="1.1" xmlns="http://www.w3.org/2000/svg" xmlns:xlink="http://www.w3.org/1999/xlink">
    <title>bandage</title>
    <g id="bandage" stroke="none" stroke-width="1" fill="none" fill-rule="evenodd">
        <path d="M98.267767,18.732233 C107.982505,28.4469711 108.079652,44.1373139 98.5592091,53.9715641 L98.267767,54.267767 L54.267767,98.267767 C44.4549002,108.080634 28.5450998,108.080634 18.732233,98.267767 C9.01749499,88.5530289 8.92034761,72.8626861 18.4407909,63.0284359 L18.732233,62.732233 L24.732233,56.732233 L28.267767,60.267767 L22.267767,66.267767 C14.4075217,74.1280122 14.4075217,86.8719878 22.267767,94.732233 C30.0376646,102.502131 42.5796681,102.59144 50.4592693,95.0001606 L50.732233,94.732233 L94.732233,50.732233 C102.592478,42.8719878 102.592478,30.1280122 94.732233,22.267767 C86.9623354,14.4978693 74.4203319,14.4085602 66.5407307,21.9998394 L66.267767,22.267767 L34.3890873,54.1464466 C34.2155209,54.320013 34.1962358,54.5894374 34.3312318,54.7843055 L34.3890873,54.8535534 L38.948,59.412 L39.0441106,59.1864145 C39.4035798,58.3771035 39.9013063,57.6143228 40.5372902,56.9338649 L40.732233,56.732233 C43.9176828,53.5467833 49.0823172,53.5467833 52.267767,56.732233 C55.4532167,59.9176828 55.4532167,65.0823172 52.267767,68.267767 C51.0349387,69.5005952 51.0349387,71.4994048 52.267767,72.732233 C53.5005952,73.9650613 55.4994048,73.9650613 56.732233,72.732233 C57.9176448,71.5468212 57.9632376,69.6532167 56.8690113,68.4133285 L56.732233,68.267767 L60.267767,64.732233 C63.4532167,67.9176828 63.4532167,73.0823172 60.267767,76.267767 C57.0823172,79.4532167 51.9176828,79.4532167 48.732233,76.267767 C45.5467833,73.0823172 45.5467833,67.9176828 48.732233,64.732233 C49.9650613,63.4994048 49.9650613,61.5005952 48.732233,60.267767 C47.4994048,59.0349387 45.5005952,59.0349387 44.267767,60.267767 C43.0823552,61.4531788 43.0367624,63.3467833 44.1309887,64.5866715 L44.267767,64.732233 L40.732233,68.267767 L30.8535534,58.3890873 C28.7653332,56.3008671 28.7073271,52.9512337 30.679535,50.792935 L30.8535534,50.6109127 L62.732233,18.732233 C72.5450998,8.91936632 88.4549002,8.91936632 98.267767,18.732233 Z M68.0661351,40.5372902 L68.267767,40.732233 L64.732233,44.267767 C63.4994048,43.0349387 61.5005952,43.0349387 60.267767,44.267767 C59.0349387,45.5005952 59.0349387,47.4994048 60.267767,48.732233 C61.5005952,49.9650613 63.4994048,49.9650613 64.732233,48.732233 C67.9176828,45.5467833 73.0823172,45.5467833 76.267767,48.732233 C79.4532167,51.9176828 79.4532167,57.0823172 76.267767,60.267767 C73.1486808,63.3868531 68.1320169,63.4518341 64.9338649,60.4627098 L64.732233,60.267767 L68.267767,56.732233 C69.5005952,57.9650613 71.4994048,57.9650613 72.732233,56.732233 C73.9650613,55.4994048 73.9650613,53.5005952 72.732233,52.267767 C71.4994048,51.0349387 69.5005952,51.0349387 68.267767,52.267767 C65.0823172,55.4532167 59.9176828,55.4532167 56.732233,52.267767 C53.5467833,49.0823172 53.5467833,43.9176828 56.732233,40.732233 C59.8513192,37.6131469 64.8679831,37.5481659 68.0661351,40.5372902 Z" id="Shape" fill="#000000" fill-rule="nonzero"></path>
    </g>
</svg>