<?xml version="1.0" encoding="UTF-8"?>
<svg  viewBox="0 0 116 116" version="1.1" xmlns="http://www.w3.org/2000/svg" xmlns:xlink="http://www.w3.org/1999/xlink">
    <title>bar-chart</title>
    <g id="bar-chart" stroke="none" stroke-width="1" fill="none" fill-rule="evenodd">
        <path d="M107,104 L107,109 L10.5,109 L10.5,104 L107,104 Z M75.5,8 C78.4634791,8 80.8795391,10.34378 80.9956328,13.2787929 L81,13.5 L81,94.5 C81,95.3284271 81.6715729,96 82.5,96 C83.2796961,96 83.9204487,95.4051119 83.9931334,94.64446 L84,94.5 L84,61.5 C84,58.5365209 86.34378,56.1204609 89.2787929,56.0043672 L89.5,56 L99.5,56 C102.463479,56 104.879539,58.34378 104.995633,61.2787929 L105,61.5 L105,98.5 L100,98.5 L100,61.5 C100,61.2545401 99.8231248,61.0503916 99.5898756,61.0080557 L99.5,61 L89.5,61 C89.2545401,61 89.0503916,61.1768752 89.0080557,61.4101244 L89,61.5 L89,94.5 C89,98.0898509 86.0898509,101 82.5,101 C78.9881894,101 76.1268494,98.2150038 76.004103,94.7331341 L76,94.5 L76,13.5 C76,13.2545401 75.8231248,13.0503916 75.5898756,13.0080557 L75.5,13 L65.5,13 C65.2545401,13 65.0503916,13.1768752 65.0080557,13.4101244 L65,13.5 L65,94.5 C65,98.0898509 62.0898509,101 58.5,101 C54.9881894,101 52.1268494,98.2150038 52.004103,94.7331341 L52,94.5 L52,29.5 C52,29.2545401 51.8231248,29.0503916 51.5898756,29.0080557 L51.5,29 L41.5,29 C41.2545401,29 41.0503916,29.1768752 41.0080557,29.4101244 L41,29.5 L41,94.5 C41,98.0898509 38.0898509,101 34.5,101 C30.9881894,101 28.1268494,98.2150038 28.004103,94.7331341 L28,94.5 L28,61.5 C28,61.2545401 27.8231248,61.0503916 27.5898756,61.0080557 L27.5,61 L17.5,61 C17.2545401,61 17.0503916,61.1768752 17.0080557,61.4101244 L17,61.5 L17,98.5 L12,98.5 L12,61.5 C12,58.5365209 14.34378,56.1204609 17.2787929,56.0043672 L17.5,56 L27.5,56 C30.4634791,56 32.8795391,58.34378 32.9956328,61.2787929 L33,61.5 L33,94.5 C33,95.3284271 33.6715729,96 34.5,96 C35.2796961,96 35.9204487,95.4051119 35.9931334,94.64446 L36,94.5 L36,29.5 C36,26.5365209 38.34378,24.1204609 41.2787929,24.0043672 L41.5,24 L51.5,24 C54.4634791,24 56.8795391,26.34378 56.9956328,29.2787929 L57,29.5 L57,94.5 C57,95.3284271 57.6715729,96 58.5,96 C59.2796961,96 59.9204487,95.4051119 59.9931334,94.64446 L60,94.5 L60,13.5 C60,10.5365209 62.34378,8.12046086 65.2787929,8.0043672 L65.5,8 L75.5,8 Z" id="Shape" fill="#000000" fill-rule="nonzero"></path>
    </g>
</svg>