<?xml version="1.0" encoding="UTF-8"?>
<svg  viewBox="0 0 116 116" version="1.1" xmlns="http://www.w3.org/2000/svg" xmlns:xlink="http://www.w3.org/1999/xlink">
    <title>barcode</title>
    <g id="barcode" stroke="none" stroke-width="1" fill="none" fill-rule="evenodd" transform="translate(0.000000, 0.000000)">
        <path d="M106.5,96 L106.5,101 L10.5,101 L10.5,96 L106.5,96 Z M19.5,32 C22.4634791,32 24.8795391,34.34378 24.9956328,37.2787929 L25,37.5 L25,82.5 L20,82.5 L20,37.5 C20,37.2545401 19.8231248,37.0503916 19.5898756,37.0080557 L19.5,37 L13.5,37 C13.2545401,37 13.0503916,37.1768752 13.0080557,37.4101244 L13,37.5 L13,79.5 C13,79.7454599 13.1768752,79.9496084 13.4101244,79.9919443 L13.5,80 L16.5,80 L16.5,85 L13.5,85 C10.5365209,85 8.12046086,82.65622 8.0043672,79.7212071 L8,79.5 L8,37.5 C8,34.5365209 10.34378,32.1204609 13.2787929,32.0043672 L13.5,32 L19.5,32 Z M59.5,32 C62.4634791,32 64.8795391,34.34378 64.9956328,37.2787929 L65,37.5 L65,79.5 C65,79.7454599 65.1768752,79.9496084 65.4101244,79.9919443 L65.5,80 L71.5,80 C71.7454599,80 71.9496084,79.8231248 71.9919443,79.5898756 L72,79.5 L72,37.5 C72,34.5365209 74.34378,32.1204609 77.2787929,32.0043672 L77.5,32 L91.5,32 C94.4634791,32 96.8795391,34.34378 96.9956328,37.2787929 L97,37.5 L97,82.5 L92,82.5 L92,37.5 C92,37.2545401 91.8231248,37.0503916 91.5898756,37.0080557 L91.5,37 L77.5,37 C77.2545401,37 77.0503916,37.1768752 77.0080557,37.4101244 L77,37.5 L77,79.5 C77,82.4634791 74.65622,84.8795391 71.7212071,84.9956328 L71.5,85 L65.5,85 C62.5365209,85 60.1204609,82.65622 60.0043672,79.7212071 L60,79.5 L60,37.5 C60,37.2545401 59.8231248,37.0503916 59.5898756,37.0080557 L59.5,37 L49.5,37 C49.2545401,37 49.0503916,37.1768752 49.0080557,37.4101244 L49,37.5 L49,79.5 C49,79.7454599 49.1768752,79.9496084 49.4101244,79.9919443 L49.5,80 L54.5,80 L54.5,85 L49.5,85 C46.5365209,85 44.1204609,82.65622 44.0043672,79.7212071 L44,79.5 L44,37.5 C44,34.5365209 46.34378,32.1204609 49.2787929,32.0043672 L49.5,32 L59.5,32 Z M37,34.5 L37,82.5 L32,82.5 L32,34.5 L37,34.5 Z M109,34.5 L109,82.5 L104,82.5 L104,34.5 L109,34.5 Z M106.5,16 L106.5,21 L10.5,21 L10.5,16 L106.5,16 Z" id="Shape" fill="#000000" fill-rule="nonzero"></path>
    </g>
</svg>