<?xml version="1.0" encoding="UTF-8"?>
<svg  viewBox="0 0 117 116" version="1.1" xmlns="http://www.w3.org/2000/svg" xmlns:xlink="http://www.w3.org/1999/xlink">
    <title>bell</title>
    <g id="bell" stroke="none" stroke-width="1" fill="none" fill-rule="evenodd" transform="translate(0.000000, 0.000000)">
        <path d="M58.5,97 L49.511,97 L49.5466811,97.1338553 C50.8188217,101.773621 53.6077903,103.910214 58.2041575,103.997225 L58.5,104 C64.0683175,104 67.0619904,101.104017 67.9725171,94.5448081 L68.0193053,94.1899132 L68.2930445,92 L96,92 L96,86.5 C96,83.5365209 93.65622,81.1204609 90.7212071,81.0043672 L90.5,81 L88,81 L88,54 C88,37.8705239 75.0552314,24.7644605 58.9878364,24.5039522 L58.5,24.5 L48,24.5 L48,18.5 C48,12.7010101 52.7010101,8 58.5,8 C64.2039245,8 68.8455734,12.548142 68.9962258,18.2157049 L69,18.5 L64,18.5 C64,15.4624339 61.5375661,13 58.5,13 C55.5365209,13 53.1204609,15.34378 53.0043672,18.2787929 L53,18.5 L53,19.5 L58.5,19.5 C77.3632856,19.5 92.6907157,34.6387972 92.995378,53.4294794 L93,54 L93,76.299 L93.2475656,76.3631381 C97.6263909,77.5471424 100.870682,81.4927358 100.996226,86.2157049 L101,86.5 L101,97 L72.617,97 L72.5870189,97.1443667 C70.9505023,104.719521 66.2519245,108.865004 58.8654354,108.996759 L58.5,109 C50.9029501,109 46.0763259,104.843704 44.4129811,97.1443667 L44.382,97 L16,97 L16,86.5 C16,81.6516642 19.2860326,77.5708224 23.7524344,76.3631381 L24,76.299 L24,54 C24,41.6939805 30.4993283,30.5181437 40.8605667,24.3445905 L41.2715628,24.1035046 L43.7718011,28.4334939 C34.8366178,33.5928803 29.1684706,43.0532483 29.0036928,53.5302137 L29,54 L29,81 L26.5,81 C23.5365209,81 21.1204609,83.34378 21.0043672,86.2787929 L21,86.5 L21,92 L58.5,92 L58.5,97 Z" id="Path-233" fill="#000000" fill-rule="nonzero"></path>
    </g>
</svg>