<?xml version="1.0" encoding="UTF-8"?>
<svg  viewBox="0 0 116 116" version="1.1" xmlns="http://www.w3.org/2000/svg" xmlns:xlink="http://www.w3.org/1999/xlink">
    <title>bicycle</title>
    <g id="bicycle" stroke="none" stroke-width="1" fill="none" fill-rule="evenodd">
        <path d="M28.5,48 C40.9264069,48 51,58.0735931 51,70.5 C51,82.9264069 40.9264069,93 28.5,93 C21.2638795,93 14.6015951,89.5566921 10.3925308,83.8577403 L10.1477825,83.5199151 L14.2235663,80.6237131 C17.4882288,85.218026 22.7585019,88 28.5,88 C38.1649831,88 46,80.1649831 46,70.5 C46,60.8350169 38.1649831,53 28.5,53 C20.14709,53 13.0036505,58.8978891 11.3539951,66.9782243 L11.3017557,67.2624505 C11.2930996,67.3143649 11.2844808,67.3685259 11.275917,67.4248953 C11.234442,67.6979097 11.4221387,67.9528524 11.6951448,67.9943281 L11.7702424,68 L28.5,68 L28.5,73 L11.7702424,73 C11.4937021,73 11.2175556,72.9791433 10.9441523,72.9376074 C7.94105679,72.4813713 5.87641702,69.6770335 6.33263518,66.6739194 C6.37046971,66.4248801 6.4111133,66.1932664 6.45504696,65.9780708 C8.57768268,55.5809852 17.7596643,48 28.5,48 Z M72.6810208,24 C75.9741502,24 78.8705775,26.1460876 79.8422161,29.2711165 L79.9167495,29.5266195 L89.8784499,66.0528543 C90.007075,66.52448 90.0722488,67.0111491 90.0722488,67.5 C90.0722488,70.4634791 87.7284688,72.8795391 84.793456,72.9956328 L84.5722488,73 L71.7720439,73 C71.7471796,73 71.7223498,73.0018546 71.6977614,73.0055485 C71.4246785,73.0465731 71.2365635,73.3012011 71.2775923,73.5742952 L71.3373519,73.9335877 C71.3474053,73.9878217 71.3574894,74.0391983 71.3675802,74.0876676 C73.0432671,82.1365006 80.1718011,88 88.5,88 C98.1649831,88 106,80.1649831 106,70.5 C106,60.9448462 98.3420399,53.1783049 88.8287703,53.0030264 L88.5,53 L88.5,48 C100.926407,48 111,58.0735931 111,70.5 C111,82.9264069 100.926407,93 88.5,93 C77.7914644,93 68.6286496,85.4632247 66.4725381,75.1067666 C66.4221205,74.8645953 66.3758491,74.6018219 66.3330791,74.3171204 C65.8817868,71.3132477 67.9510832,68.5122971 70.9549583,68.061032 C71.1352687,68.0339444 71.3167586,68.0158483 71.4987546,68.0067939 L71.7720439,68 L84.5722488,68 C84.8483912,68 85.0722488,67.7761424 85.0722488,67.5 L85.0678247,67.4336334 L85.0546308,67.3684413 L75.0929303,30.8422065 C74.8119099,29.8117982 73.910473,29.0803494 72.8577882,29.0062091 L72.6810208,29 L58.5,29 L58.5,24 L72.6810208,24 Z M62.5,36 L62.5,41 L55.574,41 L57.032,48 L74.5,48 L74.5,53 L57.996,53 L60.7192912,66.4051704 C60.7741877,66.6754301 60.8086536,66.9493078 60.8224556,67.224481 L60.8293609,67.5 C60.8293609,70.4634791 58.4855809,72.8795391 55.550568,72.9956328 L55.3293609,73 L53,73 L53,68 L55.3293609,68 C55.6055033,68 55.8293609,67.7761424 55.8293609,67.5 L55.826853,67.4499842 L55.8193546,67.40047 L50.457,41 L42,41 L42,36 L62.5,36 Z" id="Shape" fill="#000000" fill-rule="nonzero"></path>
    </g>
</svg>