<?xml version="1.0" encoding="UTF-8"?>
<svg  viewBox="0 0 116 116" version="1.1" xmlns="http://www.w3.org/2000/svg" xmlns:xlink="http://www.w3.org/1999/xlink">
    <title>bluetooth-diamonds</title>
    <g id="bluetooth-diamonds" stroke="none" stroke-width="1" fill="none" fill-rule="evenodd">
        <path d="M64.4059498,60.8704159 L82.1464466,78.6109127 C84.2346668,80.6991329 84.2926729,84.0487663 82.320465,86.207065 L82.1464466,86.3890873 L63.6819805,104.853553 C61.9246212,106.610913 59.0753788,106.610913 57.3180195,104.853553 C56.5303667,104.065901 56.0648577,103.016323 56.0062905,101.909541 L56,101.671573 L56,66.5 L61,66.5 L61,100.464 L78.6109127,82.8535534 C78.7844791,82.679987 78.8037642,82.4105626 78.6687682,82.2156945 L78.6109127,82.1464466 L60.8704159,64.4059498 L64.4059498,60.8704159 Z M60.5,10.8284271 C61.6139093,10.8284271 62.6852372,11.2414259 63.5092633,11.9826255 L63.6819805,12.1464466 L82.1464466,30.6109127 C84.2346668,32.6991329 84.2926729,36.0487663 82.320465,38.207065 L82.1464466,38.3890873 L26.267767,94.267767 L22.732233,90.732233 L78.6109127,34.8535534 C78.7844791,34.679987 78.8037642,34.4105626 78.6687682,34.2156945 L78.6109127,34.1464466 L61,16.535 L61,50.5 L56,50.5 L56,15.3284271 C56,12.8431458 58.0147186,10.8284271 60.5,10.8284271 Z M94.207065,46.679535 L94.3890873,46.8535534 L102.146447,54.6109127 C104.234667,56.6991329 104.292673,60.0487663 102.320465,62.207065 L102.146447,62.3890873 L94.3890873,70.1464466 C92.3008671,72.2346668 88.9512337,72.2926729 86.792935,70.320465 L86.6109127,70.1464466 L80.732233,64.267767 L84.267767,60.732233 L90.1464466,66.6109127 C90.320013,66.7844791 90.5894374,66.8037642 90.7843055,66.6687682 L90.8535534,66.6109127 L98.6109127,58.8535534 C98.7844791,58.679987 98.8037642,58.4105626 98.6687682,58.2156945 L98.6109127,58.1464466 L90.8535534,50.3890873 C90.679987,50.2155209 90.4105626,50.1962358 90.2156945,50.3312318 L90.1464466,50.3890873 L80.267767,60.267767 L76.732233,56.732233 L86.6109127,46.8535534 C88.6991329,44.7653332 92.0487663,44.7073271 94.207065,46.679535 Z M30.207065,46.679535 L30.3890873,46.8535534 L40.267767,56.732233 L36.732233,60.267767 L26.8535534,50.3890873 C26.679987,50.2155209 26.4105626,50.1962358 26.2156945,50.3312318 L26.1464466,50.3890873 L18.3890873,58.1464466 C18.2155209,58.320013 18.1962358,58.5894374 18.3312318,58.7843055 L18.3890873,58.8535534 L26.1464466,66.6109127 C26.320013,66.7844791 26.5894374,66.8037642 26.7843055,66.6687682 L26.8535534,66.6109127 L32.732233,60.732233 L36.267767,64.267767 L30.3890873,70.1464466 C28.3008671,72.2346668 24.9512337,72.2926729 22.792935,70.320465 L22.6109127,70.1464466 L14.8535534,62.3890873 C12.7653332,60.3008671 12.7073271,56.9512337 14.679535,54.792935 L14.8535534,54.6109127 L22.6109127,46.8535534 C24.6991329,44.7653332 28.0487663,44.7073271 30.207065,46.679535 Z M26.267767,22.732233 L56.2526248,52.7170909 L52.7170909,56.2526248 L22.732233,26.267767 L26.267767,22.732233 Z" id="Shape" fill="#000000" fill-rule="nonzero"></path>
    </g>
</svg>