<?xml version="1.0" encoding="UTF-8"?>
<svg  viewBox="0 0 116 116" version="1.1" xmlns="http://www.w3.org/2000/svg" xmlns:xlink="http://www.w3.org/1999/xlink">
    <title>bluetooth</title>
    <g id="bluetooth" stroke="none" stroke-width="1" fill="none" fill-rule="evenodd">
        <path d="M60.8704159,64.4059498 L64.4059498,60.8704159 L82.1464466,78.6109127 C84.2346668,80.6991329 84.2926729,84.0487663 82.320465,86.207065 L82.1464466,86.3890873 L63.6819805,104.853553 C61.9246212,106.610913 59.0753788,106.610913 57.3180195,104.853553 C56.5303667,104.065901 56.0648577,103.016323 56.0062905,101.909541 L56,101.671573 L56,66.5 L61,66.5 L61,100.464 L78.6109127,82.8535534 C78.7844791,82.679987 78.8037642,82.4105626 78.6687682,82.2156945 L78.6109127,82.1464466 L60.8704159,64.4059498 Z M60.5,10.8284271 C61.6139093,10.8284271 62.6852372,11.2414259 63.5092633,11.9826255 L63.6819805,12.1464466 L82.1464466,30.6109127 C84.2346668,32.6991329 84.2926729,36.0487663 82.320465,38.207065 L82.1464466,38.3890873 L26.267767,94.267767 L22.732233,90.732233 L78.6109127,34.8535534 C78.7844791,34.679987 78.8037642,34.4105626 78.6687682,34.2156945 L78.6109127,34.1464466 L61,16.535 L61,50.5 L56,50.5 L56,15.3284271 C56,12.8431458 58.0147186,10.8284271 60.5,10.8284271 Z M22.732233,26.267767 L26.267767,22.732233 L56.2526248,52.7170909 L52.7170909,56.2526248 L22.732233,26.267767 Z" id="Shape" fill="#000000" fill-rule="nonzero"></path>
    </g>
</svg>