<?xml version="1.0" encoding="UTF-8"?>
<svg  viewBox="0 0 116 116" version="1.1" xmlns="http://www.w3.org/2000/svg" xmlns:xlink="http://www.w3.org/1999/xlink">
    <title>bluetooth-off</title>
    <g id="bluetooth-off" stroke="none" stroke-width="1" fill="none" fill-rule="evenodd">
        <path d="M108.267767,104.732233 L104.732233,108.267767 L8.73223305,12.267767 L12.267767,8.73223305 L108.267767,104.732233 Z M61,70 L61,100.463 L75.7906801,85.673786 L79.326214,89.2093199 L63.6819805,104.853553 C61.9246212,106.610913 59.0753788,106.610913 57.3180195,104.853553 C56.5303667,104.065901 56.0648577,103.016323 56.0062905,101.909541 L56,101.671573 L56,70 L61,70 Z M49.6847463,63.7797198 L53.2202802,67.3152537 L26.267767,94.267767 L22.732233,90.732233 L49.6847463,63.7797198 Z M60.5,10.8284271 C61.6139093,10.8284271 62.6852372,11.2414259 63.5092633,11.9826255 L63.6819805,12.1464466 L82.1464466,30.6109127 C84.2943302,32.7587963 84.2943302,36.2412037 82.1464466,38.3890873 L67.3271456,53.2083883 L63.7916117,49.6728544 L78.6109127,34.8535534 C78.7844791,34.679987 78.8037642,34.4105626 78.6687682,34.2156945 L78.6109127,34.1464466 L61,16.535 L61,46.5 L56,46.5 L56,15.3284271 C56,12.8431458 58.0147186,10.8284271 60.5,10.8284271 Z" id="Shape" fill="#000000" fill-rule="nonzero"></path>
    </g>
</svg>