<?xml version="1.0" encoding="UTF-8"?>
<svg  viewBox="0 0 117 116" version="1.1" xmlns="http://www.w3.org/2000/svg" xmlns:xlink="http://www.w3.org/1999/xlink">
    <title>blur</title>
    <g id="blur" stroke="none" stroke-width="1" fill="none" fill-rule="evenodd" transform="translate(0.000000, 0.000000)">
        <path d="M56,10.5 L61,10.5 L61,95.917 L61.5755831,95.8756886 C80.6447733,94.327732 95.6805464,78.5132374 95.9949761,59.1201311 L96,58.5 C96,40.8127572 83.6600351,25.6541892 66.6501973,21.8875867 L66.1333262,21.7769434 L67.1455096,16.8804666 C86.7326259,20.9294505 101,38.2511735 101,58.5 C101,81.0332178 83.4638891,99.4706574 61.2943867,100.909599 L61,100.926 L61,106.5 L56,106.5 L56,20.371 L55.8229213,20.2854559 C55.3570809,20.0515092 54.8778669,19.7622518 54.3799642,19.4208597 L54.0789375,19.2097936 C53.7927212,19.0047885 53.4661358,18.8630499 53.120887,18.7940001 C51.8309993,18.5360226 50.5748028,19.3287708 50.2386188,20.5813639 L50.2014517,20.7402903 C49.969604,21.899529 49.490693,22.9952005 48.7973234,23.9527109 C46.1851979,27.5599318 41.1920145,28.4226268 37.5289571,25.9470064 L37.2837255,25.7748553 C37.1080536,25.6476447 36.8848491,25.6052903 36.6747885,25.6593058 C36.3174577,25.7511909 36.090426,26.0926626 36.1322779,26.4491936 L36.1504627,26.5466264 L36.1712323,26.6273974 C36.5005299,27.9079991 36.5005299,29.2510918 36.1712323,30.5316935 C35.0930907,34.7244664 30.8201703,37.2493739 26.6273974,36.1712323 C26.3895895,36.1100817 26.1369334,36.1559316 25.9357758,36.296742 C25.5870273,36.5408659 25.4802179,37.001776 25.6699701,37.3699446 L25.7291145,37.4678223 L25.9793409,37.8252886 C26.6933881,38.845356 27.1572291,40.0192149 27.3333201,41.2518515 C27.952778,45.5880569 24.9397588,49.6054158 20.6035534,50.2248737 C20.3836856,50.2562834 20.1886146,50.3824387 20.0697795,50.570073 C19.864225,50.8946327 19.9355289,51.3156099 20.2215606,51.5562417 L20.3048464,51.6171892 L20.4484811,51.7081579 C21.4884859,52.3668276 22.359996,53.2596428 22.9933601,54.3152496 C25.2360123,58.0530033 24.023993,62.9010801 20.2862394,65.1437323 C20.0732911,65.2715013 19.9241217,65.4831734 19.8754186,65.7266891 C19.787293,66.1673167 20.0442921,66.5968779 20.4597978,66.7354462 L20.5668685,66.7638639 L20.7402903,66.7985483 C21.899529,67.030396 22.9952005,67.509307 23.9527109,68.2026766 C27.5599318,70.8148021 28.4226268,75.8079855 25.9470064,79.4710429 L25.7748553,79.7162745 C25.6476447,79.8919464 25.6052903,80.1151509 25.6593058,80.3252115 C25.7511909,80.6825423 26.0926626,80.909574 26.4491936,80.8677221 L26.5466264,80.8495373 L26.6273974,80.8287677 C27.9079991,80.4994701 29.2510918,80.4994701 30.5316935,80.8287677 C34.6438361,81.8861758 37.1516453,86.0166681 36.2294491,90.1306462 L36.1504627,90.4533736 C36.0964471,90.6634342 36.1388015,90.8866387 36.2660121,91.0623106 C36.4806197,91.3586735 36.8766963,91.4458662 37.1918646,91.2819085 L37.2837255,91.2251447 L37.3063818,91.2087384 C38.2638922,90.5153688 39.3595637,90.0364578 40.5188024,89.8046101 C44.8925943,88.9298517 49.1495887,91.6976514 50.1484152,96.013762 L50.2014517,96.2597097 L45.2985483,97.2402903 C44.9488448,95.4917728 43.2479006,94.35781 41.499383,94.7075135 C41.1203426,94.7833216 40.7586227,94.926449 40.4311612,95.1294923 L40.2162745,95.2748553 C37.6536819,97.1305258 34.071972,96.5574522 32.2163015,93.9948596 C31.2718865,92.6906675 30.9224476,91.0531956 31.2442297,89.4842483 L31.307998,89.2081684 L31.3287677,89.1273974 C31.7192014,87.6090439 30.8048418,86.0616661 29.2864883,85.6712323 C28.8889867,85.5690176 28.4748589,85.5544155 28.072607,85.627426 L27.8726026,85.6712323 L27.7918316,85.692002 C24.7275969,86.4799481 21.6047873,84.6346515 20.8168412,81.5704167 C20.4158281,80.0109215 20.690521,78.3592661 21.564675,77.0172549 L21.741551,76.7610692 C22.787383,75.3168249 22.4644061,73.2982192 21.0201619,72.2523872 C20.7070812,72.0256736 20.3563547,71.8573953 19.98492,71.7549556 L19.7597097,71.7014517 L19.5862878,71.6667673 C16.4011425,71.0297383 14.3354861,67.9312537 14.9725152,64.7461084 C15.2794377,63.2114957 16.1843155,61.8664093 17.4809231,61.0034839 L17.7137606,60.8562677 C19.0836129,60.0343563 19.5278068,58.2575807 18.7058954,56.8877284 C18.5124603,56.5653366 18.2584153,56.2843764 17.9585326,56.0599814 L17.7732207,55.9322533 L17.629586,55.8412846 C14.9426174,54.1395379 14.1439374,50.5817811 15.8456841,47.8948126 C16.7000482,46.5458166 18.0736631,45.6155609 19.634611,45.3187013 L19.8964466,45.2751263 C21.498982,45.0461926 22.6125062,43.5614937 22.3835726,41.9589583 C22.3293409,41.5793361 22.2012591,41.214799 22.0073568,40.8856677 L21.8831813,40.6926003 L21.6329549,40.335134 C19.7830654,37.6924347 20.4257647,34.0504719 23.068464,32.2005824 C24.3881178,31.2768248 26.0268471,30.9414265 27.5964167,31.2648412 L27.8726026,31.3287677 C29.3909561,31.7192014 30.9383339,30.8048418 31.3287677,29.2864883 C31.4309824,28.8889867 31.4455845,28.4748589 31.372574,28.072607 L31.3287677,27.8726026 L31.307998,27.7918316 C30.5200519,24.7275969 32.3653485,21.6047873 35.4295833,20.8168412 C36.9890785,20.4158281 38.6407339,20.690521 39.9827451,21.564675 L40.2389308,21.741551 C41.6831751,22.787383 43.7017808,22.4644061 44.7476128,21.0201619 C45.0196691,20.6444651 45.2075786,20.2145582 45.2985483,19.7597097 C46.1088347,15.7082779 50.0500359,13.0808104 54.1014677,13.8910968 C54.6798315,14.0067695 55.2408361,14.1900962 55.7732499,14.4362019 L56,14.547 L56,10.5 Z" id="Path" fill="#000000" fill-rule="nonzero"></path>
    </g>
</svg>