<?xml version="1.0" encoding="UTF-8"?>
<svg  viewBox="0 0 116 116" version="1.1" xmlns="http://www.w3.org/2000/svg" xmlns:xlink="http://www.w3.org/1999/xlink">
    <title>bold</title>
    <g id="bold" stroke="none" stroke-width="1" fill="none" fill-rule="evenodd">
        <path d="M68.5,16 C79.8218374,16 89,25.1781626 89,36.5 C89,43.3162082 85.6733461,49.3554348 80.555045,53.0826729 L80.297,53.267 L80.6077109,53.3733439 C90.0333903,56.6776097 96.8262567,65.5813083 96.9967177,76.0948477 L97,76.5 C97,89.8956666 86.2492599,100.780363 72.9051523,100.996718 L72.5,101 L24.9142136,101 C23.9859558,101 23.0957172,100.631251 22.4393398,99.9748737 C21.1213203,98.6568542 21.0742482,96.5491693 22.2981235,95.1747452 L22.4393398,95.0251263 L24.732233,92.732233 C26.7440754,90.7203907 27.9082244,88.0193162 27.9947982,85.1839934 L28,84.8431458 L28,42 L33,42 L33,84.8431458 C33,88.8517542 31.5103229,92.7067728 28.8375378,95.668078 L28.528,96 L72.5,96 C83.1549829,96 91.814015,87.4543188 91.9970439,76.8430088 L92,76.5 C92,65.8450171 83.4543188,57.185985 72.8430088,57.0029561 L72.5,57 L50.5,57 L50.5,52 L68.5,52 C77.0604136,52 84,45.0604136 84,36.5 C84,28.0452705 77.2307037,21.1715949 68.8163012,21.0031631 L68.5,21 L25,21 L25,28 L68.5,28 C73.1944204,28 77,31.8055796 77,36.5 C77,41.1090673 73.331547,44.8613215 68.7551603,44.9962434 L68.5,45 L67,45 L67,40 L68.5,40 C70.4329966,40 72,38.4329966 72,36.5 C72,34.6314366 70.5357224,33.1048736 68.6920352,33.0051789 L68.5,33 L24.5,33 C22.0857267,33 20.1155109,31.0987635 20.004898,28.7118357 L20,28.5 L20,20.5 C20,18.0857267 21.9012365,16.1155109 24.2881643,16.004898 L24.5,16 L68.5,16 Z M45,42 L45,84 L72.5,84 C76.5609173,84 79.8680175,80.7725256 79.9961464,76.7427311 L80,76.5 C80,72.4390827 76.7725256,69.1319825 72.7427311,69.0038536 L72.5,69 L70.5,69 L70.5,64 L72.5,64 C79.4035594,64 85,69.5964406 85,76.5 C85,83.3005212 79.5693706,88.8326509 72.8082268,88.9962742 L72.5,89 L44.5,89 C42.0857267,89 40.1155109,87.0987635 40.004898,84.7118357 L40,84.5 L40,42 L45,42 Z" id="Shape" fill="#000000" fill-rule="nonzero"></path>
    </g>
</svg>