<?xml version="1.0" encoding="UTF-8"?>
<svg  viewBox="0 0 117 116" version="1.1" xmlns="http://www.w3.org/2000/svg" xmlns:xlink="http://www.w3.org/1999/xlink">
    <title>bold-off</title>
    <g id="bold-off" stroke="none" stroke-width="1" fill="none" fill-rule="evenodd" transform="translate(1.000000, 0.000000)">
        <path d="M12.267767,8.73223305 L79.998233,76.463233 L79.9950764,76.2267899 C79.8903029,73.3230978 78.121818,70.768019 75.5001648,69.6233809 L75.2440731,69.5171477 L77.0744746,64.8642313 C81.7200575,66.691748 84.8694257,71.1316623 84.9960365,76.1834826 L85,76.5 L80.035233,76.499233 L108.267767,104.732233 L104.732233,108.267767 L8.73223305,12.267767 L12.267767,8.73223305 Z M33,42 L33,84.8431458 C33,88.8517542 31.5103229,92.7067728 28.8375378,95.668078 L28.528,96 L72.5,96 C76.2001802,96 79.7414888,94.9698425 82.8058508,93.0576582 L83.186389,92.8140519 L85.9305283,96.9937289 C82.112811,99.500226 77.6671703,100.897983 73.0174535,100.994626 L72.5,101 L24.9142136,101 C23.9859558,101 23.0957172,100.631251 22.4393398,99.9748737 C21.1213203,98.6568542 21.0742482,96.5491693 22.2981235,95.1747452 L22.4393398,95.0251263 L24.732233,92.732233 C26.7440754,90.7203907 27.9082244,88.0193162 27.9947982,85.1839934 L28,84.8431458 L28,42 L33,42 Z M45,54.5 L45,84 L72.5,84 C73.3710382,84 74.2182501,83.8524662 75.0171606,83.5678797 L75.3565223,83.4375537 L77.2625651,88.0599991 C75.8888108,88.6264599 74.4200849,88.9442711 72.9121771,88.9933059 L72.5,89 L44.5,89 C42.0857267,89 40.1155109,87.0987635 40.004898,84.7118357 L40,84.5 L40,54.5 L45,54.5 Z M68.5,16 C79.8218374,16 89,25.1781626 89,36.5 C89,43.4299734 85.5613731,49.5568124 80.2972756,53.2673608 C90.0058371,56.5241589 97,65.6952923 97,76.5 C97,78.6633783 96.7189626,80.7914601 96.1699777,82.8442673 L96.0136211,83.4022274 L91.2154897,81.9958366 C91.7338631,80.2273213 92,78.382793 92,76.5 C92,65.8450171 83.4543188,57.185985 72.8430088,57.0029561 L72.5,57 L66.5,57 L66.5,52 L68.5,52 C77.0604136,52 84,45.0604136 84,36.5 C84,28.0452705 77.2307037,21.1715949 68.8163012,21.0031631 L68.5,21 L30.5,21 L30.5,16 L68.5,16 Z M68.5,28 C73.1944204,28 77,31.8055796 77,36.5 C77,41.1090673 73.331547,44.8613215 68.7551603,44.9962434 L68.5,45 L67,45 L67,40 L68.5,40 C70.4329966,40 72,38.4329966 72,36.5 C72,34.6314366 70.5357224,33.1048736 68.6920352,33.0051789 L68.5,33 L42.5,33 L42.5,28 L68.5,28 Z" id="Shape" fill="#000000" fill-rule="nonzero"></path>
    </g>
</svg>