<?xml version="1.0" encoding="UTF-8"?>
<svg width="117px" height="116px" viewBox="0 0 117 116" version="1.1" xmlns="http://www.w3.org/2000/svg" xmlns:xlink="http://www.w3.org/1999/xlink">
    <title>bold-off</title>
    <g id="bold-off" stroke="none" stroke-width="1" fill="none" fill-rule="evenodd" transform="translate(1.000000, 0.000000)">
        <path d="M12.267767,8.73223305 L24.499233,20.964233 L24.5,16 L70.5,16 C80.7172679,16 89,24.2827321 89,34.5 C89,40.8998271 85.7503204,46.5406509 80.8110551,49.8623775 L80.608,49.996 L80.8149959,50.0825014 C90.1994279,54.0517814 96.8215287,63.2731552 96.9964498,74.061774 L97,74.5 C97,77.5428443 96.4859701,80.5182269 95.4927258,83.3295314 L95.2876978,83.889576 L90.6122039,82.11764 C91.52592,79.706676 92,77.1379343 92,74.5 C92,62.7446191 82.5656771,53.1927424 70.8555418,53.0028804 L70.5,53 L61.9669596,53 L61.9666748,48 L70.5,48 C77.9558441,48 84,41.9558441 84,34.5 C84,27.1477093 78.1225714,21.1681655 70.8098308,21.0034854 L70.5,21 L24.534233,20.999233 L108.267767,104.732233 L104.732233,108.267767 L8.73223305,12.267767 L12.267767,8.73223305 Z M33,42 L33,84.8431458 C33,88.8517542 31.5103229,92.7067728 28.8375378,95.668078 L28.528,96 L70.5,96 C74.7477728,96 78.8053342,94.7680569 82.2737836,92.4929477 L82.6567222,92.2358745 L85.4876826,96.3572412 C81.2558684,99.2640678 76.2688261,100.88943 71.0415848,100.994557 L70.5,101 L24.9142136,101 C23.9859558,101 23.0957172,100.631251 22.4393398,99.9748737 C21.1213203,98.6568542 21.0742482,96.5491693 22.2981235,95.1747452 L22.4393398,95.0251263 L24.732233,92.732233 C26.7440754,90.7203907 27.9082244,88.0193162 27.9947982,85.1839934 L28,84.8431458 L28,42 L33,42 Z M41,58.5 L41,87.5 C41,87.7454599 41.1768752,87.9496084 41.4101244,87.9919443 L41.5,88 L67,88 C69.2919542,88 71.5181537,87.5604341 73.58999,86.7174985 L74.0315599,86.5307086 L76.0427618,91.1083791 C73.3823737,92.2772219 70.5111193,92.9215127 67.5551968,92.9932672 L67,93 L41.5,93 C38.5365209,93 36.1204609,90.65622 36.0043672,87.7212071 L36,87.5 L36,58.5 L41,58.5 Z M70.5,24 C76.2039245,24 80.8455734,28.548142 80.9962258,34.2157049 L81,34.5 L76,34.5 C76,31.5365209 73.65622,29.1204609 70.7212071,29.0043672 L70.5,29 L34.5,29 L34.5,24 L70.5,24 Z" id="Shape" fill="#000000" fill-rule="nonzero"></path>
    </g>
</svg>