<?xml version="1.0" encoding="UTF-8"?>
<svg  viewBox="0 0 116 116" version="1.1" xmlns="http://www.w3.org/2000/svg" xmlns:xlink="http://www.w3.org/1999/xlink">
    <title>bold</title>
    <g id="bold" stroke="none" stroke-width="1" fill="none" fill-rule="evenodd">
        <path d="M70.5,16 C80.7172679,16 89,24.2827321 89,34.5 C89,40.8998271 85.7503204,46.5406509 80.8110551,49.8623775 L80.608,49.996 L80.8149959,50.0825014 C90.1994279,54.0517814 96.8215287,63.2731552 96.9964498,74.061774 L97,74.5 C97,88.9891904 85.3716485,100.762434 70.938226,100.99645 L70.5,101 L24.9142136,101 C23.9859558,101 23.0957172,100.631251 22.4393398,99.9748737 C21.1213203,98.6568542 21.0742482,96.5491693 22.2981235,95.1747452 L22.4393398,95.0251263 L24.732233,92.732233 C26.7440754,90.7203907 27.9082244,88.0193162 27.9947982,85.1839934 L28,84.8431458 L28,34.5 L33,34.5 L33,84.8431458 C33,88.8517542 31.5103229,92.7067728 28.8375378,95.668078 L28.528,96 L70.5,96 C82.2553809,96 91.8072576,86.5656771 91.9971196,74.8555418 L92,74.5 C92,62.7446191 82.5656771,53.1927424 70.8555418,53.0028804 L70.5,53 L54.5,53 L54.5,48 L70.5,48 C77.9558441,48 84,41.9558441 84,34.5 C84,27.1477093 78.1225714,21.1681655 70.8098308,21.0034854 L70.5,21 L25,21 L25,24 L70.5,24 C76.2039245,24 80.8455734,28.548142 80.9962258,34.2157049 L81,34.5 L76,34.5 C76,31.5365209 73.65622,29.1204609 70.7212071,29.0043672 L70.5,29 L24.5,29 C22.0857267,29 20.1155109,27.0987635 20.004898,24.7118357 L20,24.5 L20,20.5 C20,18.0857267 21.9012365,16.1155109 24.2881643,16.004898 L24.5,16 L70.5,16 Z M41,58.5 L41,87.5 C41,87.7454599 41.1768752,87.9496084 41.4101244,87.9919443 L41.5,88 L67,88 C76.5551538,88 84.3216951,80.3420399 84.4969736,70.8287703 L84.5,70.5 L89.5,70.5 C89.5,82.8021428 79.6268714,92.7982929 67.3720786,92.9969856 L67,93 L41.5,93 C38.5365209,93 36.1204609,90.65622 36.0043672,87.7212071 L36,87.5 L36,58.5 L41,58.5 Z" id="Shape" fill="#000000" fill-rule="nonzero"></path>
    </g>
</svg>