<?xml version="1.0" encoding="UTF-8"?>
<svg  viewBox="0 0 116 116" version="1.1" xmlns="http://www.w3.org/2000/svg" xmlns:xlink="http://www.w3.org/1999/xlink">
    <title>bolt</title>
    <g id="bolt" stroke="none" stroke-width="1" fill="none" fill-rule="evenodd">
        <path d="M53.886627,14.0530222 C54.5384764,12.7721954 55.9070497,12.0200208 57.3377345,12.1562765 C59.1978809,12.3334333 60.5787407,13.9358471 60.503188,15.7806813 L60.4901368,15.9723425 L57.3218583,49.2392664 C57.3193704,49.2653902 57.3189428,49.2916692 57.3205798,49.3178601 C57.3358911,49.562842 57.5251563,49.7555597 57.7605921,49.7832636 L57.8507952,49.7856972 L81.1432123,48.3299212 C82.1113776,48.2694108 83.0783246,48.4660393 83.9459676,48.8998608 C86.5931857,50.2234699 87.7065475,53.3938617 86.5053007,56.0687795 L86.4056424,56.2788851 L63.1344457,102.821279 L58.6623097,100.585211 L81.9335064,54.0428172 C82.0570011,53.7958279 81.9568889,53.4954914 81.7098997,53.3719968 C81.6573152,53.3457046 81.6007185,53.3289959 81.5427516,53.3224081 L81.4551037,53.3201841 L58.1626866,54.7759601 C55.1310359,54.9654383 52.5197951,52.6614022 52.3303169,49.6297515 C52.3183127,49.4376853 52.3164014,49.2451877 52.3245699,49.0530525 L52.344381,48.7652209 L54.764,23.35 L34.6085179,62.9565175 C34.4971852,63.1752767 34.5622249,63.4374431 34.7508994,63.5809683 L34.8273447,63.6289124 C34.8803614,63.6558941 34.9375479,63.6730895 34.9961705,63.6799312 L35.0848399,63.6823575 L58.8428943,62.2203234 C61.8747251,62.0337492 64.4837579,64.3402854 64.6703321,67.3721162 C64.6820803,67.5630236 64.6838579,67.7543487 64.6756781,67.9453122 L64.6559419,68.2313887 L64.0425439,74.6720679 L59.0650665,74.1980225 L59.6784646,67.7573432 C59.6809374,67.7313786 59.6813748,67.7052604 59.6797728,67.6792276 C59.6646961,67.4342311 59.4756156,67.2413322 59.2402064,67.2134028 L59.1500057,67.2108828 L35.3919512,68.6729169 C34.4122578,68.7332057 33.4342797,68.5302187 32.559504,68.0850204 C29.9217734,66.7426039 28.8310043,63.5643683 30.0512588,60.8980679 L30.1524099,60.6886768 L53.886627,14.0530222 Z" id="Path" fill="#000000" fill-rule="nonzero"></path>
    </g>
</svg>