<?xml version="1.0" encoding="UTF-8"?>
<svg width="128px" height="128px" viewBox="0 0 128 128" version="1.1" xmlns="http://www.w3.org/2000/svg" xmlns:xlink="http://www.w3.org/1999/xlink">
    <title>books</title>
    <g id="books" stroke="none" stroke-width="1" fill="none" fill-rule="evenodd">
        <path d="M104,53.5 C109.360099,53.5 114.5,58.0231131 114.5,64 C114.5,67.7928945 113.424424,70.2623721 111.003226,73.1820086 L110.637242,73.6141322 L109.084983,75.4059642 L108.857326,75.674692 L108.600076,75.9589859 L108.103266,76.4781841 L107.61891,76.9693162 L106.61613,77.9650072 L104.184232,80.3280168 L101.346088,83.0443802 L97.2342376,86.9411759 L93.2860134,90.6571566 L85.1751339,98.2411105 L79.7008691,103.332224 L79.5983027,103.221882 C77.7400955,105.16018 75.1424006,106.381857 72.2633402,106.435882 L71.9807135,106.437426 L15.9804693,105.999924 L15.6899132,101.019305 C19.7582394,100.510765 21.4184924,99.0348996 21.4970602,96.2140885 L21.5,96 L26.5,96 C26.5,97.9360202 26.0748487,99.6137558 25.259304,101.017324 L25.226,101.072 L72.0197748,101.437578 C74.9496178,101.460468 77.3564349,99.1619235 77.4939673,96.2792782 L77.5,96.0620117 L77.5,96 C77.5,93.0192575 75.1546163,90.5827779 72.2031803,90.4435342 L71.9807135,90.4374256 L9.94459456,89.9527684 L21.8343826,78.2487583 L25.341969,81.8120206 L22.054,85.047 L72.0197748,85.4375782 C77.1598666,85.4777352 81.4188945,89.1843294 82.3229361,94.0640359 L91.2634571,85.6950213 L97.9216232,79.4020803 L101.38148,76.0903516 L103.266284,74.2565563 L104.254174,73.2730229 L104.835003,72.6722703 L105.042228,72.4433705 L106.243762,71.0466403 L106.933225,70.2533698 C108.835447,68.0214287 109.5,66.5764527 109.5,64 C109.5,61.011597 106.864245,58.6192451 104.199843,58.5043227 L104,58.5 L104,53.5 Z M104,21.5 C109.360099,21.5 114.5,26.0231131 114.5,32 C114.5,35.7928945 113.424424,38.2623721 111.003226,41.1820086 L110.637242,41.6141322 L109.084983,43.4059642 L108.805063,43.7362022 L108.435842,44.1472093 L107.951318,44.6608949 L107.217144,45.4134094 L106.149156,46.4798468 L104.648457,47.9485352 L102.094269,50.40609 L98.6554138,53.670117 L92.6080371,59.3460127 L86.1165215,65.3893946 L82.7147832,61.7249469 L88.288303,56.5381076 L94.082068,51.1090575 L98.1773954,47.2323605 L100.95719,44.5654259 L102.265072,43.2916435 L103.201151,42.3661986 L104.182451,41.3723983 L104.717453,40.8080272 L104.978047,40.5183393 L105.715604,39.6557073 L106.933225,38.2533698 C108.835447,36.0214287 109.5,34.5764527 109.5,32 C109.5,29.011597 106.864245,26.6192451 104.199843,26.5043227 L104,26.5 L49.023,26.5 L22.054,53.047 L72.0197748,53.4375782 C77.7259376,53.4821576 82.3462899,58.0452009 82.4962433,63.7155743 L82.4996815,64.0815424 C82.4553851,69.7514745 77.8983008,74.3301411 72.2633437,74.4358817 L71.9807135,74.4374256 L15.9804693,73.9999237 L15.6899132,69.0193053 C19.7582394,68.5107645 21.4184924,67.0348996 21.4970602,64.2140885 L21.5,64 L26.5,64 C26.5,65.9360202 26.0748487,67.6137558 25.259304,69.0173238 L25.226,69.072 L72.0197748,69.4375782 C74.9496202,69.4604676 77.3563622,67.1619494 77.4938079,64.2611439 L77.5,64 C77.5,61.0192575 75.1546163,58.5827779 72.2031803,58.4435342 L71.9807135,58.4374256 L9.94459456,57.9527684 L46.9759784,21.5 L104,21.5 Z" id="Shape" fill="#000000" fill-rule="nonzero"></path>
    </g>
</svg>