<?xml version="1.0" encoding="UTF-8"?>
<svg  viewBox="0 0 116 116" version="1.1" xmlns="http://www.w3.org/2000/svg" xmlns:xlink="http://www.w3.org/1999/xlink">
    <title>bookmark</title>
    <g id="bookmark" stroke="none" stroke-width="1" fill="none" fill-rule="evenodd">
        <path d="M82.5,12 C88.2039245,12 92.8455734,16.548142 92.9962258,22.2157049 L93,22.5 L93,98.5 C93,100.985281 90.9852814,103 88.5,103 C87.6148491,103 86.7514046,102.739008 86.0165063,102.252637 L85.8,102.1 L60.7365259,83.3023944 C59.5104563,82.3828422 57.8368711,82.3719591 56.6028183,83.2538152 L56.437346,83.3796003 L43.0988757,94.1529802 L39.9571902,90.2632743 L53.2956605,79.4898944 C56.2451505,77.107614 60.4038658,76.9732047 63.4947673,79.1275581 L63.7365259,79.3023944 L88,97.5 L88,22.5 C88,19.5365209 85.65622,17.1204609 82.7212071,17.0043672 L82.5,17 L34.5,17 C31.5365209,17 29.1204609,19.34378 29.0043672,22.2787929 L29,22.5 L29,102.5 L24,102.5 L24,22.5 C24,16.7960755 28.548142,12.1544266 34.2157049,12.0037742 L34.5,12 L82.5,12 Z" id="Path-228" fill="#000000" fill-rule="nonzero"></path>
    </g>
</svg>