<?xml version="1.0" encoding="UTF-8"?>
<svg   viewBox="0 0 116 116" version="1.1" xmlns="http://www.w3.org/2000/svg" xmlns:xlink="http://www.w3.org/1999/xlink">
    <title>books</title>
    <g id="books" stroke="none" stroke-width="1" fill="none" fill-rule="evenodd">
        <path d="M97.9954054,47.5 C103.355504,47.5 108.495405,52.0231131 108.495405,58 C108.495405,61.7928945 107.41983,64.2623721 104.998631,67.1820086 L104.632647,67.6141322 L103.080389,69.4059642 L102.852731,69.674692 L102.595481,69.9589859 L102.098671,70.4781841 L101.614315,70.9693162 L100.611535,71.9650072 L98.179637,74.3280168 L95.3414935,77.0443802 L91.2296431,80.9411759 L87.2814188,84.6571566 L79.1705394,92.2411105 L73.6962746,97.3322238 L73.5937082,97.2218825 C71.735501,99.1601801 69.137806,100.381857 66.2587456,100.435882 L65.9761189,100.437426 L9.97587478,99.9999237 L9.6853186,95.0193053 C13.7536448,94.5107645 15.4138978,93.0348996 15.4924656,90.2140885 L15.4954054,90 L20.4954054,90 C20.4954054,91.9360202 20.0702542,93.6137558 19.2547094,95.0173238 L19.2214054,95.072 L66.0151802,95.4375782 C68.9450232,95.4604676 71.3518404,93.1619235 71.4893727,90.2792782 L71.4954054,90.0620117 L71.4954054,90 C71.4954054,87.0192575 69.1500218,84.5827779 66.1985858,84.4435342 L65.9761189,84.4374256 L3.94,83.9527684 L15.8297881,72.2487583 L19.3373744,75.8120206 L16.0494054,79.047 L66.0151802,79.4375782 C71.1552721,79.4777352 75.4142999,83.1843294 76.3183415,88.0640359 L85.2588625,79.6950213 L91.9170286,73.4020803 L95.3768851,70.0903516 L97.2616895,68.2565563 L98.2495795,67.2730229 L98.830408,66.6722703 L99.0376333,66.4433705 L100.239167,65.0466403 L100.92863,64.2533698 C102.830853,62.0214287 103.495405,60.5764527 103.495405,58 C103.495405,55.011597 100.859651,52.6192451 98.1952486,52.5043227 L97.9954054,52.5 L97.9954054,47.5 Z M97.9954054,15.5 C103.355504,15.5 108.495405,20.0231131 108.495405,26 C108.495405,29.7928945 107.41983,32.2623721 104.998631,35.1820086 L104.632647,35.6141322 L103.080389,37.4059642 L102.800468,37.7362022 L102.431247,38.1472093 L101.946724,38.6608949 L101.21255,39.4134094 L100.144562,40.4798468 L98.643862,41.9485352 L96.0896742,44.40609 L92.6508193,47.670117 L86.6034425,53.3460127 L80.1119269,59.3893946 L76.7101886,55.7249469 L82.2837084,50.5381076 L88.0774734,45.1090575 L92.1728008,41.2323605 L94.9525953,38.5654259 L96.2604775,37.2916435 L97.1965565,36.3661986 L98.1778566,35.3723983 L98.7128585,34.8080272 L98.9734522,34.5183393 L99.7110098,33.6557073 L100.92863,32.2533698 C102.830853,30.0214287 103.495405,28.5764527 103.495405,26 C103.495405,23.011597 100.859651,20.6192451 98.1952486,20.5043227 L97.9954054,20.5 L43.0184054,20.5 L16.0494054,47.047 L66.0151802,47.4375782 C71.721343,47.4821576 76.3416953,52.0452009 76.4916488,57.7155743 L76.4950869,58.0815424 C76.4507906,63.7514745 71.8937063,68.3301411 66.2587491,68.4358817 L65.9761189,68.4374256 L9.97587478,67.9999237 L9.6853186,63.0193053 C13.7536448,62.5107645 15.4138978,61.0348996 15.4924656,58.2140885 L15.4954054,58 L20.4954054,58 C20.4954054,59.9360202 20.0702542,61.6137558 19.2547094,63.0173238 L19.2214054,63.072 L66.0151802,63.4375782 C68.9450256,63.4604676 71.3517677,61.1619494 71.4892133,58.2611439 L71.4954054,58 C71.4954054,55.0192575 69.1500218,52.5827779 66.1985858,52.4435342 L65.9761189,52.4374256 L3.94,51.9527684 L40.9713838,15.5 L97.9954054,15.5 Z" id="Shape" fill="#000000" fill-rule="nonzero"></path>
    </g>
</svg>