<?xml version="1.0" encoding="UTF-8"?>
<svg  viewBox="0 0 117 116" version="1.1" xmlns="http://www.w3.org/2000/svg" xmlns:xlink="http://www.w3.org/1999/xlink">
    <title>briefcase</title>
    <g id="briefcase" stroke="none" stroke-width="1" fill="none" fill-rule="evenodd" transform="translate(0.000000, 0.000000)">
        <path d="M66.5,16 C72.2039245,16 76.8455734,20.548142 76.9962258,26.2157049 L77,26.5 L77,28 L98.5,28 C104.203924,28 108.845573,32.548142 108.996226,38.2157049 L109,38.5 L109,90.5 C109,96.2039245 104.451858,100.845573 98.7842951,100.996226 L98.5,101 L18.5,101 C12.7960755,101 8.15442656,96.451858 8.00377424,90.7842951 L8,90.5 L8,61.5 C8,58.5365209 10.34378,56.1204609 13.2787929,56.0043672 L13.5,56 L49,56 L49,62.5 C49,63.2796961 49.5948881,63.9204487 50.35554,63.9931334 L50.5,64 L66.5,64 C67.2796961,64 67.9204487,63.4051119 67.9931334,62.64446 L68,62.5 L68,54.5 C68,53.7203039 67.4051119,53.0795513 66.64446,53.0068666 L66.5,53 L46.5,53 L46.5,48 L66.5,48 C70.0118106,48 72.8731506,50.7849962 72.995897,54.2668659 L73,54.5 L73,56 L94.5,56 L94.5,61 L73,61 L73,62.5 C73,66.0118106 70.2150038,68.8731506 66.7331341,68.995897 L66.5,69 L50.5,69 C46.9881894,69 44.1268494,66.2150038 44.004103,62.7331341 L44,62.5 L44,61 L13.5,61 C13.2545401,61 13.0503916,61.1768752 13.0080557,61.4101244 L13,61.5 L13,90.5 C13,93.4634791 15.34378,95.8795391 18.2787929,95.9956328 L18.5,96 L98.5,96 C101.463479,96 103.879539,93.65622 103.995633,90.7212071 L104,90.5 L104,38.5 C104,35.5365209 101.65622,33.1204609 98.7212071,33.0043672 L98.5,33 L72,33 L72,26.5 C72,23.5365209 69.65622,21.1204609 66.7212071,21.0043672 L66.5,21 L50.5,21 C47.5365209,21 45.1204609,23.34378 45.0043672,26.2787929 L45,26.5 L45,28 L66.5,28 L66.5,33 L18.5,33 C15.5365209,33 13.1204609,35.34378 13.0043672,38.2787929 L13,38.5 L13,50.5 L8,50.5 L8,38.5 C8,32.7960755 12.548142,28.1544266 18.2157049,28.0037742 L18.5,28 L40,28 L40,26.5 C40,20.7960755 44.548142,16.1544266 50.2157049,16.0037742 L50.5,16 L66.5,16 Z" id="Path-329" fill="#000000" fill-rule="nonzero"></path>
    </g>
</svg>