<?xml version="1.0" encoding="UTF-8"?>
<svg  viewBox="0 0 116 116" version="1.1" xmlns="http://www.w3.org/2000/svg" xmlns:xlink="http://www.w3.org/1999/xlink">
    <title>brush</title>
    <g id="brush" stroke="none" stroke-width="1" fill="none" fill-rule="evenodd">
        <path d="M59.7057205,6.28437835 C60.7094491,4.63240836 62.8623181,4.10690489 64.5142881,5.11063349 C64.6896444,5.21717907 64.8551779,5.33886928 65.0090194,5.47424403 L65.1588942,5.61412623 L97.9094084,38.0270063 L92.279,48.823 L103.275674,43.3379494 L111.8382,51.812202 C113.212099,53.1719368 113.223581,55.3879845 111.863846,56.7618831 C111.706294,56.9210767 111.533946,57.0646563 111.349234,57.1907247 L111.160491,57.3108859 L79.7385896,75.9312719 L77.1895776,71.6298142 L106.94,53.999 L102.303,49.41 L90.3742175,55.3611925 C89.4375721,55.8284226 88.3448988,55.8503247 87.3948865,55.4295795 L87.1936049,55.3326456 C85.5387421,54.4697089 84.8618323,52.4692546 85.6215666,50.7896163 L85.7084849,50.6109491 L91.77,38.986 L62.992,10.504 L41.8520102,45.29769 C41.7499472,45.4656686 41.7570403,45.6747001 41.8626251,45.8337389 L41.9235757,45.9086708 L78.1836619,82.6220081 C80.2497635,84.7139359 80.2969875,88.0460756 78.3328609,90.1947362 L78.1595816,90.3759523 L74.3890873,94.1464466 C72.3008671,96.2346668 68.9512337,96.2926729 66.792935,94.320465 L66.6109127,94.1464466 L51.3988411,78.934375 C51.3720839,78.9076178 51.3423757,78.8839846 51.3102872,78.8639292 C51.1021376,78.7338357 50.8352764,78.7756271 50.6757537,78.950984 L50.6212885,79.0229289 L40.1153126,95.8324903 C39.5637805,96.7149418 38.9138551,97.5319313 38.1780194,98.267767 C32.8082137,103.637573 24.1020387,103.637573 18.732233,98.267767 C17.9963974,97.5319313 17.3464719,96.7149418 16.7949398,95.8324903 C12.8292891,89.4874493 14.6714819,81.1585914 20.8863161,77.0651257 L21.1675097,76.8846874 L37.9351956,66.4048837 C37.9690792,66.3837064 38.0003021,66.3585439 38.0281962,66.3299346 C38.1995518,66.1541853 38.2154252,65.8845384 38.0779735,65.6913945 L38.0192462,65.6228844 L22.8651977,50.8476872 C20.7787395,48.8133904 20.6496245,45.5194524 22.5286402,43.3304043 L22.6996485,43.1401805 L26.6327987,38.9627085 L26.6761689,38.9188096 C28.7643891,36.8305894 32.1140225,36.7725833 34.2723212,38.7447912 L34.4543435,38.9188096 L35.767767,40.232233 L32.232233,43.767767 L30.9188096,42.4543435 C30.7452432,42.2807771 30.4758188,42.261492 30.2809507,42.396488 L30.2011562,42.4652145 L26.3406484,46.567004 C26.174513,46.7435229 26.1613438,47.009436 26.2976034,47.2000553 L26.3556983,47.2676865 L41.5097468,62.0428837 C43.6846446,64.1634091 43.7287222,67.6455375 41.6081969,69.8204353 C41.3627289,70.0721973 41.0938259,70.2996938 40.8052511,70.4998922 L40.5851903,70.6448752 L23.8175044,81.1246789 C19.7194439,83.6859667 18.4736435,89.0844351 21.0349313,93.1824956 C21.3859099,93.7440614 21.7995031,94.2639692 22.267767,94.732233 C25.6849511,98.1494172 31.2253013,98.1494172 34.6424855,94.732233 C35.0170966,94.3576219 35.3567184,93.9499588 35.6572838,93.5143563 L35.8753211,93.1824956 L46.381297,76.3729342 C47.9912038,73.7970833 51.3844309,73.0140309 53.9602819,74.6239377 C54.2250125,74.7893944 54.4750145,74.9769891 54.7076399,75.1846155 L54.934375,75.3988411 L70.1464466,90.6109127 C70.320013,90.7844791 70.5894374,90.8037642 70.7843055,90.6687682 L70.8535534,90.6109127 L74.6240477,86.8404184 C74.7968522,86.6676139 74.8168254,86.3996113 74.6834443,86.2048063 L74.6262368,86.1355144 L38.3661506,49.4221771 C36.6527068,47.6873153 36.2923643,45.0407212 37.4533898,42.9189504 L37.5789298,42.701388 L59.7057205,6.28437835 Z" id="Path-298" fill="#000000" fill-rule="nonzero"></path>
    </g>
</svg>