<?xml version="1.0" encoding="UTF-8"?>
<svg  viewBox="0 0 116 116" version="1.1" xmlns="http://www.w3.org/2000/svg" xmlns:xlink="http://www.w3.org/1999/xlink">
    <title>bus</title>
    <g id="bus" stroke="none" stroke-width="1" fill="none" fill-rule="evenodd">
        <path d="M90.5,8 C100.60499,8 108.817728,16.1016943 108.997008,26.1638763 L109,26.5 L109,87.5 C109,90.4634791 106.65622,92.8795391 103.721207,92.9956328 L103.5,93 L101,93 L101,100.5 C101,105.109067 97.331547,108.861321 92.7551603,108.996243 L92.5,109 L88.5,109 C83.8909327,109 80.1386785,105.331547 80.0037566,100.75516 L80,100.5 L80,93 L37,93 L37,100.5 C37,105.109067 33.331547,108.861321 28.7551603,108.996243 L28.5,109 L24.5,109 C19.8909327,109 16.1386785,105.331547 16.0037566,100.75516 L16,100.5 L16,93 L14.5,93 C10.9881894,93 8.12684944,90.2150038 8.00410301,86.7331341 L8,86.5 L8,62.5 L13,62.5 L13,86.5 C13,87.2796961 13.5948881,87.9204487 14.35554,87.9931334 L14.5,88 L21,88 L21,100.5 C21,102.368563 22.4642776,103.895126 24.3079648,103.994821 L24.5,104 L28.5,104 C30.3685634,104 31.8951264,102.535722 31.9948211,100.692035 L32,100.5 L32,88 L90.5,88 L90.5,93 L85,93 L85,100.5 C85,102.368563 86.4642776,103.895126 88.3079648,103.994821 L88.5,104 L92.5,104 C94.3685634,104 95.8951264,102.535722 95.9948211,100.692035 L96,100.5 L96,88 L103.5,88 C103.74546,88 103.949608,87.8231248 103.991944,87.5898756 L104,87.5 L104,26.5 C104,19.1477093 98.1225714,13.1681655 90.8098308,13.0034854 L90.5,13 L26.5,13 C19.1477093,13 13.1681655,18.8774286 13.0034854,26.1901692 L13,26.5 L13,48 L98.5,48 L98.5,53 L8,53 L8,26.5 C8,16.3950098 16.1016943,8.18227168 26.1638763,8.0029922 L26.5,8 L90.5,8 Z M30.5,60 L30.5,65 C27.4624339,65 25,67.4624339 25,70.5 C25,73.5375661 27.4624339,76 30.5,76 C33.4634791,76 35.8795391,73.65622 35.9956328,70.7212071 L36,70.5 L41,70.5 C41,76.2989899 36.2989899,81 30.5,81 C24.7010101,81 20,76.2989899 20,70.5 C20,64.7960755 24.548142,60.1544266 30.2157049,60.0037742 L30.5,60 Z M86.5,60 L86.5,65 C83.4624339,65 81,67.4624339 81,70.5 C81,73.5375661 83.4624339,76 86.5,76 C89.4634791,76 91.8795391,73.65622 91.9956328,70.7212071 L92,70.5 L97,70.5 C97,76.2989899 92.2989899,81 86.5,81 C80.7010101,81 76,76.2989899 76,70.5 C76,64.7960755 80.548142,60.1544266 86.2157049,60.0037742 L86.5,60 Z M74.5,20 L74.5,25 L42.5,25 L42.5,20 L74.5,20 Z" id="Shape" fill="#000000" fill-rule="nonzero"></path>
    </g>
</svg>