<?xml version="1.0" encoding="UTF-8"?>
<svg  viewBox="0 0 117 116" version="1.1" xmlns="http://www.w3.org/2000/svg" xmlns:xlink="http://www.w3.org/1999/xlink">
    <title>calendar</title>
    <g id="calendar" stroke="none" stroke-width="1" fill="none" fill-rule="evenodd" transform="translate(0.000000, 0.000000)">
        <path d="M74.5,8 C80.2039245,8 84.8455734,12.548142 84.9962258,18.2157049 L85,18.5 L85,24 L98.5,24 C104.203924,24 108.845573,28.548142 108.996226,34.2157049 L109,34.5 L109,98.5 C109,104.203924 104.451858,108.845573 98.7842951,108.996226 L98.5,109 L18.5,109 C12.7960755,109 8.15442656,104.451858 8.00377424,98.7842951 L8,98.5 L8,34.5 C8,28.7960755 12.548142,24.1544266 18.2157049,24.0037742 L18.5,24 L26.5,24 L26.5,29 L18.5,29 C15.5365209,29 13.1204609,31.34378 13.0043672,34.2787929 L13,34.5 L13,98.5 C13,101.463479 15.34378,103.879539 18.2787929,103.995633 L18.5,104 L98.5,104 C101.463479,104 103.879539,101.65622 103.995633,98.7212071 L104,98.5 L104,34.5 C104,31.5365209 101.65622,29.1204609 98.7212071,29.0043672 L98.5,29 L80,29 L80,18.5 C80,15.5365209 77.65622,13.1204609 74.7212071,13.0043672 L74.5,13 L74.5,8 Z M38.5,88 L38.5,93 L22.5,93 L22.5,88 L38.5,88 Z M66.5,88 L66.5,93 L50.5,93 L50.5,88 L66.5,88 Z M94.5,72 L94.5,77 L78.5,77 L78.5,72 L94.5,72 Z M66.5,72 L66.5,77 L50.5,77 L50.5,72 L66.5,72 Z M38.5,72 L38.5,77 L22.5,77 L22.5,72 L38.5,72 Z M38.5,56 L38.5,61 L22.5,61 L22.5,56 L38.5,56 Z M66.5,56 L66.5,61 L50.5,61 L50.5,56 L66.5,56 Z M94.5,56 L94.5,61 L78.5,61 L78.5,56 L94.5,56 Z M66.5,40 L66.5,45 L50.5,45 L50.5,40 L66.5,40 Z M94.5,40 L94.5,45 L78.5,45 L78.5,40 L94.5,40 Z M27,8 C32.7039245,8 37.3455734,12.548142 37.4962258,18.2157049 L37.5,18.5 L37.5,24 L74.5,24 L74.5,29 L32.5,29 L32.5,18.5 C32.5,15.5365209 30.15622,13.1204609 27.2212071,13.0043672 L27,13 L27,8 Z" id="Shape" fill="#000000" fill-rule="nonzero"></path>
    </g>
</svg>