<?xml version="1.0" encoding="UTF-8"?>
<svg  viewBox="0 0 116 116" version="1.1" xmlns="http://www.w3.org/2000/svg" xmlns:xlink="http://www.w3.org/1999/xlink">
    <title>camera</title>
    <g id="camera" stroke="none" stroke-width="1" fill="none" fill-rule="evenodd">
        <path d="M70,23.5 C77.9027588,23.5 84.3288988,29.8221564 84.4966395,37.6846885 L84.5,38 L84.5,64.948 L100.950563,81.0568602 C101.505488,81.6002241 102.374863,81.6253981 102.958933,81.1386954 L103.071766,81.0345317 C103.311955,80.7892318 103.45968,80.4701293 103.492858,80.1313383 L103.5,79.9850945 L103.5,35.6568542 C103.5,34.8284271 102.828427,34.1568542 102,34.1568542 C101.651903,34.1568542 101.316282,34.27785 101.049363,34.496551 L100.93934,34.5961941 L91.767767,43.767767 L88.232233,40.232233 L97.4038059,31.0606602 C98.6227924,29.8416737 100.276093,29.1568542 102,29.1568542 C105.511811,29.1568542 108.373151,31.9418505 108.495897,35.4237201 L108.5,35.6568542 L108.5,79.9850945 C108.5,81.6853055 107.833828,83.3178372 106.644318,84.5326557 C104.192568,87.0365705 100.212484,87.1374686 97.6382462,84.8044641 L97.4524388,84.6294123 L80.250938,67.7862761 C79.8186962,67.3630393 79.5562299,66.7991985 79.508059,66.2006546 L79.5,66 L79.5,38 C79.5,32.8437553 75.3921061,28.6469606 70.2704787,28.5037764 L70,28.5 L22,28.5 C16.8437553,28.5 12.6469606,32.6078939 12.5037764,37.7295213 L12.5,38 L12.5,82 C12.5,84.9634791 14.84378,87.3795391 17.7787929,87.4956328 L18,87.5 L70,87.5 C75.1562447,87.5 79.3530394,83.3921061 79.4962236,78.2704787 L79.5,78 L79.5,74 L84.5,74 L84.5,78 C84.5,85.9027588 78.1778436,92.3288988 70.3153115,92.4966395 L70,92.5 L18,92.5 C12.2960755,92.5 7.65442656,87.951858 7.50377424,82.2842951 L7.5,82 L7.5,38 C7.5,30.0972412 13.8221564,23.6711012 21.6846885,23.5033605 L22,23.5 L70,23.5 Z" id="Path-51" fill="#000000" fill-rule="nonzero"></path>
    </g>
</svg>