<?xml version="1.0" encoding="UTF-8"?>
<svg   viewBox="0 0 128 128" version="1.1" xmlns="http://www.w3.org/2000/svg" xmlns:xlink="http://www.w3.org/1999/xlink">
    <title>camera-off</title>
    <g id="camera-off" stroke="none" stroke-width="1" fill="none" fill-rule="evenodd">
        <path d="M17.767767,14.232233 L113.767767,110.232233 L110.232233,113.767767 L14.232233,17.767767 L17.767767,14.232233 Z M22.9113578,30.4187605 L24.66625,35.1006782 C21.0755246,36.4465661 18.6191484,39.8389057 18.5042137,43.7155048 L18.5,44 L18.5,88 C18.5,90.9634791 20.84378,93.3795391 23.7787929,93.4956328 L24,93.5 L76,93.5 C77.9222687,93.5 79.7527319,92.9302146 81.306016,91.8816165 L81.5939633,91.6794155 L84.5420522,95.7178275 C82.1873779,97.4367678 79.3683953,98.4128043 76.4049689,98.4944277 L76,98.5 L24,98.5 C18.2960755,98.5 13.6544266,93.951858 13.5037742,88.2842951 L13.5,88 L13.5,44 C13.5,37.9042411 17.2965507,32.5233215 22.9113578,30.4187605 Z M76,29.5 C83.9027588,29.5 90.3288988,35.8221564 90.4966395,43.6846885 L90.5,44 L90.5,70.948 L106.950563,87.0568602 C107.505488,87.6002241 108.374863,87.6253981 108.958933,87.1386954 L109.071766,87.0345317 C109.311955,86.7892318 109.45968,86.4701293 109.492858,86.1313383 L109.5,85.9850945 L109.5,41.6568542 C109.5,40.8284271 108.828427,40.1568542 108,40.1568542 C107.651903,40.1568542 107.316282,40.27785 107.049363,40.496551 L106.93934,40.5961941 L97.767767,49.767767 L94.232233,46.232233 L103.403806,37.0606602 C104.622792,35.8416737 106.276093,35.1568542 108,35.1568542 C111.511811,35.1568542 114.373151,37.9418505 114.495897,41.4237201 L114.5,41.6568542 L114.5,85.9850945 C114.5,87.6853055 113.833828,89.3178372 112.644318,90.5326557 C110.192568,93.0365705 106.212484,93.1374686 103.638246,90.8044641 L103.452439,90.6294123 L86.250938,73.7862761 C85.8186962,73.3630393 85.5562299,72.7991985 85.508059,72.2006546 L85.5,72 L85.5,44 C85.5,38.8437553 81.3921061,34.6469606 76.2704787,34.5037764 L76,34.5 L40,34.5 L40,29.5 L76,29.5 Z" id="Shape" fill="#000000" fill-rule="nonzero"></path>
    </g>
</svg>