<?xml version="1.0" encoding="UTF-8"?>
<svg  viewBox="0 0 117 116" version="1.1" xmlns="http://www.w3.org/2000/svg" xmlns:xlink="http://www.w3.org/1999/xlink">
    <title>car-side-view</title>
    <g id="car-side-view" stroke="none" stroke-width="1" fill="none" fill-rule="evenodd" transform="translate(0.000000, 0.000000)">
        <path d="M79.914949,24 C87.2100041,24 93.8110655,28.2852365 96.7902217,34.9187036 L96.9410709,35.2638982 L100.653,44 L104.5,44 C110.203924,44 114.845573,48.548142 114.996226,54.2157049 L115,54.5 L115,66.5 L110,66.5 L110,54.5 C110,51.5365209 107.65622,49.1204609 104.721207,49.0043672 L104.5,49 L97.3460858,49 L92.3394163,37.2196014 C90.2645375,32.3375336 85.5286349,29.1328025 80.245818,29.0040304 L79.914949,29 L57.127417,29 C53.6704572,29 50.3502032,30.3259177 47.8465665,32.6961245 L47.5814755,32.9540585 L31.6890522,48.8464817 L18.447228,50.8836854 C11.9677216,51.8805325 7.15727114,57.3819101 7.00378093,63.9050831 L7,64.2267033 L7,75.5 C7,75.7454599 7.17687516,75.9496084 7.41012437,75.9919443 L7.5,76 L16.214,76 L16.2648542,75.7270597 C17.5394989,69.1450886 23.2656602,64.1509723 30.1846885,64.0033605 L30.5,64 L30.5,69 C25.2532949,69 21,73.2532949 21,78.5 C21,83.7467051 25.2532949,88 30.5,88 C35.6562447,88 39.8530394,83.8921061 39.9962236,78.7704787 L40,78.5 L40,76 L72.214,76 L72.2648542,75.7270597 C73.5394989,69.1450886 79.2656602,64.1509723 86.1846885,64.0033605 L86.5,64 L87,64 L87,69 L86.5,69 C81.2532949,69 77,73.2532949 77,78.5 C77,83.7467051 81.2532949,88 86.5,88 C91.6562447,88 95.8530394,83.8921061 95.9962236,78.7704787 L96,78.5 L96,76 L106.5,76 L106.5,81 L100.785,81 L100.735146,81.2729403 C99.4605011,87.8549114 93.7343398,92.8490277 86.8153115,92.9966395 L86.5,93 C79.4402022,93 73.5588117,87.9546382 72.2648542,81.2729403 L72.214,81 L44.785,81 L44.7351458,81.2729403 C43.4605011,87.8549114 37.7343398,92.8490277 30.8153115,92.9966395 L30.5,93 C23.4402022,93 17.5588117,87.9546382 16.2648542,81.2729403 L16.214,81 L7.5,81 C4.53652085,81 2.12046086,78.65622 2.0043672,75.7212071 L2,75.5 L2,64.2267033 C2,55.2127032 8.49232894,47.5296074 17.3410052,45.9983625 L17.6869421,45.9418269 L29.311,44.153 L44.0459415,29.4185245 C47.4133227,26.0511434 51.9451843,24.1159682 56.6950379,24.0050473 L57.127417,24 L79.914949,24 Z" id="Path-350" fill="#000000" fill-rule="nonzero"></path>
    </g>
</svg>