<?xml version="1.0" encoding="UTF-8"?>
<svg  viewBox="0 0 117 116" version="1.1" xmlns="http://www.w3.org/2000/svg" xmlns:xlink="http://www.w3.org/1999/xlink">
    <title>car</title>
    <g id="car" stroke="none" stroke-width="1" fill="none" fill-rule="evenodd" transform="translate(0.000000, 0.000000)">
        <path d="M81.0837363,20 C85.279655,20 89.0624556,22.4965176 90.7205308,26.3307383 L90.8327416,26.6003979 L96.193,40 L98.5,40 L98.5,45 L92.8074176,45 L86.1903581,28.4573513 C85.38494,26.4438059 83.4756543,25.0987191 81.3237872,25.0052098 L81.0837363,25 L35.9162637,25 C33.747609,25 31.7896363,26.2731745 30.9036317,28.2364045 L30.8096419,28.4573513 L26.192,40 L74.5,40 L74.5,45 L22.5,45 C17.3437553,45 13.1469606,49.1078939 13.0037764,54.2295213 L13,54.5 L13,88.5 C13,90.3685634 14.4642776,91.8951264 16.3079648,91.9948211 L16.5,92 L24.5,92 C26.3685634,92 27.8951264,90.5357224 27.9948211,88.6920352 L28,88.5 L28,81 L18.5,81 L18.5,76 L98.5,76 L98.5,81 L89,81 L89,88.5 C89,90.3685634 90.4642776,91.8951264 92.3079648,91.9948211 L92.5,92 L100.5,92 C102.368563,92 103.895126,90.5357224 103.994821,88.6920352 L104,88.5 L104,57.5 C104,57.2545401 103.823125,57.0503916 103.589876,57.0080557 L103.5,57 L84.5,57 C82.5670034,57 81,58.5670034 81,60.5 C81,62.3685634 82.4642776,63.8951264 84.3079648,63.9948211 L84.5,64 L88.5,64 C90.3685634,64 91.8951264,62.5357224 91.9948211,60.6920352 L92,60.5 L97,60.5 C97,65.1090673 93.331547,68.8613215 88.7551603,68.9962434 L88.5,69 L84.5,69 C79.8055796,69 76,65.1944204 76,60.5 C76,55.8909327 79.668453,52.1386785 84.2448397,52.0037566 L84.5,52 L103.5,52 C106.463479,52 108.879539,54.34378 108.995633,57.2787929 L109,57.5 L109,88.5 C109,93.1090673 105.331547,96.8613215 100.75516,96.9962434 L100.5,97 L92.5,97 C87.8909327,97 84.1386785,93.331547 84.0037566,88.7551603 L84,88.5 L84,81 L33,81 L33,88.5 C33,93.1090673 29.331547,96.8613215 24.7551603,96.9962434 L24.5,97 L16.5,97 C11.8909327,97 8.13867855,93.331547 8.0037566,88.7551603 L8,88.5 L8,54.5 C8,47.1240918 13.5073006,41.0344826 20.6341372,40.1189371 L20.765,40.103 L26.1672584,26.6003979 C27.7255835,22.7045852 31.4484388,20.1195264 35.624217,20.004036 L35.9162637,20 L81.0837363,20 Z M31.5,52 C36.6562447,52 40.8530394,56.1078939 40.9962236,61.2295213 L41,61.5 L41,62.5 L36,62.5 L36,61.5 C36,59.0857267 34.0987635,57.1155109 31.7118357,57.004898 L31.5,57 L28.5,57 C26.5670034,57 25,58.5670034 25,60.5 C25,62.3685634 26.4642776,63.8951264 28.3079648,63.9948211 L28.5,64 L34,64 L34,69 L28.5,69 C23.8055796,69 20,65.1944204 20,60.5 C20,55.8909327 23.668453,52.1386785 28.2448397,52.0037566 L28.5,52 L31.5,52 Z" id="Shape" fill="#000000" fill-rule="nonzero"></path>
    </g>
</svg>