<?xml version="1.0" encoding="UTF-8"?>
<svg width="128px" height="128px" viewBox="0 0 128 128" version="1.1" xmlns="http://www.w3.org/2000/svg" xmlns:xlink="http://www.w3.org/1999/xlink">
    <title>card</title>
    <g id="card" stroke="none" stroke-width="1" fill="none" fill-rule="evenodd">
        <path d="M88,13.5 C93.7039245,13.5 98.3455734,18.048142 98.4962258,23.7157049 L98.5,24 L98.5,104 C98.5,109.703924 93.951858,114.345573 88.2842951,114.496226 L88,114.5 L48,114.5 L48,109.5 L88,109.5 C90.9634791,109.5 93.3795391,107.15622 93.4956328,104.221207 L93.5,104 L93.5,24 C93.5,21.0365209 91.15622,18.6204609 88.2212071,18.5043672 L88,18.5 L40,18.5 C37.0365209,18.5 34.6204609,20.84378 34.5043672,23.7787929 L34.5,24 L34.5,104 C34.5,106.963479 36.84378,109.379539 39.7787929,109.495633 L40,109.5 L40,114.5 C34.2960755,114.5 29.6544266,109.951858 29.5037742,104.284295 L29.5,104 L29.5,24 C29.5,18.2960755 34.048142,13.6544266 39.7157049,13.5037742 L40,13.5 L88,13.5 Z M80,21.5 L80,26.5 L48,26.5 L48,21.5 L80,21.5 Z" id="Shape" fill="#000000" fill-rule="nonzero"></path>
    </g>
</svg>