<?xml version="1.0" encoding="UTF-8"?>
<svg  viewBox="0 0 116 116" version="1.1" xmlns="http://www.w3.org/2000/svg" xmlns:xlink="http://www.w3.org/1999/xlink">
    <title>card</title>
    <g id="card" stroke="none" stroke-width="1" fill="none" fill-rule="evenodd">
        <path d="M82.5,8 C88.2039245,8 92.8455734,12.548142 92.9962258,18.2157049 L93,18.5 L93,98.5 C93,104.203924 88.451858,108.845573 82.7842951,108.996226 L82.5,109 L42.5,109 L42.5,104 L82.5,104 C85.4634791,104 87.8795391,101.65622 87.9956328,98.7212071 L88,98.5 L88,18.5 C88,15.5365209 85.65622,13.1204609 82.7212071,13.0043672 L82.5,13 L34.5,13 C31.5365209,13 29.1204609,15.34378 29.0043672,18.2787929 L29,18.5 L29,98.5 C29,101.463479 31.34378,103.879539 34.2787929,103.995633 L34.5,104 L34.5,109 C28.7960755,109 24.1544266,104.451858 24.0037742,98.7842951 L24,98.5 L24,18.5 C24,12.7960755 28.548142,8.15442656 34.2157049,8.00377424 L34.5,8 L82.5,8 Z M74.5,16 L74.5,21 L42.5,21 L42.5,16 L74.5,16 Z" id="Shape" fill="#000000" fill-rule="nonzero"></path>
    </g>
</svg>