<?xml version="1.0" encoding="UTF-8"?>
<svg   viewBox="0 0 116 116" version="1.1" xmlns="http://www.w3.org/2000/svg" xmlns:xlink="http://www.w3.org/1999/xlink">
    <title>chat-off</title>
    <g id="chat-off" stroke="none" stroke-width="1" fill="none" fill-rule="evenodd">
        <path d="M11.5355339,8 L107.535534,104 L104,107.535534 L8,11.5355339 L11.5355339,8 Z M18.212885,36.8092009 L21.8513229,40.2387446 L21.5081424,40.6086498 C16.86948,45.6889166 14.3444999,51.784004 14.3444999,58.167767 C14.3444999,68.1085561 20.5170147,77.2910336 30.7047962,82.8547181 L31.1438675,83.0909378 L33.1534507,84.1559415 L32.2583195,86.3159193 L32.0517427,86.777161 C30.7947096,89.5100651 29.0804379,91.9465439 27.0091243,93.9730846 L26.5760282,94.384767 L26.712532,94.433525 C28.3562553,94.9831467 30.0809009,95.267767 31.8444999,95.267767 C36.8086311,95.267767 41.4453708,92.9980029 44.7435622,89.0725413 L45.0011464,88.7592078 L45.8499194,87.7039288 L47.1974882,87.8384199 L48.1170921,87.9208357 C49.3468055,88.0185909 50.5905093,88.067767 51.8444999,88.067767 C54.2324096,88.067767 56.5905094,87.8894473 58.8979053,87.5383962 L59.7607612,87.3986662 L60.6072952,92.3264832 L59.7469255,92.4666656 C57.4471045,92.8211099 55.1039702,93.0203753 52.7343262,93.0602806 L51.8444999,93.067767 L50.8067162,93.0575701 C50.3463754,93.0485101 49.8872672,93.0334176 49.42954,93.012313 L48.7440038,92.9761496 L48.0170282,92.925767 L47.773885,93.1910113 C43.6047017,97.6696586 37.925387,100.267767 31.8444999,100.267767 C27.9713158,100.267767 24.2382323,99.2165722 20.9308657,97.2494 L20.5196828,96.9987426 L17.1251454,94.8785603 L20.5194964,92.7580796 L20.8882523,92.5211346 C23.0690491,91.0803969 24.9383519,89.135333 26.3602915,86.8367686 L26.6216295,86.401682 L26.6760282,86.304767 L26.1889145,86.0075947 C15.7307357,79.5100212 9.34449995,69.3206723 9.34449995,58.167767 C9.34449995,50.4755133 12.3753553,43.178067 17.8522353,37.19737 L18.212885,36.8092009 Z M25.7257884,38.4292901 L30.3128255,40.4190365 C28.9633102,43.5301248 28.267767,46.8104326 28.267767,50.167767 C28.267767,66.5513079 44.9547535,80.067767 65.767767,80.067767 C67.0217576,80.067767 68.2654614,80.0185909 69.4951748,79.9208357 L70.4147787,79.8384199 L71.7623475,79.7039288 L72.6111205,80.7592078 C75.0452603,83.7855722 78.2853006,85.9036073 81.8768666,86.7941315 L82.277353,86.8880109 L81.1986366,91.7702615 C76.7733278,90.7925048 72.7643216,88.4097566 69.6516707,84.9878447 L69.595767,84.925767 L68.8682631,84.9761496 C68.1837999,85.016817 67.4960618,85.04398 66.8055507,85.0575701 L65.767767,85.067767 C42.3980005,85.067767 23.267767,69.5722778 23.267767,50.167767 C23.267767,46.1184396 24.1067182,42.1617933 25.7257884,38.4292901 Z M65.767767,15.267767 C89.1375334,15.267767 108.267767,30.7632561 108.267767,50.167767 C108.267767,57.5199811 105.499395,64.5161676 100.459693,70.3514644 L100.112563,70.7475172 L96.3764889,67.4246039 C100.845766,62.3996307 103.267767,56.4217293 103.267767,50.167767 C103.267767,33.784226 86.5807804,20.267767 65.767767,20.267767 C55.9985073,20.267767 46.8398904,23.2656709 39.9235715,28.5204259 L39.494236,28.85178 L36.4093441,24.9168795 C44.267459,18.7562574 54.6928225,15.267767 65.767767,15.267767 Z" id="Shape" fill="#000000" fill-rule="nonzero"></path>
    </g>
</svg>