<?xml version="1.0" encoding="UTF-8"?>
<svg   viewBox="0 0 116 116" version="1.1" xmlns="http://www.w3.org/2000/svg" xmlns:xlink="http://www.w3.org/1999/xlink">
    <title>chat</title>
    <g id="chat" stroke="none" stroke-width="1" fill="none" fill-rule="evenodd">
        <path d="M17.8683851,36.541434 L21.506823,39.9709776 L21.1636424,40.3408828 C16.5249801,45.4211496 14,51.516237 14,57.9 C14,67.8407891 20.1725148,77.0232667 30.3602963,82.5869512 L30.7993675,82.8231709 L32.8089507,83.8881745 L31.9138195,86.0481523 L31.7072428,86.509394 C30.4502096,89.2422982 28.735938,91.6787769 26.6646243,93.7053176 L26.2315283,94.117 L26.368032,94.165758 C28.0117554,94.7153797 29.736401,95 31.5,95 C36.4641312,95 41.1008708,92.7302359 44.3990623,88.8047743 L44.6566465,88.4914408 L45.5054195,87.4361619 L46.8529882,87.570653 L47.7725922,87.6530687 C49.0023056,87.750824 50.2460093,87.8 51.5,87.8 C53.8879097,87.8 56.2460094,87.6216803 58.5534054,87.2706293 L59.4162613,87.1308993 L60.2627953,92.0587162 L59.4024255,92.1988987 C57.1026045,92.553343 54.7594702,92.7526083 52.3898263,92.7925137 L51.5,92.8 L50.4622162,92.7898032 C50.0018755,92.7807431 49.5427672,92.7656506 49.0850401,92.7445461 L48.3995039,92.7083827 L47.6725283,92.658 L47.4293851,92.9232444 C43.2602017,97.4018916 37.5808871,100 31.5,100 C27.6268158,100 23.8937324,98.9488052 20.5863657,96.9816331 L20.1751828,96.7309756 L16.7806454,94.6107934 L20.1749964,92.4903127 L20.5437523,92.2533677 C22.7245492,90.81263 24.593852,88.8675661 26.0157916,86.5690016 L26.2771296,86.133915 L26.3315283,86.037 L25.8444146,85.7398277 C15.3862358,79.2422543 9,69.0529053 9,57.9 C9,50.2077463 12.0308554,42.9103001 17.5077354,36.9296031 L17.8683851,36.541434 Z M65.423267,15 C88.7930335,15 107.923267,30.4954891 107.923267,49.9 C107.923267,57.2522142 105.154895,64.2484006 100.115193,70.0836975 L99.7680627,70.4797503 L96.031989,67.1568369 C100.501267,62.1318638 102.923267,56.1539623 102.923267,49.9 C102.923267,33.5164591 86.2362805,20 65.423267,20 C44.6102535,20 27.923267,33.5164591 27.923267,49.9 C27.923267,66.2835409 44.6102535,79.8 65.423267,79.8 C66.6772577,79.8 67.9209614,79.750824 69.1506748,79.6530687 L70.0702788,79.570653 L71.4178475,79.4361619 L72.2666205,80.4914408 C75.578584,84.6092028 80.3285008,87 85.423267,87 C87.186866,87 88.9115116,86.7153797 90.555235,86.165758 L90.691267,86.117 L90.6511736,86.0804623 C88.403399,83.9821789 86.5516219,81.4131047 85.2160242,78.509394 L84.985036,77.9892468 L89.6041016,76.0750281 L89.6106292,76.0918706 C91.0868744,79.4777085 93.4526558,82.3197461 96.3795147,84.2533677 L96.7482706,84.4903127 L100.142622,86.6107934 L96.7480842,88.7309756 C93.3403817,90.8593807 89.4578338,92 85.423267,92 C79.3423799,92 73.6630653,89.4018916 69.4938819,84.9232444 L69.251267,84.658 L68.5237631,84.7083827 C67.8393,84.7490501 67.1515619,84.7762131 66.4610508,84.7898032 L65.423267,84.8 C42.0535005,84.8 22.923267,69.3045109 22.923267,49.9 C22.923267,30.4954891 42.0535005,15 65.423267,15 Z" id="Shape" fill="#000000" fill-rule="nonzero"></path>
    </g>
</svg>