<?xml version="1.0" encoding="UTF-8"?>
<svg width="128px" height="128px" viewBox="0 0 128 128" version="1.1" xmlns="http://www.w3.org/2000/svg" xmlns:xlink="http://www.w3.org/1999/xlink">
    <title>chat-off</title>
    <g id="chat-off" stroke="none" stroke-width="1" fill="none" fill-rule="evenodd">
        <path d="M17.767767,14.232233 L113.767767,110.232233 L110.232233,113.767767 L14.232233,17.767767 L17.767767,14.232233 Z M24.4451181,43.041434 L28.083556,46.4709776 L27.7403754,46.8408828 C23.1017131,51.9211496 20.576733,58.016237 20.576733,64.4 C20.576733,74.3407891 26.7492478,83.5232667 36.9370293,89.0869512 L37.3761005,89.3231709 L39.3856837,90.3881745 L38.4905525,92.5481523 L38.2839758,93.009394 C37.0269426,95.7422982 35.312671,98.1787769 33.2413573,100.205318 L32.8082613,100.617 L32.944765,100.665758 C34.5884884,101.21538 36.313134,101.5 38.076733,101.5 C43.0408642,101.5 47.6776038,99.2302359 50.9757953,95.3047743 L51.2333795,94.9914408 L52.0821525,93.9361619 L53.4297212,94.070653 L54.3493252,94.1530687 C55.5790386,94.250824 56.8227423,94.3 58.076733,94.3 C60.4646427,94.3 62.8227424,94.1216803 65.1301384,93.7706293 L65.9929943,93.6308993 L66.8395283,98.5587162 L65.9791585,98.6988987 C63.6793375,99.053343 61.3362032,99.2526083 58.9665593,99.2925137 L58.076733,99.3 L57.0389492,99.2898032 C56.5786085,99.2807431 56.1195002,99.2656506 55.6617731,99.2445461 L54.9762369,99.2083827 L54.2492613,99.158 L54.0061181,99.4232444 C49.8369347,103.901892 44.1576201,106.5 38.076733,106.5 C34.2035488,106.5 30.4704654,105.448805 27.1630987,103.481633 L26.7519158,103.230976 L23.3573784,101.110793 L26.7517294,98.9903127 L27.1204853,98.7533677 C29.3012822,97.31263 31.170585,95.3675661 32.5925246,93.0690016 L32.8538626,92.633915 L32.9082613,92.537 L32.4211476,92.2398277 C21.9629687,85.7422543 15.576733,75.5529053 15.576733,64.4 C15.576733,56.7077463 18.6075884,49.4103001 24.0844684,43.4296031 L24.4451181,43.041434 Z M31.9580214,44.6615232 L36.5450585,46.6512696 C35.1955432,49.7623579 34.5,53.0426657 34.5,56.4 C34.5,72.7835409 51.1869865,86.3 72,86.3 C73.2539907,86.3 74.4976944,86.250824 75.7274078,86.1530687 L76.6470118,86.070653 L77.9945805,85.9361619 L78.8433535,86.9914408 C81.2774934,90.0178053 84.5175336,92.1358403 88.1090997,93.0263645 L88.5095861,93.120244 L87.4308697,98.0024946 C83.0055609,97.0247379 78.9965546,94.6419896 75.8839037,91.2200778 L75.828,91.158 L75.1004961,91.2083827 C74.416033,91.2490501 73.7282949,91.2762131 73.0377838,91.2898032 L72,91.3 C48.6302335,91.3 29.5,75.8045109 29.5,56.4 C29.5,52.3506726 30.3389513,48.3940263 31.9580214,44.6615232 Z M72,21.5 C95.3697665,21.5 114.5,36.9954891 114.5,56.4 C114.5,63.7522142 111.731628,70.7484006 106.691926,76.5836975 L106.344796,76.9797503 L102.608722,73.6568369 C107.078,68.6318638 109.5,62.6539623 109.5,56.4 C109.5,40.0164591 92.8130135,26.5 72,26.5 C62.2307403,26.5 53.0721235,29.4979039 46.1558045,34.7526589 L45.726469,35.084013 L42.6415771,31.1491125 C50.499692,24.9884905 60.9250556,21.5 72,21.5 Z" id="Shape" fill="#000000" fill-rule="nonzero"></path>
    </g>
</svg>