<?xml version="1.0" encoding="UTF-8"?>
<svg   viewBox="0 0 128 128" version="1.1" xmlns="http://www.w3.org/2000/svg" xmlns:xlink="http://www.w3.org/1999/xlink">
    <title>chat</title>
    <g id="chat" stroke="none" stroke-width="1" fill="none" fill-rule="evenodd">
        <path d="M24.4451181,43.041434 L28.083556,46.4709776 L27.7403754,46.8408828 C23.1017131,51.9211496 20.576733,58.016237 20.576733,64.4 C20.576733,74.3407891 26.7492478,83.5232667 36.9370293,89.0869512 L37.3761005,89.3231709 L39.3856837,90.3881745 L38.4905525,92.5481523 L38.2839758,93.009394 C37.0269426,95.7422982 35.312671,98.1787769 33.2413573,100.205318 L32.8082613,100.617 L32.944765,100.665758 C34.5884884,101.21538 36.313134,101.5 38.076733,101.5 C43.0408642,101.5 47.6776038,99.2302359 50.9757953,95.3047743 L51.2333795,94.9914408 L52.0821525,93.9361619 L53.4297212,94.070653 L54.3493252,94.1530687 C55.5790386,94.250824 56.8227423,94.3 58.076733,94.3 C60.4646427,94.3 62.8227424,94.1216803 65.1301384,93.7706293 L65.9929943,93.6308993 L66.8395283,98.5587162 L65.9791585,98.6988987 C63.6793375,99.053343 61.3362032,99.2526083 58.9665593,99.2925137 L58.076733,99.3 L57.0389492,99.2898032 C56.5786085,99.2807431 56.1195002,99.2656506 55.6617731,99.2445461 L54.9762369,99.2083827 L54.2492613,99.158 L54.0061181,99.4232444 C49.8369347,103.901892 44.1576201,106.5 38.076733,106.5 C34.2035488,106.5 30.4704654,105.448805 27.1630987,103.481633 L26.7519158,103.230976 L23.3573784,101.110793 L26.7517294,98.9903127 L27.1204853,98.7533677 C29.3012822,97.31263 31.170585,95.3675661 32.5925246,93.0690016 L32.8538626,92.633915 L32.9082613,92.537 L32.4211476,92.2398277 C21.9629687,85.7422543 15.576733,75.5529053 15.576733,64.4 C15.576733,56.7077463 18.6075884,49.4103001 24.0844684,43.4296031 L24.4451181,43.041434 Z M72,21.5 C95.3697665,21.5 114.5,36.9954891 114.5,56.4 C114.5,63.7522142 111.731628,70.7484006 106.691926,76.5836975 L106.344796,76.9797503 L102.608722,73.6568369 C107.078,68.6318638 109.5,62.6539623 109.5,56.4 C109.5,40.0164591 92.8130135,26.5 72,26.5 C51.1869865,26.5 34.5,40.0164591 34.5,56.4 C34.5,72.7835409 51.1869865,86.3 72,86.3 C73.2539907,86.3 74.4976944,86.250824 75.7274078,86.1530687 L76.6470118,86.070653 L77.9945805,85.9361619 L78.8433535,86.9914408 C82.155317,91.1092028 86.9052338,93.5 92,93.5 C93.763599,93.5 95.4882446,93.2153797 97.131968,92.665758 L97.268,92.617 L97.2279066,92.5804623 C94.980132,90.4821789 93.1283549,87.9131047 91.7927572,85.009394 L91.561769,84.4892468 L96.1808346,82.5750281 L96.1873621,82.5918706 C97.6636074,85.9777085 100.029389,88.8197461 102.956248,90.7533677 L103.325004,90.9903127 L106.719355,93.1107934 L103.324817,95.2309756 C99.9171147,97.3593807 96.0345668,98.5 92,98.5 C85.9191129,98.5 80.2397983,95.9018916 76.0706149,91.4232444 L75.828,91.158 L75.1004961,91.2083827 C74.416033,91.2490501 73.7282949,91.2762131 73.0377838,91.2898032 L72,91.3 C48.6302335,91.3 29.5,75.8045109 29.5,56.4 C29.5,36.9954891 48.6302335,21.5 72,21.5 Z" id="Shape" fill="#000000" fill-rule="nonzero"></path>
    </g>
</svg>