<?xml version="1.0" encoding="UTF-8"?>
<svg  viewBox="0 0 117 116" version="1.1" xmlns="http://www.w3.org/2000/svg" xmlns:xlink="http://www.w3.org/1999/xlink">
    <title>chess-rook</title>
    <g id="chess-rook" stroke="none" stroke-width="1" fill="none" fill-rule="evenodd" transform="translate(0.000000, 0.000000)">
        <path d="M86.5,56 C87.2796961,56 87.9204487,55.4051119 87.9931334,54.64446 L88,54.5 L88,40 L96,40 L96,13 L85,13 L85,25 L68,25 L68,13 L49,13 L49,25 L32,25 L32,13 L21,13 L21,40 L74.5,40 L74.5,45 L29,45 L29,56 L37,56 L37,80 L74.5,80 L74.5,85 L32,85 L32,61 L28.5,61 C26.0857267,61 24.1155109,59.0987635 24.004898,56.7118357 L24,56.5 L24,45 L20.5,45 C18.0857267,45 16.1155109,43.0987635 16.004898,40.7118357 L16,40.5 L16,11.5 C16,9.6314366 17.4642776,8.10487355 19.3079648,8.00517886 L19.5,8 L33.5,8 C35.3685634,8 36.8951264,9.4642776 36.9948211,11.3079648 L37,11.5 L37,20 L44,20 L44,11.5 C44,9.6314366 45.4642776,8.10487355 47.3079648,8.00517886 L47.5,8 L69.5,8 C71.3685634,8 72.8951264,9.4642776 72.9948211,11.3079648 L73,11.5 L73,20 L80,20 L80,11.5 C80,9.6314366 81.4642776,8.10487355 83.3079648,8.00517886 L83.5,8 L97.5,8 C99.3685634,8 100.895126,9.4642776 100.994821,11.3079648 L101,11.5 L101,40.5 C101,42.9142733 99.0987635,44.8844891 96.7118357,44.995102 L96.5,45 L93,45 L93,54.5 C93,58.0118106 90.2150038,60.8731506 86.7331341,60.995897 L86.5,61 L85,61 L85,80.299 L85.2475656,80.3631381 C89.6263909,81.5471424 92.8706822,85.4927358 92.9962258,90.2157049 L93,90.5 L93,97 L30.5,97 C26.1578992,97 22.496184,99.9130771 21.3625992,103.891487 L21.333,104 L98.5,104 L98.5,109 L16,109 L16,106.5 C16,98.5972412 22.3221564,92.1711012 30.1846885,92.0033605 L30.5,92 L88,92 L88,90.5 C88,87.5365209 85.65622,85.1204609 82.7212071,85.0043672 L82.5,85 L80,85 L80,61 L50.5,61 L50.5,56 L86.5,56 Z" id="Path-331" fill="#000000" fill-rule="nonzero"></path>
    </g>
</svg>