<?xml version="1.0" encoding="UTF-8"?>
<svg  viewBox="0 0 117 116" version="1.1" xmlns="http://www.w3.org/2000/svg" xmlns:xlink="http://www.w3.org/1999/xlink">
    <title>chess-knight</title>
    <g id="chess-knight" stroke="none" stroke-width="1" fill="none" fill-rule="evenodd" transform="translate(0.000000, 0.000000)">
        <path d="M71.297059,16 C73.5490774,16 75.7884389,16.3367275 77.9408708,16.9990142 C89.7467663,20.6315974 96.4243461,33.0581294 92.9964223,44.8772549 L92.8894475,45.2352146 L87.719591,62.0372484 C85.9986158,67.6304178 85.0851643,73.4392086 85.005679,79.2877681 L85,80.299 L85.2475656,80.3631381 C89.6263909,81.5471424 92.8706822,85.4927358 92.9962258,90.2157049 L93,90.5 L93,97 L30.5,97 C26.1578992,97 22.496184,99.9130771 21.3625992,103.891487 L21.333,104 L98.5,104 L98.5,109 L16,109 L16,106.5 C16,98.5972412 22.3221564,92.1711012 30.1846885,92.0033605 L30.5,92 L88,92 L88,90.5 C88,87.5365209 85.65622,85.1204609 82.7212071,85.0043672 L82.5,85 L80,85 L80,80.1235281 C80,73.7827108 80.9068734,67.4759815 82.6918499,61.3946733 L82.9406959,60.5668192 L88.1105525,43.7647854 C90.9677328,34.4789493 85.7562776,24.6350896 76.4704416,21.7779093 C74.9619975,21.3137726 73.3987246,21.0549754 71.8227839,21.0078574 L71.297059,21 L59.163,21 L35.7712358,34.367243 C34.128976,35.3056772 33.0892702,37.0184657 33.0054792,38.8967044 L33,39.1425803 L33,41.8879613 C33,42.7163884 33.6715729,43.3879613 34.5,43.3879613 L34.6063335,43.3841876 L34.712132,43.3728855 L52.8885705,40.7762514 C55.3488735,40.4247796 57.6282675,42.134325 57.9797393,44.594628 C58.1514822,45.7968283 57.8297282,47.0137486 57.0942167,47.9715592 L56.9416213,48.1595853 L44.207638,63.0158992 C40.2307739,67.655574 37.7852002,73.3807782 37.1597544,79.4107095 L37.104,80 L66.5,80 L66.5,85 L32,85 L32,82.5 C32,74.3409577 34.8552158,66.4452038 40.060837,60.1773711 L40.411355,59.7619423 L52.281,45.913 L35.4192388,48.322633 C35.2162512,48.3516312 35.0120621,48.3709999 34.8073576,48.3806904 L34.5,48.3879613 C30.9881894,48.3879613 28.1268494,45.602965 28.004103,42.1210954 L28,41.8879613 L28,39.1425803 C28,35.4822404 29.9052802,32.0945192 33.013209,30.1901771 L33.2905411,30.0260273 L57.8360889,16 L71.297059,16 Z M71.297059,6.5 C74.0383195,6.5 76.7670981,6.8512312 79.4370433,7.55008668 L80.103277,7.73204064 L80.7346864,7.91911364 C97.1368726,12.9659402 106.616992,29.9960197 102.372961,46.5925265 L102.240146,47.0953054 L102.097072,47.6027389 L101.969348,48.0290302 L96.7994915,64.831064 L92.0205965,63.3606348 L97.1849672,46.5766727 L97.2955016,46.2087662 L97.4215372,45.7609104 C101.236284,31.7682872 93.4096171,17.2938726 79.7068373,12.8376805 L79.2898089,12.7057217 L78.709584,12.5338015 C76.4996097,11.9051361 74.2192553,11.5603435 71.9235113,11.5072438 L71.297059,11.5 L58.5,11.5 L58.5,6.5 L71.297059,6.5 Z" id="Shape" fill="#000000" fill-rule="nonzero"></path>
    </g>
</svg>