<?xml version="1.0" encoding="UTF-8"?>
<svg  viewBox="0 0 117 116" version="1.1" xmlns="http://www.w3.org/2000/svg" xmlns:xlink="http://www.w3.org/1999/xlink">
    <title>circle-triangle-square</title>
    <g id="circle-triangle-square" stroke="none" stroke-width="1" fill="none" fill-rule="evenodd" transform="translate(1.000000, 0.000000)">
        <path d="M55.3459571,15.2256054 C57.7689422,13.5295159 61.0840017,14.0586402 62.8647968,16.3848009 L63.0057756,16.5773381 L85.2438089,48.3459571 C85.8909305,49.2704166 86.2380333,50.3715534 86.2380333,51.5 C86.2380333,54.4634791 83.8942533,56.8795391 80.9592405,56.9956328 L80.7380333,57 L62,57 L62,52 L80.7380333,52 C81.0141757,52 81.2380333,51.7761424 81.2380333,51.5 C81.2380333,51.4230605 81.2202837,51.3475174 81.1865904,51.2790995 L81.1476493,51.2132688 L58.909616,19.4446498 C58.7512587,19.2184252 58.4394935,19.1634078 58.2132688,19.321765 L58.1464466,19.3778276 L58.090384,19.4446498 L35.8523507,51.2132688 C35.6939935,51.4394935 35.7490109,51.7512587 35.9752355,51.909616 C36.0382668,51.9537379 36.1103328,51.9825179 36.1857048,51.9941504 L36.2619667,52 L57,52 L57,65 L22.5,65 C19.5365209,65 17.1204609,67.34378 17.0043672,70.2787929 L17,70.5 L17,94.5 C17,97.4634791 19.34378,99.8795391 22.2787929,99.9956328 L22.5,100 L46.5,100 C49.4634791,100 51.8795391,97.65622 51.9956328,94.7212071 L52,94.5 L52,74.5 L57,74.5 L57,89.031 L57.1428467,88.9930689 C57.5548231,88.8865846 57.979551,88.8012146 58.412266,88.7379299 L58.6728153,88.7026171 C62.2776201,88.2524564 65.7916335,89.4268732 68.0222877,92.3502315 L68.2215059,92.6208128 C71.4859553,97.216798 76.7572458,100 82.5,100 C92.1649831,100 100,92.1649831 100,82.5 C100,72.8350169 92.1649831,65 82.5,65 C79.0501243,65 75.7546951,65.9975575 72.9326452,67.8440782 C68.1242382,70.99031 65.1293553,76.2889244 65.0040902,82.1190383 L65,82.5 L60,82.5 C60,74.8153918 63.8848867,67.7889715 70.1950128,63.6601364 C73.8247553,61.2851271 78.0701702,60 82.5,60 C94.9264069,60 105,70.0735931 105,82.5 C105,94.9264069 94.9264069,105 82.5,105 C75.120378,105 68.3376301,101.41876 64.1451353,95.5161889 C63.0926631,94.034424 61.3077732,93.4124044 59.2923928,93.664081 C58.4391177,93.7706362 57.6577231,94.0343227 57.1442095,94.3563952 L57.0504101,94.4179722 L57,94.453 L57,94.5 C57,100.203924 52.451858,104.845573 46.7842951,104.996226 L46.5,105 L22.5,105 C16.7960755,105 12.1544266,100.451858 12.0037742,94.7842951 L12,94.5 L12,70.5 C12,64.7960755 16.548142,60.1544266 22.2157049,60.0037742 L22.5,60 L52,60 L52,57 L36.2619667,57 C35.2275573,57 34.2160957,56.7083372 33.342633,56.1612783 L33.1079238,56.0057756 C30.6849387,54.309686 30.0474177,51.0137553 31.6235382,48.5443223 L31.7561911,48.3459571 L53.9942244,16.5773381 C54.3624435,16.0513108 54.8199298,15.5938245 55.3459571,15.2256054 Z" id="Path" fill="#000000" fill-rule="nonzero"></path>
    </g>
</svg>