<?xml version="1.0" encoding="UTF-8"?>
<svg  viewBox="0 0 117 116" version="1.1" xmlns="http://www.w3.org/2000/svg" xmlns:xlink="http://www.w3.org/1999/xlink">
    <title>circle-half-filled</title>
    <g id="circle-half-filled" stroke="none" stroke-width="1" fill="none" fill-rule="evenodd" transform="translate(1.000000, 0.000000)">
        <path d="M58.5,8 C86.3903799,8 109,30.6096201 109,58.5 C109,86.1114761 86.8403113,108.54728 59.3351098,108.993234 L58.5,109 L56,109 L56,93 L34.5,93 L34.5,88 L56,88 L56,81 L26.5,81 L26.5,76 L56,76 L56,69 L18.5,69 L18.5,64 L56,64 L56,57 L14.5,57 L14.5,52 L56,52 L56,45 L18.5,45 L18.5,40 L56,40 L56,33 L26.5,33 L26.5,28 L56,28 L56,21 L42.5,21 L42.5,16 L61,16 L61,103.931 L61.4916375,103.903218 C84.9788125,102.378751 103.608338,83.0330504 103.993904,59.2524257 L104,58.5 C104,33.3710439 83.6289561,13 58.5,13 C33.3710439,13 13,33.3710439 13,58.5 C13,77.5733411 24.8445699,94.407697 42.3535637,101.052641 L42.8858667,101.250876 L41.170093,105.94727 C21.4122899,98.7289838 8,79.8824499 8,58.5 C8,30.6096201 30.6096201,8 58.5,8 Z" id="Path" fill="#000000" fill-rule="nonzero"></path>
    </g>
</svg>