<?xml version="1.0" encoding="UTF-8"?>
<svg  viewBox="0 0 116 116" version="1.1" xmlns="http://www.w3.org/2000/svg" xmlns:xlink="http://www.w3.org/1999/xlink">
    <title>clipboard</title>
    <g id="clipboard" stroke="none" stroke-width="1" fill="none" fill-rule="evenodd">
        <path d="M77,29 L52,29 L52,18.5 L52.0188938,18.5006709 C52.2077367,16.0148485 53.7947951,13.9197666 55.9954173,13.0000765 L50.5,13 L50.2787929,13.0043672 C47.4190368,13.1174841 45.1205826,15.4141325 45.0045933,18.2731493 L45,18.5 L45,24 L46,24 L46,29 L40,29 L40,21 L25,21 C22.9818539,21 21.1236992,22.6079407 21.0059183,24.3277061 L21,24.5 L21,100 C21,101.874421 22.9436285,103.87485 24.8239651,103.994367 L25,104 L58.5,104 L58.5,109 L25,109 C20.3894086,109 16.1538947,104.846818 16.0040966,100.251093 L16,100 L16,24.5 C16,19.9101627 20.1162158,16.1369382 24.7469271,16.0036438 L25,16 L40.2993409,16.0004292 C41.3983206,11.5000461 45.397904,8.13680167 50.2047146,8.00407205 L50.5,8 L66.5,8 L66.7842951,8.00377424 C71.5959987,8.13167654 75.6008419,11.4966167 76.7006591,16.0004292 L92,16 C96.7122811,16 100.847058,19.2130519 100.995856,23.7467795 L101,24 L101,98.5 C101,104.203924 96.451858,108.845573 90.7842951,108.996226 L90.5,109 L90.5,104 C93.4634791,104 95.8795391,101.65622 95.9956328,98.7212071 L96,98.5 L96,24 C96,22.4354792 94.3731236,21.0923653 92.2241272,21.0045627 L92,21 L77,21 L77,29 Z M66.5,13 L61.0045827,13 C63.351099,13.980739 65,16.2978088 65,19 C65,20.1409113 64.7034721,21.2432673 64.1507926,22.2136674 L63.9937412,22.4749802 L59.7696781,19.7996689 C59.9198619,19.5625429 60,19.2903205 60,19 C60,18.1715729 59.3284271,17.5 58.5,17.5 C57.7203039,17.5 57.0795513,18.0948881 57.0068666,18.85554 L57,19 L57,24 L72,24 L72,18.5 L71.9956328,18.2787929 C71.8825159,15.4190368 69.5858675,13.1205826 66.7268507,13.0045933 L66.5,13 Z" id="Shape" fill="#000000" fill-rule="nonzero"></path>
    </g>
</svg>