<?xml version="1.0" encoding="UTF-8"?>
<svg  viewBox="0 0 116 116" version="1.1" xmlns="http://www.w3.org/2000/svg" xmlns:xlink="http://www.w3.org/1999/xlink">
    <title>clock</title>
    <g id="clock" stroke="none" stroke-width="1" fill="none" fill-rule="evenodd">
        <path d="M55.5,8.10448139 C58.4634692,8.10448139 60.8795223,10.4482497 60.9956316,13.3832647 L61,13.6044814 L61,55.7661315 C61,58.358468 59.4609757,60.6938816 57.0996956,61.7236479 L56.8608533,61.8222335 L29.9080205,72.32927 L28.0919795,67.67073 L55.0448123,57.1636935 C55.5764643,56.9564393 55.9404927,56.4677131 55.9933512,55.9075413 L56,55.7661315 L56,13.6044814 C56,13.3590229 55.8231221,13.1548733 55.5898748,13.1125371 L55.4862252,13.1046712 L55.2368629,13.1189041 L54.8129472,13.1475842 C54.7475873,13.1525076 54.6848869,13.1575003 54.6248656,13.1625587 C31.1743158,15.1389338 13,34.8130911 13,58.5 C13,83.6289561 33.3710439,104 58.5,104 C83.6289561,104 104,83.6289561 104,58.5 C104,38.523685 91.0107339,21.0757027 72.3013888,15.1300962 L71.7326956,14.9534563 L73.1846015,10.168901 C94.2920041,16.5740861 109,36.1045765 109,58.5 C109,86.3903799 86.3903799,109 58.5,109 C30.6096201,109 8,86.3903799 8,58.5 C8,32.2091474 28.1702047,10.3743898 54.2049622,8.18022183 L54.6716373,8.14496129 L55.1970649,8.11283044 C55.2979474,8.10726546 55.3989641,8.10448139 55.5,8.10448139 Z" id="Path" fill="#000000" fill-rule="nonzero"></path>
    </g>
</svg>