<?xml version="1.0" encoding="UTF-8"?>
<svg  viewBox="0 0 116 116" version="1.1" xmlns="http://www.w3.org/2000/svg" xmlns:xlink="http://www.w3.org/1999/xlink">
    <title>closed-captions</title>
    <g id="closed-captions" stroke="none" stroke-width="1" fill="none" fill-rule="evenodd">
        <path d="M82.5,24 C86.0118106,24 88.8731506,26.7849962 88.995897,30.2668659 L89,30.5 L89,45 L78.5,45 C71.0441559,45 65,51.0441559 65,58.5 C65,65.8522907 70.8774286,71.8318345 78.1901692,71.9965146 L78.5,72 L86.5,72 L86.5,77 L78.5,77 C68.2827321,77 60,68.7172679 60,58.5 C60,48.3950098 68.1016943,40.1822717 78.1638763,40.0029922 L78.5,40 L84,40 L84,30.5 C84,29.7203039 83.4051119,29.0795513 82.64446,29.0068666 L82.5,29 L18.5,29 C15.5365209,29 13.1204609,31.34378 13.0043672,34.2787929 L13,34.5 L13,82.5 C13,85.4634791 15.34378,87.8795391 18.2787929,87.9956328 L18.5,88 L98.5,88 C101.463479,88 103.879539,85.65622 103.995633,82.7212071 L104,82.5 L104,34 C104,31.3112453 101.877693,29.1181819 99.2168896,29.0046195 L99,29 L99,24 C104.42924,24 108.847932,28.3266708 108.996158,33.7200952 L109,34 L109,82.5 C109,88.2039245 104.451858,92.8455734 98.7842951,92.9962258 L98.5,93 L18.5,93 C12.7960755,93 8.15442656,88.451858 8.00377424,82.7842951 L8,82.5 L8,34.5 C8,28.7960755 12.548142,24.1544266 18.2157049,24.0037742 L18.5,24 L82.5,24 Z M54.5,40 L54.5,45 L46.5,45 C39.0441559,45 33,51.0441559 33,58.5 C33,65.8522907 38.8774286,71.8318345 46.1901692,71.9965146 L46.5,72 L54.5,72 L54.5,77 L46.5,77 C36.2827321,77 28,68.7172679 28,58.5 C28,48.3950098 36.1016943,40.1822717 46.1638763,40.0029922 L46.5,40 L54.5,40 Z" id="Shape" fill="#000000" fill-rule="nonzero"></path>
    </g>
</svg>