<?xml version="1.0" encoding="UTF-8"?>
<svg  viewBox="0 0 116 116" version="1.1" xmlns="http://www.w3.org/2000/svg" xmlns:xlink="http://www.w3.org/1999/xlink">
    <title>closed-captions-off</title>
    <g id="closed-captions-off" stroke="none" stroke-width="1" fill="none" fill-rule="evenodd">
        <path d="M12.267767,8.73223305 L108.267767,104.732233 L104.732233,108.267767 L8.73223305,12.267767 L12.267767,8.73223305 Z M99,24 C104.42924,24 108.847932,28.3266708 108.996158,33.7200952 L109,34 L109,82.5 C109,88.2039245 104.451858,92.8455734 98.7842951,92.9962258 L98.5,93 L98.5,88 C101.463479,88 103.879539,85.65622 103.995633,82.7212071 L104,82.5 L104,34 C104,31.3112453 101.877693,29.1181819 99.2168896,29.0046195 L99,29 L99,24 Z M18.5,24 L18.5,29 C15.5365209,29 13.1204609,31.34378 13.0043672,34.2787929 L13,34.5 L13,82.5 C13,85.4634791 15.34378,87.8795391 18.2787929,87.9956328 L18.5,88 L82.5,88 L82.5,93 L18.5,93 C12.7960755,93 8.15442656,88.451858 8.00377424,82.7842951 L8,82.5 L8,34.5 C8,28.7010101 12.7010101,24 18.5,24 Z M32.8526022,46.0099188 L36.5402724,49.3864685 C34.2756973,51.859705 33,55.0769804 33,58.5 C33,65.8522907 38.8774286,71.8318345 46.1901692,71.9965146 L46.5,72 L54.5,72 L54.5,77 L46.5,77 C36.2827321,77 28,68.7172679 28,58.5 C28,53.8146415 29.7519497,49.3962701 32.8526022,46.0099188 Z M86.5,72 L86.5,77 L82.5,77 L82.5,72 L86.5,72 Z M82.5,24 C86.0118106,24 88.8731506,26.7849962 88.995897,30.2668659 L89,30.5 L89,45 L78.5,45 C72.6935996,45 67.6009417,48.6993659 65.7390986,54.0809341 L65.6390027,54.381628 L60.8767556,52.8581443 C63.2708258,45.3745371 70.1789893,40.162327 78.1267028,40.0037226 L78.5,40 L84,40 L84,30.5 C84,29.7203039 83.4051119,29.0795513 82.64446,29.0068666 L82.5,29 L34.5,29 L34.5,24 L82.5,24 Z M54.5,40 L54.5,45 L50.5,45 L50.5,40 L54.5,40 Z" id="Shape" fill="#000000" fill-rule="nonzero"></path>
    </g>
</svg>