<?xml version="1.0" encoding="UTF-8"?>
<svg  viewBox="0 0 116 116" version="1.1" xmlns="http://www.w3.org/2000/svg" xmlns:xlink="http://www.w3.org/1999/xlink">
    <title>cloud-sun</title>
    <g id="cloud-sun" stroke="none" stroke-width="1" fill="none" fill-rule="evenodd">
        <path d="M84,10.5 L84.0009953,16.1731682 C87.2344657,16.6174675 90.2014899,17.8973553 92.6771931,19.7879568 L95.732233,16.732233 L99.267767,20.267767 L96.2063035,23.3280438 C98.0858489,25.8052031 99.3555622,28.7704751 99.7918192,32.0002357 L105.5,32 L105.5,37 L99.7908013,37.0006224 C99.3432158,40.3004053 98.0197813,43.3698997 96.0126505,45.9250367 L99.281417,49.2459894 L95.718583,52.7540106 L92.420511,49.4051045 C92.0415461,49.6839165 91.6506681,49.9493028 91.2484348,50.2004387 L90.8424371,50.4467938 L88.3032805,46.1395112 L88.5930111,45.9638311 C92.5167281,43.51749 94.9592707,39.2221367 94.9592707,34.5 C94.9592707,27.0441559 88.9151148,21 81.4592707,21 C75.424238,21 70.2171849,24.9895046 68.530529,30.5981917 C77.204312,34.5505129 84.0263266,42.0048976 87.051063,51.3259896 L87.2067429,51.8182882 L87.2825586,52.068 L87.454883,52.1088417 C97.4566752,54.481652 104.734585,63.4700873 104.734585,74 C104.734585,85.3170299 96.3793592,94.6825922 85.5009654,96.2646291 L85.5,96.5 L33.5,96.5 L33.061774,96.4964498 C18.6283515,96.2624338 7,84.4891904 7,70 C7,55.3644541 18.8644541,43.5 33.5,43.5 C36.2734821,43.5 38.9917587,43.9270136 41.582195,44.7557815 L42.1353052,44.9395147 L40.5066596,49.6668304 L39.9891169,49.495894 C37.9103344,48.8386511 35.7296778,48.5 33.5,48.5 C21.6258779,48.5 12,58.1258779 12,70 C12,81.7553809 21.4343229,91.3072576 33.1444582,91.4971196 L33.5,91.5 L82.234585,91.5 L82.5633553,91.4969736 C92.0766249,91.3216951 99.734585,83.5551538 99.734585,74 C99.734585,65.4448038 93.5550796,58.1955672 85.2443666,56.7574084 L84.9062882,56.7022993 L83.2613108,56.4506097 L82.858678,54.8359316 L82.7565705,54.4382476 C79.3696277,41.6177785 67.7144641,32.5 54.234585,32.5 C46.662824,32.5 39.5476688,35.3617842 34.127934,40.4133948 L33.7691436,40.7534056 L30.2999737,37.1527307 L30.6780035,36.7939132 C36.8919898,30.983382 45.0319248,27.6356177 53.703048,27.5040314 L54.234585,27.5 L54.7117522,27.5032582 C57.8620939,27.5462982 60.9235841,28.0148904 63.8356358,28.8581511 C64.4836062,26.8271995 65.4699032,24.9568654 66.7246752,23.3081403 L63.718583,20.2540106 L67.281417,16.7459894 L70.2620155,19.7728672 C72.7644636,17.8699198 75.7589582,16.594842 79.0008286,16.1627011 L79,10.5 L84,10.5 Z" id="Path" fill="#000000" fill-rule="nonzero"></path>
    </g>
</svg>