<?xml version="1.0" encoding="UTF-8"?>
<svg   viewBox="0 0 128 128" version="1.1" xmlns="http://www.w3.org/2000/svg" xmlns:xlink="http://www.w3.org/1999/xlink">
    <title>cloud-off</title>
    <g id="cloud-off" stroke="none" stroke-width="1" fill="none" fill-rule="evenodd">
        <path d="M17.767767,14.232233 L113.767767,110.232233 L110.232233,113.767767 L14.232233,17.767767 L17.767767,14.232233 Z M34.0477166,46.8690836 L38.385897,49.3550825 C37.148491,51.5144118 36.1890547,53.8227399 35.5334605,56.2316395 L35.375907,56.8359316 L34.9732742,58.4506097 L33.3282968,58.7022993 C24.8476475,59.9998803 18.5,67.3291931 18.5,76 C18.5,85.5551538 26.1579601,93.3216951 35.6712297,93.4969736 L36,93.5 L36,98.5 C23.5735931,98.5 13.5,88.4264069 13.5,76 C13.5,65.5954434 20.6056576,56.6958808 30.4236609,54.1963892 L30.953,54.068 L31.0751176,53.6676063 C31.7504446,51.5133422 32.6359704,49.4348588 33.7174187,47.4588014 L34.0477166,46.8690836 Z M80,93.5 L80,98.5 L36,98.5 L36,93.5 L80,93.5 Z M88,45.5 C102.635546,45.5 114.5,57.3644541 114.5,72 C114.5,79.0848111 111.703107,85.7308165 106.821469,90.6548554 L106.492945,90.9805596 L103.003449,87.3995801 C107.131786,83.3767092 109.5,77.8797461 109.5,72 C109.5,60.1258779 99.8741221,50.5 88,50.5 C85.7703222,50.5 83.5896656,50.8386511 81.5108831,51.495894 L80.9933404,51.6668304 L79.3646948,46.9395147 C82.1201977,45.9901942 85.0284121,45.5 88,45.5 Z M64,29.5 C72.8696158,29.5 81.2157792,32.8647997 87.5565815,38.7939132 L87.9346113,39.1527307 L84.4654414,42.7534056 C79.0029198,37.4903879 71.7400224,34.5 64,34.5 C58.9511055,34.5 54.0925466,35.7679982 49.7756107,38.1491493 L49.2981979,38.4182947 L46.8024148,34.0857357 C51.9912534,31.0966903 57.882194,29.5 64,29.5 Z" id="Shape" fill="#000000" fill-rule="nonzero"></path>
    </g>
</svg>