<?xml version="1.0" encoding="UTF-8"?>
<svg  viewBox="0 0 116 116" version="1.1" xmlns="http://www.w3.org/2000/svg" xmlns:xlink="http://www.w3.org/1999/xlink">
    <title>cloud-off</title>
    <g id="cloud-off" stroke="none" stroke-width="1" fill="none" fill-rule="evenodd">
        <path d="M11.767767,8.23223305 L107.767767,104.232233 L104.232233,107.767767 L8.23223305,11.767767 L11.767767,8.23223305 Z M28.0477166,40.8690836 L32.385897,43.3550825 C31.148491,45.5144118 30.1890547,47.8227399 29.5334605,50.2316395 L29.375907,50.8359316 L28.9732742,52.4506097 L27.3282968,52.7022993 C18.8476475,53.9998803 12.5,61.3291931 12.5,70 C12.5,79.5551538 20.1579601,87.3216951 29.6712297,87.4969736 L30,87.5 L30,92.5 C17.5735931,92.5 7.5,82.4264069 7.5,70 C7.5,59.5954434 14.6056576,50.6958808 24.4236609,48.1963892 L24.953,48.068 L25.0751176,47.6676063 C25.7504446,45.5133422 26.6359704,43.4348588 27.7174187,41.4588014 L28.0477166,40.8690836 Z M74,87.5 L74,92.5 L30,92.5 L30,87.5 L74,87.5 Z M82,39.5 C96.6355459,39.5 108.5,51.3644541 108.5,66 C108.5,73.0848111 105.703107,79.7308165 100.821469,84.6548554 L100.492945,84.9805596 L97.0034489,81.3995801 C101.131786,77.3767092 103.5,71.8797461 103.5,66 C103.5,54.1258779 93.8741221,44.5 82,44.5 C79.7703222,44.5 77.5896656,44.8386511 75.5108831,45.495894 L74.9933404,45.6668304 L73.3646948,40.9395147 C76.1201977,39.9901942 79.0284121,39.5 82,39.5 Z M58,23.5 C66.8696158,23.5 75.2157792,26.8647997 81.5565815,32.7939132 L81.9346113,33.1527307 L78.4654414,36.7534056 C73.0029198,31.4903879 65.7400224,28.5 58,28.5 C52.9511055,28.5 48.0925466,29.7679982 43.7756107,32.1491493 L43.2981979,32.4182947 L40.8024148,28.0857357 C45.9912534,25.0966903 51.882194,23.5 58,23.5 Z" id="Shape" fill="#000000" fill-rule="nonzero"></path>
    </g>
</svg>