<?xml version="1.0" encoding="UTF-8"?>
<svg  viewBox="0 0 116 116" version="1.1" xmlns="http://www.w3.org/2000/svg" xmlns:xlink="http://www.w3.org/1999/xlink">
    <title>clown</title>
    <g id="clown" stroke="none" stroke-width="1" fill="none" fill-rule="evenodd" transform="translate(0.000000, 0.000000)">
        <path d="M84,69.5 C92.0081289,69.5 98.5,75.9918711 98.5,84 C98.5,88.3698218 96.5515011,92.4232756 93.2642832,95.1549531 L93.071,95.31 L92.6855584,95.6697651 C83.5869859,104.043467 71.7381337,108.841073 59.1309804,108.996121 L58.5,109 C46.4480286,109 35.0454138,104.760228 26.0183089,97.1691422 L25.2947891,96.5478899 L25.2947891,96.5478899 C23.0141314,94.5415482 22.791754,91.0662485 24.7980954,88.7855905 L24.900743,88.6721305 L25.0065068,88.5615696 L29.2936932,84.2029509 C31.2791063,82.1844555 34.4725309,82.0030209 36.6737919,83.7836496 L37.3993674,84.3650199 L37.8060363,84.6841502 C44.2148186,89.659151 50.0118184,92 58.5,92 C68.0155752,92 74.9447876,88.6001646 81.9356823,82.4871556 L82.3390904,82.1314767 L85.6609096,85.8685233 C77.7031222,92.9421121 69.6470212,97 58.5,97 C48.9921617,97 42.2449852,94.3538193 35.1819054,88.9736032 L34.5274761,88.4678666 L33.5292353,87.6710348 L33.5292353,87.6710348 C33.354135,87.5293939 33.109978,87.524317 32.9307588,87.6481916 L32.858317,87.7091535 L28.5521834,92.0881385 C28.3697888,92.295471 28.3900049,92.6114074 28.5973373,92.793802 L28.8097899,92.9792055 C37.0106295,100.047728 47.4463275,104 58.5,104 C70.0654588,104 80.9452919,99.6701609 89.2791448,92.009546 L89.7079262,91.6103421 L89.8753361,91.4659193 C92.149576,89.6730813 93.5,86.95033 93.5,84 C93.5,78.7532949 89.2467051,74.5 84,74.5 C81.5550582,74.5 79.2623212,75.4247841 77.4708554,77.1005795 L77.2297045,77.3337358 L76.767767,77.767767 C71.9568756,82.5786583 65.7951922,85 58.5,85 C51.3753002,85 45.3305592,82.6896296 40.6193644,78.1473611 L40.2851218,77.8191187 L39.7183091,77.2832804 C37.9465233,75.5110785 35.556467,74.5 33,74.5 C27.8437553,74.5 23.6469606,78.6078939 23.5037764,83.7295213 L23.5,84 L18.5,84 C18.5,75.9918711 24.9918711,69.5 33,69.5 C36.7665069,69.5 40.3099435,70.9458871 42.933111,73.435364 L43.2011618,73.6966022 L43.7676644,74.2321305 C47.616823,78.0808424 52.5003793,80 58.5,80 C64.3337681,80 69.1111195,78.1863359 72.9575932,74.501417 L73.2850141,74.1809828 L73.7469517,73.7469517 C76.4470576,71.0468458 80.1042117,69.5 84,69.5 Z M82.5,16 C92.6049902,16 100.817728,24.1016943 100.997008,34.1638763 L101,34.5 L101,42.5 C101,48.2039245 96.451858,52.8455734 90.7842951,52.9962258 L90.5,53 L69,53 L69,58.5 C69,64.2039245 64.451858,68.8455734 58.7842951,68.9962258 L58.5,69 C52.7010101,69 48,64.2989899 48,58.5 C48,52.7960755 52.548142,48.1544266 58.2157049,48.0037742 L58.5,48 L58.5,53 C55.4624339,53 53,55.4624339 53,58.5 C53,61.5375661 55.4624339,64 58.5,64 C61.4634791,64 63.8795391,61.65622 63.9956328,58.7212071 L64,58.5 L64,48 L90.5,48 C93.4634791,48 95.8795391,45.65622 95.9956328,42.7212071 L96,42.5 L96,34.5 C96,27.0441559 89.9558441,21 82.5,21 C75.1477093,21 69.1681655,26.8774286 69.0034854,34.1901692 L69,34.5 L69,42.5 L64,42.5 L64,34.5 C64,24.2827321 72.2827321,16 82.5,16 Z M34.5,16 C44.6049902,16 52.8177283,24.1016943 52.9970078,34.1638763 L53,34.5 L53,42.5 L48,42.5 L48,34.5 C48,27.0441559 41.9558441,21 34.5,21 C27.1477093,21 21.1681655,26.8774286 21.0034854,34.1901692 L21,34.5 L21,42.5 C21,45.4634791 23.34378,47.8795391 26.2787929,47.9956328 L26.5,48 L42.5,48 L42.5,53 L26.5,53 C20.7960755,53 16.1544266,48.451858 16.0037742,42.7842951 L16,42.5 L16,34.5 C16,24.2827321 24.2827321,16 34.5,16 Z M86.5,32 L86.5,37 L78.5,37 L78.5,32 L86.5,32 Z M38.5,32 L38.5,37 L30.5,37 L30.5,32 L38.5,32 Z" id="Shape" fill="#000000" fill-rule="nonzero"></path>
    </g>
</svg>