<?xml version="1.0" encoding="UTF-8"?>
<svg width="128px" height="128px" viewBox="0 0 128 128" version="1.1" xmlns="http://www.w3.org/2000/svg" xmlns:xlink="http://www.w3.org/1999/xlink">
    <title>comment-off</title>
    <g id="comment-off" stroke="none" stroke-width="1" fill="none" fill-rule="evenodd">
        <path d="M17.767767,14.232233 L113.767767,110.232233 L110.232233,113.767767 L14.232233,17.767767 L17.767767,14.232233 Z M18.5,30 L18.5,82 C18.5,83.8685634 19.9642776,85.3951264 21.8079648,85.4948211 L22,85.5 L73.0596217,85.5 L88.7965054,101.761446 L85.2034946,105.238554 L70.94,90.5 L22,90.5 C17.3909327,90.5 13.6386785,86.831547 13.5037566,82.2551603 L13.5,82 L13.5,30 L18.5,30 Z M106,21.5 C110.609067,21.5 114.361321,25.168453 114.496243,29.7448397 L114.5,30 L114.5,82 C114.5,86.6090673 110.831547,90.3613215 106.25516,90.4962434 L106,90.5 L96,90.5 L96,85.5 L106,85.5 C107.868563,85.5 109.395126,84.0357224 109.494821,82.1920352 L109.5,82 L109.5,30 C109.5,28.1314366 108.035722,26.6048736 106.192035,26.5051789 L106,26.5 L32,26.5 L32,21.5 L106,21.5 Z M56,61.5 L56,66.5 L36,66.5 C35.1715729,66.5 34.5,67.1715729 34.5,68 C34.5,68.7796961 35.0948881,69.4204487 35.85554,69.4931334 L36,69.5 L56.5,69.5 C61.9292399,69.5 66.3479317,73.8266708 66.4961582,79.2200952 L66.5,79.5 L61.5,79.5 C61.5,76.8112453 59.3776933,74.6181819 56.7168896,74.5046195 L56.5,74.5 L36,74.5 C32.4101491,74.5 29.5,71.5898509 29.5,68 C29.5,64.4881894 32.2849962,61.6268494 35.7668659,61.504103 L36,61.5 L56,61.5 Z M91.5,53.5 C95.0898509,53.5 98,56.4101491 98,60 C98,63.5118106 95.2150038,66.3731506 91.7331341,66.495897 L91.5,66.5 L72.5,66.5 L72.5,61.5 L91.5,61.5 C92.3284271,61.5 93,60.8284271 93,60 C93,59.2203039 92.4051119,58.5795513 91.64446,58.5068666 L91.5,58.5 L64,58.5 L64,53.5 L91.5,53.5 Z M40,45.5 L40,50.5 L36,50.5 C35.1715729,50.5 34.5,51.1715729 34.5,52 C34.5,52.7796961 35.0948881,53.4204487 35.85554,53.4931334 L36,53.5 L48,53.5 L48,58.5 L36,58.5 C32.4101491,58.5 29.5,55.5898509 29.5,52 C29.5,48.4881894 32.2849962,45.6268494 35.7668659,45.504103 L36,45.5 L40,45.5 Z M92,37.5 C95.5898509,37.5 98.5,40.4101491 98.5,44 C98.5,47.5118106 95.7150038,50.3731506 92.2331341,50.495897 L92,50.5 L56,50.5 L56,45.5 L92,45.5 C92.8284271,45.5 93.5,44.8284271 93.5,44 C93.5,43.2203039 92.9051119,42.5795513 92.14446,42.5068666 L92,42.5 L48,42.5 L48,37.5 L92,37.5 Z" id="Shape" fill="#000000" fill-rule="nonzero"></path>
    </g>
</svg>