<?xml version="1.0" encoding="UTF-8"?>
<svg  viewBox="0 0 116 116" version="1.1" xmlns="http://www.w3.org/2000/svg" xmlns:xlink="http://www.w3.org/1999/xlink">
    <title>comment</title>
    <g id="comment" stroke="none" stroke-width="1" fill="none" fill-rule="evenodd">
        <path d="M100,15.5 C104.609067,15.5 108.361321,19.168453 108.496243,23.7448397 L108.5,24 L108.5,76 C108.5,80.6090673 104.831547,84.3613215 100.25516,84.4962434 L100,84.5 L90,84.5 L90,79.5 L100,79.5 C101.868563,79.5 103.395126,78.0357224 103.494821,76.1920352 L103.5,76 L103.5,24 C103.5,22.1314366 102.035722,20.6048736 100.192035,20.5051789 L100,20.5 L16,20.5 C14.1314366,20.5 12.6048736,21.9642776 12.5051789,23.8079648 L12.5,24 L12.5,76 C12.5,77.8685634 13.9642776,79.3951264 15.8079648,79.4948211 L16,79.5 L67.0355339,79.5 L79.5,91.965 L79.5,82 L84.5,82 L84.5,95.5857864 C84.5,96.5140442 84.1312511,97.4042828 83.4748737,98.0606602 C82.1568542,99.3786797 80.0491693,99.4257518 78.6747452,98.2018765 L78.5251263,98.0606602 L64.965,84.5 L16,84.5 C11.3909327,84.5 7.63867855,80.831547 7.5037566,76.2551603 L7.5,76 L7.5,24 C7.5,19.3909327 11.168453,15.6386785 15.7448397,15.5037566 L16,15.5 L100,15.5 Z M82.5,32 C88.2989899,32 93,36.7010101 93,42.5 C93,48.2039245 88.451858,52.8455734 82.7842951,52.9962258 L82.5,53 L34.5,53 C31.4624339,53 29,55.4624339 29,58.5 C29,61.4634791 31.34378,63.8795391 34.2787929,63.9956328 L34.5,64 L82.5,64 C88.2039245,64 92.8455734,68.548142 92.9962258,74.2157049 L93,74.5 L88,74.5 C88,71.5365209 85.65622,69.1204609 82.7212071,69.0043672 L82.5,69 L34.5,69 C28.7010101,69 24,64.2989899 24,58.5 C24,52.7960755 28.548142,48.1544266 34.2157049,48.0037742 L34.5,48 L82.5,48 C85.5375661,48 88,45.5375661 88,42.5 C88,39.5365209 85.65622,37.1204609 82.7212071,37.0043672 L82.5,37 L26.5,37 L26.5,32 L82.5,32 Z" id="Shape" fill="#000000" fill-rule="nonzero"></path>
    </g>
</svg>