<?xml version="1.0" encoding="UTF-8"?>
<svg   viewBox="0 0 116 116" version="1.1" xmlns="http://www.w3.org/2000/svg" xmlns:xlink="http://www.w3.org/1999/xlink">
    <title>comment</title>
    <g id="comment" stroke="none" stroke-width="1" fill="none" fill-rule="evenodd">
        <path d="M16.5,85 C11.8909327,85 8.13867855,81.331547 8.0037566,76.7551603 L8,76.5 L8,24.5 C8,19.8909327 11.668453,16.1386785 16.2448397,16.0037566 L16.5,16 L100.5,16 C105.109067,16 108.861321,19.668453 108.996243,24.2448397 L109,24.5 L109,76.5 C109,81.1090673 105.331547,84.8613215 100.75516,84.9962434 L100.5,85 L90.5,85 L90.5,80 L100.5,80 C102.368563,80 103.895126,78.5357224 103.994821,76.6920352 L104,76.5 L104,24.5 C104,22.6314366 102.535722,21.1048736 100.692035,21.0051789 L100.5,21 L16.5,21 C14.6314366,21 13.1048736,22.4642776 13.0051789,24.3079648 L13,24.5 L13,76.5 C13,78.3685634 14.4642776,79.8951264 16.3079648,79.9948211 L16.5,80 L67.5355339,80 L80,92.465 L80,82.5 L85,82.5 L85,96.0857864 C85,97.0140442 84.6312511,97.9042828 83.9748737,98.5606602 C82.6568542,99.8786797 80.5491693,99.9257518 79.1747452,98.7018765 L79.0251263,98.5606602 L65.465,85 L16.5,85 Z M86.5,32 C90.0898509,32 93,34.9101491 93,38.5 C93,42.0118106 90.2150038,44.8731506 86.7331341,44.995897 L86.5,45 L30.5,45 C29.6715729,45 29,45.6715729 29,46.5 C29,47.2796961 29.5948881,47.9204487 30.35554,47.9931334 L30.5,48 L86,48 C89.5898509,48 92.5,50.9101491 92.5,54.5 C92.5,58.0118106 89.7150038,60.8731506 86.2331341,60.995897 L86,61 L30.5,61 C29.6715729,61 29,61.6715729 29,62.5 C29,63.2796961 29.5948881,63.9204487 30.35554,63.9931334 L30.5,64 L51,64 C56.4292399,64 60.8479317,68.3266708 60.9961582,73.7200952 L61,74 L56,74 C56,71.3112453 53.8776933,69.1181819 51.2168896,69.0046195 L51,69 L30.5,69 C26.9101491,69 24,66.0898509 24,62.5 C24,58.9881894 26.7849962,56.1268494 30.2668659,56.004103 L30.5,56 L86,56 C86.8284271,56 87.5,55.3284271 87.5,54.5 C87.5,53.7203039 86.9051119,53.0795513 86.14446,53.0068666 L86,53 L30.5,53 C26.9101491,53 24,50.0898509 24,46.5 C24,42.9881894 26.7849962,40.1268494 30.2668659,40.004103 L30.5,40 L86.5,40 C87.3284271,40 88,39.3284271 88,38.5 C88,37.7203039 87.4051119,37.0795513 86.64446,37.0068666 L86.5,37 L26.5,37 L26.5,32 L86.5,32 Z" id="Shape" fill="#000000" fill-rule="nonzero"></path>
    </g>
</svg>