<?xml version="1.0" encoding="UTF-8"?>
<svg   viewBox="0 0 116 116" version="1.1" xmlns="http://www.w3.org/2000/svg" xmlns:xlink="http://www.w3.org/1999/xlink">
    <title>comment-off</title>
    <g id="comment-off" stroke="none" stroke-width="1" fill="none" fill-rule="evenodd">
        <path d="M12.267767,8 L108.267767,104 L104.732233,107.535534 L8.73223305,11.5355339 L12.267767,8 Z M13,23.767767 L13,75.767767 C13,77.6363304 14.4642776,79.1628934 16.3079648,79.2625881 L16.5,79.267767 L67.5596217,79.267767 L83.2965054,95.5292134 L79.7034946,99.0063205 L65.44,84.267767 L16.5,84.267767 C11.8909327,84.267767 8.13867855,80.599314 8.0037566,76.0229272 L8,75.767767 L8,23.767767 L13,23.767767 Z M100.5,15.267767 C105.109067,15.267767 108.861321,18.9362199 108.996243,23.5126067 L109,23.767767 L109,75.767767 C109,80.3768342 105.331547,84.1290884 100.75516,84.2640104 L100.5,84.267767 L90.5,84.267767 L90.5,79.267767 L100.5,79.267767 C102.368563,79.267767 103.895126,77.8034894 103.994821,75.9598022 L104,75.767767 L104,23.767767 C104,21.8992035 102.535722,20.3726405 100.692035,20.2729458 L100.5,20.267767 L26.5,20.267767 L26.5,15.267767 L100.5,15.267767 Z M50.5,55.267767 L50.5,60.267767 L30.5,60.267767 C29.6715729,60.267767 29,60.9393398 29,61.767767 C29,62.5474631 29.5948881,63.1882156 30.35554,63.2609004 L30.5,63.267767 L51,63.267767 C56.4292399,63.267767 60.8479317,67.5944377 60.9961582,72.9878621 L61,73.267767 L56,73.267767 C56,70.5790122 53.8776933,68.3859488 51.2168896,68.2723865 L51,68.267767 L30.5,68.267767 C26.9101491,68.267767 24,65.3576178 24,61.767767 C24,58.2559563 26.7849962,55.3946164 30.2668659,55.27187 L30.5,55.267767 L50.5,55.267767 Z M86,47.267767 C89.5898509,47.267767 92.5,50.1779161 92.5,53.767767 C92.5,57.2795776 89.7150038,60.1409175 86.2331341,60.2636639 L86,60.267767 L67,60.267767 L67,55.267767 L86,55.267767 C86.8284271,55.267767 87.5,54.5961941 87.5,53.767767 C87.5,52.9880708 86.9051119,52.3473183 86.14446,52.2746335 L86,52.267767 L58.5,52.267767 L58.5,47.267767 L86,47.267767 Z M34.5,39.267767 L34.5,44.267767 L30.5,44.267767 C29.6715729,44.267767 29,44.9393398 29,45.767767 C29,46.5474631 29.5948881,47.1882156 30.35554,47.2609004 L30.5,47.267767 L42.5,47.267767 L42.5,52.267767 L30.5,52.267767 C26.9101491,52.267767 24,49.3576178 24,45.767767 C24,42.2559563 26.7849962,39.3946164 30.2668659,39.27187 L30.5,39.267767 L34.5,39.267767 Z M86.5,31.267767 C90.0898509,31.267767 93,34.1779161 93,37.767767 C93,41.2795776 90.2150038,44.1409175 86.7331341,44.2636639 L86.5,44.267767 L50.5,44.267767 L50.5,39.267767 L86.5,39.267767 C87.3284271,39.267767 88,38.5961941 88,37.767767 C88,36.9880708 87.4051119,36.3473183 86.64446,36.2746335 L86.5,36.267767 L42.5,36.267767 L42.5,31.267767 L86.5,31.267767 Z" id="Shape" fill="#000000" fill-rule="nonzero"></path>
    </g>
</svg>