<?xml version="1.0" encoding="UTF-8"?>
<svg  viewBox="0 0 116 116" version="1.1" xmlns="http://www.w3.org/2000/svg" xmlns:xlink="http://www.w3.org/1999/xlink">
    <title>compass</title>
    <g id="compass" stroke="none" stroke-width="1" fill="none" fill-rule="evenodd">
        <path d="M79.045168,26.9944834 L81.281236,31.4666194 L48.5326801,47.8408973 C48.2907708,47.9618519 48.0869917,48.145472 47.9417888,48.3713113 L47.8618597,48.5117177 L26.8235444,90.5883483 C26.7240817,90.7872762 26.7679691,91.0279869 26.9312334,91.1790086 L27.513271,91.7062676 L27.513271,91.7062676 C30.1160244,93.9963941 32.9453269,95.9631607 35.9555151,97.5859054 C41.9539163,100.819548 48.4613241,102.591653 55.0004351,102.951684 L55,97.5 L60,97.5 L60.0005664,102.952497 C70.8952083,102.356636 81.5389011,97.8584236 89.7091436,89.6881812 C97.8759724,81.5213523 102.372066,70.8852347 102.972249,59.9993365 L97.5,60 L97.5,55 L102.973677,54.9994705 C102.621969,48.5579593 100.90026,42.1476013 97.7622098,36.2251657 L97.4776609,35.6965864 L101.864554,33.2975933 C112.533779,52.8077578 109.20524,77.2631522 93.2446775,93.2237151 C77.3616033,109.106789 53.0586976,112.486215 33.582892,101.987117 C30.2398825,100.184953 27.0983716,98.0011574 24.2103725,95.4600473 L23.8942262,95.1775605 L23.5359976,94.8494818 C21.7980195,93.2418294 21.2898439,90.710258 22.2504388,88.5654357 L22.351403,88.3522912 L43.3897237,46.2756497 C43.9737618,45.1075736 44.8949653,44.1446531 46.0307537,43.5094688 L46.2966121,43.3687614 L79.045168,26.9944834 Z M81.5766513,13.090067 C84.842982,14.8593138 87.9155494,16.9931243 90.7461191,19.4686486 L91.4340768,20.0815532 L91.522591,20.1625134 C93.2135357,21.7151187 93.7509065,24.1399368 92.9147797,26.2432609 L92.8233753,26.4596504 L92.7221178,26.6734525 L72.2781311,67.5614259 C71.3185577,69.4805727 69.7955527,71.0568873 67.9174601,72.0820259 L67.5823883,72.2571687 L36.026402,88.0351619 L33.790334,83.5630259 L63.7949263,68.5600617 L56.4625628,61.2271337 L58.2303298,59.4593667 C58.8161162,58.8735803 58.8161162,57.9238328 58.2303298,57.3380464 C57.6445433,56.75226 56.6947958,56.75226 56.1090094,57.3380464 C55.557681,57.8893748 55.5252499,58.7631047 56.0117162,59.3523627 L56.1090094,59.4593667 L52.5734755,62.9949006 C50.0350676,60.4564927 50.0350676,56.3409204 52.5734755,53.8025125 C55.1118834,51.2641046 59.2274558,51.2641046 61.7658637,53.8025125 C63.6420782,55.678727 64.1315255,58.4165683 63.2342055,60.7423272 L63.1808105,60.8730261 L67.7459263,65.4380617 L67.8059951,65.325358 L88.2499685,24.4374112 C88.3497384,24.2378655 88.3052471,23.9963711 88.1409241,23.8454917 L87.9982273,23.7154949 C85.2982564,21.27775 82.3465754,19.1934874 79.1952519,17.4865357 C73.1538658,14.2141473 66.5925739,12.4267969 60.0005106,12.0741495 L60,18 L55,18 L55.000788,12.0810843 C44.1312567,12.6923874 33.5156184,17.1882722 25.3624265,25.3414641 C17.2057151,33.4981755 12.707728,44.121499 12.1008014,54.9998543 L17.5,55 L17.5,60 L12.0961257,59.9995626 C12.436475,66.3076965 14.0908197,72.5880194 17.1041364,78.4124054 L17.3811595,78.9393918 L12.9706905,81.2947608 C2.58212909,61.8420002 5.99436011,37.6384626 21.8268926,21.8059302 C37.7357228,5.89709994 62.0892945,2.53450918 81.5766513,13.090067 Z" id="Shape" fill="#000000" fill-rule="nonzero"></path>
    </g>
</svg>