<?xml version="1.0" encoding="UTF-8"?>
<svg  viewBox="0 0 116 116" version="1.1" xmlns="http://www.w3.org/2000/svg" xmlns:xlink="http://www.w3.org/1999/xlink">
    <title>cool-face</title>
    <g id="cool-face" stroke="none" stroke-width="1" fill="none" fill-rule="evenodd">
        <path d="M82.5,40 L82.5,45 L69,45 L69,50.5 C69,53.4634791 71.34378,55.8795391 74.2787929,55.9956328 L74.5,56 L82.5,56 C85.4634791,56 87.8795391,53.65622 87.9956328,50.7212071 L88,50.5 L88,45.4743954 C88,42.5288617 90.3165228,40.1205552 93.2330224,39.9807986 L93.452858,39.9745975 L99.971,39.918 L99.5752526,39.038495 L99.2352631,38.3058302 L98.91229,37.6337291 L98.7572561,37.3204857 L98.7572561,37.3204857 L98.4602367,36.7398044 L98.3183084,36.4724432 L98.3183084,36.4724432 L98.0586744,36.0029966 C90.0170185,21.8946582 75.0367525,13 58.5,13 C33.3710439,13 13,33.3710439 13,58.5 C13,83.6289561 33.3710439,104 58.5,104 C77.7965788,104 94.6941098,91.6998351 101.472827,73.494096 C103.247488,68.7278533 103.943843,64.4392311 103.996711,59.1645737 L104,58.5 L109,58.5 C109,64.640876 108.232881,69.6677312 106.158559,75.2387793 C98.6659071,95.3619462 79.9304317,109 58.5,109 C30.6096201,109 8,86.3903799 8,58.5 C8,30.6096201 30.6096201,8 58.5,8 C76.8513057,8 93.4802146,17.8735537 102.402574,33.5270039 L102.545252,33.7808186 L102.83946,34.3249375 L102.991033,34.6153007 L102.991033,34.6153007 L103.303227,35.2327822 L103.627634,35.899467 L103.964429,36.6155911 L104.403112,37.5806296 L104.403112,37.5806296 L104.861772,38.6237463 C105.101124,39.1763778 105.227114,39.7714313 105.232276,40.3736475 C105.252969,42.7878384 103.368682,44.7742827 100.982793,44.9053404 L100.771007,44.912053 L93.4957144,44.9744138 C93.2517498,44.976505 93.0498245,45.1530604 93.0079641,45.3850383 L93,45.4743954 L93,50.5 C93,56.2039245 88.451858,60.8455734 82.7842951,60.9962258 L82.5,61 L74.5,61 C68.7960755,61 64.1544266,56.451858 64.0037742,50.7842951 L64,50.5 L64,45 L53,45 L53,49.5 C53,55.7535627 48.0084783,60.8412931 41.7922675,60.9963585 L41.5,61 L34.5,61 C28.7960755,61 24.1544266,56.451858 24.0037742,50.7842951 L24,50.5 L24,45.5 C24,42.5365209 26.34378,40.1204609 29.2787929,40.0043672 L29.5,40 L42.5,40 L42.5,45 L29.5,45 C29.2545401,45 29.0503916,45.1768752 29.0080557,45.4101244 L29,45.5 L29,50.5 C29,53.4634791 31.34378,55.8795391 34.2787929,55.9956328 L34.5,56 L41.5,56 C45.0118106,56 47.8731506,53.2150038 47.995897,49.7331341 L48,49.5 L48,40 L82.5,40 Z M89,72.5 L92,76.5 C80.9233292,84.8075031 69.7433375,89 58.5,89 C47.4574364,89 36.4759764,84.9558983 25.5934917,76.9411078 L25,76.5 L28,72.5 C38.2566625,80.1924969 48.4100042,84 58.5,84 C68.5899958,84 78.7433375,80.1924969 89,72.5 Z" id="Shape" fill="#000000" fill-rule="nonzero"></path>
    </g>
</svg>