<?xml version="1.0" encoding="UTF-8"?>
<svg  viewBox="0 0 116 116" version="1.1" xmlns="http://www.w3.org/2000/svg" xmlns:xlink="http://www.w3.org/1999/xlink">
    <title>crop</title>
    <g id="crop" stroke="none" stroke-width="1" fill="none" fill-rule="evenodd">
        <path d="M89,94.5 L89,106.5 L84,106.5 L84,94.5 L89,94.5 Z M33,10.5 L33,78.5 C33,81.4634791 35.34378,83.8795391 38.2787929,83.9956328 L38.5,84 L106.5,84 L106.5,89 L38.5,89 C32.7960755,89 28.1544266,84.451858 28.0037742,78.7842951 L28,78.5 L28,10.5 L33,10.5 Z M78.5,28 C84.2039245,28 88.8455734,32.548142 88.9962258,38.2157049 L89,38.5 L89,78.5 L84,78.5 L84,38.5 C84,35.5365209 81.65622,33.1204609 78.7212071,33.0043672 L78.5,33 L38,33 L38,28 L78.5,28 Z M22.5,28 L22.5,33 L10.5,33 L10.5,28 L22.5,28 Z" id="Shape" fill="#000000" fill-rule="nonzero"></path>
    </g>
</svg>