<?xml version="1.0" encoding="UTF-8"?>
<svg  viewBox="0 0 117 116" version="1.1" xmlns="http://www.w3.org/2000/svg" xmlns:xlink="http://www.w3.org/1999/xlink">
    <title>cube</title>
    <g id="cube" stroke="none" stroke-width="1" fill="none" fill-rule="evenodd" transform="translate(0.000000, 0.000000)">
        <path d="M53.8042572,6.0527864 C56.6583635,4.62573326 60.0003672,4.57652453 62.8881216,5.90516022 L63.1957428,6.0527864 L104.040325,26.4750776 C104.911199,26.9105143 105.61735,27.6166655 106.052786,28.4875388 C107.130558,30.6430814 106.315987,33.2500917 104.238747,34.4195544 L104.040325,34.5249224 L64.0403252,54.5249224 C62.2486789,55.4207455 61.0915547,57.2159687 61.0051955,59.204736 L61,59.4442719 L61,105.600557 C61,105.679581 61.0187311,105.757481 61.0546574,105.827867 C61.1662485,106.046494 61.4165987,106.147915 61.6435971,106.079583 L61.7273103,106.045899 L101.000413,86.000253 C102.770491,85.0967758 103.90986,83.3124536 103.994885,81.3391443 L104,81.1014844 L104,38.5 L109,38.5 L109,81.1014844 C109,84.9433853 106.902818,88.4694963 103.548247,90.3083105 L103.273516,90.453679 L64.0004132,110.499325 C61.2948979,111.880265 57.9821714,110.806485 56.6012314,108.10097 C56.2499523,107.41275 56.0481223,106.659229 56.007608,105.889759 L56,105.600557 L56,59.4442719 C56,55.571826 58.1303166,52.0229949 61.5261622,50.1970342 L61.8042572,50.0527864 L100.909,30.499 L60.9596748,10.5249224 C59.4927684,9.79146916 57.7798141,9.75286636 56.2870079,10.409114 L56.0403252,10.5249224 L16.086,30.502 L51.5330351,48.2631184 L49.293233,52.7333854 L13,34.549 L13,81.5557281 C13,83.5588496 14.0882147,85.3966611 15.8284013,86.3633069 L16.0403252,86.4750776 L51.7249755,104.317403 L49.4889075,108.789539 L13.8042572,90.9472136 C10.3406363,89.2154031 8.11917182,85.7229045 8.00465126,81.8689734 L8,81.5557281 L8,33.7390917 C8,33.039219 8.16324451,32.3489933 8.47675978,31.7232697 C8.91533554,30.8479465 9.60073395,30.1779719 10.4062667,29.7554578 L10.543,29.687 L10.5627963,29.5841228 C10.8201427,28.3528061 11.5890738,27.2401343 12.7575216,26.5823115 L12.9559429,26.4769436 L53.8042572,6.0527864 Z" id="Path-332" fill="#000000" fill-rule="nonzero"></path>
    </g>
</svg>