<?xml version="1.0" encoding="UTF-8"?>
<svg  viewBox="0 0 116 116" version="1.1" xmlns="http://www.w3.org/2000/svg" xmlns:xlink="http://www.w3.org/1999/xlink">
    <title>curly-bracers-off</title>
    <g id="curly-bracers-off" stroke="none" stroke-width="1" fill="none" fill-rule="evenodd">
        <path d="M12.267767,8.73223305 L77.499233,73.963233 L77.4993683,67.5893899 L77.504288,67.2697196 C77.6056702,63.977882 79.2681794,60.943197 81.9553803,59.0828874 L82.2274961,58.900805 L82.4357579,58.77 L82.2087492,58.6495033 C79.4091691,57.0905516 77.6107893,54.167871 77.5043673,50.9376406 L77.4993683,50.6339377 L77.4993683,26.5 L77.4950011,26.2787929 C77.3818842,23.4190368 75.0852358,21.1205826 72.2262189,21.0045933 L71.9993683,21 L71.9993683,16 C77.7032927,16 82.3449417,20.548142 82.495594,26.2157049 L82.4993683,26.5 L82.4993683,50.6339377 L82.5049014,50.8493844 C82.5821098,52.3504826 83.4619545,53.6957788 84.8062501,54.3681824 L85.0014154,54.4596067 L87.1633711,55.4054623 L87.3372298,55.4871783 C88.9863778,56.3174989 89.7160113,58.3029808 88.9670559,60.0148789 C88.6927934,60.6417646 88.2415303,61.1729337 87.6709522,61.5446245 L87.4764195,61.6625274 L85.2250214,62.9289388 L85.0179306,63.0516207 C83.5242008,63.9824348 82.5837232,65.5905081 82.5047662,67.3487486 L82.4993683,67.5893899 L82.4993683,74.5 L78.035233,74.499233 L108.267767,104.732233 L104.732233,108.267767 L8.73223305,12.267767 L12.267767,8.73223305 Z M37,42.5 L37,50.6339377 C37,53.9838717 35.1776861,57.0418344 32.2906191,58.6495033 L32.063,58.771 L32.2718721,58.900805 C35.1186203,60.7411704 36.8903187,63.868154 36.9950803,67.2697196 L37,67.5893899 L37,90.5 C37,93.4634791 39.34378,95.8795391 42.2787929,95.9956328 L42.5,96 L42.5,101 C36.7960755,101 32.1544266,96.451858 32.0037742,90.7842951 L32,90.5 L32,67.5893899 C32,65.7380959 31.0430643,64.0247445 29.4814376,63.0516207 L29.2743469,62.9289388 L27.0229487,61.6625274 C26.3603039,61.2897896 25.8370485,60.7114186 25.5323124,60.0148789 C24.783357,58.3029808 25.5129904,56.3174989 27.1621385,55.4871783 L27.3359971,55.4054623 L29.4979529,54.4596067 C30.951799,53.823549 31.9135819,52.4219635 31.9944669,50.8493844 L32,50.6339377 L32,42.5 L37,42.5 Z M82.4993683,90.5 L82.495594,90.7842951 C82.3474526,96.3573986 77.8567669,100.848084 72.2836634,100.996226 L71.9993683,101 L71.9993683,96 L72.2205754,95.9956328 C75.0803315,95.8825159 77.3787857,93.5858675 77.494775,90.7268507 L77.4993683,90.5 L82.4993683,90.5 Z M42.5,16 L42.5,21 C39.5365209,21 37.1204609,23.34378 37.0043672,26.2787929 L37,26.5 L32,26.5 C32,20.7010101 36.7010101,16 42.5,16 Z" id="Shape" fill="#000000" fill-rule="nonzero"></path>
    </g>
</svg>