<?xml version="1.0" encoding="UTF-8"?>
<svg  viewBox="0 0 116 116" version="1.1" xmlns="http://www.w3.org/2000/svg" xmlns:xlink="http://www.w3.org/1999/xlink">
    <title>curly-bracers</title>
    <g id="curly-bracers" stroke="none" stroke-width="1" fill="none" fill-rule="evenodd">
        <path d="M42.5,16 L42.5,21 C39.5365209,21 37.1204609,23.34378 37.0043672,26.2787929 L37,26.5 L37,50.6339377 C37,53.9838717 35.1776861,57.0418344 32.2906191,58.6495033 L32.063,58.771 L32.2718721,58.900805 C35.1186203,60.7411704 36.8903187,63.868154 36.9950803,67.2697196 L37,67.5893899 L37,90.5 C37,93.4634791 39.34378,95.8795391 42.2787929,95.9956328 L42.5,96 L42.5,101 C36.7960755,101 32.1544266,96.451858 32.0037742,90.7842951 L32,90.5 L32,67.5893899 C32,65.7380959 31.0430643,64.0247445 29.4814376,63.0516207 L29.2743469,62.9289388 L27.0229487,61.6625274 C26.3603039,61.2897896 25.8370485,60.7114186 25.5323124,60.0148789 C24.783357,58.3029808 25.5129904,56.3174989 27.1621385,55.4871783 L27.3359971,55.4054623 L29.4979529,54.4596067 C30.951799,53.823549 31.9135819,52.4219635 31.9944669,50.8493844 L32,50.6339377 L32,26.5 C32,20.7960755 36.548142,16.1544266 42.2157049,16.0037742 L42.5,16 Z M73.2379786,16 L73.5222738,16.0037742 C79.0953772,16.1519157 83.586063,20.6426014 83.7342044,26.2157049 L83.7379786,26.5 L83.7379786,50.6339377 L83.7435118,50.8493844 C83.8207202,52.3504826 84.7005649,53.6957788 86.0448605,54.3681824 L86.2400257,54.4596067 L88.4019815,55.4054623 L88.5758402,55.4871783 C90.2249882,56.3174989 90.9546217,58.3029808 90.2056662,60.0148789 C89.9314037,60.6417646 89.4801407,61.1729337 88.9095626,61.5446245 L88.7150299,61.6625274 L86.4636317,62.9289388 L86.256541,63.0516207 C84.7628112,63.9824348 83.8223335,65.5905081 83.7433765,67.3487486 L83.7379786,67.5893899 L83.7379786,90.5 L83.7342044,90.7842951 C83.586063,96.3573986 79.0953772,100.848084 73.5222738,100.996226 L73.2379786,101 L73.2379786,96 L73.4591858,95.9956328 C76.3189419,95.8825159 78.6173961,93.5858675 78.7333853,90.7268507 L78.7379786,90.5 L78.7379786,67.5893899 L78.7428984,67.2697196 C78.8442805,63.977882 80.5067898,60.943197 83.1939907,59.0828874 L83.4661065,58.900805 L83.6749786,58.771 L83.4473595,58.6495033 C80.6477794,57.0905516 78.8493996,54.167871 78.7429777,50.9376406 L78.7379786,50.6339377 L78.7379786,26.5 L78.7336114,26.2787929 C78.6204945,23.4190368 76.3238462,21.1205826 73.4648293,21.0045933 L73.2379786,21 L73.2379786,16 Z" id="Shape" fill="#000000" fill-rule="nonzero"></path>
    </g>
</svg>