<?xml version="1.0" encoding="UTF-8"?>
<svg  viewBox="0 0 116 116" version="1.1" xmlns="http://www.w3.org/2000/svg" xmlns:xlink="http://www.w3.org/1999/xlink">
    <title>cursive-f</title>
    <g id="cursive-f" stroke="none" stroke-width="1" fill="none" fill-rule="evenodd">
        <path d="M83,8 C92.7061334,8 100.817914,16.3596652 100.996978,26.1688153 L101,26.5 L96,26.5 C96,19.2625329 90.0039579,13 83,13 C76.8923152,13 72.4299979,17.086919 68.8969638,25.5326127 L68.5347631,26.4218648 C68.3065373,26.9971735 68.0861676,27.5742282 67.8723666,28.1578477 L67.6607076,28.7438339 L67.4469127,29.3532861 L67.1336826,30.2808685 L66.9293813,30.909901 L66.6289251,31.8723436 L66.3347253,32.8609727 L66.045726,33.8797409 L65.7608713,34.932601 L65.5727493,35.6553995 L65.2924559,36.7738631 L65.0134912,37.9369591 L64.7347995,39.1486403 L64.36181,40.8466238 L63.9849257,42.6473774 L63.6016437,44.5602703 L63.2094609,46.5946721 L62.8058746,48.759952 L62.2815425,51.6648731 L61.6167789,55.4658049 L61.525,56 L83,56 L83,61 L60.671,61 L60.2650073,63.3808296 L59.6110638,67.1096703 L59.1961463,69.4101187 L58.7951623,71.5730661 L58.5020714,73.1106387 L58.214369,74.5800261 L57.9310055,75.9851534 L57.5581228,77.7654809 L57.3730969,78.6183292 L57.0964526,79.8542284 L56.912166,80.6509417 L56.6351729,81.8080903 L56.3565711,82.9232223 L56.0753109,84.0002631 L55.7903429,85.0431378 L55.5006174,86.0557719 L55.2050849,87.0420906 L54.9026957,88.0060193 L54.7001261,88.6280015 C54.4616956,89.3494441 54.2157158,90.0569294 53.9600702,90.7583725 L53.7385289,91.3583144 C53.5891908,91.7575354 53.4364991,92.1555219 53.2800588,92.5537508 C49.0916463,103.215629 43.1280583,109 34.5,109 C24.2333619,109 16.178719,101.058177 16.0029336,90.8413942 L16,90.5 L21,90.5 C21,98.1192881 26.8807119,104 34.5,104 C40.5540254,104 44.9586243,99.8256355 48.4495532,91.1695612 L48.7361075,90.4442577 L48.9521227,89.8805479 L49.1663661,89.3067031 L49.3761351,88.7293338 L49.6830339,87.8542651 L49.9814972,86.9650786 L50.1762698,86.3626109 L50.3680184,85.7511185 L50.5570332,85.1295014 L50.8360638,84.1756854 L51.1105749,83.192901 L51.3815454,82.1774355 L51.739024,80.7662274 L52.0055404,79.6600679 L52.1830035,78.8978259 L52.4496017,77.7145095 L52.6280259,76.897392 L52.8974253,75.6266057 L53.2614388,73.8422435 L53.6330813,71.9469793 L54.0146736,69.9320129 L54.509191,67.2315668 L55.1343009,63.7017937 L55.598,61 L46.5,61 L46.5,56 L56.451,56 L57.1149818,52.1686005 L57.5377759,49.7847768 L58.0457753,46.9985132 L58.4386355,44.9137792 L58.8219989,42.9479257 L59.1046984,41.5463506 L59.3843622,40.2031359 L59.6619784,38.9146345 L59.9385357,37.6771994 L60.1228069,36.8788117 L60.3997953,35.7183822 L60.6783604,34.5992934 L60.9594904,33.517898 L61.1488235,32.8161076 L61.4364248,31.7894301 L61.6309872,31.1207412 L61.9278053,30.1386506 L62.2314712,29.1784494 L62.5429734,28.2364905 L62.7554831,27.6168514 L63.082242,26.6971916 L63.3058381,26.0890416 L63.6505993,25.1815499 L63.8871119,24.5781352 C68.1504331,13.8312074 74.2267768,8 83,8 Z" id="Path" fill="#000000" fill-rule="nonzero"></path>
    </g>
</svg>