<?xml version="1.0" encoding="UTF-8"?>
<svg  viewBox="0 0 116 116" version="1.1" xmlns="http://www.w3.org/2000/svg" xmlns:xlink="http://www.w3.org/1999/xlink">
    <title>dbl-arrow-loop</title>
    <g id="dbl-arrow-loop" stroke="none" stroke-width="1" fill="none" fill-rule="evenodd">
        <path d="M64.1343305,81.4059735 L66.8656695,85.5940265 L47.076,98.5 L66.8656695,111.405974 L64.1343305,115.594026 L43.703003,102.269248 C41.621305,100.911619 41.0343312,98.123493 42.3919604,96.041795 C42.6844782,95.5932676 43.0542999,95.2011589 43.4835238,94.8833703 L43.703003,94.7307523 L64.1343305,81.4059735 Z M88.7287529,28.6257156 C96.5388029,36.5278868 101,47.1645751 101,58.5 C101,81.7373808 82.350757,100.618998 59.1831639,100.994227 L58.4797472,100.999918 L57.818274,100.994559 L57.8587797,95.9947232 L58.5,96 C79.2106781,96 96,79.2106781 96,58.5 C96,48.6758942 92.2084295,39.4571548 85.5456535,32.5233123 L85.1725512,32.1404602 L88.7287529,28.6257156 Z M58.5,16 L58.5,21 C37.7893219,21 21,37.7893219 21,58.5 C21,68.4103408 24.8588738,77.7034098 31.6260749,84.6542696 L32.0050165,85.0380078 L28.472333,88.5763898 C20.5403278,80.6571587 16,69.9349975 16,58.5 C16,35.0278981 35.0278981,16 58.5,16 Z M53.3920266,1.40597351 L73.8233541,14.7307523 L74.0428333,14.8833703 C74.4720572,15.2011589 74.8418789,15.5932676 75.1343967,16.041795 C76.4508856,18.0604112 75.9388406,20.7432899 74.0084691,22.1419456 L73.8233541,22.2692477 L53.3920266,35.5940265 L50.6606877,31.4059735 L70.4503571,18.5 L50.6606877,5.59402649 L53.3920266,1.40597351 Z" id="Shape" fill="#000000" fill-rule="nonzero"></path>
    </g>
</svg>