<?xml version="1.0" encoding="UTF-8"?>
<svg  viewBox="0 0 116 116" version="1.1" xmlns="http://www.w3.org/2000/svg" xmlns:xlink="http://www.w3.org/1999/xlink">
    <title>dbl-arrow-loop-vert</title>
    <g id="dbl-arrow-loop-vert" stroke="none" stroke-width="1" fill="none" fill-rule="evenodd">
        <path d="M16.0053999,57.818233 L21.0052358,57.8587387 L20.999959,58.499959 C20.999959,79.2106371 37.7892809,95.999959 58.499959,95.999959 C68.3240647,95.999959 77.5428042,92.2083885 84.4766467,85.5456125 L84.8594988,85.1725102 L88.3742434,88.7287119 C80.4720722,96.5387619 69.8353838,100.999959 58.499959,100.999959 C35.2625781,100.999959 16.3809614,82.350716 16.0057324,59.1831229 L16.000041,58.4797062 L16.0053999,57.818233 Z M111.669152,50.3975091 L115.857205,53.128848 L102.532426,73.5601755 C101.174797,75.6418735 98.3866716,76.2288473 96.3049735,74.8712182 C95.8564462,74.5787003 95.4643374,74.2088787 95.1465489,73.7796548 L94.9939309,73.5601755 L81.6691521,53.128848 L85.857205,50.3975091 L98.7631786,70.1871786 L111.669152,50.3975091 Z M21.2213836,42.1287818 C21.6699109,42.4212997 22.0620197,42.7911213 22.3798082,43.2203452 L22.5324262,43.4398245 L35.857205,63.871152 L31.6691521,66.6024909 L18.7631786,46.8128214 L5.85720505,66.6024909 L1.66915206,63.871152 L14.9939309,43.4398245 C16.35156,41.3581265 19.1396856,40.7711527 21.2213836,42.1287818 Z M58.499959,15.999959 C81.9720608,15.999959 100.999959,35.0278571 100.999959,58.499959 L95.999959,58.499959 C95.999959,37.7892809 79.2106371,20.999959 58.499959,20.999959 C48.5896182,20.999959 39.2965492,24.8588328 32.3456894,31.6260338 L31.9619512,32.0049755 L28.4235692,28.472292 C36.3428003,20.5402868 47.0649615,15.999959 58.499959,15.999959 Z" id="Shape" fill="#000000" fill-rule="nonzero"></path>
    </g>
</svg>