<?xml version="1.0" encoding="UTF-8"?>
<svg  viewBox="0 0 116 116" version="1.1" xmlns="http://www.w3.org/2000/svg" xmlns:xlink="http://www.w3.org/1999/xlink">
    <title>dbl-chevron-down</title>
    <g id="dbl-chevron-down" stroke="none" stroke-width="1" fill="none" fill-rule="evenodd">
        <path d="M104.732233,48.732233 L108.267767,52.267767 L62.3890873,98.1464466 C60.3008671,100.234667 56.9512337,100.292673 54.792935,98.320465 L54.6109127,98.1464466 L8.73223305,52.267767 L12.267767,48.732233 L58.1464466,94.6109127 C58.320013,94.7844791 58.5894374,94.8037642 58.7843055,94.6687682 L58.8535534,94.6109127 L104.732233,48.732233 Z M104.732233,16.732233 L108.267767,20.267767 L62.3890873,66.1464466 C60.3008671,68.2346668 56.9512337,68.2926729 54.792935,66.320465 L54.6109127,66.1464466 L8.73223305,20.267767 L12.267767,16.732233 L58.1464466,62.6109127 C58.320013,62.7844791 58.5894374,62.8037642 58.7843055,62.6687682 L58.8535534,62.6109127 L104.732233,16.732233 Z" id="Shape" fill="#000000" fill-rule="nonzero"></path>
    </g>
</svg>