<?xml version="1.0" encoding="UTF-8"?>
<svg  viewBox="0 0 116 116" version="1.1" xmlns="http://www.w3.org/2000/svg" xmlns:xlink="http://www.w3.org/1999/xlink">
    <title>dbl-chevron-up</title>
    <g id="dbl-chevron-up" stroke="none" stroke-width="1" fill="none" fill-rule="evenodd">
        <path d="M62.207065,50.679535 L62.3890873,50.8535534 L108.267767,96.732233 L104.732233,100.267767 L58.8535534,54.3890873 C58.679987,54.2155209 58.4105626,54.1962358 58.2156945,54.3312318 L58.1464466,54.3890873 L12.267767,100.267767 L8.73223305,96.732233 L54.6109127,50.8535534 C56.6991329,48.7653332 60.0487663,48.7073271 62.207065,50.679535 Z M62.207065,18.679535 L62.3890873,18.8535534 L108.267767,64.732233 L104.732233,68.267767 L58.8535534,22.3890873 C58.679987,22.2155209 58.4105626,22.1962358 58.2156945,22.3312318 L58.1464466,22.3890873 L12.267767,68.267767 L8.73223305,64.732233 L54.6109127,18.8535534 C56.6991329,16.7653332 60.0487663,16.7073271 62.207065,18.679535 Z" id="Shape" fill="#000000" fill-rule="nonzero"></path>
    </g>
</svg>