<?xml version="1.0" encoding="UTF-8"?>
<svg  viewBox="0 0 116 116" version="1.1" xmlns="http://www.w3.org/2000/svg" xmlns:xlink="http://www.w3.org/1999/xlink">
    <title>descending-sort</title>
    <g id="descending-sort" stroke="none" stroke-width="1" fill="none" fill-rule="evenodd">
        <path d="M106.5,18.5 L106.5,23.5 L18.5,23.5 L18.2787929,23.5043672 C15.34378,23.6204609 13,26.0365209 13,29 C13,31.9634791 15.34378,34.3795391 18.2787929,34.4956328 L18.5,34.5 L66.5,34.5 L66.7842951,34.5037742 C72.451858,34.6544266 77,39.2960755 77,45 C77,50.7039245 72.451858,55.3455734 66.7842951,55.4962258 L66.5,55.5 L18.5,55.5 L18.2787929,55.5043672 C15.34378,55.6204609 13,58.0365209 13,61 C13,63.9634791 15.34378,66.3795391 18.2787929,66.4956328 L18.5,66.5 L34.5,66.5 L34.7842951,66.5037742 C40.451858,66.6544266 45,71.2960755 45,77 C45,82.7039245 40.451858,87.3455734 34.7842951,87.4962258 L34.5,87.5 L18.5,87.5 L18.2787929,87.5043672 C15.4190368,87.6174841 13.1205826,89.9141325 13.0045933,92.7731493 L13,93 L13,101 L8,101 L8,93 L8.00377424,92.7157049 C8.15191568,87.1426014 12.6426014,82.6519157 18.2157049,82.5037742 L18.5,82.5 L34.5,82.5 L34.7212071,82.4956328 C37.65622,82.3795391 40,79.9634791 40,77 C40,74.0365209 37.65622,71.6204609 34.7212071,71.5043672 L34.5,71.5 L18.5,71.5 L18.2157049,71.4962258 C12.548142,71.3455734 8,66.7039245 8,61 C8,55.2960755 12.548142,50.6544266 18.2157049,50.5037742 L18.5,50.5 L66.5,50.5 L66.7212071,50.4956328 C69.65622,50.3795391 72,47.9634791 72,45 C72,42.0365209 69.65622,39.6204609 66.7212071,39.5043672 L66.5,39.5 L18.5,39.5 L18.2157049,39.4962258 C12.548142,39.3455734 8,34.7039245 8,29 C8,23.2960755 12.548142,18.6544266 18.2157049,18.5037742 L18.5,18.5 L106.5,18.5 Z M104.419874,65.1132495 L108.580126,67.8867505 L94.2442263,89.3905996 C92.8656403,91.4584787 90.0717282,92.0172611 88.0038491,90.638675 C87.5801332,90.3561977 87.2079574,90.004199 86.9027344,89.5980912 L86.7557737,89.3905996 L72.4198743,67.8867505 L76.5801257,65.1132495 L90.5,85.992 L104.419874,65.1132495 Z M93,42.5 L93,74.5 L88,74.5 L88,42.5 L93,42.5 Z" id="Shape" fill="#000000" fill-rule="nonzero"></path>
    </g>
</svg>