<?xml version="1.0" encoding="UTF-8"?>
<svg   viewBox="0 0 128 128" version="1.1" xmlns="http://www.w3.org/2000/svg" xmlns:xlink="http://www.w3.org/1999/xlink">
    <title>descending-sort</title>
    <g id="descending-sort" stroke="none" stroke-width="1" fill="none" fill-rule="evenodd">
        <path d="M110.419874,71.1132495 L114.580126,73.8867505 L100.244226,95.3905996 C98.8656403,97.4584787 96.0717282,98.0172611 94.0038491,96.638675 C93.5801332,96.3561977 93.2079574,96.004199 92.9027344,95.5980912 L92.7557737,95.3905996 L78.4198743,73.8867505 L82.5801257,71.1132495 L96.5,91.992 L110.419874,71.1132495 Z M96.5,30 L96.5,35 L20.5,35 C19.6715729,35 19,35.6715729 19,36.5 C19,37.2796961 19.5948881,37.9204487 20.35554,37.9931334 L20.5,38 L76.5,38 C80.0898509,38 83,40.9101491 83,44.5 C83,48.0118106 80.2150038,50.8731506 76.7331341,50.995897 L76.5,51 L20.5,51 C19.6715729,51 19,51.6715729 19,52.5 C19,53.2796961 19.5948881,53.9204487 20.35554,53.9931334 L20.5,54 L60.5,54 C64.0898509,54 67,56.9101491 67,60.5 C67,64.0118106 64.2150038,66.8731506 60.7331341,66.995897 L60.5,67 L20.5,67 C19.6715729,67 19,67.6715729 19,68.5 C19,69.2796961 19.5948881,69.9204487 20.35554,69.9931334 L20.5,70 L44.5,70 C48.0898509,70 51,72.9101491 51,76.5 C51,80.0118106 48.2150038,82.8731506 44.7331341,82.995897 L44.5,83 L20.5,83 C19.7203039,83 19.0795513,83.5948881 19.0068666,84.35554 L19,84.5 L19,96.5 L14,96.5 L14,84.5 C14,80.9881894 16.7849962,78.1268494 20.2668659,78.004103 L20.5,78 L44.5,78 C45.3284271,78 46,77.3284271 46,76.5 C46,75.7203039 45.4051119,75.0795513 44.64446,75.0068666 L44.5,75 L20.5,75 C16.9101491,75 14,72.0898509 14,68.5 C14,64.9881894 16.7849962,62.1268494 20.2668659,62.004103 L20.5,62 L60.5,62 C61.3284271,62 62,61.3284271 62,60.5 C62,59.7203039 61.4051119,59.0795513 60.64446,59.0068666 L60.5,59 L20.5,59 C16.9101491,59 14,56.0898509 14,52.5 C14,48.9881894 16.7849962,46.1268494 20.2668659,46.004103 L20.5,46 L76.5,46 C77.3284271,46 78,45.3284271 78,44.5 C78,43.7203039 77.4051119,43.0795513 76.64446,43.0068666 L76.5,43 L20.5,43 C16.9101491,43 14,40.0898509 14,36.5 C14,32.9881894 16.7849962,30.1268494 20.2668659,30.004103 L20.5,30 L96.5,30 Z M99,48.5 L99,80.5 L94,80.5 L94,48.5 L99,48.5 Z" id="Shape" fill="#000000" fill-rule="nonzero"></path>
    </g>
</svg>