<?xml version="1.0" encoding="UTF-8"?>
<svg   viewBox="0 0 116 116" version="1.1" xmlns="http://www.w3.org/2000/svg" xmlns:xlink="http://www.w3.org/1999/xlink">
    <title>descending-sort</title>
    <g id="descending-sort" stroke="none" stroke-width="1" fill="none" fill-rule="evenodd">
        <path d="M104.419874,65.1132495 L108.580126,67.8867505 L94.2442263,89.3905996 C92.8656403,91.4584787 90.0717282,92.0172611 88.0038491,90.638675 C87.5801332,90.3561977 87.2079574,90.004199 86.9027344,89.5980912 L86.7557737,89.3905996 L72.4198743,67.8867505 L76.5801257,65.1132495 L90.5,85.992 L104.419874,65.1132495 Z M90.5,24 L90.5,29 L14.5,29 C13.6715729,29 13,29.6715729 13,30.5 C13,31.2796961 13.5948881,31.9204487 14.35554,31.9931334 L14.5,32 L70.5,32 C74.0898509,32 77,34.9101491 77,38.5 C77,42.0118106 74.2150038,44.8731506 70.7331341,44.995897 L70.5,45 L14.5,45 C13.6715729,45 13,45.6715729 13,46.5 C13,47.2796961 13.5948881,47.9204487 14.35554,47.9931334 L14.5,48 L54.5,48 C58.0898509,48 61,50.9101491 61,54.5 C61,58.0118106 58.2150038,60.8731506 54.7331341,60.995897 L54.5,61 L14.5,61 C13.6715729,61 13,61.6715729 13,62.5 C13,63.2796961 13.5948881,63.9204487 14.35554,63.9931334 L14.5,64 L38.5,64 C42.0898509,64 45,66.9101491 45,70.5 C45,74.0118106 42.2150038,76.8731506 38.7331341,76.995897 L38.5,77 L14.5,77 C13.7203039,77 13.0795513,77.5948881 13.0068666,78.35554 L13,78.5 L13,90.5 L8,90.5 L8,78.5 C8,74.9881894 10.7849962,72.1268494 14.2668659,72.004103 L14.5,72 L38.5,72 C39.3284271,72 40,71.3284271 40,70.5 C40,69.7203039 39.4051119,69.0795513 38.64446,69.0068666 L38.5,69 L14.5,69 C10.9101491,69 8,66.0898509 8,62.5 C8,58.9881894 10.7849962,56.1268494 14.2668659,56.004103 L14.5,56 L54.5,56 C55.3284271,56 56,55.3284271 56,54.5 C56,53.7203039 55.4051119,53.0795513 54.64446,53.0068666 L54.5,53 L14.5,53 C10.9101491,53 8,50.0898509 8,46.5 C8,42.9881894 10.7849962,40.1268494 14.2668659,40.004103 L14.5,40 L70.5,40 C71.3284271,40 72,39.3284271 72,38.5 C72,37.7203039 71.4051119,37.0795513 70.64446,37.0068666 L70.5,37 L14.5,37 C10.9101491,37 8,34.0898509 8,30.5 C8,26.9881894 10.7849962,24.1268494 14.2668659,24.004103 L14.5,24 L90.5,24 Z M93,42.5 L93,74.5 L88,74.5 L88,42.5 L93,42.5 Z" id="Shape" fill="#000000" fill-rule="nonzero"></path>
    </g>
</svg>