<?xml version="1.0" encoding="UTF-8"?>
<svg  viewBox="0 0 116 116" version="1.1" xmlns="http://www.w3.org/2000/svg" xmlns:xlink="http://www.w3.org/1999/xlink">
    <title>dice</title>
    <g id="dice" stroke="none" stroke-width="1" fill="none" fill-rule="evenodd">
        <path d="M90.5,16 C96.2039245,16 100.845573,20.548142 100.996226,26.2157049 L101,26.5 L101,90.5 C101,96.2039245 96.451858,100.845573 90.7842951,100.996226 L90.5,101 L42.5,101 L42.5,96 L90.5,96 C93.4634791,96 95.8795391,93.65622 95.9956328,90.7212071 L96,90.5 L96,26.5 C96,23.5365209 93.65622,21.1204609 90.7212071,21.0043672 L90.5,21 L26.5,21 C23.5365209,21 21.1204609,23.34378 21.0043672,26.2787929 L21,26.5 L21,90.5 C21,93.4634791 23.34378,95.8795391 26.2787929,95.9956328 L26.5,96 L26.5,101 C20.7960755,101 16.1544266,96.451858 16.0037742,90.7842951 L16,90.5 L16,26.5 C16,20.7960755 20.548142,16.1544266 26.2157049,16.0037742 L26.5,16 L90.5,16 Z M74.5,64 C80.2989899,64 85,68.7010101 85,74.5 C85,80.2989899 80.2989899,85 74.5,85 C68.7960755,85 64.1544266,80.451858 64.0037742,74.7842951 L64,74.5 L69,74.5 C69,77.5375661 71.4624339,80 74.5,80 C77.5375661,80 80,77.5375661 80,74.5 C80,71.5365209 77.65622,69.1204609 74.7212071,69.0043672 L74.5,69 L74.5,64 Z M42.5,32 C48.2039245,32 52.8455734,36.548142 52.9962258,42.2157049 L53,42.5 L48,42.5 C48,39.4624339 45.5375661,37 42.5,37 C39.4624339,37 37,39.4624339 37,42.5 C37,45.4634791 39.34378,47.8795391 42.2787929,47.9956328 L42.5,48 L58.5,48 C64.2989899,48 69,52.7010101 69,58.5 C69,64.2989899 64.2989899,69 58.5,69 C52.7960755,69 48.1544266,64.451858 48.0037742,58.7842951 L48,58.5 L53,58.5 C53,61.5375661 55.4624339,64 58.5,64 C61.5375661,64 64,61.5375661 64,58.5 C64,55.5365209 61.65622,53.1204609 58.7212071,53.0043672 L58.5,53 L42.5,53 C36.7010101,53 32,48.2989899 32,42.5 C32,36.7010101 36.7010101,32 42.5,32 Z" id="Shape" fill="#000000" fill-rule="nonzero"></path>
    </g>
</svg>