<?xml version="1.0" encoding="UTF-8"?>
<svg  viewBox="0 0 116 116" version="1.1" xmlns="http://www.w3.org/2000/svg" xmlns:xlink="http://www.w3.org/1999/xlink">
    <title>download</title>
    <g id="download" stroke="none" stroke-width="1" fill="none" fill-rule="evenodd">
        <path d="M71.9198743,80.6132495 L76.0801257,83.3867505 L60.912176,106.138675 C60.655854,106.523158 60.3259337,106.853078 59.9414507,107.1094 C58.3885606,108.14466 56.3092511,107.775207 55.2026032,106.300856 L55.087824,106.138675 L39.9198743,83.3867505 L44.0801257,80.6132495 L58,101.492 L71.9198743,80.6132495 Z M58,23.5 C66.8696158,23.5 75.2157792,26.8647997 81.5565815,32.7939132 L81.9346113,33.1527307 L78.4654414,36.7534056 C73.0029198,31.4903879 65.7400224,28.5 58,28.5 C44.5201209,28.5 32.8649573,37.6177785 29.4780145,50.4382476 L29.375907,50.8359316 L28.9732742,52.4506097 L27.3282968,52.7022993 C18.8476475,53.9998803 12.5,61.3291931 12.5,70 C12.5,79.5551538 20.1579601,87.3216951 29.6712297,87.4969736 L30,87.5 L34,87.5 L34,92.5 L30,92.5 C17.5735931,92.5 7.5,82.4264069 7.5,70 C7.5,59.5954434 14.6056576,50.6958808 24.4236609,48.1963892 L24.952,48.068 L25.0278421,47.8182882 C29.3829956,33.6781057 42.4337476,23.7094052 57.5228328,23.5032582 L58,23.5 Z M82,39.5 C96.6355459,39.5 108.5,51.3644541 108.5,66 C108.5,80.4891904 96.8716485,92.2624338 82.438226,92.4964498 L82,92.5 L82,87.5 C93.8741221,87.5 103.5,77.8741221 103.5,66 C103.5,54.1258779 93.8741221,44.5 82,44.5 C79.7703222,44.5 77.5896656,44.8386511 75.5108831,45.495894 L74.9933404,45.6668304 L73.3646948,40.9395147 C76.1201977,39.9901942 79.0284121,39.5 82,39.5 Z M60.5,58 L60.5,90 L55.5,90 L55.5,58 L60.5,58 Z" id="Shape" fill="#000000" fill-rule="nonzero"></path>
    </g>
</svg>