<?xml version="1.0" encoding="UTF-8"?>
<svg  viewBox="0 0 117 116" version="1.1" xmlns="http://www.w3.org/2000/svg" xmlns:xlink="http://www.w3.org/1999/xlink">
    <title>drop</title>
    <g id="drop" stroke="none" stroke-width="1" fill="none" fill-rule="evenodd" transform="translate(0.000000, 0.000000)">
        <path d="M54.8595474,10.8889669 C57.1364801,8.87840196 60.6121834,9.09433486 62.6227531,11.3712673 L63.9822218,12.9187137 L65.3143398,14.4509425 L66.6191024,15.9679742 L67.8965051,17.4698289 L69.146543,18.9565271 L70.3692115,20.4280889 C70.7722056,20.916089 71.1706374,21.4015698 71.564506,21.8845346 L72.7324218,23.3258847 C72.9247926,23.5648529 73.1160225,23.8031929 73.3061112,24.0409052 L74.4329502,25.4596497 C74.9895224,26.1652591 75.5358233,26.8652265 76.0718501,27.5595636 L77.1302042,28.9407337 C77.6525312,29.6275686 78.1645824,30.3087806 78.6663551,30.9843812 L79.6561953,32.3281039 L80.6186217,33.6568831 C80.934861,34.0973211 81.2465306,34.535272 81.5536296,34.9707391 L82.4612145,36.2696923 L83.3413715,37.5537628 C84.2078131,38.8303989 85.0331059,40.0847416 85.8172291,41.3168822 L86.5876282,42.5416255 C86.839853,42.9474086 87.0875025,43.3507282 87.3305761,43.7515877 L88.0460682,44.9467891 C94.0110506,55.0433255 97,63.5423627 97,70.5 C97,85.1172468 88.7794191,98.2629515 76.0178777,104.792327 L75.5908162,105.007515 L73.3684898,100.528535 C84.687782,94.912265 92,83.3620223 92,70.5 C92,63.6452279 88.4230855,54.6066523 81.2512245,43.4625932 L80.4830133,42.2817613 L79.6882419,41.0853967 L78.8669057,39.8735197 C78.7278023,39.6702486 78.5875919,39.466332 78.4462743,39.2617704 L77.5850821,38.0266629 L76.6973134,36.7760938 C76.547137,36.5663783 76.395853,36.3560194 76.2434614,36.1450175 L75.3158192,34.871294 C75.1589966,34.6577219 75.0010662,34.4435078 74.8420278,34.2286519 L73.8745016,32.9318197 L72.8803802,31.6196071 C72.7124767,31.3996245 72.543465,31.1790018 72.3733448,30.9577395 L71.3393218,29.6224943 L70.2786919,28.2719195 C70.0997028,28.0455473 69.9196048,27.8185373 69.738398,27.5908898 L68.637849,26.2173585 C68.4522061,25.9871628 68.2654541,25.7563305 68.0775929,25.524862 L66.9371143,24.1284199 L65.7700102,22.7167294 L64.5762758,21.2898106 L63.3559065,19.847684 C63.1502918,19.6060634 62.9435671,19.36381 62.7357323,19.1209241 L61.4754019,17.6560238 C61.0508509,17.1651963 60.6218588,16.6718427 60.1884249,16.1759663 L58.8747965,14.680772 C58.692017,14.4737776 58.3760433,14.4541473 58.1690498,14.6369256 L58.1252043,14.680771 L56.8115759,16.1759654 C56.5948589,16.4239037 56.3792524,16.6712112 56.1647562,16.9178876 L54.891103,18.3903691 C54.681048,18.6345193 54.4721031,18.8780376 54.2642683,19.1209234 L53.0305797,20.5706464 C52.8271849,20.811001 52.6248999,21.0507224 52.4237247,21.2898101 L51.2299903,22.7167289 L50.0628861,24.1284195 L48.9224075,25.5248616 L47.8085498,26.906035 C47.4417002,27.363879 47.0792867,27.8191749 46.7213084,28.2719193 L45.6606785,29.6224942 L44.6266554,30.9577394 C44.4565352,31.1790016 44.2875235,31.3996243 44.11962,31.619607 L43.1254986,32.9318197 L42.1579723,34.2286519 L41.2170366,35.5100834 C40.9078226,35.9346582 40.6030395,36.3566628 40.3026867,36.7760938 L39.414918,38.026663 L38.5537257,39.2617705 L37.7191054,40.4813961 C37.582216,40.6833757 37.4464336,40.8847094 37.3117581,41.0853968 L36.5169867,42.2817615 L35.7487755,43.4625934 C28.5769143,54.6066526 25,63.6452281 25,70.5 C25,88.8165237 39.6999915,103.69968 57.9460162,103.995512 L58.5,104 L58.5,109 C37.2370371,109 20,91.7629629 20,70.5 C20,63.5423629 22.9889493,55.0433258 28.9539314,44.9467896 L29.6694235,43.7515882 C29.9124971,43.3507288 30.1601467,42.9474092 30.4123714,42.541626 L31.1827705,41.3168828 C31.9668936,40.0847422 32.7921865,38.8303996 33.658628,37.5537636 L34.538785,36.269693 L35.4463698,34.9707399 C35.7534689,34.5352728 36.0651384,34.0973219 36.3813777,33.6568839 L37.3438041,32.3281047 L38.3336442,30.984382 C38.835417,30.3087815 39.3474681,29.6275695 39.8697951,28.9407347 L40.9281492,27.5595645 C41.464176,26.8652275 42.0104768,26.1652601 42.567049,25.4596507 L43.6938879,24.0409062 C43.8839767,23.8031939 44.0752065,23.5648539 44.2675773,23.3258858 L45.4354931,21.8845357 C45.8293617,21.4015709 46.2277934,20.9160901 46.6307875,20.42809 L47.853456,18.9565282 L49.1034939,17.4698302 L50.3808965,15.9679755 L51.6856591,14.4509438 L53.017777,12.918715 L54.3772457,11.3712687 C54.5278798,11.2006779 54.6889567,11.039601 54.8595474,10.8889669 Z" id="Path" fill="#000000" fill-rule="nonzero"></path>
    </g>
</svg>