<?xml version="1.0" encoding="UTF-8"?>
<svg  viewBox="0 0 117 116" version="1.1" xmlns="http://www.w3.org/2000/svg" xmlns:xlink="http://www.w3.org/1999/xlink">
    <title>duplicate</title>
    <g id="duplicate" stroke="none" stroke-width="1" fill="none" fill-rule="evenodd" transform="translate(0.000000, 0.000000)">
        <path d="M89,78.5 C89,84.2039245 84.451858,88.8455734 78.7842951,88.9962258 L78.5,89 L22.5,89 C16.7960755,89 12.1544266,84.451858 12.0037742,78.7842951 L12,78.5 L12,22.5 C12,16.7960755 16.548142,12.1544266 22.2157049,12.0037742 L22.5,12 L70.5,12 L70.5,17 L22.5,17 C19.5365209,17 17.1204609,19.34378 17.0043672,22.2787929 L17,22.5 L17,78.5 C17,81.4634791 19.34378,83.8795391 22.2787929,83.9956328 L22.5,84 L78.5,84 C81.4634791,84 83.8795391,81.65622 83.9956328,78.7212071 L84,78.5 L84,22.5 C84,19.5365209 81.65622,17.1204609 78.7212071,17.0043672 L78.5,17 L78.5,12 L78.7842951,12.0037742 C84.3573986,12.1519157 88.8480843,16.6426014 88.9962258,22.2157049 L89,22.5 L89,28 L94.5,28 C100.203924,28 104.845573,32.548142 104.996226,38.2157049 L105,38.5 L105,94.5 C105,100.203924 100.451858,104.845573 94.7842951,104.996226 L94.5,105 L38.5,105 C32.7960755,105 28.1544266,100.451858 28.0037742,94.7842951 L28,94.5 L33,94.5 C33,97.4634791 35.34378,99.8795391 38.2787929,99.9956328 L38.5,100 L94.5,100 C97.4634791,100 99.8795391,97.65622 99.9956328,94.7212071 L100,94.5 L100,38.5 C100,35.5365209 97.65622,33.1204609 94.7212071,33.0043672 L94.5,33 L89,33 L89,78.5 Z" id="Path" fill="#000000" fill-rule="nonzero"></path>
    </g>
</svg>