<?xml version="1.0" encoding="UTF-8"?>
<svg  viewBox="0 0 116 116" version="1.1" xmlns="http://www.w3.org/2000/svg" xmlns:xlink="http://www.w3.org/1999/xlink">
    <title>ear-slash</title>
    <g id="ear-slash" stroke="none" stroke-width="1" fill="none" fill-rule="evenodd">
        <path d="M48.8336427,64.6308234 L52.3691766,68.1663573 L12.267767,108.267767 L8.73223305,104.732233 L48.8336427,64.6308234 Z M104.732233,8.73223305 L108.267767,12.267767 L84.2639285,36.2715791 C84.7122702,38.1328147 84.9641659,40.0706016 84.9964498,42.061774 L85,42.5 L85,70.5 C85,74.0898509 82.0898509,77 78.5,77 C77.7203039,77 77.0795513,77.5948881 77.0068666,78.35554 L77,78.5 L77,82.5 C77,92.7172679 68.7172679,101 58.5,101 C48.3950098,101 40.1822717,92.8983057 40.0029922,82.8361237 L40,82.5 L45,82.5 C45,89.9558441 51.0441559,96 58.5,96 C65.8522907,96 71.8318345,90.1225714 71.9965146,82.8098308 L72,82.5 L72,78.5 C72,74.9101491 74.9101491,72 78.5,72 C79.2796961,72 79.9204487,71.4051119 79.9931334,70.64446 L80,70.5 L80,42.5 C80,30.6258779 70.3741221,21 58.5,21 C46.7446191,21 37.1927424,30.4343229 37.0028804,42.1444582 L37,42.5 L37,50.5 L32,50.5 L32,42.5 C32,27.8644541 43.8644541,16 58.5,16 C69.0372341,16 78.1380321,22.1501141 82.4086615,31.0566096 L104.732233,8.73223305 Z M58.5,28 C66.4027588,28 72.8288988,34.3221564 72.9966395,42.1846885 L73,42.5 L73,60.5 L72.9962434,60.7551603 C72.86382,65.2467991 69.2467991,68.86382 64.7551603,68.9962434 L64.5,69 L64.3079648,69.0051789 C62.527853,69.1014358 61.1014358,70.527853 61.0051789,72.3079648 L61,72.5 L61,82.5 L56,82.5 L56,72.5 L56.0037566,72.2448397 C56.13618,67.7532009 59.7532009,64.13618 64.2448397,64.0037566 L64.5,64 C66.3685634,64 67.8951264,62.5357224 67.9948211,60.6920352 L68,60.5 L68,42.5 L67.9962236,42.2295213 C67.8530394,37.1078939 63.6562447,33 58.5,33 C53.3437553,33 49.1469606,37.1078939 49.0037764,42.2295213 L49,42.5 L49,58.5 L44,58.5 L44,42.5 L44.0033605,42.1846885 C44.1711012,34.3221564 50.5972412,28 58.5,28 Z" id="Shape" fill="#000000" fill-rule="nonzero"></path>
    </g>
</svg>