<?xml version="1.0" encoding="UTF-8"?>
<svg   viewBox="0 0 116 116" version="1.1" xmlns="http://www.w3.org/2000/svg" xmlns:xlink="http://www.w3.org/1999/xlink">
    <title>envelope</title>
    <g id="envelope" stroke="none" stroke-width="1" fill="none" fill-rule="evenodd">
        <path d="M17.7558395,23 L98.5546868,23.4208273 C104.237539,23.4504255 108.846661,27.990453 108.996252,33.6374294 L109,33.9206849 L109,81.9622431 C109,87.6661675 104.451858,92.3078165 98.7842951,92.4584688 L98.5,92.4622431 L18.5,92.4622431 C12.7960755,92.4622431 8.15442656,87.9141011 8.00377424,82.2465382 L8,81.9622431 L8,33.9622431 L13,33.9622431 L13,81.9622431 C13,84.9257222 15.34378,87.3417822 18.2787929,87.4578759 L18.5,87.4622431 L98.5,87.4622431 C101.463479,87.4622431 103.879539,85.1184631 103.995633,82.1834502 L104,81.9622431 L104,33.9206849 C104,30.9681138 101.672804,28.5567516 98.7490208,28.4262438 L98.5286454,28.4207595 L17.7297982,27.9999322 C17.4536596,27.998494 17.2286391,28.2211826 17.2272009,28.4973213 C17.2266483,28.6034102 17.25983,28.7061983 17.3208863,28.7913291 L17.3718136,28.8516422 L54.6202005,66.4880332 C56.697573,68.587045 60.046861,68.6624057 62.2153492,66.701407 L62.4184734,66.5082358 L96.732233,32.1944761 L100.267767,35.73001 L65.9154386,70.0821391 C61.8673444,74.0885003 55.3822277,74.1268154 51.2873528,70.222096 L51.0663955,70.005201 L13.8180085,32.3688101 C12.7918804,31.331993 12.2196712,29.9300023 12.2272687,28.47128 C12.2427032,25.507841 14.5990349,23.1040208 17.5346126,23.003215 L17.7558395,23 Z M32.732233,64.1944761 L36.267767,67.73001 L20.267767,83.73001 L16.732233,80.1944761 L32.732233,64.1944761 Z M84.267767,64.1944761 L100.267767,80.1944761 L96.732233,83.73001 L80.732233,67.73001 L84.267767,64.1944761 Z" id="Shape" fill="#000000" fill-rule="nonzero"></path>
    </g>
</svg>