<?xml version="1.0" encoding="UTF-8"?>
<svg   viewBox="0 0 128 128" version="1.1" xmlns="http://www.w3.org/2000/svg" xmlns:xlink="http://www.w3.org/1999/xlink">
    <title>envelope</title>
    <g id="envelope" stroke="none" stroke-width="1" fill="none" fill-rule="evenodd">
        <path d="M23.2558395,29.0377569 L104.054687,29.4585843 C109.737539,29.4881824 114.346661,34.0282099 114.496252,39.6751863 L114.5,39.9584418 L114.5,88 C114.5,93.7039245 109.951858,98.3455734 104.284295,98.4962258 L104,98.5 L24,98.5 C18.2960755,98.5 13.6544266,93.951858 13.5037742,88.2842951 L13.5,88 L13.5,40 L18.5,40 L18.5,88 C18.5,90.9634791 20.84378,93.3795391 23.7787929,93.4956328 L24,93.5 L104,93.5 C106.963479,93.5 109.379539,91.15622 109.495633,88.2212071 L109.5,88 L109.5,39.9584418 C109.5,37.0058708 107.172804,34.5945085 104.249021,34.4640007 L104.028645,34.4585164 L23.2297982,34.0376891 C22.9536596,34.0362509 22.7286391,34.2589396 22.7272009,34.5350782 C22.7266483,34.6411671 22.75983,34.7439552 22.8208863,34.8290861 L22.8718136,34.8893991 L60.1202005,72.5257901 C62.197573,74.6248019 65.546861,74.7001626 67.7153492,72.7391639 L67.9184734,72.5459927 L102.232233,38.232233 L105.767767,41.767767 L71.4154386,76.119896 C67.3673444,80.1262572 60.8822277,80.1645723 56.7873528,76.259853 L56.5663955,76.042958 L19.3180085,38.406567 C18.2918804,37.36975 17.7196712,35.9677592 17.7272687,34.5090369 C17.7427032,31.5455979 20.0990349,29.1417777 23.0346126,29.040972 L23.2558395,29.0377569 Z M38.232233,70.232233 L41.767767,73.767767 L25.767767,89.767767 L22.232233,86.232233 L38.232233,70.232233 Z M89.767767,70.232233 L105.767767,86.232233 L102.232233,89.767767 L86.232233,73.767767 L89.767767,70.232233 Z" id="Shape" fill="#000000" fill-rule="nonzero"></path>
    </g>
</svg>