<?xml version="1.0" encoding="UTF-8"?>
<svg  viewBox="0 0 116 116" version="1.1" xmlns="http://www.w3.org/2000/svg" xmlns:xlink="http://www.w3.org/1999/xlink">
    <title>error</title>
    <g id="error" stroke="none" stroke-width="1" fill="none" fill-rule="evenodd">
        <path d="M58,7.5 C85.8903799,7.5 108.5,30.1096201 108.5,58 C108.5,85.8903799 85.8903799,108.5 58,108.5 C44.8041435,108.5 32.405191,103.412847 23.0754208,94.4764736 L22.633475,94.0480275 L26.1353122,90.479115 C34.588002,98.7729424 45.9177006,103.5 58,103.5 C83.1289561,103.5 103.5,83.1289561 103.5,58 C103.5,32.8710439 83.1289561,12.5 58,12.5 C32.8710439,12.5 12.5,32.8710439 12.5,58 C12.5,62.3977738 13.1233759,66.7076182 14.3350707,70.8361938 L14.429,71.148 L89.1090406,42.6641508 L90.8909594,47.3358492 L11.3992677,77.6562451 L10.5310883,75.2705536 C8.53395327,69.7825773 7.5,63.960354 7.5,58 C7.5,30.1096201 30.1096201,7.5 58,7.5 Z" id="Path" fill="#000000" fill-rule="nonzero"></path>
    </g>
</svg>