<?xml version="1.0" encoding="UTF-8"?>
<svg width="128px" height="128px" viewBox="0 0 128 128" version="1.1" xmlns="http://www.w3.org/2000/svg" xmlns:xlink="http://www.w3.org/1999/xlink">
    <title>error-mark-off</title>
    <g id="error-mark-off" stroke="none" stroke-width="1" fill="none" fill-rule="evenodd">
        <path d="M17.767767,14.232233 L113.767767,110.232233 L110.232233,113.767767 L14.232233,17.767767 L17.767767,14.232233 Z M28.7519955,88.3845529 C30.6519421,89.3345262 32.2163749,90.8369784 33.2423982,92.6902942 L33.4178308,93.0209511 L35.0963162,96.3254692 C36.471925,99.033699 39.7825302,100.114002 42.49076,98.7383929 C43.4505631,98.2508739 44.2443868,97.4933797 44.7762351,96.5619065 L44.9036838,96.3254692 L46.5821692,93.0209511 C49.2083314,87.8506943 55.5285777,85.7882981 60.6988346,88.4144603 C62.5927308,89.3764393 64.1476232,90.8887627 65.1618964,92.7485351 L65.3352328,93.0802956 L67.0806504,96.571131 C68.4390913,99.2880127 71.742793,100.389247 74.4596748,99.0308057 C75.4421985,98.5395439 76.2531773,97.7663544 76.7907196,96.8131291 L76.9193496,96.571131 L78.6085145,93.1928011 L83.0806504,95.428869 L81.3914855,98.8071989 C80.3754666,100.839237 78.7277805,102.486923 76.6957428,103.502942 C71.59688,106.052373 65.4153787,104.06389 62.7435586,99.0682672 L62.6085145,98.8071989 L60.8630968,95.3163636 C60.3362209,94.2626117 59.4849035,93.4058892 58.4345073,92.8723546 C55.7957193,91.5320178 52.5850509,92.5232631 51.1496533,95.0801779 L51.0400635,95.2852784 L49.3615781,98.5897965 C48.3533001,100.574844 46.7401346,102.188009 44.7550873,103.196287 C39.6724619,105.777938 33.4784994,103.828618 30.7751156,98.8500048 L30.6384219,98.5897965 L28.9599365,95.2852784 C28.4264019,94.2348822 27.5696794,93.3835648 26.5159275,92.8566888 C23.8687094,91.5330798 20.6643788,92.5446255 19.2451927,95.1105736 L19.1369032,95.3163636 L18.236068,97.118034 L13.763932,94.881966 L14.6647672,93.0802956 C17.2581543,87.8935214 23.5652213,85.7911658 28.7519955,88.3845529 Z M64,13.5 C78.6355459,13.5 90.5,25.3644541 90.5,40 C90.5,51.3273638 83.3281486,61.2801782 72.8404829,64.988879 L72.4645202,65.1186696 L70.8683271,60.3802977 C79.5410319,57.4587645 85.5,49.299868 85.5,40 C85.5,28.1258779 75.8741221,18.5 64,18.5 C54.6759226,18.5 46.5108342,24.4894902 43.6067594,33.1701029 L43.4871944,33.5384817 L38.7177328,32.0377367 C42.1623731,21.0904535 52.3458362,13.5 64,13.5 Z M79.1090406,31.1641508 L80.8909594,35.8358492 L52.671894,46.5994047 L50.8899752,41.9277063 L79.1090406,31.1641508 Z" id="Shape" fill="#000000" fill-rule="nonzero"></path>
    </g>
</svg>