<?xml version="1.0" encoding="UTF-8"?>
<svg   viewBox="0 0 128 128" version="1.1" xmlns="http://www.w3.org/2000/svg" xmlns:xlink="http://www.w3.org/1999/xlink">
    <title>error-mark</title>
    <g id="error-mark" stroke="none" stroke-width="1" fill="none" fill-rule="evenodd">
        <path d="M28.7519955,88.3845529 C30.6519421,89.3345262 32.2163749,90.8369784 33.2423982,92.6902942 L33.4178308,93.0209511 L35.0963162,96.3254692 C36.471925,99.033699 39.7825302,100.114002 42.49076,98.7383929 C43.4505631,98.2508739 44.2443868,97.4933797 44.7762351,96.5619065 L44.9036838,96.3254692 L46.5821692,93.0209511 C49.2083314,87.8506943 55.5285777,85.7882981 60.6988346,88.4144603 C62.5927308,89.3764393 64.1476232,90.8887627 65.1618964,92.7485351 L65.3352328,93.0802956 L67.0806504,96.571131 C68.4390913,99.2880127 71.742793,100.389247 74.4596748,99.0308057 C75.4421985,98.5395439 76.2531773,97.7663544 76.7907196,96.8131291 L76.9193496,96.571131 L78.6085145,93.1928011 C81.2019016,88.0060268 87.5089685,85.9036712 92.6957428,88.4970583 C94.6208311,89.4596025 96.2009613,90.9890725 97.2258482,92.8751831 L97.3914855,93.1928011 L99.0806504,96.571131 C100.439091,99.2880127 103.742793,100.389247 106.459675,99.0308057 C107.442199,98.5395439 108.253177,97.7663544 108.79072,96.8131291 L108.91935,96.571131 L109.763932,94.881966 L114.236068,97.118034 L113.391486,98.8071989 C112.375467,100.839237 110.72778,102.486923 108.695743,103.502942 C103.59688,106.052373 97.4153787,104.06389 94.7435586,99.0682672 L94.6085145,98.8071989 L92.9193496,95.428869 C92.3871492,94.3644683 91.5240755,93.5013946 90.4596748,92.9691943 C87.8124567,91.6455852 84.6081261,92.6571309 83.18894,95.2230791 L83.0806504,95.428869 L81.3914855,98.8071989 C80.3754666,100.839237 78.7277805,102.486923 76.6957428,103.502942 C71.59688,106.052373 65.4153787,104.06389 62.7435586,99.0682672 L62.6085145,98.8071989 L60.8630968,95.3163636 C60.3362209,94.2626117 59.4849035,93.4058892 58.4345073,92.8723546 C55.7957193,91.5320178 52.5850509,92.5232631 51.1496533,95.0801779 L51.0400635,95.2852784 L49.3615781,98.5897965 C48.3533001,100.574844 46.7401346,102.188009 44.7550873,103.196287 C39.6724619,105.777938 33.4784994,103.828618 30.7751156,98.8500048 L30.6384219,98.5897965 L28.9599365,95.2852784 C28.4264019,94.2348822 27.5696794,93.3835648 26.5159275,92.8566888 C23.8687094,91.5330798 20.6643788,92.5446255 19.2451927,95.1105736 L19.1369032,95.3163636 L18.236068,97.118034 L13.763932,94.881966 L14.6647672,93.0802956 C17.2581543,87.8935214 23.5652213,85.7911658 28.7519955,88.3845529 Z M64,13.5 C78.6355459,13.5 90.5,25.3644541 90.5,40 C90.5,54.6355459 78.6355459,66.5 64,66.5 C57.1264392,66.5 50.6622679,63.8681504 45.7793655,59.2422093 L45.4412782,58.9162419 L48.9431154,55.3473294 C52.938058,59.2671898 58.2896041,61.5 64,61.5 C75.8741221,61.5 85.5,51.8741221 85.5,40 C85.5,28.1258779 75.8741221,18.5 64,18.5 C52.1258779,18.5 42.5,28.1258779 42.5,40 C42.5,41.6336313 42.6818051,43.2408214 43.0373624,44.8006399 L43.064,44.912 L79.1090406,31.1641508 L80.8909594,35.8358492 L39.9590855,51.448432 L39.090906,49.0627406 C38.042661,46.1822424 37.5,43.1265013 37.5,40 C37.5,25.3644541 49.3644541,13.5 64,13.5 Z" id="Shape" fill="#000000" fill-rule="nonzero"></path>
    </g>
</svg>