<?xml version="1.0" encoding="UTF-8"?>
<svg width="128px" height="128px" viewBox="0 0 128 128" version="1.1" xmlns="http://www.w3.org/2000/svg" xmlns:xlink="http://www.w3.org/1999/xlink">
    <title>error</title>
    <g id="error" stroke="none" stroke-width="1" fill="none" fill-rule="evenodd">
        <path d="M64,21.5 C87.4721019,21.5 106.5,40.5278981 106.5,64 C106.5,87.4721019 87.4721019,106.5 64,106.5 C52.9131592,106.5 42.4938441,102.232533 34.6466984,94.7350154 L34.236076,94.3374323 L37.7379133,90.7685198 C44.7046873,97.6043582 54.0416684,101.5 64,101.5 C84.7106781,101.5 101.5,84.7106781 101.5,64 C101.5,43.2893219 84.7106781,26.5 64,26.5 C43.2893219,26.5 26.5,43.2893219 26.5,64 C26.5,67.4977153 26.9783286,70.9275599 27.9090177,74.2207087 L27.964,74.407 L89.7757072,50.8308175 L91.5576261,55.5025158 L24.919207,80.9203074 L24.0510276,78.5346159 C22.3701892,73.915799 21.5,69.0157364 21.5,64 C21.5,40.5278981 40.5278981,21.5 64,21.5 Z" id="Path" fill="#000000" fill-rule="nonzero"></path>
    </g>
</svg>