<?xml version="1.0" encoding="UTF-8"?>
<svg  viewBox="0 0 116 116" version="1.1" xmlns="http://www.w3.org/2000/svg" xmlns:xlink="http://www.w3.org/1999/xlink">
    <title>eye-off</title>
    <g id="eye-off" stroke="none" stroke-width="1" fill="none" fill-rule="evenodd">
        <path d="M11.274706,8 L107.274706,104 L103.739172,107.535534 L7.73917214,11.5355339 L11.274706,8 Z M41.2704391,48.8943563 L45.6561146,51.2955748 C44.6464205,53.1397179 44.0804322,55.1958705 44.0136278,57.3381912 L44.0069391,57.767767 C44.0069391,64.4392615 45.6212959,69.9017114 48.1775891,73.6681931 L50.677663,69.4159511 C52.7307128,70.6227265 55.0686853,71.267767 57.5069391,71.267767 C59.3945971,71.267767 61.2231062,70.8815004 62.909477,70.1440412 L63.2960785,69.9676401 L65.4433006,74.4831066 C62.9839232,75.6526047 60.2866001,76.267767 57.5069391,76.267767 C54.3304769,76.267767 51.2660875,75.4640423 48.5489108,73.9576628 L48.2658252,73.7969879 C50.7119662,77.3341754 53.9993529,79.3391748 57.553415,79.3959195 C61.6610349,79.4615024 65.5396875,78.842551 69.2625219,77.5470272 L69.8815641,77.3248434 L71.6161049,82.0143389 C67.1227715,83.6763236 62.4267816,84.4743656 57.4735945,84.3952823 C47.140437,84.2303017 39.1677624,73.5332604 39.0093422,58.2328196 L39.0069391,57.767767 C39.0069391,54.6263679 39.7928672,51.593049 41.2704391,48.8943563 Z M32.0630353,39.7257435 L34.8365362,43.8859949 L14.0129391,57.766767 L37.2603819,73.2654361 C38.727241,74.2433421 40.2558147,75.1100394 41.8356997,75.8616047 L42.5159045,76.1766438 L40.4613696,80.7350302 C38.6484882,79.9179366 36.8925285,78.9694395 35.2055924,77.8942339 L34.486881,77.4256876 L5,57.767767 L32.0630353,39.7257435 Z M79.5647041,37.4872729 L80.051071,37.7972395 L80.5269972,38.1098463 L110.013878,57.767767 L83.1573444,75.6721228 L80.3838434,71.5118713 L100.998939,57.767767 L77.7534963,42.2700978 C68.1712413,35.8819278 56.1912546,34.4196461 45.4281799,38.1944571 L44.9245658,38.3752383 L43.200842,33.681756 C55.2287584,29.2643948 68.6643757,30.6461446 79.5647041,37.4872729 Z M57.5069391,39.267767 C67.724207,39.267767 76.0069391,47.5504991 76.0069391,57.767767 C76.0069391,60.344482 75.4783368,62.8506152 74.4692766,65.1623152 L74.2610728,65.6220261 L69.7350789,63.4970839 C70.5689458,61.7209996 71.0069391,59.7778884 71.0069391,57.767767 C71.0069391,50.3119228 64.9627832,44.267767 57.5069391,44.267767 C55.690457,44.267767 53.9286013,44.6254131 52.2949091,45.3099407 L51.8891987,45.4878649 L49.8058249,40.9425867 C52.2023967,39.844094 54.816364,39.267767 57.5069391,39.267767 Z" id="Shape" fill="#000000" fill-rule="nonzero"></path>
    </g>
</svg>