<?xml version="1.0" encoding="UTF-8"?>
<svg width="128px" height="128px" viewBox="0 0 128 128" version="1.1" xmlns="http://www.w3.org/2000/svg" xmlns:xlink="http://www.w3.org/1999/xlink">
    <title>eye-off</title>
    <g id="eye-off" stroke="none" stroke-width="1" fill="none" fill-rule="evenodd">
        <path d="M17.767767,14.232233 L113.767767,110.232233 L110.232233,113.767767 L14.232233,17.767767 L17.767767,14.232233 Z M47.7635,55.1265893 L52.1491755,57.5278078 C51.1394814,59.371951 50.5734931,61.4281035 50.5066887,63.5704242 L50.5,64 C50.5,70.6714945 52.1143568,76.1339444 54.67065,79.9004262 L57.1707239,75.6481841 C59.2237737,76.8549595 61.5617463,77.5 64,77.5 C65.887658,77.5 67.7161672,77.1137334 69.4025379,76.3762743 L69.7891394,76.1998732 L71.9363615,80.7153396 C69.4769841,81.8848377 66.779661,82.5 64,82.5 C60.8235378,82.5 57.7591484,81.6962753 55.0419717,80.1898958 L54.7588861,80.0292209 C57.2050271,83.5664085 60.4924138,85.5714079 64.0464759,85.6281526 C68.1540958,85.6937354 72.0327484,85.074784 75.7555829,83.7792603 L76.374625,83.5570764 L78.1091658,88.246572 C73.6158324,89.9085567 68.9198425,90.7065987 63.9666554,90.6275154 C53.6334979,90.4625347 45.6608233,79.7654935 45.5024031,64.4650527 L45.5,64 C45.5,60.8586009 46.2859281,57.825282 47.7635,55.1265893 Z M38.5560962,45.9579765 L41.3295971,50.118228 L20.506,63.999 L43.7534428,79.4976692 C45.2203019,80.4755752 46.7488756,81.3422724 48.3287606,82.0938377 L49.0089654,82.4088769 L46.9544305,86.9672632 C45.1415491,86.1501697 43.3855895,85.2016725 41.6986533,84.126467 L40.9799419,83.6579206 L11.4930609,64 L38.5560962,45.9579765 Z M86.057765,43.719506 L86.5441319,44.0294725 L87.0200581,44.3420794 L116.506939,64 L89.6504053,81.9043559 L86.8769043,77.7441044 L107.492,64 L84.2465572,48.5023308 C74.6643022,42.1141609 62.6843155,40.6518791 51.9212408,44.4266901 L51.4176267,44.6074714 L49.6939029,39.9139891 C61.7218193,35.4966279 75.1574366,36.8783776 86.057765,43.719506 Z M64,45.5 C74.2172679,45.5 82.5,53.7827321 82.5,64 C82.5,66.576715 81.9713977,69.0828482 80.9623375,71.3945483 L80.7541337,71.8542592 L76.2281398,69.7293169 C77.0620067,67.9532327 77.5,66.0101214 77.5,64 C77.5,56.5441559 71.4558441,50.5 64,50.5 C62.1835179,50.5 60.4216622,50.8576461 58.78797,51.5421738 L58.3822596,51.7200979 L56.2988858,47.1748198 C58.6954576,46.076327 61.3094249,45.5 64,45.5 Z" id="Shape" fill="#000000" fill-rule="nonzero"></path>
    </g>
</svg>