<?xml version="1.0" encoding="UTF-8"?>
<svg   viewBox="0 0 116 116" version="1.1" xmlns="http://www.w3.org/2000/svg" xmlns:xlink="http://www.w3.org/1999/xlink">
    <title>eye</title>
    <g id="eye" stroke="none" stroke-width="1" fill="none" fill-rule="evenodd">
        <path d="M48.1775891,73.5282596 L50.677663,69.2760176 C52.7307128,70.482793 55.0686853,71.1278334 57.5069391,71.1278334 C64.9627832,71.1278334 71.0069391,65.0836775 71.0069391,57.6278334 C71.0069391,50.1719893 64.9627832,44.1278334 57.5069391,44.1278334 C50.1546484,44.1278334 44.1751046,50.005262 44.0104245,57.3180026 L44.0069391,57.6278334 C44.0069391,64.299328 45.6212959,69.7617779 48.1775891,73.5282596 Z M57.5069391,39.1278334 C67.724207,39.1278334 76.0069391,47.4105655 76.0069391,57.6278334 C76.0069391,67.8451013 67.724207,76.1278334 57.5069391,76.1278334 C54.3304769,76.1278334 51.2660875,75.3241087 48.5489108,73.8177293 L48.2658252,73.6570543 C50.7119662,77.1942419 53.9993529,79.1992413 57.553415,79.255986 C64.6402658,79.3691356 71.0714544,77.4470512 77.2265812,73.4713102 L77.7534963,73.1255026 L100.998939,57.6278334 L77.7534963,42.1301643 C65.6324897,34.0494932 49.8832415,33.9576674 37.6797748,41.8546868 L37.2603819,42.1301643 L14.0139391,57.6278334 L37.2603819,73.1255026 C38.727241,74.1034086 40.2558147,74.9701058 41.8356997,75.7216712 L42.5159045,76.0367103 L40.4613696,80.5950966 C38.6484882,79.7780031 36.8925285,78.8295059 35.2055924,77.7543004 L34.486881,77.2857541 L5,57.6278334 L34.486881,37.9699128 C48.2815,28.7735001 66.2092866,28.6777041 80.0900133,37.6825249 L80.5269972,37.9699128 L110.013878,57.6278334 L80.5269972,77.2857541 C73.3866425,82.0459906 65.8016523,84.3883158 57.4735945,84.2553488 C47.140437,84.0903681 39.1677624,73.3933269 39.0093422,58.0928861 L39.0069391,57.6278334 C39.0069391,47.4105655 47.2896712,39.1278334 57.5069391,39.1278334 Z" id="Shape" fill="#000000" fill-rule="nonzero"></path>
    </g>
</svg>