<?xml version="1.0" encoding="UTF-8"?>
<svg width="128px" height="128px" viewBox="0 0 128 128" version="1.1" xmlns="http://www.w3.org/2000/svg" xmlns:xlink="http://www.w3.org/1999/xlink">
    <title>eye</title>
    <g id="eye" stroke="none" stroke-width="1" fill="none" fill-rule="evenodd">
        <path d="M54.67065,79.9004262 L57.1707239,75.6481841 C59.2237737,76.8549595 61.5617463,77.5 64,77.5 C71.4558441,77.5 77.5,71.4558441 77.5,64 C77.5,56.5441559 71.4558441,50.5 64,50.5 C56.6477093,50.5 50.6681655,56.3774286 50.5034854,63.6901692 L50.5,64 C50.5,70.6714945 52.1143568,76.1339444 54.67065,79.9004262 Z M64,45.5 C74.2172679,45.5 82.5,53.7827321 82.5,64 C82.5,74.2172679 74.2172679,82.5 64,82.5 C60.8235378,82.5 57.7591484,81.6962753 55.0419717,80.1898958 L54.7588861,80.0292209 C57.2050271,83.5664085 60.4924138,85.5714079 64.0464759,85.6281526 C71.1333267,85.7413022 77.5645153,83.8192177 83.7196421,79.8434768 L84.2465572,79.4976692 L107.492,64 L84.2465572,48.5023308 C72.1255506,40.4216598 56.3763024,40.329834 44.1728358,48.2268534 L43.7534428,48.5023308 L20.507,64 L43.7534428,79.4976692 C45.2203019,80.4755752 46.7488756,81.3422724 48.3287606,82.0938377 L49.0089654,82.4088769 L46.9544305,86.9672632 C45.1415491,86.1501697 43.3855895,85.2016725 41.6986533,84.126467 L40.9799419,83.6579206 L11.4930609,64 L40.9799419,44.3420794 C54.7745609,35.1456667 72.7023475,35.0498707 86.5830742,44.0546915 L87.0200581,44.3420794 L116.506939,64 L87.0200581,83.6579206 C79.8797034,88.4181571 72.2947132,90.7604823 63.9666554,90.6275154 C53.6334979,90.4625347 45.6608233,79.7654935 45.5024031,64.4650527 L45.5,64 C45.5,53.7827321 53.7827321,45.5 64,45.5 Z" id="Shape" fill="#000000" fill-rule="nonzero"></path>
    </g>
</svg>