<?xml version="1.0" encoding="UTF-8"?>
<svg  viewBox="0 0 117 116" version="1.1" xmlns="http://www.w3.org/2000/svg" xmlns:xlink="http://www.w3.org/1999/xlink">
    <title>eyedropper</title>
    <g id="eyedropper" stroke="none" stroke-width="1" fill="none" fill-rule="evenodd" transform="translate(1.000000, 0.000000)">
        <path d="M70.732233,54.732233 L74.267767,58.267767 L36.5038349,96.031699 C34.8679539,97.66758 32.8960639,98.9253283 30.7269753,99.7191541 L30.2905694,99.8717082 C28.8093169,100.365459 27.4529571,101.171296 26.3123133,102.233087 L26.031699,102.503835 L24.267767,104.267767 C21.3355109,107.200023 17.3922194,108.888797 13.2572512,108.994699 L12.8431458,109 L8,109 L8,104.156854 C8,100.010018 9.59418481,96.0275465 12.443165,93.0287984 L12.732233,92.732233 L14.4961651,90.968301 C15.6002255,89.8642406 16.4530093,88.5368956 16.9983847,87.0770892 L17.1282918,86.7094306 C17.85988,84.5146658 19.0611099,82.5078456 20.646192,80.8277803 L20.968301,80.4961651 L64.965,36.5 L56.732233,28.267767 L60.267767,24.732233 L88.267767,52.732233 C89.5005952,53.9650613 91.4994048,53.9650613 92.732233,52.732233 C93.9176448,51.5468212 93.9632376,49.6532167 92.8690113,48.4133285 L92.732233,48.267767 L88.1823595,43.7178934 C87.879691,43.4152249 87.6076594,43.0833997 87.3702267,42.7272506 C85.4241923,39.808199 86.1508235,35.8875604 88.9727326,33.8522738 L89.1730023,33.7133724 L99.699675,26.6955906 C100.070893,26.4481118 100.416758,26.1645702 100.732233,25.8490955 C103.378044,23.2032847 103.378044,18.9135778 100.732233,16.267767 C100.416758,15.9522922 100.070893,15.6687506 99.699675,15.4212719 C96.6555427,13.3918503 92.5663657,14.151058 90.4459005,17.0961436 L90.3044094,17.300325 L83.2866276,27.8269977 C83.0491949,28.1831468 82.7771633,28.514972 82.4744948,28.8176405 C79.9979992,31.294136 76.0203359,31.3545383 73.4706127,28.9988475 L73.2821066,28.8176405 L69.232233,24.767767 C67.7752959,23.3108298 65.4443486,23.2605906 63.9271349,24.6170493 L63.767767,24.767767 L60.232233,21.232233 C63.6259508,17.8385153 69.0869096,17.7719718 72.5616956,21.0326026 L72.767767,21.232233 L76.8176405,25.2821066 C77.4034269,25.867893 78.3531744,25.867893 78.9389609,25.2821066 L79.0383139,25.1724298 L79.1263761,25.0534967 L86.1441579,14.526824 C89.751465,9.1158634 97.0622154,7.65371332 102.473176,11.2610204 C103.118355,11.6911397 103.71947,12.1839364 104.267767,12.732233 C108.866199,17.3306653 108.866199,24.7861971 104.267767,29.3846294 C103.82913,29.8232667 103.356688,30.2263841 102.854926,30.5903066 L102.473176,30.8558421 L91.9465033,37.8736239 C91.2572102,38.3331526 91.0709494,39.2644566 91.5304781,39.9537496 L91.6185404,40.0726827 L91.7178934,40.1823595 L96.267767,44.732233 C99.4532167,47.9176828 99.4532167,53.0823172 96.267767,56.267767 C93.1486808,59.3868531 88.1320169,59.4518341 84.9338649,56.4627098 L84.732233,56.267767 L68.5,40.035 L24.5038349,84.031699 C23.3997745,85.1357594 22.5469907,86.4631044 22.0016153,87.9229108 L21.8717082,88.2905694 C21.14012,90.4853342 19.9388901,92.4921544 18.353808,94.1722197 L18.031699,94.5038349 L16.267767,96.267767 C14.2559246,98.2796093 13.0917756,100.980684 13.0052018,103.816007 L13.002,103.997 L13.1839934,103.994798 C15.9059033,103.911687 18.5040899,102.835483 20.4875392,100.96957 L20.732233,100.732233 L22.4961651,98.968301 C24.1320461,97.33242 26.1039361,96.0746717 28.2730247,95.2808459 L28.7094306,95.1282918 C30.1906831,94.6345409 31.5470429,93.828704 32.6876867,92.7669128 L32.968301,92.4961651 L36.965,88.5 L32.732233,84.267767 L36.267767,80.732233 L40.5,84.965 L70.732233,54.732233 Z" id="Path-303" fill="#000000" fill-rule="nonzero"></path>
    </g>
</svg>