<?xml version="1.0" encoding="UTF-8"?>
<svg  viewBox="0 0 116 116" version="1.1" xmlns="http://www.w3.org/2000/svg" xmlns:xlink="http://www.w3.org/1999/xlink">
    <title>faceid</title>
    <g id="faceid" stroke="none" stroke-width="1" fill="none" fill-rule="evenodd">
        <path d="M12.5,74 L12.5,98 C12.5,100.963479 14.84378,103.379539 17.7787929,103.495633 L18,103.5 L42,103.5 L42,108.5 L18,108.5 C12.2960755,108.5 7.65442656,103.951858 7.50377424,98.2842951 L7.5,98 L7.5,74 L12.5,74 Z M108.5,74 L108.5,98 C108.5,103.703924 103.951858,108.345573 98.2842951,108.496226 L98,108.5 L74,108.5 L74,103.5 L98,103.5 C100.963479,103.5 103.379539,101.15622 103.495633,98.2212071 L103.5,98 L103.5,74 L108.5,74 Z M88.6523658,71.8943215 L91.3476342,76.1056785 C82.5795066,81.7172802 71.4486274,84.5 58,84.5 C44.8100001,84.5 33.8494613,81.8232788 25.1608404,76.4262865 L24.6523658,76.1056785 L27.3476342,71.8943215 C35.2461733,76.9493865 45.4486274,79.5 58,79.5 C70.3003452,79.5 80.344789,77.0503908 88.1756884,72.1946197 L88.6523658,71.8943215 Z M87,31.5 C89.9634791,31.5 92.3795391,33.84378 92.4956328,36.7787929 L92.5,37 L92.5,46 C92.5,49.5898509 89.5898509,52.5 86,52.5 C82.4881894,52.5 79.6268494,49.7150038 79.504103,46.2331341 L79.5,46 L79.5,42 L84.5,42 L84.5,46 C84.5,46.8284271 85.1715729,47.5 86,47.5 C86.7796961,47.5 87.4204487,46.9051119 87.4931334,46.14446 L87.5,46 L87.5,37 C87.5,36.7545401 87.3231248,36.5503916 87.0898756,36.5080557 L87,36.5 L74,36.5 C71.0365209,36.5 68.6204609,38.84378 68.5043672,41.7787929 L68.5,42 L68.5,62 C68.5,67.7039245 63.951858,72.3455734 58.2842951,72.4962258 L58,72.5 L50,72.5 L50,67.5 L58,67.5 C60.9634791,67.5 63.3795391,65.15622 63.4956328,62.2212071 L63.5,62 L63.5,42 C63.5,36.2960755 68.048142,31.6544266 73.7157049,31.5037742 L74,31.5 L87,31.5 Z M42,7.5 L42,12.5 L18,12.5 C15.0365209,12.5 12.6204609,14.84378 12.5043672,17.7787929 L12.5,18 L12.5,31.5 L47,31.5 C49.9634791,31.5 52.3795391,33.84378 52.4956328,36.7787929 L52.5,37 L52.5,46 C52.5,49.5898509 49.5898509,52.5 46,52.5 C42.4881894,52.5 39.6268494,49.7150038 39.504103,46.2331341 L39.5,46 L39.5,42 L44.5,42 L44.5,46 C44.5,46.8284271 45.1715729,47.5 46,47.5 C46.7796961,47.5 47.4204487,46.9051119 47.4931334,46.14446 L47.5,46 L47.5,37 C47.5,36.7545401 47.3231248,36.5503916 47.0898756,36.5080557 L47,36.5 L12.5,36.5 L12.5,42 L7.5,42 L7.5,18 C7.5,12.2960755 12.048142,7.65442656 17.7157049,7.50377424 L18,7.5 L42,7.5 Z M98,7.5 C103.703924,7.5 108.345573,12.048142 108.496226,17.7157049 L108.5,18 L108.5,42 L103.5,42 L103.5,18 C103.5,15.0365209 101.15622,12.6204609 98.2212071,12.5043672 L98,12.5 L74,12.5 L74,7.5 L98,7.5 Z" id="Shape" fill="#000000" fill-rule="nonzero"></path>
    </g>
</svg>