<?xml version="1.0" encoding="UTF-8"?>
<svg  viewBox="0 0 116 116" version="1.1" xmlns="http://www.w3.org/2000/svg" xmlns:xlink="http://www.w3.org/1999/xlink">
    <title>fast-reverse</title>
    <g id="fast-reverse" stroke="none" stroke-width="1" fill="none" fill-rule="evenodd">
        <path d="M57.0430042,19.8892534 C58.5843227,18.0396713 61.2954547,17.7397841 63.1991847,19.1693386 L63.3808298,19.3130875 L105.334864,54.274783 C105.590411,54.4877387 105.826112,54.7234389 106.039067,54.9789858 C107.931113,57.2494405 107.683779,60.5939782 105.519641,62.5642605 L105.334864,62.725217 L63.3808298,97.6869125 C62.5721123,98.3608438 61.5527143,98.7299168 60.5,98.7299168 C58.0857267,98.7299168 56.1155109,96.8286803 56.004898,94.4417525 L56,94.2299168 L56,62.2469996 C56,60.7053932 55.3532942,59.2390046 54.2250763,58.2005291 L54.0210142,58.0217825 L13,23.838 L13,93.169 L41.1081674,69.7954278 L44.3051072,73.6398491 L15.3772459,97.6956496 C13.4663521,99.2847086 10.6290798,99.02381 9.04002078,97.1129163 C8.41964993,96.3669007 8.05840756,95.442149 8.00650264,94.4775657 L8,94.2356704 L8,22.7700832 C8,20.2848019 10.0147186,18.2699704 12.5,18.2699704 C13.4717363,18.2699704 14.4150847,18.5845596 15.1905435,19.1630058 L15.3808298,19.3130875 L57.2219362,54.1806761 C59.5303612,56.1043636 60.8998448,58.9209503 60.9947206,61.9137747 L61,62.2469996 L61,93.161 L102.133942,58.8841106 C102.32251,58.726971 102.366108,58.4603991 102.249309,58.2541093 L102.197961,58.1799078 L102.167404,58.1464466 L102.133942,58.1158894 L61,23.838 L61,42.5 L56,42.5 L56,22.7700832 C56,21.717369 56.369073,20.6979709 57.0430042,19.8892534 Z" id="Path-174" fill="#000000" fill-rule="nonzero" transform="translate(57.656994, 58.502878) scale(-1, 1) translate(-57.656994, -58.502878) "></path>
    </g>
</svg>