<?xml version="1.0" encoding="UTF-8"?>
<svg  viewBox="0 0 117 116" version="1.1" xmlns="http://www.w3.org/2000/svg" xmlns:xlink="http://www.w3.org/1999/xlink">
    <title>file</title>
    <g id="file" stroke="none" stroke-width="1" fill="none" fill-rule="evenodd" transform="translate(0.000000, 0.000000)">
        <path d="M58.5,8 L58.5,13 L34.5,13 C31.5365209,13 29.1204609,15.34378 29.0043672,18.2787929 L29,18.5 L29,98.5 C29,101.463479 31.34378,103.879539 34.2787929,103.995633 L34.5,104 L82.5,104 C85.4634791,104 87.8795391,101.65622 87.9956328,98.7212071 L88,98.5 L88,37.8137085 C88,36.446186 87.4907067,35.131173 86.5771563,34.1222496 L86.3890873,33.9246212 L69,16.535 L69,26.5 C69,29.4634791 71.34378,31.8795391 74.2787929,31.9956328 L74.5,32 L82,32 L82,37 L74.5,37 C68.7960755,37 64.1544266,32.451858 64.0037742,26.7842951 L64,26.5 L64,12.9142136 C64,11.9859558 64.3687489,11.0957172 65.0251263,10.4393398 C66.3431458,9.12132034 68.4508307,9.07424822 69.8252548,10.2981235 L69.9748737,10.4393398 L89.9246212,30.3890873 C91.8149879,32.279454 92.9101196,34.8164006 92.9947056,37.4801208 L93,37.8137085 L93,98.5 C93,104.203924 88.451858,108.845573 82.7842951,108.996226 L82.5,109 L34.5,109 C28.7960755,109 24.1544266,104.451858 24.0037742,98.7842951 L24,98.5 L24,18.5 C24,12.7960755 28.548142,8.15442656 34.2157049,8.00377424 L34.5,8 L58.5,8 Z" id="Path-289" fill="#000000" fill-rule="nonzero"></path>
    </g>
</svg>