<?xml version="1.0" encoding="UTF-8"?>
<svg  viewBox="0 0 116 116" version="1.1" xmlns="http://www.w3.org/2000/svg" xmlns:xlink="http://www.w3.org/1999/xlink">
    <title>film</title>
    <g id="film" stroke="none" stroke-width="1" fill="none" fill-rule="evenodd">
        <path d="M98.5,8 C104.203924,8 108.845573,12.548142 108.996226,18.2157049 L109,18.5 L109,98.5 C109,104.203924 104.451858,108.845573 98.7842951,108.996226 L98.5,109 L88,109 L88,96.5 C88,94.0857267 89.9012365,92.1155109 92.2881643,92.004898 L92.5,92 L96,92 L96,89 L93,89 L93,89.5 L88,89.5 L88,87.5 C88,85.6314366 89.4642776,84.1048736 91.3079648,84.0051789 L91.5,84 L97.5,84 C99.3685634,84 100.895126,85.4642776 100.994821,87.3079648 L101,87.5 L101,93.5 C101,95.3685634 99.5357224,96.8951264 97.6920352,96.9948211 L97.5,97 L93,97 L93,104 L98.5,104 C101.463479,104 103.879539,101.65622 103.995633,98.7212071 L104,98.5 L104,18.5 C104,15.5365209 101.65622,13.1204609 98.7212071,13.0043672 L98.5,13 L18.5,13 C15.5365209,13 13.1204609,15.34378 13.0043672,18.2787929 L13,18.5 L13,98.5 C13,101.463479 15.34378,103.879539 18.2787929,103.995633 L18.5,104 L82.5,104 L82.5,109 L18.5,109 C12.7960755,109 8.15442656,104.451858 8.00377424,98.7842951 L8,98.5 L8,18.5 C8,12.7960755 12.548142,8.15442656 18.2157049,8.00377424 L18.5,8 L98.5,8 Z M25.5,84 C27.3685634,84 28.8951264,85.4642776 28.9948211,87.3079648 L29,87.5 L29,93.5 C29,95.3685634 27.5357224,96.8951264 25.6920352,96.9948211 L25.5,97 L18.5,97 L18.5,92 L24,92 L24,89 L21,89 L21,89.5 L16,89.5 L16,87.5 C16,85.6314366 17.4642776,84.1048736 19.3079648,84.0051789 L19.5,84 L25.5,84 Z M25.5,68 C27.3685634,68 28.8951264,69.4642776 28.9948211,71.3079648 L29,71.5 L29,77.5 C29,79.3685634 27.5357224,80.8951264 25.6920352,80.9948211 L25.5,81 L18.5,81 L18.5,76 L24,76 L24,73 L21,73 L21,73.5 L16,73.5 L16,71.5 C16,69.6314366 17.4642776,68.1048736 19.3079648,68.0051789 L19.5,68 L25.5,68 Z M97.5,68 C99.3685634,68 100.895126,69.4642776 100.994821,71.3079648 L101,71.5 L101,77.5 C101,79.3685634 99.5357224,80.8951264 97.6920352,80.9948211 L97.5,81 L90.5,81 L90.5,76 L96,76 L96,73 L93,73 L93,73.5 L88,73.5 L88,71.5 C88,69.6314366 89.4642776,68.1048736 91.3079648,68.0051789 L91.5,68 L97.5,68 Z M48.2862394,38.8562677 L75.4279296,55.1412818 C76.0613029,55.5213058 76.591393,56.0513959 76.9714169,56.6847691 C78.2113361,58.7513012 77.5991135,61.4131072 75.6176851,62.7384424 L75.4279296,62.8587182 L49.8007351,78.2350349 C49.2567812,78.5614072 48.6343538,78.7338096 48,78.7338096 C46.1314366,78.7338096 44.6048736,77.269532 44.5051789,75.4258448 L44.5,75.2338096 L44.5,47 L49.5,47 L49.499,72.584 L72.141,58.999 L45.7137606,43.1437323 L48.2862394,38.8562677 Z M25.5,52 C27.3685634,52 28.8951264,53.4642776 28.9948211,55.3079648 L29,55.5 L29,61.5 C29,63.3685634 27.5357224,64.8951264 25.6920352,64.9948211 L25.5,65 L18.5,65 L18.5,60 L24,60 L24,57 L21,57 L21,57.5 L16,57.5 L16,55.5 C16,53.6314366 17.4642776,52.1048736 19.3079648,52.0051789 L19.5,52 L25.5,52 Z M97.5,52 C99.3685634,52 100.895126,53.4642776 100.994821,55.3079648 L101,55.5 L101,61.5 C101,63.3685634 99.5357224,64.8951264 97.6920352,64.9948211 L97.5,65 L90.5,65 L90.5,60 L96,60 L96,57 L93,57 L93,57.5 L88,57.5 L88,55.5 C88,53.6314366 89.4642776,52.1048736 91.3079648,52.0051789 L91.5,52 L97.5,52 Z M25.5,36 C27.3685634,36 28.8951264,37.4642776 28.9948211,39.3079648 L29,39.5 L29,45.5 C29,47.3685634 27.5357224,48.8951264 25.6920352,48.9948211 L25.5,49 L18.5,49 L18.5,44 L24,44 L24,41 L21,41 L21,41.5 L16,41.5 L16,39.5 C16,37.6314366 17.4642776,36.1048736 19.3079648,36.0051789 L19.5,36 L25.5,36 Z M97.5,36 C99.3685634,36 100.895126,37.4642776 100.994821,39.3079648 L101,39.5 L101,45.5 C101,47.3685634 99.5357224,48.8951264 97.6920352,48.9948211 L97.5,49 L90.5,49 L90.5,44 L96,44 L96,41 L93,41 L93,41.5 L88,41.5 L88,39.5 C88,37.6314366 89.4642776,36.1048736 91.3079648,36.0051789 L91.5,36 L97.5,36 Z M25.5,20 C27.3685634,20 28.8951264,21.4642776 28.9948211,23.3079648 L29,23.5 L29,29.5 C29,31.3685634 27.5357224,32.8951264 25.6920352,32.9948211 L25.5,33 L18.5,33 L18.5,28 L24,28 L24,25 L21,25 L21,25.5 L16,25.5 L16,23.5 C16,21.6314366 17.4642776,20.1048736 19.3079648,20.0051789 L19.5,20 L25.5,20 Z M97.5,20 C99.3685634,20 100.895126,21.4642776 100.994821,23.3079648 L101,23.5 L101,29.5 C101,31.3685634 99.5357224,32.8951264 97.6920352,32.9948211 L97.5,33 L90.5,33 L90.5,28 L96,28 L96,25 L93,25 L93,25.5 L88,25.5 L88,23.5 C88,21.6314366 89.4642776,20.1048736 91.3079648,20.0051789 L91.5,20 L97.5,20 Z" id="Shape" fill="#000000" fill-rule="nonzero"></path>
    </g>
</svg>