<?xml version="1.0" encoding="UTF-8"?>
<svg  viewBox="0 0 116 116" version="1.1" xmlns="http://www.w3.org/2000/svg" xmlns:xlink="http://www.w3.org/1999/xlink">
    <title>film</title>
    <g id="film" stroke="none" stroke-width="1" fill="none" fill-rule="evenodd">
        <path d="M98.5,8 C104.203924,8 108.845573,12.548142 108.996226,18.2157049 L109,18.5 L109,98.5 C109,104.203924 104.451858,108.845573 98.7842951,108.996226 L98.5,109 L88,109 L88,96.5 C88,94.0857267 89.9012365,92.1155109 92.2881643,92.004898 L92.5,92 L96,92 L96,89 L92.5,89 C90.0857267,89 88.1155109,87.0987635 88.004898,84.7118357 L88,84.5 L88,80.5 C88,78.0857267 89.9012365,76.1155109 92.2881643,76.004898 L92.5,76 L96,76 L96,73 L92.5,73 C90.0857267,73 88.1155109,71.0987635 88.004898,68.7118357 L88,68.5 L88,64.5 C88,62.0857267 89.9012365,60.1155109 92.2881643,60.004898 L92.5,60 L96,60 L96,57 L92.5,57 C90.0857267,57 88.1155109,55.0987635 88.004898,52.7118357 L88,52.5 L88,48.5 C88,46.0857267 89.9012365,44.1155109 92.2881643,44.004898 L92.5,44 L96,44 L96,41 L92.5,41 C90.0857267,41 88.1155109,39.0987635 88.004898,36.7118357 L88,36.5 L88,32.5 C88,30.0857267 89.9012365,28.1155109 92.2881643,28.004898 L92.5,28 L96,28 L96,25 L90.5,25 L90.5,20 L96.5,20 C98.9142733,20 100.884489,21.9012365 100.995102,24.2881643 L101,24.5 L101,28.5 C101,30.9142733 99.0987635,32.8844891 96.7118357,32.995102 L96.5,33 L93,33 L93,36 L96.5,36 C98.9142733,36 100.884489,37.9012365 100.995102,40.2881643 L101,40.5 L101,44.5 C101,46.9142733 99.0987635,48.8844891 96.7118357,48.995102 L96.5,49 L93,49 L93,52 L96.5,52 C98.9142733,52 100.884489,53.9012365 100.995102,56.2881643 L101,56.5 L101,60.5 C101,62.9142733 99.0987635,64.8844891 96.7118357,64.995102 L96.5,65 L93,65 L93,68 L96.5,68 C98.9142733,68 100.884489,69.9012365 100.995102,72.2881643 L101,72.5 L101,76.5 C101,78.9142733 99.0987635,80.8844891 96.7118357,80.995102 L96.5,81 L93,81 L93,84 L96.5,84 C98.9142733,84 100.884489,85.9012365 100.995102,88.2881643 L101,88.5 L101,92.5 C101,94.9142733 99.0987635,96.8844891 96.7118357,96.995102 L96.5,97 L93,97 L93,104 L98.5,104 C101.463479,104 103.879539,101.65622 103.995633,98.7212071 L104,98.5 L104,18.5 C104,15.5365209 101.65622,13.1204609 98.7212071,13.0043672 L98.5,13 L18.5,13 C15.5365209,13 13.1204609,15.34378 13.0043672,18.2787929 L13,18.5 L13,98.5 C13,101.463479 15.34378,103.879539 18.2787929,103.995633 L18.5,104 L82.5,104 L82.5,109 L18.5,109 C12.7960755,109 8.15442656,104.451858 8.00377424,98.7842951 L8,98.5 L8,18.5 C8,12.7960755 12.548142,8.15442656 18.2157049,8.00377424 L18.5,8 L98.5,8 Z M26.5,20 L26.5,25 L21,25 L21,28 L24.5,28 C26.9142733,28 28.8844891,29.9012365 28.995102,32.2881643 L29,32.5 L29,36.5 C29,38.9142733 27.0987635,40.8844891 24.7118357,40.995102 L24.5,41 L21,41 L21,44 L24.5,44 C26.9142733,44 28.8844891,45.9012365 28.995102,48.2881643 L29,48.5 L29,52.5 C29,54.9142733 27.0987635,56.8844891 24.7118357,56.995102 L24.5,57 L21,57 L21,60 L24.5,60 C26.9142733,60 28.8844891,61.9012365 28.995102,64.2881643 L29,64.5 L29,68.5 C29,70.9142733 27.0987635,72.8844891 24.7118357,72.995102 L24.5,73 L21,73 L21,76 L24.5,76 C26.9142733,76 28.8844891,77.9012365 28.995102,80.2881643 L29,80.5 L29,84.5 C29,86.9142733 27.0987635,88.8844891 24.7118357,88.995102 L24.5,89 L21,89 L21,92 L26.5,92 L26.5,97 L20.5,97 C18.0857267,97 16.1155109,95.0987635 16.004898,92.7118357 L16,92.5 L16,88.5 C16,86.0857267 17.9012365,84.1155109 20.2881643,84.004898 L20.5,84 L24,84 L24,81 L20.5,81 C18.0857267,81 16.1155109,79.0987635 16.004898,76.7118357 L16,76.5 L16,72.5 C16,70.0857267 17.9012365,68.1155109 20.2881643,68.004898 L20.5,68 L24,68 L24,65 L20.5,65 C18.0857267,65 16.1155109,63.0987635 16.004898,60.7118357 L16,60.5 L16,56.5 C16,54.0857267 17.9012365,52.1155109 20.2881643,52.004898 L20.5,52 L24,52 L24,49 L20.5,49 C18.0857267,49 16.1155109,47.0987635 16.004898,44.7118357 L16,44.5 L16,40.5 C16,38.0857267 17.9012365,36.1155109 20.2881643,36.004898 L20.5,36 L24,36 L24,33 L20.5,33 C18.0857267,33 16.1155109,31.0987635 16.004898,28.7118357 L16,28.5 L16,24.5 C16,22.0857267 17.9012365,20.1155109 20.2881643,20.004898 L20.5,20 L26.5,20 Z M48.2862394,38.8562677 L75.4279296,55.1412818 C76.0613029,55.5213058 76.591393,56.0513959 76.9714169,56.6847691 C78.2113361,58.7513012 77.5991135,61.4131072 75.6176851,62.7384424 L75.4279296,62.8587182 L49.8007351,78.2350349 C49.2567812,78.5614072 48.6343538,78.7338096 48,78.7338096 C46.1314366,78.7338096 44.6048736,77.269532 44.5051789,75.4258448 L44.5,75.2338096 L44.5,47 L49.5,47 L49.5,72.584 L72.141,58.999 L45.7137606,43.1437323 L48.2862394,38.8562677 Z" id="Shape" fill="#000000" fill-rule="nonzero"></path>
    </g>
</svg>