<?xml version="1.0" encoding="UTF-8"?>
<svg   viewBox="0 0 116 116" version="1.1" xmlns="http://www.w3.org/2000/svg" xmlns:xlink="http://www.w3.org/1999/xlink">
    <title>filter</title>
    <g id="filter" stroke="none" stroke-width="1" fill="none" fill-rule="evenodd">
        <path d="M106.987047,24 L107.012953,28.9999329 L14.2629029,29.4805031 C13.5643649,29.4841225 13,30.0514191 13,30.7499664 C13,31.3971751 13.4918747,31.9295003 14.1221948,31.9935128 L14.25,31.9999664 L86.5,31.9999664 C90.0898509,31.9999664 93,34.9101156 93,38.4999664 C93,42.0117771 90.2150038,44.873117 86.7331341,44.9958634 L86.5,44.9999664 L30.5,44.9999664 C29.6715729,44.9999664 29,45.6715393 29,46.4999664 C29,47.2796626 29.5948881,47.9204151 30.35554,47.9930999 L30.5,47.9999664 L70,47.9999664 C73.5898509,47.9999664 76.5,50.9101156 76.5,54.4999664 C76.5,58.0117771 73.7150038,60.873117 70.2331341,60.9958634 L70,60.9999664 L46.5,60.9999664 C45.6715729,60.9999664 45,61.6715393 45,62.4999664 C45,63.2796626 45.5948881,63.9204151 46.35554,63.9930999 L46.5,63.9999664 L62,63.9999664 C65.5118106,63.9999664 68.3731506,66.7849627 68.495897,70.2668323 L68.5,70.4999664 L68.5,70.7499664 C68.5,74.2017461 65.7017797,76.9999664 62.25,76.9999664 C61.6027913,76.9999664 61.0704661,77.4918411 61.0064536,78.1221612 L61,78.2499664 L61,90.4999664 L56,90.4999664 L56,78.2499664 C56,74.7981868 58.7982203,71.9999664 62.25,71.9999664 C62.8972087,71.9999664 63.4295339,71.5080918 63.4935464,70.8777717 L63.5,70.7499664 L63.5,70.4999664 C63.5,69.7202703 62.9051119,69.0795178 62.14446,69.006833 L62,68.9999664 L46.5,68.9999664 C42.9101491,68.9999664 40,66.0898173 40,62.4999664 C40,58.9881558 42.7849962,56.1268159 46.2668659,56.0040694 L46.5,55.9999664 L70,55.9999664 C70.8284271,55.9999664 71.5,55.3283936 71.5,54.4999664 C71.5,53.7202703 70.9051119,53.0795178 70.14446,53.006833 L70,52.9999664 L30.5,52.9999664 C26.9101491,52.9999664 24,50.0898173 24,46.4999664 C24,42.9881558 26.7849962,40.1268159 30.2668659,40.0040694 L30.5,39.9999664 L86.5,39.9999664 C87.3284271,39.9999664 88,39.3283936 88,38.4999664 C88,37.7202703 87.4051119,37.0795178 86.64446,37.006833 L86.5,36.9999664 L14.25,36.9999664 C10.7982203,36.9999664 8,34.2017461 8,30.7499664 C8,27.3767706 10.664685,24.6232833 14.0080139,24.4858625 L14.2369965,24.4805702 L106.987047,24 Z" id="Path-64" fill="#000000" fill-rule="nonzero"></path>
    </g>
</svg>