<?xml version="1.0" encoding="UTF-8"?>
<svg  viewBox="0 0 116 116" version="1.1" xmlns="http://www.w3.org/2000/svg" xmlns:xlink="http://www.w3.org/1999/xlink">
    <title>filter-off</title>
    <g id="filter-off" stroke="none" stroke-width="1" fill="none" fill-rule="evenodd">
        <path d="M12.267767,8.73223305 L108.267767,104.732233 L104.732233,108.267767 L8.73223305,12.267767 L12.267767,8.73223305 Z M58.5,64 L58.5,69 L42.5,69 C39.4624339,69 37,71.4624339 37,74.5 C37,77.4634791 39.34378,79.8795391 42.2787929,79.9956328 L42.5,80 L46.5,80 C54.4027588,80 60.8288988,86.3221564 60.9966395,94.1846885 L61,94.5 L61,99 L56,99 L56,94.5 C56,89.3437553 51.8921061,85.1469606 46.7704787,85.0037764 L46.5,85 L42.5,85 C36.7010101,85 32,80.2989899 32,74.5 C32,68.7960755 36.548142,64.1544266 42.2157049,64.0037742 L42.5,64 L58.5,64 Z M82.5,48 C88.2989899,48 93,52.7010101 93,58.5 C93,64.2039245 88.451858,68.8455734 82.7842951,68.9962258 L82.5,69 L74.5,69 L74.5,64 L82.5,64 C85.5375661,64 88,61.5375661 88,58.5 C88,55.5365209 85.65622,53.1204609 82.7212071,53.0043672 L82.5,53 L58.5,53 L58.5,48 L82.5,48 Z M26.5,32 L26.5,37 C23.4624339,37 21,39.4624339 21,42.5 C21,45.4634791 23.34378,47.8795391 26.2787929,47.9956328 L26.5,48 L42.5,48 L42.5,53 L26.5,53 C20.7010101,53 16,48.2989899 16,42.5 C16,36.7010101 20.7010101,32 26.5,32 Z M98.5,16 C104.29899,16 109,20.7010101 109,26.5 C109,32.2039245 104.451858,36.8455734 98.7842951,36.9962258 L98.5,37 L42.5,37 L42.5,32 L98.5,32 C101.537566,32 104,29.5375661 104,26.5 C104,23.5365209 101.65622,21.1204609 98.7212071,21.0043672 L98.5,21 L26.5,21 L26.5,16 L98.5,16 Z" id="Shape" fill="#000000" fill-rule="nonzero"></path>
    </g>
</svg>