<?xml version="1.0" encoding="UTF-8"?>
<svg width="128px" height="128px" viewBox="0 0 128 128" version="1.1" xmlns="http://www.w3.org/2000/svg" xmlns:xlink="http://www.w3.org/1999/xlink">
    <title>filter-off</title>
    <g id="filter-off" stroke="none" stroke-width="1" fill="none" fill-rule="evenodd">
        <path d="M18.267767,14.732233 L114.267767,110.732233 L110.732233,114.267767 L14.732233,18.267767 L18.267767,14.732233 Z M68.25,78 L68.25,83 C67.6027913,83 67.0704661,83.4918747 67.0064536,84.1221948 L67,84.25 L67,96.5 L62,96.5 L62,84.25 C62,80.7982203 64.7982203,78 68.25,78 Z M56,62 L56,67 L52.5,67 C51.6715729,67 51,67.6715729 51,68.5 C51,69.2796961 51.5948881,69.9204487 52.35554,69.9931334 L52.5,70 L64.5,70 L64.5,75 L52.5,75 C48.9101491,75 46,72.0898509 46,68.5 C46,64.9881894 48.7849962,62.1268494 52.2668659,62.004103 L52.5,62 L56,62 Z M76,54 C79.5898509,54 82.5,56.9101491 82.5,60.5 C82.5,64.0118106 79.7150038,66.8731506 76.2331341,66.995897 L76,67 L73,67 L73,62 L76,62 C76.8284271,62 77.5,61.3284271 77.5,60.5 C77.5,59.7203039 76.9051119,59.0795513 76.14446,59.0068666 L76,59 L65,59 L65,54 L76,54 Z M40.5,46 L40.5,51 L36.5,51 C35.6715729,51 35,51.6715729 35,52.5 C35,53.2796961 35.5948881,53.9204487 36.35554,53.9931334 L36.5,54 L48.5,54 L48.5,59 L36.5,59 C32.9101491,59 30,56.0898509 30,52.5 C30,48.9881894 32.7849962,46.1268494 36.2668659,46.004103 L36.5,46 L40.5,46 Z M92.5,38 C96.0898509,38 99,40.9101491 99,44.5 C99,48.0118106 96.2150038,50.8731506 92.7331341,50.995897 L92.5,51 L56.5,51 L56.5,46 L92.5,46 C93.3284271,46 94,45.3284271 94,44.5 C94,43.7203039 93.4051119,43.0795513 92.64446,43.0068666 L92.5,43 L48.5,43 L48.5,38 L92.5,38 Z M24.3534742,30.4592749 L24.3793806,35.4592078 L20.2629029,35.4805367 C19.5643649,35.484156 19,36.0514527 19,36.75 C19,37.3972087 19.4918747,37.9295339 20.1221948,37.9935464 L20.25,38 L32.5,38 L32.5,43 L20.25,43 C16.7982203,43 14,40.2017797 14,36.75 C14,33.3768042 16.664685,30.6233169 20.0080139,30.4858961 L20.2369965,30.4806038 L24.3534742,30.4592749 Z M112.987047,30.0000336 L113.012953,34.9999664 L40.668225,35.3748096 L40.6423186,30.3748767 L112.987047,30.0000336 Z" id="Shape" fill="#000000" fill-rule="nonzero"></path>
    </g>
</svg>