<?xml version="1.0" encoding="UTF-8"?>
<svg   viewBox="0 0 116 116" version="1.1" xmlns="http://www.w3.org/2000/svg" xmlns:xlink="http://www.w3.org/1999/xlink">
    <title>filter-off</title>
    <g id="filter-off" stroke="none" stroke-width="1" fill="none" fill-rule="evenodd">
        <path d="M12.267767,8.73 L108.267767,104.73 L104.732233,108.265534 L8.73223305,12.2655339 L12.267767,8.73 Z M62.25,71.997767 L62.25,76.997767 C61.6027913,76.997767 61.0704661,77.4896416 61.0064536,78.1199617 L61,78.247767 L61,90.497767 L56,90.497767 L56,78.247767 C56,74.7959873 58.7982203,71.997767 62.25,71.997767 Z M50,55.997767 L50,60.997767 L46.5,60.997767 C45.6715729,60.997767 45,61.6693398 45,62.497767 C45,63.2774631 45.5948881,63.9182156 46.35554,63.9909004 L46.5,63.997767 L58.5,63.997767 L58.5,68.997767 L46.5,68.997767 C42.9101491,68.997767 40,66.0876178 40,62.497767 C40,58.9859563 42.7849962,56.1246164 46.2668659,56.00187 L46.5,55.997767 L50,55.997767 Z M70,47.997767 C73.5898509,47.997767 76.5,50.9079161 76.5,54.497767 C76.5,58.0095776 73.7150038,60.8709175 70.2331341,60.9936639 L70,60.997767 L67,60.997767 L67,55.997767 L70,55.997767 C70.8284271,55.997767 71.5,55.3261941 71.5,54.497767 C71.5,53.7180708 70.9051119,53.0773183 70.14446,53.0046335 L70,52.997767 L59,52.997767 L59,47.997767 L70,47.997767 Z M34.5,39.997767 L34.5,44.997767 L30.5,44.997767 C29.6715729,44.997767 29,45.6693398 29,46.497767 C29,47.2774631 29.5948881,47.9182156 30.35554,47.9909004 L30.5,47.997767 L42.5,47.997767 L42.5,52.997767 L30.5,52.997767 C26.9101491,52.997767 24,50.0876178 24,46.497767 C24,42.9859563 26.7849962,40.1246164 30.2668659,40.00187 L30.5,39.997767 L34.5,39.997767 Z M86.5,31.997767 C90.0898509,31.997767 93,34.9079161 93,38.497767 C93,42.0095776 90.2150038,44.8709175 86.7331341,44.9936639 L86.5,44.997767 L50.5,44.997767 L50.5,39.997767 L86.5,39.997767 C87.3284271,39.997767 88,39.3261941 88,38.497767 C88,37.7180708 87.4051119,37.0773183 86.64446,37.0046335 L86.5,36.997767 L42.5,36.997767 L42.5,31.997767 L86.5,31.997767 Z M18.3534742,24.4570418 L18.3793806,29.4569747 L14.2629029,29.4783036 C13.5643649,29.481923 13,30.0492196 13,30.747767 C13,31.3949756 13.4918747,31.9273009 14.1221948,31.9913133 L14.25,31.997767 L26.5,31.997767 L26.5,36.997767 L14.25,36.997767 C10.7982203,36.997767 8,34.1995466 8,30.747767 C8,27.3745711 10.664685,24.6210838 14.0080139,24.4836631 L14.2369965,24.4783707 L18.3534742,24.4570418 Z M106.987047,23.9978005 L107.012953,28.9977334 L34.668225,29.3725765 L34.6423186,24.3726437 L106.987047,23.9978005 Z" id="Shape" fill="#000000" fill-rule="nonzero"></path>
    </g>
</svg>