<?xml version="1.0" encoding="UTF-8"?>
<svg  viewBox="0 0 116 116" version="1.1" xmlns="http://www.w3.org/2000/svg" xmlns:xlink="http://www.w3.org/1999/xlink">
    <title>finger-print</title>
    <g id="finger-print" stroke="none" stroke-width="1" fill="none" fill-rule="evenodd">
        <path d="M74.5353093,40.3739519 L74.8241161,40.6581169 L81.895184,47.7291847 C87.4832783,53.317279 87.5568058,62.3316858 82.1157666,68.0099463 L81.895184,68.2352814 L80.4809704,69.6494949 C75.6722758,74.4581896 67.9204344,74.5299611 63.0238847,69.8648096 L62.8033009,69.6494949 C59.9317987,66.7779928 55.3111567,66.7216888 52.3710608,69.480583 L52.1966991,69.6494949 L50.7824856,71.0637085 C47.13647,74.7097241 47.0736077,80.5820257 50.5938986,84.3048097 L50.7824856,84.4987373 L57.8535534,91.5698052 C65.3877641,99.1040158 77.5533335,99.184167 85.1860838,91.8102587 L85.4307179,91.5698052 L92.5017857,84.4987373 L96.0373196,88.0342712 L88.9662518,95.1053391 C79.4940851,104.577506 64.195521,104.672227 54.6068264,95.3895041 L54.3180195,95.1053391 L47.2469517,88.0342712 C41.6588574,82.4461769 41.5853298,73.4317701 47.026369,67.7535097 L47.2469517,67.5281746 L48.6611652,66.113961 C53.4698599,61.3052664 61.2217012,61.2334948 66.1182509,65.8986463 L66.3388348,66.113961 C69.2103369,68.9854632 73.830979,69.0417671 76.7710748,66.2828729 L76.9454365,66.113961 L78.35965,64.6997475 C82.0056656,61.0537319 82.068528,55.1814303 78.5482371,51.4586462 L78.35965,51.2647186 L71.2885822,44.1936508 C63.7543716,36.6594401 51.5888021,36.579289 43.9560519,43.9531973 L43.7114178,44.1936508 L33.8119228,54.0931458 C20.8601847,67.0448839 20.7306673,87.9633286 33.4233707,101.074401 L33.8119228,101.4693 L39.4687771,107.126154 L35.9332432,110.661688 L30.2763889,105.004834 C15.3915555,90.1200006 15.2427072,66.0793999 29.8298439,51.0114512 L30.2763889,50.5576118 L40.1758839,40.6581169 C49.6480506,31.1859502 64.9466146,31.0912285 74.5353093,40.3739519 Z M74.0285553,55.5873817 L74.2937861,55.8483496 L70.7582521,59.3838835 C64.0017381,52.6273695 53.0949686,52.5505909 46.2441306,59.1535478 L46.0095148,59.3838835 L43.1810877,62.2123106 C34.8687781,70.5246202 34.785655,83.9498907 42.9317184,92.3644594 L43.1810877,92.6179022 L57.3232233,106.760038 L53.7876894,110.295572 L39.6455538,96.1534361 C29.400149,85.9080313 29.2976949,69.3606049 39.3381916,58.9891596 L39.6455538,58.6767767 L42.4739809,55.8483496 C51.1729095,47.149421 65.2226112,47.0624317 74.0285553,55.5873817 Z M92.6912652,57.169066 L97.6518806,57.7954001 C96.5334516,66.653445 93.1661328,73.9348953 87.5520382,79.5489899 C78.8597233,88.2413048 64.8247685,88.3347705 56.0175582,79.8293871 L55.732233,79.5489899 L59.267767,76.013456 C66.1019421,82.8476311 77.1823292,82.8476311 84.0165043,76.013456 C88.6933168,71.3366435 91.5577676,65.2819805 92.6118123,57.7655101 L92.6912652,57.169066 Z M84.1876214,32.4084552 L84.6178847,32.831803 L91.5683131,39.7822314 L88.0327792,43.3177653 L81.0823508,36.3673369 C68.9038508,24.1888369 49.2342684,24.0670519 36.9059467,36.0019819 L36.4234141,36.4791044 L35.1360137,37.7794576 L31.5828275,34.2616646 L32.9990897,32.831803 C47.110685,18.7202078 69.9024232,18.5790918 84.1876214,32.4084552 Z M91.0351695,22.2053797 L91.6304653,22.7911076 L88.0949314,26.3266415 C70.5037647,8.73547473 42.0921457,8.55956307 24.28457,25.7989065 L23.7482143,26.3266415 L20.2126804,22.7911076 C39.7369424,3.26684558 71.2707173,3.07160296 91.0351695,22.2053797 Z" id="Shape" fill="#000000" fill-rule="nonzero"></path>
    </g>
</svg>