<?xml version="1.0" encoding="UTF-8"?>
<svg  viewBox="0 0 116 116" version="1.1" xmlns="http://www.w3.org/2000/svg" xmlns:xlink="http://www.w3.org/1999/xlink">
    <title>flag</title>
    <g id="flag" stroke="none" stroke-width="1" fill="none" fill-rule="evenodd">
        <path d="M42.5,20 C46.9342203,20 50.6169499,20.8702487 56.1933071,22.94818 L57.3346107,23.3799686 L59.8885617,24.3742484 L61.3596993,24.9388325 L62.282289,25.2842003 L63.1622806,25.6054962 L64.0030486,25.903359 L64.8079676,26.1784276 L65.5804122,26.4313408 L66.3237567,26.6627374 C66.5670631,26.7363545 66.806082,26.806492 67.0413757,26.8732564 L67.7366437,27.0635364 C69.449687,27.5144704 70.9848259,27.7816542 72.5793306,27.9100066 L73.220861,27.9540497 C73.6514087,27.9786175 74.0884276,27.9937388 74.536417,28.0002653 C76.017007,28.021835 77.3902384,27.991901 78.6560184,27.9130484 L79.483952,27.8532611 L80.280042,27.7791497 C84.3109006,27.3595299 87.066445,26.3731622 88.5428815,24.9256938 L88.6817693,24.7841803 C90.1975157,23.1779645 92.8689963,24.1868762 92.9953504,26.3404034 L93,26.5 L93,66.5 C93,67.1630412 92.7366079,67.798926 92.267767,68.267767 C89.012752,71.5227819 83.1038796,73 74.5,73 L74.1247788,72.9982596 L73.3890418,72.9841136 C71.2086406,72.9199 69.2539171,72.6570326 67.1034288,72.1233575 L66.3787706,71.9353369 C66.0122382,71.8362127 65.6389671,71.7293433 65.2570062,71.6143948 L64.48092,71.3736265 L63.6781923,71.1107199 L62.8453545,70.8250811 L61.978938,70.5161163 L61.0754741,70.1832315 L60.1314941,69.825833 L59.1435294,69.4433268 L58.1081113,69.0351192 L57.0744413,68.6229794 L55.6560054,68.0655669 L54.7670911,67.724212 L53.9198435,67.4063441 L53.1110904,67.1113495 L52.3376596,66.8386147 L51.5963786,66.5875261 C51.3542909,66.5073694 51.1170327,66.4307182 50.8840754,66.3574701 L50.1975776,66.1478331 C50.0851355,66.1145611 49.9736365,66.0821144 49.8630144,66.05048 L49.2092768,65.8703211 C47.3838407,65.3869145 45.7736467,65.1309156 44.0540005,65.0395218 L43.4419931,65.0139978 L42.817724,65.0015297 L42.5,65 C39.8162741,65 37.4650083,65.1554952 35.4511248,65.4623035 L34.9923737,65.5357895 L34.1628705,60.6050772 C36.5710093,60.1999513 39.3480033,60 42.5,60 L42.8752212,60.0017404 L43.6109582,60.0158864 C45.7913594,60.0801 47.7460829,60.3429674 49.8965712,60.8766425 L50.6212294,61.0646631 C50.9877618,61.1637873 51.3610329,61.2706567 51.7429938,61.3856052 L52.51908,61.6263735 L53.3218077,61.8892801 L54.1546455,62.1749189 L55.021062,62.4838837 L55.9245259,62.8167685 L56.8685059,63.174167 L57.8564706,63.5566732 L58.8918887,63.9648808 L59.9255587,64.3770206 L61.3439946,64.9344331 L62.2329089,65.275788 L63.0801565,65.5936559 L63.8889096,65.8886505 L64.6623404,66.1613853 L65.4036214,66.4124739 C65.6457091,66.4926306 65.8829673,66.5692818 66.1159246,66.6425299 L66.8024224,66.8521669 C66.9148645,66.8854389 67.0263635,66.9178856 67.1369856,66.94952 L67.7907232,67.1296789 C69.6161593,67.6130855 71.2263533,67.8690844 72.9459995,67.9604782 L73.5580069,67.9860022 L74.182276,67.9984703 C74.2875189,67.9994943 74.3934048,68 74.5,68 C81.0743292,68 85.5640551,67.0601888 87.9402769,65.3916724 L87.999,65.348 L87.999,31.081 L87.8627769,31.1388337 C84.6398723,32.4464963 80.3539925,33.0424305 75.0023046,33.0055312 L74.463583,32.9997347 C71.3196574,32.9539329 68.6881142,32.5604548 65.5088223,31.6405168 L64.7019744,31.399461 C64.5653934,31.3574225 64.427708,31.3144442 64.2888416,31.2705131 L63.4408575,30.9953896 C63.2969603,30.9475956 63.1517287,30.8988229 63.005086,30.8490587 L62.1076835,30.5384707 C61.9550898,30.4846883 61.8009316,30.4298885 61.6451322,30.3740584 L60.690029,30.0266092 L59.6918573,29.6538099 L58.6469362,29.2550397 L56.1156775,28.2690213 C55.5663146,28.0556842 55.038168,27.854119 54.5288422,27.6639484 L53.5345755,27.2986882 L52.5862395,26.9631432 C48.5701487,25.5725286 45.7278272,25 42.5,25 C36.2551868,25 31.8065353,25.9217722 29.1595448,27.6175521 L28.999,27.723 L29,107 L24,107 L24,26.5 C24,25.7859055 24.3053695,25.1058953 24.8390904,24.6314767 C28.394553,21.4710655 34.278815,20 42.5,20 Z" id="Path-229" fill="#000000" fill-rule="nonzero"></path>
    </g>
</svg>