<?xml version="1.0" encoding="UTF-8"?>
<svg  viewBox="0 0 116 116" version="1.1" xmlns="http://www.w3.org/2000/svg" xmlns:xlink="http://www.w3.org/1999/xlink">
    <title>flame</title>
    <g id="flame" stroke="none" stroke-width="1" fill="none" fill-rule="evenodd">
        <path d="M61.0663441,8.4519202 C62.883672,7.17979072 65.3344113,8.72881218 64.9651141,10.9161881 C63.4275746,20.0231527 64.3354572,26.7568837 67.3398761,32.2554885 L67.6415659,32.7952218 C67.6922803,32.8838701 67.7432358,32.9718945 67.7944696,33.0593399 L68.1055084,33.5774229 L68.425007,34.0837601 C68.5331145,34.2508205 68.642929,34.4162817 68.7547474,34.5805021 L69.0965113,35.069799 C69.1545729,35.1508475 69.2132098,35.2316754 69.272459,35.3123275 L69.6355992,35.7944888 C69.8211404,36.0348729 70.0128609,36.2744811 70.211763,36.5145229 L70.6194396,36.995543 C70.6890806,37.0759288 70.7595937,37.1564524 70.8310163,37.2371586 L71.2707602,37.723945 C71.5715933,38.0504078 71.8881634,38.3812252 72.2228463,38.7192645 L72.7387522,39.2320983 L73.2836091,39.7579151 C73.3769302,39.8467526 73.4715318,39.9362207 73.567451,40.0263642 L74.1590754,40.5756875 C74.2604138,40.6687116 74.363144,40.7625006 74.4673033,40.8570994 L75.1097043,41.4347675 L75.7881835,42.03402 L76.504523,42.6570072 L77.6539178,43.6406946 L80.6371533,46.1568562 L81.4020233,46.8115662 L82.1251512,47.4380461 L83.1368598,48.3307737 L83.7661988,48.8985568 L84.3622489,49.4476126 L84.9274251,49.9806562 L85.4641426,50.5004025 L85.9748167,51.0095668 C86.2240454,51.2619559 86.4644136,51.5113948 86.6972796,51.7594109 L87.1534115,52.2539983 C87.2279005,52.3362641 87.3016566,52.418485 87.3747301,52.5007175 L87.8053821,52.994704 C87.9464707,53.1597142 88.0852314,53.3252233 88.2220666,53.4916838 L88.6271987,53.9943719 C88.7605857,54.1631876 88.8924498,54.3334073 89.0231936,54.5054833 L89.4124665,55.0277333 C89.4769193,55.115854 89.5411926,55.2045519 89.6053369,55.2938836 L89.9890552,55.837932 C90.0528841,55.9300252 90.1166846,56.0228652 90.1805068,56.1165088 C93.6880648,61.2629929 95.5,67.1697953 95.5,74.5 C95.5,85.4432726 90.5553364,94.4274247 82.1250407,100.750414 C75.1422463,105.987732 66.1033616,109.00089 58.5,109.00089 C24.0533318,109.00089 4.69179175,68.4233122 26.6695332,44.7972401 C28.2505131,43.0976867 31.0925843,44.2826849 30.9979201,46.6019559 L30.9068863,48.8142872 L30.8488952,50.4488956 L30.8087642,51.9515058 L30.7923954,52.8927736 L30.7846587,53.7946655 L30.7858319,54.6648976 C30.7867853,54.8077266 30.7881215,54.9495579 30.7898464,55.0905524 L30.8049049,55.9277622 L30.8295675,56.7526022 C30.8344937,56.8894733 30.8398316,57.0261506 30.8455871,57.1627947 L30.8851764,57.9835475 C30.9170133,58.5697658 30.9564111,59.1380474 31.0034937,59.6883068 L31.0798965,60.5001685 L31.1679194,61.2849328 C32.0126939,68.2256802 34.2805822,71.8662942 38.2762396,71.9963857 L38.5,72 L38.5,77 C33.9440321,77 30.5903061,74.6304343 28.5345819,70.4934855 C26.9674869,67.3398563 26.1641035,63.2551577 25.8925338,58.2546923 C25.844768,57.3751711 25.8134545,56.5115684 25.7971611,55.6271804 L25.784,54.561 L25.7047255,54.7096301 C15.0377957,75.0575187 30.9741094,103.363789 57.5985224,103.990305 L58.5,104.00089 C65.0214593,104.00089 73.0076473,101.338654 79.1249593,96.7504755 C86.349751,91.3316521 90.5,83.7909027 90.5,74.5 C90.5,68.1717931 88.9892007,63.246676 86.0488439,58.932421 L85.7152944,58.4515957 L85.3783705,57.9835307 L85.0358205,57.5257583 L84.6853928,57.0758109 L84.324836,56.6312209 C84.263774,56.5574319 84.2021961,56.4837634 84.1400555,56.4101638 L83.7600831,55.9689831 L83.3643526,55.5269907 L82.9506124,55.0817191 L82.5166108,54.6307006 L82.0600964,54.1714675 L81.5788175,53.7015523 C81.4964155,53.6222059 81.4128879,53.5423115 81.3281877,53.4618178 L80.8055404,52.9712527 L80.2524997,52.4638363 L79.3610257,51.6657179 L78.3885014,50.815804 L77.3273277,49.9057663 L74.3802634,47.4204122 L73.1679608,46.3823963 L72.4094684,45.7222224 L71.6886617,45.084902 C71.4544755,44.8760217 71.2262729,44.6705765 71.0037566,44.4681928 L70.3529688,43.8698525 L69.7345142,43.2876388 L69.1466084,42.7193095 L68.5874672,42.1626223 L68.0553065,41.615335 C67.1033201,40.6192213 66.2783645,39.6591937 65.5309643,38.6730763 L65.1306855,38.1322329 C65.0651552,38.0415365 65.0001915,37.9505311 64.9357572,37.85917 L64.5552073,37.3063601 C63.9930204,36.4696204 63.4676963,35.5964966 62.952137,34.6529342 C60.1816859,29.5825309 58.921801,23.7126484 59.2960668,16.5924213 L59.324,16.116 L59.0430094,16.3587784 C46.9301579,26.9041516 42.2437364,40.5293134 44.8745479,57.5151959 L44.9670692,58.0955624 C45.8804893,63.6674255 49.0058017,70.0729489 54.3824405,77.2680677 L54.589,77.543 L54.6708937,77.4110065 C55.8391891,75.4623895 56.0567426,73.2155797 55.602154,69.6468697 L55.5023569,68.9151991 L55.3851314,68.1464578 C55.3641689,68.015144 55.3425009,67.8822097 55.3201377,67.747617 L55.177698,66.9198575 L55.0190681,66.0504776 L54.6411363,64.0395987 L54.5578119,63.5731627 C53.4635695,57.3532582 53.7349639,53.2435707 56.403891,49.1375291 C57.7299979,47.0973647 60.8569363,47.9702417 60.9952564,50.3363754 L61,50.5 C61,52.4631704 62.1852885,54.4130341 65.0209784,57.299592 L65.8559674,58.1321021 L68.1062167,60.3106049 L68.8157873,61.0106432 L69.4887481,61.6906789 C74.0724399,66.3850684 76,69.739961 76,74.5 C76,76.9606263 75.5581439,79.37628 74.7047684,81.6179393 C73.906186,83.7156676 72.7580484,85.6322862 71.3130648,87.2700722 L70.9989011,87.6167229 L67.3392441,84.2098313 C68.4877521,82.9761128 69.4032192,81.4905193 70.0319207,79.8390367 C70.668426,78.1670552 71,76.3543205 71,74.5 C71,71.5388516 69.6983966,69.154748 66.3354863,65.6253112 L65.7872597,65.0582626 L65.2041086,64.4706713 L64.5853684,63.8610306 L62.5598168,61.9022379 L61.9587807,61.3107391 L61.7722385,61.1246441 C60.7361066,60.0871665 59.8440589,59.1171081 59.0924165,58.1819527 L58.965,58.02 C58.9846273,59.2672034 59.1374425,60.657432 59.4060685,62.2634368 L59.6496587,63.6289921 L60.0185356,65.5808541 L60.169196,66.4028891 L60.3651281,67.5293782 L60.4761287,68.2175884 L60.5717672,68.8621803 L60.6523305,69.4688179 C60.6767043,69.665334 60.6986133,69.8564683 60.7181054,70.0431648 L60.7693788,70.590885 L60.8064374,71.1176422 C60.8264686,71.4630847 60.8372145,71.7983277 60.8390576,72.1309231 L60.8351928,72.6287745 C60.8317107,72.7946923 60.8260507,72.9608922 60.8182606,73.1283181 L60.7885477,73.635218 C60.7825464,73.7206289 60.7760246,73.8065824 60.7689881,73.8931964 C60.4743206,77.5203574 59.0508416,80.632427 56.2193616,83.3148817 C55.1582183,84.3201754 53.4646816,84.2045807 52.5499791,83.0644228 C45.4083547,74.1625346 41.2174411,66.1299502 40.0329308,58.9044376 C36.5447848,37.6267468 43.6093349,20.6718267 61.0663441,8.4519202 Z" id="Path" fill="#000000" fill-rule="nonzero"></path>
    </g>
</svg>