<?xml version="1.0" encoding="UTF-8"?>
<svg  viewBox="0 0 116 116" version="1.1" xmlns="http://www.w3.org/2000/svg" xmlns:xlink="http://www.w3.org/1999/xlink">
    <title>flashlight</title>
    <g id="flashlight" stroke="none" stroke-width="1" fill="none" fill-rule="evenodd">
        <path d="M76.2092497,8.67559171 C81.5101769,13.6419187 86.862998,18.827464 92.267767,24.232233 C96.9799971,28.9444632 101.65207,33.7436907 106.283987,38.6299095 C108.295086,40.7514222 108.287464,44.0607893 106.307714,46.1725269 L106.133193,46.3505443 L90.0763977,62.0157105 C88.1969536,63.8493144 85.7019968,64.9092906 83.0858768,64.9944386 L82.7439972,65 L79.535,64.999 L38.3890873,106.146447 C36.3008671,108.234667 32.9512337,108.292673 30.792935,106.320465 L30.6109127,106.146447 L10.8535534,86.3890873 C8.76533322,84.3008671 8.7073271,80.9512337 10.679535,78.792935 L10.8535534,78.6109127 L52,37.464 L52,33.8137085 C52,31.1403263 53.0195171,28.572059 54.8432404,26.6287131 L55.0753788,26.3890873 L62.6391873,18.8262584 C64.7602867,16.7714435 68.1104189,16.7666067 70.2371448,18.7728207 L70.4163823,18.949706 L83.7956006,32.760512 L80.2043994,36.239488 L66.8251811,22.428682 C66.6543913,22.2523829 66.3853069,22.2288241 66.1883208,22.3607104 L66.1125076,22.4230263 L58.6109127,29.9246212 C57.6439283,30.8916057 57.0741984,32.181585 57.0067595,33.5409793 L57,33.8137085 L57,39.5355339 L14.3890873,82.1464466 C14.2155209,82.320013 14.1962358,82.5894374 14.3312318,82.7843055 L14.3890873,82.8535534 L34.1464466,102.610913 C34.320013,102.784479 34.5894374,102.803764 34.7843055,102.668768 L34.8535534,102.610913 L77.4644661,60 L82.7439972,60 C84.0894756,60 85.3849913,59.5069503 86.3881224,58.6195167 L86.5847784,58.4368007 L102.641581,42.7716277 C102.837232,42.5807496 102.843338,42.2681309 102.655286,42.0697547 C98.0539196,37.2157627 93.4129017,32.4484356 88.732233,27.767767 C83.9616963,22.9972302 79.2330426,18.3997825 74.54631,13.9754276 L72.7907503,12.3244083 L76.2092497,8.67559171 Z M64.267767,52.732233 C67.3868531,55.8513192 67.4518341,60.8679831 64.4627098,64.0661351 L64.267767,64.267767 L56.1447826,72.3907513 C53.0295158,75.5060181 48.0042346,75.5870499 44.7901472,72.573843 L44.6092487,72.3986858 C41.6245635,69.4140007 41.5610596,64.6143263 44.4187368,61.5524076 L44.6092487,61.3552174 L45.232233,60.732233 L48.767767,64.267767 L48.1447826,64.8907513 C47.0478344,65.9876995 47.0478344,67.7662038 48.1447826,68.8631519 L48.2098528,68.926157 C49.4072664,70.0487322 51.2534909,70.0628808 52.4667747,68.9892706 L52.6092487,68.8552174 L60.732233,60.732233 C61.9650613,59.4994048 61.9650613,57.5005952 60.732233,56.267767 C59.5468212,55.0823552 57.6532167,55.0367624 56.4133285,56.1309887 L56.267767,56.267767 L54.267767,58.267767 L50.732233,54.732233 L52.732233,52.732233 C55.9176828,49.5467833 61.0823172,49.5467833 64.267767,52.732233 Z" id="Shape" fill="#000000" fill-rule="nonzero"></path>
    </g>
</svg>