<?xml version="1.0" encoding="UTF-8"?>
<svg  viewBox="0 0 116 116" version="1.1" xmlns="http://www.w3.org/2000/svg" xmlns:xlink="http://www.w3.org/1999/xlink">
    <title>flashlight-off</title>
    <g id="flashlight-off" stroke="none" stroke-width="1" fill="none" fill-rule="evenodd">
        <path d="M12.267767,8.73223305 L61.629233,58.093233 L61.6235709,58.0400358 C61.5267858,57.3746446 61.2215738,56.7571077 60.732233,56.267767 C60.3882643,55.9237982 59.981843,55.6708639 59.5370209,55.5169448 L59.3115212,55.4482734 L60.5883537,50.6140518 C61.9702461,50.9790423 63.2373229,51.701789 64.267767,52.732233 C65.5889732,54.0534393 66.3972932,55.7574034 66.6040958,57.5716666 L66.6343283,57.8929202 L61.788233,58.253233 L108.267767,104.732233 L104.732233,108.267767 L8.73223305,12.267767 L12.267767,8.73223305 Z M38.1125464,51.3519197 L41.6480803,54.8874536 L14.3890873,82.1464466 C14.2155209,82.320013 14.1962358,82.5894374 14.3312318,82.7843055 L14.3890873,82.8535534 L34.1464466,102.610913 C34.320013,102.784479 34.5894374,102.803764 34.7843055,102.668768 L34.8535534,102.610913 L61.6754735,75.7889925 L65.2110075,79.3245265 L38.3890873,106.146447 C36.3008671,108.234667 32.9512337,108.292673 30.792935,106.320465 L30.6109127,106.146447 L10.8535534,86.3890873 C8.76533322,84.3008671 8.7073271,80.9512337 10.679535,78.792935 L10.8535534,78.6109127 L38.1125464,51.3519197 Z M45.232233,60.732233 L48.767767,64.267767 L48.1447826,64.8907513 C47.0478344,65.9876995 47.0478344,67.7662038 48.1447826,68.8631519 L48.2098528,68.926157 C49.4072664,70.0487322 51.2534909,70.0628808 52.4667747,68.9892706 L52.6092487,68.8552174 L57.0679377,64.3965284 L60.6034716,67.9320623 L56.1447826,72.3907513 C53.0295158,75.5060181 48.0042346,75.5870499 44.7901472,72.573843 L44.6092487,72.3986858 C41.6245635,69.4140007 41.5610596,64.6143263 44.4187368,61.5524076 L44.6092487,61.3552174 L45.232233,60.732233 Z M76.267767,8.73223305 L106.167809,38.632868 C108.230092,40.7467076 108.246743,44.0968019 106.248042,46.2305897 L106.07179,46.4104499 L90.0763977,62.0157105 C88.1969536,63.8493144 85.7019968,64.9092906 83.0858768,64.9944386 L82.7439972,65 L78.5,65 L78.5,60 L82.7439972,60 C84.0894756,60 85.3849913,59.5069503 86.3881224,58.6195167 L86.5847784,58.4368007 L102.58017,42.8315402 C102.755866,42.6601297 102.778476,42.3909639 102.645896,42.1944441 L102.584562,42.1200958 L72.732233,12.267767 L76.267767,8.73223305 Z M70.0463799,18.6010218 L70.2371448,18.7728207 L70.4163823,18.949706 L83.7956006,32.760512 L80.2043994,36.239488 L66.8251811,22.428682 C66.6543913,22.2523829 66.3853069,22.2288241 66.1883208,22.3607104 L66.1125076,22.4230263 L58.6109127,29.9246212 C57.6439283,30.8916057 57.0741984,32.181585 57.0067595,33.5409793 L57,33.8137085 L57,38.5 L52,38.5 L52,33.8137085 C52,31.1403263 53.0195171,28.572059 54.8432404,26.6287131 L55.0753788,26.3890873 L62.6391873,18.8262584 C64.6979014,16.8318792 67.9144154,16.7686646 70.0463799,18.6010218 Z" id="Shape" fill="#000000" fill-rule="nonzero"></path>
    </g>
</svg>