<?xml version="1.0" encoding="UTF-8"?>
<svg  viewBox="0 0 116 116" version="1.1" xmlns="http://www.w3.org/2000/svg" xmlns:xlink="http://www.w3.org/1999/xlink">
    <title>flashlight-off</title>
    <g id="flashlight-off" stroke="none" stroke-width="1" fill="none" fill-rule="evenodd">
        <path d="M12.267767,8.73223305 L61.629233,58.0939378 L61.6235709,58.0400358 C61.5267858,57.3746446 61.2215738,56.7571077 60.732233,56.267767 C60.3882643,55.9237982 59.981843,55.6708639 59.5370209,55.5169448 L59.3115212,55.4482734 L60.5883537,50.6140518 C61.9702461,50.9790423 63.2373229,51.701789 64.267767,52.732233 C65.5889732,54.0534393 66.3972932,55.7574034 66.6040958,57.5716666 L66.6343283,57.8929202 L61.788233,58.2529378 L108.267767,104.732233 L104.732233,108.267767 L8.73223305,12.267767 L12.267767,8.73223305 Z M39.6667889,49.7976772 L43.2023228,53.3332111 L14.3890873,82.1464466 C14.2155209,82.320013 14.1962358,82.5894374 14.3312318,82.7843055 L14.3890873,82.8535534 L34.1464466,102.610913 C34.320013,102.784479 34.5894374,102.803764 34.7843055,102.668768 L34.8535534,102.610913 L63.9578453,73.5066208 L67.4933792,77.0421547 L38.3890873,106.146447 C36.3008671,108.234667 32.9512337,108.292673 30.792935,106.320465 L30.6109127,106.146447 L10.8535534,86.3890873 C8.76533322,84.3008671 8.7073271,80.9512337 10.679535,78.792935 L10.8535534,78.6109127 L39.6667889,49.7976772 Z M45.232233,60.732233 L48.767767,64.267767 L48.1447826,64.8907513 C47.0478344,65.9876995 47.0478344,67.7662038 48.1447826,68.8631519 L48.2098528,68.926157 C49.4072664,70.0487322 51.2534909,70.0628808 52.4667747,68.9892706 L52.6092487,68.8552174 L57.0679377,64.3965284 L60.6034716,67.9320623 L56.1447826,72.3907513 C53.0295158,75.5060181 48.0042346,75.5870499 44.7901472,72.573843 L44.6092487,72.3986858 C41.6245635,69.4140007 41.5610596,64.6143263 44.4187368,61.5524076 L44.6092487,61.3552174 L45.232233,60.732233 Z M101.267767,15.732233 C104.771563,19.2360294 107.093804,23.8566592 108.248346,29.5322684 L108.359909,30.1033436 L103.445449,31.0242578 C102.509972,26.0320848 100.60047,22.1360039 97.732233,19.267767 C93.926201,15.4617349 88.2817546,13.3315399 80.7070054,12.9508539 L80.475,12.94 L106.172925,38.6383112 C108.228775,40.7584069 108.235248,44.1085364 106.230072,46.2362416 L106.053275,46.4155654 L94.0676863,58.0379541 C92.1902751,59.8584741 89.704319,60.9100153 87.098662,60.9944831 L86.7581551,61 L83.535,60.999 L76.1299791,68.4055548 L72.5944452,64.8700209 L81.4644661,56 L86.7581551,56 C88.0982121,56 89.3889195,55.5109053 90.3905553,54.6298587 L90.5869572,54.4484522 L102.572546,42.8260635 C102.748761,42.6551876 102.772189,42.3860917 102.640206,42.18917 L102.578026,42.1135599 L74.3440994,13.8796333 C72.9772555,12.5127992 72.9772539,10.2967156 74.3440916,8.92987801 C74.9805469,8.29342273 75.837734,7.9266291 76.7375743,7.90569768 C87.5354105,7.65452637 95.7602968,10.2247629 101.267767,15.732233 Z M70.0354991,18.5704502 L70.2271796,18.7412269 L70.4073601,18.9171515 L91.7862761,40.750938 L88.2137239,44.249062 L66.834808,22.4152755 C66.6630782,22.2398919 66.3938717,22.2177719 66.1975934,22.3507093 L66.1277404,22.4078327 L62.6109127,25.9246212 C61.6439283,26.8916057 61.0741984,28.181585 61.0067595,29.5409793 L61,29.8137085 L61,35.5355339 L52.5609276,43.9746063 L49.0253937,40.4390724 L56,33.464 L56,29.8137085 C56,27.1403263 57.0195171,24.572059 58.8432404,22.6287131 L59.0753788,22.3890873 L62.6296164,18.8352806 C64.6776397,16.8299245 67.8937698,16.7495162 70.0354991,18.5704502 Z" id="Shape" fill="#000000" fill-rule="nonzero"></path>
    </g>
</svg>