<?xml version="1.0" encoding="UTF-8"?>
<svg   viewBox="0 0 116 116" version="1.1" xmlns="http://www.w3.org/2000/svg" xmlns:xlink="http://www.w3.org/1999/xlink">
    <title>flowchart-horiz</title>
    <g id="flowchart-horiz" stroke="none" stroke-width="1" fill="none" fill-rule="evenodd">
        <path d="M13.5,85 C13.2545401,85 13.0503916,85.1768752 13.0080557,85.4101244 L13,85.5 L13,103.5 C13,103.74546 13.1768752,103.949608 13.4101244,103.991944 L13.5,104 L26.5,104 L26.5,109 L13.5,109 C10.5365209,109 8.12046086,106.65622 8.0043672,103.721207 L8,103.5 L8,85.5 C8,82.5365209 10.34378,80.1204609 13.2787929,80.0043672 L13.5,80 L33.464,80 L44.732233,68.732233 L48.267767,72.267767 L36.7333386,83.8033874 C36.8847915,84.27089 36.9753419,84.7658109 36.9956328,85.2787929 L37,85.5 L37,106.5 L32,106.5 L32,85.5 C32,85.2545401 31.8231248,85.0503916 31.5898756,85.0080557 L31.5,85 L13.5,85 Z M31.5,8 C34.4634791,8 36.8795391,10.34378 36.9956328,13.2787929 L37,13.5 L37,26.5 L32,26.5 L32,13.5 C32,13.2545401 31.8231248,13.0503916 31.5898756,13.0080557 L31.5,13 L13.5,13 C13.2545401,13 13.0503916,13.1768752 13.0080557,13.4101244 L13,13.5 L13,31.5 C13,31.7454599 13.1768752,31.9496084 13.4101244,31.9919443 L13.5,32 L35.5355339,32 L54.0355339,50.5 L46.3890873,58.1464466 C46.2155209,58.320013 46.1962358,58.5894374 46.3312318,58.7843055 L46.3890873,58.8535534 L58.1464466,70.6109127 C58.320013,70.7844791 58.5894374,70.8037642 58.7843055,70.6687682 L58.8535534,70.6109127 L73.4644661,56 L92.5,56 L92.5,61 L75.534,61 L62.3890873,74.1464466 C60.3008671,76.2346668 56.9512337,76.2926729 54.792935,74.320465 L54.6109127,74.1464466 L42.8535534,62.3890873 C40.7653332,60.3008671 40.7073271,56.9512337 42.679535,54.792935 L42.8535534,54.6109127 L46.964,50.499 L33.465,37 L13.5,37 C10.5365209,37 8.12046086,34.65622 8.0043672,31.7212071 L8,31.5 L8,13.5 C8,10.5365209 10.34378,8.12046086 13.2787929,8.0043672 L13.5,8 L31.5,8 Z M91.9348163,45.7852515 L105.3906,54.7557737 C105.884935,55.0853305 106.309118,55.5095138 106.638675,56.0038491 C107.975486,58.0090652 107.490565,60.696979 105.574419,62.1150609 L105.3906,62.2442263 L92.1229603,71.0893192 L89.3494593,66.9290677 L101.992,58.5 L89.1613153,49.945503 L91.9348163,45.7852515 Z M62.207065,42.679535 L62.3890873,42.8535534 L72.267767,52.732233 L68.732233,56.267767 L58.8535534,46.3890873 C58.679987,46.2155209 58.4105626,46.1962358 58.2156945,46.3312318 L58.1464466,46.3890873 L56.267767,48.267767 L52.732233,44.732233 L54.6109127,42.8535534 C56.6991329,40.7653332 60.0487663,40.7073271 62.207065,42.679535 Z" id="Shape" fill="#000000" fill-rule="nonzero"></path>
    </g>
</svg>