<?xml version="1.0" encoding="UTF-8"?>
<svg   viewBox="0 0 116 116" version="1.1" xmlns="http://www.w3.org/2000/svg" xmlns:xlink="http://www.w3.org/1999/xlink">
    <title>flowchart</title>
    <g id="flowchart" stroke="none" stroke-width="1" fill="none" fill-rule="evenodd">
        <path d="M67.0369538,89.1876301 L71.1972053,91.9611311 L62.2442263,105.3906 C61.9146695,105.884935 61.4904862,106.309118 60.9961509,106.638675 C58.9909348,107.975486 56.303021,107.490565 54.8849391,105.574419 L54.7557737,105.3906 L45.9231336,92.1416396 L50.0833851,89.3681386 L58.499,101.992 L67.0369538,89.1876301 Z M103.5,8 C106.463479,8 108.879539,10.34378 108.995633,13.2787929 L109,13.5 L109,31.5 C109,34.4634791 106.65622,36.8795391 103.721207,36.9956328 L103.5,37 L84.012,37 L70.063,50.527 L74.1464466,54.6109127 C76.2346668,56.6991329 76.2926729,60.0487663 74.320465,62.207065 L74.1464466,62.3890873 L61,75.534 L61,93.5 L56,93.5 L56,73.4644661 L70.6109127,58.8535534 C70.7844791,58.679987 70.8037642,58.4105626 70.6687682,58.2156945 L70.6109127,58.1464466 L58.8535534,46.3890873 C58.679987,46.2155209 58.4105626,46.1962358 58.2156945,46.3312318 L58.1464466,46.3890873 L46.3890873,58.1464466 C46.2155209,58.320013 46.1962358,58.5894374 46.3312318,58.7843055 L46.3890873,58.8535534 L52.267767,64.732233 L48.732233,68.267767 L42.8535534,62.3890873 C40.7653332,60.3008671 40.7073271,56.9512337 42.679535,54.792935 L42.8535534,54.6109127 L54.6109127,42.8535534 C56.6991329,40.7653332 60.0487663,40.7073271 62.207065,42.679535 L62.3890873,42.8535534 L66.527,46.991 L81.9869235,32 L103.5,32 C103.74546,32 103.949608,31.8231248 103.991944,31.5898756 L104,31.5 L104,13.5 C104,13.2545401 103.823125,13.0503916 103.589876,13.0080557 L103.5,13 L85.5,13 C85.2545401,13 85.0503916,13.1768752 85.0080557,13.4101244 L85,13.5 L85,26.5 L80,26.5 L80,13.5 C80,10.5365209 82.34378,8.12046086 85.2787929,8.0043672 L85.5,8 L103.5,8 Z M31.5,8 C34.4634791,8 36.8795391,10.34378 36.9956328,13.2787929 L37,13.5 L37,33.465 L46.4425812,42.9070473 L42.9070473,46.4425812 L32,35.5355339 L32,13.5 C32,13.2545401 31.8231248,13.0503916 31.5898756,13.0080557 L31.5,13 L13.5,13 C13.2545401,13 13.0503916,13.1768752 13.0080557,13.4101244 L13,13.5 L13,31.5 C13,31.7454599 13.1768752,31.9496084 13.4101244,31.9919443 L13.5,32 L26.5,32 L26.5,37 L13.5,37 C10.5365209,37 8.12046086,34.65622 8.0043672,31.7212071 L8,31.5 L8,13.5 C8,10.5365209 10.34378,8.12046086 13.2787929,8.0043672 L13.5,8 L31.5,8 Z" id="Shape" fill="#000000" fill-rule="nonzero"></path>
    </g>
</svg>