<?xml version="1.0" encoding="UTF-8"?>
<svg  viewBox="0 0 117 116" version="1.1" xmlns="http://www.w3.org/2000/svg" xmlns:xlink="http://www.w3.org/1999/xlink">
    <title>folder</title>
    <g id="folder" stroke="none" stroke-width="1" fill="none" fill-rule="evenodd" transform="translate(0.000000, 0.000000)">
        <path d="M39.1862915,16 C41.8596737,16 44.427941,17.0195171 46.3712869,18.8432404 L46.6109127,19.0753788 L49.9246212,22.3890873 C50.8916057,23.3560717 52.181585,23.9258016 53.5409793,23.9932405 L53.8137085,24 L86.5,24 C92.2039245,24 96.8455734,28.548142 96.9962258,34.2157049 L97,34.5 L97,38.5 L92,38.5 L92,34.5 C92,31.5365209 89.65622,29.1204609 86.7212071,29.0043672 L86.5,29 L53.8137085,29 C51.1403263,29 48.572059,27.9804829 46.6287131,26.1567596 L46.3890873,25.9246212 L43.0753788,22.6109127 C42.1083943,21.6439283 40.818415,21.0741984 39.4590207,21.0067595 L39.1862915,21 L18.5,21 C15.5365209,21 13.1204609,23.34378 13.0043672,26.2787929 L13,26.5 L13,76.546 L18.6329934,52.1389752 C19.7108614,47.468214 23.809557,44.1328792 28.5772551,44.0038775 L28.864101,44 L105.242949,44 C105.507831,44 105.771858,44.0300695 106.029957,44.0896308 C107.850669,44.5097951 109.008882,46.2798365 108.691453,48.0987263 L108.653318,48.2870083 L98.3670066,92.8610248 C97.2891386,97.531786 93.190443,100.867121 88.4227449,100.996122 L88.135899,101 L22.5,101 L22.5,96 L88.135899,96 C90.6193976,96 92.7841739,94.3377615 93.4381982,91.961559 L93.4950506,91.7367273 L103.357,49 L28.864101,49 C26.3806024,49 24.2158261,50.6622385 23.5618018,53.038441 L23.5049494,53.2632727 L14.9103692,90.5064536 C14.4757165,92.3899485 12.5964866,93.5644672 10.7129917,93.1298145 C9.18845527,92.7779984 8.09073563,91.4606929 8.00535732,89.9139322 L8,89.7194453 L8,26.5 C8,20.7960755 12.548142,16.1544266 18.2157049,16.0037742 L18.5,16 L39.1862915,16 Z" id="Path-293" fill="#000000" fill-rule="nonzero"></path>
    </g>
</svg>