<?xml version="1.0" encoding="UTF-8"?>
<svg  viewBox="0 0 116 116" version="1.1" xmlns="http://www.w3.org/2000/svg" xmlns:xlink="http://www.w3.org/1999/xlink">
    <title>forward-step</title>
    <g id="forward-step" stroke="none" stroke-width="1" fill="none" fill-rule="evenodd">
        <path d="M61,28.7338096 C61,30.6668062 59.4329966,32.2338096 57.5,32.2338096 C56.9449404,32.2338096 56.399012,32.101814 55.906796,31.8501711 L55.6992649,31.7350349 L40.0140557,22.3239093 C37.8829445,21.0452426 37.1919017,18.2810715 38.4705684,16.1499603 C38.7906338,15.616518 39.2173101,15.1560753 39.7228727,14.7968656 L39.9442913,14.6491988 L57.1750026,3.88000424 L59.8249974,8.11999576 L43.286,18.456 L56,26.084 L56,16 L90.5,16 C96.2039245,16 100.845573,20.548142 100.996226,26.2157049 L101,26.5 L101,90.5 C101,96.2039245 96.451858,100.845573 90.7842951,100.996226 L90.5,101 L26.5,101 C20.7960755,101 16.1544266,96.451858 16.0037742,90.7842951 L16,90.5 L16,26.5 C16,20.7960755 20.548142,16.1544266 26.2157049,16.0037742 L26.5,16 L26.5,21 C23.5365209,21 21.1204609,23.34378 21.0043672,26.2787929 L21,26.5 L21,90.5 C21,93.4634791 23.34378,95.8795391 26.2787929,95.9956328 L26.5,96 L90.5,96 C93.4634791,96 95.8795391,93.65622 95.9956328,90.7212071 L96,90.5 L96,26.5 C96,23.5365209 93.65622,21.1204609 90.7212071,21.0043672 L90.5,21 L61,21 L61,28.7338096 Z" id="Path-175" fill="#000000" fill-rule="nonzero" transform="translate(58.500000, 52.440002) scale(-1, 1) translate(-58.500000, -52.440002) "></path>
    </g>
</svg>