<?xml version="1.0" encoding="UTF-8"?>
<svg  viewBox="0 0 116 116" version="1.1" xmlns="http://www.w3.org/2000/svg" xmlns:xlink="http://www.w3.org/1999/xlink">
    <title>game-controller</title>
    <g id="game-controller" stroke="none" stroke-width="1" fill="none" fill-rule="evenodd">
        <path d="M38.1267861,24.5 C41.6092455,24.5 44.8440945,26.2717909 46.7217155,29.1871177 L46.8937323,29.4637606 C47.7967704,30.9688241 49.3918087,31.9151269 51.1346839,31.994569 L51.3732139,32 L66.25,32 C67.869085,32 69.3620948,31.1464311 70.1859696,29.7651292 L70.2941176,29.5735294 C71.9106561,26.5425198 75.0208898,24.6157594 78.4384949,24.5050425 L78.75,24.5 L90.5,24.5 C100.60499,24.5 108.817728,32.6016943 108.997008,42.6638763 L109,43 L109,82.5 C109,92.7172679 100.717268,101 90.5,101 C80.3950098,101 72.1822717,92.8983057 72.0029922,82.8361237 L72,82.5 L72,75 C72,72.0365209 69.65622,69.6204609 66.7212071,69.5043672 L66.5,69.5 L48,69.5 L48,62.5 C48,58.9881894 50.7849962,56.1268494 54.2668659,56.004103 L54.5,56 L66.5,56 L66.5,61 L54.5,61 C53.7203039,61 53.0795513,61.5948881 53.0068666,62.35554 L53,62.5 L53,64.5 L66.5,64.5 C72.2039245,64.5 76.8455734,69.048142 76.9962258,74.7157049 L77,75 L77,82.5 C77,89.9558441 83.0441559,96 90.5,96 C97.8522907,96 103.831834,90.1225714 103.996515,82.8098308 L104,82.5 L104,43 C104,35.6477093 98.1225714,29.6681655 90.8098308,29.5034854 L90.5,29.5 L78.75,29.5 C77.130915,29.5 75.6379052,30.3535689 74.8140304,31.7348708 L74.7058824,31.9264706 C73.0893439,34.9574802 69.9791102,36.8842406 66.5615051,36.9949575 L66.25,37 L51.3732139,37 C47.8907545,37 44.6559055,35.2282091 42.7782845,32.3128823 L42.6062677,32.0362394 C41.7032296,30.5311759 40.1081913,29.5848731 38.3653161,29.505431 L38.1267861,29.5 L26.5,29.5 C19.1477093,29.5 13.1681655,35.3774286 13.0034854,42.6901692 L13,43 L13,82.5 C13,89.9558441 19.0441559,96 26.5,96 C33.8522907,96 39.8318345,90.1225714 39.9965146,82.8098308 L40,82.5 L40,74.5 L45,74.5 L45,82.5 C45,92.7172679 36.7172679,101 26.5,101 C16.3950098,101 8.18227168,92.8983057 8.0029922,82.8361237 L8,82.5 L8,43 C8,32.8950098 16.1016943,24.6822717 26.1638763,24.5029922 L26.5,24.5 L38.1267861,24.5 Z M29,67 L29,82.5 L24,82.5 L24,67 L29,67 Z M93,67 L93,82.5 L88,82.5 L88,67 L93,67 Z M90.5,36 C96.2989899,36 101,40.7010101 101,46.5 C101,52.2039245 96.451858,56.8455734 90.7842951,56.9962258 L90.5,57 L90.5,52 C93.5375661,52 96,49.5375661 96,46.5 C96,43.4624339 93.5375661,41 90.5,41 C87.5365209,41 85.1204609,43.34378 85.0043672,46.2787929 L85,46.5 L80,46.5 C80,40.7010101 84.7010101,36 90.5,36 Z M29,50.5 L29,54.5 L24,54.5 L24,50.5 L29,50.5 Z M29,38.5 L29,49 L18.5,49 L18.5,44 L24,44 L24,38.5 L29,38.5 Z M34.5,44 L34.5,49 L30.5,49 L30.5,44 L34.5,44 Z M90.5,16 L90.5,21 L74.5,21 L74.5,16 L90.5,16 Z M42.5,16 L42.5,21 L26.5,21 L26.5,16 L42.5,16 Z" id="Shape" fill="#000000" fill-rule="nonzero"></path>
    </g>
</svg>