<?xml version="1.0" encoding="UTF-8"?>
<svg   viewBox="0 0 116 116" version="1.1" xmlns="http://www.w3.org/2000/svg" xmlns:xlink="http://www.w3.org/1999/xlink">
    <title>gear</title>
    <g id="gear" stroke="none" stroke-width="1" fill="none" fill-rule="evenodd">
        <path d="M51.7810369,3.26982211 L51.857904,3.49276099 L53.2195622,7.68396185 L53.8645503,7.61989395 C55.0917658,7.50817726 56.3264942,7.44085073 57.5670649,7.41838879 L58.4985622,7.40996185 C60.0524276,7.40996185 61.5978211,7.48021473 63.1314825,7.61979459 L63.7755622,7.68396185 L65.1384167,3.49213323 C66.1625069,0.340295816 69.3862104,-1.52429602 72.6242666,-0.866603314 L72.8555512,-0.815318993 L74.112044,-0.504418258 L74.8889441,-0.301988399 L75.5986017,-0.108446001 L75.9447939,-0.0103455126 L76.2923231,0.0909661442 L76.9214922,0.282834763 L77.5083632,0.473988218 L78.1228266,0.686848708 L78.7793784,0.925831111 L79.4792585,1.19116419 L80.2233792,1.4830408 L81.0026418,1.79759695 C81.1380572,1.8529656 81.2754377,1.90948264 81.4147893,1.96715024 C84.4769062,3.23434532 86.0839274,6.59376561 85.1800334,9.75626582 L85.111185,9.98179289 L83.7495622,14.1689619 L84.0553393,14.345334 C86.8947077,16.0144462 89.564789,17.9580544 92.0269135,20.1455233 L92.2865622,20.3799619 L95.8556402,17.7876032 C98.5302028,15.8444151 102.222676,16.2241441 104.454125,18.6396581 L104.627212,18.8345808 L105.19524,19.5060254 L105.724177,20.1432883 L106.214435,20.7470652 L106.666543,21.3182992 L107.081183,21.8582996 L107.450805,22.3571035 L107.637158,22.6167447 L108.009153,23.150125 L108.602483,24.0365005 L109.022768,24.6862023 L109.463489,25.3836658 L109.919865,26.1208778 C111.649237,28.9408825 110.980222,32.5952614 108.401579,34.6246567 L108.199463,34.7775175 L104.640562,37.3619619 L104.835659,37.8013684 C105.296742,38.8624697 105.721308,39.9398556 106.108439,41.0318391 L106.391753,41.8535373 C106.947121,43.5107589 107.416104,45.1978807 107.79642,46.909425 L107.901562,47.4079619 L112.30347,47.4080378 C115.619242,47.4080011 118.389949,49.9003192 118.762395,53.1805372 L118.784465,53.4106465 L118.84941,54.2882406 L118.90281,55.1151675 L118.952598,56.0644178 L118.985165,56.96679 L118.998441,57.6442385 L118.998441,57.9345989 L118.99013,58.6506714 L118.984127,58.8919895 L118.959743,59.5900036 L118.923696,60.3373435 L118.876083,61.1349364 L118.783898,62.4171153 C118.524921,65.7228277 115.82368,68.2904068 112.534409,68.4054128 L112.303994,68.4094356 L107.902562,68.4099619 L107.78444,68.9642744 C107.459064,70.4210196 107.069439,71.860002 106.616978,73.2778384 L106.337973,74.1259756 C105.884423,75.4644299 105.374956,76.7816763 104.81124,78.0746563 L104.640562,78.4539619 L108.199849,81.0392393 C110.876147,82.9836385 111.655365,86.6161358 110.04355,89.4856958 L109.914839,89.7048851 L109.451544,90.453047 L109.00869,91.1534324 L108.585742,91.806648 L108.181966,92.4134875 L107.796328,92.9750081 L107.428837,93.490611 L106.930997,94.1570896 L106.358623,94.8901576 L105.707289,95.6949045 L105.180367,96.3293492 L104.620511,96.9909377 C102.474363,99.5055726 98.7954268,99.9996212 96.069308,98.1787158 L95.856113,98.0301453 L92.2875622,95.4379619 L92.0279708,95.673461 C89.5660351,97.8608849 86.8961573,99.8044795 84.0570005,101.473613 L83.7515622,101.648962 L85.1120256,105.835405 C86.1361359,108.987174 84.6241875,112.390464 81.6228435,113.759787 L81.405943,113.854105 L80.5913704,114.187063 L79.8214176,114.493383 L79.0952952,114.773243 L78.2063805,115.101001 L77.3386657,115.400348 L76.7919729,115.575345 L76.5716651,115.642964 L75.9251332,115.833587 L75.2286113,116.028114 L74.4811181,116.226997 L73.6819118,116.430556 L72.8401067,116.636717 C69.6179028,117.411518 66.3430611,115.63825 65.2153973,112.548202 L65.1385312,112.325261 L63.7765622,108.134962 L63.1324357,108.200042 C61.9052564,108.311752 60.6705649,108.379075 59.4300315,108.401535 L58.4985622,108.409962 L58.4985622,103.409962 C60.4619875,103.409962 62.409198,103.285748 64.3325225,103.039712 L65.1553197,102.926816 L67.243482,102.620847 L69.8938806,110.780382 C70.120717,111.478508 70.8151845,111.902963 71.5199275,111.804513 L71.6608776,111.777776 L72.4697904,111.579761 L73.2204954,111.388597 L73.9122509,111.204605 L74.5440755,111.02824 L75.1360962,110.853525 L75.399102,110.772257 L75.8740071,110.618297 L76.5729203,110.375053 L77.3249548,110.097248 L77.9972085,109.838113 L78.7206185,109.550281 L79.5037677,109.230079 C80.1820187,108.949389 80.550909,108.223898 80.3949761,107.520657 L80.356728,107.380444 L77.706686,99.2236072 L79.5767691,98.244205 C83.2927402,96.2980719 86.7231785,93.844527 89.7693419,90.9614193 L90.3359702,90.4158216 L91.8451614,88.9374634 L98.7946958,93.9848108 C99.3885589,94.4162761 100.199883,94.3514696 100.712164,93.8575837 L100.81048,93.7531054 L101.348514,93.1174402 L101.843484,92.5215319 L102.375753,91.8651681 L102.901961,91.1945623 L103.065274,90.9806612 L103.38394,90.5518382 L103.697824,90.1113713 L104.03853,89.6151622 L104.405025,89.0642679 L104.796574,88.4594825 L105.212642,87.8014124 L105.658013,87.0820399 C106.041744,86.4562908 105.913749,85.6525278 105.374276,85.1752732 L105.260924,85.0843253 L98.3198706,80.0412442 L99.2617066,78.1480731 C100.166844,76.3286702 100.949127,74.4493484 101.602469,72.5212967 C102.290338,70.4913524 102.834054,68.4110649 103.22845,66.2925878 L103.36934,65.4963925 L103.719335,63.4102326 L112.303758,63.4094356 C113.086749,63.4094343 113.738018,62.8071926 113.799172,62.0265866 L113.830628,61.6147351 L113.886529,60.8128739 L113.930992,60.0688634 L113.964116,59.3836305 L113.992933,58.4688447 L113.997567,57.6719104 L113.987106,57.1004244 L113.957627,56.2880374 L113.911672,55.4115356 L113.861475,54.6345871 L113.798951,53.79082 C113.741365,53.0561572 113.161074,52.4794947 112.440237,52.4142014 L112.303526,52.4080378 L103.719154,52.4081337 L103.369057,50.3218465 C102.97588,47.9788338 102.400865,45.6802471 101.650884,43.4422969 C101.082366,41.7458357 100.414148,40.086769 99.6503479,38.4726863 L99.2605017,37.6694288 L98.3184919,35.7761917 L105.260506,30.7324547 C105.854348,30.3009958 106.043428,29.5093755 105.732049,28.8695644 L105.663072,28.743778 L105.22462,28.0353542 L104.810682,27.3801989 L104.236959,26.4987205 L103.887106,25.9798192 L103.557357,25.5070788 L103.412911,25.3056664 L103.091169,24.8712604 L102.724735,24.3941471 L102.314296,23.8756357 L101.860379,23.3166696 L101.363395,22.7179443 L100.8172,22.0724345 C100.340667,21.5140924 99.5366749,21.3874261 98.9160231,21.7530402 L98.7944886,21.8327447 L91.8445286,26.8817656 L90.3351421,25.4032909 C87.3371685,22.466715 83.9487196,19.9548914 80.2685541,17.9456782 L79.5751286,17.5748596 L77.7048446,16.5954494 L80.3559062,8.43669637 C80.5978503,7.692047 80.2263544,6.88656742 79.5028894,6.58717606 L79.1207642,6.42991923 L78.375134,6.12883105 L77.6810124,5.85651361 L77.0393121,5.61315976 L76.4512726,5.39899827 L75.9186148,5.21429216 L75.421325,5.05224565 L74.8567588,4.88040588 L74.2678714,4.71119078 L73.6014635,4.52932282 L72.8820591,4.34183764 L71.6709635,4.04230304 C70.9572553,3.87069359 70.2323591,4.24079319 69.9451722,4.90130418 L69.8937039,5.03720407 L67.2418909,13.198779 L65.1539598,12.8929081 C62.9642925,12.5721334 60.7420121,12.4099619 58.4985622,12.4099619 C56.5350778,12.4099619 54.5878093,12.5341834 52.6644284,12.780234 L51.8416072,12.8931363 L49.7533913,13.1991228 L47.1025434,5.03760578 C46.8605863,4.2929606 46.0865908,3.85967373 45.3253175,4.0427031 L44.1435358,4.33477218 L43.4219155,4.52245715 L42.7597292,4.70276176 L42.0445218,4.90889397 L41.3704227,5.11780346 L40.8384673,5.2963548 L40.2908582,5.49062288 L39.6708919,5.7207449 L38.9990154,5.97971573 L38.2760174,6.26735918 L37.4933175,6.58734812 C36.815046,6.86802033 36.4461318,7.59352043 36.6020474,8.29673909 L36.6402921,8.43694733 L39.2911391,16.5959872 L37.4209917,17.5753854 C33.7046737,19.5216252 30.2739308,21.9753672 27.2275305,24.8587429 L26.6608586,25.4043916 L25.1513101,26.8831265 L18.2020724,21.83352 C17.5686336,21.3733081 16.6877785,21.4777148 16.1794774,22.0732539 L15.9156347,22.383538 L15.1528912,23.2972326 L14.7012134,23.8528951 L14.1064517,24.6083468 L13.7661855,25.0578572 L13.4454634,25.4990852 L13.1311216,25.9489697 L12.7775999,26.4723405 L12.4022285,27.0443997 L11.7840938,28.0165131 L11.3389611,28.7354491 C10.9552029,29.3611957 11.0831833,30.1649799 11.622866,30.6423981 L11.7362622,30.7333808 L18.6776057,35.7780706 L17.7358365,37.6710089 C16.818428,39.5149827 16.0272265,41.4204851 15.3685585,43.3758711 C14.7027946,45.3523224 14.173585,47.3762667 13.7856781,49.436514 L13.6280973,50.3216671 L13.2780551,52.4075775 L4.69349095,52.4089706 C3.95657943,52.408977 3.33633874,52.9424321 3.21558758,53.6471653 L3.19889359,53.7812215 L3.11067286,55.0059665 L3.06617893,55.750266 L3.03303199,56.4357598 L3.01106643,57.0612016 L3,57.6248593 L2.99955649,58.147889 L3.01000627,58.7190695 L3.03163078,59.3502802 L3.06459545,60.0402721 L3.10899879,60.7881181 L3.16530085,61.5983069 L3.19796942,62.0267841 C3.25553196,62.761461 3.83582351,63.3381491 4.55681053,63.4034519 L4.6935511,63.4096171 L13.2777785,63.4101635 L13.6277833,65.4963856 C14.038488,67.9444127 14.6476779,70.3438546 15.4474544,72.6761844 C15.9982301,74.2823712 16.6386126,75.8544155 17.365056,77.3858188 L17.735433,78.1481037 L18.6772533,80.0412397 L11.7360609,85.0846192 C11.1026084,85.544851 10.9297094,86.4148811 11.3390632,87.0823503 L11.5556956,87.4340341 L11.9817929,88.1156112 L12.3831398,88.7436632 L12.7591116,89.3174982 L13.1088403,89.8362028 L13.4384738,90.3087716 L13.5828573,90.510097 L13.904771,90.9447297 L14.2714098,91.4220977 L14.6820882,91.9408908 L15.1362781,92.5001649 L15.6335679,93.0992239 L16.1801045,93.7450953 C16.6566479,94.3034121 17.4606244,94.4300586 18.0810872,94.06457 L18.2025815,93.9848926 L25.1506237,88.936064 L26.6601863,90.4148735 C29.658135,93.3517475 33.0466178,95.8638521 36.726864,97.873314 L37.4203052,98.2441787 L39.2903217,99.2235491 L36.640441,107.380811 C36.413607,108.078939 36.7259546,108.830528 37.3497394,109.163392 L37.4785813,109.224242 L38.6208148,109.688497 L39.314671,109.960696 L39.9561303,110.203948 L40.5439537,110.418023 L41.0764112,110.602656 L41.6808729,110.798116 L41.8394509,110.847004 L42.4166578,111.017698 L43.0538425,111.19602 L43.7500229,111.381516 L44.5044569,111.573865 L45.3365312,111.777635 L44.1472057,116.634126 L43.2924952,116.424701 L42.4895396,116.219952 L41.7375967,116.01956 L41.0356843,115.82307 L40.2993014,115.604451 L40.0736008,115.534133 L39.4866875,115.342969 L38.87244,115.130187 L38.2161241,114.891299 L37.5165008,114.626075 L36.7673472,114.332172 L35.5817203,113.850434 C32.5194863,112.583297 30.9123846,109.22379 31.8162608,106.0614 L31.885108,105.835881 L33.2445622,101.648962 L32.9398624,101.473459 C30.1004396,99.8041464 27.4303307,97.8603204 24.96821,95.6726227 L24.7075622,95.4379619 L21.1416788,98.0298533 C18.4671831,99.9730333 14.7747807,99.593389 12.5432889,97.1779878 L12.3701988,96.983074 L11.8018207,96.311259 L11.2725641,95.6736486 L10.7820173,95.0695467 L10.3296521,94.4980093 L9.91478316,93.9577261 L9.5449729,93.4586731 L9.35868375,93.1991218 L8.98681682,92.6659324 L8.59626115,92.0868949 L8.18614873,91.461096 L7.75585502,90.7878437 L7.31046907,90.0756101 C7.23348799,89.9512711 7.15559257,89.824849 7.07678861,89.696354 C5.34728774,86.8763273 6.01628903,83.2218308 8.59495518,81.1924396 L8.79707247,81.0395794 L12.3545622,78.4539619 L12.0727654,77.8131767 C11.701455,76.9481474 11.35435,76.0723949 11.0319484,75.1868287 L10.7177997,74.2980249 C10.1255579,72.5709134 9.62740979,70.8106951 9.22597894,69.0236278 L9.09356218,68.4099619 L4.69339479,68.4096171 C1.37756472,68.4096208 -1.3931505,65.9171919 -1.76511896,62.641908 L-1.78715497,62.4121511 L-1.82143539,61.9618788 L-1.88055487,61.1101927 L-1.92810795,60.3087626 L-1.96399612,59.5566615 L-1.98805395,58.8526402 L-2,58.1949779 L-2,57.5777534 L-1.98699264,56.9275901 L-1.96259255,56.2293225 L-1.92652062,55.4817046 L-1.85073231,54.2657807 L-1.78662595,53.4011125 C-1.52755785,50.0954938 1.1736248,47.5280182 4.46266516,47.4129948 L4.69306357,47.4089706 L9.09356218,47.4079619 L9.20638975,46.8838682 C9.52719283,45.4437008 9.91078174,44.0208579 10.3557944,42.6186056 L10.630162,41.7797511 C11.0874108,40.422318 11.6021354,39.0865939 12.1726007,37.7757624 L12.3555622,37.3639619 L8.79705059,34.7782584 C6.12072403,32.833798 5.3415649,29.2012068 6.95350116,26.3316528 L7.08222075,26.1124642 L7.54866504,25.3593976 L8.20170514,24.3325078 L8.61474495,23.7029507 L8.99740471,23.1361369 L9.18890216,22.8594818 L9.38599694,22.5801599 L9.7491478,22.0810821 L10.2727186,21.3926792 L10.801114,20.7242747 L11.2930611,20.1190835 L12.0877659,19.1668433 L12.3763813,18.8272625 C14.5225478,16.3127566 18.2013764,15.8187576 20.9278856,17.639926 L21.1411126,17.7885177 L24.7085622,20.3809619 L24.9689674,20.1466281 C27.4311012,17.9590066 30.1012132,16.015255 32.9406304,14.3460128 L33.2445622,14.1699619 L31.8849945,9.98198602 C30.8608973,6.83015092 32.3729486,3.42681906 35.3743868,2.05757272 L35.591294,1.96325959 L36.4054061,1.63052088 L37.1749298,1.32439654 L37.9006539,1.04471037 L38.5658857,0.797631539 L38.8934019,0.679960806 L39.2253404,0.56377437 L39.8254196,0.362749664 L40.7406979,0.080418548 L41.4123298,-0.112152119 L42.1345035,-0.308872322 L42.9080706,-0.510122375 L43.7233987,-0.713680126 C43.865497,-0.748481163 44.00986,-0.78350813 44.156494,-0.818762898 C47.3786372,-1.59344766 50.6533623,0.179797078 51.7810369,3.26982211 Z M58.4985622,31.4099619 C72.9877526,31.4099619 84.760996,43.0383133 84.9950119,57.4717359 L84.9985622,57.9099619 L79.9985622,57.9099619 C79.9985622,46.0358397 70.3726843,36.4099619 58.4985622,36.4099619 C46.6244401,36.4099619 36.9985622,46.0358397 36.9985622,57.9099619 C36.9985622,69.784084 46.6244401,79.4099619 58.4985622,79.4099619 C64.1545738,79.4099619 69.4572919,77.2189391 73.4360476,73.3735924 L73.755729,73.0581929 L77.3038193,76.5811256 C72.3624035,81.5578284 65.6534174,84.4099619 58.4985622,84.4099619 C43.8630163,84.4099619 31.9985622,72.5455077 31.9985622,57.9099619 C31.9985622,43.274416 43.8630163,31.4099619 58.4985622,31.4099619 Z" id="Shape" fill="#000000" fill-rule="nonzero"></path>
    </g>
</svg>