<?xml version="1.0" encoding="UTF-8"?>
<svg   viewBox="0 0 128 128" version="1.1" xmlns="http://www.w3.org/2000/svg" xmlns:xlink="http://www.w3.org/1999/xlink">
    <title>gear</title>
    <g id="gear" stroke="none" stroke-width="1" fill="none" fill-rule="evenodd">
        <path d="M57.7824747,9.85986026 L57.8593418,10.0827991 L59.221,14.274 L59.8659881,14.2099321 C61.0932037,14.0982154 62.327932,14.0308889 63.5685027,14.0084269 L64.5,14 C66.0538654,14 67.5992589,14.0702529 69.1329203,14.2098327 L69.777,14.274 L71.1398546,10.0821714 C72.1639447,6.93033396 75.3876482,5.06574212 78.6257044,5.72343484 L78.8569891,5.77471916 L80.1134818,6.08561989 L80.8903819,6.28804975 L81.6000396,6.48159215 L81.9462318,6.57969264 L82.2937609,6.68100429 L82.9229301,6.87287291 L83.5098011,7.06402637 L84.1242644,7.27688686 L84.7808163,7.51586926 L85.4806963,7.78120233 L86.224817,8.07307895 L87.0040796,8.3876351 C87.139495,8.44300375 87.2768755,8.49952079 87.4162271,8.55718839 C90.478344,9.82438347 92.0853652,13.1838038 91.1814712,16.346304 L91.1126228,16.571831 L89.751,20.759 L90.0567772,20.9353722 C92.8961455,22.6044843 95.5662268,24.5480925 98.0283513,26.7355614 L98.288,26.97 L101.857078,24.3776414 C104.531641,22.4344533 108.224114,22.8141822 110.455563,25.2296962 L110.62865,25.4246189 L111.196677,26.0960636 L111.725615,26.7333265 L112.215873,27.3371033 L112.66798,27.9083373 L113.082621,28.4483377 L113.452243,28.9471417 L113.638596,29.2067829 L114.010591,29.7401631 L114.603921,30.6265387 L115.024206,31.2762405 L115.464926,31.973704 L115.921303,32.710916 C117.650675,35.5309207 116.98166,39.1852995 114.403017,41.2146948 L114.200901,41.3675556 L110.642,43.952 L110.837097,44.3914066 C111.298179,45.4525078 111.722745,46.5298937 112.109876,47.6218772 L112.393191,48.4435755 C112.948559,50.1007971 113.417542,51.7879189 113.797858,53.4994631 L113.903,53.998 L118.304908,53.9980759 C121.620679,53.9980392 124.391387,56.4903573 124.763833,59.7705753 L124.785903,60.0006847 L124.850848,60.8782787 L124.904247,61.7052056 L124.954036,62.6544559 L124.986603,63.5568281 L124.999879,64.2342766 L124.999879,64.5246371 L124.991568,65.2407096 L124.985565,65.4820277 L124.961181,66.1800417 L124.925134,66.9273817 L124.877521,67.7249746 L124.785336,69.0071535 C124.526359,72.3128658 121.825118,74.880445 118.535846,74.9954509 L118.305432,74.9994738 L113.904,75 L113.785878,75.5543125 C113.460501,77.0110578 113.070876,78.4500402 112.618416,79.8678765 L112.339411,80.7160137 C111.885861,82.054468 111.376394,83.3717144 110.812678,84.6646944 L110.642,85.044 L114.201287,87.6292775 C116.877585,89.5736767 117.656803,93.206174 116.044987,96.075734 L115.916277,96.2949232 L115.452982,97.0430852 L115.010127,97.7434706 L114.58718,98.3966861 L114.183404,99.0035257 L113.797765,99.5650462 L113.430274,100.080649 L112.932435,100.747128 L112.36006,101.480196 L111.708727,102.284943 L111.181805,102.919387 L110.621948,103.580976 C108.475801,106.095611 104.796865,106.589659 102.070746,104.768754 L101.857551,104.620183 L98.289,102.028 L98.0294087,102.263499 C95.567473,104.450923 92.8975951,106.394518 90.0584383,108.063651 L89.753,108.239 L91.1134634,112.425443 C92.1375737,115.577212 90.6256253,118.980502 87.6242813,120.349825 L87.4073808,120.444144 L86.5928082,120.777101 L85.8228554,121.083422 L85.096733,121.363282 L84.2078183,121.69104 L83.3401035,121.990386 L82.7934107,122.165383 L82.5731029,122.233002 L81.9265711,122.423626 L81.2300492,122.618152 L80.4825559,122.817035 L79.6833496,123.020594 L78.8415445,123.226756 C75.6193406,124.001556 72.344499,122.228288 71.2168351,119.13824 L71.139969,118.915299 L69.778,114.725 L69.1338735,114.79008 C67.9066943,114.90179 66.6720028,114.969113 65.4314693,114.991574 L64.5,115 L64.5,110 C66.4634253,110 68.4106358,109.875786 70.3339603,109.62975 L71.1567575,109.516855 L73.2449198,109.210885 L75.8953184,117.37042 C76.1221548,118.068547 76.8166223,118.493002 77.5213653,118.394551 L77.6623154,118.367815 L78.4712283,118.169799 L79.2219332,117.978635 L79.9136887,117.794644 L80.5455133,117.618278 L81.137534,117.443563 L81.4005399,117.362295 L81.8754449,117.208335 L82.5743581,116.965092 L83.3263926,116.687286 L83.9986463,116.428151 L84.7220563,116.140319 L85.5052056,115.820118 C86.1834565,115.539427 86.5523468,114.813936 86.3964139,114.110695 L86.3581658,113.970482 L83.7081238,105.813645 L85.5782069,104.834243 C89.294178,102.88811 92.7246164,100.434565 95.7707797,97.5514574 L96.337408,97.0058598 L97.8465992,95.5275016 L104.796134,100.574849 C105.389997,101.006314 106.201321,100.941508 106.713602,100.447622 L106.811918,100.343144 L107.349952,99.7074783 L107.844921,99.1115701 L108.377191,98.4552063 L108.903398,97.7846005 L109.066712,97.5706993 L109.385378,97.1418764 L109.699262,96.7014094 L110.039968,96.2052003 L110.406463,95.6543061 L110.798012,95.0495206 L111.21408,94.3914505 L111.659451,93.6720781 C112.043182,93.0463289 111.915187,92.2425659 111.375714,91.7653114 L111.262362,91.6743634 L104.321308,86.6312824 L105.263144,84.7381113 C106.168281,82.9187083 106.950565,81.0393865 107.603906,79.1113349 C108.291776,77.0813905 108.835491,75.001103 109.229888,72.882626 L109.370778,72.0864307 L109.720772,70.0002707 L118.305195,69.9994738 C119.088187,69.9994724 119.739456,69.3972307 119.80061,68.6166247 L119.832065,68.2047732 L119.887966,67.4029121 L119.93243,66.6589016 L119.965554,65.9736686 L119.994371,65.0588829 L119.999005,64.2619486 L119.988544,63.6904626 L119.959065,62.8780756 L119.91311,62.0015738 L119.862912,61.2246252 L119.800389,60.3808582 C119.742802,59.6461954 119.162512,59.0695329 118.441675,59.0042395 L118.304964,58.9980759 L109.720592,58.9981718 L109.370495,56.9118847 C108.977317,54.5688719 108.402303,52.2702853 107.652322,50.032335 C107.083804,48.3358739 106.415586,46.6768071 105.651786,45.0627245 L105.26194,44.2594669 L104.31993,42.3662298 L111.261944,37.3224928 C111.855786,36.8910339 112.044866,36.0994136 111.733487,35.4596026 L111.66451,35.3338162 L111.226058,34.6253923 L110.81212,33.970237 L110.238396,33.0887586 L109.888544,32.5698574 L109.558795,32.097117 L109.414349,31.8957045 L109.092606,31.4612985 L108.726173,30.9841852 L108.315734,30.4656739 L107.861817,29.9067077 L107.364833,29.3079825 L106.818638,28.6624727 C106.342105,28.1041306 105.538113,27.9774642 104.917461,28.3430783 L104.795926,28.4227829 L97.8459665,33.4718037 L96.3365799,31.993329 C93.3386063,29.0567531 89.9501574,26.5449296 86.2699919,24.5357163 L85.5765664,24.1648978 L83.7062824,23.1854876 L86.357344,15.0267345 C86.5992881,14.2820851 86.2277922,13.4766056 85.5043272,13.1772142 L85.122202,13.0199574 L84.3765718,12.7188692 L83.6824503,12.4465518 L83.0407499,12.2031979 L82.4527104,11.9890364 L81.9200526,11.8043303 L81.4227628,11.6422838 L80.8581966,11.470444 L80.2693092,11.3012289 L79.6029013,11.119361 L78.8834969,10.9318758 L77.6724013,10.6323412 C76.9586931,10.4607317 76.233797,10.8308313 75.94661,11.4913423 L75.8951417,11.6272422 L73.2433287,19.7888171 L71.1553977,19.4829463 C68.9657303,19.1621716 66.7434499,19 64.5,19 C62.5365156,19 60.5892471,19.1242215 58.6658662,19.3702722 L57.8430451,19.4831744 L55.7548291,19.7891609 L53.1039812,11.6276439 C52.8620242,10.8829987 52.0880287,10.4497119 51.3267553,10.6327412 L50.1449736,10.9248103 L49.4233533,11.1124953 L48.761167,11.2927999 L48.0459596,11.4989321 L47.3718605,11.7078416 L46.8399051,11.886393 L46.292296,12.080661 L45.6723297,12.310783 L45.0004532,12.5697539 L44.2774552,12.8573973 L43.4947554,13.1773863 C42.8164838,13.4580585 42.4475696,14.1835586 42.6034853,14.8867772 L42.64173,15.0269855 L45.2925769,23.1860254 L43.4224295,24.1654236 C39.7061115,26.1116633 36.2753686,28.5654053 33.2289683,31.448781 L32.6622964,31.9944298 L31.1527479,33.4731647 L24.2035102,28.4235581 C23.5700714,27.9633463 22.6892163,28.067753 22.1809152,28.6632921 L21.9170726,28.9735761 L21.154329,29.8872707 L20.7026512,30.4429333 L20.1078895,31.198385 L19.7676233,31.6478953 L19.4469012,32.0891233 L19.1325595,32.5390079 L18.7790377,33.0623787 L18.4036663,33.6344378 L17.7855317,34.6065513 L17.3403989,35.3254872 C16.9566407,35.9512338 17.0846211,36.7550181 17.6243038,37.2324363 L17.7377,37.3234189 L24.6790435,42.3681088 L23.7372743,44.2610471 C22.8198658,46.1050209 22.0286644,48.0105232 21.3699963,49.9659092 C20.7042324,51.9423606 20.1750229,53.9663049 19.7871159,56.0265522 L19.6295351,56.9117053 L19.2794929,58.9976156 L10.6949288,58.9990087 C9.95801725,58.9990151 9.33777656,59.5324703 9.2170254,60.2372035 L9.20033141,60.3712597 L9.11211067,61.5960046 L9.06761675,62.3403041 L9.0344698,63.0257979 L9.01250425,63.6512398 L9.00143782,64.2148975 L9.0009943,64.7379271 L9.01144409,65.3091076 L9.03306859,65.9403184 L9.06603327,66.6303103 L9.1104366,67.3781563 L9.16673866,68.188345 L9.19940723,68.6168223 C9.25696978,69.3514992 9.83726132,69.9281873 10.5582483,69.99349 L10.6949889,69.9996552 L19.2792164,70.0002017 L19.6292212,72.0864238 C20.0399258,74.5344508 20.6491157,76.9338928 21.4488922,79.2662225 C21.9996679,80.8724093 22.6400504,82.4444537 23.3664938,83.975857 L23.7368708,84.7381418 L24.6786911,86.6312779 L17.7374987,91.6746574 C17.1040462,92.1348891 16.9311473,93.0049193 17.340501,93.6723885 L17.5571335,94.0240722 L17.9832308,94.7056493 L18.3845776,95.3337014 L18.7605494,95.9075363 L19.1102781,96.4262409 L19.4399116,96.8988097 L19.5842951,97.1001351 L19.9062088,97.5347679 L20.2728476,98.0121359 L20.683526,98.5309289 L21.1377159,99.0902031 L21.6350057,99.689262 L22.1815423,100.335133 C22.6580857,100.89345 23.4620622,101.020097 24.082525,100.654608 L24.2040193,100.574931 L31.1520615,95.5261021 L32.6616241,97.0049117 C35.6595728,99.9417857 39.0480556,102.45389 42.7283018,104.463352 L43.421743,104.834217 L45.2917595,105.813587 L42.6418789,113.970849 C42.4150448,114.668977 42.7273925,115.420566 43.3511772,115.75343 L43.4800191,115.81428 L44.6222526,116.278535 L45.3161088,116.550735 L45.9575681,116.793986 L46.5453915,117.008062 L47.077849,117.192695 L47.6823107,117.388154 L47.8408887,117.437042 L48.4180956,117.607736 L49.0552803,117.786058 L49.7514608,117.971554 L50.5058947,118.163903 L51.337969,118.367673 L50.1486435,123.224164 L49.293933,123.014739 L48.4909774,122.80999 L47.7390345,122.609598 L47.0371221,122.413108 L46.3007392,122.194489 L46.0750386,122.124171 L45.4881253,121.933007 L44.8738778,121.720225 L44.2175619,121.481337 L43.5179386,121.216113 L42.768785,120.92221 L41.5831581,120.440473 C38.5209241,119.173335 36.9138224,115.813828 37.8176986,112.651438 L37.8865458,112.42592 L39.246,108.239 L38.9413002,108.063498 C36.1018774,106.394185 33.4317685,104.450359 30.9696478,102.262661 L30.709,102.028 L27.1431166,104.619891 C24.468621,106.563071 20.7762185,106.183427 18.5447267,103.768026 L18.3716366,103.573112 L17.8032586,102.901297 L17.2740019,102.263687 L16.7834551,101.659585 L16.3310899,101.088047 L15.916221,100.547764 L15.5464107,100.048711 L15.3601216,99.78916 L14.9882546,99.2559705 L14.597699,98.676933 L14.1875866,98.0511341 L13.7572928,97.3778818 L13.3119069,96.6656483 C13.2349258,96.5413092 13.1570304,96.4148871 13.0782264,96.2863922 C11.3487256,93.4663654 12.0177268,89.811869 14.596393,87.7824778 L14.7985103,87.6296175 L18.356,85.044 L18.0742033,84.4032148 C17.7028928,83.5381855 17.3557878,82.6624331 17.0333863,81.7768669 L16.7192376,80.8880631 C16.1269957,79.1609516 15.6288476,77.4007333 15.2274168,75.6136659 L15.095,75 L10.6948326,74.9996552 C7.37900254,74.999659 4.60828731,72.5072301 4.23631885,69.2319461 L4.21428284,69.0021893 L4.18000243,68.551917 L4.12088294,67.7002309 L4.07332986,66.8988007 L4.03744169,66.1466996 L4.01338387,65.4426783 L4.00143782,64.785016 L4.00143782,64.1677916 L4.01444518,63.5176282 L4.03884527,62.8193607 L4.07491719,62.0717428 L4.15070551,60.8558188 L4.21481186,59.9911507 C4.47387997,56.6855319 7.17506262,54.1180564 10.464103,54.003033 L10.6945014,53.9990088 L15.095,53.998 L15.2078276,53.4739063 C15.5286306,52.033739 15.9122196,50.6108961 16.3572322,49.2086437 L16.6315998,48.3697893 C17.0888486,47.0123561 17.6035732,45.676632 18.1740385,44.3658005 L18.357,43.954 L14.7984884,41.3682965 C12.1221618,39.4238361 11.3430027,35.791245 12.954939,32.921691 L13.0836586,32.7025024 L13.5501029,31.9494357 L14.203143,30.9225459 L14.6161828,30.2929888 L14.9988425,29.7261751 L15.19034,29.44952 L15.3874348,29.170198 L15.7505856,28.6711202 L16.2741565,27.9827173 L16.8025518,27.3143129 L17.2944989,26.7091217 L18.0892038,25.7568815 L18.3778191,25.4173007 C20.5239856,22.9027948 24.2028142,22.4087958 26.9293234,24.2299641 L27.1425504,24.3785559 L30.71,26.971 L30.9704052,26.7366662 C33.432539,24.5490448 36.102651,22.6052932 38.9420682,20.9360509 L39.246,20.76 L37.8864323,16.5720242 C36.8623351,13.4201891 38.3743864,10.0168572 41.3758246,8.64761087 L41.5927319,8.55329774 L42.4068439,8.22055903 L43.1763676,7.91443469 L43.9020917,7.63474852 L44.5673235,7.38766969 L44.8948397,7.26999895 L45.2267783,7.15381252 L45.8268574,6.95278781 L46.7421357,6.6704567 L47.4137676,6.47788603 L48.1359414,6.28116583 L48.9095084,6.07991577 L49.7248365,5.87635802 C49.8669348,5.84155699 50.0112979,5.80653002 50.1579319,5.77127525 C53.380075,4.99659049 56.6548002,6.76983523 57.7824747,9.85986026 Z M64.5,38 C78.9891904,38 90.7624338,49.6283515 90.9964498,64.061774 L91,64.5 L86,64.5 C86,52.6258779 76.3741221,43 64.5,43 C52.6258779,43 43,52.6258779 43,64.5 C43,76.3741221 52.6258779,86 64.5,86 C70.1560117,86 75.4587298,83.8089772 79.4374855,79.9636305 L79.7571668,79.648231 L83.3052571,83.1711638 C78.3638413,88.1478666 71.6548552,91 64.5,91 C49.8644541,91 38,79.1355459 38,64.5 C38,49.8644541 49.8644541,38 64.5,38 Z" id="Shape" fill="#000000" fill-rule="nonzero"></path>
    </g>
</svg>