<?xml version="1.0" encoding="UTF-8"?>
<svg  viewBox="0 0 116 116" version="1.1" xmlns="http://www.w3.org/2000/svg" xmlns:xlink="http://www.w3.org/1999/xlink">
    <title>gif</title>
    <g id="gif" stroke="none" stroke-width="1" fill="none" fill-rule="evenodd">
        <path d="M109,66.5 L109,98.5 C109,104.203924 104.451858,108.845573 98.7842951,108.996226 L98.5,109 L18.5,109 C12.7960755,109 8.15442656,104.451858 8.00377424,98.7842951 L8,98.5 L8,90.5 L13,90.5 L13,98.5 C13,101.463479 15.34378,103.879539 18.2787929,103.995633 L18.5,104 L98.5,104 C101.463479,104 103.879539,101.65622 103.995633,98.7212071 L104,98.5 L104,66.5 L109,66.5 Z M34.5,32 C40.2039245,32 44.8455734,36.548142 44.9962258,42.2157049 L45,42.5 L40,42.5 C40,39.5365209 37.65622,37.1204609 34.7212071,37.0043672 L34.5,37 L26.5,37 C23.5365209,37 21.1204609,39.34378 21.0043672,42.2787929 L21,42.5 L21,74.5 C21,77.4634791 23.34378,79.8795391 26.2787929,79.9956328 L26.5,80 L34.5,80 C37.4634791,80 39.8795391,77.65622 39.9956328,74.7212071 L40,74.5 L40,61.5 C40,61.2545401 39.8231248,61.0503916 39.5898756,61.0080557 L39.5,61 L30.5,61 L30.5,56 L39.5,56 C42.4634791,56 44.8795391,58.34378 44.9956328,61.2787929 L45,61.5 L45,74.5 C45,80.2039245 40.451858,84.8455734 34.7842951,84.9962258 L34.5,85 L26.5,85 C20.7960755,85 16.1544266,80.451858 16.0037742,74.7842951 L16,74.5 L16,42.5 C16,36.7960755 20.548142,32.1544266 26.2157049,32.0037742 L26.5,32 L34.5,32 Z M61,34.5 L61,82.5 L56,82.5 L56,34.5 L61,34.5 Z M99,32 L99,37 L77.5,37 C77.2545401,37 77.0503916,37.1768752 77.0080557,37.4101244 L77,37.5 L77,82.5 L72,82.5 L72,37.5 C72,34.5365209 74.34378,32.1204609 77.2787929,32.0043672 L77.5,32 L99,32 Z M98.5,56 L98.5,61 L82.5,61 L82.5,56 L98.5,56 Z M98.5,8 C104.203924,8 108.845573,12.548142 108.996226,18.2157049 L109,18.5 L109,26.5 L104,26.5 L104,18.5 C104,15.5365209 101.65622,13.1204609 98.7212071,13.0043672 L98.5,13 L18.5,13 C15.5365209,13 13.1204609,15.34378 13.0043672,18.2787929 L13,18.5 L13,26.5 L8,26.5 L8,18.5 C8,12.7960755 12.548142,8.15442656 18.2157049,8.00377424 L18.5,8 L98.5,8 Z" id="Shape" fill="#000000" fill-rule="nonzero"></path>
    </g>
</svg>