<?xml version="1.0" encoding="UTF-8"?>
<svg   viewBox="0 0 116 116" version="1.1" xmlns="http://www.w3.org/2000/svg" xmlns:xlink="http://www.w3.org/1999/xlink">
    <title>grid-rect-compact</title>
    <g id="grid-rect-compact" stroke="none" stroke-width="1" fill="none" fill-rule="evenodd">
        <path d="M74.5,68 L74.5,73 L61,73 L61,92 L80,92 L80,49 L61,49 L61,62.5 L56,62.5 L56,49 L18.5,49 L18.5,44 L32,44 L32,20 L61,20 L61,38.5 L56,38.5 L56,25 L37,25 L37,44 L85,44 L85,68 L98.5,68 L98.5,73 L85,73 L85,97 L56,97 L56,73 L37,73 L37,92 L50.5,92 L50.5,97 L18.5,97 C12.7960755,97 8.15442656,92.451858 8.00377424,86.7842951 L8,86.5 L8,30.5 C8,24.7960755 12.548142,20.1544266 18.2157049,20.0037742 L18.5,20 L26.5,20 L26.5,25 L18.5,25 C15.5365209,25 13.1204609,27.34378 13.0043672,30.2787929 L13,30.5 L13,86.5 C13,89.4634791 15.34378,91.8795391 18.2787929,91.9956328 L18.5,92 L32,92 L32,73 L18.5,73 L18.5,68 L32,68 L32,54.5 L37,54.5 L37,68 L74.5,68 Z M109,54.5 L109,86.5 C109,92.2039245 104.451858,96.8455734 98.7842951,96.9962258 L98.5,97 L90.5,97 L90.5,92 L98.5,92 C101.463479,92 103.879539,89.65622 103.995633,86.7212071 L104,86.5 L104,54.5 L109,54.5 Z M98.5,20 C104.203924,20 108.845573,24.548142 108.996226,30.2157049 L109,30.5 L109,49 L90.5,49 L90.5,44 L104,44 L104,30.5 C104,27.5365209 101.65622,25.1204609 98.7212071,25.0043672 L98.5,25 L85,25 L85,38.5 L80,38.5 L80,25 L66.5,25 L66.5,20 L98.5,20 Z" id="Shape" fill="#000000" fill-rule="nonzero"></path>
    </g>
</svg>