<?xml version="1.0" encoding="UTF-8"?>
<svg  viewBox="0 0 116 116" version="1.1" xmlns="http://www.w3.org/2000/svg" xmlns:xlink="http://www.w3.org/1999/xlink">
    <title>grid-rect</title>
    <g id="grid-rect" stroke="none" stroke-width="1" fill="none" fill-rule="evenodd">
        <path d="M98.5,20 C104.203924,20 108.845573,24.548142 108.996226,30.2157049 L109,30.5 L109,61 L50.5,61 L50.5,56 L104,56 L104,30.5 C104,27.5365209 101.65622,25.1204609 98.7212071,25.0043672 L98.5,25 L77,25 L77,50.5 L72,50.5 L72,25 L18.5,25 C15.5365209,25 13.1204609,27.34378 13.0043672,30.2787929 L13,30.5 L13,56 L40,56 L40,30.5 L45,30.5 L45,92 L72,92 L72,66 L77,66 L77,97 L18.5,97 C12.7960755,97 8.15442656,92.451858 8.00377424,86.7842951 L8,86.5 L8,66.5 L13,66.5 L13,86.5 C13,89.4634791 15.34378,91.8795391 18.2787929,91.9956328 L18.5,92 L40,92 L40,61 L8,61 L8,30.5 C8,24.7960755 12.548142,20.1544266 18.2157049,20.0037742 L18.5,20 L98.5,20 Z M109,66 L109,86.5 C109,92.2039245 104.451858,96.8455734 98.7842951,96.9962258 L98.5,97 L82.5,97 L82.5,92 L98.5,92 C101.463479,92 103.879539,89.65622 103.995633,86.7212071 L104,86.5 L104,66 L109,66 Z" id="Shape" fill="#000000" fill-rule="nonzero"></path>
    </g>
</svg>