<?xml version="1.0" encoding="UTF-8"?>
<svg  viewBox="0 0 116 116" version="1.1" xmlns="http://www.w3.org/2000/svg" xmlns:xlink="http://www.w3.org/1999/xlink">
    <title>grid-compact</title>
    <g id="grid-compact" stroke="none" stroke-width="1" fill="none" fill-rule="evenodd">
        <path d="M109,66.5 L104,66.5 L104,45 L77,45 L77,72 L109,72 L109,98.5 C109,104.203924 104.451858,108.845573 98.7842951,108.996226 L98.5,109 L82.5,109 L82.5,104 L98.5,104 C101.463479,104 103.879539,101.65622 103.995633,98.7212071 L104,98.5 L104,77 L77,77 L77,109 L50.5,109 L50.5,104 L72,104 L72,77 L45,77 L45,109 L18.5,109 C12.7960755,109 8.15442656,104.451858 8.00377424,98.7842951 L8,98.5 L8,50.5 L13,50.5 L13,98.5 C13,101.463479 15.34378,103.879539 18.2787929,103.995633 L18.5,104 L40,104 L40,77 L18.5,77 L18.5,72 L40,72 L40,50.5 L45,50.5 L45,72 L72,72 L72,45 L50.5,45 L50.5,40 L72,40 L72,18.5 L77,18.5 L77,40 L104,40 L104,18.5 C104,15.5365209 101.65622,13.1204609 98.7212071,13.0043672 L98.5,13 L45,13 L45,45 L8,45 L8,18.5 C8,12.7960755 12.548142,8.15442656 18.2157049,8.00377424 L18.5,8 L34.5,8 L34.5,13 L18.5,13 C15.5365209,13 13.1204609,15.34378 13.0043672,18.2787929 L13,18.5 L13,40 L40,40 L40,8 L98.5,8 C104.203924,8 108.845573,12.548142 108.996226,18.2157049 L109,18.5 L109,66.5 Z" id="Path" fill="#000000" fill-rule="nonzero"></path>
    </g>
</svg>