<?xml version="1.0" encoding="UTF-8"?>
<svg  viewBox="0 0 116 116" version="1.1" xmlns="http://www.w3.org/2000/svg" xmlns:xlink="http://www.w3.org/1999/xlink">
    <title>hand</title>
    <g id="hand" stroke="none" stroke-width="1" fill="none" fill-rule="evenodd">
        <path d="M60.5,4 C65.1090673,4 68.8613215,7.66845296 68.9962434,12.2448397 L69,12.5 L69,16.495 C70.3997505,13.8869102 73.1091673,12.0962031 76.2448397,12.0037566 L76.5,12 C81.1090673,12 84.8613215,15.668453 84.9962434,20.2448397 L85,20.5 L85,69.0916731 C85,69.2588497 85.0835506,69.4149653 85.2226499,69.5076982 C85.4268849,69.6438549 85.6948594,69.6099271 85.8594684,69.4393357 L85.9160251,69.3690232 L93.2820161,58.3200368 C93.5427359,57.9289571 93.841448,57.5645869 94.1738018,57.232233 C96.9611733,54.4448615 101.480395,54.4448615 104.267767,57.232233 C107.368173,60.3326389 107.89117,65.158107 105.562334,68.8426496 L105.40285,69.0865641 L84.5711066,99.9001848 L80.4288934,97.0998152 L101.260637,66.2861946 C102.429228,64.5576538 102.207607,62.2431411 100.732233,60.767767 C99.897483,59.9330169 98.5440858,59.9330169 97.7093357,60.767767 C97.6429811,60.8341215 97.5811043,60.9047375 97.5240912,60.979144 L97.4422676,61.0935377 L90.0762766,72.1425242 C88.3913381,74.669932 84.9765567,75.3528882 82.4491489,73.6679497 C80.9886059,72.6942544 80.084813,71.0852908 80.0056677,69.3416298 L80,69.0916731 L80,20.5 C80,18.5670034 78.4329966,17 76.5,17 C74.6314366,17 73.1048736,18.4642776 73.0051789,20.3079648 L73,20.5 L73,52.5 C73,54.9852814 70.9852814,57 68.5,57 C66.0857267,57 64.1155109,55.0987635 64.004898,52.7118357 L64,52.5 L64,12.5 C64,10.5670034 62.4329966,9 60.5,9 C58.6314366,9 57.1048736,10.4642776 57.0051789,12.3079648 L57,12.5 L57,52.5 C57,54.9852814 54.9852814,57 52.5,57 C50.0857267,57 48.1155109,55.0987635 48.004898,52.7118357 L48,52.5 L48,20.5 C48,18.5670034 46.4329966,17 44.5,17 C42.6314366,17 41.1048736,18.4642776 41.0051789,20.3079648 L41,20.5 L41,52.5 C41,54.9852814 38.9852814,57 36.5,57 C34.0857267,57 32.1155109,55.0987635 32.004898,52.7118357 L32,52.5 L32,32.5 C32,30.5670034 30.4329966,29 28.5,29 C26.6314366,29 25.1048736,30.4642776 25.0051789,32.3079648 L25,32.5 L25,74.5 C25,90.6294761 37.9447686,103.73554 54.0121636,103.996048 L54.5,104 L58.5,104 L58.5,109 L54.5,109 C35.6367144,109 20.3092843,93.8612028 20.004622,75.0705206 L20,74.5 L20,32.5 C20,27.8055796 23.8055796,24 28.5,24 C31.6420609,24 34.3859329,25.7048495 35.8570442,28.2399769 L36,28.497 L36,20.5 C36,15.8909327 39.668453,12.1386785 44.2448397,12.0037566 L44.5,12 C47.6420609,12 50.3859329,13.7048495 51.8570442,16.2399769 L52,16.497 L52,12.5 C52,7.89093272 55.668453,4.13867855 60.2448397,4.0037566 L60.5,4 Z" id="Path-323" fill="#000000" fill-rule="nonzero"></path>
    </g>
</svg>