<?xml version="1.0" encoding="UTF-8"?>
<svg  viewBox="0 0 116 116" version="1.1" xmlns="http://www.w3.org/2000/svg" xmlns:xlink="http://www.w3.org/1999/xlink">
    <title>hand-point</title>
    <g id="hand-point" stroke="none" stroke-width="1" fill="none" fill-rule="evenodd">
        <path d="M60.5,8 C65.1090673,8 68.8613215,11.668453 68.9962434,16.2448397 L69,16.5 L69,69.0916731 C69,69.2588497 69.0835506,69.4149653 69.2226499,69.5076982 C69.4268849,69.6438549 69.6948594,69.6099271 69.8594684,69.4393357 L69.9160251,69.3690232 L77.2820161,58.3200368 C77.5427359,57.9289571 77.841448,57.5645869 78.1738018,57.232233 C80.9611733,54.4448615 85.4803955,54.4448615 88.267767,57.232233 C91.3681728,60.3326389 91.8911704,65.158107 89.5623339,68.8426496 L89.4028502,69.0865641 L68.5711066,99.9001848 L64.4288934,97.0998152 L85.2606369,66.2861946 C86.4292278,64.5576538 86.2076072,62.2431411 84.732233,60.767767 C83.897483,59.9330169 82.5440858,59.9330169 81.7093357,60.767767 C81.6429811,60.8341215 81.5811043,60.9047375 81.5240912,60.979144 L81.4422676,61.0935377 L74.0762766,72.1425242 C72.3913381,74.669932 68.9765567,75.3528882 66.4491489,73.6679497 C64.9886059,72.6942544 64.084813,71.0852908 64.0056677,69.3416298 L64,69.0916731 L64,16.5 C64,14.5670034 62.4329966,13 60.5,13 C58.6314366,13 57.1048736,14.4642776 57.0051789,16.3079648 L57,16.5 L57,58.5 L52,58.5 L52,45 L48.5,45 C46.6314366,45 45.1048736,46.4642776 45.0051789,48.3079648 L45,48.487 L45,58.5 L40,58.5 L40,49 L36.5,49 C34.6314366,49 33.1048736,50.4642776 33.0051789,52.3079648 L33,52.487 L33,58.5 L28,58.5 L28,53 L24.5,53 C22.6314366,53 21.1048736,54.4642776 21.0051789,56.3079648 L21,56.5 L21,82.5 C21,94.2553809 30.4343229,103.807258 42.1444582,103.99712 L42.5,104 L42.5,109 C28.0108096,109 16.2375662,97.3716485 16.0035502,82.938226 L16,82.5 L16,56.5 C16,51.8909327 19.668453,48.1386785 24.2448397,48.0037566 L24.5,48 L29.288,48 L29.3694025,47.871661 C30.8419177,45.6076899 33.363411,44.0887075 36.2448397,44.0037566 L36.5,44 L41.288,44 L41.3694025,43.871661 C42.8419177,41.6076899 45.363411,40.0887075 48.2448397,40.0037566 L48.5,40 L52,40 L52,16.5 C52,11.8909327 55.668453,8.13867855 60.2448397,8.0037566 L60.5,8 Z" id="Path-323" fill="#000000" fill-rule="nonzero" transform="translate(53.503950, 58.500000) scale(-1, 1) translate(-53.503950, -58.500000) "></path>
    </g>
</svg>