<?xml version="1.0" encoding="UTF-8"?>
<svg  viewBox="0 0 116 116" version="1.1" xmlns="http://www.w3.org/2000/svg" xmlns:xlink="http://www.w3.org/1999/xlink">
    <title>headphone</title>
    <g id="headphone" stroke="none" stroke-width="1" fill="none" fill-rule="evenodd">
        <path d="M58.5,8 C86.3903799,8 109,30.6096201 109,58.5 C109,59.4166917 108.899992,60.4841579 108.703991,61.7148787 L108.625998,62.1840759 L103.699135,61.332007 L103.808178,60.6561758 C103.937035,59.790786 104,59.0690281 104,58.5 C104,33.3710439 83.6289561,13 58.5,13 C33.3710439,13 13,33.3710439 13,58.5 C13,58.7911012 13.0105119,59.1005114 13.0315372,59.4281567 L13.0709606,59.9332917 L13.0965864,60.1960992 L13.0965864,60.1960992 L13.1596672,60.7421593 L13.2385212,61.3154335 C13.252978,61.413244 13.2680921,61.5121861 13.2838634,61.6122586 L13.3863793,62.2262501 L13.5046712,62.8673171 L13.6387404,63.5354043 L13.7885879,64.2304561 L14.0429464,65.3234714 L14.0429464,65.3234714 L14.332813,66.4768455 L14.332813,66.4768455 L14.545786,67.2792019 L14.8948414,68.5327583 L14.8948414,68.5327583 L15.1472774,69.4017297 L15.4155006,70.2972501 L15.6995122,71.2192641 L15.9993135,72.1677162 L16.3149054,73.1425511 L16.8179037,74.6541498 L17.1729777,75.694699 L17.5438466,76.761437 L18.129768,78.4105266 L18.7512344,80.1182292 L19.0170785,80.836 L25.6480284,97.638615 C26.8773745,100.71198 30.2855118,102.275511 33.400243,101.237742 L33.718323,101.122167 C36.6764028,99.9535425 38.1621,96.6588097 37.1147008,93.6841039 L37.0355643,93.4722022 L27.3258956,68.8953688 C26.0971165,65.8706817 22.7006132,64.3783265 19.657661,65.4828417 L19.4409426,65.5661664 L17.5590574,60.9338336 C23.1214216,58.6741231 29.4497008,61.2705179 31.8419194,66.7377393 L31.9978549,67.11239 L41.6858242,91.6350624 C43.8606499,97.1400899 41.2408976,103.354026 35.8284054,105.660386 L35.3778086,105.840823 C29.7524611,107.950328 23.4832535,105.257794 21.1164198,99.7618835 L21.0013512,99.4847611 L16.2270785,87.386 L16.171056,87.4088562 L15.6525787,86.0722709 L14.9067028,84.118934 L14.3270785,82.572 L13.6745145,80.9176694 L13.7130785,80.902 L13.5295897,80.397088 L13.1045236,79.2110233 L12.6964453,78.052137 L12.3053561,76.920371 L11.7505796,75.2734451 L11.7505796,75.2734451 L11.4019684,74.2092253 L10.9109148,72.6633462 L10.6047895,71.6663091 L10.3156607,70.6960434 L10.0435296,69.7524908 L9.91383854,69.2907138 L9.91383854,69.2907138 L9.66720631,68.3871221 L9.43757488,67.5100981 L9.22494548,66.6595838 L8.93788288,65.4333908 L8.93788288,65.4333908 L8.76776395,64.6488963 L8.61465137,63.8907079 L8.54447284,63.5214603 L8.54447284,63.5214603 L8.41687209,62.8026222 L8.35945018,62.453017 L8.35945018,62.453017 L8.25736404,61.7733981 C8.08579941,60.5513488 8,59.4607536 8,58.5 C8,30.6096201 30.6096201,8 58.5,8 Z M99.4409426,60.9338336 C102.028484,61.9850222 104.083581,63.9334189 105.280669,66.3878146 L105.425813,66.6972212 L100.867487,68.7518908 C100.218373,67.3118177 99.0523291,66.1728081 97.5590574,65.5661664 C94.5986396,64.3634967 91.2300294,65.6728171 89.8628174,68.4709062 L89.7663842,68.6782865 L89.6524051,68.9495298 L79.9644357,93.4722022 C78.7958116,96.4302819 80.1855389,99.76663 83.0539443,101.027716 L83.2613306,101.114231 L83.3778086,101.159177 C86.4771665,102.321436 89.9287925,100.856408 91.2604891,97.8555586 L91.3519716,97.638615 L100.971865,73.5888806 L105.614249,75.4458339 L95.9943551,99.4955684 C93.7630867,105.073739 87.5495198,107.892301 81.884547,105.934924 L81.6017765,105.833065 L81.4445372,105.772427 C75.9395098,103.597601 73.1938583,97.4382586 75.2094207,91.9108832 L75.3141758,91.6350624 L85.0208691,67.06634 L85.1730976,66.7036286 C87.5829641,61.2473219 93.9022835,58.6837533 99.4409426,60.9338336 Z M8.81292155,78.0511091 L16.8129215,97.5511091 L12.1870785,99.4488909 L4.18707845,79.9488909 L8.81292155,78.0511091 Z M108.171056,77.0911438 L112.828944,78.9088562 L104.828944,99.4088562 L100.171056,97.5911438 L108.171056,77.0911438 Z" id="Shape" fill="#000000" fill-rule="nonzero"></path>
    </g>
</svg>