<?xml version="1.0" encoding="UTF-8"?>
<svg  viewBox="0 0 117 116" version="1.1" xmlns="http://www.w3.org/2000/svg" xmlns:xlink="http://www.w3.org/1999/xlink">
    <title>heart</title>
    <g id="heart" stroke="none" stroke-width="1" fill="none" fill-rule="evenodd" transform="translate(0.000000, 0.000000)">
        <path d="M63.9271481,19.6643143 C74.4131722,10.343404 90.3471805,10.8116466 100.267767,20.732233 C109.181126,29.6455918 108.597882,42.6816399 100.874573,55.4097792 L100.49435,56.0264519 L100.070402,56.6879526 L99.6014241,57.3941853 L99.0873946,58.1451821 L98.5282914,58.940975 L97.9240927,59.7815959 L97.0483082,60.9722118 L96.0922632,62.2426548 L95.0559061,63.5930009 L93.9391849,65.0233259 L92.7420479,66.5337058 L91.4644433,68.1242165 L89.7542011,70.2251543 L87.918046,72.4515631 L86.3583968,74.323129 L84.7180469,76.2751671 L82.1060948,79.3542758 L79.3122747,82.6148739 L76.3364117,86.0572176 L72.6342564,90.3033331 L69.2633675,94.1403376 L66.3148173,97.4772834 L62.6090346,101.649171 C60.5887338,103.917457 57.1121489,104.118505 54.8438501,102.098217 C54.6848656,101.956615 54.5342371,101.805902 54.3927252,101.646838 L47.62268,94.0133924 L42.7567249,88.4925313 L38.8634465,84.0491941 L35.2257395,79.8716175 L32.3891215,76.5927335 L29.218437,72.9002901 L28.2179952,71.7280656 L26.3016605,69.4713224 L24.4979129,67.3313209 L22.4012889,64.8201233 L21.2274829,63.4005878 L20.1167136,62.0463163 L19.0689076,60.757208 L18.0839914,59.5331622 L17.1618918,58.374078 L16.3025353,57.2798545 L15.5058485,56.2503911 L14.771758,55.2855869 L14.1001905,54.3853411 L13.4910725,53.5495529 L13.1196519,53.0281207 L12.7759322,52.5352616 L12.4598918,52.0709459 L12.1715089,51.6351435 L11.9107618,51.2278246 L11.6776287,50.8489595 C11.6410732,50.7881847 11.6056673,50.7285943 11.5714106,50.6701876 L11.3796578,50.333947 C11.3499963,50.2802726 11.321483,50.2277807 11.2941176,50.1764706 C6.27847741,40.7721451 7.84982922,29.6146369 16.732233,20.732233 C26.5526115,10.9118546 42.2655422,10.3538279 52.7534378,19.3848585 L53.0728519,19.6643143 L65.8189312,30.9941626 C70.1534867,34.8471008 70.5439146,41.4843758 66.6909764,45.8189312 C66.5543327,45.9726555 66.4132019,46.122332 66.267767,46.267767 C61.9777477,50.5577862 55.0222523,50.5577862 50.732233,46.267767 C46.6314097,42.1669436 46.6314097,35.5181954 50.732233,31.4173721 L50.9535424,31.2024706 L51.1810688,30.9941626 L54.502888,34.7312092 C54.4223601,34.8027896 54.3439526,34.8767204 54.267767,34.952906 C52.1195651,37.1011078 52.1195651,40.5840312 54.267767,42.732233 C56.6051647,45.0696308 60.3948353,45.0696308 62.732233,42.732233 C62.8084187,42.6560474 62.8823495,42.5776399 62.9539298,42.497112 C64.917728,40.2878391 64.7771853,36.9366174 62.6766874,34.8980027 L62.497112,34.7312092 L49.7510327,23.4013609 C41.2436863,15.8392752 28.3163719,16.219162 20.267767,24.267767 C12.9528034,31.5827305 11.7184791,40.3471482 15.7058824,47.8235294 L15.7829136,47.9650364 L15.9582819,48.2704423 C15.9898763,48.32383 16.0226536,48.3784607 16.0566134,48.4343337 L16.2745577,48.7844751 L16.5208588,49.1644027 L16.7954949,49.5740867 L17.2605299,50.2443407 L17.6059087,50.7282851 L18.1769556,51.5097896 L18.5929411,52.0678076 L19.2697961,52.9602826 L20.2708588,54.2535953 L21.3844356,55.6647985 L22.2933509,56.8004229 L23.6034088,58.4173598 L24.6594851,59.70701 L26.5594576,62.0026951 L28.6339422,64.4808108 L30.4189504,66.5943397 L32.8067008,69.3996544 L34.8418812,71.7743377 L38.1025444,75.5531886 L41.0099582,78.9004746 L44.7265797,83.1544121 L46.6778794,85.3781796 L50.0675535,89.227516 L54.3616317,94.0821888 L58.128356,98.3234263 C58.1412205,98.3378864 58.1549137,98.3515874 58.1693666,98.3644601 C58.3755739,98.5481212 58.6916302,98.5298439 58.8752875,98.3236433 L61.9441215,94.8703769 L66.5940792,89.6052872 L69.8711895,85.8668956 L71.4420676,84.0654273 L74.4483606,80.5981057 L76.3521427,78.3871164 L79.0570663,75.2216597 L81.1728711,72.7223839 L83.1628423,70.3492705 L84.664151,68.5417162 L86.4273668,66.3960686 L87.74714,64.7706791 L88.9861467,63.226375 L90.144335,61.7632322 L91.2216531,60.3813266 L92.2180491,59.0807341 L92.91221,58.1586971 L93.5608012,57.2824734 L94.1638009,56.452095 L94.7211873,55.6675939 L95.0674268,55.1700964 L95.3933774,54.6930126 L95.6990328,54.2363518 L95.9843865,53.8001237 L96.3743371,53.1841135 C103.244206,42.0866324 103.806317,31.3418506 96.732233,24.267767 C88.7761408,16.3116747 76.0528488,15.8490214 67.5440618,23.1437468 L67.2489673,23.4013609 L63.9271481,19.6643143 Z" id="Path" fill="#000000" fill-rule="nonzero"></path>
    </g>
</svg>