<?xml version="1.0" encoding="UTF-8"?>
<svg  viewBox="0 0 116 116" version="1.1" xmlns="http://www.w3.org/2000/svg" xmlns:xlink="http://www.w3.org/1999/xlink">
    <title>home</title>
    <g id="home" stroke="none" stroke-width="1" fill="none" fill-rule="evenodd">
        <path d="M54.6201525,10.8224923 C56.7114782,8.7527267 60.046517,8.70372265 62.1967748,10.6691888 L62.3781245,10.8425906 L104.853553,53.3180195 C105.697467,54.1619332 106.171573,55.3065258 106.171573,56.5 C106.171573,58.9142733 104.270336,60.8844891 101.883409,60.995102 L101.671573,61 L93,61 L93,98.5 C93,104.203924 88.451858,108.845573 82.7842951,108.996226 L82.5,109 L58.5,109 L58.5,104 L82.5,104 C85.4634791,104 87.8795391,101.65622 87.9956328,98.7212071 L88,98.5 L88,56 L100.465,56 L58.8425906,14.3781245 C58.6696598,14.2051937 58.4014216,14.185334 58.2066053,14.3189826 L58.1373204,14.3762974 L16.079,56 L29,56 L29,98.5 C29,101.463479 31.34378,103.879539 34.2787929,103.995633 L34.5,104 L43.5,104 C43.7454599,104 43.9496084,103.823125 43.9919443,103.589876 L44,103.5 L44,77.5 C44,74.5365209 46.34378,72.1204609 49.2787929,72.0043672 L49.5,72 L67.5,72 C70.4634791,72 72.8795391,74.34378 72.9956328,77.2787929 L73,77.5 L73,94.5 L68,94.5 L68,77.5 C68,77.2545401 67.8231248,77.0503916 67.5898756,77.0080557 L67.5,77 L49.5,77 C49.2545401,77 49.0503916,77.1768752 49.0080557,77.4101244 L49,77.5 L49,103.5 C49,106.463479 46.65622,108.879539 43.7212071,108.995633 L43.5,109 L34.5,109 C28.7960755,109 24.1544266,104.451858 24.0037742,98.7842951 L24,98.5 L24,61 L14.8640296,61 C13.742578,61 12.6645958,60.581405 11.8386583,59.8312433 L11.6656055,59.6654511 C9.97200733,57.9542113 9.93293685,55.2268237 11.5381073,53.4686309 L11.6985789,53.3015755 L54.6201525,10.8224923 Z" id="Path-230" fill="#000000" fill-rule="nonzero"></path>
    </g>
</svg>