<?xml version="1.0" encoding="UTF-8"?>
<svg  viewBox="0 0 116 116" version="1.1" xmlns="http://www.w3.org/2000/svg" xmlns:xlink="http://www.w3.org/1999/xlink">
    <title>indent-increase</title>
    <g id="indent-increase" stroke="none" stroke-width="1" fill="none" fill-rule="evenodd">
        <path d="M98.5,16 C104.29899,16 109,20.7010101 109,26.5 C109,32.2039245 104.451858,36.8455734 98.7842951,36.9962258 L98.5,37 L50.5,37 C47.4624339,37 45,39.4624339 45,42.5 C45,45.4634791 47.34378,47.8795391 50.2787929,47.9956328 L50.5,48 L98.5,48 C104.29899,48 109,52.7010101 109,58.5 C109,64.2039245 104.451858,68.8455734 98.7842951,68.9962258 L98.5,69 L50.5,69 C47.4624339,69 45,71.4624339 45,74.5 C45,77.4634791 47.34378,79.8795391 50.2787929,79.9956328 L50.5,80 L98.5,80 C104.203924,80 108.845573,84.548142 108.996226,90.2157049 L109,90.5 L109,98.5 L104,98.5 L104,90.5 C104,87.5365209 101.65622,85.1204609 98.7212071,85.0043672 L98.5,85 L50.5,85 C44.7010101,85 40,80.2989899 40,74.5 C40,68.7960755 44.548142,64.1544266 50.2157049,64.0037742 L50.5,64 L98.5,64 C101.537566,64 104,61.5375661 104,58.5 C104,55.5365209 101.65622,53.1204609 98.7212071,53.0043672 L98.5,53 L50.5,53 C44.7010101,53 40,48.2989899 40,42.5 C40,36.7960755 44.548142,32.1544266 50.2157049,32.0037742 L50.5,32 L98.5,32 C101.537566,32 104,29.5375661 104,26.5 C104,23.5365209 101.65622,21.1204609 98.7212071,21.0043672 L98.5,21 L10.5,21 L10.5,16 L98.5,16 Z M11.7862394,44.3562677 L28.9279296,54.6412818 C29.5613029,55.0213058 30.091393,55.5513959 30.4714169,56.1847691 C31.7113361,58.2513012 31.0991135,60.9131072 29.1176851,62.2384424 L28.9279296,62.3587182 L13.3007351,71.7350349 C12.7567812,72.0614072 12.1343538,72.2338096 11.5,72.2338096 C9.6314366,72.2338096 8.10487355,70.769532 8.00517886,68.9258448 L8,68.7338096 L8,54.5 L13,54.5 L13,66.084 L25.641,58.499 L9.21376061,48.6437323 L11.7862394,44.3562677 Z" id="Shape" fill="#000000" fill-rule="nonzero"></path>
    </g>
</svg>