<?xml version="1.0" encoding="UTF-8"?>
<svg  viewBox="0 0 116 116" version="1.1" xmlns="http://www.w3.org/2000/svg" xmlns:xlink="http://www.w3.org/1999/xlink">
    <title>indent-decrease</title>
    <g id="indent-decrease" stroke="none" stroke-width="1" fill="none" fill-rule="evenodd">
        <path d="M98.5,16 C104.29899,16 109,20.7010101 109,26.5 C109,32.2039245 104.451858,36.8455734 98.7842951,36.9962258 L98.5,37 L18.5,37 C15.4624339,37 13,39.4624339 13,42.5 C13,45.4634791 15.34378,47.8795391 18.2787929,47.9956328 L18.5,48 L66.5,48 C72.2989899,48 77,52.7010101 77,58.5 C77,64.2039245 72.451858,68.8455734 66.7842951,68.9962258 L66.5,69 L18.5,69 C15.4624339,69 13,71.4624339 13,74.5 C13,77.4634791 15.34378,79.8795391 18.2787929,79.9956328 L18.5,80 L66.5,80 C72.2039245,80 76.8455734,84.548142 76.9962258,90.2157049 L77,90.5 L77,98.5 L72,98.5 L72,90.5 C72,87.5365209 69.65622,85.1204609 66.7212071,85.0043672 L66.5,85 L18.5,85 C12.7010101,85 8,80.2989899 8,74.5 C8,68.7960755 12.548142,64.1544266 18.2157049,64.0037742 L18.5,64 L66.5,64 C69.5375661,64 72,61.5375661 72,58.5 C72,55.5365209 69.65622,53.1204609 66.7212071,53.0043672 L66.5,53 L18.5,53 C12.7010101,53 8,48.2989899 8,42.5 C8,36.7960755 12.548142,32.1544266 18.2157049,32.0037742 L18.5,32 L98.5,32 C101.537566,32 104,29.5375661 104,26.5 C104,23.5365209 101.65622,21.1204609 98.7212071,21.0043672 L98.5,21 L10.5,21 L10.5,16 L98.5,16 Z M103.327139,44.3562677 L105.899618,48.6437323 L89.4723788,58.499 L102.113379,66.084 L102.113379,54.5 L107.113379,54.5 L107.113379,68.7338096 L107.1082,68.9258448 C107.008505,70.769532 105.481942,72.2338096 103.613379,72.2338096 C103.058319,72.2338096 102.512391,72.101814 102.020175,71.8501711 L101.812644,71.7350349 L86.1854492,62.3587182 L85.9956937,62.2384424 C84.0142653,60.9131072 83.4020427,58.2513012 84.6419619,56.1847691 C84.9744829,55.6305675 85.4218982,55.1554421 85.952867,54.7907338 L86.1854492,54.6412818 L103.327139,44.3562677 Z" id="Shape" fill="#000000" fill-rule="nonzero"></path>
    </g>
</svg>