<?xml version="1.0" encoding="UTF-8"?>
<svg  viewBox="0 0 116 116" version="1.1" xmlns="http://www.w3.org/2000/svg" xmlns:xlink="http://www.w3.org/1999/xlink">
    <title>info</title>
    <g id="info" stroke="none" stroke-width="1" fill="none" fill-rule="evenodd">
        <path d="M61,8 L61,29 L58.25,29 C55.3505051,29 53,31.3505051 53,34.25 C53,37.0770076 55.2344489,39.3821316 58.0335954,39.495621 L58.25,39.5 L59,39.5 C61.4142733,39.5 63.3844891,37.5987635 63.495102,35.2118357 L63.5,35 L68.5,35 C68.5,40.1562447 64.3921061,44.3530394 59.2704787,44.4962236 L59,44.5 L58.25,44.5 C52.5890813,44.5 48,39.9109187 48,34.25 C48,29.4382191 51.3156112,25.4008407 55.7868063,24.2978923 L56,24.248 L56,13.068 L55.5083625,13.0967818 C32.0211875,14.6212491 13.3916623,33.9669496 13.0060957,57.7475743 L13,58.5 C13,83.6289561 33.3710439,104 58.5,104 C83.6289561,104 104,83.6289561 104,58.5 C104,46.3634695 99.2291258,34.9900064 90.8803147,26.5348925 L90.466838,26.1214296 L93.9798267,22.5634933 C103.526397,31.9894617 109,44.8136017 109,58.5 C109,86.3903799 86.3903799,109 58.5,109 C30.6096201,109 8,86.3903799 8,58.5 C8,30.8885239 30.1596887,8.45272048 57.6648902,8.00676556 L58.5,8 L61,8 Z M61,58 L61,90.5 L56,90.5 L56,58 L61,58 Z" id="Shape" fill="#000000" fill-rule="nonzero"></path>
    </g>
</svg>