<?xml version="1.0" encoding="UTF-8"?>
<svg  viewBox="0 0 116 116" version="1.1" xmlns="http://www.w3.org/2000/svg" xmlns:xlink="http://www.w3.org/1999/xlink">
    <title>keyboard</title>
    <g id="keyboard" stroke="none" stroke-width="1" fill="none" fill-rule="evenodd">
        <path d="M98.5,24 C104.203924,24 108.845573,28.548142 108.996226,34.2157049 L109,34.5 L109,82.5 C109,88.2039245 104.451858,92.8455734 98.7842951,92.9962258 L98.5,93 L45,93 C41.4881894,93 38.6268494,90.2150038 38.504103,86.7331341 L38.5,86.5 L38.5,78.5 C38.5,74.9881894 41.2849962,72.1268494 44.7668659,72.004103 L45,72 L76.5,72 C78.7722573,72 80.6511625,73.6841403 80.9565664,75.8722716 L80.971,76 L84.028,76 L84.0434336,75.8722716 C84.3392937,73.7525194 86.1118478,72.1057509 88.2881643,72.004898 L88.5,72 L92.5,72 C94.9142733,72 96.8844891,73.9012365 96.995102,76.2881643 L97,76.5 L97,78.5 L92,78.5 L92,77 L88.971,77 L88.9565664,77.1277284 C88.6607063,79.2474806 86.8881522,80.8942491 84.7118357,80.995102 L84.5,81 L80.5,81 C78.2277427,81 76.3488375,79.3158597 76.0434336,77.1277284 L76.028,77 L45,77 C44.2203039,77 43.5795513,77.5948881 43.5068666,78.35554 L43.5,78.5 L43.5,86.5 C43.5,87.2796961 44.0948881,87.9204487 44.85554,87.9931334 L45,88 L98.5,88 C101.463479,88 103.879539,85.65622 103.995633,82.7212071 L104,82.5 L104,34.5 C104,31.5365209 101.65622,29.1204609 98.7212071,29.0043672 L98.5,29 L18.5,29 C15.5365209,29 13.1204609,31.34378 13.0043672,34.2787929 L13,34.5 L13,82.5 C13,85.4634791 15.34378,87.8795391 18.2787929,87.9956328 L18.5,88 L26.5,88 L26.5,93 L18.5,93 C12.7960755,93 8.15442656,88.451858 8.00377424,82.7842951 L8,82.5 L8,34.5 C8,28.7960755 12.548142,24.1544266 18.2157049,24.0037742 L18.5,24 L98.5,24 Z M28.5,72 C30.9142733,72 32.8844891,73.9012365 32.995102,76.2881643 L33,76.5 L33,78.5 L28,78.5 L28,77 L25,77 L25,78.5 L20,78.5 L20,76.5 C20,74.0857267 21.9012365,72.1155109 24.2881643,72.004898 L24.5,72 L28.5,72 Z M28.5,54 C30.7722573,54 32.6511625,55.6841403 32.9565664,57.8722716 L32.971,58 L36.028,58 L36.0434336,57.8722716 C36.3392937,55.7525194 38.1118478,54.1057509 40.2881643,54.004898 L40.5,54 L44.5,54 C46.7722573,54 48.6511625,55.6841403 48.9565664,57.8722716 L48.971,58 L52.028,58 L52.0434336,57.8722716 C52.3392937,55.7525194 54.1118478,54.1057509 56.2881643,54.004898 L56.5,54 L60.5,54 C62.7722573,54 64.6511625,55.6841403 64.9565664,57.8722716 L64.971,58 L68.028,58 L68.0434336,57.8722716 C68.3392937,55.7525194 70.1118478,54.1057509 72.2881643,54.004898 L72.5,54 L76.5,54 C78.7722573,54 80.6511625,55.6841403 80.9565664,57.8722716 L80.971,58 L84.028,58 L84.0434336,57.8722716 C84.3392937,55.7525194 86.1118478,54.1057509 88.2881643,54.004898 L88.5,54 L92.5,54 C94.9142733,54 96.8844891,55.9012365 96.995102,58.2881643 L97,58.5 L97,60.5 L92,60.5 L92,59 L88.971,59 L88.9565664,59.1277284 C88.6607063,61.2474806 86.8881522,62.8942491 84.7118357,62.995102 L84.5,63 L80.5,63 C78.2277427,63 76.3488375,61.3158597 76.0434336,59.1277284 L76.028,59 L72.971,59 L72.9565664,59.1277284 C72.6607063,61.2474806 70.8881522,62.8942491 68.7118357,62.995102 L68.5,63 L64.5,63 C62.2277427,63 60.3488375,61.3158597 60.0434336,59.1277284 L60.028,59 L56.971,59 L56.9565664,59.1277284 C56.6607063,61.2474806 54.8881522,62.8942491 52.7118357,62.995102 L52.5,63 L48.5,63 C46.2277427,63 44.3488375,61.3158597 44.0434336,59.1277284 L44.028,59 L40.971,59 L40.9565664,59.1277284 C40.6607063,61.2474806 38.8881522,62.8942491 36.7118357,62.995102 L36.5,63 L32.5,63 C30.2277427,63 28.3488375,61.3158597 28.0434336,59.1277284 L28.028,59 L25,59 L25,60.5 L20,60.5 L20,58.5 C20,56.0857267 21.9012365,54.1155109 24.2881643,54.004898 L24.5,54 L28.5,54 Z M28.5,36 C30.7722573,36 32.6511625,37.6841403 32.9565664,39.8722716 L32.971,40 L36.028,40 L36.0434336,39.8722716 C36.3392937,37.7525194 38.1118478,36.1057509 40.2881643,36.004898 L40.5,36 L44.5,36 C46.7722573,36 48.6511625,37.6841403 48.9565664,39.8722716 L48.971,40 L52.028,40 L52.0434336,39.8722716 C52.3392937,37.7525194 54.1118478,36.1057509 56.2881643,36.004898 L56.5,36 L60.5,36 C62.7722573,36 64.6511625,37.6841403 64.9565664,39.8722716 L64.971,40 L68.028,40 L68.0434336,39.8722716 C68.3392937,37.7525194 70.1118478,36.1057509 72.2881643,36.004898 L72.5,36 L76.5,36 C78.7722573,36 80.6511625,37.6841403 80.9565664,39.8722716 L80.971,40 L84.028,40 L84.0434336,39.8722716 C84.3392937,37.7525194 86.1118478,36.1057509 88.2881643,36.004898 L88.5,36 L92.5,36 C94.9142733,36 96.8844891,37.9012365 96.995102,40.2881643 L97,40.5 L97,42.5 L92,42.5 L92,41 L88.971,41 L88.9565664,41.1277284 C88.6607063,43.2474806 86.8881522,44.8942491 84.7118357,44.995102 L84.5,45 L80.5,45 C78.2277427,45 76.3488375,43.3158597 76.0434336,41.1277284 L76.028,41 L72.971,41 L72.9565664,41.1277284 C72.6607063,43.2474806 70.8881522,44.8942491 68.7118357,44.995102 L68.5,45 L64.5,45 C62.2277427,45 60.3488375,43.3158597 60.0434336,41.1277284 L60.028,41 L56.971,41 L56.9565664,41.1277284 C56.6607063,43.2474806 54.8881522,44.8942491 52.7118357,44.995102 L52.5,45 L48.5,45 C46.2277427,45 44.3488375,43.3158597 44.0434336,41.1277284 L44.028,41 L40.971,41 L40.9565664,41.1277284 C40.6607063,43.2474806 38.8881522,44.8942491 36.7118357,44.995102 L36.5,45 L32.5,45 C30.2277427,45 28.3488375,43.3158597 28.0434336,41.1277284 L28.028,41 L25,41 L25,42.5 L20,42.5 L20,40.5 C20,38.0857267 21.9012365,36.1155109 24.2881643,36.004898 L24.5,36 L28.5,36 Z" id="Shape" fill="#000000" fill-rule="nonzero"></path>
    </g>
</svg>