<?xml version="1.0" encoding="UTF-8"?>
<svg  viewBox="0 0 116 116" version="1.1" xmlns="http://www.w3.org/2000/svg" xmlns:xlink="http://www.w3.org/1999/xlink">
    <title>keyboard-chevron-down</title>
    <g id="keyboard-chevron-down" stroke="none" stroke-width="1" fill="none" fill-rule="evenodd">
        <path d="M72.732233,88.732233 L76.267767,92.267767 L58.5,110.035534 L40.732233,92.267767 L44.267767,88.732233 L58.5,102.965 L72.732233,88.732233 Z M98.5,8 C104.203924,8 108.845573,12.548142 108.996226,18.2157049 L109,18.5 L109,66.5 C109,72.2039245 104.451858,76.8455734 98.7842951,76.9962258 L98.5,77 L45,77 C41.4881894,77 38.6268494,74.2150038 38.504103,70.7331341 L38.5,70.5 L38.5,62.5 C38.5,58.9881894 41.2849962,56.1268494 44.7668659,56.004103 L45,56 L76.5,56 C78.9142733,56 80.8844891,57.9012365 80.995102,60.2881643 L81,60.5 L81,62.5 L76,62.5 L76,61 L45,61 C44.2203039,61 43.5795513,61.5948881 43.5068666,62.35554 L43.5,62.5 L43.5,70.5 C43.5,71.2796961 44.0948881,71.9204487 44.85554,71.9931334 L45,72 L98.5,72 C101.463479,72 103.879539,69.65622 103.995633,66.7212071 L104,66.5 L104,18.5 C104,15.5365209 101.65622,13.1204609 98.7212071,13.0043672 L98.5,13 L18.5,13 C15.5365209,13 13.1204609,15.34378 13.0043672,18.2787929 L13,18.5 L13,66.5 C13,69.4634791 15.34378,71.8795391 18.2787929,71.9956328 L18.5,72 L26.5,72 L26.5,77 L18.5,77 C12.7960755,77 8.15442656,72.451858 8.00377424,66.7842951 L8,66.5 L8,18.5 C8,12.7960755 12.548142,8.15442656 18.2157049,8.00377424 L18.5,8 L98.5,8 Z M92.5,56 C94.9142733,56 96.8844891,57.9012365 96.995102,60.2881643 L97,60.5 L97,62.5 L92,62.5 L92,61 L89,61 L89,62.5 L84,62.5 L84,60.5 C84,58.0857267 85.9012365,56.1155109 88.2881643,56.004898 L88.5,56 L92.5,56 Z M28.5,56 C30.9142733,56 32.8844891,57.9012365 32.995102,60.2881643 L33,60.5 L33,62.5 L28,62.5 L28,61 L25,61 L25,62.5 L20,62.5 L20,60.5 C20,58.0857267 21.9012365,56.1155109 24.2881643,56.004898 L24.5,56 L28.5,56 Z M60.5,38 C62.9142733,38 64.8844891,39.9012365 64.995102,42.2881643 L65,42.5 L65,44.5 L60,44.5 L60,43 L57,43 L57,44.5 L52,44.5 L52,42.5 C52,40.0857267 53.9012365,38.1155109 56.2881643,38.004898 L56.5,38 L60.5,38 Z M44.5,38 C46.9142733,38 48.8844891,39.9012365 48.995102,42.2881643 L49,42.5 L49,44.5 L44,44.5 L44,43 L41,43 L41,44.5 L36,44.5 L36,42.5 C36,40.0857267 37.9012365,38.1155109 40.2881643,38.004898 L40.5,38 L44.5,38 Z M28.5,38 C30.9142733,38 32.8844891,39.9012365 32.995102,42.2881643 L33,42.5 L33,44.5 L28,44.5 L28,43 L25,43 L25,44.5 L20,44.5 L20,42.5 C20,40.0857267 21.9012365,38.1155109 24.2881643,38.004898 L24.5,38 L28.5,38 Z M76.5,38 C78.9142733,38 80.8844891,39.9012365 80.995102,42.2881643 L81,42.5 L81,44.5 L76,44.5 L76,43 L73,43 L73,44.5 L68,44.5 L68,42.5 C68,40.0857267 69.9012365,38.1155109 72.2881643,38.004898 L72.5,38 L76.5,38 Z M92.5,38 C94.9142733,38 96.8844891,39.9012365 96.995102,42.2881643 L97,42.5 L97,44.5 L92,44.5 L92,43 L89,43 L89,44.5 L84,44.5 L84,42.5 C84,40.0857267 85.9012365,38.1155109 88.2881643,38.004898 L88.5,38 L92.5,38 Z M60.5,20 C62.9142733,20 64.8844891,21.9012365 64.995102,24.2881643 L65,24.5 L65,26.5 L60,26.5 L60,25 L57,25 L57,26.5 L52,26.5 L52,24.5 C52,22.0857267 53.9012365,20.1155109 56.2881643,20.004898 L56.5,20 L60.5,20 Z M44.5,20 C46.9142733,20 48.8844891,21.9012365 48.995102,24.2881643 L49,24.5 L49,26.5 L44,26.5 L44,25 L41,25 L41,26.5 L36,26.5 L36,24.5 C36,22.0857267 37.9012365,20.1155109 40.2881643,20.004898 L40.5,20 L44.5,20 Z M28.5,20 C30.9142733,20 32.8844891,21.9012365 32.995102,24.2881643 L33,24.5 L33,26.5 L28,26.5 L28,25 L25,25 L25,26.5 L20,26.5 L20,24.5 C20,22.0857267 21.9012365,20.1155109 24.2881643,20.004898 L24.5,20 L28.5,20 Z M76.5,20 C78.9142733,20 80.8844891,21.9012365 80.995102,24.2881643 L81,24.5 L81,26.5 L76,26.5 L76,25 L73,25 L73,26.5 L68,26.5 L68,24.5 C68,22.0857267 69.9012365,20.1155109 72.2881643,20.004898 L72.5,20 L76.5,20 Z M92.5,20 C94.9142733,20 96.8844891,21.9012365 96.995102,24.2881643 L97,24.5 L97,26.5 L92,26.5 L92,25 L89,25 L89,26.5 L84,26.5 L84,24.5 C84,22.0857267 85.9012365,20.1155109 88.2881643,20.004898 L88.5,20 L92.5,20 Z" id="Shape" fill="#000000" fill-rule="nonzero"></path>
    </g>
</svg>