<?xml version="1.0" encoding="UTF-8"?>
<svg  viewBox="0 0 117 116" version="1.1" xmlns="http://www.w3.org/2000/svg" xmlns:xlink="http://www.w3.org/1999/xlink">
    <title>knob</title>
    <g id="knob" stroke="none" stroke-width="1" fill="none" fill-rule="evenodd" transform="translate(0.000000, 0.000000)">
        <path d="M58.5,16 C81.9721019,16 101,35.0278981 101,58.5 C101,81.7373808 82.350757,100.618998 59.2028152,100.994306 L58.5,101 L58.5,96 C79.2106781,96 96,79.2106781 96,58.5 C96,37.7893219 79.2106781,21 58.5,21 C37.7893219,21 21,37.7893219 21,58.5 C21,67.5564902 24.2183223,76.1091617 29.9815273,82.8516608 C30.152918,83.0521745 30.4544061,83.0757834 30.6549199,82.9043927 L30.6829465,82.8784332 L56.7289536,56.7355186 L60.2710464,60.2644814 L34.2249314,86.4075044 C34.1218439,86.5109627 34.0146649,86.6102586 33.9036483,86.7051509 C31.6040338,88.6707648 28.1463829,88.4000038 26.180769,86.1003893 C19.6507036,78.4607234 16,68.7590014 16,58.5 C16,35.0278981 35.0278981,16 58.5,16 Z M22.732233,90.732233 L26.267767,94.267767 L20.767767,99.767767 L17.232233,96.232233 L22.732233,90.732233 Z M94.267767,90.732233 L99.767767,96.232233 L96.232233,99.767767 L90.732233,94.267767 L94.267767,90.732233 Z M10.5,56 L10.5,61 L2.5,61 L2.5,56 L10.5,56 Z M114.5,56 L114.5,61 L106.5,61 L106.5,56 L114.5,56 Z M20.767767,17.232233 L26.267767,22.732233 L22.732233,26.267767 L17.232233,20.767767 L20.767767,17.232233 Z M96.232233,17.232233 L99.767767,20.767767 L94.267767,26.267767 L90.732233,22.732233 L96.232233,17.232233 Z M61,2.5 L61,10.5 L56,10.5 L56,2.5 L61,2.5 Z" id="Shape" fill="#000000" fill-rule="nonzero"></path>
    </g>
</svg>