<?xml version="1.0" encoding="UTF-8"?>
<svg  viewBox="0 0 116 116" version="1.1" xmlns="http://www.w3.org/2000/svg" xmlns:xlink="http://www.w3.org/1999/xlink">
    <title>light-bulb</title>
    <g id="light-bulb" stroke="none" stroke-width="1" fill="none" fill-rule="evenodd">
        <path d="M62.5,100 L62.5,105 L54.5,105 L54.5,100 L62.5,100 Z M74.5,92 L74.5,97 L42.5,97 L42.5,92 L74.5,92 Z M58.5,12 C77.5538239,12 93,27.4461761 93,46.5 C93,58.709405 86.6027603,69.8102091 76.3718766,76.0156312 L75.9606027,76.2612283 L73.4266889,71.9508593 C82.3844933,66.6848821 88,57.0815983 88,46.5 C88,30.2075999 74.7924001,17 58.5,17 C42.2075999,17 29,30.2075999 29,46.5 C29,59.0941814 36.8921196,69.8450594 48.0005657,74.0768413 L48,55.4442719 C48,53.6975812 48.9868626,52.100804 50.5491503,51.3196601 C52.7601116,50.2141794 55.4345737,51.0514765 56.6313911,53.184503 L56.736068,53.381966 L57.1583592,54.2265485 C57.3035048,54.5168396 57.5388885,54.7522233 57.8291796,54.8973689 C58.526561,55.2460596 59.3657096,55.0005288 59.7708947,54.3526866 L59.8416408,54.2265485 L60.263932,53.381966 C61.0450759,51.8196783 62.6418531,50.8328157 64.3885438,50.8328157 C66.8646353,50.8328157 68.8849268,52.784327 68.9952547,55.2331857 L69,55.4442719 L69,83.5 C69,86.4634791 66.65622,88.8795391 63.7212071,88.9956328 L63.5,89 L42.5,89 L42.5,84 L63.5,84 C63.7454599,84 63.9496084,83.8231248 63.9919443,83.5898756 L64,83.5 L64,57.018 L63.9629248,57.0790343 C62.233038,59.7684885 58.7603507,60.8177009 55.8081636,59.472238 L55.5931116,59.3695048 C54.5867691,58.8663336 53.7327031,58.1129018 53.1093007,57.1875967 L53,57.017 L53.0000964,75.4882191 C54.6275229,75.7950997 56.3021587,75.9683227 58.0121636,75.9960478 L58.5,76 L58.5,81 C39.4461761,81 24,65.5538239 24,46.5 C24,27.4461761 39.4461761,12 58.5,12 Z" id="Shape" fill="#000000" fill-rule="nonzero"></path>
    </g>
</svg>