<?xml version="1.0" encoding="UTF-8"?>
<svg  viewBox="0 0 116 116" version="1.1" xmlns="http://www.w3.org/2000/svg" xmlns:xlink="http://www.w3.org/1999/xlink">
    <title>light-bulb</title>
    <g id="light-bulb" stroke="none" stroke-width="1" fill="none" fill-rule="evenodd">
        <path d="M66.5,100 L66.5,105 L50.5,105 L50.5,100 L66.5,100 Z M74.5,92 L74.5,97 L42.5,97 L42.5,92 L74.5,92 Z M58.5,12 C77.5538239,12 93,27.4461761 93,46.5 C93,58.709405 86.6027603,69.8102091 76.3718766,76.0156312 L75.9606027,76.2612283 L72.2202752,78.4600349 L72.0587031,52.0889329 C72.0562853,51.6942992 71.8984449,51.3165162 71.6193914,51.0374628 C71.0702167,50.488288 70.2011543,50.4539646 69.6119935,50.9344925 L69.4980711,51.0374628 L65.9246212,54.6109127 C61.8973394,58.6381945 55.4125083,58.7101102 51.2974569,54.8266599 L51.0753788,54.6109127 L47.5606602,51.0961941 C47.2793556,50.8148895 46.8978247,50.6568542 46.5,50.6568542 C45.7203039,50.6568542 45.0795513,51.2517423 45.0068666,52.0123942 L45,52.1568542 L45,58.5 L40,58.5 L40,52.1568542 C40,48.5670034 42.9101491,45.6568542 46.5,45.6568542 C48.1225009,45.6568542 49.6824574,46.2634763 50.8766444,47.3511206 L51.0961941,47.5606602 L54.6109127,51.0753788 C56.6991329,53.163599 60.0487663,53.2216051 62.207065,51.2493971 L62.3890873,51.0753788 L65.9625372,47.5019289 C68.5009451,44.963521 72.6165175,44.963521 75.1549254,47.5019289 C76.2930255,48.640029 76.9658467,50.1571049 77.0497992,51.7573506 L77.0586093,52.0582991 L77.164,69.348 L77.2067221,69.314265 C83.8176174,63.8932406 87.8565718,55.7924247 87.9962547,46.9731379 L88,46.5 C88,30.2075999 74.7924001,17 58.5,17 C42.2075999,17 29,30.2075999 29,46.5 C29,56.9791362 34.5076826,66.4967042 43.3076237,71.7928368 L43.7098807,72.0306514 L44.949194,72.7502785 L44.988935,83.5018481 C44.9898399,83.746665 45.1665786,83.9498534 45.3992796,83.9919839 L45.4889316,84 L71.5,84 C71.7454599,84 71.9496084,83.8231248 71.9919443,83.5898756 L72,83.5 L72,82.5 L77,82.5 L77,83.5 C77,86.4634791 74.65622,88.8795391 71.7212071,88.9956328 L71.5,89 L45.4889316,89 C42.533195,89 40.1204647,86.6679965 39.99413,83.7409468 L39.9889692,83.5203295 L39.959,75.599 L39.5855911,75.3578181 C30.0993215,69.1338002 24.16418,58.5858099 24.0033535,46.9840094 L24,46.5 C24,27.4461761 39.4461761,12 58.5,12 Z" id="Shape" fill="#000000" fill-rule="nonzero"></path>
    </g>
</svg>