<?xml version="1.0" encoding="UTF-8"?>
<svg   viewBox="0 0 116 116" version="1.1" xmlns="http://www.w3.org/2000/svg" xmlns:xlink="http://www.w3.org/1999/xlink">
    <title>line-chart</title>
    <g id="line-chart" stroke="none" stroke-width="1" fill="none" fill-rule="evenodd">
        <path d="M13,95 L13,103.5 C13,103.74546 13.1768752,103.949608 13.4101244,103.991944 L13.5,104 L107,104 L107,109 L13.5,109 C10.5365209,109 8.12046086,106.65622 8.0043672,103.721207 L8,103.5 L8,95 L13,95 Z M13,10.5 L13,83.2573593 C13,83.5335017 13.2238576,83.7573593 13.5,83.7573593 C13.6060866,83.7573593 13.7086972,83.7236451 13.7935072,83.6621501 L13.8535534,83.6109127 L31.0753788,66.3890873 C35.1026606,62.3618055 41.5874917,62.2898898 45.7025431,66.1733401 L45.9246212,66.3890873 L54.6109127,75.0753788 C56.6991329,77.163599 60.0487663,77.2216051 62.207065,75.2493971 L62.3890873,75.0753788 L83.068,54.396 L78.5671879,49.5395772 C78.1358678,49.0741974 77.8391734,48.5003186 77.7088421,47.8793282 C77.3250364,46.0506067 78.444534,44.2558285 80.2284323,43.7795634 L80.4153091,43.7350506 L95.0104989,40.6718627 C95.6200632,40.5439294 96.2495482,40.5439294 96.8591125,40.6718627 C99.2219082,41.1677581 100.759598,43.4331413 100.377574,45.7918946 L100.338856,46.0002195 L96.9397256,62.1960751 L92.0463366,61.1690676 L95.288,45.722 L84.035,48.084 L89.3335904,53.8006041 L88.537,54.537 L89.267767,55.267767 L65.9246212,78.6109127 C61.8973394,82.6381945 55.4125083,82.7101102 51.2974569,78.8266599 L51.0753788,78.6109127 L42.3890873,69.9246212 C40.3008671,67.836401 36.9512337,67.7783949 34.792935,69.7506029 L34.6109127,69.9246212 L17.3890873,87.1464466 C16.3576372,88.1778967 14.9586907,88.7573593 13.5,88.7573593 C10.5365209,88.7573593 8.12046086,86.4135793 8.0043672,83.4785665 L8,83.2573593 L8,10.5 L13,10.5 Z" id="Shape" fill="#000000" fill-rule="nonzero"></path>
    </g>
</svg>