<?xml version="1.0" encoding="UTF-8"?>
<svg   viewBox="0 0 128 128" version="1.1" xmlns="http://www.w3.org/2000/svg" xmlns:xlink="http://www.w3.org/1999/xlink">
    <title>link-off</title>
    <g id="link-off" stroke="none" stroke-width="1" fill="none" fill-rule="evenodd">
        <path d="M17.767767,14.232233 L113.767767,110.232233 L110.232233,113.767767 L14.232233,17.767767 L17.767767,14.232233 Z M40,45.5 L40,50.5 L24,50.5 C21.0365209,50.5 18.6204609,52.84378 18.5043672,55.7787929 L18.5,56 L18.5,72 C18.5,74.9634791 20.84378,77.3795391 23.7787929,77.4956328 L24,77.5 L48,77.5 C50.9634791,77.5 53.3795391,75.15622 53.4956328,72.2212071 L53.5,72 L58.5,72 C58.5,77.7039245 53.951858,82.3455734 48.2842951,82.4962258 L48,82.5 L24,82.5 C18.2960755,82.5 13.6544266,77.951858 13.5037742,72.2842951 L13.5,72 L13.5,56 C13.5,50.2960755 18.048142,45.6544266 23.7157049,45.5037742 L24,45.5 L40,45.5 Z M104,45.5 L104.284295,45.5037742 C109.857399,45.6519157 114.348084,50.1426014 114.496226,55.7157049 L114.5,56 L114.5,72 L114.496226,72.2842951 C114.348084,77.8573986 109.857399,82.3480843 104.284295,82.4962258 L104,82.5 L88,82.5 L88,77.5 L104,77.5 L104.221207,77.4956328 C107.080963,77.3825159 109.379417,75.0858675 109.495407,72.2268507 L109.5,72 L109.5,56 L109.495633,55.7787929 C109.382516,52.9190368 107.085868,50.6205826 104.226851,50.5045933 L104,50.5 L80,50.5 L79.7787929,50.5043672 C76.9190368,50.6174841 74.6205826,52.9141325 74.5045933,55.7731493 L74.5,56 L69.5,56 L69.5037742,55.7157049 C69.6519157,50.1426014 74.1426014,45.6519157 79.7157049,45.5037742 L80,45.5 L104,45.5 Z M56,61.5 L56,66.5 L44,66.5 L44,61.5 L56,61.5 Z M84,61.5 L84,66.5 L71.5,66.5 L71.5,61.5 L84,61.5 Z" id="Shape" fill="#000000" fill-rule="nonzero"></path>
    </g>
</svg>