<?xml version="1.0" encoding="UTF-8"?>
<svg  viewBox="0 0 116 116" version="1.1" xmlns="http://www.w3.org/2000/svg" xmlns:xlink="http://www.w3.org/1999/xlink">
    <title>link-off</title>
    <g id="link-off" stroke="none" stroke-width="1" fill="none" fill-rule="evenodd">
        <path d="M11.767767,8.23 L107.767767,104.23 L104.232233,107.765534 L8.23223305,11.7655339 L11.767767,8.23 Z M34,39.497767 L34,44.497767 L18,44.497767 C15.0365209,44.497767 12.6204609,46.841547 12.5043672,49.7765598 L12.5,49.997767 L12.5,65.997767 C12.5,68.9612461 14.84378,71.3773061 17.7787929,71.4933997 L18,71.497767 L42,71.497767 C44.9634791,71.497767 47.3795391,69.1539869 47.4956328,66.2189741 L47.5,65.997767 L52.5,65.997767 C52.5,71.7016914 47.951858,76.3433404 42.2842951,76.4939927 L42,76.497767 L18,76.497767 C12.2960755,76.497767 7.65442656,71.9496249 7.50377424,66.2820621 L7.5,65.997767 L7.5,49.997767 C7.5,44.2938425 12.048142,39.6521935 17.7157049,39.5015412 L18,39.497767 L34,39.497767 Z M98,39.497767 L98.2842951,39.5015412 C103.857399,39.6496826 108.348084,44.1403684 108.496226,49.7134718 L108.5,49.997767 L108.5,65.997767 L108.496226,66.2820621 C108.348084,71.8551656 103.857399,76.3458513 98.2842951,76.4939927 L98,76.497767 L82,76.497767 L82,71.497767 L98,71.497767 L98.2212071,71.4933997 C101.080963,71.3802829 103.379417,69.0836345 103.495407,66.2246176 L103.5,65.997767 L103.5,49.997767 L103.495633,49.7765598 C103.382516,46.9168037 101.085868,44.6183495 98.2268507,44.5023602 L98,44.497767 L74,44.497767 L73.7787929,44.5021342 C70.9190368,44.6152511 68.6205826,46.9118994 68.5045933,49.7709163 L68.5,49.997767 L63.5,49.997767 L63.5037742,49.7134718 C63.6519157,44.1403684 68.1426014,39.6496826 73.7157049,39.5015412 L74,39.497767 L98,39.497767 Z M50,55.497767 L50,60.497767 L38,60.497767 L38,55.497767 L50,55.497767 Z M78,55.497767 L78,60.497767 L65.5,60.497767 L65.5,55.497767 L78,55.497767 Z" id="Shape" fill="#000000" fill-rule="nonzero"></path>
    </g>
</svg>