<?xml version="1.0" encoding="UTF-8"?>
<svg  viewBox="0 0 116 116" version="1.1" xmlns="http://www.w3.org/2000/svg" xmlns:xlink="http://www.w3.org/1999/xlink">
    <title>link</title>
    <g id="link" stroke="none" stroke-width="1" fill="none" fill-rule="evenodd">
        <path d="M42,39.5 C47.7039245,39.5 52.3455734,44.048142 52.4962258,49.7157049 L52.5,50 L47.5,50 C47.5,47.0365209 45.15622,44.6204609 42.2212071,44.5043672 L42,44.5 L18,44.5 C15.0365209,44.5 12.6204609,46.84378 12.5043672,49.7787929 L12.5,50 L12.5,66 C12.5,68.9634791 14.84378,71.3795391 17.7787929,71.4956328 L18,71.5 L42,71.5 C44.9634791,71.5 47.3795391,69.15622 47.4956328,66.2212071 L47.5,66 L52.5,66 C52.5,71.7039245 47.951858,76.3455734 42.2842951,76.4962258 L42,76.5 L18,76.5 C12.2960755,76.5 7.65442656,71.951858 7.50377424,66.2842951 L7.5,66 L7.5,50 C7.5,44.2960755 12.048142,39.6544266 17.7157049,39.5037742 L18,39.5 L42,39.5 Z M98,39.5 L98.2842951,39.5037742 C103.857399,39.6519157 108.348084,44.1426014 108.496226,49.7157049 L108.5,50 L108.5,66 L108.496226,66.2842951 C108.348084,71.8573986 103.857399,76.3480843 98.2842951,76.4962258 L98,76.5 L74,76.5 L73.7157049,76.4962258 C68.1426014,76.3480843 63.6519157,71.8573986 63.5037742,66.2842951 L63.5,66 L68.5,66 L68.5043672,66.2212071 C68.6174841,69.0809632 70.9141325,71.3794174 73.7731493,71.4954067 L74,71.5 L98,71.5 L98.2212071,71.4956328 C101.080963,71.3825159 103.379417,69.0858675 103.495407,66.2268507 L103.5,66 L103.5,50 L103.495633,49.7787929 C103.382516,46.9190368 101.085868,44.6205826 98.2268507,44.5045933 L98,44.5 L74,44.5 L73.7787929,44.5043672 C70.9190368,44.6174841 68.6205826,46.9141325 68.5045933,49.7731493 L68.5,50 L63.5,50 L63.5037742,49.7157049 C63.6519157,44.1426014 68.1426014,39.6519157 73.7157049,39.5037742 L74,39.5 L98,39.5 Z M78,55.5 L78,60.5 L38,60.5 L38,55.5 L78,55.5 Z" id="Shape" fill="#000000" fill-rule="nonzero"></path>
    </g>
</svg>