<?xml version="1.0" encoding="UTF-8"?>
<svg   viewBox="0 0 128 128" version="1.1" xmlns="http://www.w3.org/2000/svg" xmlns:xlink="http://www.w3.org/1999/xlink">
    <title>list</title>
    <g id="list" stroke="none" stroke-width="1" fill="none" fill-rule="evenodd">
        <path d="M29,80.5 C32.5118106,80.5 35.3731506,83.2849962 35.495897,86.7668659 L35.5,87 L30.5,87 C30.5,86.1715729 29.8284271,85.5 29,85.5 C28.1715729,85.5 27.5,86.1715729 27.5,87 C27.5,87.7796961 28.0948881,88.4204487 28.85554,88.4931334 L29,88.5 L29,93.5 C25.4101491,93.5 22.5,90.5898509 22.5,87 C22.5,83.4101491 25.4101491,80.5 29,80.5 Z M104,85.5 L104,90.5 L40,90.5 L40,85.5 L104,85.5 Z M28,57.5 C31.5118106,57.5 34.3731506,60.2849962 34.495897,63.7668659 L34.5,64 L29.5,64 C29.5,63.1715729 28.8284271,62.5 28,62.5 C27.1715729,62.5 26.5,63.1715729 26.5,64 C26.5,64.7796961 27.0948881,65.4204487 27.85554,65.4931334 L28,65.5 L28,70.5 C24.4101491,70.5 21.5,67.5898509 21.5,64 C21.5,60.4101491 24.4101491,57.5 28,57.5 Z M104,61.5 L104,66.5 L40,66.5 L40,61.5 L104,61.5 Z M28,33.5 C31.5118106,33.5 34.3731506,36.2849962 34.495897,39.7668659 L34.5,40 L29.5,40 C29.5,39.1715729 28.8284271,38.5 28,38.5 C27.1715729,38.5 26.5,39.1715729 26.5,40 C26.5,40.7796961 27.0948881,41.4204487 27.85554,41.4931334 L28,41.5 L28,46.5 C24.4101491,46.5 21.5,43.5898509 21.5,40 C21.5,36.4101491 24.4101491,33.5 28,33.5 Z M104,37.5 L104,42.5 L40,42.5 L40,37.5 L104,37.5 Z" id="Shape" fill="#000000" fill-rule="nonzero"></path>
    </g>
</svg>