<?xml version="1.0" encoding="UTF-8"?>
<svg   viewBox="0 0 116 116" version="1.1" xmlns="http://www.w3.org/2000/svg" xmlns:xlink="http://www.w3.org/1999/xlink">
    <title>list</title>
    <g id="list" stroke="none" stroke-width="1" fill="none" fill-rule="evenodd">
        <path d="M15,75.5 C18.5118106,75.5 21.3731506,78.2849962 21.495897,81.7668659 L21.5,82 L16.5,82 C16.5,81.1715729 15.8284271,80.5 15,80.5 C14.1715729,80.5 13.5,81.1715729 13.5,82 C13.5,82.7796961 14.0948881,83.4204487 14.85554,83.4931334 L15,83.5 L15,88.5 C11.4101491,88.5 8.5,85.5898509 8.5,82 C8.5,78.4101491 11.4101491,75.5 15,75.5 Z M107,79.5 L107,84.5 L26.5,84.5 L26.5,79.5 L107,79.5 Z M15,51.5 C18.5118106,51.5 21.3731506,54.2849962 21.495897,57.7668659 L21.5,58 L16.5,58 C16.5,57.1715729 15.8284271,56.5 15,56.5 C14.1715729,56.5 13.5,57.1715729 13.5,58 C13.5,58.7796961 14.0948881,59.4204487 14.85554,59.4931334 L15,59.5 L15,64.5 C11.4101491,64.5 8.5,61.5898509 8.5,58 C8.5,54.4101491 11.4101491,51.5 15,51.5 Z M107,55.5 L107,60.5 L26.5,60.5 L26.5,55.5 L107,55.5 Z M15,27.5 C18.5118106,27.5 21.3731506,30.2849962 21.495897,33.7668659 L21.5,34 L16.5,34 C16.5,33.1715729 15.8284271,32.5 15,32.5 C14.1715729,32.5 13.5,33.1715729 13.5,34 C13.5,34.7796961 14.0948881,35.4204487 14.85554,35.4931334 L15,35.5 L15,40.5 C11.4101491,40.5 8.5,37.5898509 8.5,34 C8.5,30.4101491 11.4101491,27.5 15,27.5 Z M107,31.5 L107,36.5 L26.5,36.5 L26.5,31.5 L107,31.5 Z" id="Shape" fill="#000000" fill-rule="nonzero"></path>
    </g>
</svg>