<?xml version="1.0" encoding="UTF-8"?>
<svg  viewBox="0 0 116 116" version="1.1" xmlns="http://www.w3.org/2000/svg" xmlns:xlink="http://www.w3.org/1999/xlink">
    <title>lock</title>
    <g id="lock" stroke="none" stroke-width="1" fill="none" fill-rule="evenodd">
        <path d="M58,7.5 C72.4891904,7.5 84.2624338,19.1283515 84.4964498,33.561774 L84.5,34 L79.5,34 C79.5,22.1258779 69.8741221,12.5 58,12.5 C46.2446191,12.5 36.6927424,21.9343229 36.5028804,33.6444582 L36.5,34 L36.5,39.5 L92,39.5 C96.6090673,39.5 100.361321,43.168453 100.496243,47.7448397 L100.5,48 L100.5,99.5 C100.5,104.109067 96.831547,107.861321 92.2551603,107.996243 L92,108 L24,108 C19.3909327,108 15.6386785,104.331547 15.5037566,99.7551603 L15.5,99.5 L15.5,48 C15.5,43.3909327 19.168453,39.6386785 23.7448397,39.5037566 L24,39.5 L25.5,39.5 L25.5,44.5 L24,44.5 C22.1314366,44.5 20.6048736,45.9642776 20.5051789,47.8079648 L20.5,48 L20.5,99.5 C20.5,101.368563 21.9642776,102.895126 23.8079648,102.994821 L24,103 L92,103 C93.8685634,103 95.3951264,101.535722 95.4948211,99.6920352 L95.5,99.5 L95.5,48 C95.5,46.1314366 94.0357224,44.6048736 92.1920352,44.5051789 L92,44.5 L31.5,44.5 L31.5,34 C31.5,19.3644541 43.3644541,7.5 58,7.5 Z M58,55.5 C63.7039245,55.5 68.3455734,60.048142 68.4962258,65.7157049 L68.5,66 L68.5,66.5 C68.5,69.5802806 67.0939404,72.4138441 64.7843898,74.2797655 L64.549,74.464 L64.5125842,86.0078927 C64.5015282,89.5186697 61.7140701,92.373445 58.2330712,92.4959066 L58,92.5 C54.4881894,92.5 51.6268494,89.7150038 51.504103,86.2331341 L51.5,86 L51.5,76.5 L56.5,76.5 L56.5,86 C56.5,86.8284271 57.1715729,87.5 58,87.5 C58.7872279,87.5 59.4343383,86.8985216 59.506021,86.1295064 L59.512609,85.992147 L59.5578961,71.6114468 L60.8670988,70.9058378 C62.4097073,70.0744322 63.4137133,68.4989143 63.4947023,66.7315662 L63.5,66.5 L63.5,66 C63.5,62.9624339 61.0375661,60.5 58,60.5 C55.0365209,60.5 52.6204609,62.84378 52.5043672,65.7787929 L52.5,66 L52.5,66.5 C52.5,69.1887547 54.6223067,71.3818181 57.2831104,71.4953805 L57.5,71.5 L57.5,76.5 C52.0707601,76.5 47.6520683,72.1733292 47.5038418,66.7799048 L47.5,66.5 L47.5,66 C47.5,60.2010101 52.2010101,55.5 58,55.5 Z" id="Shape" fill="#000000" fill-rule="nonzero"></path>
    </g>
</svg>