<?xml version="1.0" encoding="UTF-8"?>
<svg   viewBox="0 0 116 116" version="1.1" xmlns="http://www.w3.org/2000/svg" xmlns:xlink="http://www.w3.org/1999/xlink">
    <title>lock-off</title>
    <g id="lock-off" stroke="none" stroke-width="1" fill="none" fill-rule="evenodd">
        <path d="M25.497767,39.5 L25.497767,44.5 L23.997767,44.5 C22.1292035,44.5 20.6026405,45.9642776 20.5029458,47.8079648 L20.497767,48 L20.497767,99.5 C20.497767,101.368563 21.9620446,102.895126 23.8057317,102.994821 L23.997767,103 L91.997767,103 C93.0368926,103 93.9966502,102.546777 94.6563281,101.776702 L94.7930141,101.606886 L98.7819395,104.621595 C97.2461924,106.653626 94.8787008,107.904903 92.2966169,107.994803 L91.997767,108 L23.997767,108 C19.3886997,108 15.6364455,104.331547 15.5015236,99.7551603 L15.497767,99.5 L15.497767,48 C15.497767,43.3909327 19.1662199,39.6386785 23.7426067,39.5037566 L23.997767,39.5 L25.497767,39.5 Z M11.7655339,8.23223305 L107.765534,104.232233 L104.23,107.767767 L8.23,11.767767 L11.7655339,8.23223305 Z M62.4108253,69.6130121 L66.3206477,72.7296269 C65.8149667,73.3640086 65.2348703,73.9339492 64.5943887,74.4270825 L64.546767,74.462 L64.5103511,86.0078927 C64.4992951,89.5186697 61.7118371,92.373445 58.2308382,92.4959066 L57.997767,92.5 C54.4859563,92.5 51.6246164,89.7150038 51.50187,86.2331341 L51.497767,86 L51.497767,76.5 L56.497767,76.5 L56.497767,86 C56.497767,86.8284271 57.1693398,87.5 57.997767,87.5 C58.7849948,87.5 59.4321052,86.8985216 59.5037879,86.1295064 L59.5103759,85.992147 L59.5556631,71.6114468 L60.8648658,70.9058378 C61.4610218,70.5845331 61.9878261,70.1436685 62.4108253,69.6130121 Z M91.997767,39.5 C96.6068342,39.5 100.359088,43.168453 100.49401,47.7448397 L100.497767,48 L100.497767,90.5 L95.497767,90.5 L95.497767,48 C95.497767,46.1314366 94.0334894,44.6048736 92.1898022,44.5051789 L91.997767,44.5 L49.997767,44.5 L49.997767,39.5 L91.997767,39.5 Z M51.0580468,58.1201293 L54.3637451,61.8714435 C53.2531886,62.8500778 52.5801834,64.2240155 52.5048491,65.7184488 L52.497767,66 L52.497767,66.5 C52.497767,69.1887547 54.6200737,71.3818181 57.2808773,71.4953805 L57.497767,71.5 L57.497767,76.5 C52.068527,76.5 47.6498352,72.1733292 47.5016088,66.7799048 L47.497767,66.5 L47.497767,66 C47.497767,62.9462995 48.811999,60.0993707 51.0580468,58.1201293 Z M57.997767,7.5 C72.4869574,7.5 84.2602008,19.1283515 84.4942167,33.561774 L84.497767,34 L79.497767,34 C79.497767,22.1258779 69.8718891,12.5 57.997767,12.5 C48.6447562,12.5 40.4601221,18.5265917 37.5793518,27.2457806 L37.4624001,27.6106294 L32.6876447,26.1268131 C36.1036471,15.1344989 46.3096516,7.5 57.997767,7.5 Z" id="Shape" fill="#000000" fill-rule="nonzero"></path>
    </g>
</svg>