<?xml version="1.0" encoding="UTF-8"?>
<svg width="128px" height="128px" viewBox="0 0 128 128" version="1.1" xmlns="http://www.w3.org/2000/svg" xmlns:xlink="http://www.w3.org/1999/xlink">
    <title>lock</title>
    <g id="lock" stroke="none" stroke-width="1" fill="none" fill-rule="evenodd">
        <path d="M64,13.5 C78.4891904,13.5 90.2624338,25.1283515 90.4964498,39.561774 L90.5,40 L85.5,40 C85.5,28.1258779 75.8741221,18.5 64,18.5 C52.2446191,18.5 42.6927424,27.9343229 42.5028804,39.6444582 L42.5,40 L42.5,45.5 L98,45.5 C102.609067,45.5 106.361321,49.168453 106.496243,53.7448397 L106.5,54 L106.5,105.5 C106.5,110.109067 102.831547,113.861321 98.2551603,113.996243 L98,114 L30,114 C25.3909327,114 21.6386785,110.331547 21.5037566,105.75516 L21.5,105.5 L21.5,54 C21.5,49.3909327 25.168453,45.6386785 29.7448397,45.5037566 L30,45.5 L31.5,45.5 L31.5,50.5 L30,50.5 C28.1314366,50.5 26.6048736,51.9642776 26.5051789,53.8079648 L26.5,54 L26.5,105.5 C26.5,107.368563 27.9642776,108.895126 29.8079648,108.994821 L30,109 L98,109 C99.8685634,109 101.395126,107.535722 101.494821,105.692035 L101.5,105.5 L101.5,54 C101.5,52.1314366 100.035722,50.6048736 98.1920352,50.5051789 L98,50.5 L37.5,50.5 L37.5,40 C37.5,25.3644541 49.3644541,13.5 64,13.5 Z M64,61.5 C69.7039245,61.5 74.3455734,66.048142 74.4962258,71.7157049 L74.5,72 L74.5,72.5 C74.5,75.5802806 73.0939404,78.4138441 70.7843898,80.2797655 L70.549,80.464 L70.5125842,92.0078927 C70.5015282,95.5186697 67.7140701,98.373445 64.2330712,98.4959066 L64,98.5 C60.4881894,98.5 57.6268494,95.7150038 57.504103,92.2331341 L57.5,92 L57.5,82.5 L62.5,82.5 L62.5,92 C62.5,92.8284271 63.1715729,93.5 64,93.5 C64.7872279,93.5 65.4343383,92.8985216 65.506021,92.1295064 L65.512609,91.992147 L65.5578961,77.6114468 L66.8670988,76.9058378 C68.4097073,76.0744322 69.4137133,74.4989143 69.4947023,72.7315662 L69.5,72.5 L69.5,72 C69.5,68.9624339 67.0375661,66.5 64,66.5 C61.0365209,66.5 58.6204609,68.84378 58.5043672,71.7787929 L58.5,72 L58.5,72.5 C58.5,75.1887547 60.6223067,77.3818181 63.2831104,77.4953805 L63.5,77.5 L63.5,82.5 C58.0707601,82.5 53.6520683,78.1733292 53.5038418,72.7799048 L53.5,72.5 L53.5,72 C53.5,66.2010101 58.2010101,61.5 64,61.5 Z" id="Shape" fill="#000000" fill-rule="nonzero"></path>
    </g>
</svg>