<?xml version="1.0" encoding="UTF-8"?>
<svg width="128px" height="128px" viewBox="0 0 128 128" version="1.1" xmlns="http://www.w3.org/2000/svg" xmlns:xlink="http://www.w3.org/1999/xlink">
    <title>lock-off</title>
    <g id="lock-off" stroke="none" stroke-width="1" fill="none" fill-rule="evenodd">
        <path d="M31.5,45.5 L31.5,50.5 L30,50.5 C28.1314366,50.5 26.6048736,51.9642776 26.5051789,53.8079648 L26.5,54 L26.5,105.5 C26.5,107.368563 27.9642776,108.895126 29.8079648,108.994821 L30,109 L98,109 C99.0391256,109 99.9988833,108.546777 100.658561,107.776702 L100.795247,107.606886 L104.784173,110.621595 C103.248425,112.653626 100.880934,113.904903 98.29885,113.994803 L98,114 L30,114 C25.3909327,114 21.6386785,110.331547 21.5037566,105.75516 L21.5,105.5 L21.5,54 C21.5,49.3909327 25.168453,45.6386785 29.7448397,45.5037566 L30,45.5 L31.5,45.5 Z M17.767767,14.232233 L113.767767,110.232233 L110.232233,113.767767 L14.232233,17.767767 L17.767767,14.232233 Z M68.4130583,75.6130121 L72.3228808,78.7296269 C71.8171997,79.3640086 71.2371034,79.9339492 70.5966217,80.4270825 L70.549,80.462 L70.5125842,92.0078927 C70.5015282,95.5186697 67.7140701,98.373445 64.2330712,98.4959066 L64,98.5 C60.4881894,98.5 57.6268494,95.7150038 57.504103,92.2331341 L57.5,92 L57.5,82.5 L62.5,82.5 L62.5,92 C62.5,92.8284271 63.1715729,93.5 64,93.5 C64.7872279,93.5 65.4343383,92.8985216 65.506021,92.1295064 L65.512609,91.992147 L65.5578961,77.6114468 L66.8670988,76.9058378 C67.4632548,76.5845331 67.9900591,76.1436685 68.4130583,75.6130121 Z M98,45.5 C102.609067,45.5 106.361321,49.168453 106.496243,53.7448397 L106.5,54 L106.5,96.5 L101.5,96.5 L101.5,54 C101.5,52.1314366 100.035722,50.6048736 98.1920352,50.5051789 L98,50.5 L56,50.5 L56,45.5 L98,45.5 Z M57.0602798,64.1201293 L60.3659782,67.8714435 C59.2554216,68.8500778 58.5824165,70.2240155 58.5070821,71.7184488 L58.5,72 L58.5,72.5 C58.5,75.1887547 60.6223067,77.3818181 63.2831104,77.4953805 L63.5,77.5 L63.5,82.5 C58.0707601,82.5 53.6520683,78.1733292 53.5038418,72.7799048 L53.5,72.5 L53.5,72 C53.5,68.9462995 54.814232,66.0993707 57.0602798,64.1201293 Z M64,13.5 C78.4891904,13.5 90.2624338,25.1283515 90.4964498,39.561774 L90.5,40 L85.5,40 C85.5,28.1258779 75.8741221,18.5 64,18.5 C54.6469893,18.5 46.4623551,24.5265917 43.5815848,33.2457806 L43.4646332,33.6106294 L38.6898778,32.1268131 C42.1058801,21.1344989 52.3118846,13.5 64,13.5 Z" id="Shape" fill="#000000" fill-rule="nonzero"></path>
    </g>
</svg>