<?xml version="1.0" encoding="UTF-8"?>
<svg  viewBox="0 0 116 116" version="1.1" xmlns="http://www.w3.org/2000/svg" xmlns:xlink="http://www.w3.org/1999/xlink">
    <title>loop</title>
    <g id="loop" stroke="none" stroke-width="1" fill="none" fill-rule="evenodd">
        <path d="M26.5,16 L26.5,21 L18.5,21 C15.5365209,21 13.1204609,23.34378 13.0043672,26.2787929 L13,26.5 L13,90.5 C13,93.4634791 15.34378,95.8795391 18.2787929,95.9956328 L18.5,96 L56,96 L56,88.2661904 C56,87.7111308 56.1319956,87.1652023 56.3836385,86.6729864 L56.4987748,86.4654552 C57.4589996,84.8650805 59.4963083,84.3088458 61.1275776,85.1675319 L61.3007351,85.2649651 L76.9279296,94.6412818 C77.5613029,95.0213058 78.091393,95.5513959 78.4714169,96.1847691 C79.7113361,98.2513012 79.0991135,100.913107 77.1176851,102.238442 L76.9279296,102.358718 L59.7862394,112.643732 L57.2137606,108.356268 L73.641,98.5 L61,90.915 L61,101 L18.5,101 C12.7960755,101 8.15442656,96.451858 8.00377424,90.7842951 L8,90.5 L8,26.5 C8,20.7960755 12.548142,16.1544266 18.2157049,16.0037742 L18.5,16 L26.5,16 Z M57.1750026,3.88000424 L59.8249974,8.11999576 L43.286,18.456 L56,26.084 L56,16 L98.5,16 C104.203924,16 108.845573,20.548142 108.996226,26.2157049 L109,26.5 L109,90.5 C109,96.2039245 104.451858,100.845573 98.7842951,100.996226 L98.5,101 L90.5,101 L90.5,96 L98.5,96 C101.463479,96 103.879539,93.65622 103.995633,90.7212071 L104,90.5 L104,26.5 C104,23.5365209 101.65622,21.1204609 98.7212071,21.0043672 L98.5,21 L61,21 L61,28.7338096 C61,29.3681634 60.8275976,29.9905909 60.5012252,30.5345448 C59.5410004,32.1349195 57.5036917,32.6911542 55.8724224,31.8324681 L55.6992649,31.7350349 L40.0140557,22.3239093 C39.4044073,21.9581203 38.8901054,21.4530844 38.5132942,20.8501864 C37.2360127,18.8065361 37.7997458,16.1340404 39.7567536,14.7729042 L39.9442913,14.6491988 L57.1750026,3.88000424 Z" id="Shape" fill="#000000" fill-rule="nonzero"></path>
    </g>
</svg>