<?xml version="1.0" encoding="UTF-8"?>
<svg   viewBox="0 0 128 128" version="1.1" xmlns="http://www.w3.org/2000/svg" xmlns:xlink="http://www.w3.org/1999/xlink">
    <title>magnifying-glass</title>
    <g id="magnifying-glass" stroke="none" stroke-width="1" fill="none" fill-rule="evenodd">
        <path d="M52.5,14 C73.7629629,14 91,31.2370371 91,52.5 C91,61.8432476 87.6539693,70.663044 81.7209018,77.5692907 L81.564,77.748 L89.559,86 L93.1139685,86 C95.8411255,86 98.4565606,87.060822 100.411089,88.9500212 L100.651923,89.1904687 L112.234797,101.136432 C114.254605,103.290893 114.204584,106.640655 112.163815,108.734245 L111.984019,108.910562 L108.329002,112.33714 C106.225223,114.309433 102.9698,114.31426 100.861253,112.388685 L100.678239,112.213773 L86.732233,98.267767 L90.267767,94.732233 L104.213773,108.678239 C104.380744,108.84521 104.637292,108.869882 104.830712,108.749792 L104.909297,108.689454 L108.564313,105.262876 C108.743385,105.094996 108.771347,104.826334 108.642704,104.627214 L108.581293,104.550035 L97.0624207,92.6711979 C96.0912763,91.6697053 94.7785491,91.077185 93.392151,91.0070321 L93.1139685,91 L87.4411393,91 L74.6261827,77.7715484 L76.3434338,76.0317018 C82.4926867,69.8015375 86,61.4310454 86,52.5 C86,33.9984609 71.0015391,19 52.5,19 C33.9984609,19 19,33.9984609 19,52.5 C19,71.0015391 33.9984609,86 52.5,86 C56.1667231,86 59.7497756,85.4116736 63.1502968,84.2722605 L63.7857314,84.0521716 L65.4698465,88.7600115 C61.3428991,90.2363264 56.9719134,91 52.5,91 C31.2370371,91 14,73.7629629 14,52.5 C14,31.2370371 31.2370371,14 52.5,14 Z" id="Path" fill="#000000" fill-rule="nonzero"></path>
    </g>
</svg>