<?xml version="1.0" encoding="UTF-8"?>
<svg  viewBox="0 0 116 116" version="1.1" xmlns="http://www.w3.org/2000/svg" xmlns:xlink="http://www.w3.org/1999/xlink">
    <title>magnifying-glass-off</title>
    <g id="magnifying-glass-off" stroke="none" stroke-width="1" fill="none" fill-rule="evenodd">
        <path d="M104.732233,8.73223305 L108.267767,12.267767 L12.267767,108.267767 L8.73223305,104.732233 L104.732233,8.73223305 Z M84.802069,42.5737749 C84.9337249,43.8725736 85,45.1824462 85,46.5 C85,55.8432476 81.6539693,64.663044 75.7209018,71.5692907 L75.564,71.748 L83.559,80 L87.1139685,80 C89.8411255,80 92.4565606,81.060822 94.4110886,82.9500212 L94.6519227,83.1904687 L106.234797,95.1364315 C108.254605,97.290893 108.204584,100.640655 106.163815,102.734245 L105.984019,102.910562 L102.329002,106.33714 C100.225223,108.309433 96.9698002,108.31426 94.8612525,106.388685 L94.678239,106.213773 L80.732233,92.267767 L84.267767,88.732233 L98.2137729,102.678239 C98.3807443,102.84521 98.6372918,102.869882 98.8307124,102.749792 L98.9092968,102.689454 L102.564313,99.2628763 C102.743385,99.0949962 102.771347,98.8263337 102.642704,98.6272144 L102.581293,98.5500348 L91.0624207,86.6711979 C90.0912763,85.6697053 88.7785491,85.077185 87.392151,85.0070321 L87.1139685,85 L81.4411393,85 L68.6261827,71.7715484 L70.3434338,70.0317018 C76.4926867,63.8015375 80,55.4310454 80,46.5 C80,45.5807386 79.9630338,44.6662788 79.8895316,43.7580291 L79.8275611,43.0780281 L84.802069,42.5737749 Z M57.7857314,78.0521716 L59.4698465,82.7600115 C55.3428991,84.2363264 50.9719134,85 46.5,85 C45.4405579,85 44.3860839,84.9571483 43.3383423,84.8719103 L42.5538259,84.8000416 L43.060661,79.8257961 C44.1976634,79.9416474 45.3450411,80 46.5,80 C50.3958933,80 54.1973304,79.3358347 57.7857314,78.0521716 Z M46.5,8 C59.4806447,8 71.3614976,14.4763099 78.4621068,25.0300071 L78.7399028,25.4487127 L74.5557373,28.1860031 C68.4039673,18.7825346 57.9463725,13 46.5,13 C27.9984609,13 13,27.9984609 13,46.5 C13,57.7357835 18.571406,68.0201555 27.6748626,74.2146686 L28.0848338,74.4892912 L25.3324669,78.6635548 C14.5978207,71.5854957 8,59.6021165 8,46.5 C8,25.2370371 25.2370371,8 46.5,8 Z" id="Shape" fill="#000000" fill-rule="nonzero"></path>
    </g>
</svg>