<?xml version="1.0" encoding="UTF-8"?>
<svg  viewBox="0 0 116 116" version="1.1" xmlns="http://www.w3.org/2000/svg" xmlns:xlink="http://www.w3.org/1999/xlink">
    <title>magnifying-glass</title>
    <g id="magnifying-glass" stroke="none" stroke-width="1" fill="none" fill-rule="evenodd">
        <path d="M46.5,8 C67.7629629,8 85,25.2370371 85,46.5 C85,55.8432476 81.6539693,64.663044 75.7209018,71.5692907 L75.564,71.748 L83.559,80 L87.1139685,80 C89.8411255,80 92.4565606,81.060822 94.4110886,82.9500212 L94.6519227,83.1904687 L106.234797,95.1364315 C108.254605,97.290893 108.204584,100.640655 106.163815,102.734245 L105.984019,102.910562 L102.329002,106.33714 C100.225223,108.309433 96.9698002,108.31426 94.8612525,106.388685 L94.678239,106.213773 L80.732233,92.267767 L84.267767,88.732233 L98.2137729,102.678239 C98.3807443,102.84521 98.6372918,102.869882 98.8307124,102.749792 L98.9092968,102.689454 L102.564313,99.2628763 C102.743385,99.0949962 102.771347,98.8263337 102.642704,98.6272144 L102.581293,98.5500348 L91.0624207,86.6711979 C90.0912763,85.6697053 88.7785491,85.077185 87.392151,85.0070321 L87.1139685,85 L81.4411393,85 L68.6261827,71.7715484 L70.3434338,70.0317018 C76.4926867,63.8015375 80,55.4310454 80,46.5 C80,27.9984609 65.0015391,13 46.5,13 C27.9984609,13 13,27.9984609 13,46.5 C13,65.0015391 27.9984609,80 46.5,80 C50.1667231,80 53.7497756,79.4116736 57.1502968,78.2722605 L57.7857314,78.0521716 L59.4698465,82.7600115 C55.3428991,84.2363264 50.9719134,85 46.5,85 C25.2370371,85 8,67.7629629 8,46.5 C8,25.2370371 25.2370371,8 46.5,8 Z" id="Path" fill="#000000" fill-rule="nonzero"></path>
    </g>
</svg>