<?xml version="1.0" encoding="UTF-8"?>
<svg  viewBox="0 0 116 116" version="1.1" xmlns="http://www.w3.org/2000/svg" xmlns:xlink="http://www.w3.org/1999/xlink">
    <title>map-pin</title>
    <g id="map-pin" stroke="none" stroke-width="1" fill="none" fill-rule="evenodd">
        <path d="M58.5,8 C77.3632856,8 92.6907157,23.1387972 92.995378,41.9294794 L93,42.5 L88,42.5 C88,26.2075999 74.7924001,13 58.5,13 C42.3705239,13 29.2644605,25.9447686 29.0037079,42.0465838 L28.9997483,42.5354739 C28.8596641,52.4068325 31.4293548,62.6855951 36.7395293,73.3889157 C41.6000602,83.1859232 48.5104574,92.840244 57.479802,102.348395 L58.2566645,103.166178 C58.3591489,103.273303 58.5194346,103.291832 58.6418397,103.219649 L58.7052234,103.170314 C68.2606829,93.031961 75.4408524,83.1034588 80.2604707,73.3889157 C82.5484348,68.777238 84.3973111,63.7952881 85.7197223,58.7594848 L85.9614835,57.8147179 L90.8131147,59.0237155 C89.3923936,64.7249796 87.3334632,70.3826863 84.7395293,75.6110843 C79.6859191,85.7972675 72.219529,96.121546 62.3494658,106.593851 C62.2866126,106.66054 62.2220445,106.725591 62.1558265,106.788939 C60.0960633,108.759443 56.8633865,108.745456 54.8208061,106.799307 L54.6404828,106.619184 C44.9587824,96.4976786 37.4954843,86.1629088 32.2604707,75.6110843 C26.7374785,64.4788032 23.9725664,53.6627036 23.9935904,43.2119824 L24,42.5 C24,23.4461761 39.4461761,8 58.5,8 Z M58.5,24 C68.7172679,24 77,32.2827321 77,42.5 C77,52.6049902 68.8983057,60.8177283 58.8361237,60.9970078 L58.5,61 L58.5,56 C65.9558441,56 72,49.9558441 72,42.5 C72,35.0441559 65.9558441,29 58.5,29 C51.1477093,29 45.1681655,34.8774286 45.0034854,42.1901692 L45,42.5 L40,42.5 C40,32.2827321 48.2827321,24 58.5,24 Z" id="Shape" fill="#000000" fill-rule="nonzero"></path>
    </g>
</svg>