<?xml version="1.0" encoding="UTF-8"?>
<svg  viewBox="0 0 117 116" version="1.1" xmlns="http://www.w3.org/2000/svg" xmlns:xlink="http://www.w3.org/1999/xlink">
    <title>map</title>
    <g id="map" stroke="none" stroke-width="1" fill="none" fill-rule="evenodd" transform="translate(0.000000, 0.000000)">
        <path d="M42.6601683,8.7202178 C43.3692296,8.54460348 44.1362324,8.5889519 44.8521229,8.88961432 L45.0652476,8.98753882 L67.7622412,20.3360357 L65.5261733,24.8081716 L45,14.545 L45,74.5 L40,74.5 L40,14.544 L13.2763932,27.9068884 C13.1352332,27.9774684 13.0374001,28.109462 13.0087102,28.2610977 L13,28.354102 L13,102.454 L37.8042572,90.0527864 C40.6583635,88.6257333 44.0003672,88.5765245 46.8881216,89.9051602 L47.1957428,90.0527864 L72.0403252,102.475078 C73.5072316,103.208531 75.2201859,103.247134 76.7129921,102.590886 L76.9596748,102.475078 L103.723607,89.0931116 C103.864767,89.0225316 103.9626,88.890538 103.99129,88.7389023 L104,88.645898 L104,14.544 L77.2763932,27.9068884 C77.1352332,27.9774684 77.0374001,28.109462 77.0087102,28.2610977 L77,28.354102 L77,90.5 L72,90.5 L72,28.354102 C72,26.3509805 73.0882147,24.5131689 74.8284013,23.5465231 L75.0403252,23.4347524 L103.934752,8.98753882 C104.420746,8.74454181 104.956642,8.61726729 105.5,8.61726729 C107.368563,8.61726729 108.895126,10.0823116 108.994821,11.9259988 L109,12.118034 L109,88.645898 C109,90.6490195 107.911785,92.4868311 106.171599,93.4534769 L105.959675,93.5652476 L79.1957428,106.947214 C76.3416365,108.374267 72.9996328,108.423475 70.1118784,107.09484 L69.8042572,106.947214 L44.9596748,94.5249224 C43.4927684,93.7914692 41.7798141,93.7528664 40.2870079,94.409114 L40.0403252,94.5249224 L13.0652476,108.012461 C12.5792536,108.255458 12.0433578,108.381966 11.5,108.381966 C9.6314366,108.381966 8.10487355,106.917688 8.00517886,105.074001 L8,104.881966 L8,28.354102 C8,26.3509805 9.08821475,24.5131689 10.8284013,23.5465231 L11.0403252,23.4347524 L39.9347524,8.98753882 C40.4207464,8.74454181 40.9566422,8.61726729 41.5,8.61726729 C41.8221661,8.61726729 42.1341657,8.66156186 42.4304386,8.74305737 L42.5,8.764 L42.6601683,8.7202178 Z" id="Path-288" fill="#000000" fill-rule="nonzero"></path>
    </g>
</svg>