<?xml version="1.0" encoding="UTF-8"?>
<svg  viewBox="0 0 116 116" version="1.1" xmlns="http://www.w3.org/2000/svg" xmlns:xlink="http://www.w3.org/1999/xlink">
    <title>marker-off</title>
    <g id="marker-off" stroke="none" stroke-width="1" fill="none" fill-rule="evenodd">
        <path d="M40.4820562,56.952869 L44.0175902,60.4884029 L32.3533694,72.1526237 L32.4830722,72.3730315 C34.7421519,76.306546 34.2462563,81.3905622 30.9953856,84.8189784 L30.7970274,85.0226742 L27.2614935,88.5582081 C27.0879271,88.7317744 27.068642,89.0011988 27.203638,89.196067 L27.2614935,89.2653149 L34.3325613,96.3363827 C36.4280575,98.4318789 36.4791672,101.797594 34.4858903,103.955052 L34.3325613,104.114557 L31.9727642,106.474354 C30.6901465,107.756972 28.8620493,108.321036 27.0884149,107.994485 L26.8469496,107.944419 L11.8403784,104.481364 C11.201208,104.333863 10.6163531,104.009708 10.1525129,103.545868 C8.83123908,102.224594 8.78719661,100.109751 10.0203855,98.7355722 L10.1525129,98.5961208 L15.947785,92.8008488 L19.4833189,96.3363827 L15.6020098,100.217692 L27.9712472,103.072463 C28.1112306,103.104767 28.2568538,103.075078 28.3720513,102.993739 L28.4372303,102.93882 L30.7970274,100.579023 C30.9705938,100.405457 30.9898789,100.136033 30.8548829,99.9411645 L30.7970274,99.8719166 L23.7259596,92.8008488 C21.6304634,90.7053526 21.5793537,87.3396374 23.5726306,85.1821793 L23.7259596,85.0226742 L27.2614935,81.4871403 C29.3569897,79.3916441 29.4080994,76.0259289 27.4148225,73.8684708 L27.2614935,73.7089657 L25.4937265,71.9411987 L40.4820562,56.952869 Z M11.767767,8.23223305 L107.767767,104.232233 L104.232233,107.767767 L8.23223305,11.767767 L11.767767,8.23223305 Z M64.1094732,78.580286 L67.6450072,82.1158199 L51.6566774,98.1041496 L49.8889105,96.3363827 C47.7934143,94.2408865 44.4276992,94.1897768 42.2702411,96.1830537 L42.1107359,96.3363827 L40.342969,98.1041496 L33.2719011,91.0330818 L36.807435,87.4975479 L40.555101,91.2452139 L40.7748017,91.114804 C44.0002836,89.2623586 47.9993628,89.2623586 51.2248447,91.114804 L51.4452525,91.2445067 L64.1094732,78.580286 Z M90.7415987,14.1586671 L90.9011038,14.3119961 L109.28588,32.6967724 C111.381376,34.7922686 111.432486,38.1579837 109.439209,40.3154418 L109.28588,40.474947 L81.1450072,68.6158199 L77.6094732,65.080286 L105.750346,36.9394131 C105.923913,36.7658467 105.943198,36.4964223 105.808202,36.3015542 L105.750346,36.2323063 L87.3655699,17.84753 C87.1920035,17.6739636 86.9225791,17.6546785 86.727711,17.7896745 L86.6584631,17.84753 L60.0175902,44.4884029 L56.4820562,40.952869 L83.1229292,14.3119961 C85.2184254,12.2164999 88.5841406,12.1653902 90.7415987,14.1586671 Z" id="Shape" fill="#000000" fill-rule="nonzero"></path>
    </g>
</svg>