<?xml version="1.0" encoding="UTF-8"?>
<svg   viewBox="0 0 116 116" version="1.1" xmlns="http://www.w3.org/2000/svg" xmlns:xlink="http://www.w3.org/1999/xlink">
    <title>marker</title>
    <g id="marker" stroke="none" stroke-width="1" fill="none" fill-rule="evenodd">
        <path d="M84.5,39.5 L84.5,42 C84.5,44.9634791 86.84378,47.3795391 89.7787929,47.4956328 L90,47.5 L92.5,47.5 L92.5,57.5 L87.5,57.5 L87.5,52.2 L87.2524344,52.1368619 C83.6617977,51.1659784 80.8340216,48.3382023 79.8631381,44.7475656 L79.799,44.5 L2.5,44.5 L2.5,71.5 L79.799,71.5 L79.8631381,71.2524344 C81.0471424,66.8736091 84.9927358,63.6293178 89.7157049,63.5037742 L90,63.5 L95.5,63.5 L95.5,47.5 L107.385619,47.5 L120.510619,68.5 L106,68.5 L106,63.5 L111.49,63.5 L104.615,52.5 L100.5,52.5 L100.5,68.5 L90,68.5 C87.0365209,68.5 84.6204609,70.84378 84.5043672,73.7787929 L84.5,74 L84.5,76.5 L-2.5,76.5 L-2.5,39.5 L84.5,39.5 Z" id="Path-5" fill="#000000" fill-rule="nonzero" transform="translate(59.005310, 58.000000) rotate(135.000000) translate(-59.005310, -58.000000) "></path>
    </g>
</svg>