<?xml version="1.0" encoding="UTF-8"?>
<svg  viewBox="0 0 116 116" version="1.1" xmlns="http://www.w3.org/2000/svg" xmlns:xlink="http://www.w3.org/1999/xlink">
    <title>marker-off</title>
    <g id="marker-off" stroke="none" stroke-width="1" fill="none" fill-rule="evenodd">
        <path d="M11.767767,8.23223305 L107.767767,104.232233 L104.232233,107.767767 L8.23223305,11.767767 L11.767767,8.23223305 Z M42.8846953,55.9576633 L46.4202292,59.4931973 L34.7560085,71.157418 L34.8857113,71.3778258 C37.1447909,75.3113403 36.6488954,80.3953565 33.3980247,83.8237727 L33.1996665,84.0274685 L29.3105792,87.9165558 L40.6242877,99.2302643 L32.2198858,107.634666 L8.08986689,102.0662 L18.3504241,91.8056431 L21.885958,95.341177 L18.0039417,99.2231932 L30.6434754,102.140009 L33.5532198,99.2302643 L22.2395114,87.9165558 L29.6641326,80.4919346 C31.7596288,78.3964384 31.8107384,75.0307232 29.8174615,72.8732652 L29.6641326,72.71376 L27.8963656,70.945993 L42.8846953,55.9576633 Z M66.5121123,77.5850803 L70.0476462,81.1206143 L54.0593165,97.108944 L52.2915496,95.341177 C50.1960534,93.2456808 46.8303382,93.1945711 44.6728801,95.187848 L44.513375,95.341177 L42.745608,97.108944 L35.6745402,90.0378761 L39.2100741,86.5023422 L42.95774,90.2500082 L43.1774407,90.1195983 C46.4029226,88.267153 50.4020019,88.267153 53.6274838,90.1195983 L53.8478916,90.2493011 L66.5121123,77.5850803 Z M89.4146556,9.42770308 L115.577606,35.590654 L83.5476462,67.6206143 L80.0121123,64.0850803 L108.506539,35.590654 L89.4146556,16.4987709 L62.4202292,43.4931973 L58.8846953,39.9576633 L89.4146556,9.42770308 Z" id="Shape" fill="#000000" fill-rule="nonzero"></path>
    </g>
</svg>