<?xml version="1.0" encoding="UTF-8"?>
<svg   viewBox="0 0 116 116" version="1.1" xmlns="http://www.w3.org/2000/svg" xmlns:xlink="http://www.w3.org/1999/xlink">
    <title>marker-off</title>
    <g id="marker-off" stroke="none" stroke-width="1" fill="none" fill-rule="evenodd">
        <path d="M11.767767,8.23223305 L107.767767,104.232233 L104.232233,107.767767 L8.23223305,11.767767 L11.767767,8.23223305 Z M42.3846953,48.4576633 L45.9202292,51.9931973 L34.7560085,63.157418 L34.8857113,63.3778258 C37.1447909,67.3113403 36.6488954,72.3953565 33.3980247,75.8237727 L33.1996665,76.0274685 L29.3105792,79.9165558 L40.6242877,91.2302643 L32.2198858,99.6346662 L8.08986689,94.0662003 L18.3504241,83.8056431 L21.885958,87.341177 L18.0039417,91.2231932 L30.6434754,94.1400087 L33.5532198,91.2302643 L22.2395114,79.9165558 L29.6641326,72.4919346 C31.7596288,70.3964384 31.8107384,67.0307232 29.8174615,64.8732652 L29.6641326,64.71376 L27.8963656,62.945993 L42.3846953,48.4576633 Z M65.0121123,71.0850803 L68.5476462,74.6206143 L54.0593165,89.108944 L52.2915496,87.341177 C50.1960534,85.2456808 46.8303382,85.1945711 44.6728801,87.187848 L44.513375,87.341177 L42.745608,89.108944 L35.6745402,82.0378761 L39.2100741,78.5023422 L42.95774,82.2500082 L43.1774407,82.1195983 C46.4029226,80.267153 50.4020019,80.267153 53.6274838,82.1195983 L53.8478916,82.2493011 L65.0121123,71.0850803 Z M89.4146556,1.42770308 L115.577606,27.590654 L77.2976462,65.8706143 L73.7621123,62.3350803 L108.506539,27.590654 L89.4146556,8.4987709 L54.1702292,43.7431973 L50.6346953,40.2076633 L89.4146556,1.42770308 Z" id="Shape" fill="#000000" fill-rule="nonzero"></path>
    </g>
</svg>