<?xml version="1.0" encoding="UTF-8"?>
<svg   viewBox="0 0 128 128" version="1.1" xmlns="http://www.w3.org/2000/svg" xmlns:xlink="http://www.w3.org/1999/xlink">
    <title>marker</title>
    <g id="marker" stroke="none" stroke-width="1" fill="none" fill-rule="evenodd">
        <path d="M90.5,45.5 L90.5,48 C90.5,50.9634791 92.84378,53.3795391 95.7787929,53.4956328 L96,53.5 L98.5,53.5 L98.5,63.5 L93.5,63.5 L93.5,58.2 L93.2524344,58.1368619 C89.6617977,57.1659784 86.8340216,54.3382023 85.8631381,50.7475656 L85.799,50.5 L8.5,50.5 L8.5,77.5 L85.799,77.5 L85.8631381,77.2524344 C87.0471424,72.8736091 90.9927358,69.6293178 95.7157049,69.5037742 L96,69.5 L101.5,69.5 L101.5,53.5 L113.385619,53.5 L126.510619,74.5 L112,74.5 L112,69.5 L117.49,69.5 L110.615,58.5 L106.5,58.5 L106.5,74.5 L96,74.5 C93.0365209,74.5 90.6204609,76.84378 90.5043672,79.7787929 L90.5,80 L90.5,82.5 L3.5,82.5 L3.5,45.5 L90.5,45.5 Z" id="Path-5" fill="#000000" fill-rule="nonzero" transform="translate(65.005310, 64.000000) rotate(135.000000) translate(-65.005310, -64.000000) "></path>
    </g>
</svg>