<?xml version="1.0" encoding="UTF-8"?>
<svg   viewBox="0 0 128 128" version="1.1" xmlns="http://www.w3.org/2000/svg" xmlns:xlink="http://www.w3.org/1999/xlink">
    <title>marker-off</title>
    <g id="marker-off" stroke="none" stroke-width="1" fill="none" fill-rule="evenodd">
        <path d="M17.767767,14.232233 L113.767767,110.232233 L110.232233,113.767767 L14.232233,17.767767 L17.767767,14.232233 Z M48.3846953,54.4576633 L51.9202292,57.9931973 L40.7560085,69.157418 L40.8857113,69.3778258 C43.1447909,73.3113403 42.6488954,78.3953565 39.3980247,81.8237727 L39.1996665,82.0274685 L35.3105792,85.9165558 L46.6242877,97.2302643 L38.2198858,105.634666 L14.0898669,100.0662 L24.3504241,89.8056431 L27.885958,93.341177 L24.0039417,97.2231932 L36.6434754,100.140009 L39.5532198,97.2302643 L28.2395114,85.9165558 L35.6641326,78.4919346 C37.7596288,76.3964384 37.8107384,73.0307232 35.8174615,70.8732652 L35.6641326,70.71376 L33.8963656,68.945993 L48.3846953,54.4576633 Z M71.0121123,77.0850803 L74.5476462,80.6206143 L60.0593165,95.108944 L58.2915496,93.341177 C56.1960534,91.2456808 52.8303382,91.1945711 50.6728801,93.187848 L50.513375,93.341177 L48.745608,95.108944 L41.6745402,88.0378761 L45.2100741,84.5023422 L48.9584471,88.2493011 L49.1774407,88.1195983 C52.4029226,86.267153 56.4020019,86.267153 59.6274838,88.1195983 L59.8478916,88.2493011 L71.0121123,77.0850803 Z M95.4146556,7.42770308 L121.577606,33.590654 L83.2976462,71.8706143 L79.7621123,68.3350803 L114.507246,33.5899469 L95.4153627,14.4980638 L60.1702292,49.7431973 L56.6346953,46.2076633 L95.4146556,7.42770308 Z" id="Shape" fill="#000000" fill-rule="nonzero"></path>
    </g>
</svg>