<?xml version="1.0" encoding="UTF-8"?>
<svg  viewBox="0 0 116 116" version="1.1" xmlns="http://www.w3.org/2000/svg" xmlns:xlink="http://www.w3.org/1999/xlink">
    <title>megaphone-medium</title>
    <g id="megaphone-medium" stroke="none" stroke-width="1" fill="none" fill-rule="evenodd">
        <path d="M67.6819805,12.1464466 C68.4696333,12.9340994 68.9351423,13.9836769 68.9937095,15.0904586 L69,15.3284271 L69,101.671573 C69,104.156854 66.9852814,106.171573 64.5,106.171573 C63.3860907,106.171573 62.3147628,105.758574 61.4907367,105.017374 L61.3180195,104.853553 L33.465,77 L13.5,77 C10.5365209,77 8.12046086,74.65622 8.0043672,71.7212071 L8,71.5 L13,71.5 C13,71.7454599 13.1768752,71.9496084 13.4101244,71.9919443 L13.5,72 L35.5355339,72 L64,100.465 L64,16.534 L35.5355339,45 L14.5,45 C13.7203039,45 13.0795513,45.5948881 13.0068666,46.35554 L13,46.5 L13,58.5 L8,58.5 L8,46.5 C8,42.9881894 10.7849962,40.1268494 14.2668659,40.004103 L14.5,40 L33.464,40 L61.3180195,12.1464466 C63.0753788,10.3890873 65.9246212,10.3890873 67.6819805,12.1464466 Z M86.225,30.0069075 C90.3576929,30.0069075 93.9823984,32.5015504 95.541323,36.1598379 L95.9886643,36.025474 L96.2446959,36.902845 C98.0806034,43.3373504 99,49.7816956 99,56.229861 C99,65.624721 97.0485241,75.0079281 93.1569832,84.3641668 L92.7978626,85.2146592 L88.2021374,83.2450627 L88.5485546,82.4243603 C92.1866448,73.6710467 94,64.944638 94,56.229861 C94,50.4655603 93.2067447,44.6977102 91.6176497,38.9209194 L91.2270164,39.0083786 L91.1720885,38.785831 C90.5751051,36.581028 88.5592196,35.0069075 86.225,35.0069075 C83.3945407,35.0069075 81.1,37.3014482 81.1,40.1319075 C81.1,40.4464933 81.1280784,40.7562596 81.1831598,41.0588434 L81.6273139,40.8581347 L81.6663985,40.9466116 L82.1447765,42.2136507 L82.4713029,43.0499956 C84.1540578,47.4393131 85,51.8366723 85,56.229861 C85,61.7510355 83.6639535,67.1254006 81.0086685,72.324952 L80.7082088,72.9019591 L76.2917912,70.5577628 L76.5722191,70.0185761 C78.8629613,65.5217613 80,60.9347782 80,56.229861 C80,52.491363 79.2821523,48.7291378 77.8375576,44.9312811 L77.4357519,45.1609268 L77.263924,44.8484639 C77.1530521,44.6381436 77.0495786,44.4238615 76.953734,44.2059872 C76.3932719,42.9319432 76.1,41.5502271 76.1,40.1319075 C76.1,34.5400245 80.6331169,30.0069075 86.225,30.0069075 Z" id="Shape" fill="#000000" fill-rule="nonzero"></path>
    </g>
</svg>