<?xml version="1.0" encoding="UTF-8"?>
<svg  viewBox="0 0 116 116" version="1.1" xmlns="http://www.w3.org/2000/svg" xmlns:xlink="http://www.w3.org/1999/xlink">
    <title>megaphone-loud</title>
    <g id="megaphone-loud" stroke="none" stroke-width="1" fill="none" fill-rule="evenodd">
        <path d="M67.6819805,12.1464466 C68.4696333,12.9340994 68.9351423,13.9836769 68.9937095,15.0904586 L69,15.3284271 L69,101.671573 C69,104.156854 66.9852814,106.171573 64.5,106.171573 C63.3860907,106.171573 62.3147628,105.758574 61.4907367,105.017374 L61.3180195,104.853553 L33.465,77 L13.5,77 C10.5365209,77 8.12046086,74.65622 8.0043672,71.7212071 L8,71.5 L13,71.5 C13,71.7454599 13.1768752,71.9496084 13.4101244,71.9919443 L13.5,72 L35.5355339,72 L64,100.465 L64,16.534 L35.5355339,45 L14.5,45 C13.7203039,45 13.0795513,45.5948881 13.0068666,46.35554 L13,46.5 L13,58.5 L8,58.5 L8,46.5 C8,42.9881894 10.7849962,40.1268494 14.2668659,40.004103 L14.5,40 L33.464,40 L61.3180195,12.1464466 C63.0753788,10.3890873 65.9246212,10.3890873 67.6819805,12.1464466 Z M98.3,19 C102.837215,19 106.786756,21.9728495 108.096966,26.2292571 L108.176993,26.5026696 L108.162,26.5064271 L108.303618,26.9768221 L108.303618,26.9768221 L108.517504,27.7482663 L108.693085,28.4235215 L109.429785,31.4401681 L109.547221,31.9004099 C111.848424,40.7610216 113,49.6291344 113,58.5 C113,71.8400392 110.395959,85.1704756 105.196962,98.4779799 L104.821192,99.4284767 L100.178808,97.5715233 C105.396185,84.5280805 108,71.5090075 108,58.5 C108,50.4085612 106.992731,42.3145942 104.97648,34.2139199 L104.445895,32.1137334 L103.935099,30.0055448 L103.77152,29.3605294 L103.579157,28.6438799 L103.579157,28.6438799 L103.391023,27.9959883 L103.314739,27.748687 L103.33,27.7434271 L103.292047,27.6176654 C102.596388,25.4850996 100.594127,24 98.3,24 C95.4005051,24 93.05,26.3505051 93.05,29.25 C93.05,29.7974686 93.2355713,30.5718065 93.5345783,31.3165095 L93.603,31.4794271 L93.6101515,31.4772844 C97.2001515,40.4653305 99,49.4776544 99,58.5 C99,64.9481653 98.0806034,71.3925106 96.2446959,77.827016 L96.096,78.3354271 L96.1069833,78.3375298 C95.0817051,82.9319463 90.9911823,86.25 86.225,86.25 C80.6331169,86.25 76.1,81.7168831 76.1,76.125 C76.1,74.7066805 76.3932719,73.3249643 76.953734,72.0509203 L77.1031937,71.7268493 L77.5853984,70.4435039 C79.1986317,66.4264872 80,62.4499997 80,58.5 C80,53.7950828 78.8629613,49.2080996 76.5722191,44.7112849 L76.2917912,44.1720981 L80.7082088,41.8279019 C83.5631544,47.2065606 85,52.7743375 85,58.5 C85,62.8931886 84.1540578,67.2905478 82.4713029,71.6798653 L82.1447765,72.5162102 L81.749,73.5674271 L81.7738257,73.5821656 L81.669,73.7744271 L81.6663985,73.7832494 L81.6273139,73.8717263 C81.5895035,73.9338107 81.5592947,73.9987234 81.5304645,74.0642603 C81.2478181,74.7067729 81.1,75.4032005 81.1,76.125 C81.1,78.9554593 83.3945407,81.25 86.225,81.25 C88.5592196,81.25 90.5751051,79.6758796 91.1720885,77.4710766 L91.219,77.2814271 L91.1973129,77.2750686 C93.0668701,71.0079515 94,64.7518881 94,58.5 C94,50.3955597 92.431801,42.2817336 89.2866146,34.1456016 L89.0616504,33.5767055 C88.4457587,32.1767178 88.05,30.6420817 88.05,29.25 C88.05,23.5890813 92.6390813,19 98.3,19 Z" id="Shape" fill="#000000" fill-rule="nonzero"></path>
    </g>
</svg>