<?xml version="1.0" encoding="UTF-8"?>
<svg  viewBox="0 0 116 116" version="1.1" xmlns="http://www.w3.org/2000/svg" xmlns:xlink="http://www.w3.org/1999/xlink">
    <title>megaphone</title>
    <g id="megaphone" stroke="none" stroke-width="1" fill="none" fill-rule="evenodd">
        <path d="M81.3180195,12.1464466 C83.0753788,10.3890873 85.9246212,10.3890873 87.6819805,12.1464466 C88.4696333,12.9340994 88.9351423,13.9836769 88.9937095,15.0904586 L89,15.3284271 L89,101.671573 C89,104.156854 86.9852814,106.171573 84.5,106.171573 C83.3860907,106.171573 82.3147628,105.758574 81.4907367,105.017374 L81.3180195,104.853553 L53.465,77 L33.5,77 C30.5365209,77 28.1204609,74.65622 28.0043672,71.7212071 L28,71.5 L33,71.5 C33,71.7454599 33.1768752,71.9496084 33.4101244,71.9919443 L33.5,72 L55.5355339,72 L84,100.465 L84,16.534 L55.5355339,45 L34.5,45 C33.7203039,45 33.0795513,45.5948881 33.0068666,46.35554 L33,46.5 L33,58.5 L28,58.5 L28,46.5 C28,42.9881894 30.7849962,40.1268494 34.2668659,40.004103 L34.5,40 L53.464,40 L81.3180195,12.1464466 Z" id="Path-176" fill="#000000" fill-rule="nonzero"></path>
    </g>
</svg>