<?xml version="1.0" encoding="UTF-8"?>
<svg  viewBox="0 0 116 116" version="1.1" xmlns="http://www.w3.org/2000/svg" xmlns:xlink="http://www.w3.org/1999/xlink">
    <title>megaphone-low</title>
    <g id="megaphone-low" stroke="none" stroke-width="1" fill="none" fill-rule="evenodd">
        <path d="M67.6819805,12.1464466 C68.4696333,12.9340994 68.9351423,13.9836769 68.9937095,15.0904586 L69,15.3284271 L69,101.671573 C69,104.156854 66.9852814,106.171573 64.5,106.171573 C63.3860907,106.171573 62.3147628,105.758574 61.4907367,105.017374 L61.3180195,104.853553 L33.465,77 L13.5,77 C10.5365209,77 8.12046086,74.65622 8.0043672,71.7212071 L8,71.5 L13,71.5 C13,71.7454599 13.1768752,71.9496084 13.4101244,71.9919443 L13.5,72 L35.5355339,72 L64,100.465 L64,16.534 L35.5355339,45 L14.5,45 C13.7203039,45 13.0795513,45.5948881 13.0068666,46.35554 L13,46.5 L13,58.5 L8,58.5 L8,46.5 C8,42.9881894 10.7849962,40.1268494 14.2668659,40.004103 L14.5,40 L33.464,40 L61.3180195,12.1464466 C63.0753788,10.3890873 65.9246212,10.3890873 67.6819805,12.1464466 Z M80.7082088,41.8279019 C83.5631544,47.2065606 85,52.7743375 85,58.5 C85,64.0048099 83.6721682,69.5127373 81.036319,75.0039643 L80.7380651,75.6140309 L76.2619349,73.3859691 C78.7613444,68.3647069 80,63.4100846 80,58.5 C80,53.7950828 78.8629613,49.2080996 76.5722191,44.7112849 L76.2917912,44.1720981 L80.7082088,41.8279019 Z" id="Shape" fill="#000000" fill-rule="nonzero"></path>
    </g>
</svg>