<?xml version="1.0" encoding="UTF-8"?>
<svg   viewBox="0 0 116 116" version="1.1" xmlns="http://www.w3.org/2000/svg" xmlns:xlink="http://www.w3.org/1999/xlink">
    <title>microphone-off</title>
    <g id="microphone-off" stroke="none" stroke-width="1" fill="none" fill-rule="evenodd">
        <path d="M49.997767,103.5 L49.997767,108.5 L33.997767,108.5 L33.997767,103.5 L49.997767,103.5 Z M28.497767,58 C28.497767,74.2924001 41.7053668,87.5 57.997767,87.5 C64.0719889,87.5 69.8634534,85.6624814 74.7458189,82.2884128 L75.2008582,81.9676015 L78.1200851,86.0269259 C72.967064,89.7326749 66.9018906,91.9511593 60.4977302,92.4105973 L60.497767,103.5 L73.997767,103.5 L73.997767,108.5 L55.497767,108.5 L55.4972803,92.4107719 C37.7978439,91.1430719 23.7934704,76.5235785 23.502389,58.5705206 L23.497767,58 L28.497767,58 Z M11.7655339,8.23223305 L107.765534,104.232233 L104.23,107.767767 L8.23,11.767767 L11.7655339,8.23223305 Z M36.497767,41.5 L36.497767,58 C36.497767,69.8741221 46.1236448,79.5 57.997767,79.5 C62.0323065,79.5 65.8963743,78.3890485 69.250526,76.3240684 L69.6505549,76.0717015 L72.3645458,80.2710173 C68.1164876,83.01651 63.1638811,84.5 57.997767,84.5 C43.5085765,84.5 31.7353331,72.8716485 31.5013172,58.438226 L31.497767,58 L31.497767,41.5 L36.497767,41.5 Z M92.497767,58 C92.497767,64.7774219 90.537009,71.268456 86.9167425,76.820211 L86.5930082,77.3076175 L82.4515154,74.5061827 C85.6210479,69.8205138 87.3854,64.3256059 87.4925768,58.5588989 L87.497767,58 L92.497767,58 Z M81.997767,47.5 L81.997767,52.5 L69.997767,52.5 C69.1693398,52.5 68.497767,53.1715729 68.497767,54 C68.497767,54.7796961 69.092655,55.4204487 69.8533069,55.4931334 L69.997767,55.5 L84.497767,55.5 L84.497767,58 C84.497767,62.4237374 83.4105108,66.6948372 81.3656738,70.5076185 L81.1050911,70.981807 L76.7479551,68.5291827 C78.0477025,66.2201555 78.9073984,63.6953213 79.2825081,61.05602 L79.353767,60.5 L69.997767,60.5 C66.4859563,60.5 63.6246164,57.7150038 63.50187,54.2331341 L63.497767,54 C63.497767,50.4881894 66.2827632,47.6268494 69.7646328,47.504103 L69.997767,47.5 L81.997767,47.5 Z M57.997767,7.5 C72.4869574,7.5 84.2602008,19.1283515 84.4942167,33.561774 L84.497767,34 L84.497767,36.5 L69.997767,36.5 C69.1693398,36.5 68.497767,37.1715729 68.497767,38 C68.497767,38.7796961 69.092655,39.4204487 69.8533069,39.4931334 L69.997767,39.5 L81.997767,39.5 L81.997767,44.5 L69.997767,44.5 C66.4079161,44.5 63.497767,41.5898509 63.497767,38 C63.497767,34.4881894 66.2827632,31.6268494 69.7646328,31.504103 L69.997767,31.5 L79.353767,31.5 L79.3167274,31.1971543 C77.958167,20.7620149 69.1171705,12.6774 58.3533088,12.5028804 L57.997767,12.5 C48.8920378,12.5 40.8756306,18.2129019 37.8032482,26.6031256 L37.6727934,26.9695958 L32.9474005,25.3353799 C36.6095977,14.7460067 46.6122842,7.5 57.997767,7.5 Z" id="Shape" fill="#000000" fill-rule="nonzero"></path>
    </g>
</svg>