<?xml version="1.0" encoding="UTF-8"?>
<svg   viewBox="0 0 116 116" version="1.1" xmlns="http://www.w3.org/2000/svg" xmlns:xlink="http://www.w3.org/1999/xlink">
    <title>microphone</title>
    <g id="microphone" stroke="none" stroke-width="1" fill="none" fill-rule="evenodd">
        <path d="M50,103.5 L50,108.5 L34,108.5 L34,103.5 L50,103.5 Z M28.5,58 C28.5,74.2924001 41.7075999,87.5 58,87.5 C74.1294761,87.5 87.2355395,74.5552314 87.4960478,58.4878364 L87.5,58 L92.5,58 C92.5,76.2128744 78.3871842,91.129524 60.5007483,92.4107531 L60.5,103.5 L82,103.5 L82,108.5 L55.5,108.5 L55.4999708,92.4108046 C37.8003183,91.1433238 23.795706,76.5237332 23.504622,58.5705206 L23.5,58 L28.5,58 Z M58,7.5 C72.4891904,7.5 84.2624338,19.1283515 84.4964498,33.561774 L84.5,34 L84.5,36.5 L70,36.5 C69.1715729,36.5 68.5,37.1715729 68.5,38 C68.5,38.7796961 69.0948881,39.4204487 69.85554,39.4931334 L70,39.5 L82,39.5 L82,44.5 L70,44.5 C66.4101491,44.5 63.5,41.5898509 63.5,38 C63.5,34.4881894 66.2849962,31.6268494 69.7668659,31.504103 L70,31.5 L79.356,31.5 L79.3189605,31.1971543 C77.9604,20.7620149 69.1194035,12.6774 58.3555418,12.5028804 L58,12.5 C46.2446191,12.5 36.6927424,21.9343229 36.5028804,33.6444582 L36.5,34 L36.5,58 C36.5,69.8741221 46.1258779,79.5 58,79.5 C68.9241924,79.5 77.9454708,71.352657 79.3189605,60.8028457 L79.356,60.5 L70,60.5 C66.4881894,60.5 63.6268494,57.7150038 63.504103,54.2331341 L63.5,54 C63.5,50.4881894 66.2849962,47.6268494 69.7668659,47.504103 L70,47.5 L82,47.5 L82,52.5 L70,52.5 C69.1715729,52.5 68.5,53.1715729 68.5,54 C68.5,54.7796961 69.0948881,55.4204487 69.85554,55.4931334 L70,55.5 L84.5,55.5 L84.5,58 C84.5,72.6355459 72.6355459,84.5 58,84.5 C43.5108096,84.5 31.7375662,72.8716485 31.5035502,58.438226 L31.5,58 L31.5,34 C31.5,19.3644541 43.3644541,7.5 58,7.5 Z" id="Shape" fill="#000000" fill-rule="nonzero"></path>
    </g>
</svg>