<?xml version="1.0" encoding="UTF-8"?>
<svg  viewBox="0 0 116 116" version="1.1" xmlns="http://www.w3.org/2000/svg" xmlns:xlink="http://www.w3.org/1999/xlink">
    <title>microphone-off</title>
    <g id="microphone-off" stroke="none" stroke-width="1" fill="none" fill-rule="evenodd">
        <path d="M50.5,104 L50.5,109 L34.5,109 L34.5,104 L50.5,104 Z M29,58.5 C29,74.7924001 42.2075999,88 58.5,88 C63.7179486,88 68.7317297,86.6454328 73.1519067,84.1104229 L73.6232079,83.8343056 L76.1904502,88.1249078 C71.5902228,90.8774114 66.4128513,92.5224606 61.0001632,92.9106315 L61,104 L82.5,104 L82.5,109 L56,109 L55.9995134,92.9107719 C38.300077,91.6430719 24.2957035,77.0235785 24.004622,59.0705206 L24,58.5 L29,58.5 Z M11.767767,8.23223305 L107.767767,104.232233 L104.232233,107.767767 L8.23223305,11.767767 L11.767767,8.23223305 Z M36.5,44.5 L36.5,58.5 C36.5,70.262148 46.0116053,79.5 58,79.5 C61.3769216,79.5 64.6668453,78.7625525 67.6575399,77.3658914 L68.1272373,77.1398992 L70.3469731,81.620164 C66.5457087,83.5034908 62.3282116,84.5 58,84.5 C43.4295073,84.5 31.7359401,73.2844965 31.5035259,58.9357609 L31.5,58.5 L31.5,44.5 L36.5,44.5 Z M93,58.5 C93,64.2042444 91.6120629,69.7126612 88.9984146,74.6412078 L88.713698,75.16703 L84.337673,72.7482688 C86.6398601,68.58315 87.9042727,63.9162223 87.9947748,59.0610319 L88,58.5 L93,58.5 Z M82.5,44 L82.5,49 L72.5,49 C70.5670034,49 69,50.5670034 69,52.5 C69,54.3685634 70.4642776,55.8951264 72.3079648,55.9948211 L72.5,56 L85,56 L85,58.5 C85,62.3258156 84.1529996,66.0141258 82.54114,69.3831304 L82.3056801,69.862225 L77.8418257,67.6096701 C78.8633238,65.5853826 79.535039,63.4133166 79.8293948,61.1495475 L79.846,61 L72.5,61 C67.8909327,61 64.1386785,57.331547 64.0037566,52.7551603 L64,52.5 C64,47.8909327 67.668453,44.1386785 72.2448397,44.0037566 L72.5,44 L82.5,44 Z M58.5,7.5 C72.9891904,7.5 84.7624338,19.1283515 84.9964498,33.561774 L85,34 L85,36.5 L70.5,36.5 C69.7203039,36.5 69.0795513,37.0948881 69.0068666,37.85554 L69,38 L69,38.5 L64,38.5 L64,38 C64,34.4881894 66.7849962,31.6268494 70.2668659,31.504103 L70.5,31.5 L79.856,31.5 L79.8189605,31.1971543 C78.4604,20.7620149 69.6194035,12.6774 58.8555418,12.5028804 L58.5,12.5 C50.7775232,12.5 43.5243392,16.8274039 39.5371696,23.5650553 L39.3303494,23.9218837 L34.981913,21.4538681 C39.7926393,12.9777718 48.8054202,7.5 58.5,7.5 Z" id="Shape" fill="#000000" fill-rule="nonzero"></path>
    </g>
</svg>