<?xml version="1.0" encoding="UTF-8"?>
<svg  viewBox="0 0 116 116" version="1.1" xmlns="http://www.w3.org/2000/svg" xmlns:xlink="http://www.w3.org/1999/xlink">
    <title>microphone</title>
    <g id="microphone" stroke="none" stroke-width="1" fill="none" fill-rule="evenodd">
        <path d="M50.5,104 L50.5,109 L34.5,109 L34.5,104 L50.5,104 Z M29,58.5 C29,74.7924001 42.2075999,88 58.5,88 C74.6294761,88 87.7355395,75.0552314 87.9960478,58.9878364 L88,58.5 L93,58.5 C93,76.7128744 78.8871842,91.629524 61.0007483,92.9107531 L61,104 L82.5,104 L82.5,109 L56,109 L55.9999708,92.9108046 C38.3003183,91.6433238 24.295706,77.0237332 24.004622,59.0705206 L24,58.5 L29,58.5 Z M58.5,7.5 C72.9891904,7.5 84.7624338,19.1283515 84.9964498,33.561774 L85,34 L85,36.5 L70.5,36.5 C69.7203039,36.5 69.0795513,37.0948881 69.0068666,37.85554 L69,38 L69,38.5 L64,38.5 L64,38 C64,34.4881894 66.7849962,31.6268494 70.2668659,31.504103 L70.5,31.5 L79.856,31.5 L79.8189605,31.1971543 C78.4604,20.7620149 69.6194035,12.6774 58.8555418,12.5028804 L58.5,12.5 C46.7446191,12.5 36.7026924,22.4243729 36.5030294,34.1443092 L36.5,34.5 L36.5,58.5 C36.5,70.262148 46.0116053,79.5 58,79.5 C69.133543,79.5 78.4021669,71.5908189 79.813892,61.2493485 L79.845,61 L72.5,61 C67.8909327,61 64.1386785,57.331547 64.0037566,52.7551603 L64,52.5 C64,47.8909327 67.668453,44.1386785 72.2448397,44.0037566 L72.5,44 L82.5,44 L82.5,49 L72.5,49 C70.5670034,49 69,50.5670034 69,52.5 C69,54.3685634 70.4642776,55.8951264 72.3079648,55.9948211 L72.5,56 L85,56 L85,58.5 C85,72.9833489 72.8007829,84.5 58,84.5 C43.4295073,84.5 31.7359401,73.2844965 31.5035259,58.9357609 L31.5,58.5 L31.5,34.5 C31.5,19.8644541 43.8644541,7.5 58.5,7.5 Z" id="Shape" fill="#000000" fill-rule="nonzero"></path>
    </g>
</svg>