<?xml version="1.0" encoding="UTF-8"?>
<svg   viewBox="0 0 128 128" version="1.1" xmlns="http://www.w3.org/2000/svg" xmlns:xlink="http://www.w3.org/1999/xlink">
    <title>microphone-off</title>
    <g id="microphone-off" stroke="none" stroke-width="1" fill="none" fill-rule="evenodd">
        <path d="M56,109.5 L56,114.5 L40,114.5 L40,109.5 L56,109.5 Z M34.5,64 C34.5,80.2924001 47.7075999,93.5 64,93.5 C70.0742219,93.5 75.8656865,91.6624814 80.748052,88.2884128 L81.2030913,87.9676015 L84.1223181,92.0269259 C78.9692971,95.7326749 72.9041237,97.9511593 66.4999632,98.4105973 L66.5,109.5 L80,109.5 L80,114.5 L61.5,114.5 L61.4995134,98.4107719 C43.800077,97.1430719 29.7957035,82.5235785 29.504622,64.5705206 L29.5,64 L34.5,64 Z M17.767767,14.232233 L113.767767,110.232233 L110.232233,113.767767 L14.232233,17.767767 L17.767767,14.232233 Z M42.5,47.5 L42.5,64 C42.5,75.8741221 52.1258779,85.5 64,85.5 C68.0345395,85.5 71.8986073,84.3890485 75.2527591,82.3240684 L75.652788,82.0717015 L78.3667788,86.2710173 C74.1187207,89.01651 69.1661141,90.5 64,90.5 C49.5108096,90.5 37.7375662,78.8716485 37.5035502,64.438226 L37.5,64 L37.5,47.5 L42.5,47.5 Z M98.5,64 C98.5,70.7774219 96.5392421,77.268456 92.9189756,82.820211 L92.5952413,83.3076175 L88.4537484,80.5061827 C91.6232809,75.8205138 93.387633,70.3256059 93.4948098,64.5588989 L93.5,64 L98.5,64 Z M88,53.5 L88,58.5 L76,58.5 C75.1715729,58.5 74.5,59.1715729 74.5,60 C74.5,60.7796961 75.0948881,61.4204487 75.85554,61.4931334 L76,61.5 L90.5,61.5 L90.5,64 C90.5,68.4237374 89.4127439,72.6948372 87.3679068,76.5076185 L87.1073242,76.981807 L82.7501882,74.5291827 C84.0499355,72.2201555 84.9096315,69.6953213 85.2847412,67.05602 L85.356,66.5 L76,66.5 C72.4881894,66.5 69.6268494,63.7150038 69.504103,60.2331341 L69.5,60 C69.5,56.4881894 72.2849962,53.6268494 75.7668659,53.504103 L76,53.5 L88,53.5 Z M64,13.5 C78.4891904,13.5 90.2624338,25.1283515 90.4964498,39.561774 L90.5,40 L90.5,42.5 L76,42.5 C75.1715729,42.5 74.5,43.1715729 74.5,44 C74.5,44.7796961 75.0948881,45.4204487 75.85554,45.4931334 L76,45.5 L88,45.5 L88,50.5 L76,50.5 C72.4101491,50.5 69.5,47.5898509 69.5,44 C69.5,40.4881894 72.2849962,37.6268494 75.7668659,37.504103 L76,37.5 L85.356,37.5 L85.3189605,37.1971543 C83.9604,26.7620149 75.1194035,18.6774 64.3555418,18.5028804 L64,18.5 C54.8942708,18.5 46.8778636,24.2129019 43.8054813,32.6031256 L43.6750265,32.9695958 L38.9496335,31.3353799 C42.6118308,20.7460067 52.6145173,13.5 64,13.5 Z" id="Shape" fill="#000000" fill-rule="nonzero"></path>
    </g>
</svg>