<?xml version="1.0" encoding="UTF-8"?>
<svg   viewBox="0 0 128 128" version="1.1" xmlns="http://www.w3.org/2000/svg" xmlns:xlink="http://www.w3.org/1999/xlink">
    <title>microphone</title>
    <g id="microphone" stroke="none" stroke-width="1" fill="none" fill-rule="evenodd">
        <path d="M56,109.5 L56,114.5 L40,114.5 L40,109.5 L56,109.5 Z M34.5,64 C34.5,80.2924001 47.7075999,93.5 64,93.5 C80.1294761,93.5 93.2355395,80.5552314 93.4960478,64.4878364 L93.5,64 L98.5,64 C98.5,82.2128744 84.3871842,97.129524 66.5007483,98.4107531 L66.5,109.5 L88,109.5 L88,114.5 L61.5,114.5 L61.4999708,98.4108046 C43.8003183,97.1433238 29.795706,82.5237332 29.504622,64.5705206 L29.5,64 L34.5,64 Z M64,13.5 C78.4891904,13.5 90.2624338,25.1283515 90.4964498,39.561774 L90.5,40 L90.5,42.5 L76,42.5 C75.1715729,42.5 74.5,43.1715729 74.5,44 C74.5,44.7796961 75.0948881,45.4204487 75.85554,45.4931334 L76,45.5 L88,45.5 L88,50.5 L76,50.5 C72.4101491,50.5 69.5,47.5898509 69.5,44 C69.5,40.4881894 72.2849962,37.6268494 75.7668659,37.504103 L76,37.5 L85.356,37.5 L85.3189605,37.1971543 C83.9604,26.7620149 75.1194035,18.6774 64.3555418,18.5028804 L64,18.5 C52.2446191,18.5 42.6927424,27.9343229 42.5028804,39.6444582 L42.5,40 L42.5,64 C42.5,75.8741221 52.1258779,85.5 64,85.5 C74.9241924,85.5 83.9454708,77.352657 85.3189605,66.8028457 L85.356,66.5 L76,66.5 C72.4881894,66.5 69.6268494,63.7150038 69.504103,60.2331341 L69.5,60 C69.5,56.4881894 72.2849962,53.6268494 75.7668659,53.504103 L76,53.5 L88,53.5 L88,58.5 L76,58.5 C75.1715729,58.5 74.5,59.1715729 74.5,60 C74.5,60.7796961 75.0948881,61.4204487 75.85554,61.4931334 L76,61.5 L90.5,61.5 L90.5,64 C90.5,78.6355459 78.6355459,90.5 64,90.5 C49.5108096,90.5 37.7375662,78.8716485 37.5035502,64.438226 L37.5,64 L37.5,40 C37.5,25.3644541 49.3644541,13.5 64,13.5 Z" id="Shape" fill="#000000" fill-rule="nonzero"></path>
    </g>
</svg>