<?xml version="1.0" encoding="UTF-8"?>
<svg  viewBox="0 0 117 116" version="1.1" xmlns="http://www.w3.org/2000/svg" xmlns:xlink="http://www.w3.org/1999/xlink">
    <title>moon</title>
    <g id="moon" stroke="none" stroke-width="1" fill="none" fill-rule="evenodd" transform="translate(0.000000, 0.000000)">
        <path d="M58.5,8 C62.059945,8 65.5734625,8.3687555 69.0002791,9.09365326 L69.7895255,9.26725367 L68.6761545,14.1417183 C65.3649801,13.3854166 61.9584855,13 58.5,13 C33.3710439,13 13,33.3710439 13,58.5 C13,83.6289561 33.3710439,104 58.5,104 C75.7574808,104 91.1747433,94.303545 98.8759739,79.5039807 L99.127,79.012 L98.9575904,79.1215365 C93.0614162,82.8275441 86.221747,84.8924569 79.0656047,84.9959133 L78.5,85 C57.2370371,85 40,67.7629629 40,46.5 C40,33.725239 46.271424,22.0089904 56.5505963,14.8661142 L56.9695095,14.5790523 L59.7688883,18.7219352 C50.6033014,24.9151948 45,35.2310753 45,46.5 C45,65.0015391 59.9984609,80 78.5,80 C86.372942,80 93.8194499,77.2779541 99.7658269,72.3860098 L100.280355,71.9535353 L100.523396,71.73938 C101.943942,70.4681822 104.126033,70.589232 105.397251,72.0097675 C106.240536,72.9521036 106.501002,74.2801409 106.076136,75.4711973 C98.9622172,95.4141799 80.0206678,109 58.5,109 C30.6096201,109 8,86.3903799 8,58.5 C8,30.6096201 30.6096201,8 58.5,8 Z" id="Path" fill="#000000" fill-rule="nonzero"></path>
    </g>
</svg>