<?xml version="1.0" encoding="UTF-8"?>
<svg  viewBox="0 0 116 116" version="1.1" xmlns="http://www.w3.org/2000/svg" xmlns:xlink="http://www.w3.org/1999/xlink">
    <title>motorcycle</title>
    <g id="motorcycle" stroke="none" stroke-width="1" fill="none" fill-rule="evenodd">
        <path d="M32.6114562,40 C34.1161394,40 35.6017479,40.3233809 36.968142,40.946503 L37.3071989,41.1085145 L49.928869,47.4193496 C50.6077178,47.7587739 51.3485257,47.9535627 52.1044536,47.9926587 L52.3885438,48 L66.5,48 L66.5,53 L52.3885438,53 C50.8838606,53 49.3982521,52.6766191 48.031858,52.053497 L47.6928011,51.8914855 L35.071131,45.5806504 C34.3922822,45.2412261 33.6514743,45.0464373 32.8955464,45.0073413 L32.6114562,45 L18.5,45 C16.4255646,45 14.6193646,46.1484522 13.6825236,47.8442329 L13.599,48 L18.5,48 C32.9891904,48 44.7624338,59.6283515 44.9964498,74.061774 L45,74.5 L45,79.5 C45,79.7454599 45.1768752,79.9496084 45.4101244,79.9919443 L45.5,80 L74.5,80 L74.5,85 L45.5,85 C44.3351643,85 43.2549042,84.6378884 42.3656485,84.0200937 C39.1308473,89.400146 33.2358191,93 26.5,93 C21.1588823,93 16.1829583,90.7202073 12.7012563,86.8228051 L12.4363993,86.5198255 L16.2359957,83.2697383 C18.7874923,86.2526297 22.4989961,88 26.5,88 C33.9558441,88 40,81.9558441 40,74.5 C40,67.0441559 33.9558441,61 26.5,61 C19.1477093,61 13.1681655,66.8774286 13.0034854,74.1901692 L13,74.5 L8,74.5 C8,64.2827321 16.2827321,56 26.5,56 C27.696108,56 28.8657037,56.1135128 29.9986022,56.3303535 C26.7667625,54.2803806 22.9502872,53.0692704 18.8555418,53.0028804 L18.5,53 L8,53 L8,50.5 C8,44.7960755 12.548142,40.1544266 18.2157049,40.0037742 L18.5,40 L32.6114562,40 Z M72.8944487,24 C74.649803,24 76.2942965,24.8374046 77.3273585,26.2443163 L77.4707253,26.4491489 L88,42.243 L88,39.854102 C88,37.8509805 89.0882147,36.0131689 90.8284013,35.0465231 L91.0403252,34.9347524 L93.381966,33.763932 L93.5883731,33.6661659 L93.7968488,33.578093 L94.0071283,33.4996251 C94.6843847,33.2631872 95.3853988,33.1736866 96.0707903,33.2179966 L96.3801348,33.2472119 C97.0573647,33.3298308 97.6948796,33.541062 98.2675137,33.8557399 L98.5532714,34.0245988 L98.7318988,34.1426654 L98.9059702,34.268217 C99.2264864,34.509511 99.5218048,34.7894651 99.7841693,35.1054939 L99.982,35.36 C100.543102,36.1255647 100.901645,37.0437415 100.98255,38.0404117 L100.995609,38.2551571 L101,38.472136 L101,49.645898 L100.992659,49.9299883 L100.982641,50.0860952 C100.916197,50.9251313 100.661463,51.7111685 100.26069,52.4019533 L100.072484,52.7034812 L99.9427107,52.8896389 L99.8062879,53.0690817 C99.5828285,53.3507728 99.3348199,53.606351 99.0669828,53.8342429 L98.8472678,54.0103976 L98.6812508,54.1330466 L98.5062692,54.252645 L98.3353361,54.3596993 C97.9213563,54.6092422 97.4718267,54.8057918 96.9961399,54.9399558 L96.7907,54.9936077 L96.5822215,55.0394563 L96.3708686,55.0773372 L96.1568058,55.1070861 L95.8590329,55.1350571 C95.2067053,55.1783406 94.5406803,55.1056181 93.8920759,54.9065171 L93.6765623,54.8354552 L93.4625953,54.7549466 L93.2504309,54.6649058 L93.0403252,54.5652476 L89.924,53.008 L89.7903096,53.011492 C79.1871924,53.3553677 70.5246708,61.3766868 69.1810395,71.6971543 L69.143,72 L72.168,72 L72.187727,71.8545025 C73.4557915,62.9984417 80.9961104,56.1663357 90.1638763,56.0029922 L90.5,56 C100.717268,56 109,64.2827321 109,74.5 C109,84.7172679 100.717268,93 90.5,93 C85.1588823,93 80.1829583,90.7202073 76.7012563,86.8228051 L76.4363993,86.5198255 L80.2359957,83.2697383 C82.7874923,86.2526297 86.4989961,88 90.5,88 C97.9558441,88 104,81.9558441 104,74.5 C104,67.0441559 97.9558441,61 90.5,61 C83.1477093,61 77.1681655,66.8774286 77.0034854,74.1901692 L77,74.5 L77,77 L64,77 L64,74.5 C64,61.4743642 73.3978341,50.6437101 85.7829638,48.4185764 L86.074,48.368 L73.3104739,29.2226499 C73.2362876,29.1113704 73.1215363,29.0356422 72.9930088,29.0098021 L72.8944487,29 L58.5,29 L58.5,24 L72.8944487,24 Z M95.735,38.208 L95.6752796,38.2152386 L95.618034,38.236068 L93.2763932,39.4068884 C93.1352332,39.4774684 93.0374001,39.609462 93.0087102,39.7610977 L93,39.854102 L93,42.5 L88.171,42.5 L92.211,48.56 L95.2763932,50.0931116 L95.354,50.124 L95.428,50.139 L95.514,50.144 L95.604,50.133 L95.646,50.122 L95.684,50.109 L95.762,50.07 L95.832,50.018 L95.892,49.954 L95.938,49.884 L95.971,49.81 L95.9919443,49.7357737 L96,49.645898 L96,38.472136 C96,38.4311618 95.9904602,38.3907504 95.972136,38.354102 C95.9628233,38.3354767 95.9516056,38.3184337 95.9388371,38.3030911 L95.898,38.264 L95.85,38.234 L95.793,38.215 L95.735,38.208 Z" id="Shape" fill="#000000" fill-rule="nonzero"></path>
    </g>
</svg>