<?xml version="1.0" encoding="UTF-8"?>
<svg   viewBox="0 0 116 116" version="1.1" xmlns="http://www.w3.org/2000/svg" xmlns:xlink="http://www.w3.org/1999/xlink">
    <title>mouse</title>
    <g id="mouse" stroke="none" stroke-width="1" fill="none" fill-rule="evenodd">
        <path d="M58.5,8 C77.3632856,8 92.6907157,23.1387972 92.995378,41.9294794 L93,42.5 L93,74.5 C93,93.5538239 77.5538239,109 58.5,109 C39.6367144,109 24.3092843,93.8612028 24.004622,75.0705206 L24,74.5 L24,50.5 L29,50.5 L29,74.5 C29,90.7924001 42.2075999,104 58.5,104 C74.6294761,104 87.7355395,91.0552314 87.9960478,74.9878364 L88,74.5 L88,42.5 C88,26.2075999 74.7924001,13 58.5,13 C42.3705239,13 29.2644605,25.9447686 29.0039522,42.0121636 L29,42.5 L24,42.5 C24,23.4461761 39.4461761,8 58.5,8 Z M55.5,18.5 L55.4994245,24.2995863 C50.9961163,25.3997537 47.631667,29.4043591 47.5037742,34.2157049 L47.5,34.5 L47.5,35 L52.5,35 L52.5,34.5 C52.5,31.5365209 54.84378,29.1204609 57.7787929,29.0043672 L58,29 L58.5,29 C61.4634791,29 63.8795391,31.34378 63.9956328,34.2787929 L64,34.5 L64,42.5 C64,45.4634791 61.65622,47.8795391 58.7212071,47.9956328 L58.5,48 L58,48 C55.0365209,48 52.6204609,45.65622 52.5043672,42.7212071 L52.5,42.5 L52.5,42 L47.5,42 L47.5,42.5 C47.5,47.4372796 50.9077045,51.5786471 55.4994245,52.7004137 L55.5,58.5 L60.5,58.5 L60.4997911,52.8097936 C65.2523347,51.8933707 68.8636349,47.7723825 68.9962258,42.7842951 L69,42.5 L69,34.5 C69,29.4615334 65.4511859,25.2519367 60.7167878,24.2344402 L60.5,24.19 L60.5,18.5 L55.5,18.5 Z" id="Shape" fill="#000000" fill-rule="nonzero"></path>
    </g>
</svg>