<?xml version="1.0" encoding="UTF-8"?>
<svg   viewBox="0 0 116 116" version="1.1" xmlns="http://www.w3.org/2000/svg" xmlns:xlink="http://www.w3.org/1999/xlink">
    <title>mouse</title>
    <g id="mouse" stroke="none" stroke-width="1" fill="none" fill-rule="evenodd">
        <path d="M58.5,8 C77.3632856,8 92.6907157,23.1387972 92.995378,41.9294794 L93,42.5 L93,74.5 C93,93.5538239 77.5538239,109 58.5,109 C39.6367144,109 24.3092843,93.8612028 24.004622,75.0705206 L24,74.5 L24,50.5 L29,50.5 L29,74.5 C29,90.7924001 42.2075999,104 58.5,104 C74.6294761,104 87.7355395,91.0552314 87.9960478,74.9878364 L88,74.5 L88,42.5 C88,26.2075999 74.7924001,13 58.5,13 C42.3705239,13 29.2644605,25.9447686 29.0039522,42.0121636 L29,42.5 L24,42.5 C24,23.4461761 39.4461761,8 58.5,8 Z M61,18.5 L61.0005755,24.2995863 C65.5038837,25.3997537 68.868333,29.4043591 68.9962258,34.2157049 L69,34.5 L69,35 L64,35 L64,34.5 C64,31.5365209 61.65622,29.1204609 58.7212071,29.0043672 L58.5,29 L58,29 C55.0365209,29 52.6204609,31.34378 52.5043672,34.2787929 L52.5,34.5 L52.5,42.5 C52.5,45.4634791 54.84378,47.8795391 57.7787929,47.9956328 L58,48 L58.5,48 C61.4634791,48 63.8795391,45.65622 63.9956328,42.7212071 L64,42.5 L64,42 L69,42 L69,42.5 C69,47.4372796 65.5922955,51.5786471 61.0005755,52.7004137 L61,58.5 L56,58.5 L56.0002089,52.8097936 C51.2476653,51.8933707 47.6363651,47.7723825 47.5037742,42.7842951 L47.5,42.5 L47.5,34.5 C47.5,29.4615334 51.0488141,25.2519367 55.7832122,24.2344402 L56,24.19 L56,18.5 L61,18.5 Z" id="Shape" fill="#000000" fill-rule="nonzero"></path>
    </g>
</svg>