<?xml version="1.0" encoding="UTF-8"?>
<svg   viewBox="0 0 116 116" version="1.1" xmlns="http://www.w3.org/2000/svg" xmlns:xlink="http://www.w3.org/1999/xlink">
    <title>mouse</title>
    <g id="mouse" stroke="none" stroke-width="1" fill="none" fill-rule="evenodd">
        <path d="M58.5,8 C77.3632856,8 92.6907157,23.1387972 92.995378,41.9294794 L93,42.5 L93,74.5 C93,93.5538239 77.5538239,109 58.5,109 C39.6367144,109 24.3092843,93.8612028 24.004622,75.0705206 L24,74.5 L24,50.5 L29,50.5 L29,74.5 C29,90.7924001 42.2075999,104 58.5,104 C74.6294761,104 87.7355395,91.0552314 87.9960478,74.9878364 L88,74.5 L88,42.5 C88,26.2075999 74.7924001,13 58.5,13 C45.0082882,13 33.3323857,22.1352832 29.961384,34.9993496 C29.3783513,37.2242586 29.0563823,39.522233 29.0067696,41.8611289 L29,42.5 L24,42.5 C24,39.5119943 24.380466,36.5719451 25.1246927,33.7319048 C29.0685077,18.6819275 42.7211926,8 58.5,8 Z M61,18.5 L61,29 L58,29 C57.2203039,29 56.5795513,29.5948881 56.5068666,30.35554 L56.5,30.5 L56.5,38.5 C56.5,39.2796961 57.0948881,39.9204487 57.85554,39.9931334 L58,40 L58.5,40 C59.2796961,40 59.9204487,39.4051119 59.9931334,38.64446 L60,38.5 L60,34 L65,34 L65,38.5 C65,41.153368 63.4101454,43.4354056 61.1310844,44.4454645 L61,44.5 L61,58.5 L56,58.5 L56.0005715,44.6866852 C53.459478,43.8660579 51.6024666,41.5233523 51.504103,38.7331341 L51.5,38.5 L51.5,30.5 C51.5,27.7000109 53.2704151,25.3135244 55.7528893,24.3988965 L56,24.313 L56,18.5 L61,18.5 Z" id="Shape" fill="#000000" fill-rule="nonzero"></path>
    </g>
</svg>