<?xml version="1.0" encoding="UTF-8"?>
<svg  viewBox="0 0 116 116" version="1.1" xmlns="http://www.w3.org/2000/svg" xmlns:xlink="http://www.w3.org/1999/xlink">
    <title>musical-notes</title>
    <g id="musical-notes" stroke="none" stroke-width="1" fill="none" fill-rule="evenodd">
        <path d="M100.769075,11.8518268 C100.891435,12.2189061 100.965811,12.5998461 100.990667,12.9851776 L101,13.2748518 L101,67 C100.980735,73.0292451 96.9684628,79.3874401 90.7315062,82.9883487 C81.9962925,88.0316267 71.5549948,86.7736565 67.4600363,79.6809803 C63.3650778,72.5883041 67.4962925,62.91689 76.2315062,57.873612 C80.8216661,55.2234819 85.9927322,54.251843 90.523619,55.129441 L90.9337203,55.2143217 L89.8575271,60.0971291 C86.4906954,59.3550639 82.4118504,60.0788913 78.7315062,62.203739 C72.161356,65.997017 69.2577048,72.7946335 71.7901633,77.1809803 C74.3226218,81.5673271 81.661356,82.4514996 88.2315062,78.6582216 C93.0513333,75.8754932 96.0641658,71.0258204 95.9935236,66.8268326 L95.9845317,66.553936 L95.9996683,66.5526309 L95.9996683,29.9686309 L67.2202983,39.5617986 L65.6391594,34.8183821 L95.9996683,24.6976309 L96,13.968 L55.3932028,27.5041638 C54.0261444,27.9598499 53.0847059,29.2033735 53.005426,30.6290699 L53,30.8245553 L53,91 L48,91 C48,89.8816036 47.679195,88.5949846 47.191343,87.75 C44.6588845,83.3636532 37.3201502,82.4794807 30.75,86.2727587 C24.1798498,90.0660367 21.2761986,96.8636532 23.808657,101.25 C26.3411155,105.636347 33.6798498,106.520519 40.25,102.727241 C41.7795782,101.844139 43.1435264,100.776586 44.2946404,99.5764199 L44.6335424,99.2124434 L48.3432037,102.564818 C46.772996,104.302374 44.88229,105.82629 42.75,107.057368 C34.0147863,112.100646 23.5734885,110.842676 19.47853,103.75 C15.3835715,96.6573238 19.5147863,86.9859096 28.25,81.9426316 C35.0714619,78.0042588 42.9333428,77.9085678 48.0008811,81.4333798 L48,30.8245553 C48,27.2573633 50.2255612,24.0803822 53.5538831,22.8514148 L53.812064,22.7607473 L95.0769751,9.00577693 C97.43472,8.21986196 99.9831599,9.4940819 100.769075,11.8518268 Z" id="Path" fill="#000000" fill-rule="nonzero"></path>
    </g>
</svg>