<?xml version="1.0" encoding="UTF-8"?>
<svg  viewBox="0 0 116 116" version="1.1" xmlns="http://www.w3.org/2000/svg" xmlns:xlink="http://www.w3.org/1999/xlink">
    <title>numbered-list</title>
    <g id="numbered-list" stroke="none" stroke-width="1" fill="none" fill-rule="evenodd">
        <path d="M16.8698007,74 C18.8027973,74 20.3698007,75.5670034 20.3698007,77.5 C20.3698007,78.4283229 20.0011761,79.3155011 19.3502578,79.969289 L19.1950741,80.1159326 L16.903,82.152 L17.0837658,82.1943103 C19.8357381,82.8833059 21.8922444,85.3266204 21.995897,88.2668659 L22,88.5 C22,92.0118106 19.2150038,94.8731506 15.7331341,94.995897 L15.5,95 L9.5,95 L9.5,90 L15.5,90 C16.3284271,90 17,89.3284271 17,88.5 C17,87.7203039 16.4051119,87.0795513 15.64446,87.0068666 L15.5,87 L13.1301993,87 C12.130467,87 11.1784527,86.5724827 10.5142667,85.8252734 C9.2759184,84.4321316 9.35269503,82.3253196 10.6551673,81.0251356 L10.8049259,80.8840674 L12.923,79 L9.5,79 L9.5,74 L16.8698007,74 Z M106.5,80 L106.5,85 L26.5,85 L26.5,80 L106.5,80 Z M14.5,49 C18.0898509,49 21,51.9101491 21,55.5 C21,59.0898509 18.0898509,62 14.5,62 C13.8664969,62 13.3247183,62.3927191 13.1048364,62.9479849 L13.086,63 L20.5,63 L20.5,68 L8,68 L8,63.5 C8,59.9101491 10.9101491,57 14.5,57 C15.3284271,57 16,56.3284271 16,55.5 C16,54.7203039 15.4051119,54.0795513 14.64446,54.0068666 L14.5,54 L9.5,54 L9.5,49 L14.5,49 Z M106.5,56 L106.5,61 L26.5,61 L26.5,56 L106.5,56 Z M15.8252734,26.5142667 C16.5191106,27.1310109 16.937295,27.9959335 16.9934957,28.9167888 L17,29.1301993 L17,38 L19.5,38 L19.5,43 L9.5,43 L9.5,38 L12,38 L12,32.333 L8.6314767,29.3390904 L10.8840674,26.8049259 C12.1682804,25.3601862 14.3805337,25.2300536 15.8252734,26.5142667 Z M106.5,32 L106.5,37 L26.5,37 L26.5,32 L106.5,32 Z" id="Shape" fill="#000000" fill-rule="nonzero"></path>
    </g>
</svg>