<?xml version="1.0" encoding="UTF-8"?>
<svg  viewBox="0 0 116 116" version="1.1" xmlns="http://www.w3.org/2000/svg" xmlns:xlink="http://www.w3.org/1999/xlink">
    <title>numpad</title>
    <g id="numpad" stroke="none" stroke-width="1" fill="none" fill-rule="evenodd">
        <path d="M58.5,65 C63.7467051,65 68,69.2532949 68,74.5 C68,79.6562447 63.8921061,83.8530394 58.7704787,83.9962236 L58.5,84 L58.5,79 C60.9852814,79 63,76.9852814 63,74.5 C63,72.0147186 60.9852814,70 58.5,70 C56.0857267,70 54.1155109,71.9012365 54.004898,74.2881643 L54,74.5 C54,74.5547592 54.0012665,74.6098816 54.0039783,74.6660089 L54.0166283,74.8380475 L54.0390223,75.0199665 L54.0722329,75.2156165 L54.1173326,75.4288482 L54.1753938,75.6635123 L54.2474889,75.9234596 L54.3346906,76.2125405 L54.558703,76.8935066 L54.9427958,77.9771818 L55.6430799,79.8833413 L55.8872589,80.5737131 L56.1002793,81.2102197 L56.1002793,81.2102197 C56.6881592,83.0228494 57,84.5352775 57,86 C57,87.3097144 56.8399434,88.4062529 56.431312,89.8490853 L56.2662504,90.4074727 L56.0768475,91.0048815 L55.8620662,91.6478678 L55.4900402,92.7121474 L55.1504608,93.6587763 L54.9175355,94.3229062 L54.7136376,94.9311631 L54.5377053,95.4894988 C54.158997,96.7386697 54,97.6287562 54,98.5 C54,101.16498 55.8911297,103 58.5,103 C60.9852814,103 63,100.985281 63,98.5 C63,96.0857267 61.0987635,94.1155109 58.7118357,94.004898 L58.5,94 L58.5,89 C63.7467051,89 68,93.2532949 68,98.5 C68,103.746705 63.7467051,108 58.5,108 C53.1628451,108 49,103.960665 49,98.5 C49,96.7124165 49.3500802,95.1493542 50.1559324,92.7935949 L50.9872408,90.4458898 L51.2702726,89.6114849 L51.429507,89.1144545 L51.5665054,88.6584866 C51.6085918,88.5127382 51.6471618,88.3729295 51.6824048,88.2381561 L51.7783425,87.8480378 C51.8215104,87.6596276 51.8576191,87.4805126 51.8873083,87.3076413 L51.9383166,86.9693192 L51.9733433,86.6422216 C51.9916198,86.4266926 52,86.2150298 52,86 C52,85.1554633 51.7845872,84.1107111 51.3441652,82.7527432 L51.2211954,82.3817715 L51.012781,81.7834626 L50.7562099,81.0776548 L50.291998,79.819931 L49.982805,78.9638011 L49.7245575,78.2207882 L49.5786829,77.7793105 L49.4524319,77.3746392 L49.3445971,77.001387 L49.2539709,76.6541668 L49.1793459,76.3275914 L49.1476565,76.1703621 L49.1476565,76.1703621 L49.0947691,75.864653 L49.0548642,75.566121 L49.0267341,75.2693787 L49.0167073,75.1199952 L49.0039756,74.8158367 L49.0009687,74.6597148 L49.0009687,74.6597148 L49,74.5 C49,69.2532949 53.2532949,65 58.5,65 Z M34.5,41 C39.8371549,41 44,45.0393346 44,50.5 C44,51.7880306 43.8448823,52.8519001 43.4541414,54.1931549 L43.2850876,54.7456396 L43.190778,55.0352064 L43.190778,55.0352064 L42.9253231,55.8051384 L42.9253231,55.8051384 L42.6156778,56.6519513 L41.9857274,58.3204579 L41.7872055,58.8686511 L41.5372794,59.6018187 L41.5372794,59.6018187 L41.4006559,60.0398902 L41.3408511,60.2459531 L41.3408511,60.2459531 L41.2374366,60.6358651 C41.0670368,61.3262905 41,61.8924771 41,62.5 C41,62.9186873 41.0542148,63.3696558 41.1643559,63.8726336 L41.2446646,64.217533 L41.3354036,64.5583163 L41.4447877,64.9204069 L41.6338353,65.4802801 L41.9669593,66.3887533 L42.4925708,67.771532 L42.7823559,68.5565738 C43.60038,70.8255876 43.9613077,72.3580231 43.9970341,74.1914619 L44,74.5 C44,79.7467051 39.7467051,84 34.5,84 C29.2532949,84 25,79.7467051 25,74.5 C25,69.3437553 29.1078939,65.1469606 34.2295213,65.0037764 L34.5,65 L34.5,70 C32.0147186,70 30,72.0147186 30,74.5 C30,76.9852814 32.0147186,79 34.5,79 C36.9142733,79 38.8844891,77.0987635 38.995102,74.7118357 L39,74.5 C39,73.4826474 38.8360207,72.5546501 38.420445,71.2544592 L38.2405885,70.7134384 C38.2083068,70.6195952 38.1748549,70.5238243 38.140207,70.4259889 L37.9177587,69.8131092 L37.0788354,67.5900967 L36.8652748,66.9954438 L36.7458394,66.6453642 L36.593915,66.1666684 L36.506597,65.8650059 L36.3893888,65.4156043 L36.2800885,64.9421812 C36.0967455,64.1049149 36,63.3001679 36,62.5 C36,61.2119694 36.1551177,60.1480999 36.5458586,58.8068451 L36.7149124,58.2543604 L36.809222,57.9647936 L36.809222,57.9647936 L37.0746769,57.1948616 L37.0746769,57.1948616 L37.3843222,56.3480487 L38.0142726,54.6795421 L38.2127945,54.1313489 L38.4627206,53.3981813 L38.4627206,53.3981813 L38.5993441,52.9601098 L38.6591489,52.7540469 L38.6591489,52.7540469 L38.7625634,52.3641349 C38.9329632,51.6737095 39,51.1075229 39,50.5 C39,47.8350203 37.1088703,46 34.5,46 C32.0147186,46 30,48.0147186 30,50.5 C30,52.9142733 31.9012365,54.8844891 34.2881643,54.995102 L34.5,55 L34.5,60 C29.2532949,60 25,55.7467051 25,50.5 C25,45.2532949 29.2532949,41 34.5,41 Z M82.5,65 C87.7467051,65 92,69.2532949 92,74.5 C92,79.7467051 87.7467051,84 82.5,84 C80.8324683,84 79.2113239,83.580855 77.0438436,82.7315259 L76.3235679,82.4421934 L74.2766723,81.590915 L73.564423,81.3059454 L73.1422472,81.1437597 L72.7579128,81.0025696 L72.4077477,80.8813125 L72.0880798,80.778926 L71.795237,80.6943474 L71.525547,80.6265142 L71.3982368,80.5985451 L71.3982368,80.5985451 L71.1563909,80.5538378 L71.0409372,80.536834 L71.0409372,80.536834 L70.8186731,80.5128618 C70.7461998,80.5070126 70.6751372,80.503246 70.6048733,80.5013848 L70.5,80.5 L70.5,75.5 C71.6294814,75.5 72.5583759,75.6534269 73.8513907,76.0824139 L74.4472581,76.2899394 L74.4472581,76.2899394 L75.1011486,76.5355514 L75.3813651,76.6449826 L75.3813651,76.6449826 L75.9775802,76.8838417 L78.5019662,77.9305218 C80.327148,78.6670454 81.5370109,79 82.5,79 C84.9852814,79 87,76.9852814 87,74.5 C87,72.0147186 84.9852814,70 82.5,70 C80.0857267,70 78.1155109,71.9012365 78.004898,74.2881643 L78,74.5 L73,74.5 C73,69.2532949 77.2532949,65 82.5,65 Z M82.5,41 C87.7467051,41 92,45.2532949 92,50.5 C92,55.786213 87.8419339,60 82.5,60 C80.9155381,60 79.6621232,59.7235125 77.7663363,58.9884875 L77.1773556,58.7540419 L76.5439921,58.4909916 L75.8604053,58.1982445 L74.8852916,57.7748699 L74.3269005,57.538685 L73.5802849,57.2365471 L73.5802849,57.2365471 L73.135998,57.0679683 L72.7287242,56.924136 L72.3535328,56.803738 C72.0528714,56.7128063 71.7804931,56.6449187 71.5235577,56.5966585 L71.221826,56.5479489 L70.929989,56.5167696 C70.8338112,56.5091524 70.7384608,56.5042383 70.6431159,56.5018086 L70.5,56.5 C70.3566828,56.5 70.2142777,56.5053439 70.070011,56.5167696 L69.778174,56.5479489 L69.4764423,56.5966585 C69.2195069,56.6449187 68.9471286,56.7128063 68.6464672,56.803738 L68.2712758,56.924136 L67.864002,57.0679683 L67.4197151,57.2365471 L66.9334845,57.4311844 L66.1147084,57.7748699 L64.7911584,58.3483985 L63.8226444,58.7540419 L63.8226444,58.7540419 L63.2336637,58.9884875 C61.4326661,59.6867613 60.2114093,59.9712049 58.7353081,59.9979036 L58.5,60 C53.2532949,60 49,55.7467051 49,50.5 C49,45.2532949 53.2532949,41 58.5,41 C63.6562447,41 67.8530394,45.1078939 67.9962236,50.2295213 L68,50.5 L63,50.5 C63,48.0147186 60.9852814,46 58.5,46 C56.0147186,46 54,48.0147186 54,50.5 C54,52.9142733 55.9012365,54.8844891 58.2881643,54.995102 L58.5,55 C58.6433172,55 58.7857223,54.9946561 58.929989,54.9832304 L59.221826,54.9520511 L59.5235577,54.9033415 C59.7804931,54.8550813 60.0528714,54.7871937 60.3535328,54.696262 L60.7287242,54.575864 L61.135998,54.4320317 L61.5802849,54.2634529 L62.0665155,54.0688156 L62.8852916,53.7251301 L64.2088416,53.1516015 L65.1773556,52.7459581 L65.1773556,52.7459581 L65.7663363,52.5115125 C67.6621232,51.7764875 68.9155381,51.5 70.5,51.5 C72.0844619,51.5 73.3378768,51.7764875 75.2336637,52.5115125 L75.8226444,52.7459581 L76.4560079,53.0090084 L77.1395947,53.3017555 L78.1147084,53.7251301 L78.6730995,53.961315 L79.4197151,54.2634529 L79.4197151,54.2634529 L79.864002,54.4320317 L80.2712758,54.575864 L80.6464672,54.696262 C80.9471286,54.7871937 81.2195069,54.8550813 81.4764423,54.9033415 L81.778174,54.9520511 L82.070011,54.9832304 C82.2142777,54.9946561 82.3566828,55 82.5,55 C85.0655018,55 87,53.0395782 87,50.5 C87,48.0147186 84.9852814,46 82.5,46 C80.0857267,46 78.1155109,47.9012365 78.004898,50.2881643 L78,50.5 L73,50.5 C73,45.2532949 77.2532949,41 82.5,41 Z M58.5,17 C63.7467051,17 68,21.2532949 68,26.5 C68,31.6562447 63.8921061,35.8530394 58.7704787,35.9962236 L58.5,36 C56.1231225,36 54.3059314,35.5380828 51.7446375,34.4960387 L50.1264288,33.8208187 L49.576079,33.6009003 L49.576079,33.6009003 L49.1002289,33.4251919 C48.2690371,33.1339387 47.6170579,33 47,33 C46.7178343,33 46.4444672,33.012926 46.1653756,33.0417957 L45.8267886,33.0842856 C45.5979929,33.1179717 45.3618157,33.1626344 45.1108213,33.2198188 L44.7222874,33.3151798 L44.5179431,33.3702659 L44.5179431,33.3702659 L44.0856141,33.4959736 L43.6171175,33.6433609 L43.1068763,33.8135867 L42.5493139,34.0078098 L40.4822419,34.7543058 L39.801543,34.9895867 L39.1702695,35.1970249 L38.5810701,35.3777656 C37.0594364,35.825162 35.9081809,36 34.5,36 C28.9202698,36 25,31.8902027 25,26.5 C25,21.2532949 29.2532949,17 34.5,17 C39.6562447,17 43.8530394,21.1078939 43.9962236,26.2295213 L44,26.5 L39,26.5 C39,24.0147186 36.9852814,22 34.5,22 C32.0147186,22 30,24.0147186 30,26.5 C30,29.1802024 31.7358757,31 34.5,31 C34.7821657,31 35.0555328,30.987074 35.3346244,30.9582043 L35.6732114,30.9157144 C35.9020071,30.8820283 36.1381843,30.8373656 36.3891787,30.7801812 L36.7777126,30.6848202 L36.9820569,30.6297341 L36.9820569,30.6297341 L37.4143859,30.5040264 L37.8828825,30.3566391 L38.3931237,30.1864133 L38.9506861,29.9921902 L41.0177581,29.2456942 L41.698457,29.0104133 L42.3297305,28.8029751 L42.9189299,28.6222344 C44.4405636,28.174838 45.5918191,28 47,28 C48.2474051,28 49.4318854,28.2433326 50.7536806,28.7064953 L50.9921186,28.7918072 L51.4865582,28.9790366 L52.3020488,29.3100041 L53.2153452,29.6938975 C55.3324252,30.580117 56.6348507,30.9551214 58.2026618,30.996173 L58.5,31 C60.9852814,31 63,28.9852814 63,26.5 C63,24.0147186 60.9852814,22 58.5,22 C56.0857267,22 54.1155109,23.9012365 54.004898,26.2881643 L54,26.5 L49,26.5 C49,21.2532949 53.2532949,17 58.5,17 Z M82.5,17 C87.7467051,17 92,21.2532949 92,26.5 C92,31.7467051 87.7467051,36 82.5,36 C81.2583028,36 80.2287043,35.8437622 78.840687,35.4336198 L78.1616261,35.2223964 L78.1616261,35.2223964 L77.4170044,34.9717445 L76.7653281,34.7413323 L76.0566499,34.4831107 L74.7082908,33.985788 L74.0069359,33.7389958 L73.7470807,33.6520951 C72.518475,33.2470828 71.5609256,33.036652 70.7250589,33.0043928 L70.5,33 L70.5,28 C71.8863878,28 73.261215,28.260174 74.868254,28.7609381 L75.4617536,28.9529992 L76.0571021,29.1578358 L76.9577874,29.4848059 L78.0298386,29.8810772 L78.5846187,30.0812973 L79.0906748,30.2585129 L79.5526823,30.4137902 L79.9753166,30.5481955 L80.5456707,30.713001 L80.5456707,30.713001 L80.8903267,30.7998913 C81.1673035,30.8650102 81.4203121,30.9122748 81.661528,30.9444621 L81.9461059,30.9760273 L82.2240381,30.9941845 L82.5,31 C84.9852814,31 87,28.9852814 87,26.5 C87,24.0147186 84.9852814,22 82.5,22 C80.0857267,22 78.1155109,23.9012365 78.004898,26.2881643 L78,26.5 L73,26.5 C73,21.2532949 77.2532949,17 82.5,17 Z" id="Shape" fill="#000000" fill-rule="nonzero"></path>
    </g>
</svg>