<?xml version="1.0" encoding="UTF-8"?>
<svg  viewBox="0 0 116 116" version="1.1" xmlns="http://www.w3.org/2000/svg" xmlns:xlink="http://www.w3.org/1999/xlink">
    <title>paperclip</title>
    <g id="paperclip" stroke="none" stroke-width="1" fill="none" fill-rule="evenodd">
        <path d="M82.5,85 L82.5,80 L34.5,80 C22.6258779,80 13,70.3741221 13,58.5 C13,46.7446191 22.4343229,37.1927424 34.1444582,37.0028804 L34.5,37 L90.5,37 C97.9558441,37 104,43.0441559 104,50.5 C104,57.8522907 98.1225714,63.8318345 90.8098308,63.9965146 L90.5,64 L34.5,64 C31.4624339,64 29,61.5375661 29,58.5 C29,55.5365209 31.34378,53.1204609 34.2787929,53.0043672 L34.5,53 L82.5,53 L82.5,48 L34.5,48 C28.7010101,48 24,52.7010101 24,58.5 C24,64.2039245 28.548142,68.8455734 34.2157049,68.9962258 L34.5,69 L90.5,69 C100.717268,69 109,60.7172679 109,50.5 C109,40.3950098 100.898306,32.1822717 90.8361237,32.0029922 L90.5,32 L34.5,32 C19.8644541,32 8,43.8644541 8,58.5 C8,72.9891904 19.6283515,84.7624338 34.061774,84.9964498 L34.5,85 L82.5,85 Z" id="Path" fill="#000000" fill-rule="nonzero"></path>
    </g>
</svg>