<?xml version="1.0" encoding="UTF-8"?>
<svg  viewBox="0 0 116 116" version="1.1" xmlns="http://www.w3.org/2000/svg" xmlns:xlink="http://www.w3.org/1999/xlink">
    <title>paperclip</title>
    <g id="paperclip" stroke="none" stroke-width="1" fill="none" fill-rule="evenodd">
        <path d="M100.285896,16.0005504 C107.799404,23.6705893 107.801701,35.9133001 100.35678,43.5862001 L100.090926,43.855096 L50.2833311,93.2964589 C45.9764781,97.5716438 39.0232812,97.5588151 34.732233,93.267767 C30.5174773,89.0530112 30.4435342,82.2654843 34.5104038,77.9604559 L34.732233,77.732233 L80.732233,31.732233 L84.267767,35.267767 L38.267767,81.267767 C35.9303692,83.6051647 35.9303692,87.3948353 38.267767,89.732233 C40.549615,92.0140811 44.2098583,92.0807721 46.5722214,89.9273684 L46.7608674,89.7479029 L96.5684626,40.30654 C102.327604,34.589745 102.392654,25.2963036 96.7141035,19.4994496 C91.2043339,13.8748931 82.2306626,13.6992802 76.506107,19.0418173 L76.2087673,19.3272097 L26.267767,69.267767 C17.3029522,78.2325817 17.3029522,92.7674183 26.267767,101.732233 C35.1372114,110.601677 49.4587968,110.696033 58.4442442,102.0153 L58.732233,101.732233 L96.732233,63.732233 L100.267767,67.267767 L62.267767,105.267767 C51.3503307,116.185203 33.6496693,116.185203 22.732233,105.267767 C11.9239712,94.4595051 11.8158886,77.0030042 22.4079852,66.0617775 L22.732233,65.732233 L72.7492618,15.7166676 C80.4316856,8.19102797 92.7602568,8.31812664 100.285896,16.0005504 Z" id="Path-169" fill="#000000" fill-rule="nonzero"></path>
    </g>
</svg>