<?xml version="1.0" encoding="UTF-8"?>
<svg  viewBox="0 0 116 116" version="1.1" xmlns="http://www.w3.org/2000/svg" xmlns:xlink="http://www.w3.org/1999/xlink">
    <title>paperclip</title>
    <g id="paperclip" stroke="none" stroke-width="1" fill="none" fill-rule="evenodd">
        <path d="M16.5383113,16.9278798 C22.0363287,11.7630757 30.5894611,11.7992975 36.0427245,16.9524681 L36.2960524,17.1977704 L88.267767,68.7635441 C91.4445704,71.9403475 91.4445704,77.0909635 88.267767,80.267767 C85.1486808,83.3868531 80.1320169,83.4518341 76.9338649,80.4627098 L76.732233,80.267767 L40.732233,44.267767 L44.267767,40.732233 L80.267767,76.732233 C81.5005952,77.9650613 83.4994048,77.9650613 84.732233,76.732233 C85.9093311,75.555135 85.9546041,73.674811 84.8680521,72.4436187 L84.7235236,72.2904026 L32.7744104,20.7471419 C29.2475519,17.247837 23.5828143,17.1704567 19.9616887,20.5721202 C16.5670931,23.7609827 16.4003135,29.09793 19.589176,32.4925255 L19.793192,32.7022892 L72.2201892,84.7677209 C77.8999409,90.4083019 87.0720328,90.3924333 92.732233,84.732233 C98.2977165,79.1667496 98.382042,70.1957112 92.9852096,64.5270291 L92.732233,64.267767 L56.732233,28.267767 L60.267767,24.732233 L96.267767,60.732233 C103.871495,68.3359608 103.871495,80.6640392 96.267767,88.267767 C88.7492275,95.7863064 76.6206643,95.8955904 68.9682906,88.5798989 L68.69691,88.3154673 L16.2699128,36.2500355 C16.1596628,36.1405459 16.0513208,36.0291515 15.9449356,35.9159028 C10.865394,30.5086489 11.1310574,22.0074214 16.5383113,16.9278798 Z" id="Path-169" fill="#000000" fill-rule="nonzero"></path>
    </g>
</svg>