<?xml version="1.0" encoding="UTF-8"?>
<svg  viewBox="0 0 116 116" version="1.1" xmlns="http://www.w3.org/2000/svg" xmlns:xlink="http://www.w3.org/1999/xlink">
    <title>paperclip</title>
    <g id="paperclip" stroke="none" stroke-width="1" fill="none" fill-rule="evenodd">
        <path d="M74.2526472,15.2136125 C80.832398,8.7943434 91.3701858,8.92443954 97.7894549,15.5041904 C104.223793,22.0993872 104.384624,32.5468514 98.21837,39.3348272 L97.9614002,39.6117057 L49.6524119,90.5625918 C49.5867292,90.6318665 49.5201277,90.7002643 49.452625,90.767767 C45.2496298,94.9707621 38.4352282,94.9707621 34.232233,90.767767 C30.0174773,86.5530112 29.9435342,79.7654843 34.0104038,75.4604559 L34.232233,75.232233 L80.232233,29.232233 L83.767767,32.767767 L37.767767,78.767767 C35.4303692,81.1051647 35.4303692,84.8948353 37.767767,87.232233 C40.0181407,89.4826068 43.6667174,89.4826068 45.9170911,87.232233 L46.0240613,87.1223779 L94.3330496,36.1714917 C98.9116514,31.3424977 98.8575625,23.7590025 94.2105451,18.9958096 C89.7957611,14.470656 82.5965175,14.3060027 77.980685,18.5681198 L77.6419954,18.8935385 L26.8010633,69.7344706 C19.2720406,77.2634933 18.8699177,89.3405682 25.8814417,97.3537385 C32.2059205,104.581714 43.1923555,105.314143 50.4203312,98.9896644 C50.6139502,98.8202479 50.8037737,98.646566 50.9896632,98.4687484 L51.2655294,98.1989367 L92.232233,57.232233 L95.767767,60.767767 L54.8010633,101.734471 C54.4497238,102.08581 54.0867864,102.425357 53.7128543,102.752548 C44.4066954,110.895437 30.2614473,109.95242 22.1185583,100.646262 C13.4656916,90.757271 13.8656417,75.9058398 22.9719471,66.4973472 L23.2655294,66.1989367 L74.2526472,15.2136125 Z" id="Path-169" fill="#000000" fill-rule="nonzero"></path>
    </g>
</svg>