<?xml version="1.0" encoding="UTF-8"?>
<svg width="128px" height="128px" viewBox="0 0 128 128" version="1.1" xmlns="http://www.w3.org/2000/svg" xmlns:xlink="http://www.w3.org/1999/xlink">
    <title>paper-plane</title>
    <g id="paper-plane" stroke="none" stroke-width="1" fill="none" fill-rule="evenodd">
        <path d="M35.0668191,54.0750405 L28.3808867,27.3313108 L118.68652,64.0179744 L28.3887926,100.137065 L34.919577,74.0139278 C35.5420344,71.5240982 37.5679001,69.6418499 40.0786515,69.1923529 L40.3313089,69.1522096 L52.9322253,67.4020823 C53.2576983,67.3568778 53.5,67.0785972 53.5,66.75 C53.5,66.6316533 53.4177666,66.5325132 53.3073227,66.5066027 L53.25,66.5 L40,66.5 L40,61.5 L53.25,61.5 C56.1494949,61.5 58.5,63.8505051 58.5,66.75 C58.5,69.4957891 56.5315453,71.8328074 53.8514988,72.317563 L53.6200672,72.3545437 L41.0191507,74.104671 C40.4595975,74.1823867 39.9954219,74.5666966 39.8105754,75.092345 L39.7702895,75.226606 L35.611,91.862 L105.312,63.981 L35.619,35.668 L39.9175316,52.8623623 C40.0520466,53.4004224 40.470955,53.8164674 41.0012616,53.9518587 L41.136059,53.9797677 L88.3944773,61.5313186 L87.6055227,66.4686814 L40.3471044,58.9171304 C37.8617906,58.5199954 35.8373603,56.7262976 35.1347522,54.325529 L35.0668191,54.0750405 Z" id="Path-36" fill="#000000" fill-rule="nonzero"></path>
    </g>
</svg>