<?xml version="1.0" encoding="UTF-8"?>
<svg  viewBox="0 0 116 116" version="1.1" xmlns="http://www.w3.org/2000/svg" xmlns:xlink="http://www.w3.org/1999/xlink">
    <title>paper-plane</title>
    <g id="paper-plane" stroke="none" stroke-width="1" fill="none" fill-rule="evenodd">
        <path d="M10.5855831,16.8092932 C11.2428352,16.6347106 11.9348431,16.6558254 12.5774086,16.8671266 L12.8158886,16.9552688 L104.731751,54.7748163 C106.519343,55.510336 107.372217,57.5557226 106.636697,59.343315 C106.312433,60.1313999 105.712872,60.7717621 104.953525,61.1478613 L104.760426,61.2363132 L12.8503872,100.010861 C11.0693933,100.762218 9.01651759,99.9275319 8.26516083,98.1465381 C7.99380211,97.5033174 7.9216708,96.7953678 8.05512844,96.1136865 L8.10723745,95.8875572 L15.368963,68.5492963 C16.045292,66.0031165 18.1878921,64.1255402 20.7823992,63.776273 L21.0348572,63.7472728 L47.2742386,61.2482841 C47.3809093,61.2381249 47.4665742,61.1617727 47.4921662,61.0621921 L47.5,61 L18.5,61 L18.5,56 L43.757,56 L20.9058026,53.3015271 C18.3438707,52.9989367 16.2120623,51.2122437 15.4569532,48.7622706 L15.3860663,48.5150927 L8.10141428,21.0905203 C7.60517034,19.2223078 8.71737059,17.3055372 10.5855831,16.8092932 Z M13.71,22.73 L20.218492,47.2314797 C20.3642714,47.7802963 20.805726,48.1955959 21.3532863,48.3129935 L21.4922772,48.3360414 L82.2932373,55.5172572 L81.7067627,60.4827428 L50.14,56.754 L50.2533963,56.8257543 C51.5506477,57.6831667 52.4247877,59.1290973 52.4953805,60.7831104 L52.5,61 C52.5,63.6311971 50.555187,65.8431192 47.9712951,66.1997685 L47.7482841,66.2257614 L21.5089027,68.7247501 C20.9322195,68.7796723 20.4433651,69.1606199 20.2448511,69.6959578 L20.2013886,69.8329094 L13.724,94.215 L99.5,58.028 L13.71,22.73 Z" id="Path-36" fill="#000000" fill-rule="nonzero"></path>
    </g>
</svg>