<?xml version="1.0" encoding="UTF-8"?>
<svg  viewBox="0 0 116 116" version="1.1" xmlns="http://www.w3.org/2000/svg" xmlns:xlink="http://www.w3.org/1999/xlink">
    <title>pause-circle</title>
    <g id="pause-circle" stroke="none" stroke-width="1" fill="none" fill-rule="evenodd">
        <path d="M58,1.5 C89.2040884,1.5 114.5,26.7959116 114.5,58 C114.5,88.8920475 89.707477,113.993491 58.9343308,114.492431 L58,114.5 L58,109.5 C86.4426646,109.5 109.5,86.4426646 109.5,58 C109.5,29.5573354 86.4426646,6.5 58,6.5 C29.5573354,6.5 6.5,29.5573354 6.5,58 C6.5,71.6285207 11.8149154,84.4094074 21.1333895,93.9598153 L21.5731203,94.4051155 L18.0365369,97.9395996 C7.51796789,87.4147834 1.5,73.1806564 1.5,58 C1.5,26.7959116 26.7959116,1.5 58,1.5 Z M47.5,24 C50.4634791,24 52.8795391,26.34378 52.9956328,29.2787929 L53,29.5 L53,66.5 L48,66.5 L48,29.5 C48,29.2545401 47.8231248,29.0503916 47.5898756,29.0080557 L47.5,29 L41.5,29 C41.2545401,29 41.0503916,29.1768752 41.0080557,29.4101244 L41,29.5 L41,87.5 C41,87.7454599 41.1768752,87.9496084 41.4101244,87.9919443 L41.5,88 L47.5,88 C47.7454599,88 47.9496084,87.8231248 47.9919443,87.5898756 L48,87.5 L48,82.5 L53,82.5 L53,87.5 C53,90.4634791 50.65622,92.8795391 47.7212071,92.9956328 L47.5,93 L41.5,93 C38.5365209,93 36.1204609,90.65622 36.0043672,87.7212071 L36,87.5 L36,29.5 C36,26.5365209 38.34378,24.1204609 41.2787929,24.0043672 L41.5,24 L47.5,24 Z M78.5,24 L78.5,29 L69.5,29 C69.2545401,29 69.0503916,29.1768752 69.0080557,29.4101244 L69,29.5 L69,87.5 C69,87.7454599 69.1768752,87.9496084 69.4101244,87.9919443 L69.5,88 L75.5,88 C75.7454599,88 75.9496084,87.8231248 75.9919443,87.5898756 L76,87.5 L76,42.5 L81,42.5 L81,87.5 C81,90.4634791 78.65622,92.8795391 75.7212071,92.9956328 L75.5,93 L69.5,93 C66.5365209,93 64.1204609,90.65622 64.0043672,87.7212071 L64,87.5 L64,29.5 C64,26.5365209 66.34378,24.1204609 69.2787929,24.0043672 L69.5,24 L78.5,24 Z" id="Shape" fill="#000000" fill-rule="nonzero"></path>
    </g>
</svg>