<?xml version="1.0" encoding="UTF-8"?>
<svg  viewBox="0 0 116 116" version="1.1" xmlns="http://www.w3.org/2000/svg" xmlns:xlink="http://www.w3.org/1999/xlink">
    <title>pause</title>
    <g id="pause" stroke="none" stroke-width="1" fill="none" fill-rule="evenodd">
        <path d="M43.5,8 C46.4634791,8 48.8795391,10.34378 48.9956328,13.2787929 L49,13.5 L49,83 L44,83 L44,13.5 C44,13.2545401 43.8231248,13.0503916 43.5898756,13.0080557 L43.5,13 L33.5,13 C33.2545401,13 33.0503916,13.1768752 33.0080557,13.4101244 L33,13.5 L33,103.5 C33,103.74546 33.1768752,103.949608 33.4101244,103.991944 L33.5,104 L43.5,104 C43.7454599,104 43.9496084,103.823125 43.9919443,103.589876 L44,103.5 L44,98.5 L49,98.5 L49,103.5 C49,106.463479 46.65622,108.879539 43.7212071,108.995633 L43.5,109 L33.5,109 C30.5365209,109 28.1204609,106.65622 28.0043672,103.721207 L28,103.5 L28,13.5 C28,10.5365209 30.34378,8.12046086 33.2787929,8.0043672 L33.5,8 L43.5,8 Z M86,8 L86,13 L73.5,13 C73.2545401,13 73.0503916,13.1768752 73.0080557,13.4101244 L73,13.5 L73,103.5 C73,103.74546 73.1768752,103.949608 73.4101244,103.991944 L73.5,104 L83,104 C83.2454599,104 83.4496084,103.823125 83.4919443,103.589876 L83.5,103.5 L83.5,34 L88.5,34 L88.5,103.5 C88.5,106.463479 86.15622,108.879539 83.2212071,108.995633 L83,109 L73.5,109 C70.5365209,109 68.1204609,106.65622 68.0043672,103.721207 L68,103.5 L68,13.5 C68,10.5365209 70.34378,8.12046086 73.2787929,8.0043672 L73.5,8 L86,8 Z" id="Shape" fill="#000000" fill-rule="nonzero"></path>
    </g>
</svg>