<?xml version="1.0" encoding="UTF-8"?>
<svg  viewBox="0 0 116 116" version="1.1" xmlns="http://www.w3.org/2000/svg" xmlns:xlink="http://www.w3.org/1999/xlink">
    <title>paw</title>
    <g id="paw" stroke="none" stroke-width="1" fill="none" fill-rule="evenodd">
        <path d="M44.5,8 C51.6191929,8 57,15.53313 57,24.5 C57,28.2227457 56.0742034,31.7708797 54.3877639,34.6449259 L54.1634935,35.0159376 L49.9189105,32.3733035 C51.2421515,30.2479218 52,27.4704275 52,24.5 C52,18.002897 48.4265021,13 44.5,13 C40.6411962,13 37.123329,17.8318705 37.0031703,24.1652935 L37,24.5 C37,34.9094148 41.0379365,38.9247421 49.136724,39.8358986 L49.708225,39.8946687 L50.1937809,39.9370604 L50.6784406,39.972344 L51.1694668,40.0008718 L51.674122,40.022996 L52.1996689,40.0390691 L52.7533701,40.0494432 L53.6525982,40.0550897 L55.0178936,40.0459605 L58.1504738,40.0007899 L58.5,40 C61.1740222,40 63.8903236,40.9808189 66.6489723,42.7980096 C70.5507535,45.3682103 74.5309432,49.5848916 78.618384,55.1659413 L79.386043,56.2283079 C80.283128,57.4862284 81.1854314,58.8085924 82.0932551,60.1924468 L82.6424712,61.0366412 L82.6424712,61.0366412 L82.9726224,61.5539939 L82.9726224,61.5539939 L83.7610245,62.8174055 L84.3160434,63.7254116 L85.1820305,65.1657346 L86.075367,66.675694 L87.015279,68.2858505 L88.8186971,71.4255206 L90.321204,74.0849981 L91.9902548,77.0863871 L93.1704892,79.2538111 L93.5751783,80.0235523 L93.6691121,80.2158469 L93.6866632,80.2594519 C93.6891349,80.2679394 93.6881914,80.2703096 93.6837225,80.2663531 L93.617,80.171 L93.8328224,80.5206354 C96.9875075,85.7706365 97.5542264,92.5089874 95.3357373,98.1473953 L95.1801584,98.5300974 C92.5113494,104.888142 86.698265,108.861324 78.9116384,108.99644 L78.5,109 L38.5,109 C29.6991614,109 23.7399837,104.583651 21.3214178,97.4947516 C19.3505703,91.7181296 20.0878704,84.703246 22.9445195,80.5769751 L23.7499956,79.4648222 L31.1607403,69.4230831 L32.9102114,67.0225737 L33.8624364,65.7020761 L34.9563287,64.1691165 L36.1210285,62.5112809 L36.9624354,61.2893096 L37.5474091,60.4211586 L38.0512519,59.6541178 L38.3743518,59.1473244 L38.7300552,58.5657612 L38.8750027,58.3163321 L39.0503936,57.9951258 L39.138834,57.8169265 L39.2041114,57.6679951 L43.8473368,59.5228421 L43.7520013,59.7467772 L43.6030248,60.0600169 L43.6030248,60.0600169 L43.4208885,60.4105516 L43.2512749,60.7180277 L43.0603888,61.0497083 L42.8482075,61.4057428 L42.6147088,61.7862802 L42.2244416,62.4033559 L41.7860841,63.0764027 L41.1266698,64.0617349 L40.3814482,65.1486604 L39.5502402,66.3383727 L38.3900389,67.9718757 L36.5389061,70.5361681 L33.4455046,74.7481067 L27.1299983,83.3173459 L27.0554805,83.4230249 C25.1395096,86.1905384 24.576203,91.549999 26.0535822,95.8802484 C27.7585865,100.877675 31.7168007,103.882913 38.1204903,103.996651 L38.5,104 L78.5,104 C84.4725243,104 88.6308917,101.214166 90.5698416,96.5949026 C92.3890555,92.2608929 91.9362434,86.872428 89.3862777,82.8349825 L89.4369944,82.9096977 C89.442611,82.9161663 89.4446544,82.9162064 89.443237,82.9100316 L89.3941029,82.8001147 L89.0682471,82.1738508 L87.657306,79.5828702 L85.6700597,76.0175662 L83.9548199,72.9934984 L82.7845296,70.9598603 L81.8461697,69.3496376 L80.9563255,67.8428952 L80.0962346,66.4098467 L79.5466984,65.5093526 L78.7691735,64.2618142 L78.7691735,64.2618142 L78.2884219,63.511113 L77.5601116,62.4007912 C77.3178783,62.0355169 77.0761907,61.675103 76.8350761,61.3196316 L76.1134785,60.2681269 C71.7945327,54.0490482 67.670037,49.4579273 63.8984709,46.9735027 C61.8941848,45.6532294 60.085117,45 58.5,45 L54.6474087,45.0502956 L53.5745633,45.0553774 L52.9188345,45.0522077 L52.3014808,45.0432954 L51.7145937,45.0282146 L50.8740887,44.9930966 L50.8740887,44.9930966 L50.3287696,44.9607324 L49.7862382,44.9207098 L48.9603685,44.8453852 L48.9603685,44.8453852 C38.345884,43.7732596 32.1374219,37.9104013 32.0022539,24.9351459 L32,24.5 C32,15.53313 37.3808071,8 44.5,8 Z M20.5,36 C27.6191929,36 33,43.53313 33,52.5 C33,55.6709377 32.3290768,58.7184027 31.0806358,61.3370906 L30.8672309,61.7695161 L26.4141541,59.4957292 C27.4341059,57.498214 28,55.0685773 28,52.5 C28,46.002897 24.4265021,41 20.5,41 C16.5734979,41 13,46.002897 13,52.5 C13,58.885084 16.4513361,63.8270421 20.2972364,63.9955564 L20.5,64 L20.5,69 C13.3808071,69 8,61.46687 8,52.5 C8,43.53313 13.3808071,36 20.5,36 Z M96.5,36 C103.619193,36 109,43.53313 109,52.5 C109,55.055925 108.564538,57.5340439 107.737298,59.7774698 L107.554052,60.2545545 L102.911195,58.3987851 C103.618997,56.6279693 104,54.60885 104,52.5 C104,46.002897 100.426502,41 96.5,41 C92.5734979,41 89,46.002897 89,52.5 C89,58.885084 92.4513361,63.8270421 96.2972364,63.9955564 L96.5,64 L96.5,69 C89.3808071,69 84,61.46687 84,52.5 C84,43.53313 89.3808071,36 96.5,36 Z M72.5,8 C79.6191929,8 85,15.53313 85,24.5 C85,27.6971379 84.3179073,30.7685865 83.0499239,33.4011926 L82.8331849,33.8358432 L78.3898618,31.5430544 C79.4248769,29.5372412 80,27.0893555 80,24.5 C80,18.002897 76.4265021,13 72.5,13 C68.5734979,13 65,18.002897 65,24.5 C65,30.885084 68.4513361,35.8270421 72.2972364,35.9955564 L72.5,36 L72.5,41 C65.3808071,41 60,33.46687 60,24.5 C60,15.53313 65.3808071,8 72.5,8 Z" id="Shape" fill="#000000" fill-rule="nonzero"></path>
    </g>
</svg>