<?xml version="1.0" encoding="UTF-8"?>
<svg  viewBox="0 0 116 116" version="1.1" xmlns="http://www.w3.org/2000/svg" xmlns:xlink="http://www.w3.org/1999/xlink">
    <title>paw</title>
    <g id="paw" stroke="none" stroke-width="1" fill="none" fill-rule="evenodd">
        <path d="M44.5,8 C51.6191929,8 57,15.53313 57,24.5 C57,28.2227457 56.0742034,31.7708797 54.3877639,34.6449259 L54.1634935,35.0159376 L49.9189105,32.3733035 C51.2421515,30.2479218 52,27.4704275 52,24.5 C52,18.002897 48.4265021,13 44.5,13 C40.6411962,13 37.123329,17.8318705 37.0031703,24.1652935 L37,24.5 C37,33.5109667 40.8466061,37.8307843 47.8064898,39.3939825 C50.1217949,39.9140028 52.2699358,40.0737251 55.3084268,40.0517181 L56.2987798,40.0389359 L58.2345872,40.0007439 L58.5,40 C65.2340854,40 71.330111,43.6310077 74.5901313,49.364273 L74.8564465,49.8474405 L75.3357194,51.1352338 L76.146929,53.2793566 L76.7344736,54.8016977 L77.4898322,56.7168257 L77.8554207,57.6251355 L78.2129037,58.5005413 L78.733856,59.7518444 L79.0709269,60.5447686 L79.3997737,61.3046113 L79.8775498,62.3822365 L80.1856884,63.0591535 L80.4854845,63.7028113 L80.7769044,64.3131592 L81.059914,64.8901466 L81.3344796,65.4337225 L81.6005674,65.9438363 L81.9837292,66.6461545 L81.9837292,66.6461545 L82.2284743,67.072391 L82.4646232,67.4649877 C83.4555851,69.0711153 84.5919932,70.5288856 85.9579868,72.0045714 L86.2138253,72.2740786 L86.9316026,73.0005909 L88.5969158,74.6436844 L90.7781592,76.7900217 L91.3430521,77.3568482 L91.6393454,77.6613012 L91.8572972,77.8941499 C92.5602207,78.6719703 93.1361341,79.4088363 93.6137223,80.1650175 C97.0346775,85.58153 97.6319494,92.6890659 95.1801584,98.5300974 C92.4645282,104.999687 86.4933294,109 78.5,109 C75.3164955,109 73.1217586,108.061316 70.427924,105.987823 L69.9055373,105.576469 L68.5177223,104.459276 C65.4248665,102.008045 62.9690052,101 58.5,101 C54.189753,101 51.8304054,101.924587 48.9169627,104.213136 L48.4377149,104.597643 L47.2553336,105.563501 C44.2996733,107.948073 42.0136216,109 38.5,109 C29.6991614,109 23.7399837,104.583651 21.3214178,97.4947516 C19.3505703,91.7181296 20.0878704,84.703246 22.9445195,80.5769751 L23.0163163,80.476985 L23.1987187,80.2423037 L23.4287127,79.9652599 L23.7013137,79.6505406 L24.0115371,79.3028326 L24.5365108,78.7296698 L24.9189832,78.3199958 L25.9525338,77.2335075 L28.0909779,75.0378735 L30.3694231,72.7221677 L30.4047127,72.6843286 C32.1043696,70.8325808 33.4762241,69.0770231 34.5916493,67.2535751 C36.1197429,64.7555148 37.4930635,61.8834975 38.9332406,58.3402855 L39.2041114,57.6679951 L43.8473368,59.5228421 C42.21185,63.6169448 40.6535478,66.925639 38.8569175,69.8626912 C37.6736465,71.7970506 36.2731145,73.6275006 34.5988344,75.5016492 L34.0112399,76.1481083 L33.3572297,76.8241473 L29.8899976,80.3536629 L28.7018947,81.5857185 L27.9019792,82.4375982 L27.9019792,82.4375982 L27.5769933,82.7954582 L27.3140047,83.0965418 L27.1628703,83.2799562 C27.1195717,83.3345703 27.0835639,83.3824601 27.0554805,83.4230249 C25.1395096,86.1905384 24.576203,91.549999 26.0535822,95.8802484 C27.792018,100.975664 31.872891,104 38.5,104 C40.5805418,104 41.8533424,103.455945 43.8402782,101.891733 L45.4862086,100.553447 C49.3646548,97.4277916 52.79336,96 58.5,96 C64.0376903,96 67.5001362,97.3543594 71.2788934,100.271243 L71.8211879,100.698913 L73.2043463,101.812254 C75.2480316,103.429034 76.5085289,104 78.5,104 C84.4725243,104 88.6308917,101.214166 90.5698416,96.5949026 C92.3890555,92.2608929 91.9362434,86.872428 89.3862777,82.8349825 C89.1203835,82.4139833 88.7852643,81.973665 88.3649859,81.4913381 L88.0712421,81.1638445 L87.730635,80.8128491 L86.6590146,79.7489695 L83.6630237,76.8030466 L82.8755231,76.0121584 L82.2887097,75.4010999 L82.2887097,75.4010999 C80.7148948,73.7009043 79.3823151,71.9914873 78.2093804,70.0904226 L78.0749638,69.8698898 L77.8004692,69.4036091 L77.4466894,68.7734101 L77.4466894,68.7734101 L77.0809976,68.0905031 L76.77982,67.5061568 L76.4709375,66.8879553 L76.1543137,66.2358447 L75.8299126,65.5497706 L75.4976981,64.8296788 L75.1576339,64.0755151 L74.809684,63.2872254 L74.4538122,62.4647554 L74.0899823,61.6080508 L73.5292371,60.2586857 L73.145354,59.3161577 L72.7533863,58.3392055 L72.1501972,56.809113 L71.5286145,55.2012611 L71.1039472,54.0860697 L70.295,51.93 L70.2131394,51.7823573 C67.8803837,47.7227166 63.5998848,45.1229699 58.8407336,45.004247 L58.0296344,45.0037925 L56.9304271,45.0271509 C52.6747442,45.1224689 49.8956696,44.9877774 46.7107807,44.2724476 C37.6860067,42.2454726 32.1452073,36.1283402 32.0028126,24.9441165 L32,24.5 C32,15.53313 37.3808071,8 44.5,8 Z M20.5,36 C27.6191929,36 33,43.53313 33,52.5 C33,55.6709377 32.3290768,58.7184027 31.0806358,61.3370906 L30.8672309,61.7695161 L26.4141541,59.4957292 C27.4341059,57.498214 28,55.0685773 28,52.5 C28,46.002897 24.4265021,41 20.5,41 C16.5734979,41 13,46.002897 13,52.5 C13,58.885084 16.4513361,63.8270421 20.2972364,63.9955564 L20.5,64 L20.5,69 C13.3808071,69 8,61.46687 8,52.5 C8,43.53313 13.3808071,36 20.5,36 Z M96.5,36 C103.619193,36 109,43.53313 109,52.5 C109,55.055925 108.564538,57.5340439 107.737298,59.7774698 L107.554052,60.2545545 L102.911195,58.3987851 C103.618997,56.6279693 104,54.60885 104,52.5 C104,46.002897 100.426502,41 96.5,41 C92.5734979,41 89,46.002897 89,52.5 C89,58.885084 92.4513361,63.8270421 96.2972364,63.9955564 L96.5,64 L96.5,69 C89.3808071,69 84,61.46687 84,52.5 C84,43.53313 89.3808071,36 96.5,36 Z M72.5,8 C79.6191929,8 85,15.53313 85,24.5 C85,27.6971379 84.3179073,30.7685865 83.0499239,33.4011926 L82.8331849,33.8358432 L78.3898618,31.5430544 C79.4248769,29.5372412 80,27.0893555 80,24.5 C80,18.002897 76.4265021,13 72.5,13 C68.5734979,13 65,18.002897 65,24.5 C65,30.885084 68.4513361,35.8270421 72.2972364,35.9955564 L72.5,36 L72.5,41 C65.3808071,41 60,33.46687 60,24.5 C60,15.53313 65.3808071,8 72.5,8 Z" id="Shape" fill="#000000" fill-rule="nonzero"></path>
    </g>
</svg>