<?xml version="1.0" encoding="UTF-8"?>
<svg   viewBox="0 0 128 128" version="1.1" xmlns="http://www.w3.org/2000/svg" xmlns:xlink="http://www.w3.org/1999/xlink">
    <title>people</title>
    <g id="people" stroke="none" stroke-width="1" fill="none" fill-rule="evenodd">
        <path d="M47.5,21.5 C59.2610373,21.5 68.5,33.4856813 68.5,48 C68.5,56.7982297 65.1051508,64.6673136 59.8115641,69.500801 L64,69.5 C74.1049902,69.5 82.3177283,77.6016943 82.4970078,87.6638763 L82.5,88 L82.5,104.5 L77.5,104.5 L77.5,88 C77.5,80.6477093 71.6225714,74.6681655 64.3098308,74.5034854 L64,74.5 L48,74.5 L47.9261675,74.4956483 L47.9261675,74.4956483 L47.5,74.5 L47.5,69.5 C56.1734984,69.5 63.5,59.9953493 63.5,48 C63.5,36.0046507 56.1734984,26.5 47.5,26.5 C38.8265016,26.5 31.5,36.0046507 31.5,48 C31.5,56.4625678 35.1976225,63.9655139 40.732843,67.4683318 L41.0258571,67.6489806 L38.4522235,71.9357522 C31.162607,67.5593113 26.5,58.2822731 26.5,48 C26.5,33.4856813 35.7389627,21.5 47.5,21.5 Z M79.5,21.5 C91.2610373,21.5 100.5,33.4856813 100.5,48 C100.5,56.7982297 97.1051508,64.6673136 91.8115641,69.500801 L96,69.5 C106.10499,69.5 114.317728,77.6016943 114.497008,87.6638763 L114.5,88 L114.5,104.5 L109.5,104.5 L109.5,88 C109.5,80.6477093 103.622571,74.6681655 96.3098308,74.5034854 L96,74.5 L80,74.5 L79.9261675,74.4956483 L79.9261675,74.4956483 L79.5,74.5 L79.5,69.5 C88.1734984,69.5 95.5,59.9953493 95.5,48 C95.5,36.0046507 88.1734984,26.5 79.5,26.5 C77.183897,26.5 74.9335775,27.1682304 72.8581946,28.4532234 L72.4937887,28.6863788 L69.7375198,24.5146907 C72.7122559,22.5492579 76.0436742,21.5 79.5,21.5 Z M33.0355339,69.5 L48,84.465 L54.232233,78.232233 L57.767767,81.767767 L48,91.5355339 L31.002,74.537 L30.7712248,74.5551701 C23.9924141,75.1668011 18.6588878,80.789414 18.5034854,87.6901692 L18.5,88 L18.5,104 L13.5,104 L13.5,88 C13.5,77.8950098 21.6016943,69.6822717 31.6638763,69.5029922 L32,69.5 L33.0355339,69.5 Z" id="Shape" fill="#000000" fill-rule="nonzero"></path>
    </g>
</svg>