<?xml version="1.0" encoding="UTF-8"?>
<svg  viewBox="0 0 116 116" version="1.1" xmlns="http://www.w3.org/2000/svg" xmlns:xlink="http://www.w3.org/1999/xlink">
    <title>people</title>
    <g id="people" stroke="none" stroke-width="1" fill="none" fill-rule="evenodd">
        <path d="M42.5,8 C54.2610373,8 63.5,19.9856813 63.5,34.5 C63.5,43.2085912 60.1739734,51.006873 54.9727681,55.8521238 L54.81,56 L58.5,56 C68.6049902,56 76.8177283,64.1016943 76.9970078,74.1638763 L77,74.5 L77,106.5 L72,106.5 L72,74.5 C72,67.1477093 66.1225714,61.1681655 58.8098308,61.0034854 L58.5,61 L42.5,61 L42.5,56 C51.1734984,56 58.5,46.4953493 58.5,34.5 C58.5,22.5046507 51.1734984,13 42.5,13 C33.8265016,13 26.5,22.5046507 26.5,34.5 C26.5,42.9625678 30.1976225,50.4655139 35.732843,53.9683318 L36.0258571,54.1489806 L33.4522235,58.4357522 C26.162607,54.0593113 21.5,44.7822731 21.5,34.5 C21.5,19.9856813 30.7389627,8 42.5,8 Z M74.5,8 C86.2610373,8 95.5,19.9856813 95.5,34.5 C95.5,43.2085912 92.1739734,51.006873 86.9727681,55.8521238 L86.81,56 L90.5,56 C100.60499,56 108.817728,64.1016943 108.997008,74.1638763 L109,74.5 L109,106.5 L104,106.5 L104,74.5 C104,67.1477093 98.1225714,61.1681655 90.8098308,61.0034854 L90.5,61 L74.5,61 L74.5,56 C83.1734984,56 90.5,46.4953493 90.5,34.5 C90.5,22.5046507 83.1734984,13 74.5,13 C72.183897,13 69.9335775,13.6682304 67.8581946,14.9532234 L67.4937887,15.1863788 L64.7375198,11.0146907 C67.7122559,9.04925791 71.0436742,8 74.5,8 Z M28.0355339,56 L42.6464466,70.6109127 C42.820013,70.7844791 43.0894374,70.8037642 43.2843055,70.6687682 L43.3535534,70.6109127 L49.232233,64.732233 L52.767767,68.267767 L46.8890873,74.1464466 C44.8008671,76.2346668 41.4512337,76.2926729 39.292935,74.320465 L39.1109127,74.1464466 L25.975,61.01 L25.8820467,61.0138918 C18.8154476,61.3322616 13.1635267,67.0834213 13.0034854,74.1901692 L13,74.5 L13,106.5 L8,106.5 L8,74.5 C8,64.3950098 16.1016943,56.1822717 26.1638763,56.0029922 L26.5,56 L28.0355339,56 Z" id="Shape" fill="#000000" fill-rule="nonzero"></path>
    </g>
</svg>