<?xml version="1.0" encoding="UTF-8"?>
<svg  viewBox="0 0 116 116" version="1.1" xmlns="http://www.w3.org/2000/svg" xmlns:xlink="http://www.w3.org/1999/xlink">
    <title>people</title>
    <g id="people" stroke="none" stroke-width="1" fill="none" fill-rule="evenodd">
        <path d="M41.5,7.5 C53.2610373,7.5 62.5,19.4856813 62.5,34 C62.5,42.7982297 59.1051508,50.6673136 53.8115641,55.500801 L58,55.5 C68.1049902,55.5 76.3177283,63.6016943 76.4970078,73.6638763 L76.5,74 L76.5,107 L71.5,107 L71.5,74 C71.5,66.6477093 65.6225714,60.6681655 58.3098308,60.5034854 L58,60.5 L42,60.5 L41.9261675,60.4956483 L41.9261675,60.4956483 L41.5,60.5 L41.5,55.5 C50.1734984,55.5 57.5,45.9953493 57.5,34 C57.5,22.0046507 50.1734984,12.5 41.5,12.5 C32.8265016,12.5 25.5,22.0046507 25.5,34 C25.5,42.4625678 29.1976225,49.9655139 34.732843,53.4683318 L35.0258571,53.6489806 L32.4522235,57.9357522 C25.162607,53.5593113 20.5,44.2822731 20.5,34 C20.5,19.4856813 29.7389627,7.5 41.5,7.5 Z M73.5,7.5 C85.2610373,7.5 94.5,19.4856813 94.5,34 C94.5,42.7982297 91.1051508,50.6673136 85.8115641,55.500801 L90,55.5 C100.10499,55.5 108.317728,63.6016943 108.497008,73.6638763 L108.5,74 L108.5,107 L103.5,107 L103.5,74 C103.5,66.6477093 97.6225714,60.6681655 90.3098308,60.5034854 L90,60.5 L74,60.5 L73.9261675,60.4956483 L73.9261675,60.4956483 L73.5,60.5 L73.5,55.5 C82.1734984,55.5 89.5,45.9953493 89.5,34 C89.5,22.0046507 82.1734984,12.5 73.5,12.5 C71.183897,12.5 68.9335775,13.1682304 66.8581946,14.4532234 L66.4937887,14.6863788 L63.7375198,10.5146907 C66.7122559,8.54925791 70.0436742,7.5 73.5,7.5 Z M27.0355339,55.5 L42,70.465 L48.232233,64.232233 L51.767767,67.767767 L42,77.5355339 L25.002,60.537 L24.7712248,60.5551701 C17.9924141,61.1668011 12.6588878,66.789414 12.5034854,73.6901692 L12.5,74 L12.5,105.5 L7.5,105.5 L7.5,74 C7.5,63.8950098 15.6016943,55.6822717 25.6638763,55.5029922 L26,55.5 L27.0355339,55.5 Z" id="Shape" fill="#000000" fill-rule="nonzero"></path>
    </g>
</svg>