<?xml version="1.0" encoding="UTF-8"?>
<svg  viewBox="0 0 117 116" version="1.1" xmlns="http://www.w3.org/2000/svg" xmlns:xlink="http://www.w3.org/1999/xlink">
    <title>person-with-headphones</title>
    <g id="person-with-headphones" stroke="none" stroke-width="1" fill="none" fill-rule="evenodd" transform="translate(0.000000, 0.000000)">
        <path d="M58.5,23.5 C73.1926003,23.5 85,36.7364315 85,53.5 C85,64.3852528 80.0808947,74.239782 72.7405503,79.9243143 L72.64,80 L78.5,80 C90.8021428,80 100.798293,89.8731286 100.996986,102.127921 L101,102.5 L101,106.5 L96,106.5 L96,102.5 C96,92.9448462 88.3420399,85.1783049 78.8287703,85.0030264 L78.5,85 L58.5,85 L58.5,80 C69.9995895,80 80,67.9325983 80,53.5 C80,39.3786539 70.2958275,28.5 58.5,28.5 C46.7041725,28.5 37,39.3786539 37,53.5 C37,63.906242 41.4779096,72.8522599 48.532497,77.0070938 L48.8650608,77.1983298 L46.4179066,81.5585404 C37.4887218,76.5470641 32,65.7778695 32,53.5 C32,36.7364315 43.8073997,23.5 58.5,23.5 Z M35,80 L35,85 C27.3724998,85 21.1696731,91.0997524 21.003422,98.687355 L21,99 L21,106.5 L16,106.5 L16,99 C16,88.6194221 24.3246359,80.1831671 34.6622002,80.0029425 L35,80 Z M58.5,8 C76.6011327,8 91.4463633,21.940174 92.8856335,39.6704636 L92.91,40.01 L93.0084524,40.0149563 C97.38205,40.2729827 100.866319,43.8379488 100.996243,48.2448397 L101,48.5 L101,60.5 C101,65.1090673 97.331547,68.8613215 92.7551603,68.9962434 L92.5,69 L88,69 L88,50.5 L93,50.5 L93,63.963 L93.0677182,63.9541909 C94.6691343,63.6929857 95.9054397,62.3449961 95.9948211,60.6920352 L96,60.5 L96,48.5 C96,46.6314366 94.5357224,45.1048736 92.6920352,45.0051789 L92.5,45 L88,45 L88,42.5 C88,26.2075999 74.7924001,13 58.5,13 C42.3705239,13 29.2644605,25.9447686 29.0039522,42.0121636 L29,42.5 L29,45 L24.5,45 C22.6314366,45 21.1048736,46.4642776 21.0051789,48.3079648 L21,48.5 L21,60.5 C21,62.239697 22.2692727,63.6829394 23.9322818,63.9541909 L24,63.963 L24,50.5 L29,50.5 L29,69 L24.5,69 C19.8909327,69 16.1386785,65.331547 16.0037566,60.7551603 L16,60.5 L16,48.5 C16,43.9762858 19.5338424,40.2779448 23.9915476,40.0149563 L24.089,40.01 L24.1143665,39.6704636 C25.5384865,22.1268086 40.0878216,8.2938973 57.9294794,8.00462201 L58.5,8 Z" id="Shape" fill="#000000" fill-rule="nonzero"></path>
    </g>
</svg>