<?xml version="1.0" encoding="UTF-8"?>
<svg   viewBox="0 0 128 128" version="1.1" xmlns="http://www.w3.org/2000/svg" xmlns:xlink="http://www.w3.org/1999/xlink">
    <title>person</title>
    <g id="person" stroke="none" stroke-width="1" fill="none" fill-rule="evenodd">
        <path d="M63.5,21.5 C75.2610373,21.5 84.5,33.4856813 84.5,48 C84.5,56.7982297 81.1051508,64.6673136 75.8115641,69.500801 L80,69.5 C90.1049902,69.5 98.3177283,77.6016943 98.4970078,87.6638763 L98.5,88 L98.5,104.5 L93.5,104.5 L93.5,88 C93.5,80.6477093 87.6225714,74.6681655 80.3098308,74.5034854 L80,74.5 L64,74.5 L63.9261675,74.4956483 L63.9261675,74.4956483 L63.5,74.5 L63.5,69.5 C72.1734984,69.5 79.5,59.9953493 79.5,48 C79.5,36.0046507 72.1734984,26.5 63.5,26.5 C54.8265016,26.5 47.5,36.0046507 47.5,48 C47.5,56.4625678 51.1976225,63.9655139 56.732843,67.4683318 L57.0258571,67.6489806 L54.4522235,71.9357522 C47.162607,67.5593113 42.5,58.2822731 42.5,48 C42.5,33.4856813 51.7389627,21.5 63.5,21.5 Z M49.0355339,69.5 L64,84.465 L70.232233,78.232233 L73.767767,81.767767 L64,91.5355339 L47.002,74.537 L46.7712248,74.5551701 C39.9924141,75.1668011 34.6588878,80.789414 34.5034854,87.6901692 L34.5,88 L34.5,104 L29.5,104 L29.5,88 C29.5,77.8950098 37.6016943,69.6822717 47.6638763,69.5029922 L48,69.5 L49.0355339,69.5 Z" id="Shape" fill="#000000" fill-rule="nonzero"></path>
    </g>
</svg>