<?xml version="1.0" encoding="UTF-8"?>
<svg  viewBox="0 0 117 116" version="1.1" xmlns="http://www.w3.org/2000/svg" xmlns:xlink="http://www.w3.org/1999/xlink">
    <title>person-with-caps</title>
    <g id="person-with-caps" stroke="none" stroke-width="1" fill="none" fill-rule="evenodd" transform="translate(0.000000, 0.000000)">
        <path d="M35,72 L35,77 C27.3724998,77 21.1696731,83.0997524 21.003422,90.687355 L21,91 L21,106.5 L16,106.5 L16,91 C16,80.6194221 24.3246359,72.1831671 34.6622002,72.0029425 L35,72 Z M58.5,93 C53.7845266,93 49.3425961,91.2249234 45.9540431,88.0960602 L45.6394761,87.798776 L49.1156154,84.204829 C51.6180623,86.625247 54.9475607,88 58.5,88 C65.1015535,88 70.5963877,83.2615718 71.768915,77.0003031 L58.5,77 L58.5,72 C69.9995895,72 80,59.9325983 80,45.5 C80,43.3000865 79.7746865,41.2220815 79.3231117,39.2130695 L72.563509,45.972025 C68.1011722,50.4343614 61.6719871,52.3142203 55.508569,50.958797 L54.0220659,50.6371537 L53.0776166,50.4387636 L51.7312007,50.1652272 L50.8806788,49.9988966 L49.675958,49.7734318 L48.5570259,49.576793 L47.8590175,49.4617086 L47.1995662,49.3594265 L46.5788435,49.2699428 L45.9970209,49.1932537 L45.4542699,49.1293555 L44.950762,49.0782444 L44.4866687,49.0399167 L44.0621616,49.0143686 L43.6774121,49.0015964 L43.3210194,49.0015953 L42.9269944,49.0143578 L42.4850656,49.0398837 L41.9954504,49.0781737 L41.4583662,49.1292287 L40.5642114,49.2297472 L39.9094063,49.3127182 L39.2078933,49.408457 L38.45989,49.5169645 L37.2511912,49.7036688 C38.2824465,58.2934106 42.4609114,65.4288153 48.5282064,69.0045609 L48.8650608,69.1983298 L46.4179066,73.5585404 C38.756515,69.258609 33.6082454,60.7026259 32.3177758,50.5638648 L31.8743692,50.6464957 C28.8889475,51.2068989 26.0144869,49.2410357 25.4540803,46.2556144 C25.1042685,44.3920823 25.73951,42.4861106 27.1223885,41.2056935 L27.3069844,41.0422851 L31.3851444,37.5915343 L34.6148556,41.4084657 L30.5366956,44.8592165 C30.3993893,44.9753987 30.3350667,45.1563768 30.3682503,45.3331539 C30.4191963,45.6045555 30.6805114,45.7832706 30.9519115,45.7323252 L32.0165171,45.534546 L33.0393956,45.348748 L34.0207302,45.1749319 L35.4152386,44.9366755 L36.293516,44.7928174 L37.1308913,44.6609437 L38.3106641,44.4856053 L39.0465866,44.3836955 L39.7422488,44.2937725 L40.3978341,44.215837 L41.013526,44.1498897 L41.5895076,44.0959312 L42.1259625,44.0539624 L42.6230739,44.0239837 L43.0810253,44.005996 L43.2953733,44.001499 L43.2953733,44.001499 L43.7240898,44.0017982 L44.2007605,44.0161825 C44.4486164,44.02697 44.7107763,44.0431502 44.9873456,44.0647207 L45.5597277,44.1150481 C45.7569466,44.1342191 45.9606009,44.1557851 46.1707217,44.1797455 L46.8205147,44.2588089 L47.5092938,44.3522342 L48.2372461,44.4600172 L49.0045587,44.5821539 L49.8114186,44.7186401 L50.6580129,44.8694718 L51.5445287,45.0346449 L53.4380732,45.4079986 L53.4380732,45.4079986 L54.964417,45.7256294 L56.5824784,46.0754868 C60.9617491,47.0385507 65.524885,45.7633549 68.7679467,42.6896434 L69.0279751,42.436491 L75.367,36.097 L74.8636338,36.0106195 C73.5137013,35.7792366 72.2044682,35.5678723 70.9360259,35.3765016 L69.4334806,35.1564523 C68.9391625,35.0863005 68.4513768,35.0193461 67.9701293,34.9555875 L66.5460072,34.7738978 L65.1611493,34.6113735 C61.748114,34.229012 58.7035087,34.0262383 56.0297965,34.0023852 L55.5,34 C49.6805883,34 43.7012041,34.8809794 37.5572081,36.6481014 L36.7183697,36.8945657 L33.5,37.8600766 L33.5,32.75 C33.5,19.0809524 44.5809524,8 58.25,8 C67.488047,8 75.8180836,13.1077623 80.0868558,21.0909891 L80.2839679,21.4673004 L75.8351768,23.7494612 C72.4772145,17.2035276 65.7388199,13 58.25,13 C47.9164617,13 39.4364973,20.9360939 38.5724943,31.0458944 L38.56,31.197 L38.8647861,31.1199096 C44.2185867,29.7820696 49.4779996,29.0764508 54.6404839,29.0058811 L55.5,29 C59.3970387,29 63.9958319,29.3639163 69.3031724,30.0899239 L70.8388414,30.3072059 C71.3571617,30.3829165 71.8819147,30.4619098 72.4131061,30.5441841 L74.0260016,30.8008491 L74.8469468,30.9365611 L74.8469468,30.9365611 L76.5178546,31.2227384 L78.2274811,31.5285788 L79.0968249,31.6888698 L79.0968249,31.6888698 C79.865971,31.8321045 80.5291862,32.216729 81.0227534,32.74988 L83,32.75 L83,34.051 L83.0563533,34.2012655 C84.2795711,37.583623 84.9259512,41.078898 84.9939959,44.8345121 L85,45.5 C85,56.3852528 80.0808947,66.239782 72.7405503,71.9243143 L72.64,72 L78.5,72 C90.8021428,72 100.798293,81.8731286 100.996986,94.1279214 L101,94.5 L101,106.5 L96,106.5 L96,94.5 C96,84.9448462 88.3420399,77.1783049 78.8287703,77.0030264 L78.5,77 L76.8324135,77.0007637 C75.6115824,86.0352829 67.8691396,93 58.5,93 Z" id="Shape" fill="#000000" fill-rule="nonzero"></path>
    </g>
</svg>