<?xml version="1.0" encoding="UTF-8"?>
<svg  viewBox="0 0 117 116" version="1.1" xmlns="http://www.w3.org/2000/svg" xmlns:xlink="http://www.w3.org/1999/xlink">
    <title>person-with-bow-tie</title>
    <g id="person-with-bow-tie" stroke="none" stroke-width="1" fill="none" fill-rule="evenodd" transform="translate(0.000000, 0.000000)">
        <path d="M58.5,7.5 C73.1926003,7.5 85,20.7364315 85,37.5 C85,52.4164137 75.7262941,65.5358249 63.4976377,68.4158827 L67.3814417,72.8537385 L63.6185583,76.1462615 L58.7301582,70.5595186 C58.5483171,70.3517002 58.2324358,70.3306415 58.0246175,70.5124825 L37.9748737,90.5606602 C36.6080387,91.9274952 34.3919613,91.9274952 33.0251263,90.5606602 C32.4192395,89.9547734 32.0584325,89.1496202 32.0065089,88.2992357 L32,88.0857864 L32.0005933,69.321418 C25.750168,70.6828224 21.1528896,76.1821541 21.0037379,82.67435 L21,83 L21,107 L16,107 L16,83 C16,73.6950778 22.7325806,65.802733 31.810747,64.2669079 C32.0209642,64.2313438 32.2531232,64.1992542 32.5086721,64.1701852 L33.0513855,64.1159403 L33.3469364,64.0915862 L33.3469364,64.0915862 C34.9228014,63.969768 36.4703491,64.5318432 37.5991014,65.6262455 L37.7832821,65.8135489 L44.323843,72.7901472 L42.084,74.889 L40.7194053,76.2549392 L37,72.535 L37,84.464 L55.9019577,65.5625084 C56.8628427,64.6015919 58.145451,64.0304302 59.5024987,63.9591303 L59.9087486,63.9345265 L60.3725336,63.8937691 L60.3725336,63.8937691 C71.1371135,62.6697478 80,51.0479515 80,37.5 C80,23.3786539 70.2958275,12.5 58.5,12.5 C46.7041725,12.5 37,23.3786539 37,37.5 C37,47.906242 41.4779096,56.8522599 48.532497,61.0070938 L48.8650608,61.1983298 L46.4179066,65.5585404 C37.4887218,60.5470641 32,49.7778695 32,37.5 C32,20.7364315 43.8073997,7.5 58.5,7.5 Z M84.4206491,64.1664671 C84.6252154,64.1960728 84.814912,64.2291942 84.9917659,64.2668266 C93.4105537,66.058244 100.825666,76.6781394 100.996972,86.6483938 L101,87 L101,106.5 L96,106.5 L96,87 C96,79.6033775 90.6673838,71.4498125 85.00097,69.4543838 L85,88.4784228 C85,90.4114194 83.4329966,91.9784228 81.5,91.9784228 C80.6091801,91.9784228 79.7548496,91.6388976 79.1084648,91.0339287 L78.9513,90.8771993 L72.6795,84.2134117 L76.3205,80.7865883 L80,84.696 L80,72.535 L62.3890873,90.1464466 C60.3008671,92.2346668 56.9512337,92.2926729 54.792935,90.320465 L54.6109127,90.1464466 L48.7215419,84.2570758 L52.2570758,80.7215419 L58.1464466,86.6109127 C58.320013,86.7844791 58.5894374,86.8037642 58.7843055,86.6687682 L58.8535534,86.6109127 L79.7437599,65.7207062 C80.9703772,64.4940561 82.7038136,63.9179993 84.4206491,64.1664671 Z" id="Shape" fill="#000000" fill-rule="nonzero"></path>
    </g>
</svg>