<?xml version="1.0" encoding="UTF-8"?>
<svg  viewBox="0 0 117 116" version="1.1" xmlns="http://www.w3.org/2000/svg" xmlns:xlink="http://www.w3.org/1999/xlink">
    <title>person-with-tie</title>
    <g id="person-with-tie" stroke="none" stroke-width="1" fill="none" fill-rule="evenodd" transform="translate(0.000000, 0.000000)">
        <path d="M58.5,7.5 C73.1926003,7.5 85,20.7364315 85,37.5 C85,48.4334244 80.0372604,58.3269824 72.6429563,63.9995381 L78,64 C90.5755238,64 100.79381,74.0925315 100.996919,86.6196529 L101,87 L101,106.5 L96,106.5 L96,87 C96,77.1693315 88.1192167,69.1793185 78.3306652,69.0029763 L78,69 L59.582,69 L54.426,74.499 L58.557,78.906 L64.732233,72.732233 L68.267767,76.267767 L61.353,83.182 L68.8765136,106.223996 L64.1234864,107.776004 L58.475,90.479 L52.8717082,107.290569 L48.1282918,105.709431 L55.1698182,84.5848512 C55.3124472,84.1569642 55.5297116,83.7749597 55.8023121,83.4484874 L55.879,83.36 L49.8173518,76.893794 C48.6019387,75.5973534 48.5569234,73.6066665 49.6823059,72.2588002 L49.8173518,72.106206 L57.41692,64 L58.586,63.999 L58.8445294,63.9963895 C70.1985977,63.7584154 80,51.7882724 80,37.5 C80,23.3786539 70.2958275,12.5 58.5,12.5 C46.7041725,12.5 37,23.3786539 37,37.5 C37,47.906242 41.4779096,56.8522599 48.532497,61.0070938 L48.8650608,61.1983298 L46.4179066,65.5585404 C37.4887218,60.5470641 32,49.7778695 32,37.5 C32,20.7364315 43.8073997,7.5 58.5,7.5 Z M35,64 L35,69 C27.3724998,69 21.1696731,75.0997524 21.003422,82.687355 L21,83 L21,107 L16,107 L16,83 C16,72.6194221 24.3246359,64.1831671 34.6622002,64.0029425 L35,64 Z" id="Shape" fill="#000000" fill-rule="nonzero"></path>
    </g>
</svg>