<?xml version="1.0" encoding="UTF-8"?>
<svg  viewBox="0 0 117 116" version="1.1" xmlns="http://www.w3.org/2000/svg" xmlns:xlink="http://www.w3.org/1999/xlink">
    <title>person-with-hat</title>
    <g id="person-with-hat" stroke="none" stroke-width="1" fill="none" fill-rule="evenodd" transform="translate(0.000000, 0.000000)">
        <path d="M46.3610431,5.69205585 L47.6540354,6.23200056 C52.183395,8.0879118 55.8180942,9 58.5,9 C61.1819056,9 64.8166045,8.08791193 69.3459636,6.23200097 L70.3671911,5.80402723 C71.6732658,5.24481617 73.0792438,4.956482 74.5,4.956482 C80.2039207,4.956482 84.8455677,9.50462029 84.9962255,15.1721825 L85,15.4564776 L85,28.548 L98.717824,31.977515 C99.5929962,32.196308 100.287766,32.8515202 100.561732,33.7021992 L100.610843,33.8748699 C100.955144,35.265585 100.109733,36.6702569 98.7121169,37.023433 C93.9933673,38.1916576 89.2738053,39.154273 84.5536128,39.9112084 C84.8503629,41.7305752 85,43.5992102 85,45.5 C85,56.3852528 80.0808947,66.239782 72.7405503,71.9243143 L72.641,71.999 L78.5,72 C90.8021428,72 100.798293,81.8731286 100.996986,94.1279214 L101,94.5 L101,106.5 L96,106.5 L96,94.5 C96,84.9448462 88.3420399,77.1783049 78.8287703,77.0030264 L78.5,77 L58.5,77 L58.5,72 C69.9995895,72 80,59.9325983 80,45.5 C80,43.8384169 79.8673544,42.2101284 79.6067529,40.6273992 C72.5708752,41.5430622 65.5357658,42 58.5,42 C51.4639505,42 44.4285639,41.5430255 37.3944409,40.6293129 C37.1326315,42.2105333 37,43.8385232 37,45.5 C37,55.906242 41.4779096,64.8522599 48.532497,69.0070938 L48.8650608,69.1983298 L46.4179066,73.5585404 C37.4887218,68.5470641 32,57.7778695 32,45.5 C32,43.5995524 32.1495888,41.7314861 32.4441509,39.9101774 C28.0291808,39.2027721 23.6157646,38.3149966 19.2030501,37.2474212 L17.8936609,36.9253563 L19.1063391,32.0746437 C32.2428671,35.3587758 45.372661,37 58.5,37 C68.0331428,37 77.5675676,36.1344611 87.100282,34.4039034 L87.505,34.328 L80,32.451941 L80,15.4564801 C79.9999969,12.4189144 77.5375636,9.956482 74.5,9.956482 C73.7557947,9.956482 73.0193303,10.1075141 72.3351962,10.4004341 C66.7611256,12.7870373 62.1734042,14 58.5,14 C54.8265955,14 50.2388738,12.7870371 44.6648042,10.4004343 C41.8724257,9.20484713 38.6395407,10.4993003 37.4439522,13.2916766 C37.1876472,13.8902941 37.039975,14.5289771 37.0070618,15.177854 L37,15.4564811 L37,24.528 L37.1418051,24.5614035 C43.9262016,26.1101256 50.7057874,26.9207797 57.4833763,26.9944731 L58.5,27 C63.3626809,27 68.2260027,26.6206566 73.0910827,25.861682 L74.2138252,25.6797949 L75.0422173,30.610694 C69.5298185,31.5367782 64.0152808,32 58.5,32 C50.650788,32 42.8038221,31.061788 34.9628473,29.1868374 L33.8936609,28.9253563 L32,28.451941 L32,15.4564811 C32,14.0357247 32.2883342,12.6297464 32.8475454,11.3236715 C35.0913465,6.08312477 41.0938046,3.60613413 46.3610431,5.69205585 Z M36.0509826,72 L58.165192,94.5847245 C58.3369218,94.7601081 58.6061283,94.7822281 58.8024066,94.6492907 L58.8722596,94.5921673 L64.732233,88.732233 L68.267767,92.267767 L62.3703836,98.1647194 C60.260299,100.230844 56.9102406,100.253589 54.7728204,98.2587731 L54.5926399,98.0828485 L33.984,77.036 L33.7597556,77.0541837 C26.7108624,77.6729332 21.1605635,83.5155114 21.003422,90.687355 L21,91 L21,106.5 L16,106.5 L16,91 C16,80.6194221 24.3246359,72.1831671 34.6622002,72.0029425 L35,72 L36.0509826,72 Z" id="Shape" fill="#000000" fill-rule="nonzero"></path>
    </g>
</svg>