<?xml version="1.0" encoding="UTF-8"?>
<svg  viewBox="0 0 116 116" version="1.1" xmlns="http://www.w3.org/2000/svg" xmlns:xlink="http://www.w3.org/1999/xlink">
    <title>person</title>
    <g id="person" stroke="none" stroke-width="1" fill="none" fill-rule="evenodd">
        <path d="M36.0509826,64 L58.444,86.868 L68.1601725,76.3073587 L71.8398275,79.6926413 L58.5564975,94.1310435 L33.984,69.036 L33.7597556,69.0541837 C26.7108624,69.6729332 21.1605635,75.5155114 21.003422,82.687355 L21,83 L21,107 L16,107 L16,83 C16,72.6194221 24.3246359,64.1831671 34.6622002,64.0029425 L35,64 L36.0509826,64 Z M58.5,7.5 C73.1926003,7.5 85,20.7364315 85,37.5 C85,48.4339182 80.0368121,58.327876 72.6419545,64.0003066 L78,64 C90.5755238,64 100.79381,74.0925315 100.996919,86.6196529 L101,87 L101,106.5 L96,106.5 L96,87 C96,77.1693315 88.1192167,69.1793185 78.3306652,69.0029763 L78,69 L58.5,69 L58.5,64 C69.9995895,64 80,51.9325983 80,37.5 C80,23.3786539 70.2958275,12.5 58.5,12.5 C46.7041725,12.5 37,23.3786539 37,37.5 C37,47.906242 41.4779096,56.8522599 48.532497,61.0070938 L48.8650608,61.1983298 L46.4179066,65.5585404 C37.4887218,60.5470641 32,49.7778695 32,37.5 C32,20.7364315 43.8073997,7.5 58.5,7.5 Z" id="Shape" fill="#000000" fill-rule="nonzero"></path>
    </g>
</svg>