<?xml version="1.0" encoding="UTF-8"?>
<svg  viewBox="0 0 117 116" version="1.1" xmlns="http://www.w3.org/2000/svg" xmlns:xlink="http://www.w3.org/1999/xlink">
    <title>person-with-long-hair</title>
    <g id="person-with-long-hair" stroke="none" stroke-width="1" fill="none" fill-rule="evenodd" transform="translate(0.000000, 0.000000)">
        <path d="M61,23.5 L61,26.138779 C61,33.4443716 66.8056596,39.4037239 74.0701803,39.6320049 L74.3823974,39.6382667 L82.1504815,39.7059394 L82.7641228,41.2860434 C84.2333633,45.0692839 85,49.19866 85,53.5 C85,64.3852528 80.0808947,74.239782 72.7405503,79.9243143 L72.64,80 L78.5,80 C90.8021428,80 100.798293,89.8731286 100.996986,102.127921 L101,102.5 L101,106.5 L96,106.5 L96,102.5 C96,92.9448462 88.3420399,85.1783049 78.8287703,85.0030264 L78.5,85 L58.5,85 L58.5,80 C69.9995895,80 80,67.9325983 80,53.5 C80,50.4653259 79.5573641,47.5456016 78.7062992,44.8204273 L78.659,44.675 L74.3388409,44.638077 C65.1947307,44.5584169 57.6475659,37.8547024 56.2367732,29.1060785 L56.168,28.643 L56.0562346,28.6572971 C45.5077958,30.0240448 37.1807601,40.1460697 37.0029036,53.0773401 L37,53.5 C37,63.906242 41.4779096,72.8522599 48.532497,77.0070938 L48.8650608,77.1983298 L46.4179066,81.5585404 C37.4887218,76.5470641 32,65.7778695 32,53.5 C32,36.9040672 43.5724324,23.7650813 58.0600965,23.5039612 L58.5,23.5 L61,23.5 Z M58.7768133,8 C81.9001715,8 100.733557,26.4734187 101.265292,49.505544 L101.275789,50.2048682 L101.49994,82.4826393 L96.5000603,82.5173607 L96.2759091,50.2395896 C96.1342253,29.8371184 79.7191451,13.3330184 59.3939135,13.0049767 L58.5,13 C37.9964287,13 21.3361786,29.4552144 21.0050239,49.8798689 L21,50.5 L21,86.153 L21.0219037,86.1307871 C24.4231193,82.4383912 29.2686884,80.0969727 34.6622002,80.0029425 L35,80 L35,85 C27.3724998,85 21.1696731,91.0997524 21.003422,98.687355 L21,99 L21,106.5 L16,106.5 L16,50.5 C16,27.2626192 34.649243,8.38100238 57.7971848,8.00569379 L58.7768133,8 Z" id="Shape" fill="#000000" fill-rule="nonzero"></path>
    </g>
</svg>