<?xml version="1.0" encoding="UTF-8"?>
<svg  viewBox="0 0 116 116" version="1.1" xmlns="http://www.w3.org/2000/svg" xmlns:xlink="http://www.w3.org/1999/xlink">
    <title>person</title>
    <g id="person" stroke="none" stroke-width="1" fill="none" fill-rule="evenodd">
        <path d="M36.0509826,64 L58.0749478,86.4925602 C58.2681438,86.6898668 58.5847088,86.693199 58.7820154,86.5 L68.1601725,76.3073587 L71.8398275,79.6926413 L62.4798235,89.8665587 C62.4150647,89.9369488 62.3484806,90.0056376 62.2801393,90.0725551 C60.1700548,92.1386796 56.8199963,92.1614251 54.6825761,90.1666088 L54.5023956,89.9906841 L33.984,69.036 L33.7597556,69.0541837 C26.7108624,69.6729332 21.1605635,75.5155114 21.003422,82.687355 L21,83 L21,107 L16,107 L16,83 C16,72.6194221 24.3246359,64.1831671 34.6622002,64.0029425 L35,64 L36.0509826,64 Z M58.5,7.5 C73.1926003,7.5 85,20.7364315 85,37.5 C85,48.3852528 80.0808947,58.239782 72.7405503,63.9243143 L72.64,64 L78.5,64 C90.8021428,64 100.798293,73.8731286 100.996986,86.1279214 L101,86.5 L101,106.5 L96,106.5 L96,86.5 C96,76.9448462 88.3420399,69.1783049 78.8287703,69.0030264 L78.5,69 L58.5,69 L58.5,64 C69.9995895,64 80,51.9325983 80,37.5 C80,23.3786539 70.2958275,12.5 58.5,12.5 C46.7041725,12.5 37,23.3786539 37,37.5 C37,47.906242 41.4779096,56.8522599 48.532497,61.0070938 L48.8650608,61.1983298 L46.4179066,65.5585404 C37.4887218,60.5470641 32,49.7778695 32,37.5 C32,20.7364315 43.8073997,7.5 58.5,7.5 Z" id="Shape" fill="#000000" fill-rule="nonzero"></path>
    </g>
</svg>