<?xml version="1.0" encoding="UTF-8"?>
<svg  viewBox="0 0 117 116" version="1.1" xmlns="http://www.w3.org/2000/svg" xmlns:xlink="http://www.w3.org/1999/xlink">
    <title>person-with-mustache</title>
    <g id="person-with-mustache" stroke="none" stroke-width="1" fill="none" fill-rule="evenodd" transform="translate(0.000000, 0.000000)">
        <path d="M75.9926151,75.8523438 L79.5553541,79.3553782 C77.861547,81.2134559 76.0196124,82.8388081 74.0641153,84.2075988 L73.929,84.3 L86.8,84.3 C98.9381142,84.3 108.800982,94.0414869 108.997026,106.132882 L109,106.5 L104,106.5 C104,97.1098896 96.4753079,89.4772653 87.1268401,89.3030432 L86.8,89.3 L58.0682867,89.2993421 C51.274505,89.2246082 44.5023818,86.1709303 37.7774799,80.2581271 L37.3292234,79.8597058 L40.6707766,76.1402942 C46.8305295,81.6742724 52.7568166,84.3486994 58.4787627,84.3000902 C64.1954443,84.2515257 70.0228566,81.4819503 75.9926151,75.8523438 Z M30.3,84 L30.3,89 L30,89 C20.719077,89 13.175204,96.4371956 13.0030079,105.67696 L13,106 L8,106 C8,93.9712381 17.6537258,84.1972248 29.6361898,84.0029474 L30.3,84 Z M50.5,56 C53.6371585,56 56.4529786,57.375813 58.3770069,59.5569854 L58.499,59.699 L58.6229931,59.5569854 C60.4887175,57.4419091 63.1930047,56.0841221 66.2157049,56.0037742 L66.5,56 L71.1862915,56 C73.8596737,56 76.427941,57.0195171 78.3712869,58.8432404 L78.6109127,59.0753788 L84.267767,64.732233 C85.1215669,65.586033 86.5058501,65.586033 87.35965,64.732233 C87.7241027,64.3677804 87.946595,63.8879045 87.9915384,63.3785243 L88,63.1862915 L88,58.5 L93,58.5 L93,63.1862915 C93,65.0922145 92.242875,66.9200759 90.895184,68.267767 C88.1525449,71.010406 83.7445769,71.0727388 80.926241,68.4547651 L80.732233,68.267767 L75.0753788,62.6109127 C74.1083943,61.6439283 72.818415,61.0741984 71.4590207,61.0067595 L71.1862915,61 L66.5,61 C63.5365209,61 61.1204609,63.34378 61.0043672,66.2787929 L61,66.5 L56,66.5 C56,63.5365209 53.65622,61.1204609 50.7212071,61.0043672 L50.5,61 L45.8137085,61 C44.446186,61 43.131173,61.5092933 42.1222496,62.4228437 L41.9246212,62.6109127 L36.267767,68.267767 C34.9200759,69.615458 33.0922145,70.372583 31.1862915,70.372583 C27.2984098,70.372583 24.1316359,67.2851536 24.0039991,63.4283242 L24,63.1862915 L24,58.5 L29,58.5 L29,63.1862915 C29,64.393747 29.978836,65.372583 31.1862915,65.372583 C31.7017053,65.372583 32.1983547,65.1905854 32.5903207,64.8621789 L32.732233,64.732233 L38.3890873,59.0753788 C40.279454,57.1850121 42.8164006,56.0898804 45.4801208,56.0052944 L45.8137085,56 L50.5,56 Z M58.5,17.1 C75.761286,17.1 89.5223557,31.9450419 89.795851,51.4087864 L89.8,52 L84.8,52 C84.8,34.9140026 73.0706616,22.1 58.5,22.1 C44.075045,22.1 32.4348709,34.6590039 32.2035099,51.4887102 L32.2,52 L27.2,52 C27.2,32.2464564 41.0643575,17.1 58.5,17.1 Z" id="Shape" fill="#000000" fill-rule="nonzero"></path>
    </g>
</svg>