<?xml version="1.0" encoding="UTF-8"?>
<svg  viewBox="0 0 116 116" version="1.1" xmlns="http://www.w3.org/2000/svg" xmlns:xlink="http://www.w3.org/1999/xlink">
    <title>phone-beaming</title>
    <g id="phone-beaming" stroke="none" stroke-width="1" fill="none" fill-rule="evenodd">
        <path d="M65.7025431,30.1733401 L65.9246212,30.3890873 L70.0355339,34.5 L68.267767,36.267767 C67.0823552,37.4531788 67.0367624,39.3467833 68.1309887,40.5866715 L68.267767,40.732233 L76.267767,48.732233 C77.4531788,49.9176448 79.3467833,49.9632376 80.5866715,48.8690113 L80.732233,48.732233 L82.5,46.9644661 L86.6109127,51.0753788 C90.6381945,55.1026606 90.7101102,61.5874917 86.8266599,65.7025431 L86.6109127,65.9246212 L45.9246212,106.610913 C41.8973394,110.638194 35.4125083,110.71011 31.2974569,106.82666 L31.0753788,106.610913 L14.8535534,90.3890873 C12.7653332,88.3008671 12.7073271,84.9512337 14.679535,82.792935 L14.8535534,82.6109127 L18.6109127,78.8535534 C20.6991329,76.7653332 24.0487663,76.7073271 26.207065,78.679535 L26.3890873,78.8535534 L40.267767,92.732233 L36.732233,96.267767 L22.8535534,82.3890873 C22.679987,82.2155209 22.4105626,82.1962358 22.2156945,82.3312318 L22.1464466,82.3890873 L18.3890873,86.1464466 C18.2155209,86.320013 18.1962358,86.5894374 18.3312318,86.7843055 L18.3890873,86.8535534 L34.6109127,103.075379 C36.6991329,105.163599 40.0487663,105.221605 42.207065,103.249397 L42.3890873,103.075379 L83.0753788,62.3890873 C85.163599,60.3008671 85.2216051,56.9512337 83.2493971,54.792935 L83.0753788,54.6109127 L82.223,53.758 L82.0549471,53.8439009 C79.096253,55.2762473 75.451559,54.8158502 72.9338649,52.4627098 L72.732233,52.267767 L64.732233,44.267767 C62.2104187,41.7459526 61.6850407,37.9837117 63.1560991,34.9450529 L63.241,34.776 L62.3890873,33.9246212 C60.3008671,31.836401 56.9512337,31.7783949 54.792935,33.7506029 L54.6109127,33.9246212 L12.267767,76.267767 C11.0823552,77.4531788 11.0367624,79.3467833 12.1309887,80.5866715 L12.267767,80.732233 L8.73223305,84.267767 C5.61314685,81.1486808 5.54816589,76.1320169 8.53729016,72.9338649 L8.73223305,72.732233 L51.0753788,30.3890873 C55.1026606,26.3618055 61.5874917,26.2898898 65.7025431,30.1733401 Z M75.1561654,4.08764702 C82.9412195,6.20519922 90.6322147,11.0966808 98.2458568,18.7103229 C104.41762,24.8820857 108.807936,31.111364 111.394218,37.4112573 C111.666301,38.0740218 111.806276,38.7835601 111.806276,39.5 C111.806276,42.4634806 109.462494,44.8795416 106.527482,44.995633 L106.306274,45 L100.918743,45 C98.4662259,45 96.3100567,43.3761863 95.632677,41.0190545 C94.6103707,37.4615733 92.0143399,33.5498739 87.796588,29.3321219 C84.2277668,25.7633007 80.8507162,23.3284011 77.6930157,22.0070054 C77.6318814,21.9814227 77.5662713,21.9682484 77.5,21.9682484 C77.2545398,21.9682484 77.0503914,22.1451234 77.0080556,22.3783735 L77,22.4682495 L77,27.8695121 C77,28.0959937 77.1522401,28.2941977 77.3710477,28.3526009 C79.6918086,28.9720242 81.9173039,30.38177 84.0641821,32.5286482 C85.4612456,33.9257117 86.5714964,35.3811539 87.3860947,36.8985596 C87.8154947,37.6984311 88.0402195,38.5921571 88.0402195,39.5 C88.0402195,42.4634778 85.6964411,44.8795368 82.761428,44.9956326 L82.5402208,45 L78.5,45 L78.5,40 L82.5402189,40 C82.8163618,39.9999998 83.0402195,39.776142 83.0402195,39.5 C83.0402195,39.417469 83.01979,39.3362214 82.9807538,39.263506 C82.4081719,38.1969201 81.59375,37.1292839 80.5286482,36.0641821 C79.0600578,34.5955917 77.6605643,33.6754346 76.3438662,33.2598784 L76.0816346,33.1834822 C73.7522418,32.5617304 72.1088006,30.4998776 72.005196,28.1095941 L72,27.8695121 L72,22.4682512 C72,19.4306837 74.4624326,16.9682484 77.5,16.9682484 C78.2289826,16.9682484 78.9506925,17.113166 79.6231687,17.3945755 C83.4417463,18.9925269 87.3355375,21.8000036 91.3321219,25.796588 C96.1008686,30.5653347 99.1522242,35.1631178 100.438188,39.6380887 C100.492071,39.8255919 100.648884,39.9620528 100.836608,39.9932383 L100.918743,40 L106.306276,40 C106.582418,40.0000002 106.806276,39.7761428 106.806276,39.5 C106.806276,39.4348689 106.793551,39.3703653 106.768816,39.3101138 C104.452981,33.6689988 100.441013,27.9765465 94.7103229,22.2458568 C87.8435738,15.3791077 81.0504505,10.9977105 74.346466,9.05359268 L73.8438346,8.91235298 L75.1561654,4.08764702 Z" id="Shape" fill="#000000" fill-rule="nonzero"></path>
    </g>
</svg>