<?xml version="1.0" encoding="UTF-8"?>
<svg  viewBox="0 0 116 116" version="1.1" xmlns="http://www.w3.org/2000/svg" xmlns:xlink="http://www.w3.org/1999/xlink">
    <title>phone</title>
    <g id="phone" stroke="none" stroke-width="1" fill="none" fill-rule="evenodd">
        <path d="M42.5587588,73.9855606 C61.2581756,92.6849773 88.2891114,103.157968 96.4120923,95.7813256 L96.6524276,95.5523174 L108.381938,83.8228073 C108.548348,83.6563968 108.703906,83.479477 108.847653,83.293139 C110.657756,80.9467088 110.277731,77.6021264 108.02475,75.7174895 L107.852269,75.5789176 L87.8936103,60.1822377 C85.7647876,58.540003 82.7722882,58.6828535 80.8106736,60.489064 L80.645104,60.6479528 L72.9643504,68.3287063 L52.1047004,47.4690563 L48.5691665,51.0045902 L77.0544479,79.4898716 L80.5899818,75.9543377 L76.4998843,71.8642402 L84.1806379,64.1834867 C84.3386564,64.0254681 84.5791281,63.9935884 84.7704207,64.0963046 L84.839593,64.1411489 L104.798252,79.5378288 C105.016897,79.7064976 105.05741,80.0204771 104.888742,80.2391217 L104.846404,80.2872734 L93.1168937,92.0167835 C91.8652777,93.2683996 88.4451994,93.5108224 83.7968864,92.5835882 L83.0721979,92.4316871 L82.3288898,92.2612 C81.4511314,92.051406 80.5369114,91.8034006 79.5916663,91.516256 L78.7739851,91.2605251 L77.9418687,90.9854942 L77.5206351,90.8407006 L77.5206351,90.8407006 L76.6682926,90.5364761 C76.3820474,90.4318043 76.0937132,90.3238618 75.8034171,90.2126268 C65.7710647,86.3684544 55.0620477,79.4177816 46.0942928,70.4500267 C37.1265378,61.4822718 30.175865,50.7732547 26.3316926,40.7409024 L26.0078434,39.8760268 L26.0078434,39.8760268 L25.7036188,39.0236843 L25.5588252,38.6024507 L25.5588252,38.6024507 L25.2837943,37.7703344 L25.0280635,36.9526531 C24.7409188,36.007408 24.4929134,35.093188 24.2831195,34.2154297 L24.1126324,33.4721216 L23.9607313,32.7474331 C23.0572723,28.2183076 23.2642569,24.8552379 24.433251,23.5279651 L24.5275359,23.4274257 L36.2570461,11.6979156 C36.4523082,11.5026534 36.7688907,11.5026534 36.9641529,11.6979156 L36.9860944,11.7213121 L52.4031705,31.7047264 C52.5396679,31.8816675 52.5405121,32.1242416 52.4141604,32.3008167 L52.3608328,32.3636815 L44.6800792,40.0444351 L40.5899818,35.9543377 L37.0544479,39.4898716 L41.4980987,43.9335224 C43.2052477,45.6406714 45.9427779,45.6894471 47.7088058,44.0798495 L47.8620597,43.9335224 L55.8963667,35.8992154 C57.797527,33.9980551 58.0388052,31.0118797 56.498476,28.8352506 L56.3620818,28.6507091 L40.9654019,8.69204998 C40.8216554,8.50571195 40.6660973,8.32879218 40.4996868,8.16238168 C38.4041906,6.06688548 35.0384754,6.01577582 32.8810173,8.00905269 L32.7215122,8.16238168 L20.992002,19.8918918 C13.1756154,27.7082785 23.6704591,55.0972609 42.5587588,73.9855606 Z" id="Path" fill="#000000" fill-rule="nonzero"></path>
    </g>
</svg>