<?xml version="1.0" encoding="UTF-8"?>
<svg  viewBox="0 0 116 116" version="1.1" xmlns="http://www.w3.org/2000/svg" xmlns:xlink="http://www.w3.org/1999/xlink">
    <title>phone-down</title>
    <g id="phone-down" stroke="none" stroke-width="1" fill="none" fill-rule="evenodd">
        <path d="M58.5,35.5 C32.0550312,35.5 5.53575062,47.2082354 5.00800951,58.1681241 L5,58.5 L5,75.0880323 C5,75.3233723 5.01510496,75.5584697 5.04522173,75.7918747 C5.42446212,78.7309877 8.05815769,80.8272459 10.9838951,80.5667875 L11.2038424,80.5428106 L36.2038424,77.3170041 C38.8703826,76.9729344 40.8853887,74.7559073 40.9952759,72.0916526 L41,71.8622259 L41,61 L70.5,61 L70.5,56 L30.2157288,56 L30.2157288,61 L36,61 L36,71.8622259 C36,72.0856978 35.8525033,72.2782793 35.6446076,72.3409123 L35.5639857,72.3581148 L10.5639857,75.5839213 C10.2901138,75.6192596 10.0394494,75.4258899 10.0041111,75.152018 L10,75.0880323 L10,58.5 C10,56.7299476 12.2469417,54.1401682 16.189449,51.5089682 L16.8092914,51.1039464 L17.4554422,50.6989007 C18.2244578,50.2265786 19.0462753,49.7554937 19.9177064,49.2901464 L20.6767234,48.8927875 L21.4595947,48.4988686 L21.8598364,48.303396 L21.8598364,48.303396 L22.6776528,47.9158181 C22.9540729,47.7874262 23.2342828,47.6598701 23.5182082,47.5332547 C33.3303929,43.1575507 45.8176794,40.5 58.5,40.5 C71.1823206,40.5 83.6696071,43.1575507 93.4817918,47.5332547 C93.7657172,47.6598701 94.0459271,47.7874262 94.3223472,47.9158181 L95.1401636,48.303396 L95.5404053,48.4988686 L95.5404053,48.4988686 L96.3232766,48.8927875 L97.0822936,49.2901464 C97.9537247,49.7554937 98.7755422,50.2265786 99.5445578,50.6989007 L100.190709,51.1039464 L100.810551,51.5089682 C104.651968,54.0727015 106.883657,56.5971112 106.995577,58.3622384 L107,58.5 L107,75.0880323 C107,75.3641747 106.776142,75.5880323 106.5,75.5880323 L106.467941,75.5870035 L81.4360143,72.3581148 C81.2143798,72.3295168 81.0422571,72.1585879 81.0067438,71.9443864 L81,71.8622259 L81,61 L86.7842712,61 L86.7842712,56 L80.5,56 C78.0857267,56 76.1155109,57.9012365 76.004898,60.2881643 L76,60.5 L76,71.8622259 C76,74.5508726 77.9409355,76.8330269 80.5692219,77.2829589 L80.7961576,77.3170041 L105.796158,80.5428106 C106.029563,80.5729274 106.26466,80.5880323 106.5,80.5880323 C109.463479,80.5880323 111.879539,78.2442523 111.995633,75.3092395 L112,75.0880323 L112,58.5 C112,47.44596 85.2120897,35.5 58.5,35.5 Z" id="Path" fill="#000000" fill-rule="nonzero"></path>
    </g>
</svg>