<?xml version="1.0" encoding="UTF-8"?>
<svg  viewBox="0 0 116 116" version="1.1" xmlns="http://www.w3.org/2000/svg" xmlns:xlink="http://www.w3.org/1999/xlink">
    <title>photo-cam-rotate</title>
    <g id="photo-cam-rotate" stroke="none" stroke-width="1" fill="none" fill-rule="evenodd">
        <path d="M71.1862915,16 C73.8596737,16 76.427941,17.0195171 78.3712869,18.8432404 L78.6109127,19.0753788 L85.9246212,26.3890873 C86.8916057,27.3560717 88.181585,27.9258016 89.5409793,27.9932405 L89.8137085,28 L98.5,28 C104.203924,28 108.845573,32.548142 108.996226,38.2157049 L109,38.5 L109,90.5 C109,96.2039245 104.451858,100.845573 98.7842951,100.996226 L98.5,101 L34.5,101 L34.5,96 L98.5,96 C101.463479,96 103.879539,93.65622 103.995633,90.7212071 L104,90.5 L104,38.5 C104,35.5365209 101.65622,33.1204609 98.7212071,33.0043672 L98.5,33 L89.8137085,33 C87.1403263,33 84.572059,31.9804829 82.6287131,30.1567596 L82.3890873,29.9246212 L75.0753788,22.6109127 C74.1083943,21.6439283 72.818415,21.0741984 71.4590207,21.0067595 L71.1862915,21 L46.2469996,21 C44.7053932,21 43.2390046,21.6467058 42.2005291,22.7749237 L42.0217825,22.9789858 L36.8193239,29.2219362 C34.8956364,31.5303612 32.0790497,32.8998448 29.0862253,32.9947206 L28.7530004,33 L18.5,33 C15.5365209,33 13.1204609,35.34378 13.0043672,38.2787929 L13,38.5 L13,90.5 C13,93.4634791 15.34378,95.8795391 18.2787929,95.9956328 L18.5,96 L18.5,101 C12.7960755,101 8.15442656,96.451858 8.00377424,90.7842951 L8,90.5 L8,38.5 C8,32.7960755 12.548142,28.1544266 18.2157049,28.0037742 L18.5,28 L28.7530004,28 C30.2946068,28 31.7609954,27.3532942 32.7994709,26.2250763 L32.9782175,26.0210142 L38.1806761,19.7780638 C40.1043636,17.4696388 42.9209503,16.1001552 45.9137747,16.0052794 L46.2469996,16 L71.1862915,16 Z M74.3350576,46.5156009 C78.571098,50.7122829 81,56.4166808 81,62.5 C81,74.6791214 71.3233466,84.5981393 59.2390004,84.9880931 L58.753,84.997 L63.8867505,88.4198743 L61.1132495,92.5801257 L50.361325,85.412176 C48.7529745,84.3399424 48.318366,82.1668997 49.3905996,80.5585493 C49.6042013,80.2381468 49.8689129,79.955635 50.1737185,79.72203 L50.361325,79.587824 L61.1132495,72.4198743 L63.8867505,76.5801257 L58.761,79.997 L58.8287703,79.9969736 C68.3420399,79.8216951 76,72.0551538 76,62.5 C76,57.90811 74.2263245,53.6033963 71.1119507,50.3677807 L70.8160636,50.0675977 L74.3350576,46.5156009 Z M55.8867505,32.4198743 L66.638675,39.587824 C67.0231581,39.844146 67.3530784,40.1740663 67.6094004,40.5585493 C68.6446604,42.1114394 68.2752067,44.1907489 66.8008555,45.2973968 L66.638675,45.412176 L55.8867505,52.5801257 L53.1132495,48.4198743 L58.239,45.002 L58.1712297,45.0030264 C48.6579601,45.1783049 41,52.9448462 41,62.5 C41,67.0739089 42.7597068,71.363108 45.8523917,74.5950527 L46.1462231,74.8949265 L42.6165306,78.4362922 C38.4098022,74.2434301 36,68.5594634 36,62.5 C36,50.3208786 45.6766534,40.4018607 57.7609996,40.0119069 L58.245,40.002 L53.1132495,36.5801257 L55.8867505,32.4198743 Z" id="Shape" fill="#000000" fill-rule="nonzero"></path>
    </g>
</svg>