<?xml version="1.0" encoding="UTF-8"?>
<svg  viewBox="0 0 116 116" version="1.1" xmlns="http://www.w3.org/2000/svg" xmlns:xlink="http://www.w3.org/1999/xlink">
    <title>photo-cam</title>
    <g id="photo-cam" stroke="none" stroke-width="1" fill="none" fill-rule="evenodd">
        <path d="M71.1862915,16 C73.8596737,16 76.427941,17.0195171 78.3712869,18.8432404 L78.6109127,19.0753788 L85.9246212,26.3890873 C86.8916057,27.3560717 88.181585,27.9258016 89.5409793,27.9932405 L89.8137085,28 L98.5,28 C104.203924,28 108.845573,32.548142 108.996226,38.2157049 L109,38.5 L109,90.5 C109,96.2039245 104.451858,100.845573 98.7842951,100.996226 L98.5,101 L34.5,101 L34.5,96 L98.5,96 C101.463479,96 103.879539,93.65622 103.995633,90.7212071 L104,90.5 L104,38.5 C104,35.5365209 101.65622,33.1204609 98.7212071,33.0043672 L98.5,33 L89.8137085,33 C87.1403263,33 84.572059,31.9804829 82.6287131,30.1567596 L82.3890873,29.9246212 L75.0753788,22.6109127 C74.1083943,21.6439283 72.818415,21.0741984 71.4590207,21.0067595 L71.1862915,21 L46.2469996,21 C44.7053932,21 43.2390046,21.6467058 42.2005291,22.7749237 L42.0217825,22.9789858 L36.8193239,29.2219362 C34.8956364,31.5303612 32.0790497,32.8998448 29.0862253,32.9947206 L28.7530004,33 L18.5,33 C15.5365209,33 13.1204609,35.34378 13.0043672,38.2787929 L13,38.5 L13,90.5 C13,93.4634791 15.34378,95.8795391 18.2787929,95.9956328 L18.5,96 L18.5,101 C12.7960755,101 8.15442656,96.451858 8.00377424,90.7842951 L8,90.5 L8,38.5 C8,32.7960755 12.548142,28.1544266 18.2157049,28.0037742 L18.5,28 L28.7530004,28 C30.2946068,28 31.7609954,27.3532942 32.7994709,26.2250763 L32.9782175,26.0210142 L38.1806761,19.7780638 C40.1043636,17.4696388 42.9209503,16.1001552 45.9137747,16.0052794 L46.2469996,16 L71.1862915,16 Z M58.5,36 C66.9783748,36 74.7890722,40.0127422 79.7528685,46.668232 L80.0160503,47.0272964 L75.9589008,49.9495452 C71.9405674,44.3706295 65.5046671,41 58.5,41 C46.6258779,41 37,50.6258779 37,62.5 C37,74.3741221 46.6258779,84 58.5,84 C70.2553809,84 79.8072576,74.5656771 79.9971196,62.8555418 L80,62.5 L85,62.5 C85,77.1355459 73.1355459,89 58.5,89 C43.8644541,89 32,77.1355459 32,62.5 C32,47.8644541 43.8644541,36 58.5,36 Z M90.5,40 C94.0118106,40 96.8731506,42.7849962 96.995897,46.2668659 L97,46.5 L92,46.5 C92,45.6715729 91.3284271,45 90.5,45 C89.6715729,45 89,45.6715729 89,46.5 C89,47.2796961 89.5948881,47.9204487 90.35554,47.9931334 L90.5,48 L90.5,53 C86.9101491,53 84,50.0898509 84,46.5 C84,42.9101491 86.9101491,40 90.5,40 Z" id="Shape" fill="#000000" fill-rule="nonzero"></path>
    </g>
</svg>