<?xml version="1.0" encoding="UTF-8"?>
<svg  viewBox="0 0 116 116" version="1.1" xmlns="http://www.w3.org/2000/svg" xmlns:xlink="http://www.w3.org/1999/xlink">
    <title>picture</title>
    <g id="picture" stroke="none" stroke-width="1" fill="none" fill-rule="evenodd">
        <path d="M98.5,8 C104.203924,8 108.845573,12.548142 108.996226,18.2157049 L109,18.5 L109,58.5 L104,58.5 L104,18.5 C104,15.5365209 101.65622,13.1204609 98.7212071,13.0043672 L98.5,13 L18.5,13 C15.5365209,13 13.1204609,15.34378 13.0043672,18.2787929 L13,18.5 L13,68.592 L22.891,59.001 C22.9246039,58.9565753 22.9586239,58.9208244 22.9982645,58.8843746 L23.1068431,58.7907661 C25.2284896,56.7354211 28.5797671,56.7311429 30.7039737,58.7382683 L30.8829862,58.9152326 L42.528,70.935 L68.4895924,44.9748737 C71.7413048,41.7231613 76.9721407,41.6567998 80.3046337,44.7757893 L80.5104076,44.9748737 L105.924621,70.3890873 C107.814988,72.279454 108.91012,74.8164006 108.994706,77.4801208 L109,77.8137085 L109,87.5 C109,90.4634791 106.65622,92.8795391 103.721207,92.9956328 L103.5,93 L13,93 L13,98.5 C13,101.463479 15.34378,103.879539 18.2787929,103.995633 L18.5,104 L99,104 C101.688755,104 103.881818,101.877693 103.99538,99.2168896 L104,99 L109,99 C109,104.42924 104.673329,108.847932 99.2799048,108.996158 L99,109 L18.5,109 C12.7960755,109 8.15442656,104.451858 8.00377424,98.7842951 L8,98.5 L8,88 L103.5,88 C103.74546,88 103.949608,87.8231248 103.991944,87.5898756 L104,87.5 L104,77.8137085 C104,76.446186 103.490707,75.131173 102.577156,74.1222496 L102.389087,73.9246212 L76.9748737,48.5104076 C75.6568542,47.1923882 73.5491693,47.145316 72.1747452,48.3691913 L72.0251263,48.5104076 L44.9861867,75.5493472 C43.6681672,76.8673667 41.5604823,76.9144388 40.1860581,75.6905636 L39.9974722,75.5097567 L27.2902483,62.3926209 C27.1204762,62.2170621 26.852458,62.1935587 26.655863,62.3252866 L26.602,62.367 L13.9365104,74.6500035 C12.5488114,75.9956511 10.3329962,75.9615616 8.98734862,74.5738626 C8.40689299,73.9752677 8.06095891,73.19108 8.00733417,72.3639042 L8,72.1373521 L8,18.5 C8,12.7960755 12.548142,8.15442656 18.2157049,8.00377424 L18.5,8 L98.5,8 Z M34.5,24 C40.2039245,24 44.8455734,28.548142 44.9962258,34.2157049 L45,34.5 L40,34.5 C40,31.4624339 37.5375661,29 34.5,29 C31.4624339,29 29,31.4624339 29,34.5 C29,37.4634791 31.34378,39.8795391 34.2787929,39.9956328 L34.5,40 L34.5,45 C28.7010101,45 24,40.2989899 24,34.5 C24,28.7010101 28.7010101,24 34.5,24 Z" id="Shape" fill="#000000" fill-rule="nonzero"></path>
    </g>
</svg>