<?xml version="1.0" encoding="UTF-8"?>
<svg   viewBox="0 0 116 116" version="1.1" xmlns="http://www.w3.org/2000/svg" xmlns:xlink="http://www.w3.org/1999/xlink">
    <title>pie-chart</title>
    <g id="pie-chart" stroke="none" stroke-width="1" fill="none" fill-rule="evenodd">
        <path d="M61,8 L61,52.455 L92.4019557,20.9878811 L94.171569,22.7538228 C103.602032,32.1647199 109,44.9079887 109,58.5 C109,68.4221854 106.130253,77.9230006 100.82898,86.0512522 L100.471965,86.5910918 L96.3191582,83.8064555 C101.300404,76.3777835 104,67.6431946 104,58.5 C104,47.253667 99.9037047,36.6614948 92.6558097,28.4379064 L92.361,28.107 L56,64.5444648 L56,13.068 L55.5083625,13.0967818 C32.0211875,14.6212491 13.3916623,33.9669496 13.0060957,57.7475743 L13,58.5 C13,83.6289561 33.3710439,104 58.5,104 C69.8139105,104 80.4650626,99.8540812 88.7075805,92.5270999 L89.009,92.255 L63.7424245,67.2779 L67.2575755,63.7221 L96.1332849,92.2677097 L94.3714144,94.0456318 C84.9505031,103.552373 72.1540576,109 58.5,109 C30.6096201,109 8,86.3903799 8,58.5 C8,30.8885239 30.1596887,8.45272048 57.6648902,8.00676556 L58.5,8 L61,8 Z M67.0961478,8.72908867 C74.2993762,9.96480931 81.0919969,12.7460965 87.0628649,16.8482406 L87.6571973,17.2628495 L84.7672413,21.3430645 C79.4501639,17.5770572 73.3871299,14.9901697 66.9426643,13.7813352 L66.2507429,13.6570995 L67.0961478,8.72908867 Z" id="Shape" fill="#000000" fill-rule="nonzero"></path>
    </g>
</svg>