<?xml version="1.0" encoding="UTF-8"?>
<svg  viewBox="0 0 116 116" version="1.1" xmlns="http://www.w3.org/2000/svg" xmlns:xlink="http://www.w3.org/1999/xlink">
    <title>play-queue</title>
    <g id="play-queue" stroke="none" stroke-width="1" fill="none" fill-rule="evenodd">
        <path d="M98.5,96 L98.5,101 L18.5,101 L18.5,96 L98.5,96 Z M98.5,72 L98.5,77 L18.5,77 L18.5,72 L98.5,72 Z M98.5,48 L98.5,53 L18.5,53 L18.5,48 L98.5,48 Z M19.7862394,12.3562677 L36.9859443,22.6760907 C37.5955927,23.0418797 38.1098946,23.5469156 38.4867058,24.1498136 C39.7639873,26.1934639 39.2002542,28.8659596 37.2432464,30.2270958 L37.0557087,30.3508012 L21.3549963,40.1637464 C20.7987357,40.5114093 20.155969,40.6957524 19.5,40.6957524 C17.6314366,40.6957524 16.1048736,39.2314748 16.0051789,37.3877876 L16,37.1957524 L16,22.5 L21,22.5 L21,34.489 L33.713,26.543 L17.2137606,16.6437323 L19.7862394,12.3562677 Z M98.5,24 L98.5,29 L50.5,29 L50.5,24 L98.5,24 Z" id="Shape" fill="#000000" fill-rule="nonzero"></path>
    </g>
</svg>