<?xml version="1.0" encoding="UTF-8"?>
<svg  viewBox="0 0 116 116" version="1.1" xmlns="http://www.w3.org/2000/svg" xmlns:xlink="http://www.w3.org/1999/xlink">
    <title>play</title>
    <g id="play" stroke="none" stroke-width="1" fill="none" fill-rule="evenodd">
        <path d="M27.7763469,8.85036314 L103.454533,53.784286 C104.238163,54.2495667 104.893894,54.9022823 105.362781,55.6837604 C106.884469,58.2199074 106.123774,61.489607 103.678261,63.1025932 L103.476296,63.2296982 L32.3297267,105.91764 C31.4749419,106.430511 30.4968417,106.701429 29.5,106.701429 C26.5365209,106.701429 24.1204609,104.357649 24.0043672,101.422636 L24,101.201429 L24,26.5 L29,26.5 L29,101.201429 C29,101.477571 29.2238576,101.701429 29.5,101.701429 C29.5604146,101.701429 29.6200721,101.690483 29.6761554,101.669371 L29.7572479,101.630175 L100.903817,58.9422336 C101.140608,58.8001595 101.21739,58.4930294 101.075316,58.2562392 C101.046899,58.2088769 101.010932,58.1667171 100.969004,58.1313403 L100.901839,58.0835597 L25.2236531,13.1496369 L27.7763469,8.85036314 Z" id="Path-170" fill="#000000" fill-rule="nonzero"></path>
    </g>
</svg>