<?xml version="1.0" encoding="UTF-8"?>
<svg  viewBox="0 0 116 116" version="1.1" xmlns="http://www.w3.org/2000/svg" xmlns:xlink="http://www.w3.org/1999/xlink">
    <title>play-circle</title>
    <g id="play-circle" stroke="none" stroke-width="1" fill="none" fill-rule="evenodd">
        <path d="M58,1.5 C89.2040884,1.5 114.5,26.7959116 114.5,58 C114.5,88.8920475 89.707477,113.993491 58.9343308,114.492431 L58,114.5 L58,109.5 C86.4426646,109.5 109.5,86.4426646 109.5,58 C109.5,29.5573354 86.4426646,6.5 58,6.5 C29.5573354,6.5 6.5,29.5573354 6.5,58 C6.5,71.7449402 11.9066868,84.6259962 21.3671155,94.197859 L21.8066242,94.6372787 L18.2925628,98.1941555 C7.61892438,87.6489996 1.5,73.306778 1.5,58 C1.5,26.7959116 26.7959116,1.5 58,1.5 Z M39.7921727,24.3598389 L88.5386025,53.7916456 C89.3026105,54.2529334 89.9428891,54.893212 90.4041769,55.65722 C91.9328846,58.189142 91.1812495,61.4609362 88.7402147,63.0806905 L88.5386025,63.2083544 L42.8259109,90.8084701 C42.1240836,91.2322149 41.31983,91.4561801 40.5,91.4561801 C38.0857267,91.4561801 36.1155109,89.5549436 36.004898,87.1680158 L36,86.9561801 L36,42.5 L41,42.5 L41,86.07 L85.954257,58.9280322 C86.1643865,58.8011616 86.2477295,58.544227 86.1634125,58.3226685 L86.1238547,58.2415655 C86.0958979,58.1952619 86.0607091,58.1539576 86.0197769,58.1191409 L85.954257,58.0719678 L37.2078273,28.6401611 L39.7921727,24.3598389 Z" id="Shape" fill="#000000" fill-rule="nonzero"></path>
    </g>
</svg>