<?xml version="1.0" encoding="UTF-8"?>
<svg  viewBox="0 0 116 116" version="1.1" xmlns="http://www.w3.org/2000/svg" xmlns:xlink="http://www.w3.org/1999/xlink">
    <title>power</title>
    <g id="power" stroke="none" stroke-width="1" fill="none" fill-rule="evenodd">
        <path d="M23.0933916,22.491346 L26.599174,26.0563832 C17.954639,34.5572364 13,46.1321545 13,58.5 C13,83.6289561 33.3710439,104 58.5,104 C83.6289561,104 104,83.6289561 104,58.5 C104,46.5450625 99.3717218,35.3279542 91.2437539,26.9072289 L90.8344444,26.4885325 L94.3875635,22.9706717 C103.687043,32.3633571 109,45.0148793 109,58.5 C109,86.3903799 86.3903799,109 58.5,109 C30.6096201,109 8,86.3903799 8,58.5 C8,44.7776813 13.5025267,31.9228002 23.0933916,22.491346 Z M61,2.5 L61,66.5 L56,66.5 L56,2.5 L61,2.5 Z" id="Shape" fill="#000000" fill-rule="nonzero"></path>
    </g>
</svg>