<?xml version="1.0" encoding="UTF-8"?>
<svg  viewBox="0 0 116 116" version="1.1" xmlns="http://www.w3.org/2000/svg" xmlns:xlink="http://www.w3.org/1999/xlink">
    <title>present</title>
    <g id="present" stroke="none" stroke-width="1" fill="none" fill-rule="evenodd">
        <path d="M61,10.5 L61,21 L18.5,21 C15.5365209,21 13.1204609,23.34378 13.0043672,26.2787929 L13,26.5 L13,74.5 C13,77.4634791 15.34378,79.8795391 18.2787929,79.9956328 L18.5,80 L53.6715729,80 C55.5887899,80 57.2259741,81.1989632 57.8742364,82.8880004 L57.937,83.064 L57.9886826,83.0807043 C58.1261078,83.1287571 58.2616671,83.1836746 58.3948272,83.2454567 L58.498,83.297 L58.521014,83.2858123 C58.6404617,83.2272286 58.7628865,83.173783 58.8880004,83.1257636 L59.064,83.062 L59.0807043,83.0113174 C59.2729155,82.4616164 59.5749616,81.9417715 59.9868427,81.4859042 L60.1464466,81.3180195 C60.9340994,80.5303667 61.9836769,80.0648577 63.0904586,80.0062905 L63.3284271,80 L98.5,80 C101.463479,80 103.879539,77.65622 103.995633,74.7212071 L104,74.5 L104,26.5 C104,23.5365209 101.65622,21.1204609 98.7212071,21.0043672 L98.5,21 L66.5,21 L66.5,16 L98.5,16 C104.203924,16 108.845573,20.548142 108.996226,26.2157049 L109,26.5 L109,74.5 C109,80.2039245 104.451858,84.8455734 98.7842951,84.9962258 L98.5,85 L64.535,85 L84.267767,104.732233 L80.732233,108.267767 L61,88.535 L61,106.5 L56,106.5 L56,88.534 L36.267767,108.267767 L32.732233,104.732233 L52.464,85 L18.5,85 C12.7960755,85 8.15442656,80.451858 8.00377424,74.7842951 L8,74.5 L8,26.5 C8,20.7960755 12.548142,16.1544266 18.2157049,16.0037742 L18.5,16 L56,16 L56,10.5 L61,10.5 Z M50.5348895,33.9326163 L50.7326252,34.0392652 L72.7014963,46.5929059 C73.3991371,46.9915577 73.9773134,47.569734 74.3759653,48.2673748 C75.5716451,50.3598145 74.9029396,53.0079953 72.8937674,54.290882 L72.7014963,54.4070941 L54.3617417,64.8869539 L51.881047,60.5457382 L69.46,50.5 L49,38.808 L49,66.5 L44,66.5 L44,37.9463594 C44,37.1632381 44.2043689,36.3936738 44.5929059,35.7137341 C45.7885857,33.6212944 48.4095919,32.8529489 50.5348895,33.9326163 Z" id="Shape" fill="#000000" fill-rule="nonzero"></path>
    </g>
</svg>