<?xml version="1.0" encoding="UTF-8"?>
<svg  viewBox="0 0 116 116" version="1.1" xmlns="http://www.w3.org/2000/svg" xmlns:xlink="http://www.w3.org/1999/xlink">
    <title>previous</title>
    <g id="previous" stroke="none" stroke-width="1" fill="none" fill-rule="evenodd">
        <path d="M91.5,16 C94.4634791,16 96.8795391,18.34378 96.9956328,21.2787929 L97,21.5 L97,95.5 C97,98.4634791 94.65622,100.879539 91.7212071,100.995633 L91.5,101 L72.5,101 C70.0857267,101 68.1155109,99.0987635 68.004898,96.7118357 L68,96.5 L68,62.2469996 C68,60.7053932 67.3532942,59.2390046 66.2250763,58.2005291 L66.0210142,58.0217825 L25,23.838 L25,93.169 L53.1081674,69.7954278 L56.3051072,73.6398491 L27.3772459,97.6956496 C25.4663521,99.2847086 22.6290798,99.02381 21.0400208,97.1129163 C20.4196499,96.3669007 20.0584076,95.442149 20.0065026,94.4775657 L20,94.2356704 L20,22.7700832 C20,20.2848019 22.0147186,18.2700832 24.5,18.2700832 C25.4717363,18.2700832 26.4150847,18.5845596 27.1905435,19.1630058 L27.3808298,19.3130875 L69.2219362,54.1806761 C71.5303612,56.1043636 72.8998448,58.9209503 72.9947206,61.9137747 L73,62.2469996 L73,96 L91.5,96 C91.7454599,96 91.9496084,95.8231248 91.9919443,95.5898756 L92,95.5 L92,21.5 C92,21.2545401 91.8231248,21.0503916 91.5898756,21.0080557 L91.5,21 L73.5,21 C73.2545401,21 73.0503916,21.1768752 73.0080557,21.4101244 L73,21.5 L73,34.5 L68,34.5 L68,21.5 C68,18.5365209 70.34378,16.1204609 73.2787929,16.0043672 L73.5,16 L91.5,16 Z" id="Path-174" fill="#000000" fill-rule="nonzero" transform="translate(58.500000, 58.500000) scale(-1, 1) translate(-58.500000, -58.500000) "></path>
    </g>
</svg>