<?xml version="1.0" encoding="UTF-8"?>
<svg  viewBox="0 0 116 116" version="1.1" xmlns="http://www.w3.org/2000/svg" xmlns:xlink="http://www.w3.org/1999/xlink">
    <title>printer</title>
    <g id="printer" stroke="none" stroke-width="1" fill="none" fill-rule="evenodd">
        <path d="M82.5,8 C88.2039245,8 92.8455734,12.548142 92.9962258,18.2157049 L93,18.5 L93,25 L18.5,25 C15.5365209,25 13.1204609,27.34378 13.0043672,30.2787929 L13,30.5 L13,82.5 C13,85.4634791 15.34378,87.8795391 18.2787929,87.9956328 L18.5,88 L24,88 L24,57.5 C24,54.5365209 26.34378,52.1204609 29.2787929,52.0043672 L29.5,52 L87.5,52 C90.4634791,52 92.8795391,54.34378 92.9956328,57.2787929 L93,57.5 L93,88 L98.5,88 C101.463479,88 103.879539,85.65622 103.995633,82.7212071 L104,82.5 L104,30.5 C104,27.5365209 101.65622,25.1204609 98.7212071,25.0043672 L98.5,25 L98.5,20 C104.203924,20 108.845573,24.548142 108.996226,30.2157049 L109,30.5 L109,82.5 C109,88.2039245 104.451858,92.8455734 98.7842951,92.9962258 L98.5,93 L93,93 L93,103.5 C93,106.463479 90.65622,108.879539 87.7212071,108.995633 L87.5,109 L42.5,109 L42.5,104 L87.5,104 C87.7454599,104 87.9496084,103.823125 87.9919443,103.589876 L88,103.5 L88,57.5 C88,57.2545401 87.8231248,57.0503916 87.5898756,57.0080557 L87.5,57 L29.5,57 C29.2545401,57 29.0503916,57.1768752 29.0080557,57.4101244 L29,57.5 L29,93 L18.5,93 C12.7960755,93 8.15442656,88.451858 8.00377424,82.7842951 L8,82.5 L8,30.5 C8,24.7960755 12.548142,20.1544266 18.2157049,20.0037742 L18.5,20 L88,20 L88,18.5 C88,15.5365209 85.65622,13.1204609 82.7212071,13.0043672 L82.5,13 L33.5,13 C31.0857267,13 29.1155109,14.9012365 29.004898,17.2881643 L29,17.5 L24,17.5 C24,12.3437553 28.1078939,8.14696065 33.2295213,8.00377636 L33.5,8 L82.5,8 Z M72.5,64 C77.1944204,64 81,67.8055796 81,72.5 C81,77.1090673 77.331547,80.8613215 72.7551603,80.9962434 L72.5,81 L44.5,81 C42.5670034,81 41,82.5670034 41,84.5 C41,86.3685634 42.4642776,87.8951264 44.3079648,87.9948211 L44.5,88 L70.5,88 C76.2039245,88 80.8455734,92.548142 80.9962258,98.2157049 L81,98.5 L76,98.5 C76,95.5365209 73.65622,93.1204609 70.7212071,93.0043672 L70.5,93 L44.5,93 C39.8055796,93 36,89.1944204 36,84.5 C36,79.8909327 39.668453,76.1386785 44.2448397,76.0037566 L44.5,76 L72.5,76 C74.4329966,76 76,74.4329966 76,72.5 C76,70.6314366 74.5357224,69.1048736 72.6920352,69.0051789 L72.5,69 L38.5,69 L38.5,64 L72.5,64 Z M86.5,32 C90.0898509,32 93,34.9101491 93,38.5 C93,42.0118106 90.2150038,44.8731506 86.7331341,44.995897 L86.5,45 L86.5,40 C87.3284271,40 88,39.3284271 88,38.5 C88,37.6715729 87.3284271,37 86.5,37 C85.7203039,37 85.0795513,37.5948881 85.0068666,38.35554 L85,38.5 L80,38.5 C80,34.9101491 82.9101491,32 86.5,32 Z" id="Shape" fill="#000000" fill-rule="nonzero"></path>
    </g>
</svg>