<?xml version="1.0" encoding="UTF-8"?>
<svg  viewBox="0 0 117 116" version="1.1" xmlns="http://www.w3.org/2000/svg" xmlns:xlink="http://www.w3.org/1999/xlink">
    <title>qrcode</title>
    <g id="qrcode" stroke="none" stroke-width="1" fill="none" fill-rule="evenodd" transform="translate(1.000000, 0.000000)">
        <path d="M48.5,8 C50.9142733,8 52.8844891,9.90123652 52.995102,12.2881643 L53,12.5 L53,40 L64,40 L64,12.5 C64,10.0857267 65.9012365,8.11551091 68.2881643,8.00489799 L68.5,8 L104.5,8 C106.914273,8 108.884489,9.90123652 108.995102,12.2881643 L109,12.5 L109,48.5 C109,50.9142733 107.098763,52.8844891 104.711836,52.995102 L104.5,53 L69,53 L69,63.5 C69,63.7454599 69.1768752,63.9496084 69.4101244,63.9919443 L69.5,64 L103.5,64 C106.463479,64 108.879539,66.34378 108.995633,69.2787929 L109,69.5 L109,75.5 C109,78.4634791 106.65622,80.8795391 103.721207,80.9956328 L103.5,81 L69.5,81 C69.2545401,81 69.0503916,81.1768752 69.0080557,81.4101244 L69,81.5 L69,103.5 C69,103.74546 69.1768752,103.949608 69.4101244,103.991944 L69.5,104 L75.5,104 C75.7454599,104 75.9496084,103.823125 75.9919443,103.589876 L76,103.5 L76,93.5 C76,90.5365209 78.34378,88.1204609 81.2787929,88.0043672 L81.5,88 L87.5,88 C90.4634791,88 92.8795391,90.34378 92.9956328,93.2787929 L93,93.5 L93,103.5 C93,103.74546 93.1768752,103.949608 93.4101244,103.991944 L93.5,104 L99.5,104 C99.7454599,104 99.9496084,103.823125 99.9919443,103.589876 L100,103.5 L100,93.5 C100,90.5365209 102.34378,88.1204609 105.278793,88.0043672 L105.5,88 L106.5,88 L106.5,93 L105.5,93 C105.25454,93 105.050392,93.1768752 105.008056,93.4101244 L105,93.5 L105,103.5 C105,106.463479 102.65622,108.879539 99.7212071,108.995633 L99.5,109 L93.5,109 C90.5365209,109 88.1204609,106.65622 88.0043672,103.721207 L88,103.5 L88,93.5 C88,93.2545401 87.8231248,93.0503916 87.5898756,93.0080557 L87.5,93 L81.5,93 C81.2545401,93 81.0503916,93.1768752 81.0080557,93.4101244 L81,93.5 L81,103.5 C81,106.463479 78.65622,108.879539 75.7212071,108.995633 L75.5,109 L69.5,109 C66.5365209,109 64.1204609,106.65622 64.0043672,103.721207 L64,103.5 L64,81.5 C64,78.5365209 66.34378,76.1204609 69.2787929,76.0043672 L69.5,76 L103.5,76 C103.74546,76 103.949608,75.8231248 103.991944,75.5898756 L104,75.5 L104,69.5 C104,69.2545401 103.823125,69.0503916 103.589876,69.0080557 L103.5,69 L69.5,69 C66.5365209,69 64.1204609,66.65622 64.0043672,63.7212071 L64,63.5 L64,51.5 C64,49.6314366 65.4642776,48.1048736 67.3079648,48.0051789 L67.5,48 L104,48 L104,13 L69,13 L69,40.5 C69,42.9142733 67.0987635,44.8844891 64.7118357,44.995102 L64.5,45 L52.5,45 C50.0857267,45 48.1155109,43.0987635 48.004898,40.7118357 L48,40.5 L48,13 L13,13 L13,48 L48.5,48 C50.9142733,48 52.8844891,49.9012365 52.995102,52.2881643 L53,52.5 L53,64.5 C53,66.9142733 51.0987635,68.8844891 48.7118357,68.995102 L48.5,69 L13,69 L13,104 L48,104 L48,74.5 L53,74.5 L53,104.5 C53,106.914273 51.0987635,108.884489 48.7118357,108.995102 L48.5,109 L12.5,109 C10.0857267,109 8.11551091,107.098763 8.00489799,104.711836 L8,104.5 L8,68.5 C8,66.0857267 9.90123652,64.1155109 12.2881643,64.004898 L12.5,64 L48,64 L48,53 L12.5,53 C10.0857267,53 8.11551091,51.0987635 8.00489799,48.7118357 L8,48.5 L8,12.5 C8,10.0857267 9.90123652,8.11551091 12.2881643,8.00489799 L12.5,8 L48.5,8 Z" id="Path-257" fill="#000000" fill-rule="nonzero"></path>
    </g>
</svg>