<?xml version="1.0" encoding="UTF-8"?>
<svg  viewBox="0 0 116 116" version="1.1" xmlns="http://www.w3.org/2000/svg" xmlns:xlink="http://www.w3.org/1999/xlink">
    <title>question</title>
    <g id="question" stroke="none" stroke-width="1" fill="none" fill-rule="evenodd">
        <path d="M58.5,8 C86.3903799,8 109,30.6096201 109,58.5 C109,86.1114761 86.8403113,108.54728 59.3351098,108.993234 L58.5,109 L56,109 L56,92 L58.5,92 C59.3284271,92 60,91.3284271 60,90.5 C60,89.6715729 59.3284271,89 58.5,89 C57.7203039,89 57.0795513,89.5948881 57.0068666,90.35554 L57,90.5 L52,90.5 C52,86.9101491 54.9101491,84 58.5,84 C62.0898509,84 65,86.9101491 65,90.5 C65,93.153368 63.4101454,95.4354056 61.1310844,96.4454645 L61,96.502 L61,103.932 L61.4916375,103.903218 C84.9788125,102.378751 103.608338,83.0330504 103.993904,59.2524257 L104,58.5 C104,33.3710439 83.6289561,13 58.5,13 C33.3710439,13 13,33.3710439 13,58.5 C13,70.6365305 17.7708742,82.0099936 26.1196853,90.4651075 L26.533162,90.8785704 L23.0201733,94.4365067 C13.4736027,85.0105383 8,72.1863983 8,58.5 C8,30.6096201 30.6096201,8 58.5,8 Z M58.5,28 C68.7172679,28 77,36.2827321 77,46.5 C77,53.8257719 72.5672472,60.4089262 65.8105465,63.1757258 L65.4649929,63.3131066 C63.1300211,64.2138231 61.5805706,67.4591139 61.1248552,73.2590276 L61.0706016,74.0475064 C60.9990244,75.2529876 60.9717446,76.5610272 60.9912279,77.9733055 L60.9994576,78.447928 L56.0005424,78.552072 C55.7752235,67.7367686 58.0451445,61.0009713 63.4077837,58.7518618 L63.6654875,58.6481542 C68.6876648,56.7108519 72,51.8828836 72,46.5 C72,39.0441559 65.9558441,33 58.5,33 C51.1477093,33 45.1681655,38.8774286 45.0034854,46.1901692 L45,46.5 L40,46.5 C40,36.2827321 48.2827321,28 58.5,28 Z" id="Shape" fill="#000000" fill-rule="nonzero"></path>
    </g>
</svg>