<?xml version="1.0" encoding="UTF-8"?>
<svg  viewBox="0 0 116 116" version="1.1" xmlns="http://www.w3.org/2000/svg" xmlns:xlink="http://www.w3.org/1999/xlink">
    <title>quote</title>
    <g id="quote" stroke="none" stroke-width="1" fill="none" fill-rule="evenodd">
        <path d="M34.5,20 C46.8021428,20 56.7982929,29.8731286 56.9969856,42.1279214 L57,42.5 L57,65.5 C57,82.7229999 43.1776199,96.71761 25.9508571,96.9947682 L25.4278027,96.9989573 L25.1791164,96.9907213 C22.3517576,96.8269004 20.1171979,94.5394698 20.004464,91.7233912 L20,91.5 L20,81.5 C20,78.5365209 22.34378,76.1204609 25.2517002,76.0045253 L25.7536954,75.9970397 C28.605942,75.9303976 31.2557513,74.7325095 33.1854721,72.7064425 L33.413549,72.4593586 L37.1400722,75.792979 C34.368206,78.8915392 30.476872,80.7770938 26.2395101,80.9819228 L25.8412673,80.9961873 L25.5,81 C25.2545401,81 25.0503916,81.1768752 25.0080557,81.4101244 L25,81.5 L25,91.5 C25,91.7353969 25.1639741,91.9347157 25.3327285,91.9845084 L25.3959245,91.99595 L25.5,92 C39.9891904,92 51.7624338,80.3716485 51.9964498,65.938226 L52,65.5 L52,42.5 C52,32.8350169 44.1649831,25 34.5,25 C24.8350169,25 17,32.8350169 17,42.5 C17,52.1649831 24.8350169,60 34.5,60 C35.5554392,60 36.5976766,59.9068522 37.6187985,59.7233392 L38.1275632,59.6240651 L39.1581352,64.5167046 C37.6369223,64.8371287 36.0781818,65 34.5,65 C22.0735931,65 12,54.9264069 12,42.5 C12,30.0735931 22.0735931,20 34.5,20 Z M82.5,20 C94.8021428,20 104.798293,29.8731286 104.996986,42.1279214 L105,42.5 L105,65.5 C105,82.7229999 91.1776199,96.71761 73.9508571,96.9947682 L73.4278027,96.9989573 L73.1791164,96.9907213 C70.3517576,96.8269004 68.1171979,94.5394698 68.004464,91.7233912 L68,91.5 L68,81.5 C68,78.5365209 70.34378,76.1204609 73.2517002,76.0045253 L73.7536954,75.9970397 C76.605942,75.9303976 79.2557513,74.7325095 81.1854721,72.7064425 L81.413549,72.4593586 L85.1400722,75.792979 C82.368206,78.8915392 78.476872,80.7770938 74.2395101,80.9819228 L73.8412673,80.9961873 L73.5,81 C73.2545401,81 73.0503916,81.1768752 73.0080557,81.4101244 L73,81.5 L73,91.5 C73,91.7353969 73.1639741,91.9347157 73.3327285,91.9845084 L73.3959245,91.99595 L73.5,92 C87.9891904,92 99.7624338,80.3716485 99.9964498,65.938226 L100,65.5 L100,42.5 C100,32.8350169 92.1649831,25 82.5,25 C72.8350169,25 65,32.8350169 65,42.5 C65,52.1649831 72.8350169,60 82.5,60 C83.5554392,60 84.5976766,59.9068522 85.6187985,59.7233392 L86.1275632,59.6240651 L87.1581352,64.5167046 C85.6369223,64.8371287 84.0781818,65 82.5,65 C70.0735931,65 60,54.9264069 60,42.5 C60,30.0735931 70.0735931,20 82.5,20 Z" id="Shape" fill="#000000" fill-rule="nonzero"></path>
    </g>
</svg>