<?xml version="1.0" encoding="UTF-8"?>
<svg  viewBox="0 0 116 116" version="1.1" xmlns="http://www.w3.org/2000/svg" xmlns:xlink="http://www.w3.org/1999/xlink">
    <title>reader</title>
    <g id="reader" stroke="none" stroke-width="1" fill="none" fill-rule="evenodd">
        <path d="M73.9968732,55.5 C83.3159197,55.5 91.0256175,62.390441 92.3091462,71.3545025 L92.3278732,71.5 L105.996873,71.5 L106.407871,76.4659848 C75.7807224,81.5705095 60.7979591,91.4058827 60.5013665,105.569476 L60.4968732,106 L55.4968732,106 L55.4923303,105.569717 C55.1954638,91.5555119 40.345912,81.7698145 10.0138921,76.6212655 L9.09,76.4666686 L9.90374636,71.5333314 L10.6723932,71.6616321 L12.1923806,71.9244655 L13.6892751,72.1956162 L14.4290558,72.3343135 L14.4290558,72.3343135 L15.8912703,72.6179578 C16.3748185,72.7138956 16.8545088,72.8112235 17.3303377,72.9099432 L18.7462365,73.2102792 C19.4483901,73.3625363 20.1418474,73.5179285 20.8265961,73.6764611 L22.1844785,73.997715 C22.8742309,74.1644549 23.5548309,74.334496 24.2262654,74.5078439 L25.5569098,74.8589505 C42.2568447,79.362194 53.0689456,85.9901715 57.7802699,94.8364714 L57.9848732,95.231 L58.1868071,94.8400834 C62.5433249,86.5801722 72.1678149,80.2518101 86.8868483,75.7821248 L87.4968732,75.599 L87.4968732,74 C87.4968732,66.6477093 81.6194446,60.6681655 74.306704,60.5034854 L73.9968732,60.5 L73.9968732,55.5 Z M57.4968732,7.5 C69.2579105,7.5 78.4968732,19.4856813 78.4968732,34 C78.4968732,48.3078891 69.5188436,60.1585563 57.9971367,60.4927539 L57.9968732,60.5 L41.9968732,60.5 C34.6445824,60.5 28.6650387,66.3774286 28.5003585,73.6901692 L28.4968732,74 L23.4968732,74 C23.4968732,63.8950098 31.5985674,55.6822717 41.6607494,55.5029922 L41.9968732,55.5 L57.4968732,55.5 C66.1703716,55.5 73.4968732,45.9953493 73.4968732,34 C73.4968732,22.0046507 66.1703716,12.5 57.4968732,12.5 C48.8233748,12.5 41.4968732,22.0046507 41.4968732,34 C41.4968732,40.2097929 43.4811337,45.9654451 46.8502987,50.0123184 L47.1264973,50.3366739 L43.3561542,53.6206521 C39.0055116,48.6256691 36.4968732,41.5555793 36.4968732,34 C36.4968732,19.4856813 45.7358358,7.5 57.4968732,7.5 Z" id="Shape" fill="#000000" fill-rule="nonzero"></path>
    </g>
</svg>