<?xml version="1.0" encoding="UTF-8"?>
<svg   viewBox="0 0 128 128" version="1.1" xmlns="http://www.w3.org/2000/svg" xmlns:xlink="http://www.w3.org/1999/xlink">
    <title>reader</title>
    <g id="reader" stroke="none" stroke-width="1" fill="none" fill-rule="evenodd">
        <path d="M80,61.5 C89.3190465,61.5 97.0287443,68.390441 98.312273,77.3545025 L98.331,77.5 L112,77.5 L112.410997,82.4659848 C81.7838493,87.5705095 66.8010859,97.4058827 66.5044933,111.569476 L66.5,112 L61.5,112 L61.4954571,111.569717 C61.1985906,97.5555119 46.3490388,87.7698145 16.0170189,82.6212655 L15.0931268,82.4666686 L15.9068732,77.5333314 L16.67552,77.6616321 L18.1955074,77.9244655 L19.6924019,78.1956162 L20.4321826,78.3343135 L20.4321826,78.3343135 L21.8943971,78.6179578 C22.3779453,78.7138956 22.8576356,78.8112235 23.3334646,78.9099432 L24.7493633,79.2102792 C25.451517,79.3625363 26.1449742,79.5179285 26.8297229,79.6764611 L28.1876053,79.997715 C28.8773577,80.1644549 29.5579577,80.334496 30.2293922,80.5078439 L31.5600366,80.8589505 C48.2599716,85.362194 59.0720724,91.9901715 63.7833967,100.836471 L63.988,101.231 L64.1899339,100.840083 C68.5464518,92.5801722 78.1709417,86.2518101 92.8899751,81.7821248 L93.5,81.599 L93.5,80 C93.5,72.6477093 87.6225714,66.6681655 80.3098308,66.5034854 L80,66.5 L80,61.5 Z M63.5,13.5 C75.2610373,13.5 84.5,25.4856813 84.5,40 C84.5,54.3078891 75.5219704,66.1585563 64.0002635,66.4927539 L64,66.5 L48,66.5 C40.6477093,66.5 34.6681655,72.3774286 34.5034854,79.6901692 L34.5,80 L29.5,80 C29.5,69.8950098 37.6016943,61.6822717 47.6638763,61.5029922 L48,61.5 L63.5,61.5 C72.1734984,61.5 79.5,51.9953493 79.5,40 C79.5,28.0046507 72.1734984,18.5 63.5,18.5 C54.8265016,18.5 47.5,28.0046507 47.5,40 C47.5,46.2097929 49.4842605,51.9654451 52.8534256,56.0123184 L53.1296241,56.3366739 L49.359281,59.6206521 C45.0086384,54.6256691 42.5,47.5555793 42.5,40 C42.5,25.4856813 51.7389627,13.5 63.5,13.5 Z" id="Shape" fill="#000000" fill-rule="nonzero"></path>
    </g>
</svg>