<?xml version="1.0" encoding="UTF-8"?>
<svg  viewBox="0 0 116 116" version="1.1" xmlns="http://www.w3.org/2000/svg" xmlns:xlink="http://www.w3.org/1999/xlink">
    <title>record</title>
    <g id="record" stroke="none" stroke-width="1" fill="none" fill-rule="evenodd">
        <path d="M58.5,8 C86.3903799,8 109,30.6096201 109,58.5 C109,86.1114761 86.8403113,108.54728 59.3351098,108.993234 L58.5,109 L58.5,104 C83.6289561,104 104,83.6289561 104,58.5 C104,33.3710439 83.6289561,13 58.5,13 C33.3710439,13 13,33.3710439 13,58.5 C13,77.7727677 25.0932299,94.7450442 42.8686644,101.244628 L43.4090466,101.438371 L41.7512283,106.155535 C21.693737,99.1064531 8,80.1061752 8,58.5 C8,30.6096201 30.6096201,8 58.5,8 Z M58.5,24 C77.5538239,24 93,39.4461761 93,58.5 C93,77.5538239 77.5538239,93 58.5,93 C39.4461761,93 24,77.5538239 24,58.5 C24,53.2432525 25.1784224,48.1502397 27.4139872,43.5194261 L27.6766215,42.9871697 L32.1412331,45.2382236 C30.0854663,49.3155138 29,53.8274441 29,58.5 C29,74.7924001 42.2075999,88 58.5,88 C74.7924001,88 88,74.7924001 88,58.5 C88,42.2075999 74.7924001,29 58.5,29 C50.8143288,29 43.6005712,31.949108 38.1555004,37.1374997 L37.802908,37.4790405 L34.2947399,33.916351 C40.7051353,27.6040567 49.3211096,24 58.5,24 Z" id="Shape" fill="#000000" fill-rule="nonzero"></path>
    </g>
</svg>