<?xml version="1.0" encoding="UTF-8"?>
<svg  viewBox="0 0 116 116" version="1.1" xmlns="http://www.w3.org/2000/svg" xmlns:xlink="http://www.w3.org/1999/xlink">
    <title>redo</title>
    <g id="redo" stroke="none" stroke-width="1" fill="none" fill-rule="evenodd">
        <path d="M85,32 L85,37 L45,37 L44.6444582,37.0028804 C32.9343229,37.1927424 23.5,46.7446191 23.5,58.5 C23.5,70.2553809 32.9343229,79.8072576 44.6444582,79.9971196 L45,80 L85,80 L85,85 L45,85 L44.561774,84.9964498 C30.1283515,84.7624338 18.5,72.9891904 18.5,58.5 C18.5,44.0108096 30.1283515,32.2375662 44.561774,32.0035502 L45,32 L85,32 Z M76.378574,16.4198743 L97.8824231,30.7557737 L98.0899148,30.9027344 C98.4960225,31.2079574 98.8480213,31.5801332 99.1304986,32.0038491 C100.467309,34.0090652 99.9823888,36.696979 98.0662429,38.1150609 L97.8824231,38.2442263 L76.378574,52.5801257 L73.605073,48.4198743 L94.4848235,34.5 L73.605073,20.5801257 L76.378574,16.4198743 Z" id="Shape" fill="#000000" fill-rule="nonzero"></path>
    </g>
</svg>