<?xml version="1.0" encoding="UTF-8"?>
<svg  viewBox="0 0 116 116" version="1.1" xmlns="http://www.w3.org/2000/svg" xmlns:xlink="http://www.w3.org/1999/xlink">
    <title>remote</title>
    <g id="remote" stroke="none" stroke-width="1" fill="none" fill-rule="evenodd">
        <path d="M89.1880145,6.07520384 L89.4105258,6.28807537 L110.491189,27.0444203 C114.549568,31.0403628 114.67175,37.5244416 110.820315,41.6694727 L110.5258,41.9740866 L68.2180132,84.0190918 L64.6935105,80.4725609 L107.043461,38.3851953 C109.115432,36.2808506 109.147471,32.9308681 107.158591,30.7879223 L106.983167,30.6072544 L85.9025045,9.85090947 C83.8096852,7.79028738 80.4818819,7.74572082 78.3356101,9.70784361 L78.1545939,9.88093968 L19.7677665,68.267767 C11.9075212,76.1280123 11.9075212,88.8719879 19.7677665,96.7322331 C27.5477481,104.512215 40.100029,104.621052 48.0133644,97.0440867 L48.2875145,96.7766563 L56.7509899,88.3657491 L60.2754926,91.9122799 L51.8120172,100.323187 C41.9627088,110.11132 26.0510007,110.086535 16.2322326,100.267767 C6.51749452,90.553029 6.42034714,74.8626862 15.9407904,65.028436 L16.2322326,64.7322331 L74.6190599,6.34540577 C78.6242845,2.34018123 85.0659422,2.24396929 89.1880145,6.07520384 Z M34.5,72 L34.5,77 C31.4624339,77 29,79.4624339 29,82.5 C29,85.5375661 31.4624339,88 34.5,88 C37.4634791,88 39.8795391,85.65622 39.9956328,82.7212071 L40,82.5 L45,82.5 C45,88.2989899 40.2989899,93 34.5,93 C28.7010101,93 24,88.2989899 24,82.5 C24,76.7960755 28.548142,72.1544266 34.2157049,72.0037742 L34.5,72 Z M58.5,54.9644661 L68.267767,64.732233 L64.732233,68.267767 L58.5,62.035 L52.267767,68.267767 L48.732233,64.732233 L58.5,54.9644661 Z M64.732233,48.732233 L68.267767,52.267767 L63.767767,56.767767 L60.232233,53.232233 L64.732233,48.732233 Z M52.267767,48.732233 L55.767767,52.232233 L52.232233,55.767767 L48.732233,52.267767 L52.267767,48.732233 Z M80.267767,44.732233 L84.267767,48.732233 L80.732233,52.267767 L76.732233,48.267767 L80.267767,44.732233 Z M88.4114316,36.8758977 L92.267767,40.732233 L88.732233,44.267767 L84.8758977,40.4114316 L88.4114316,36.8758977 Z M68.267767,32.732233 L71.767767,36.232233 L68.232233,39.767767 L64.732233,36.267767 L68.267767,32.732233 Z M76.267767,24.732233 L80.2223031,28.6867692 L76.6867692,32.2223031 L72.732233,28.267767 L76.267767,24.732233 Z" id="Shape" fill="#000000" fill-rule="nonzero"></path>
    </g>
</svg>