<?xml version="1.0" encoding="UTF-8"?>
<svg  viewBox="0 0 116 116" version="1.1" xmlns="http://www.w3.org/2000/svg" xmlns:xlink="http://www.w3.org/1999/xlink">
    <title>robot</title>
    <g id="robot" stroke="none" stroke-width="1" fill="none" fill-rule="evenodd">
        <path d="M60.5,8 C65.1090673,8 68.8613215,11.668453 68.9962434,16.2448397 L69,16.5 L69,18.5 C69,21.153368 67.4101454,23.4354056 65.1310844,24.4454645 L65,24.5 L65,32 L78.5,32 C88.6049902,32 96.8177283,40.1016943 96.9970078,50.1638763 L97,50.5 L97,56 L98.5,56 C104.203924,56 108.845573,60.548142 108.996226,66.2157049 L109,66.5 L109,82.5 C109,88.2039245 104.451858,92.8455734 98.7842951,92.9962258 L98.5,93 L89,93 L89,98.5 C89,104.203924 84.451858,108.845573 78.7842951,108.996226 L78.5,109 L38.5,109 C32.7960755,109 28.1544266,104.451858 28.0037742,98.7842951 L28,98.5 L33,98.5 C33,101.463479 35.34378,103.879539 38.2787929,103.995633 L38.5,104 L78.5,104 C81.4634791,104 83.8795391,101.65622 83.9956328,98.7212071 L84,98.5 L84,93 L34.5,93 L34.5,88 L98.5,88 C101.463479,88 103.879539,85.65622 103.995633,82.7212071 L104,82.5 L104,66.5 C104,63.5365209 101.65622,61.1204609 98.7212071,61.0043672 L98.5,61 L97,61 L97,78.5 L92,78.5 L92,50.5 C92,43.1477093 86.1225714,37.1681655 78.8098308,37.0034854 L78.5,37 L60,37 L60,20 L62.5,20 C63.2796961,20 63.9204487,19.4051119 63.9931334,18.64446 L64,18.5 L64,16.5 C64,14.6314366 62.5357224,13.1048736 60.6920352,13.0051789 L60.5,13 L56.5,13 C54.6314366,13 53.1048736,14.4642776 53.0051789,16.3079648 L53,16.5 L53,18.5 C53,19.2796961 53.5948881,19.9204487 54.35554,19.9931334 L54.5,20 L57,20 L57,37 L38.5,37 C31.1477093,37 25.1681655,42.8774286 25.0034854,50.1901692 L25,50.5 L25,93 L18.5,93 C12.7960755,93 8.15442656,88.451858 8.00377424,82.7842951 L8,82.5 L8,66.5 C8,60.7960755 12.548142,56.1544266 18.2157049,56.0037742 L18.5,56 L18.5,61 C15.5365209,61 13.1204609,63.34378 13.0043672,66.2787929 L13,66.5 L13,82.5 C13,85.4634791 15.34378,87.8795391 18.2787929,87.9956328 L18.5,88 L20,88 L20,50.5 C20,40.3950098 28.1016943,32.1822717 38.1638763,32.0029922 L38.5,32 L52,32 L52,24.501 L51.8689156,24.4454645 C49.6568858,23.4651132 48.0941171,21.2865052 48.004103,18.7331341 L48,18.5 L48,16.5 C48,11.8909327 51.668453,8.13867855 56.2448397,8.0037566 L56.5,8 L60.5,8 Z M74.5,56 C80.2989899,56 85,60.7010101 85,66.5 C85,72.2039245 80.451858,76.8455734 74.7842951,76.9962258 L74.5,77 L42.5,77 C36.7010101,77 32,72.2989899 32,66.5 C32,60.7010101 36.7010101,56 42.5,56 C48.2039245,56 52.8455734,60.548142 52.9962258,66.2157049 L53,66.5 L48,66.5 C48,63.4624339 45.5375661,61 42.5,61 C39.4624339,61 37,63.4624339 37,66.5 C37,69.4634791 39.34378,71.8795391 42.2787929,71.9956328 L42.5,72 L74.5,72 C77.5375661,72 80,69.5375661 80,66.5 C80,63.4624339 77.5375661,61 74.5,61 C71.5365209,61 69.1204609,63.34378 69.0043672,66.2787929 L69,66.5 L64,66.5 C64,60.7010101 68.7010101,56 74.5,56 Z" id="Shape" fill="#000000" fill-rule="nonzero"></path>
    </g>
</svg>