<?xml version="1.0" encoding="UTF-8"?>
<svg width="128px" height="128px" viewBox="0 0 128 128" version="1.1" xmlns="http://www.w3.org/2000/svg" xmlns:xlink="http://www.w3.org/1999/xlink">
    <title>rocket</title>
    <g id="rocket" stroke="none" stroke-width="1" fill="none" fill-rule="evenodd">
        <path d="M42.2686704,98.6965317 L45.7313296,102.303468 L33.2313296,114.303468 L29.7686704,110.696532 L42.2686704,98.6965317 Z M34.2547497,90.2099997 L37.7452503,93.7900003 L17.7452503,113.29 L14.2547497,109.71 L34.2547497,90.2099997 Z M98.7942618,24.7595248 L99.3726029,24.7616022 L101.867306,24.7839983 L101.850101,27.2787424 C101.728407,44.9242891 93.1892886,61.5474301 78.8940164,72.0349306 L78.0768475,72.6251807 L70.3816704,78.1465248 L72.224159,78.483285 C70.7984844,86.2888535 67.1281006,93.4897167 61.6793118,99.1841832 L61.2566743,99.6192327 L51.4855852,109.526031 L51.8603839,96.9858935 L56.6888651,97.1296112 L57.6968421,96.1081653 C61.8756972,91.8712706 64.9085684,86.6369009 66.532303,80.9103987 L52.8665788,90.7172559 L49.9513536,86.6550567 L75.5001538,68.3200354 C88.023313,59.3328271 95.8066551,45.223812 96.7537064,30.0340199 L96.7664934,29.8062205 L96.5592024,29.8153113 C81.8488196,30.5207557 68.1010322,37.8712512 59.256626,49.8657173 L58.927267,50.3176827 L51.4536704,60.6945248 L51.9847574,63.5203365 C50.9402164,63.7164566 49.9085092,63.9601364 48.8925755,64.2498118 L46.1708412,68.0312353 L43.6511046,66.2169905 C40.1768624,67.8539358 36.9829041,70.0680628 34.2126889,72.7830464 L33.7982256,73.1961972 L32.6402178,74.36944 L38.7576704,74.3695248 L39.6932723,73.4349285 L40.6276704,74.3695248 L41.1924035,74.3700535 L48.668402,81.9498853 L45.1085698,85.4609527 L43.1426704,83.4675248 L42.8994688,83.7121928 L38.5566704,79.3685248 L20.6861398,79.3700535 L30.2383933,69.6851298 C34.6125076,65.2502639 39.9547881,61.9319885 45.8137911,59.9704873 L54.8698851,47.3957567 C65.0787677,33.2197183 81.4545256,24.7906212 98.7942618,24.7595248 Z M26.2686704,82.6965317 L29.7313296,86.3034683 L17.2313296,98.3034683 L13.7686704,94.6965317 L26.2686704,82.6965317 Z M84.4795635,42.8343391 C87.2437653,45.6369325 87.3001775,50.1317718 84.6488004,53.0034365 L84.4795635,53.180772 L80.9197313,49.6697046 C81.8212969,48.7556173 81.8212969,47.2594938 80.9197313,46.3454065 C80.037078,45.4504941 78.6204864,45.4504941 77.7378331,46.3454065 C76.8738327,47.2214069 76.8378327,48.6319508 77.6298331,49.5524965 L77.7378331,49.6697046 L74.1780009,53.180772 C71.3562116,50.3197912 71.3562116,45.6953199 74.1780009,42.8343391 C77.0187025,39.9541833 81.6388619,39.9541833 84.4795635,42.8343391 Z" id="Shape" fill="#000000" fill-rule="nonzero"></path>
    </g>
</svg>