<?xml version="1.0" encoding="UTF-8"?>
<svg   viewBox="0 0 116 116" version="1.1" xmlns="http://www.w3.org/2000/svg" xmlns:xlink="http://www.w3.org/1999/xlink">
    <title>rocket</title>
    <g id="rocket" stroke="none" stroke-width="1" fill="none" fill-rule="evenodd">
        <path d="M35.5,92.4285911 L38.9626591,96.0355278 L26.4626591,108.035528 L23,104.428591 L35.5,92.4285911 Z M27.4860792,83.9420591 L30.9765799,87.5220598 L10.9765799,107.02206 L7.48607923,103.442059 L27.4860792,83.9420591 Z M105.051541,7 L105.671266,7.00253707 L108.165969,7.02493314 L108.148764,9.51967731 C108.008155,29.9080304 95.4773183,51.2630727 72.1990843,65.7872243 L71.4903953,66.2252512 C69.9788569,67.1507183 68.4897185,68.1660873 66.8639141,69.3589913 L66.1300794,69.9026447 L63.547,71.866 L65.4554885,72.2153445 C64.0298139,80.020913 60.3594302,87.2217762 54.9106413,92.9162427 L54.4880039,93.3512922 L44.7169148,103.258091 L45.0917135,90.717953 L49.9201947,90.8616707 L50.9281716,89.8402248 C55.1050836,85.6053002 58.1370771,80.3738282 59.7613665,74.6504464 L46.0937867,84.4592661 L43.1785614,80.3970669 L58.9743592,69.0585691 L63.2601697,65.8053678 C65.022335,64.49242 66.6333621,63.3690436 68.2659744,62.3418926 L68.8795533,61.9610392 C90.0557488,48.995525 101.808069,30.2953415 103.041676,12.3169493 L103.059155,12.0361547 L102.786798,12.0469998 C85.0814162,12.7710691 69.0209147,21.9153292 52.6457678,43.4121054 L52.1230475,44.1023714 L48.7047662,48.6671206 L47.1844705,50.7167745 L45.2682655,53.3245369 L44.64,54.187 L45.2160869,57.252396 C44.0879553,57.4642108 42.9747937,57.731502 41.8803056,58.0522991 L41.4828476,58.6198841 L40.7244901,59.7283323 L40.2099415,60.5010367 L39.777451,61.1721107 L39.5070216,61.6085829 L36.8202449,59.9784272 C33.3700739,61.6124479 30.1976967,63.8163296 27.4440185,66.5151058 L27.0295551,66.9282566 L25.8715474,68.1014995 L31.994,68.102 L32.9204802,67.1769387 L33.846,68.102 L34.4237331,68.1021129 L41.8997316,75.6819447 L38.3398993,79.1930122 L36.377,77.203 L36.1266767,77.4542031 L31.773,73.101 L13.9174694,73.1021129 L23.4697229,63.4171892 C27.7724618,59.05469 33.0120282,55.7726384 38.7587194,53.799651 L39.9246884,52.1738363 L41.1635302,50.4670021 L42.8179707,48.2125616 L44.9801763,45.2970402 L48.1285201,41.0950884 C66.2926241,16.9679906 84.6218987,7.01648604 105.051541,7 Z M19.5,76.4285911 L22.9626591,80.0355278 L10.4626591,92.0355278 L7,88.4285911 L19.5,76.4285911 Z M86.7108931,29.5663985 C89.4750948,32.3689919 89.5315071,36.8638312 86.8801299,39.7354959 L86.7108931,39.9128315 L83.1510608,36.4017641 C84.0526264,35.4876767 84.0526264,33.9915533 83.1510608,33.0774659 C82.2684076,32.1825536 80.851816,32.1825536 79.9691627,33.0774659 C79.1051623,33.9534663 79.0691623,35.3640102 79.8611626,36.2845559 L79.9691627,36.4017641 L76.4093304,39.9128315 C73.5875411,37.0518507 73.5875411,32.4273793 76.4093304,29.5663985 C79.250032,26.6862427 83.8701915,26.6862427 86.7108931,29.5663985 Z" id="Shape" fill="#000000" fill-rule="nonzero"></path>
    </g>
</svg>