<?xml version="1.0" encoding="UTF-8"?>
<svg  viewBox="0 0 116 116" version="1.1" xmlns="http://www.w3.org/2000/svg" xmlns:xlink="http://www.w3.org/1999/xlink">
    <title>rocket</title>
    <g id="rocket" stroke="none" stroke-width="1" fill="none" fill-rule="evenodd">
        <path d="M35.2686704,92.6965317 L38.7313296,96.3034683 L26.2313296,108.303468 L22.7686704,104.696532 L35.2686704,92.6965317 Z M27.2547497,84.2099997 L30.7452503,87.7900003 L10.7452503,107.29 L7.25474966,103.71 L27.2547497,84.2099997 Z M104.759727,7.26817529 L105.43945,7.27165383 L107.934153,7.29404989 L107.910429,10.5675047 L107.890497,12.0889559 L107.842044,14.2857321 L107.842044,14.2857321 L107.796352,15.6968349 L107.739129,17.0680215 C107.328187,25.8562344 106.142094,32.2676833 103.314811,39.2845635 C98.542747,51.1280919 89.5831659,61.3027902 75.2015509,69.9163017 C72.0466944,71.8058248 68.8539425,73.472949 65.0771891,75.2500598 C63.6788105,82.0840054 60.5952174,87.1088398 54.6623194,93.2052213 L54.2566743,93.6192327 L44.4855852,103.526031 L44.8603839,90.9858935 L49.6888651,91.1297622 L50.6968421,90.1081653 C55.046599,85.6979951 57.6444925,82.1120881 59.1509603,77.9380989 L55.9643016,79.3635712 L53.5791769,80.4473567 L53.2728335,80.5902482 L52.2313528,81.0876889 C49.7083395,82.3112298 47.7787269,83.3920917 46.1778422,84.5052654 L45.8619699,84.7283828 L42.9467446,80.6661837 C44.9890736,79.2005123 47.3851121,77.8599532 50.5721403,76.3372811 L51.2877091,75.998746 L53.2444839,75.1052549 L60.8268256,71.7078711 C65.4326512,69.6081495 69.0728994,67.7587167 72.6324629,65.6268044 C86.100523,57.560444 94.3225246,48.2233571 98.6771217,37.4159183 C101.444944,30.5466093 102.509233,24.2160303 102.818525,14.9627432 L102.861225,13.4769048 L102.88624,12.2877542 L102.87247,12.2885008 C83.0388697,12.7419334 66.3303882,20.8312369 50.3942241,41.7079663 L49.8912308,42.3714881 L49.2276928,43.2603527 L48.589003,44.1310952 L47.9751307,44.9835896 L47.1007879,46.2278401 L47.1007879,46.2278401 L46.5488251,47.0341624 L45.8936166,48.0157684 L45.8936166,48.0157684 L45.2769577,48.9679258 L44.6987886,49.8903882 L44.6987886,49.8903882 L44.1590493,50.7829093 L43.754887,51.475203 C43.4936243,51.9302641 43.2487123,52.3723611 43.0201101,52.8013258 L42.689434,53.4349027 C42.5661598,53.6763326 42.4483778,53.9133065 42.3360798,54.1457915 L43.1051151,57.5173135 C42.338299,57.691998 41.5804198,57.8959064 40.8329959,58.1281932 C40.6490154,58.9049126 40.5756718,59.5846045 40.6115834,60.1660311 L40.6248913,60.330222 L35.6501913,60.8325765 C35.6326166,60.6585383 35.6201867,60.4816734 35.6128957,60.3019577 C33.0525348,61.6579011 30.6881962,63.3795749 28.597733,65.4223264 L28.199962,65.8182536 L25.6665456,68.386007 L31.7476704,68.3861753 L32.6886634,67.4460555 L33.6286704,68.3861753 L34.2188068,68.3865449 L41.6948053,75.9663767 L38.1349731,79.4774441 L36.1516704,77.4661753 L35.8948599,77.7233198 L31.5566704,73.3851753 L13.7125431,73.3865449 L24.6401297,62.3071862 C28.1178463,58.781168 32.2814663,56.0379854 36.8513487,54.2333755 C37.6782152,52.0984178 38.9165291,49.714364 40.561416,47.0632957 L41.0897763,46.2243985 C41.2703228,45.9418436 41.4552941,45.6563597 41.6446853,45.3679267 L42.3756111,44.2724401 L42.3756111,44.2724401 L43.1479167,43.1490721 L43.9615451,41.9975885 L43.9615451,41.9975885 L44.8164394,40.8177555 L45.1699388,40.3378321 L45.1699388,40.3378321 L45.8967034,39.3642052 L45.8967034,39.3642052 C63.4666951,16.0262574 82.3642835,7.24386328 104.759727,7.26817529 Z M19.2686704,76.6965317 L22.7313296,80.3034683 L10.2313296,92.3034683 L6.76867043,88.6965317 L19.2686704,76.6965317 Z M86.4795635,29.8343391 C89.2437653,32.6369325 89.3001775,37.1317718 86.6488004,40.0034365 L86.4795635,40.180772 L82.9197313,36.6697046 C83.8212969,35.7556173 83.8212969,34.2594938 82.9197313,33.3454065 C82.037078,32.4504941 80.6204864,32.4504941 79.7378331,33.3454065 C78.8738327,34.2214069 78.8378327,35.6319508 79.6298331,36.5524965 L79.7378331,36.6697046 L76.1780009,40.180772 C73.3562116,37.3197912 73.3562116,32.6953199 76.1780009,29.8343391 C79.0187025,26.9541833 83.6388619,26.9541833 86.4795635,29.8343391 Z" id="Shape" fill="#000000" fill-rule="nonzero"></path>
    </g>
</svg>