<?xml version="1.0" encoding="UTF-8"?>
<svg  viewBox="0 0 117 116" version="1.1" xmlns="http://www.w3.org/2000/svg" xmlns:xlink="http://www.w3.org/1999/xlink">
    <title>ruler</title>
    <g id="ruler" stroke="none" stroke-width="1" fill="none" fill-rule="evenodd" transform="translate(0.000000, 0.000000)">
        <path d="M106.146447,30.3890873 L38.3890873,98.1464466 C36.3008671,100.234667 32.9512337,100.292673 30.792935,98.320465 L30.6109127,98.1464466 L24.732233,92.267767 L28.267767,88.732233 L34.1464466,94.6109127 C34.320013,94.7844791 34.5894374,94.8037642 34.7843055,94.6687682 L34.8535534,94.6109127 L38.964,90.499 L36.732233,88.267767 L40.267767,84.732233 L42.5,86.965 L46.965,82.5 L44.732233,80.267767 L48.267767,76.732233 L50.5,78.965 L54.965,74.5 L48.732233,68.267767 L52.267767,64.732233 L58.5,70.965 L62.965,66.5 L60.732233,64.267767 L64.267767,60.732233 L66.5,62.965 L70.965,58.5 L68.732233,56.267767 L72.267767,52.732233 L74.5,54.965 L78.965,50.5 L72.732233,44.267767 L76.267767,40.732233 L82.5,46.965 L86.965,42.5 L84.732233,40.267767 L88.267767,36.732233 L90.5,38.965 L94.965,34.5 L92.732233,32.267767 L96.267767,28.732233 L98.499,30.964 L102.610913,26.8535534 C102.784479,26.679987 102.803764,26.4105626 102.668768,26.2156945 L102.610913,26.1464466 L90.8535534,14.3890873 C90.679987,14.2155209 90.4105626,14.1962358 90.2156945,14.3312318 L90.1464466,14.3890873 L14.3890873,90.1464466 C14.2155209,90.320013 14.1962358,90.5894374 14.3312318,90.7843055 L14.3890873,90.8535534 L28.267767,104.732233 L24.732233,108.267767 L10.8535534,94.3890873 C8.76533322,92.3008671 8.7073271,88.9512337 10.679535,86.792935 L10.8535534,86.6109127 L86.6109127,10.8535534 C88.6991329,8.76533322 92.0487663,8.7073271 94.207065,10.679535 L94.3890873,10.8535534 L106.146447,22.6109127 C108.29433,24.7587963 108.29433,28.2412037 106.146447,30.3890873 Z" id="Path-301" fill="#000000" fill-rule="nonzero"></path>
    </g>
</svg>