<?xml version="1.0" encoding="UTF-8"?>
<svg  viewBox="0 0 116 116" version="1.1" xmlns="http://www.w3.org/2000/svg" xmlns:xlink="http://www.w3.org/1999/xlink">
    <title>sailboat</title>
    <g id="sailboat" stroke="none" stroke-width="1" fill="none" fill-rule="evenodd">
        <path d="M29,90.5 C29,103.04 55.4627,103.1654 55.991954,90.8762 L56,90.5 L61,90.5 C61,96.1882764 66.7175855,100 74.5,100 C82.1626851,100 87.8235856,96.304658 87.9959535,90.7611963 L88,90.5 L93,90.5 L93.0041366,90.763769 C93.1775817,96.2741038 98.7869304,99.9595654 106.352393,99.9997812 L106.714118,99.9989337 L106.763918,104.998686 C99.884938,105.067203 93.8384123,102.628869 90.5717262,98.310123 L90.5,98.213 L90.4179965,98.3244034 C87.250696,102.499842 81.4790802,104.91433 74.8556325,104.997764 L74.5,105.000092 C67.8750994,105.000092 62.0637437,102.678722 58.7960616,98.5989847 L58.51,98.228 L58.461504,98.2952 C51.7675063,107.143712 33.6757414,107.234002 26.7491362,98.5660728 L26.503,98.247 L26.4204382,98.3606947 C23.2564876,102.549331 17.4920541,104.955645 10.8819309,104.999425 L10.5270182,104.999507 L10.5577275,99.9996015 C18.1854044,100.046451 23.824271,96.3553601 23.9959692,90.7635034 L24,90.5 L29,90.5 Z M56.5,13.8407476 C58.9143039,13.8407476 60.8845431,15.7420228 60.9951066,18.1289377 L61,18.3407722 L60.999,79.684 L90.7152037,79.5337816 L102.465203,79.5028309 L104.283883,79.500895 L109,79.5 L109,82 L108.995225,82.8298365 L108.989201,83.228169 L108.989201,83.228169 L108.969689,83.9928238 C108.965596,84.1167869 108.961077,84.2390362 108.956127,84.3596103 L108.921203,85.063263 L108.875629,85.7285697 L108.819105,86.3573881 C108.487904,89.6170865 107.67667,91.3992094 106.180423,92.9719112 L105.642857,93.5242897 L105.593839,93.5780172 L101.876516,90.234141 L101.922073,90.1776288 C102.02356,90.0400449 102.156091,89.790118 102.304353,89.4553913 L102.457291,89.093418 L102.617313,88.6810322 L102.781015,88.2243545 L102.863182,87.9813189 L102.863182,87.9813189 L103.026024,87.4696797 L103.184038,86.9290504 C103.38563,86.2072253 103.556503,85.4735424 103.688976,84.7732478 L103.737,84.503 L99.8823348,84.517881 L90.6253307,84.5847453 L83.0414605,84.66284 L72.8721062,84.7899237 L58.5390577,84.9996949 L56,85.0393677 L55.999,84.715 L13.268,84.991 L13.3046124,85.167044 C13.5666934,86.3503423 13.9991537,87.5857752 14.6068759,88.8746793 L14.8159479,89.3062963 L10.338768,91.5322479 C8.87204259,88.5821417 8.08531538,85.7220092 8.00656494,82.959511 L8,82.5 L8,80 L13.1260254,79.9920217 L55.999,79.715 L56,19.338 L55.4937644,19.7331932 L54.9543108,20.1671588 L54.4035168,20.6235266 L53.8413909,21.1022906 L53.2679415,21.6034449 L52.6831769,22.1269836 L52.0871056,22.6729007 L51.171817,23.5337228 L51.171817,23.5337228 L50.5475156,24.1355598 L49.911937,24.7597543 L48.9374426,25.7379536 L48.2737076,26.418016 L47.5987248,27.1204152 L46.9125024,27.8451451 L46.2150491,28.5921999 L45.5063732,29.3615735 L44.786483,30.1532601 L43.6856395,31.3826136 L42.9377507,32.2300564 L42.178677,33.0997912 L41.408427,33.9918122 L40.2321147,35.3716172 L39.4339606,36.3193275 L38.2158316,37.7826385 L36.9726504,39.2960263 L36.1299591,40.3327621 L34.8450873,41.9295667 L33.9746285,43.021895 L32.648145,44.7020605 L31.7499714,45.8499442 L30.381955,47.6134148 L28.9890568,49.4268417 L28.0466487,50.6635366 L26.1287282,53.2034841 L24.6613546,55.1666594 L23.1692127,57.1797106 L21.6523309,59.2426176 L20.1107375,61.3553604 L18.0168884,64.2498383 L16.4177451,66.4787864 L15.331,68 L46.5,68 L46.5,73 L14.3635969,73 C13.4299041,73 12.519331,72.7095683 11.7580696,72.1689544 C9.73176287,70.7299617 9.25565043,67.9207818 10.6946426,65.894473 L11.843219,64.2808237 L13.5435748,61.905968 L15.2169485,59.5858341 L16.8633722,57.3203991 L18.482878,55.1096405 L20.075498,52.9535355 L21.6412643,50.8520615 L23.1802089,48.8051956 L24.1912869,47.470945 L25.190468,46.1609479 L26.6669536,44.2414129 L28.1167244,42.3764104 L29.5398127,40.5659177 L30.9362504,38.8099121 L31.8524189,37.6695011 L32.7567664,36.5532897 L33.6493026,35.4612713 L34.9659812,33.8685908 L35.3989787,33.3497864 L35.3989787,33.3497864 L36.6803015,31.8296292 L37.5198039,30.8463958 L38.3475472,29.8873183 L39.1635409,28.9523901 L39.9677945,28.0416043 L40.7603175,27.1549543 L41.5411194,26.2924333 L42.6903659,25.043879 L43.4419067,24.2416511 L44.1817596,23.4635287 L44.9099341,22.7095051 L45.6264399,21.9795735 L46.3312863,21.2737271 L47.024483,20.5919594 L47.7060393,19.9342635 L48.5416301,19.1459844 L48.5416301,19.1459844 L49.3590663,18.3952939 C49.5746303,18.2001204 49.7882598,18.0089549 49.9999564,17.8217964 L50.6292491,17.2723405 L51.2469537,16.7469195 L51.8530798,16.2455265 C51.9531365,16.163963 52.0527112,16.0834004 52.1518039,16.0038385 L52.7405801,15.5384751 C52.8377463,15.4629157 52.9344311,15.3883567 53.0306346,15.3147981 L53.8510587,14.7030076 C54.6206089,14.1426378 55.5480431,13.8407476 56.5,13.8407476 Z M68.9477174,8.06254307 L69.1594634,8.0712735 C70.4053312,8.14638478 71.4340028,8.28179691 72.2689862,8.49078216 C94.3899176,14.0273576 108.711471,36.1363092 108.99569,69.4859691 L109,70.5 L109,73 L82.5,73 L82.5,68 L103.971,68 L103.964971,67.6699879 C103.219456,37.8138145 90.63087,18.5744535 71.6502191,13.495278 L71.0549992,13.3411673 C70.7260862,13.2588447 70.2875687,13.1881108 69.7464058,13.1328977 L69.488,13.108 L69.789337,14.9460842 L69.8261983,15.183273 C72.5260404,32.7229769 72.3075866,46.9042526 69.7802621,65.3309453 L69.4723144,67.5188368 C69.3661389,68.2549686 69.2564494,68.9980878 69.1432827,69.7486531 L68.9709292,70.880143 L64.0290708,70.119857 L64.3611516,67.91764 C64.5798381,66.4363417 64.7842928,64.9851531 64.9742248,63.5602182 L65.2481944,61.442024 L65.2481944,61.442024 L65.5001618,59.3603184 C67.266714,44.2211993 67.2408143,31.7922059 65.0352012,16.9410921 L64.8491175,15.7169548 L64.6252008,14.3400449 L64.4529495,13.3211261 C64.3949062,12.9814685 64.3760676,12.6362682 64.3968042,12.2923114 C64.5420936,9.88240222 66.5584651,8.03016396 68.9477174,8.06254307 Z" id="Shape" fill="#000000" fill-rule="nonzero"></path>
    </g>
</svg>