<?xml version="1.0" encoding="UTF-8"?>
<svg  viewBox="0 0 116 116" version="1.1" xmlns="http://www.w3.org/2000/svg" xmlns:xlink="http://www.w3.org/1999/xlink">
    <title>scale</title>
    <g id="scale" stroke="none" stroke-width="1" fill="none" fill-rule="evenodd">
        <path d="M61,24.5 L61,80.5 C61,87.8522907 66.8774286,93.8318345 74.1901692,93.9965146 L74.5,94 L90.5,94 C96.2039245,94 100.845573,98.548142 100.996226,104.215705 L101,104.5 L101,107 L34.5,107 L34.5,102 L95.4,102 L95.3174764,101.844233 C94.414094,100.209016 92.7023408,99.0827304 90.7212071,99.0043672 L90.5,99 L74.5,99 C67.7633399,99 61.8676807,95.399247 58.6326391,90.0173577 L58.5,89.791 L58.3673609,90.0173577 C55.1862367,95.3095488 49.432443,98.8794801 42.8361237,98.9970078 L42.5,99 L26.5,99 C23.5365209,99 21.1204609,101.34378 21.0043672,104.278793 L21,104.5 L16,104.5 C16,98.7960755 20.548142,94.1544266 26.2157049,94.0037742 L26.5,94 L42.5,94 C49.8522907,94 55.8318345,88.1225714 55.9965146,80.8098308 L56,80.5 L56,24.5 L61,24.5 Z M61,8.5 C61,11.4634791 63.34378,13.8795391 66.2787929,13.9956328 L66.5,14 L106.5,14 L106.5,19 L93,19 L93,31.909 L110.545085,67 L77.6,67 L77.6825236,67.1557671 C78.585906,68.7909842 80.2976592,69.9172696 82.2787929,69.9956328 L82.5,70 L102.5,70 L102.5,75 L82.5,75 C76.7960755,75 72.1544266,70.451858 72.0037742,64.7842951 L72,64.5 L72,62 L102.454,62 L90.499,38.091 L80.6208697,57.8484305 L76.1487338,55.6123625 L88,31.907 L88,19 L66.5,19 C63.3628415,19 60.5470214,17.624187 58.6229931,15.4430146 L58.5,15.3 L58.3770069,15.4430146 C56.5112825,17.5580909 53.8069953,18.9158779 50.7842951,18.9962258 L50.5,19 L29,19 L29,31.909 L40.8885128,55.6868556 L36.4163768,57.9229235 L26.5,38.091 L14.545,62 L45,62 L45,64.5 C45,70.2039245 40.451858,74.8455734 34.7842951,74.9962258 L34.5,75 L14.5,75 L14.5,70 L34.5,70 C36.5744354,70 38.3806354,68.8515478 39.3174764,67.1557671 L39.399,67 L6.45491503,67 L24,31.907 L24,19 L10.5,19 L10.5,14 L50.5,14 C53.4634791,14 55.8795391,11.65622 55.9956328,8.72120714 L56,8.5 L61,8.5 Z" id="Shape" fill="#000000" fill-rule="nonzero"></path>
    </g>
</svg>