<?xml version="1.0" encoding="UTF-8"?>
<svg  viewBox="0 0 116 116" version="1.1" xmlns="http://www.w3.org/2000/svg" xmlns:xlink="http://www.w3.org/1999/xlink">
    <title>scan</title>
    <g id="scan" stroke="none" stroke-width="1" fill="none" fill-rule="evenodd">
        <path d="M21,74.5 L21,90.5 C21,93.4634791 23.34378,95.8795391 26.2787929,95.9956328 L26.5,96 L42.5,96 L42.5,101 L26.5,101 C20.7960755,101 16.1544266,96.451858 16.0037742,90.7842951 L16,90.5 L16,74.5 L21,74.5 Z M101,74.5 L101,90.5 C101,96.2039245 96.451858,100.845573 90.7842951,100.996226 L90.5,101 L74.5,101 L74.5,96 L90.5,96 C93.4634791,96 95.8795391,93.65622 95.9956328,90.7212071 L96,90.5 L96,74.5 L101,74.5 Z M106.5,56 L106.5,61 L10.5,61 L10.5,56 L106.5,56 Z M90.5,16 C96.2039245,16 100.845573,20.548142 100.996226,26.2157049 L101,26.5 L101,42.5 L96,42.5 L96,26.5 C96,23.5365209 93.65622,21.1204609 90.7212071,21.0043672 L90.5,21 L74.5,21 L74.5,16 L90.5,16 Z M42.5,16 L42.5,21 L26.5,21 C23.5365209,21 21.1204609,23.34378 21.0043672,26.2787929 L21,26.5 L21,42.5 L16,42.5 L16,26.5 C16,20.7960755 20.548142,16.1544266 26.2157049,16.0037742 L26.5,16 L42.5,16 Z" id="Shape" fill="#000000" fill-rule="nonzero"></path>
    </g>
</svg>