<?xml version="1.0" encoding="UTF-8"?>
<svg  viewBox="0 0 116 116" version="1.1" xmlns="http://www.w3.org/2000/svg" xmlns:xlink="http://www.w3.org/1999/xlink">
    <title>scissors</title>
    <g id="scissors" stroke="none" stroke-width="1" fill="none" fill-rule="evenodd">
        <path d="M24.5,20 C33.6126984,20 41,27.3873016 41,36.5 C41,37.2309155 40.9523173,37.9561093 40.8580201,38.6721322 L40.845,38.76 L74.612,55.702 L100.441,42.7439124 L99.9905355,42.6045585 C92.1302815,40.2655325 83.6105309,40.8963567 76.1060032,44.4970308 L75.618034,44.736068 L67.7828784,48.6536458 L65.5468104,44.1815098 L73.381966,40.263932 L73.8806631,40.0190797 C84.3785223,34.9587985 96.6126655,34.9575236 107.1114,40.0152549 L107.618034,40.263932 L112.082337,42.4960835 L80.187,58.499 L112.082337,74.5039165 L107.618034,76.736068 C97.0144472,82.0378614 84.5464567,82.0437857 73.9494715,76.7768036 L73.4541224,76.5260519 L45.2027227,61.9639481 C45.0959416,62.3461048 45.0302677,62.7409678 45.0082694,63.1422269 L45,63.4442719 L45,67.9882024 L34.1056351,73.8962061 L32.7857527,72.5252481 L32.5429263,72.2803687 C30.410297,70.1923808 27.5529918,69 24.5,69 C18.1487254,69 13,74.1487254 13,80.5 C13,86.8512746 18.1487254,92 24.5,92 C30.8512746,92 36,86.8512746 36,80.5 C36,79.6232312 35.9023306,78.7611241 35.7109625,77.9240873 L35.6074886,77.5077062 L35.0787171,75.5389516 L49.5352793,68.285296 L51.7776203,72.75429 L40.845,78.2399124 L40.8580201,78.3278678 C40.9523173,79.0438907 41,79.7690845 41,80.5 C41,89.6126984 33.6126984,97 24.5,97 C15.3873016,97 8,89.6126984 8,80.5 C8,71.4945098 15.2145052,64.1740577 24.179101,64.0030582 L24.5,64 L24.9122328,64.0050797 C28.4723333,64.0928802 31.8374625,65.3158106 34.5802624,67.4356779 L34.964,67.7429124 L40,65.0119124 L40,63.4442719 L40.0063214,63.0794813 C40.077605,61.0238098 40.7498841,59.0459872 41.927647,57.3808201 L43.1454401,55.2778463 L75.7450025,72.0817445 C83.327045,75.9900138 92.0605196,76.7516722 100.096418,74.3553532 L100.431,74.252 L35.0787171,41.4610484 L35.6074886,39.4922938 C35.8670611,38.5258376 36,37.522897 36,36.5 C36,30.1487254 30.8512746,25 24.5,25 C18.1487254,25 13,30.1487254 13,36.5 C13,42.8512746 18.1487254,48 24.5,48 C27.5529918,48 30.410297,46.8076192 32.5429263,44.7196313 L32.7857527,44.4747519 L36.387747,47.942552 C33.2987159,51.1511199 29.0435695,53 24.5,53 C15.3873016,53 8,45.6126984 8,36.5 C8,27.3873016 15.3873016,20 24.5,20 Z M58.5,56 C59.8807119,56 61,57.1192881 61,58.5 C61,59.8807119 59.8807119,61 58.5,61 C57.1192881,61 56,59.8807119 56,58.5 C56,57.1192881 57.1192881,56 58.5,56 Z" id="Shape" fill="#000000" fill-rule="nonzero"></path>
    </g>
</svg>