<?xml version="1.0" encoding="UTF-8"?>
<svg  viewBox="0 0 116 116" version="1.1" xmlns="http://www.w3.org/2000/svg" xmlns:xlink="http://www.w3.org/1999/xlink">
    <title>scooter</title>
    <g id="scooter" stroke="none" stroke-width="1" fill="none" fill-rule="evenodd">
        <path d="M75.9415688,24 C80.8522827,24 85.0932102,27.40077 86.1785678,32.164455 L86.2376659,32.4407806 L93.5495098,69 L90.5,69 C83.1477093,69 77.1681655,74.8774286 77.0034854,82.1901692 L77,82.5 L77,85 L32,85 L32,82.5 C32,79.4624339 29.5375661,77 26.5,77 C23.4624339,77 21,79.4624339 21,82.5 C21,85.4634791 23.34378,87.8795391 26.2787929,87.9956328 L26.5,88 L26.5,93 C20.7010101,93 16,88.2989899 16,82.5 C16,76.7010101 20.7010101,72 26.5,72 C31.3483358,72 35.4291776,75.2860326 36.6368619,79.7524344 L36.7,80 L72.168,80 L72.187727,79.8545025 C73.3166137,71.9704484 79.4164766,65.6904477 87.2101775,64.2916386 L87.498,64.242 L81.3347625,33.4213613 C80.8361767,30.9284322 78.6985187,29.1128147 76.1788669,29.0050664 L75.9415688,29 L66.5,29 L66.5,24 L75.9415688,24 Z M90.5,72 C96.2989899,72 101,76.7010101 101,82.5 C101,88.2039245 96.451858,92.8455734 90.7842951,92.9962258 L90.5,93 L90.5,88 C93.5375661,88 96,85.5375661 96,82.5 C96,79.4624339 93.5375661,77 90.5,77 C87.5365209,77 85.1204609,79.34378 85.0043672,82.2787929 L85,82.5 L80,82.5 C80,76.7010101 84.7010101,72 90.5,72 Z" id="Shape" fill="#000000" fill-rule="nonzero"></path>
    </g>
</svg>