<?xml version="1.0" encoding="UTF-8"?>
<svg  viewBox="0 0 116 116" version="1.1" xmlns="http://www.w3.org/2000/svg" xmlns:xlink="http://www.w3.org/1999/xlink">
    <title>scooter</title>
    <g id="scooter" stroke="none" stroke-width="1" fill="none" fill-rule="evenodd">
        <path d="M81.0088472,24 C85.8786761,24 90.0955946,27.3455952 91.2210036,32.0581209 L91.28362,32.3368899 L98.5811168,67 L91.5,67 C84.1477093,67 78.1681655,72.8774286 78.0034854,80.1901692 L78,80.5 L78,85 L32,85 L32,82.5 C32,78.3578644 28.6421356,75 24.5,75 C20.3578644,75 17,78.3578644 17,82.5 C17,86.5609173 20.2274744,89.8680175 24.2572689,89.9961464 L24.5,90 L24.5,95 C17.5964406,95 12,89.4035594 12,82.5 C12,75.5964406 17.5964406,70 24.5,70 C30.4762156,70 35.4728928,74.193902 36.7074483,79.7991226 L36.748,80 L73.006,80 L73.0119351,79.8292047 C73.3610434,70.0339664 81.3252983,62.1782877 91.1638763,62.0029922 L91.5,62 L92.418,62 L86.390871,33.3669424 C85.8712992,30.8989761 83.744238,29.1110794 81.2442737,29.0049883 L81.0088472,29 L67.5,29 L67.5,24 L81.0088472,24 Z M92.5,70 C99.4035594,70 105,75.5964406 105,82.5 C105,89.3005212 99.5693706,94.8326509 92.8082268,94.9962742 L92.5,95 L92.5,90 C96.6421356,90 100,86.6421356 100,82.5 C100,78.3578644 96.6421356,75 92.5,75 C88.3578644,75 85,78.3578644 85,82.5 C85,84.3720405 85.6858551,86.1302835 86.9034503,87.4930732 L87.1112799,87.7164949 L83.519272,91.194638 C81.2779414,88.8799324 80,85.7874163 80,82.5 C80,75.5964406 85.5964406,70 92.5,70 Z" id="Shape" fill="#000000" fill-rule="nonzero"></path>
    </g>
</svg>