<?xml version="1.0" encoding="UTF-8"?>
<svg  viewBox="0 0 116 116" version="1.1" xmlns="http://www.w3.org/2000/svg" xmlns:xlink="http://www.w3.org/1999/xlink">
    <title>shield-alt</title>
    <g id="shield-alt" stroke="none" stroke-width="1" fill="none" fill-rule="evenodd">
        <path d="M58.5,6.96446609 L60.267767,8.73223305 L60.3387553,8.80069804 L60.4997122,8.9414773 L60.6859234,9.08735796 L60.8973264,9.23830283 L61.1338583,9.39427475 L61.3954563,9.55523656 L61.6820578,9.72115107 L62.1587042,9.97922787 L62.5075397,10.1573616 L62.881159,10.3403179 L63.2794994,10.5280596 L63.9232246,10.8185636 L64.383093,11.0181064 L65.1188162,11.3261377 L65.6398205,11.5372491 L66.4669533,11.8624593 L67.3486495,12.1978094 L68.2846974,12.5431742 L69.616942,13.0190219 L71.0449333,13.5121529 L72.1784584,13.8931645 L74.1861474,14.5490756 L75.8983662,15.0922725 L77.7043235,15.6515633 L79.6035173,16.2266506 L81.5954455,16.8172371 L83.6796062,17.4230255 L85.3029523,17.8871641 L88.1226168,18.6790184 L91.0840413,19.4932316 L92.928533,19.9922503 C95.253096,20.6174721 96.8915603,22.677212 96.9948226,25.0638014 L97,25.3035088 L97,69.6555898 C97,78.3657737 92.7206556,86.5094321 85.5718716,91.4521337 L85.1995552,91.7049226 L60.4414507,108.210326 C59.327679,108.95284 57.8944329,108.99192 56.7470322,108.327565 L56.5585493,108.210326 L31.8004448,91.7049226 C24.5531337,86.8733819 20.1509536,78.7954632 20.0038091,70.1055978 L20,69.6555898 L20,66.5 L25,66.5 L25,69.6555898 C25,76.7085495 28.4583808,83.3036678 34.2379423,87.3160671 L34.5739458,87.5446711 L58.5,103.495 L82.4260542,87.5446711 C88.2944714,83.632393 91.863577,77.0965328 91.9961711,70.0619682 L92,69.6555898 L92,25.3034797 C92,25.0773628 91.8482396,24.8793866 91.6298704,24.8206533 L88.85463,24.0682232 L86.1963073,23.335123 L84.2789252,22.7977653 L81.8237388,22.0976215 L78.9167378,21.2481828 L76.7199781,20.5887836 L75.1471647,20.105752 L74.1340777,19.7891308 L72.6674389,19.3221858 L71.7248963,19.0161476 L70.8104379,18.7142636 L69.491241,18.2691274 L68.2348041,17.8330836 L67.4319188,17.5473636 L66.2795091,17.1261344 L65.5457367,16.8501494 L64.4966384,16.4433109 L63.8315017,16.1767784 L63.1936857,15.9139477 L62.583114,15.6547737 L61.9997102,15.399211 L61.443398,15.1472145 L60.9141011,14.898739 L60.4117432,14.6537391 L59.9362477,14.4121698 L59.4875385,14.1739857 C59.3424246,14.0951501 59.2017624,14.0168713 59.0655391,13.9391416 L58.6701732,13.7075923 L58.5,13.603 L58.1325479,13.824668 L57.7174403,14.0613522 L57.2748656,14.3014536 L56.8047442,14.5450194 L56.3069962,14.7920969 L55.5083999,15.1694008 L55.5083999,15.1694008 L54.9412365,15.4254642 L54.3461673,15.6852047 L53.7231125,15.9486696 L53.0719923,16.215906 L52.3927269,16.4869612 L51.6852367,16.7618826 L50.9494417,17.0407173 L50.1852622,17.3235127 L49.3926185,17.6103159 L48.1501078,18.0481388 L46.8431038,18.4952453 L44.9996433,19.1061041 L43.5411075,19.5754924 L42.0171808,20.054696 L39.8830939,20.7091778 L38.7720775,21.0431866 L37.0503623,21.5527926 L34.6513009,22.2485554 L32.133436,22.9632796 L29.4961291,23.6973433 L26.7387422,24.4511246 L25.3701445,24.8206493 C25.1790669,24.8720442 25.0389832,25.030051 25.0069479,25.2202355 L25,25.3034962 L25,56 L50.5,56 L50.5,61 L20,61 L20,25.3034962 C20,22.8161139 21.6694233,20.6383378 24.0714574,19.9922529 L27.7097611,19.0020555 L30.5862482,18.2011877 L33.320387,17.4230275 L35.9111969,16.6681555 L38.3576975,15.9371526 L39.7559215,15.5102495 L41.1016293,15.0922739 L42.8138487,14.5490768 L44.4318275,14.0222711 L45.5831642,13.6381024 L47.3830554,13.0190228 L48.7153004,12.543175 L49.6513486,12.1978102 L50.2451983,11.9731229 L51.3601781,11.5372497 L51.8811825,11.3261382 L52.6169059,11.0181069 L53.2975011,10.72055 L53.7204998,10.52806 L54.3087441,10.2482395 L54.8412953,9.97922812 L55.1652844,9.80595419 L55.4643641,9.63757723 L55.8030895,9.43404899 L55.8030895,9.43404899 L56.1026735,9.23830293 L56.3140765,9.08735802 L56.5002878,8.94147734 L56.6612446,8.80069805 L56.732233,8.73223305 L58.5,6.96446609 Z M61,26.5 L61,56 L87,56 L87,61 L61,61 L61,90.5 L56,90.5 L56,26.5 L61,26.5 Z" id="Shape" fill="#000000" fill-rule="nonzero"></path>
    </g>
</svg>