<?xml version="1.0" encoding="UTF-8"?>
<svg  viewBox="0 0 116 116" version="1.1" xmlns="http://www.w3.org/2000/svg" xmlns:xlink="http://www.w3.org/1999/xlink">
    <title>ship-side-view</title>
    <g id="ship-side-view" stroke="none" stroke-width="1" fill="none" fill-rule="evenodd">
        <path d="M29,90.5 C29,103.04 55.4627,103.1654 55.991954,90.8762 L56,90.5 L61,90.5 C61,96.1882764 66.7175855,100 74.5,100 C82.1626851,100 87.8235856,96.304658 87.9959535,90.7611963 L88,90.5 L93,90.5 L93.0041366,90.763769 C93.1775817,96.2741038 98.7869304,99.9595654 106.352393,99.9997812 L106.714118,99.9989337 L106.763918,104.998686 C99.884938,105.067203 93.8384123,102.628869 90.5717262,98.310123 L90.5,98.213 L90.4179965,98.3244034 C87.250696,102.499842 81.4790802,104.91433 74.8556325,104.997764 L74.5,105.000092 C67.7278794,105.000092 61.805863,102.574404 58.5820035,98.3244034 L58.51,98.228 L58.461504,98.2952 C51.698496,107.234933 33.301504,107.234933 26.538496,98.2952 L26.503,98.247 L26.4204382,98.3606947 C23.2564876,102.549331 17.4920541,104.955645 10.8819309,104.999425 L10.5270182,104.999507 L10.5577275,99.9996015 C18.1854044,100.046451 23.824271,96.3553601 23.9959692,90.7635034 L24,90.5 L29,90.5 Z M67.5,8 C70.4634791,8 72.8795391,10.34378 72.9956328,13.2787929 L73,13.5 L73,24 L88,24 L88,13.5 C88,10.5365209 90.34378,8.12046086 93.2787929,8.0043672 L93.5,8 L103.5,8 C106.463479,8 108.879539,10.34378 108.995633,13.2787929 L109,13.5 L109,26.5 L104,26.5 L104,13.5 C104,13.2545401 103.823125,13.0503916 103.589876,13.0080557 L103.5,13 L93.5,13 C93.2545401,13 93.0503916,13.1768752 93.0080557,13.4101244 L93,13.5 L93,24 L98.5,24 L98.5,29 L68,29 L68,13.5 C68,13.2545401 67.8231248,13.0503916 67.5898756,13.0080557 L67.5,13 L57.5,13 C57.2545401,13 57.0503916,13.1768752 57.0080557,13.4101244 L57,13.5 L57,24 L62.5,24 L62.5,29 L34.5,29 C31.5365209,29 29.1204609,31.34378 29.0043672,34.2787929 L29,34.5 L29,48 L112.5,48 L112.5,53 L7.057,53 L7.05899468,53.0207066 C7.59985629,64.4709029 11.8607309,74.5065498 19.8853265,83.2217617 L20.3267646,83.695828 L16.6866204,87.1235605 C7.06956883,76.9105542 2.15723836,64.8856186 2.0037144,51.1652133 L2,50.5 L2,48 L24,48 L24,34.5 C24,28.7960755 28.548142,24.1544266 34.2157049,24.0037742 L34.5,24 L52,24 L52,13.5 C52,10.5365209 54.34378,8.12046086 57.2787929,8.0043672 L57.5,8 L67.5,8 Z" id="Shape" fill="#000000" fill-rule="nonzero"></path>
    </g>
</svg>