<?xml version="1.0" encoding="UTF-8"?>
<svg  viewBox="0 0 116 116" version="1.1" xmlns="http://www.w3.org/2000/svg" xmlns:xlink="http://www.w3.org/1999/xlink">
    <title>ship</title>
    <g id="ship" stroke="none" stroke-width="1" fill="none" fill-rule="evenodd">
        <path d="M29,90.5 C29,103.04 55.4627,103.1654 55.991954,90.8762 L56,90.5 L61,90.5 C61,96.1882764 66.7175855,100 74.5,100 C82.1626851,100 87.8235856,96.304658 87.9959535,90.7611963 L88,90.5 L93,90.5 L93.0041366,90.763769 C93.1775817,96.2741038 98.7869304,99.9595654 106.352393,99.9997812 L106.714118,99.9989337 L106.763918,104.998686 C99.884938,105.067203 93.8384123,102.628869 90.5717262,98.310123 L90.5,98.213 L90.4179965,98.3244034 C87.250696,102.499842 81.4790802,104.91433 74.8556325,104.997764 L74.5,105.000092 C67.7278794,105.000092 61.805863,102.574404 58.5820035,98.3244034 L58.51,98.228 L58.461504,98.2952 C51.698496,107.234933 33.301504,107.234933 26.538496,98.2952 L26.503,98.247 L26.4204382,98.3606947 C23.2564876,102.549331 17.4920541,104.955645 10.8819309,104.999425 L10.5270182,104.999507 L10.5577275,99.9996015 C18.1854044,100.046451 23.824271,96.3553601 23.9959692,90.7635034 L24,90.5 L29,90.5 Z M67.5,8 C70.4634791,8 72.8795391,10.34378 72.9956328,13.2787929 L73,13.5 L73,24 L87,24 C92.7039245,24 97.3455734,28.548142 97.4962258,34.2157049 L97.5,34.5 L97.5,50.5 L92.5,50.5 L92.5,34.5 C92.5,31.5365209 90.15622,29.1204609 87.2212071,29.0043672 L87,29 L68,29 L68,13.5 C68,13.2545401 67.8231248,13.0503916 67.5898756,13.0080557 L67.5,13 L49.5,13 C49.2545401,13 49.0503916,13.1768752 49.0080557,13.4101244 L49,13.5 L49,24 L62.5,24 L62.5,29 L30.5,29 C27.5365209,29 25.1204609,31.34378 25.0043672,34.2787929 L25,34.5 L25.0004478,55.179983 C35.6658355,49.8530233 46.5204295,46.1452077 57.182266,44.1955996 L58.0717948,44.0369449 L58.4981365,43.9628249 L58.9245866,44.0363186 C75.2331019,46.8469 91.8290626,53.6519888 107.06211,63.862738 L109,65.1776875 L109,66.5 C109,76.0806287 106.908503,84.5114821 102.710969,91.7482612 L102.392205,92.2887801 L98.1038485,89.7177881 C101.707989,83.7061638 103.664205,76.7035359 103.960378,68.6729837 L103.984,67.821 L103.433726,67.4545466 C89.2836782,58.1225242 73.9788007,51.8458988 58.9586145,49.1199333 L58.503,49.039 L58.0615118,49.1177294 C43.3186,51.8167303 28.1178105,58.0596131 13.5924339,67.4596914 L13.015,67.835 L13.0172377,67.9576604 C13.2068362,75.9139272 14.960223,82.8665713 18.264211,88.8478912 L18.5688448,89.3889727 L14.2319498,91.8772134 C10.1782852,84.811853 8.10760966,76.586586 8.0040863,67.240201 L8,66.5 L8,65.1620406 L9.11324951,64.4198743 C12.7020173,62.0273624 16.3363574,59.8200858 20.0004782,57.8037939 L20,34.5 C20,28.7960755 24.548142,24.1544266 30.2157049,24.0037742 L30.5,24 L44,24 L44,13.5 C44,10.5365209 46.34378,8.12046086 49.2787929,8.0043672 L49.5,8 L67.5,8 Z" id="Shape" fill="#000000" fill-rule="nonzero"></path>
    </g>
</svg>