<?xml version="1.0" encoding="UTF-8"?>
<svg  viewBox="0 0 116 116" version="1.1" xmlns="http://www.w3.org/2000/svg" xmlns:xlink="http://www.w3.org/1999/xlink">
    <title>shuffle</title>
    <g id="shuffle" stroke="none" stroke-width="1" fill="none" fill-rule="evenodd">
        <path d="M22.9807863,32 C25.8149952,32 28.523908,33.1454786 30.4965897,35.1676844 L30.7209047,35.4048914 L69.964866,78.2164855 C70.9453409,79.2860944 72.3059656,79.9221824 73.7479593,79.9933153 L74.0192137,80 L89,80 L89,90.084 L101.641,82.499 L85.2137606,72.6437323 L87.7862394,68.3562677 L104.92793,78.6412818 C107.059041,79.9199486 107.750084,82.6841197 106.471417,84.8152309 C106.138896,85.3694325 105.691481,85.8445579 105.160512,86.2092662 L104.92793,86.3587182 L89.3007351,95.7350349 C87.6432042,96.7295534 85.4932933,96.1920757 84.4987748,94.5345448 C84.213199,94.0585851 84.0455064,93.5225441 84.0080454,92.9710033 L84,92.7338096 L84,85 L74.0192137,85 C71.1850048,85 68.476092,83.8545214 66.5034103,81.8323156 L66.2790953,81.5951086 L27.035134,38.7835145 C26.0546591,37.7139056 24.6940344,37.0778176 23.2520407,37.0066847 L22.9807863,37 L10.5,37 L10.5,32 L22.9807863,32 Z M40.4849003,63.544391 L44.170671,66.9230141 L30.7209047,81.5954864 L30.4965897,81.8326934 C28.6028152,83.774011 26.0305303,84.9073368 23.3202508,84.9948967 L22.9807863,85.0003778 L10.5,85.0003778 L10.5,80.0003778 L22.9807863,80.0003778 L23.2520407,79.9936931 C24.6039098,79.9270061 25.8842632,79.3637764 26.8469131,78.4123026 L27.035134,78.2168633 L40.4849003,63.544391 Z M84.4987748,22.4658331 C85.4589996,20.8654584 87.4963083,20.3092236 89.1275776,21.1679097 L89.3007351,21.265343 L104.92793,30.6416597 L105.160512,30.7911116 C105.691481,31.1558199 106.138896,31.6309454 106.471417,32.1851469 C107.711336,34.251679 107.099113,36.9134851 105.117685,38.2388202 L104.92793,38.359096 L87.7862394,48.6441101 L85.2137606,44.3566455 L101.641,34.5014171 L89,26.9164171 L89,37.0003778 L74.0192137,37.0003778 L73.7479593,37.0070626 C72.3960902,37.0737496 71.1157368,37.6369792 70.1530869,38.5884531 L69.964866,38.7838924 L55.0455825,55.0594743 L51.3598118,51.6808511 L66.2790953,35.4052692 L66.5034103,35.1680623 C68.3971848,33.2267446 70.9694697,32.0934189 73.6797492,32.0058589 L74.0192137,32.0003778 L84,32.0004171 L84,24.2665682 L84.0080454,24.0293745 C84.0455064,23.4778337 84.213199,22.9417927 84.4987748,22.4658331 Z" id="Shape" fill="#000000" fill-rule="nonzero"></path>
    </g>
</svg>