<?xml version="1.0" encoding="UTF-8"?>
<svg  viewBox="0 0 116 116" version="1.1" xmlns="http://www.w3.org/2000/svg" xmlns:xlink="http://www.w3.org/1999/xlink">
    <title>signature</title>
    <g id="signature" stroke="none" stroke-width="1" fill="none" fill-rule="evenodd">
        <path d="M44.9998585,23.4734058 L45.3492666,58.8619186 L46.1868198,58.6657439 L47.9029586,58.2754493 L49.6738994,57.8878042 C50.273359,57.7590188 50.8819708,57.6306568 51.499753,57.5027004 L53.3806301,57.1200298 C54.0167719,56.9928664 54.6621028,56.8660904 55.3166412,56.739684 L57.3078971,56.361555 C57.9186554,56.2474885 58.5487697,56.2980609 59.1335173,56.5080776 C60.9527416,57.1614662 61.8978375,59.1659181 61.2444437,60.985131 L60.9659862,61.7751161 L60.7108722,62.5291034 L60.4790466,63.2467081 C60.4423466,63.3632556 60.4066147,63.4782712 60.3718497,63.5917468 L60.1748532,64.2540562 L59.9227483,65.1773794 L59.9227483,65.1773794 L59.7835245,65.7456064 C59.6132467,66.4777903 59.5043356,67.1078241 59.4562027,67.6316038 L59.439,67.862 L59.4861642,67.849947 C60.8375984,67.44611 62.370415,66.2091337 64.3776261,63.9221802 L64.8686151,63.3530408 L65.1212222,63.0531432 L65.1212222,63.0531432 L65.6412241,62.4222761 L66.181693,61.7494246 L66.7435292,61.0339225 L69.1529402,57.8867274 L70.154137,56.5988725 L70.8306323,55.7486681 L71.2527889,55.2297533 L71.6559734,54.7446686 L72.0437004,54.2895735 L72.4194841,53.8606278 L72.7868389,53.4539909 L73.1492793,53.0658224 L73.5103197,52.692282 L73.8734744,52.3295293 L74.0569429,52.1509981 L74.0569429,52.1509981 L74.4298587,51.7972261 C77.0575052,49.3451472 79.6592725,48 82.5,48 C85.631775,48 87.9539184,49.6711538 89.3733111,52.5055961 C90.3267377,54.4095319 90.8681804,56.7453448 91.1964935,59.7466996 L91.2921396,60.6945856 L91.3845648,61.7961805 L91.581,64.943 L91.9104462,64.3648769 L92.1973294,63.8734472 L92.461628,63.4377262 L92.461628,63.4377262 L92.6698743,63.1132495 C95.6282123,58.6757424 99.8030239,56.112975 106.078512,56.0036474 L106.5,56 L106.5,61 C101.760828,61 98.9727135,62.6728688 96.8301257,65.8867505 L96.6617782,66.1516066 L96.4606042,66.4877051 L96.2335112,66.8806843 L95.5977137,68.017736 L94.4013725,70.1914603 L94.1630584,70.6074386 L94.0566882,70.7793286 L94.0566882,70.7793286 C93.1396925,72.1548222 92.0710769,73 90.5,73 C88.3281297,73 87.4453185,71.5346097 87.0119453,69.3678488 L86.9507179,69.0413004 L86.8956115,68.7027629 L86.8456295,68.344643 L86.7997755,67.9593476 L86.7365544,67.31384 L86.6966603,66.8273851 L86.6177955,65.6856264 L86.4051801,62.2644779 L86.323398,61.2630558 L86.2371275,60.3923919 L86.1581338,59.7101166 L86.0712731,59.0631323 L85.9764272,58.4510919 L85.8734779,57.8736484 L85.762307,57.3304545 C85.1088212,54.3487408 84.053639,53 82.5,53 C81.1684131,53 79.8625085,53.6086383 78.2312288,55.0858093 L77.8765607,55.4157345 L77.6952516,55.5908451 L77.6952516,55.5908451 L77.3242035,55.9617175 L76.9412759,56.3605983 L76.3429313,57.0126785 L76.3429313,57.0126785 L75.9269466,57.4840666 L75.4963957,57.9854522 L75.0505111,58.5174035 L74.588525,59.0804888 L74.1096699,59.6752764 L73.6131782,60.3023346 L72.8336927,61.3046722 L70.9627407,63.7515317 L70.3824066,64.4985248 L69.8182814,65.211339 L69.2692504,65.8903328 L69.0000469,66.2172589 L69.0000469,66.2172589 L68.4715673,66.8461936 C68.2975206,67.0503311 68.1255252,67.2489812 67.9553952,67.4422036 L67.4504161,68.0056471 C64.2853065,71.4717519 61.7265756,73 58.5,73 C55.6656831,73 54.322992,70.7803773 54.4350579,67.8155916 C54.4885455,66.4005384 54.8442139,64.6200215 55.4967779,62.4371696 L55.706,61.757 L53.8122983,62.1345093 L53.8122983,62.1345093 L52.0189073,62.5041476 C51.4302059,62.6276721 50.8506067,62.7515019 50.2801291,62.8756178 L48.5960809,63.2488046 L46.96688,63.623593 C46.4329672,63.7487765 45.9082152,63.8742078 45.3926435,63.9998677 L45.4902545,78.8331568 L45.4991998,81.9433521 L45.5,83 C45.5,95.0242819 39.1903259,101.5 31,101.5 C24.6927245,101.5 18.2989758,96.1694087 16.5269578,88.0675941 C16.3327753,87.1797757 16.1913812,86.2612884 16.1042371,85.3136313 L16.0584723,84.7415487 L21.0468974,84.4015266 C21.1087865,85.3094939 21.2313466,86.1756258 21.4114898,86.9992558 C22.6889266,92.8398039 27.079129,96.5 31,96.5 C36.3994176,96.5 40.5,92.2915076 40.5,83 L40.4842163,77.4742703 L40.4029772,65.3026015 L39.3468481,65.6044062 L38.3255192,65.9067594 L37.3390481,66.2096043 L36.3874923,66.5128841 C35.9204529,66.6646232 35.4665283,66.8165041 35.025751,66.9684949 L34.1617357,67.2726134 C33.8795802,67.3740287 33.6032775,67.4754834 33.3328372,67.576968 L32.5391132,67.8815019 C32.4097602,67.9322693 32.2818753,67.9830419 32.1554596,68.0338183 L31.4146052,68.3385147 L31.0574189,68.4908804 L31.0574189,68.4908804 L30.3695637,68.7956114 L30.0389094,68.9479625 L30.0389094,68.9479625 L29.404183,69.2526003 C27.5532117,70.1663427 26.1813709,71.0782882 25.2956558,71.9815361 L25.1736839,72.109167 C24.5025073,72.8303115 23.9147269,73.5833864 23.4087331,74.3691816 L23.1625444,74.7648095 L18.8768413,72.1893971 C19.6166739,70.9582534 20.4964526,69.7956063 21.5136219,68.7027104 C23.4273981,66.6464566 26.7512451,64.7320939 31.5228803,62.922559 L32.4345374,62.5844907 L33.3801823,62.2488249 C33.8615109,62.0815836 34.3556056,61.915223 34.8624976,61.7497124 L35.8933536,61.4198156 L36.4215961,61.2557003 L36.4215961,61.2557003 L37.5037447,60.9291021 C37.8701684,60.8205942 38.2423029,60.7124415 38.6201572,60.604635 L39.7708891,60.2822448 C39.9655407,60.2286831 40.1616246,60.1752057 40.359142,60.1218115 L40.261,49.221 L40.1131674,49.3554951 C37.627443,51.558384 34.3796594,52.920597 30.8153115,52.9966395 L30.5,53 C22.4918711,53 16,46.5081289 16,38.5 C16,30.5972412 22.3221564,24.1711012 30.1846885,24.0033605 L30.5,24 L30.5,29 C25.2532949,29 21,33.2532949 21,38.5 C21,43.7467051 25.2532949,48 30.5,48 C35.6562447,48 39.8530394,43.8921061 39.9962236,38.7704787 L40,38.5 L40,23.5 L44.9998585,23.4734058 Z M37,76 L37,81 L10.5,81 L10.5,76 L37,76 Z M106.5,76 L106.5,81 L48.5,81 L48.5,76 L106.5,76 Z" id="Shape" fill="#000000" fill-rule="nonzero"></path>
    </g>
</svg>