<?xml version="1.0" encoding="UTF-8"?>
<svg  viewBox="0 0 117 116" version="1.1" xmlns="http://www.w3.org/2000/svg" xmlns:xlink="http://www.w3.org/1999/xlink">
    <title>sliders</title>
    <g id="sliders" stroke="none" stroke-width="1" fill="none" fill-rule="evenodd" transform="translate(0.000000, 0.000000)">
        <path d="M58.5,72 C63.3483358,72 67.4291776,75.2860326 68.6368619,79.7524344 L68.7,80 L106.5,80 L106.5,85 L68.7,85 L68.6368619,85.2475656 C67.4528576,89.6263909 63.5072642,92.8706822 58.7842951,92.9962258 L58.5,93 L58.5,88 C61.4634791,88 63.8795391,85.65622 63.9956328,82.7212071 L64,82.5 L63.9956328,82.2787929 C63.8795391,79.34378 61.4634791,77 58.5,77 C55.5365209,77 53.1204609,79.34378 53.0043672,82.2787929 L53,82.5 L53,85 L10.5,85 L10.5,80 L48.299,80 L48.3631381,79.7524344 C49.5471424,75.3736091 53.4927358,72.1293178 58.2157049,72.0037742 L58.5,72 Z M82.5,48 C87.3483358,48 91.4291776,51.2860326 92.6368619,55.7524344 L92.7,56 L106.5,56 L106.5,61 L92.7,61 L92.6368619,61.2475656 C91.4528576,65.6263909 87.5072642,68.8706822 82.7842951,68.9962258 L82.5,69 L82.5,64 C85.4634791,64 87.8795391,61.65622 87.9956328,58.7212071 L88,58.5 L87.9956328,58.2787929 C87.8795391,55.34378 85.4634791,53 82.5,53 C79.5365209,53 77.1204609,55.34378 77.0043672,58.2787929 L77,58.5 L77,61 L10.5,61 L10.5,56 L72.299,56 L72.3631381,55.7524344 C73.5471424,51.3736091 77.4927358,48.1293178 82.2157049,48.0037742 L82.5,48 Z M34.5,24 C39.3483358,24 43.4291776,27.2860326 44.6368619,31.7524344 L44.7,32 L106.5,32 L106.5,37 L44.7,37 L44.6368619,37.2475656 C43.4528576,41.6263909 39.5072642,44.8706822 34.7842951,44.9962258 L34.5,45 L34.5,40 C37.4634791,40 39.8795391,37.65622 39.9956328,34.7212071 L40,34.5 L39.9956328,34.2787929 C39.8795391,31.34378 37.4634791,29 34.5,29 C31.5365209,29 29.1204609,31.34378 29.0043672,34.2787929 L29,34.5 L29,37 L10.5,37 L10.5,32 L24.299,32 L24.3631381,31.7524344 C25.5471424,27.3736091 29.4927358,24.1293178 34.2157049,24.0037742 L34.5,24 Z" id="Shape" fill="#000000" fill-rule="nonzero"></path>
    </g>
</svg>