<?xml version="1.0" encoding="UTF-8"?>
<svg  viewBox="0 0 116 116" version="1.1" xmlns="http://www.w3.org/2000/svg" xmlns:xlink="http://www.w3.org/1999/xlink">
    <title>slideview-horiz</title>
    <g id="slideview-horiz" stroke="none" stroke-width="1" fill="none" fill-rule="evenodd">
        <path d="M82.5,16 C88.2039245,16 92.8455734,20.548142 92.9962258,26.2157049 L93,26.5 L93,90.5 C93,96.2039245 88.451858,100.845573 82.7842951,100.996226 L82.5,101 L18.5,101 C12.7960755,101 8.15442656,96.451858 8.00377424,90.7842951 L8,90.5 L8,18.5 L13,18.5 L13,90.5 C13,93.4634791 15.34378,95.8795391 18.2787929,95.9956328 L18.5,96 L82.5,96 C85.4634791,96 87.8795391,93.65622 87.9956328,90.7212071 L88,90.5 L88,26.5 C88,23.5365209 85.65622,21.1204609 82.7212071,21.0043672 L82.5,21 L17.7727273,21 L17.7727273,16 L82.5,16 Z M109,86.5 L109,94.5 L104,94.5 L104,86.5 L109,86.5 Z M109,70.5 L109,78.5 L104,78.5 L104,70.5 L109,70.5 Z M109,54.5 L109,62.5 L104,62.5 L104,54.5 L109,54.5 Z M109,38.5 L109,46.5 L104,46.5 L104,38.5 L109,38.5 Z M109,22.5 L109,30.5 L104,30.5 L104,22.5 L109,22.5 Z" id="Shape" fill="#000000" fill-rule="nonzero"></path>
    </g>
</svg>