<?xml version="1.0" encoding="UTF-8"?>
<svg   viewBox="0 0 116 116" version="1.1" xmlns="http://www.w3.org/2000/svg" xmlns:xlink="http://www.w3.org/1999/xlink">
    <title>slideview</title>
    <g id="slideview" stroke="none" stroke-width="1" fill="none" fill-rule="evenodd">
        <path d="M22.5,96 L22.5,101 L14.5,101 L14.5,96 L22.5,96 Z M38.5,96 L38.5,101 L30.5,101 L30.5,96 L38.5,96 Z M54.5,96 L54.5,101 L46.5,101 L46.5,96 L54.5,96 Z M70.5,96 L70.5,101 L62.5,101 L62.5,96 L70.5,96 Z M86.5,96 L86.5,101 L78.5,101 L78.5,96 L86.5,96 Z M102.5,96 L102.5,101 L94.5,101 L94.5,96 L102.5,96 Z M98.5,16 C104.203924,16 108.845573,20.548142 108.996226,26.2157049 L109,26.5 L109,74.5 C109,80.2039245 104.451858,84.8455734 98.7842951,84.9962258 L98.5,85 L18.5,85 C12.7960755,85 8.15442656,80.451858 8.00377424,74.7842951 L8,74.5 L8,18.5 L13,18.5 L13,74.5 C13,77.4634791 15.34378,79.8795391 18.2787929,79.9956328 L18.5,80 L98.5,80 C101.463479,80 103.879539,77.65622 103.995633,74.7212071 L104,74.5 L104,26.5 C104,23.5365209 101.65622,21.1204609 98.7212071,21.0043672 L98.5,21 L18.5,21 L18.5,16 L98.5,16 Z" id="Shape" fill="#000000" fill-rule="nonzero"></path>
    </g>
</svg>