<?xml version="1.0" encoding="UTF-8"?>
<svg  viewBox="0 0 116 116" version="1.1" xmlns="http://www.w3.org/2000/svg" xmlns:xlink="http://www.w3.org/1999/xlink">
    <title>snowflake</title>
    <g id="snowflake" stroke="none" stroke-width="1" fill="none" fill-rule="evenodd">
        <path d="M61,10.5 L61,20.464 L70.732233,10.732233 L74.267767,14.267767 L61,27.534 L60.9997838,57.056 L86.5664766,71.8174365 L104.690121,66.9608298 L105.984216,71.7904589 L92.6892762,75.3524365 L101.319219,80.3349365 L98.8192194,84.6650635 L90.1884102,79.6820635 L93.7519831,92.977308 L88.922354,94.2714033 L84.0656106,76.1470635 L60.9997838,62.83 L61,89.465 L74.267767,102.732233 L70.732233,106.267767 L61,96.535 L61,106.5 L56,106.5 L56,96.534 L46.267767,106.267767 L42.732233,102.732233 L56,89.464 L55.9997838,59.943 L30.4335234,45.1825635 L12.309879,50.0391702 L11.0157838,45.2095411 L24.3107238,41.6475635 L15.6807806,36.6650635 L18.1807806,32.3349365 L26.8098577,37.3169365 L23.2480169,24.022692 L28.077646,22.7285967 L32.9326573,40.8519365 L55.9997838,54.169 L56,27.535 L42.732233,14.267767 L46.267767,10.732233 L56,20.465 L56,10.5 L61,10.5 Z M49.6764428,60.7075318 L52.1764428,65.0376588 L32.9335234,76.1475635 L28.077646,94.2714033 L23.2480169,92.977308 L26.8107238,79.6825635 L18.1807806,84.6650635 L15.6807806,80.3349365 L24.3115898,75.3519365 L11.0157838,71.7904589 L12.309879,66.9608298 L30.4343894,71.8169365 L49.6764428,60.7075318 Z M88.922354,22.7285967 L93.7519831,24.022692 L90.1892762,37.3174365 L98.8192194,32.3349365 L101.319219,36.6650635 L92.6901423,41.6470635 L105.984216,45.2095411 L104.690121,50.0391702 L86.5673427,45.1820635 L68.2900635,55.7344555 L65.7900635,51.4043285 L84.0664766,40.8524365 L88.922354,22.7285967 Z" id="Shape" fill="#000000" fill-rule="nonzero"></path>
    </g>
</svg>