<?xml version="1.0" encoding="UTF-8"?>
<svg   viewBox="0 0 116 116" version="1.1" xmlns="http://www.w3.org/2000/svg" xmlns:xlink="http://www.w3.org/1999/xlink">
    <title>sort-off</title>
    <g id="sort-off" stroke="none" stroke-width="1" fill="none" fill-rule="evenodd">
        <path d="M12.2655339,8.73 L108.265534,104.73 L104.73,108.265534 L8.73,12.2655339 L12.2655339,8.73 Z M50.497767,55.997767 L50.497767,60.997767 L22.497767,60.997767 C21.6693398,60.997767 20.997767,61.6693398 20.997767,62.497767 C20.997767,63.2774631 21.592655,63.9182156 22.3533069,63.9909004 L22.497767,63.997767 L46.497767,63.997767 C50.0876178,63.997767 52.997767,66.9079161 52.997767,70.497767 C52.997767,74.0095776 50.2127707,76.8709175 46.7309011,76.9936639 L46.497767,76.997767 L22.497767,76.997767 C21.7180708,76.997767 21.0773183,77.592655 21.0046335,78.3533069 L20.997767,78.497767 L20.997767,90.497767 L15.997767,90.497767 L15.997767,78.497767 C15.997767,74.9859563 18.7827632,72.1246164 22.2646328,72.00187 L22.497767,71.997767 L46.497767,71.997767 C47.3261941,71.997767 47.997767,71.3261941 47.997767,70.497767 C47.997767,69.7180708 47.4028789,69.0773183 46.642227,69.0046335 L46.497767,68.997767 L22.497767,68.997767 C18.9079161,68.997767 15.997767,66.0876178 15.997767,62.497767 C15.997767,58.9859563 18.7827632,56.1246164 22.2646328,56.00187 L22.497767,55.997767 L50.497767,55.997767 Z M62.497767,47.997767 C66.0095776,47.997767 68.8709175,50.7827632 68.9936639,54.2646328 L68.997767,54.497767 L63.997767,54.497767 C63.997767,53.7180708 63.4028789,53.0773183 62.642227,53.0046335 L62.497767,52.997767 L58.497767,52.997767 L58.497767,47.997767 L62.497767,47.997767 Z M34.497767,39.997767 L34.497767,44.997767 L22.497767,44.997767 C21.6693398,44.997767 20.997767,45.6693398 20.997767,46.497767 C20.997767,47.2774631 21.592655,47.9182156 22.3533069,47.9909004 L22.497767,47.997767 L42.497767,47.997767 L42.497767,52.997767 L22.497767,52.997767 C18.9079161,52.997767 15.997767,50.0876178 15.997767,46.497767 C15.997767,42.9859563 18.7827632,40.1246164 22.2646328,40.00187 L22.497767,39.997767 L34.497767,39.997767 Z M78.497767,31.997767 C82.0876178,31.997767 84.997767,34.9079161 84.997767,38.497767 C84.997767,42.0095776 82.2127707,44.8709175 78.7309011,44.9936639 L78.497767,44.997767 L50.497767,44.997767 L50.497767,39.997767 L78.497767,39.997767 C79.3261941,39.997767 79.997767,39.3261941 79.997767,38.497767 C79.997767,37.7180708 79.4028789,37.0773183 78.642227,37.0046335 L78.497767,36.997767 L42.997767,36.997767 L42.997767,31.997767 L78.497767,31.997767 Z M20.997767,30.497767 C20.997767,31.2774631 21.592655,31.9182156 22.3533069,31.9909004 L22.497767,31.997767 L26.497767,31.997767 L26.497767,36.997767 L22.497767,36.997767 C18.9859563,36.997767 16.1246164,34.2127707 16.00187,30.7309011 L15.997767,30.497767 L20.997767,30.497767 Z M98.497767,23.997767 L98.497767,28.997767 L34.497767,28.997767 L34.497767,23.997767 L98.497767,23.997767 Z" id="Shape" fill="#000000" fill-rule="nonzero"></path>
    </g>
</svg>