<?xml version="1.0" encoding="UTF-8"?>
<svg  viewBox="0 0 116 116" version="1.1" xmlns="http://www.w3.org/2000/svg" xmlns:xlink="http://www.w3.org/1999/xlink">
    <title>sort-off</title>
    <g id="sort-off" stroke="none" stroke-width="1" fill="none" fill-rule="evenodd">
        <path d="M12.267767,8.73223305 L108.267767,104.732233 L104.732233,108.267767 L8.73223305,12.267767 L12.267767,8.73223305 Z M42.5,48 L42.5,53 L18.5,53 C15.4624339,53 13,55.4624339 13,58.5 C13,61.4634791 15.34378,63.8795391 18.2787929,63.9956328 L18.5,64 L34.5,64 C40.2989899,64 45,68.7010101 45,74.5 C45,80.2039245 40.451858,84.8455734 34.7842951,84.9962258 L34.5,85 L18.5,85 C15.5365209,85 13.1204609,87.34378 13.0043672,90.2787929 L13,90.5 L13,98.5 L8,98.5 L8,90.5 C8,84.7960755 12.548142,80.1544266 18.2157049,80.0037742 L18.5,80 L34.5,80 C37.5375661,80 40,77.5375661 40,74.5 C40,71.5365209 37.65622,69.1204609 34.7212071,69.0043672 L34.5,69 L18.5,69 C12.7010101,69 8,64.2989899 8,58.5 C8,52.7960755 12.548142,48.1544266 18.2157049,48.0037742 L18.5,48 L42.5,48 Z M66.5,32 C72.2989899,32 77,36.7010101 77,42.5 C77,48.2039245 72.451858,52.8455734 66.7842951,52.9962258 L66.5,53 L58.5,53 L58.5,48 L66.5,48 C69.5375661,48 72,45.5375661 72,42.5 C72,39.5365209 69.65622,37.1204609 66.7212071,37.0043672 L66.5,37 L42.5,37 L42.5,32 L66.5,32 Z M13,26.5 C13,29.4634791 15.34378,31.8795391 18.2787929,31.9956328 L18.5,32 L26.5,32 L26.5,37 L18.5,37 C12.7960755,37 8.15442656,32.451858 8.00377424,26.7842951 L8,26.5 L13,26.5 Z M106.5,16 L106.5,21 L26.5,21 L26.5,16 L106.5,16 Z" id="Shape" fill="#000000" fill-rule="nonzero"></path>
    </g>
</svg>