<?xml version="1.0" encoding="UTF-8"?>
<svg   viewBox="0 0 128 128" version="1.1" xmlns="http://www.w3.org/2000/svg" xmlns:xlink="http://www.w3.org/1999/xlink">
    <title>sort-off</title>
    <g id="sort-off" stroke="none" stroke-width="1" fill="none" fill-rule="evenodd">
        <path d="M18.267767,14.732233 L114.267767,110.732233 L110.732233,114.267767 L14.732233,18.267767 L18.267767,14.732233 Z M56.5,62 L56.5,67 L28.5,67 C27.6715729,67 27,67.6715729 27,68.5 C27,69.2796961 27.5948881,69.9204487 28.35554,69.9931334 L28.5,70 L52.5,70 C56.0898509,70 59,72.9101491 59,76.5 C59,80.0118106 56.2150038,82.8731506 52.7331341,82.995897 L52.5,83 L28.5,83 C27.7203039,83 27.0795513,83.5948881 27.0068666,84.35554 L27,84.5 L27,96.5 L22,96.5 L22,84.5 C22,80.9881894 24.7849962,78.1268494 28.2668659,78.004103 L28.5,78 L52.5,78 C53.3284271,78 54,77.3284271 54,76.5 C54,75.7203039 53.4051119,75.0795513 52.64446,75.0068666 L52.5,75 L28.5,75 C24.9101491,75 22,72.0898509 22,68.5 C22,64.9881894 24.7849962,62.1268494 28.2668659,62.004103 L28.5,62 L56.5,62 Z M68.5,54 C72.0118106,54 74.8731506,56.7849962 74.995897,60.2668659 L75,60.5 L70,60.5 C70,59.7203039 69.4051119,59.0795513 68.64446,59.0068666 L68.5,59 L64.5,59 L64.5,54 L68.5,54 Z M40.5,46 L40.5,51 L28.5,51 C27.6715729,51 27,51.6715729 27,52.5 C27,53.2796961 27.5948881,53.9204487 28.35554,53.9931334 L28.5,54 L48.5,54 L48.5,59 L28.5,59 C24.9101491,59 22,56.0898509 22,52.5 C22,48.9881894 24.7849962,46.1268494 28.2668659,46.004103 L28.5,46 L40.5,46 Z M84.5,38 C88.0898509,38 91,40.9101491 91,44.5 C91,48.0118106 88.2150038,50.8731506 84.7331341,50.995897 L84.5,51 L56.5,51 L56.5,46 L84.5,46 C85.3284271,46 86,45.3284271 86,44.5 C86,43.7203039 85.4051119,43.0795513 84.64446,43.0068666 L84.5,43 L49,43 L49,38 L84.5,38 Z M27,36.5 C27,37.2796961 27.5948881,37.9204487 28.35554,37.9931334 L28.5,38 L32.5,38 L32.5,43 L28.5,43 C24.9881894,43 22.1268494,40.2150038 22.004103,36.7331341 L22,36.5 L27,36.5 Z M104.5,30 L104.5,35 L40.5,35 L40.5,30 L104.5,30 Z" id="Shape" fill="#000000" fill-rule="nonzero"></path>
    </g>
</svg>