<?xml version="1.0" encoding="UTF-8"?>
<svg  viewBox="0 0 116 116" version="1.1" xmlns="http://www.w3.org/2000/svg" xmlns:xlink="http://www.w3.org/1999/xlink">
    <title>sparkles</title>
    <g id="sparkles" stroke="none" stroke-width="1" fill="none" fill-rule="evenodd">
        <path d="M76.9998838,74.4758927 L77.0025708,74.7666244 C77.142269,82.0040879 82.9731109,87.8313889 90.1855579,87.9964062 L90.5,88 L90.5241073,92.9998838 L90.2333756,93.0025708 C82.9959121,93.142269 77.1686111,98.9731109 77.0035938,106.185558 L77,106.5 L72.0001162,106.524107 L71.9970798,106.209237 L72.002,106.209 L72.0029815,106.164639 C72.1200904,99.5831005 75.6774536,93.8308897 80.9688131,90.6447357 L81.211,90.501 L80.9965809,90.3742937 C78.3968394,88.8139336 76.2108114,86.6320246 74.6447357,84.0311869 L74.501,83.788 L74.3742937,84.0034191 C72.8139336,86.6031606 70.6320246,88.7891886 68.0311869,90.3552643 L67.789,90.498 L67.948082,90.5908517 C69.1715514,91.3187236 70.3133977,92.1897636 71.3498506,93.1908718 L71.6576009,93.4950932 L68.1016037,97.0100446 C65.6670327,94.5470441 62.3937835,93.1019245 58.8776328,93.0051897 L58.5,93 L58.4758927,88.0001162 L58.7666244,87.9974292 C66.0040879,87.857731 71.8313889,82.0268891 71.9964062,74.8144421 L72,74.5 L76.9998838,74.4758927 Z M33,40.5 C33,48.9547295 39.7692963,55.8284051 48.1836988,55.9968369 L48.5,56 L48.5,61 C40.0452705,61 33.1715949,67.7692963 33.0031631,76.1836988 L33,76.5 L33,78.5 L28.000089,78.5210961 L27.997182,78.1766067 L28,76.5 C28,68.8953574 32.1407551,62.2578399 38.2906041,58.7191088 L38.681,58.5 L38.6219701,58.4674896 C35.2196958,56.5930267 32.4069733,53.7803042 30.5325104,50.3780299 L30.5,50.318 L30.4674896,50.3780299 C28.4888899,53.9693194 25.4648836,56.9037318 21.8055851,58.7711526 L21.552,58.897 L21.7175744,58.9909252 C23.2679886,59.8839848 24.7144833,60.964287 26.0252385,62.2144336 L26.3500809,62.5304986 L22.8277669,66.0792032 C19.6681232,62.9430567 15.4485212,61.1130969 10.9249521,61.0050701 L10.5,61 L10.5,56 L12.5,56 C20.9547295,56 27.8284051,49.2307037 27.9968369,40.8163012 L28,40.5 L33,40.5 Z M85,10.5 L85,14.5 C85,24.0551538 92.6579601,31.8216951 102.17123,31.9969736 L102.5,32 L106.5,32 L106.5,37 L102.5,37 C92.9448462,37 85.1783049,44.6579601 85.0030264,54.1712297 L85,54.5 L85,58 L80,58 L80,54.5 C80,45.9441133 84.7755491,38.5036159 91.8065373,34.6986178 L92.182,34.5 L92.1599546,34.4885909 C88.1743579,32.4226599 84.8851766,29.1996739 82.7371661,25.2643885 L82.5,24.817 L82.4885909,24.8400454 C80.4226599,28.8256421 77.1996739,32.1148234 73.2643885,34.2628339 L72.817,34.5 L73.1759141,34.6888074 C74.9835346,35.664409 76.6587219,36.8894745 78.1532405,38.3374547 L78.4707116,38.6511384 L74.9217396,42.173183 C71.7545279,38.9817567 67.497249,37.1153561 62.9291465,37.0051715 L62.5,37 L58.5,37 L58.5,32 L62.5,32 C72.0551538,32 79.8216951,24.3420399 79.9969736,14.8287703 L80,14.5 L80,10.5 L85,10.5 Z" id="Shape" fill="#000000" fill-rule="nonzero"></path>
    </g>
</svg>