<?xml version="1.0" encoding="UTF-8"?>
<svg  viewBox="0 0 116 116" version="1.1" xmlns="http://www.w3.org/2000/svg" xmlns:xlink="http://www.w3.org/1999/xlink">
    <title>speaker</title>
    <g id="speaker" stroke="none" stroke-width="1" fill="none" fill-rule="evenodd">
        <path d="M90.5,8 L90.5,13 L26.5,13 C23.5365209,13 21.1204609,15.34378 21.0043672,18.2787929 L21,18.5 L21,98.5 C21,101.463479 23.34378,103.879539 26.2787929,103.995633 L26.5,104 L90.5,104 C93.4634791,104 95.8795391,101.65622 95.9956328,98.7212071 L96,98.5 L96,18.5 L101,18.5 L101,98.5 C101,104.203924 96.451858,108.845573 90.7842951,108.996226 L90.5,109 L26.5,109 C20.7960755,109 16.1544266,104.451858 16.0037742,98.7842951 L16,98.5 L16,18.5 C16,12.7960755 20.548142,8.15442656 26.2157049,8.00377424 L26.5,8 L90.5,8 Z M40.859423,54.7244392 L44.1889795,58.4545939 C39.6446049,62.5109275 37,68.2892324 37,74.5 C37,80.6869507 39.6251682,86.442718 44.129213,90.4919043 L44.4464878,90.7716207 L41.1764354,94.5540482 C35.3913896,89.5526561 32,82.2985771 32,74.5 C32,66.8495076 35.2631617,59.7196927 40.859423,54.7244392 Z M76.0354819,54.6311276 C81.6944229,59.6289395 85,66.8002041 85,74.5 C85,81.8854468 81.9594671,88.7879111 76.7072444,93.7548873 L76.3690005,94.0692858 L72.9965761,90.3778424 C77.4299577,86.327599 80,80.6232735 80,74.5 C80,68.3913195 77.4413578,62.7016548 73.0359892,58.6582101 L72.7256505,58.3787958 L76.0354819,54.6311276 Z M58.5,64 C64.2989899,64 69,68.7010101 69,74.5 C69,80.2039245 64.451858,84.8455734 58.7842951,84.9962258 L58.5,85 L58.5,80 C61.5375661,80 64,77.5375661 64,74.5 C64,71.4624339 61.5375661,69 58.5,69 C55.4624339,69 53,71.4624339 53,74.5 C53,76.4420289 54.0133944,78.2039637 55.6326579,79.1948544 L55.8381919,79.3146572 L53.4132534,83.687262 C50.1010396,81.8503902 48,78.3584786 48,74.5 C48,68.7010101 52.7010101,64 58.5,64 Z M58.5,16 L58.5,21 C53.2532949,21 49,25.2532949 49,30.5 C49,35.7467051 53.2532949,40 58.5,40 C63.6562447,40 67.8530394,35.8921061 67.9962236,30.7704787 L68,30.5 C68,28.0864019 67.0989814,25.8208568 65.5053156,24.08302 L65.2837238,23.8493488 L68.8538306,20.3487292 C71.4928064,23.0400887 73,26.654278 73,30.5 C73,38.4027588 66.6778436,44.8288988 58.8153115,44.9966395 L58.5,45 C50.4918711,45 44,38.5081289 44,30.5 C44,22.5972412 50.3221564,16.1711012 58.1846885,16.0033605 L58.5,16 Z" id="Shape" fill="#000000" fill-rule="nonzero"></path>
    </g>
</svg>