<?xml version="1.0" encoding="UTF-8"?>
<svg   viewBox="0 0 116 116" version="1.1" xmlns="http://www.w3.org/2000/svg" xmlns:xlink="http://www.w3.org/1999/xlink">
    <title>speaker</title>
    <g id="speaker" stroke="none" stroke-width="1" fill="none" fill-rule="evenodd">
        <path d="M92.5,7 L92.5,12 L28.5,12 C25.5365209,12 23.1204609,14.34378 23.0043672,17.2787929 L23,17.5 L23,97.5 C23,100.463479 25.34378,102.879539 28.2787929,102.995633 L28.5,103 L92.5,103 C95.4634791,103 97.8795391,100.65622 97.9956328,97.7212071 L98,97.5 L98,17.5 L103,17.5 L103,97.5 C103,103.203924 98.451858,107.845573 92.7842951,107.996226 L92.5,108 L28.5,108 C22.7960755,108 18.1544266,103.451858 18.0037742,97.7842951 L18,97.5 L18,17.5 C18,11.7960755 22.548142,7.15442656 28.2157049,7.00377424 L28.5,7 L92.5,7 Z M53.8233569,93.9438598 C55.7809412,94.5827116 57.8302179,94.9377862 59.9270044,94.9925289 L60.5,95 L60.5,100 C57.8768809,100 55.3027342,99.6180469 52.8387618,98.8750138 L52.2721365,98.6971444 L53.8233569,93.9438598 Z M73.1392464,90.8946035 L76.0820702,94.9368539 C73.9999076,96.452702 71.7074544,97.6587946 69.2728965,98.5126553 L68.7085839,98.7034281 L67.1610274,93.9489493 C69.3042345,93.2513472 71.3199294,92.2190958 73.1392464,90.8946035 Z M43.0955983,86.1257768 C44.3034006,87.787503 45.7435641,89.2699727 47.3681197,90.5250935 L47.8157159,90.8617263 L44.8624575,94.8963594 C42.7948184,93.3828952 40.9551572,91.5771601 39.4039104,89.539739 L39.0510777,89.0654797 L43.0955983,86.1257768 Z M60.5,55 C62.4660345,55 64.3935921,55.3076135 66.2289795,55.9048667 C68.1750921,56.5381511 69.9975232,57.4908444 71.6267272,58.7189367 C73.1115116,59.8381657 74.4214871,61.1754806 75.5096785,62.6831952 C76.6153998,64.2151981 77.4819209,65.9088092 78.0747449,67.7087436 C78.1463979,67.9262968 78.2140128,68.1452806 78.2775457,68.3655996 C78.7551425,70.0218059 79,71.7458852 79,73.5 C79,75.4659647 78.6924084,77.3934555 78.0951966,79.2287849 C78.0268329,79.4388778 77.9547164,79.6476248 77.8788896,79.8549394 C77.2857747,81.4765466 76.4679596,83.0041142 75.452418,84.3957029 C74.4216982,85.8080901 73.1958325,87.0686024 71.8141657,88.1378961 L71.395031,88.4529083 L71.1130226,88.6546785 C69.611113,89.7081713 67.9595373,90.5342016 66.2089184,91.1016486 C64.3795116,91.694634 62.4588413,92 60.5,92 C58.5541784,92 56.6459777,91.6986811 54.8274144,91.1133839 C53.2400342,90.6024919 51.7336396,89.8791392 50.3458861,88.9664348 L49.8877474,88.6552186 L49.5454742,88.4093133 C48.0237786,87.2896312 46.6801308,85.9427456 45.5641306,84.4183433 C44.5190927,82.990872 43.6824698,81.4198761 43.0833635,79.750765 C43.0125833,79.5535712 42.9451522,79.3551038 42.8811061,79.1554366 C42.2994192,77.3419968 42,75.4396799 42,73.5 C42,71.763083 42.2400788,70.0555675 42.7085219,68.4141649 C42.7668733,68.2097042 42.8287376,68.0063825 42.89408,67.8042761 C43.4878642,65.9676801 44.3660856,64.2402007 45.4924697,62.6802195 C46.4668611,61.3307401 47.6189706,60.1178143 48.9151142,59.0756662 L49.3524504,58.7346556 L49.6253498,58.532241 C51.1937179,57.3910621 52.9331031,56.5014626 54.7837088,55.9007429 C56.6153141,55.3061909 58.5385154,55 60.5,55 Z M80.9464232,80.1687829 L85.7003094,81.7181591 C84.899265,84.1759701 83.7421617,86.4965643 82.2716219,88.6115783 L81.926722,89.0959779 L77.8863775,86.150538 C79.2132008,84.3304964 80.2474018,82.3135611 80.9464232,80.1687829 Z M60.5,60 C59.0643243,60 57.6619695,60.2232674 56.327449,60.6564622 C55.1293487,61.0453741 53.9944215,61.6009544 52.953156,62.3045148 L52.5671314,62.5752499 L52.3677579,62.723129 C51.2894708,63.5383199 50.3374263,64.5114038 49.5461975,65.6072129 C48.7242299,66.7455936 48.08408,68.0047817 47.6516125,69.3424192 C47.6040521,69.4895254 47.5590234,69.6375156 47.5165508,69.7863377 C47.1751535,70.9825775 47,72.2283244 47,73.5 C47,74.9197541 47.2183402,76.3069475 47.6421693,77.6282571 C47.6887871,77.7735907 47.7378698,77.9180539 47.7893922,78.0615954 C48.2258292,79.2775095 48.8358217,80.4229428 49.5985457,81.464787 C50.3235505,82.4551085 51.1803675,83.3432757 52.1429184,84.1031613 L52.5087804,84.3820541 L52.758794,84.5616759 C53.8621068,85.3354953 55.0747314,85.9403996 56.3592608,86.3538202 C57.6842963,86.7802775 59.0757612,87 60.5,87 C61.9337457,87 63.3342631,86.7773328 64.6671846,86.3452785 C65.9421599,85.9320069 67.1459115,85.3299544 68.2417684,84.5612815 L68.4477569,84.4139015 L68.8212453,84.1313546 C69.8037093,83.3610922 70.6769868,82.4575454 71.4135433,81.4482478 C72.154742,80.432589 72.7510404,79.3187846 73.1831295,78.1374304 C73.238327,77.9865176 73.2908211,77.834569 73.3405823,77.6816448 C73.7757134,76.3444158 74,74.9389471 74,73.5 C74,72.2157631 73.8213679,70.9579869 73.473308,69.7509877 C73.4270642,69.5906236 73.3778499,69.4312339 73.325696,69.2728839 C72.8939156,67.9619107 72.2622713,66.7273651 71.4553717,65.6093867 C70.660099,64.5075178 69.7022682,63.5296968 68.6170284,62.7116442 C67.427893,61.8152751 66.0992817,61.1207308 64.6817865,60.6594638 C63.3445153,60.2243025 61.938998,60 60.5,60 Z M60.5,63 C66.2989899,63 71,67.7010101 71,73.5 C71,79.2989899 66.2989899,84 60.5,84 C54.7010101,84 50,79.2989899 50,73.5 C50,67.7010101 54.7010101,63 60.5,63 Z M39,73.5 C39,75.6019115 39.3009344,77.6604656 39.8863319,79.6316862 L40.0530262,80.1670935 L35.2990109,81.7160733 C34.5028889,79.2726739 34.0652137,76.7148541 34.0067505,74.1035343 L34,73.5 L39,73.5 Z M60.5,68 C57.4624339,68 55,70.4624339 55,73.5 C55,76.5375661 57.4624339,79 60.5,79 C63.5375661,79 66,76.5375661 66,73.5 C66,70.4624339 63.5375661,68 60.5,68 Z M85.7121477,65.3182539 C86.5014825,67.7521534 86.9353539,70.2991358 86.9933083,72.8990961 L87,73.5 L82,73.5 C82,71.4072508 81.7016847,69.3574649 81.1212845,67.3940215 L80.9560118,66.8607102 L85.7121477,65.3182539 Z M39.043859,57.9444568 L43.0897376,60.8822904 C41.8719699,62.5593563 40.9023287,64.4026525 40.2138265,66.3584043 L40.0330484,66.8945389 L35.2743457,65.3600199 C36.1320982,62.7000403 37.4064788,60.1993978 39.043859,57.9444568 Z M76.1051102,52.0799385 C78.2063037,53.6130924 80.0728748,55.4476745 81.6416582,57.5202876 L81.9983702,58.0027794 L77.9445471,60.9296409 C76.7238696,59.2389525 75.263227,57.7323455 73.6127511,56.4601445 L73.1579524,56.1190301 L76.1051102,52.0799385 Z M52.4050259,48.2598774 L53.9309919,53.0213297 C51.9202267,53.6657464 50.0203834,54.6042753 48.2880306,55.8021984 L47.8584645,56.1070632 L44.9151104,52.065199 C47.1904029,50.4082923 49.7167002,49.1214409 52.4050259,48.2598774 Z M60.5,47 C63.1276069,47 65.70606,47.3832616 68.1738345,48.128788 L68.7413281,48.3072537 L67.1875489,53.0597026 C65.2269896,52.4187117 63.1743243,52.0624262 61.0739722,52.0074967 L60.5,52 L60.5,47 Z M60.5,15 C68.5081289,15 75,21.4918711 75,29.5 C75,37.5081289 68.5081289,44 60.5,44 C52.4918711,44 46,37.5081289 46,29.5 C46,21.4918711 52.4918711,15 60.5,15 Z M60.5,20 C55.2532949,20 51,24.2532949 51,29.5 C51,34.7467051 55.2532949,39 60.5,39 C65.7467051,39 70,34.7467051 70,29.5 C70,24.2532949 65.7467051,20 60.5,20 Z" id="Shape" fill="#000000" fill-rule="nonzero"></path>
    </g>
</svg>