<?xml version="1.0" encoding="UTF-8"?>
<svg  viewBox="0 0 116 116" version="1.1" xmlns="http://www.w3.org/2000/svg" xmlns:xlink="http://www.w3.org/1999/xlink">
    <title>speaker</title>
    <g id="speaker" stroke="none" stroke-width="1" fill="none" fill-rule="evenodd">
        <path d="M90.5,8 L90.5,13 L26.5,13 C23.5365209,13 21.1204609,15.34378 21.0043672,18.2787929 L21,18.5 L21,98.5 C21,101.463479 23.34378,103.879539 26.2787929,103.995633 L26.5,104 L90.5,104 C93.4634791,104 95.8795391,101.65622 95.9956328,98.7212071 L96,98.5 L96,18.5 L101,18.5 L101,98.5 C101,104.203924 96.451858,108.845573 90.7842951,108.996226 L90.5,109 L26.5,109 C20.7960755,109 16.1544266,104.451858 16.0037742,98.7842951 L16,98.5 L16,18.5 C16,12.7960755 20.548142,8.15442656 26.2157049,8.00377424 L26.5,8 L90.5,8 Z M51.8233569,94.9438598 C53.7809412,95.5827116 55.8302179,95.9377862 57.9270044,95.9925289 L58.5,96 L58.5,101 C55.8768809,101 53.3027342,100.618047 50.8387618,99.8750138 L50.2721365,99.6971444 L51.8233569,94.9438598 Z M71.1392464,91.8946035 L74.0820702,95.9368539 C71.9999076,97.452702 69.7074544,98.6587946 67.2728965,99.5126553 L66.7085839,99.7034281 L65.1610274,94.9489493 C67.3042345,94.2513472 69.3199294,93.2190958 71.1392464,91.8946035 Z M41.0955983,87.1257768 C42.3034006,88.787503 43.7435641,90.2699727 45.3681197,91.5250935 L45.8157159,91.8617263 L42.8624575,95.8963594 C40.7948184,94.3828952 38.9551572,92.5771601 37.4039104,90.539739 L37.0510777,90.0654797 L41.0955983,87.1257768 Z M58.5,56 L58.5,61 C57.0643243,61 55.6619695,61.2232674 54.327449,61.6564622 C52.9795861,62.0939881 51.7116768,62.7424537 50.5671314,63.5752499 L50.3677579,63.723129 C49.2894708,64.5383199 48.3374263,65.5114038 47.5461975,66.6072129 C46.7242299,67.7455936 46.08408,69.0047817 45.6516125,70.3424192 C45.6040521,70.4895254 45.5590234,70.6375156 45.5165508,70.7863377 C45.1751535,71.9825775 45,73.2283244 45,74.5 C45,75.9197541 45.2183402,77.3069475 45.6421693,78.6282571 C45.6887871,78.7735907 45.7378698,78.9180539 45.7893922,79.0615954 C46.2258292,80.2775095 46.8358217,81.4229428 47.5985457,82.464787 C48.4141761,83.5788987 49.3966314,84.5637214 50.5087804,85.3820541 L50.758794,85.5616759 C51.8621068,86.3354953 53.0747314,86.9403996 54.3592608,87.3538202 C55.6842963,87.7802775 57.0757612,88 58.5,88 C59.9337457,88 61.3342631,87.7773328 62.6671846,87.3452785 C63.9421599,86.9320069 65.1459115,86.3299544 66.2417684,85.5612815 L66.4477569,85.4139015 C67.5832537,84.5853265 68.5849172,83.5837076 69.4135433,82.4482478 C70.154742,81.432589 70.7510404,80.3187846 71.1831295,79.1374304 C71.238327,78.9865176 71.2908211,78.834569 71.3405823,78.6816448 C71.7757134,77.3444158 72,75.9389471 72,74.5 C72,73.2157631 71.8213679,71.9579869 71.473308,70.7509877 C71.4270642,70.5906236 71.3778499,70.4312339 71.325696,70.2728839 C70.8939156,68.9619107 70.2622713,67.7273651 69.4553717,66.6093867 C68.660099,65.5075178 67.7022682,64.5296968 66.6170284,63.7116442 C65.5468065,62.904912 64.3636092,62.2616579 63.1043179,61.8048108 L62.6817865,61.6594638 L64.2289795,56.9048667 C66.1750921,57.5381511 67.9975232,58.4908444 69.6267272,59.7189367 C71.1115116,60.8381657 72.4214871,62.1754806 73.5096785,63.6831952 C74.6153998,65.2151981 75.4819209,66.9088092 76.0747449,68.7087436 C76.1463979,68.9262968 76.2140128,69.1452806 76.2775457,69.3655996 C76.7551425,71.0218059 77,72.7458852 77,74.5 C77,76.4659647 76.6924084,78.3934555 76.0951966,80.2287849 C76.0268329,80.4388778 75.9547164,80.6476248 75.8788896,80.8549394 C75.2857747,82.4765466 74.4679596,84.0041142 73.452418,85.3957029 C72.3186262,86.9493288 70.9487078,88.3191861 69.395031,89.4529083 L69.1130226,89.6546785 C67.611113,90.7081713 65.9595373,91.5342016 64.2089184,92.1016486 C62.3795116,92.694634 60.4588413,93 58.5,93 C56.5541784,93 54.6459777,92.6986811 52.8274144,92.1133839 C51.0636586,91.5457262 49.399885,90.7157712 47.8877474,89.6552186 L47.5454742,89.4093133 C46.0237786,88.2896312 44.6801308,86.9427456 43.5641306,85.4183433 C42.5190927,83.990872 41.6824698,82.4198761 41.0833635,80.750765 C41.0125833,80.5535712 40.9451522,80.3551038 40.8811061,80.1554366 C40.2994192,78.3419968 40,76.4396799 40,74.5 C40,72.763083 40.2400788,71.0555675 40.7085219,69.4141649 C40.7668733,69.2097042 40.8287376,69.0063825 40.89408,68.8042761 C41.4878642,66.9676801 42.3660856,65.2402007 43.4924697,63.6802195 C44.5751268,62.1807979 45.877189,60.8499611 47.3524504,59.7346556 L47.6253498,59.532241 C49.1937179,58.3910621 50.9331031,57.5014626 52.7837088,56.9007429 C54.4488045,56.3602411 56.1895994,56.0580542 57.9660389,56.0075781 L58.5,56 Z M78.9464232,81.1687829 L83.7003094,82.7181591 C82.899265,85.1759701 81.7421617,87.4965643 80.2716219,89.6115783 L79.926722,90.0959779 L75.8863775,87.150538 C77.2132008,85.3304964 78.2474018,83.3135611 78.9464232,81.1687829 Z M58.5,64 C64.2989899,64 69,68.7010101 69,74.5 C69,80.2039245 64.451858,84.8455734 58.7842951,84.9962258 L58.5,85 L58.5,80 C61.5375661,80 64,77.5375661 64,74.5 C64,71.4624339 61.5375661,69 58.5,69 C55.4624339,69 53,71.4624339 53,74.5 C53,76.4420289 54.0133944,78.2039637 55.6326579,79.1948544 L55.8381919,79.3146572 L53.4132534,83.687262 C50.1010396,81.8503902 48,78.3584786 48,74.5 C48,68.7010101 52.7010101,64 58.5,64 Z M37,74.5 C37,76.6019115 37.3009344,78.6604656 37.8863319,80.6316862 L38.0530262,81.1670935 L33.2990109,82.7160733 C32.5028889,80.2726739 32.0652137,77.7148541 32.0067505,75.1035343 L32,74.5 L37,74.5 Z M83.7121477,66.3182539 C84.5014825,68.7521534 84.9353539,71.2991358 84.9933083,73.8990961 L85,74.5 L80,74.5 C80,72.4072508 79.7016847,70.3574649 79.1212845,68.3940215 L78.9560118,67.8607102 L83.7121477,66.3182539 Z M37.043859,58.9444568 L41.0897376,61.8822904 C39.8719699,63.5593563 38.9023287,65.4026525 38.2138265,67.3584043 L38.0330484,67.8945389 L33.2743457,66.3600199 C34.1320982,63.7000403 35.4064788,61.1993978 37.043859,58.9444568 Z M74.1051102,53.0799385 C76.2063037,54.6130924 78.0728748,56.4476745 79.6416582,58.5202876 L79.9983702,59.0027794 L75.9445471,61.9296409 C74.7238696,60.2389525 73.263227,58.7323455 71.6127511,57.4601445 L71.1579524,57.1190301 L74.1051102,53.0799385 Z M50.4050259,49.2598774 L51.9309919,54.0213297 C49.9202267,54.6657464 48.0203834,55.6042753 46.2880306,56.8021984 L45.8584645,57.1070632 L42.9151104,53.065199 C45.1904029,51.4082923 47.7167002,50.1214409 50.4050259,49.2598774 Z M58.5,48 C61.1276069,48 63.70606,48.3832616 66.1738345,49.128788 L66.7413281,49.3072537 L65.1875489,54.0597026 C63.2269896,53.4187117 61.1743243,53.0624262 59.0739722,53.0074967 L58.5,53 L58.5,48 Z M58.5,16 L58.5,21 C53.2532949,21 49,25.2532949 49,30.5 C49,35.7467051 53.2532949,40 58.5,40 C63.6562447,40 67.8530394,35.8921061 67.9962236,30.7704787 L68,30.5 C68,28.0864019 67.0989814,25.8208568 65.5053156,24.08302 L65.2837238,23.8493488 L68.8538306,20.3487292 C71.4928064,23.0400887 73,26.654278 73,30.5 C73,38.4027588 66.6778436,44.8288988 58.8153115,44.9966395 L58.5,45 C50.4918711,45 44,38.5081289 44,30.5 C44,22.5972412 50.3221564,16.1711012 58.1846885,16.0033605 L58.5,16 Z" id="Shape" fill="#000000" fill-rule="nonzero"></path>
    </g>
</svg>