<?xml version="1.0" encoding="UTF-8"?>
<svg  viewBox="0 0 116 116" version="1.1" xmlns="http://www.w3.org/2000/svg" xmlns:xlink="http://www.w3.org/1999/xlink">
    <title>square-cut-top-bottom</title>
    <g id="square-cut-top-bottom" stroke="none" stroke-width="1" fill="none" fill-rule="evenodd">
        <path d="M98.5,8 C104.203924,8 108.845573,12.548142 108.996226,18.2157049 L109,18.5 L109,26.5 L104,26.5 L104,18.5 C104,15.5365209 101.65622,13.1204609 98.7212071,13.0043672 L98.5,13 L18.5,13 C15.5365209,13 13.1204609,15.34378 13.0043672,18.2787929 L13,18.5 L13,32 L109,32 L109,73.25 L110.25,73.25 L110.25,97.25 C110.25,102.953924 105.701858,107.595573 100.034295,107.746226 L99.75,107.75 L19.75,107.75 C14.0460755,107.75 9.40442656,103.201858 9.25377424,97.5342951 L9.25,97.25 L9.25,89.25 L14.25,89.25 L14.25,97.25 C14.25,100.213479 16.59378,102.629539 19.5287929,102.745633 L19.75,102.75 L99.75,102.75 C102.713479,102.75 105.129539,100.40622 105.245633,97.4712071 L105.25,97.25 L105.25,85 L8,85 L8,42.5 L13,42.5 L13,80 L104,80 L104,37 L8,37 L8,18.5 C8,12.7960755 12.548142,8.15442656 18.2157049,8.00377424 L18.5,8 L98.5,8 Z" id="Path" fill="#000000" fill-rule="nonzero"></path>
    </g>
</svg>