<?xml version="1.0" encoding="UTF-8"?>
<svg  viewBox="0 0 116 116" version="1.1" xmlns="http://www.w3.org/2000/svg" xmlns:xlink="http://www.w3.org/1999/xlink">
    <title>square-arrow-up</title>
    <g id="square-arrow-up" stroke="none" stroke-width="1" fill="none" fill-rule="evenodd">
        <path d="M46.5,44 L46.5,49 L34.5,49 C31.5365209,49 29.1204609,51.34378 29.0043672,54.2787929 L29,54.5 L29,98.5 C29,101.463479 31.34378,103.879539 34.2787929,103.995633 L34.5,104 L82.5,104 C85.4634791,104 87.8795391,101.65622 87.9956328,98.7212071 L88,98.5 L88,54.5 C88,51.5365209 85.65622,49.1204609 82.7212071,49.0043672 L82.5,49 L70.5,49 L70.5,44 L82.5,44 C88.2039245,44 92.8455734,48.548142 92.9962258,54.2157049 L93,54.5 L93,98.5 C93,104.203924 88.451858,108.845573 82.7842951,108.996226 L82.5,109 L34.5,109 C28.7960755,109 24.1544266,104.451858 24.0037742,98.7842951 L24,98.5 L24,54.5 C24,48.7960755 28.548142,44.1544266 34.2157049,44.0037742 L34.5,44 L46.5,44 Z M61,26.5 L61,74.5 L56,74.5 L56,26.5 L61,26.5 Z M61.5140958,9.98684269 L61.6819805,10.1464466 L84.267767,32.732233 L80.732233,36.267767 L58.5,14.035 L36.267767,36.267767 L32.732233,32.732233 L55.3180195,10.1464466 C57.0204613,8.44400478 59.7476098,8.39080347 61.5140958,9.98684269 Z" id="Shape" fill="#000000" fill-rule="nonzero"></path>
    </g>
</svg>