<?xml version="1.0" encoding="UTF-8"?>
<svg   viewBox="0 0 116 116" version="1.1" xmlns="http://www.w3.org/2000/svg" xmlns:xlink="http://www.w3.org/1999/xlink">
    <title>stack-horiz-compact</title>
    <g id="stack-horiz-compact" stroke="none" stroke-width="1" fill="none" fill-rule="evenodd">
        <path d="M104,56 L104,42.5 L109,42.5 L109,85 L13,85 L13,98.5 C13,101.463479 15.34378,103.879539 18.2787929,103.995633 L18.5,104 L98.5,104 C101.463479,104 103.879539,101.65622 103.995633,98.7212071 L104,98.5 L104,90.5 L109,90.5 L109,98.5 C109,104.203924 104.451858,108.845573 98.7842951,108.996226 L98.5,109 L18.5,109 C12.7960755,109 8.15442656,104.451858 8.00377424,98.7842951 L8,98.5 L8,66.5 L13,66.5 L13,80 L104,80 L104,61 L8,61 L8,32 L104,32 L104,18.5 C104,15.5365209 101.65622,13.1204609 98.7212071,13.0043672 L98.5,13 L18.5,13 C15.5365209,13 13.1204609,15.34378 13.0043672,18.2787929 L13,18.5 L13,26.5 L8,26.5 L8,18.5 C8,12.7960755 12.548142,8.15442656 18.2157049,8.00377424 L18.5,8 L98.5,8 C104.203924,8 108.845573,12.548142 108.996226,18.2157049 L109,18.5 L109,37 L13,37 L13,56 L104,56 Z" id="Path" fill="#000000" fill-rule="nonzero"></path>
    </g>
</svg>