<?xml version="1.0" encoding="UTF-8"?>
<svg  viewBox="0 0 117 116" version="1.1" xmlns="http://www.w3.org/2000/svg" xmlns:xlink="http://www.w3.org/1999/xlink">
    <title>star</title>
    <g id="star" stroke="none" stroke-width="1" fill="none" fill-rule="evenodd" transform="translate(0.000000, 0.000000)">
        <path d="M60.509748,9.2554477 C62.4876743,9.89851735 64.038428,11.449271 64.6814976,13.4271973 L72.8332782,38.5000981 L99.7136182,38.5 C103.303469,38.5 106.213618,41.4101491 106.213618,45 C106.213618,47.0780136 105.220069,49.0307735 103.540345,50.2541566 L81.8025191,66.0863304 L90.0623657,91.4925946 C91.1723189,94.9065415 89.3045629,98.5738871 85.8906161,99.6838402 C83.908948,100.328126 81.7385218,99.9832735 80.0541413,98.7564992 L52.677326,78.8173158 L55.620962,74.7756569 L82.9977773,94.7148403 C83.3864805,94.997942 83.8873481,95.0775235 84.3446561,94.9288421 C85.13249,94.672699 85.5635106,93.8263885 85.3073675,93.0385546 L77.5516538,69.1838595 L73.7664152,71.9392153 L70.8227792,67.8975564 L100.596709,46.2124977 C100.984338,45.9301785 101.213618,45.4795416 101.213618,45 C101.213618,44.2203039 100.61873,43.5795513 99.8580782,43.5068666 L99.7136182,43.5 L74.4585996,43.4991929 L75.491171,46.675132 L70.7361728,48.221092 L59.9264995,14.9731573 C59.7780988,14.5167128 59.4202325,14.1588466 58.963788,14.0104459 C58.2222973,13.7693701 57.4290072,14.1369929 57.1246965,14.837899 L57.0735005,14.9731573 L49.424,38.5 L53.5,38.5 L53.5,43.5 L17.2863818,43.5 C16.8068402,43.5 16.3562033,43.7292805 16.0738841,44.1169092 C15.5861665,44.7865532 15.733647,45.7247801 16.403291,46.2124977 L36.8226236,61.0843815 L37.624925,58.6210792 L42.3799232,60.1670392 L31.6926325,93.0385546 C31.543951,93.4958626 31.6235325,93.9967302 31.9066342,94.3854334 C32.3943518,95.0550774 33.3325787,95.2025579 34.0022227,94.7148403 L46.2900658,85.765313 L49.2337018,89.8069719 L36.9458587,98.7564992 C34.0440681,100.869942 29.9784181,100.23086 27.8649753,97.3290694 C26.691539,95.7179228 26.3250025,93.6620766 26.8591976,91.752088 L26.9376343,91.4925946 L35.1964351,66.0855688 L13.459655,50.2541566 C10.5578644,48.1407138 9.91878232,44.0750638 12.0322252,41.1732732 C13.2024177,39.5665803 15.0399418,38.5876927 17.0160965,38.5056092 L17.2863818,38.5 L44.166,38.5 L52.3185024,13.4271973 C53.4284555,10.0132505 57.0958011,8.14549453 60.509748,9.2554477 Z" id="Shape" fill="#000000" fill-rule="nonzero"></path>
    </g>
</svg>