<?xml version="1.0" encoding="UTF-8"?>
<svg  viewBox="0 0 116 116" version="1.1" xmlns="http://www.w3.org/2000/svg" xmlns:xlink="http://www.w3.org/1999/xlink">
    <title>stop-circle</title>
    <g id="stop-circle" stroke="none" stroke-width="1" fill="none" fill-rule="evenodd">
        <path d="M58,1.5 C89.2040884,1.5 114.5,26.7959116 114.5,58 C114.5,88.8920475 89.707477,113.993491 58.9343308,114.492431 L58,114.5 L58,109.5 C86.4426646,109.5 109.5,86.4426646 109.5,58 C109.5,29.5573354 86.4426646,6.5 58,6.5 C29.5573354,6.5 6.5,29.5573354 6.5,58 C6.5,71.6285207 11.8149154,84.4094074 21.1333895,93.9598153 L21.5731203,94.4051155 L18.0365369,97.9395996 C7.51796789,87.4147834 1.5,73.1806564 1.5,58 C1.5,26.7959116 26.7959116,1.5 58,1.5 Z M78.5,28 C84.2039245,28 88.8455734,32.548142 88.9962258,38.2157049 L89,38.5 L89,78.5 C89,84.2039245 84.451858,88.8455734 78.7842951,88.9962258 L78.5,89 L50.5,89 L50.5,84 L78.5,84 C81.4634791,84 83.8795391,81.65622 83.9956328,78.7212071 L84,78.5 L84,38.5 C84,35.5365209 81.65622,33.1204609 78.7212071,33.0043672 L78.5,33 L38.5,33 C35.5365209,33 33.1204609,35.34378 33.0043672,38.2787929 L33,38.5 L33,78.5 C33,81.4634791 35.34378,83.8795391 38.2787929,83.9956328 L38.5,84 L38.5,89 C32.7960755,89 28.1544266,84.451858 28.0037742,78.7842951 L28,78.5 L28,38.5 C28,32.7960755 32.548142,28.1544266 38.2157049,28.0037742 L38.5,28 L78.5,28 Z" id="Shape" fill="#000000" fill-rule="nonzero"></path>
    </g>
</svg>