<?xml version="1.0" encoding="UTF-8"?>
<svg  viewBox="0 0 116 116" version="1.1" xmlns="http://www.w3.org/2000/svg" xmlns:xlink="http://www.w3.org/1999/xlink">
    <title>stop</title>
    <g id="stop" stroke="none" stroke-width="1" fill="none" fill-rule="evenodd">
        <path d="M74.5,16 L74.5,21 L26.4501562,21 C23.4997653,21 21.0893476,23.3238872 20.9559704,26.2454173 L20.9502637,26.4656257 L20.5502637,90.4656257 C20.5317423,93.4290469 22.8603764,95.8597081 25.7946064,95.9941429 L26.0501562,96 L90.5,96 C93.4634791,96 95.8795391,93.65622 95.9956328,90.7212071 L96,90.5 L96,26.5 C96,23.5365209 93.65622,21.1204609 90.7212071,21.0043672 L90.5,21 L90.5,16 C96.2039245,16 100.845573,20.548142 100.996226,26.2157049 L101,26.5 L101,90.5 C101,96.2039245 96.451858,100.845573 90.7842951,100.996226 L90.5,101 L25.9845325,101 C20.2807195,100.964146 15.6675865,96.3870832 15.5523587,90.7186894 L15.5503613,90.4343763 L15.9503613,26.4343763 C15.9858527,20.7557541 20.524247,16.1531222 26.1671085,16.0037423 L26.4501562,16 L74.5,16 Z" id="Path-173" fill="#000000" fill-rule="nonzero"></path>
    </g>
</svg>