<?xml version="1.0" encoding="UTF-8"?>
<svg  viewBox="0 0 116 116" version="1.1" xmlns="http://www.w3.org/2000/svg" xmlns:xlink="http://www.w3.org/1999/xlink">
    <title>strike-through-off</title>
    <g id="strike-through-off" stroke="none" stroke-width="1" fill="none" fill-rule="evenodd">
        <path d="M12.267767,8.73223305 L108.267767,104.732233 L104.732233,108.267767 L32.999233,36.534233 L33,51 L28,51 L28,36.5 L32.964233,36.499233 L8.73223305,12.267767 L12.267767,8.73223305 Z M33,66.5 L33,70.5 C33,84.5832611 44.4167389,96 58.5,96 C64.9886481,96 71.0891537,93.5693719 75.7602107,89.2708355 L76.0994291,88.9529831 L79.5508754,92.5706507 C73.9169715,97.945693 66.4452599,101 58.5,101 C41.823762,101 28.2734252,87.6164256 28.0040861,71.0043733 L28,70.5 L28,66.5 L33,66.5 Z M98.5,16 L98.5,21 L89,21 L89,70.5 C89,71.7415436 88.9256884,72.9743618 88.7783417,74.193821 L88.6811797,74.9238563 L83.7332115,74.2044044 C83.8808751,73.1888608 83.9677025,72.1606817 83.9925432,71.1234191 L84,70.5 L84,21 L74.5,21 L74.5,16 L98.5,16 Z M50.5,56 L50.5,61 L10.5,61 L10.5,56 L50.5,56 Z M78.5,56 L78.5,61 L67,61 L67,56 L78.5,56 Z M106.5,56 L106.5,61 L95,61 L95,56 L106.5,56 Z M42.5,16 L42.5,21 L33,21 L33,22 L28,22 L28,21 L26.5,21 L26.5,16 L42.5,16 Z" id="Shape" fill="#000000" fill-rule="nonzero"></path>
    </g>
</svg>