<?xml version="1.0" encoding="UTF-8"?>
<svg  viewBox="0 0 117 116" version="1.1" xmlns="http://www.w3.org/2000/svg" xmlns:xlink="http://www.w3.org/1999/xlink">
    <title>subscript</title>
    <g id="subscript" stroke="none" stroke-width="1" fill="none" fill-rule="evenodd" transform="translate(0.000000, 0.000000)">
        <path d="M94.5,80 C100.203924,80 104.845573,84.548142 104.996226,90.2157049 L105,90.5 L105,102.5 C105,103.279696 105.594888,103.920449 106.35554,103.993133 L106.5,104 L106.5,109 C104.227025,109 102.226542,107.83332 101.064723,106.066129 C99.1256984,107.836501 96.5716756,108.924799 93.792094,108.996249 L93.5,109 L92.5,109 C87.8055796,109 84,105.19442 84,100.5 C84,95.8909327 87.668453,92.1386785 92.2448397,92.0037566 L92.5,92 L98.5,92 L98.5,97 L92.5,97 C90.5670034,97 89,98.5670034 89,100.5 C89,102.368563 90.4642776,103.895126 92.3079648,103.994821 L92.5,104 L93.5,104 C96.5856785,104 99.205386,101.738906 99.6563811,98.6863625 C99.8607802,97.3029319 99.9733045,96.045721 99.9957864,94.9171707 L100,94.5 L100,90.5 C100,87.4624339 97.5375661,85 94.5,85 C91.5365209,85 89.1204609,87.34378 89.0043672,90.2787929 L89,90.5 L84,90.5 C84,84.7010101 88.7010101,80 94.5,80 Z M55.0057176,19.1277102 C56.0663569,19.445902 56.9097391,20.2456108 57.287149,21.2781214 L57.352392,21.4743846 L80.3945657,98.2816303 L75.6054343,99.7183697 L54,27.699 L42.959,64.5 L60,64.5 L60,69.5 L41.459,69.5 L32.3945657,99.7183697 L27.6033828,98.2885043 L37.634345,64.5 L37.739,64.5 L50.647608,21.4743846 C51.2030505,19.6229096 53.1542426,18.5722677 55.0057176,19.1277102 Z" id="Shape" fill="#000000" fill-rule="nonzero"></path>
    </g>
</svg>