<?xml version="1.0" encoding="UTF-8"?>
<svg  viewBox="0 0 116 116" version="1.1" xmlns="http://www.w3.org/2000/svg" xmlns:xlink="http://www.w3.org/1999/xlink">
    <title>sun</title>
    <g id="sun" stroke="none" stroke-width="1" fill="none" fill-rule="evenodd">
        <path d="M26.4537653,71.3014246 L31.0176457,69.2683299 L31.5994134,70.4353205 L31.9644385,71.1519237 L32.3110564,71.8192065 L32.7961862,72.7272646 L33.0962191,73.2704656 L33.3773914,73.7637217 C33.4226745,73.841759 33.4671664,73.9177079 33.5108643,73.9915646 L33.7638234,74.410691 L34.0414914,74.8561726 L34.5307337,75.6185981 L35.003,76.337 L35.2243768,76.626847 C35.8326547,77.4066933 36.4805293,78.1567983 37.1657085,78.874035 L37.5812743,79.3004077 C40.3184798,82.0530775 43.5717246,84.2459477 47.154235,85.7399732 C50.52862,87.1472036 54.1488336,87.9164924 57.8775637,87.993572 L58.5,88 L61,88 L61,114.5 L56,114.5 L56,92.909 L55.8793798,92.9018327 C52.406607,92.6407419 49.0266997,91.8616007 45.8274399,90.5974592 L45.2297171,90.3547572 C41.9908689,89.0040501 38.9836643,87.1662201 36.3080434,84.9162663 L35.936,84.598 L20.767767,99.767767 L17.232233,96.232233 L32.258,81.206 L31.6069652,80.2502972 L30.934,79.248 L30.8779336,79.1737636 C29.1899227,76.9217612 27.7789164,74.467025 26.6836243,71.8619394 L26.4537653,71.3014246 Z M114.5,56 L114.5,61 L92.909,61 L92.9047369,61.0817142 C92.651355,64.5033499 91.8951277,67.8354037 90.6674005,70.9940857 L90.4316839,71.5842865 C89.0275573,75.0076492 87.0803698,78.1763624 84.6772676,80.9731172 L84.598,81.063 L99.767767,96.232233 L96.232233,99.767767 L81.336,84.871 L81.3215035,84.8832183 C80.9255943,85.1763987 80.4852429,85.4901845 79.9990933,85.8260561 L79.2353506,86.3466132 L78.8867505,86.5801257 C77.282391,87.6496987 75.4982328,88.6440728 73.5345396,89.564999 L73.1574555,89.7399015 C72.7911052,89.9120691 72.4214719,90.0778735 72.04871,90.2371995 L71.4872399,90.4713154 L69.5802192,85.8493449 C69.9960039,85.6752848 70.4029763,85.4984419 70.8011394,85.3188354 L71.2425824,85.1141479 C74.1121094,83.737517 76.7430222,81.9014145 79.0316533,79.6826066 L79.4567352,79.262114 C82.1772503,76.5162705 84.3389085,73.2629923 85.8056843,69.6868862 C87.1682193,66.3649269 87.9143525,62.8084281 87.9930508,59.1471661 L88,58.5 L88,56 L114.5,56 Z M20.767767,17.232233 L35.705,32.17 L36.492523,31.5764336 L37.1719795,31.0755612 L37.8101177,30.6176318 C37.9130486,30.5448799 38.0142713,30.4739107 38.1137923,30.4047209 L38.6905524,30.0109073 C38.9687761,29.82465 39.231805,29.654347 39.4798191,29.4999088 L39.7044958,29.3618539 C40.0072647,29.178406 40.3461439,28.9860032 40.7215979,28.7843024 L41.312268,28.4747349 L41.9581484,28.1509635 C42.1826823,28.0406437 42.4164759,27.9279138 42.6595873,27.8127307 L43.416933,27.4597796 L43.617,27.368 L43.8854358,27.239978 C44.2636131,27.062889 44.6452709,26.8925788 45.0302393,26.7291732 L45.6101537,26.4892589 L47.5321798,31.1047244 L46.3725008,31.6114297 L45.704,31.912 L45.2198361,32.150531 C42.6395302,33.4538022 40.2613125,35.1327867 38.1631016,37.1302936 L37.7177992,37.5631853 C34.9532231,40.3074832 32.7519521,43.571814 31.2545075,47.1674788 C29.8506759,50.5383598 29.0832997,54.1542383 29.0064119,57.8783381 L29,58.5 L29,61 L2.5,61 L2.5,56 L24.089,56 L24.0979232,55.8826265 C24.3583663,52.4141205 25.1355824,49.0382032 26.3966661,45.8423184 L26.6387816,45.2452211 C27.9925814,41.9944764 29.8369771,38.9768316 32.0961747,36.2932564 L32.402,35.937 L17.232233,20.767767 L20.767767,17.232233 Z M61,2.5 L61,24.089 L61.1047664,24.0969785 C64.5567032,24.354914 67.9171216,25.1246771 71.0998815,26.3739202 L71.6945461,26.6137643 C75.0648758,28.0098511 78.186123,29.9330011 80.945907,32.2993765 L81.063,32.401 L96.232233,17.232233 L99.767767,20.767767 L84.744,35.79 L85.0816282,36.257611 L85.6814956,37.0733361 L86,37.5 C86.3884276,38.0179035 86.8169247,38.6704933 87.2882265,39.4610402 L87.4,39.651 L87.4203981,39.6819834 C88.5239495,41.3748023 89.479343,43.1650622 90.2721576,45.0333749 L90.5051102,45.5961909 L85.937973,47.6239645 L85.5082043,46.7465433 L85.0954807,45.918927 L84.7000423,45.1414028 L84.3221292,44.4142578 L83.9619814,43.7377789 L83.6198391,43.1122532 C83.5643291,43.012261 83.5095794,42.9144038 83.4555949,42.8186876 L83.174,42.326 L83.0883446,42.1945453 C82.0983571,40.7048539 80.9730596,39.3049388 79.7261221,38.0133271 L79.3059898,37.5868265 C76.5753453,34.8700825 73.3394975,32.7071398 69.7810698,31.2331375 C66.4238167,29.8424674 62.8247754,29.0824948 59.1186551,29.00635 L58.5,29 L56,29 L56,2.5 L61,2.5 Z" id="Shape" fill="#000000" fill-rule="nonzero"></path>
    </g>
</svg>