<?xml version="1.0" encoding="UTF-8"?>
<svg  viewBox="0 0 117 116" version="1.1" xmlns="http://www.w3.org/2000/svg" xmlns:xlink="http://www.w3.org/1999/xlink">
    <title>superscript</title>
    <g id="superscript" stroke="none" stroke-width="1" fill="none" fill-rule="evenodd" transform="translate(0.000000, 0.000000)">
        <path d="M55.0057176,19.1277102 C56.0663569,19.445902 56.9097391,20.2456108 57.287149,21.2781214 L57.352392,21.4743846 L80.3945657,98.2816303 L75.6054343,99.7183697 L54,27.699 L42.959,64.5 L60,64.5 L60,69.5 L41.459,69.5 L32.3945657,99.7183697 L27.6033828,98.2885043 L37.634345,64.5 L37.739,64.5 L50.647608,21.4743846 C51.2030505,19.6229096 53.1542426,18.5722677 55.0057176,19.1277102 Z M94.5,8 C100.203924,8 104.845573,12.548142 104.996226,18.2157049 L105,18.5 L105,30.5 C105,31.2796961 105.594888,31.9204487 106.35554,31.9931334 L106.5,32 L106.5,37 C104.227025,37 102.226542,35.8333198 101.064723,34.0661295 C99.1256984,35.8365005 96.5716756,36.9247992 93.792094,36.9962491 L93.5,37 L92.5,37 C87.8055796,37 84,33.1944204 84,28.5 C84,23.8909327 87.668453,20.1386785 92.2448397,20.0037566 L92.5,20 L98.5,20 L98.5,25 L92.5,25 C90.5670034,25 89,26.5670034 89,28.5 C89,30.3685634 90.4642776,31.8951264 92.3079648,31.9948211 L92.5,32 L93.5,32 C96.5856785,32 99.205386,29.7389064 99.6563811,26.6863625 C99.8607802,25.3029319 99.9733045,24.045721 99.9957864,22.9171707 L100,22.5 L100,18.5 C100,15.4624339 97.5375661,13 94.5,13 C91.5365209,13 89.1204609,15.34378 89.0043672,18.2787929 L89,18.5 L84,18.5 C84,12.7010101 88.7010101,8 94.5,8 Z" id="Shape" fill="#000000" fill-rule="nonzero"></path>
    </g>
</svg>