<?xml version="1.0" encoding="UTF-8"?>
<svg  viewBox="0 0 117 116" version="1.1" xmlns="http://www.w3.org/2000/svg" xmlns:xlink="http://www.w3.org/1999/xlink">
    <title>symmetry</title>
    <g id="symmetry" stroke="none" stroke-width="1" fill="none" fill-rule="evenodd" transform="translate(0.000000, 0.000000)">
        <path d="M60,9.5 L60,23 L65.5,23 L65.5,28 L60,28 L60,105.5 L55,105.5 L55,92 L17.5,92 C11.7960755,92 7.15442656,87.451858 7.00377424,81.7842951 L7,81.5 L7,33.5 C7,27.7960755 11.548142,23.1544266 17.2157049,23.0037742 L17.5,23 L49.5,23 L49.5,28 L17.5,28 C14.5365209,28 12.1204609,30.34378 12.0043672,33.2787929 L12,33.5 L12,81.5 C12,84.4634791 14.34378,86.8795391 17.2787929,86.9956328 L17.5,87 L55,87 L55,9.5 L60,9.5 Z M108,73.5 L108,81.5 C108,87.2039245 103.451858,91.8455734 97.7842951,91.9962258 L97.5,92 L97,92 L97,87 L97.5,87 C100.463479,87 102.879539,84.65622 102.995633,81.7212071 L103,81.5 L103,73.5 L108,73.5 Z M89.5,87 L89.5,92 L81.5,92 L81.5,87 L89.5,87 Z M73.5,87 L73.5,92 L65.5,92 L65.5,87 L73.5,87 Z M108,57.5 L108,65.5 L103,65.5 L103,57.5 L108,57.5 Z M108,41.5 L108,49.5 L103,49.5 L103,41.5 L108,41.5 Z M97.5,23 C103.203924,23 107.845573,27.548142 107.996226,33.2157049 L108,33.5 L103,33.5 C103,30.5365209 100.65622,28.1204609 97.7212071,28.0043672 L97.5,28 L89.5,28 L89.5,23 L97.5,23 Z M81.5,23 L81.5,28 L73.5,28 L73.5,23 L81.5,23 Z" id="Shape" fill="#000000" fill-rule="nonzero"></path>
    </g>
</svg>