<?xml version="1.0" encoding="UTF-8"?>
<svg  viewBox="0 0 116 116" version="1.1" xmlns="http://www.w3.org/2000/svg" xmlns:xlink="http://www.w3.org/1999/xlink">
    <title>table</title>
    <g id="table" stroke="none" stroke-width="1" fill="none" fill-rule="evenodd">
        <path d="M37,90.5 L37,98.5 L32,98.5 L32,90.5 L37,90.5 Z M85,90.5 L85,98.5 L80,98.5 L80,90.5 L85,90.5 Z M106.5,80 L106.5,85 L10.5,85 L10.5,80 L106.5,80 Z M37,66.5 L37,74.5 L32,74.5 L32,66.5 L37,66.5 Z M85,66.5 L85,74.5 L80,74.5 L80,66.5 L85,66.5 Z M105.5,56 L105.5,61 L9.5,61 L9.5,56 L105.5,56 Z M37,42.5 L37,50.5 L32,50.5 L32,42.5 L37,42.5 Z M85,42.5 L85,50.5 L80,50.5 L80,42.5 L85,42.5 Z M106.5,32 L106.5,37 L10.5,37 L10.5,32 L106.5,32 Z M37,18.5 L37,26.5 L32,26.5 L32,18.5 L37,18.5 Z M85,18.5 L85,26.5 L80,26.5 L80,18.5 L85,18.5 Z" id="Shape" fill="#000000" fill-rule="nonzero"></path>
    </g>
</svg>