<?xml version="1.0" encoding="UTF-8"?>
<svg   viewBox="0 0 116 116" version="1.1" xmlns="http://www.w3.org/2000/svg" xmlns:xlink="http://www.w3.org/1999/xlink">
    <title>tag</title>
    <g id="tag" stroke="none" stroke-width="1" fill="none" fill-rule="evenodd">
        <path d="M70.3984499,15.9387816 L94.4360119,15.5639881 L94.537562,15.5639881 C98.0489441,15.6196467 100.866425,18.449006 100.935219,21.9323684 L100.935219,22.1655382 L100.525335,48.3980704 C100.500208,50.0061861 99.8800183,51.5441106 98.7907982,52.7178337 L98.5811037,52.933567 L46.0801161,104.505334 C43.5973679,106.944139 39.6496457,106.986269 37.1162545,104.644577 L36.928947,104.464481 L10.5338188,78.068219 C8.095071,75.5516388 8.09859891,71.5702781 10.4983191,69.0581167 L10.6781841,68.8769646 L56.2602136,24.7046885 L59.7397864,28.2953115 L14.1577568,72.4675875 C13.6000251,73.0080699 13.5520574,73.8764861 14.0232733,74.4731208 L14.1409685,74.6054346 L40.4644809,100.928947 C41.0101918,101.474658 41.872625,101.512463 42.4621893,101.039729 L42.5762892,100.938375 L95.0772767,49.366608 C95.3234344,49.1248071 95.4776113,48.8066981 95.5164366,48.4668004 L95.5259455,48.3199549 L95.9358289,22.0874227 C95.9480101,21.3078217 95.3632052,20.6578534 94.6037817,20.5732938 L94.4360119,20.5639881 L70.4765654,20.9381713 C69.7055633,20.9502182 69.0778982,21.5424086 69.0067231,22.2950835 L69,22.4379883 L69,42 C69,44.9634791 71.34378,47.3795391 74.2787929,47.4956328 L74.5,47.5 L74.75,47.5 C77.6494949,47.5 80,45.1494949 80,42.25 C80,39.4229924 77.7655511,37.1178684 74.9664046,37.004379 L74.75,37 L74.5,37 L74.5,32 L74.75,32 C80.4109187,32 85,36.5890813 85,42.25 C85,47.81657 80.5626133,52.3467329 75.0321365,52.496192 L74.75,52.5 L74.5,52.5 C68.7960755,52.5 64.1544266,47.951858 64.0037742,42.2842951 L64,42 L64,22.4379883 C64,18.8877329 66.8486279,15.9942475 70.3984499,15.9387816 Z" id="Path-12" fill="#000000" fill-rule="nonzero"></path>
    </g>
</svg>