<?xml version="1.0" encoding="UTF-8"?>
<svg width="128px" height="128px" viewBox="0 0 128 128" version="1.1" xmlns="http://www.w3.org/2000/svg" xmlns:xlink="http://www.w3.org/1999/xlink">
    <title>tag</title>
    <g id="tag" stroke="none" stroke-width="1" fill="none" fill-rule="evenodd">
        <path d="M67.8984499,29.4387816 L91.9360119,29.0639881 L92.037562,29.0639881 C95.5489441,29.1196467 98.3664245,31.949006 98.4352186,35.4323684 L98.4352186,35.6655382 L98.02501,61.9188926 C98.0001785,63.5081043 97.394144,65.0295044 96.3273845,66.1985409 L96.1219974,66.4135366 L52.0961941,110.43934 C49.6196986,112.915835 45.6420352,112.976238 43.092312,110.620547 L42.9038059,110.43934 L16.5496896,84.0850417 C14.0873534,81.5915366 14.053392,77.6103192 16.4293509,75.075673 L16.6075022,74.8928353 L53.7433858,38.2211502 L57.2566142,41.7788498 L20.1207305,78.4505349 C19.5681127,78.996245 19.5283243,79.8650743 20.0051374,80.4572455 L20.1140389,80.578505 L46.4393398,106.903806 C46.9885146,107.452981 47.857577,107.487304 48.4467378,107.006776 L48.5606602,106.903806 L92.5864634,62.8780026 C92.8275842,62.6368819 92.9783115,62.321932 93.0163047,61.9859186 L93.0256202,61.8407771 L93.4358289,35.5874227 C93.4480101,34.8078217 92.8632052,34.1578534 92.1037817,34.0732938 L91.9360119,34.0639881 L67.9765654,34.4381713 C67.2055633,34.4502182 66.5778982,35.0424086 66.5067231,35.7950835 L66.5,35.9379883 L66.5,55.5 C66.5,58.4634791 68.84378,60.8795391 71.7787929,60.9956328 L72,61 L72.25,61 C75.1494949,61 77.5,58.6494949 77.5,55.75 C77.5,52.9229924 75.2655511,50.6178684 72.4664046,50.504379 L72.25,50.5 L72,50.5 L72,45.5 L72.25,45.5 C77.9109187,45.5 82.5,50.0890813 82.5,55.75 C82.5,61.31657 78.0626133,65.8467329 72.5321365,65.996192 L72.25,66 L72,66 C66.2960755,66 61.6544266,61.451858 61.5037742,55.7842951 L61.5,55.5 L61.5,35.9379883 C61.5,32.3877329 64.3486279,29.4942475 67.8984499,29.4387816 Z" id="Path-12" fill="#000000" fill-rule="nonzero"></path>
    </g>
</svg>