<?xml version="1.0" encoding="UTF-8"?>
<svg  viewBox="0 0 116 116" version="1.1" xmlns="http://www.w3.org/2000/svg" xmlns:xlink="http://www.w3.org/1999/xlink">
    <title>taxi</title>
    <g id="taxi" stroke="none" stroke-width="1" fill="none" fill-rule="evenodd">
        <path d="M81.0837363,24 C85.279655,24 89.0624556,26.4965176 90.7205308,30.3307383 L90.8327416,30.6003979 L96.193,44 L98.5,44 L98.5,49 L92.8074176,49 L86.1903581,32.4573513 C85.38494,30.4438059 83.4756543,29.0987191 81.3237872,29.0052098 L81.0837363,29 L35.9162637,29 C33.747609,29 31.7896363,30.2731745 30.9036317,32.2364045 L30.8096419,32.4573513 L26.192,44 L74.5,44 L74.5,49 L22.5,49 C17.3437553,49 13.1469606,53.1078939 13.0037764,58.2295213 L13,58.5 L13,92.5 C13,94.3685634 14.4642776,95.8951264 16.3079648,95.9948211 L16.5,96 L20.5,96 C22.3685634,96 23.8951264,94.5357224 23.9948211,92.6920352 L24,92.5 L24,85 L18.5,85 L18.5,80 L98.5,80 L98.5,85 L93,85 L93,92.5 C93,94.3685634 94.4642776,95.8951264 96.3079648,95.9948211 L96.5,96 L100.5,96 C102.368563,96 103.895126,94.5357224 103.994821,92.6920352 L104,92.5 L104,61.5 C104,61.2545401 103.823125,61.0503916 103.589876,61.0080557 L103.5,61 L84.5,61 C82.5670034,61 81,62.5670034 81,64.5 C81,66.4329966 82.5670034,68 84.5,68 C86.3685634,68 87.8951264,66.5357224 87.9948211,64.6920352 L88,64.5 L93,64.5 C93,69.1944204 89.1944204,73 84.5,73 C79.8055796,73 76,69.1944204 76,64.5 C76,59.8909327 79.668453,56.1386785 84.2448397,56.0037566 L84.5,56 L103.5,56 C106.463479,56 108.879539,58.34378 108.995633,61.2787929 L109,61.5 L109,92.5 C109,97.1090673 105.331547,100.861321 100.75516,100.996243 L100.5,101 L96.5,101 C91.8909327,101 88.1386785,97.331547 88.0037566,92.7551603 L88,92.5 L88,85 L29,85 L29,92.5 C29,97.1090673 25.331547,100.861321 20.7551603,100.996243 L20.5,101 L16.5,101 C11.8909327,101 8.13867855,97.331547 8.0037566,92.7551603 L8,92.5 L8,58.5 C8,51.1240918 13.5073006,45.0344826 20.6341372,44.1189371 L20.765,44.103 L26.1672584,30.6003979 C27.7255835,26.7045852 31.4484388,24.1195264 35.624217,24.004036 L35.9162637,24 L81.0837363,24 Z M32.5,56 C37.1090673,56 40.8613215,59.668453 40.9962434,64.2448397 L41,64.5 L41,66.5 L36,66.5 L36,64.5 C36,62.5670034 34.4329966,61 32.5,61 C30.5670034,61 29,62.5670034 29,64.5 C29,66.3685634 30.4642776,67.8951264 32.3079648,67.9948211 L32.5,68 L34,68 L34,73 L32.5,73 C27.8055796,73 24,69.1944204 24,64.5 C24,59.8055796 27.8055796,56 32.5,56 Z M74.5,16 L74.5,21 L42.5,21 L42.5,16 L74.5,16 Z" id="Shape" fill="#000000" fill-rule="nonzero"></path>
    </g>
</svg>