<?xml version="1.0" encoding="UTF-8"?>
<svg  viewBox="0 0 116 116" version="1.1" xmlns="http://www.w3.org/2000/svg" xmlns:xlink="http://www.w3.org/1999/xlink">
    <title>text-justify-right</title>
    <g id="text-justify-right" stroke="none" stroke-width="1" fill="none" fill-rule="evenodd">
        <path d="M18.5,16 C12.7010101,16 8,20.7010101 8,26.5 C8,32.2039245 12.548142,36.8455734 18.2157049,36.9962258 L18.5,37 L98.5,37 C101.537566,37 104,39.4624339 104,42.5 C104,45.4634791 101.65622,47.8795391 98.7212071,47.9956328 L98.5,48 L18.5,48 C12.7010101,48 8,52.7010101 8,58.5 C8,64.2039245 12.548142,68.8455734 18.2157049,68.9962258 L18.5,69 L98.5,69 C101.537566,69 104,71.4624339 104,74.5 C104,77.4634791 101.65622,79.8795391 98.7212071,79.9956328 L98.5,80 L66.5,80 C60.7010101,80 56,84.7010101 56,90.5 C56,96.2039245 60.548142,100.845573 66.2157049,100.996226 L66.5,101 L98.5,101 C101.463479,101 103.879539,103.34378 103.995633,106.278793 L104,106.5 L109,106.5 C109,100.796076 104.451858,96.1544266 98.7842951,96.0037742 L98.5,96 L66.5,96 C63.4624339,96 61,93.5375661 61,90.5 C61,87.5365209 63.34378,85.1204609 66.2787929,85.0043672 L66.5,85 L98.5,85 C104.29899,85 109,80.2989899 109,74.5 C109,68.7960755 104.451858,64.1544266 98.7842951,64.0037742 L98.5,64 L18.5,64 C15.4624339,64 13,61.5375661 13,58.5 C13,55.5365209 15.34378,53.1204609 18.2787929,53.0043672 L18.5,53 L98.5,53 C104.29899,53 109,48.2989899 109,42.5 C109,36.7960755 104.451858,32.1544266 98.7842951,32.0037742 L98.5,32 L18.5,32 C15.4624339,32 13,29.5375661 13,26.5 C13,23.5365209 15.34378,21.1204609 18.2787929,21.0043672 L18.5,21 L106.5,21 L106.5,16 L18.5,16 Z" id="Path" fill="#000000" fill-rule="nonzero"></path>
    </g>
</svg>