<?xml version="1.0" encoding="UTF-8"?>
<svg  viewBox="0 0 117 116" version="1.1" xmlns="http://www.w3.org/2000/svg" xmlns:xlink="http://www.w3.org/1999/xlink">
    <title>text-align-center</title>
    <g id="text-align-center" stroke="none" stroke-width="1" fill="none" fill-rule="evenodd" transform="translate(0.000000, 0.000000)">
        <path d="M98.5,64 C104.29899,64 109,68.7010101 109,74.5 C109,80.2039245 104.451858,84.8455734 98.7842951,84.9962258 L98.5,85 L42.5,85 C39.4624339,85 37,87.4624339 37,90.5 C37,93.4634791 39.34378,95.8795391 42.2787929,95.9956328 L42.5,96 L82.5,96 L82.5,101 L42.5,101 C36.7010101,101 32,96.2989899 32,90.5 C32,84.7960755 36.548142,80.1544266 42.2157049,80.0037742 L42.5,80 L98.5,80 C101.537566,80 104,77.5375661 104,74.5 C104,71.5365209 101.65622,69.1204609 98.7212071,69.0043672 L98.5,69 L10.5,69 L10.5,64 L98.5,64 Z M109,16 L109,21 L21,21 L20.7787929,21.0043672 C17.84378,21.1204609 15.5,23.5365209 15.5,26.5 C15.5,29.4634791 17.84378,31.8795391 20.7787929,31.9956328 L21,32 L77,32 L77.2842951,32.0037742 C82.951858,32.1544266 87.5,36.7960755 87.5,42.5 C87.5,48.2039245 82.951858,52.8455734 77.2842951,52.9962258 L77,53 L37,53 L37,48 L77,48 L77.2212071,47.9956328 C80.15622,47.8795391 82.5,45.4634791 82.5,42.5 C82.5,39.5365209 80.15622,37.1204609 77.2212071,37.0043672 L77,37 L21,37 L20.7157049,36.9962258 C15.048142,36.8455734 10.5,32.2039245 10.5,26.5 C10.5,20.7960755 15.048142,16.1544266 20.7157049,16.0037742 L21,16 L109,16 Z" id="Shape" fill="#000000" fill-rule="nonzero"></path>
    </g>
</svg>