<?xml version="1.0" encoding="UTF-8"?>
<svg   viewBox="0 0 116 116" version="1.1" xmlns="http://www.w3.org/2000/svg" xmlns:xlink="http://www.w3.org/1999/xlink">
    <title>text</title>
    <g id="text" stroke="none" stroke-width="1" fill="none" fill-rule="evenodd">
        <path d="M98,23.5 C103.79899,23.5 108.5,28.2010101 108.5,34 C108.5,39.7039245 103.951858,44.3455734 98.2842951,44.4962258 L98,44.5 L18,44.5 C14.9624339,44.5 12.5,46.9624339 12.5,50 C12.5,52.9634791 14.84378,55.3795391 17.7787929,55.4956328 L18,55.5 L98,55.5 C103.79899,55.5 108.5,60.2010101 108.5,66 C108.5,71.7039245 103.951858,76.3455734 98.2842951,76.4962258 L98,76.5 L18,76.5 C14.9624339,76.5 12.5,78.9624339 12.5,82 C12.5,84.9634791 14.84378,87.3795391 17.7787929,87.4956328 L18,87.5 L58,87.5 C68.1049902,87.5 76.3177283,95.6016943 76.4970078,105.663876 L76.5,106 L71.5,106 C71.5,98.6477093 65.6225714,92.6681655 58.3098308,92.5034854 L58,92.5 L18,92.5 C12.2010101,92.5 7.5,87.7989899 7.5,82 C7.5,76.2960755 12.048142,71.6544266 17.7157049,71.5037742 L18,71.5 L98,71.5 C101.037566,71.5 103.5,69.0375661 103.5,66 C103.5,63.0365209 101.15622,60.6204609 98.2212071,60.5043672 L98,60.5 L18,60.5 C12.2010101,60.5 7.5,55.7989899 7.5,50 C7.5,44.2960755 12.048142,39.6544266 17.7157049,39.5037742 L18,39.5 L98,39.5 C101.037566,39.5 103.5,37.0375661 103.5,34 C103.5,31.0365209 101.15622,28.6204609 98.2212071,28.5043672 L98,28.5 L10,28.5 L10,23.5 L98,23.5 Z" id="Path-6" fill="#000000" fill-rule="nonzero"></path>
    </g>
</svg>