<?xml version="1.0" encoding="UTF-8"?>
<svg  viewBox="0 0 116 116" version="1.1" xmlns="http://www.w3.org/2000/svg" xmlns:xlink="http://www.w3.org/1999/xlink">
    <title>text</title>
    <g id="text" stroke="none" stroke-width="1" fill="none" fill-rule="evenodd">
        <path d="M98.5,16 C104.29899,16 109,20.7010101 109,26.5 C109,32.2039245 104.451858,36.8455734 98.7842951,36.9962258 L98.5,37 L18.5,37 C15.4624339,37 13,39.4624339 13,42.5 C13,45.4634791 15.34378,47.8795391 18.2787929,47.9956328 L18.5,48 L98.5,48 C104.29899,48 109,52.7010101 109,58.5 C109,64.2039245 104.451858,68.8455734 98.7842951,68.9962258 L98.5,69 L18.5,69 C15.4624339,69 13,71.4624339 13,74.5 C13,77.4634791 15.34378,79.8795391 18.2787929,79.9956328 L18.5,80 L58.5,80 C68.6049902,80 76.8177283,88.1016943 76.9970078,98.1638763 L77,98.5 L72,98.5 C72,91.1477093 66.1225714,85.1681655 58.8098308,85.0034854 L58.5,85 L18.5,85 C12.7010101,85 8,80.2989899 8,74.5 C8,68.7960755 12.548142,64.1544266 18.2157049,64.0037742 L18.5,64 L98.5,64 C101.537566,64 104,61.5375661 104,58.5 C104,55.5365209 101.65622,53.1204609 98.7212071,53.0043672 L98.5,53 L18.5,53 C12.7010101,53 8,48.2989899 8,42.5 C8,36.7960755 12.548142,32.1544266 18.2157049,32.0037742 L18.5,32 L98.5,32 C101.537566,32 104,29.5375661 104,26.5 C104,23.5365209 101.65622,21.1204609 98.7212071,21.0043672 L98.5,21 L10.5,21 L10.5,16 L98.5,16 Z" id="Path" fill="#000000" fill-rule="nonzero"></path>
    </g>
</svg>