<?xml version="1.0" encoding="UTF-8"?>
<svg  viewBox="0 0 116 116" version="1.1" xmlns="http://www.w3.org/2000/svg" xmlns:xlink="http://www.w3.org/1999/xlink">
    <title>text-font</title>
    <g id="text-font" stroke="none" stroke-width="1" fill="none" fill-rule="evenodd">
        <path d="M82.5,48 C92.6049902,48 100.817728,56.1016943 100.997008,66.1638763 L101,66.5 L101,90.5 C101,93.4634791 103.34378,95.8795391 106.278793,95.9956328 L106.5,96 L106.5,101 C101.624297,101 97.5247768,97.6767655 96.3429622,93.1718189 C92.7414416,97.8780079 87.1093401,100.889071 80.8484327,100.996998 L80.5,101 L78.5,101 C70.4918711,101 64,94.5081289 64,86.5 C64,78.5972412 70.3221564,72.1711012 78.1846885,72.0033605 L78.5,72 L90.5,72 L90.5,77 L78.5,77 C73.2532949,77 69,81.2532949 69,86.5 C69,91.6562447 73.1078939,95.8530394 78.2295213,95.9962236 L78.5,96 L80.5,96 C87.910921,96 94.2027242,90.5694953 95.2859091,83.2381624 C95.7261525,80.2584798 95.962095,77.5464414 95.9957889,75.1047807 L96,74.5 L96,66.5 C96,59.0441559 89.9558441,53 82.5,53 C75.1477093,53 69.1681655,58.8774286 69.0034854,66.1901692 L69,66.5 L64,66.5 C64,56.2827321 72.2827321,48 82.5,48 Z M35.5057176,18.6277102 C36.5663569,18.945902 37.4097391,19.7456108 37.787149,20.7781214 L37.852392,20.9743846 L60.8945657,97.7816303 L56.1054343,99.2183697 L34.5,27.199 L23.459,64 L40.5,64 L40.5,69 L21.959,69 L12.8945657,99.2183697 L8.10338283,97.7885043 L18.134345,64 L18.239,64 L31.147608,20.9743846 C31.7030505,19.1229096 33.6542426,18.0722677 35.5057176,18.6277102 Z" id="Shape" fill="#000000" fill-rule="nonzero"></path>
    </g>
</svg>