<?xml version="1.0" encoding="UTF-8"?>
<svg   viewBox="0 0 116 116" version="1.1" xmlns="http://www.w3.org/2000/svg" xmlns:xlink="http://www.w3.org/1999/xlink">
    <title>text-rulers</title>
    <g id="text-rulers" stroke="none" stroke-width="1" fill="none" fill-rule="evenodd">
        <path d="M106.5,24.0110636 L106.5,29.0110636 L93,29.011 L93,106.511064 L88,106.511064 L88,29.0110636 L34.5,29.0110636 L34.5,24.0110636 L106.5,24.0110636 Z M29,98.5110636 L29,106.511064 L24,106.511064 L24,98.5110636 L29,98.5110636 Z M23.8562745,10 L28.8562255,10.0221271 L28.51,88.0110636 L83,88.0110636 L83,93.0110636 L10.5,93.0110636 L10.5,88.0110636 L23.51,88.011 L23.8562745,10 Z M106.5,88.0110636 L106.5,93.0110636 L98.5,93.0110636 L98.5,88.0110636 L106.5,88.0110636 Z M78.5,40.0110636 C82.0898509,40.0110636 85,42.9212127 85,46.5110636 C85,50.0228742 82.2150038,52.8842141 78.7331341,53.0069606 L78.5,53.0110636 L38.5,53.0110636 C37.6715729,53.0110636 37,53.6826364 37,54.5110636 C37,55.2907597 37.5948881,55.9315122 38.35554,56.004197 L38.5,56.0110636 L79,56.0110636 C82.3137085,56.0110636 85,58.6973551 85,62.0110636 C85,65.2494605 82.4344251,67.8886353 79.2249383,68.0069251 L79,68.0110636 L38.5,68.0110636 C37.6715729,68.0110636 37,68.6826364 37,69.5110636 C37,70.2907597 37.5948881,70.9315122 38.35554,71.004197 L38.5,71.0110636 L74.5,71.0110636 C80.2039245,71.0110636 84.8455734,75.5592056 84.9962258,81.2267684 L85,81.5110636 L80,81.5110636 C80,78.5475844 77.65622,76.1315244 74.7212071,76.0154308 L74.5,76.0110636 L38.5,76.0110636 C34.9101491,76.0110636 32,73.1009144 32,69.5110636 C32,65.9992529 34.7849962,63.137913 38.2668659,63.0151666 L38.5,63.0110636 L79,63.0110636 C79.5522847,63.0110636 80,62.5633483 80,62.0110636 C80,61.4982277 79.6139598,61.0755564 79.1166211,61.0177913 L79,61.0110636 L38.5,61.0110636 C34.9101491,61.0110636 32,58.1009144 32,54.5110636 C32,50.9992529 34.7849962,48.137913 38.2668659,48.0151666 L38.5,48.0110636 L78.5,48.0110636 C79.3284271,48.0110636 80,47.3394907 80,46.5110636 C80,45.7313674 79.4051119,45.0906149 78.64446,45.0179301 L78.5,45.0110636 L34.5,45.0110636 L34.5,40.0110636 L78.5,40.0110636 Z M18.5,24.0110636 L18.5,29.0110636 L10,29.0110636 L10,24.0110636 L18.5,24.0110636 Z M93,10.5110636 L93,18.5110636 L88,18.5110636 L88,10.5110636 L93,10.5110636 Z" id="Shape" fill="#000000" fill-rule="nonzero"></path>
    </g>
</svg>