<?xml version="1.0" encoding="UTF-8"?>
<svg   viewBox="0 0 116 116" version="1.1" xmlns="http://www.w3.org/2000/svg" xmlns:xlink="http://www.w3.org/1999/xlink">
    <title>text-off</title>
    <g id="text-off" stroke="none" stroke-width="1" fill="none" fill-rule="evenodd">
        <path d="M11.767767,8.23 L107.767767,104.23 L104.232233,107.765534 L8.23223305,11.7655339 L11.767767,8.23 Z M65.5,71.497767 L65.5,76.497767 L18,76.497767 C14.9624339,76.497767 12.5,78.9602008 12.5,81.997767 C12.5,84.9612461 14.84378,87.3773061 17.7787929,87.4933997 L18,87.497767 L58,87.497767 C68.1049902,87.497767 76.3177283,95.5994612 76.4970078,105.661643 L76.5,105.997767 L71.5,105.997767 C71.5,98.6454762 65.6225714,92.6659325 58.3098308,92.5012523 L58,92.497767 L18,92.497767 C12.2010101,92.497767 7.5,87.7967568 7.5,81.997767 C7.5,76.2938425 12.048142,71.6521935 17.7157049,71.5015412 L18,71.497767 L65.5,71.497767 Z M98,55.497767 C103.79899,55.497767 108.5,60.1987771 108.5,65.997767 C108.5,71.7016914 103.951858,76.3433404 98.2842951,76.4939927 L98,76.497767 L82,76.497767 L82,71.497767 L98,71.497767 C101.037566,71.497767 103.5,69.0353331 103.5,65.997767 C103.5,63.0342878 101.15622,60.6182278 98.2212071,60.5021342 L98,60.497767 L66,60.497767 L66,55.497767 L98,55.497767 Z M34,39.497767 L34,44.497767 L18,44.497767 C14.9624339,44.497767 12.5,46.9602008 12.5,49.997767 C12.5,52.9612461 14.84378,55.3773061 17.7787929,55.4933997 L18,55.497767 L50,55.497767 L50,60.497767 L18,60.497767 C12.2010101,60.497767 7.5,55.7967568 7.5,49.997767 C7.5,44.2938425 12.048142,39.6521935 17.7157049,39.5015412 L18,39.497767 L34,39.497767 Z M98,23.497767 C103.79899,23.497767 108.5,28.1987771 108.5,33.997767 C108.5,39.7016914 103.951858,44.3433404 98.2842951,44.4939927 L98,44.497767 L50,44.497767 L50,39.497767 L98,39.497767 C101.037566,39.497767 103.5,37.0353331 103.5,33.997767 C103.5,31.0342878 101.15622,28.6182278 98.2212071,28.5021342 L98,28.497767 L34,28.497767 L34,23.497767 L98,23.497767 Z M18,23.497767 L18,28.497767 L10,28.497767 L10,23.497767 L18,23.497767 Z" id="Shape" fill="#000000" fill-rule="nonzero"></path>
    </g>
</svg>