<?xml version="1.0" encoding="UTF-8"?>
<svg  viewBox="0 0 116 116" version="1.1" xmlns="http://www.w3.org/2000/svg" xmlns:xlink="http://www.w3.org/1999/xlink">
    <title>text-rulers</title>
    <g id="text-rulers" stroke="none" stroke-width="1" fill="none" fill-rule="evenodd">
        <path d="M106,23.5 L106,28.5 L92.5,28.4999364 L92.5,106 L87.5,106 L87.5,28.5 L34,28.5 L34,23.5 L106,23.5 Z M28.5,98 L28.5,106 L23.5,106 L23.5,98 L28.5,98 Z M23.3562745,9.48893644 L28.3562255,9.51106356 L28.01,87.5 L82.5,87.5 L82.5,92.5 L10,92.5 L10,87.5 L23.01,87.4999364 L23.3562745,9.48893644 Z M106,87.5 L106,92.5 L98,92.5 L98,87.5 L106,87.5 Z M74.5,40 C80.2989899,40 85,44.7010101 85,50.5 C85,56.2039245 80.451858,60.8455734 74.7842951,60.9962258 L74.5,61 L42.5,61 C39.4624339,61 37,63.4624339 37,66.5 C37,69.4634791 39.34378,71.8795391 42.2787929,71.9956328 L42.5,72 L74.5,72 C80.2039245,72 84.8455734,76.548142 84.9962258,82.2157049 L85,82.5 L80,82.5 C80,79.5365209 77.65622,77.1204609 74.7212071,77.0043672 L74.5,77 L42.5,77 C36.7010101,77 32,72.2989899 32,66.5 C32,60.7960755 36.548142,56.1544266 42.2157049,56.0037742 L42.5,56 L74.5,56 C77.5375661,56 80,53.5375661 80,50.5 C80,47.5365209 77.65622,45.1204609 74.7212071,45.0043672 L74.5,45 L34.5,45 L34.5,40 L74.5,40 Z M18,23.5 L18,28.5 L9.5,28.5 L9.5,23.5 L18,23.5 Z M92.5,10 L92.5,18 L87.5,18 L87.5,10 L92.5,10 Z" id="Shape" fill="#000000" fill-rule="nonzero"></path>
    </g>
</svg>