<?xml version="1.0" encoding="UTF-8"?>
<svg width="128px" height="128px" viewBox="0 0 128 128" version="1.1" xmlns="http://www.w3.org/2000/svg" xmlns:xlink="http://www.w3.org/1999/xlink">
    <title>text-off</title>
    <g id="text-off" stroke="none" stroke-width="1" fill="none" fill-rule="evenodd">
        <path d="M17.767767,14.232233 L113.767767,110.232233 L110.232233,113.767767 L14.232233,17.767767 L17.767767,14.232233 Z M71.5,77.5 L71.5,82.5 L24,82.5 C20.9624339,82.5 18.5,84.9624339 18.5,88 C18.5,90.9634791 20.84378,93.3795391 23.7787929,93.4956328 L24,93.5 L64,93.5 C74.1049902,93.5 82.3177283,101.601694 82.4970078,111.663876 L82.5,112 L77.5,112 C77.5,104.647709 71.6225714,98.6681655 64.3098308,98.5034854 L64,98.5 L24,98.5 C18.2010101,98.5 13.5,93.7989899 13.5,88 C13.5,82.2960755 18.048142,77.6544266 23.7157049,77.5037742 L24,77.5 L71.5,77.5 Z M104,61.5 C109.79899,61.5 114.5,66.2010101 114.5,72 C114.5,77.7039245 109.951858,82.3455734 104.284295,82.4962258 L104,82.5 L88,82.5 L88,77.5 L104,77.5 C107.037566,77.5 109.5,75.0375661 109.5,72 C109.5,69.0365209 107.15622,66.6204609 104.221207,66.5043672 L104,66.5 L72,66.5 L72,61.5 L104,61.5 Z M40,45.5 L40,50.5 L24,50.5 C20.9624339,50.5 18.5,52.9624339 18.5,56 C18.5,58.9634791 20.84378,61.3795391 23.7787929,61.4956328 L24,61.5 L56,61.5 L56,66.5 L24,66.5 C18.2010101,66.5 13.5,61.7989899 13.5,56 C13.5,50.2960755 18.048142,45.6544266 23.7157049,45.5037742 L24,45.5 L40,45.5 Z M104,29.5 C109.79899,29.5 114.5,34.2010101 114.5,40 C114.5,45.7039245 109.951858,50.3455734 104.284295,50.4962258 L104,50.5 L56,50.5 L56,45.5 L104,45.5 C107.037566,45.5 109.5,43.0375661 109.5,40 C109.5,37.0365209 107.15622,34.6204609 104.221207,34.5043672 L104,34.5 L40,34.5 L40,29.5 L104,29.5 Z M24,29.5 L24,34.5 L16,34.5 L16,29.5 L24,29.5 Z" id="Shape" fill="#000000" fill-rule="nonzero"></path>
    </g>
</svg>