<?xml version="1.0" encoding="UTF-8"?>
<svg  viewBox="0 0 116 116" version="1.1" xmlns="http://www.w3.org/2000/svg" xmlns:xlink="http://www.w3.org/1999/xlink">
    <title>text-align-right</title>
    <g id="text-align-right" stroke="none" stroke-width="1" fill="none" fill-rule="evenodd" transform="translate(0.000000, 0.000000)">
        <path d="M106.5,64 L106.5,69 L18.5,69 L18.2787929,69.0043672 C15.34378,69.1204609 13,71.5365209 13,74.5 C13,77.4634791 15.34378,79.8795391 18.2787929,79.9956328 L18.5,80 L98.5,80 L98.7842951,80.0037742 C104.451858,80.1544266 109,84.7960755 109,90.5 C109,96.2039245 104.451858,100.845573 98.7842951,100.996226 L98.5,101 L66.5,101 L66.2787929,101.004367 C63.4190368,101.117484 61.1205826,103.414132 61.0045933,106.273149 L61,106.5 L56,106.5 L56.0037742,106.215705 C56.1519157,100.642601 60.6426014,96.1519157 66.2157049,96.0037742 L66.5,96 L98.5,96 L98.7212071,95.9956328 C101.65622,95.8795391 104,93.4634791 104,90.5 C104,87.5365209 101.65622,85.1204609 98.7212071,85.0043672 L98.5,85 L18.5,85 L18.2157049,84.9962258 C12.548142,84.8455734 8,80.2039245 8,74.5 C8,68.7960755 12.548142,64.1544266 18.2157049,64.0037742 L18.5,64 L106.5,64 Z M106.5,16 L106.5,21 L18.5,21 L18.2787929,21.0043672 C15.34378,21.1204609 13,23.5365209 13,26.5 C13,29.4634791 15.34378,31.8795391 18.2787929,31.9956328 L18.5,32 L98.5,32 L98.7842951,32.0037742 C104.451858,32.1544266 109,36.7960755 109,42.5 C109,48.2039245 104.451858,52.8455734 98.7842951,52.9962258 L98.5,53 L58.5,53 L58.5,48 L98.5,48 L98.7212071,47.9956328 C101.65622,47.8795391 104,45.4634791 104,42.5 C104,39.5365209 101.65622,37.1204609 98.7212071,37.0043672 L98.5,37 L18.5,37 L18.2157049,36.9962258 C12.548142,36.8455734 8,32.2039245 8,26.5 C8,20.7960755 12.548142,16.1544266 18.2157049,16.0037742 L18.5,16 L106.5,16 Z" id="Shape" fill="#000000" fill-rule="nonzero"></path>
    </g>
</svg>