<?xml version="1.0" encoding="UTF-8"?>
<svg  viewBox="0 0 117 116" version="1.1" xmlns="http://www.w3.org/2000/svg" xmlns:xlink="http://www.w3.org/1999/xlink">
    <title>text-align-left</title>
    <g id="text-align-left" stroke="none" stroke-width="1" fill="none" fill-rule="evenodd" transform="translate(0.000000, 0.000000)">
        <path d="M98.5,64 C104.29899,64 109,68.7010101 109,74.5 C109,80.2039245 104.451858,84.8455734 98.7842951,84.9962258 L98.5,85 L18.5,85 C15.4624339,85 13,87.4624339 13,90.5 C13,93.4634791 15.34378,95.8795391 18.2787929,95.9956328 L18.5,96 L50.5,96 C56.2039245,96 60.8455734,100.548142 60.9962258,106.215705 L61,106.5 L56,106.5 C56,103.536521 53.65622,101.120461 50.7212071,101.004367 L50.5,101 L18.5,101 C12.7010101,101 8,96.2989899 8,90.5 C8,84.7960755 12.548142,80.1544266 18.2157049,80.0037742 L18.5,80 L98.5,80 C101.537566,80 104,77.5375661 104,74.5 C104,71.5365209 101.65622,69.1204609 98.7212071,69.0043672 L98.5,69 L10.5,69 L10.5,64 L98.5,64 Z M98.5,16 C104.29899,16 109,20.7010101 109,26.5 C109,32.2039245 104.451858,36.8455734 98.7842951,36.9962258 L98.5,37 L18.5,37 C15.4624339,37 13,39.4624339 13,42.5 C13,45.4634791 15.34378,47.8795391 18.2787929,47.9956328 L18.5,48 L58.5,48 L58.5,53 L18.5,53 C12.7010101,53 8,48.2989899 8,42.5 C8,36.7960755 12.548142,32.1544266 18.2157049,32.0037742 L18.5,32 L98.5,32 C101.537566,32 104,29.5375661 104,26.5 C104,23.5365209 101.65622,21.1204609 98.7212071,21.0043672 L98.5,21 L10.5,21 L10.5,16 L98.5,16 Z" id="Shape" fill="#000000" fill-rule="nonzero"></path>
    </g>
</svg>