<?xml version="1.0" encoding="UTF-8"?>
<svg   viewBox="0 0 128 128" version="1.1" xmlns="http://www.w3.org/2000/svg" xmlns:xlink="http://www.w3.org/1999/xlink">
    <title>text-rulers</title>
    <g id="text-rulers" stroke="none" stroke-width="1" fill="none" fill-rule="evenodd">
        <path d="M112,29.5 L112,34.5 L98.5,34.4999364 L98.5,112 L93.5,112 L93.5,34.5 L40,34.5 L40,29.5 L112,29.5 Z M34.5,104 L34.5,112 L29.5,112 L29.5,104 L34.5,104 Z M29.3562745,15.4889364 L34.3562255,15.5110636 L34.01,93.5 L88.5,93.5 L88.5,98.5 L16,98.5 L16,93.5 L29.01,93.4999364 L29.3562745,15.4889364 Z M112,93.5 L112,98.5 L104,98.5 L104,93.5 L112,93.5 Z M84,45.5 C87.5898509,45.5 90.5,48.4101491 90.5,52 C90.5,55.5118106 87.7150038,58.3731506 84.2331341,58.495897 L84,58.5 L44,58.5 C43.1715729,58.5 42.5,59.1715729 42.5,60 C42.5,60.7796961 43.0948881,61.4204487 43.85554,61.4931334 L44,61.5 L84.5,61.5 C87.8137085,61.5 90.5,64.1862915 90.5,67.5 C90.5,70.7383969 87.9344251,73.3775718 84.7249383,73.4958615 L84.5,73.5 L44,73.5 C43.1715729,73.5 42.5,74.1715729 42.5,75 C42.5,75.7796961 43.0948881,76.4204487 43.85554,76.4931334 L44,76.5 L80,76.5 C85.7039245,76.5 90.3455734,81.048142 90.4962258,86.7157049 L90.5,87 L85.5,87 C85.5,84.0365209 83.15622,81.6204609 80.2212071,81.5043672 L80,81.5 L44,81.5 C40.4101491,81.5 37.5,78.5898509 37.5,75 C37.5,71.4881894 40.2849962,68.6268494 43.7668659,68.504103 L44,68.5 L84.5,68.5 C85.0522847,68.5 85.5,68.0522847 85.5,67.5 C85.5,66.9871642 85.1139598,66.5644928 84.6166211,66.5067277 L84.5,66.5 L44,66.5 C40.4101491,66.5 37.5,63.5898509 37.5,60 C37.5,56.4881894 40.2849962,53.6268494 43.7668659,53.504103 L44,53.5 L84,53.5 C84.8284271,53.5 85.5,52.8284271 85.5,52 C85.5,51.2203039 84.9051119,50.5795513 84.14446,50.5068666 L84,50.5 L40,50.5 L40,45.5 L84,45.5 Z M24,29.5 L24,34.5 L15.5,34.5 L15.5,29.5 L24,29.5 Z M98.5,16 L98.5,24 L93.5,24 L93.5,16 L98.5,16 Z" id="Shape" fill="#000000" fill-rule="nonzero"></path>
    </g>
</svg>