<?xml version="1.0" encoding="UTF-8"?>
<svg  viewBox="0 0 117 116" version="1.1" xmlns="http://www.w3.org/2000/svg" xmlns:xlink="http://www.w3.org/1999/xlink">
    <title>text-size</title>
    <g id="text-size" stroke="none" stroke-width="1" fill="none" fill-rule="evenodd" transform="translate(1.000000, 0.000000)">
        <path d="M31.4534518,44.7193276 C32.4629601,45.0206734 33.2664162,45.7798693 33.6277595,46.7608549 L33.6940634,46.9599393 L48.8955475,97.8849112 L44.1044525,99.3150888 L30.5,53.741 L24.255,74.66 L34.5,74.66 L34.5,79.66 L22.762,79.66 L16.8955475,99.3150888 L12.1024189,97.8917593 L18.9650344,74.66 L19.036,74.66 L27.3059366,46.9599393 C27.8325135,45.1959068 29.6894193,44.1927508 31.4534518,44.7193276 Z M79.5057176,18.6277102 C80.5663569,18.945902 81.4097391,19.7456108 81.787149,20.7781214 L81.852392,20.9743846 L104.894566,97.7816303 L100.105434,99.2183697 L78.5,27.199 L67.459,64 L84.5,64 L84.5,69 L65.959,69 L56.8945657,99.2183697 L52.1033828,97.7885043 L62.134345,64 L62.239,64 L75.147608,20.9743846 C75.7030505,19.1229096 77.6542426,18.0722677 79.5057176,18.6277102 Z" id="Shape" fill="#000000" fill-rule="nonzero"></path>
    </g>
</svg>