<?xml version="1.0" encoding="UTF-8"?>
<svg  viewBox="0 0 116 116" version="1.1" xmlns="http://www.w3.org/2000/svg" xmlns:xlink="http://www.w3.org/1999/xlink">
    <title>text-shadow</title>
    <g id="text-shadow" stroke="none" stroke-width="1" fill="none" fill-rule="evenodd">
        <path d="M68.5,60 C70.9142733,60 72.8844891,61.9012365 72.995102,64.2881643 L73,64.5 L73,68.5 C73,70.9142733 71.0987635,72.8844891 68.7118357,72.995102 L68.5,73 L49,73 L49,100.5 C49,102.914273 47.0987635,104.884489 44.7118357,104.995102 L44.5,105 L30.5,105 L30.5,100 L44,100 L44,72.5 C44,70.0857267 45.9012365,68.1155109 48.2881643,68.004898 L48.5,68 L68,68 L68,65 L41,65 L41,92.5 C41,94.9142733 39.0987635,96.8844891 36.7118357,96.995102 L36.5,97 L22.5,97 L22.5,92 L36,92 L36,64.5 C36,62.0857267 37.9012365,60.1155109 40.2881643,60.004898 L40.5,60 L68.5,60 Z M85.6715729,12 C86.7854821,12 87.8568101,12.4129988 88.6808362,13.1541984 L88.8535534,13.3180195 L95.6819805,20.1464466 C96.4696333,20.9340994 96.9351423,21.9836769 96.9937095,23.0904586 L97,23.3284271 L97,100.5 C97,102.914273 95.0987635,104.884489 92.7118357,104.995102 L92.5,105 L78.5,105 L78.5,100 L92,100 L92,23.535 L89,20.535 L89,92.5 C89,94.9142733 87.0987635,96.8844891 84.7118357,96.995102 L84.5,97 L70.5,97 L70.5,92 L84,92 L84,17 L82.5,17 L82.5,12 L85.6715729,12 Z M37.6715729,12 C38.7854821,12 39.8568101,12.4129988 40.6808362,13.1541984 L40.8535534,13.3180195 L47.6819805,20.1464466 C48.4696333,20.9340994 48.9351423,21.9836769 48.9937095,23.0904586 L49,23.3284271 L49,44 L50.5,44 L50.5,49 L40.5,49 C38.0857267,49 36.1155109,47.0987635 36.004898,44.7118357 L36,44.5 L36,22.5 L41,22.5 L41,44 L44,44 L44,23.535 L37.465,17 L34.5,17 L34.5,12 L37.6715729,12 Z" id="Shape" fill="#000000" fill-rule="nonzero"></path>
    </g>
</svg>