<?xml version="1.0" encoding="UTF-8"?>
<svg  viewBox="0 0 116 116" version="1.1" xmlns="http://www.w3.org/2000/svg" xmlns:xlink="http://www.w3.org/1999/xlink">
    <title>thermometer</title>
    <g id="thermometer" stroke="none" stroke-width="1" fill="none" fill-rule="evenodd">
        <path d="M58.499902,8 C66.4027476,8 72.8289319,14.3221096 72.9967398,22.1846661 L73.000103,22.4999785 L73,69.294 L73.30742,69.5583568 C78.0367237,73.6918957 80.8747973,79.6410422 80.9959568,86.0706616 L81,86.5 C81,98.9264069 70.9264069,109 58.5,109 C46.0735931,109 36,98.9264069 36,86.5 C36,79.9058863 38.8585806,73.7829123 43.693556,69.5575031 L44,69.293 L43.9996935,64 L50.5,64 L50.5,69 L49,69 L49.0006432,71.7469715 L48.0018732,72.497129 C43.6244145,75.7849569 41,80.9220401 41,86.5 C41,96.1649831 48.8350169,104 58.5,104 C68.1649831,104 76,96.1649831 76,86.5 C76,81.0521387 73.496583,76.0248196 69.3015199,72.7301584 L68.9990066,72.4977899 L68.0005256,71.7477516 L68.000103,22.5000215 C68.0000579,17.2532793 63.7467182,13 58.499902,13 C53.3437429,13 49.1470135,17.10791 49.0038721,22.2295028 L49.000098,22.4999796 L49,24 L50.5,24 L50.5,29 L44,29 L44.000098,22.5000204 C44.0000326,14.4919253 50.4918316,8 58.499902,8 Z M61,42.5 L61,78.374 L61.1866574,78.4333356 C64.4876615,79.5322298 66.8888056,82.6006799 66.9962434,86.2448397 L67,86.5 C67,91.1944204 63.1944204,95 58.5,95 C53.8909327,95 50.1386785,91.331547 50.0037566,86.7551603 L50,86.5 L55,86.5 C55,88.4329966 56.5670034,90 58.5,90 C60.4329966,90 62,88.4329966 62,86.5 C62,84.6314366 60.5357224,83.1048736 58.6920352,83.0051789 L58.5,83 L56,83 L56,42.5 L61,42.5 Z M50.5,56 L50.5,61 L42.5,61 L42.5,56 L50.5,56 Z M50.5,48 L50.5,53 L42.5,53 L42.5,48 L50.5,48 Z M50.5,40 L50.5,45 L42.5,45 L42.5,40 L50.5,40 Z M50.5,32 L50.5,37 L42.5,37 L42.5,32 L50.5,32 Z" id="Shape" fill="#000000" fill-rule="nonzero"></path>
    </g>
</svg>