<?xml version="1.0" encoding="UTF-8"?>
<svg  viewBox="0 0 116 116" version="1.1" xmlns="http://www.w3.org/2000/svg" xmlns:xlink="http://www.w3.org/1999/xlink">
    <title>three-circles-joined</title>
    <g id="three-circles-joined" stroke="none" stroke-width="1" fill="none" fill-rule="evenodd">
        <path d="M29,74.5 C29,90.7924001 42.2075999,104 58.5,104 C74.6294761,104 87.7355395,91.0552314 87.9960478,74.9878364 L88,74.5 L93,74.5 C93,93.5538239 77.5538239,109 58.5,109 C39.6367144,109 24.3092843,93.8612028 24.004622,75.0705206 L24,74.5 L29,74.5 Z M74.5,8 C93.5538239,8 109,23.4461761 109,42.5 C109,61.5538239 93.5538239,77 74.5,77 C69.3005112,77 64.2609181,75.8471392 59.6697921,73.6581493 L59.009207,73.3342434 L58.7663263,73.2092101 C58.2513737,72.9406629 57.8113401,72.5481948 57.4858877,72.0671808 C56.4026417,70.4661585 56.8224109,68.290104 58.4234025,67.2070079 L58.8757394,66.8957749 C61.8886085,64.7739964 64.3753658,62.4392224 66.3436029,59.879083 C69.9644663,54.9191877 72,48.8782356 72,42.5 C72,26.2075999 58.7924001,13 42.5,13 C26.2075999,13 13,26.2075999 13,42.5 C13,58.7924001 26.2075999,72 42.5,72 C44.7922427,72 47.0482574,71.7390196 49.238109,71.2275419 L49.8930497,71.0665942 L51.1421092,75.9080661 C48.3410035,76.630728 45.4437281,77 42.5,77 C23.4461761,77 8,61.5538239 8,42.5 C8,23.4461761 23.4461761,8 42.5,8 C61.3632856,8 76.6907157,23.1387972 76.995378,41.9294794 L77,42.5 C77,50.0913147 74.8846288,56.7441101 70.6872081,62.421251 L70.3515078,62.8674187 C68.6518629,65.1883234 66.6553572,67.3052973 64.3959998,69.1623518 L63.9975753,69.4849594 L63.9082241,69.370769 L63.5664755,69.6404411 L63.5664755,69.6404411 L63.339,69.815 L63.4105212,69.8455334 C66.7208406,71.1896183 70.2687489,71.924348 73.9222698,71.9944608 L74.5,72 C90.7924001,72 104,58.7924001 104,42.5 C104,26.2075999 90.7924001,13 74.5,13 C72.0388334,13 69.6196656,13.3008717 67.2797991,13.8893706 L66.6436478,14.0569916 L65.3154142,9.23663939 C68.2835955,8.41876593 71.3652326,8 74.5,8 Z M51.2174596,17.040484 L54.5926623,20.7293872 C48.5203182,26.2853452 45,34.1069056 45,42.5 L45.0021796,42.7454662 C49.1728998,40.9715406 53.7429041,40 58.5,40 C62.0307528,40 65.4922576,40.5313025 68.7970233,41.5635215 L69.4558607,41.7766352 L67.8690305,46.5181507 C64.8765689,45.5166717 61.7249808,45 58.5,45 C53.8760312,45 49.4586322,46.0735968 45.5144686,48.0081305 C46.5962534,53.7409143 49.3537755,58.9965458 53.4488356,63.1664129 L53.7952222,63.5133886 L50.2857603,67.0748036 C45.7187624,62.5744279 42.5122355,56.9356792 40.9946744,50.7530764 C36.2547442,54.2451402 32.5677241,59.1449716 30.585646,64.9315809 L30.4533994,65.3267395 L25.7008145,63.7733765 C28.2508652,55.9713802 33.435768,49.5115675 40.1130639,45.3046847 C40.0379247,44.3770089 40,43.4414826 40,42.5 C40,32.688925 44.1204506,23.5339705 51.2174596,17.040484 Z M80.262629,47.7285926 C85.1791741,51.7297956 88.9184656,57.012324 91.0340925,62.9941599 L91.227662,63.556988 L86.4855191,65.1419424 C84.770079,60.0093896 81.6609575,55.450957 77.5368145,51.9635712 L77.1065738,51.6066482 L80.262629,47.7285926 Z" id="Shape" fill="#000000" fill-rule="nonzero"></path>
    </g>
</svg>