<?xml version="1.0" encoding="UTF-8"?>
<svg  viewBox="0 0 116 116" version="1.1" xmlns="http://www.w3.org/2000/svg" xmlns:xlink="http://www.w3.org/1999/xlink">
    <title>three-dots-vert</title>
    <g id="three-dots-vert" stroke="none" stroke-width="1" fill="none" fill-rule="evenodd">
        <path d="M60.0908072,74.4498767 L65.0593819,75.0095776 L64.9882241,75.7137674 C64.9035816,76.6591554 64.8600748,77.6312414 64.8600748,78.6399252 C64.8600748,82.3964275 65.3983743,85.4087656 66.5344364,89.0951599 L66.7411352,89.7529859 L67.6732536,92.5966594 L67.8487016,93.1504588 L68.002399,93.6547608 L68.1410093,94.1324775 C68.574312,95.6670915 68.8140606,96.9693905 68.8540702,98.2546449 L68.858,98.5 L69,98.5 L68.9962258,98.7842951 C68.8455734,104.451858 64.2039245,109 58.5,109 C52.7010101,109 48,104.29899 48,98.5 C48,92.7960755 52.548142,88.1544266 58.2157049,88.0037742 L58.5,88 L58.5,93 L58.2787929,93.0043672 C55.34378,93.1204609 53,95.5365209 53,98.5 C53,101.537566 55.4624339,104 58.5,104 C61.4634791,104 63.8795391,101.65622 63.9956328,98.7212071 L63.997,98.639 L63.8600748,98.6399252 L63.8648055,98.1720247 L63.8636732,97.8128231 L63.8461758,97.5556058 L63.8246314,97.3898006 L63.7924385,97.206361 L63.6883707,96.7570322 L63.5184996,96.1485261 L63.2673521,95.3217495 L61.9790144,91.2768645 C60.5565832,86.8317671 59.8600748,83.2041189 59.8600748,78.6399252 C59.8600748,77.4329125 59.914611,76.2661039 60.0208686,75.1288024 L60.0908072,74.4498767 Z M58.5,8 C64.2039245,8 68.8455734,12.548142 68.9962258,18.2157049 L69,18.5 L68.991469,18.9885764 C68.9630889,19.8031744 68.8641819,20.6210807 68.6989827,21.4691344 C68.5369686,22.3008376 68.3176217,23.1400726 68.0146629,24.1258392 L67.8796277,24.5576871 L66.9303001,27.4257394 L66.6684414,28.237135 C65.5257602,31.8674128 65,34.7588236 65,38.5 C65,42.2565023 65.5382996,45.2688403 66.6743616,48.9552347 L66.9465639,49.8169044 L67.8131788,52.4567342 L67.9886269,53.0105335 L68.2130988,53.7555851 L68.4051125,54.4461823 C68.7558059,55.7708967 68.9530789,56.9290626 68.9925878,58.0718713 L69,58.5 L68.9962258,58.7842951 C68.8455734,64.451858 64.2039245,69 58.5,69 C52.7010101,69 48,64.2989899 48,58.5 C48,52.7960755 52.548142,48.1544266 58.2157049,48.0037742 L58.5,48 L58.5,53 L58.2787929,53.0043672 C55.34378,53.1204609 53,55.5365209 53,58.5 C53,61.5375661 55.4624339,64 58.5,64 C61.4634791,64 63.8795391,61.65622 63.9956328,58.7212071 L64,58.5 L64.0006854,58.3424876 L64.0061096,57.8980926 L64.0020094,57.6311584 L63.9865001,57.4194742 L63.9644776,57.2493592 L63.9172792,56.9922008 L63.8451489,56.6829952 L63.7431235,56.3027882 L63.5231757,55.5578881 L63.2080474,54.546618 L62.1189396,51.1369393 C60.6965085,46.6918419 60,43.0641937 60,38.5 C60,34.1683917 60.6191842,30.7913921 61.9135017,26.6902988 L62.1234864,26.0364955 L63.0312485,23.3007956 L63.2296837,22.6751367 C63.4873772,21.8378907 63.6661948,21.1549914 63.7912312,20.5131141 C63.9027874,19.9404377 63.9694657,19.4053397 63.9916748,18.8864562 L64,18.5 L63.9956328,18.2787929 C63.8795391,15.34378 61.4634791,13 58.5,13 C55.4624339,13 53,15.4624339 53,18.5 C53,21.4634791 55.34378,23.8795391 58.2787929,23.9956328 L58.5,24 L58.5,29 L58.2157049,28.9962258 C52.548142,28.8455734 48,24.2039245 48,18.5 C48,12.7010101 52.7010101,8 58.5,8 Z" id="Shape" fill="#000000" fill-rule="nonzero"></path>
    </g>
</svg>