<?xml version="1.0" encoding="UTF-8"?>
<svg  viewBox="0 0 116 116" version="1.1" xmlns="http://www.w3.org/2000/svg" xmlns:xlink="http://www.w3.org/1999/xlink">
    <title>three-dots</title>
    <g id="three-dots" stroke="none" stroke-width="1" fill="none" fill-rule="evenodd">
        <path d="M58.5,48 C64.2989899,48 69,52.7010101 69,58.5 C69,64.2039245 64.451858,68.8455734 58.7842951,68.9962258 L58.5,69 C57.2160017,69 55.936486,68.7996426 54.4461823,68.4051125 L53.7555851,68.2130988 L53.0105335,67.9886269 L52.4567342,67.8131788 L49.8169044,66.9465639 L49.6130607,66.8810604 C45.6206581,65.6034915 42.477473,65 38.5,65 C34.7588236,65 31.8674128,65.5257602 28.237135,66.6684414 L27.4257394,66.9303001 L24.5576871,67.8796277 C23.3800078,68.2537811 22.4196523,68.5138237 21.4691344,68.6989827 C20.6210807,68.8641819 19.8031744,68.9630889 18.9885764,68.991469 L18.5,69 C12.7010101,69 8,64.2989899 8,58.5 C8,52.7010101 12.7010101,48 18.5,48 C24.2039245,48 28.8455734,52.548142 28.9962258,58.2157049 L29,58.5 L24,58.5 C24,55.4624339 21.5375661,53 18.5,53 C15.4624339,53 13,55.4624339 13,58.5 C13,61.4634791 15.34378,63.8795391 18.2787929,63.9956328 L18.5,64 C19.1401393,64 19.7972686,63.9306765 20.5131141,63.7912312 C21.1549914,63.6661948 21.8378907,63.4873772 22.6751367,63.2296837 L23.3007956,63.0312485 L26.0364955,62.1234864 C30.4385629,60.6860766 33.9404123,60 38.5,60 C43.0641937,60 46.6918419,60.6965085 51.1369393,62.1189396 L54.546618,63.2080474 L55.5578881,63.5231757 L56.3027882,63.7431235 L56.6829952,63.8451489 L56.9922008,63.9172792 L57.2493592,63.9644776 L57.4194742,63.9865001 L57.6311584,64.0020094 L57.8980926,64.0061096 L58.3424876,64.0006854 L58.5,64 C61.5375661,64 64,61.5375661 64,58.5 C64,55.4624339 61.5375661,53 58.5,53 C55.5365209,53 53.1204609,55.34378 53.0043672,58.2787929 L53,58.5 L48,58.5 C48,52.7010101 52.7010101,48 58.5,48 Z M94.4461823,68.4051125 L93.7555851,68.2130988 L93.0105335,67.9886269 L92.4567342,67.8131788 L89.8169044,66.9465639 L89.6130607,66.8810604 C85.6206581,65.6034915 82.477473,65 78.5,65 C77.4913162,65 76.5192302,65.0435068 75.5738422,65.1281493 L74.8696524,65.1993071 L74.3099515,60.2307324 C75.6610635,60.0785321 77.0515847,60 78.5,60 C83.0641937,60 86.6918419,60.6965085 91.1369393,62.1189396 L94.546618,63.2080474 L95.5578881,63.5231757 L96.3027882,63.7431235 L96.6829952,63.8451489 L96.9922008,63.9172792 L97.2493592,63.9644776 L97.4194742,63.9865001 L97.6311584,64.0020094 L97.8980926,64.0061096 L98.3424876,64.0006854 L98.5,64 C101.537566,64 104,61.5375661 104,58.5 C104,55.4624339 101.537566,53 98.5,53 C95.5365209,53 93.1204609,55.34378 93.0043672,58.2787929 L93,58.5 L88,58.5 C88,52.7010101 92.7010101,48 98.5,48 C104.29899,48 109,52.7010101 109,58.5 C109,64.2039245 104.451858,68.8455734 98.7842951,68.9962258 L98.5,69 C97.2160017,69 95.936486,68.7996426 94.4461823,68.4051125 Z" id="Shape" fill="#000000" fill-rule="nonzero"></path>
    </g>
</svg>