<?xml version="1.0" encoding="UTF-8"?>
<svg  viewBox="0 0 116 116" version="1.1" xmlns="http://www.w3.org/2000/svg" xmlns:xlink="http://www.w3.org/1999/xlink">
    <title>thumbs-down</title>
    <g id="thumbs-down" stroke="none" stroke-width="1" fill="none" fill-rule="evenodd">
        <path d="M53.6538554,30.6021193 C55.3438528,27.2221244 59.4538936,25.8521109 62.8338884,27.5421083 C63.4295169,27.8399225 63.9784794,28.2230931 64.4634117,28.6795 C67.6682488,31.6958173 69.0091771,36.1885409 68.0001603,40.4548127 L67.9179004,40.7825121 L63.5867484,57.0880256 C62.8069365,60.0237881 64.5546797,63.0358563 67.4904422,63.8156682 C67.8589879,63.9135631 68.2364634,63.9727985 68.6167603,63.9925769 L68.9024166,64 L92.5,64 C97.1944204,64 101,67.8055796 101,72.5 C101,75.3166522 99.6299913,77.8133218 97.5199896,79.3599931 L97.356,79.476 C98.3442384,80.8227388 98.9437738,82.4651338 98.9962434,84.2448397 L99,84.5 C99,87.9141239 96.9871314,90.8581172 94.0833855,92.2099886 L93.889,92.296 L93.9954072,92.4878744 C94.5987187,93.6126157 94.9562665,94.8888733 94.9962434,96.2448397 L95,96.5 C95,100.426242 92.3379813,103.730737 88.7203524,104.707076 L88.485,104.766 L88.5571938,104.955072 C88.817736,105.677444 88.9705206,106.45131 88.9961464,107.257269 L89,107.5 C89,111.560917 85.7725256,114.868018 81.7427311,114.996146 L81.5,115 L50.5,115 C40.3950098,115 32.1822717,106.898306 32.0029922,96.8361237 L32,96.5 L32,72.5 C32,70.5670034 30.4329966,69 28.5,69 C26.6314366,69 25.1048736,70.4642776 25.0051789,72.3079648 L25,72.5 L25,106.5 L20,106.5 L20,72.5 C20,67.8055796 23.8055796,64 28.5,64 C33.1090673,64 36.8613215,67.668453 36.9962434,72.2448397 L37,72.5 L37,96.5 C37,103.852291 42.8774286,109.831834 50.1901692,109.996515 L50.5,110 L81.5,110 C82.8807119,110 84,108.880712 84,107.5 C84,106.174517 82.9684641,105.089961 81.6643757,105.005318 L81.5,105 L81.5,100 L86.5,100 C88.4329966,100 90,98.4329966 90,96.5 C90,94.6314366 88.5357224,93.1048736 86.6920352,93.0051789 L86.5,93 L86.5,88 L90.5,88 C92.4329966,88 94,86.4329966 94,84.5 C94,82.6314366 92.5357224,81.1048736 90.6920352,81.0051789 L90.5,81 L90.5,76 L92.5,76 C94.4329966,76 96,74.4329966 96,72.5 C96,70.6314366 94.5357224,69.1048736 92.6920352,69.0051789 L92.5,69 L68.9024166,69 C67.9924346,69 67.0863132,68.8817068 66.2068291,68.6480938 C60.6956023,67.1841742 57.3774409,61.5995433 58.6838954,56.0847454 L58.7543227,55.8044126 L63.0854748,39.4988991 C63.7727788,36.9114014 62.9861432,34.1553752 61.0365883,32.3205 C60.9060147,32.1976072 60.7582002,32.0944341 60.5978204,32.0142442 C59.7356182,31.5831431 58.6969902,31.8915366 58.203133,32.6990257 L58.1259914,32.8381872 L44.736068,59.618034 L40.263932,57.381966 L53.6538554,30.6021193 Z" id="Path-227" fill="#000000" fill-rule="nonzero" transform="translate(60.500000, 70.909119) scale(1, -1) translate(-60.500000, -70.909119) "></path>
    </g>
</svg>