<?xml version="1.0" encoding="UTF-8"?>
<svg  viewBox="0 0 117 116" version="1.1" xmlns="http://www.w3.org/2000/svg" xmlns:xlink="http://www.w3.org/1999/xlink">
    <title>thumbs-up</title>
    <g id="thumbs-up" stroke="none" stroke-width="1" fill="none" fill-rule="evenodd" transform="translate(0.000000, 0.000000)">
        <path d="M53.6538554,4.60211927 C55.3438528,1.22212445 59.4538936,-0.147889145 62.8338884,1.54210827 C63.4295169,1.8399225 63.9784794,2.22309313 64.4634117,2.67950002 C67.6682488,5.69581726 69.0091771,10.1885409 68.0001603,14.4548127 L67.9179004,14.7825121 L63.5867484,31.0880256 C62.8069365,34.0237881 64.5546797,37.0358563 67.4904422,37.8156682 C67.8589879,37.9135631 68.2364634,37.9727985 68.6167603,37.9925769 L68.9024166,38 L92.5,38 C97.1944204,38 101,41.8055796 101,46.5 C101,49.3166522 99.6299913,51.8133218 97.5199896,53.3599931 L97.356,53.476 C98.3442384,54.8227388 98.9437738,56.4651338 98.9962434,58.2448397 L99,58.5 C99,61.9141239 96.9871314,64.8581172 94.0833855,66.2099886 L93.889,66.296 L93.9954072,66.4878744 C94.5987187,67.6126157 94.9562665,68.8888733 94.9962434,70.2448397 L95,70.5 C95,74.4262425 92.3379813,77.7307372 88.7203524,78.7070758 L88.485,78.766 L88.5571938,78.9550719 C88.817736,79.6774439 88.9705206,80.45131 88.9961464,81.2572689 L89,81.5 C89,85.5609173 85.7725256,88.8680175 81.7427311,88.9961464 L81.5,89 L50.5,89 C40.3950098,89 32.1822717,80.8983057 32.0029922,70.8361237 L32,70.5 L32,46.5 C32,44.5670034 30.4329966,43 28.5,43 C26.6314366,43 25.1048736,44.4642776 25.0051789,46.3079648 L25,46.5 L25,80.5 L20,80.5 L20,46.5 C20,41.8055796 23.8055796,38 28.5,38 C33.1090673,38 36.8613215,41.668453 36.9962434,46.2448397 L37,46.5 L37,70.5 C37,77.8522907 42.8774286,83.8318345 50.1901692,83.9965146 L50.5,84 L81.5,84 C82.8807119,84 84,82.8807119 84,81.5 C84,80.1745166 82.9684641,79.0899613 81.6643757,79.0053177 L81.5,79 L81.5,74 L86.5,74 C88.4329966,74 90,72.4329966 90,70.5 C90,68.6314366 88.5357224,67.1048736 86.6920352,67.0051789 L86.5,67 L86.5,62 L90.5,62 C92.4329966,62 94,60.4329966 94,58.5 C94,56.6314366 92.5357224,55.1048736 90.6920352,55.0051789 L90.5,55 L90.5,50 L92.5,50 C94.4329966,50 96,48.4329966 96,46.5 C96,44.6314366 94.5357224,43.1048736 92.6920352,43.0051789 L92.5,43 L68.9024166,43 C67.9924346,43 67.0863132,42.8817068 66.2068291,42.6480938 C60.6956023,41.1841742 57.3774409,35.5995433 58.6838954,30.0847454 L58.7543227,29.8044126 L63.0854748,13.4988991 C63.7727788,10.9114014 62.9861432,8.15537519 61.0365883,6.32049998 C60.9060147,6.1976072 60.7582002,6.09443412 60.5978204,6.01424422 C59.7356182,5.58314312 58.6969902,5.89153658 58.203133,6.69902569 L58.1259914,6.83818724 L44.736068,33.618034 L40.263932,31.381966 L53.6538554,4.60211927 Z" id="Path-227" fill="#000000" fill-rule="nonzero"></path>
    </g>
</svg>