<?xml version="1.0" encoding="UTF-8"?>
<svg  viewBox="0 0 116 116" version="1.1" xmlns="http://www.w3.org/2000/svg" xmlns:xlink="http://www.w3.org/1999/xlink">
    <title>train</title>
    <g id="train" stroke="none" stroke-width="1" fill="none" fill-rule="evenodd">
        <path d="M72.2824599,8 C74.420449,8 76.5074927,8.65266049 78.2645689,9.87072564 C88.0667845,16.6659579 92.8910015,30.0547224 92.9981734,49.82359 L93,74.5 C93,80.2039245 88.451858,84.8455734 82.7842951,84.9962258 L82.5,85 L43.534,85 L36.534,92 L81.997,92 L81.9398952,91.9163221 L86.0601048,89.0836779 L97.0601048,105.083678 L92.9599388,107.945043 L85.206,97 L31.534,97 L20.267767,108.267767 L16.732233,104.732233 L36.464,85 L34.5,85 C28.7960755,85 24.1544266,80.451858 24.0037742,74.7842951 L24,74.5 L24,66.5 L29,66.5 L29,74.5 C29,77.4634791 31.34378,79.8795391 34.2787929,79.9956328 L34.5,80 L82.5,80 C85.4634791,80 87.8795391,77.65622 87.9956328,74.7212071 L88,74.5 L88,50.5 C88,49.1823359 87.9786508,47.8973939 87.9360473,46.6450964 L87.8863626,45.4036774 C87.8106793,43.7629531 87.697267,42.1802172 87.5463506,40.6552858 L87.4261348,39.5224227 C86.0052797,26.9930818 81.9578146,18.5149519 75.4159459,13.979904 C74.5722704,13.3950393 73.583361,13.059035 72.5617942,13.0070958 L72.2824599,13 L44.6146938,13 C43.535993,13 42.4811062,13.3172023 41.5813006,13.9121329 C33.3892014,19.3285591 29.099239,31.2328495 29.0017015,49.8479149 L29,56 L44.5,56 C49.1090673,56 52.8613215,59.668453 52.9962434,64.2448397 L53,64.5 C53,69.1944204 49.1944204,73 44.5,73 C39.8909327,73 36.1386785,69.331547 36.0037566,64.7551603 L36,64.5 L36,63.5 L41,63.5 L41,64.5 C41,66.4329966 42.5670034,68 44.5,68 C46.4329966,68 48,66.4329966 48,64.5 C48,62.6314366 46.5357224,61.1048736 44.6920352,61.0051789 L44.5,61 L24,61 L24.0017542,49.8268084 L24.0157949,48.4952832 L24.0438946,47.1835809 C24.5475053,28.524647 29.3895421,15.9789716 38.8236714,9.74134386 C40.4341184,8.6765536 42.3047771,8.07776838 44.2291602,8.00707834 L44.614692,8 L72.2824599,8 Z M72.5,56 L72.5,61 C70.5670034,61 69,62.5670034 69,64.5 C69,66.4329966 70.5670034,68 72.5,68 C74.3685634,68 75.8951264,66.5357224 75.9948211,64.6920352 L76,64.5 L76,63.5 L81,63.5 L81,64.5 C81,69.1944204 77.1944204,73 72.5,73 C67.8055796,73 64,69.1944204 64,64.5 C64,59.8909327 67.668453,56.1386785 72.2448397,56.0037566 L72.5,56 Z M70.5,20 L70.5,25 L46.5,25 L46.5,20 L70.5,20 Z" id="Shape" fill="#000000" fill-rule="nonzero"></path>
    </g>
</svg>