<?xml version="1.0" encoding="UTF-8"?>
<svg  viewBox="0 0 116 116" version="1.1" xmlns="http://www.w3.org/2000/svg" xmlns:xlink="http://www.w3.org/1999/xlink">
    <title>train-side-view</title>
    <g id="train-side-view" stroke="none" stroke-width="1" fill="none" fill-rule="evenodd">
        <path d="M112.5,88 L112.5,93 L4.5,93 L4.5,88 L112.5,88 Z M50.2388357,24 C55.8793337,24 61.4306448,25.3829218 66.4078954,28.0235897 L66.9389535,28.3113255 L106.710153,50.3124149 C111.920406,53.1946821 115.154219,58.6792428 115.154219,64.6335851 C115.154219,73.5661662 107.998123,80.8273515 99.106105,80.9969666 L98.787804,81 L4.5,81 L4.5,76 L98.787804,76 C105.065302,76 110.154219,70.9110827 110.154219,64.6335851 C110.154219,60.6071392 108.024996,56.8900091 104.57265,54.8493437 L104.289847,54.6875851 L64.5186465,32.6864957 C60.309492,30.3580273 55.5973388,29.0955377 50.7935074,29.005214 L50.2388357,29 L4.5,29 L4.5,24 L50.2388357,24 Z M46.5930862,36 C51.992027,36 57.312748,37.2670587 62.1283694,39.6956977 L62.6613382,39.9703213 L82.9203322,50.6329498 C84.7273672,51.5840208 85.8587268,53.4579639 85.8587268,55.5 C85.8587268,58.4634791 83.5149468,60.8795391 80.579934,60.9956328 L80.3587268,61 L34.5,61 L34.5,56 L80.3587268,56 C80.6348692,56 80.8587268,55.7761424 80.8587268,55.5 C80.8587268,55.3453003 80.7873026,55.2012125 80.6684275,55.1074452 L80.5916001,55.0575409 L60.332606,44.3949124 C56.2655503,42.2543568 51.7570292,41.0949167 47.1672109,41.0055864 L46.5930862,41 L37.5,41 C37.2545401,41 37.0503916,41.1768752 37.0080557,41.4101244 L37,41.5 L37,50.5 L32,50.5 L32,41.5 C32,38.5365209 34.34378,36.1204609 37.2787929,36.0043672 L37.5,36 L46.5930862,36 Z M15.5,36 C18.4634791,36 20.8795391,38.34378 20.9956328,41.2787929 L21,41.5 L21,55.5 C21,58.4634791 18.65622,60.8795391 15.7212071,60.9956328 L15.5,61 L4.5,61 L4.5,56 L15.5,56 C15.7454599,56 15.9496084,55.8231248 15.9919443,55.5898756 L16,55.5 L16,41.5 C16,41.2545401 15.8231248,41.0503916 15.5898756,41.0080557 L15.5,41 L4.5,41 L4.5,36 L15.5,36 Z" id="Shape" fill="#000000" fill-rule="nonzero"></path>
    </g>
</svg>