<?xml version="1.0" encoding="UTF-8"?>
<svg width="128px" height="128px" viewBox="0 0 128 128" version="1.1" xmlns="http://www.w3.org/2000/svg" xmlns:xlink="http://www.w3.org/1999/xlink">
    <title>trash-can</title>
    <g id="trash-can" stroke="none" stroke-width="1" fill="none" fill-rule="evenodd">
        <path d="M34.4961509,39.861325 L38.0763598,104.305085 C38.234127,107.144894 40.5267154,109.382641 43.3443828,109.49553 L43.5678917,109.5 L84.425546,109.5 C87.2715254,109.5 89.6338453,107.332432 89.9006587,104.523403 L89.91734,104.300332 L92.773035,52.0819089 C92.818272,51.2547178 92.184373,50.547475 91.3571819,50.502238 L91.275273,50.5 L84,50.5 C83.2203039,50.5 82.5795513,51.0948881 82.5068666,51.85554 L82.5,52 L82.5,92 C82.5,95.5118106 79.7150038,98.3731506 76.2331341,98.495897 L76,98.5 L68,98.5 C64.4881894,98.5 61.6268494,95.7150038 61.504103,92.2331341 L61.5,92 L61.5,52 C61.5,51.2203039 60.9051119,50.5795513 60.14446,50.5068666 L60,50.5 L52,50.5 C51.2203039,50.5 50.5795513,51.0948881 50.5068666,51.85554 L50.5,52 L50.5,96 L45.5,96 L45.5,52 C45.5,48.4881894 48.2849962,45.6268494 51.7668659,45.504103 L52,45.5 L60,45.5 C63.5118106,45.5 66.3731506,48.2849962 66.495897,51.7668659 L66.5,52 L66.5,92 C66.5,92.7796961 67.0948881,93.4204487 67.85554,93.4931334 L68,93.5 L76,93.5 C76.7796961,93.5 77.4204487,92.9051119 77.4931334,92.14446 L77.5,92 L77.5,52 C77.5,48.4881894 80.2849962,45.6268494 83.7668659,45.504103 L84,45.5 L91.275273,45.5 C91.3936521,45.5 91.512009,45.5032339 91.6302114,45.5096981 C95.1367824,45.7014637 97.8417759,48.6385507 97.7742085,52.121928 L97.7655749,52.3549384 L94.9098799,104.573362 C94.6105466,110.046884 90.1565793,114.351899 84.7082279,114.496259 L84.425546,114.5 L43.5678917,114.5 C38.0896404,114.5 33.5494553,110.292883 33.1034594,104.864298 L33.084058,104.582435 L29.5038491,40.138675 L34.4961509,39.861325 Z M76,13.5 C79.5118106,13.5 82.3731506,16.2849962 82.495897,19.7668659 L82.5,20 L82.5,21.5 L100,21.5 C103.511811,21.5 106.373151,24.2849962 106.495897,27.7668659 L106.5,28 L106.5,31 C106.5,32.8685634 105.035722,34.3951264 103.192035,34.4948211 L103,34.5 L24,34.5 L24,29.5 L101.5,29.5 L101.5,28 C101.5,27.2203039 100.905112,26.5795513 100.14446,26.5068666 L100,26.5 L82,26.5 C79.5857267,26.5 77.6155109,24.5987635 77.504898,22.2118357 L77.5,22 L77.5,20 C77.5,19.2203039 76.9051119,18.5795513 76.14446,18.5068666 L76,18.5 L52,18.5 C51.2203039,18.5 50.5795513,19.0948881 50.5068666,19.85554 L50.5,20 L50.5,24 L45.5,24 L45.5,20 C45.5,16.4881894 48.2849962,13.6268494 51.7668659,13.504103 L52,13.5 L76,13.5 Z" id="Shape" fill="#000000" fill-rule="nonzero"></path>
    </g>
</svg>