<?xml version="1.0" encoding="UTF-8"?>
<svg  viewBox="0 0 116 116" version="1.1" xmlns="http://www.w3.org/2000/svg" xmlns:xlink="http://www.w3.org/1999/xlink">
    <title>trash-can</title>
    <g id="trash-can" stroke="none" stroke-width="1" fill="none" fill-rule="evenodd">
        <path d="M28.4961509,33.861325 L32.0763598,98.3050851 C32.234127,101.144894 34.5267154,103.382641 37.3443828,103.49553 L37.5678917,103.5 L78.425546,103.5 C81.2715254,103.5 83.6338453,101.332432 83.9006587,98.5234028 L83.91734,98.3003325 L86.773035,46.0819089 C86.818272,45.2547178 86.184373,44.547475 85.3571819,44.502238 L85.275273,44.5 L78,44.5 C77.2203039,44.5 76.5795513,45.0948881 76.5068666,45.85554 L76.5,46 L76.5,86 C76.5,89.5118106 73.7150038,92.3731506 70.2331341,92.495897 L70,92.5 L62,92.5 C58.4881894,92.5 55.6268494,89.7150038 55.504103,86.2331341 L55.5,86 L55.5,46 C55.5,45.2203039 54.9051119,44.5795513 54.14446,44.5068666 L54,44.5 L46,44.5 C45.2203039,44.5 44.5795513,45.0948881 44.5068666,45.85554 L44.5,46 L44.5,90 L39.5,90 L39.5,46 C39.5,42.4881894 42.2849962,39.6268494 45.7668659,39.504103 L46,39.5 L54,39.5 C57.5118106,39.5 60.3731506,42.2849962 60.495897,45.7668659 L60.5,46 L60.5,86 C60.5,86.7796961 61.0948881,87.4204487 61.85554,87.4931334 L62,87.5 L70,87.5 C70.7796961,87.5 71.4204487,86.9051119 71.4931334,86.14446 L71.5,86 L71.5,46 C71.5,42.4881894 74.2849962,39.6268494 77.7668659,39.504103 L78,39.5 L85.275273,39.5 C85.3936521,39.5 85.512009,39.5032339 85.6302114,39.5096981 C89.1367824,39.7014637 91.8417759,42.6385507 91.7742085,46.121928 L91.7655749,46.3549384 L88.9098799,98.573362 C88.6105466,104.046884 84.1565793,108.351899 78.7082279,108.496259 L78.425546,108.5 L37.5678917,108.5 C32.0896404,108.5 27.5494553,104.292883 27.1034594,98.8642981 L27.084058,98.5824352 L23.5038491,34.138675 L28.4961509,33.861325 Z M70,7.5 C73.5118106,7.5 76.3731506,10.2849962 76.495897,13.7668659 L76.5,14 L76.5,15.5 L94,15.5 C97.5118106,15.5 100.373151,18.2849962 100.495897,21.7668659 L100.5,22 L100.5,25 C100.5,26.8685634 99.0357224,28.3951264 97.1920352,28.4948211 L97,28.5 L18,28.5 L18,23.5 L95.5,23.5 L95.5,22 C95.5,21.2203039 94.9051119,20.5795513 94.14446,20.5068666 L94,20.5 L76,20.5 C73.5857267,20.5 71.6155109,18.5987635 71.504898,16.2118357 L71.5,16 L71.5,14 C71.5,13.2203039 70.9051119,12.5795513 70.14446,12.5068666 L70,12.5 L46,12.5 C45.2203039,12.5 44.5795513,13.0948881 44.5068666,13.85554 L44.5,14 L44.5,18 L39.5,18 L39.5,14 C39.5,10.4881894 42.2849962,7.62684944 45.7668659,7.50410301 L46,7.5 L70,7.5 Z" id="Shape" fill="#000000" fill-rule="nonzero"></path>
    </g>
</svg>