<?xml version="1.0" encoding="UTF-8"?>
<svg  viewBox="0 0 117 116" version="1.1" xmlns="http://www.w3.org/2000/svg" xmlns:xlink="http://www.w3.org/1999/xlink">
    <title>triangular-ruler</title>
    <g id="triangular-ruler" stroke="none" stroke-width="1" fill="none" fill-rule="evenodd" transform="translate(0.000000, 0.000000)">
        <path d="M9.31801948,12.1464466 C11.0204613,10.4440048 13.7476098,10.3908035 15.5140958,11.9868427 L15.6819805,12.1464466 L104.853553,101.318019 C105.697467,102.161933 106.171573,103.306526 106.171573,104.5 C106.171573,106.914273 104.270336,108.884489 101.883409,108.995102 L101.671573,109 L18.5,109 C12.7960755,109 8.15442656,104.451858 8.00377424,98.7842951 L8,98.5 L8,39.3284271 C8,38.1349529 8.47410578,36.9903603 9.31801948,36.1464466 C11.0204613,34.4440048 13.7476098,34.3908035 15.5140958,35.9868427 L15.6819805,36.1464466 L64.8535534,85.3180195 C65.6974671,86.1619332 66.1715729,87.3065258 66.1715729,88.5 C66.1715729,90.9142733 64.2703364,92.8844891 61.8834086,92.995102 L61.6715729,93 L34.5,93 C28.7960755,93 24.1544266,88.451858 24.0037742,82.7842951 L24,82.5 L24,66.5 L29,66.5 L29,82.5 C29,85.4634791 31.34378,87.8795391 34.2787929,87.9956328 L34.5,88 L60.465,88 L13,40.535 L13,98.5 C13,101.463479 15.34378,103.879539 18.2787929,103.995633 L18.5,104 L100.465,104 L90.5,94.035 L88.267767,96.267767 L84.732233,92.732233 L86.965,90.5 L74.5,78.035 L72.267767,80.267767 L68.732233,76.732233 L70.965,74.5 L58.5,62.035 L56.267767,64.267767 L52.732233,60.732233 L54.965,58.5 L42.5,46.035 L40.267767,48.267767 L36.732233,44.732233 L38.965,42.5 L26.5,30.035 L24.267767,32.267767 L20.732233,28.732233 L22.965,26.5 L13,16.535 L13,26.5 L8,26.5 L8,15.3284271 C8,14.1349529 8.47410578,12.9903603 9.31801948,12.1464466 Z" id="Path-302" fill="#000000" fill-rule="nonzero"></path>
    </g>
</svg>