<?xml version="1.0" encoding="UTF-8"?>
<svg  viewBox="0 0 116 116" version="1.1" xmlns="http://www.w3.org/2000/svg" xmlns:xlink="http://www.w3.org/1999/xlink">
    <title>truck-side-view</title>
    <g id="truck-side-view" stroke="none" stroke-width="1" fill="none" fill-rule="evenodd">
        <path d="M30.5,64 C37.5597978,64 43.4411883,69.0453618 44.7351458,75.7270597 L44.785,76 L77,76 L77,78.5 C77,83.7467051 81.2532949,88 86.5,88 C91.7467051,88 96,83.7467051 96,78.5 C96,73.3437553 91.8921061,69.1469606 86.7704787,69.0037764 L86.5,69 L86.5,64 C93.5597978,64 99.4411883,69.0453618 100.735146,75.7270597 L100.785,76 L109.5,76 C109.74546,76 109.949608,75.8231248 109.991944,75.5898756 L110,75.5 L110,58.5 C110,55.5365209 107.65622,53.1204609 104.721207,53.0043672 L104.5,53 L96.954915,53 L90.4750776,40.0403252 C89.5792545,38.2486789 87.7840313,37.0915547 85.795264,37.0051955 L85.5557281,37 L82.5,37 L82.5,32 L85.5557281,32 C89.428174,32 92.9770051,34.1303166 94.8029658,37.5261622 L94.9472136,37.8042572 L100.045,48 L104.5,48 C110.203924,48 114.845573,52.548142 114.996226,58.2157049 L115,58.5 L115,75.5 C115,78.4634791 112.65622,80.8795391 109.721207,80.9956328 L109.5,81 L100.785,81 L100.735146,81.2729403 C99.4605011,87.8549114 93.7343398,92.8490277 86.8153115,92.9966395 L86.5,93 C79.4402022,93 73.5588117,87.9546382 72.2648542,81.2729403 L72.214,81 L44.785,81 L44.7351458,81.2729403 C43.4605011,87.8549114 37.7343398,92.8490277 30.8153115,92.9966395 L30.5,93 C23.4402022,93 17.5588117,87.9546382 16.2648542,81.2729403 L16.214,81 L7.5,81 C4.53652085,81 2.12046086,78.65622 2.0043672,75.7212071 L2,75.5 L2,29.5 C2,26.5365209 4.34378001,24.1204609 7.27879286,24.0043672 L7.5,24 L71.5,24 C74.4634791,24 76.8795391,26.34378 76.9956328,29.2787929 L77,29.5 L77,48 L90.5,48 L90.5,53 L77,53 L77,58.5 L72,58.5 L72,29.5 C72,29.2545401 71.8231248,29.0503916 71.5898756,29.0080557 L71.5,29 L7.5,29 C7.25454011,29 7.05039163,29.1768752 7.00805567,29.4101244 L7,29.5 L7,75.5 C7,75.7454599 7.17687516,75.9496084 7.41012437,75.9919443 L7.5,76 L21,76 L21,78.5 C21,83.7467051 25.2532949,88 30.5,88 C35.7467051,88 40,83.7467051 40,78.5 C40,73.3437553 35.8921061,69.1469606 30.7704787,69.0037764 L30.5,69 L30.5,64 Z" id="Path-349" fill="#000000" fill-rule="nonzero"></path>
    </g>
</svg>