<?xml version="1.0" encoding="UTF-8"?>
<svg  viewBox="0 0 116 116" version="1.1" xmlns="http://www.w3.org/2000/svg" xmlns:xlink="http://www.w3.org/1999/xlink">
    <title>truck</title>
    <g id="truck" stroke="none" stroke-width="1" fill="none" fill-rule="evenodd" transform="translate(0.000000, 0.000000)">
        <path d="M98.5,8 C104.203924,8 108.845573,12.548142 108.996226,18.2157049 L109,18.5 L109,87.5 C109,90.4634791 106.65622,92.8795391 103.721207,92.9956328 L103.5,93 L101,93 L101,100.5 C101,105.109067 97.331547,108.861321 92.7551603,108.996243 L92.5,109 L88.5,109 C83.8909327,109 80.1386785,105.331547 80.0037566,100.75516 L80,100.5 L80,93 L37,93 L37,100.5 C37,105.109067 33.331547,108.861321 28.7551603,108.996243 L28.5,109 L24.5,109 C19.8909327,109 16.1386785,105.331547 16.0037566,100.75516 L16,100.5 L16,93 L14.5,93 C10.9881894,93 8.12684944,90.2150038 8.00410301,86.7331341 L8,86.5 L8,58.5 C8,52.7960755 12.548142,48.1544266 18.2157049,48.0037742 L18.5,48 L24,48 L24,34.5 C24,28.7960755 28.548142,24.1544266 34.2157049,24.0037742 L34.5,24 L82.5,24 C88.2039245,24 92.8455734,28.548142 92.9962258,34.2157049 L93,34.5 L93,53 L38.5,53 L38.5,48 L88,48 L88,34.5 C88,31.5365209 85.65622,29.1204609 82.7212071,29.0043672 L82.5,29 L34.5,29 C31.5365209,29 29.1204609,31.34378 29.0043672,34.2787929 L29,34.5 L29,53 L18.5,53 C15.5365209,53 13.1204609,55.34378 13.0043672,58.2787929 L13,58.5 L13,86.5 C13,87.2796961 13.5948881,87.9204487 14.35554,87.9931334 L14.5,88 L21,88 L21,100.5 C21,102.368563 22.4642776,103.895126 24.3079648,103.994821 L24.5,104 L28.5,104 C30.3685634,104 31.8951264,102.535722 31.9948211,100.692035 L32,100.5 L32,88 L90.5,88 L90.5,93 L85,93 L85,100.5 C85,102.368563 86.4642776,103.895126 88.3079648,103.994821 L88.5,104 L92.5,104 C94.3685634,104 95.8951264,102.535722 95.9948211,100.692035 L96,100.5 L96,88 L103.5,88 C103.74546,88 103.949608,87.8231248 103.991944,87.5898756 L104,87.5 L104,18.5 C104,15.5365209 101.65622,13.1204609 98.7212071,13.0043672 L98.5,13 L18.5,13 C15.5365209,13 13.1204609,15.34378 13.0043672,18.2787929 L13,18.5 L13,42.5 L8,42.5 L8,18.5 C8,12.7960755 12.548142,8.15442656 18.2157049,8.00377424 L18.5,8 L98.5,8 Z M30.5,60 L30.5,65 C27.4624339,65 25,67.4624339 25,70.5 C25,73.5375661 27.4624339,76 30.5,76 C33.4634791,76 35.8795391,73.65622 35.9956328,70.7212071 L36,70.5 L41,70.5 C41,76.2989899 36.2989899,81 30.5,81 C24.7010101,81 20,76.2989899 20,70.5 C20,64.7960755 24.548142,60.1544266 30.2157049,60.0037742 L30.5,60 Z M86.5,60 L86.5,65 C83.4624339,65 81,67.4624339 81,70.5 C81,73.5375661 83.4624339,76 86.5,76 C89.4634791,76 91.8795391,73.65622 91.9956328,70.7212071 L92,70.5 L97,70.5 C97,76.2989899 92.2989899,81 86.5,81 C80.7010101,81 76,76.2989899 76,70.5 C76,64.7960755 80.548142,60.1544266 86.2157049,60.0037742 L86.5,60 Z" id="Shape" fill="#000000" fill-rule="nonzero"></path>
    </g>
</svg>