<?xml version="1.0" encoding="UTF-8"?>
<svg  viewBox="0 0 116 116" version="1.1" xmlns="http://www.w3.org/2000/svg" xmlns:xlink="http://www.w3.org/1999/xlink">
    <title>two-squares-joined</title>
    <g id="two-squares-joined" stroke="none" stroke-width="1" fill="none" fill-rule="evenodd">
        <path d="M74.5,8 C80.2039245,8 84.8455734,12.548142 84.9962258,18.2157049 L85,18.5 L85,26.5 L80,26.5 L80,18.5 C80,15.5365209 77.65622,13.1204609 74.7212071,13.0043672 L74.5,13 L18.5,13 C15.5365209,13 13.1204609,15.34378 13.0043672,18.2787929 L13,18.5 L13,74.5 C13,77.4634791 15.34378,79.8795391 18.2787929,79.9956328 L18.5,80 L74.5,80 C77.4634791,80 79.8795391,77.65622 79.9956328,74.7212071 L80,74.5 L80,42.5 C80,39.5365209 77.65622,37.1204609 74.7212071,37.0043672 L74.5,37 L42.5,37 C39.5365209,37 37.1204609,39.34378 37.0043672,42.2787929 L37,42.5 L37,74.5 L32,74.5 L32,42.5 C32,36.7960755 36.548142,32.1544266 42.2157049,32.0037742 L42.5,32 L74.5,32 C80.2039245,32 84.8455734,36.548142 84.9962258,42.2157049 L85,42.5 L85,74.5 C85,80.2039245 80.451858,84.8455734 74.7842951,84.9962258 L74.5,85 L37,85 L37,98.5 C37,101.463479 39.34378,103.879539 42.2787929,103.995633 L42.5,104 L98.5,104 C101.463479,104 103.879539,101.65622 103.995633,98.7212071 L104,98.5 L104,42.5 C104,39.5365209 101.65622,37.1204609 98.7212071,37.0043672 L98.5,37 L90.5,37 L90.5,32 L98.5,32 C104.203924,32 108.845573,36.548142 108.996226,42.2157049 L109,42.5 L109,98.5 C109,104.203924 104.451858,108.845573 98.7842951,108.996226 L98.5,109 L42.5,109 C36.7960755,109 32.1544266,104.451858 32.0037742,98.7842951 L32,98.5 L32,85 L18.5,85 C12.7960755,85 8.15442656,80.451858 8.00377424,74.7842951 L8,74.5 L8,18.5 C8,12.7960755 12.548142,8.15442656 18.2157049,8.00377424 L18.5,8 L74.5,8 Z" id="Shape" fill="#000000" fill-rule="nonzero"></path>
    </g>
</svg>