<?xml version="1.0" encoding="UTF-8"?>
<svg  viewBox="0 0 116 116" version="1.1" xmlns="http://www.w3.org/2000/svg" xmlns:xlink="http://www.w3.org/1999/xlink">
    <title>two-circles-joined</title>
    <g id="two-circles-joined" stroke="none" stroke-width="1" fill="none" fill-rule="evenodd">
        <path d="M74.5,19 C95.7629629,19 113,36.2370371 113,57.5 C113,78.7629629 95.7629629,96 74.5,96 C53.2370371,96 36,78.7629629 36,57.5 C36,46.7109268 40.4648959,36.6339373 48.1720985,29.4090308 L48.5667785,29.044131 L51.9356936,32.7387773 C45.0148656,39.0494442 41,47.9490502 41,57.5 C41,70.5765522 48.4923401,81.9031746 59.4183888,87.4212358 C69.5810896,81.4671507 76,70.5524501 76,58.5 C76,39.9984609 61.0015391,25 42.5,25 C23.9984609,25 9,39.9984609 9,58.5 C9,77.0015391 23.9984609,92 42.5,92 C44.8572406,92 47.1812292,91.7569187 49.4468513,91.2793195 L50.1247618,91.1290128 L51.2579469,95.9989093 C48.4080077,96.6620669 45.4750986,97 42.5,97 C21.2370371,97 4,79.7629629 4,58.5 C4,37.2370371 21.2370371,20 42.5,20 C63.7629629,20 81,37.2370371 81,58.5 C81,71.0519139 74.9393711,82.532883 65.1120542,89.6659108 C68.0901958,90.5345551 71.2407426,91 74.5,91 C93.0015391,91 108,76.0015391 108,57.5 C108,38.9984609 93.0015391,24 74.5,24 C72.3203222,24 70.1689158,24.2078365 68.0655116,24.616869 L67.3661817,24.7606557 L66.3067746,19.8741788 C68.9793052,19.2947638 71.7214018,19 74.5,19 Z" id="Path" fill="#000000" fill-rule="nonzero"></path>
    </g>
</svg>