<?xml version="1.0" encoding="UTF-8"?>
<svg  viewBox="0 0 116 116" version="1.1" xmlns="http://www.w3.org/2000/svg" xmlns:xlink="http://www.w3.org/1999/xlink">
    <title>umbrella</title>
    <g id="umbrella" stroke="none" stroke-width="1" fill="none" fill-rule="evenodd">
        <path d="M61,10.5 L61.0004654,16.060899 C87.2419751,17.3419111 108.294157,38.6754463 108.982657,65.164119 C109.002003,65.9084179 108.750676,66.6344629 108.275317,67.2075151 C107.190891,68.5148068 105.251989,68.6954586 103.944829,67.6110278 L103.765131,67.4633882 C99.2375617,63.7888459 94.829326,62 90.5,62 C86.3564335,62 82.1412009,63.6384135 77.8174901,67.0004455 L77.1410793,67.5413266 L77.1410793,67.5413266 C76.5835186,68.0019057 75.8842114,68.2561692 75.1610371,68.2612569 C73.424835,68.2734714 72.0074634,66.8759033 71.9952489,65.1397012 C71.9172071,54.046622 69.6138014,43.6973708 65.0837369,34.0666417 L64.7308785,33.3272331 L69.2312988,31.1486516 C73.7155237,40.4119709 76.258164,50.3059356 76.8582646,60.8118791 L76.894,61.503 L77.009612,61.4258876 C81.2859018,58.5941981 85.6325364,57.104682 90.0287845,57.0053239 L90.5,57 C94.8278473,57 99.1079592,58.3465816 103.321316,60.9941758 L103.697,61.234 L103.661548,60.9195528 C100.957651,38.789205 82.3798502,21.6225606 59.7388424,21.016561 C51.268229,32.4925373 46.457114,45.11755 45.2856564,58.9403443 L45.236,59.547 L45.3917558,59.452903 C48.9489545,57.3154227 53.7874216,56.0685817 58.1385702,56.0027463 L58.5,56 L61,56 L61,94.5 C61,102.508129 54.5081289,109 46.5,109 C38.5972412,109 32.1711012,102.677844 32.0033605,94.8153115 L32,94.5 L32,90.5 L37,90.5 L37,94.5 C37,99.7467051 41.2532949,104 46.5,104 C51.6562447,104 55.8530394,99.8921061 55.9962236,94.7704787 L56,94.5 L56,61.167 L55.9596157,61.1721607 C51.4259194,61.7602388 46.6676109,63.7779574 45.4255259,66.0276385 L45.342836,66.1887084 C45.068461,66.7668772 44.6119683,67.2210322 44.0611131,67.4959716 L43.926,67.558 L43.8979213,67.583669 C42.7833663,68.5030052 41.1548677,68.5096055 40.0311932,67.574112 L39.8875736,67.446746 C35.2838934,63.1009621 30.8326102,61 26.5,61 C24.4739259,61 22.4328367,61.4565829 20.3594334,62.3847508 L19.9146317,62.5908675 L17.7542892,58.0816636 C20.6381046,56.7000385 23.5604339,56 26.5,56 C31.0072611,56 35.4412598,57.6369361 39.785638,60.841028 L40.107,61.081 L40.123255,60.7555111 C40.8881214,46.4367195 45.3245197,33.2639394 53.4147126,21.2814976 C30.9236425,23.7818819 13.3801359,42.6778651 13.0060957,65.7475743 L13,66.5 L8,66.5 C8,39.4476838 29.271265,17.3635377 56.0005834,16.0607733 L56,10.5 L61,10.5 Z" id="Path" fill="#000000" fill-rule="nonzero"></path>
    </g>
</svg>