<?xml version="1.0" encoding="UTF-8"?>
<svg  viewBox="0 0 116 116" version="1.1" xmlns="http://www.w3.org/2000/svg" xmlns:xlink="http://www.w3.org/1999/xlink">
    <title>underline-off</title>
    <g id="underline-off" stroke="none" stroke-width="1" fill="none" fill-rule="evenodd">
        <path d="M90.5,104 L90.5,109 L26.5,109 L26.5,104 L90.5,104 Z M12.267767,8.73223305 L108.267767,104.732233 L104.732233,108.267767 L8.73223305,12.267767 L12.267767,8.73223305 Z M33,39.5 L33,70.5 C33,84.5832611 44.4167389,96 58.5,96 C65.2188939,96 71.5186413,93.392603 76.2404701,88.8174313 L76.5673253,88.4950486 L80.1098896,92.0235381 C74.4250577,97.7310463 66.7183652,101 58.5,101 C41.823762,101 28.2734252,87.6164256 28.0040861,71.0043733 L28,70.5 L28,39.5 L33,39.5 Z M98.5,16 L98.5,21 L89,21 L89,70.5 C89,71.7574244 88.9237752,73.0058884 88.7726559,74.2405753 L88.6730076,74.9796957 L83.7263807,74.2510792 C83.8778165,73.2229717 83.9668727,72.1818379 83.9923515,71.1313707 L84,70.5 L84,21 L74.5,21 L74.5,16 L98.5,16 Z M42.5,16 L42.5,21 L33,21 L33,21.5 L28,21.5 L28,21 L26.5,21 L26.5,16 L42.5,16 Z" id="Shape" fill="#000000" fill-rule="nonzero"></path>
    </g>
</svg>