<?xml version="1.0" encoding="UTF-8"?>
<svg  viewBox="0 0 116 116" version="1.1" xmlns="http://www.w3.org/2000/svg" xmlns:xlink="http://www.w3.org/1999/xlink">
    <title>undo</title>
    <g id="undo" stroke="none" stroke-width="1" fill="none" fill-rule="evenodd">
        <path d="M74.5,32 C89.1355459,32 101,43.8644541 101,58.5 C101,72.9891904 89.3716485,84.7624338 74.938226,84.9964498 L74.5,85 L34.5,85 L34.5,80 L74.5,80 C86.3741221,80 96,70.3741221 96,58.5 C96,46.7446191 86.5656771,37.1927424 74.8555418,37.0028804 L74.5,37 L34.5,37 L34.5,32 L74.5,32 Z M41.1132495,16.4198743 L43.8867505,20.5801257 L23.007,34.5 L43.8867505,48.4198743 L41.1132495,52.5801257 L19.6094004,38.2442263 C17.5415213,36.8656403 16.9827389,34.0717282 18.361325,32.0038491 C18.6438023,31.5801332 18.995801,31.2079574 19.4019088,30.9027344 L19.6094004,30.7557737 L41.1132495,16.4198743 Z" id="Shape" fill="#000000" fill-rule="nonzero"></path>
    </g>
</svg>