<?xml version="1.0" encoding="UTF-8"?>
<svg  viewBox="0 0 116 116" version="1.1" xmlns="http://www.w3.org/2000/svg" xmlns:xlink="http://www.w3.org/1999/xlink">
    <title>upload</title>
    <g id="upload" stroke="none" stroke-width="1" fill="none" fill-rule="evenodd">
        <path d="M60.5,74 L60.5,106 L55.5,106 L55.5,74 L60.5,74 Z M58,23.5 C66.8696158,23.5 75.2157792,26.8647997 81.5565815,32.7939132 L81.9346113,33.1527307 L78.4654414,36.7534056 C73.0029198,31.4903879 65.7400224,28.5 58,28.5 C44.5201209,28.5 32.8649573,37.6177785 29.4780145,50.4382476 L29.375907,50.8359316 L28.9732742,52.4506097 L27.3282968,52.7022993 C18.8476475,53.9998803 12.5,61.3291931 12.5,70 C12.5,79.5551538 20.1579601,87.3216951 29.6712297,87.4969736 L30,87.5 L30,92.5 C17.5735931,92.5 7.5,82.4264069 7.5,70 C7.5,59.4700873 14.7779097,50.481652 24.779702,48.1088417 L24.952,48.068 L25.0278421,47.8182882 C29.3829956,33.6781057 42.4337476,23.7094052 57.5228328,23.5032582 L58,23.5 Z M50,87.5 L50,92.5 L30,92.5 L30,87.5 L50,87.5 Z M82,39.5 C96.6355459,39.5 108.5,51.3644541 108.5,66 C108.5,80.4891904 96.8716485,92.2624338 82.438226,92.4964498 L82,92.5 L66,92.5 L66,87.5 L82,87.5 C93.8741221,87.5 103.5,77.8741221 103.5,66 C103.5,54.1258779 93.8741221,44.5 82,44.5 C79.7703222,44.5 77.5896656,44.8386511 75.5108831,45.495894 L74.9933404,45.6668304 L73.3646948,40.9395147 C76.1201977,39.9901942 79.0284121,39.5 82,39.5 Z M60.7973968,57.6991445 L60.912176,57.861325 L76.0801257,80.6132495 L71.9198743,83.3867505 L57.999,62.507 L44.0801257,83.3867505 L39.9198743,80.6132495 L55.087824,57.861325 C55.344146,57.4768419 55.6740663,57.1469216 56.0585493,56.8905996 C57.6114394,55.8553396 59.6907489,56.2247933 60.7973968,57.6991445 Z" id="Shape" fill="#000000" fill-rule="nonzero"></path>
    </g>
</svg>