<?xml version="1.0" encoding="UTF-8"?>
<svg   viewBox="0 0 128 128" version="1.1" xmlns="http://www.w3.org/2000/svg" xmlns:xlink="http://www.w3.org/1999/xlink">
    <title>upload</title>
    <g id="upload" stroke="none" stroke-width="1" fill="none" fill-rule="evenodd">
        <path d="M66.5,80 L66.5,112 L61.5,112 L61.5,80 L66.5,80 Z M64,29.5 C72.8696158,29.5 81.2157792,32.8647997 87.5565815,38.7939132 L87.9346113,39.1527307 L84.4654414,42.7534056 C79.0029198,37.4903879 71.7400224,34.5 64,34.5 C50.5201209,34.5 38.8649573,43.6177785 35.4780145,56.4382476 L35.375907,56.8359316 L34.9732742,58.4506097 L33.3282968,58.7022993 C24.8476475,59.9998803 18.5,67.3291931 18.5,76 C18.5,85.5551538 26.1579601,93.3216951 35.6712297,93.4969736 L36,93.5 L36,98.5 C23.5735931,98.5 13.5,88.4264069 13.5,76 C13.5,65.4700873 20.7779097,56.481652 30.779702,54.1088417 L30.952,54.068 L31.0278421,53.8182882 C35.3829956,39.6781057 48.4337476,29.7094052 63.5228328,29.5032582 L64,29.5 Z M56,93.5 L56,98.5 L36,98.5 L36,93.5 L56,93.5 Z M88,45.5 C102.635546,45.5 114.5,57.3644541 114.5,72 C114.5,86.4891904 102.871649,98.2624338 88.438226,98.4964498 L88,98.5 L72,98.5 L72,93.5 L88,93.5 C99.8741221,93.5 109.5,83.8741221 109.5,72 C109.5,60.1258779 99.8741221,50.5 88,50.5 C85.7703222,50.5 83.5896656,50.8386511 81.5108831,51.495894 L80.9933404,51.6668304 L79.3646948,46.9395147 C82.1201977,45.9901942 85.0284121,45.5 88,45.5 Z M66.7973968,63.6991445 L66.912176,63.861325 L82.0801257,86.6132495 L77.9198743,89.3867505 L63.999,68.507 L50.0801257,89.3867505 L45.9198743,86.6132495 L61.087824,63.861325 C61.344146,63.4768419 61.6740663,63.1469216 62.0585493,62.8905996 C63.6114394,61.8553396 65.6907489,62.2247933 66.7973968,63.6991445 Z" id="Shape" fill="#000000" fill-rule="nonzero"></path>
    </g>
</svg>