<?xml version="1.0" encoding="UTF-8"?>
<svg  viewBox="0 0 116 116" version="1.1" xmlns="http://www.w3.org/2000/svg" xmlns:xlink="http://www.w3.org/1999/xlink">
    <title>valve</title>
    <g id="valve" stroke="none" stroke-width="1" fill="none" fill-rule="evenodd">
        <path d="M38.5,20 C41.1213034,20 43.3907212,21.5550305 44.417778,23.8313918 L44.49,24 L56.498,24 L56.5545355,23.8689156 C57.5348868,21.6568858 59.7134948,20.0941171 62.2668659,20.004103 L62.5,20 C65.1213034,20 67.3907212,21.5550305 68.417778,23.8313918 L68.49,24 L80.498,24 L80.5545355,23.8689156 C81.5348868,21.6568858 83.7134948,20.0941171 86.2668659,20.004103 L86.5,20 L90.5,20 C96.2989899,20 101,24.7010101 101,30.5 C101,36.2039245 96.451858,40.8455734 90.7842951,40.9962258 L90.5,41 L86.5,41 C83.8786966,41 81.6092788,39.4449695 80.582222,37.1686082 L80.509,37 L70.999,37 L71,45.662 L71.2308891,45.7574676 C75.8656514,47.7106272 79.7245666,51.1771559 82.1685092,55.5653442 L82.403,55.999 L106.500102,56 L106.500102,61 L79.1998985,60.9999519 L78.5449258,59.5008895 C76.5771295,54.9971144 72.7787689,51.503264 68.130117,49.9246586 L67.7513553,49.8008784 L66.0006262,49.2509505 L65.9998939,32 L84.9394499,32 L85.0018808,34.5769074 C85.0386117,35.3241922 85.6244238,35.9254174 86.3603518,35.993564 L86.5,36 L90.5,36 C93.5375661,36 96,33.5375661 96,30.5 C96,27.5365209 93.65622,25.1204609 90.7212071,25.0043672 L90.5,25 L86.5,25 C85.7203039,25 85.0795513,25.5948881 85.0068666,26.35554 L85,26.5 L85,29 L64.0605501,29 L63.9981192,26.4230926 C63.9590926,25.6291025 63.3002048,25 62.5,25 C61.7203039,25 61.0795513,25.5948881 61.0068666,26.35554 L61,26.5 L61,29 L40.0605501,29 L39.9981192,26.4230926 C39.9613883,25.6758078 39.3755762,25.0745826 38.6396482,25.006436 L38.5,25 L34.5,25 C31.4624339,25 29,27.4624339 29,30.5 C29,33.4634791 31.34378,35.8795391 34.2787929,35.9956328 L34.5,36 L38.5,36 C39.2796961,36 39.9204487,35.4051119 39.9931334,34.64446 L40,34.5 L40,32 L58.9999121,32 L59.0005186,49.2506928 L57.2495208,49.8006033 C52.5552459,51.2748661 48.6847931,54.6891283 46.6186279,59.1379269 L46.4550742,59.5008895 L45.8001197,60.9999103 L42.5200504,60.9999196 L42.0162263,61.0038799 C26.9308713,61.2460199 14.4989026,72.8484658 13.1257435,87.7560104 L13.104,88 L23.7359164,88 C23.9504884,88 24.1373535,87.8638352 24.2070328,87.6676388 L24.2325201,87.5611003 C25.6391755,78.7582772 33.1808984,72.1707315 42.1513552,72.0032674 L42.5015662,72 L45.8008862,72.0020674 L46.4554553,73.4999827 C49.2195851,79.8254143 55.4768105,84 62.5,84 C69.3999757,84 75.5606274,79.9706061 78.3958535,73.8309032 L78.5445447,73.4999827 L79.1995325,72.0011093 L106.500102,72 L106.500102,77 L82.404,77.001 L82.2281383,77.3281536 C78.3947027,84.3083574 71.0826328,88.8468541 62.9159774,88.9961984 L62.5,89 C54.1662333,89 46.6702708,84.4266659 42.7718617,77.3281536 L42.595,77 L42.5,77 C35.9514739,77 30.3906566,81.6945984 29.2237134,88.0368419 L29.1648918,88.3810447 C28.7454864,90.965385 26.5670479,92.8843124 23.9728596,92.9949549 L23.7359164,93 L12.8941207,93 C10.2398222,93 8.08809465,90.8482233 8.08809465,88.1939206 C8.08809465,88.0712256 8.09279311,87.9485756 8.1021797,87.8262402 C9.44635905,70.3075589 23.8208119,56.5677992 41.4217145,56.0169286 L41.9560527,56.0042823 L42.595,56 L42.6065854,55.9793259 C45.03523,51.3949258 48.9900856,47.7711581 53.770078,45.7570602 L54,45.662 L54,37 L44.5,37 L44.4454645,37.1310844 C43.4651132,39.3431142 41.2865052,40.9058829 38.7331341,40.995897 L38.5,41 L34.5,41 C28.7010101,41 24,36.2989899 24,30.5 C24,24.7960755 28.548142,20.1544266 34.2157049,20.0037742 L34.5,20 L38.5,20 Z" id="Path" fill="#000000" fill-rule="nonzero"></path>
    </g>
</svg>