<?xml version="1.0" encoding="UTF-8"?>
<svg  viewBox="0 0 116 116" version="1.1" xmlns="http://www.w3.org/2000/svg" xmlns:xlink="http://www.w3.org/1999/xlink">
    <title>video</title>
    <g id="video" stroke="none" stroke-width="1" fill="none" fill-rule="evenodd">
        <path d="M98.5,8 C104.203924,8 108.845573,12.548142 108.996226,18.2157049 L109,18.5 L109,93 L84.5015964,93.000576 C83.550176,95.2814306 81.3364368,96.9041227 78.7331341,96.995897 L78.5,97 L78.5,92 C79.3284271,92 80,91.3284271 80,90.5 C80,89.6715729 79.3284271,89 78.5,89 C77.7203039,89 77.0795513,89.5948881 77.0068666,90.35554 L77,90.5 L77,93 L26.5,93 L26.5,88 L72.498,88 L72.5545355,87.8689156 C73.5348868,85.6568858 75.7134948,84.0941171 78.2668659,84.004103 L78.5,84 C81.2041134,84 83.5225573,85.6512477 84.5020142,88.0004259 L104,88 L104,18.5 C104,15.5365209 101.65622,13.1204609 98.7212071,13.0043672 L98.5,13 L18.5,13 C15.5365209,13 13.1204609,15.34378 13.0043672,18.2787929 L13,18.5 L13,98.5 C13,101.463479 15.34378,103.879539 18.2787929,103.995633 L18.5,104 L98.5,104 C101.463479,104 103.879539,101.65622 103.995633,98.7212071 L104,98.5 L109,98.5 C109,104.203924 104.451858,108.845573 98.7842951,108.996226 L98.5,109 L18.5,109 C12.7960755,109 8.15442656,104.451858 8.00377424,98.7842951 L8,98.5 L8,18.5 C8,12.7960755 12.548142,8.15442656 18.2157049,8.00377424 L18.5,8 L98.5,8 Z M46.6198085,26.0628316 L46.8152309,26.1736626 L80.9279296,46.6412818 C81.5613029,47.0213058 82.091393,47.5513959 82.4714169,48.1847691 C83.7113361,50.2513012 83.0991135,52.9131072 81.1176851,54.2384424 L80.9279296,54.3587182 L51.7142792,71.8869084 L49.1418004,67.5994438 L77.641,50.5 L45,30.916 L45,66.5 L40,66.5 L40,30.0323808 C40,29.216783 40.2216603,28.4165192 40.6412818,27.7171499 C41.8812011,25.6506178 44.5179583,24.9381996 46.6198085,26.0628316 Z" id="Shape" fill="#000000" fill-rule="nonzero"></path>
    </g>
</svg>