<?xml version="1.0" encoding="UTF-8"?>
<svg width="128px" height="128px" viewBox="0 0 128 128" version="1.1" xmlns="http://www.w3.org/2000/svg" xmlns:xlink="http://www.w3.org/1999/xlink">
    <title>wand</title>
    <g id="wand" stroke="none" stroke-width="1" fill="none" fill-rule="evenodd">
        <path d="M88.2588835,21.0894661 L88.2588835,26.0894661 L82.7577029,26.0895488 L82.7577029,34.0501569 L95.7286817,46.9689102 L81.2294462,61.4681458 L69.9145225,50.1545138 L67.7932021,52.2758342 L79.1081259,63.5894661 L28.9035444,113.794048 L14.054302,98.9448052 L56.4807089,56.5183983 L60.0162428,60.0539322 L21.1241546,98.9448817 L28.9023292,106.723056 L72.0358428,63.5895427 L60.7233496,52.2757576 L69.9157377,43.0833694 L81.228231,54.3971545 L88.6493166,46.9760689 L77.7588835,36.1279363 L77.7588835,21.0894661 L88.2588835,21.0894661 Z M112,61.5 L112,66.5 L106.5,66.5 L106.5,72 L101.5,72 L101.5,61.5 L112,61.5 Z M100,61.5 L100,66.5 L96,66.5 L96,61.5 L100,61.5 Z M106.5,56 L106.5,60 L101.5,60 L101.5,56 L106.5,56 Z M112,29.5 L112,34.5 L106.5,34.5 L106.5,40 L101.5,40 L101.5,29.5 L112,29.5 Z M100,29.5 L100,34.5 L96,34.5 L96,29.5 L100,29.5 Z M106.5,24 L106.5,28 L101.5,28 L101.5,24 L106.5,24 Z M76,21.5 L76,26.5 L72,26.5 L72,21.5 L76,21.5 Z M82.5,16 L82.5,20 L77.5,20 L77.5,16 L82.5,16 Z" id="Shape" fill="#000000" fill-rule="nonzero"></path>
    </g>
</svg>