<?xml version="1.0" encoding="UTF-8"?>
<svg  viewBox="0 0 116 116" version="1.1" xmlns="http://www.w3.org/2000/svg" xmlns:xlink="http://www.w3.org/1999/xlink">
    <title>wand</title>
    <g id="wand" stroke="none" stroke-width="1" fill="none" fill-rule="evenodd">
        <path d="M82.2545815,15.0894661 L82.2545815,20.0894661 L76.7534009,20.0895488 L76.7534009,28.0501569 L89.7243797,40.9689102 L75.2251442,55.4681458 L63.9102205,44.1545138 L61.7889001,46.2758342 L73.1038239,57.5894661 L22.8992424,107.794048 L8.05,92.9448052 L50.4764069,50.5183983 L54.0119408,54.0539322 L15.1198526,92.9448817 L22.8980272,100.723056 L66.0315408,57.5895427 L54.7190476,46.2757576 L63.9114357,37.0833694 L75.223929,48.3971545 L82.6450146,40.9760689 L71.7545815,30.1279363 L71.7545815,15.0894661 L82.2545815,15.0894661 Z M105.995698,55.5 L105.995698,60.5 L100.495698,60.5 L100.495698,66 L95.495698,66 L95.495698,55.5 L105.995698,55.5 Z M93.995698,55.5 L93.995698,60.5 L89.995698,60.5 L89.995698,55.5 L93.995698,55.5 Z M100.495698,50 L100.495698,54 L95.495698,54 L95.495698,50 L100.495698,50 Z M105.995698,23.5 L105.995698,28.5 L100.495698,28.5 L100.495698,34 L95.495698,34 L95.495698,23.5 L105.995698,23.5 Z M93.995698,23.5 L93.995698,28.5 L89.995698,28.5 L89.995698,23.5 L93.995698,23.5 Z M100.495698,18 L100.495698,22 L95.495698,22 L95.495698,18 L100.495698,18 Z M69.995698,15.5 L69.995698,20.5 L65.995698,20.5 L65.995698,15.5 L69.995698,15.5 Z M76.495698,10 L76.495698,14 L71.495698,14 L71.495698,10 L76.495698,10 Z" id="Shape" fill="#000000" fill-rule="nonzero"></path>
    </g>
</svg>