<?xml version="1.0" encoding="UTF-8"?>
<svg  viewBox="0 0 116 116" version="1.1" xmlns="http://www.w3.org/2000/svg" xmlns:xlink="http://www.w3.org/1999/xlink">
    <title>warning-mark</title>
    <g id="warning-mark" stroke="none" stroke-width="1" fill="none" fill-rule="evenodd">
        <path d="M22.7519955,82.3845529 C24.6519421,83.3345262 26.2163749,84.8369784 27.2423982,86.6902942 L27.4178308,87.0209511 L29.0963162,90.3254692 C30.471925,93.033699 33.7825302,94.1140017 36.49076,92.7383929 C37.4505631,92.2508739 38.2443868,91.4933797 38.7762351,90.5619065 L38.9036838,90.3254692 L40.5821692,87.0209511 C43.2083314,81.8506943 49.5285777,79.7882981 54.6988346,82.4144603 C56.5927308,83.3764393 58.1476232,84.8887627 59.1618964,86.7485351 L59.3352328,87.0802956 L61.0806504,90.571131 C62.4390913,93.2880127 65.742793,94.3892466 68.4596748,93.0308057 C69.4421985,92.5395439 70.2531773,91.7663544 70.7907196,90.8131291 L70.9193496,90.571131 L72.6085145,87.1928011 C75.2019016,82.0060268 81.5089685,79.9036712 86.6957428,82.4970583 C88.6208311,83.4596025 90.2009613,84.9890725 91.2258482,86.8751831 L91.3914855,87.1928011 L93.0806504,90.571131 C94.4390913,93.2880127 97.742793,94.3892466 100.459675,93.0308057 C101.442199,92.5395439 102.253177,91.7663544 102.79072,90.8131291 L102.91935,90.571131 L103.763932,88.881966 L108.236068,91.118034 L107.391486,92.8071989 C106.375467,94.8392367 104.72778,96.4869228 102.695743,97.5029417 C97.59688,100.052373 91.4153787,98.0638905 88.7435586,93.0682672 L88.6085145,92.8071989 L86.9193496,89.428869 C86.3871492,88.3644683 85.5240755,87.5013946 84.4596748,86.9691943 C81.8124567,85.6455852 78.6081261,86.6571309 77.18894,89.2230791 L77.0806504,89.428869 L75.3914855,92.8071989 C74.3754666,94.8392367 72.7277805,96.4869228 70.6957428,97.5029417 C65.59688,100.052373 59.4153787,98.0638905 56.7435586,93.0682672 L56.6085145,92.8071989 L54.8630968,89.3163636 C54.3362209,88.2626117 53.4849035,87.4058892 52.4345073,86.8723546 C49.7957193,85.5320178 46.5850509,86.5232631 45.1496533,89.0801779 L45.0400635,89.2852784 L43.3615781,92.5897965 C42.3533001,94.5748438 40.7401346,96.1880093 38.7550873,97.1962873 C33.6724619,99.7779383 27.4784994,97.8286181 24.7751156,92.8500048 L24.6384219,92.5897965 L22.9599365,89.2852784 C22.4264019,88.2348822 21.5696794,87.3835648 20.5159275,86.8566888 C17.8687094,85.5330798 14.6643788,86.5446255 13.2451927,89.1105736 L13.1369032,89.3163636 L12.236068,91.118034 L7.76393202,88.881966 L8.66476722,87.0802956 C11.2581543,81.8935214 17.5652213,79.7911658 22.7519955,82.3845529 Z M58,5.49306091 L92.0801257,56.6132495 L87.9198743,59.3867505 L58,14.507 L30.671,55.5 L82,55.5 L82,60.5 L21.3287073,60.5 L58,5.49306091 Z M58,47 C59.3807119,47 60.5,48.1192881 60.5,49.5 C60.5,50.8807119 59.3807119,52 58,52 C56.6192881,52 55.5,50.8807119 55.5,49.5 C55.5,48.1192881 56.6192881,47 58,47 Z M60.5,26 L60.5,42 L55.5,42 L55.5,26 L60.5,26 Z" id="Shape" fill="#000000" fill-rule="nonzero"></path>
    </g>
</svg>