<?xml version="1.0" encoding="UTF-8"?>
<svg  viewBox="0 0 116 116" version="1.1" xmlns="http://www.w3.org/2000/svg" xmlns:xlink="http://www.w3.org/1999/xlink">
    <title>wave</title>
    <g id="wave" stroke="none" stroke-width="1" fill="none" fill-rule="evenodd">
        <path d="M52.5,16 C57.1090673,16 60.8613215,19.668453 60.9962434,24.2448397 L61,24.5 L61,92.5 C61,94.4329966 62.5670034,96 64.5,96 C66.3685634,96 67.8951264,94.5357224 67.9948211,92.6920352 L68,92.5 L68,40.5 C68,35.8055796 71.8055796,32 76.5,32 C81.1090673,32 84.8613215,35.668453 84.9962434,40.2448397 L85,40.5 L85,64.5 C85,66.4329966 86.5670034,68 88.5,68 C90.4329966,68 92,66.4329966 92,64.5 C92,59.8909327 95.668453,56.1386785 100.24484,56.0037566 L100.5,56 L106.5,56 L106.5,61 L100.5,61 C98.6314366,61 97.1048736,62.4642776 97.0051789,64.3079648 L97,64.5 C97,69.1944204 93.1944204,73 88.5,73 C83.8909327,73 80.1386785,69.331547 80.0037566,64.7551603 L80,64.5 L80,40.5 C80,38.5670034 78.4329966,37 76.5,37 C74.6314366,37 73.1048736,38.4642776 73.0051789,40.3079648 L73,40.5 L73,92.5 C73,97.1944204 69.1944204,101 64.5,101 C59.8909327,101 56.1386785,97.331547 56.0037566,92.7551603 L56,92.5 L56,24.5 C56,22.5670034 54.4329966,21 52.5,21 C50.6314366,21 49.1048736,22.4642776 49.0051789,24.3079648 L49,24.5 L49,76.5 C49,81.1944204 45.1944204,85 40.5,85 C35.8909327,85 32.1386785,81.331547 32.0037566,76.7551603 L32,76.5 L32,52.5 C32,50.5670034 30.4329966,49 28.5,49 C26.6314366,49 25.1048736,50.4642776 25.0051789,52.3079648 L25,52.5 C25,57.1090673 21.331547,60.8613215 16.7551603,60.9962434 L16.5,61 L10.5,61 L10.5,56 L16.5,56 C18.4329966,56 20,54.4329966 20,52.5 C20,47.8055796 23.8055796,44 28.5,44 C33.1090673,44 36.8613215,47.668453 36.9962434,52.2448397 L37,52.5 L37,76.5 C37,78.4329966 38.5670034,80 40.5,80 C42.3685634,80 43.8951264,78.5357224 43.9948211,76.6920352 L44,76.5 L44,24.5 C44,19.8055796 47.8055796,16 52.5,16 Z" id="Path-158" fill="#000000" fill-rule="nonzero"></path>
    </g>
</svg>