<?xml version="1.0" encoding="UTF-8"?>
<svg  viewBox="0 0 117 116" version="1.1" xmlns="http://www.w3.org/2000/svg" xmlns:xlink="http://www.w3.org/1999/xlink">
    <title>wifi-off</title>
    <g id="wifi-off" stroke="none" stroke-width="1" fill="none" fill-rule="evenodd" transform="translate(1.000000, 0.000000)">
        <path d="M12.267767,8.73223305 L108.267767,104.732233 L104.732233,108.267767 L8.73223305,12.267767 L12.267767,8.73223305 Z M48.8344472,57.2823521 L50.192221,62.0944671 C49.7755532,62.2120329 49.2958818,62.3926124 48.7549543,62.635915 L48.2763413,62.8598142 C47.6182974,63.1788094 46.8808975,63.5796205 46.0667503,64.0618142 L45.4417905,64.438712 L45.1185944,64.6385926 L45.1185944,64.6385926 L44.4509226,65.0611919 C44.3372898,65.134161 44.2224833,65.2083975 44.1065081,65.2839005 L43.3966747,65.75211 L42.6590393,66.2506754 L41.8938462,66.7795563 L40.6949212,67.62963 L40.6949212,67.62963 L40.2817657,67.9281015 C40.260487,67.9435426 40.2404593,67.9606378 40.2218689,67.9792282 C40.0482995,68.1527976 40.0290145,68.4222201 40.1640199,68.6170947 L40.2218794,68.6863455 L46.8823147,75.3467808 C47.0530636,75.5175297 47.321436,75.5418511 47.520111,75.4045704 C50.7964006,73.1407698 54.4786198,72 58.5,72 C62.000869,72 65.248213,72.8645503 68.1962538,74.5871535 C68.602967,74.8248047 68.9774648,75.1137207 69.3105517,75.4468076 C71.3987756,77.5350316 71.4567799,80.8846721 69.4845669,83.0429641 L69.3105481,83.2249858 L60.267767,92.267767 L56.732233,88.732233 L65.7750196,79.6894465 C65.9702809,79.4941864 65.9702811,79.1776048 65.7750178,78.9823415 C65.7447369,78.9520606 65.7106913,78.9257953 65.6737171,78.9041904 C63.4974725,77.6325643 61.1214929,77 58.5,77 C55.4908161,77 52.8005474,77.8334587 50.3624482,79.5180991 C48.2454682,80.9808927 45.4087651,80.7755226 43.5259543,79.0536741 L43.3467808,78.8823147 L36.6863612,72.2218952 C34.538446,70.0740182 34.53844,66.5915893 36.686335,64.4436943 C36.890824,64.2392053 37.1111226,64.0511628 37.3451815,63.8813159 L38.2459577,63.2336917 C38.3937833,63.1284351 38.5404604,63.0245183 38.6859941,62.9219405 L39.5455167,62.322535 C39.6864973,62.2253098 39.8263446,62.1294218 39.9650639,62.0348704 L40.7838831,61.4835921 L41.1832162,61.2199683 L41.1832162,61.2199683 L41.9618823,60.7167259 L42.7140853,60.2454568 L43.0803396,60.0217994 L43.0803396,60.0217994 L43.7933065,59.5984138 C44.02664,59.4625995 44.2556648,59.332097 44.4804218,59.2068998 L45.1419299,58.8472168 C46.5476329,58.1023578 47.774741,57.581356 48.8344472,57.2823521 Z M58.5,40 C71.0495864,40 82.1692917,44.158748 91.754524,52.4337641 C91.8561563,52.5215041 91.9545417,52.6129364 92.0494823,52.707877 C94.1376922,54.7960869 94.1957033,58.1457013 92.2235091,60.304018 L92.049492,60.4860419 L84.5762303,67.9593036 C82.6794679,69.856066 79.6910793,70.107873 77.5036773,68.5552509 C73.9111009,66.0052554 70.8749703,64.1363605 68.417707,62.9524424 L68.0862158,62.7952451 L70.1998636,58.2639657 C72.7684394,59.4620963 75.8042188,61.2816366 79.326457,63.7259186 L80.3977415,64.4779488 C80.5717373,64.6014513 80.8014834,64.599363 80.9717182,64.4813942 L81.0406964,64.4237697 L88.5139435,56.9505226 C88.6875118,56.7769514 88.7067968,56.5075244 88.5718029,56.312658 L88.5007697,56.2307061 L88.4871347,56.2184922 C79.8075589,48.7253375 69.8467113,45 58.5,45 C57.6841122,45 56.8755932,45.0192682 56.0744146,45.057783 L55.2756816,45.1027124 L54.953958,40.1130738 C56.1233382,40.0376741 57.3053748,40 58.5,40 Z M25.1530665,32.8663068 L27.6526355,37.1966826 L27.2795151,37.4176152 L26.8755298,37.6674879 L26.4407746,37.9462497 L25.9753444,38.2538496 L25.2198912,38.7692092 L24.6781891,39.1486811 L23.8087732,39.7716095 L22.8714069,40.4588496 L22.2089042,40.9526534 L21.1589996,41.746697 L20.0419994,42.6045931 L18.4488487,43.8474831 L17.1765384,44.8536987 C17.1617062,44.8654915 17.1475565,44.8781179 17.1341575,44.8915168 C16.9605907,45.0650837 16.9413055,45.3345078 17.0763032,45.529377 L17.1341593,45.5986254 L24.5398536,53.0043197 C24.7073471,53.1718132 24.9693749,53.1987958 25.1674991,53.0689412 L28.5687526,50.8555269 L30.0587678,49.8987657 L31.724815,48.8428479 L32.9010726,48.1098098 L33.9386789,47.4757632 L34.405641,47.1957769 L35.0414551,46.8219984 L35.5998982,46.503559 L38.0410299,50.8671443 L37.5177046,51.1658173 L36.4674058,51.7894942 L35.4674373,52.4014299 L34.0186197,53.307147 L32.3497437,54.3688104 L30.0579641,55.847909 L27.9083311,57.2507877 C25.7994179,58.6330114 23.0319634,58.399623 21.1858059,56.7133208 L21.0043197,56.5398536 L13.5986281,49.134162 C11.4507391,46.9862795 11.4507381,43.5038685 13.5986236,41.3559829 C13.7460111,41.2085954 13.9016579,41.0697055 14.0648108,40.9399855 L15.8614757,39.5221363 L17.1258505,38.5388984 L18.319366,37.6241504 L19.0758497,37.0522753 L19.8010999,36.5107006 L20.4952206,35.9993706 L21.4782608,35.2889621 L22.0950119,34.8529996 L22.680997,34.4470863 L23.2363198,34.0711666 L23.7610844,33.7251845 L24.2553944,33.4090845 L24.7193538,33.1228105 C24.8689601,33.0323506 25.0135252,32.9468525 25.1530665,32.8663068 Z M58.5,24 C75.9060856,24 91.4896031,30.2417928 105.145062,42.6580088 L105.697605,43.1647514 L102.302395,46.8352486 C89.4228869,34.9217036 74.858697,29 58.5,29 C52.2479662,29 46.2645983,29.8647507 40.5420323,31.5932341 L39.7632982,31.83429 L38.2520464,27.0681471 C44.7040927,25.022328 51.4564058,24 58.5,24 Z" id="Shape" fill="#000000" fill-rule="nonzero"></path>
    </g>
</svg>