<?xml version="1.0" encoding="UTF-8"?>
<svg  viewBox="0 0 116 116" version="1.1" xmlns="http://www.w3.org/2000/svg" xmlns:xlink="http://www.w3.org/1999/xlink">
    <title>wifi</title>
    <g id="wifi" stroke="none" stroke-width="1" fill="none" fill-rule="evenodd">
        <path d="M58.5,24 C75.9060856,24 91.4896031,30.2417928 105.145062,42.6580088 L105.697605,43.1647514 L102.302395,46.8352486 C89.4228869,34.9217036 74.858697,29 58.5,29 C43.3603035,29 29.762178,34.0714438 17.6128188,44.2652115 L17.0298518,44.7597197 L17.0158388,44.7731981 C16.8422727,44.9467641 16.8229876,45.2161887 16.9579827,45.4110562 L17.0158378,45.4803038 L24.2331715,52.6976376 C24.4194087,52.8838748 24.7181895,52.8937073 24.9162636,52.7201224 C34.5754367,44.2550903 45.8058023,40 58.5,40 C71.0495864,40 82.1692917,44.158748 91.754524,52.4337641 C91.8561563,52.5215041 91.9545417,52.6129364 92.0494823,52.707877 C94.1376922,54.7960869 94.1957033,58.1457013 92.2235091,60.304018 L92.049492,60.4860419 L84.8561904,67.6793435 C82.7953203,69.7402137 79.4846238,69.835634 77.3084649,67.8968814 C72.1393159,63.2916177 65.9093892,61 58.5,61 C51.3975803,61 45.3797841,63.1057368 40.3415772,67.3346416 L39.9305057,67.687865 C39.7569417,67.861429 39.7376565,68.1308548 39.8726452,68.325718 L39.9304975,68.3949636 L46.8823147,75.3467808 C47.0530636,75.5175297 47.321436,75.5418511 47.520111,75.4045704 C50.7964006,73.1407698 54.4786198,72 58.5,72 C62.000869,72 65.248213,72.8645503 68.1962538,74.5871535 C68.602967,74.8248047 68.9774648,75.1137207 69.3105517,75.4468076 C71.3987756,77.5350316 71.4567799,80.8846721 69.4845669,83.0429641 L69.3105481,83.2249858 L60.267767,92.267767 L56.732233,88.732233 L65.7750196,79.6894465 C65.9702809,79.4941864 65.9702811,79.1776048 65.7750178,78.9823415 C65.7447369,78.9520606 65.7106913,78.9257953 65.6737171,78.9041904 C63.4974725,77.6325643 61.1214929,77 58.5,77 C55.4908161,77 52.8005474,77.8334587 50.3624482,79.5180991 C48.2454682,80.9808927 45.4087651,80.7755226 43.5259543,79.0536741 L43.3467808,78.8823147 L36.3949514,71.9304853 C34.2470924,69.7825965 34.247097,66.3002058 36.3949718,64.1523311 C36.4852235,64.0620793 36.5785895,63.9749966 36.6749002,63.891241 C42.7171268,58.6366826 50.0299344,56 58.5,56 C67.1162363,56 74.5339658,58.7285394 80.6344961,64.1635831 C80.8076015,64.3178036 81.0596735,64.3304397 81.2454972,64.2056785 L81.3206565,64.1438096 L88.5139435,56.9505226 C88.6875118,56.7769514 88.7067968,56.5075244 88.5718029,56.312658 L88.5007697,56.2307061 L88.4871347,56.2184922 C79.8075589,48.7253375 69.8467113,45 58.5,45 C47.0225015,45 36.9621911,48.8117663 28.2116987,56.4804558 C26.0969002,58.3337876 22.9386279,58.2864099 20.8815513,56.4088944 L20.6976376,56.2331715 L13.4803023,49.0158362 C11.3324218,46.867952 11.3324224,43.3855467 13.4803049,41.2376642 C13.5811454,41.1368236 13.6858699,41.0399433 13.7942408,40.9472428 C26.9815166,29.6668484 41.9158441,24 58.5,24 Z" id="Path-239" fill="#000000" fill-rule="nonzero"></path>
    </g>
</svg>