<?xml version="1.0" encoding="UTF-8"?>
<svg  viewBox="0 0 116 116" version="1.1" xmlns="http://www.w3.org/2000/svg" xmlns:xlink="http://www.w3.org/1999/xlink">
    <title>wind</title>
    <g id="wind" stroke="none" stroke-width="1" fill="none" fill-rule="evenodd">
        <path d="M74.5,68 C80.2989899,68 85,72.7010101 85,78.5 C85,84.2989899 80.2989899,89 74.5,89 C68.7960755,89 64.1544266,84.451858 64.0037742,78.7842951 L64,78.5 L69,78.5 C69,81.5375661 71.4624339,84 74.5,84 C77.5375661,84 80,81.5375661 80,78.5 C80,75.5365209 77.65622,73.1204609 74.7212071,73.0043672 L74.5,73 L10.5,73 L10.5,68 L74.5,68 Z M94.5,32 C102.508129,32 109,38.4918711 109,46.5 C109,54.4027588 102.677844,60.8288988 94.8153115,60.9966395 L94.5,61 L10.5,61 L10.5,56 L94.5,56 C99.7467051,56 104,51.7467051 104,46.5 C104,41.2532949 99.7467051,37 94.5,37 C89.3437553,37 85.1469606,41.1078939 85.0037764,46.2295213 L85,46.5 L80,46.5 C80,38.4918711 86.4918711,32 94.5,32 Z M58.5,28 C64.2989899,28 69,32.7010101 69,38.5 C69,44.2039245 64.451858,48.8455734 58.7842951,48.9962258 L58.5,49 L10.5,49 L10.5,44 L58.5,44 C61.5375661,44 64,41.5375661 64,38.5 C64,35.4624339 61.5375661,33 58.5,33 C55.5365209,33 53.1204609,35.34378 53.0043672,38.2787929 L53,38.5 L48,38.5 C48,32.7010101 52.7010101,28 58.5,28 Z" id="Shape" fill="#000000" fill-rule="nonzero"></path>
    </g>
</svg>