<?xml version="1.0" encoding="UTF-8"?>
<svg  viewBox="0 0 116 116" version="1.1" xmlns="http://www.w3.org/2000/svg" xmlns:xlink="http://www.w3.org/1999/xlink">
    <title>wrench</title>
    <g id="wrench" stroke="none" stroke-width="1" fill="none" fill-rule="evenodd">
        <path d="M85.0207082,17.4893571 L85.267767,17.732233 L87.3598294,19.8242955 L84.9480178,21.537951 L84.206921,22.070532 L83.4918886,22.5966151 L82.4679752,23.3737151 L82.4679752,23.3737151 L81.8176324,23.8838715 L81.1929767,24.3877844 L80.5939004,24.8855264 L80.3039208,25.1321061 L80.3039208,25.1321061 L79.7430113,25.6207283 C79.468893,25.8635361 79.2042658,26.1040979 78.9490692,26.3424547 L78.4512319,26.8162405 C72.7085251,32.3882017 72.2253064,36.7403752 76.197605,40.4147514 C79.9372566,43.8739292 84.078176,43.7247441 88.9836555,39.4582159 L89.4531672,39.0394151 C89.7677316,38.7518938 90.0854246,38.4477094 90.4063392,38.1267316 L90.890139,37.6326535 L91.1338728,37.3761376 L91.1338728,37.3761376 L91.6250519,36.8440912 L92.1212378,36.2866103 C92.2043565,36.1915719 92.2876868,36.0954696 92.37123,35.9983015 L92.8750568,35.4024858 L93.3840647,34.7809915 L93.8983234,34.1337208 L94.1574436,33.8003888 L94.1574436,33.8003888 L94.6797093,33.1142704 L95.2074002,32.4021314 L97.1431194,29.7242187 L99.2165588,31.6824671 C100.873943,33.2477749 102.067467,34.9570921 102.807379,36.7892942 C104.670278,41.4022848 103.60262,46.0503928 100.744231,50.8192556 L100.416201,51.3555911 L100.08666,51.8718675 L99.7382356,52.3960135 L99.1421959,53.2580831 L98.391885,54.3276239 L98.2795208,54.5031071 C98.3152844,54.4385507 98.3516465,54.360287 98.3902411,54.2335149 L98.4196311,54.1287968 L93.5803689,52.8712032 C93.6036111,52.7817666 93.6592614,52.6536524 93.7396929,52.4965286 L93.8779729,52.2402944 L93.8779729,52.2402944 L94.0477047,51.9477971 L94.0477047,51.9477971 L94.3130523,51.5139242 L94.6105862,51.0456622 L95.2479782,50.0747224 L96.2164465,48.6235985 L96.4556046,48.2487133 L96.4556046,48.2487133 C98.5892665,44.6889674 99.320188,41.5068584 98.1711558,38.661575 C98.0553331,38.3747695 97.9198581,38.0900512 97.7638789,37.80738 L97.592,37.51 L97.5504858,37.5634782 C96.9928505,38.258402 96.436084,38.9193963 95.8804006,39.546161 L95.3250862,40.1615048 C87.4634711,48.7169208 79.8335496,50.3825852 73.0442638,44.3053572 L72.802395,44.0852486 C66.1889947,37.9678532 67.3112633,30.743996 75.2469115,23.0354313 L75.8116045,22.4968458 C76.0994667,22.2271677 76.3955939,21.9569173 76.6999468,21.6861211 L77.3196088,21.1438087 L77.6376438,20.8721214 L77.6376438,20.8721214 L78.2900783,20.3277136 L78.9642743,19.7819676 L79.395,19.441 L79.2812637,19.3757689 C74.9864461,16.9703832 70.0141516,18.6383124 64.5603921,23.9781916 L64.267767,24.267767 L58.267767,30.267767 C53.7982901,34.7372438 53.7225363,41.9366301 58.0405054,46.4986462 L58.267767,46.732233 L60.2118916,48.6763577 L22.9952493,79.4205406 C18.5843767,83.0643049 17.9625126,89.5938782 21.6062769,94.0047507 C21.8151345,94.2575784 22.0358798,94.5003459 22.267767,94.732233 C26.3350014,98.7994675 32.9292914,98.7994675 36.9965258,94.732233 C37.1449187,94.5838401 37.2887756,94.4310129 37.4279026,94.2739635 L37.6330214,94.0352495 L70.3320041,54.7964702 L72.267767,56.732233 C76.1978242,60.6622903 82.238611,61.1951794 86.7410695,58.3309004 L86.883,58.237 L82.2677485,53.8025828 L85.7322515,50.1974172 L94.2003844,58.3351495 L92.267767,60.267767 C86.4712204,66.0643135 77.4625143,66.6909672 70.9714468,62.147728 L70.81,62.032 L41.4741278,97.2361715 C41.2752803,97.4747885 41.0692887,97.7073135 40.8564399,97.9334324 L40.5320597,98.267767 C34.5122038,104.287623 24.752089,104.287623 18.732233,98.267767 C18.3884232,97.9239571 18.061133,97.5640154 17.7514681,97.189158 C12.4240385,90.7401642 13.2466259,81.2365102 19.5416023,75.7932907 L19.810842,75.5657318 L52.961,48.18 L52.852272,48.0285532 C48.3778698,41.6358352 48.9178839,32.8011927 54.4723142,26.9979047 L54.732233,26.732233 L60.732233,20.732233 C62.0622123,19.4022538 63.4070785,18.23659 64.7575359,17.2457235 L65.3366186,16.8317989 C72.1925061,12.0610532 79.1580383,11.8245023 85.0207082,17.4893571 Z M30.5,80 C34.0118106,80 36.8731506,82.7849962 36.995897,86.2668659 L37,86.5 L32,86.5 C32,85.6715729 31.3284271,85 30.5,85 C29.6715729,85 29,85.6715729 29,86.5 C29,87.2796961 29.5948881,87.9204487 30.35554,87.9931334 L30.5,88 L30.5,93 C26.9101491,93 24,90.0898509 24,86.5 C24,82.9101491 26.9101491,80 30.5,80 Z" id="Shape" fill="#000000" fill-rule="nonzero"></path>
    </g>
</svg>