<?xml version="1.0" encoding="UTF-8"?>
<svg  viewBox="0 0 116 116" version="1.1" xmlns="http://www.w3.org/2000/svg" xmlns:xlink="http://www.w3.org/1999/xlink">
    <title>wrench</title>
    <g id="wrench" stroke="none" stroke-width="1" fill="none" fill-rule="evenodd">
        <path d="M87.9974538,20.4670234 L88.267767,20.732233 L90.0355339,22.5 L80.0817775,32.4558216 C79.0207667,33.5875665 79.078108,35.3651462 80.2098528,36.426157 C81.434433,37.5742009 83.3168177,37.6082866 84.5802827,36.5354192 L84.728846,36.4013622 L94.537212,27.0016781 L96.267767,28.732233 C101.111176,33.5756421 102.994745,40.5058738 101.438738,47.0300749 L101.343237,47.4133643 L96.5039752,46.1557707 C97.5453848,42.1483915 96.8300455,37.914417 94.55928,34.4982635 L94.313,34.141 L88.1883728,40.0113032 C87.3436045,40.8208728 86.3697716,41.4172562 85.3348428,41.8000804 L96.267767,52.732233 L92.732233,56.267767 L76.732233,40.267767 L76.8611894,40.1384373 L76.7901472,40.073843 C73.7107836,37.1869397 73.492565,32.391808 76.2500364,29.2393459 L76.5209409,28.9449607 L82.812,22.652 L82.53503,22.4619038 C77.0085179,18.7645547 69.4980273,19.2821835 64.5270291,24.0147904 L64.267767,24.267767 L58.267767,30.267767 C53.7982901,34.7372438 53.7225363,41.9366301 58.0405054,46.4986462 L58.267767,46.732233 L60.2118916,48.6763577 L22.9952493,79.4205406 C18.5843767,83.0643049 17.9625126,89.5938782 21.6062769,94.0047507 C21.8151345,94.2575784 22.0358798,94.5003459 22.267767,94.732233 C26.3350014,98.7994675 32.9292914,98.7994675 36.9965258,94.732233 C37.1449187,94.5838401 37.2887756,94.4310129 37.4279026,94.2739635 L37.6330214,94.0352495 L70.3320041,54.7964702 L72.267767,56.732233 C76.7372438,61.2017099 83.9366301,61.2774637 88.4986462,56.9594946 L88.732233,56.732233 L88.8615611,56.602905 L92.397095,60.1384389 L92.267767,60.267767 C86.4712204,66.0643135 77.4625143,66.6909672 70.9714468,62.147728 L70.81,62.032 L41.4741278,97.2361715 C41.2752803,97.4747885 41.0692887,97.7073135 40.8564399,97.9334324 L40.5320597,98.267767 C34.5122038,104.287623 24.752089,104.287623 18.732233,98.267767 C18.3884232,97.9239571 18.061133,97.5640154 17.7514681,97.189158 C12.4240385,90.7401642 13.2466259,81.2365102 19.5416023,75.7932907 L19.810842,75.5657318 L52.961,48.18 L52.852272,48.0285532 C48.3778698,41.6358352 48.9178839,32.8011927 54.4723142,26.9979047 L54.732233,26.732233 L60.732233,20.732233 C68.2465052,13.2179609 80.3746207,13.1295577 87.9974538,20.4670234 Z M30.5,80 C34.0118106,80 36.8731506,82.7849962 36.995897,86.2668659 L37,86.5 L32,86.5 C32,85.6715729 31.3284271,85 30.5,85 C29.6715729,85 29,85.6715729 29,86.5 C29,87.2796961 29.5948881,87.9204487 30.35554,87.9931334 L30.5,88 L30.5,93 C26.9101491,93 24,90.0898509 24,86.5 C24,82.9101491 26.9101491,80 30.5,80 Z M78.732233,46.732233 L82.267767,50.267767 L78.267767,54.267767 L74.732233,50.732233 L78.732233,46.732233 Z M72.732233,40.732233 L76.267767,44.267767 L72.267767,48.267767 L68.732233,44.732233 L72.732233,40.732233 Z M66.732233,34.732233 L70.267767,38.267767 L66.267767,42.267767 L62.732233,38.732233 L66.732233,34.732233 Z" id="Shape" fill="#000000" fill-rule="nonzero"></path>
    </g>
</svg>