<?xml version="1.0" encoding="UTF-8"?><svg viewBox="0 0 130 130" version="1.1" xmlns="http://www.w3.org/2000/svg" xmlns:xlink="http://www.w3.org/1999/xlink">
  <title>airplane</title>
  <g id="strokes" stroke="none" stroke-width="1" fill="none" fill-rule="evenodd">
    <g id="airplane" transform="translate(1.000000, 1.000000)">
      <g id="Group" stroke="#979797" stroke-opacity="0.01" stroke-width="0.1">
        <g id="Rectangle">
          <rect x="0" y="0" width="128" height="128"></rect>
        </g>
      </g>
      <path d="M56.5,40.5 L56.5,24.5 C56.5,20.081722 60.081722,16.5 64.5,16.5 C68.918278,16.5 72.5,20.081722 72.5,24.5 L72.5,48.5 L72.5,48.5 L105.866563,65.1832816 C109.931971,67.2159857 112.5,71.3711432 112.5,75.9164079 L112.5,76.5 L112.5,76.5 L72.5,68.5 L70.5,101 L78.3223695,107.425518 C79.1758994,108.126632 79.299457,109.386919 78.5983432,110.240449 C78.1296545,110.811027 77.3847146,111.076943 76.6606584,110.932132 L64.5,108.5 L64.5,108.5 L52.0044809,110.999104 C50.9213614,111.215728 49.8677111,110.513294 49.6510872,109.430175 C49.5092216,108.720846 49.7614379,107.990196 50.3106659,107.519429 L58.5,100.5 L58.5,100.5 L56.5,68.5 L16.5,76.5 L16.5,75.9164079 C16.5,71.3711432 19.0680285,67.2159857 23.1334369,65.1832816 L56.5,48.5 L56.5,48.5" id="Path-367" stroke="#000000" stroke-width="3"></path>
    </g>
  </g>
</svg>
