<?xml version="1.0" encoding="UTF-8"?>
<svg width="130px" height="130px" viewBox="0 0 130 130" version="1.1" xmlns="http://www.w3.org/2000/svg" xmlns:xlink="http://www.w3.org/1999/xlink">
    <title>arrow-up-down-left-right</title>
    <g id="strokes" stroke="none" stroke-width="1" fill="none" fill-rule="evenodd">
        <g id="arrow-up-down-left-right" transform="translate(1.000000, 1.000000)">
            <g id="Group" stroke="#979797" stroke-opacity="0.01" stroke-width="0.1">
                <g id="Rectangle">
                    <rect x="0" y="0" width="128" height="128"></rect>
                </g>
            </g>
            <path d="M32.5,53.5 L18.8972129,62.8519162 C17.9870013,63.4776866 17.7564162,64.7228461 18.3821867,65.6330576 C18.5208912,65.8348097 18.6954608,66.0093793 18.8972129,66.1480838 L30.9334712,74.4230114 C31.388577,74.7358967 32.0111567,74.6206041 32.3240419,74.1654983 C32.4386471,73.9988 32.5,73.8012631 32.5,73.5989695 L32.5,64.5 L32.5,64.5 L61.4527588,64.5 C63.1096131,64.5 64.4527588,65.8431458 64.4527588,67.5 C64.4527588,67.5156238 64.4526368,67.5312474 64.4523927,67.5468693 L64,96.5 L64,96.5 L73.5989695,96.5 C74.1512543,96.5 74.5989695,96.9477153 74.5989695,97.5 C74.5989695,97.7022936 74.5376166,97.8998305 74.4230114,98.0665288 L66.1480838,110.102787 C65.5223134,111.012999 64.2771539,111.243584 63.3669424,110.617813 C63.1651903,110.479109 62.9906207,110.304539 62.8519162,110.102787 L53.5,96.5 L53.5,96.5" id="Path-313" stroke="#000000" stroke-width="3"></path>
            <path d="M96.5,75.5 L110.102787,66.1480838 C111.012999,65.5223134 111.243584,64.2771539 110.617813,63.3669424 C110.479109,63.1651903 110.304539,62.9906207 110.102787,62.8519162 L98.0665288,54.5769886 C97.611423,54.2641033 96.9888433,54.3793959 96.6759581,54.8345017 C96.5613529,55.0012 96.5,55.1987369 96.5,55.4010305 L96.5,64.5 L96.5,64.5 L72.5,64.5 M64.5,56.5 L64.5,32.5 L55.4010305,32.5 C54.8487457,32.5 54.4010305,32.0522847 54.4010305,31.5 C54.4010305,31.2977064 54.4623834,31.1001695 54.5769886,30.9334712 L62.8519162,18.8972129 C63.4776866,17.9870013 64.7228461,17.7564162 65.6330576,18.3821867 C65.8348097,18.5208912 66.0093793,18.6954608 66.1480838,18.8972129 L75.5,32.5 L75.5,32.5" id="Shape" stroke="#000000" stroke-width="3"></path>
        </g>
    </g>
</svg>