<?xml version="1.0" encoding="UTF-8"?>
<svg width="130px" height="130px" viewBox="0 0 130 130" version="1.1" xmlns="http://www.w3.org/2000/svg" xmlns:xlink="http://www.w3.org/1999/xlink">
    <title>article</title>
    <g id="strokes" stroke="none" stroke-width="1" fill="none" fill-rule="evenodd">
        <g id="article" transform="translate(1.000000, 1.000000)">
            <g id="Group" stroke="#979797" stroke-opacity="0.01" stroke-width="0.1">
                <g id="Rectangle">
                    <rect x="0" y="0" width="128" height="128"></rect>
                </g>
            </g>
            <path d="M24,112 L24,18 C24,16.8954305 24.8954305,16 26,16 L102,16 C103.104569,16 104,16.8954305 104,18 L104,112 L104,112" id="Path-17" stroke="#000000" stroke-width="3"></path>
            <path d="M40.5,72.5 L80.5,72.5 C84.918278,72.5 88.5,76.081722 88.5,80.5 C88.5,84.918278 84.918278,88.5 80.5,88.5 L48.5,88.5 C44.081722,88.5 40.5,92.081722 40.5,96.5 C40.5,100.918278 44.081722,104.5 48.5,104.5 L80,104.5 C84.418278,104.5 88,108.081722 88,112.5 L88,112.5 L88,112.5" id="Path-18" stroke="#000000" stroke-width="3"></path>
            <path d="M24,56.5 L94.0857864,56.5 C94.6380712,56.5 95.0857864,56.0522847 95.0857864,55.5 C95.0857864,55.2347835 94.9804296,54.9804296 94.7928932,54.7928932 L73.9142136,33.9142136 C73.133165,33.133165 71.866835,33.133165 71.0857864,33.9142136 L57.2071068,47.7928932 C56.8165825,48.1834175 56.1834175,48.1834175 55.7928932,47.7928932 L49.9142136,41.9142136 C49.133165,41.133165 47.866835,41.133165 47.0857864,41.9142136 L40.5,48.5 L40.5,48.5 L32.5,48.5" id="Path-144" stroke="#000000" stroke-width="3"></path>
            <path d="M44.5,32.5 C44.5,30.290861 42.709139,28.5 40.5,28.5 C38.290861,28.5 36.5,30.290861 36.5,32.5 C36.5,34.709139 38.290861,36.5 40.5,36.5" id="Path" stroke="#000000" stroke-width="3"></path>
        </g>
    </g>
</svg>