<?xml version="1.0" encoding="UTF-8"?>
<svg width="130px" height="130px" viewBox="0 0 130 130" version="1.1" xmlns="http://www.w3.org/2000/svg" xmlns:xlink="http://www.w3.org/1999/xlink">
    <title>ascending-sort</title>
    <g id="strokes" stroke="none" stroke-width="1" fill="none" fill-rule="evenodd">
        <g id="ascending-sort" transform="translate(1.000000, 1.000000)">
            <g id="Group" stroke="#979797" stroke-opacity="0.01" stroke-width="0.1">
                <g id="Rectangle">
                    <rect x="0" y="0" width="128" height="128"></rect>
                </g>
            </g>
            <path d="M96.5,32.5 L20.5,32.5 C18.290861,32.5 16.5,34.290861 16.5,36.5 C16.5,38.709139 18.290861,40.5 20.5,40.5 L76.5,40.5 C78.709139,40.5 80.5,42.290861 80.5,44.5 C80.5,46.709139 78.709139,48.5 76.5,48.5 L20.5,48.5 C18.290861,48.5 16.5,50.290861 16.5,52.5 C16.5,54.709139 18.290861,56.5 20.5,56.5 L60.5,56.5 C62.709139,56.5 64.5,58.290861 64.5,60.5 C64.5,62.709139 62.709139,64.5 60.5,64.5 L20.5,64.5 C18.290861,64.5 16.5,66.290861 16.5,68.5 C16.5,70.709139 18.290861,72.5 20.5,72.5 L44.5,72.5 C46.709139,72.5 48.5,74.290861 48.5,76.5 C48.5,78.709139 46.709139,80.5 44.5,80.5 L20.5,80.5 C18.290861,80.5 16.5,82.290861 16.5,84.5 L16.5,96.5 L16.5,96.5" id="Path-66" stroke="#000000" stroke-width="3"></path>
            <path d="M112.5,72.5 L98.1641006,50.9961509 C97.5513957,50.0770935 96.309657,49.8287458 95.3905996,50.4414507 C95.170895,50.5879204 94.9823691,50.7764463 94.8358994,50.9961509 L80.5,72.5 L80.5,72.5" id="Path-67" stroke="#000000" stroke-width="3"></path>
            <line x1="96.5" y1="64.5" x2="96.5" y2="96.5" id="Path-68" stroke="#000000" stroke-width="3"></line>
        </g>
    </g>
</svg>