<?xml version="1.0" encoding="UTF-8"?>
<svg width="130px" height="130px" viewBox="0 0 130 130" version="1.1" xmlns="http://www.w3.org/2000/svg" xmlns:xlink="http://www.w3.org/1999/xlink">
    <title>ascending-sort</title>
    <g id="strokes" stroke="none" stroke-width="1" fill="none" fill-rule="evenodd">
        <g id="ascending-sort" transform="translate(1.000000, 1.000000)">
            <g id="Group" stroke="#979797" stroke-opacity="0.01" stroke-width="0.1">
                <g id="Rectangle">
                    <rect x="0" y="0" width="128" height="128"></rect>
                </g>
            </g>
            <path d="M112.5,56.5 L98.1641006,34.9961509 C97.5513957,34.0770935 96.309657,33.8287458 95.3905996,34.4414507 C95.170895,34.5879204 94.9823691,34.7764463 94.8358994,34.9961509 L80.5,56.5 L80.5,56.5" id="Path-67" stroke="#000000" stroke-width="3"></path>
            <line x1="96.5" y1="48.5" x2="96.5" y2="80.5" id="Path-68" stroke="#000000" stroke-width="3"></line>
            <path d="M16.5,24.5 L16.5,32.5 C16.5,36.918278 20.081722,40.5 24.5,40.5 L40.5,40.5 C44.918278,40.5 48.5,44.081722 48.5,48.5 C48.5,52.918278 44.918278,56.5 40.5,56.5 L24.5,56.5 C20.081722,56.5 16.5,60.081722 16.5,64.5 C16.5,68.918278 20.081722,72.5 24.5,72.5 L72.5,72.5 C76.918278,72.5 80.5,76.081722 80.5,80.5 C80.5,84.918278 76.918278,88.5 72.5,88.5 L24.5,88.5 C20.081722,88.5 16.5,92.081722 16.5,96.5 C16.5,100.918278 20.081722,104.5 24.5,104.5 L112.5,104.5 L112.5,104.5" id="Path-145" stroke="#020202" stroke-width="3"></path>
        </g>
    </g>
</svg>