<?xml version="1.0" encoding="UTF-8"?>
<svg width="128px" height="128px" viewBox="0 0 128 128" version="1.1" xmlns="http://www.w3.org/2000/svg" xmlns:xlink="http://www.w3.org/1999/xlink">
    <title>paperclip</title>
    <g id="paperclip" stroke="none" stroke-width="1" fill="none" fill-rule="evenodd">
        <g id="Group" opacity="0.50125558" stroke="#979797">
            <g id="grid">
                <rect id="Rectangle" opacity="0.25" x="16.5" y="16.5" width="96" height="96"></rect>
                <circle id="Oval" opacity="0.75" cx="64.5" cy="64.5" r="48"></circle>
                <circle id="Oval-Copy-2" opacity="0.25" cx="64.5" cy="64.5" r="32"></circle>
                <circle id="Oval-Copy" opacity="0.25" cx="64.5" cy="64.5" r="58"></circle>
                <line x1="0.5" y1="64.5" x2="128.5" y2="64.5" id="Line" stroke-linecap="square"></line>
                <line x1="0.5" y1="48.5" x2="128.5" y2="48.5" id="Line-Copy" opacity="0.25" stroke-linecap="square"></line>
                <line x1="128.5" y1="56.5" x2="0.5" y2="56.5" id="Line-13" opacity="0.1" stroke-linecap="square"></line>
                <line x1="128.5" y1="40.5" x2="0.5" y2="40.5" id="Line-13-Copy-2" opacity="0.1" stroke-linecap="square"></line>
                <line x1="128.5" y1="24.5" x2="0.5" y2="24.5" id="Line-13-Copy-3" opacity="0.1" stroke-linecap="square"></line>
                <line x1="128.5" y1="72.5" x2="0.5" y2="72.5" id="Line-13-Copy" opacity="0.1" stroke-linecap="square"></line>
                <line x1="128.5" y1="88.5" x2="0.5" y2="88.5" id="Line-13-Copy-4" opacity="0.1" stroke-linecap="square"></line>
                <line x1="128.5" y1="104.5" x2="0.5" y2="104.5" id="Line-13-Copy-5" opacity="0.1" stroke-linecap="square"></line>
                <line x1="0.5" y1="32.5" x2="128.5" y2="32.5" id="Line-Copy-4" opacity="0.25" stroke-linecap="square"></line>
                <line x1="0.5" y1="80.5" x2="128.5" y2="80.5" id="Line-Copy-2" opacity="0.25" stroke-linecap="square"></line>
                <line x1="0.5" y1="96.5" x2="128.5" y2="96.5" id="Line-Copy-3" opacity="0.25" stroke-linecap="square"></line>
                <line x1="64.5" y1="0.5" x2="64.5" y2="128.5" id="Line-2" stroke-linecap="square"></line>
                <line x1="80.5" y1="0.5" x2="80.5" y2="128.5" id="Line-2-Copy" opacity="0.25" stroke-linecap="square"></line>
                <line x1="48.5" y1="0.5" x2="48.5" y2="128.5" id="Line-2-Copy-3" opacity="0.25" stroke-linecap="square"></line>
                <line x1="32.5" y1="0.5" x2="32.5" y2="128.5" id="Line-2-Copy-4" opacity="0.25" stroke-linecap="square"></line>
                <line x1="96.5" y1="0.5" x2="96.5" y2="128.5" id="Line-2-Copy-2" opacity="0.25" stroke-linecap="square"></line>
                <line x1="16.5" y1="112.5" x2="112.5" y2="16.5" id="Line-3" opacity="0.75" stroke-linecap="square"></line>
                <line x1="16.5" y1="16.5" x2="112.5" y2="112.5" id="Line-4" opacity="0.75" stroke-linecap="square"></line>
                <line x1="48.5" y1="16.5" x2="112.5" y2="80.5" id="Line-5" opacity="0.25" stroke-linecap="square"></line>
                <line x1="80.5" y1="16.5" x2="112.5" y2="48.5" id="Line-6" opacity="0.25" stroke-linecap="square"></line>
                <line x1="16.5" y1="48.5" x2="80.5" y2="112.5" id="Line-7" opacity="0.25" stroke-linecap="square"></line>
                <line x1="16.5" y1="80.5" x2="48.5" y2="112.5" id="Line-8" opacity="0.25" stroke-linecap="square"></line>
                <line x1="48.5" y1="112.5" x2="112.5" y2="48.5" id="Line-9" opacity="0.25" stroke-linecap="square"></line>
                <line x1="80.5" y1="112.5" x2="112.5" y2="80.5" id="Line-10" opacity="0.25" stroke-linecap="square"></line>
                <line x1="16.5" y1="80.5" x2="80.5" y2="16.5" id="Line-11" opacity="0.25" stroke-linecap="square"></line>
                <line x1="16.5" y1="48.5" x2="48.5" y2="16.5" id="Line-12" opacity="0.25" stroke-linecap="square"></line>
                <line x1="56.5" y1="128.5" x2="56.5" y2="0.5" id="Line-14" opacity="0.1" stroke-linecap="square"></line>
                <line x1="72.5" y1="128.5" x2="72.5" y2="0.5" id="Line-14-Copy-3" opacity="0.1" stroke-linecap="square"></line>
                <line x1="88.5" y1="128.5" x2="88.5" y2="0.5" id="Line-14-Copy-4" opacity="0.1" stroke-linecap="square"></line>
                <line x1="104.5" y1="128.5" x2="104.5" y2="0.5" id="Line-14-Copy-5" opacity="0.1" stroke-linecap="square"></line>
                <line x1="40.5" y1="128.5" x2="40.5" y2="0.5" id="Line-14-Copy" opacity="0.1" stroke-linecap="square"></line>
                <line x1="24.5" y1="128.5" x2="24.5" y2="0.5" id="Line-14-Copy-2" opacity="0.1" stroke-linecap="square"></line>
            </g>
        </g>
        <g>
            <g id="Group" stroke="#979797" stroke-opacity="0.01" stroke-width="0.1">
                <g id="Rectangle">
                    <rect x="0" y="0" width="128" height="128"></rect>
                </g>
            </g>
            <path d="M48.5,48.5 L84.5,84.5 C86.709139,86.709139 90.290861,86.709139 92.5,84.5 C94.7004927,82.2995073 94.7004927,78.7318037 92.5,76.531311 C92.4947917,76.5261028 92.4895733,76.5209047 92.4843446,76.5157169 L40.5352314,24.9724561 C36.0525222,20.5247681 28.8525247,20.4264162 24.25,24.75 C19.8490752,28.8842021 19.6328538,35.8032894 23.7670558,40.2042142 C23.8536419,40.2963865 23.9418207,40.3870495 24.0315524,40.4761624 L76.4585496,92.5415941 C83.1155882,99.1527221 93.8658769,99.1341231 100.5,92.5 C107.127417,85.872583 107.127417,75.127417 100.5,68.5 L64.5,32.5 L64.5,32.5" id="Path-169" stroke="#000000" stroke-width="3"></path>
        </g>
    </g>
</svg>