<?xml version="1.0" encoding="UTF-8"?>
<svg width="130px" height="130px" viewBox="0 0 130 130" version="1.1" xmlns="http://www.w3.org/2000/svg" xmlns:xlink="http://www.w3.org/1999/xlink">
    <title>speaker</title>
    <g id="strokes" stroke="none" stroke-width="1" fill="none" fill-rule="evenodd">
        <g id="speaker" transform="translate(1.000000, 1.000000)">
            <g id="Group" stroke="#979797" stroke-opacity="0.01" stroke-width="0.1">
                <g id="Rectangle">
                    <rect x="0" y="0" width="128" height="128"></rect>
                </g>
            </g>
            <path d="M104.5,24.5 L104.5,104.5 C104.5,108.918278 100.918278,112.5 96.5,112.5 L32.5,112.5 C28.081722,112.5 24.5,108.918278 24.5,104.5 L24.5,24.5 C24.5,20.081722 28.081722,16.5 32.5,16.5 L96.5,16.5 L96.5,16.5" id="Path-89" stroke="#000000" stroke-width="3"></path>
            <path d="M64.5,24.5 C57.872583,24.5 52.5,29.872583 52.5,36.5 C52.5,43.127417 57.872583,48.5 64.5,48.5 C71.127417,48.5 76.5,43.127417 76.5,36.5" id="Path" stroke="#000000" stroke-width="3"></path>
            <path d="M64.5,88.5 C68.918278,88.5 72.5,84.918278 72.5,80.5 C72.5,76.081722 68.918278,72.5 64.5,72.5 C60.081722,72.5 56.5,76.081722 56.5,80.5 C56.5,83.5127329 58.1653559,86.136501 60.6257227,87.5009596" id="Path" stroke="#000000" stroke-width="3"></path>
            <path d="M64.5,64.5 C62.7744315,64.5 61.1126633,64.773162 59.5555789,65.2786026 C57.9414587,65.8025574 56.4398317,66.5761192 55.0962406,67.5537455 C55.0169753,67.6114207 54.93826,67.669806 54.8601041,67.7288923 C53.5837527,68.6938209 52.4565866,69.8456715 51.5193336,71.1437162 C50.5543876,72.4801142 49.7907433,73.9714733 49.2728463,75.5733477 C49.2164795,75.7476922 49.1630237,75.9233459 49.1125363,76.1002513 C48.7136021,77.4980982 48.5,78.9741044 48.5,80.5 C48.5,82.2061622 48.7670524,83.8499509 49.2616377,85.3918468 C49.3170471,85.5645887 49.3753124,85.7360517 49.4363778,85.9061802 C49.9583421,87.3603733 50.6848967,88.7170694 51.5813382,89.9415652 C52.5471894,91.2608713 53.710254,92.4267124 55.0271273,93.3956837 C55.1249981,93.4676982 55.2237185,93.5386254 55.3232707,93.6084473 C56.6188475,94.5171128 58.0552944,95.238589 59.5933376,95.733602 C61.1395177,96.2312339 62.788372,96.5 64.5,96.5 C66.2232158,96.5 67.8828051,96.2275824 69.4380515,95.7234635 C70.9645151,95.2286744 72.3904622,94.5106808 73.6773955,93.60798 C73.7592946,93.550533 73.8406307,93.492338 73.921394,93.4334049 C75.2659817,92.4522556 76.4517724,91.2665173 77.4329807,89.9219753 C78.3043593,88.727932 79.0143914,87.408646 79.5310095,85.9961849 C79.5964256,85.8173338 79.6587406,85.6369887 79.7178894,85.4552148 C80.225574,83.8950171 80.5,82.2295564 80.5,80.5 C80.5,78.9588287 80.2820998,77.4685508 79.8754269,76.0582936 C79.8204506,75.8676473 79.7620245,75.6784634 79.7002205,75.4908138 C79.1832736,73.9212578 78.4300053,72.4590471 77.4825251,71.146291 C76.540497,69.8410889 75.4064856,68.6836265 74.1218778,67.7152904 C72.7264066,66.6633857 71.1532239,65.8346595 69.455383,65.2821653" id="Path" stroke="#000000" stroke-width="3"></path>
            <path d="M64.5,24.5 C57.872583,24.5 52.5,29.872583 52.5,36.5 C52.5,43.127417 57.872583,48.5 64.5,48.5 C71.127417,48.5 76.5,43.127417 76.5,36.5 C76.5,33.2289719 75.1912307,30.2636232 73.0687772,28.099039" id="Path" stroke="#000000" stroke-width="3"></path>
            <path d="M80.6827883,98.2235641 C85.4865611,93.8349392 88.5,87.5193828 88.5,80.5 C88.5,73.3345402 85.3598335,66.9025056 80.3805662,62.5049617 M48.5242012,62.5895166 C43.600161,66.9847419 40.5,73.3803302 40.5,80.5 C40.5,87.7571409 43.7210366,94.2619685 48.8114616,98.6628344" id="Shape" stroke="#000000" stroke-width="3"></path>
        </g>
    </g>
</svg>