<?xml version="1.0" encoding="UTF-8"?>
<svg width="128px" height="128px" viewBox="0 0 128 128" version="1.1" xmlns="http://www.w3.org/2000/svg" xmlns:xlink="http://www.w3.org/1999/xlink">
    <title>paperclip</title>
    <g id="paperclip" stroke="none" stroke-width="1" fill="none" fill-rule="evenodd">
        <g id="Group" opacity="0.50125558" stroke="#979797">
            <g id="grid">
                <rect id="Rectangle" opacity="0.25" x="16.5" y="16.5" width="96" height="96"></rect>
                <circle id="Oval" opacity="0.75" cx="64.5" cy="64.5" r="48"></circle>
                <circle id="Oval-Copy-2" opacity="0.25" cx="64.5" cy="64.5" r="32"></circle>
                <circle id="Oval-Copy" opacity="0.25" cx="64.5" cy="64.5" r="58"></circle>
                <line x1="0.5" y1="64.5" x2="128.5" y2="64.5" id="Line" stroke-linecap="square"></line>
                <line x1="0.5" y1="48.5" x2="128.5" y2="48.5" id="Line-Copy" opacity="0.25" stroke-linecap="square"></line>
                <line x1="128.5" y1="56.5" x2="0.5" y2="56.5" id="Line-13" opacity="0.1" stroke-linecap="square"></line>
                <line x1="128.5" y1="40.5" x2="0.5" y2="40.5" id="Line-13-Copy-2" opacity="0.1" stroke-linecap="square"></line>
                <line x1="128.5" y1="24.5" x2="0.5" y2="24.5" id="Line-13-Copy-3" opacity="0.1" stroke-linecap="square"></line>
                <line x1="128.5" y1="72.5" x2="0.5" y2="72.5" id="Line-13-Copy" opacity="0.1" stroke-linecap="square"></line>
                <line x1="128.5" y1="88.5" x2="0.5" y2="88.5" id="Line-13-Copy-4" opacity="0.1" stroke-linecap="square"></line>
                <line x1="128.5" y1="104.5" x2="0.5" y2="104.5" id="Line-13-Copy-5" opacity="0.1" stroke-linecap="square"></line>
                <line x1="0.5" y1="32.5" x2="128.5" y2="32.5" id="Line-Copy-4" opacity="0.25" stroke-linecap="square"></line>
                <line x1="0.5" y1="80.5" x2="128.5" y2="80.5" id="Line-Copy-2" opacity="0.25" stroke-linecap="square"></line>
                <line x1="0.5" y1="96.5" x2="128.5" y2="96.5" id="Line-Copy-3" opacity="0.25" stroke-linecap="square"></line>
                <line x1="64.5" y1="0.5" x2="64.5" y2="128.5" id="Line-2" stroke-linecap="square"></line>
                <line x1="80.5" y1="0.5" x2="80.5" y2="128.5" id="Line-2-Copy" opacity="0.25" stroke-linecap="square"></line>
                <line x1="48.5" y1="0.5" x2="48.5" y2="128.5" id="Line-2-Copy-3" opacity="0.25" stroke-linecap="square"></line>
                <line x1="32.5" y1="0.5" x2="32.5" y2="128.5" id="Line-2-Copy-4" opacity="0.25" stroke-linecap="square"></line>
                <line x1="96.5" y1="0.5" x2="96.5" y2="128.5" id="Line-2-Copy-2" opacity="0.25" stroke-linecap="square"></line>
                <line x1="16.5" y1="112.5" x2="112.5" y2="16.5" id="Line-3" opacity="0.75" stroke-linecap="square"></line>
                <line x1="16.5" y1="16.5" x2="112.5" y2="112.5" id="Line-4" opacity="0.75" stroke-linecap="square"></line>
                <line x1="48.5" y1="16.5" x2="112.5" y2="80.5" id="Line-5" opacity="0.25" stroke-linecap="square"></line>
                <line x1="80.5" y1="16.5" x2="112.5" y2="48.5" id="Line-6" opacity="0.25" stroke-linecap="square"></line>
                <line x1="16.5" y1="48.5" x2="80.5" y2="112.5" id="Line-7" opacity="0.25" stroke-linecap="square"></line>
                <line x1="16.5" y1="80.5" x2="48.5" y2="112.5" id="Line-8" opacity="0.25" stroke-linecap="square"></line>
                <line x1="48.5" y1="112.5" x2="112.5" y2="48.5" id="Line-9" opacity="0.25" stroke-linecap="square"></line>
                <line x1="80.5" y1="112.5" x2="112.5" y2="80.5" id="Line-10" opacity="0.25" stroke-linecap="square"></line>
                <line x1="16.5" y1="80.5" x2="80.5" y2="16.5" id="Line-11" opacity="0.25" stroke-linecap="square"></line>
                <line x1="16.5" y1="48.5" x2="48.5" y2="16.5" id="Line-12" opacity="0.25" stroke-linecap="square"></line>
                <line x1="56.5" y1="128.5" x2="56.5" y2="0.5" id="Line-14" opacity="0.1" stroke-linecap="square"></line>
                <line x1="72.5" y1="128.5" x2="72.5" y2="0.5" id="Line-14-Copy-3" opacity="0.1" stroke-linecap="square"></line>
                <line x1="88.5" y1="128.5" x2="88.5" y2="0.5" id="Line-14-Copy-4" opacity="0.1" stroke-linecap="square"></line>
                <line x1="104.5" y1="128.5" x2="104.5" y2="0.5" id="Line-14-Copy-5" opacity="0.1" stroke-linecap="square"></line>
                <line x1="40.5" y1="128.5" x2="40.5" y2="0.5" id="Line-14-Copy" opacity="0.1" stroke-linecap="square"></line>
                <line x1="24.5" y1="128.5" x2="24.5" y2="0.5" id="Line-14-Copy-2" opacity="0.1" stroke-linecap="square"></line>
            </g>
        </g>
        <g>
            <g id="Group" stroke="#979797" stroke-opacity="0.01" stroke-width="0.1">
                <g id="Rectangle">
                    <rect x="0" y="0" width="128" height="128"></rect>
                </g>
            </g>
            <path d="M88,37 L42,83 C38.6862915,86.3137085 38.6862915,91.6862915 42,95 C45.2266845,98.2266845 50.4581736,98.2266845 53.6848581,95 C53.7366806,94.9481775 53.7878113,94.8956678 53.8382366,94.8424848 L102.147225,43.8915987 C107.649752,38.0881519 107.584749,28.9743674 102,23.25 C96.5449149,17.6585378 87.589919,17.5479823 81.9984568,23.0030674 C81.9567953,23.0437128 81.915385,23.084615 81.8742284,23.1257716 L31.0332964,73.9667036 C22.5736082,82.4263918 22.1217788,95.9963186 30,105 C37.2336839,113.267067 49.7995255,114.10479 58.0665928,106.871106 C58.398773,106.580448 58.7211861,106.278814 59.0332964,105.966704 L100,65 L100,65" id="Path-169" stroke="#000000" stroke-width="3"></path>
        </g>
    </g>
</svg>