<?xml version="1.0" encoding="UTF-8"?><svg viewBox="0 0 130 130" version="1.1" xmlns="http://www.w3.org/2000/svg" xmlns:xlink="http://www.w3.org/1999/xlink">
  <title>backward-step</title>
  <g id="strokes" stroke="none" stroke-width="1" fill="none" fill-rule="evenodd">
    <g id="backward-step" transform="translate(1.000000, 1.000000)">
      <g id="Group" stroke="#979797" stroke-opacity="0.01" stroke-width="0.1">
        <g id="Rectangle">
          <rect x="0" y="0" width="128" height="128"></rect>
        </g>
      </g>
      <path d="M32.5,24.5 C28.081722,24.5 24.5,28.081722 24.5,32.5 L24.5,96.5 C24.5,100.918278 28.081722,104.5 32.5,104.5 L96.5,104.5 C100.918278,104.5 104.5,100.918278 104.5,96.5 L104.5,32.5 C104.5,28.081722 100.918278,24.5 96.5,24.5 L64.5,24.5 L64.5,24.5 L64.5,34.7338096 C64.5,35.2860944 64.0522847,35.7338096 63.5,35.7338096 C63.3187561,35.7338096 63.1409196,35.6845518 62.9855042,35.5913025 L47.3583098,26.2149859 C46.4111492,25.6466895 46.1040191,24.418169 46.6723154,23.4710085 C46.8412149,23.1895093 47.0768105,22.9539137 47.3583098,22.7850141 L64.5,12.5 L64.5,12.5" id="Path-175" stroke="#000000" stroke-width="3"></path>
    </g>
  </g>
</svg>
