<?xml version="1.0" encoding="UTF-8"?>
<svg width="130px" height="130px" viewBox="0 0 130 130" version="1.1" xmlns="http://www.w3.org/2000/svg" xmlns:xlink="http://www.w3.org/1999/xlink">
    <title>ballot-box</title>
    <g id="strokes" stroke="none" stroke-width="1" fill="none" fill-rule="evenodd">
        <g id="ballot-box" transform="translate(1.000000, 1.000000)">
            <g id="Group" stroke="#979797" stroke-opacity="0.01" stroke-width="0.1">
                <g id="Rectangle">
                    <rect x="0" y="0" width="128" height="128"></rect>
                </g>
            </g>
            <path d="M112.5,64.5 L112.5,87.1014844 C112.5,90.1077595 110.814609,92.8602515 108.136965,94.226966 L68.8638617,114.272612 C67.3881262,115.025852 65.5811844,114.440154 64.8279444,112.964418 C64.6123868,112.542101 64.5,112.074705 64.5,111.600557 L64.5,85.4442719 C64.5,82.4140954 66.212019,79.6439905 68.9222912,78.2888544 L108.922291,58.2888544 C109.910248,57.7948759 110.310697,56.5935298 109.816718,55.6055728 C109.623191,55.218518 109.309346,54.904673 108.922291,54.7111456 L80.5534953,40.5267477 L80.5534953,40.5267477 M48.7730382,40.3634809 L48.7730382,40.3634809 L20.0739769,54.7130115 C19.0860199,55.20699 18.6855712,56.4083361 19.1795497,57.3962931 C19.3728216,57.7828368 19.6861011,58.0963781 20.0724832,58.2899727 L56.4131341,76.4982519 L56.4131341,76.4982519 L19.3959209,57.9509849 C18.4083768,57.4561815 17.2066967,57.8556267 16.7118932,58.8431708 C16.5725531,59.1212702 16.5,59.4280371 16.5,59.7390917 L16.5,87.5557281 C16.5,90.5859046 18.212019,93.3560095 20.9222912,94.7111456 L56.6069415,112.553471 L56.6069415,112.553471" id="Shape" stroke="#000000" stroke-width="3"></path>
            <path d="M48.5,64.5 L80.5,48.5 L80.5,15.781467 C80.5,14.6768975 79.6045695,13.781467 78.5,13.781467 C78.1811133,13.781467 77.8668492,13.8577184 77.5834217,14.0038607 L50.6668435,27.8827213 C49.3361229,28.5688741 48.5,29.9407289 48.5,31.437934 L48.5,56.5 L48.5,56.5" id="Path-2" stroke="#000000" stroke-width="3"></path>
        </g>
    </g>
</svg>