<?xml version="1.0" encoding="UTF-8"?>
<svg width="130px" height="130px" viewBox="0 0 130 130" version="1.1" xmlns="http://www.w3.org/2000/svg" xmlns:xlink="http://www.w3.org/1999/xlink">
    <title>bandage</title>
    <g id="strokes" stroke="none" stroke-width="1" fill="none" fill-rule="evenodd">
        <g id="bandage" transform="translate(1.000000, 1.000000)">
            <g id="Group" stroke="#979797" stroke-opacity="0.01" stroke-width="0.1">
                <g id="Rectangle">
                    <rect x="0" y="0" width="128" height="128"></rect>
                </g>
            </g>
            <path d="M32.5,64.5 L26.5,70.5 C17.663444,79.336556 17.663444,93.663444 26.5,102.5 C35.336556,111.336556 49.663444,111.336556 58.5,102.5 L102.5,58.5 C111.336556,49.663444 111.336556,35.336556 102.5,26.5 C93.663444,17.663444 79.336556,17.663444 70.5,26.5 L38.6213203,58.3786797 C37.4497475,59.5502525 37.4497475,61.4497475 38.6213203,62.6213203 L48.5,72.5 L48.5,72.5 C46.290861,70.290861 46.290861,66.709139 48.5,64.5 C50.709139,62.290861 54.290861,62.290861 56.5,64.5 C58.709139,66.709139 58.709139,70.290861 56.5,72.5 C54.290861,74.709139 54.290861,78.290861 56.5,80.5 C58.709139,82.709139 62.290861,82.709139 64.5,80.5 C66.709139,78.290861 66.709139,74.709139 64.5,72.5 L64.5,72.5 L64.5,72.5" id="Path-299" stroke="#000000" stroke-width="3"></path>
            <path d="M72.5,48.5 C70.290861,46.290861 66.709139,46.290861 64.5,48.5 C62.290861,50.709139 62.290861,54.290861 64.5,56.5 C66.709139,58.709139 70.290861,58.709139 72.5,56.5 C74.709139,54.290861 78.290861,54.290861 80.5,56.5 C82.709139,58.709139 82.709139,62.290861 80.5,64.5 C78.290861,66.709139 74.709139,66.709139 72.5,64.5 L72.5,64.5 L72.5,64.5" id="Path-300" stroke="#000000" stroke-width="3"></path>
        </g>
    </g>
</svg>