<?xml version="1.0" encoding="UTF-8"?>
<svg width="130px" height="130px" viewBox="0 0 130 130" version="1.1" xmlns="http://www.w3.org/2000/svg" xmlns:xlink="http://www.w3.org/1999/xlink">
    <title>bandage</title>
    <g id="strokes" stroke="none" stroke-width="1" fill="none" fill-rule="evenodd">
        <g id="bandage" transform="translate(1.000000, 1.000000)">
            <g id="Group" stroke="#979797" stroke-opacity="0.01" stroke-width="0.1">
                <g id="Rectangle">
                    <rect x="0" y="0" width="128" height="128"></rect>
                </g>
            </g>
            <path d="M33,72.5 L28.1644795,77.1889896 C21.8207125,83.3405212 21.6648749,93.4699622 27.8164066,99.8137293 C27.873522,99.8726295 27.9310896,99.9310896 27.9891044,99.9891044 L29.1862915,101.186292 C35.4346802,107.43468 45.5653198,107.43468 51.8137085,101.186292 L101.186292,51.8137085 C107.43468,45.5653198 107.43468,35.4346802 101.186292,29.1862915 L99.8137085,27.8137085 C93.5653198,21.5653198 83.4346802,21.5653198 77.1862915,27.8137085 L40.5,64.5 L40.5,64.5 L27.8137085,51.8137085 C21.5653198,45.5653198 21.5653198,35.4346802 27.8137085,29.1862915 L29.1862915,27.8137085 C35.4346802,21.5653198 45.5653198,21.5653198 51.8137085,27.8137085 L56.5,32.5 L56.5,32.5" id="Path-299" stroke="#000000" stroke-width="3"></path>
            <path d="M88.5,64.5 L101.186292,77.1862915 C107.43468,83.4346802 107.43468,93.5653198 101.186292,99.8137085 L99.8137085,101.186292 C93.5653198,107.43468 83.4346802,107.43468 77.1862915,101.186292 L72.5,96.5 L72.5,96.5" id="Path-300" stroke="#000000" stroke-width="3"></path>
            <path d="M62.5,70.5 C64.709139,70.5 66.5,72.290861 66.5,74.5 C66.5,76.709139 64.709139,78.5 62.5,78.5 C60.290861,78.5 58.5,76.709139 58.5,74.5 L58.5,74.5 L58.5,74.5 L58.5,66.5 C58.5,64.290861 56.709139,62.5 54.5,62.5 C52.290861,62.5 50.5,64.290861 50.5,66.5 C50.5,68.709139 52.290861,70.5 54.5,70.5" id="Path" stroke="#000000" stroke-width="3"></path>
            <path d="M74.5,58.5 C76.709139,58.5 78.5,60.290861 78.5,62.5 C78.5,64.709139 76.709139,66.5 74.5,66.5 C72.290861,66.5 70.5,64.709139 70.5,62.5 L70.5,62.5 L70.5,62.5 L70.5,54.5 C70.5,52.290861 68.709139,50.5 66.5,50.5 C64.290861,50.5 62.5,52.290861 62.5,54.5 C62.5,56.709139 64.290861,58.5 66.5,58.5" id="Path" stroke="#000000" stroke-width="3"></path>
        </g>
    </g>
</svg>