<?xml version="1.0" encoding="UTF-8"?><svg viewBox="0 0 130 130" version="1.1" xmlns="http://www.w3.org/2000/svg" xmlns:xlink="http://www.w3.org/1999/xlink">
  <title>bar-chart</title>
  <g id="strokes" stroke="none" stroke-width="1" fill="none" fill-rule="evenodd">
    <g id="bar-chart" transform="translate(1.000000, 1.000000)">
      <g id="Group" stroke="#979797" stroke-opacity="0.01" stroke-width="0.1">
        <g id="Rectangle">
          <rect x="0" y="0" width="128" height="128"></rect>
        </g>
      </g>
      <line x1="16.5" y1="112.5" x2="113" y2="112.5" id="Path-130" stroke="#000000" stroke-width="3"></line>
      <path d="M20.5,104.5 L20.5,67.5 C20.5,65.8431458 21.8431458,64.5 23.5,64.5 L33.5,64.5 C35.1568542,64.5 36.5,65.8431458 36.5,67.5 L36.5,100.5 C36.5,102.709139 38.290861,104.5 40.5,104.5 C42.709139,104.5 44.5,102.709139 44.5,100.5 L44.5,35.5 C44.5,33.8431458 45.8431458,32.5 47.5,32.5 L57.5,32.5 C59.1568542,32.5 60.5,33.8431458 60.5,35.5 L60.5,100.5 C60.5,102.709139 62.290861,104.5 64.5,104.5 C66.709139,104.5 68.5,102.709139 68.5,100.5 L68.5,19.5 C68.5,17.8431458 69.8431458,16.5 71.5,16.5 L81.5,16.5 C83.1568542,16.5 84.5,17.8431458 84.5,19.5 L84.5,100.5 C84.5,102.709139 86.290861,104.5 88.5,104.5 C90.709139,104.5 92.5,102.709139 92.5,100.5 L92.5,67.5 C92.5,65.8431458 93.8431458,64.5 95.5,64.5 L105.5,64.5 C107.156854,64.5 108.5,65.8431458 108.5,67.5 L108.5,104.5 L108.5,104.5" id="Path-131" stroke="#000000" stroke-width="3"></path>
    </g>
  </g>
</svg>
