<?xml version="1.0" encoding="UTF-8"?><svg viewBox="0 0 130 130" version="1.1" xmlns="http://www.w3.org/2000/svg" xmlns:xlink="http://www.w3.org/1999/xlink">
  <title>bell-off</title>
  <g id="strokes" stroke="none" stroke-width="1" fill="none" fill-rule="evenodd">
    <g id="bell-off" transform="translate(1.000000, 1.000000)">
      <g id="Group" stroke="#979797" stroke-opacity="0.01" stroke-width="0.1">
        <g id="Rectangle">
          <rect x="0" y="0" width="128" height="128"></rect>
        </g>
      </g>
      <path d="M34.6164376,48.5315653 C33.2492539,52.0918299 32.5,55.9584161 32.5,60 L32.5,84.5 C28.081722,84.5 24.5,88.081722 24.5,92.5 L24.5,100.5 L24.5,100.5 L64.5,100.5 L52.5,100.5 C53.5,108.5 57.5,112.5 64.5,112.5 C71.5,112.5 75.5,108.5 76.5,100.5 L94.5,100.5 M104.5,94.5 L104.5,92.5 C104.5,88.081722 100.918278,84.5 96.5,84.5 L96.5,84.5 L96.5,84.5 L96.5,60 C96.5,42.326888 82.173112,28 64.5,28 L56.5,28 L56.5,28 L56.5,24.5 C56.5,20.081722 60.081722,16.5 64.5,16.5 C68.918278,16.5 72.5,20.081722 72.5,24.5 L72.5,24.5 L72.5,24.5" id="Shape" stroke="#000000" stroke-width="3"></path>
      <line x1="16.5" y1="16.5" x2="112.5" y2="112.5" id="Path-234" stroke="#000000" stroke-width="3"></line>
    </g>
  </g>
</svg>
