<?xml version="1.0" encoding="UTF-8"?>
<svg width="130px" height="130px" viewBox="0 0 130 130" version="1.1" xmlns="http://www.w3.org/2000/svg" xmlns:xlink="http://www.w3.org/1999/xlink">
    <title>bicycle</title>
    <g id="strokes" stroke="none" stroke-width="1" fill="none" fill-rule="evenodd">
        <g id="bicycle" transform="translate(1.000000, 1.000000)">
            <g id="Group" stroke="#979797" stroke-opacity="0.01" stroke-width="0.1">
                <g id="Rectangle">
                    <rect x="0" y="0" width="128" height="128"></rect>
                </g>
            </g>
            <path d="M18.1856744,88.0718141 C21.8100497,93.1723457 27.7664172,96.5 34.5,96.5 C45.545695,96.5 54.5,87.545695 54.5,76.5 C54.5,65.454305 45.545695,56.5 34.5,56.5 C24.8318904,56.5 16.7660374,63.3600759 14.904521,72.4781476 C14.8694544,72.6499109 14.836039,72.8403336 14.8042748,73.0494157 C14.5554298,74.6874699 15.681596,76.2171116 17.3196486,76.4659677 C17.4687774,76.4886236 17.6194025,76.5 17.7702424,76.5 L34.5,76.5 L34.5,76.5 M59,76.5 L61.3293609,76.5 C62.9862151,76.5 64.3293609,75.1568542 64.3293609,73.5 C64.3293609,73.2994336 64.3092476,73.0993727 64.2693229,72.9028202 L58.5,44.5 L48,44.5 L68.5,44.5 L58.5,44.5 L61,56.5 C69.6666667,56.5 76.1666667,56.5 80.5,56.5 M94.5,56.5 C105.545695,56.5 114.5,65.454305 114.5,76.5 C114.5,87.545695 105.545695,96.5 94.5,96.5 C84.8585456,96.5 76.8105251,89.6776988 74.9200592,80.5972171 C74.8797141,80.4034275 74.8414724,80.186254 74.805334,79.9456967 C74.5591748,78.3072222 75.6878831,76.7794348 77.3263599,76.5332903 C77.4738869,76.5111276 77.6228615,76.5 77.7720439,76.5 L90.5722488,76.5 L90.5722488,76.5 C92.2291031,76.5 93.5722488,75.1568542 93.5722488,73.5 C93.5722488,73.233354 93.5366995,72.9678982 93.4665403,72.7106478 L83.5048399,36.184413 C82.9115745,34.0091066 80.9357761,32.5 78.6810208,32.5 L64.5,32.5" id="Shape" stroke="#000000" stroke-width="3"></path>
        </g>
    </g>
</svg>