<?xml version="1.0" encoding="UTF-8"?><svg viewBox="0 0 130 130" version="1.1" xmlns="http://www.w3.org/2000/svg" xmlns:xlink="http://www.w3.org/1999/xlink">
  <title>bluetooth-diamonds</title>
  <g id="strokes" stroke="none" stroke-width="1" fill="none" fill-rule="evenodd">
    <g id="bluetooth-diamonds" transform="translate(1.000000, 1.000000)">
      <g id="Group" stroke="#979797" stroke-opacity="0.01" stroke-width="0.1">
        <g id="Rectangle">
          <rect x="0" y="0" width="128" height="128"></rect>
        </g>
      </g>
      <path d="M30.5,30.5 C43.8266035,43.8266035 53.8215561,53.8215561 60.4848578,60.4848578 M68.6381828,68.6381828 C71.8772927,71.8772927 77.7907916,77.7907916 86.3786797,86.3786797 C87.5502525,87.5502525 87.5502525,89.4497475 86.3786797,90.6213203 L67.9142136,109.085786 C67.133165,109.866835 65.866835,109.866835 65.0857864,109.085786 C64.7107137,108.710714 64.5,108.202006 64.5,107.671573 L64.5,72.5 M64.5,56.5 L64.5,21.3284271 C64.5,20.2238576 65.3954305,19.3284271 66.5,19.3284271 C67.030433,19.3284271 67.5391408,19.5391408 67.9142136,19.9142136 L86.3786797,38.3786797 C87.5502525,39.5502525 87.5502525,41.4497475 86.3786797,42.6213203 L30.5,98.5 L30.5,98.5" id="Shape" stroke="#000000" stroke-width="3"></path>
      <path d="M84.5,64.5 L94.3786797,54.6213203 C95.5502525,53.4497475 97.4497475,53.4497475 98.6213203,54.6213203 L106.37868,62.3786797 C107.550253,63.5502525 107.550253,65.4497475 106.37868,66.6213203 L98.6213203,74.3786797 C97.4497475,75.5502525 95.5502525,75.5502525 94.3786797,74.3786797 L88.5,68.5 L88.5,68.5" id="Path-262" stroke="#000000" stroke-width="3"></path>
      <path d="M44.5,64.5 L34.6213203,54.6213203 C33.4497475,53.4497475 31.5502525,53.4497475 30.3786797,54.6213203 L22.6213203,62.3786797 C21.4497475,63.5502525 21.4497475,65.4497475 22.6213203,66.6213203 L30.3786797,74.3786797 C31.5502525,75.5502525 33.4497475,75.5502525 34.6213203,74.3786797 L40.5,68.5 L40.5,68.5" id="Path-263" stroke="#000000" stroke-width="3"></path>
    </g>
  </g>
</svg>
