<?xml version="1.0" encoding="UTF-8"?>
<svg width="130px" height="130px" viewBox="0 0 130 130" version="1.1" xmlns="http://www.w3.org/2000/svg" xmlns:xlink="http://www.w3.org/1999/xlink">
    <title>bluetooth-off</title>
    <g id="strokes" stroke="none" stroke-width="1" fill="none" fill-rule="evenodd">
        <g id="bluetooth-off" transform="translate(1.000000, 1.000000)">
            <g id="Group" stroke="#979797" stroke-opacity="0.01" stroke-width="0.1">
                <g id="Rectangle">
                    <rect x="0" y="0" width="128" height="128"></rect>
                </g>
            </g>
            <path d="M30.5,30.5 C43.8266035,43.8266035 53.8215561,53.8215561 60.4848578,60.4848578 M83.5584471,93.4415529 C80.0819508,96.9180492 74.8672062,102.132794 67.9142136,109.085786 C67.133165,109.866835 65.866835,109.866835 65.0857864,109.085786 C64.7107137,108.710714 64.5,108.202006 64.5,107.671573 C64.5,93.5953183 64.5,83.0381273 64.5,76 M64.5,52.5 C64.5,45.5729838 64.5,35.1824595 64.5,21.3284271 C64.5,20.2238576 65.3954305,19.3284271 66.5,19.3284271 C67.030433,19.3284271 67.5391408,19.5391408 67.9142136,19.9142136 L86.3786797,38.3786797 C87.5502525,39.5502525 87.5502525,41.4497475 86.3786797,42.6213203 C80.2325307,48.7674693 75.2927637,53.7072363 71.5593786,57.4406214 M57.4525133,71.5474867 C51.7953368,77.2046632 42.8111657,86.1888343 30.5,98.5" id="Shape" stroke="#000000" stroke-width="3"></path>
            <line x1="16.5" y1="16.5" x2="112.5" y2="112.5" id="Path-261" stroke="#000000" stroke-width="3"></line>
        </g>
    </g>
</svg>