<?xml version="1.0" encoding="UTF-8"?><svg viewBox="0 0 130 130" version="1.1" xmlns="http://www.w3.org/2000/svg" xmlns:xlink="http://www.w3.org/1999/xlink">
  <title>blur-off</title>
  <g id="strokes" stroke="none" stroke-width="1" fill="none" fill-rule="evenodd">
    <g id="blur-off" transform="translate(1.000000, 1.000000)">
      <g id="Group" stroke="#979797" stroke-opacity="0.01" stroke-width="0.1">
        <g id="Rectangle">
          <rect x="0" y="0" width="128" height="128"></rect>
        </g>
      </g>
      <line x1="16.5" y1="16.5" x2="112.5" y2="112.5" id="Path-71" stroke="#000000" stroke-width="3"></line>
      <path d="M53.75,102.75 C53.1295166,99.6475831 50.1115096,97.6355784 47.0090927,98.2560618 C46.2020491,98.4174705 45.4392599,98.7508808 44.7726563,99.2335937 L44.75,99.25 C43.3057041,100.295869 41.2870263,99.972881 40.2411568,98.5285851 C39.6775671,97.7502945 39.4899215,96.7614164 39.7292303,95.830771 L39.75,95.75 C40.4842877,92.8944368 38.7646541,89.9842877 35.9090909,89.25 C35.0369141,89.025726 34.1221768,89.025726 33.25,89.25 L33.169229,89.2707697 C31.442204,89.7148618 29.6821657,88.6748392 29.2380735,86.9478141 C28.9987647,86.0171687 29.1864103,85.0282906 29.75,84.25 L29.7664063,84.2273437 C31.6220394,81.6648027 31.0489774,78.083165 28.4864364,76.2275319 C27.8198328,75.744819 27.0570436,75.4114087 26.25,75.25 L26.0765781,75.2153156 C24.2453322,74.8490664 23.0577177,73.0676447 23.4239669,71.2363987 C23.6108068,70.3021989 24.1830659,69.4901604 25,69 C27.553803,67.4677182 28.3819095,64.155292 26.8496277,61.601489 C26.4168847,60.8802505 25.8214294,60.2702386 25.1108509,59.8202056 L24.9672162,59.7292369 C23.4466994,58.7662429 22.9947378,56.7529596 23.9577318,55.2324428 C24.4680637,54.4266555 25.3057876,53.8848875 26.25,53.75 C29.2193704,53.3258042 31.2826421,50.5747753 30.8584463,47.6054049 C30.7378618,46.7613133 30.4202302,45.9574717 29.9312611,45.2589444 L29.6810347,44.9014782 C28.6229315,43.3899021 28.9905438,41.3067655 30.5021199,40.2486622 M42.0521859,29.2380735 C42.9828313,28.9987647 43.9717094,29.1864103 44.75,29.75 L44.7726563,29.7664063 C47.3351973,31.6220394 50.916835,31.0489774 52.7724681,28.4864364 C53.255181,27.8198328 53.5885913,27.0570436 53.75,26.25 C54.2895065,23.5524676 56.9136449,21.803042 59.6111773,22.3425485 C60.304321,22.4811772 60.9600207,22.7657481 61.534688,23.1773591 C62.7658029,24.0591197 63.7542402,24.5 64.5,24.5 L64.5,16.5 L64.5,56.5 M64.5,72.5 L64.5,112.5 L64.5,104.5 C73.3714803,104.5 81.5684153,101.611928 88.2018951,96.7246946 M96.4694023,88.5445712 C101.511194,81.8516672 104.5,73.5248701 104.5,64.5 C104.5,45.1976244 90.8278341,29.0885542 72.6394179,25.328705" id="Shape" stroke="#000000" stroke-width="3"></path>
    </g>
  </g>
</svg>
