<?xml version="1.0" encoding="UTF-8"?>
<svg width="130px" height="130px" viewBox="0 0 130 130" version="1.1" xmlns="http://www.w3.org/2000/svg" xmlns:xlink="http://www.w3.org/1999/xlink">
    <title>bold-off</title>
    <g id="strokes" stroke="none" stroke-width="1" fill="none" fill-rule="evenodd">
        <g id="bold-off" transform="translate(1.000000, 1.000000)">
            <g id="Group" stroke="#979797" stroke-opacity="0.01" stroke-width="0.1">
                <g id="Rectangle">
                    <rect x="0" y="0" width="128" height="128"></rect>
                </g>
            </g>
            <line x1="16.5" y1="16.5" x2="112.5" y2="112.5" id="Path-196" stroke="#000000" stroke-width="3"></line>
            <path d="M36.5,48 C36.5,57.5206991 36.5,71.8017476 36.5,90.8431458 C36.5,94.4651687 35.061157,97.938843 32.5,100.5 L30.2071068,102.792893 C29.8165825,103.183418 29.8165825,103.816582 30.2071068,104.207107 C30.3946432,104.394643 30.6489971,104.5 30.9142136,104.5 L44.5,104.5 L76.5,104.5 C81.5371753,104.5 86.2119059,102.94819 90.0722024,100.296558 M98.9499508,89.003608 C99.9516716,86.3604317 100.5,83.4942503 100.5,80.5 C100.5,67.245166 89.754834,56.5 76.5,56.5 C72.9444444,56.5 70.2777778,56.5 68.5,56.5 C66.7222222,56.5 69.3888889,56.5 76.5,56.5 C85.336556,56.5 92.5,49.336556 92.5,40.5 C92.5,31.663444 85.336556,24.5 76.5,24.5 L30.5,24.5 M40.5,32.5 C48.5,32.5 60.5,32.5 76.5,32.5 C80.918278,32.5 84.5,36.081722 84.5,40.5" id="Shape" stroke="#000000" stroke-width="3"></path>
            <path d="M44.5,64.5 L44.5,93.5 C44.5,95.1568542 45.8431458,96.5 47.5,96.5 L73,96.5 C75.8588084,96.5 78.577523,95.900187 81.0371608,94.8195438" id="Path" stroke="#000000" stroke-width="3"></path>
        </g>
    </g>
</svg>