<?xml version="1.0" encoding="UTF-8"?>
<svg width="130px" height="130px" viewBox="0 0 130 130" version="1.1" xmlns="http://www.w3.org/2000/svg" xmlns:xlink="http://www.w3.org/1999/xlink">
    <title>bold</title>
    <g id="strokes" stroke="none" stroke-width="1" fill="none" fill-rule="evenodd">
        <g id="bold" transform="translate(1.000000, 1.000000)">
            <g id="Group" stroke="#979797" stroke-opacity="0.01" stroke-width="0.1">
                <g id="Rectangle">
                    <rect x="0" y="0" width="128" height="128"></rect>
                </g>
            </g>
            <path d="M36.5,40.5 L36.5,90.8431458 C36.5,94.4651687 35.061157,97.938843 32.5,100.5 L30.2071068,102.792893 C29.8165825,103.183418 29.8165825,103.816582 30.2071068,104.207107 C30.3946432,104.394643 30.6489971,104.5 30.9142136,104.5 L44.5,104.5 L44.5,104.5 L76.5,104.5 C89.754834,104.5 100.5,93.754834 100.5,80.5 C100.5,67.245166 89.754834,56.5 76.5,56.5 L60.5,56.5 L60.5,56.5 L76.5,56.5 C85.336556,56.5 92.5,49.336556 92.5,40.5 C92.5,31.663444 85.336556,24.5 76.5,24.5 L30.5,24.5 C29.3954305,24.5 28.5,25.3954305 28.5,26.5 L28.5,30.5 C28.5,31.6045695 29.3954305,32.5 30.5,32.5 L76.5,32.5 C80.918278,32.5 84.5,36.081722 84.5,40.5 L84.5,40.5 L84.5,40.5" id="Path-195" stroke="#000000" stroke-width="3"></path>
            <path d="M44.5,64.5 L44.5,93.5 C44.5,95.1568542 45.8431458,96.5 47.5,96.5 L73,96.5 C84.045695,96.5 93,87.545695 93,76.5 L93,76.5 L93,76.5" id="Path" stroke="#000000" stroke-width="3"></path>
        </g>
    </g>
</svg>