<?xml version="1.0" encoding="UTF-8"?>
<svg width="130px" height="130px" viewBox="0 0 130 130" version="1.1" xmlns="http://www.w3.org/2000/svg" xmlns:xlink="http://www.w3.org/1999/xlink">
    <title>bold-off</title>
    <g id="strokes" stroke="none" stroke-width="1" fill="none" fill-rule="evenodd">
        <g id="bold-off" transform="translate(1.000000, 1.000000)">
            <g id="Group" stroke="#979797" stroke-opacity="0.01" stroke-width="0.1">
                <g id="Rectangle">
                    <rect x="0" y="0" width="128" height="128"></rect>
                </g>
            </g>
            <line x1="16.5" y1="16.5" x2="112.5" y2="112.5" id="Path-196" stroke="#000000" stroke-width="3"></line>
            <path d="M36.5,48 L36.5,90.8431458 C36.5,94.4651687 35.061157,97.938843 32.5,100.5 L30.2071068,102.792893 C29.8165825,103.183418 29.8165825,103.816582 30.2071068,104.207107 C30.3946432,104.394643 30.6489971,104.5 30.9142136,104.5 L44.5,104.5 L78.5,104.5 C82.9521806,104.5 87.0954727,103.177491 90.5584586,100.90389 M99.6145554,88.699032 C100.19086,86.7328753 100.5,84.6525394 100.5,82.5 C100.5,70.3497355 90.6502645,60.5 78.5,60.5 C75.8333333,60.5 73.8333333,60.5 72.5,60.5 M74.5,60.5 C84.4411255,60.5 92.5,52.4411255 92.5,42.5 C92.5,32.5588745 84.4411255,24.5 74.5,24.5 L36.5,24.5 M48.5,36.5 L74.5,36.5 C77.8137085,36.5 80.5,39.1862915 80.5,42.5 C80.5,45.8137085 77.8137085,48.5 74.5,48.5 L73,48.5 L73,48.5" id="Shape" stroke="#000000" stroke-width="3"></path>
            <path d="M82.1592739,73.1906895 C85.8720489,74.6512507 88.5,78.2687299 88.5,82.5 M82.3095437,91.7487764 C81.1354034,92.2329274 79.8488908,92.5 78.5,92.5 L50.5,92.5 C49.3954305,92.5 48.5,91.6045695 48.5,90.5 L48.5,60.5" id="Shape" stroke="#000000" stroke-width="3"></path>
        </g>
    </g>
</svg>