<?xml version="1.0" encoding="UTF-8"?>
<svg width="130px" height="130px" viewBox="0 0 130 130" version="1.1" xmlns="http://www.w3.org/2000/svg" xmlns:xlink="http://www.w3.org/1999/xlink">
    <title>bold</title>
    <g id="strokes" stroke="none" stroke-width="1" fill="none" fill-rule="evenodd">
        <g id="bold" transform="translate(1.000000, 1.000000)">
            <g id="Group" stroke="#979797" stroke-opacity="0.01" stroke-width="0.1">
                <g id="Rectangle">
                    <rect x="0" y="0" width="128" height="128"></rect>
                </g>
            </g>
            <path d="M36.5,48 L36.5,90.8431458 C36.5,94.4651687 35.061157,97.938843 32.5,100.5 L30.2071068,102.792893 C29.8165825,103.183418 29.8165825,103.816582 30.2071068,104.207107 C30.3946432,104.394643 30.6489971,104.5 30.9142136,104.5 L44.5,104.5 L44.5,104.5 L78.5,104.5 C90.6502645,104.5 100.5,94.6502645 100.5,82.5 C100.5,70.3497355 90.6502645,60.5 78.5,60.5 L56.5,60.5 L56.5,60.5 L74.5,60.5 C84.4411255,60.5 92.5,52.4411255 92.5,42.5 C92.5,32.5588745 84.4411255,24.5 74.5,24.5 L30.5,24.5 C29.3954305,24.5 28.5,25.3954305 28.5,26.5 L28.5,34.5 C28.5,35.6045695 29.3954305,36.5 30.5,36.5 L74.5,36.5 C77.8137085,36.5 80.5,39.1862915 80.5,42.5 C80.5,45.8137085 77.8137085,48.5 74.5,48.5 L73,48.5 L73,48.5" id="Path-195" stroke="#000000" stroke-width="3"></path>
            <path d="M76.5,72.5 L78.5,72.5 C84.0228475,72.5 88.5,76.9771525 88.5,82.5 C88.5,88.0228475 84.0228475,92.5 78.5,92.5 L50.5,92.5 C49.3954305,92.5 48.5,91.6045695 48.5,90.5 L48.5,48 L48.5,48" id="Path" stroke="#000000" stroke-width="3"></path>
        </g>
    </g>
</svg>