<?xml version="1.0" encoding="UTF-8"?>
<svg width="130px" height="130px" viewBox="0 0 130 130" version="1.1" xmlns="http://www.w3.org/2000/svg" xmlns:xlink="http://www.w3.org/1999/xlink">
    <title>bolt</title>
    <g id="strokes" stroke="none" stroke-width="1" fill="none" fill-rule="evenodd">
        <g id="bolt" transform="translate(1.000000, 1.000000)">
            <g id="Group" stroke="#979797" stroke-opacity="0.01" stroke-width="0.1">
                <g id="Rectangle">
                    <rect x="0" y="0" width="128" height="128"></rect>
                </g>
            </g>
            <path d="M66.8983777,107.703245 L90.1695744,61.1608511 C90.9105422,59.6789157 90.3098691,57.8768965 88.8279336,57.1359288 C88.3546738,56.8992989 87.8272482,56.792047 87.299158,56.8250526 L64.0067409,58.2808287 C62.3531133,58.3841804 60.9288001,57.1274335 60.8254483,55.4738058 C60.8156268,55.3166607 60.8181918,55.1589862 60.8331196,55.0022437 L64.0013981,21.7353197 C64.0537597,21.1855228 63.6505087,20.6973768 63.1007117,20.6450152 C62.6919447,20.606085 62.3009237,20.820992 62.114681,21.1869425 L38.3804639,67.8225972 C37.6289676,69.2992215 38.2168,71.1054701 39.6934243,71.8569664 C40.1705747,72.0998018 40.7040173,72.210522 41.2383956,72.1776372 L64.99645,70.7156031 C66.6501759,70.6138353 68.0732847,71.871946 68.1750524,73.5256719 C68.1846646,73.6818688 68.1820401,73.8385785 68.1672032,73.994366 L67.5538052,80.4350452" id="Path" stroke="#000000" stroke-width="3"></path>
        </g>
    </g>
</svg>