<?xml version="1.0" encoding="UTF-8"?><svg viewBox="0 0 130 130" version="1.1" xmlns="http://www.w3.org/2000/svg" xmlns:xlink="http://www.w3.org/1999/xlink">
  <title>books</title>
  <g id="strokes" stroke="none" stroke-width="1" fill="none" fill-rule="evenodd">
    <g id="books" transform="translate(1.000000, 1.000000)">
      <g id="Group" stroke="#979797" stroke-opacity="0.01" stroke-width="0.1">
        <g id="Rectangle">
          <rect x="0" y="0" width="128" height="128"></rect>
        </g>
      </g>
      <path d="M24,64 C24,68.3333333 21.3333333,70.8333333 16,71.5 L72.0002441,71.9375019 C76.3840054,71.97175 79.9655096,68.445773 79.9997578,64.0620117 C79.9999193,64.0413416 80,64.0206708 80,64 C80,59.5716482 76.4284608,55.9720973 72.0002441,55.9375019 L16,55.5 L16,55.5 L48,24 C83,24 101.666667,24 104,24 C107.5,24 112,27 112,32 C112,37 109.5,39 107,42 C105.547551,43.7429382 98.0194356,50.9286618 84.4156523,63.5571707" id="Path-14" stroke="#000000" stroke-width="3"></path>
      <path d="M24,96 C24,100.333333 21.3333333,102.833333 16,103.5 L72.0002441,103.937502 C76.3840054,103.97175 79.9655096,100.445773 80,96.0620117 C80,96.0413416 80,96.0206708 80,96 C80,91.5716482 76.4284608,87.9720973 72.0002441,87.9375019 L16,87.5 L16,87.5 L23.5881758,80.0303894 M104,56 C107.5,56 112,59 112,64 C112,69 109.5,71 107,74 C105.547551,75.7429382 91.6037833,88.8714911 78,101.5" id="Shape" stroke="#000000" stroke-width="3"></path>
    </g>
  </g>
</svg>
