<?xml version="1.0" encoding="UTF-8"?>
<svg width="130px" height="130px" viewBox="0 0 130 130" version="1.1" xmlns="http://www.w3.org/2000/svg" xmlns:xlink="http://www.w3.org/1999/xlink">
    <title>briefcase</title>
    <g id="strokes" stroke="none" stroke-width="1" fill="none" fill-rule="evenodd">
        <g id="briefcase" transform="translate(1.000000, 1.000000)">
            <g id="Group" stroke="#979797" stroke-opacity="0.01" stroke-width="0.1">
                <g id="Rectangle">
                    <rect x="0" y="0" width="128" height="128"></rect>
                </g>
            </g>
            <path d="M52.5,56.5 L72.5,56.5 C74.709139,56.5 76.5,58.290861 76.5,60.5 L76.5,64.5 L76.5,64.5 L100.5,64.5 L76.5,64.5 L76.5,68.5 C76.5,70.709139 74.709139,72.5 72.5,72.5 L56.5,72.5 C54.290861,72.5 52.5,70.709139 52.5,68.5 L52.5,64.5 L52.5,64.5 L19.5,64.5 C17.8431458,64.5 16.5,65.8431458 16.5,67.5 L16.5,96.5 C16.5,100.918278 20.081722,104.5 24.5,104.5 L104.5,104.5 C108.918278,104.5 112.5,100.918278 112.5,96.5 L112.5,44.5 C112.5,40.081722 108.918278,36.5 104.5,36.5 L80.5,36.5 L80.5,36.5 L80.5,32.5 C80.5,28.081722 76.918278,24.5 72.5,24.5 L56.5,24.5 C52.081722,24.5 48.5,28.081722 48.5,32.5 L48.5,36.5 L48.5,36.5 L72.5,36.5 L24.5,36.5 C20.081722,36.5 16.5,40.081722 16.5,44.5 L16.5,56.5 L16.5,56.5" id="Path-329" stroke="#000000" stroke-width="3"></path>
        </g>
    </g>
</svg>