<?xml version="1.0" encoding="UTF-8"?><svg viewBox="0 0 130 130" version="1.1" xmlns="http://www.w3.org/2000/svg" xmlns:xlink="http://www.w3.org/1999/xlink">
  <title>brush</title>
  <g id="strokes" stroke="none" stroke-width="1" fill="none" fill-rule="evenodd">
    <g id="brush" transform="translate(1.000000, 1.000000)">
      <g id="Group" stroke="#979797" stroke-opacity="0.01" stroke-width="0.1">
        <g id="Rectangle">
          <rect x="0" y="0" width="128" height="128"></rect>
        </g>
      </g>
      <path d="M40,48 L38.6865765,46.6865765 C37.5150037,45.5150037 35.6155087,45.5150037 34.4439358,46.6865765 C34.4225145,46.7079979 34.4014189,46.7297424 34.3806562,46.7518028 L30.5201484,50.8535923 C29.3987344,52.0450947 29.4389073,53.9154346 30.610448,55.0576868 L45.7644965,69.8328841 C46.9508044,70.9895343 46.9748467,72.888877 45.8181965,74.0751849 C45.650832,74.2468408 45.4634945,74.397816 45.2601929,74.5248794 L28.492507,85.0046831 C23.2236052,88.2977468 21.6218719,95.2385911 24.9149355,100.507493 C25.3661909,101.229502 25.8979502,101.89795 26.5,102.5 C30.8934949,106.893495 38.0167575,106.893495 42.4102524,102.5 C43.0123022,101.89795 43.5440615,101.229502 43.9953169,100.507493 L54.5012928,83.6979316 C55.3794238,82.292922 57.2302749,81.8658025 58.6352845,82.7439335 C58.8278159,82.8642656 59.006065,83.006065 59.166608,83.166608 L74.3786797,98.3786797 C75.5502525,99.5502525 77.4497475,99.5502525 78.6213203,98.3786797 L82.3918146,94.6081854 C83.5582454,93.4417546 83.5641128,91.5524142 82.4049494,90.3787612 L46.1448632,53.6654239 C45.1780297,52.686505 45.0010294,51.1753892 45.71547,49.999539 L67.8422606,13.5825294 C68.1290402,13.1105379 68.7441457,12.9603941 69.2161371,13.2471737 C69.2829395,13.2877625 69.3447526,13.3360438 69.4003103,13.3910287 L100.839896,44.5064949 L100.839896,44.5064949 L93.9252051,57.7668693 C93.6698463,58.2565736 93.8598208,58.8605666 94.3495251,59.1159254 C94.6336399,59.2640785 94.9715434,59.2671113 95.2582716,59.1240817 L108.789572,52.3742154 L108.789572,52.3742154 L116.079616,59.5891046 C116.472159,59.9776002 116.475439,60.6107567 116.086944,61.0032991 C116.026924,61.0639443 115.959389,61.1166586 115.885985,61.1601571 L84.4640836,79.7805431 L84.4640836,79.7805431" id="Path-298" stroke="#000000" stroke-width="3"></path>
    </g>
  </g>
</svg>
