<?xml version="1.0" encoding="UTF-8"?>
<svg width="130px" height="130px" viewBox="0 0 130 130" version="1.1" xmlns="http://www.w3.org/2000/svg" xmlns:xlink="http://www.w3.org/1999/xlink">
    <title>bus-side-view</title>
    <g id="strokes" stroke="none" stroke-width="1" fill="none" fill-rule="evenodd">
        <g id="bus-side-view" transform="translate(1.000000, 1.000000)">
            <g id="Group" stroke="#979797" stroke-opacity="0.01" stroke-width="0.1">
                <g id="Rectangle">
                    <rect x="0" y="0" width="128" height="128"></rect>
                </g>
            </g>
            <path d="M10.5,48.5 L10.5,35.5 C10.5,33.8431458 11.8431458,32.5 13.5,32.5 L105.5,32.5 C107.156854,32.5 108.5,33.8431458 108.5,35.5 L108.5,56.5 L108.5,56.5 L115.5,56.5 C117.156854,56.5 118.5,57.8431458 118.5,59.5 L118.5,81.5 C118.5,83.1568542 117.156854,84.5 115.5,84.5 L104.5,84.5 L104.5,84.5 C104.5,77.872583 99.127417,72.5 92.5,72.5 L92.5,72.5 L92.5,72.5 C99.127417,72.5 104.5,77.872583 104.5,84.5 C104.5,91.127417 99.127417,96.5 92.5,96.5 C85.872583,96.5 80.5,91.127417 80.5,84.5 L80.5,84.5 L80.5,84.5 L48.5,84.5 C48.5,77.872583 43.127417,72.5 36.5,72.5 L36.5,72.5 L36.5,72.5 C43.127417,72.5 48.5,77.872583 48.5,84.5 C48.5,91.127417 43.127417,96.5 36.5,96.5 C29.872583,96.5 24.5,91.127417 24.5,84.5 L24.5,84.5 L24.5,84.5 L13.5,84.5 C11.8431458,84.5 10.5,83.1568542 10.5,81.5 L10.5,56.5 L10.5,56.5 L32.5,56.5 L32.5,48.5 L32.5,56.5 L56.5,56.5 L56.5,48.5 L56.5,56.5 L80.5,56.5 L80.5,48.5 L80.5,56.5 L96.5,56.5" id="Path-349" stroke="#000000" stroke-width="3"></path>
        </g>
    </g>
</svg>