<?xml version="1.0" encoding="UTF-8"?>
<svg width="130px" height="130px" viewBox="0 0 130 130" version="1.1" xmlns="http://www.w3.org/2000/svg" xmlns:xlink="http://www.w3.org/1999/xlink">
    <title>calendar</title>
    <g id="strokes" stroke="none" stroke-width="1" fill="none" fill-rule="evenodd">
        <g id="calendar" transform="translate(1.000000, 1.000000)">
            <g id="Group" stroke="#979797" stroke-opacity="0.01" stroke-width="0.1">
                <g id="Rectangle">
                    <rect x="0" y="0" width="128" height="128"></rect>
                </g>
            </g>
            <path d="M32.5,32.5 L24.5,32.5 C20.081722,32.5 16.5,36.081722 16.5,40.5 L16.5,104.5 C16.5,108.918278 20.081722,112.5 24.5,112.5 L104.5,112.5 C108.918278,112.5 112.5,108.918278 112.5,104.5 L112.5,40.5 C112.5,36.081722 108.918278,32.5 104.5,32.5 L88.5,32.5 L88.5,32.5 L88.5,24.5 C88.5,20.081722 84.918278,16.5 80.5,16.5 L80.5,16.5 L80.5,16.5" id="Path-267" stroke="#000000" stroke-width="3"></path>
            <path d="M33,16.5 C37.418278,16.5 41,20.081722 41,24.5 L41,32.5 L41,32.5 L80.5,32.5" id="Path-269" stroke="#000000" stroke-width="3"></path>
            <line x1="28.5" y1="64.5" x2="44.5" y2="64.5" id="Path-270-Copy" stroke="#000000" stroke-width="3"></line>
            <line x1="56.5" y1="64.5" x2="72.5" y2="64.5" id="Path-270-Copy-2" stroke="#000000" stroke-width="3"></line>
            <line x1="84.5" y1="64.5" x2="100.5" y2="64.5" id="Path-270-Copy-3" stroke="#000000" stroke-width="3"></line>
            <line x1="84.5" y1="80.5" x2="100.5" y2="80.5" id="Path-270-Copy-4" stroke="#000000" stroke-width="3"></line>
            <line x1="56.5" y1="80.5" x2="72.5" y2="80.5" id="Path-270-Copy-5" stroke="#000000" stroke-width="3"></line>
            <line x1="28.5" y1="80.5" x2="44.5" y2="80.5" id="Path-270-Copy-6" stroke="#000000" stroke-width="3"></line>
            <line x1="28.5" y1="96.5" x2="44.5" y2="96.5" id="Path-270-Copy-7" stroke="#000000" stroke-width="3"></line>
            <line x1="56.5" y1="96.5" x2="72.5" y2="96.5" id="Path-270-Copy-8" stroke="#000000" stroke-width="3"></line>
            <line x1="56.5" y1="48.5" x2="72.5" y2="48.5" id="Path-271" stroke="#000000" stroke-width="3"></line>
            <line x1="84.5" y1="48.5" x2="100.5" y2="48.5" id="Path-272" stroke="#000000" stroke-width="3"></line>
        </g>
    </g>
</svg>