<?xml version="1.0" encoding="UTF-8"?>
<svg width="130px" height="130px" viewBox="0 0 130 130" version="1.1" xmlns="http://www.w3.org/2000/svg" xmlns:xlink="http://www.w3.org/1999/xlink">
    <title>camera</title>
    <g id="strokes" stroke="none" stroke-width="1" fill="none" fill-rule="evenodd">
        <g id="camera" transform="translate(1.000000, 1.000000)">
            <g id="Group" stroke="#979797" stroke-opacity="0.01" stroke-width="0.1">
                <g id="Rectangle">
                    <rect x="0" y="0" width="128" height="128"></rect>
                </g>
            </g>
            <path d="M88,80 L88,84 C88,90.627417 82.627417,96 76,96 L24,96 C19.581722,96 16,92.418278 16,88 L16,44 C16,37.372583 21.372583,32 28,32 L76,32 C82.627417,32 88,37.372583 88,44 L88,72 L88,72 L105.201501,88.8431362 C106.779954,90.3887046 109.312473,90.3620465 110.858042,88.7835937 C111.590048,88.0360131 112,87.0313782 112,85.9850945 L112,41.6568542 C112,39.4477153 110.209139,37.6568542 108,37.6568542 C106.939134,37.6568542 105.921718,38.0782816 105.171573,38.8284271 L96,48 L96,48" id="Path-51" stroke="#000000" stroke-width="3" stroke-linejoin="round"></path>
        </g>
    </g>
</svg>