<?xml version="1.0" encoding="UTF-8"?>
<svg width="130px" height="130px" viewBox="0 0 130 130" version="1.1" xmlns="http://www.w3.org/2000/svg" xmlns:xlink="http://www.w3.org/1999/xlink">
    <title>car-side-view</title>
    <g id="strokes" stroke="none" stroke-width="1" fill="none" fill-rule="evenodd">
        <g id="car-side-view" transform="translate(1.000000, 1.000000)">
            <g id="Group" stroke="#979797" stroke-opacity="0.01" stroke-width="0.1">
                <g id="Rectangle">
                    <rect x="0" y="0" width="128" height="128"></rect>
                </g>
            </g>
            <path d="M118.5,72.5 L118.5,60.5 C118.5,56.081722 114.918278,52.5 110.5,52.5 L105,52.5 L105,52.5 L100.640244,42.2417498 C98.1298964,36.3350504 92.3329658,32.5 85.914949,32.5 L63.127417,32.5 C58.8839532,32.5 54.8142906,34.1857094 51.8137085,37.1862915 L36.5,52.5 L36.5,52.5 L24.0670851,54.4127561 C16.2617781,55.6135726 10.5,62.329566 10.5,70.2267033 L10.5,81.5 C10.5,83.1568542 11.8431458,84.5 13.5,84.5 L24.5,84.5 L24.5,84.5 C24.5,77.872583 29.872583,72.5 36.5,72.5 L36.5,72.5 L36.5,72.5 C29.872583,72.5 24.5,77.872583 24.5,84.5 C24.5,91.127417 29.872583,96.5 36.5,96.5 C43.127417,96.5 48.5,91.127417 48.5,84.5 L48.5,84.5 L48.5,84.5 L80.5,84.5 C80.5,77.872583 85.872583,72.5 92.5,72.5 L93,72.5 L93,72.5 L92.5,72.5 C85.872583,72.5 80.5,77.872583 80.5,84.5 C80.5,91.127417 85.872583,96.5 92.5,96.5 C99.127417,96.5 104.5,91.127417 104.5,84.5 L104.5,84.5 L104.5,84.5 L112.5,84.5" id="Path-350" stroke="#000000" stroke-width="3"></path>
        </g>
    </g>
</svg>