<?xml version="1.0" encoding="UTF-8"?><svg viewBox="0 0 130 130" version="1.1" xmlns="http://www.w3.org/2000/svg" xmlns:xlink="http://www.w3.org/1999/xlink">
  <title>car</title>
  <g id="strokes" stroke="none" stroke-width="1" fill="none" fill-rule="evenodd">
    <g id="car" transform="translate(1.000000, 1.000000)">
      <g id="Group" stroke="#979797" stroke-opacity="0.01" stroke-width="0.1">
        <g id="Rectangle">
          <rect x="0" y="0" width="128" height="128"></rect>
        </g>
      </g>
      <path d="M104.5,48.5 L100.5,48.5 L94.5115498,33.5288746 C93.296643,30.4916076 90.354973,28.5 87.0837363,28.5 L41.9162637,28.5 C38.645027,28.5 35.703357,30.4916076 34.4884502,33.5288746 L28.5,48.5 L28.5,48.5 L80.5,48.5 L28.5,48.5 C21.872583,48.5 16.5,53.872583 16.5,60.5 L16.5,84.5 L16.5,94.5 C16.5,97.8137085 19.1862915,100.5 22.5,100.5 L30.5,100.5 C33.8137085,100.5 36.5,97.8137085 36.5,94.5 L36.5,84.5 L36.5,84.5 L24.5,84.5 L104.5,84.5 L92.5,84.5 L92.5,94.5 C92.5,97.8137085 95.1862915,100.5 98.5,100.5 L106.5,100.5 C109.813708,100.5 112.5,97.8137085 112.5,94.5 L112.5,84.5 L112.5,84.5 L112.5,63.5 C112.5,61.8431458 111.156854,60.5 109.5,60.5 L90.5,60.5 C87.1862915,60.5 84.5,63.1862915 84.5,66.5 C84.5,69.8137085 87.1862915,72.5 90.5,72.5 L94.5,72.5 C97.8137085,72.5 100.5,69.8137085 100.5,66.5 L100.5,66.5 L100.5,66.5" id="Path-347" stroke="#000000" stroke-width="3"></path>
      <path d="M40,72.5 L34.5,72.5 C31.1862915,72.5 28.5,69.8137085 28.5,66.5 C28.5,63.1862915 31.1862915,60.5 34.5,60.5 L37.5,60.5 C41.3659932,60.5 44.5,63.6340068 44.5,67.5 L44.5,68.5 L44.5,68.5" id="Path-348" stroke="#000000" stroke-width="3"></path>
    </g>
  </g>
</svg>
