<?xml version="1.0" encoding="UTF-8"?><svg viewBox="0 0 130 130" version="1.1" xmlns="http://www.w3.org/2000/svg" xmlns:xlink="http://www.w3.org/1999/xlink">
  <title>chat-off</title>
  <g id="strokes" stroke="none" stroke-width="1" fill="none" fill-rule="evenodd">
    <g id="chat-off" transform="translate(1.000000, 1.000000)">
      <g id="Group" stroke="#979797" stroke-opacity="0.01" stroke-width="0.1">
        <g id="Rectangle">
          <rect x="0" y="0" width="128" height="128"></rect>
        </g>
      </g>
      <path d="M87.9702279,95.5613693 C83.5851914,94.5925106 79.7228451,92.0737976 76.8952854,88.5582945 C75.2918773,88.7183191 73.657715,88.8 72,88.8 C49.90861,88.8 32,74.2940259 32,56.4 C32,52.6342026 32.7931579,49.0184592 34.25154,45.6563964 M44.1840231,33.1165628 C51.3826028,27.4730045 61.1905831,24 72,24 C94.09139,24 112,38.5059741 112,56.4 C112,63.4614754 109.211076,69.9953265 104.476759,75.3182936" id="Shape" stroke="#000000" stroke-width="3"></path>
      <path d="M56.1519243,44.7562058 C61.2886131,50.2057714 64.3395283,57.0142911 64.3395283,64.4 C64.3395283,75.755624 57.1273283,85.7468033 46.2108301,91.5321374 L46.2352416,91.591043 C47.9771248,95.5861343 50.8193619,98.9112259 54.3399786,101.110586 C51.3980873,102.948052 47.9825558,104 44.3395283,104 C38.3089173,104 32.9017132,101.117348 29.2348137,96.5582945 C27.6314056,96.7183191 25.9972432,96.8 24.3395283,96.8 C21.4796604,96.8 18.6898914,96.5568956 16,96.0948078" id="Path" stroke="#000000" stroke-width="3" transform="translate(40.169764, 74.378103) scale(-1, 1) translate(-40.169764, -74.378103)"></path>
      <line x1="16" y1="16" x2="112" y2="112" id="Path-50" stroke="#000000" stroke-width="3"></line>
    </g>
  </g>
</svg>
