<?xml version="1.0" encoding="UTF-8"?>
<svg width="130px" height="130px" viewBox="0 0 130 130" version="1.1" xmlns="http://www.w3.org/2000/svg" xmlns:xlink="http://www.w3.org/1999/xlink">
    <title>chess-rook</title>
    <g id="strokes" stroke="none" stroke-width="1" fill="none" fill-rule="evenodd">
        <g id="chess-rook" transform="translate(1.000000, 1.000000)">
            <g id="Group" stroke="#979797" stroke-opacity="0.01" stroke-width="0.1">
                <g id="Rectangle">
                    <rect x="0" y="0" width="128" height="128"></rect>
                </g>
            </g>
            <path d="M104.5,112.5 L24.5,112.5 C24.5,105.872583 29.872583,100.5 36.5,100.5 L90.5,100.5 L90.5,100.5 L96.5,100.5 L96.5,96.5 C96.5,92.081722 92.918278,88.5 88.5,88.5 L88.5,88.5 L88.5,88.5 L88.5,66.5 C88.5,65.3954305 89.3954305,64.5 90.5,64.5 L91,64.5 L91,64.5 L56.5,64.5 L92,64.5 L92.5,64.5 C94.709139,64.5 96.5,62.709139 96.5,60.5 L96.5,48.5 L96.5,48.5 L102.5,48.5 C103.604569,48.5 104.5,47.6045695 104.5,46.5 L104.5,17.5 C104.5,16.9477153 104.052285,16.5 103.5,16.5 L89.5,16.5 C88.9477153,16.5 88.5,16.9477153 88.5,17.5 L88.5,28.5 L88.5,28.5 L76.5,28.5 L76.5,17.5 C76.5,16.9477153 76.0522847,16.5 75.5,16.5 L53.5,16.5 C52.9477153,16.5 52.5,16.9477153 52.5,17.5 L52.5,28.5 L52.5,28.5 L40.5,28.5 L40.5,17.5 C40.5,16.9477153 40.0522847,16.5 39.5,16.5 L25.5,16.5 C24.9477153,16.5 24.5,16.9477153 24.5,17.5 L24.5,46.5 C24.5,47.6045695 25.3954305,48.5 26.5,48.5 L80.5,48.5 L80.5,48.5 L32.5,48.5 L32.5,62.5 C32.5,63.6045695 33.3954305,64.5 34.5,64.5 L40.5,64.5 L40.5,64.5 L40.5,88.5 L80.5,88.5" id="Path-331" stroke="#000000" stroke-width="3"></path>
        </g>
    </g>
</svg>