<?xml version="1.0" encoding="UTF-8"?>
<svg width="130px" height="130px" viewBox="0 0 130 130" version="1.1" xmlns="http://www.w3.org/2000/svg" xmlns:xlink="http://www.w3.org/1999/xlink">
    <title>chess-knight</title>
    <g id="strokes" stroke="none" stroke-width="1" fill="none" fill-rule="evenodd">
        <g id="chess-knight" transform="translate(1.000000, 1.000000)">
            <g id="Group" stroke="#979797" stroke-opacity="0.01" stroke-width="0.1">
                <g id="Rectangle">
                    <rect x="0" y="0" width="128" height="128"></rect>
                </g>
            </g>
            <path d="M104.5,112.5 L24.5,112.5 C24.5,105.872583 29.872583,100.5 36.5,100.5 L96.5,100.5 L96.5,100.5 L96.5,96.5 C96.5,92.081722 92.918278,88.5 88.5,88.5 L88.5,88.5 L88.5,88.5 L88.5,86.1235281 C88.5,79.7437038 89.4539274,73.399736 91.3301434,67.3020338 L96.5,50.5 C99.7632281,39.8945085 93.8111477,28.6516899 83.2056562,25.3884617 C81.2914157,24.7994647 79.2998656,24.5 77.297059,24.5 L64.5,24.5 L64.5,24.5 L40.5308885,38.1966351 C38.0382885,39.620978 36.5,42.2717255 36.5,45.1425803 L36.5,47.8879613 C36.5,50.0971002 38.290861,51.8879613 40.5,51.8879613 C40.6892755,51.8879613 40.8783123,51.8745268 41.0656854,51.8477592 L59.2421239,49.2511252 C60.3355919,49.0949154 61.3486559,49.8547134 61.5048656,50.9481814 C61.5862844,51.5181134 61.4181523,52.095489 61.0434798,52.5326069 L48.3094965,67.3889208 C43.2700439,73.2682821 40.5,80.7564238 40.5,88.5 L40.5,88.5 L40.5,88.5 L72.5,88.5" id="Path-330" stroke="#000000" stroke-width="3"></path>
            <path d="M64.5,15 L77.297059,15 C80.0361699,15 82.7609858,15.3803046 85.3936141,16.1292011 L85.9994718,16.3085612 C101.289569,21.0132063 110.037686,36.9974098 105.833509,52.4184756 L105.702139,52.885596 L105.579901,53.2938156 L100.410044,70.0958494" id="Path" stroke="#000000" stroke-width="3" fill-rule="nonzero"></path>
        </g>
    </g>
</svg>