<?xml version="1.0" encoding="UTF-8"?><svg viewBox="0 0 130 130" version="1.1" xmlns="http://www.w3.org/2000/svg" xmlns:xlink="http://www.w3.org/1999/xlink">
  <title>circle-half-filled</title>
  <g id="strokes" stroke="none" stroke-width="1" fill="none" fill-rule="evenodd">
    <g id="circle-half-filled" transform="translate(1.000000, 1.000000)">
      <g id="Group" stroke="#979797" stroke-opacity="0.01" stroke-width="0.1">
        <g id="Rectangle">
          <rect x="0" y="0" width="128" height="128"></rect>
        </g>
      </g>
      <path d="M40.5,96.5 L64.5,96.5 L64.5,84.5 L32.5,84.5 L64.5,84.5 L64.5,72.5 L24.5,72.5 L64.5,72.5 L64.5,60.5 L20.5,60.5 L64.5,60.5 L64.5,48.5 L24.5,48.5 L64.5,48.5 L64.5,36.5 L32.5,36.5 L64.5,36.5 L64.5,24.5 L48.5,24.5 L64.5,24.5 L64.5,112.5 C91.009668,112.5 112.5,91.009668 112.5,64.5 C112.5,37.990332 91.009668,16.5 64.5,16.5 C37.990332,16.5 16.5,37.990332 16.5,64.5 C16.5,85.2226919 29.6318795,102.878269 48.0279799,109.599073" id="Path" stroke="#000000" stroke-width="3"></path>
    </g>
  </g>
</svg>
