<?xml version="1.0" encoding="UTF-8"?><svg viewBox="0 0 130 130" version="1.1" xmlns="http://www.w3.org/2000/svg" xmlns:xlink="http://www.w3.org/1999/xlink">
  <title>circle-triangle-square</title>
  <g id="strokes" stroke="none" stroke-width="1" fill="none" fill-rule="evenodd">
    <g id="circle-triangle-square" transform="translate(1.000000, 1.000000)">
      <g id="Group" stroke="#979797" stroke-opacity="0.01" stroke-width="0.1">
        <g id="Rectangle">
          <rect x="0" y="0" width="128" height="128"></rect>
        </g>
      </g>
      <path d="M68,60.5 L86.7380333,60.5 C88.3948876,60.5 89.7380333,59.1568542 89.7380333,57.5 C89.7380333,56.8844837 89.5487045,56.2838636 89.1957291,55.779613 L66.9576958,24.0109939 C66.0075522,22.6536461 64.1369609,22.3235417 62.779613,23.2736852 C62.492689,23.474532 62.243151,23.72407 62.0423042,24.0109939 L39.8042709,55.779613 C38.8541274,57.1369609 39.1842318,59.0075522 40.5415797,59.9576958 C41.0458303,60.3106712 41.6464504,60.5 42.2619667,60.5 L60.5,60.5 L60.5,60.5 L60.5,68.5 L28.5,68.5 C24.081722,68.5 20.5,72.081722 20.5,76.5 L20.5,100.5 C20.5,104.918278 24.081722,108.5 28.5,108.5 L52.5,108.5 C56.918278,108.5 60.5,104.918278 60.5,100.5 L60.5,80.5 L60.5,80.5 C60.5,95.1666667 60.5,101.666667 60.5,100 C60.5,97.5 68.5591707,94.9660971 72.1833206,100.068501 C75.8074704,105.170905 81.7649593,108.5 88.5,108.5 C99.545695,108.5 108.5,99.545695 108.5,88.5 C108.5,77.454305 99.545695,68.5 88.5,68.5 C84.4637268,68.5 80.7067145,69.6956578 77.563829,71.7521073 C72.105871,75.3233527 68.5,81.4905782 68.5,88.5" id="Path" stroke="#000000" stroke-width="3"></path>
    </g>
  </g>
</svg>
