<?xml version="1.0" encoding="UTF-8"?><svg viewBox="0 0 130 130" version="1.1" xmlns="http://www.w3.org/2000/svg" xmlns:xlink="http://www.w3.org/1999/xlink">
  <title>closed-captions-off</title>
  <g id="strokes" stroke="none" stroke-width="1" fill="none" fill-rule="evenodd">
    <g id="closed-captions-off" transform="translate(1.000000, 1.000000)">
      <g id="Group" stroke="#979797" stroke-opacity="0.01" stroke-width="0.1">
        <g id="Rectangle">
          <rect x="0" y="0" width="128" height="128"></rect>
        </g>
      </g>
      <path d="M60.5,48.5 L56.5,48.5 M40.6964373,53.6981936 C38.0902314,56.5445393 36.5,60.3365604 36.5,64.5 C36.5,73.336556 43.663444,80.5 52.5,80.5 L60.5,80.5" id="Shape" stroke="#000000" stroke-width="3"></path>
      <path d="M105,32.5 C109.142136,32.5 112.5,35.8578644 112.5,40 L112.5,88.5 C112.5,92.918278 108.918278,96.5 104.5,96.5 L104.5,96.5 L104.5,96.5 M88.5,96.5 L24.5,96.5 C20.081722,96.5 16.5,92.918278 16.5,88.5 L16.5,40.5 C16.5,36.081722 20.081722,32.5 24.5,32.5 C24.5,32.5 24.5,32.5 24.5,32.5 M40.5,32.5 L88.5,32.5 C90.709139,32.5 92.5,34.290861 92.5,36.5 L92.5,48.5 L84.5,48.5 C77.3652793,48.5 71.3212776,53.1699234 69.2578792,59.6198861 M88.5,80.5 C89.3888889,80.5 90.7222222,80.5 92.5,80.5" id="Shape" stroke="#000000" stroke-width="3"></path>
      <line x1="16.5" y1="16.5" x2="112.5" y2="112.5" id="Path-182" stroke="#000000" stroke-width="3"></line>
    </g>
  </g>
</svg>
