<?xml version="1.0" encoding="UTF-8"?><svg viewBox="0 0 130 130" version="1.1" xmlns="http://www.w3.org/2000/svg" xmlns:xlink="http://www.w3.org/1999/xlink">
  <title>closed-captions</title>
  <g id="strokes" stroke="none" stroke-width="1" fill="none" fill-rule="evenodd">
    <g id="closed-captions" transform="translate(1.000000, 1.000000)">
      <g id="Group" stroke="#979797" stroke-opacity="0.01" stroke-width="0.1">
        <g id="Rectangle">
          <rect x="0" y="0" width="128" height="128"></rect>
        </g>
      </g>
      <path d="M60.5,48.5 L52.5,48.5 C43.663444,48.5 36.5,55.663444 36.5,64.5 C36.5,73.336556 43.663444,80.5 52.5,80.5 L60.5,80.5 L60.5,80.5" id="Path-180" stroke="#000000" stroke-width="3"></path>
      <path d="M105,32.5 C109.142136,32.5 112.5,35.8578644 112.5,40 L112.5,88.5 C112.5,92.918278 108.918278,96.5 104.5,96.5 L24.5,96.5 C20.081722,96.5 16.5,92.918278 16.5,88.5 L16.5,40.5 C16.5,36.081722 20.081722,32.5 24.5,32.5 L88.5,32.5 C90.709139,32.5 92.5,34.290861 92.5,36.5 L92.5,48.5 L92.5,48.5 L84.5,48.5 C75.663444,48.5 68.5,55.663444 68.5,64.5 C68.5,73.336556 75.663444,80.5 84.5,80.5 L92.5,80.5 L92.5,80.5" id="Path-183" stroke="#000000" stroke-width="3"></path>
    </g>
  </g>
</svg>
