<?xml version="1.0" encoding="UTF-8"?>
<svg width="130px" height="130px" viewBox="0 0 130 130" version="1.1" xmlns="http://www.w3.org/2000/svg" xmlns:xlink="http://www.w3.org/1999/xlink">
    <title>cloud-sun</title>
    <g id="strokes" stroke="none" stroke-width="1" fill="none" fill-rule="evenodd">
        <g id="cloud-sun" transform="translate(1.000000, 1.000000)">
            <g id="Group" stroke="#979797" stroke-opacity="0.01" stroke-width="0.1">
                <g id="Rectangle">
                    <rect x="0" y="0" width="128" height="128"></rect>
                </g>
            </g>
            <path d="M58.7999737,100 C47.7542787,100 38.7999737,91.045695 38.7999737,80 C38.7999737,69.9912336 46.1519974,61.6996243 55.7501584,60.2310585 C59.2209597,46.3121058 71.806206,36 86.7999737,36 C95.4211305,36 103.246018,39.4092347 109,44.9530682" id="Path" stroke="#000000" stroke-width="3" transform="translate(73.899987, 68.000000) scale(-1, 1) translate(-73.899987, -68.000000) "></path>
            <path d="M13,100 L65,100 C78.254834,100 89,89.254834 89,76 C89,62.745166 78.254834,52 65,52 C62.2616909,52 59.6304924,52.4585952 57.1790176,53.3031725" id="Path" stroke="#000000" stroke-width="3" transform="translate(51.000000, 76.000000) scale(-1, 1) translate(-51.000000, -76.000000) "></path>
            <path d="M103.5,37.6051019 C102.137669,30.1504637 95.6093126,24.5 87.7612196,24.5 C78.9246636,24.5 71.7612196,31.663444 71.7612196,40.5 C71.7612196,46.3752495 74.9279306,51.5108739 79.6476315,54.2931525" id="Path" stroke="#000000" stroke-width="3" transform="translate(87.630610, 39.396576) scale(-1, 1) translate(-87.630610, -39.396576) "></path>
            <path d="M103.5,24.5 L99.0076591,29.0625338 M76.0763553,52.3521391 L71.5,57" id="Shape" stroke="#000000" stroke-width="3" transform="translate(87.500000, 40.750000) scale(-1, 1) translate(-87.500000, -40.750000) "></path>
            <line x1="87.5" y1="16.5" x2="87.5" y2="24.5" id="Path-290" stroke="#000000" stroke-width="3" transform="translate(87.500000, 20.500000) scale(-1, 1) translate(-87.500000, -20.500000) "></line>
            <line x1="111.5" y1="40.5" x2="103" y2="40.5" id="Path-291" stroke="#000000" stroke-width="3" transform="translate(107.250000, 40.500000) scale(-1, 1) translate(-107.250000, -40.500000) "></line>
            <line x1="103.5" y1="29" x2="99" y2="24.5" id="Path-292" stroke="#000000" stroke-width="3" transform="translate(101.250000, 26.750000) scale(-1, 1) translate(-101.250000, -26.750000) "></line>
        </g>
    </g>
</svg>