<?xml version="1.0" encoding="UTF-8"?><svg viewBox="0 0 130 130" version="1.1" xmlns="http://www.w3.org/2000/svg" xmlns:xlink="http://www.w3.org/1999/xlink">
  <title>clown</title>
  <g id="strokes" stroke="none" stroke-width="1" fill="none" fill-rule="evenodd">
    <g id="clown" transform="translate(1.000000, 1.000000)">
      <g id="Group" stroke="#979797" stroke-opacity="0.01" stroke-width="0.1">
        <g id="Rectangle">
          <rect x="0" y="0" width="128" height="128"></rect>
        </g>
      </g>
      <path d="M27,90 C27,83.372583 32.372583,78 39,78 C42.3142183,78 45.3146316,79.3435591 47.4862836,81.5157209 L48,82 C52.3430674,86.3425635 57.873087,88.5 64.5,88.5 C71.127417,88.5 76.6568542,86.3431458 81,82 L81.5147186,81.5147186 C83.6862915,79.3431458 86.6862915,78 90,78 C96.627417,78 102,83.372583 102,90 C102,93.8248876 100.210499,97.231815 97.423056,99.4292235 C88.8288664,107.533189 77.2444637,112.5 64.5,112.5 C52.5305779,112.5 41.5844112,108.118923 33.1775954,100.872864 C33.1151798,100.819066 33.0380024,100.751727 32.9460633,100.670846 C31.7020682,99.5764778 31.5807713,97.6808598 32.6751394,96.4368645 C32.7118919,96.3950871 32.7497995,96.3543403 32.7888183,96.3146713 L37.0760054,91.9560518 C38.158958,90.8550544 39.9008258,90.7560903 41.1015136,91.7273422 C41.5550064,92.0941784 41.9455119,92.4047192 42.27303,92.6589646 C47.5672915,96.7687866 53.9984385,100.5 64.5,100.5 C77.25,100.5 85.5,94 90,90" id="Path" stroke="#000000" stroke-width="3"></path>
      <path d="M64.5,56.5 C60.081722,56.5 56.5,60.081722 56.5,64.5 C56.5,68.918278 60.081722,72.5 64.5,72.5 C68.918278,72.5 72.5,68.918278 72.5,64.5 L72.5,64.5 L72.5,64.5 L72.5,56.5 L96.5,56.5 C100.918278,56.5 104.5,52.918278 104.5,48.5 L104.5,40.5 C104.5,31.663444 97.336556,24.5 88.5,24.5 C79.663444,24.5 72.5,31.663444 72.5,40.5 L72.5,48.5 L72.5,48.5" id="Path-342" stroke="#000000" stroke-width="3"></path>
      <path d="M48.5,56.5 L32.5,56.5 C28.081722,56.5 24.5,52.918278 24.5,48.5 L24.5,40.5 C24.5,31.663444 31.663444,24.5 40.5,24.5 C49.336556,24.5 56.5,31.663444 56.5,40.5 L56.5,48.5 L56.5,48.5" id="Path-344" stroke="#000000" stroke-width="3"></path>
      <line x1="84.5" y1="40.5" x2="92.5" y2="40.5" id="Path-343" stroke="#000000" stroke-width="3"></line>
      <line x1="36.5" y1="40.5" x2="44.5" y2="40.5" id="Path-345" stroke="#000000" stroke-width="3"></line>
    </g>
  </g>
</svg>
