<?xml version="1.0" encoding="UTF-8"?><svg viewBox="0 0 141 141" version="1.1" xmlns="http://www.w3.org/2000/svg" xmlns:xlink="http://www.w3.org/1999/xlink">
  <title>compass</title>
  <g id="strokes" stroke="none" stroke-width="1" fill="none" fill-rule="evenodd">
    <g id="compass" transform="translate(6.000000, 6.000000)">
      <g transform="translate(-4.000000, -4.000000)">
        <g id="Group" transform="translate(4.000000, 4.000000)" stroke="#979797" stroke-opacity="0.01" stroke-width="0.1">
          <g id="Rectangle">
            <rect x="0" y="0" width="128" height="128"></rect>
          </g>
        </g>
        <path d="M81.9248734,72.4039104 L70.9248734,72.4039104 C70.9248734,70.1947714 69.1340124,68.4039104 66.9248734,68.4039104 C64.7157344,68.4039104 62.9248734,70.1947714 62.9248734,72.4039104 C62.9248734,74.6130494 64.7157344,76.4039104 66.9248734,76.4039104" id="Path" stroke="#000000" stroke-width="3" transform="translate(72.424873, 72.403910) rotate(45.000000) translate(-72.424873, -72.403910)"></path>
        <path d="M72.5372471,104.515428 L83.6939731,71.0452504 C84.2413513,69.4031159 84.2413513,67.6277406 83.6939731,65.9856061 L69.2378915,22.6173612 C68.8146006,21.3475392 67.6013061,20.5117487 66.2640066,20.5687854 C66.1885896,20.5720019 66.1173474,20.5753218 66.0502801,20.5787449 C62.1728856,20.7766448 58.4169824,21.4346585 54.8360954,22.499261 C35.0019939,28.395966 20.5372471,46.7664858 20.5372471,68.5154283 C20.5372471,90.1657118 34.8710598,108.468154 54.5665097,114.450579 M64.5372471,32.5154283 L52.9588842,67.2505172 C52.6851951,68.0715844 52.6851951,68.9592721 52.9588842,69.7803393 L67.8352234,114.409357 C68.2572093,115.675294 69.4646407,116.510335 70.7980465,116.458394 C71.1230552,116.445733 71.4052187,116.431758 71.6445371,116.416467 C75.3351393,116.180658 78.9123165,115.52777 82.3294405,114.50443 C102.116748,108.578644 116.537247,90.2310799 116.537247,68.5154283 C116.537247,46.6996615 101.983477,28.2831099 82.0554245,22.4452611" id="Shape" stroke="#000000" stroke-width="3" transform="translate(68.537247, 68.513362) rotate(45.000000) translate(-68.537247, -68.513362)"></path>
        <line x1="68.5" y1="29" x2="68.5" y2="20.5" id="Path-284" stroke="#000000" stroke-width="3"></line>
        <line x1="28.5" y1="68.5" x2="20" y2="68.5" id="Path-285" stroke="#000000" stroke-width="3"></line>
        <line x1="68.5" y1="108.5" x2="68.5" y2="117" id="Path-286" stroke="#000000" stroke-width="3"></line>
        <line x1="108.5" y1="68.5" x2="116.5" y2="68.5" id="Path-287" stroke="#000000" stroke-width="3"></line>
      </g>
    </g>
  </g>
</svg>
