<?xml version="1.0" encoding="UTF-8"?><svg viewBox="0 0 130 130" version="1.1" xmlns="http://www.w3.org/2000/svg" xmlns:xlink="http://www.w3.org/1999/xlink">
  <title>cool-face</title>
  <g id="strokes" stroke="none" stroke-width="1" fill="none" fill-rule="evenodd">
    <g id="cool-face" transform="translate(1.000000, 1.000000)">
      <g id="Group" stroke="#979797" stroke-opacity="0.01" stroke-width="0.1">
        <g id="Rectangle">
          <rect x="0" y="0" width="128" height="128"></rect>
        </g>
      </g>
      <path d="M48.5,48.5 L35.5,48.5 C33.8431458,48.5 32.5,49.8431458 32.5,51.5 L32.5,56.5 C32.5,60.918278 36.081722,64.5 40.5,64.5 L47.5,64.5 C52.4705627,64.5 56.5,60.4705627 56.5,55.5 L56.5,48.5 L72.5,48.5 L72.5,56.5 C72.5,60.918278 76.081722,64.5 80.5,64.5 L88.5,64.5 C92.918278,64.5 96.5,60.918278 96.5,56.5 L96.5,51.4743954 C96.5,49.8275743 97.8275255,48.488621 99.4742862,48.4745056 L106.749579,48.4121448 C107.854111,48.4026823 108.741835,47.4996074 108.732368,46.3950757 C108.730074,46.1274237 108.674078,45.8629551 108.567699,45.6173407 C107.663317,43.5292472 106.884292,41.9118004 106.230624,40.7650003 C97.9695735,26.2717544 82.3759445,16.5 64.5,16.5 C37.990332,16.5 16.5,37.990332 16.5,64.5 C16.5,91.009668 37.990332,112.5 64.5,112.5 C85.4493768,112.5 102.897841,98.9458528 109.815693,80.3664376 C112,74.5 112.5,69.5 112.5,64.5 M96.5,80.5 C85.8333333,88.5 75.1666667,92.5 64.5,92.5 C53.8333333,92.5 43.1666667,88.5 32.5,80.5" id="Shape" stroke="#000000" stroke-width="3"></path>
      <line x1="64.5" y1="48.5" x2="88.5" y2="48.5" id="Path-168" stroke="#000000" stroke-width="3"></line>
    </g>
  </g>
</svg>
