<?xml version="1.0" encoding="UTF-8"?><svg viewBox="0 0 130 130" version="1.1" xmlns="http://www.w3.org/2000/svg" xmlns:xlink="http://www.w3.org/1999/xlink">
  <title>curly-bracers-off</title>
  <g id="strokes" stroke="none" stroke-width="1" fill="none" fill-rule="evenodd">
    <g id="curly-bracers-off" transform="translate(1.000000, 1.000000)">
      <g id="Group" stroke="#979797" stroke-opacity="0.01" stroke-width="0.1">
        <g id="Rectangle">
          <rect x="0" y="0" width="128" height="128"></rect>
        </g>
      </g>
      <path d="M48.5,24.5 C44.081722,24.5 40.5,28.081722 40.5,32.5 C40.5,32.5 40.5,32.5 40.5,32.5 M40.5,48.5 C40.5,51.2113126 40.5,53.9226251 40.5,56.6339377 C40.5,59.2862096 38.9298983,61.6869195 36.5,62.75 L34.3380442,63.6958557 C33.8320645,63.9172218 33.6013396,64.5068521 33.8227057,65.0128318 C33.9097732,65.2118432 34.0592747,65.377092 34.2486018,65.4835885 L36.5,66.75 C38.9708891,68.1398751 40.5,70.7544216 40.5,73.5893899 L40.5,96.5 C40.5,100.918278 44.081722,104.5 48.5,104.5 L48.5,104.5 L48.5,104.5" id="Shape" stroke="#000000" stroke-width="3"></path>
      <path d="M95.2613896,24.5 C90.8431116,24.5 87.2613896,28.081722 87.2613896,32.5 L87.2613896,56.6339377 C87.2613896,59.2862096 85.6912879,61.6869195 83.2613896,62.75 L81.0994339,63.6958557 C80.5934541,63.9172218 80.3627292,64.5068521 80.5840954,65.0128318 C80.6711628,65.2118432 80.8206643,65.377092 81.0099915,65.4835885 L83.2613896,66.75 C85.7322787,68.1398751 87.2613896,70.7544216 87.2613896,73.5893899 L87.2613896,80.5 L87.2613896,80.5 M87.2613896,96.5 C87.2613896,100.918278 90.8431116,104.5 95.2613896,104.5 L95.2613896,104.5 L95.2613896,104.5" id="Shape" stroke="#000000" stroke-width="3" transform="translate(87.880695, 64.500000) scale(-1, 1) translate(-87.880695, -64.500000)"></path>
      <line x1="16.5" y1="16.5" x2="112.5" y2="112.5" id="Path-226" stroke="#000000" stroke-width="3"></line>
    </g>
  </g>
</svg>
