<?xml version="1.0" encoding="UTF-8"?><svg viewBox="0 0 130 130" version="1.1" xmlns="http://www.w3.org/2000/svg" xmlns:xlink="http://www.w3.org/1999/xlink">
  <title>curly-bracers</title>
  <g id="strokes" stroke="none" stroke-width="1" fill="none" fill-rule="evenodd">
    <g id="curly-bracers" transform="translate(1.000000, 1.000000)">
      <g id="Group" stroke="#979797" stroke-opacity="0.01" stroke-width="0.1">
        <g id="Rectangle">
          <rect x="0" y="0" width="128" height="128"></rect>
        </g>
      </g>
      <path d="M48.5,24.5 C44.081722,24.5 40.5,28.081722 40.5,32.5 L40.5,56.6339377 C40.5,59.2862096 38.9298983,61.6869195 36.5,62.75 L34.3380442,63.6958557 C33.8320645,63.9172218 33.6013396,64.5068521 33.8227057,65.0128318 C33.9097732,65.2118432 34.0592747,65.377092 34.2486018,65.4835885 L36.5,66.75 C38.9708891,68.1398751 40.5,70.7544216 40.5,73.5893899 L40.5,96.5 C40.5,100.918278 44.081722,104.5 48.5,104.5 L48.5,104.5 L48.5,104.5" id="Path-225" stroke="#000000" stroke-width="3"></path>
      <path d="M96.5,24.5 C92.081722,24.5 88.5,28.081722 88.5,32.5 L88.5,56.6339377 C88.5,59.2862096 86.9298983,61.6869195 84.5,62.75 L82.3380442,63.6958557 C81.8320645,63.9172218 81.6013396,64.5068521 81.8227057,65.0128318 C81.9097732,65.2118432 82.0592747,65.377092 82.2486018,65.4835885 L84.5,66.75 C86.9708891,68.1398751 88.5,70.7544216 88.5,73.5893899 L88.5,96.5 C88.5,100.918278 92.081722,104.5 96.5,104.5 L96.5,104.5 L96.5,104.5" id="Path-225-Copy" stroke="#000000" stroke-width="3" transform="translate(88.500000, 64.500000) scale(-1, 1) translate(-88.500000, -64.500000)"></path>
    </g>
  </g>
</svg>
