<?xml version="1.0" encoding="UTF-8"?><svg viewBox="0 0 130 130" version="1.1" xmlns="http://www.w3.org/2000/svg" xmlns:xlink="http://www.w3.org/1999/xlink">
  <title>descending-sort</title>
  <g id="strokes" stroke="none" stroke-width="1" fill="none" fill-rule="evenodd">
    <g id="descending-sort" transform="translate(1.000000, 1.000000)">
      <g id="Group" stroke="#979797" stroke-opacity="0.01" stroke-width="0.1">
        <g id="Rectangle">
          <rect x="0" y="0" width="128" height="128"></rect>
        </g>
      </g>
      <path d="M112.5,72.5 L98.1641006,94.0038491 C97.5513957,94.9229065 96.309657,95.1712542 95.3905996,94.5585493 C95.170895,94.4120796 94.9823691,94.2235537 94.8358994,94.0038491 L80.5,72.5 L80.5,72.5" id="Path-67" stroke="#000000" stroke-width="3"></path>
      <path d="M16.5,24.5 L16.5,32.5 C16.5,36.918278 20.081722,40.5 24.5,40.5 L40.5,40.5 C44.918278,40.5 48.5,44.081722 48.5,48.5 C48.5,52.918278 44.918278,56.5 40.5,56.5 L24.5,56.5 C20.081722,56.5 16.5,60.081722 16.5,64.5 C16.5,68.918278 20.081722,72.5 24.5,72.5 L72.5,72.5 C76.918278,72.5 80.5,76.081722 80.5,80.5 C80.5,84.918278 76.918278,88.5 72.5,88.5 L24.5,88.5 C20.081722,88.5 16.5,92.081722 16.5,96.5 C16.5,100.918278 20.081722,104.5 24.5,104.5 L112.5,104.5 L112.5,104.5" id="Path-145" stroke="#020202" stroke-width="3" transform="translate(64.500000, 64.500000) scale(1, -1) translate(-64.500000, -64.500000)"></path>
      <line x1="96.5" y1="48.5" x2="96.5" y2="80.5" id="Path-68" stroke="#000000" stroke-width="3"></line>
    </g>
  </g>
</svg>
