<?xml version="1.0" encoding="UTF-8"?><svg viewBox="0 0 130 130" version="1.1" xmlns="http://www.w3.org/2000/svg" xmlns:xlink="http://www.w3.org/1999/xlink">
  <title>dice</title>
  <g id="strokes" stroke="none" stroke-width="1" fill="none" fill-rule="evenodd">
    <g id="dice" transform="translate(1.000000, 1.000000)">
      <g id="Group" stroke="#979797" stroke-opacity="0.01" stroke-width="0.1">
        <g id="Rectangle">
          <rect x="0" y="0" width="128" height="128"></rect>
        </g>
      </g>
      <path d="M32.5,104.5 C28.081722,104.5 24.5,100.918278 24.5,96.5 L24.5,32.5 C24.5,28.081722 28.081722,24.5 32.5,24.5 L96.5,24.5 C100.918278,24.5 104.5,28.081722 104.5,32.5 L104.5,96.5 C104.5,100.918278 100.918278,104.5 96.5,104.5 L48.5,104.5 L48.5,104.5" id="Path-333" stroke="#000000" stroke-width="3"></path>
      <path d="M56.5,48.5 C56.5,44.081722 52.918278,40.5 48.5,40.5 C44.081722,40.5 40.5,44.081722 40.5,48.5 C40.5,52.918278 44.081722,56.5 48.5,56.5 L64.5,56.5 C68.918278,56.5 72.5,60.081722 72.5,64.5 C72.5,68.918278 68.918278,72.5 64.5,72.5 C60.081722,72.5 56.5,68.918278 56.5,64.5 L56.5,64.5 L56.5,64.5" id="Path-334" stroke="#000000" stroke-width="3"></path>
      <path d="M80.5,72.5 C84.918278,72.5 88.5,76.081722 88.5,80.5 C88.5,84.918278 84.918278,88.5 80.5,88.5 C76.081722,88.5 72.5,84.918278 72.5,80.5 L72.5,80.5 L72.5,80.5" id="Path-335" stroke="#000000" stroke-width="3"></path>
    </g>
  </g>
</svg>
