<?xml version="1.0" encoding="UTF-8"?>
<svg width="130px" height="130px" viewBox="0 0 130 130" version="1.1" xmlns="http://www.w3.org/2000/svg" xmlns:xlink="http://www.w3.org/1999/xlink">
    <title>diplicate</title>
    <g id="strokes" stroke="none" stroke-width="1" fill="none" fill-rule="evenodd">
        <g id="diplicate" transform="translate(1.000000, 1.000000)">
            <g id="Group" stroke="#979797" stroke-opacity="0.01" stroke-width="0.1">
                <g id="Rectangle">
                    <rect x="0" y="0" width="128" height="128"></rect>
                </g>
            </g>
            <path d="M36.5,100.5 C36.5,104.918278 40.081722,108.5 44.5,108.5 L100.5,108.5 C104.918278,108.5 108.5,104.918278 108.5,100.5 L108.5,44.5 C108.5,40.081722 104.918278,36.5 100.5,36.5 L92.5,36.5 L92.5,36.5 L92.5,28.5 C92.5,24.081722 88.918278,20.5 84.5,20.5 L84.5,20.5 L84.5,20.5 C88.918278,20.5 92.5,24.081722 92.5,28.5 L92.5,84.5 C92.5,88.918278 88.918278,92.5 84.5,92.5 L28.5,92.5 C24.081722,92.5 20.5,88.918278 20.5,84.5 L20.5,28.5 C20.5,24.081722 24.081722,20.5 28.5,20.5 L76.5,20.5 L76.5,20.5" id="Path-221" stroke="#000000" stroke-width="3"></path>
        </g>
    </g>
</svg>