<?xml version="1.0" encoding="UTF-8"?>
<svg width="130px" height="130px" viewBox="0 0 130 130" version="1.1" xmlns="http://www.w3.org/2000/svg" xmlns:xlink="http://www.w3.org/1999/xlink">
    <title>download</title>
    <g id="strokes" stroke="none" stroke-width="1" fill="none" fill-rule="evenodd">
        <g id="download" transform="translate(1.000000, 1.000000)">
            <g id="Group" stroke="#979797" stroke-opacity="0.01" stroke-width="0.1">
                <g id="Rectangle">
                    <rect x="0" y="0" width="128" height="128"></rect>
                </g>
            </g>
            <path d="M40,96 L36,96 C24.954305,96 16,87.045695 16,76 C16,65.9912336 23.3520237,57.6996243 32.9501848,56.2310585 C36.4209861,42.3121058 49.0062324,32 64,32 C72.6211569,32 80.4460443,35.4092347 86.2000263,40.9530682" id="Path" stroke="#000000" stroke-width="3"></path>
            <path d="M88,96 C101.254834,96 112,85.254834 112,72 C112,58.745166 101.254834,48 88,48 C85.2616909,48 82.6304924,48.4585952 80.1790176,49.3031725" id="Path" stroke="#000000" stroke-width="3"></path>
            <path d="M48,88 L63.1679497,110.751925 C63.4743022,111.211453 64.0951715,111.335627 64.5547002,111.029275 C64.6645525,110.95604 64.7588154,110.861777 64.8320503,110.751925 L80,88 L80,88" id="Path-56" stroke="#000000" stroke-width="3"></path>
            <line x1="64" y1="96" x2="64" y2="64" id="Path-57" stroke="#000000" stroke-width="3"></line>
        </g>
    </g>
</svg>