<?xml version="1.0" encoding="UTF-8"?><svg viewBox="0 0 130 130" version="1.1" xmlns="http://www.w3.org/2000/svg" xmlns:xlink="http://www.w3.org/1999/xlink">
  <title>envelope</title>
  <g id="strokes" stroke="none" stroke-width="1" fill="none" fill-rule="evenodd">
    <g id="envelope" transform="translate(1.000000, 1.000000)">
      <g id="Group" stroke="#979797" stroke-opacity="0.01" stroke-width="0.1">
        <g id="Rectangle">
          <rect x="0" y="0" width="128" height="128"></rect>
        </g>
      </g>
      <path d="M16,40 L16,88 C16,92.418278 19.581722,96 24,96 L104,96 C108.418278,96 112,92.418278 112,88 L112,39.9584418 C112,35.5564268 108.443621,31.9814772 104.041666,31.9585503 L23.2428189,31.537723 C21.5859871,31.5290937 20.2358641,32.8652258 20.2272348,34.5220575 C20.2230907,35.3177243 20.5352048,36.0824465 21.0949111,36.647983 L58.343298,74.284374 C61.4512631,77.4247137 66.5165149,77.4509586 69.6568546,74.3429935 C69.6666751,74.3332743 69.6764703,74.3235297 69.6862403,74.3137597 L104,40 L104,40" id="Path-43" stroke="#000000" stroke-width="3"></path>
      <line x1="24" y1="88" x2="40" y2="72" id="Path-44" stroke="#000000" stroke-width="3"></line>
      <line x1="104" y1="88" x2="88" y2="72" id="Path-45" stroke="#000000" stroke-width="3"></line>
    </g>
  </g>
</svg>
