<?xml version="1.0" encoding="UTF-8"?><svg viewBox="0 0 130 130" version="1.1" xmlns="http://www.w3.org/2000/svg" xmlns:xlink="http://www.w3.org/1999/xlink">
  <title>eye-off</title>
  <g id="strokes" stroke="none" stroke-width="1" fill="none" fill-rule="evenodd">
    <g id="eye-off" transform="translate(1.000000, 1.000000)">
      <g id="Group" stroke="#979797" stroke-opacity="0.01" stroke-width="0.1">
        <g id="Rectangle">
          <rect x="0" y="0" width="128" height="128"></rect>
        </g>
      </g>
      <path d="M55.9038763,77.8034329 C58.2788559,79.1994375 61.0459373,80 64,80 C66.456144,80 68.7830272,79.4465691 70.8627505,78.4576064 M78.4911367,70.791788 C79.4590698,68.7301512 80,66.4282461 80,64 C80,55.163444 72.836556,48 64,48 C61.6235913,48 59.3681869,48.5180815 57.3405727,49.4474588 M49.9563378,56.3271986 C48.7091115,58.6051794 48,61.2197788 48,64" id="Shape" stroke="#000000" stroke-width="3"></path>
      <path d="M47.9816979,84.68807 C46.0486589,83.8168196 44.1700918,82.7800612 42.3666923,81.5777949 L16,64 C26.6412652,56.9058232 34.6222141,51.5851906 39.9428467,48.0381022 M50.5557648,42.2607302 C62.0716379,38.0314216 75.1278698,39.4185799 85.6333077,46.4222051 L112,64 C101.450513,71.0329912 93.5383982,76.3077345 88.2636548,79.8242301 M77.2418954,85.9018242 C73.0974802,87.4347518 68.7135139,88.2029858 64.0065657,88.127834 C56,88 48,79.5 48,64" id="Shape" stroke="#000000" stroke-width="3"></path>
      <line x1="16" y1="16" x2="112" y2="112" id="Path-4" stroke="#000000" stroke-width="3"></line>
    </g>
  </g>
</svg>
