<?xml version="1.0" encoding="UTF-8"?><svg viewBox="0 0 130 130" version="1.1" xmlns="http://www.w3.org/2000/svg" xmlns:xlink="http://www.w3.org/1999/xlink">
  <title>eyedropper</title>
  <g id="strokes" stroke="none" stroke-width="1" fill="none" fill-rule="evenodd">
    <g id="eyedropper" transform="translate(1.000000, 1.000000)">
      <g id="Group" stroke="#979797" stroke-opacity="0.01" stroke-width="0.1">
        <g id="Rectangle">
          <rect x="0" y="0" width="128" height="128"></rect>
        </g>
      </g>
      <path d="M68,29 C70.4852814,26.5147186 74.5147186,26.5147186 77,29 L81.0498736,33.0498736 C82.6119707,34.6119707 85.1446306,34.6119707 86.7067278,33.0498736 C86.8929853,32.863616 87.0603894,32.6594159 87.2065019,32.4402472 L94.2242837,21.9135745 C97.0657096,17.6514356 102.824287,16.4997202 107.086426,19.3411461 C107.594624,19.6799451 108.068114,20.0681143 108.5,20.5 C112.122122,24.1221215 112.122122,29.9947409 108.5,33.6168624 C108.068114,34.0487482 107.594624,34.4369173 107.086426,34.7757163 L96.5597528,41.7934981 C94.721638,43.018908 94.2249426,45.5023854 95.4503524,47.3405001 C95.5964648,47.5596688 95.7638689,47.7638689 95.9501264,47.9501264 L100.5,52.5 C102.709139,54.709139 102.709139,58.290861 100.5,60.5 C98.290861,62.709139 94.709139,62.709139 92.5,60.5 L64.5,32.5 L64.5,32.5 L74.5,42.5 L28.736068,88.263932 C27.2655653,89.7344347 26.1576288,91.5271137 25.5,93.5 C24.8423712,95.4728863 23.7344347,97.2655653 22.263932,98.736068 L20.5,100.5 C17.938843,103.061157 16.5,106.534831 16.5,110.156854 L16.5,112.5 L16.5,112.5 L18.8431458,112.5 C22.4651687,112.5 25.938843,111.061157 28.5,108.5 L30.263932,106.736068 C31.7344347,105.265565 33.5271137,104.157629 35.5,103.5 C37.4728863,102.842371 39.2655653,101.734435 40.736068,100.263932 L78.5,62.5 L78.5,62.5 L46.5,94.5 L40.5,88.5" id="Path-303" stroke="#000000" stroke-width="3"></path>
    </g>
  </g>
</svg>
