<?xml version="1.0" encoding="UTF-8"?>
<svg width="130px" height="130px" viewBox="0 0 130 130" version="1.1" xmlns="http://www.w3.org/2000/svg" xmlns:xlink="http://www.w3.org/1999/xlink">
    <title>faceid</title>
    <g id="strokes" stroke="none" stroke-width="1" fill="none" fill-rule="evenodd">
        <g id="faceid" transform="translate(1.000000, 1.000000)">
            <g id="Group" stroke="#979797" stroke-opacity="0.01" stroke-width="0.1">
                <g id="Rectangle">
                    <rect x="0" y="0" width="128" height="128"></rect>
                </g>
            </g>
            <path d="M48.5,112.5 L24.5,112.5 C20.081722,112.5 16.5,108.918278 16.5,104.5 L16.5,80.5 L16.5,80.5" id="Path-245" stroke="#000000" stroke-width="3"></path>
            <path d="M80.5,112.5 L104.5,112.5 C108.918278,112.5 112.5,108.918278 112.5,104.5 L112.5,80.5 L112.5,80.5" id="Path-246" stroke="#000000" stroke-width="3"></path>
            <path d="M80.5,16.5 L104.5,16.5 C108.918278,16.5 112.5,20.081722 112.5,24.5 L112.5,48.5 L112.5,48.5" id="Path-247" stroke="#000000" stroke-width="3"></path>
            <path d="M88.5,48.5 L88.5,52.5 C88.5,54.709139 90.290861,56.5 92.5,56.5 C94.709139,56.5 96.5,54.709139 96.5,52.5 L96.5,43.5 C96.5,41.8431458 95.1568542,40.5 93.5,40.5 L80.5,40.5 C76.081722,40.5 72.5,44.081722 72.5,48.5 L72.5,68.5 C72.5,72.918278 68.918278,76.5 64.5,76.5 L56.5,76.5 L56.5,76.5" id="Path-249" stroke="#000000" stroke-width="3"></path>
            <path d="M32.5,80.5 C40.8333333,85.8333333 51.5,88.5 64.5,88.5 C77.5,88.5 88.1666667,85.8333333 96.5,80.5" id="Path-250" stroke="#000000" stroke-width="3"></path>
            <path d="M48.5,48.5 L48.5,52.5 C48.5,54.709139 50.290861,56.5 52.5,56.5 C54.709139,56.5 56.5,54.709139 56.5,52.5 L56.5,43.5 C56.5,41.8431458 55.1568542,40.5 53.5,40.5 L16.5,40.5 L16.5,40.5 L16.5,48.5 L16.5,24.5 C16.5,20.081722 20.081722,16.5 24.5,16.5 L48.5,16.5 L48.5,16.5" id="Path-251" stroke="#000000" stroke-width="3"></path>
        </g>
    </g>
</svg>