<?xml version="1.0" encoding="UTF-8"?>
<svg width="130px" height="130px" viewBox="0 0 130 130" version="1.1" xmlns="http://www.w3.org/2000/svg" xmlns:xlink="http://www.w3.org/1999/xlink">
    <title>fast-reverse</title>
    <g id="strokes" stroke="none" stroke-width="1" fill="none" fill-rule="evenodd">
        <g id="fast-reverse" transform="translate(1.000000, 1.000000)">
            <g id="Group" stroke="#979797" stroke-opacity="0.01" stroke-width="0.1">
                <g id="Rectangle">
                    <rect x="0" y="0" width="128" height="128"></rect>
                </g>
            </g>
            <path d="M48.7066373,77.7176384 L19.7787759,101.773439 C18.9294898,102.479687 17.6684799,102.363732 16.9622315,101.514446 C16.6635344,101.155254 16.5,100.702831 16.5,100.23567 L16.5,28.7700832 C16.5,27.6655137 17.3954305,26.7700832 18.5,26.7700832 C18.967873,26.7700832 19.4209388,26.9341157 19.7803688,27.2336407 L61.6214752,62.1012293 C63.4454159,63.6211799 64.5,65.8727608 64.5,68.2469996 L64.5,100.229917 C64.5,101.334486 65.3954305,102.229917 66.5,102.229917 C66.967873,102.229917 67.4209388,102.065884 67.7803688,101.766359 L109.734403,66.8046638 C111.007234,65.7439716 111.179206,63.8522775 110.118514,62.5794468 C110.002356,62.4400576 109.873793,62.3114938 109.734403,62.1953362 L67.7803688,27.2336407 C66.931815,26.5265125 65.6706856,26.6411606 64.9635574,27.4897144 C64.6640324,27.8491444 64.5,28.3022102 64.5,28.7700832 L64.5,48.5 L64.5,48.5" id="Path-174" stroke="#000000" stroke-width="3" transform="translate(64.500000, 64.500000) scale(-1, 1) translate(-64.500000, -64.500000) "></path>
        </g>
    </g>
</svg>