<?xml version="1.0" encoding="UTF-8"?><svg viewBox="0 0 130 130" version="1.1" xmlns="http://www.w3.org/2000/svg" xmlns:xlink="http://www.w3.org/1999/xlink">
  <title>file</title>
  <g id="strokes" stroke="none" stroke-width="1" fill="none" fill-rule="evenodd">
    <g id="file" transform="translate(1.000000, 1.000000)">
      <g id="Group" stroke="#979797" stroke-opacity="0.01" stroke-width="0.1">
        <g id="Rectangle">
          <rect x="0" y="0" width="128" height="128"></rect>
        </g>
      </g>
      <path d="M64.5,16.5 L40.5,16.5 C36.081722,16.5 32.5,20.081722 32.5,24.5 L32.5,104.5 C32.5,108.918278 36.081722,112.5 40.5,112.5 L88.5,112.5 C92.918278,112.5 96.5,108.918278 96.5,104.5 L96.5,43.8137085 C96.5,41.6919766 95.6571453,39.6571453 94.1568542,38.1568542 L74.2071068,18.2071068 C73.8165825,17.8165825 73.1834175,17.8165825 72.7928932,18.2071068 C72.6053568,18.3946432 72.5,18.6489971 72.5,18.9142136 L72.5,32.5 C72.5,36.918278 76.081722,40.5 80.5,40.5 L88,40.5 L88,40.5" id="Path-289" stroke="#000000" stroke-width="3"></path>
    </g>
  </g>
</svg>
