<?xml version="1.0" encoding="UTF-8"?><svg viewBox="0 0 130 130" version="1.1" xmlns="http://www.w3.org/2000/svg" xmlns:xlink="http://www.w3.org/1999/xlink">
  <title>film</title>
  <g id="strokes" stroke="none" stroke-width="1" fill="none" fill-rule="evenodd">
    <g id="film" transform="translate(1.000000, 1.000000)">
      <g id="Group" stroke="#979797" stroke-opacity="0.01" stroke-width="0.1">
        <g id="Rectangle">
          <rect x="0" y="0" width="128" height="128"></rect>
        </g>
      </g>
      <path d="M88.5,112.5 L24.5,112.5 C20.081722,112.5 16.5,108.918278 16.5,104.5 L16.5,24.5 C16.5,20.081722 20.081722,16.5 24.5,16.5 L104.5,16.5 C108.918278,16.5 112.5,20.081722 112.5,24.5 L112.5,104.5 C112.5,108.918278 108.918278,112.5 104.5,112.5 L96.5,112.5 L96.5,112.5 L96.5,102.5 C96.5,101.395431 97.3954305,100.5 98.5,100.5 L102.5,100.5 C103.604569,100.5 104.5,99.6045695 104.5,98.5 L104.5,94.5 C104.5,93.3954305 103.604569,92.5 102.5,92.5 L98.5,92.5 C97.3954305,92.5 96.5,91.6045695 96.5,90.5 L96.5,86.5 C96.5,85.3954305 97.3954305,84.5 98.5,84.5 L102.5,84.5 C103.604569,84.5 104.5,83.6045695 104.5,82.5 L104.5,78.5 C104.5,77.3954305 103.604569,76.5 102.5,76.5 L98.5,76.5 C97.3954305,76.5 96.5,75.6045695 96.5,74.5 L96.5,70.5 C96.5,69.3954305 97.3954305,68.5 98.5,68.5 L102.5,68.5 C103.604569,68.5 104.5,67.6045695 104.5,66.5 L104.5,62.5 C104.5,61.3954305 103.604569,60.5 102.5,60.5 L98.5,60.5 C97.3954305,60.5 96.5,59.6045695 96.5,58.5 L96.5,54.5 C96.5,53.3954305 97.3954305,52.5 98.5,52.5 L102.5,52.5 C103.604569,52.5 104.5,51.6045695 104.5,50.5 L104.5,46.5 C104.5,45.3954305 103.604569,44.5 102.5,44.5 L98.5,44.5 C97.3954305,44.5 96.5,43.6045695 96.5,42.5 L96.5,38.5 C96.5,37.3954305 97.3954305,36.5 98.5,36.5 L102.5,36.5 C103.604569,36.5 104.5,35.6045695 104.5,34.5 L104.5,30.5 C104.5,29.3954305 103.604569,28.5 102.5,28.5 L96.5,28.5 L96.5,28.5" id="Path-161-Copy-8" stroke="#000000" stroke-width="3"></path>
      <path d="M53,53 L53,81.2338096 C53,81.7860944 53.4477153,82.2338096 54,82.2338096 C54.1812439,82.2338096 54.3590804,82.1845518 54.5144958,82.0913025 L80.1416902,66.7149859 C81.0888508,66.1466895 81.3959809,64.918169 80.8276846,63.9710085 C80.6587851,63.6895093 80.4231895,63.4539137 80.1416902,63.2850141 L53,47 L53,47" id="Path-159" stroke="#000000" stroke-width="3"></path>
      <path d="M32.5,28.5 L26.5,28.5 C25.3954305,28.5 24.5,29.3954305 24.5,30.5 L24.5,34.5 C24.5,35.6045695 25.3954305,36.5 26.5,36.5 L30.5,36.5 C31.6045695,36.5 32.5,37.3954305 32.5,38.5 L32.5,42.5 C32.5,43.6045695 31.6045695,44.5 30.5,44.5 L26.5,44.5 C25.3954305,44.5 24.5,45.3954305 24.5,46.5 L24.5,50.5 C24.5,51.6045695 25.3954305,52.5 26.5,52.5 L30.5,52.5 C31.6045695,52.5 32.5,53.3954305 32.5,54.5 L32.5,58.5 C32.5,59.6045695 31.6045695,60.5 30.5,60.5 L26.5,60.5 C25.3954305,60.5 24.5,61.3954305 24.5,62.5 L24.5,66.5 C24.5,67.6045695 25.3954305,68.5 26.5,68.5 L30.5,68.5 C31.6045695,68.5 32.5,69.3954305 32.5,70.5 L32.5,74.5 C32.5,75.6045695 31.6045695,76.5 30.5,76.5 L26.5,76.5 C25.3954305,76.5 24.5,77.3954305 24.5,78.5 L24.5,82.5 C24.5,83.6045695 25.3954305,84.5 26.5,84.5 L30.5,84.5 C31.6045695,84.5 32.5,85.3954305 32.5,86.5 L32.5,90.5 C32.5,91.6045695 31.6045695,92.5 30.5,92.5 L26.5,92.5 C25.3954305,92.5 24.5,93.3954305 24.5,94.5 L24.5,98.5 C24.5,99.6045695 25.3954305,100.5 26.5,100.5 L32.5,100.5 L32.5,100.5" id="Path-161" stroke="#000000" stroke-width="3"></path>
    </g>
  </g>
</svg>
