<?xml version="1.0" encoding="UTF-8"?>
<svg width="130px" height="130px" viewBox="0 0 130 130" version="1.1" xmlns="http://www.w3.org/2000/svg" xmlns:xlink="http://www.w3.org/1999/xlink">
    <title>film</title>
    <g id="strokes" stroke="none" stroke-width="1" fill="none" fill-rule="evenodd">
        <g id="film" transform="translate(1.000000, 1.000000)">
            <g id="Group" stroke="#979797" stroke-opacity="0.01" stroke-width="0.1">
                <g id="Rectangle">
                    <rect x="0" y="0" width="128" height="128"></rect>
                </g>
            </g>
            <path d="M24.5,68.5 L31.5,68.5 C32.0522847,68.5 32.5,68.0522847 32.5,67.5 L32.5,61.5 C32.5,60.9477153 32.0522847,60.5 31.5,60.5 L25.5,60.5 C24.9477153,60.5 24.5,60.9477153 24.5,61.5 L24.5,63.5 L24.5,63.5" id="Path-161" stroke="#000000" stroke-width="3"></path>
            <path d="M96.5,68.5 L103.5,68.5 C104.052285,68.5 104.5,68.0522847 104.5,67.5 L104.5,61.5 C104.5,60.9477153 104.052285,60.5 103.5,60.5 L97.5,60.5 C96.9477153,60.5 96.5,60.9477153 96.5,61.5 L96.5,63.5 L96.5,63.5" id="Path-161-Copy-3" stroke="#000000" stroke-width="3"></path>
            <path d="M24.5,52.5 L31.5,52.5 C32.0522847,52.5 32.5,52.0522847 32.5,51.5 L32.5,45.5 C32.5,44.9477153 32.0522847,44.5 31.5,44.5 L25.5,44.5 C24.9477153,44.5 24.5,44.9477153 24.5,45.5 L24.5,47.5 L24.5,47.5" id="Path-161-Copy-2" stroke="#000000" stroke-width="3"></path>
            <path d="M24.5,36.5 L31.5,36.5 C32.0522847,36.5 32.5,36.0522847 32.5,35.5 L32.5,29.5 C32.5,28.9477153 32.0522847,28.5 31.5,28.5 L25.5,28.5 C24.9477153,28.5 24.5,28.9477153 24.5,29.5 L24.5,31.5 L24.5,31.5" id="Path-161-Copy-6" stroke="#000000" stroke-width="3"></path>
            <path d="M96.5,52.5 L103.5,52.5 C104.052285,52.5 104.5,52.0522847 104.5,51.5 L104.5,45.5 C104.5,44.9477153 104.052285,44.5 103.5,44.5 L97.5,44.5 C96.9477153,44.5 96.5,44.9477153 96.5,45.5 L96.5,47.5 L96.5,47.5" id="Path-161-Copy-4" stroke="#000000" stroke-width="3"></path>
            <path d="M96.5,36.5 L103.5,36.5 C104.052285,36.5 104.5,36.0522847 104.5,35.5 L104.5,29.5 C104.5,28.9477153 104.052285,28.5 103.5,28.5 L97.5,28.5 C96.9477153,28.5 96.5,28.9477153 96.5,29.5 L96.5,31.5 L96.5,31.5" id="Path-161-Copy-9" stroke="#000000" stroke-width="3"></path>
            <path d="M24.5,84.5 L31.5,84.5 C32.0522847,84.5 32.5,84.0522847 32.5,83.5 L32.5,77.5 C32.5,76.9477153 32.0522847,76.5 31.5,76.5 L25.5,76.5 C24.9477153,76.5 24.5,76.9477153 24.5,77.5 L24.5,79.5 L24.5,79.5" id="Path-161-Copy" stroke="#000000" stroke-width="3"></path>
            <path d="M24.5,100.5 L31.5,100.5 C32.0522847,100.5 32.5,100.052285 32.5,99.5 L32.5,93.5 C32.5,92.9477153 32.0522847,92.5 31.5,92.5 L25.5,92.5 C24.9477153,92.5 24.5,92.9477153 24.5,93.5 L24.5,95.5 L24.5,95.5" id="Path-161-Copy-7" stroke="#000000" stroke-width="3"></path>
            <path d="M96.5,84.5 L103.5,84.5 C104.052285,84.5 104.5,84.0522847 104.5,83.5 L104.5,77.5 C104.5,76.9477153 104.052285,76.5 103.5,76.5 L97.5,76.5 C96.9477153,76.5 96.5,76.9477153 96.5,77.5 L96.5,79.5 L96.5,79.5" id="Path-161-Copy-5" stroke="#000000" stroke-width="3"></path>
            <path d="M88.5,112.5 L24.5,112.5 C20.081722,112.5 16.5,108.918278 16.5,104.5 L16.5,24.5 C16.5,20.081722 20.081722,16.5 24.5,16.5 L104.5,16.5 C108.918278,16.5 112.5,20.081722 112.5,24.5 L112.5,104.5 C112.5,108.918278 108.918278,112.5 104.5,112.5 L96.5,112.5 L96.5,112.5 L96.5,102.5 C96.5,101.395431 97.3954305,100.5 98.5,100.5 L103.5,100.5 C104.052285,100.5 104.5,100.052285 104.5,99.5 L104.5,93.5 C104.5,92.9477153 104.052285,92.5 103.5,92.5 L97.5,92.5 C96.9477153,92.5 96.5,92.9477153 96.5,93.5 L96.5,95.5 L96.5,95.5" id="Path-161-Copy-8" stroke="#000000" stroke-width="3"></path>
            <path d="M53,53 L53,81.2338096 C53,81.7860944 53.4477153,82.2338096 54,82.2338096 C54.1812439,82.2338096 54.3590804,82.1845518 54.5144958,82.0913025 L80.1416902,66.7149859 C81.0888508,66.1466895 81.3959809,64.918169 80.8276846,63.9710085 C80.6587851,63.6895093 80.4231895,63.4539137 80.1416902,63.2850141 L53,47 L53,47" id="Path-159" stroke="#000000" stroke-width="3"></path>
        </g>
    </g>
</svg>