<?xml version="1.0" encoding="UTF-8"?>
<svg width="130px" height="130px" viewBox="0 0 130 130" version="1.1" xmlns="http://www.w3.org/2000/svg" xmlns:xlink="http://www.w3.org/1999/xlink">
    <title>filter</title>
    <g id="strokes" stroke="none" stroke-width="1" fill="none" fill-rule="evenodd">
        <g id="filter" transform="translate(1.000000, 1.000000)">
            <g id="Group" stroke="#979797" stroke-opacity="0.01" stroke-width="0.1">
                <g id="Rectangle">
                    <rect x="0" y="0" width="128" height="128"></rect>
                </g>
            </g>
            <path d="M113,32.5 L20.2499497,32.9805702 C18.1757741,32.9913172 16.5,34.6757966 16.5,36.75 C16.5,38.8210678 18.1789322,40.5 20.25,40.5 L92.5,40.5 C94.709139,40.5 96.5,42.290861 96.5,44.5 C96.5,46.709139 94.709139,48.5 92.5,48.5 L36.5,48.5 C34.290861,48.5 32.5,50.290861 32.5,52.5 C32.5,54.709139 34.290861,56.5 36.5,56.5 L76,56.5 C78.209139,56.5 80,58.290861 80,60.5 C80,62.709139 78.209139,64.5 76,64.5 L52.5,64.5 C50.290861,64.5 48.5,66.290861 48.5,68.5 C48.5,70.709139 50.290861,72.5 52.5,72.5 L68,72.5 C70.209139,72.5 72,74.290861 72,76.5 L72,76.75 C72,78.8210678 70.3210678,80.5 68.25,80.5 C66.1789322,80.5 64.5,82.1789322 64.5,84.25 L64.5,96.5 L64.5,96.5" id="Path-64" stroke="#000000" stroke-width="3"></path>
        </g>
    </g>
</svg>