<?xml version="1.0" encoding="UTF-8"?>
<svg width="130px" height="141px" viewBox="0 0 130 141" version="1.1" xmlns="http://www.w3.org/2000/svg" xmlns:xlink="http://www.w3.org/1999/xlink">
    <title>finger-print</title>
    <g id="strokes" stroke="none" stroke-width="1" fill="none" fill-rule="evenodd">
        <g id="finger-print" transform="translate(1.000000, 6.000000)">
            <g transform="translate(0.000000, -4.000000)">
                <g id="Group" transform="translate(0.000000, 4.000000)" stroke="#979797" stroke-opacity="0.01" stroke-width="0.1">
                    <g id="Rectangle">
                        <rect x="0" y="0" width="128" height="128"></rect>
                    </g>
                </g>
                <path d="M21.9142136,96.8847763 L21.9142136,88.8847763 C21.9142136,69.0025253 38.0319626,52.8847763 57.9142136,52.8847763 L71.9142136,52.8847763 C84.0644781,52.8847763 93.9142136,62.7345118 93.9142136,74.8847763 L93.9142136,84.8847763 C93.9142136,91.5121933 88.5416306,96.8847763 81.9142136,96.8847763 L79.9142136,96.8847763 C74.3913661,96.8847763 69.9142136,92.4076238 69.9142136,86.8847763 C69.9142136,81.3619288 65.4370611,76.8847763 59.9142136,76.8847763 L57.9142136,76.8847763 C51.2867966,76.8847763 45.9142136,82.2573593 45.9142136,88.8847763 L45.9142136,98.8847763 C45.9142136,111.035041 55.7639491,120.884776 67.9142136,120.884776 L77.9142136,120.884776 L77.9142136,120.884776" id="Path-238" stroke="#000000" stroke-width="3" transform="translate(57.914214, 86.884776) rotate(-45.000000) translate(-57.914214, -86.884776) "></path>
                <path d="M59.3284271,88.2989899 C67.138913,96.1094757 79.8022125,96.1094757 87.6126984,88.2989899 C92.8196889,83.0919993 95.9487895,76.3256694 97,68" id="Path-241" stroke="#000000" stroke-width="3"></path>
                <path d="M81.9142136,84.8847763 C81.9142136,73.8390813 72.9599086,64.8847763 61.9142136,64.8847763 L57.9142136,64.8847763 C44.6593796,64.8847763 33.9142136,75.6299423 33.9142136,88.8847763 L33.9142136,108.884776 L33.9142136,108.884776" id="Path-242" stroke="#000000" stroke-width="3" transform="translate(57.914214, 86.884776) rotate(-45.000000) translate(-57.914214, -86.884776) "></path>
                <path d="M80.1568542,70.7010101 L80.1568542,60.8716201 C80.1568542,42.0939386 64.9345357,26.8716201 46.1568542,26.8716201 C46.1001267,26.8716201 46.0433992,26.871762 45.9866724,26.872046 L44.1568542,26.881205 L44.1568542,26.881205" id="Path-243" stroke="#000000" stroke-width="3" transform="translate(62.156854, 48.701010) rotate(-45.000000) translate(-62.156854, -48.701010) "></path>
                <path d="M80.5,58.5588745 C80.5,32.0492065 59.009668,10.5588745 32.5,10.5588745 L32.5,10.5588745 L32.5,10.5588745" id="Path-244" stroke="#000000" stroke-width="3" transform="translate(56.500000, 34.558875) rotate(-45.000000) translate(-56.500000, -34.558875) "></path>
            </g>
        </g>
    </g>
</svg>