<?xml version="1.0" encoding="UTF-8"?>
<svg width="130px" height="130px" viewBox="0 0 130 130" version="1.1" xmlns="http://www.w3.org/2000/svg" xmlns:xlink="http://www.w3.org/1999/xlink">
    <title>flashlight-off</title>
    <g id="strokes" stroke="none" stroke-width="1" fill="none" fill-rule="evenodd">
        <g id="flashlight-off" transform="translate(1.000000, 1.000000)">
            <g id="Group" stroke="#979797" stroke-opacity="0.01" stroke-width="0.1">
                <g id="Rectangle">
                    <rect x="0" y="0" width="128" height="128"></rect>
                </g>
            </g>
            <path d="M96,48.5 L74.6210841,26.6662135 C73.4619078,25.4823739 71.562518,25.4623803 70.3786784,26.6215566 C70.3711575,26.6289208 70.3636754,26.6363246 70.3562324,26.6437676 L66.8431458,30.1568542 C65.3428547,31.6571453 64.5,33.6919766 64.5,35.8137085 L64.5,40.5 L64.5,40.5 L56.7931606,48.2068394 M47.4345558,57.5654442 L18.6213203,86.3786797 C17.4497475,87.5502525 17.4497475,89.4497475 18.6213203,90.6213203 L38.3786797,110.37868 C39.5502525,111.550253 41.4497475,111.550253 42.6213203,110.37868 L71.7256122,81.2743878 L71.7256122,81.2743878 M80.3622122,72.6377878 L88.5,64.5 L92.7581551,64.5 C94.8372739,64.5 96.8347215,63.690573 98.3273218,62.2432031 L110.31291,50.6208145 C111.502366,49.4674023 111.531586,47.5681321 110.378174,46.3786758 C110.367465,46.367632 110.356671,46.3566707 110.345793,46.3457929 L82.1118599,18.1118599 C81.7213335,17.7213363 81.7213335,17.08817 82.1118585,16.697645 C82.2937031,16.5158003 82.5386141,16.411002 82.7957117,16.4050216 C92.9653594,16.1684627 100.533456,18.5334555 105.5,23.5 C108.744413,26.7444132 110.87864,31.0990135 111.902679,36.5638007" id="Shape" stroke="#000000" stroke-width="3"></path>
            <path d="M53,68.5 L52.3770156,69.1229844 C50.3037567,71.1962433 50.3037567,74.55766 52.3770156,76.6309189 C52.4173677,76.671271 52.4583679,76.7109699 52.5,76.75 C54.7296988,78.8403426 58.2158714,78.7841286 60.3770156,76.6229844 L64.8357046,72.1642954 M70.141204,64.0782076 C70.0442851,62.7741211 69.4972171,61.4972171 68.5,60.5 C67.7675216,59.7675216 66.8841456,59.2779091 65.9499374,59.0311626" id="Shape" stroke="#000000" stroke-width="3"></path>
            <line x1="16.5" y1="16.5" x2="112.5" y2="112.5" id="Path-237" stroke="#000000" stroke-width="3"></line>
        </g>
    </g>
</svg>