<?xml version="1.0" encoding="UTF-8"?><svg viewBox="0 0 130 130" version="1.1" xmlns="http://www.w3.org/2000/svg" xmlns:xlink="http://www.w3.org/1999/xlink">
  <title>flashlight</title>
  <g id="strokes" stroke="none" stroke-width="1" fill="none" fill-rule="evenodd">
    <g id="flashlight" transform="translate(1.000000, 1.000000)">
      <g id="Group" stroke="#979797" stroke-opacity="0.01" stroke-width="0.1">
        <g id="Rectangle">
          <rect x="0" y="0" width="128" height="128"></rect>
        </g>
      </g>
      <path d="M88,40.5 L74.6207817,26.689194 C73.4679504,25.4991746 71.5686947,25.4690277 70.3786754,26.621859 C70.3672756,26.6329025 70.3559637,26.6440363 70.3447407,26.6552593 L62.8431458,34.1568542 C61.3428547,35.6571453 60.5,37.6919766 60.5,39.8137085 L60.5,44.5 L60.5,44.5 L18.6213203,86.3786797 C17.4497475,87.5502525 17.4497475,89.4497475 18.6213203,90.6213203 L38.3786797,110.37868 C39.5502525,111.550253 41.4497475,111.550253 42.6213203,110.37868 L84.5,68.5 L84.5,68.5 L88.7439972,68.5 C90.8315274,68.5 92.8363716,67.6840277 94.330588,66.2262556 L110.32598,50.620995 C111.511926,49.4639742 111.535375,47.564624 110.378354,46.3786776 C110.369733,46.3698413 110.361058,46.3610582 110.352329,46.3523289 L80.5,16.5 L80.5,16.5" id="Path-235" stroke="#000000" stroke-width="3"></path>
      <path d="M53,68.5 L52.3770156,69.1229844 C50.3037567,71.1962433 50.3037567,74.55766 52.3770156,76.6309189 C52.4173677,76.671271 52.4583679,76.7109699 52.5,76.75 C54.7296988,78.8403426 58.2158714,78.7841286 60.3770156,76.6229844 L68.5,68.5 C70.709139,66.290861 70.709139,62.709139 68.5,60.5 C66.290861,58.290861 62.709139,58.290861 60.5,60.5 L58.5,62.5 L58.5,62.5" id="Path-236" stroke="#000000" stroke-width="3"></path>
    </g>
  </g>
</svg>
