<?xml version="1.0" encoding="UTF-8"?><svg viewBox="0 0 130 130" version="1.1" xmlns="http://www.w3.org/2000/svg" xmlns:xlink="http://www.w3.org/1999/xlink">
  <title>flowchart</title>
  <g id="strokes" stroke="none" stroke-width="1" fill="none" fill-rule="evenodd">
    <g id="flowchart" transform="translate(1.000000, 1.000000)">
      <g id="Group" stroke="#979797" stroke-opacity="0.01" stroke-width="0.1">
        <g id="Rectangle">
          <rect x="0" y="0" width="128" height="128"></rect>
        </g>
      </g>
      <path d="M54.0032594,96.7548891 L62.8358994,110.003849 C63.4486043,110.922906 64.690343,111.171254 65.6094004,110.558549 C65.829105,110.41208 66.0176309,110.223554 66.1641006,110.003849 L75.1170796,96.5743806 L75.1170796,96.5743806" id="Path-75" stroke="#000000" stroke-width="3"></path>
      <path d="M64.5,99.5 L64.5,80.5 L78.3786797,66.6213203 C79.5502525,65.4497475 79.5502525,63.5502525 78.3786797,62.3786797 L66.6213203,50.6213203 C65.4497475,49.4497475 63.5502525,49.4497475 62.3786797,50.6213203 L50.6213203,62.3786797 C49.4497475,63.5502525 49.4497475,65.4497475 50.6213203,66.6213203 L56.5,72.5 L56.5,72.5" id="Path-122" stroke="#000000" stroke-width="3"></path>
      <path d="M72.5,56.5 L89,40.5 L109.5,40.5 C111.156854,40.5 112.5,39.1568542 112.5,37.5 L112.5,19.5 C112.5,17.8431458 111.156854,16.5 109.5,16.5 L91.5,16.5 C89.8431458,16.5 88.5,17.8431458 88.5,19.5 L88.5,32.5 L88.5,32.5" id="Path-124" stroke="#000000" stroke-width="3"></path>
      <path d="M50.6748143,50.6748143 L40.5,40.5 L40.5,19.5 C40.5,17.8431458 39.1568542,16.5 37.5,16.5 L19.5,16.5 C17.8431458,16.5 16.5,17.8431458 16.5,19.5 L16.5,37.5 C16.5,39.1568542 17.8431458,40.5 19.5,40.5 L32.5,40.5 L32.5,40.5" id="Path-123" stroke="#000000" stroke-width="3"></path>
    </g>
  </g>
</svg>
