<?xml version="1.0" encoding="UTF-8"?>
<svg width="130px" height="130px" viewBox="0 0 130 130" version="1.1" xmlns="http://www.w3.org/2000/svg" xmlns:xlink="http://www.w3.org/1999/xlink">
    <title>flowchart-horiz</title>
    <g id="strokes" stroke="none" stroke-width="1" fill="none" fill-rule="evenodd">
        <g id="flowchart-horiz" transform="translate(1.000000, 1.000000)">
            <g id="Group" stroke="#979797" stroke-opacity="0.01" stroke-width="0.1">
                <g id="Rectangle">
                    <rect x="0" y="0" width="128" height="128"></rect>
                </g>
            </g>
            <path d="M40.5,32.5 L40.5,19.5 C40.5,17.8431458 39.1568542,16.5 37.5,16.5 L19.5,16.5 C17.8431458,16.5 16.5,17.8431458 16.5,19.5 L16.5,37.5 C16.5,39.1568542 17.8431458,40.5 19.5,40.5 L40.5,40.5 L40.5,40.5 L56.5,56.5 L50.6213203,62.3786797 C49.4497475,63.5502525 49.4497475,65.4497475 50.6213203,66.6213203 L62.3786797,78.3786797 C63.5502525,79.5502525 65.4497475,79.5502525 66.6213203,78.3786797 L80.5,64.5 L80.5,64.5 L98.5,64.5" id="Path-125" stroke="#000000" stroke-width="3"></path>
            <path d="M60.5,52.5 L62.3786797,50.6213203 C63.5502525,49.4497475 65.4497475,49.4497475 66.6213203,50.6213203 L76.5,60.5 L76.5,60.5" id="Path-126" stroke="#000000" stroke-width="3"></path>
            <path d="M96.7362098,75.0091935 L110.003849,66.1641006 C110.922906,65.5513957 111.171254,64.309657 110.558549,63.3905996 C110.41208,63.170895 110.223554,62.9823691 110.003849,62.8358994 L96.5480658,53.8653772 L96.5480658,53.8653772" id="Path-127" stroke="#000000" stroke-width="3"></path>
            <path d="M52.5,76.5 L40.5,88.5 L19.5,88.5 C17.8431458,88.5 16.5,89.8431458 16.5,91.5 L16.5,109.5 C16.5,111.156854 17.8431458,112.5 19.5,112.5 L32.5,112.5 L32.5,112.5" id="Path-128" stroke="#000000" stroke-width="3"></path>
            <path d="M40.5,112.5 L40.5,91.5 C40.5,89.8431458 39.1568542,88.5 37.5,88.5 L25,88.5 L25,88.5" id="Path-129" stroke="#000000" stroke-width="3"></path>
        </g>
    </g>
</svg>