<?xml version="1.0" encoding="UTF-8"?><svg viewBox="0 0 130 130" version="1.1" xmlns="http://www.w3.org/2000/svg" xmlns:xlink="http://www.w3.org/1999/xlink">
  <title>folder</title>
  <g id="strokes" stroke="none" stroke-width="1" fill="none" fill-rule="evenodd">
    <g id="folder" transform="translate(1.000000, 1.000000)">
      <g id="Group" stroke="#979797" stroke-opacity="0.01" stroke-width="0.1">
        <g id="Rectangle">
          <rect x="0" y="0" width="128" height="128"></rect>
        </g>
      </g>
      <path d="M28.5,104.5 L94.135899,104.5 C97.8611469,104.5 101.093371,101.928725 101.931029,98.2988761 L112.21734,53.7248595 C112.341527,53.1867181 112.00595,52.6497953 111.467808,52.5256088 C111.394066,52.5085913 111.31863,52.5 111.242949,52.5 L34.864101,52.5 C31.1388531,52.5 27.9066288,55.0712752 27.0689714,58.7011239 L18.4743912,95.9443048 C18.3502047,96.4824462 17.8132819,96.818023 17.2751405,96.6938365 C16.8214094,96.5891293 16.5,96.1851013 16.5,95.7194453 L16.5,32.5 C16.5,28.081722 20.081722,24.5 24.5,24.5 L45.1862915,24.5 C47.3080234,24.5 49.3428547,25.3428547 50.8431458,26.8431458 L54.1568542,30.1568542 C55.6571453,31.6571453 57.6919766,32.5 59.8137085,32.5 L92.5,32.5 C96.918278,32.5 100.5,36.081722 100.5,40.5 L100.5,44.5 L100.5,44.5" id="Path-293" stroke="#000000" stroke-width="3"></path>
    </g>
  </g>
</svg>
