<?xml version="1.0" encoding="UTF-8"?><svg viewBox="0 0 130 130" version="1.1" xmlns="http://www.w3.org/2000/svg" xmlns:xlink="http://www.w3.org/1999/xlink">
  <title>forward-step</title>
  <g id="strokes" stroke="none" stroke-width="1" fill="none" fill-rule="evenodd">
    <g id="forward-step" transform="translate(1.000000, 1.000000)">
      <g id="Group" stroke="#979797" stroke-opacity="0.01" stroke-width="0.1">
        <g id="Rectangle">
          <rect x="0" y="0" width="128" height="128"></rect>
        </g>
      </g>
      <path d="M32.5,24.5 C28.081722,24.5 24.5,28.081722 24.5,32.5 L24.5,96.5 C24.5,100.918278 28.081722,104.5 32.5,104.5 L96.5,104.5 C100.918278,104.5 104.5,100.918278 104.5,96.5 L104.5,32.5 C104.5,28.081722 100.918278,24.5 96.5,24.5 L64.5,24.5 L64.5,24.5 L64.5,34.7338096 C64.5,35.2860944 64.0522847,35.7338096 63.5,35.7338096 C63.3187561,35.7338096 63.1409196,35.6845518 62.9855042,35.5913025 L47.3002951,26.180177 C46.3531345,25.6118807 46.0460044,24.3833602 46.6143007,23.4361997 C46.7768736,23.1652448 47.001334,22.9366662 47.2692887,22.7691946 L64.5,12 L64.5,12" id="Path-175" stroke="#000000" stroke-width="3" transform="translate(64.500000, 58.250000) scale(-1, 1) translate(-64.500000, -58.250000)"></path>
    </g>
  </g>
</svg>
