<?xml version="1.0" encoding="UTF-8"?>
<svg width="130px" height="130px" viewBox="0 0 130 130" version="1.1" xmlns="http://www.w3.org/2000/svg" xmlns:xlink="http://www.w3.org/1999/xlink">
    <title>gear</title>
    <g id="strokes" stroke="none" stroke-width="1" fill="none" fill-rule="evenodd">
        <g id="gear" transform="translate(1.000000, 1.000000)">
            <g id="Group" stroke="#979797" stroke-opacity="0.01" stroke-width="0.1">
                <g id="Rectangle">
                    <rect x="0" y="0" width="128" height="128"></rect>
                </g>
            </g>
            <path d="M50.7433062,120.795919 L49.9112319,120.592149 L49.1341618,120.394144 L48.4120959,120.201904 L47.7450342,120.01543 L47.1329766,119.83472 C47.0355507,119.805083 46.9404167,119.775685 46.8475745,119.746528 L46.3053131,119.570338 L45.7282037,119.37073 L45.1032422,119.143481 L44.4304285,118.88859 L43.7097628,118.606058 L42.5390414,118.130432 C40.6097227,117.33209 39.6190212,115.18409 40.2642363,113.198311 L42.2618761,107.048875 C38.0774112,104.857375 34.2561878,102.066697 30.9121418,98.790776 L25.6736311,102.597365 C23.9844763,103.824637 21.6355154,103.546254 20.2800158,101.958154 L19.7266265,101.30422 L19.2143479,100.68728 L18.74318,100.107335 L18.3131227,99.5643853 L17.924176,99.05843 L17.57634,98.5894694 L17.4099823,98.3580516 L17.0604174,97.8573493 L16.6883866,97.3061576 L16.2938899,96.7044768 L15.8769274,96.0523067 L15.4374989,95.3496474 C15.3623887,95.22833 15.2863424,95.104909 15.20936,94.9793842 C14.1177623,93.1994865 14.5788305,90.8793986 16.2680322,89.6521173 L21.498562,85.8516829 C20.5734424,83.9921167 19.7653946,82.0640546 19.0840649,80.0771428 C18.2464348,77.6344234 17.6003311,75.1027566 17.1636788,72.500067 L10.6948298,72.4996552 C8.60686513,72.4996576 6.87013956,70.893686 6.70704565,68.8121009 L6.67397586,68.3784334 L6.61646318,67.5516398 L6.57045303,66.7789013 L6.53594543,66.0602178 L6.51294035,65.3955894 L6.50143782,64.785016 L6.50143782,64.2148975 L6.51294808,63.6041339 L6.5359669,62.9392923 L6.57049512,62.2203726 L6.61653275,61.4473748 C6.6251648,61.3140354 6.63427642,61.1784426 6.64386759,61.0405967 L6.70716933,60.1864818 C6.87030347,58.104947 8.6069895,56.4990268 10.6949071,56.4990087 L17.16401,56.4979589 C17.586074,53.9828687 18.2037286,51.5341069 19.000798,49.1678493 C19.6993521,47.0940538 20.5357116,45.0836282 21.4989878,43.1474613 L16.2679493,39.3457524 C14.578749,38.1184795 14.1176749,35.7983995 15.2092542,34.0184975 L15.659936,33.2905561 L16.2938332,32.2933174 L16.6883475,31.6916072 L17.0603948,31.1403895 C17.180666,30.9650656 17.2971928,30.7981572 17.409975,30.6396642 L17.745083,30.1784291 L18.1133921,29.6910761 C18.1782018,29.6067685 18.2447238,29.5209198 18.3129583,29.4335302 L18.7429138,28.8906996 L19.2139669,28.310884 L19.9976046,27.3718138 C20.0898126,27.2628495 20.1837331,27.1523442 20.2793659,27.0402979 C21.6348397,25.4521887 23.9837844,25.1737704 25.6729558,26.4010029 L30.9128507,30.2085295 C34.2569208,26.93272 38.0781479,24.1421484 42.2626005,21.950746 L40.2640728,15.799479 C39.618854,13.8137073 40.609546,11.6657107 42.5388523,10.8673539 L43.3313348,10.5433411 L44.0759624,10.2469718 L44.772735,9.97824595 L45.4216527,9.7371636 C45.6299828,9.66141007 45.830337,9.59026378 46.0227155,9.52372474 L46.5759233,9.33792938 L47.1328566,9.16302162 C47.2302612,9.13338992 47.3299569,9.10351801 47.4319438,9.07340589 L48.071359,8.88985072 L48.765762,8.70053061 L49.515153,8.50544555 L50.3195318,8.30459556 C50.4581773,8.27064015 50.5991139,8.23644453 50.7423417,8.20200871 C52.7724102,7.71392887 54.8363966,8.86935879 55.4816158,10.8550808 L57.4805903,17.0095887 C59.7717967,16.673858 62.115595,16.5 64.5,16.5 C66.8838351,16.5 69.2270829,16.6737749 71.5177667,17.0093479 L73.5174967,10.8547112 C74.162711,8.86893806 76.2267585,7.7134864 78.2568624,8.20162006 L79.4836236,8.50497489 L80.2327595,8.70000598 L80.9269316,8.8892727 C81.1491616,8.95140088 81.362231,9.01256833 81.5661397,9.07277505 L82.150384,9.25051304 L82.6925987,9.42669018 L83.2699128,9.6263726 L83.8951015,9.85371216 L84.568165,10.1087089 L85.2891031,10.3913627 L86.0579159,10.7016736 C86.190041,10.7556969 86.3241608,10.8108725 86.4602754,10.8672005 C88.3895214,11.66558 89.3801768,13.8135232 88.734992,15.7992564 L86.7363401,21.9501913 C90.9207129,24.1414186 94.7418942,26.9317843 98.0859642,30.2073687 L103.326543,26.4001822 C105.015741,25.1729054 107.364748,25.4513421 108.720219,27.0395156 L109.273264,27.6930858 L109.78523,28.3096855 L110.256118,28.8893148 L110.685928,29.4319737 L111.074659,29.9376621 L111.422311,30.4063801 L111.588727,30.6378785 L111.938413,31.1387617 L112.310575,31.69016 C112.374474,31.7862693 112.439311,31.8844834 112.505083,31.9848023 L112.910957,32.6119733 L113.339306,33.2896595 L113.79013,34.0178607 C114.881647,35.7977456 114.420575,38.1177608 112.731425,39.3450226 L107.500183,43.1457939 C108.47466,45.1042838 109.319275,47.1387611 110.022756,49.2379553 C110.808468,51.5825231 111.418124,54.0078216 111.836022,56.4981482 L118.304936,56.4980759 C120.392863,56.4980528 122.129583,58.1039538 122.292744,60.1854959 L122.356072,61.039814 L122.407886,61.8400385 L122.448186,62.5861693 C122.453943,62.7060166 122.45922,62.82361 122.464018,62.9389496 L122.487046,63.60394 L122.498561,64.2148367 C122.5,64.3121451 122.5,64.4071995 122.5,64.5 L122.494249,65.08352 C122.492332,65.1852776 122.489936,65.2892874 122.487061,65.3955494 L122.464058,66.060147 L122.429553,66.7787963 L122.383547,67.5514975 L122.326039,68.3782503 C122.315496,68.5205468 122.304474,68.6650954 122.292972,68.8118962 C122.129896,70.8934888 120.39317,72.4994702 118.3052,72.4994738 L111.83632,72.5000743 C111.4094,75.0447504 110.782262,77.5215346 109.971659,79.9136743 C109.278806,81.9583261 108.451917,83.9411386 107.501454,85.8516507 L112.731846,89.6518362 C114.421028,90.8790702 114.882139,93.1990897 113.790639,94.9789962 L113.339718,95.7073775 L112.911276,96.3852283 L112.505314,97.0125484 L112.121833,97.589338 L111.760832,98.1155971 L111.422311,98.5913255 L111.074674,99.0600229 C111.013312,99.1412198 110.950238,99.2239571 110.885453,99.3082347 L110.476202,99.8323846 C110.404571,99.9228236 110.331228,100.014803 110.256173,100.108323 L109.785309,100.687925 L109.273369,101.304496 L108.720353,101.958035 C107.364892,103.546225 105.01588,103.824669 103.326674,102.597394 L98.0868376,98.7917758 C94.7430206,102.067278 90.9221309,104.857621 86.738071,107.048902 L88.7358306,113.198012 C89.3810575,115.183741 88.3904309,117.331711 86.4611861,118.130118 L85.6682509,118.454345 L84.9232037,118.750906 L84.2260444,119.019801 L83.5767732,119.261029 C83.4725519,119.298928 83.3703261,119.335674 83.2700955,119.371268 L82.6926563,119.570996 C82.6004071,119.601979 82.5101532,119.631808 82.4218947,119.660485 C82.2454755,119.717807 82.0598964,119.77609 81.8651571,119.835334 L81.2534591,120.015946 L80.5868007,120.202323 L79.8651817,120.394464 L79.0886024,120.59237 L78.2570626,120.796039 C76.226957,121.284192 74.1629002,120.128743 73.5176784,118.142966 L71.5192014,111.990442 C69.2280613,112.326153 66.8843328,112.5 64.5,112.5" id="Path" stroke="#000000" stroke-width="3"></path>
            <path d="M88.5,64.5 C88.5,51.245166 77.754834,40.5 64.5,40.5 C51.245166,40.5 40.5,51.245166 40.5,64.5 C40.5,77.754834 51.245166,88.5 64.5,88.5 C71.1583212,88.5 77.1833604,85.7885973 81.5312119,81.4096974" id="Path" stroke="#000000" stroke-width="3"></path>
        </g>
    </g>
</svg>