<?xml version="1.0" encoding="UTF-8"?><svg viewBox="0 0 130 130" version="1.1" xmlns="http://www.w3.org/2000/svg" xmlns:xlink="http://www.w3.org/1999/xlink">
  <title>grid</title>
  <g id="strokes" stroke="none" stroke-width="1" fill="none" fill-rule="evenodd">
    <g id="grid" transform="translate(1.000000, 1.000000)">
      <g id="Group" stroke="#979797" stroke-opacity="0.01" stroke-width="0.1">
        <g id="Rectangle">
          <rect x="0" y="0" width="128" height="128"></rect>
        </g>
      </g>
      <path d="M56.5,16.5 L24.5,16.5 C20.081722,16.5 16.5,20.081722 16.5,24.5 L16.5,64.5 L16.5,64.5 L64.5,64.5 L64.5,16.5 L104.5,16.5 C108.918278,16.5 112.5,20.081722 112.5,24.5 L112.5,104.5 C112.5,108.918278 108.918278,112.5 104.5,112.5 L64.5,112.5 L64.5,112.5 L64.5,72.5" id="Path-92" stroke="#000000" stroke-width="3"></path>
      <path d="M16.5,72.5 L16.5,104.5 C16.5,108.918278 20.081722,112.5 24.5,112.5 L57,112.5 L57,112.5" id="Path-101" stroke="#000000" stroke-width="3"></path>
      <line x1="72.5" y1="64.5" x2="104.5" y2="64.5" id="Path-100" stroke="#000000" stroke-width="3"></line>
    </g>
  </g>
</svg>
