<?xml version="1.0" encoding="UTF-8"?>
<svg width="130px" height="130px" viewBox="0 0 130 130" version="1.1" xmlns="http://www.w3.org/2000/svg" xmlns:xlink="http://www.w3.org/1999/xlink">
    <title>hand</title>
    <g id="strokes" stroke="none" stroke-width="1" fill="none" fill-rule="evenodd">
        <g id="hand" transform="translate(1.000000, 1.000000)">
            <g id="Group" stroke="#979797" stroke-opacity="0.01" stroke-width="0.1">
                <g id="Rectangle">
                    <rect x="0" y="0" width="128" height="128"></rect>
                </g>
            </g>
            <path d="M88.5,104.5 L109.331744,73.6863793 C111.171185,70.965539 110.822339,67.322339 108.5,65 C106.688939,63.1889392 103.75263,63.1889392 101.941569,65 C101.725626,65.2159429 101.531541,65.452688 101.362142,65.7067872 L93.9961509,76.7557737 C93.0770935,78.1343597 91.2144855,78.5068813 89.8358994,77.587824 C89.0013034,77.0314266 88.5,76.0947327 88.5,75.0916731 L88.5,26.5 C88.5,23.1862915 85.8137085,20.5 82.5,20.5 C79.1862915,20.5 76.5,23.1862915 76.5,26.5 L76.5,58.5 C76.5,59.6045695 75.6045695,60.5 74.5,60.5 C73.3954305,60.5 72.5,59.6045695 72.5,58.5 L72.5,18.5 C72.5,15.1862915 69.8137085,12.5 66.5,12.5 C63.1862915,12.5 60.5,15.1862915 60.5,18.5 L60.5,58.5 C60.5,59.6045695 59.6045695,60.5 58.5,60.5 C57.3954305,60.5 56.5,59.6045695 56.5,58.5 L56.5,26.5 C56.5,23.1862915 53.8137085,20.5 50.5,20.5 C47.1862915,20.5 44.5,23.1862915 44.5,26.5 L44.5,58.5 C44.5,59.6045695 43.6045695,60.5 42.5,60.5 C41.3954305,60.5 40.5,59.6045695 40.5,58.5 L40.5,38.5 C40.5,35.1862915 37.8137085,32.5 34.5,32.5 C31.1862915,32.5 28.5,35.1862915 28.5,38.5 L28.5,80.5 C28.5,98.173112 42.826888,112.5 60.5,112.5 L64.5,112.5 L64.5,112.5" id="Path-323" stroke="#000000" stroke-width="3"></path>
        </g>
    </g>
</svg>