<?xml version="1.0" encoding="UTF-8"?><svg viewBox="0 0 130 130" version="1.1" xmlns="http://www.w3.org/2000/svg" xmlns:xlink="http://www.w3.org/1999/xlink">
  <title>hand-point</title>
  <g id="strokes" stroke="none" stroke-width="1" fill="none" fill-rule="evenodd">
    <g id="hand-point" transform="translate(1.000000, 1.000000)">
      <g id="Group" stroke="#979797" stroke-opacity="0.01" stroke-width="0.1">
        <g id="Rectangle">
          <rect x="0" y="0" width="128" height="128"></rect>
        </g>
      </g>
      <path d="M72.5,104.5 L93.3317436,73.6863793 C95.1711849,70.965539 94.822339,67.322339 92.5,65 C90.6889392,63.1889392 87.7526296,63.1889392 85.9415688,65 C85.7256259,65.2159429 85.5315414,65.452688 85.3621418,65.7067872 L77.9961509,76.7557737 C77.0770935,78.1343597 75.2144855,78.5068813 73.8358994,77.587824 C73.0013034,77.0314266 72.5,76.0947327 72.5,75.0916731 L72.5,22.5 C72.5,19.1862915 69.8137085,16.5 66.5,16.5 C63.1862915,16.5 60.5,19.1862915 60.5,22.5 L60.5,64.5 L60.5,64.5 L60.5,48.5 L54.5,48.5 C51.1862915,48.5 48.5,51.1862915 48.5,54.5 L48.5,64.5 L48.5,64.5 L48.5,52.5 L42.5,52.5 C39.1862915,52.5 36.5,55.1862915 36.5,58.5 L36.5,64.5 L36.5,64.5 L36.5,56.5 L30.5,56.5 C27.1862915,56.5 24.5,59.1862915 24.5,62.5 L24.5,88.5 C24.5,101.754834 35.245166,112.5 48.5,112.5 L48.5,112.5 L48.5,112.5" id="Path-323" stroke="#000000" stroke-width="3" transform="translate(60.500000, 64.500000) scale(-1, 1) translate(-60.500000, -64.500000)"></path>
    </g>
  </g>
</svg>
