<?xml version="1.0" encoding="UTF-8"?>
<svg width="130px" height="130px" viewBox="0 0 130 130" version="1.1" xmlns="http://www.w3.org/2000/svg" xmlns:xlink="http://www.w3.org/1999/xlink">
    <title>headphone</title>
    <g id="strokes" stroke="none" stroke-width="1" fill="none" fill-rule="evenodd">
        <g id="headphone" transform="translate(1.000000, 1.000000)">
            <g id="Group" stroke="#979797" stroke-opacity="0.01" stroke-width="0.1">
                <g id="Rectangle">
                    <rect x="0" y="0" width="128" height="128"></rect>
                </g>
            </g>
            <path d="M112.162567,67.7580414 C112.387522,66.4572955 112.5,65.3712816 112.5,64.5 C112.5,37.990332 91.009668,16.5 64.5,16.5 C37.990332,16.5 16.5,37.990332 16.5,64.5 C16.5,69.5 19.1666667,78.8333333 24.5,92.5" id="Path" stroke="#000000" stroke-width="3"></path>
            <path d="M24.5,69.25 C28.8758869,67.4722959 33.864358,69.5785393 35.642062,73.9544262 C35.6524059,73.979888 35.662627,74.0053995 35.6727249,74.0309599 L45.3606942,98.5536323 C47.0644549,102.866276 44.949537,107.743536 40.6368929,109.447297 C40.5914163,109.465263 40.5457836,109.482831 40.5,109.5 C36.0538723,111.167298 31.0903729,108.975932 29.3268367,104.567092 L22,86" id="Path" stroke="#000000" stroke-width="3"></path>
            <path d="M104.5,109.5 C100.053872,111.167298 95.0903729,108.975932 93.3268367,104.567092 L83.7069429,80.5173572 C81.9330151,76.0825378 84.0747817,71.0477449 88.5,69.25 C92.8758869,67.4722959 97.864358,69.5785393 99.642062,73.9544262 C99.6524059,73.979888 99.662627,74.0053995 99.6727249,74.0309599 L109.360694,98.5536323 C111.064455,102.866276 108.949537,107.743536 104.636893,109.447297 C104.591416,109.465263 104.545784,109.482831 104.5,109.5 Z" id="Path-2" stroke="#000000" stroke-width="3" transform="translate(96.500000, 89.250000) scale(-1, 1) translate(-96.500000, -89.250000) "></path>
            <line x1="20.5" y1="104.5" x2="12.5" y2="85" id="Path-73" stroke="#000000" stroke-width="3"></line>
            <line x1="108.5" y1="104.5" x2="116.5" y2="84" id="Path-88" stroke="#000000" stroke-width="3"></line>
        </g>
    </g>
</svg>