<?xml version="1.0" encoding="UTF-8"?><svg viewBox="0 0 130 130" version="1.1" xmlns="http://www.w3.org/2000/svg" xmlns:xlink="http://www.w3.org/1999/xlink">
  <title>heart</title>
  <g id="strokes" stroke="none" stroke-width="1" fill="none" fill-rule="evenodd">
    <g id="heart" transform="translate(1.000000, 1.000000)">
      <g id="Group" stroke="#979797" stroke-opacity="0.01" stroke-width="0.1">
        <g id="Rectangle">
          <rect x="0" y="0" width="128" height="128"></rect>
        </g>
      </g>
      <path d="M71.5880577,27.5328376 C81.0847429,19.0913396 95.5154043,19.5154043 104.5,28.5 C113.336556,37.336556 111,50 104.5,60.5 C100.313693,67.2624965 87.7277479,82.4246303 66.7421659,105.986402 L66.7421587,105.986395 C65.640183,107.223649 63.7438625,107.333314 62.5066083,106.231338 C62.4198896,106.154101 62.3377288,106.071894 62.2605406,105.985132 C36.346432,76.8567661 22.0929184,59.8617221 19.5,55 C15.5,47.5 15.663444,37.336556 24.5,28.5 C33.4845957,19.5154043 47.9152571,19.0913396 57.4119423,27.5328376 L70.1580216,38.8626859 C73.4606202,41.798329 73.7580963,46.8554231 70.8224531,50.1580216 C70.7183411,50.2751477 70.6108103,50.3891897 70.5,50.5 C67.1862915,53.8137085 61.8137085,53.8137085 58.5,50.5 C55.3754874,47.3754874 55.3754874,42.3096516 58.5,39.185139 C58.6108103,39.0743287 58.7248523,38.966798 58.8419784,38.8626859" id="Path" stroke="#000000" stroke-width="3"></path>
    </g>
  </g>
</svg>
