<?xml version="1.0" encoding="UTF-8"?><svg viewBox="0 0 130 130" version="1.1" xmlns="http://www.w3.org/2000/svg" xmlns:xlink="http://www.w3.org/1999/xlink">
  <title>home</title>
  <g id="strokes" stroke="none" stroke-width="1" fill="none" fill-rule="evenodd">
    <g id="home" transform="translate(1.000000, 1.000000)">
      <g id="Group" stroke="#979797" stroke-opacity="0.01" stroke-width="0.1">
        <g id="Rectangle">
          <rect x="0" y="0" width="128" height="128"></rect>
        </g>
      </g>
      <path d="M64.5,112.5 L88.5,112.5 C92.918278,112.5 96.5,108.918278 96.5,104.5 L96.5,64.5 L96.5,64.5 L107.671573,64.5 C108.776142,64.5 109.671573,63.6045695 109.671573,62.5 C109.671573,61.969567 109.460859,61.4608592 109.085786,61.0857864 L66.6103575,18.6103575 C65.4430747,17.4430747 63.5520517,17.4381757 62.3787365,18.5993948 L19.4571629,61.078478 C18.6720779,61.8554693 18.6655167,63.1217822 19.442508,63.9068671 C19.818159,64.2864311 20.3300052,64.5 20.86403,64.5 L32.5,64.5 L32.5,64.5 L32.5,104.5 C32.5,108.918278 36.081722,112.5 40.5,112.5 L49.5,112.5 C51.1568542,112.5 52.5,111.156854 52.5,109.5 L52.5,83.5 C52.5,81.8431458 53.8431458,80.5 55.5,80.5 L73.5,80.5 C75.1568542,80.5 76.5,81.8431458 76.5,83.5 L76.5,100.5 L76.5,100.5" id="Path-230" stroke="#000000" stroke-width="3"></path>
    </g>
  </g>
</svg>
