<?xml version="1.0" encoding="UTF-8"?><svg viewBox="0 0 130 130" version="1.1" xmlns="http://www.w3.org/2000/svg" xmlns:xlink="http://www.w3.org/1999/xlink">
  <title>indent-decrease</title>
  <g id="strokes" stroke="none" stroke-width="1" fill="none" fill-rule="evenodd">
    <g id="indent-decrease" transform="translate(1.000000, 1.000000)">
      <g id="Group" stroke="#979797" stroke-opacity="0.01" stroke-width="0.1">
        <g id="Rectangle">
          <rect x="0" y="0" width="128" height="128"></rect>
        </g>
      </g>
      <path d="M16.5,24.5 L104.5,24.5 C108.918278,24.5 112.5,28.081722 112.5,32.5 C112.5,36.918278 108.918278,40.5 104.5,40.5 L24.5,40.5 C20.081722,40.5 16.5,44.081722 16.5,48.5 C16.5,52.918278 20.081722,56.5 24.5,56.5 L72.5,56.5 C76.918278,56.5 80.5,60.081722 80.5,64.5 C80.5,68.918278 76.918278,72.5 72.5,72.5 L24.5,72.5 C20.081722,72.5 16.5,76.081722 16.5,80.5 C16.5,84.918278 20.081722,88.5 24.5,88.5 L72.5,88.5 C76.918278,88.5 80.5,92.081722 80.5,96.5 L80.5,104.5 L80.5,104.5" id="Path-215" stroke="#000000" stroke-width="3"></path>
      <path d="M92.5,60.5 L92.5,74.7338096 C92.5,75.2860944 92.9477153,75.7338096 93.5,75.7338096 C93.6812439,75.7338096 93.8590804,75.6845518 94.0144958,75.5913025 L109.64169,66.2149859 C110.588851,65.6466895 110.895981,64.418169 110.327685,63.4710085 C110.158785,63.1895093 109.923189,62.9539137 109.64169,62.7850141 L92.5,52.5 L92.5,52.5" id="Path-216" stroke="#000000" stroke-width="3" transform="translate(102.500000, 64.500000) scale(-1, 1) translate(-102.500000, -64.500000)"></path>
    </g>
  </g>
</svg>
