<?xml version="1.0" encoding="UTF-8"?>
<svg width="130px" height="130px" viewBox="0 0 130 130" version="1.1" xmlns="http://www.w3.org/2000/svg" xmlns:xlink="http://www.w3.org/1999/xlink">
    <title>indent-increase</title>
    <g id="strokes" stroke="none" stroke-width="1" fill="none" fill-rule="evenodd">
        <g id="indent-increase" transform="translate(1.000000, 1.000000)">
            <g id="Group" stroke="#979797" stroke-opacity="0.01" stroke-width="0.1">
                <g id="Rectangle">
                    <rect x="0" y="0" width="128" height="128"></rect>
                </g>
            </g>
            <path d="M16.5,24.5 L104.5,24.5 C108.918278,24.5 112.5,28.081722 112.5,32.5 C112.5,36.918278 108.918278,40.5 104.5,40.5 L56.5,40.5 C52.081722,40.5 48.5,44.081722 48.5,48.5 C48.5,52.918278 52.081722,56.5 56.5,56.5 L104.5,56.5 C108.918278,56.5 112.5,60.081722 112.5,64.5 C112.5,68.918278 108.918278,72.5 104.5,72.5 L56.5,72.5 C52.081722,72.5 48.5,76.081722 48.5,80.5 C48.5,84.918278 52.081722,88.5 56.5,88.5 L104.5,88.5 C108.918278,88.5 112.5,92.081722 112.5,96.5 L112.5,104.5 L112.5,104.5" id="Path-215" stroke="#000000" stroke-width="3"></path>
            <path d="M16.5,60.5 L16.5,74.7338096 C16.5,75.2860944 16.9477153,75.7338096 17.5,75.7338096 C17.6812439,75.7338096 17.8590804,75.6845518 18.0144958,75.5913025 L33.6416902,66.2149859 C34.5888508,65.6466895 34.8959809,64.418169 34.3276846,63.4710085 C34.1587851,63.1895093 33.9231895,62.9539137 33.6416902,62.7850141 L16.5,52.5 L16.5,52.5" id="Path-216" stroke="#000000" stroke-width="3"></path>
        </g>
    </g>
</svg>