<?xml version="1.0" encoding="UTF-8"?><svg viewBox="0 0 130 130" version="1.1" xmlns="http://www.w3.org/2000/svg" xmlns:xlink="http://www.w3.org/1999/xlink">
  <title>keyboard</title>
  <g id="strokes" stroke="none" stroke-width="1" fill="none" fill-rule="evenodd">
    <g id="keyboard" transform="translate(1.000000, 1.000000)">
      <g id="Group" stroke="#979797" stroke-opacity="0.01" stroke-width="0.1">
        <g id="Rectangle">
          <rect x="0" y="0" width="128" height="128"></rect>
        </g>
      </g>
      <path d="M100.5,84.5 L100.5,82.5 C100.5,81.3954305 99.6045695,80.5 98.5,80.5 L94.5,80.5 C93.3954305,80.5 92.5,81.3954305 92.5,82.5 C92.5,83.6045695 91.6045695,84.5 90.5,84.5 L86.5,84.5 C85.3954305,84.5 84.5,83.6045695 84.5,82.5 C84.5,81.3954305 83.6045695,80.5 82.5,80.5 L51,80.5 C48.790861,80.5 47,82.290861 47,84.5 L47,92.5 C47,94.709139 48.790861,96.5 51,96.5 L104.5,96.5 C108.918278,96.5 112.5,92.918278 112.5,88.5 L112.5,40.5 C112.5,36.081722 108.918278,32.5 104.5,32.5 L24.5,32.5 C20.081722,32.5 16.5,36.081722 16.5,40.5 L16.5,88.5 C16.5,92.918278 20.081722,96.5 24.5,96.5 L32.5,96.5 L32.5,96.5" id="Path-72" stroke="#000000" stroke-width="3"></path>
      <path d="M28.5,66.5 L28.5,64.5 C28.5,63.3954305 29.3954305,62.5 30.5,62.5 L34.5,62.5 C35.6045695,62.5 36.5,63.3954305 36.5,64.5 C36.5,65.6045695 37.3954305,66.5 38.5,66.5 L42.5,66.5 C43.6045695,66.5 44.5,65.6045695 44.5,64.5 C44.5,63.3954305 45.3954305,62.5 46.5,62.5 L50.5,62.5 C51.6045695,62.5 52.5,63.3954305 52.5,64.5 C52.5,65.6045695 53.3954305,66.5 54.5,66.5 L58.5,66.5 C59.6045695,66.5 60.5,65.6045695 60.5,64.5 C60.5,63.3954305 61.3954305,62.5 62.5,62.5 L66.5,62.5 C67.6045695,62.5 68.5,63.3954305 68.5,64.5 C68.5,65.6045695 69.3954305,66.5 70.5,66.5 L74.5,66.5 C75.6045695,66.5 76.5,65.6045695 76.5,64.5 C76.5,63.3954305 77.3954305,62.5 78.5,62.5 L82.5,62.5 C83.6045695,62.5 84.5,63.3954305 84.5,64.5 C84.5,65.6045695 85.3954305,66.5 86.5,66.5 L90.5,66.5 C91.6045695,66.5 92.5,65.6045695 92.5,64.5 C92.5,63.3954305 93.3954305,62.5 94.5,62.5 L98.5,62.5 C99.6045695,62.5 100.5,63.3954305 100.5,64.5 L100.5,66.5 L100.5,66.5" id="Path-71-Copy-9" stroke="#000000" stroke-width="3"></path>
      <path d="M28.5,48.5 L28.5,46.5 C28.5,45.3954305 29.3954305,44.5 30.5,44.5 L34.5,44.5 C35.6045695,44.5 36.5,45.3954305 36.5,46.5 C36.5,47.6045695 37.3954305,48.5 38.5,48.5 L42.5,48.5 C43.6045695,48.5 44.5,47.6045695 44.5,46.5 C44.5,45.3954305 45.3954305,44.5 46.5,44.5 L50.5,44.5 C51.6045695,44.5 52.5,45.3954305 52.5,46.5 C52.5,47.6045695 53.3954305,48.5 54.5,48.5 L58.5,48.5 C59.6045695,48.5 60.5,47.6045695 60.5,46.5 C60.5,45.3954305 61.3954305,44.5 62.5,44.5 L66.5,44.5 C67.6045695,44.5 68.5,45.3954305 68.5,46.5 C68.5,47.6045695 69.3954305,48.5 70.5,48.5 L74.5,48.5 C75.6045695,48.5 76.5,47.6045695 76.5,46.5 C76.5,45.3954305 77.3954305,44.5 78.5,44.5 L82.5,44.5 C83.6045695,44.5 84.5,45.3954305 84.5,46.5 C84.5,47.6045695 85.3954305,48.5 86.5,48.5 L90.5,48.5 C91.6045695,48.5 92.5,47.6045695 92.5,46.5 C92.5,45.3954305 93.3954305,44.5 94.5,44.5 L98.5,44.5 C99.6045695,44.5 100.5,45.3954305 100.5,46.5 L100.5,48.5 L100.5,48.5" id="Path-71-Copy-10" stroke="#000000" stroke-width="3"></path>
      <path d="M28.5,84.5 L28.5,82.5 C28.5,81.3954305 29.3954305,80.5 30.5,80.5 L34.5,80.5 C35.6045695,80.5 36.5,81.3954305 36.5,82.5 L36.5,84.5 L36.5,84.5" id="Path-71-Copy-6" stroke="#000000" stroke-width="3"></path>
    </g>
  </g>
</svg>
