<?xml version="1.0" encoding="UTF-8"?>
<svg width="130px" height="130px" viewBox="0 0 130 130" version="1.1" xmlns="http://www.w3.org/2000/svg" xmlns:xlink="http://www.w3.org/1999/xlink">
    <title>keyboard-chevron-down</title>
    <g id="strokes" stroke="none" stroke-width="1" fill="none" fill-rule="evenodd">
        <g id="keyboard-chevron-down" transform="translate(1.000000, 1.000000)">
            <g id="Group" stroke="#979797" stroke-opacity="0.01" stroke-width="0.1">
                <g id="Rectangle">
                    <rect x="0" y="0" width="128" height="128"></rect>
                </g>
            </g>
            <polyline id="Path" stroke="#000000" stroke-width="3" points="48.5 96.5 64.5 112.5 80.5 96.5"></polyline>
            <path d="M84.5,68.5 L84.5,66.5 C84.5,65.3954305 83.6045695,64.5 82.5,64.5 L51,64.5 C48.790861,64.5 47,66.290861 47,68.5 L47,76.5 C47,78.709139 48.790861,80.5 51,80.5 L104.5,80.5 C108.918278,80.5 112.5,76.918278 112.5,72.5 L112.5,24.5 C112.5,20.081722 108.918278,16.5 104.5,16.5 L24.5,16.5 C20.081722,16.5 16.5,20.081722 16.5,24.5 L16.5,72.5 C16.5,76.918278 20.081722,80.5 24.5,80.5 L32.5,80.5 L32.5,80.5" id="Path-72" stroke="#000000" stroke-width="3"></path>
            <path d="M60.5,50.5 L60.5,48.5 C60.5,47.3954305 61.3954305,46.5 62.5,46.5 L66.5,46.5 C67.6045695,46.5 68.5,47.3954305 68.5,48.5 L68.5,50.5 L68.5,50.5" id="Path-71" stroke="#000000" stroke-width="3"></path>
            <path d="M60.5,32.5 L60.5,30.5 C60.5,29.3954305 61.3954305,28.5 62.5,28.5 L66.5,28.5 C67.6045695,28.5 68.5,29.3954305 68.5,30.5 L68.5,32.5 L68.5,32.5" id="Path-71-Copy-7" stroke="#000000" stroke-width="3"></path>
            <path d="M44.5,50.5 L44.5,48.5 C44.5,47.3954305 45.3954305,46.5 46.5,46.5 L50.5,46.5 C51.6045695,46.5 52.5,47.3954305 52.5,48.5 L52.5,50.5 L52.5,50.5" id="Path-71-Copy-3" stroke="#000000" stroke-width="3"></path>
            <path d="M44.5,32.5 L44.5,30.5 C44.5,29.3954305 45.3954305,28.5 46.5,28.5 L50.5,28.5 C51.6045695,28.5 52.5,29.3954305 52.5,30.5 L52.5,32.5 L52.5,32.5" id="Path-71-Copy-8" stroke="#000000" stroke-width="3"></path>
            <path d="M28.5,50.5 L28.5,48.5 C28.5,47.3954305 29.3954305,46.5 30.5,46.5 L34.5,46.5 C35.6045695,46.5 36.5,47.3954305 36.5,48.5 L36.5,50.5 L36.5,50.5" id="Path-71-Copy-4" stroke="#000000" stroke-width="3"></path>
            <path d="M28.5,32.5 L28.5,30.5 C28.5,29.3954305 29.3954305,28.5 30.5,28.5 L34.5,28.5 C35.6045695,28.5 36.5,29.3954305 36.5,30.5 L36.5,32.5 L36.5,32.5" id="Path-71-Copy-9" stroke="#000000" stroke-width="3"></path>
            <path d="M76.5,50.5 L76.5,48.5 C76.5,47.3954305 77.3954305,46.5 78.5,46.5 L82.5,46.5 C83.6045695,46.5 84.5,47.3954305 84.5,48.5 L84.5,50.5 L84.5,50.5" id="Path-71-Copy" stroke="#000000" stroke-width="3"></path>
            <path d="M76.5,32.5 L76.5,30.5 C76.5,29.3954305 77.3954305,28.5 78.5,28.5 L82.5,28.5 C83.6045695,28.5 84.5,29.3954305 84.5,30.5 L84.5,32.5 L84.5,32.5" id="Path-71-Copy-10" stroke="#000000" stroke-width="3"></path>
            <path d="M92.5,50.5 L92.5,48.5 C92.5,47.3954305 93.3954305,46.5 94.5,46.5 L98.5,46.5 C99.6045695,46.5 100.5,47.3954305 100.5,48.5 L100.5,50.5 L100.5,50.5" id="Path-71-Copy-2" stroke="#000000" stroke-width="3"></path>
            <path d="M92.5,32.5 L92.5,30.5 C92.5,29.3954305 93.3954305,28.5 94.5,28.5 L98.5,28.5 C99.6045695,28.5 100.5,29.3954305 100.5,30.5 L100.5,32.5 L100.5,32.5" id="Path-71-Copy-11" stroke="#000000" stroke-width="3"></path>
            <path d="M92.5,68.5 L92.5,66.5 C92.5,65.3954305 93.3954305,64.5 94.5,64.5 L98.5,64.5 C99.6045695,64.5 100.5,65.3954305 100.5,66.5 L100.5,68.5 L100.5,68.5" id="Path-71-Copy-5" stroke="#000000" stroke-width="3"></path>
            <path d="M28.5,68.5 L28.5,66.5 C28.5,65.3954305 29.3954305,64.5 30.5,64.5 L34.5,64.5 C35.6045695,64.5 36.5,65.3954305 36.5,66.5 L36.5,68.5 L36.5,68.5" id="Path-71-Copy-6" stroke="#000000" stroke-width="3"></path>
        </g>
    </g>
</svg>