<?xml version="1.0" encoding="UTF-8"?>
<svg width="130px" height="130px" viewBox="0 0 130 130" version="1.1" xmlns="http://www.w3.org/2000/svg" xmlns:xlink="http://www.w3.org/1999/xlink">
    <title>knob</title>
    <g id="strokes" stroke="none" stroke-width="1" fill="none" fill-rule="evenodd">
        <g id="knob" transform="translate(1.000000, 1.000000)">
            <g id="Group" stroke="#979797" stroke-opacity="0.01" stroke-width="0.1">
                <g id="Rectangle">
                    <rect x="0" y="0" width="128" height="128"></rect>
                </g>
            </g>
            <line x1="16.5" y1="64.5" x2="8.5" y2="64.5" id="Path-316" stroke="#000000" stroke-width="3"></line>
            <line x1="30.5" y1="98.5" x2="25" y2="104" id="Path-317" stroke="#000000" stroke-width="3"></line>
            <line x1="25" y1="25" x2="30.5" y2="30.5" id="Path-318" stroke="#000000" stroke-width="3"></line>
            <line x1="64.5" y1="8.5" x2="64.5" y2="16.5" id="Path-319" stroke="#000000" stroke-width="3"></line>
            <line x1="104" y1="25" x2="98.5" y2="30.5" id="Path-320" stroke="#000000" stroke-width="3"></line>
            <line x1="120.5" y1="64.5" x2="112.5" y2="64.5" id="Path-321" stroke="#000000" stroke-width="3"></line>
            <line x1="98.5" y1="98.5" x2="104" y2="104" id="Path-322" stroke="#000000" stroke-width="3"></line>
            <path d="M64.5,104.5 C86.59139,104.5 104.5,86.59139 104.5,64.5 C104.5,42.40861 86.59139,24.5 64.5,24.5 C42.40861,24.5 24.5,42.40861 24.5,64.5 C24.5,74.4148376 28.1073394,83.487136 34.0811481,90.476025 C34.0811481,90.476025 34.0811481,90.476025 34.0811481,90.476025 C35.1496505,91.7260892 37.02922,91.8732741 38.2792841,90.8047718 C38.3396545,90.7531697 38.3979362,90.699173 38.4539929,90.6429146 L64.5,64.5 L64.5,64.5" id="Path" stroke="#000000" stroke-width="3"></path>
        </g>
    </g>
</svg>