<?xml version="1.0" encoding="UTF-8"?>
<svg width="130px" height="130px" viewBox="0 0 130 130" version="1.1" xmlns="http://www.w3.org/2000/svg" xmlns:xlink="http://www.w3.org/1999/xlink">
    <title>light bulb</title>
    <g id="strokes" stroke="none" stroke-width="1" fill="none" fill-rule="evenodd">
        <g id="light-bulb" transform="translate(1.000000, 1.000000)">
            <g id="Group" stroke="#979797" stroke-opacity="0.01" stroke-width="0.1">
                <g id="Rectangle">
                    <rect x="0" y="0" width="128" height="128"></rect>
                </g>
            </g>
            <path d="M48.5,92.5 L69.5,92.5 C71.1568542,92.5 72.5,91.1568542 72.5,89.5 L72.5,61.4442719 C72.5,60.2781469 71.5546689,59.3328157 70.3885438,59.3328157 C69.5887832,59.3328157 68.8576638,59.7846724 68.5,60.5 L68.0777088,61.3445825 C67.0897518,63.3204965 64.6870596,64.1213938 62.7111456,63.1334369 C61.937036,62.746382 61.309346,62.1186921 60.9222912,61.3445825 L60.5,60.5 C59.978493,59.456986 58.7101982,59.0342211 57.6671843,59.5557281 C56.9518566,59.9133919 56.5,60.6445113 56.5,61.4442719 L56.5,84.5 L56.5,84.5" id="Path-230" stroke="#000000" stroke-width="3"></path>
            <path d="M80.6936458,80.1060438 C90.1515768,74.5460598 96.5,64.2644068 96.5,52.5 C96.5,34.826888 82.173112,20.5 64.5,20.5 C46.826888,20.5 32.5,34.826888 32.5,52.5 C32.5,70.173112 46.826888,84.5 64.5,84.5" id="Path" stroke="#000000" stroke-width="3"></path>
            <line x1="48.5" y1="100.5" x2="80.5" y2="100.5" id="Path-231" stroke="#000000" stroke-width="3"></line>
            <line x1="60.5" y1="108.5" x2="68.5" y2="108.5" id="Path-232" stroke="#000000" stroke-width="3"></line>
        </g>
    </g>
</svg>