<?xml version="1.0" encoding="UTF-8"?>
<svg width="130px" height="130px" viewBox="0 0 130 130" version="1.1" xmlns="http://www.w3.org/2000/svg" xmlns:xlink="http://www.w3.org/1999/xlink">
    <title>light-bulb</title>
    <g id="strokes" stroke="none" stroke-width="1" fill="none" fill-rule="evenodd">
        <g id="light-bulb" transform="translate(1.000000, 1.000000)">
            <g id="Group" stroke="#979797" stroke-opacity="0.01" stroke-width="0.1">
                <g id="Rectangle">
                    <rect x="0" y="0" width="128" height="128"></rect>
                </g>
            </g>
            <path d="M48.5,64.5 L48.5,58.1568542 C48.5,55.9477153 50.290861,54.1568542 52.5,54.1568542 C53.560866,54.1568542 54.5782816,54.5782816 55.3284271,55.3284271 L58.8431458,58.8431458 C61.9673401,61.9673401 67.0326599,61.9673401 70.1568542,58.8431458 L73.7303042,55.2696958 C75.2924013,53.7075987 77.8250612,53.7075987 79.3871584,55.2696958 C80.1313008,56.0138382 80.5522086,57.0212595 80.5586562,58.073616 L80.6936458,80.1060438 L80.6936458,80.1060438 C90.1515768,74.5460598 96.5,64.2644068 96.5,52.5 C96.5,34.826888 82.173112,20.5 64.5,20.5 C46.826888,20.5 32.5,34.826888 32.5,52.5 C32.5,64.3257298 38.9147792,74.6532076 48.4545081,80.1926042 L48.4889521,89.5110888 C48.4950603,91.163603 49.8364061,92.5 51.4889316,92.5 L77.5,92.5 C79.1568542,92.5 80.5,91.1568542 80.5,89.5 L80.5,88.5 L80.5,88.5" id="Path" stroke="#000000" stroke-width="3"></path>
            <line x1="48.5" y1="100.5" x2="80.5" y2="100.5" id="Path-231" stroke="#000000" stroke-width="3"></line>
            <line x1="56.5" y1="108.5" x2="72.5" y2="108.5" id="Path-232" stroke="#000000" stroke-width="3"></line>
        </g>
    </g>
</svg>