<?xml version="1.0" encoding="UTF-8"?>
<svg width="130px" height="130px" viewBox="0 0 130 130" version="1.1" xmlns="http://www.w3.org/2000/svg" xmlns:xlink="http://www.w3.org/1999/xlink">
    <title>line-chart</title>
    <g id="strokes" stroke="none" stroke-width="1" fill="none" fill-rule="evenodd">
        <g id="line-chart" transform="translate(1.000000, 1.000000)">
            <g id="Group" stroke="#979797" stroke-opacity="0.01" stroke-width="0.1">
                <g id="Rectangle">
                    <rect x="0" y="0" width="128" height="128"></rect>
                </g>
            </g>
            <path d="M16.5,101 L16.5,109.5 C16.5,111.156854 17.8431458,112.5 19.5,112.5 L113,112.5 L113,112.5" id="Path-130" stroke="#000000" stroke-width="3"></path>
            <path d="M16.5,16.5 L16.5,89.2573593 C16.5,90.9142136 17.8431458,92.2573593 19.5,92.2573593 C20.2956495,92.2573593 21.0587112,91.9412888 21.6213203,91.3786797 L38.8431458,74.1568542 C41.9673401,71.0326599 47.0326599,71.0326599 50.1568542,74.1568542 L58.8431458,82.8431458 C61.9673401,85.9673401 67.0326599,85.9673401 70.1568542,82.8431458 L93.5,59.5 L93.5,59.5" id="Path-132" stroke="#000000" stroke-width="3"></path>
            <path d="M100.493031,67.6825713 L103.892161,51.4867157 C104.119042,50.4056981 103.426626,49.3454374 102.345609,49.1185571 C102.074691,49.0616979 101.79492,49.0616979 101.524003,49.1185571 L86.9288129,52.1817451 C86.3883041,52.2951852 86.0420965,52.8253156 86.1555366,53.3658244 C86.1927741,53.5432503 86.2775439,53.7072156 86.4007783,53.8401813 L93.5,61.5 L93.5,61.5" id="Path-133" stroke="#000000" stroke-width="3"></path>
        </g>
    </g>
</svg>