<?xml version="1.0" encoding="UTF-8"?>
<svg width="130px" height="130px" viewBox="0 0 130 130" version="1.1" xmlns="http://www.w3.org/2000/svg" xmlns:xlink="http://www.w3.org/1999/xlink">
    <title>list</title>
    <g id="strokes" stroke="none" stroke-width="1" fill="none" fill-rule="evenodd">
        <g id="list" transform="translate(1.000000, 1.000000)">
            <g id="Group" stroke="#979797" stroke-opacity="0.01" stroke-width="0.1">
                <g id="Rectangle">
                    <rect x="0" y="0" width="128" height="128"></rect>
                </g>
            </g>
            <path d="M25,40 C25,37.790861 23.209139,36 21,36 C18.790861,36 17,37.790861 17,40 C17,42.209139 18.790861,44 21,44" id="Path" stroke="#000000" stroke-width="3"></path>
            <path d="M25,64 C25,61.790861 23.209139,60 21,60 C18.790861,60 17,61.790861 17,64 C17,66.209139 18.790861,68 21,68" id="Path-Copy" stroke="#000000" stroke-width="3"></path>
            <path d="M25,88 C25,85.790861 23.209139,84 21,84 C18.790861,84 17,85.790861 17,88 C17,90.209139 18.790861,92 21,92" id="Path-Copy-2" stroke="#000000" stroke-width="3"></path>
            <line x1="32.5" y1="64" x2="113" y2="64" id="Path-27-Copy" stroke="#000000" stroke-width="3"></line>
            <line x1="32.5" y1="40" x2="113" y2="40" id="Path-27-Copy-3" stroke="#000000" stroke-width="3"></line>
            <line x1="32.5" y1="88" x2="113" y2="88" id="Path-27-Copy-2" stroke="#000000" stroke-width="3"></line>
        </g>
    </g>
</svg>