<?xml version="1.0" encoding="UTF-8"?>
<svg width="130px" height="130px" viewBox="0 0 130 130" version="1.1" xmlns="http://www.w3.org/2000/svg" xmlns:xlink="http://www.w3.org/1999/xlink">
    <title>list</title>
    <g id="strokes" stroke="none" stroke-width="1" fill="none" fill-rule="evenodd">
        <g id="list" transform="translate(1.000000, 1.000000)">
            <g id="Group" stroke="#979797" stroke-opacity="0.01" stroke-width="0.1">
                <g id="Rectangle">
                    <rect x="0" y="0" width="128" height="128"></rect>
                </g>
            </g>
            <path d="M32,40 C32,37.790861 30.209139,36 28,36 C25.790861,36 24,37.790861 24,40 C24,42.209139 25.790861,44 28,44" id="Path" stroke="#000000" stroke-width="3"></path>
            <path d="M32,64 C32,61.790861 30.209139,60 28,60 C25.790861,60 24,61.790861 24,64 C24,66.209139 25.790861,68 28,68" id="Path-Copy" stroke="#000000" stroke-width="3"></path>
            <path d="M33,87 C33,84.790861 31.209139,83 29,83 C26.790861,83 25,84.790861 25,87 C25,89.209139 26.790861,91 29,91" id="Path-Copy-2" stroke="#000000" stroke-width="3"></path>
            <line x1="40" y1="64" x2="104" y2="64" id="Path-27-Copy" stroke="#000000" stroke-width="3"></line>
            <line x1="40" y1="40" x2="104" y2="40" id="Path-27-Copy-3" stroke="#000000" stroke-width="3"></line>
            <line x1="40" y1="88" x2="104" y2="88" id="Path-27-Copy-2" stroke="#000000" stroke-width="3"></line>
        </g>
    </g>
</svg>