<?xml version="1.0" encoding="UTF-8"?><svg viewBox="0 0 130 130" version="1.1" xmlns="http://www.w3.org/2000/svg" xmlns:xlink="http://www.w3.org/1999/xlink">
  <title>lock-off</title>
  <g id="strokes" stroke="none" stroke-width="1" fill="none" fill-rule="evenodd">
    <g id="lock-off" transform="translate(1.000000, 1.000000)">
      <g id="Group" stroke="#979797" stroke-opacity="0.01" stroke-width="0.1">
        <g id="Rectangle">
          <rect x="0" y="0" width="128" height="128"></rect>
        </g>
      </g>
      <path d="M31.5,48 L30,48 C26.6862915,48 24,50.6862915 24,54 L24,105.5 C24,108.813708 26.6862915,111.5 30,111.5 L98,111.5 C99.9565801,111.5 101.694423,110.563474 102.78971,109.114241 M104,96.5 C104,87.0555556 104,72.8888889 104,54 C104,50.6862915 101.313708,48 98,48 C79.3333333,48 65.3333333,48 56,48 M41.0772555,32.8687212 C44.1141937,23.096193 53.2283945,16 64,16 C77.254834,16 88,26.745166 88,40" id="Shape" stroke="#000000" stroke-width="3"></path>
      <path d="M63.5,80 C59.3578644,80 56,76.6421356 56,72.5 L56,72 C56,69.6083246 57.049519,67.4617774 58.713129,65.9957864 M70.3679695,77.1713195 C69.7373609,77.9624239 68.9501245,78.6231496 68.0532002,79.1065567 L68.0125966,92.0000198 C68.0056333,94.2111826 66.2111737,96 64,96 C61.790861,96 60,94.209139 60,92 L60,82.5 L60,82.5" id="Shape" stroke="#000000" stroke-width="3"></path>
      <line x1="16" y1="16" x2="112" y2="112" id="Path-4" stroke="#000000" stroke-width="3"></line>
    </g>
  </g>
</svg>
