<?xml version="1.0" encoding="UTF-8"?><svg viewBox="0 0 130 130" version="1.1" xmlns="http://www.w3.org/2000/svg" xmlns:xlink="http://www.w3.org/1999/xlink">
  <title>loop</title>
  <g id="strokes" stroke="none" stroke-width="1" fill="none" fill-rule="evenodd">
    <g id="loop" transform="translate(1.000000, 1.000000)">
      <g id="Group" stroke="#979797" stroke-opacity="0.01" stroke-width="0.1">
        <g id="Rectangle">
          <rect x="0" y="0" width="128" height="128"></rect>
        </g>
      </g>
      <path d="M64.5,12 L47.2692887,22.7691946 C46.3326156,23.3546152 46.0478693,24.588516 46.63329,25.5251891 C46.8007616,25.7931437 47.0293402,26.0176041 47.3002951,26.180177 L62.9855042,35.5913025 C63.4590845,35.8754507 64.0733448,35.7218856 64.3574929,35.2483054 C64.4507422,35.09289 64.5,34.9150536 64.5,34.7338096 L64.5,24.5 L64.5,24.5 L104.5,24.5 C108.918278,24.5 112.5,28.081722 112.5,32.5 L112.5,96.5 C112.5,100.918278 108.918278,104.5 104.5,104.5 L96.5,104.5 L96.5,104.5" id="Path-177" stroke="#000000" stroke-width="3"></path>
      <path d="M64.5,116.5 L81.6416902,106.214986 C82.5888508,105.64669 82.8959809,104.418169 82.3276846,103.471008 C82.1587851,103.189509 81.9231895,102.953914 81.6416902,102.785014 L66.0144958,93.4086975 C65.5409155,93.1245493 64.9266552,93.2781144 64.6425071,93.7516946 C64.5492578,93.90711 64.5,94.0849464 64.5,94.2661904 L64.5,104.5 L64.5,104.5 L24.5,104.5 C20.081722,104.5 16.5,100.918278 16.5,96.5 L16.5,32.5 C16.5,28.081722 20.081722,24.5 24.5,24.5 L32.5,24.5 L32.5,24.5" id="Path-179" stroke="#000000" stroke-width="3"></path>
    </g>
  </g>
</svg>
