<?xml version="1.0" encoding="UTF-8"?>
<svg width="130px" height="130px" viewBox="0 0 130 130" version="1.1" xmlns="http://www.w3.org/2000/svg" xmlns:xlink="http://www.w3.org/1999/xlink">
    <title>magnifying-glass-off</title>
    <g id="strokes" stroke="none" stroke-width="1" fill="none" fill-rule="evenodd">
        <g id="magnifying-glass-off" transform="translate(1.000000, 1.000000)">
            <g id="Group" stroke="#979797" stroke-opacity="0.01" stroke-width="0.1">
                <g id="Rectangle">
                    <rect x="0" y="0" width="128" height="128"></rect>
                </g>
            </g>
            <path d="M88.5,96.5 L102.446006,110.446006 C103.590953,111.590953 105.437883,111.620734 106.61915,110.513297 L110.274166,107.086719 C111.482903,105.953529 111.544145,104.055021 110.410954,102.846284 C110.399421,102.833982 110.387783,102.821777 110.376044,102.80967 L98.8571717,90.9308333 C97.3504265,89.3770023 95.2783788,88.5 93.1139685,88.5 L88.5,88.5 L88.5,88.5 L78.1227168,77.7878772 C84.5393017,71.2868633 88.5,62.355967 88.5,52.5 C88.5,51.2596498 88.4372719,50.0339506 88.3148151,48.8259015 M82.6478201,32.8173579 C76.2198225,22.9916537 65.1180147,16.5 52.5,16.5 C32.617749,16.5 16.5,32.617749 16.5,52.5 C16.5,65.0714228 22.9438014,76.1378151 32.7086503,82.576423 M48.8072435,88.3129189 C50.0213296,88.4366243 51.2532637,88.5 52.5,88.5 C56.7554183,88.5 60.8383875,87.7616576 64.6277889,86.4060915" id="Shape" stroke="#000000" stroke-width="3"></path>
            <line x1="16.5" y1="112.5" x2="112.5" y2="16.5" id="Path-70" stroke="#000000" stroke-width="3"></line>
        </g>
    </g>
</svg>