<?xml version="1.0" encoding="UTF-8"?>
<svg width="130px" height="130px" viewBox="0 0 130 130" version="1.1" xmlns="http://www.w3.org/2000/svg" xmlns:xlink="http://www.w3.org/1999/xlink">
    <title>map-pin</title>
    <g id="strokes" stroke="none" stroke-width="1" fill="none" fill-rule="evenodd">
        <g id="map-pin" transform="translate(1.000000, 1.000000)">
            <g id="Group" stroke="#979797" stroke-opacity="0.01" stroke-width="0.1">
                <g id="Rectangle">
                    <rect x="0" y="0" width="128" height="128"></rect>
                </g>
            </g>
            <path d="M96.5,48.5 C96.5,30.826888 82.173112,16.5 64.5,16.5 C46.826888,16.5 32.5,30.826888 32.5,48.5 C32.3539887,58.7890293 35.0206553,69.4556959 40.5,80.5 C45.6172084,90.8143732 52.9328965,100.944741 62.4470642,110.891103 C62.4481089,110.892195 62.4491549,110.893288 62.4502022,110.894383 L62.4502106,110.894375 C63.5242207,112.017036 65.3049741,112.056474 66.4276345,110.982464 C66.462695,110.948923 66.4968818,110.914481 66.5301607,110.879171 C66.5301607,110.879171 66.5301607,110.879171 66.5301607,110.879171 C76.240106,100.576754 83.5633857,90.4503631 88.5,80.5 C91.0785758,75.3025581 93.047827,69.7944338 94.3872991,64.4192167" id="Path" stroke="#000000" stroke-width="3"></path>
            <path d="M64.5,64.5 C73.336556,64.5 80.5,57.336556 80.5,48.5 C80.5,39.663444 73.336556,32.5 64.5,32.5 C55.663444,32.5 48.5,39.663444 48.5,48.5" id="Path" stroke="#000000" stroke-width="3"></path>
        </g>
    </g>
</svg>