<?xml version="1.0" encoding="UTF-8"?>
<svg width="130px" height="130px" viewBox="0 0 130 130" version="1.1" xmlns="http://www.w3.org/2000/svg" xmlns:xlink="http://www.w3.org/1999/xlink">
    <title>map</title>
    <g id="strokes" stroke="none" stroke-width="1" fill="none" fill-rule="evenodd">
        <g id="map" transform="translate(1.000000, 1.000000)">
            <g id="Group" stroke="#979797" stroke-opacity="0.01" stroke-width="0.1">
                <g id="Rectangle">
                    <rect x="0" y="0" width="128" height="128"></rect>
                </g>
            </g>
            <path d="M72.6442073,28.5721036 L49.9472136,17.2236068 C49.4532351,16.9766175 48.8525621,17.1768419 48.6055728,17.6708204 C48.5361451,17.8096758 48.5,17.9627889 48.5,18.118034 L48.5,80.5 L48.5,80.5 L48.5,18.118034 C48.5,17.5657492 48.0522847,17.118034 47.5,17.118034 C47.3447549,17.118034 47.1916418,17.1541791 47.0527864,17.2236068 L18.1583592,31.6708204 C17.1420071,32.1789964 16.5,33.2177858 16.5,34.354102 L16.5,110.881966 C16.5,111.434251 16.9477153,111.881966 17.5,111.881966 C17.6552451,111.881966 17.8083582,111.845821 17.9472136,111.776393 L44.9222912,98.2888544 C47.1745112,97.1627444 49.8254888,97.1627444 52.0777088,98.2888544 L76.9222912,110.711146 C79.1745112,111.837256 81.8254888,111.837256 84.0777088,110.711146 L110.841641,97.3291796 C111.857993,96.8210036 112.5,95.7822142 112.5,94.645898 L112.5,18.118034 C112.5,17.5657492 112.052285,17.118034 111.5,17.118034 C111.344755,17.118034 111.191642,17.1541791 111.052786,17.2236068 L82.1583592,31.6708204 C81.1420071,32.1789964 80.5,33.2177858 80.5,34.354102 L80.5,96.5 L80.5,96.5" id="Path-288" stroke="#000000" stroke-width="3"></path>
        </g>
    </g>
</svg>