<?xml version="1.0" encoding="UTF-8"?><svg viewBox="0 0 130 130" version="1.1" xmlns="http://www.w3.org/2000/svg" xmlns:xlink="http://www.w3.org/1999/xlink">
  <title>marker</title>
  <g id="strokes" stroke="none" stroke-width="1" fill="none" fill-rule="evenodd">
    <g id="marker" transform="translate(1.000000, 1.000000)">
      <g id="Group" stroke="#979797" stroke-opacity="0.01" stroke-width="0.1">
        <g id="Rectangle">
          <rect x="0" y="0" width="128" height="128"></rect>
        </g>
      </g>
      <path d="M112,80 L120.195752,80 C120.748037,80 121.195752,79.5522847 121.195752,79 C121.195752,78.8125803 121.143083,78.6289327 121.043751,78.4700011 L112.881252,65.4100032 C112.333037,64.5328591 111.371627,64 110.337257,64 L107,64 C105.343146,64 104,65.3431458 104,67 L104,77 C104,78.6568542 102.656854,80 101,80 L96,80 C91.581722,80 88,83.581722 88,88 L88,88 L88,88 L9,88 C7.34314575,88 6,86.6568542 6,85 L6,59 C6,57.3431458 7.34314575,56 9,56 L88,56 L88,56 C88,60.418278 91.581722,64 96,64 L96,64 L96,64 L96,71.5" id="Path-5" stroke="#000000" stroke-width="3" transform="translate(64.000000, 72.000000) rotate(135.000000) translate(-64.000000, -72.000000)"></path>
    </g>
  </g>
</svg>
