<?xml version="1.0" encoding="UTF-8"?>
<svg width="130px" height="130px" viewBox="0 0 130 130" version="1.1" xmlns="http://www.w3.org/2000/svg" xmlns:xlink="http://www.w3.org/1999/xlink">
    <title>marker-off</title>
    <g id="strokes" stroke="none" stroke-width="1" fill="none" fill-rule="evenodd">
        <g id="marker-off" transform="translate(1.000000, 1.000000)">
            <g id="Group" stroke="#979797" stroke-opacity="0.01" stroke-width="0.1">
                <g id="Rectangle">
                    <rect x="0" y="0" width="128" height="128"></rect>
                </g>
            </g>
            <line x1="16" y1="16" x2="112" y2="112" id="Path-4" stroke="#000000" stroke-width="3"></line>
            <path d="M112,80 L122,80 L112,64 L104,64 L104,80 L96,80 C91.581722,80 88,83.581722 88,88 L88,88 L88,88 L69.3033009,88 M46.6758839,88 L6,88 L6,56 L48.7972042,56 M67.8890873,56 L88,56 C88,60.418278 91.581722,64 96,64 L96,64 L96,64 L96,71.5" id="Shape" stroke="#000000" stroke-width="3" transform="translate(64.000000, 72.000000) rotate(135.000000) translate(-64.000000, -72.000000) "></path>
        </g>
    </g>
</svg>