<?xml version="1.0" encoding="UTF-8"?>
<svg width="130px" height="130px" viewBox="0 0 130 130" version="1.1" xmlns="http://www.w3.org/2000/svg" xmlns:xlink="http://www.w3.org/1999/xlink">
    <title>megaphone-loud</title>
    <g id="strokes" stroke="none" stroke-width="1" fill="none" fill-rule="evenodd">
        <g id="megaphone-loud" transform="translate(1.000000, 1.000000)">
            <g id="Group" stroke="#979797" stroke-opacity="0.01" stroke-width="0.1">
                <g id="Rectangle">
                    <rect x="0" y="0" width="128" height="128"></rect>
                </g>
            </g>
            <path d="M16.5,64.5 L16.5,52.5 C16.5,50.290861 18.290861,48.5 20.5,48.5 L40.5,48.5 L40.5,48.5 L69.0857864,19.9142136 C69.866835,19.133165 71.133165,19.133165 71.9142136,19.9142136 C72.2892863,20.2892863 72.5,20.7979941 72.5,21.3284271 L72.5,107.671573 C72.5,108.776142 71.6045695,109.671573 70.5,109.671573 C69.969567,109.671573 69.4608592,109.460859 69.0857864,109.085786 L40.5,80.5 L40.5,80.5 L19.5,80.5 C17.8431458,80.5 16.5,79.1568542 16.5,77.5" id="Path-176" stroke="#000000" stroke-width="3"></path>
            <path d="M84.5,49 C87.1666667,54.0239451 88.5,59.1906118 88.5,64.5 C88.5,68.7761939 87.6351027,73.0679203 85.9053081,77.3751793 C85.7867995,77.6702704 85.4115495,78.7044026 85.35,78.8402993 M99.5929886,83.9897278 C101.530996,77.4931519 102.5,70.9965759 102.5,64.5 C102.5,55.801533 100.762832,47.103066 97.2884953,38.404599 M111.7,33 C112.266754,34.8056341 112.65855,36.7232067 113.127494,38.5288409 C115.375831,47.1858939 116.5,55.842947 116.5,64.5 C116.5,77.8333333 113.833333,91.1666667 108.5,104.5" id="Shape" stroke="#000000" stroke-width="3"></path>
            <path d="M85.6047888,78.3390732 C85.4717609,78.5711897 85.3505892,78.8109707 85.2420992,79.0575903 C84.8292062,79.9961801 84.6,81.0338231 84.6,82.125 C84.6,86.3361712 88.0138288,89.75 92.225,89.75 C95.8632043,89.75 98.9062767,87.2019374 99.6669998,83.7930294" id="Path" stroke="#000000" stroke-width="3"></path>
            <path d="M111.768151,33.1716103 C110.859813,29.9007024 107.860263,27.5 104.3,27.5 C100.019793,27.5 96.55,30.9697932 96.55,35.25 C96.55,36.3591075 96.9303078,37.6159947 97.35,38.57" id="Path" stroke="#000000" stroke-width="3"></path>
        </g>
    </g>
</svg>