<?xml version="1.0" encoding="UTF-8"?><svg viewBox="0 0 130 130" version="1.1" xmlns="http://www.w3.org/2000/svg" xmlns:xlink="http://www.w3.org/1999/xlink">
  <title>megaphone-medium</title>
  <g id="strokes" stroke="none" stroke-width="1" fill="none" fill-rule="evenodd">
    <g id="megaphone-medium" transform="translate(1.000000, 1.000000)">
      <g id="Group" stroke="#979797" stroke-opacity="0.01" stroke-width="0.1">
        <g id="Rectangle">
          <rect x="0" y="0" width="128" height="128"></rect>
        </g>
      </g>
      <path d="M16.5,64.5 L16.5,52.5 C16.5,50.290861 18.290861,48.5 20.5,48.5 L40.5,48.5 L40.5,48.5 L69.0857864,19.9142136 C69.866835,19.133165 71.133165,19.133165 71.9142136,19.9142136 C72.2892863,20.2892863 72.5,20.7979941 72.5,21.3284271 L72.5,107.671573 C72.5,108.776142 71.6045695,109.671573 70.5,109.671573 C69.969567,109.671573 69.4608592,109.460859 69.0857864,109.085786 L40.5,80.5 L40.5,80.5 L19.5,80.5 C17.8431458,80.5 16.5,79.1568542 16.5,77.5" id="Path-176" stroke="#000000" stroke-width="3"></path>
      <path d="M84.5,55.5102722 C87.1666667,60.5342173 88.5,65.700884 88.5,71.0102722 C88.5,75.2864661 87.6351027,79.5781925 85.9053081,83.8854515 C85.7867995,84.1805426 85.4115495,85.2146748 85.35,85.3505715 M99.5929886,90.5 C101.530996,84.0034241 102.5,77.5068481 102.5,71.0102722 C102.5,61.6769389 100.5,52.3436056 96.5,43.0102722" id="Shape" stroke="#000000" stroke-width="3" transform="translate(93.500000, 66.755136) scale(1, -1) translate(-93.500000, -66.755136)"></path>
      <path d="M85.6047888,37.25 C85.4717609,37.4821165 85.3505892,37.7218975 85.2420992,37.9685172 C84.8292062,38.9071069 84.6,39.9447499 84.6,41.0359268 C84.6,45.247098 88.0138288,48.6609268 92.225,48.6609268 C95.8632043,48.6609268 98.9062767,46.1128642 99.6669998,42.7039562" id="Path" stroke="#000000" stroke-width="3" transform="translate(92.133500, 42.955463) scale(1, -1) translate(-92.133500, -42.955463)"></path>
    </g>
  </g>
</svg>
