<?xml version="1.0" encoding="UTF-8"?><svg viewBox="0 0 130 130" version="1.1" xmlns="http://www.w3.org/2000/svg" xmlns:xlink="http://www.w3.org/1999/xlink">
  <title>megaphone-low</title>
  <g id="strokes" stroke="none" stroke-width="1" fill="none" fill-rule="evenodd">
    <g id="megaphone-low" transform="translate(1.000000, 1.000000)">
      <g id="Group" stroke="#979797" stroke-opacity="0.01" stroke-width="0.1">
        <g id="Rectangle">
          <rect x="0" y="0" width="128" height="128"></rect>
        </g>
      </g>
      <path d="M16.5,64.5 L16.5,52.5 C16.5,50.290861 18.290861,48.5 20.5,48.5 L40.5,48.5 L40.5,48.5 L69.0857864,19.9142136 C69.866835,19.133165 71.133165,19.133165 71.9142136,19.9142136 C72.2892863,20.2892863 72.5,20.7979941 72.5,21.3284271 L72.5,107.671573 C72.5,108.776142 71.6045695,109.671573 70.5,109.671573 C69.969567,109.671573 69.4608592,109.460859 69.0857864,109.085786 L40.5,80.5 L40.5,80.5 L19.5,80.5 C17.8431458,80.5 16.5,79.1568542 16.5,77.5" id="Path-176" stroke="#000000" stroke-width="3"></path>
      <path d="M84.5,49 C87.1666667,54.0239451 88.5,59.1906118 88.5,64.5 C88.5,69.8093882 87.1666667,75.1427215 84.5,80.5" id="Path" stroke="#000000" stroke-width="3"></path>
    </g>
  </g>
</svg>
