<?xml version="1.0" encoding="UTF-8"?>
<svg width="130px" height="130px" viewBox="0 0 130 130" version="1.1" xmlns="http://www.w3.org/2000/svg" xmlns:xlink="http://www.w3.org/1999/xlink">
    <title>microphone-off</title>
    <g id="strokes" stroke="none" stroke-width="1" fill="none" fill-rule="evenodd">
        <g id="microphone-off" transform="translate(1.000000, 1.000000)">
            <g id="Group" stroke="#979797" stroke-opacity="0.01" stroke-width="0.1">
                <g id="Rectangle">
                    <rect x="0" y="0" width="128" height="128"></rect>
                </g>
            </g>
            <line x1="40" y1="112" x2="56" y2="112" id="Path-13" stroke="#000000" stroke-width="3"></line>
            <polyline id="Path-15" stroke="#000000" stroke-width="3" points="80 112 64 112 64 96"></polyline>
            <path d="M32,64 C32,81.673112 46.326888,96 64,96 C70.9645582,96 77.4094603,93.7750874 82.6627047,89.9972637 M90.5244949,81.9069001 C93.9812296,76.7966466 96,70.6340779 96,64" id="Shape" stroke="#000000" stroke-width="3"></path>
            <path d="M88,48 L76,48 C73.790861,48 72,46.209139 72,44 C72,41.790861 73.790861,40 76,40 L88,40 L88,40 C88,26.745166 77.254834,16 64,16 C53.4933557,16 44.5635808,22.7513808 41.31233,32.1524878 M40,47.5 C40,51.1666667 40,56.6666667 40,64 C40,77.254834 50.745166,88 64,88 C68.7949829,88 73.2615365,86.5938273 77.0097834,84.1713594 M84.9287562,75.7554948 C86.8844186,72.2812214 88,68.2708897 88,64 L76,64 C73.790861,64 72,62.209139 72,60 C72,57.790861 73.790861,56 76,56 L88,56" id="Shape" stroke="#000000" stroke-width="3"></path>
            <line x1="16" y1="16" x2="112" y2="112" id="Path-4" stroke="#000000" stroke-width="3"></line>
        </g>
    </g>
</svg>