<?xml version="1.0" encoding="UTF-8"?>
<svg width="130px" height="130px" viewBox="0 0 130 130" version="1.1" xmlns="http://www.w3.org/2000/svg" xmlns:xlink="http://www.w3.org/1999/xlink">
    <title>moon</title>
    <g id="strokes" stroke="none" stroke-width="1" fill="none" fill-rule="evenodd">
        <g id="moon" transform="translate(1.000000, 1.000000)">
            <g id="Group" stroke="#979797" stroke-opacity="0.01" stroke-width="0.1">
                <g id="Rectangle">
                    <rect x="0" y="0" width="128" height="128"></rect>
                </g>
            </g>
            <path d="M64.3691989,22.6504937 C54.7945979,29.1201274 48.5,40.0749726 48.5,52.5 C48.5,72.382251 64.617749,88.5 84.5,88.5 C93.3801707,88.5 101.509378,85.2847413 107.786973,79.9548719 C107.912263,79.8484968 108.046777,79.7309942 108.190516,79.6023639 L108.190521,79.6023685 C108.582175,79.2518817 109.1838,79.285255 109.534287,79.6769099 C109.766787,79.9367196 109.8386,80.3028703 109.721461,80.6312542 C109.721461,80.6312542 109.721461,80.6312542 109.721461,80.6312542 C103.095667,99.2058392 85.3503423,112.5 64.5,112.5 C37.990332,112.5 16.5,91.009668 16.5,64.5 C16.5,37.990332 37.990332,16.5 64.5,16.5 C68.1896476,16.5 71.7820636,16.916298 75.23284,17.704486" id="Path" stroke="#000000" stroke-width="3"></path>
        </g>
    </g>
</svg>