<?xml version="1.0" encoding="UTF-8"?><svg viewBox="0 0 130 130" version="1.1" xmlns="http://www.w3.org/2000/svg" xmlns:xlink="http://www.w3.org/1999/xlink">
  <title>motorcycle</title>
  <g id="strokes" stroke="none" stroke-width="1" fill="none" fill-rule="evenodd">
    <g id="motorcycle" transform="translate(1.000000, 1.000000)">
      <g id="Group" stroke="#979797" stroke-opacity="0.01" stroke-width="0.1">
        <g id="Rectangle">
          <rect x="0" y="0" width="128" height="128"></rect>
        </g>
      </g>
      <path d="M20.3361975,90.8947819 C23.2707708,94.3255189 27.6314468,96.5 32.5,96.5 C41.336556,96.5 48.5,89.336556 48.5,80.5 C48.5,71.663444 41.336556,64.5 32.5,64.5 C23.663444,64.5 16.5,71.663444 16.5,80.5" id="Path" stroke="#000000" stroke-width="3"></path>
      <path d="M84.3361975,90.8947819 C87.2707708,94.3255189 91.6314468,96.5 96.5,96.5 C105.336556,96.5 112.5,89.336556 112.5,80.5 C112.5,71.663444 105.336556,64.5 96.5,64.5 C87.663444,64.5 80.5,71.663444 80.5,80.5 L72.5,80.5 C72.5,67.245166 83.245166,56.5 96.5,56.5 L96.5,56.5 L96.5,56.5 L100.158359,58.3291796 C101.640295,59.0701474 103.442314,58.4694743 104.183282,56.9875388 C104.391565,56.5709725 104.5,56.1116333 104.5,55.645898 L104.5,44.472136 C104.5,42.9456584 103.262545,41.7082039 101.736068,41.7082039 C101.306981,41.7082039 100.883787,41.8081065 100.5,42 L98.1583592,43.1708204 C97.1420071,43.6789964 96.5,44.7177858 96.5,45.854102 L96.5,48.5 L96.5,48.5 L96.5,45.854102 C96.5,44.7177858 97.1420071,43.6789964 98.1583592,43.1708204 L100.5,42 C101.865323,41.3173385 103.525542,41.870745 104.208204,43.236068 C104.400097,43.619855 104.5,44.0430491 104.5,44.472136 L104.5,55.645898 C104.5,57.3027523 103.156854,58.645898 101.5,58.645898 C101.034265,58.645898 100.574926,58.5374628 100.158359,58.3291796 L96.5,56.5 L96.5,56.5 L81.3905996,33.8358994 C80.8342023,33.0013034 79.8975083,32.5 78.8944487,32.5 L64.5,32.5 L64.5,32.5" id="Path-Copy" stroke="#000000" stroke-width="3"></path>
      <path d="M80.5,88.5 L51.5,88.5 C49.8431458,88.5 48.5,87.1568542 48.5,85.5 L48.5,80.5 L48.5,80.5 C48.5,67.245166 37.754834,56.5 24.5,56.5 L16.5,56.5 L16.5,56.5 C16.5,52.081722 20.081722,48.5 24.5,48.5 L38.6114562,48.5 C39.8534169,48.5 41.0783215,48.7891607 42.1891649,49.3445825 L54.8108351,55.6554175 C55.9216785,56.2108393 57.1465831,56.5 58.3885438,56.5 L72.5,56.5 L72.5,56.5" id="Path-364" stroke="#000000" stroke-width="3"></path>
    </g>
  </g>
</svg>
