<?xml version="1.0" encoding="UTF-8"?>
<svg width="130px" height="130px" viewBox="0 0 130 130" version="1.1" xmlns="http://www.w3.org/2000/svg" xmlns:xlink="http://www.w3.org/1999/xlink">
    <title>mouse</title>
    <g id="strokes" stroke="none" stroke-width="1" fill="none" fill-rule="evenodd">
        <g id="mouse" transform="translate(1.000000, 1.000000)">
            <g id="Group" stroke="#979797" stroke-opacity="0.01" stroke-width="0.1">
                <g id="Rectangle">
                    <rect x="0" y="0" width="128" height="128"></rect>
                </g>
            </g>
            <path d="M96.5,66.5 L96.5,48.5 C96.5,30.826888 82.173112,16.5 64.5,16.5 C49.6377154,16.5 37.1418958,26.6320414 33.5430383,40.3656272 C32.862405,42.9629895 32.5,45.6891727 32.5,48.5" id="Path" stroke="#000000" stroke-width="3"></path>
            <path d="M32.5,80.5 C32.5,98.173112 46.826888,112.5 64.5,112.5 C82.173112,112.5 96.5,98.173112 96.5,80.5 L96.5,64.5" id="Path" stroke="#000000" stroke-width="3"></path>
            <path d="M68.5,40 L68.5,44.5 C68.5,46.709139 66.709139,48.5 64.5,48.5 L64.5,64.5 M32.5,56.5 L32.5,80.5" id="Shape" stroke="#000000" stroke-width="3"></path>
            <path d="M64.5,24.5 L64.5,32.5 L64,32.5 C61.790861,32.5 60,34.290861 60,36.5 L60,44.5 C60,46.709139 61.790861,48.5 64,48.5 L64.5,48.5 L64.5,48.5" id="Path-75" stroke="#000000" stroke-width="3"></path>
        </g>
    </g>
</svg>