<?xml version="1.0" encoding="UTF-8"?><svg viewBox="0 0 130 130" version="1.1" xmlns="http://www.w3.org/2000/svg" xmlns:xlink="http://www.w3.org/1999/xlink">
  <title>mouse</title>
  <g id="strokes" stroke="none" stroke-width="1" fill="none" fill-rule="evenodd">
    <g id="mouse" transform="translate(1.000000, 1.000000)">
      <g id="Group" stroke="#979797" stroke-opacity="0.01" stroke-width="0.1">
        <g id="Rectangle">
          <rect x="0" y="0" width="128" height="128"></rect>
        </g>
      </g>
      <path d="M32.5,56.5 L32.5,80.5 C32.5,98.173112 46.826888,112.5 64.5,112.5 C82.173112,112.5 96.5,98.173112 96.5,80.5 L96.5,48.5 C96.5,30.826888 82.173112,16.5 64.5,16.5 C46.826888,16.5 32.5,30.826888 32.5,48.5 L32.5,48.5 L32.5,48.5" id="Path" stroke="#000000" stroke-width="3"></path>
      <path d="M64.5,24.5 L64.5,32.5 L64,32.5 C59.581722,32.5 56,36.081722 56,40.5 L56,48.5 C56,52.918278 59.581722,56.5 64,56.5 L64.5,56.5 C68.918278,56.5 72.5,52.918278 72.5,48.5 L72.5,48 L72.5,48 M72.5,41 L72.5,40.5 C72.5,36.081722 68.918278,32.5 64.5,32.5 L64.5,32.5 L64.5,32.5" id="Shape" stroke="#000000" stroke-width="3" transform="translate(64.250000, 40.500000) scale(-1, 1) translate(-64.250000, -40.500000)"></path>
      <line x1="64.5" y1="56.5" x2="64.5" y2="64.5" id="Path-121" stroke="#000000" stroke-width="3"></line>
    </g>
  </g>
</svg>
