<?xml version="1.0" encoding="UTF-8"?><svg viewBox="0 0 130 130" version="1.1" xmlns="http://www.w3.org/2000/svg" xmlns:xlink="http://www.w3.org/1999/xlink">
  <title>musical-notes</title>
  <g id="strokes" stroke="none" stroke-width="1" fill="none" fill-rule="evenodd">
    <g id="musical-notes" transform="translate(1.000000, 1.000000)">
      <g id="Group" stroke="#979797" stroke-opacity="0.01" stroke-width="0.1">
        <g id="Rectangle">
          <rect x="0" y="0" width="128" height="128"></rect>
        </g>
      </g>
      <path d="M56.2403811,104.968911 C56.9903811,103.669873 57.5,101.968466 57.5,100.5 C57.5,93.872583 50.336556,88.5 41.5,88.5 C32.663444,88.5 25.5,93.872583 25.5,100.5 C25.5,107.127417 32.663444,112.5 41.5,112.5 C43.7453486,112.5 45.8826717,112.153116 47.8218949,111.526903" id="Path" stroke="#000000" stroke-width="3" transform="translate(41.500000, 100.500000) rotate(-30.000000) translate(-41.500000, -100.500000)"></path>
      <path d="M101.94306,69.1457682 C99.008728,66.4635799 94.5546241,64.7524047 89.5676316,64.7524047 C80.7310756,64.7524047 73.5676316,70.1249877 73.5676316,76.7524047 C73.5676316,83.3798217 80.7310756,88.7524047 89.5676316,88.7524047 C96.3779188,88.7524047 102.248592,85.2856321 104.558013,80.7883031" id="Path" stroke="#000000" stroke-width="3" transform="translate(89.062822, 76.752405) rotate(-30.000000) translate(-89.062822, -76.752405)"></path>
      <path d="M56.5,97 L56.5,36.8245553 C56.5,34.2419729 58.1525806,31.9491398 60.6026334,31.1324555 L101.867544,17.3774852 C102.915431,17.0281896 104.048071,17.5945096 104.397367,18.6423962 C104.465344,18.8463292 104.5,19.0598876 104.5,19.2748518 L104.5,73 L104.5,73" id="Path-156" stroke="#000000" stroke-width="3"></path>
      <line x1="72.4297288" y1="43.1900904" x2="104.5" y2="32.5" id="Path-157" stroke="#000000" stroke-width="3"></line>
    </g>
  </g>
</svg>
