<?xml version="1.0" encoding="UTF-8"?>
<svg width="130px" height="130px" viewBox="0 0 130 130" version="1.1" xmlns="http://www.w3.org/2000/svg" xmlns:xlink="http://www.w3.org/1999/xlink">
    <title>next</title>
    <g id="strokes" stroke="none" stroke-width="1" fill="none" fill-rule="evenodd">
        <g id="next" transform="translate(1.000000, 1.000000)">
            <g id="Group" stroke="#979797" stroke-opacity="0.01" stroke-width="0.1">
                <g id="Rectangle">
                    <rect x="0" y="0" width="128" height="128"></rect>
                </g>
            </g>
            <path d="M60.7066373,77.7176384 L31.7787759,101.773439 C30.9294898,102.479687 29.6684799,102.363732 28.9622315,101.514446 C28.6635344,101.155254 28.5,100.702831 28.5,100.23567 L28.5,28.7700832 C28.5,27.6655137 29.3954305,26.7700832 30.5,26.7700832 C30.967873,26.7700832 31.4209388,26.9341157 31.7803688,27.2336407 L73.6214752,62.1012293 C75.4454159,63.6211799 76.5,65.8727608 76.5,68.2469996 L76.5,102.5 C76.5,103.604569 77.3954305,104.5 78.5,104.5 L97.5,104.5 C99.1568542,104.5 100.5,103.156854 100.5,101.5 L100.5,27.5 C100.5,25.8431458 99.1568542,24.5 97.5,24.5 L79.5,24.5 C77.8431458,24.5 76.5,25.8431458 76.5,27.5 L76.5,40.5 L76.5,40.5" id="Path-174" stroke="#000000" stroke-width="3"></path>
        </g>
    </g>
</svg>