<?xml version="1.0" encoding="UTF-8"?><svg viewBox="0 0 130 130" version="1.1" xmlns="http://www.w3.org/2000/svg" xmlns:xlink="http://www.w3.org/1999/xlink">
  <title>numbered-list</title>
  <g id="strokes" stroke="none" stroke-width="1" fill="none" fill-rule="evenodd">
    <g id="numbered-list" transform="translate(1.000000, 1.000000)">
      <g id="Group" stroke="#979797" stroke-opacity="0.01" stroke-width="0.1">
        <g id="Rectangle">
          <rect x="0" y="0" width="128" height="128"></rect>
        </g>
      </g>
      <path d="M15.5,57.5 L20.5,57.5 C22.709139,57.5 24.5,59.290861 24.5,61.5 C24.5,63.709139 22.709139,65.5 20.5,65.5 C18.290861,65.5 16.5,67.290861 16.5,69.5 L16.5,71.5 L16.5,71.5 L25.5,71.5" id="Path-208" stroke="#000000" stroke-width="3"></path>
      <path d="M16.5,37 L18.7525907,34.4658355 C19.1195087,34.0530527 19.7515811,34.015872 20.1643638,34.38279 C20.3778522,34.5725574 20.5,34.8445615 20.5,35.1301993 L20.5,46.5 L20.5,46.5 L15.5,46.5 L25.5,46.5" id="Path-209" stroke="#000000" stroke-width="3"></path>
      <path d="M15.5,82.5 L22.8698007,82.5 C23.4220854,82.5 23.8698007,82.9477153 23.8698007,83.5 C23.8698007,83.7856378 23.7476529,84.0576419 23.5341645,84.2474093 L18.4658355,88.7525907 C18.0530527,89.1195087 18.015872,89.7515811 18.38279,90.1643638 C18.5725574,90.3778522 18.8445615,90.5 19.1301993,90.5 L21.5,90.5 C23.709139,90.5 25.5,92.290861 25.5,94.5 C25.5,96.709139 23.709139,98.5 21.5,98.5 L15.5,98.5 L15.5,98.5" id="Path-210" stroke="#000000" stroke-width="3"></path>
      <line x1="32.5" y1="40.5" x2="112.5" y2="40.5" id="Path-211" stroke="#000000" stroke-width="3"></line>
      <line x1="32.5" y1="64.5" x2="112.5" y2="64.5" id="Path-212" stroke="#000000" stroke-width="3"></line>
      <line x1="32.5" y1="88.5" x2="112.5" y2="88.5" id="Path-213" stroke="#000000" stroke-width="3"></line>
    </g>
  </g>
</svg>
