<?xml version="1.0" encoding="UTF-8"?><svg viewBox="0 0 130 130" version="1.1" xmlns="http://www.w3.org/2000/svg" xmlns:xlink="http://www.w3.org/1999/xlink">
  <title>numpad</title>
  <g id="strokes" stroke="none" stroke-width="1" fill="none" fill-rule="evenodd">
    <g id="numpad" transform="translate(1.000000, 1.000000)">
      <g id="Group" stroke="#979797" stroke-opacity="0.01" stroke-width="0.1">
        <g id="Rectangle">
          <rect x="0" y="0" width="128" height="128"></rect>
        </g>
      </g>
      <path d="M47.5,32.5 C47.5,28.6340068 44.3659932,25.5 40.5,25.5 C36.6340068,25.5 33.5,28.6340068 33.5,32.5 C33.5,36.3659932 36.1666667,39.5 40.5,39.5 C44.8333333,39.5 48.6666667,36.5 53,36.5 C56.6666667,36.5 59.5,39.5 64.5,39.5" id="Path" stroke="#000000" stroke-width="3"></path>
      <path d="M64.5,39.5 C68.3659932,39.5 71.5,36.3659932 71.5,32.5 C71.5,28.6340068 68.3659932,25.5 64.5,25.5 C60.6340068,25.5 57.5,28.6340068 57.5,32.5" id="Path" stroke="#000000" stroke-width="3"></path>
      <path d="M76.5,36.5 C80.5,36.5 84.6340068,39.5 88.5,39.5 C92.3659932,39.5 95.5,36.3659932 95.5,32.5 C95.5,28.6340068 92.3659932,25.5 88.5,25.5 C84.6340068,25.5 81.5,28.6340068 81.5,32.5" id="Path" stroke="#000000" stroke-width="3"></path>
      <path d="M64.5,63.5 C68.5,63.5 72.5,60 76.5,60 C80.5,60 84.5,63.5 88.5,63.5 C92.5,63.5 95.5,60.3659932 95.5,56.5 C95.5,52.6340068 92.3659932,49.5 88.5,49.5 C84.6340068,49.5 81.5,52.6340068 81.5,56.5" id="Path" stroke="#000000" stroke-width="3"></path>
      <path d="M71.5,56.5 C71.5,52.6340068 68.3659932,49.5 64.5,49.5 C60.6340068,49.5 57.5,52.6340068 57.5,56.5 C57.5,60.3659932 60.6340068,63.5 64.5,63.5" id="Path" stroke="#000000" stroke-width="3"></path>
      <path d="M47.5,80.5 C47.5,76 44.5,72.3333333 44.5,68.5 C44.5,64.3333333 47.5,60.6666667 47.5,56.5 C47.5,52.3333333 44.3659932,49.5 40.5,49.5 C36.6340068,49.5 33.5,52.6340068 33.5,56.5 C33.5,60.3659932 36.6340068,63.5 40.5,63.5" id="Path" stroke="#000000" stroke-width="3"></path>
      <path d="M40.5,73.5 C36.6340068,73.5 33.5,76.6340068 33.5,80.5 C33.5,84.3659932 36.6340068,87.5 40.5,87.5 C44.3659932,87.5 47.5,84.3659932 47.5,80.5" id="Path" stroke="#000000" stroke-width="3"></path>
      <path d="M64.5,87.5 C68.3659932,87.5 71.5,84.3659932 71.5,80.5 C71.5,76.6340068 68.3659932,73.5 64.5,73.5 C60.6340068,73.5 57.5,76.6340068 57.5,80.5" id="Path" stroke="#000000" stroke-width="3"></path>
      <path d="M57.5,80.5 C57.5,83.5 60.5,88.1666667 60.5,92 C60.5,96.1666667 57.5,100.333333 57.5,104.5 C57.5,108.666667 60.6340068,111.5 64.5,111.5 C68.3659932,111.5 71.5,108.365993 71.5,104.5 C71.5,100.634007 68.3659932,97.5 64.5,97.5" id="Path" stroke="#000000" stroke-width="3"></path>
      <path d="M76.5,84 C80,84 84.6340068,87.5 88.5,87.5 C92.3659932,87.5 95.5,84.3659932 95.5,80.5 C95.5,76.6340068 92.3659932,73.5 88.5,73.5 C84.6340068,73.5 81.5,76.6340068 81.5,80.5" id="Path" stroke="#000000" stroke-width="3"></path>
    </g>
  </g>
</svg>
