<?xml version="1.0" encoding="UTF-8"?><svg viewBox="0 0 130 130" version="1.1" xmlns="http://www.w3.org/2000/svg" xmlns:xlink="http://www.w3.org/1999/xlink">
  <title>package</title>
  <g id="strokes" stroke="none" stroke-width="1" fill="none" fill-rule="evenodd">
    <g id="package" transform="translate(1.000000, 1.000000)">
      <g id="Group" stroke="#979797" stroke-opacity="0.01" stroke-width="0.1">
        <g id="Rectangle">
          <rect x="0" y="0" width="128" height="128"></rect>
        </g>
      </g>
      <path d="M112.5,44.5 L112.5,87.1014844 C112.5,90.1077595 110.814609,92.8602515 108.136965,94.226966 L68.8638617,114.272612 C67.3881262,115.025852 65.5811844,114.440154 64.8279444,112.964418 C64.6123868,112.542101 64.5,112.074705 64.5,111.600557 L64.5,65.4442719 C64.5,62.4140954 66.212019,59.6439905 68.9222912,58.2888544 L108.922291,38.2888544 C109.910248,37.7948759 110.310697,36.5935298 109.816718,35.6055728 C109.623191,35.218518 109.309346,34.904673 108.922291,34.7111456 L68.0777088,14.2888544 C65.8254888,13.1627444 63.1745112,13.1627444 60.9222912,14.2888544 L40.7644077,24.3677962 L40.7644077,24.3677962 L72.5,40.5 L40.3929462,24.5535269 L20.0739769,34.7130115 C19.0860199,35.20699 18.6855712,36.4083361 19.1795497,37.3962931 C19.3728216,37.7828368 19.6861011,38.0963781 20.0724832,38.2899727 L56.4131341,56.4982519 L56.4131341,56.4982519 L19.3959209,37.9509849 C18.4083768,37.4561815 17.2066967,37.8556267 16.7118932,38.8431708 C16.5725531,39.1212702 16.5,39.4280371 16.5,39.7390917 L16.5,87.5557281 C16.5,90.5859046 18.212019,93.3560095 20.9222912,94.7111456 L56.6069415,112.553471 L56.6069415,112.553471" id="Path-332" stroke="#000000" stroke-width="3"></path>
      <path d="M76.5,96.5 L91.3944272,89.0527864 C92.0719952,88.7140024 92.5,88.0214761 92.5,87.263932 L92.5,74.118034 C92.5,73.5657492 92.0522847,73.118034 91.5,73.118034 C91.3447549,73.118034 91.1916418,73.1541791 91.0527864,73.2236068 L77.6055728,79.9472136 C76.9280048,80.2859976 76.5,80.9785239 76.5,81.736068 L76.5,88.5 L76.5,88.5" id="Path-336" stroke="#000000" stroke-width="3"></path>
    </g>
  </g>
</svg>
