<?xml version="1.0" encoding="UTF-8"?><svg viewBox="0 0 130 130" version="1.1" xmlns="http://www.w3.org/2000/svg" xmlns:xlink="http://www.w3.org/1999/xlink">
  <title>paper-plane</title>
  <g id="strokes" stroke="none" stroke-width="1" fill="none" fill-rule="evenodd">
    <g id="paper-plane" transform="translate(1.000000, 1.000000)">
      <g id="Group" stroke="#979797" stroke-opacity="0.01" stroke-width="0.1">
        <g id="Rectangle">
          <rect x="0" y="0" width="128" height="128"></rect>
        </g>
      </g>
      <path d="M88,64 L27.1990399,56.8187842 C25.569914,56.6263678 24.2234197,55.4587564 23.8022791,53.8732862 L16.5176271,26.4487138 C16.3758431,25.9149388 16.6936146,25.36729 17.2273896,25.225506 C17.4386492,25.1693902 17.6624768,25.1840399 17.8646198,25.2672133 L109.780482,63.0867608 C110.291223,63.2969093 110.534901,63.8813055 110.324752,64.3920462 C110.224385,64.6359772 110.031706,64.8303742 109.788675,64.9329028 L17.8786359,103.70745 C17.3697805,103.922124 16.7832446,103.683642 16.5685712,103.174787 C16.4824256,102.97059 16.4665542,102.743561 16.5234503,102.529364 L23.7851758,75.1911029 C24.2148042,73.5736784 25.6059063,72.3946756 27.2718799,72.2360114 L53.5112613,69.7370227 C54.9223553,69.6026328 56,68.4174791 56,67 C56,65.6192881 54.8807119,64.5 53.5,64.5 L24.5,64.5 L24.5,64.5" id="Path-36" stroke="#000000" stroke-width="3"></path>
    </g>
  </g>
</svg>
