<?xml version="1.0" encoding="UTF-8"?>
<svg width="130px" height="130px" viewBox="0 0 130 130" version="1.1" xmlns="http://www.w3.org/2000/svg" xmlns:xlink="http://www.w3.org/1999/xlink">
    <title>paperclip</title>
    <g id="strokes" stroke="none" stroke-width="1" fill="none" fill-rule="evenodd">
        <g id="paperclip" transform="translate(1.000000, 1.000000)">
            <g id="Group" stroke="#979797" stroke-opacity="0.01" stroke-width="0.1">
                <g id="Rectangle">
                    <rect x="0" y="0" width="128" height="128"></rect>
                </g>
            </g>
            <path d="M88.5,40.5 L42.5,86.5 C39.1862915,89.8137085 39.1862915,95.1862915 42.5,98.5 C45.8172839,101.817284 51.1925971,101.827201 54.5220992,98.5221809 L104.329694,49.080818 C111.06416,42.3958709 111.140226,31.5285643 104.5,24.75 C97.9405547,18.0538996 87.1948118,17.9431187 80.4987114,24.502564 C80.4570483,24.5433769 80.4155958,24.5844042 80.3743557,24.6256443 L30.5,74.5 C20.5588745,84.4411255 20.5588745,100.558875 30.5,110.5 C40.4411255,120.441125 56.5588745,120.441125 66.5,110.5 L104.5,72.5 L104.5,72.5" id="Path-169" stroke="#000000" stroke-width="3"></path>
        </g>
    </g>
</svg>