<?xml version="1.0" encoding="UTF-8"?><svg viewBox="0 0 130 130" version="1.1" xmlns="http://www.w3.org/2000/svg" xmlns:xlink="http://www.w3.org/1999/xlink">
  <title>pause</title>
  <g id="strokes" stroke="none" stroke-width="1" fill="none" fill-rule="evenodd">
    <g id="pause" transform="translate(1.000000, 1.000000)">
      <g id="Group" stroke="#979797" stroke-opacity="0.01" stroke-width="0.1">
        <g id="Rectangle">
          <rect x="0" y="0" width="128" height="128"></rect>
        </g>
      </g>
      <path d="M52.5,89 L52.5,19.5 C52.5,17.8431458 51.1568542,16.5 49.5,16.5 L39.5,16.5 C37.8431458,16.5 36.5,17.8431458 36.5,19.5 L36.5,109.5 C36.5,111.156854 37.8431458,112.5 39.5,112.5 L49.5,112.5 C51.1568542,112.5 52.5,111.156854 52.5,109.5 L52.5,104.5 L52.5,104.5" id="Path-171" stroke="#000000" stroke-width="3"></path>
      <path d="M92,16.5 L79.5,16.5 C77.8431458,16.5 76.5,17.8431458 76.5,19.5 L76.5,109.5 C76.5,111.156854 77.8431458,112.5 79.5,112.5 L89,112.5 C90.6568542,112.5 92,111.156854 92,109.5 L92,40 L92,40" id="Path-172" stroke="#000000" stroke-width="3"></path>
    </g>
  </g>
</svg>
