<?xml version="1.0" encoding="UTF-8"?><svg viewBox="0 0 130 130" version="1.1" xmlns="http://www.w3.org/2000/svg" xmlns:xlink="http://www.w3.org/1999/xlink">
  <title>paw</title>
  <g id="strokes" stroke="none" stroke-width="1" fill="none" fill-rule="evenodd">
    <g id="paw" transform="translate(1.000000, 1.000000)">
      <g id="Group" stroke="#979797" stroke-opacity="0.01" stroke-width="0.1">
        <g id="Rectangle">
          <rect x="0" y="0" width="128" height="128"></rect>
        </g>
      </g>
      <path d="M47.5257241,64.5954186 C46.2432756,67.805763 33.0652924,85.0167999 31,88 C26.5,94.5 27.5,112.5 44.5,112.5 C52.6465164,112.5 76.6881027,112.5 84.5,112.5 C99.5,112.5 103.5,97 97.5,87.5 C95.2053925,83.8668714 78.5,48.5 64.5,48.5 C56,48.5 40.5,50.5 40.5,30.5" id="Path" stroke="#000000" stroke-width="3"></path>
      <path d="M34.6406925,66.6326226 C35.8112091,64.3402352 36.5,61.5327306 36.5,58.5 C36.5,50.7680135 32.0228475,44.5 26.5,44.5 C20.9771525,44.5 16.5,50.7680135 16.5,58.5 C16.5,66.2319865 20.9771525,72.5 26.5,72.5" id="Path" stroke="#000000" stroke-width="3"></path>
      <path d="M58.041202,39.6946206 C59.5725598,37.2349629 60.5,34.0191121 60.5,30.5 C60.5,22.7680135 56.0228475,16.5 50.5,16.5 C44.9771525,16.5 40.5,22.7680135 40.5,30.5" id="Path" stroke="#000000" stroke-width="3"></path>
      <path d="M86.6115234,38.6894488 C87.7997577,36.3867033 88.5,33.5578369 88.5,30.5 C88.5,22.7680135 84.0228475,16.5 78.5,16.5 C72.9771525,16.5 68.5,22.7680135 68.5,30.5 C68.5,38.2319865 72.9771525,44.5 78.5,44.5" id="Path" stroke="#000000" stroke-width="3"></path>
      <path d="M111.232623,65.3266698 C112.039853,63.3071008 112.5,60.9787815 112.5,58.5 C112.5,50.7680135 108.022847,44.5 102.5,44.5 C96.9771525,44.5 92.5,50.7680135 92.5,58.5 C92.5,66.2319865 96.9771525,72.5 102.5,72.5" id="Path" stroke="#000000" stroke-width="3"></path>
    </g>
  </g>
</svg>
