<?xml version="1.0" encoding="UTF-8"?>
<svg width="130px" height="130px" viewBox="0 0 130 130" version="1.1" xmlns="http://www.w3.org/2000/svg" xmlns:xlink="http://www.w3.org/1999/xlink">
    <title>people</title>
    <g id="strokes" stroke="none" stroke-width="1" fill="none" fill-rule="evenodd">
        <g id="people" transform="translate(1.000000, 1.000000)">
            <g id="Group" stroke="#979797" stroke-opacity="0.01" stroke-width="0.1">
                <g id="Rectangle">
                    <rect x="0" y="0" width="128" height="128"></rect>
                </g>
            </g>
            <path d="M80.5,112.5 L80.5,80.5 C80.5,71.663444 73.336556,64.5 64.5,64.5 L48.5,64.5 L48.5,64.5 C58.7172679,64.5 67,53.754834 67,40.5 C67,27.245166 58.7172679,16.5 48.5,16.5 C38.2827321,16.5 30,27.245166 30,40.5 C30,50.1592762 34.3985973,58.4857774 40.7390403,62.2923664" id="Path" stroke="#000000" stroke-width="3"></path>
            <path d="M112.5,112.5 L112.5,80.5 C112.5,71.663444 105.336556,64.5 96.5,64.5 L80.5,64.5 L80.5,64.5 C90.7172679,64.5 99,53.754834 99,40.5 C99,27.245166 90.7172679,16.5 80.5,16.5 C77.4818712,16.5 74.6325464,17.4376033 72.1156543,19.1005348" id="Path-Copy" stroke="#000000" stroke-width="3"></path>
            <path d="M16.5,112.5 L16.5,80.5 C16.5,71.663444 23.663444,64.5 32.5,64.5 L33,64.5 L33,64.5 L46.8786797,78.3786797 C48.0502525,79.5502525 49.9497475,79.5502525 51.1213203,78.3786797 L57,72.5 L57,72.5" id="Path-47" stroke="#000000" stroke-width="3"></path>
        </g>
    </g>
</svg>