<?xml version="1.0" encoding="UTF-8"?>
<svg width="130px" height="130px" viewBox="0 0 130 130" version="1.1" xmlns="http://www.w3.org/2000/svg" xmlns:xlink="http://www.w3.org/1999/xlink">
    <title>people</title>
    <g id="strokes" stroke="none" stroke-width="1" fill="none" fill-rule="evenodd">
        <g id="people" transform="translate(1.000000, 1.000000)">
            <g id="Group" stroke="#979797" stroke-opacity="0.01" stroke-width="0.1">
                <g id="Rectangle">
                    <rect x="0" y="0" width="128" height="128"></rect>
                </g>
            </g>
            <path d="M47.5,64 C57.7172679,64 66,53.254834 66,40 C66,26.745166 57.7172679,16 47.5,16 C37.2827321,16 29,26.745166 29,40 C29,49.6592762 33.3985973,57.9857774 39.7390403,61.7923664" id="Path" stroke="#000000" stroke-width="3"></path>
            <path d="M79.5,64 C89.7172679,64 98,53.254834 98,40 C98,26.745166 89.7172679,16 79.5,16 C76.4818712,16 73.6325464,16.9376033 71.1156543,18.6005348" id="Path-Copy" stroke="#000000" stroke-width="3"></path>
            <path d="M48,64 L64,64 C72.836556,64 80,71.163444 80,80 L80,80 L80,80 L80,113" id="Path-46" stroke="#000000" stroke-width="3"></path>
            <path d="M80,64 L96,64 C104.836556,64 112,71.163444 112,80 L112,80 L112,80 L112,113" id="Path-46-Copy" stroke="#000000" stroke-width="3"></path>
            <path d="M16,111.5 L16,80 C16,71.163444 23.163444,64 32,64 L32,64 L32,64 L48,80 L56,72" id="Path-47" stroke="#000000" stroke-width="3"></path>
        </g>
    </g>
</svg>