<?xml version="1.0" encoding="UTF-8"?><svg viewBox="0 0 130 130" version="1.1" xmlns="http://www.w3.org/2000/svg" xmlns:xlink="http://www.w3.org/1999/xlink">
  <title>person-with-mustache</title>
  <g id="strokes" stroke="none" stroke-width="1" fill="none" fill-rule="evenodd">
    <g id="person-with-mustache" transform="translate(1.000000, 1.000000)">
      <g id="Group" stroke="#979797" stroke-opacity="0.01" stroke-width="0.1">
        <g id="Rectangle">
          <rect x="0" y="0" width="128" height="128"></rect>
        </g>
      </g>
      <path d="M112.5,112.5 C112.5,101.61999 103.68001,92.8 92.8,92.8 L64.5,92.8 C71.7886317,92.8 78.5628351,89.3151131 83.7078049,83.6711687 C77.3119346,89.7026075 70.9093329,92.7455513 64.5,92.8 C58.0906671,92.8544487 51.5906671,89.9211154 45,84 M93.3,58 C93.3,39.1118616 80.0744299,25.6 64.5,25.6 C48.9255701,25.6 35.7,39.1118616 35.7,58" id="Shape" stroke="#000000" stroke-width="3"></path>
      <path d="M16.5,112 C16.5,101.230447 25.2304474,92.5 36,92.5 L36.3,92.5 L36.3,92.5" id="Path-47" stroke="#000000" stroke-width="3"></path>
      <path d="M32.5,64.5 L32.5,69.1862915 C32.5,71.7744588 34.5981242,73.872583 37.1862915,73.872583 C38.4291733,73.872583 39.6211499,73.3788501 40.5,72.5 L46.1568542,66.8431458 C47.6571453,65.3428547 49.6919766,64.5 51.8137085,64.5 L56.5,64.5 C60.918278,64.5 64.5,68.081722 64.5,72.5 L64.5,72.5 L64.5,72.5 C64.5,68.081722 68.081722,64.5 72.5,64.5 L77.1862915,64.5 C79.3080234,64.5 81.3428547,65.3428547 82.8431458,66.8431458 L88.5,72.5 C90.3301107,74.3301107 93.2973063,74.3301107 95.127417,72.5 C96.0062671,71.6211499 96.5,70.4291733 96.5,69.1862915 L96.5,64.5 L96.5,64.5" id="Path-346" stroke="#000000" stroke-width="3"></path>
    </g>
  </g>
</svg>
