<?xml version="1.0" encoding="UTF-8"?>
<svg width="130px" height="130px" viewBox="0 0 130 130" version="1.1" xmlns="http://www.w3.org/2000/svg" xmlns:xlink="http://www.w3.org/1999/xlink">
    <title>person-with-tie</title>
    <g id="strokes" stroke="none" stroke-width="1" fill="none" fill-rule="evenodd">
        <g id="person-with-tie" transform="translate(1.000000, 1.000000)">
            <g id="Group" stroke="#979797" stroke-opacity="0.01" stroke-width="0.1">
                <g id="Rectangle">
                    <rect x="0" y="0" width="128" height="128"></rect>
                </g>
            </g>
            <path d="M64.5,72.5 C77.4786916,72.5 88.5,59.2401154 88.5,43.5 C88.5,27.7598846 77.4786916,16 64.5,16 C51.5213084,16 40.5,27.7598846 40.5,43.5 C40.5,54.9703905 45.5874074,64.8581106 53.6414837,69.3784351" id="Path" stroke="#000000" stroke-width="3"></path>
            <path d="M56.5,112.5 L63.5415265,91.3754206 C63.7161742,90.8514773 64.2824942,90.5683173 64.8064375,90.7429651 C65.1070914,90.843183 65.3424436,91.0799836 65.4408152,91.3812466 L72.5,113 L72.5,113 L64.6905255,89.0834844 C64.5736397,88.7255215 64.6677539,88.3322461 64.9340242,88.0659758 L72.5,80.5 L72.5,80.5 L65.2302845,87.7697155 C64.8397602,88.1602398 64.2065952,88.1602398 63.8160709,87.7697155 C63.8084701,87.7621147 63.8009923,87.7543918 63.7936405,87.7465499 L57.6411948,81.1839411 C57.2805777,80.7992829 57.2805777,80.2007171 57.6411948,79.8160589 L64.5,72.5 L64.5,72.5 L84,72.5 C95.3218374,72.5 104.5,81.6781626 104.5,93 L104.5,93 L104.5,93 L104.5,112.5" id="Path-46" stroke="#000000" stroke-width="3"></path>
            <path d="M24.5,113 L24.5,93 L24.5,89 C24.5,79.8873016 31.8873016,72.5 41,72.5 L41,72.5 L41,72.5" id="Path-47" stroke="#000000" stroke-width="3"></path>
        </g>
    </g>
</svg>