<?xml version="1.0" encoding="UTF-8"?>
<svg width="130px" height="130px" viewBox="0 0 130 130" version="1.1" xmlns="http://www.w3.org/2000/svg" xmlns:xlink="http://www.w3.org/1999/xlink">
    <title>person</title>
    <g id="strokes" stroke="none" stroke-width="1" fill="none" fill-rule="evenodd">
        <g id="person" transform="translate(1.000000, 1.000000)">
            <g id="Group" stroke="#979797" stroke-opacity="0.01" stroke-width="0.1">
                <g id="Rectangle">
                    <rect x="0" y="0" width="128" height="128"></rect>
                </g>
            </g>
            <path d="M64.5,72.5 C77.4786916,72.5 88.5,59.2401154 88.5,43.5 C88.5,27.7598846 77.4786916,16 64.5,16 C51.5213084,16 40.5,27.7598846 40.5,43.5 C40.5,54.9703905 45.5874074,64.8581106 53.6414837,69.3784351" id="Path" stroke="#000000" stroke-width="3"></path>
            <path d="M64.5,72.5 L84,72.5 C95.3218374,72.5 104.5,81.6781626 104.5,93 L104.5,93 L104.5,93 L104.5,112.5" id="Path-46" stroke="#000000" stroke-width="3"></path>
            <path d="M24.5,113 L24.5,93 L24.5,89 C24.5,79.8873016 31.8873016,72.5 41,72.5 L41,72.5 L41,72.5 L64.5,96.5 L76,84" id="Path-47" stroke="#000000" stroke-width="3"></path>
        </g>
    </g>
</svg>