<?xml version="1.0" encoding="UTF-8"?><svg viewBox="0 0 130 130" version="1.1" xmlns="http://www.w3.org/2000/svg" xmlns:xlink="http://www.w3.org/1999/xlink">
  <title>person-with-hat</title>
  <g id="strokes" stroke="none" stroke-width="1" fill="none" fill-rule="evenodd">
    <g id="person-with-hat" transform="translate(1.000000, 1.000000)">
      <g id="Group" stroke="#979797" stroke-opacity="0.01" stroke-width="0.1">
        <g id="Rectangle">
          <rect x="0" y="0" width="128" height="128"></rect>
        </g>
      </g>
      <path d="M104.5,112.5 L104.5,100.5 C104.5,89.454305 95.545695,80.5 84.5,80.5 L64.5,80.5 C77.4786916,80.5 88.5,67.2401154 88.5,51.5 C88.5,49.054678 88.2339952,46.7054209 87.7359717,44.4813993 M41.4265671,43.7929488 C40.8240908,46.2187709 40.5,48.8008645 40.5,51.5 C40.5,62.9703905 45.5874074,72.8581106 53.6414837,77.3784351" id="Shape" stroke="#000000" stroke-width="3"></path>
      <path d="M24.5,112.5 L24.5,101 L24.5,97 C24.5,87.8873016 31.8873016,80.5 41,80.5 L41,80.5 L41,80.5 L62.3789159,102.333786 C63.5380922,103.517626 65.437482,103.53762 66.6213216,102.378443 C66.6288425,102.371079 66.6363246,102.363675 66.6437676,102.356232 L72.5,96.5 L72.5,96.5" id="Path-47" stroke="#000000" stroke-width="3"></path>
      <path d="M24.5,40.5 C37.8333333,43.8333333 51.1666667,45.5 64.5,45.5 C77.7037759,45.5 90.9075518,43.8655653 104.111328,40.596696 C104.16473,40.5832 104.197343,40.529126 104.184107,40.4756591 C104.175235,40.4398264 104.147297,40.4118243 104.111485,40.4028712 L88.5,36.5 L88.5,36.5 L88.5,21.4564776 C88.4999956,17.038202 84.9182755,13.456482 80.5,13.456482 C79.4175193,13.456482 78.346298,13.6761651 77.3511936,14.1022307 C72.060716,16.3674102 67.7769847,17.5 64.5,17.5 C61.223015,17.5 56.9392834,16.3674101 51.6488052,14.1022302 C47.5871649,12.3631948 42.8847869,14.246035 41.1457488,18.3076741 C40.7196832,19.3027787 40.5,20.3740001 40.5,21.4564811 L40.5,32.5 L40.5,32.5 C48.5,34.5 56.5,35.5 64.5,35.5 C69.8760071,35.5 75.2520142,35.0484148 80.6280212,34.1452444" id="Path-340" stroke="#000000" stroke-width="3"></path>
    </g>
  </g>
</svg>
