<?xml version="1.0" encoding="UTF-8"?><svg viewBox="0 0 130 130" version="1.1" xmlns="http://www.w3.org/2000/svg" xmlns:xlink="http://www.w3.org/1999/xlink">
  <title>person-with-headphones</title>
  <g id="strokes" stroke="none" stroke-width="1" fill="none" fill-rule="evenodd">
    <g id="person-with-headphones" transform="translate(1.000000, 1.000000)">
      <g id="Group" stroke="#979797" stroke-opacity="0.01" stroke-width="0.1">
        <g id="Rectangle">
          <rect x="0" y="0" width="128" height="128"></rect>
        </g>
      </g>
      <path d="M104.5,112.5 L104.5,108.5 C104.5,97.454305 95.545695,88.5 84.5,88.5 L64.5,88.5 L64.5,88.5 C77.4786916,88.5 88.5,75.2401154 88.5,59.5 C88.5,43.7598846 77.4786916,32 64.5,32 C51.5213084,32 40.5,43.7598846 40.5,59.5 C40.5,70.9703905 45.5874074,80.8581106 53.6414837,85.3784351" id="Path" stroke="#000000" stroke-width="3"></path>
      <path d="M24.5,112.5 L24.5,109 L24.5,105 C24.5,95.8873016 31.8873016,88.5 41,88.5 L41,88.5 L41,88.5" id="Path-47" stroke="#000000" stroke-width="3"></path>
      <path d="M32.5,56.5 L32.5,72.5 L30.5,72.5 C27.1862915,72.5 24.5,69.8137085 24.5,66.5 L24.5,54.5 C24.5,51.1862915 27.1862915,48.5 30.5,48.5 L32.5,48.5 L32.5,48.5 C32.5,30.826888 46.826888,16.5 64.5,16.5 C82.173112,16.5 96.5,30.826888 96.5,48.5 L96.5,48.5 L96.5,48.5 L98.5,48.5 C101.813708,48.5 104.5,51.1862915 104.5,54.5 L104.5,66.5 C104.5,69.8137085 101.813708,72.5 98.5,72.5 L96.5,72.5 L96.5,72.5 L96.5,56.5" id="Path-339" stroke="#000000" stroke-width="3"></path>
    </g>
  </g>
</svg>
