<?xml version="1.0" encoding="UTF-8"?>
<svg width="130px" height="130px" viewBox="0 0 130 130" version="1.1" xmlns="http://www.w3.org/2000/svg" xmlns:xlink="http://www.w3.org/1999/xlink">
    <title>person-with-bow-tie</title>
    <g id="strokes" stroke="none" stroke-width="1" fill="none" fill-rule="evenodd">
        <g id="person-with-bow-tie" transform="translate(1.000000, 1.000000)">
            <g id="Group" stroke="#979797" stroke-opacity="0.01" stroke-width="0.1">
                <g id="Rectangle">
                    <rect x="0" y="0" width="128" height="128"></rect>
                </g>
            </g>
            <path d="M56.5,80.5 L63.6697536,73.3302464 C64.1938684,72.8061145 64.8934677,72.4945773 65.633669,72.4556868 C66.0500905,72.4338078 66.3905288,72.407833 66.654984,72.3777622 C78.6755572,71.0109242 88.5,58.3609064 88.5,43.5 C88.5,27.7598846 77.4786916,16 64.5,16 C51.5213084,16 40.5,27.7598846 40.5,43.5 C40.5,54.9703905 45.5874074,64.8581106 53.6414837,69.3784351" id="Path" stroke="#000000" stroke-width="3"></path>
            <path d="M80.5,80.5 L87.5115505,73.4884495 C88.1806112,72.8193709 89.1261177,72.5051627 90.0625689,72.6406899 C90.2154993,72.6628227 90.3517913,72.6866195 90.4714451,72.7120804 C97.7630477,74.2636463 104.5,84.0547714 104.5,93 L104.5,112.5" id="Path-46" stroke="#000000" stroke-width="3"></path>
            <path d="M24.5,113 L24.5,93 L24.5,89 C24.5,80.8320266 30.4349966,74.0502459 38.2277661,72.7318815 C38.5639092,72.6750135 39.0011931,72.6257697 39.5396178,72.58415 C40.4469328,72.5140123 41.3370377,72.8595069 41.9594391,73.5234017 L48.5,80.5 L48.5,80.5" id="Path-47" stroke="#000000" stroke-width="3"></path>
            <path d="M71.5,80.5 L66.6115999,74.913257 C65.5205538,73.6663471 63.6252659,73.5399946 62.378356,74.6310408 C62.3282537,74.6748803 62.2796246,74.7203754 62.2325495,74.7674505 L42.2071068,94.7928932 C41.8165825,95.1834175 41.1834175,95.1834175 40.7928932,94.7928932 C40.6053568,94.6053568 40.5,94.3510029 40.5,94.0857864 L40.5,74.9142136 C40.5,74.3619288 40.9477153,73.9142136 41.5,73.9142136 C41.7652165,73.9142136 42.0195704,74.0195704 42.2071068,74.2071068 L48.4871722,80.4871722 L48.4871722,80.4871722 M56.4893089,88.4893089 L62.3786797,94.3786797 C63.5502525,95.5502525 65.4497475,95.5502525 66.6213203,94.3786797 L86.7928932,74.2071068 C87.1834175,73.8165825 87.8165825,73.8165825 88.2071068,74.2071068 C88.3946432,74.3946432 88.5,74.6489971 88.5,74.9142136 L88.5,94.4784228 C88.5,95.0307076 88.0522847,95.4784228 87.5,95.4784228 C87.22427,95.4784228 86.9607756,95.3645741 86.7718,95.1637875 L80.5,88.5 L80.5,88.5" id="Shape" stroke="#000000" stroke-width="3"></path>
        </g>
    </g>
</svg>