<?xml version="1.0" encoding="UTF-8"?>
<svg width="130px" height="130px" viewBox="0 0 130 130" version="1.1" xmlns="http://www.w3.org/2000/svg" xmlns:xlink="http://www.w3.org/1999/xlink">
    <title>person</title>
    <g id="strokes" stroke="none" stroke-width="1" fill="none" fill-rule="evenodd">
        <g id="person" transform="translate(1.000000, 1.000000)">
            <g id="Group" stroke="#979797" stroke-opacity="0.01" stroke-width="0.1">
                <g id="Rectangle">
                    <rect x="0" y="0" width="128" height="128"></rect>
                </g>
            </g>
            <path d="M63.5,72 C73.7172679,72 82,61.254834 82,48 C82,34.745166 73.7172679,24 63.5,24 C53.2827321,24 45,34.745166 45,48 C45,57.6592762 49.3985973,65.9857774 55.7390403,69.7923664" id="Path" stroke="#000000" stroke-width="3"></path>
            <path d="M64,72 L80,72 C88.836556,72 96,79.163444 96,88 L96,88 L96,88 L96,104.5" id="Path-46" stroke="#000000" stroke-width="3"></path>
            <path d="M32,104 L32,88 C32,79.163444 39.163444,72 48,72 L48,72 L48,72 L64,88 L72,80" id="Path-47" stroke="#000000" stroke-width="3"></path>
        </g>
    </g>
</svg>