<?xml version="1.0" encoding="UTF-8"?><svg viewBox="0 0 130 130" version="1.1" xmlns="http://www.w3.org/2000/svg" xmlns:xlink="http://www.w3.org/1999/xlink">
  <title>person-with-caps</title>
  <g id="strokes" stroke="none" stroke-width="1" fill="none" fill-rule="evenodd">
    <g id="person-with-caps" transform="translate(1.000000, 1.000000)">
      <g id="Group" stroke="#979797" stroke-opacity="0.01" stroke-width="0.1">
        <g id="Rectangle">
          <rect x="0" y="0" width="128" height="128"></rect>
        </g>
      </g>
      <path d="M24.5,112.5 L24.5,101 L24.5,97 C24.5,87.8873016 31.8873016,80.5 41,80.5 L41,80.5 L41,80.5" id="Path-47" stroke="#000000" stroke-width="3"></path>
      <path d="M104.5,112.5 L104.5,100.5 C104.5,89.454305 95.545695,80.5 84.5,80.5 L64.5,80.5 C77.4786916,80.5 88.5,67.2401154 88.5,51.5 C88.5,47.4663433 87.7950468,43.8799469 86.5,40.5 L86.5,38.75 M84.0595724,28.6083808 C80.3716836,21.4192963 72.8853234,16.5 64.25,16.5 C51.9616643,16.5 42,26.4616643 42,38.75 L42,40.5 C48.6666667,38.5 55.1666667,37.5 61.5,37.5 C67.4486327,37.5 75.1616759,38.3822052 84.6391296,40.1466157 C85.1820634,40.2477239 85.5402624,40.7698036 85.4391838,41.312743 C85.4022196,41.5112946 85.306,41.694 85.1631905,41.8368095 L76.7957421,50.2042579 C72.9364238,54.0635759 67.3760475,55.6893999 62.0455237,54.5171419 C55.9305882,53.1723806 51.7487469,52.5 49.5,52.5 C47.4420259,52.5 43.4130731,53.0631367 37.4131417,54.1894102 C35.7847297,54.4950847 34.2168416,53.4227958 33.9111653,51.7943842 C33.712063,50.733718 34.0979999,49.6478462 34.92184,48.9507508 L39,45.5 M40.5323456,53.0787637 C40.9762471,63.8722614 45.9593812,73.0668798 53.6414837,77.3784351" id="Shape" stroke="#000000" stroke-width="3"></path>
      <path d="M80.5,80.5 C80.5,89.336556 73.336556,96.5 64.5,96.5 C60.1782033,96.5 56.2566163,94.7864986 53.3775458,92.0018025" id="Path-341" stroke="#000000" stroke-width="3"></path>
    </g>
  </g>
</svg>
