<?xml version="1.0" encoding="UTF-8"?><svg viewBox="0 0 130 130" version="1.1" xmlns="http://www.w3.org/2000/svg" xmlns:xlink="http://www.w3.org/1999/xlink">
  <title>phone-down</title>
  <g id="strokes" stroke="none" stroke-width="1" fill="none" fill-rule="evenodd">
    <g id="phone-down" transform="translate(1.000000, 1.000000)">
      <g id="Group" stroke="#979797" stroke-opacity="0.01" stroke-width="0.1">
        <g id="Rectangle">
          <rect x="0" y="0" width="128" height="128"></rect>
        </g>
      </g>
      <path d="M52.5,64.5 L92.7842712,64.5 L84.5,64.5 L84.5,77.8622259 C84.5,79.3706614 85.620053,80.644523 87.116086,80.8375595 L112.116086,84.0633659 C113.759317,84.2753958 115.263304,83.1151777 115.475334,81.4719463 C115.491761,81.3446345 115.5,81.2163996 115.5,81.0880323 C115.5,75.5586882 115.5,70.0293441 115.5,64.5 C115.5,56.5 92.5,44 64.5,44 C36.5,44 13.5,56.5 13.5,64.5 C13.5,70.0293441 13.5,75.5586882 13.5,81.0880323 C13.5,82.7448866 14.8431458,84.0880323 16.5,84.0880323 C16.6283673,84.0880323 16.7566022,84.0797933 16.883914,84.0633659 L41.883914,80.8375595 C43.379947,80.644523 44.5,79.3706614 44.5,77.8622259 L44.5,66.5 C44.5,65.3954305 43.6045695,64.5 42.5,64.5 L36.2157288,64.5 L36.2157288,64.5" id="Path" stroke="#000000" stroke-width="3" transform="translate(64.500000, 64.250000) scale(-1, 1) translate(-64.500000, -64.250000)"></path>
    </g>
  </g>
</svg>
