<?xml version="1.0" encoding="UTF-8"?>
<svg width="130px" height="130px" viewBox="0 0 130 130" version="1.1" xmlns="http://www.w3.org/2000/svg" xmlns:xlink="http://www.w3.org/1999/xlink">
    <title>phone-beaming</title>
    <g id="strokes" stroke="none" stroke-width="1" fill="none" fill-rule="evenodd">
        <g id="phone-beaming" transform="translate(1.000000, 1.000000)">
            <g id="Group" stroke="#979797" stroke-opacity="0.01" stroke-width="0.1">
                <g id="Rectangle">
                    <rect x="0" y="0" width="128" height="128"></rect>
                </g>
            </g>
            <path d="M84.5,48.5 L88.5402208,48.5 C90.1970743,48.4999987 91.5402195,47.1568535 91.5402195,45.5 C91.5402195,45.004813 91.4176423,44.5173262 91.1834242,44.0810328 C90.4898342,42.789037 89.5274978,41.5274978 88.2964152,40.2964152 C86.4397278,38.4397278 84.5830404,37.2636043 82.7263531,36.7680447 C81.4134202,36.4176022 80.5,35.2284097 80.5,33.8695121 L80.5,28.4682495 C80.4999989,26.8113946 81.8431451,25.4682484 83.5,25.4682484 C83.8976269,25.4682484 84.2912869,25.5472943 84.6580922,25.7007905 C88.1462313,27.160464 91.7816522,29.7816522 95.5643549,33.5643549 C100.057604,38.0576043 102.881297,42.3123456 104.035434,46.3285789 C104.404912,47.6142807 105.581005,48.5 106.918743,48.5 L112.306274,48.5 C113.963129,48.5000014 115.306276,47.156855 115.306276,45.5 C115.306276,45.1092145 115.229926,44.7221936 115.081517,44.3606856 C112.630458,38.3901814 108.429316,32.4293161 102.47809,26.4780898 C95.1520599,19.1520599 87.8260299,14.4926966 80.5,12.5" id="Path-260" stroke="#000000" stroke-width="3"></path>
            <path d="M44.5,100.5 L30.6213203,86.6213203 C29.4497475,85.4497475 27.5502525,85.4497475 26.3786797,86.6213203 L22.6213203,90.3786797 C21.4497475,91.5502525 21.4497475,93.4497475 22.6213203,94.6213203 L38.8431458,110.843146 C41.9673401,113.96734 47.0326599,113.96734 50.1568542,110.843146 L90.8431458,70.1568542 C93.9673401,67.0326599 93.9673401,61.9673401 90.8431458,58.8431458 L88.5,56.5 L88.5,56.5 C86.290861,58.709139 82.709139,58.709139 80.5,56.5 L72.5,48.5 C70.290861,46.290861 70.290861,42.709139 72.5,40.5 L72.5,40.5 L72.5,40.5 L70.1568542,38.1568542 C67.0326599,35.0326599 61.9673401,35.0326599 58.8431458,38.1568542 L16.5,80.5 C14.290861,82.709139 14.290861,86.290861 16.5,88.5 L16.5,88.5 L16.5,88.5" id="Path-258" stroke="#000000" stroke-width="3"></path>
        </g>
    </g>
</svg>