<?xml version="1.0" encoding="UTF-8"?><svg viewBox="0 0 130 130" version="1.1" xmlns="http://www.w3.org/2000/svg" xmlns:xlink="http://www.w3.org/1999/xlink">
  <title>photo-cam</title>
  <g id="strokes" stroke="none" stroke-width="1" fill="none" fill-rule="evenodd">
    <g id="photo-cam" transform="translate(1.000000, 1.000000)">
      <g id="Group" stroke="#979797" stroke-opacity="0.01" stroke-width="0.1">
        <g id="Rectangle">
          <rect x="0" y="0" width="128" height="128"></rect>
        </g>
      </g>
      <path d="M100.5,52.5 C100.5,50.290861 98.709139,48.5 96.5,48.5 C94.290861,48.5 92.5,50.290861 92.5,52.5 C92.5,54.709139 94.290861,56.5 96.5,56.5" id="Path" stroke="#000000" stroke-width="3"></path>
      <path d="M40.5,104.5 L104.5,104.5 C108.918278,104.5 112.5,100.918278 112.5,96.5 L112.5,44.5 C112.5,40.081722 108.918278,36.5 104.5,36.5 L95.8137085,36.5 C93.6919766,36.5 91.6571453,35.6571453 90.1568542,34.1568542 L82.8431458,26.8431458 C81.3428547,25.3428547 79.3080234,24.5 77.1862915,24.5 L52.2469996,24.5 C49.8727608,24.5 47.6211799,25.5545841 46.1012293,27.3785248 L40.8987707,33.6214752 C39.3788201,35.4454159 37.1272392,36.5 34.7530004,36.5 L24.5,36.5 C20.081722,36.5 16.5,40.081722 16.5,44.5 L16.5,96.5 C16.5,100.918278 20.081722,104.5 24.5,104.5 L24.5,104.5 L24.5,104.5" id="Path-294" stroke="#000000" stroke-width="3"></path>
      <path d="M83.9874756,54.4884208 C79.630034,48.4386992 72.5249833,44.5 64.5,44.5 C51.245166,44.5 40.5,55.245166 40.5,68.5 C40.5,81.754834 51.245166,92.5 64.5,92.5 C77.754834,92.5 88.5,81.754834 88.5,68.5" id="Path" stroke="#000000" stroke-width="3"></path>
    </g>
  </g>
</svg>
