<?xml version="1.0" encoding="UTF-8"?>
<svg width="130px" height="130px" viewBox="0 0 130 130" version="1.1" xmlns="http://www.w3.org/2000/svg" xmlns:xlink="http://www.w3.org/1999/xlink">
    <title>photo-cam-rotate</title>
    <g id="strokes" stroke="none" stroke-width="1" fill="none" fill-rule="evenodd">
        <g id="photo-cam-rotate" transform="translate(1.000000, 1.000000)">
            <g id="Group" stroke="#979797" stroke-opacity="0.01" stroke-width="0.1">
                <g id="Rectangle">
                    <rect x="0" y="0" width="128" height="128"></rect>
                </g>
            </g>
            <path d="M40.5,104.5 L104.5,104.5 C108.918278,104.5 112.5,100.918278 112.5,96.5 L112.5,44.5 C112.5,40.081722 108.918278,36.5 104.5,36.5 L95.8137085,36.5 C93.6919766,36.5 91.6571453,35.6571453 90.1568542,34.1568542 L82.8431458,26.8431458 C81.3428547,25.3428547 79.3080234,24.5 77.1862915,24.5 L52.2469996,24.5 C49.8727608,24.5 47.6211799,25.5545841 46.1012293,27.3785248 L40.8987707,33.6214752 C39.3788201,35.4454159 37.1272392,36.5 34.7530004,36.5 L24.5,36.5 C20.081722,36.5 16.5,40.081722 16.5,44.5 L16.5,96.5 C16.5,100.918278 20.081722,104.5 24.5,104.5 L24.5,104.5 L24.5,104.5" id="Path-294" stroke="#000000" stroke-width="3"></path>
            <path d="M68.5,96.5 L57.7480754,89.3320503 C57.2885468,89.0256978 57.1643729,88.4048285 57.4707253,87.9452998 C57.5439602,87.8354475 57.6382232,87.7411846 57.7480754,87.6679497 L68.5,80.5 L68.5,80.5" id="Path-295" stroke="#000000" stroke-width="3"></path>
            <path d="M60.5,56.5 L71.2519246,49.3320503 C71.7114532,49.0256978 71.8356271,48.4048285 71.5292747,47.9452998 C71.4560398,47.8354475 71.3617768,47.7411846 71.2519246,47.6679497 L60.5,40.5 L60.5,40.5" id="Path-296" stroke="#000000" stroke-width="3"></path>
            <path d="M64.5,88.5 C75.545695,88.5 84.5,79.545695 84.5,68.5 C84.5,62.9433679 82.2339521,57.9159996 78.5755606,54.2915993 M64.5,48.5 C53.454305,48.5 44.5,57.454305 44.5,68.5 C44.5,74.0347973 46.7482739,79.044482 50.3813769,82.6656093" id="Shape" stroke="#000000" stroke-width="3"></path>
        </g>
    </g>
</svg>