<?xml version="1.0" encoding="UTF-8"?><svg viewBox="0 0 130 130" version="1.1" xmlns="http://www.w3.org/2000/svg" xmlns:xlink="http://www.w3.org/1999/xlink">
  <title>picture</title>
  <g id="strokes" stroke="none" stroke-width="1" fill="none" fill-rule="evenodd">
    <g id="picture" transform="translate(1.000000, 1.000000)">
      <g id="Group" stroke="#979797" stroke-opacity="0.01" stroke-width="0.1">
        <g id="Rectangle">
          <rect x="0" y="0" width="128" height="128"></rect>
        </g>
      </g>
      <path d="M112.5,105 C112.5,109.142136 109.142136,112.5 105,112.5 L24.5,112.5 C20.081722,112.5 16.5,108.918278 16.5,104.5 L16.5,96.5 L16.5,96.5 L109.5,96.5 C111.156854,96.5 112.5,95.1568542 112.5,93.5 L112.5,83.8137085 C112.5,81.6919766 111.657145,79.6571453 110.156854,78.1568542 L84.7426407,52.7426407 C82.3994949,50.3994949 78.6005051,50.3994949 76.2573593,52.7426407 L49.2184198,79.7815802 C48.8278955,80.1721045 48.1947305,80.1721045 47.8042062,79.7815802 C47.8004652,79.7778392 47.7967539,79.7740686 47.7930728,79.7702687 L35.0873856,66.6547207 C33.9356062,65.4636823 32.0363505,65.4335354 30.8463312,66.5863667 C30.8459805,66.5867064 30.8456299,66.5870462 30.8462988,66.5884375 L18.1961458,78.8552525 C17.7996604,79.2397233 17.1665703,79.2299834 16.7820996,78.833498 C16.6011784,78.6469229 16.5,78.397242 16.5,78.1373521 L16.5,24.5 C16.5,20.081722 20.081722,16.5 24.5,16.5 L104.5,16.5 C108.918278,16.5 112.5,20.081722 112.5,24.5 L112.5,64.5 L112.5,64.5" id="Path-155" stroke="#000000" stroke-width="3"></path>
      <path d="M48.5,40.5 C48.5,36.081722 44.918278,32.5 40.5,32.5 C36.081722,32.5 32.5,36.081722 32.5,40.5 C32.5,44.918278 36.081722,48.5 40.5,48.5" id="Path" stroke="#000000" stroke-width="3"></path>
    </g>
  </g>
</svg>
