<?xml version="1.0" encoding="UTF-8"?>
<svg width="130px" height="130px" viewBox="0 0 130 130" version="1.1" xmlns="http://www.w3.org/2000/svg" xmlns:xlink="http://www.w3.org/1999/xlink">
    <title>play-circle</title>
    <g id="strokes" stroke="none" stroke-width="1" fill="none" fill-rule="evenodd">
        <g id="play-circle" transform="translate(1.000000, 1.000000)">
            <g id="Group" stroke="#979797" stroke-opacity="0.01" stroke-width="0.1">
                <g id="Rectangle">
                    <rect x="0" y="0" width="128" height="128"></rect>
                </g>
            </g>
            <path d="M64,118 C93.8233765,118 118,93.8233765 118,64 C118,34.1766235 93.8233765,10 64,10 C34.1766235,10 10,34.1766235 10,64 C10,79.0300288 16.1404706,92.6258739 26.0495935,102.415717" id="Path" stroke="#000000" stroke-width="3"></path>
            <path d="M44.5,48.5 L44.5,92.9561801 C44.5,94.0607496 45.3954305,94.9561801 46.5,94.9561801 C46.8643689,94.9561801 47.2218149,94.85664 47.5337382,94.668309 L93.2464298,67.0681933 C94.6648038,66.2118166 95.1203926,64.3677667 94.2640158,62.9493927 C94.0124043,62.5326611 93.6631614,62.1834182 93.2464298,61.9318067 L44.5,32.5 L44.5,32.5" id="Path-188" stroke="#000000" stroke-width="3"></path>
        </g>
    </g>
</svg>