<?xml version="1.0" encoding="UTF-8"?><svg viewBox="0 0 130 130" version="1.1" xmlns="http://www.w3.org/2000/svg" xmlns:xlink="http://www.w3.org/1999/xlink">
  <title>present</title>
  <g id="strokes" stroke="none" stroke-width="1" fill="none" fill-rule="evenodd">
    <g id="present" transform="translate(1.000000, 1.000000)">
      <g id="Group" stroke="#979797" stroke-opacity="0.01" stroke-width="0.1">
        <g id="Rectangle">
          <rect x="0" y="0" width="128" height="128"></rect>
        </g>
      </g>
      <path d="M64.5,16.5 L64.5,24.5 L24.5,24.5 C20.081722,24.5 16.5,28.081722 16.5,32.5 L16.5,80.5 C16.5,84.918278 20.081722,88.5 24.5,88.5 L59.6715729,88.5 C60.7761424,88.5 61.6715729,89.3954305 61.6715729,90.5 C61.6715729,91.030433 61.4608592,91.5391408 61.0857864,91.9142136 L40.5,112.5 L40.5,112.5 L61.0857864,91.9142136 C61.866835,91.133165 63.133165,91.133165 63.9142136,91.9142136 C64.2892863,92.2892863 64.5,92.7979941 64.5,93.3284271 L64.5,112.5 L64.5,112.5 L64.5,93.3284271 C64.5,92.2238576 65.3954305,91.3284271 66.5,91.3284271 C67.030433,91.3284271 67.5391408,91.5391408 67.9142136,91.9142136 L88.5,112.5 L88.5,112.5 L67.9142136,91.9142136 C67.133165,91.133165 67.133165,89.866835 67.9142136,89.0857864 C68.2892863,88.7107137 68.7979941,88.5 69.3284271,88.5 L104.5,88.5 C108.918278,88.5 112.5,84.918278 112.5,80.5 L112.5,32.5 C112.5,28.081722 108.918278,24.5 104.5,24.5 L72.5,24.5 L72.5,24.5" id="Path-327" stroke="#000000" stroke-width="3"></path>
      <path d="M59.1213943,68.7163461 L77.461149,58.2364863 C78.4201839,57.6884663 78.7533773,56.466757 78.2053574,55.5077221 C78.0281788,55.1976596 77.7712116,54.9406923 77.461149,54.7635137 L55.4922779,42.2098731 C54.533243,41.6618531 53.3115337,41.9950466 52.7635137,42.9540815 C52.5908306,43.2562769 52.5,43.5983055 52.5,43.9463594 L52.5,72.5 L52.5,72.5" id="Path-328" stroke="#000000" stroke-width="3"></path>
    </g>
  </g>
</svg>
