<?xml version="1.0" encoding="UTF-8"?>
<svg width="130px" height="130px" viewBox="0 0 130 130" version="1.1" xmlns="http://www.w3.org/2000/svg" xmlns:xlink="http://www.w3.org/1999/xlink">
    <title>printer</title>
    <g id="strokes" stroke="none" stroke-width="1" fill="none" fill-rule="evenodd">
        <g id="printer" transform="translate(1.000000, 1.000000)">
            <g id="Group" stroke="#979797" stroke-opacity="0.01" stroke-width="0.1">
                <g id="Rectangle">
                    <rect x="0" y="0" width="128" height="128"></rect>
                </g>
            </g>
            <path d="M104.5,28.5 C108.918278,28.5 112.5,32.081722 112.5,36.5 L112.5,88.5 C112.5,92.918278 108.918278,96.5 104.5,96.5 L96.5,96.5 L96.5,96.5 L96.5,109.5 C96.5,111.156854 95.1568542,112.5 93.5,112.5 L48.5,112.5 L48.5,112.5 L93.5,112.5 C95.1568542,112.5 96.5,111.156854 96.5,109.5 L96.5,63.5 C96.5,61.8431458 95.1568542,60.5 93.5,60.5 L35.5,60.5 C33.8431458,60.5 32.5,61.8431458 32.5,63.5 L32.5,96.5 L32.5,96.5 L24.5,96.5 C20.081722,96.5 16.5,92.918278 16.5,88.5 L16.5,36.5 C16.5,32.081722 20.081722,28.5 24.5,28.5 L96.5,28.5 L96.5,28.5 L96.5,24.5 C96.5,20.081722 92.918278,16.5 88.5,16.5 L39.5,16.5 C35.6340068,16.5 32.5,19.6340068 32.5,23.5 L32.5,23.5 L32.5,23.5" id="Path-270" stroke="#000000" stroke-width="3"></path>
            <path d="M92.5,48.5 C94.709139,48.5 96.5,46.709139 96.5,44.5 C96.5,42.290861 94.709139,40.5 92.5,40.5 C90.290861,40.5 88.5,42.290861 88.5,44.5" id="Path" stroke="#000000" stroke-width="3"></path>
            <path d="M44.5,72.5 L78.5,72.5 C81.8137085,72.5 84.5,75.1862915 84.5,78.5 C84.5,81.8137085 81.8137085,84.5 78.5,84.5 L50.5,84.5 C47.1862915,84.5 44.5,87.1862915 44.5,90.5 C44.5,93.8137085 47.1862915,96.5 50.5,96.5 L76.5,96.5 C80.918278,96.5 84.5,100.081722 84.5,104.5 L84.5,104.5 L84.5,104.5" id="Path-273" stroke="#000000" stroke-width="3"></path>
        </g>
    </g>
</svg>