<?xml version="1.0" encoding="UTF-8"?><svg viewBox="0 0 130 130" version="1.1" xmlns="http://www.w3.org/2000/svg" xmlns:xlink="http://www.w3.org/1999/xlink">
  <title>qrcode</title>
  <g id="strokes" stroke="none" stroke-width="1" fill="none" fill-rule="evenodd">
    <g id="qrcode" transform="translate(1.000000, 1.000000)">
      <g id="Group" stroke="#979797" stroke-opacity="0.01" stroke-width="0.1">
        <g id="Rectangle">
          <rect x="0" y="0" width="128" height="128"></rect>
        </g>
      </g>
      <path d="M112.5,96.5 L111.5,96.5 C109.843146,96.5 108.5,97.8431458 108.5,99.5 L108.5,109.5 C108.5,111.156854 107.156854,112.5 105.5,112.5 L99.5,112.5 C97.8431458,112.5 96.5,111.156854 96.5,109.5 L96.5,99.5 C96.5,97.8431458 95.1568542,96.5 93.5,96.5 L87.5,96.5 C85.8431458,96.5 84.5,97.8431458 84.5,99.5 L84.5,109.5 C84.5,111.156854 83.1568542,112.5 81.5,112.5 L75.5,112.5 C73.8431458,112.5 72.5,111.156854 72.5,109.5 L72.5,87.5 C72.5,85.8431458 73.8431458,84.5 75.5,84.5 L109.5,84.5 C111.156854,84.5 112.5,83.1568542 112.5,81.5 L112.5,75.5 C112.5,73.8431458 111.156854,72.5 109.5,72.5 L75.5,72.5 C73.8431458,72.5 72.5,71.1568542 72.5,69.5 L72.5,57.5 C72.5,56.9477153 72.9477153,56.5 73.5,56.5 L110.5,56.5 C111.604569,56.5 112.5,55.6045695 112.5,54.5 L112.5,18.5 C112.5,17.3954305 111.604569,16.5 110.5,16.5 L74.5,16.5 C73.3954305,16.5 72.5,17.3954305 72.5,18.5 L72.5,46.5 C72.5,47.6045695 71.6045695,48.5 70.5,48.5 L58.5,48.5 C57.3954305,48.5 56.5,47.6045695 56.5,46.5 L56.5,18.5 C56.5,17.3954305 55.6045695,16.5 54.5,16.5 L18.5,16.5 C17.3954305,16.5 16.5,17.3954305 16.5,18.5 L16.5,54.5 C16.5,55.6045695 17.3954305,56.5 18.5,56.5 L54.5,56.5 C55.6045695,56.5 56.5,57.3954305 56.5,58.5 L56.5,70.5 C56.5,71.6045695 55.6045695,72.5 54.5,72.5 L18.5,72.5 C17.3954305,72.5 16.5,73.3954305 16.5,74.5 L16.5,110.5 C16.5,111.604569 17.3954305,112.5 18.5,112.5 L54.5,112.5 C55.6045695,112.5 56.5,111.604569 56.5,110.5 L56.5,80.5 L56.5,80.5" id="Path-257" stroke="#000000" stroke-width="3"></path>
    </g>
  </g>
</svg>
