<?xml version="1.0" encoding="UTF-8"?><svg viewBox="0 0 130 130" version="1.1" xmlns="http://www.w3.org/2000/svg" xmlns:xlink="http://www.w3.org/1999/xlink">
  <title>quote</title>
  <g id="strokes" stroke="none" stroke-width="1" fill="none" fill-rule="evenodd">
    <g id="quote" transform="translate(1.000000, 1.000000)">
      <g id="Group" stroke="#979797" stroke-opacity="0.01" stroke-width="0.1">
        <g id="Rectangle">
          <rect x="0" y="0" width="128" height="128"></rect>
        </g>
      </g>
      <path d="M41.2768106,80.1261688 C38.9391715,82.7393237 35.5699056,84.4085571 31.8120914,84.4963575 L31.5,84.5 C29.8431458,84.5 28.5,85.8431458 28.5,87.5 L28.5,97.5 C28.5,99.0976809 29.74892,100.403661 31.3237272,100.494907 L31.5,100.5 C47.5162577,100.5 60.5,87.5162577 60.5,71.5 L60.5,48.5 C60.5,37.454305 51.545695,28.5 40.5,28.5 C29.454305,28.5 20.5,37.454305 20.5,48.5 C20.5,59.545695 29.454305,68.5 40.5,68.5 C41.9203977,68.5 43.306212,68.3519305 44.6428492,68.0703849" id="Path" stroke="#000000" stroke-width="3"></path>
      <path d="M89.2768106,80.1261688 C86.9391715,82.7393237 83.5699056,84.4085571 79.8120914,84.4963575 L79.5,84.5 C77.8431458,84.5 76.5,85.8431458 76.5,87.5 L76.5,97.5 C76.5,99.0976809 77.74892,100.403661 79.3237272,100.494907 L79.5,100.5 C95.5162577,100.5 108.5,87.5162577 108.5,71.5 L108.5,48.5 C108.5,37.454305 99.545695,28.5 88.5,28.5 C77.454305,28.5 68.5,37.454305 68.5,48.5 C68.5,59.545695 77.454305,68.5 88.5,68.5 C89.9203977,68.5 91.306212,68.3519305 92.6428492,68.0703849" id="Path-Copy" stroke="#000000" stroke-width="3"></path>
    </g>
  </g>
</svg>
