<?xml version="1.0" encoding="UTF-8"?>
<svg width="130px" height="130px" viewBox="0 0 130 130" version="1.1" xmlns="http://www.w3.org/2000/svg" xmlns:xlink="http://www.w3.org/1999/xlink">
    <title>record</title>
    <g id="strokes" stroke="none" stroke-width="1" fill="none" fill-rule="evenodd">
        <g id="record" transform="translate(1.000000, 1.000000)">
            <g id="Group" stroke="#979797" stroke-opacity="0.01" stroke-width="0.1">
                <g id="Rectangle">
                    <rect x="0" y="0" width="128" height="128"></rect>
                </g>
            </g>
            <path d="M64.5,112.5 C91.009668,112.5 112.5,91.009668 112.5,64.5 C112.5,37.990332 91.009668,16.5 64.5,16.5 C37.990332,16.5 16.5,37.990332 16.5,64.5 C16.5,85.4294347 29.8952105,103.23025 48.5801375,109.796953" id="Path" stroke="#000000" stroke-width="3"></path>
            <path d="M35.9089273,50.1126966 C33.7281787,54.4378687 32.5,59.3255061 32.5,64.5 C32.5,82.173112 46.826888,96.5 64.5,96.5 C82.173112,96.5 96.5,82.173112 96.5,64.5 C96.5,46.826888 82.173112,32.5 64.5,32.5 C55.7527453,32.5 47.8252238,36.0096948 42.048824,41.6976958" id="Path" stroke="#000000" stroke-width="3"></path>
        </g>
    </g>
</svg>