<?xml version="1.0" encoding="UTF-8"?>
<svg width="130px" height="130px" viewBox="0 0 130 130" version="1.1" xmlns="http://www.w3.org/2000/svg" xmlns:xlink="http://www.w3.org/1999/xlink">
    <title>redo</title>
    <g id="strokes" stroke="none" stroke-width="1" fill="none" fill-rule="evenodd">
        <g id="redo" transform="translate(1.000000, 1.000000)">
            <g id="Group" stroke="#979797" stroke-opacity="0.01" stroke-width="0.1">
                <g id="Rectangle">
                    <rect x="0" y="0" width="128" height="128"></rect>
                </g>
            </g>
            <path d="M24.5,88.5 L64.5,88.5 C77.754834,88.5 88.5,77.754834 88.5,64.5 C88.5,51.245166 77.754834,40.5 64.5,40.5 L24.5,40.5 L24.5,40.5" id="Path-254" stroke="#000000" stroke-width="3" transform="translate(56.500000, 64.500000) scale(-1, 1) translate(-56.500000, -64.500000) "></path>
            <path d="M104.5,56.5 L82.9961509,42.1641006 C82.0770935,41.5513957 81.8287458,40.309657 82.4414507,39.3905996 C82.5879204,39.170895 82.7764463,38.9823691 82.9961509,38.8358994 L104.5,24.5 L104.5,24.5" id="Path-255" stroke="#000000" stroke-width="3" transform="translate(92.500000, 40.500000) scale(-1, 1) translate(-92.500000, -40.500000) "></path>
        </g>
    </g>
</svg>