<?xml version="1.0" encoding="UTF-8"?><svg viewBox="0 0 130 130" version="1.1" xmlns="http://www.w3.org/2000/svg" xmlns:xlink="http://www.w3.org/1999/xlink">
  <title>remote</title>
  <g id="strokes" stroke="none" stroke-width="1" fill="none" fill-rule="evenodd">
    <g id="remote" transform="translate(1.000000, 1.000000)">
      <g id="Group" stroke="#979797" stroke-opacity="0.01" stroke-width="0.1">
        <g id="Rectangle">
          <rect x="0" y="0" width="128" height="128"></rect>
        </g>
      </g>
      <path d="M69.9836872,26.7791076 L78.4471626,18.3682004 C87.3192802,9.55118912 101.652322,9.57351467 110.496929,18.418122 C119.333485,27.254678 119.333485,41.581566 110.496929,50.418122 L52.1101016,108.804949 C49.0030183,111.912033 43.9714884,111.931534 40.8404133,108.84863 L19.7597505,88.0922847 C16.6114322,84.9924021 16.5721673,79.9272345 19.67205,76.7789162 C19.6923816,76.7582668 19.7128254,76.7377281 19.7333802,76.7173009 L62.0411666,34.6722958 L62.0411666,34.6722958" id="Path" stroke="#000000" stroke-width="3" transform="translate(67.248464, 61.459061) scale(-1, -1) translate(-67.248464, -61.459061)"></path>
      <path d="M40.5,80.5 C36.081722,80.5 32.5,84.081722 32.5,88.5 C32.5,92.918278 36.081722,96.5 40.5,96.5 C44.918278,96.5 48.5,92.918278 48.5,88.5" id="Path" stroke="#000000" stroke-width="3"></path>
      <path d="M80.5,32.5 L84.4545362,36.4545362 M92.6436646,44.6436646 L96.5,48.5" id="Shape" stroke="#000000" stroke-width="3"></path>
      <polyline id="Path-81" stroke="#000000" stroke-width="3" points="56.5 72.5 64.5 64.5 72.5 72.5"></polyline>
      <line x1="72.5" y1="56.5" x2="68" y2="61" id="Path-84" stroke="#000000" stroke-width="3"></line>
      <line x1="56.5" y1="56.5" x2="60" y2="60" id="Path-85" stroke="#000000" stroke-width="3"></line>
      <line x1="72.5" y1="40.5" x2="76" y2="44" id="Path-86" stroke="#000000" stroke-width="3"></line>
      <line x1="84.5" y1="52.5" x2="88.5" y2="56.5" id="Path-87" stroke="#000000" stroke-width="3"></line>
    </g>
  </g>
</svg>
