<?xml version="1.0" encoding="UTF-8"?><svg viewBox="0 0 130 130" version="1.1" xmlns="http://www.w3.org/2000/svg" xmlns:xlink="http://www.w3.org/1999/xlink">
  <title>robot</title>
  <g id="strokes" stroke="none" stroke-width="1" fill="none" fill-rule="evenodd">
    <g id="robot" transform="translate(1.000000, 1.000000)">
      <g id="Group" stroke="#979797" stroke-opacity="0.01" stroke-width="0.1">
        <g id="Rectangle">
          <rect x="0" y="0" width="128" height="128"></rect>
        </g>
      </g>
      <path d="M24.5,64.5 C20.081722,64.5 16.5,68.081722 16.5,72.5 L16.5,88.5 C16.5,92.918278 20.081722,96.5 24.5,96.5 L28.5,96.5 L28.5,96.5 L28.5,56.5 C28.5,47.663444 35.663444,40.5 44.5,40.5 L60.5,40.5 L60.5,40.5 L60.5,28.5 C58.290861,28.5 56.5,26.709139 56.5,24.5 L56.5,22.5 C56.5,19.1862915 59.1862915,16.5 62.5,16.5 L66.5,16.5 C69.8137085,16.5 72.5,19.1862915 72.5,22.5 L72.5,24.5 C72.5,26.709139 70.709139,28.5 68.5,28.5 L68.5,28.5 L68.5,28.5 L68.5,40.5 L84.5,40.5 C93.336556,40.5 100.5,47.663444 100.5,56.5 L100.5,84.5 L100.5,84.5 L100.5,64.5 L104.5,64.5 C108.918278,64.5 112.5,68.081722 112.5,72.5 L112.5,88.5 C112.5,92.918278 108.918278,96.5 104.5,96.5 L40.5,96.5 L40.5,96.5 L92.5,96.5 L92.5,104.5 C92.5,108.918278 88.918278,112.5 84.5,112.5 L44.5,112.5 C40.081722,112.5 36.5,108.918278 36.5,104.5 L36.5,104.5 L36.5,104.5" id="Path-337" stroke="#000000" stroke-width="3"></path>
      <path d="M56.5,72.5 C56.5,68.081722 52.918278,64.5 48.5,64.5 C44.081722,64.5 40.5,68.081722 40.5,72.5 C40.5,76.918278 44.081722,80.5 48.5,80.5 L80.5,80.5 C84.918278,80.5 88.5,76.918278 88.5,72.5 C88.5,68.081722 84.918278,64.5 80.5,64.5 C76.081722,64.5 72.5,68.081722 72.5,72.5 L72.5,72.5 L72.5,72.5" id="Path-338" stroke="#000000" stroke-width="3"></path>
    </g>
  </g>
</svg>
