<?xml version="1.0" encoding="UTF-8"?>
<svg width="130px" height="130px" viewBox="0 0 130 130" version="1.1" xmlns="http://www.w3.org/2000/svg" xmlns:xlink="http://www.w3.org/1999/xlink">
    <title>rocket</title>
    <g id="strokes" stroke="none" stroke-width="1" fill="none" fill-rule="evenodd">
        <g id="rocket" transform="translate(1.000000, 1.000000)">
            <g id="Group" stroke="#979797" stroke-opacity="0.01" stroke-width="0.1">
                <g id="Rectangle">
                    <rect x="0" y="0" width="128" height="128"></rect>
                </g>
            </g>
            <path d="M62.8502937,93.394017 L72.3845403,93.394017 M81.9187868,93.394017 C83.2935726,85.0307366 84.324662,78.7582764 85.0120549,74.5766362 C85.458198,71.8625991 86.1274126,67.7915434 87.0196988,62.3634692 C89.8018607,45.4386509 84.3510711,28.1934163 72.3845403,16.0606836 C60.4413525,27.7913407 54.930602,44.7140371 57.6368624,61.348612 L61.1420804,82.8941402" id="Shape" stroke="#000000" stroke-width="3" transform="translate(72.346768, 55.029434) rotate(45.000000) translate(-72.346768, -55.029434) "></path>
            <path d="M39.1805616,57.5226731 C34.9262617,63.7438122 32.6743107,71.1162909 32.7262866,78.6527979 L32.7788778,86.2785236 L32.7788778,86.2785236 L42.3131244,76.744277 L51.913581,76.8104871" id="Path-60" stroke="#000000" stroke-width="3" transform="translate(42.280019, 71.900598) rotate(45.000000) translate(-42.280019, -71.900598) "></path>
            <path d="M56.7575447,75.6643175 C61.0995895,81.946941 63.4520843,89.3725636 63.5044166,96.9607404 L63.5564888,104.511207 L63.5564888,104.511207 L59.3179136,100.011461" id="Path" stroke="#000000" stroke-width="3" transform="translate(60.157017, 90.087762) rotate(45.000000) translate(-60.157017, -90.087762) "></path>
            <path d="M84.1290992,48.0406238 C84.1108158,45.3895309 81.9468587,43.2255739 79.2957658,43.2072905 C76.644673,43.1890071 74.5103592,45.3233209 74.5286426,47.9744138 C74.546926,50.6255067 76.710883,52.7894637 79.3619759,52.8077471" id="Path" stroke="#000000" stroke-width="3" transform="translate(79.328813, 48.007461) rotate(45.000000) translate(-79.328813, -48.007461) "></path>
            <line x1="36" y1="92" x2="16" y2="111.5" id="Path-62" stroke="#000000" stroke-width="3"></line>
            <line x1="28" y1="84.5" x2="15.5" y2="96.5" id="Path-63" stroke="#000000" stroke-width="3"></line>
            <line x1="44" y1="100.5" x2="31.5" y2="112.5" id="Path-63-Copy" stroke="#000000" stroke-width="3"></line>
        </g>
    </g>
</svg>