<?xml version="1.0" encoding="UTF-8"?>
<svg width="133px" height="130px" viewBox="0 0 133 130" version="1.1" xmlns="http://www.w3.org/2000/svg" xmlns:xlink="http://www.w3.org/1999/xlink">
    <title>rocket</title>
    <g id="strokes" stroke="none" stroke-width="1" fill="none" fill-rule="evenodd">
        <g id="rocket" transform="translate(1.000000, 1.000000)">
            <g id="Group" stroke="#979797" stroke-opacity="0.01" stroke-width="0.1">
                <g id="Rectangle">
                    <rect x="0" y="0" width="128" height="128"></rect>
                </g>
            </g>
            <path d="M68.4386266,97.2779911 L77.9728732,97.2779911 M87.5071197,97.2779911 C88.8819056,88.9147108 94.5499457,78.8982084 97.8216294,65.8553114 C106.422756,31.5660538 91.0498305,14.7019872 79.0832997,2.56925453 C67.140112,14.2999116 55.7487759,32.2677393 60.3967682,65.2325861 C61.9996899,76.6009502 64.3466072,83.5470907 67.4375201,86.0710076" id="Shape" stroke="#000000" stroke-width="3" transform="translate(79.829306, 50.225706) rotate(45.000000) translate(-79.829306, -50.225706) "></path>
            <path d="M37.266348,58.7297799 C33.9229264,64.0458844 32.1694697,70.2072362 32.2127796,76.4871693 L32.2788778,86.0714168 L32.2788778,86.0714168 L41.8131244,76.5371702 L51.413581,76.6033803" id="Path-60" stroke="#000000" stroke-width="3" transform="translate(41.780019, 72.400598) rotate(45.000000) translate(-41.780019, -72.400598) "></path>
            <path d="M57.4646515,77.3714243 C61.8066963,83.6540478 62.7449775,89.6654569 62.7973098,97.2536336 L62.849382,104.8041 L58.6108069,100.304355" id="Path" stroke="#000000" stroke-width="3" transform="translate(60.157017, 91.087762) rotate(45.000000) translate(-60.157017, -91.087762) "></path>
            <path d="M93.1290992,41.0406238 C93.1108158,38.3895309 90.9468587,36.2255739 88.2957658,36.2072905 C85.644673,36.1890071 83.5103592,38.3233209 83.5286426,40.9744138 C83.546926,43.6255067 85.710883,45.7894637 88.3619759,45.8077471" id="Path" stroke="#000000" stroke-width="3" transform="translate(88.328813, 41.007461) rotate(45.000000) translate(-88.328813, -41.007461) "></path>
            <line x1="36" y1="92" x2="16" y2="111.5" id="Path-62" stroke="#000000" stroke-width="3"></line>
            <line x1="28" y1="84.5" x2="15.5" y2="96.5" id="Path-63" stroke="#000000" stroke-width="3"></line>
            <line x1="44" y1="100.5" x2="31.5" y2="112.5" id="Path-63-Copy" stroke="#000000" stroke-width="3"></line>
        </g>
    </g>
</svg>