<?xml version="1.0" encoding="UTF-8"?><svg viewBox="0 0 130 130" version="1.1" xmlns="http://www.w3.org/2000/svg" xmlns:xlink="http://www.w3.org/1999/xlink">
  <title>ruler</title>
  <g id="strokes" stroke="none" stroke-width="1" fill="none" fill-rule="evenodd">
    <g id="ruler" transform="translate(1.000000, 1.000000)">
      <g id="Group" stroke="#979797" stroke-opacity="0.01" stroke-width="0.1">
        <g id="Rectangle">
          <rect x="0" y="0" width="128" height="128"></rect>
        </g>
      </g>
      <path d="M32.5,112.5 L18.6213203,98.6213203 C17.4497475,97.4497475 17.4497475,95.5502525 18.6213203,94.3786797 L94.3786797,18.6213203 C95.5502525,17.4497475 97.4497475,17.4497475 98.6213203,18.6213203 L110.37868,30.3786797 C111.550253,31.5502525 111.550253,33.4497475 110.37868,34.6213203 L104.5,40.5 L104.5,40.5 L100.5,36.5 L104.5,40.5 L96.5,48.5 L92.5,44.5 L96.5,48.5 L88.5,56.5 L80.5,48.5 L88.5,56.5 L80.5,64.5 L76.5,60.5 L80.5,64.5 L72.5,72.5 L68.5,68.5 L72.5,72.5 L64.5,80.5 L56.5,72.5 L64.5,80.5 L56.5,88.5 L52.5,84.5 L56.5,88.5 L48.5,96.5 L44.5,92.5 L48.5,96.5 L42.6213203,102.37868 C41.4497475,103.550253 39.5502525,103.550253 38.3786797,102.37868 L32.5,96.5 L32.5,96.5" id="Path-301" stroke="#000000" stroke-width="3"></path>
    </g>
  </g>
</svg>
