<?xml version="1.0" encoding="UTF-8"?><svg viewBox="0 0 130 130" version="1.1" xmlns="http://www.w3.org/2000/svg" xmlns:xlink="http://www.w3.org/1999/xlink">
  <title>sailboat</title>
  <g id="strokes" stroke="none" stroke-width="1" fill="none" fill-rule="evenodd">
    <g id="sailboat" transform="translate(1.000000, 1.000000)">
      <g id="Group" stroke="#979797" stroke-opacity="0.01" stroke-width="0.1">
        <g id="Rectangle">
          <rect x="0" y="0" width="128" height="128"></rect>
        </g>
      </g>
      <path d="M16.5423728,108.499554 C24.5287213,108.548606 32.5,104.548755 32.5,96.5 C32.5,112.5 64.5,112.5 64.5,96.5 C64.5,112.5 96.5,112.5 96.5,96.5 C96.5,104.579675 104.660144,108.579279 112.739018,108.49881" id="Path-360" stroke="#000000" stroke-width="3"></path>
      <path d="M18.577358,96.4192721 C17.1924527,93.6337352 16.5,90.9939779 16.5,88.5 C24.5,88.5 83.5,88 112.5,88 C112.5,91.1353597 111,96.5 109.735177,97.9060791 C111,96.5 112.5,96 112.5,88 C101.833333,88 85.8333333,88.1666667 64.5,88.5 L64.5,24.3407722 C64.5000246,23.2361891 63.6045831,22.3407476 62.5,22.3407476 C62.0769052,22.3407476 61.6647094,22.4749219 61.3226847,22.7239769 C61.2401778,22.7840566 61.161386,22.8417917 61.0863092,22.8971822 C51.9421717,29.6435918 37.8243855,46.4585272 18.7329506,73.3419884 C18.0933988,74.2425696 18.3050042,75.4910942 19.205585,76.1306465 C19.5439233,76.3709193 19.9486224,76.5 20.3635969,76.5 L52.5,76.5 L52.5,76.5" id="Path-363" stroke="#000000" stroke-width="3"></path>
      <path d="M88.5,76.5 L112.5,76.5 C112.5,41.1005436 96.8495959,21.7183771 77.6619927,16.9159747 C76.9978163,16.7497402 76.1134906,16.6333294 75.0090158,16.5667425 L75.0090163,16.5667332 C73.9064436,16.500261 72.9587455,17.3401863 72.8922732,18.442759 C72.8830569,18.5956291 72.8914296,18.7490519 72.9172267,18.9000112 C73.1057851,20.0034156 73.2518092,20.8912826 73.3552992,21.5636122 C76.7387258,43.5442678 74.9796305,60.3824015 72.5,76.5" id="Path" stroke="#000000" stroke-width="3"></path>
    </g>
  </g>
</svg>
