<?xml version="1.0" encoding="UTF-8"?><svg viewBox="0 0 130 130" version="1.1" xmlns="http://www.w3.org/2000/svg" xmlns:xlink="http://www.w3.org/1999/xlink">
  <title>scale</title>
  <g id="strokes" stroke="none" stroke-width="1" fill="none" fill-rule="evenodd">
    <g id="scale" transform="translate(1.000000, 1.000000)">
      <g id="Group" stroke="#979797" stroke-opacity="0.01" stroke-width="0.1">
        <g id="Rectangle">
          <rect x="0" y="0" width="128" height="128"></rect>
        </g>
      </g>
      <path d="M108.5,80.5 L88.5,80.5 C84.081722,80.5 80.5,76.918278 80.5,72.5 L80.5,72.5 L80.5,72.5 L112.5,72.5 L96.5,40.5 L84.3848018,64.7303965 L96.5,40.5 L96.5,24.5 L112.5,24.5 L72.5,24.5 C68.081722,24.5 64.5,20.918278 64.5,16.5 L64.5,16.5 L64.5,16.5 C64.5,20.918278 60.918278,24.5 56.5,24.5 L16.5,24.5 L16.5,24.5 L32.5,24.5 L32.5,40.5 L44.6524448,64.8048895 L32.5,40.5 L16.5,72.5 L48.5,72.5 C48.5,76.918278 44.918278,80.5 40.5,80.5 L20.5,80.5 L20.5,80.5" id="Path-304" stroke="#000000" stroke-width="3"></path>
      <path d="M24.5,112.5 C24.5,108.081722 28.081722,104.5 32.5,104.5 L48.5,104.5 C57.336556,104.5 64.5,97.336556 64.5,88.5 L64.5,32.5 L64.5,32.5 L64.5,88.5 C64.5,97.336556 71.663444,104.5 80.5,104.5 L96.5,104.5 C100.918278,104.5 104.5,108.081722 104.5,112.5 L104.5,112.5 L104.5,112.5 L40.5,112.5" id="Path-305" stroke="#000000" stroke-width="3"></path>
    </g>
  </g>
</svg>
