<?xml version="1.0" encoding="UTF-8"?><svg viewBox="0 0 130 130" version="1.1" xmlns="http://www.w3.org/2000/svg" xmlns:xlink="http://www.w3.org/1999/xlink">
  <title>scan</title>
  <g id="strokes" stroke="none" stroke-width="1" fill="none" fill-rule="evenodd">
    <g id="scan" transform="translate(1.000000, 1.000000)">
      <g id="Group" stroke="#979797" stroke-opacity="0.01" stroke-width="0.1">
        <g id="Rectangle">
          <rect x="0" y="0" width="128" height="128"></rect>
        </g>
      </g>
      <path d="M48.5,104.5 L32.5,104.5 C28.081722,104.5 24.5,100.918278 24.5,96.5 L24.5,80.5 L24.5,80.5" id="Path-245" stroke="#000000" stroke-width="3"></path>
      <path d="M80.5,104.5 L96.5,104.5 C100.918278,104.5 104.5,100.918278 104.5,96.5 L104.5,80.5 L104.5,80.5" id="Path-246" stroke="#000000" stroke-width="3"></path>
      <path d="M80.5,24.5 L96.5,24.5 C100.918278,24.5 104.5,28.081722 104.5,32.5 L104.5,48.5 L104.5,48.5" id="Path-247" stroke="#000000" stroke-width="3"></path>
      <path d="M24.5,48.5 L24.5,32.5 C24.5,28.081722 28.081722,24.5 32.5,24.5 L48.5,24.5 L48.5,24.5" id="Path-251" stroke="#000000" stroke-width="3"></path>
      <line x1="16.5" y1="64.5" x2="112.5" y2="64.5" id="Path-314" stroke="#000000" stroke-width="3"></line>
    </g>
  </g>
</svg>
