<?xml version="1.0" encoding="UTF-8"?>
<svg width="130px" height="130px" viewBox="0 0 130 130" version="1.1" xmlns="http://www.w3.org/2000/svg" xmlns:xlink="http://www.w3.org/1999/xlink">
    <title>scissors</title>
    <g id="strokes" stroke="none" stroke-width="1" fill="none" fill-rule="evenodd">
        <g id="scissors" transform="translate(1.000000, 1.000000)">
            <g id="Group" stroke="#979797" stroke-opacity="0.01" stroke-width="0.1">
                <g id="Rectangle">
                    <rect x="0" y="0" width="128" height="128"></rect>
                </g>
            </g>
            <path d="M48.5,64.5 L80.5,80.5 C90.5722337,85.5361169 102.427766,85.5361169 112.5,80.5 L112.5,80.5 L112.5,80.5 L44.021921,46.1407662 C44.3337213,44.979852 44.5,43.7593442 44.5,42.5 C44.5,34.7680135 38.2319865,28.5 30.5,28.5 C22.7680135,28.5 16.5,34.7680135 16.5,42.5 C16.5,50.2319865 22.7680135,56.5 30.5,56.5 C34.4621576,56.5 38.0398878,54.8540705 40.5867499,52.208652" id="Path" stroke="#000000" stroke-width="3"></path>
            <path d="M72.6648444,92.8053346 L80.5,96.7229124 C90.5722337,101.759029 102.427766,101.759029 112.5,96.7229124 C97.3507835,89.1217139 86.8637859,83.859808 81.0390069,80.9371948 M56.6564498,68.7031194 C53.0997504,66.9185269 48.8882408,64.8053799 44.021921,62.3636785 C44.3337213,61.2027644 44.5,59.9822566 44.5,58.7229124 C44.5,50.9909259 38.2319865,44.7229124 30.5,44.7229124 C22.7680135,44.7229124 16.5,50.9909259 16.5,58.7229124 C16.5,66.4548989 22.7680135,72.7229124 30.5,72.7229124 C34.4621576,72.7229124 38.0398878,71.0769828 40.5867499,68.4315643 L48.5,72.7229124 L48.5,75.7786405 C48.5,77.5666161 49.0960682,79.2640435 50.1415699,80.6336627" id="Shape" stroke="#000000" stroke-width="3" transform="translate(64.500000, 72.611456) scale(1, -1) translate(-64.500000, -72.611456) "></path>
            <line x1="63.5" y1="64.5" x2="65.5" y2="64.5" id="Path-222" stroke="#000000" stroke-width="3"></line>
        </g>
    </g>
</svg>