<?xml version="1.0" encoding="UTF-8"?>
<svg width="130px" height="130px" viewBox="0 0 130 130" version="1.1" xmlns="http://www.w3.org/2000/svg" xmlns:xlink="http://www.w3.org/1999/xlink">
    <title>scooter</title>
    <g id="strokes" stroke="none" stroke-width="1" fill="none" fill-rule="evenodd">
        <g id="scooter" transform="translate(1.000000, 1.000000)">
            <g id="Group" stroke="#979797" stroke-opacity="0.01" stroke-width="0.1">
                <g id="Rectangle">
                    <rect x="0" y="0" width="128" height="128"></rect>
                </g>
            </g>
            <path d="M73.5,32.5 L87.0088472,32.5 C90.7919449,32.5 94.0578877,35.1499667 94.8372455,38.8519162 L101.5,70.5 L101.5,70.5 L97.5,70.5 C88.663444,70.5 81.5,77.663444 81.5,86.5 L81.5,88.5 L81.5,88.5 L40.5,88.5 C40.5,82.9771525 36.0228475,78.5 30.5,78.5 C24.9771525,78.5 20.5,82.9771525 20.5,88.5 C20.5,94.0228475 24.9771525,98.5 30.5,98.5 L30.5,98.5 L30.5,98.5" id="Path-365" stroke="#000000" stroke-width="3"></path>
            <path d="M91.315276,95.4555665 C89.5725394,93.6557775 88.5,91.2031413 88.5,88.5 C88.5,82.9771525 92.9771525,78.5 98.5,78.5 C104.022847,78.5 108.5,82.9771525 108.5,88.5 C108.5,94.0228475 104.022847,98.5 98.5,98.5" id="Path" stroke="#000000" stroke-width="3"></path>
        </g>
    </g>
</svg>