<?xml version="1.0" encoding="UTF-8"?>
<svg width="130px" height="130px" viewBox="0 0 130 130" version="1.1" xmlns="http://www.w3.org/2000/svg" xmlns:xlink="http://www.w3.org/1999/xlink">
    <title>shield</title>
    <g id="strokes" stroke="none" stroke-width="1" fill="none" fill-rule="evenodd">
        <g id="shield" transform="translate(1.000000, 1.000000)">
            <g id="Group" stroke="#979797" stroke-opacity="0.01" stroke-width="0.1">
                <g id="Rectangle">
                    <rect x="0" y="0" width="128" height="128"></rect>
                </g>
            </g>
            <path d="M64.5,32.5 L64.5,110.631483 C64.5,111.183768 64.9477153,111.631483 65.5,111.631483 C65.697425,111.631483 65.8904327,111.573045 66.0547002,111.463533 L89.8128047,95.6247969 C96.4895728,91.1736182 100.5,83.6800663 100.5,75.6555898 L100.5,31.3035088 C100.500016,29.9467394 99.5894076,28.7588489 98.2792017,28.4064518 C78.3324182,23.0415016 67.0726843,19.0726843 64.5,16.5 C61.9273153,19.0726847 50.6675782,23.0415028 30.7207886,28.4064544 C29.4105992,28.7588614 28.5,29.9467401 28.5,31.3034962 L28.5,76.2112449 C28.5,83.9274059 32.2099606,91.1729775 38.4704449,95.6835736 L48.4192006,102.85152 L48.4192006,102.85152" id="Path-253" stroke="#000000" stroke-width="3"></path>
        </g>
    </g>
</svg>