<?xml version="1.0" encoding="UTF-8"?>
<svg width="130px" height="130px" viewBox="0 0 130 130" version="1.1" xmlns="http://www.w3.org/2000/svg" xmlns:xlink="http://www.w3.org/1999/xlink">
    <title>ship</title>
    <g id="strokes" stroke="none" stroke-width="1" fill="none" fill-rule="evenodd">
        <g id="ship" transform="translate(1.000000, 1.000000)">
            <g id="Group" stroke="#979797" stroke-opacity="0.01" stroke-width="0.1">
                <g id="Rectangle">
                    <rect x="0" y="0" width="128" height="128"></rect>
                </g>
            </g>
            <path d="M16.5423728,108.499554 C24.5287213,108.548606 32.5,104.548755 32.5,96.5 C32.5,112.5 64.5,112.5 64.5,96.5 C64.5,112.5 96.5,112.5 96.5,96.5 C96.5,104.579675 104.660144,108.579279 112.739018,108.49881" id="Path-360" stroke="#000000" stroke-width="3"></path>
            <path d="M22.4003973,96.633093 C18.4667991,89.7770032 16.5,81.7326388 16.5,72.5 C32.2700928,61.9866048 48.7299072,55.2416506 64.5,52.5 C80.5231064,55.2613946 97.1194336,62.028125 112.5,72.5 C112.5,81.8834229 110.416009,90.0511842 106.248027,97.0032841" id="Path" stroke="#000000" stroke-width="3"></path>
            <path d="M28.5,65.5 L28.5,40.5 C28.5,36.081722 32.081722,32.5 36.5,32.5 L68.5,32.5 L68.5,32.5 L52.5,32.5 L52.5,19.5 C52.5,17.8431458 53.8431458,16.5 55.5,16.5 L73.5,16.5 C75.1568542,16.5 76.5,17.8431458 76.5,19.5 L76.5,32.5 L76.5,32.5 L93,32.5 C97.418278,32.5 101,36.081722 101,40.5 L101,56.5 L101,56.5" id="Path-361" stroke="#000000" stroke-width="3"></path>
        </g>
    </g>
</svg>