<?xml version="1.0" encoding="UTF-8"?><svg viewBox="0 0 130 130" version="1.1" xmlns="http://www.w3.org/2000/svg" xmlns:xlink="http://www.w3.org/1999/xlink">
  <title>ship-side-view</title>
  <g id="strokes" stroke="none" stroke-width="1" fill="none" fill-rule="evenodd">
    <g id="ship-side-view" transform="translate(1.000000, 1.000000)">
      <g id="Group" stroke="#979797" stroke-opacity="0.01" stroke-width="0.1">
        <g id="Rectangle">
          <rect x="0" y="0" width="128" height="128"></rect>
        </g>
      </g>
      <path d="M16.5423728,108.499554 C24.5287213,108.548606 32.5,104.548755 32.5,96.5 C32.5,112.5 64.5,112.5 64.5,96.5 C64.5,112.5 96.5,112.5 96.5,96.5 C96.5,104.579675 104.660144,108.579279 112.739018,108.49881" id="Path-360" stroke="#000000" stroke-width="3"></path>
      <path d="M112.5,32.5 L112.5,19.5 C112.5,17.8431458 111.156854,16.5 109.5,16.5 L99.5,16.5 C97.8431458,16.5 96.5,17.8431458 96.5,19.5 L96.5,32.5 L96.5,32.5 L104.5,32.5 L76.5,32.5 L76.5,19.5 C76.5,17.8431458 75.1568542,16.5 73.5,16.5 L63.5,16.5 C61.8431458,16.5 60.5,17.8431458 60.5,19.5 L60.5,32.5 L60.5,32.5 L68.5,32.5 L40.5,32.5 C36.081722,32.5 32.5,36.081722 32.5,40.5 L32.5,56.5 L32.5,56.5 L118.5,56.5 C58.1666667,56.5 22.1666667,56.5 10.5,56.5 C10.5,69.8566849 15.1688975,81.4932496 24.5066925,91.4096942" id="Path-362" stroke="#000000" stroke-width="3"></path>
    </g>
  </g>
</svg>
