<?xml version="1.0" encoding="UTF-8"?>
<svg width="130px" height="130px" viewBox="0 0 130 130" version="1.1" xmlns="http://www.w3.org/2000/svg" xmlns:xlink="http://www.w3.org/1999/xlink">
    <title>shuffle</title>
    <g id="strokes" stroke="none" stroke-width="1" fill="none" fill-rule="evenodd">
        <g id="shuffle" transform="translate(1.000000, 1.000000)">
            <g id="Group" stroke="#979797" stroke-opacity="0.01" stroke-width="0.1">
                <g id="Rectangle">
                    <rect x="0" y="0" width="128" height="128"></rect>
                </g>
            </g>
            <path d="M92.5,76.5 L109.64169,86.7850141 C110.588851,87.3533105 110.895981,88.581831 110.327685,89.5289915 C110.158785,89.8104907 109.923189,90.0460863 109.64169,90.2149859 L94.0144958,99.5913025 C93.5409155,99.8754507 92.9266552,99.7218856 92.6425071,99.2483054 C92.5492578,99.09289 92.5,98.9150536 92.5,98.7338096 L92.5,88.5 L92.5,88.5 L80.0192137,88.5 C77.7767627,88.5 75.63726,87.5588291 74.1219806,85.905797 L34.8780194,43.094203 C33.36274,41.4411709 31.2232373,40.5 28.9807863,40.5 L16.5,40.5 L16.5,40.5" id="Path-181" stroke="#000000" stroke-width="3"></path>
            <path d="M92.5,65.2660393 L109.64169,75.5510534 C110.588851,76.1193497 110.895981,77.3478702 110.327685,78.2950308 C110.158785,78.57653 109.923189,78.8121256 109.64169,78.9810251 L94.0144958,88.3573418 C93.5409155,88.64149 92.9266552,88.4879249 92.6425071,88.0143446 C92.5492578,87.8589292 92.5,87.6810928 92.5,87.4998489 L92.5,77.2660393 L92.5,77.2660393 L80.0192137,77.2660393 C77.7767627,77.2660393 75.63726,76.3248684 74.1219806,74.6718363 L59.2026972,58.3962544 L59.2026972,58.3962544 M48.3277857,46.5327145 L34.8780194,31.8602422 C33.36274,30.2072101 31.2232373,29.2660393 28.9807863,29.2660393 L16.5,29.2660393 L16.5,29.2660393" id="Shape" stroke="#000000" stroke-width="3" transform="translate(63.556500, 58.883020) scale(1, -1) translate(-63.556500, -58.883020) "></path>
        </g>
    </g>
</svg>