<?xml version="1.0" encoding="UTF-8"?>
<svg width="130px" height="130px" viewBox="0 0 130 130" version="1.1" xmlns="http://www.w3.org/2000/svg" xmlns:xlink="http://www.w3.org/1999/xlink">
    <title>signature</title>
    <g id="strokes" stroke="none" stroke-width="1" fill="none" fill-rule="evenodd">
        <g id="signature" transform="translate(1.000000, 1.000000)">
            <g id="Group" stroke="#979797" stroke-opacity="0.01" stroke-width="0.1">
                <g id="Rectangle">
                    <rect x="0" y="0" width="128" height="128"></rect>
                </g>
            </g>
            <path d="M16.5,84.5 L43,84.5 M54.5,84.5 L112.5,84.5" id="Shape" stroke="#000000" stroke-width="3"></path>
            <path d="M112.5,64.5 C99.5,64.5 99.5,76.5 96.5,76.5 C93.5,76.5 97.5306456,56.5 88.5,56.5 C79.4693544,56.5 73,76.5 64.5,76.5 C62.2805004,76.5 62.4110318,73.0466956 64.8915943,66.1400868 C65.0782791,65.6203092 64.8082515,65.0476095 64.2884731,64.860927 C64.121402,64.8009221 63.9413691,64.7864728 63.7668664,64.8190633 C44.6917422,68.3815723 33.2173377,72.2438641 29.3436529,76.4059387 C28.4435486,77.3730543 27.6688953,78.3967759 27.0196929,79.4771033 M24.5526849,90.5715376 C24.624058,91.6186444 24.7662915,92.6056015 24.9692238,93.533425 C26.686052,101.382907 32.7472992,105 37,105 C42,105 49,101.5 49,89 C49,80.6666667 48.8333333,60.8333333 48.5,29.5 L48.5,44.5 C48.5,51.127417 43.127417,56.5 36.5,56.5 C29.872583,56.5 24.5,51.127417 24.5,44.5 C24.5,37.872583 29.872583,32.5 36.5,32.5 L36.5,32.5 L36.5,32.5" id="Shape" stroke="#000000" stroke-width="3"></path>
        </g>
    </g>
</svg>