<?xml version="1.0" encoding="UTF-8"?>
<svg width="130px" height="130px" viewBox="0 0 130 130" version="1.1" xmlns="http://www.w3.org/2000/svg" xmlns:xlink="http://www.w3.org/1999/xlink">
    <title>slide-view</title>
    <g id="strokes" stroke="none" stroke-width="1" fill="none" fill-rule="evenodd">
        <g id="slide-view" transform="translate(1.000000, 1.000000)">
            <g id="Group" stroke="#979797" stroke-opacity="0.01" stroke-width="0.1">
                <g id="Rectangle">
                    <rect x="0" y="0" width="128" height="128"></rect>
                </g>
            </g>
            <path d="M16.5,24.5 L16.5,80.5 C16.5,84.918278 20.081722,88.5 24.5,88.5 L104.5,88.5 C108.918278,88.5 112.5,84.918278 112.5,80.5 L112.5,32.5 C112.5,28.081722 108.918278,24.5 104.5,24.5 L24.5,24.5 L24.5,24.5" id="Path-113" stroke="#000000" stroke-width="3"></path>
            <line x1="20.5" y1="104.5" x2="28.5" y2="104.5" id="Path-120" stroke="#000000" stroke-width="3"></line>
            <line x1="36.5" y1="104.5" x2="44.5" y2="104.5" id="Path-120-Copy" stroke="#000000" stroke-width="3"></line>
            <line x1="52.5" y1="104.5" x2="60.5" y2="104.5" id="Path-120-Copy-2" stroke="#000000" stroke-width="3"></line>
            <line x1="68.5" y1="104.5" x2="76.5" y2="104.5" id="Path-120-Copy-3" stroke="#000000" stroke-width="3"></line>
            <line x1="84.5" y1="104.5" x2="92.5" y2="104.5" id="Path-120-Copy-4" stroke="#000000" stroke-width="3"></line>
            <line x1="100.5" y1="104.5" x2="108.5" y2="104.5" id="Path-120-Copy-5" stroke="#000000" stroke-width="3"></line>
        </g>
    </g>
</svg>