<?xml version="1.0" encoding="UTF-8"?><svg viewBox="0 0 130 130" version="1.1" xmlns="http://www.w3.org/2000/svg" xmlns:xlink="http://www.w3.org/1999/xlink">
  <title>sliders</title>
  <g id="strokes" stroke="none" stroke-width="1" fill="none" fill-rule="evenodd">
    <g id="sliders" transform="translate(1.000000, 1.000000)">
      <g id="Group" stroke="#979797" stroke-opacity="0.01" stroke-width="0.1">
        <g id="Rectangle">
          <rect x="0" y="0" width="128" height="128"></rect>
        </g>
      </g>
      <path d="M16.5,40.5 L32.5,40.5 C32.5,36.081722 36.081722,32.5 40.5,32.5 C44.918278,32.5 48.5,36.081722 48.5,40.5 L48.5,40.5 L48.5,40.5 L112.5,40.5 L48.5,40.5 C48.5,44.918278 44.918278,48.5 40.5,48.5 L40.5,48.5 L40.5,48.5" id="Path-315" stroke="#000000" stroke-width="3"></path>
      <path d="M16.5,64.5 L80.5,64.5 C80.5,60.081722 84.081722,56.5 88.5,56.5 C92.918278,56.5 96.5,60.081722 96.5,64.5 L96.5,64.5 L96.5,64.5 L112.5,64.5 L96.5,64.5 C96.5,68.918278 92.918278,72.5 88.5,72.5 L88.5,72.5 L88.5,72.5" id="Path-315-Copy" stroke="#000000" stroke-width="3"></path>
      <path d="M16.5,88.5 L56.5,88.5 C56.5,84.081722 60.081722,80.5 64.5,80.5 C68.918278,80.5 72.5,84.081722 72.5,88.5 L72.5,88.5 L72.5,88.5 L112.5,88.5 L72.5,88.5 C72.5,92.918278 68.918278,96.5 64.5,96.5 L64.5,96.5 L64.5,96.5" id="Path-315-Copy-2" stroke="#000000" stroke-width="3"></path>
    </g>
  </g>
</svg>
