<?xml version="1.0" encoding="UTF-8"?><svg viewBox="0 0 130 130" version="1.1" xmlns="http://www.w3.org/2000/svg" xmlns:xlink="http://www.w3.org/1999/xlink">
  <title>snowflake</title>
  <g id="strokes" stroke="none" stroke-width="1" fill="none" fill-rule="evenodd">
    <g id="snowflake" transform="translate(1.000000, 1.000000)">
      <g id="Group" stroke="#979797" stroke-opacity="0.01" stroke-width="0.1">
        <g id="Rectangle">
          <rect x="0" y="0" width="128" height="128"></rect>
        </g>
      </g>
      <polyline id="Path-276" stroke="#000000" stroke-width="3" points="50.5 18.5 64.5 32.5 78.5 18.5 64.5 32.5 64.5 16.5 64.5 112.5 64.5 96.5 78.5 110.5 64.5 96.5 50.5 110.5"></polyline>
      <polyline id="Path-276-Copy-2" stroke="#000000" stroke-width="3" transform="translate(64.500000, 64.500000) rotate(-60.000000) translate(-64.500000, -64.500000)" points="50.5 18.5 64.5 32.5 78.5 18.5 64.5 32.5 64.5 16.5 64.5 112.5 64.5 96.5 78.5 110.5 64.5 96.5 50.5 110.5"></polyline>
      <path d="M50.5,18.5 L64.5,32.5 L78.5,18.5 L64.5,32.5 L64.5,16.5 L64.5,54.6387841 M64.5,73.2451905 L64.5,112.5 L64.5,96.5 L78.5,110.5 L64.5,96.5 L50.5,110.5" id="Shape" stroke="#000000" stroke-width="3" transform="translate(64.500000, 64.500000) rotate(60.000000) translate(-64.500000, -64.500000)"></path>
    </g>
  </g>
</svg>
