<?xml version="1.0" encoding="UTF-8"?>
<svg width="130px" height="130px" viewBox="0 0 130 130" version="1.1" xmlns="http://www.w3.org/2000/svg" xmlns:xlink="http://www.w3.org/1999/xlink">
    <title>sort-off</title>
    <g id="strokes" stroke="none" stroke-width="1" fill="none" fill-rule="evenodd">
        <g id="sort-off" transform="translate(1.000000, 1.000000)">
            <g id="Group" stroke="#979797" stroke-opacity="0.01" stroke-width="0.1">
                <g id="Rectangle">
                    <rect x="0" y="0" width="128" height="128"></rect>
                </g>
            </g>
            <line x1="16.5" y1="16.5" x2="112.5" y2="112.5" id="Path-69" stroke="#000000" stroke-width="3"></line>
            <path d="M104.5,32.5 L40.5,32.5 M24.5,36.5 C24.5,38.709139 26.290861,40.5 28.5,40.5 L32.5,40.5 L32.5,40.5 M49,40.5 L84.5,40.5 C86.709139,40.5 88.5,42.290861 88.5,44.5 C88.5,46.709139 86.709139,48.5 84.5,48.5 L56.5,48.5 L56.5,48.5 M40.5,48.5 L28.5,48.5 C26.290861,48.5 24.5,50.290861 24.5,52.5 C24.5,54.709139 26.290861,56.5 28.5,56.5 L48.5,56.5 L48.5,56.5 M64.5,56.5 L68.5,56.5 C70.709139,56.5 72.5,58.290861 72.5,60.5 M56.5,64.5 L56.5,64.5 L28.5,64.5 C26.290861,64.5 24.5,66.290861 24.5,68.5 C24.5,70.709139 26.290861,72.5 28.5,72.5 L52.5,72.5 C54.709139,72.5 56.5,74.290861 56.5,76.5 C56.5,78.709139 54.709139,80.5 52.5,80.5 L28.5,80.5 C26.290861,80.5 24.5,82.290861 24.5,84.5 L24.5,96.5 L24.5,96.5" id="Shape" stroke="#000000" stroke-width="3"></path>
        </g>
    </g>
</svg>