<?xml version="1.0" encoding="UTF-8"?>
<svg width="130px" height="130px" viewBox="0 0 130 130" version="1.1" xmlns="http://www.w3.org/2000/svg" xmlns:xlink="http://www.w3.org/1999/xlink">
    <title>sort-off</title>
    <g id="strokes" stroke="none" stroke-width="1" fill="none" fill-rule="evenodd">
        <g id="sort-off" transform="translate(1.000000, 1.000000)">
            <g id="Group" stroke="#979797" stroke-opacity="0.01" stroke-width="0.1">
                <g id="Rectangle">
                    <rect x="0" y="0" width="128" height="128"></rect>
                </g>
            </g>
            <line x1="16.5" y1="16.5" x2="112.5" y2="112.5" id="Path-69" stroke="#000000" stroke-width="3"></line>
            <path d="M16.5,104.5 L16.5,96.5 C16.5,92.081722 20.081722,88.5 24.5,88.5 L40.5,88.5 C44.918278,88.5 48.5,84.918278 48.5,80.5 C48.5,76.081722 44.918278,72.5 40.5,72.5 L24.5,72.5 C20.081722,72.5 16.5,68.918278 16.5,64.5 C16.5,60.081722 20.081722,56.5 24.5,56.5 L48.5,56.5 M64.5,56.5 L72.5,56.5 C76.918278,56.5 80.5,52.918278 80.5,48.5 C80.5,44.081722 76.918278,40.5 72.5,40.5 L48.5,40.5 M32.5,40.5 L24.5,40.5 C20.081722,40.5 16.5,36.918278 16.5,32.5 M32.5,24.5 L112.5,24.5" id="Shape" stroke="#020202" stroke-width="3"></path>
        </g>
    </g>
</svg>