<?xml version="1.0" encoding="UTF-8"?><svg viewBox="0 0 130 130" version="1.1" xmlns="http://www.w3.org/2000/svg" xmlns:xlink="http://www.w3.org/1999/xlink">
  <title>sparkles</title>
  <g id="strokes" stroke="none" stroke-width="1" fill="none" fill-rule="evenodd">
    <g id="sparkles" transform="translate(1.000000, 1.000000)">
      <g id="Group" stroke="#979797" stroke-opacity="0.01" stroke-width="0.1">
        <g id="Rectangle">
          <rect x="0" y="0" width="128" height="128"></rect>
        </g>
      </g>
      <path d="M88.5,64 L88.5,60.5 C88.5,49.454305 97.454305,40.5 108.5,40.5 L112.5,40.5 L108.5,40.5 C97.454305,40.5 88.5,31.545695 88.5,20.5 L88.5,16.5 L88.5,20.5 C88.5,31.545695 79.545695,40.5 68.5,40.5 L64.5,40.5 L68.5,40.5 C74.0504129,40.5 79.072746,42.7609782 82.6962256,46.4121607" id="Path-307" stroke="#000000" stroke-width="3"></path>
      <path d="M36.4970929,84.1555106 L36.5,84.5 L36.5,82.5 C36.5,72.5588745 44.5588745,64.5 54.5,64.5 C44.5588745,64.5 36.5,56.4411255 36.5,46.5 C36.5,56.4411255 28.4411255,64.5 18.5,64.5 L16.5,64.5 C21.9958317,64.5 26.9739186,66.7167292 30.5889239,70.3048509" id="Path" stroke="#000000" stroke-width="3"></path>
      <path d="M80.4969636,112.185129 L80.5,112.5 C80.5,103.768641 87.493901,96.6707953 96.1851293,96.5030364 L96.5,96.5 C87.7686411,96.5 80.6707953,89.506099 80.5030364,80.8148707 L80.5,80.5 C80.5,89.2313589 73.506099,96.3292047 64.8148707,96.4969636 L64.5,96.5 C68.9518926,96.5 72.9791183,98.3182146 75.8796023,101.252569" id="Path" stroke="#000000" stroke-width="3"></path>
    </g>
  </g>
</svg>
