<?xml version="1.0" encoding="UTF-8"?>
<svg width="130px" height="130px" viewBox="0 0 130 130" version="1.1" xmlns="http://www.w3.org/2000/svg" xmlns:xlink="http://www.w3.org/1999/xlink">
    <title>speaker</title>
    <g id="strokes" stroke="none" stroke-width="1" fill="none" fill-rule="evenodd">
        <g id="speaker" transform="translate(3.000000, 0.000000)">
            <g transform="translate(-2.000000, 1.000000)">
                <g id="Group" stroke="#979797" stroke-opacity="0.01" stroke-width="0.1">
                    <g id="Rectangle">
                        <rect x="0" y="0" width="128" height="128"></rect>
                    </g>
                </g>
                <path d="M106.5,23.5 L106.5,103.5 C106.5,107.918278 102.918278,111.5 98.5,111.5 L34.5,111.5 C30.081722,111.5 26.5,107.918278 26.5,103.5 L26.5,23.5 C26.5,19.081722 30.081722,15.5 34.5,15.5 L98.5,15.5 L98.5,15.5" id="Path-89" stroke="#000000" stroke-width="3"></path>
                <circle id="Oval" stroke="#000000" stroke-width="3" cx="66.5" cy="35.5" r="12"></circle>
                <circle id="Oval-Copy-2" stroke="#000000" stroke-width="3" cx="66.5" cy="79.5" r="8"></circle>
                <path d="M66.5,95.5 C68.2232158,95.5 69.8828051,95.2275824 71.4380515,94.7234635 C72.9645151,94.2286744 74.3904622,93.5106808 75.6773955,92.60798 C75.7592946,92.550533 75.8406307,92.492338 75.921394,92.4334049 C77.2659817,91.4522556 78.4517724,90.2665173 79.4329807,88.9219753 C80.3043593,87.727932 81.0143914,86.408646 81.5310095,84.9961849 C81.5964256,84.8173338 81.6587406,84.6369887 81.7178894,84.4552148 C82.225574,82.8950171 82.5,81.2295564 82.5,79.5 C82.5,77.9588287 82.2820998,76.4685508 81.8754269,75.0582936 C81.8204506,74.8676473 81.7620245,74.6784634 81.7002205,74.4908138 C81.1832736,72.9212578 80.4300053,71.4590471 79.4825251,70.146291 C78.540497,68.8410889 77.4064856,67.6836265 76.1218778,66.7152904 C74.7264066,65.6633857 73.1532239,64.8346595 71.455383,64.2821653 C69.8951368,63.7744457 68.2296185,63.5 66.5,63.5 C64.7744315,63.5 63.1126633,63.773162 61.5555789,64.2786026 C59.9414587,64.8025574 58.4398317,65.5761192 57.0962406,66.5537455 C57.0169753,66.6114207 56.93826,66.669806 56.8601041,66.7288923 C55.5837527,67.6938209 54.4565866,68.8456715 53.5193336,70.1437162 C52.5543876,71.4801142 51.7907433,72.9714733 51.2728463,74.5733477 C51.2164795,74.7476922 51.1630237,74.9233459 51.1125363,75.1002513 C50.7136021,76.4980982 50.5,77.9741044 50.5,79.5 C50.5,81.2061622 50.7670524,82.8499509 51.2616377,84.3918468 C51.3170471,84.5645887 51.3753124,84.7360517 51.4363778,84.9061802 C51.9583421,86.3603733 52.6848967,87.7170694 53.5813382,88.9415652 C54.5471894,90.2608713 55.710254,91.4267124 57.0271273,92.3956837 C57.1249981,92.4676982 57.2237185,92.5386254 57.3232707,92.6084473 C58.6188475,93.5171128 60.0552944,94.238589 61.5933376,94.733602 C63.1395177,95.2312339 64.788372,95.5 66.5,95.5 Z" id="Oval-Copy-3" stroke="#000000" stroke-width="3"></path>
                <path d="M59.1680089,56.6406036 C56.711634,57.4278307 54.4275631,58.6000035 52.3867874,60.0861311 M47.0667983,65.4133736 C45.5980377,67.4360978 44.4373674,69.6970363 43.653697,72.1272794 M42.5,79.5 C42.5,82.0975722 42.9126671,84.5987609 43.6760186,86.9415834 M47.073338,93.5956283 C48.5434185,95.6182036 50.321657,97.4023308 52.3390867,98.8790428 M59.0477467,102.320502 C61.3936444,103.086079 63.898484,103.5 66.5,103.5 M73.9348056,102.326189 C76.3510935,101.5397 78.5990349,100.380223 80.6106583,98.9157287 M85.9065497,93.6232579 C87.3736265,91.6108268 88.5352833,89.3615132 89.3233663,86.943471 M90.5,79.5 C90.5,76.9139055 90.0909717,74.4233446 89.3340798,72.0894821 M85.9714587,65.4662102 C84.4856565,63.4083132 82.6816394,61.5953633 80.6315313,60.0994843 M73.9644385,56.6834781 C71.6150302,55.9153558 69.1060209,55.5 66.5,55.5" id="Shape" stroke="#000000" stroke-width="3"></path>
            </g>
        </g>
    </g>
</svg>