<?xml version="1.0" encoding="UTF-8"?><svg viewBox="0 0 130 130" version="1.1" xmlns="http://www.w3.org/2000/svg" xmlns:xlink="http://www.w3.org/1999/xlink">
  <title>speaker</title>
  <g id="strokes" stroke="none" stroke-width="1" fill="none" fill-rule="evenodd">
    <g id="speaker" transform="translate(1.000000, 1.000000)">
      <g id="Group" stroke="#979797" stroke-opacity="0.01" stroke-width="0.1">
        <g id="Rectangle">
          <rect x="0" y="0" width="128" height="128"></rect>
        </g>
      </g>
      <path d="M104.5,24.5 L104.5,104.5 C104.5,108.918278 100.918278,112.5 96.5,112.5 L32.5,112.5 C28.081722,112.5 24.5,108.918278 24.5,104.5 L24.5,24.5 C24.5,20.081722 28.081722,16.5 32.5,16.5 L96.5,16.5 L96.5,16.5" id="Path-89" stroke="#000000" stroke-width="3"></path>
      <path d="M64.5,24.5 C57.872583,24.5 52.5,29.872583 52.5,36.5 C52.5,43.127417 57.872583,48.5 64.5,48.5 C71.127417,48.5 76.5,43.127417 76.5,36.5" id="Path" stroke="#000000" stroke-width="3"></path>
      <path d="M64.5,88.5 C68.918278,88.5 72.5,84.918278 72.5,80.5 C72.5,76.081722 68.918278,72.5 64.5,72.5 C60.081722,72.5 56.5,76.081722 56.5,80.5 C56.5,83.5127329 58.1653559,86.136501 60.6257227,87.5009596" id="Path" stroke="#000000" stroke-width="3"></path>
      <path d="M64.5,24.5 C57.872583,24.5 52.5,29.872583 52.5,36.5 C52.5,43.127417 57.872583,48.5 64.5,48.5 C71.127417,48.5 76.5,43.127417 76.5,36.5 C76.5,33.2289719 75.1912307,30.2636232 73.0687772,28.099039" id="Path" stroke="#000000" stroke-width="3"></path>
      <path d="M80.6827883,98.2235641 C85.4865611,93.8349392 88.5,87.5193828 88.5,80.5 C88.5,73.3345402 85.3598335,66.9025056 80.3805662,62.5049617 M48.5242012,62.5895166 C43.600161,66.9847419 40.5,73.3803302 40.5,80.5 C40.5,87.7571409 43.7210366,94.2619685 48.8114616,98.6628344" id="Shape" stroke="#000000" stroke-width="3"></path>
    </g>
  </g>
</svg>
