<?xml version="1.0" encoding="UTF-8"?>
<svg width="130px" height="130px" viewBox="0 0 130 130" version="1.1" xmlns="http://www.w3.org/2000/svg" xmlns:xlink="http://www.w3.org/1999/xlink">
    <title>square-arrow-up</title>
    <g id="strokes" stroke="none" stroke-width="1" fill="none" fill-rule="evenodd">
        <g id="square-arrow-up" transform="translate(1.000000, 1.000000)">
            <g id="Group" stroke="#979797" stroke-opacity="0.01" stroke-width="0.1">
                <g id="Rectangle">
                    <rect x="0" y="0" width="128" height="128"></rect>
                </g>
            </g>
            <path d="M88.5,40.5 L65.9142136,17.9142136 C65.133165,17.133165 63.866835,17.133165 63.0857864,17.9142136 L40.5,40.5 L40.5,40.5" id="Path-324" stroke="#000000" stroke-width="3"></path>
            <line x1="64.5" y1="32.5" x2="64.5" y2="80.5" id="Path-325" stroke="#000000" stroke-width="3"></line>
            <path d="M76.5,52.5 L88.5,52.5 C92.918278,52.5 96.5,56.081722 96.5,60.5 L96.5,104.5 C96.5,108.918278 92.918278,112.5 88.5,112.5 L40.5,112.5 C36.081722,112.5 32.5,108.918278 32.5,104.5 L32.5,60.5 C32.5,56.081722 36.081722,52.5 40.5,52.5 L52.5,52.5 L52.5,52.5" id="Path-326" stroke="#000000" stroke-width="3"></path>
        </g>
    </g>
</svg>