<?xml version="1.0" encoding="UTF-8"?><svg viewBox="0 0 130 130" version="1.1" xmlns="http://www.w3.org/2000/svg" xmlns:xlink="http://www.w3.org/1999/xlink">
  <title>square-cut-top-bottom</title>
  <g id="strokes" stroke="none" stroke-width="1" fill="none" fill-rule="evenodd">
    <g id="square-cut-top-bottom" transform="translate(1.000000, 1.000000)">
      <g id="Group" stroke="#979797" stroke-opacity="0.01" stroke-width="0.1">
        <g id="Rectangle">
          <rect x="0" y="0" width="128" height="128"></rect>
        </g>
      </g>
      <path d="M44.5,4.5 L36.5,4.5 C32.081722,4.5 28.5,8.081722 28.5,12.5 L28.5,92.5 C28.5,96.918278 32.081722,100.5 36.5,100.5 L52.5,100.5 L52.5,100.5 L52.5,4.5 L100.5,4.5 L100.5,100.5 L60.5,100.5" id="Path-135" stroke="#000000" stroke-width="3" transform="translate(64.500000, 52.500000) rotate(90.000000) translate(-64.500000, -52.500000)"></path>
      <path d="M48.5,48.5 L72.5,48.5 C76.918278,48.5 80.5,52.081722 80.5,56.5 L80.5,136.5 C80.5,140.918278 76.918278,144.5 72.5,144.5 L64.5,144.5 L64.5,144.5" id="Path-136" stroke="#000000" stroke-width="3" transform="translate(64.500000, 96.500000) rotate(90.000000) translate(-64.500000, -96.500000)"></path>
    </g>
  </g>
</svg>
