<?xml version="1.0" encoding="UTF-8"?>
<svg width="130px" height="130px" viewBox="0 0 130 130" version="1.1" xmlns="http://www.w3.org/2000/svg" xmlns:xlink="http://www.w3.org/1999/xlink">
    <title>stack-horiz-compact</title>
    <g id="strokes" stroke="none" stroke-width="1" fill="none" fill-rule="evenodd">
        <g id="stack-horiz-compact" transform="translate(1.000000, 1.000000)">
            <g id="Group" stroke="#979797" stroke-opacity="0.01" stroke-width="0.1">
                <g id="Rectangle">
                    <rect x="0" y="0" width="128" height="128"></rect>
                </g>
            </g>
            <path d="M16.5,32.5 L16.5,24.5 C16.5,20.081722 20.081722,16.5 24.5,16.5 L104.5,16.5 C108.918278,16.5 112.5,20.081722 112.5,24.5 L112.5,40.5 L112.5,40.5 L16.5,40.5 L16.5,64.5 L112.5,64.5 L112.5,88.5 L16.5,88.5 L16.5,104.5 C16.5,108.918278 20.081722,112.5 24.5,112.5 L104.5,112.5 C108.918278,112.5 112.5,108.918278 112.5,104.5 L112.5,96.5 L112.5,96.5" id="Path-95" stroke="#000000" stroke-width="3"></path>
            <polyline id="Path-98" stroke="#000000" stroke-width="3" points="16.5 72.5 16.5 88.5 40.5 88.5"></polyline>
            <polyline id="Path-99" stroke="#000000" stroke-width="3" points="112.5 48.5 112.5 64.5 89 64.5"></polyline>
        </g>
    </g>
</svg>