<?xml version="1.0" encoding="UTF-8"?><svg viewBox="0 0 130 130" version="1.1" xmlns="http://www.w3.org/2000/svg" xmlns:xlink="http://www.w3.org/1999/xlink">
  <title>star</title>
  <g id="strokes" stroke="none" stroke-width="1" fill="none" fill-rule="evenodd">
    <g id="star" transform="translate(1.000000, 1.000000)">
      <g id="Group" stroke="#979797" stroke-opacity="0.01" stroke-width="0.1">
        <g id="Rectangle">
          <rect x="0" y="0" width="128" height="128"></rect>
        </g>
      </g>
      <path d="M51.8326706,47.4616342 L60.6960015,20.2001773 C61.3790496,18.099287 63.6358776,16.9498987 65.736768,17.6329468 C66.9539534,18.028682 67.9082634,18.9829919 68.3039985,20.2001773 C73.1082978,34.9770372 76.7115223,46.0596821 79.1136719,53.448112 M84.8062645,70.9571468 C86.480406,76.1064004 89.4399401,85.2092096 93.6848666,98.2655746 C94.3679147,100.366465 93.2185265,102.623293 91.1176361,103.306341 C89.898148,103.702825 88.5625011,103.490608 87.5259593,102.73567 C75.3584858,93.8738105 66.2328807,87.227416 60.149144,82.7964864 M44.5806518,71.4575846 C40.110254,68.2016879 32.2271944,62.4602687 20.931473,54.2333272 C19.1457557,52.9327469 18.7524744,50.4308085 20.0530546,48.6450912 C20.8059058,47.6114146 22.0076042,47 23.2863818,47 C39.3813232,47 51.4525293,47 59.5,47 M77,47 C82.3881839,47 91.95939,47 105.713618,47 C107.922757,47 109.713618,48.790861 109.713618,51 C109.713618,52.2787776 109.102204,53.480476 108.068527,54.2333272 C94.8356693,63.871131 84.911026,71.0994839 78.2945972,75.9183859 M53.7618838,93.7861425 C51.2275668,95.6319456 47.1316191,98.6151214 41.4740407,102.73567 C39.6883234,104.03625 37.186385,103.642969 35.8858048,101.857251 C35.1308668,100.82071 34.9186496,99.4850626 35.3151334,98.2655746 L46.0024241,65.3940592" id="Shape" stroke="#000000" stroke-width="3"></path>
    </g>
  </g>
</svg>
