<?xml version="1.0" encoding="UTF-8"?><svg viewBox="0 0 130 130" version="1.1" xmlns="http://www.w3.org/2000/svg" xmlns:xlink="http://www.w3.org/1999/xlink">
  <title>stop-circle</title>
  <g id="strokes" stroke="none" stroke-width="1" fill="none" fill-rule="evenodd">
    <g id="stop-circle" transform="translate(1.000000, 1.000000)">
      <g id="Group" stroke="#979797" stroke-opacity="0.01" stroke-width="0.1">
        <g id="Rectangle">
          <rect x="0" y="0" width="128" height="128"></rect>
        </g>
      </g>
      <path d="M64,118 C93.8233765,118 118,93.8233765 118,64 C118,34.1766235 93.8233765,10 64,10 C34.1766235,10 10,34.1766235 10,64 C10,78.9058861 16.0394532,92.4011824 25.8048286,102.172358" id="Path" stroke="#000000" stroke-width="3"></path>
      <path d="M44.5,92.5 C40.081722,92.5 36.5,88.918278 36.5,84.5 L36.5,44.5 C36.5,40.081722 40.081722,36.5 44.5,36.5 L84.5,36.5 C88.918278,36.5 92.5,40.081722 92.5,44.5 L92.5,84.5 C92.5,88.918278 88.918278,92.5 84.5,92.5 L56.5,92.5 L56.5,92.5" id="Path-194" stroke="#000000" stroke-width="3"></path>
    </g>
  </g>
</svg>
