<?xml version="1.0" encoding="UTF-8"?>
<svg width="130px" height="130px" viewBox="0 0 130 130" version="1.1" xmlns="http://www.w3.org/2000/svg" xmlns:xlink="http://www.w3.org/1999/xlink">
    <title>subscript</title>
    <g id="strokes" stroke="none" stroke-width="1" fill="none" fill-rule="evenodd">
        <g id="subscript" transform="translate(1.000000, 1.000000)">
            <g id="Group" stroke="#979797" stroke-opacity="0.01" stroke-width="0.1">
                <g id="Rectangle">
                    <rect x="0" y="0" width="128" height="128"></rect>
                </g>
            </g>
            <path d="M66,73 L45.5,73 L36,105 L59.0421737,28.1927543 C59.2008716,27.6637614 59.758355,27.363578 60.2873479,27.5222759 C60.6093277,27.6188698 60.8612323,27.8707745 60.9578263,28.1927543 L84,105 L84,105" id="Path-205" stroke="#000000" stroke-width="3"></path>
            <path d="M92.5,96.5 C92.5,92.081722 96.081722,88.5 100.5,88.5 C104.918278,88.5 108.5,92.081722 108.5,96.5 L108.5,108.5 L108.5,108.5 C108.5,110.709139 110.290861,112.5 112.5,112.5 L112.5,112.5 L112.5,112.5" id="Path-206" stroke="#000000" stroke-width="3"></path>
            <path d="M104.5,100.5 L98.5,100.5 C95.1862915,100.5 92.5,103.186292 92.5,106.5 C92.5,109.813708 95.1862915,112.5 98.5,112.5 L99.5,112.5 C103.825259,112.5 107.497364,109.330577 108.129533,105.051766 C108.376511,103.380149 108.5,101.862894 108.5,100.5" id="Path-207" stroke="#000000" stroke-width="3"></path>
        </g>
    </g>
</svg>