<?xml version="1.0" encoding="UTF-8"?><svg viewBox="0 0 130 130" version="1.1" xmlns="http://www.w3.org/2000/svg" xmlns:xlink="http://www.w3.org/1999/xlink">
  <title>sun</title>
  <g id="strokes" stroke="none" stroke-width="1" fill="none" fill-rule="evenodd">
    <g id="sun" transform="translate(1.000000, 1.000000)">
      <g id="Group" stroke="#979797" stroke-opacity="0.01" stroke-width="0.1">
        <g id="Rectangle">
          <rect x="0" y="0" width="128" height="128"></rect>
        </g>
      </g>
      <path d="M25,25 L41.5,41.5 C43.8792271,39.6133938 45.7125605,38.2800605 47,37.5 C48.1669331,36.7929544 50.0151588,35.8956287 52.5446771,34.8080228 C48.5532406,36.4166776 44.9606872,38.8068226 41.9565513,41.7889232 C38.9814561,44.7421962 36.5834569,48.2760353 34.9466445,52.20635 C33.3703535,55.9913406 32.5,60.1440293 32.5,64.5 L8.5,64.5 M25,104 L41.5,87.5 C39.6106126,84.786047 38.2772792,82.786047 37.5,81.5 C36.7828609,80.3134578 35.8745667,78.6045741 34.7751174,76.3733489 C36.3875041,80.4063353 38.7968821,84.0345206 41.8085348,87.0631881 C44.7542321,90.0255276 48.2761132,92.4143206 52.1919761,94.0473652 C55.9808261,95.6274413 60.1385146,96.5 64.5,96.5 L64.5,120.5 M104,104 L87.5,87.5 C86.8333333,88.1666667 85.5,89.1666667 83.5,90.5 C81.5,91.8333333 79.1818717,93.0518087 76.5456152,94.1554261 C80.5849718,92.5130514 84.2131035,90.0693543 87.232674,87.0216711 C90.1598006,84.0672926 92.5150577,80.5453439 94.1186841,76.6355863 C95.6536767,72.893163 96.5,68.7954162 96.5,64.5 L120.5,64.5 M104,25 L87.5,41.5 C88.1666667,42.5 89,43.6666667 90,45 C91,46.3333333 92.3955856,48.8439108 94.1867569,52.5317324 C92.5527024,48.4824032 90.1141868,44.8440005 87.0692401,41.8145544 C84.1308422,38.8911146 80.6277113,36.5347599 76.7378079,34.9234509 C72.9678293,33.3618181 68.8345589,32.5 64.5,32.5 L64.5,8.5" id="Shape" stroke="#000000" stroke-width="3"></path>
    </g>
  </g>
</svg>
