<?xml version="1.0" encoding="UTF-8"?><svg viewBox="0 0 130 130" version="1.1" xmlns="http://www.w3.org/2000/svg" xmlns:xlink="http://www.w3.org/1999/xlink">
  <title>superscript</title>
  <g id="strokes" stroke="none" stroke-width="1" fill="none" fill-rule="evenodd">
    <g id="superscript" transform="translate(1.000000, 1.000000)">
      <g id="Group" stroke="#979797" stroke-opacity="0.01" stroke-width="0.1">
        <g id="Rectangle">
          <rect x="0" y="0" width="128" height="128"></rect>
        </g>
      </g>
      <path d="M66,73 L45.5,73 L36,105 L59.0421737,28.1927543 C59.2008716,27.6637614 59.758355,27.363578 60.2873479,27.5222759 C60.6093277,27.6188698 60.8612323,27.8707745 60.9578263,28.1927543 L84,105 L84,105" id="Path-205" stroke="#000000" stroke-width="3"></path>
      <path d="M92.5,24.5 C92.5,20.081722 96.081722,16.5 100.5,16.5 C104.918278,16.5 108.5,20.081722 108.5,24.5 L108.5,36.5 L108.5,36.5 C108.5,38.709139 110.290861,40.5 112.5,40.5 L112.5,40.5 L112.5,40.5" id="Path-206" stroke="#000000" stroke-width="3"></path>
      <path d="M104.5,28.5 L98.5,28.5 C95.1862915,28.5 92.5,31.1862915 92.5,34.5 C92.5,37.8137085 95.1862915,40.5 98.5,40.5 L99.5,40.5 C103.825259,40.5 107.497364,37.3305768 108.129533,33.0517658 C108.376511,31.3801493 108.5,29.862894 108.5,28.5" id="Path-207" stroke="#000000" stroke-width="3"></path>
    </g>
  </g>
</svg>
