<?xml version="1.0" encoding="UTF-8"?>
<svg width="130px" height="130px" viewBox="0 0 130 130" version="1.1" xmlns="http://www.w3.org/2000/svg" xmlns:xlink="http://www.w3.org/1999/xlink">
    <title>symmetry</title>
    <g id="strokes" stroke="none" stroke-width="1" fill="none" fill-rule="evenodd">
        <g id="symmetry" transform="translate(1.000000, 1.000000)">
            <g id="Group" stroke="#979797" stroke-opacity="0.01" stroke-width="0.1">
                <g id="Rectangle">
                    <rect x="0" y="0" width="128" height="128"></rect>
                </g>
            </g>
            <path d="M56.5,32.5 L24.5,32.5 C20.081722,32.5 16.5,36.081722 16.5,40.5 L16.5,88.5 C16.5,92.918278 20.081722,96.5 24.5,96.5 L64.5,96.5 L64.5,112.5 L64.5,16.5 L64.5,32.5 L72.5,32.5 M80.5,32.5 L88.5,32.5 M96.5,32.5 L104,32.5 L104.5,32.5 C108.918278,32.5 112.5,36.081722 112.5,40.5 M112.5,48.5 L112.5,56.5 M112.5,64.5 L112.5,72.5 M112.5,80.5 L112.5,88.5 C112.5,92.918278 108.918278,96.5 104.5,96.5 L104,96.5 M96.5,96.5 L88.5,96.5 M80.5,96.5 L72.5,96.5" id="Shape" stroke="#000000" stroke-width="3"></path>
        </g>
    </g>
</svg>