<?xml version="1.0" encoding="UTF-8"?>
<svg width="130px" height="130px" viewBox="0 0 130 130" version="1.1" xmlns="http://www.w3.org/2000/svg" xmlns:xlink="http://www.w3.org/1999/xlink">
    <title>tag</title>
    <g id="strokes" stroke="none" stroke-width="1" fill="none" fill-rule="evenodd">
        <g id="tag" transform="translate(1.000000, 1.000000)">
            <g id="Group" stroke="#979797" stroke-opacity="0.01" stroke-width="0.1">
                <g id="Rectangle">
                    <rect x="0" y="0" width="128" height="128"></rect>
                </g>
            </g>
            <path d="M55.5,40 L18.3641163,76.6716851 C16.7922258,78.2239271 16.7762974,80.7565369 18.3285394,82.3284275 C18.3344315,82.3343942 18.3403424,82.3403424 18.3462719,82.3462719 L44.6715729,108.671573 C46.23367,110.23367 48.76633,110.23367 50.3284271,108.671573 L94.3542304,64.6457696 C95.0890747,63.9109253 95.5090791,62.9189348 95.5253151,61.8798349 L95.9355237,35.6264804 C95.9700373,33.4176111 94.2073737,31.5989898 91.9985043,31.5644763 C91.9568453,31.5638253 91.9151786,31.5638253 91.8735196,31.5644763 L67.9375076,31.9384764 C65.7530018,31.9726093 64,33.7532157 64,35.9379883 L64,55.5 C64,59.918278 67.581722,63.5 72,63.5 L72.25,63.5 C76.5302068,63.5 80,60.0302068 80,55.75 C80,51.4697932 76.5302068,48 72.25,48 L72,48 L72,48" id="Path-12" stroke="#000000" stroke-width="3"></path>
        </g>
    </g>
</svg>