<?xml version="1.0" encoding="UTF-8"?><svg viewBox="0 0 130 130" version="1.1" xmlns="http://www.w3.org/2000/svg" xmlns:xlink="http://www.w3.org/1999/xlink">
  <title>tag</title>
  <g id="strokes" stroke="none" stroke-width="1" fill="none" fill-rule="evenodd">
    <g id="tag" transform="translate(1.000000, 1.000000)">
      <g id="Group" stroke="#979797" stroke-opacity="0.01" stroke-width="0.1">
        <g id="Rectangle">
          <rect x="0" y="0" width="128" height="128"></rect>
        </g>
      </g>
      <path d="M64,32.5 L18.4179705,76.6722761 C16.8315334,78.209648 16.7917583,80.7419956 18.3291303,82.3284326 C18.3437033,82.3434707 18.3583942,82.3583942 18.3732016,82.3732016 L44.696714,108.696714 C46.2489582,110.248958 48.7621615,110.260178 50.3282027,108.721854 L102.82919,57.1500875 C103.579385,56.4131706 104.009211,55.410473 104.02564,54.3590127 L104.435524,28.1264804 C104.470037,25.9176111 102.707374,24.0989898 100.498504,24.0644763 C100.456845,24.0638253 100.415179,24.0638253 100.37352,24.0644763 L76.4375076,24.4384764 C74.2530018,24.4726093 72.5,26.2532157 72.5,28.4379883 L72.5,48 C72.5,52.418278 76.081722,56 80.5,56 L80.75,56 C85.0302068,56 88.5,52.5302068 88.5,48.25 C88.5,43.9697932 85.0302068,40.5 80.75,40.5 L80.5,40.5 L80.5,40.5" id="Path-12" stroke="#000000" stroke-width="3"></path>
    </g>
  </g>
</svg>
