<?xml version="1.0" encoding="UTF-8"?><svg viewBox="0 0 130 130" version="1.1" xmlns="http://www.w3.org/2000/svg" xmlns:xlink="http://www.w3.org/1999/xlink">
  <title>taxi</title>
  <g id="strokes" stroke="none" stroke-width="1" fill="none" fill-rule="evenodd">
    <g id="taxi" transform="translate(1.000000, 1.000000)">
      <g id="Group" stroke="#979797" stroke-opacity="0.01" stroke-width="0.1">
        <g id="Rectangle">
          <rect x="0" y="0" width="128" height="128"></rect>
        </g>
      </g>
      <path d="M104.5,52.5 L100.5,52.5 L94.5115498,37.5288746 C93.296643,34.4916076 90.354973,32.5 87.0837363,32.5 L41.9162637,32.5 C38.645027,32.5 35.703357,34.4916076 34.4884502,37.5288746 L28.5,52.5 L28.5,52.5 L80.5,52.5 L28.5,52.5 C21.872583,52.5 16.5,57.872583 16.5,64.5 L16.5,88.5 L16.5,98.5 C16.5,101.813708 19.1862915,104.5 22.5,104.5 L26.5,104.5 C29.8137085,104.5 32.5,101.813708 32.5,98.5 L32.5,88.5 L32.5,88.5 L24.5,88.5 L104.5,88.5 L96.5,88.5 L96.5,98.5 C96.5,101.813708 99.1862915,104.5 102.5,104.5 L106.5,104.5 C109.813708,104.5 112.5,101.813708 112.5,98.5 L112.5,88.5 L112.5,88.5 L112.5,67.5 C112.5,65.8431458 111.156854,64.5 109.5,64.5 L90.5,64.5 C87.1862915,64.5 84.5,67.1862915 84.5,70.5 C84.5,73.8137085 87.1862915,76.5 90.5,76.5 C93.8137085,76.5 96.5,73.8137085 96.5,70.5 L96.5,70.5 L96.5,70.5" id="Path-347" stroke="#000000" stroke-width="3"></path>
      <path d="M40,76.5 L38.5,76.5 C35.1862915,76.5 32.5,73.8137085 32.5,70.5 C32.5,67.1862915 35.1862915,64.5 38.5,64.5 C41.8137085,64.5 44.5,67.1862915 44.5,70.5 L44.5,72.5 L44.5,72.5" id="Path-348" stroke="#000000" stroke-width="3"></path>
      <line x1="48.5" y1="24.5" x2="80.5" y2="24.5" id="Path" stroke="#000000" stroke-width="3"></line>
    </g>
  </g>
</svg>
