<?xml version="1.0" encoding="UTF-8"?><svg viewBox="0 0 130 130" version="1.1" xmlns="http://www.w3.org/2000/svg" xmlns:xlink="http://www.w3.org/1999/xlink">
  <title>text-shadow-off</title>
  <g id="strokes" stroke="none" stroke-width="1" fill="none" fill-rule="evenodd">
    <g id="text-shadow-off" transform="translate(1.000000, 1.000000)">
      <g id="Group" stroke="#979797" stroke-opacity="0.01" stroke-width="0.1">
        <g id="Rectangle">
          <rect x="0" y="0" width="128" height="128"></rect>
        </g>
      </g>
      <path d="M36.5,108.5 L50.5,108.5 C51.6045695,108.5 52.5,107.604569 52.5,106.5 L52.5,78.5 C52.5,77.3954305 53.3954305,76.5 54.5,76.5 L64.5,76.5 L64.5,76.5 M56.5,68.5 L56.5,68.5 L46.5,68.5 C45.3954305,68.5 44.5,69.3954305 44.5,70.5 L44.5,98.5 C44.5,99.6045695 43.6045695,100.5 42.5,100.5 L28.5,100.5 L28.5,100.5" id="Shape" stroke="#000000" stroke-width="3"></path>
      <path d="M84.5,108.5 L96.5,108.5 M100.5,88.5 L100.5,88.5 L100.5,29.3284271 C100.5,28.7979941 100.289286,28.2892863 99.9142136,27.9142136 L93.0857864,21.0857864 C92.7107137,20.7107137 92.2020059,20.5 91.6715729,20.5 L88.5,20.5 L88.5,20.5 L90.5,20.5 C91.6045695,20.5 92.5,21.3954305 92.5,22.5 L92.5,80.5 L92.5,80.5 M88.5,100.5 L88.5,100.5 L76.5,100.5" id="Shape" stroke="#000000" stroke-width="3"></path>
      <path d="M40.5,20.5 L43.6715729,20.5 C44.2020059,20.5 44.7107137,20.7107137 45.0857864,21.0857864 L51.9142136,27.9142136 C52.2892863,28.2892863 52.5,28.7979941 52.5,29.3284271 L52.5,43.5 L52.5,43.5 M44.5,35 L44.5,35 L44.5,28.5" id="Shape" stroke="#000000" stroke-width="3"></path>
      <line x1="16.5" y1="16.5" x2="112.5" y2="112.5" id="Path-217" stroke="#000000" stroke-width="3"></line>
    </g>
  </g>
</svg>
