<?xml version="1.0" encoding="UTF-8"?>
<svg width="130px" height="130px" viewBox="0 0 130 130" version="1.1" xmlns="http://www.w3.org/2000/svg" xmlns:xlink="http://www.w3.org/1999/xlink">
    <title>text-align-center</title>
    <g id="strokes" stroke="none" stroke-width="1" fill="none" fill-rule="evenodd">
        <g id="text-align-center" transform="translate(1.000000, 1.000000)">
            <g id="Group" stroke="#979797" stroke-opacity="0.01" stroke-width="0.1">
                <g id="Rectangle">
                    <rect x="0" y="0" width="128" height="128"></rect>
                </g>
            </g>
            <path d="M16.5,24.5 L104.5,24.5 C108.918278,24.5 112.5,28.081722 112.5,32.5 C112.5,36.918278 108.918278,40.5 104.5,40.5 L48.5,40.5 C44.081722,40.5 40.5,44.081722 40.5,48.5 C40.5,52.918278 44.081722,56.5 48.5,56.5 L88.5,56.5 L88.5,56.5" id="Path-203" stroke="#000000" stroke-width="3" transform="translate(64.500000, 40.500000) scale(-1, 1) translate(-64.500000, -40.500000) "></path>
            <path d="M16.5,72.5 L104.5,72.5 C108.918278,72.5 112.5,76.081722 112.5,80.5 C112.5,84.918278 108.918278,88.5 104.5,88.5 L48.5,88.5 C44.081722,88.5 40.5,92.081722 40.5,96.5 C40.5,100.918278 44.081722,104.5 48.5,104.5 L88.5,104.5 L88.5,104.5" id="Path-203-Copy" stroke="#000000" stroke-width="3"></path>
        </g>
    </g>
</svg>