<?xml version="1.0" encoding="UTF-8"?>
<svg width="130px" height="130px" viewBox="0 0 130 130" version="1.1" xmlns="http://www.w3.org/2000/svg" xmlns:xlink="http://www.w3.org/1999/xlink">
    <title>text-rulers</title>
    <g id="strokes" stroke="none" stroke-width="1" fill="none" fill-rule="evenodd">
        <g id="text-rulers" transform="translate(1.000000, 1.000000)">
            <g id="Group" stroke="#979797" stroke-opacity="0.01" stroke-width="0.1">
                <g id="Rectangle">
                    <rect x="0" y="0" width="128" height="128"></rect>
                </g>
            </g>
            <polyline id="Path-28" stroke="#000000" stroke-width="3" points="31.85625 15.5 31.5 96 88.5 96"></polyline>
            <polyline id="Path-29" stroke="#000000" stroke-width="3" points="40 32 96 32 96 112"></polyline>
            <line x1="24" y1="32" x2="15.5" y2="32" id="Path-30" stroke="#000000" stroke-width="3"></line>
            <line x1="104" y1="96" x2="112" y2="96" id="Path-31" stroke="#000000" stroke-width="3"></line>
            <line x1="32" y1="96" x2="16" y2="96" id="Path-32" stroke="#000000" stroke-width="3"></line>
            <line x1="96" y1="32" x2="112" y2="32" id="Path-33" stroke="#000000" stroke-width="3"></line>
            <line x1="32" y1="104" x2="32" y2="112" id="Path-34" stroke="#000000" stroke-width="3"></line>
            <line x1="96" y1="24" x2="96" y2="16" id="Path-35" stroke="#000000" stroke-width="3"></line>
            <path d="M40.5,48.5 L80.5,48.5 C84.918278,48.5 88.5,52.081722 88.5,56.5 C88.5,60.918278 84.918278,64.5 80.5,64.5 L48.5,64.5 C44.081722,64.5 40.5,68.081722 40.5,72.5 C40.5,76.918278 44.081722,80.5 48.5,80.5 L80.5,80.5 C84.918278,80.5 88.5,84.081722 88.5,88.5 L88.5,88.5 L88.5,88.5" id="Path-143" stroke="#000000" stroke-width="3"></path>
        </g>
    </g>
</svg>