<?xml version="1.0" encoding="UTF-8"?>
<svg width="130px" height="130px" viewBox="0 0 130 130" version="1.1" xmlns="http://www.w3.org/2000/svg" xmlns:xlink="http://www.w3.org/1999/xlink">
    <title>text-rulers</title>
    <g id="strokes" stroke="none" stroke-width="1" fill="none" fill-rule="evenodd">
        <g id="text-rulers" transform="translate(1.000000, 1.000000)">
            <g id="Group" stroke="#979797" stroke-opacity="0.01" stroke-width="0.1">
                <g id="Rectangle">
                    <rect x="0" y="0" width="128" height="128"></rect>
                </g>
            </g>
            <path d="M40,48 L84,48 C86.209139,48 88,49.790861 88,52 C88,54.209139 86.209139,56 84,56 L44,56 C41.790861,56 40,57.790861 40,60 C40,62.209139 41.790861,64 44,64 L84.5,64 C86.4329966,64 88,65.5670034 88,67.5 C88,69.4329966 86.4329966,71 84.5,71 L44,71 C41.790861,71 40,72.790861 40,75 C40,77.209139 41.790861,79 44,79 L80,79 C84.418278,79 88,82.581722 88,87 L88,87 L88,87" id="Path-18" stroke="#000000" stroke-width="3"></path>
            <polyline id="Path-28" stroke="#000000" stroke-width="3" points="31.85625 15.5 31.5 96 88.5 96"></polyline>
            <polyline id="Path-29" stroke="#000000" stroke-width="3" points="40 32 96 32 96 112"></polyline>
            <line x1="24" y1="32" x2="15.5" y2="32" id="Path-30" stroke="#000000" stroke-width="3"></line>
            <line x1="104" y1="96" x2="112" y2="96" id="Path-31" stroke="#000000" stroke-width="3"></line>
            <line x1="32" y1="96" x2="16" y2="96" id="Path-32" stroke="#000000" stroke-width="3"></line>
            <line x1="96" y1="32" x2="112" y2="32" id="Path-33" stroke="#000000" stroke-width="3"></line>
            <line x1="32" y1="104" x2="32" y2="112" id="Path-34" stroke="#000000" stroke-width="3"></line>
            <line x1="96" y1="24" x2="96" y2="16" id="Path-35" stroke="#000000" stroke-width="3"></line>
        </g>
    </g>
</svg>