<?xml version="1.0" encoding="UTF-8"?>
<svg width="130px" height="130px" viewBox="0 0 130 130" version="1.1" xmlns="http://www.w3.org/2000/svg" xmlns:xlink="http://www.w3.org/1999/xlink">
    <title>three-circles-joined</title>
    <g id="strokes" stroke="none" stroke-width="1" fill="none" fill-rule="evenodd">
        <g id="three-circles-joined" transform="translate(1.000000, 1.000000)">
            <g id="Group" stroke="#979797" stroke-opacity="0.01" stroke-width="0.1">
                <g id="Rectangle">
                    <rect x="0" y="0" width="128" height="128"></rect>
                </g>
            </g>
            <path d="M68.4386687,73.5305259 C75.789509,67.6673058 80.5,58.63375 80.5,48.5 C80.5,30.826888 66.173112,16.5 48.5,16.5 C30.826888,16.5 16.5,30.826888 16.5,48.5 C16.5,66.173112 30.826888,80.5 48.5,80.5 C51.2687279,80.5 53.9553281,80.1483696 56.5175794,79.4873301" id="Path" stroke="#000000" stroke-width="3"></path>
            <path d="M80.5,48.5 C80.5,59.5 75.7717346,68.2801231 66.3152039,74.9397764 C66.1774358,75.036798 66.0138194,75.1494043 65.8243547,75.2775955 L65.8243376,75.2775702 C65.366902,75.5870695 65.246976,76.208793 65.5564753,76.6662285 C65.6494637,76.8036641 65.7751903,76.9158003 65.9223228,76.9925298 C66.0375497,77.0526205 66.1423827,77.1062165 66.2368217,77.1533178 C70.5312903,79.2951778 75.3749445,80.5 80.5,80.5 C98.173112,80.5 112.5,66.173112 112.5,48.5 C112.5,30.826888 98.173112,16.5 80.5,16.5 C77.5495509,16.5 74.6923638,16.8993025 71.979531,17.6468155 M58.905061,24.8849356 C52.5104386,30.7357657 48.5,39.1495388 48.5,48.5 C48.5,57.4216505 52.1510368,65.4905556 58.0404912,71.2940961" id="Shape" stroke="#000000" stroke-width="3"></path>
            <path d="M74.6624456,50.147393 C71.469615,49.078857 68.0524072,48.5 64.5,48.5 C50.3006054,48.5 38.2612846,57.7483757 34.0771069,70.550058 M32.5,80.5 C32.5,98.173112 46.826888,112.5 64.5,112.5 C82.173112,112.5 96.5,98.173112 96.5,80.5 M94.8565906,70.3494652 C92.911996,64.5312883 89.3415527,59.4575598 84.6846014,55.6676204" id="Shape" stroke="#000000" stroke-width="3"></path>
        </g>
    </g>
</svg>