<?xml version="1.0" encoding="UTF-8"?>
<svg width="130px" height="130px" viewBox="0 0 130 130" version="1.1" xmlns="http://www.w3.org/2000/svg" xmlns:xlink="http://www.w3.org/1999/xlink">
    <title>three-dots</title>
    <g id="strokes" stroke="none" stroke-width="1" fill="none" fill-rule="evenodd">
        <g id="three-dots" transform="translate(1.000000, 1.000000)">
            <g id="Group" stroke="#979797" stroke-opacity="0.01" stroke-width="0.1">
                <g id="Rectangle">
                    <rect x="0" y="0" width="128" height="128"></rect>
                </g>
            </g>
            <path d="M32.5,64.5 C32.5,60.081722 28.918278,56.5 24.5,56.5 C20.081722,56.5 16.5,60.081722 16.5,64.5 C16.5,68.918278 20.081722,72.5 24.5,72.5" id="Path" stroke="#000000" stroke-width="3"></path>
            <path d="M64.5,72.5 C68.918278,72.5 72.5,68.918278 72.5,64.5 C72.5,60.081722 68.918278,56.5 64.5,56.5 C60.081722,56.5 56.5,60.081722 56.5,64.5" id="Path" stroke="#000000" stroke-width="3"></path>
            <path d="M104.5,72.5 C108.918278,72.5 112.5,68.918278 112.5,64.5 C112.5,60.081722 108.918278,56.5 104.5,56.5 C100.081722,56.5 96.5,60.081722 96.5,64.5" id="Path" stroke="#000000" stroke-width="3"></path>
            <path d="M24.5,72.5 C30,72.5 34.5,68.5 44.5,68.5 C54.5,68.5 59.5,72.5 64.5,72.5" id="Path-151" stroke="#000000" stroke-width="3"></path>
            <path d="M80.5898019,68.7150198 C81.796504,68.579087 83.0938797,68.5 84.5,68.5 C94.5,68.5 99.5,72.5 104.5,72.5" id="Path-151-Copy" stroke="#000000" stroke-width="3"></path>
        </g>
    </g>
</svg>