<?xml version="1.0" encoding="UTF-8"?>
<svg width="130px" height="130px" viewBox="0 0 130 130" version="1.1" xmlns="http://www.w3.org/2000/svg" xmlns:xlink="http://www.w3.org/1999/xlink">
    <title>thumbs-down</title>
    <g id="strokes" stroke="none" stroke-width="1" fill="none" fill-rule="evenodd">
        <g id="thumbs-down" transform="translate(1.000000, 1.000000)">
            <g id="Group" stroke="#979797" stroke-opacity="0.01" stroke-width="0.1">
                <g id="Rectangle">
                    <rect x="0" y="0" width="128" height="128"></rect>
                </g>
            </g>
            <path d="M48.5,68.5 L61.8899234,41.7201533 C62.9624477,39.5751047 65.5708058,38.705652 67.7158544,39.7781762 C68.0938585,39.9671783 68.4422471,40.2103502 68.75,40.5 C71.3682836,42.964267 72.424748,46.6656545 71.5016876,50.1407056 L67.1705356,66.4462191 C66.0362637,70.7164191 68.5784357,75.0976091 72.8486357,76.231881 C73.5187187,76.4098718 74.209097,76.5 74.9024166,76.5 L98.5,76.5 C101.813708,76.5 104.5,79.1862915 104.5,82.5 C104.5,85.8137085 101.813708,88.5 98.5,88.5 L96.5,88.5 L96.5,88.5 C99.8137085,88.5 102.5,91.1862915 102.5,94.5 C102.5,97.8137085 99.8137085,100.5 96.5,100.5 L92.5,100.5 L92.5,100.5 C95.8137085,100.5 98.5,103.186292 98.5,106.5 C98.5,109.813708 95.8137085,112.5 92.5,112.5 L87.5,112.5 L87.5,112.5 C90.2614237,112.5 92.5,114.738576 92.5,117.5 C92.5,120.261424 90.2614237,122.5 87.5,122.5 L56.5,122.5 C47.663444,122.5 40.5,115.336556 40.5,106.5 L40.5,82.5 C40.5,79.1862915 37.8137085,76.5 34.5,76.5 C31.1862915,76.5 28.5,79.1862915 28.5,82.5 L28.5,116.5 L28.5,116.5" id="Path-227" stroke="#000000" stroke-width="3" transform="translate(66.500000, 79.500000) scale(1, -1) translate(-66.500000, -79.500000) "></path>
        </g>
    </g>
</svg>