<?xml version="1.0" encoding="UTF-8"?>
<svg width="130px" height="130px" viewBox="0 0 130 130" version="1.1" xmlns="http://www.w3.org/2000/svg" xmlns:xlink="http://www.w3.org/1999/xlink">
    <title>thumbs-up</title>
    <g id="strokes" stroke="none" stroke-width="1" fill="none" fill-rule="evenodd">
        <g id="thumbs-up" transform="translate(1.000000, 1.000000)">
            <g id="Group" stroke="#979797" stroke-opacity="0.01" stroke-width="0.1">
                <g id="Rectangle">
                    <rect x="0" y="0" width="128" height="128"></rect>
                </g>
            </g>
            <path d="M48.5,38.5 L61.8899234,11.7201533 C62.9624477,9.57510468 65.5708058,8.70565195 67.7158544,9.77817624 C68.0938585,9.96717831 68.4422471,10.2103502 68.75,10.5 C71.3682836,12.964267 72.424748,16.6656545 71.5016876,20.1407056 L67.1705356,36.4462191 C66.0362637,40.7164191 68.5784357,45.0976091 72.8486357,46.231881 C73.5187187,46.4098718 74.209097,46.5 74.9024166,46.5 L98.5,46.5 C101.813708,46.5 104.5,49.1862915 104.5,52.5 C104.5,55.8137085 101.813708,58.5 98.5,58.5 L96.5,58.5 L96.5,58.5 C99.8137085,58.5 102.5,61.1862915 102.5,64.5 C102.5,67.8137085 99.8137085,70.5 96.5,70.5 L92.5,70.5 L92.5,70.5 C95.8137085,70.5 98.5,73.1862915 98.5,76.5 C98.5,79.8137085 95.8137085,82.5 92.5,82.5 L87.5,82.5 L87.5,82.5 C90.2614237,82.5 92.5,84.7385763 92.5,87.5 C92.5,90.2614237 90.2614237,92.5 87.5,92.5 L56.5,92.5 C47.663444,92.5 40.5,85.336556 40.5,76.5 L40.5,52.5 C40.5,49.1862915 37.8137085,46.5 34.5,46.5 C31.1862915,46.5 28.5,49.1862915 28.5,52.5 L28.5,86.5 L28.5,86.5" id="Path-227" stroke="#000000" stroke-width="3"></path>
        </g>
    </g>
</svg>