<?xml version="1.0" encoding="UTF-8"?>
<svg width="130px" height="130px" viewBox="0 0 130 130" version="1.1" xmlns="http://www.w3.org/2000/svg" xmlns:xlink="http://www.w3.org/1999/xlink">
    <title>train</title>
    <g id="strokes" stroke="none" stroke-width="1" fill="none" fill-rule="evenodd">
        <g id="train" transform="translate(1.000000, 1.000000)">
            <g id="Group" stroke="#979797" stroke-opacity="0.01" stroke-width="0.1">
                <g id="Rectangle">
                    <rect x="0" y="0" width="128" height="128"></rect>
                </g>
            </g>
            <path d="M90,96.5 L101,112.5 L92.5,100.5 L36.5,100.5 L24.5,112.5 L48.5,88.5 L40.5,88.5 C36.081722,88.5 32.5,84.918278 32.5,80.5 L32.5,72.5 L32.5,72.5 L32.5,80.5 C32.5,84.918278 36.081722,88.5 40.5,88.5 L88.5,88.5 C92.918278,88.5 96.5,84.918278 96.5,80.5 C96.5,72.5 96.5,64.5 96.5,56.5 C96.5,37.0964782 91.9467524,24.2382498 82.8402573,17.9253147 C81.5015327,16.9972652 79.9114041,16.5 78.2824599,16.5 L50.614692,16.5 C49.0456744,16.5000011 47.5112943,16.9613847 46.202486,17.8267384 C37.0674953,23.8665826 32.5,36.7576698 32.5,56.5 C32.5,61.8333333 32.5,64.5 32.5,64.5 L50.5,64.5 C53.8137085,64.5 56.5,67.1862915 56.5,70.5 C56.5,73.8137085 53.8137085,76.5 50.5,76.5 C47.1862915,76.5 44.5,73.8137085 44.5,70.5 L44.5,69.5 L44.5,69.5" id="Path-353" stroke="#000000" stroke-width="3"></path>
            <path d="M78.5,64.5 C75.1862915,64.5 72.5,67.1862915 72.5,70.5 C72.5,73.8137085 75.1862915,76.5 78.5,76.5 C81.8137085,76.5 84.5,73.8137085 84.5,70.5 L84.5,69.5 L84.5,69.5" id="Path-355" stroke="#000000" stroke-width="3"></path>
            <line x1="52.5" y1="28.5" x2="76.5" y2="28.5" id="Path-356" stroke="#000000" stroke-width="3"></line>
        </g>
    </g>
</svg>