<?xml version="1.0" encoding="UTF-8"?>
<svg width="130px" height="130px" viewBox="0 0 130 130" version="1.1" xmlns="http://www.w3.org/2000/svg" xmlns:xlink="http://www.w3.org/1999/xlink">
    <title>trash-can</title>
    <g id="strokes" stroke="none" stroke-width="1" fill="none" fill-rule="evenodd">
        <g id="trash-can" transform="translate(1.000000, 1.000000)">
            <g id="Group" stroke="#979797" stroke-opacity="0.01" stroke-width="0.1">
                <g id="Rectangle">
                    <rect x="0" y="0" width="128" height="128"></rect>
                </g>
            </g>
            <path d="M32,40 L35.5802089,104.44376 C35.8157274,108.683093 39.3220221,112 43.5678917,112 L84.425546,112 C88.6740894,112 92.1816144,108.679052 92.4136099,104.436847 L95.269305,52.2184236 C95.389937,50.0125807 93.6995396,48.1266001 91.4936966,48.0059681 C91.4209567,48.0019901 91.3481217,48 91.275273,48 L84,48 C81.790861,48 80,49.790861 80,52 L80,92 C80,94.209139 78.209139,96 76,96 L68,96 C65.790861,96 64,94.209139 64,92 L64,52 C64,49.790861 62.209139,48 60,48 L52,48 C49.790861,48 48,49.790861 48,52 L48,96 L48,96" id="Path-24" stroke="#000000" stroke-width="3"></path>
            <path d="M24,32 L103,32 C103.552285,32 104,31.5522847 104,31 L104,28 C104,25.790861 102.209139,24 100,24 L82,24 C80.8954305,24 80,23.1045695 80,22 L80,20 C80,17.790861 78.209139,16 76,16 L52,16 C49.790861,16 48,17.790861 48,20 L48,24 L48,24" id="Path-25" stroke="#000000" stroke-width="3"></path>
        </g>
    </g>
</svg>