<?xml version="1.0" encoding="UTF-8"?><svg viewBox="0 0 130 130" version="1.1" xmlns="http://www.w3.org/2000/svg" xmlns:xlink="http://www.w3.org/1999/xlink">
  <title>triangular-ruler</title>
  <g id="strokes" stroke="none" stroke-width="1" fill="none" fill-rule="evenodd">
    <g id="triangular-ruler" transform="translate(1.000000, 1.000000)">
      <g id="Group" stroke="#979797" stroke-opacity="0.01" stroke-width="0.1">
        <g id="Rectangle">
          <rect x="0" y="0" width="128" height="128"></rect>
        </g>
      </g>
      <path d="M32.5,72.5 L32.5,88.5 C32.5,92.918278 36.081722,96.5 40.5,96.5 L67.6715729,96.5 C68.7761424,96.5 69.6715729,95.6045695 69.6715729,94.5 C69.6715729,93.969567 69.4608592,93.4608592 69.0857864,93.0857864 L19.9142136,43.9142136 C19.133165,43.133165 17.866835,43.133165 17.0857864,43.9142136 C16.7107137,44.2892863 16.5,44.7979941 16.5,45.3284271 L16.5,104.5 C16.5,108.918278 20.081722,112.5 24.5,112.5 L107.671573,112.5 C108.776142,112.5 109.671573,111.604569 109.671573,110.5 C109.671573,109.969567 109.460859,109.460859 109.085786,109.085786 L96.5,96.5 L96.5,96.5 L92.5,100.5 L96.5,96.5 L80.5,80.5 L76.5,84.5 L80.5,80.5 L64.5,64.5 L60.5,68.5 L64.5,64.5 L48.5,48.5 L44.5,52.5 L48.5,48.5 L32.5,32.5 L28.5,36.5 L32.5,32.5 L19.9142136,19.9142136 C19.133165,19.133165 17.866835,19.133165 17.0857864,19.9142136 C16.7107137,20.2892863 16.5,20.7979941 16.5,21.3284271 L16.5,32.5 L16.5,32.5" id="Path-302" stroke="#000000" stroke-width="3"></path>
    </g>
  </g>
</svg>
