<?xml version="1.0" encoding="UTF-8"?>
<svg width="130px" height="130px" viewBox="0 0 130 130" version="1.1" xmlns="http://www.w3.org/2000/svg" xmlns:xlink="http://www.w3.org/1999/xlink">
    <title>truck</title>
    <g id="strokes" stroke="none" stroke-width="1" fill="none" fill-rule="evenodd">
        <g id="truck" transform="translate(1.000000, 1.000000)">
            <g id="Group" stroke="#979797" stroke-opacity="0.01" stroke-width="0.1">
                <g id="Rectangle">
                    <rect x="0" y="0" width="128" height="128"></rect>
                </g>
            </g>
            <path d="M44.5,56.5 L96.5,56.5 L96.5,40.5 C96.5,36.081722 92.918278,32.5 88.5,32.5 L40.5,32.5 C36.081722,32.5 32.5,36.081722 32.5,40.5 L32.5,56.5 L32.5,56.5 L24.5,56.5 C20.081722,56.5 16.5,60.081722 16.5,64.5 L16.5,92.5 C16.5,94.709139 18.290861,96.5 20.5,96.5 L24.5,96.5 L24.5,96.5 L24.5,106.5 C24.5,109.813708 27.1862915,112.5 30.5,112.5 L34.5,112.5 C37.8137085,112.5 40.5,109.813708 40.5,106.5 L40.5,96.5 L40.5,96.5 L96.5,96.5 L88.5,96.5 L88.5,106.5 C88.5,109.813708 91.1862915,112.5 94.5,112.5 L98.5,112.5 C101.813708,112.5 104.5,109.813708 104.5,106.5 L104.5,96.5 L104.5,96.5 L109.5,96.5 C111.156854,96.5 112.5,95.1568542 112.5,93.5 L112.5,24.5 C112.5,20.081722 108.918278,16.5 104.5,16.5 L24.5,16.5 C20.081722,16.5 16.5,20.081722 16.5,24.5 L16.5,48.5 L16.5,48.5" id="Path-351" stroke="#000000" stroke-width="3"></path>
            <path d="M36.5,68.5 C32.081722,68.5 28.5,72.081722 28.5,76.5 C28.5,80.918278 32.081722,84.5 36.5,84.5 C40.918278,84.5 44.5,80.918278 44.5,76.5 L44.5,76.5 L44.5,76.5" id="Path-352" stroke="#000000" stroke-width="3"></path>
            <path d="M92.5,68.5 C88.081722,68.5 84.5,72.081722 84.5,76.5 C84.5,80.918278 88.081722,84.5 92.5,84.5 C96.918278,84.5 100.5,80.918278 100.5,76.5 L100.5,76.5 L100.5,76.5" id="Path-352-Copy" stroke="#000000" stroke-width="3"></path>
        </g>
    </g>
</svg>