<?xml version="1.0" encoding="UTF-8"?>
<svg width="130px" height="130px" viewBox="0 0 130 130" version="1.1" xmlns="http://www.w3.org/2000/svg" xmlns:xlink="http://www.w3.org/1999/xlink">
    <title>two-squares-joined</title>
    <g id="strokes" stroke="none" stroke-width="1" fill="none" fill-rule="evenodd">
        <g id="two-squares-joined" transform="translate(1.000000, 1.000000)">
            <g id="Group" stroke="#979797" stroke-opacity="0.01" stroke-width="0.1">
                <g id="Rectangle">
                    <rect x="0" y="0" width="128" height="128"></rect>
                </g>
            </g>
            <path d="M88.5,32.5 L88.5,24.5 C88.5,20.081722 84.918278,16.5 80.5,16.5 L24.5,16.5 C20.081722,16.5 16.5,20.081722 16.5,24.5 L16.5,80.5 C16.5,84.918278 20.081722,88.5 24.5,88.5 L80.5,88.5 C84.918278,88.5 88.5,84.918278 88.5,80.5 L88.5,48.5 C88.5,44.081722 84.918278,40.5 80.5,40.5 L48.5,40.5 C44.081722,40.5 40.5,44.081722 40.5,48.5 L40.5,80.5 L40.5,80.5 M40.5,88.5 L40.5,104.5 C40.5,108.918278 44.081722,112.5 48.5,112.5 L104.5,112.5 C108.918278,112.5 112.5,108.918278 112.5,104.5 L112.5,48.5 C112.5,44.081722 108.918278,40.5 104.5,40.5 L96.5,40.5 L96.5,40.5" id="Shape" stroke="#000000" stroke-width="3"></path>
        </g>
    </g>
</svg>