<?xml version="1.0" encoding="UTF-8"?><svg viewBox="0 0 130 130" version="1.1" xmlns="http://www.w3.org/2000/svg" xmlns:xlink="http://www.w3.org/1999/xlink">
  <title>umbrella</title>
  <g id="strokes" stroke="none" stroke-width="1" fill="none" fill-rule="evenodd">
    <g id="umbrella" transform="translate(1.000000, 1.000000)">
      <g id="Group" stroke="#979797" stroke-opacity="0.01" stroke-width="0.1">
        <g id="Rectangle">
          <rect x="0" y="0" width="128" height="128"></rect>
        </g>
      </g>
      <path d="M72.9810887,38.2379423 C77.9078575,48.4154499 80.412557,59.3768404 80.495187,71.1221137 C80.495187,71.1221137 80.495187,71.1221137 80.495187,71.1221137 C80.4976882,71.4776381 80.7879252,71.7638199 81.1434496,71.7613187 C81.2915349,71.7602769 81.434733,71.7082111 81.5489054,71.6138977 C81.6558903,71.5255424 81.7511167,71.4478833 81.8345947,71.3809327 C86.7230632,67.4603109 91.6115316,65.5 96.5,65.5 C101.446851,65.5 106.393701,67.5074138 111.340552,71.5222415 C111.400402,71.5708156 111.467204,71.6256925 111.540957,71.686872 L111.540946,71.6868847 C111.785529,71.8897713 112.148275,71.8559699 112.351161,71.6113871 C112.440099,71.5041718 112.487121,71.3683324 112.483501,71.2290777 C112.483501,71.2290777 112.483501,71.2290777 112.483501,71.2290777 C111.809725,45.306869 90.5847148,24.5 64.5,24.5 C37.990332,24.5 16.5,45.990332 16.5,72.5" id="Path" stroke="#000000" stroke-width="3"></path>
      <path d="M24.8344604,66.3362655 C27.3896403,65.1120885 29.9448201,64.5 32.5,64.5 C37.5345622,64.5 42.5691243,66.876264 47.6036865,71.6287921 C47.6036865,71.6287921 47.6036865,71.6287921 47.6036865,71.6287921 C47.8180985,71.8311928 48.1559919,71.8214557 48.3583925,71.6070438 C48.4512043,71.5087242 48.503255,71.3788521 48.5040357,71.243648 C48.5043502,71.1915412 48.504663,71.1428252 48.5049877,71.0974999 C48.6283243,53.8802788 53.9599951,38.3477788 64.5,24.5 C53.9425682,38.2542433 48.6110256,53.6701379 48.5053722,70.7476838 C48.504926,70.8197951 48.5045008,70.8988254 48.5040963,70.9847745 L48.5041212,70.9847746 C48.5033291,71.153101 48.6391425,71.2901987 48.8074689,71.2909908 C48.9256908,71.2915471 49.03357,71.2236864 49.084256,71.1168799 C49.084256,71.1168799 49.084256,71.1168799 49.084256,71.1168799 C51.177654,66.7056266 59.6495687,64.5 64.5,64.5 L64.5,100.5 C64.5,107.127417 59.127417,112.5 52.5,112.5 C45.872583,112.5 40.5,107.127417 40.5,100.5 L40.5,96.5 L40.5,96.5" id="Path-274" stroke="#000000" stroke-width="3"></path>
      <line x1="64.5" y1="16.5" x2="64.5" y2="24.5" id="Path-275" stroke="#000000" stroke-width="3"></line>
    </g>
  </g>
</svg>
