<?xml version="1.0" encoding="UTF-8"?><svg viewBox="0 0 130 130" version="1.1" xmlns="http://www.w3.org/2000/svg" xmlns:xlink="http://www.w3.org/1999/xlink">
  <title>valve</title>
  <g id="strokes" stroke="none" stroke-width="1" fill="none" fill-rule="evenodd">
    <g id="valve" transform="translate(1.000000, 1.000000)">
      <g id="Group" stroke="#979797" stroke-opacity="0.01" stroke-width="0.1">
        <g id="Rectangle">
          <rect x="0" y="0" width="128" height="128"></rect>
        </g>
      </g>
      <path d="M112.5,80.5 L86.8353696,80.5010428 C83.748905,87.564105 76.7008725,92.5 68.5,92.5 C60.2991275,92.5 53.251095,87.564105 50.1646304,80.5010428 L48.5,80.5 C40.5293709,80.5 33.9200113,86.328288 32.7012002,93.9555854 C32.6998862,93.9638081 32.6985451,93.972135 32.6971769,93.9805661 C32.4614778,95.4329238 31.2072753,96.5 29.7359164,96.5 L18.8941561,96.5 C17.6205535,96.499982 16.5880947,95.4675231 16.5880947,94.1939206 C16.5880947,94.1350486 16.5903491,94.0761983 16.594853,94.0174989 C16.594853,94.0174989 16.594853,94.0174989 16.594853,94.0174989 C17.8487018,77.6760954 31.3768003,64.7706427 47.9761031,64.5042019 L48.5,64.5 L50.1641945,64.4999548 C52.4638461,59.2366493 56.9633223,55.1544286 62.5004541,53.4154619 L62.5,40.5 L48.5,40.5 C48.5,42.709139 46.709139,44.5 44.5,44.5 L40.5,44.5 C36.081722,44.5 32.5,40.918278 32.5,36.5 C32.5,32.081722 36.081722,28.5 40.5,28.5 L44.5,28.5 C46.6421954,28.5 48.3910789,30.1839685 48.4951047,32.3003597 L48.5,32.5 L64.5,32.5 C64.5,30.290861 66.290861,28.5 68.5,28.5 C70.6421954,28.5 72.3910789,30.1839685 72.4951047,32.3003597 L72.5,32.5 L88.5,32.5 C88.5,30.290861 90.290861,28.5 92.5,28.5 L96.5,28.5 C100.918278,28.5 104.5,32.081722 104.5,36.5 C104.5,40.918278 100.918278,44.5 96.5,44.5 L92.5,44.5 C90.3578046,44.5 88.6089211,42.8160315 88.5048953,40.6996403 L88.5,40.5 L74.5,40.5 L74.5005483,53.4157768 C80.0372207,55.1549213 84.5362927,59.2369669 86.8358055,64.4999548 L112.5,64.5" id="Path" stroke="#000000" stroke-width="3"></path>
    </g>
  </g>
</svg>
