<?xml version="1.0" encoding="UTF-8"?>
<svg width="130px" height="130px" viewBox="0 0 130 130" version="1.1" xmlns="http://www.w3.org/2000/svg" xmlns:xlink="http://www.w3.org/1999/xlink">
    <title>video</title>
    <g id="strokes" stroke="none" stroke-width="1" fill="none" fill-rule="evenodd">
        <g id="video" transform="translate(1.000000, 1.000000)">
            <g id="Group" stroke="#979797" stroke-opacity="0.01" stroke-width="0.1">
                <g id="Rectangle">
                    <rect x="0" y="0" width="128" height="128"></rect>
                </g>
            </g>
            <path d="M112.5,104.5 C112.5,108.918278 108.918278,112.5 104.5,112.5 L24.5,112.5 C20.081722,112.5 16.5,108.918278 16.5,104.5 L16.5,24.5 C16.5,20.081722 20.081722,16.5 24.5,16.5 L104.5,16.5 C108.918278,16.5 112.5,20.081722 112.5,24.5 L112.5,96.5 L112.5,96.5 L88.5,96.5" id="Shape" stroke="#000000" stroke-width="3"></path>
            <path d="M56.4280398,75.7431761 L85.6416902,58.2149859 C86.5888508,57.6466895 86.8959809,56.418169 86.3276846,55.4710085 C86.1587851,55.1895093 85.9231895,54.9539137 85.6416902,54.7850141 L51.5289915,34.3173949 C50.581831,33.7490986 49.3533105,34.0562287 48.7850141,35.0033892 C48.5985157,35.3142201 48.5,35.6698929 48.5,36.0323808 L48.5,72.5 L48.5,72.5" id="Path-160" stroke="#000000" stroke-width="3"></path>
            <path d="M84.5,100.5 C86.709139,100.5 88.5,98.709139 88.5,96.5 C88.5,94.290861 86.709139,92.5 84.5,92.5 C82.290861,92.5 80.5,94.290861 80.5,96.5 L32.5,96.5" id="Path" stroke="#000000" stroke-width="3"></path>
        </g>
    </g>
</svg>