<?xml version="1.0" encoding="UTF-8"?><svg viewBox="0 0 130 130" version="1.1" xmlns="http://www.w3.org/2000/svg" xmlns:xlink="http://www.w3.org/1999/xlink">
  <title>warning-mark-off</title>
  <g id="strokes" stroke="none" stroke-width="1" fill="none" fill-rule="evenodd">
    <g id="warning-mark-off" transform="translate(1.000000, 1.000000)">
      <g id="Group" stroke="#979797" stroke-opacity="0.01" stroke-width="0.1">
        <g id="Rectangle">
          <rect x="0" y="0" width="128" height="128"></rect>
        </g>
      </g>
      <path d="M96,64 L64,16 L48.1152611,39.8271084 M40.1253746,51.8119381 L32,64 L56,64 M72,64 L88,64" id="Shape" stroke="#000000" stroke-width="3"></path>
      <path d="M16,96 L16.9008352,94.1983296 C18.8767492,90.2465016 23.6821335,88.6447069 27.6339615,90.6206208 C29.1666915,91.3869859 30.4128334,92.6252657 31.1888837,94.1531147 L32.8673691,97.4576328 C34.8682545,101.396876 39.6836804,102.968226 43.6229237,100.96734 C45.1353407,100.199128 46.3644191,98.9700498 47.1326309,97.4576328 L48.8111163,94.1531147 C50.8120018,90.2138714 55.6274276,88.6425219 59.5666709,90.6434074 C61.09452,91.4194577 62.3327998,92.6655996 63.0991648,94.1983296 L64.8445825,97.6891649 C66.8204965,101.640993 71.6258808,103.242788 75.5777088,101.266874 C77.125928,100.492764 78.3813079,99.2373842 79.1554175,97.6891649 L80.8445825,94.3108351 M107.577709,101.266874 C109.125928,100.492764 110.381308,99.2373842 111.155418,97.6891649 L112,96" id="Shape" stroke="#000000" stroke-width="3"></path>
      <line x1="64" y1="32" x2="64" y2="48" id="Path-9" stroke="#000000" stroke-width="3"></line>
      <line x1="16" y1="16" x2="112" y2="112" id="Path-4" stroke="#000000" stroke-width="3"></line>
    </g>
  </g>
</svg>
