<?xml version="1.0" encoding="UTF-8"?><svg viewBox="0 0 130 130" version="1.1" xmlns="http://www.w3.org/2000/svg" xmlns:xlink="http://www.w3.org/1999/xlink">
  <title>wave</title>
  <g id="strokes" stroke="none" stroke-width="1" fill="none" fill-rule="evenodd">
    <g id="wave" transform="translate(1.000000, 1.000000)">
      <g id="Group" stroke="#979797" stroke-opacity="0.01" stroke-width="0.1">
        <g id="Rectangle">
          <rect x="0" y="0" width="128" height="128"></rect>
        </g>
      </g>
      <path d="M16.5,64.5 L22.5,64.5 C25.8137085,64.5 28.5,61.8137085 28.5,58.5 C28.5,55.1862915 31.1862915,52.5 34.5,52.5 C37.8137085,52.5 40.5,55.1862915 40.5,58.5 L40.5,82.5 C40.5,85.8137085 43.1862915,88.5 46.5,88.5 C49.8137085,88.5 52.5,85.8137085 52.5,82.5 L52.5,30.5 C52.5,27.1862915 55.1862915,24.5 58.5,24.5 C61.8137085,24.5 64.5,27.1862915 64.5,30.5 L64.5,98.5 C64.5,101.813708 67.1862915,104.5 70.5,104.5 C73.8137085,104.5 76.5,101.813708 76.5,98.5 L76.5,46.5 C76.5,43.1862915 79.1862915,40.5 82.5,40.5 C85.8137085,40.5 88.5,43.1862915 88.5,46.5 L88.5,70.5 C88.5,73.8137085 91.1862915,76.5 94.5,76.5 C97.8137085,76.5 100.5,73.8137085 100.5,70.5 C100.5,67.1862915 103.186292,64.5 106.5,64.5 L112.5,64.5 L112.5,64.5" id="Path-158" stroke="#000000" stroke-width="3"></path>
    </g>
  </g>
</svg>
