<?xml version="1.0" encoding="UTF-8"?>
<svg width="130px" height="130px" viewBox="0 0 130 130" version="1.1" xmlns="http://www.w3.org/2000/svg" xmlns:xlink="http://www.w3.org/1999/xlink">
    <title>wifi</title>
    <g id="strokes" stroke="none" stroke-width="1" fill="none" fill-rule="evenodd">
        <g id="wifi" transform="translate(1.000000, 1.000000)">
            <g id="Group" stroke="#979797" stroke-opacity="0.01" stroke-width="0.1">
                <g id="Rectangle">
                    <rect x="0" y="0" width="128" height="128"></rect>
                </g>
            </g>
            <path d="M64.5,96.5 L73.5427812,87.4572188 C74.7143596,86.2856475 74.7143596,84.3861494 73.5427847,83.2145746 C73.3611008,83.0328907 73.1568292,82.8753 72.9349854,82.7456719 C70.3728427,81.2485573 67.5611809,80.5 64.5,80.5 C60.984718,80.5 57.798474,81.4871142 54.9412681,83.4613427 C53.7493049,84.284967 52.1390313,84.1390313 51.1145477,83.1145477 L44.1627306,76.1627306 C42.9911703,74.9911541 42.9911703,73.0916664 44.1627387,71.920098 C44.2119668,71.8708699 44.2628937,71.8233703 44.3154267,71.7776855 C49.8945096,66.9258952 56.6227007,64.5 64.5,64.5 C72.5128127,64.5 79.3366409,67.0100786 84.9714844,72.0302357 C86.1584765,73.0877338 87.9643122,73.0356878 89.0884235,71.9115765 L96.281725,64.718275 C97.4532829,63.5466978 97.4532829,61.6472115 96.2817154,60.475644 C96.2299297,60.4238583 96.176265,60.3739862 96.1208294,60.3261281 C86.9884253,52.4420427 76.4481488,48.5 64.5,48.5 C52.4141519,48.5 41.7688139,52.5334283 32.563986,60.6002849 C31.3755034,61.6418273 29.5828349,61.5828349 28.4654045,60.4654045 L21.2480708,53.2480708 C20.0764995,52.0764975 20.0764995,50.1770034 21.2480718,49.0054311 C21.3030757,48.9504272 21.3601982,48.8975834 21.4193095,48.8470195 C34.1595648,37.9490065 48.5197949,32.5 64.5,32.5 C81.5,32.5 96.6666667,38.6666667 110,51" id="Path-239" stroke="#000000" stroke-width="3"></path>
        </g>
    </g>
</svg>