<?xml version="1.0" encoding="UTF-8"?>
<svg width="130px" height="130px" viewBox="0 0 130 130" version="1.1" xmlns="http://www.w3.org/2000/svg" xmlns:xlink="http://www.w3.org/1999/xlink">
    <title>wifi-off</title>
    <g id="strokes" stroke="none" stroke-width="1" fill="none" fill-rule="evenodd">
        <g id="wifi-off" transform="translate(1.000000, 1.000000)">
            <g id="Group" stroke="#979797" stroke-opacity="0.01" stroke-width="0.1">
                <g id="Rectangle">
                    <rect x="0" y="0" width="128" height="128"></rect>
                </g>
            </g>
            <path d="M64.5,96.5 L73.5427812,87.4572188 C74.7143596,86.2856475 74.7143596,84.3861494 73.5427847,83.2145746 C73.3611008,83.0328907 73.1568292,82.8753 72.9349854,82.7456719 C70.3728427,81.2485573 67.5611809,80.5 64.5,80.5 C60.984718,80.5 57.798474,81.4871142 54.9412681,83.4613427 C53.7493049,84.284967 52.1390313,84.1390313 51.1145477,83.1145477 L44.4541124,76.4541124 C43.2825233,75.2825442 43.2825233,73.3830399 44.454102,72.2114613 C44.5656417,72.0999215 44.6858048,71.9973527 44.8134736,71.9047087 C49.6195568,68.4171339 53.186177,66.3450342 55.5133341,65.6884096 M75.1430397,66.5296054 C77.8127025,67.7748888 81.0819244,69.7705526 84.9507052,72.5165969 C86.1438374,73.3634844 87.7738661,73.2261339 88.8084633,72.1915367 L96.281725,64.718275 C97.4532829,63.5466978 97.4532829,61.6472115 96.2817154,60.475644 C96.2299297,60.4238583 96.176265,60.3739862 96.1208294,60.3261281 C86.9884253,52.4420427 76.4481488,48.5 64.5,48.5 C63.3587622,48.5 62.2303688,48.5359644 61.1148198,48.6078931 M42.820464,54.6853516 C40.9816498,55.7140442 37.5541296,57.8722177 32.5379034,61.1598721 C31.3492454,61.9389422 29.7770389,61.7770389 28.7720866,60.7720866 L21.3663924,53.3663924 C20.1948167,52.1948203 20.1948167,50.2953237 21.3663906,49.1237499 C21.4467838,49.0433567 21.5316821,48.9675985 21.6206746,48.8968421 C26.6442169,44.9027081 30.2382757,42.2809257 32.402851,41.0314947 M45.0076723,35.4512185 C51.2126518,33.4837395 57.7100943,32.5 64.5,32.5 C81.5,32.5 96.6666667,38.6666667 110,51" id="Shape" stroke="#000000" stroke-width="3"></path>
            <line x1="16.5" y1="16.5" x2="112.5" y2="112.5" id="Path-240" stroke="#000000" stroke-width="3"></line>
        </g>
    </g>
</svg>