<?xml version="1.0" encoding="UTF-8"?>
<svg width="130px" height="130px" viewBox="0 0 130 130" version="1.1" xmlns="http://www.w3.org/2000/svg" xmlns:xlink="http://www.w3.org/1999/xlink">
    <title>wrench</title>
    <g id="strokes" stroke="none" stroke-width="1" fill="none" fill-rule="evenodd">
        <g id="wrench" transform="translate(1.000000, 1.000000)">
            <g id="Group" stroke="#979797" stroke-opacity="0.01" stroke-width="0.1">
                <g id="Rectangle">
                    <rect x="0" y="0" width="128" height="128"></rect>
                </g>
            </g>
            <path d="M104.923606,52.7845675 C106.387472,47.1515623 104.912937,40.9129368 100.5,36.5 L92.4586094,44.2063327 C90.2388866,46.333567 86.7429319,46.3527486 84.5,44.25 C82.3609745,42.2446635 82.252598,38.8849943 84.2579345,36.7459688 C84.2969646,36.7043366 84.3366635,36.6633365 84.3770156,36.6229844 L92.5,28.5 C85.872583,21.872583 75.127417,21.872583 68.5,28.5 L62.5,34.5 C56.9771525,40.0228475 56.9771525,48.9771525 62.5,54.5 L27.4030457,83.4931362 C21.927697,88.0162503 21.1557584,96.1216057 25.6788725,101.596954 C25.9381337,101.910797 26.2121515,102.212151 26.5,102.5 C31.5435452,107.543545 39.7207476,107.543545 44.7642928,102.5 C45.0403131,102.22398 45.3036775,101.935587 45.5535746,101.63571 L76.5,64.5 C82.0228475,70.0228475 90.9771525,70.0228475 96.5,64.5 L96.629328,64.370672" id="Path" stroke="#000000" stroke-width="3"></path>
            <line x1="84.5" y1="44.5" x2="100.5" y2="60.5" id="Path-239" stroke="#000000" stroke-width="3"></line>
            <line x1="70.5" y1="46.5" x2="74.5" y2="42.5" id="Path-240" stroke="#000000" stroke-width="3"></line>
            <line x1="76.5" y1="52.5" x2="80.5" y2="48.5" id="Path-240-Copy" stroke="#000000" stroke-width="3"></line>
            <line x1="82.5" y1="58.5" x2="86.5" y2="54.5" id="Path-240-Copy-2" stroke="#000000" stroke-width="3"></line>
            <path d="M40.5,92.5 C40.5,90.290861 38.709139,88.5 36.5,88.5 C34.290861,88.5 32.5,90.290861 32.5,92.5 C32.5,94.709139 34.290861,96.5 36.5,96.5" id="Path" stroke="#000000" stroke-width="3"></path>
        </g>
    </g>
</svg>