<?xml version="1.0" encoding="UTF-8"?><svg viewBox="0 0 130 130" version="1.1" xmlns="http://www.w3.org/2000/svg" xmlns:xlink="http://www.w3.org/1999/xlink">
  <title>wrench</title>
  <g id="strokes" stroke="none" stroke-width="1" fill="none" fill-rule="evenodd">
    <g id="wrench" transform="translate(1.000000, 1.000000)">
      <g id="Group" stroke="#979797" stroke-opacity="0.01" stroke-width="0.1">
        <g id="Rectangle">
          <rect x="0" y="0" width="128" height="128"></rect>
        </g>
      </g>
      <path d="M102,59.5 C102.328465,58.2360549 112.5,48 103.5,39.5 C94.8333333,51.5 87.1666667,54.4166667 80.5,48.25 C73.8333333,42.0833333 76.8333333,34.5 89.5,25.5 C82.872583,18.872583 75.127417,21.872583 68.5,28.5 L62.5,34.5 C56.9771525,40.0228475 56.9771525,48.9771525 62.5,54.5 L27.4030457,83.4931362 C21.927697,88.0162503 21.1557584,96.1216057 25.6788725,101.596954 C25.9381337,101.910797 26.2121515,102.212151 26.5,102.5 C31.5435452,107.543545 39.7207476,107.543545 44.7642928,102.5 C45.0403131,102.22398 45.3036775,101.935587 45.5535746,101.63571 L76.5,64.5 C82.0228475,70.0228475 90.9771525,70.0228475 96.5,64.5 L96.629328,64.370672 L90,58" id="Path" stroke="#000000" stroke-width="3"></path>
      <path d="M40.5,92.5 C40.5,90.290861 38.709139,88.5 36.5,88.5 C34.290861,88.5 32.5,90.290861 32.5,92.5 C32.5,94.709139 34.290861,96.5 36.5,96.5" id="Path" stroke="#000000" stroke-width="3"></path>
    </g>
  </g>
</svg>
