<?xml version="1.0" encoding="UTF-8"?>
<svg width="768px" height="256px" viewBox="0 0 768 256" version="1.1" xmlns="http://www.w3.org/2000/svg" xmlns:xlink="http://www.w3.org/1999/xlink">
    <title>banner-design-guidelines</title>
    <defs>
        <linearGradient x1="0%" y1="100%" x2="99.7132334%" y2="100%" id="linearGradient-1">
            <stop stop-color="#9E9E9E" stop-opacity="0" offset="0%"></stop>
            <stop stop-color="#9E9E9E" offset="50.3796984%"></stop>
            <stop stop-color="#9E9E9E" stop-opacity="0" offset="100%"></stop>
        </linearGradient>
    </defs>
    <g id="banner-design-guidelines" stroke="none" stroke-width="1" fill="none" fill-rule="evenodd">
        <g id="Group" transform="translate(80.000000, 0.000000)" opacity="0.5" stroke="#979797" stroke-width="3">
            <g id="grid" opacity="0.50125558">
                <rect id="Rectangle" opacity="0.25" x="49.1162791" y="49.1162791" width="285.767442" height="285.767442"></rect>
                <circle id="Oval" opacity="0.75" cx="192" cy="192" r="142.883721"></circle>
                <circle id="Oval-Copy-2" opacity="0.25" cx="192" cy="192" r="95.255814"></circle>
                <circle id="Oval-Copy" opacity="0.25" cx="192" cy="192" r="172.651163"></circle>
                <line x1="1.48837209" y1="192" x2="382.511628" y2="192" id="Line" stroke-linecap="square"></line>
                <line x1="1.48837209" y1="144.372093" x2="382.511628" y2="144.372093" id="Line-Copy" opacity="0.25" stroke-linecap="square"></line>
                <line x1="382.511628" y1="168.186047" x2="1.48837209" y2="168.186047" id="Line-13" opacity="0.1" stroke-linecap="square"></line>
                <line x1="382.511628" y1="120.55814" x2="1.48837209" y2="120.55814" id="Line-13-Copy-2" opacity="0.1" stroke-linecap="square"></line>
                <line x1="382.511628" y1="72.9302326" x2="1.48837209" y2="72.9302326" id="Line-13-Copy-3" opacity="0.1" stroke-linecap="square"></line>
                <line x1="382.511628" y1="215.813953" x2="1.48837209" y2="215.813953" id="Line-13-Copy" opacity="0.1" stroke-linecap="square"></line>
                <line x1="382.511628" y1="263.44186" x2="1.48837209" y2="263.44186" id="Line-13-Copy-4" opacity="0.1" stroke-linecap="square"></line>
                <line x1="382.511628" y1="311.069767" x2="1.48837209" y2="311.069767" id="Line-13-Copy-5" opacity="0.1" stroke-linecap="square"></line>
                <line x1="1.48837209" y1="96.744186" x2="382.511628" y2="96.744186" id="Line-Copy-4" opacity="0.25" stroke-linecap="square"></line>
                <line x1="1.48837209" y1="239.627907" x2="382.511628" y2="239.627907" id="Line-Copy-2" opacity="0.25" stroke-linecap="square"></line>
                <line x1="1.48837209" y1="287.255814" x2="382.511628" y2="287.255814" id="Line-Copy-3" opacity="0.25" stroke-linecap="square"></line>
                <line x1="192" y1="1.48837209" x2="192" y2="382.511628" id="Line-2" stroke-linecap="square"></line>
                <line x1="239.627907" y1="1.48837209" x2="239.627907" y2="382.511628" id="Line-2-Copy" opacity="0.25" stroke-linecap="square"></line>
                <line x1="144.372093" y1="1.48837209" x2="144.372093" y2="382.511628" id="Line-2-Copy-3" opacity="0.25" stroke-linecap="square"></line>
                <line x1="96.744186" y1="1.48837209" x2="96.744186" y2="382.511628" id="Line-2-Copy-4" opacity="0.25" stroke-linecap="square"></line>
                <line x1="287.255814" y1="1.48837209" x2="287.255814" y2="382.511628" id="Line-2-Copy-2" opacity="0.25" stroke-linecap="square"></line>
                <line x1="49.1162791" y1="334.883721" x2="334.883721" y2="49.1162791" id="Line-3" opacity="0.75" stroke-linecap="square"></line>
                <line x1="49.1162791" y1="49.1162791" x2="334.883721" y2="334.883721" id="Line-4" opacity="0.75" stroke-linecap="square"></line>
                <line x1="144.372093" y1="49.1162791" x2="334.883721" y2="239.627907" id="Line-5" opacity="0.25" stroke-linecap="square"></line>
                <line x1="239.627907" y1="49.1162791" x2="334.883721" y2="144.372093" id="Line-6" opacity="0.25" stroke-linecap="square"></line>
                <line x1="49.1162791" y1="144.372093" x2="239.627907" y2="334.883721" id="Line-7" opacity="0.25" stroke-linecap="square"></line>
                <line x1="49.1162791" y1="239.627907" x2="144.372093" y2="334.883721" id="Line-8" opacity="0.25" stroke-linecap="square"></line>
                <line x1="144.372093" y1="334.883721" x2="334.883721" y2="144.372093" id="Line-9" opacity="0.25" stroke-linecap="square"></line>
                <line x1="239.627907" y1="334.883721" x2="334.883721" y2="239.627907" id="Line-10" opacity="0.25" stroke-linecap="square"></line>
                <line x1="49.1162791" y1="239.627907" x2="239.627907" y2="49.1162791" id="Line-11" opacity="0.25" stroke-linecap="square"></line>
                <line x1="49.1162791" y1="144.372093" x2="144.372093" y2="49.1162791" id="Line-12" opacity="0.25" stroke-linecap="square"></line>
                <line x1="168.186047" y1="382.511628" x2="168.186047" y2="1.48837209" id="Line-14" opacity="0.1" stroke-linecap="square"></line>
                <line x1="215.813953" y1="382.511628" x2="215.813953" y2="1.48837209" id="Line-14-Copy-3" opacity="0.1" stroke-linecap="square"></line>
                <line x1="263.44186" y1="382.511628" x2="263.44186" y2="1.48837209" id="Line-14-Copy-4" opacity="0.1" stroke-linecap="square"></line>
                <line x1="311.069767" y1="382.511628" x2="311.069767" y2="1.48837209" id="Line-14-Copy-5" opacity="0.1" stroke-linecap="square"></line>
                <line x1="120.55814" y1="382.511628" x2="120.55814" y2="1.48837209" id="Line-14-Copy" opacity="0.1" stroke-linecap="square"></line>
                <line x1="72.9302326" y1="382.511628" x2="72.9302326" y2="1.48837209" id="Line-14-Copy-2" opacity="0.1" stroke-linecap="square"></line>
            </g>
        </g>
        <path d="M427.003506,49 C428.327345,49 429.41118,50.029074 429.497909,51.3314485 L429.503502,51.495614 L429.547,76.5 L432.025357,76.5 L432.025357,77.5 L429.549,77.5 L429.586,99 L432.012678,99 L432.012678,100 L429.588,100 L429.832,239 L432.525357,239 L432.525357,240 L429.834,240 L429.916,287 L433.5,287 L433.5,288 L429.918,288 L429.996492,332.495614 C429.99881,333.821095 428.969178,334.907459 427.66524,334.99439 L427.496488,335 L425.5,335 L425.5,334 L427.49912,334 C428.278815,333.99863 428.918523,333.402619 428.989873,332.64184 L428.996486,332.497368 L428.834,240 L428.525357,240 L428.525357,239 L428.832,239 L428.588,100 L428.012678,100 L428.012678,99 L428.586,99 L428.549,77.5 L428.025357,77.5 L428.025357,76.5 L428.547,76.5 L428.503503,51.4973684 C428.502137,50.7186406 427.907546,50.0793647 427.147791,50.0068504 L427.003506,50 L425,50 L425,49 L427.003506,49 Z M563.754,284.018 C564.522,284.018 565.2,284.21 565.788,284.594 C566.376,284.978 566.832,285.515 567.156,286.205 C567.48,286.895 567.642,287.696 567.642,288.608 C567.642,289.52 567.48,290.315 567.156,290.993 C566.832,291.671 566.379,292.196 565.797,292.568 C565.215,292.94 564.534,293.126 563.754,293.126 C563.07,293.126 562.473,292.976 561.963,292.676 C561.51675,292.4135 561.164672,292.054531 560.906766,291.599094 L560.802,291.398 L560.802,296.24 L559.344,296.24 L559.344,284.234 L560.802,284.234 L560.802,285.746 L560.906766,285.544906 C561.164672,285.089469 561.51675,284.7305 561.963,284.468 C562.473,284.168 563.07,284.018 563.754,284.018 Z M552.396,280.166 C553.728,280.166 554.769,280.469 555.519,281.075 C556.269,281.681 556.644,282.5 556.644,283.532 C556.644,284.228 556.458,284.837 556.086,285.359 C555.714,285.881 555.216,286.256 554.592,286.484 C555.336,286.712 555.915,287.102 556.329,287.654 C556.743,288.206 556.95,288.866 556.95,289.634 C556.95,290.726 556.554,291.581 555.762,292.199 C554.97,292.817 553.848,293.126 552.396,293.126 C550.944,293.126 549.822,292.817 549.03,292.199 C548.238,291.581 547.842,290.726 547.842,289.634 C547.842,288.854 548.052,288.188 548.472,287.636 C548.892,287.084 549.474,286.7 550.218,286.484 C549.582,286.244 549.078,285.866 548.706,285.35 C548.334,284.834 548.148,284.228 548.148,283.532 C548.148,282.5 548.523,281.681 549.273,281.075 C550.023,280.469 551.064,280.166 552.396,280.166 Z M570.63,284.234 L573.15,287.42 L575.67,284.234 L577.452,284.234 L574.014,288.482 L577.65,293 L575.886,293 L573.15,289.58 L570.432,293 L568.65,293 L572.286,288.482 L568.866,284.234 L570.63,284.234 Z M541.38,280.166 C542.544,280.166 543.465,280.466 544.143,281.066 C544.821,281.666 545.16,282.476 545.16,283.496 C545.16,284.228 544.995,284.93 544.665,285.602 C544.371667,286.199333 543.910037,286.858296 543.280111,287.578889 L543.036,287.852 L539.436,291.758 L545.7,291.758 L545.7,293 L537.528,293 L537.528,291.884 L541.974,286.988 L542.191266,286.739234 C542.680172,286.166328 543.04275,285.64625 543.279,285.179 C543.549,284.645 543.684,284.108 543.684,283.568 C543.684,282.872 543.48,282.338 543.072,281.966 C542.664,281.594 542.088,281.408 541.344,281.408 C540.2016,281.408 539.080107,281.83136 537.97952,282.67808 L537.744,282.866 L537.186,281.732 L537.381047,281.556641 C537.850266,281.158297 538.41825,280.83575 539.085,280.589 C539.847,280.307 540.612,280.166 541.38,280.166 Z M531.606,280.31 L531.606,291.758 L534.396,291.758 L534.396,293 L527.34,293 L527.34,291.758 L530.13,291.758 L530.13,282.146 L527.898,283.55 L527.214,282.416 L530.544,280.31 L531.606,280.31 Z M563.466,285.242 C562.614,285.242 561.957,285.53 561.495,286.106 C561.033,286.682 560.802,287.504 560.802,288.572 C560.802,289.64 561.033,290.465 561.495,291.047 C561.957,291.629 562.614,291.92 563.466,291.92 C564.318,291.92 564.978,291.632 565.446,291.056 C565.914,290.48 566.148,289.664 566.148,288.608 C566.148,287.552 565.914,286.727 565.446,286.133 C564.978,285.539 564.318,285.242 563.466,285.242 Z M552.396,287.186 C550.332,287.186 549.3,287.972 549.3,289.544 C549.3,291.116 550.332,291.902 552.396,291.902 C554.46,291.902 555.492,291.116 555.492,289.544 C555.492,287.972 554.46,287.186 552.396,287.186 Z M519.5,287 L519.5,288 L517.5,288 L517.5,287 L519.5,287 Z M513.5,287 L513.5,288 L509.5,288 L509.5,287 L513.5,287 Z M505.5,287 L505.5,288 L501.5,288 L501.5,287 L505.5,287 Z M497.5,287 L497.5,288 L493.5,288 L493.5,287 L497.5,287 Z M489.5,287 L489.5,288 L485.5,288 L485.5,287 L489.5,287 Z M481.5,287 L481.5,288 L477.5,288 L477.5,287 L481.5,287 Z M473.5,287 L473.5,288 L469.5,288 L469.5,287 L473.5,287 Z M465.5,287 L465.5,288 L461.5,288 L461.5,287 L465.5,287 Z M457.5,287 L457.5,288 L453.5,288 L453.5,287 L457.5,287 Z M449.5,287 L449.5,288 L445.5,288 L445.5,287 L449.5,287 Z M441.5,287 L441.5,288 L437.5,288 L437.5,287 L441.5,287 Z M552.396,281.39 C551.484,281.39 550.791,281.588 550.317,281.984 C549.843,282.38 549.606,282.932 549.606,283.64 C549.606,284.384 549.843,284.954 550.317,285.35 C550.791,285.746 551.484,285.944 552.396,285.944 C553.308,285.944 554.001,285.746 554.475,285.35 C554.949,284.954 555.186,284.384 555.186,283.64 C555.186,282.932 554.949,282.38 554.475,281.984 C554.001,281.588 553.308,281.39 552.396,281.39 Z M555.756,236.018 C556.524,236.018 557.202,236.21 557.79,236.594 C558.378,236.978 558.834,237.515 559.158,238.205 C559.482,238.895 559.644,239.696 559.644,240.608 C559.644,241.52 559.482,242.315 559.158,242.993 C558.834,243.671 558.381,244.196 557.799,244.568 C557.217,244.94 556.536,245.126 555.756,245.126 C555.072,245.126 554.475,244.976 553.965,244.676 C553.51875,244.4135 553.166672,244.054531 552.908766,243.599094 L552.804,243.398 L552.804,248.24 L551.346,248.24 L551.346,236.234 L552.804,236.234 L552.804,237.746 L552.908766,237.544906 C553.166672,237.089469 553.51875,236.7305 553.965,236.468 C554.475,236.168 555.072,236.018 555.756,236.018 Z M544.398,232.166 C545.85,232.166 546.954,232.715 547.71,233.813 C548.466,234.911 548.844,236.522 548.844,238.646 C548.844,240.77 548.466,242.384 547.71,243.488 C546.954,244.592 545.85,245.144 544.398,245.144 C542.946,245.144 541.842,244.592 541.086,243.488 C540.33,242.384 539.952,240.776 539.952,238.664 C539.952,236.54 540.33,234.926 541.086,233.822 C541.842,232.718 542.946,232.166 544.398,232.166 Z M562.632,236.234 L565.152,239.42 L567.672,236.234 L569.454,236.234 L566.016,240.482 L569.652,245 L567.888,245 L565.152,241.58 L562.434,245 L560.652,245 L564.288,240.482 L560.868,236.234 L562.632,236.234 Z M533.382,232.166 C534.546,232.166 535.467,232.466 536.145,233.066 C536.823,233.666 537.162,234.476 537.162,235.496 C537.162,236.228 536.997,236.93 536.667,237.602 C536.373667,238.199333 535.912037,238.858296 535.282111,239.578889 L535.038,239.852 L531.438,243.758 L537.702,243.758 L537.702,245 L529.53,245 L529.53,243.884 L533.976,238.988 L534.193266,238.739234 C534.682172,238.166328 535.04475,237.64625 535.281,237.179 C535.551,236.645 535.686,236.108 535.686,235.568 C535.686,234.872 535.482,234.338 535.074,233.966 C534.666,233.594 534.09,233.408 533.346,233.408 C532.2036,233.408 531.082107,233.83136 529.98152,234.67808 L529.746,234.866 L529.188,233.732 L529.383047,233.556641 C529.852266,233.158297 530.42025,232.83575 531.087,232.589 C531.849,232.307 532.614,232.166 533.382,232.166 Z M555.468,237.242 C554.616,237.242 553.959,237.53 553.497,238.106 C553.035,238.682 552.804,239.504 552.804,240.572 C552.804,241.64 553.035,242.465 553.497,243.047 C553.959,243.629 554.616,243.92 555.468,243.92 C556.32,243.92 556.98,243.632 557.448,243.056 C557.916,242.48 558.15,241.664 558.15,240.608 C558.15,239.552 557.916,238.727 557.448,238.133 C556.98,237.539 556.32,237.242 555.468,237.242 Z M544.398,233.426 C543.39,233.426 542.646,233.846 542.166,234.686 C541.686,235.526 541.446,236.846 541.446,238.646 C541.446,240.446 541.686,241.772 542.166,242.624 C542.646,243.476 543.39,243.902 544.398,243.902 C545.406,243.902 546.15,243.476 546.63,242.624 C547.11,241.772 547.35,240.446 547.35,238.646 C547.35,236.834 547.113,235.511 546.639,234.677 C546.165,233.843 545.418,233.426 544.398,233.426 Z M272.525357,239 L272.525357,240 L268.525357,240 L268.525357,239 L272.525357,239 Z M280.525357,239 L280.525357,240 L276.525357,240 L276.525357,239 L280.525357,239 Z M288.525357,239 L288.525357,240 L284.525357,240 L284.525357,239 L288.525357,239 Z M520,239 L520,240 L516.525357,240 L516.525357,239 L520,239 Z M304.525357,239 L304.525357,240 L300.525357,240 L300.525357,239 L304.525357,239 Z M312.525357,239 L312.525357,240 L308.525357,240 L308.525357,239 L312.525357,239 Z M320.525357,239 L320.525357,240 L316.525357,240 L316.525357,239 L320.525357,239 Z M328.525357,239 L328.525357,240 L324.525357,240 L324.525357,239 L328.525357,239 Z M336.525357,239 L336.525357,240 L332.525357,240 L332.525357,239 L336.525357,239 Z M344.525357,239 L344.525357,240 L340.525357,240 L340.525357,239 L344.525357,239 Z M408.525357,239 L408.525357,240 L404.525357,240 L404.525357,239 L408.525357,239 Z M400.525357,239 L400.525357,240 L396.525357,240 L396.525357,239 L400.525357,239 Z M392.525357,239 L392.525357,240 L388.525357,240 L388.525357,239 L392.525357,239 Z M384.525357,239 L384.525357,240 L380.525357,240 L380.525357,239 L384.525357,239 Z M424.525357,239 L424.525357,240 L420.525357,240 L420.525357,239 L424.525357,239 Z M368.525357,239 L368.525357,240 L364.525357,240 L364.525357,239 L368.525357,239 Z M360.525357,239 L360.525357,240 L356.525357,240 L356.525357,239 L360.525357,239 Z M352.525357,239 L352.525357,240 L348.525357,240 L348.525357,239 L352.525357,239 Z M472.525357,239 L472.525357,240 L468.525357,240 L468.525357,239 L472.525357,239 Z M464.525357,239 L464.525357,240 L460.525357,240 L460.525357,239 L464.525357,239 Z M224.525357,239 L224.525357,240 L220.525357,240 L220.525357,239 L224.525357,239 Z M264.525357,239 L264.525357,240 L260.525357,240 L260.525357,239 L264.525357,239 Z M256.525357,239 L256.525357,240 L252.525357,240 L252.525357,239 L256.525357,239 Z M248.525357,239 L248.525357,240 L244.525357,240 L244.525357,239 L248.525357,239 Z M240.525357,239 L240.525357,240 L236.525357,240 L236.525357,239 L240.525357,239 Z M232.525357,239 L232.525357,240 L228.525357,240 L228.525357,239 L232.525357,239 Z M488.525357,239 L488.525357,240 L484.525357,240 L484.525357,239 L488.525357,239 Z M496.525357,239 L496.525357,240 L492.525357,240 L492.525357,239 L496.525357,239 Z M504.525357,239 L504.525357,240 L500.525357,240 L500.525357,239 L504.525357,239 Z M208.525357,239 L208.525357,240 L204.525357,240 L204.525357,239 L208.525357,239 Z M376.525357,239 L376.525357,240 L372.525357,240 L372.525357,239 L376.525357,239 Z M512.525357,239 L512.525357,240 L508.525357,240 L508.525357,239 L512.525357,239 Z M480.525357,239 L480.525357,240 L476.525357,240 L476.525357,239 L480.525357,239 Z M296.525357,239 L296.525357,240 L292.525357,240 L292.525357,239 L296.525357,239 Z M416.525357,239 L416.525357,240 L412.525357,240 L412.525357,239 L416.525357,239 Z M216.525357,239 L216.525357,240 L212.525357,240 L212.525357,239 L216.525357,239 Z M456.525357,239 L456.525357,240 L452.525357,240 L452.525357,239 L456.525357,239 Z M184.525357,239 L184.525357,240 L180.525357,240 L180.525357,239 L184.525357,239 Z M192.525357,239 L192.525357,240 L188.525357,240 L188.525357,239 L192.525357,239 Z M200.525357,239 L200.525357,240 L196.525357,240 L196.525357,239 L200.525357,239 Z M448.525357,239 L448.525357,240 L444.525357,240 L444.525357,239 L448.525357,239 Z M440.525357,239 L440.525357,240 L436.525357,240 L436.525357,239 L440.525357,239 Z M172.538814,238.9707 L173.009865,238.992404 L173.482471,238.999991 L176.525358,239 L176.525358,240 L173.481934,240 L172.978861,239.991923 L172.477777,239.968835 L172.538814,238.9707 Z M165.157694,236.565894 C166.112442,237.17679 167.131289,237.681279 168.19731,238.069368 L168.657015,238.228536 L168.344824,239.178555 C167.195585,238.800897 166.09412,238.297811 165.058489,237.679994 L164.61873,237.408222 L165.157694,236.565894 Z M159.903807,230.948916 C160.449782,231.943276 161.103619,232.874764 161.852064,233.726536 L162.17858,234.086651 L161.448315,234.769815 C160.62334,233.887962 159.896975,232.918636 159.283307,231.879684 L159.027248,231.430209 L159.903807,230.948916 Z M158,223.5 C158,224.64684 158.124471,225.776959 158.368708,226.876464 L158.4807,227.345766 L157.51177,227.5931 C157.215394,226.432048 157.045852,225.236541 157.008097,224.021758 L157,223.5 L158,223.5 Z M158,215.5 L158,219.5 L157,219.5 L157,215.5 L158,215.5 Z M158,207.5 L158,211.5 L157,211.5 L157,207.5 L158,207.5 Z M158,199.5 L158,203.5 L157,203.5 L157,199.5 L158,199.5 Z M551.738,189.018 C552.506,189.018 553.184,189.21 553.772,189.594 C554.36,189.978 554.816,190.515 555.14,191.205 C555.464,191.895 555.626,192.696 555.626,193.608 C555.626,194.52 555.464,195.315 555.14,195.993 C554.816,196.671 554.363,197.196 553.781,197.568 C553.199,197.94 552.518,198.126 551.738,198.126 C551.054,198.126 550.457,197.976 549.947,197.676 C549.50075,197.4135 549.148672,197.054531 548.890766,196.599094 L548.786,196.398 L548.786,201.24 L547.328,201.24 L547.328,189.234 L548.786,189.234 L548.786,190.746 L548.890766,190.544906 C549.148672,190.089469 549.50075,189.7305 549.947,189.468 C550.457,189.168 551.054,189.018 551.738,189.018 Z M540.902,185.166 C541.634,185.166 542.348,185.301 543.044,185.571 C543.640571,185.802429 544.175429,186.119816 544.648571,186.523163 L544.88,186.732 L544.322,187.866 L544.06651,187.658265 C543.558837,187.259327 543.071,186.959571 542.603,186.759 C542.057,186.525 541.502,186.408 540.938,186.408 C539.846,186.408 538.997,186.891 538.391,187.857 C537.8254,188.7586 537.523747,190.007773 537.48604,191.60452 L537.482,191.952 L537.482,192.222 L537.580222,192.003111 C537.858741,191.433037 538.27,190.972 538.814,190.62 C539.426,190.224 540.134,190.026 540.938,190.026 C541.706,190.026 542.39,190.194 542.99,190.53 C543.59,190.866 544.058,191.34 544.394,191.952 C544.73,192.564 544.898,193.266 544.898,194.058 C544.898,194.838 544.724,195.54 544.376,196.164 C544.028,196.788 543.542,197.274 542.918,197.622 C542.294,197.97 541.592,198.144 540.812,198.144 C539.276,198.144 538.091,197.61 537.257,196.542 C536.423,195.474 536.006,193.95 536.006,191.97 C536.006,190.542 536.201,189.318 536.591,188.298 C536.981,187.278 537.542,186.501 538.274,185.967 C539.006,185.433 539.882,185.166 540.902,185.166 Z M530.606,185.31 L530.606,196.758 L533.396,196.758 L533.396,198 L526.34,198 L526.34,196.758 L529.13,196.758 L529.13,187.146 L526.898,188.55 L526.214,187.416 L529.544,185.31 L530.606,185.31 Z M558.614,189.234 L561.134,192.42 L563.654,189.234 L565.436,189.234 L561.998,193.482 L565.634,198 L563.87,198 L561.134,194.58 L558.416,198 L556.634,198 L560.27,193.482 L556.85,189.234 L558.614,189.234 Z M551.45,190.242 C550.598,190.242 549.941,190.53 549.479,191.106 C549.017,191.682 548.786,192.504 548.786,193.572 C548.786,194.64 549.017,195.465 549.479,196.047 C549.941,196.629 550.598,196.92 551.45,196.92 C552.302,196.92 552.962,196.632 553.43,196.056 C553.898,195.48 554.132,194.664 554.132,193.608 C554.132,192.552 553.898,191.727 553.43,191.133 C552.962,190.539 552.302,190.242 551.45,190.242 Z M540.722,191.268 C539.894,191.268 539.219,191.529 538.697,192.051 C538.175,192.573 537.914,193.248 537.914,194.076 C537.914,194.916 538.175,195.597 538.697,196.119 C539.219,196.641 539.9,196.902 540.74,196.902 C541.556,196.902 542.21,196.644 542.702,196.128 C543.194,195.612 543.44,194.928 543.44,194.076 C543.44,193.236 543.191,192.558 542.693,192.042 C542.195,191.526 541.538,191.268 540.722,191.268 Z M158,191.5 L158,195.5 L157,195.5 L157,191.5 L158,191.5 Z M427.025357,191.5 L427.025357,192.5 L423.025357,192.5 L423.025357,191.5 L427.025357,191.5 Z M451.025357,191.5 L451.025357,192.5 L447.025357,192.5 L447.025357,191.5 L451.025357,191.5 Z M491.025357,191.5 L491.025357,192.5 L487.025357,192.5 L487.025357,191.5 L491.025357,191.5 Z M499.025357,191.5 L499.025357,192.5 L495.025357,192.5 L495.025357,191.5 L499.025357,191.5 Z M475.025357,191.5 L475.025357,192.5 L471.025357,192.5 L471.025357,191.5 L475.025357,191.5 Z M483.025357,191.5 L483.025357,192.5 L479.025357,192.5 L479.025357,191.5 L483.025357,191.5 Z M419.025357,191.5 L419.025357,192.5 L415.025357,192.5 L415.025357,191.5 L419.025357,191.5 Z M515.025357,191.5 L515.025357,192.5 L511.025357,192.5 L511.025357,191.5 L515.025357,191.5 Z M507.025357,191.5 L507.025357,192.5 L503.025357,192.5 L503.025357,191.5 L507.025357,191.5 Z M435.025357,191.5 L435.025357,192.5 L431.025357,192.5 L431.025357,191.5 L435.025357,191.5 Z M443.025357,191.5 L443.025357,192.5 L439.025357,192.5 L439.025357,191.5 L443.025357,191.5 Z M520,191.5 L520,192.5 L519.025357,192.5 L519.025357,191.5 L520,191.5 Z M459.025357,191.5 L459.025357,192.5 L455.025357,192.5 L455.025357,191.5 L459.025357,191.5 Z M467.025357,191.5 L467.025357,192.5 L463.025357,192.5 L463.025357,191.5 L467.025357,191.5 Z M407.031928,191.493072 L407.261696,191.498207 L411.025357,191.5 L411.025357,192.5 L407.246658,192.498093 L407.002299,192.492633 L407.031928,191.493072 Z M399.572578,189.322253 C400.545765,189.902638 401.579876,190.374659 402.658121,190.728898 L403.122879,190.873477 L402.840991,191.832924 C401.679612,191.491708 400.562758,191.023657 399.508374,190.438861 L399.060373,190.181116 L399.572578,189.322253 Z M394.145669,183.873385 C394.722722,184.84997 395.405517,185.760557 396.180292,186.588481 L396.51793,186.938196 L395.809418,187.643896 C394.957263,186.788345 394.200857,185.842239 393.554812,184.823231 L393.284735,184.382102 L394.145669,183.873385 Z M158,183.5 L158,187.5 L157,187.5 L157,183.5 L158,183.5 Z M392.007445,176.485198 C392.042623,177.629907 392.202235,178.755443 392.481138,179.84749 L392.607957,180.313418 L391.647302,180.591163 C391.314132,179.438804 391.107234,178.248779 391.032056,177.036687 L391.007917,176.515914 L392.007445,176.485198 Z M158,175.5 L158,179.5 L157,179.5 L157,175.5 L158,175.5 Z M392,168.5 L392,172.5 L391,172.5 L391,168.5 L392,168.5 Z M158,167.5 L158,171.5 L157,171.5 L157,167.5 L158,167.5 Z M392,160.5 L392,164.5 L391,164.5 L391,160.5 L392,160.5 Z M158,159.5 L158,163.5 L157,163.5 L157,159.5 L158,159.5 Z M392,152.5 L392,156.5 L391,156.5 L391,152.5 L392,152.5 Z M158,151.5 L158,155.5 L157,155.5 L157,151.5 L158,151.5 Z M368,140 L368,142 L368.006867,142.14446 C368.075009,142.857571 368.642429,143.424991 369.35554,143.493133 L369.5,143.5 L413,143.5 L413.14446,143.493133 C413.857571,143.424991 414.424991,142.857571 414.493133,142.14446 L414.5,142 L414.5,140 L415.5,140 L415.5,142 L415.494682,142.164376 C415.413565,143.414127 414.414127,144.413565 413.164376,144.494682 L413,144.5 L392,144.5 L392,148.5 L391,148.5 L391,144.5 L369.5,144.5 L369.335624,144.494682 C368.085873,144.413565 367.086435,143.414127 367.005318,142.164376 L367,142 L367,140 L368,140 Z M130,139 L130,141 L130.006867,141.14446 C130.075009,141.857571 130.642429,142.424991 131.35554,142.493133 L131.5,142.5 L184,142.5 L184.14446,142.493133 C184.857571,142.424991 185.424991,141.857571 185.493133,141.14446 L185.5,141 L185.5,139 L186.5,139 L186.5,141 L186.494682,141.164376 C186.413565,142.414127 185.414127,143.413565 184.164376,143.494682 L184,143.5 L158,143.5 L158,147.5 L157,147.5 L157,143.5 L131.5,143.5 L131.335624,143.494682 C130.085873,143.413565 129.086435,142.414127 129.005318,141.164376 L129,141 L129,139 L130,139 Z M368,110.5 L368,114 L374.75,114 C376.075483,114 377.160039,115.031536 377.244682,116.335624 L377.25,116.5 L377.25,118.5 L376.25,118.5 L376.25,116.5 C376.25,115.720304 375.655112,115.079551 374.89446,115.006867 L374.75,115 L360.75,115 C359.970304,115 359.329551,115.594888 359.256867,116.35554 L359.25,116.5 L359.25,118.5 L358.25,118.5 L358.25,116.5 C358.25,115.174517 359.281536,114.089961 360.585624,114.005318 L360.75,114 L367,114 L367,110.5 L368,110.5 Z M255,106.5 L255,110.5 L317.5,110.5 L317.664376,110.505318 C318.914127,110.586435 319.913565,111.585873 319.994682,112.835624 L320,113 L320,115 L319,115 L319,113 L318.993133,112.85554 C318.924991,112.142429 318.357571,111.575009 317.64446,111.506867 L317.5,111.5 L191,111.5 L190.85554,111.506867 C190.142429,111.575009 189.575009,112.142429 189.506867,112.85554 L189.5,113 L189.5,115 L188.5,115 L188.5,113 L188.505318,112.835624 C188.586435,111.585873 189.585873,110.586435 190.835624,110.505318 L191,110.5 L254,110.5 L254,106.5 L255,106.5 Z M544.758,97.018 C545.526,97.018 546.204,97.21 546.792,97.594 C547.38,97.978 547.836,98.515 548.16,99.205 C548.484,99.895 548.646,100.696 548.646,101.608 C548.646,102.52 548.484,103.315 548.16,103.993 C547.836,104.671 547.383,105.196 546.801,105.568 C546.219,105.94 545.538,106.126 544.758,106.126 C544.074,106.126 543.477,105.976 542.967,105.676 C542.52075,105.4135 542.168672,105.054531 541.910766,104.599094 L541.806,104.398 L541.806,109.24 L540.348,109.24 L540.348,97.234 L541.806,97.234 L541.806,98.746 L541.910766,98.5449063 C542.168672,98.0894688 542.52075,97.7305 542.967,97.468 C543.477,97.168 544.074,97.018 544.758,97.018 Z M368.633441,102.489039 L369.440768,103.079143 C368.756256,104.015629 368.297347,105.096883 368.103965,106.247972 L368.057838,106.56358 L367.065495,106.440068 C367.230806,105.111898 367.705756,103.855819 368.443545,102.759688 L368.633441,102.489039 Z M537.396,93.31 L537.396,94.534 L531.24,94.534 L531.24,99.052 L531.41325,98.89625 C531.71075,98.6470833 532.052,98.45 532.437,98.305 C532.899,98.131 533.4,98.044 533.94,98.044 C534.744,98.044 535.443,98.212 536.037,98.548 C536.631,98.884 537.09,99.355 537.414,99.961 C537.738,100.567 537.9,101.266 537.9,102.058 C537.9,102.862 537.723,103.57 537.369,104.182 C537.015,104.794 536.514,105.271 535.866,105.613 C535.218,105.955 534.462,106.126 533.598,106.126 C532.83,106.126 532.071,105.985 531.321,105.703 C530.66475,105.45625 530.098078,105.133703 529.620984,104.735359 L529.422,104.56 L529.98,103.426 L530.2156,103.61392 C531.316933,104.46064 532.4444,104.884 533.598,104.884 C534.486,104.884 535.182,104.632 535.686,104.128 C536.19,103.624 536.442,102.94 536.442,102.076 C536.442,101.236 536.193,100.558 535.695,100.042 C535.197,99.526 534.534,99.268 533.706,99.268 C532.5748,99.268 531.657893,99.6965867 530.95528,100.55376 L530.808,100.744 L529.782,100.744 L529.782,93.31 L537.396,93.31 Z M551.634,97.234 L554.154,100.42 L556.674,97.234 L558.456,97.234 L555.018,101.482 L558.654,106 L556.89,106 L554.154,102.58 L551.436,106 L549.654,106 L553.29,101.482 L549.87,97.234 L551.634,97.234 Z M544.47,98.242 C543.618,98.242 542.961,98.53 542.499,99.106 C542.037,99.682 541.806,100.504 541.806,101.572 C541.806,102.64 542.037,103.465 542.499,104.047 C542.961,104.629 543.618,104.92 544.47,104.92 C545.322,104.92 545.982,104.632 546.45,104.056 C546.918,103.48 547.152,102.664 547.152,101.608 C547.152,100.552 546.918,99.727 546.45,99.133 C545.982,98.539 545.322,98.242 544.47,98.242 Z M255,98.5 L255,102.5 L254,102.5 L254,98.5 L255,98.5 Z M376.012678,99 L376.012678,100 L375.5,100 C374.525915,100 373.578823,100.185569 372.696919,100.541213 L372.369336,100.682522 L371.951416,99.7740382 C372.944616,99.3171475 374.019315,99.0556891 375.128907,99.0079663 L375.5,99 L376.012678,99 Z M384.012678,99 L384.012678,100 L380.012678,100 L380.012678,99 L384.012678,99 Z M480.012678,99 L480.012678,100 L476.012678,100 L476.012678,99 L480.012678,99 Z M424.012678,99 L424.012678,100 L420.012678,100 L420.012678,99 L424.012678,99 Z M520,99 L520,100 L516.012678,100 L516.012678,99 L520,99 Z M456.012678,99 L456.012678,100 L452.012678,100 L452.012678,99 L456.012678,99 Z M448.012678,99 L448.012678,100 L444.012678,100 L444.012678,99 L448.012678,99 Z M392.012678,99 L392.012678,100 L388.012678,100 L388.012678,99 L392.012678,99 Z M464.012678,99 L464.012678,100 L460.012678,100 L460.012678,99 L464.012678,99 Z M400.012678,99 L400.012678,100 L396.012678,100 L396.012678,99 L400.012678,99 Z M512.012678,99 L512.012678,100 L508.012678,100 L508.012678,99 L512.012678,99 Z M504.012678,99 L504.012678,100 L500.012678,100 L500.012678,99 L504.012678,99 Z M496.012678,99 L496.012678,100 L492.012678,100 L492.012678,99 L496.012678,99 Z M488.012678,99 L488.012678,100 L484.012678,100 L484.012678,99 L488.012678,99 Z M408.012678,99 L408.012678,100 L404.012678,100 L404.012678,99 L408.012678,99 Z M440.012678,99 L440.012678,100 L436.012678,100 L436.012678,99 L440.012678,99 Z M472.012678,99 L472.012678,100 L468.012678,100 L468.012678,99 L472.012678,99 Z M416.012678,99 L416.012678,100 L412.012678,100 L412.012678,99 L416.012678,99 Z M254.19912,90.4294574 L255.187099,90.5840461 C255.087708,91.2192526 255.027599,91.8627225 255.007531,92.5119955 L255,93 L255,94.5 L254,94.5 L254,93 C254,92.3065314 254.042807,91.6183312 254.127634,90.9380971 L254.19912,90.4294574 Z M257.461919,82.8864912 L258.251653,83.4999402 C257.555677,84.3959167 256.959788,85.365155 256.475653,86.3905669 L256.275043,86.8334185 L255.35775,86.4352039 C255.838978,85.3266904 256.440873,84.2755481 257.150992,83.2999343 L257.461919,82.8864912 Z M555.756,74.018 C556.524,74.018 557.202,74.21 557.79,74.594 C558.378,74.978 558.834,75.515 559.158,76.205 C559.482,76.895 559.644,77.696 559.644,78.608 C559.644,79.52 559.482,80.315 559.158,80.993 C558.834,81.671 558.381,82.196 557.799,82.568 C557.217,82.94 556.536,83.126 555.756,83.126 C555.072,83.126 554.475,82.976 553.965,82.676 C553.51875,82.4135 553.166672,82.0545312 552.908766,81.5990937 L552.804,81.398 L552.804,86.24 L551.346,86.24 L551.346,74.234 L552.804,74.234 L552.804,75.746 L552.908766,75.5449062 C553.166672,75.0894687 553.51875,74.7305 553.965,74.468 C554.475,74.168 555.072,74.018 555.756,74.018 Z M544.398,70.166 C545.85,70.166 546.954,70.715 547.71,71.813 C548.466,72.911 548.844,74.522 548.844,76.646 C548.844,78.77 548.466,80.384 547.71,81.488 C546.954,82.592 545.85,83.144 544.398,83.144 C542.946,83.144 541.842,82.592 541.086,81.488 C540.33,80.384 539.952,78.776 539.952,76.664 C539.952,74.54 540.33,72.926 541.086,71.822 C541.842,70.718 542.946,70.166 544.398,70.166 Z M536.244,70.31 L536.244,79.022 L538.152,79.022 L538.152,80.246 L536.244,80.246 L536.244,83 L534.786,83 L534.786,80.246 L528.918,80.246 L528.918,79.13 L535.038,70.31 L536.244,70.31 Z M562.632,74.234 L565.152,77.42 L567.672,74.234 L569.454,74.234 L566.016,78.482 L569.652,83 L567.888,83 L565.152,79.58 L562.434,83 L560.652,83 L564.288,78.482 L560.868,74.234 L562.632,74.234 Z M555.468,75.242 C554.616,75.242 553.959,75.53 553.497,76.106 C553.035,76.682 552.804,77.504 552.804,78.572 C552.804,79.64 553.035,80.465 553.497,81.047 C553.959,81.629 554.616,81.92 555.468,81.92 C556.32,81.92 556.98,81.632 557.448,81.056 C557.916,80.48 558.15,79.664 558.15,78.608 C558.15,77.552 557.916,76.727 557.448,76.133 C556.98,75.539 556.32,75.242 555.468,75.242 Z M544.398,71.426 C543.39,71.426 542.646,71.846 542.166,72.686 C541.686,73.526 541.446,74.846 541.446,76.646 C541.446,78.446 541.686,79.772 542.166,80.624 C542.646,81.476 543.39,81.902 544.398,81.902 C545.406,81.902 546.15,81.476 546.63,80.624 C547.11,79.772 547.35,78.446 547.35,76.646 C547.35,74.834 547.113,73.511 546.639,72.677 C546.165,71.843 545.418,71.426 544.398,71.426 Z M263.980692,77.838085 L264.376133,78.756576 C263.333699,79.2053797 262.344694,79.7677531 261.426203,80.4320856 L261.036931,80.7230081 L260.425858,79.9314339 C261.381677,79.1935687 262.415294,78.562377 263.508553,78.0502448 L263.980692,77.838085 Z M534.786,72.776 L530.448,79.022 L534.786,79.022 L534.786,72.776 Z M272.025374,76.5 L272.025374,77.5 L270.459486,77.5000518 C269.814363,77.5017012 269.174381,77.5427453 268.541926,77.6224444 L268.069034,77.689455 L267.913475,76.7016285 C268.58247,76.5962774 269.259964,76.5318845 269.943983,76.5092178 L270.45819,76.5000534 L272.025374,76.5 Z M440.025357,76.5 L440.025357,77.5 L436.025357,77.5 L436.025357,76.5 L440.025357,76.5 Z M280.025357,76.5 L280.025357,77.5 L276.025357,77.5 L276.025357,76.5 L280.025357,76.5 Z M512.025357,76.5 L512.025357,77.5 L508.025357,77.5 L508.025357,76.5 L512.025357,76.5 Z M424.025357,76.5 L424.025357,77.5 L420.025357,77.5 L420.025357,76.5 L424.025357,76.5 Z M296.025357,76.5 L296.025357,77.5 L292.025357,77.5 L292.025357,76.5 L296.025357,76.5 Z M496.025357,76.5 L496.025357,77.5 L492.025357,77.5 L492.025357,76.5 L496.025357,76.5 Z M328.025357,76.5 L328.025357,77.5 L324.025357,77.5 L324.025357,76.5 L328.025357,76.5 Z M352.025357,76.5 L352.025357,77.5 L348.025357,77.5 L348.025357,76.5 L352.025357,76.5 Z M376.025357,76.5 L376.025357,77.5 L372.025357,77.5 L372.025357,76.5 L376.025357,76.5 Z M384.025357,76.5 L384.025357,77.5 L380.025357,77.5 L380.025357,76.5 L384.025357,76.5 Z M392.025357,76.5 L392.025357,77.5 L388.025357,77.5 L388.025357,76.5 L392.025357,76.5 Z M400.025357,76.5 L400.025357,77.5 L396.025357,77.5 L396.025357,76.5 L400.025357,76.5 Z M312.025357,76.5 L312.025357,77.5 L308.025357,77.5 L308.025357,76.5 L312.025357,76.5 Z M320.025357,76.5 L320.025357,77.5 L316.025357,77.5 L316.025357,76.5 L320.025357,76.5 Z M408.025357,76.5 L408.025357,77.5 L404.025357,77.5 L404.025357,76.5 L408.025357,76.5 Z M344.025357,76.5 L344.025357,77.5 L340.025357,77.5 L340.025357,76.5 L344.025357,76.5 Z M368.025357,76.5 L368.025357,77.5 L364.025357,77.5 L364.025357,76.5 L368.025357,76.5 Z M416.025357,76.5 L416.025357,77.5 L412.025357,77.5 L412.025357,76.5 L416.025357,76.5 Z M360.025357,76.5 L360.025357,77.5 L356.025357,77.5 L356.025357,76.5 L360.025357,76.5 Z M504.025357,76.5 L504.025357,77.5 L500.025357,77.5 L500.025357,76.5 L504.025357,76.5 Z M288.025357,76.5 L288.025357,77.5 L284.025357,77.5 L284.025357,76.5 L288.025357,76.5 Z M448.025357,76.5 L448.025357,77.5 L444.025357,77.5 L444.025357,76.5 L448.025357,76.5 Z M456.025357,76.5 L456.025357,77.5 L452.025357,77.5 L452.025357,76.5 L456.025357,76.5 Z M464.025357,76.5 L464.025357,77.5 L460.025357,77.5 L460.025357,76.5 L464.025357,76.5 Z M472.025357,76.5 L472.025357,77.5 L468.025357,77.5 L468.025357,76.5 L472.025357,76.5 Z M480.025357,76.5 L480.025357,77.5 L476.025357,77.5 L476.025357,76.5 L480.025357,76.5 Z M488.025357,76.5 L488.025357,77.5 L484.025357,77.5 L484.025357,76.5 L488.025357,76.5 Z M520,76.5 L520,77.5 L516.025357,77.5 L516.025357,76.5 L520,76.5 Z M304.025357,76.5 L304.025357,77.5 L300.025357,77.5 L300.025357,76.5 L304.025357,76.5 Z M336.025357,76.5 L336.025357,77.5 L332.025357,77.5 L332.025357,76.5 L336.025357,76.5 Z" id="Shape" fill="#9E9E9E" fill-rule="nonzero"></path>
        <path d="M253.75,41.65 C271.777447,41.65 288.809893,48.174076 302.098761,59.7894936 L302.628313,60.2568222 L292.649686,71.4562424 C282.006881,61.9735573 268.302192,56.65 253.75,56.65 C221.441342,56.65 195.25,82.8413421 195.25,115.15 C195.25,147.458658 221.441342,173.65 253.75,173.65 C285.735571,173.65 311.725561,147.979866 312.242163,116.117404 L312.25,115.15 L312.25,49.15 L327.25,49.15 L327.25,271.15 L327.240103,271.979412 C326.587737,312.225104 293.767474,344.65 253.375,344.65 C211.473181,344.65 179.5,316.661195 179.5,276.757477 C179.5,253.630417 188.843102,236.84743 206.679691,224.737601 L207.473279,224.204159 L208.269902,223.67945 L209.07026,223.16314 L209.87505,222.654897 L210.684972,222.154388 L211.500724,221.661279 L212.529675,221.054793 L213.57019,220.4587 L214.411845,219.988871 L215.262473,219.524944 L216.122772,219.066586 L217.212808,218.500964 L218.320412,217.942872 L219.220058,217.501384 L220.132519,217.063967 L221.058492,216.630287 L221.526763,216.414745 L222.953767,215.772809 L223.924467,215.348345 L224.911473,214.926286 L226.424083,214.29698 L227.454908,213.879478 L228.504485,213.463217 L229.573509,213.047863 L231.215041,212.425805 L232.335743,212.011262 L233.478338,211.596461 L234.643525,211.181069 L235.832002,210.764752 L237.659914,210.137816 L238.909672,209.717732 L240.832778,209.083584 L242.816144,208.44361 L244.862127,207.796686 L246.262067,207.360987 L248.417649,206.699984 L249.892838,206.253858 L252.164567,205.575652 L255.30724,204.652797 L258.584977,203.706265 L262.880596,202.485747 L274.021474,199.35323 L277.741357,198.29121 L280.239831,197.56753 L282.16504,197.002721 L284.027465,196.449414 L285.833212,195.905567 L287.588391,195.369141 L289.299107,194.838096 L291.795177,194.047152 L293.421461,193.520631 L298.078539,207.779369 L297.236193,208.05329 L295.532666,208.600109 L293.79876,209.147334 L292.028155,209.697089 L290.214534,210.251496 L288.351577,210.812681 L286.432967,211.382765 L283.436878,212.259225 L278.118594,213.782841 L266.986568,216.912899 L263.718546,217.839725 L260.587289,218.739976 L257.587773,219.615944 L254.714977,220.469918 L252.640518,221.097345 L251.29453,221.50995 L248.68849,222.322817 L246.806682,222.922796 L244.984855,223.515559 L243.220888,224.102073 L241.512663,224.683304 L240.403768,225.068333 L238.783738,225.642907 L237.2138,226.214776 L236.193958,226.594996 L235.194809,226.974729 L234.215726,227.354262 L233.256081,227.733882 L232.315247,228.113875 L231.392595,228.494526 L230.487498,228.876124 L229.599327,229.258953 L228.727457,229.6433 L227.871257,230.029452 L227.030101,230.417695 L226.614968,230.61269 L225.795201,231.004607 L224.988908,231.39933 L224.590618,231.597834 L223.803359,231.997306 L223.028004,232.4003 L222.263927,232.807103 L221.510499,233.218002 L220.582733,233.737822 L219.669399,234.265049 L218.948299,234.692539 L218.235024,235.125413 L217.528944,235.563958 L216.829434,236.008461 L216.135864,236.459207 L215.2763,237.031856 L215.105275,237.147659 C201.288255,246.528474 194.5,258.722197 194.5,276.757477 C194.5,307.899992 219.346254,329.65 253.375,329.65 C285.565168,329.65 311.722191,303.808058 312.242112,271.731385 L312.249,270.879 L312.250536,159.652971 C298.823665,177.275946 277.615109,188.65 253.75,188.65 C213.157071,188.65 180.25,155.742929 180.25,115.15 C180.25,74.5570709 213.157071,41.65 253.75,41.65 Z M374.700384,120.5 C374.700384,148.251013 365.149353,168.3923 346.867812,182.651704 L346.311154,183.082009 L337.188846,171.174722 C351.932678,159.879304 359.547281,144.236498 359.698098,121.200332 L359.700384,120.5 L374.700384,120.5 Z" id="Shape" stroke="#FF9F0A" fill-opacity="0.5" fill="#FF9F0A" fill-rule="nonzero"></path>
        <rect id="Rectangle" fill="url(#linearGradient-1)" x="64" y="255" width="640" height="1"></rect>
    </g>
</svg>