<?xml version="1.0" encoding="UTF-8"?>
<svg width="1024px" height="288px" viewBox="0 0 1024 288" version="1.1" xmlns="http://www.w3.org/2000/svg" xmlns:xlink="http://www.w3.org/1999/xlink">
    <title>banner-no-title-grey</title>
    <g id="banner-no-title-grey" stroke="none" stroke-width="1" fill="none" fill-rule="evenodd">
        <g id="Group" transform="translate(336.000000, 32.000000)">
            <rect id="Rectangle" stroke-opacity="0" stroke="#979797" stroke-width="0.75" x="0" y="0" width="96" height="96"></rect>
            <path d="M25.8721132,29.8959937 L28.5572698,78.2288138 C28.6755952,80.3586708 30.3950365,82.0369806 32.5082871,82.1216475 L32.6759188,82.125 L63.3191595,82.125 C65.4536441,82.125 67.225384,80.4993238 67.425494,78.3925521 L67.438005,78.2252494 L69.5797762,39.0614316 C69.613704,38.4410383 69.1382797,37.9106063 68.5178864,37.8766785 L68.4564548,37.875 L63,37.875 C62.4152279,37.875 61.9346635,38.3211661 61.8801499,38.891655 L61.875,39 L61.875,69 C61.875,71.633858 59.7862528,73.7798629 57.1748506,73.8719227 L57,73.875 L51,73.875 C48.366142,73.875 46.2201371,71.7862528 46.1280773,69.1748506 L46.125,69 L46.125,39 C46.125,38.4152279 45.6788339,37.9346635 45.108345,37.8801499 L45,37.875 L39,37.875 C38.4152279,37.875 37.9346635,38.3211661 37.8801499,38.891655 L37.875,39 L37.875,72 L34.125,72 L34.125,39 C34.125,36.366142 36.2137472,34.2201371 38.8251494,34.1280773 L39,34.125 L45,34.125 C47.633858,34.125 49.7798629,36.2137472 49.8719227,38.8251494 L49.875,39 L49.875,69 C49.875,69.5847721 50.3211661,70.0653365 50.891655,70.1198501 L51,70.125 L57,70.125 C57.5847721,70.125 58.0653365,69.6788339 58.1198501,69.108345 L58.125,69 L58.125,39 C58.125,36.366142 60.2137472,34.2201371 62.8251494,34.1280773 L63,34.125 L68.4564548,34.125 C68.545239,34.125 68.6340067,34.1274254 68.7226586,34.1322736 C71.3525868,34.2760978 73.3813319,36.478913 73.3306564,39.091446 L73.3241812,39.2662038 L71.1824099,78.4300215 C70.95791,82.5351632 67.6174345,85.7639239 63.5311709,85.8721942 L63.3191595,85.875 L32.6759188,85.875 C28.5672303,85.875 25.1620914,82.7196621 24.8275946,78.6482236 L24.8130435,78.4368264 L22.1278868,30.1040063 L25.8721132,29.8959937 Z M57,10.125 C59.633858,10.125 61.7798629,12.2137472 61.8719227,14.8251494 L61.875,15 L61.875,16.125 L75,16.125 C77.633858,16.125 79.7798629,18.2137472 79.8719227,20.8251494 L79.875,21 L79.875,23.25 C79.875,24.6514226 78.7767918,25.7963448 77.3940264,25.8711159 L77.25,25.875 L18,25.875 L18,22.125 L76.125,22.125 L76.125,21 C76.125,20.4152279 75.6788339,19.9346635 75.108345,19.8801499 L75,19.875 L61.5,19.875 C59.689295,19.875 58.2116332,18.4490726 58.1286735,16.6588768 L58.125,16.5 L58.125,15 C58.125,14.4152279 57.6788339,13.9346635 57.108345,13.8801499 L57,13.875 L39,13.875 C38.4152279,13.875 37.9346635,14.3211661 37.8801499,14.891655 L37.875,15 L37.875,18 L34.125,18 L34.125,15 C34.125,12.366142 36.2137472,10.2201371 38.8251494,10.1280773 L39,10.125 L57,10.125 Z" id="Shape" fill="#9E9E9E" fill-rule="nonzero"></path>
        </g>
        <g id="Group" transform="translate(464.000000, 32.000000)">
            <path d="M26.3001143,40.5562804 L21.285665,20.4984831 L89.01489,48.0134808 L21.2915945,75.102799 L26.1896828,55.5104459 C26.6565258,53.6430736 28.1759251,52.2313874 30.0589886,51.8942647 L30.2484816,51.8641572 L39.699169,50.5515618 C39.9432737,50.5176583 40.125,50.3089479 40.125,50.0625 C40.125,49.97374 40.0633249,49.8993849 39.980492,49.879952 L39.9375,49.875 L30,49.875 L30,46.125 L39.9375,46.125 C42.1121212,46.125 43.875,47.8878788 43.875,50.0625 C43.875,52.1218418 42.398659,53.8746055 40.3886241,54.2381723 L40.2150504,54.2659078 L30.764363,55.5785032 C30.3446981,55.63679 29.9965664,55.9250224 29.8579315,56.3192587 L29.8277171,56.4199545 L26.70825,68.8965 L78.984,47.98575 L26.71425,26.751 L29.9381487,39.6467718 C30.039035,40.0503168 30.3532162,40.3623506 30.7509462,40.463894 L30.8520442,40.4848258 L66.295858,46.148489 L65.704142,49.851511 L30.2603283,44.1878478 C28.396343,43.8899966 26.8780202,42.5447232 26.3510642,40.7441467 L26.3001143,40.5562804 Z" id="Path-36" fill="#9E9E9E" fill-rule="nonzero"></path>
            <rect id="frame" stroke-opacity="0" stroke="#979797" stroke-width="0.75" x="0" y="0" width="96" height="96"></rect>
        </g>
        <g id="Group" transform="translate(208.000000, 32.000000)">
            <rect id="Rectangle" stroke-opacity="0.01" stroke="#979797" stroke-width="0.5" x="0" y="0" width="96" height="96"></rect>
            <path d="M31.7015028,74.0223988 L34.2984972,76.7276012 L24.9234972,85.7276012 L22.3265028,83.0223988 L31.7015028,74.0223988 Z M25.6910622,67.6574997 L28.3089378,70.3425003 L13.3089378,84.9675003 L10.6910622,82.2824997 L25.6910622,67.6574997 Z M74.0956964,18.5696436 L74.5294522,18.5712017 L76.4004794,18.5879987 L76.3875756,20.4590568 C76.2963055,33.6932168 69.8919664,46.1605726 59.1705123,54.026198 L58.5576356,54.4688855 L52.7862528,58.6098936 L54.1681192,58.8624638 C53.0988633,64.7166402 50.3460755,70.1172876 46.2594838,74.3881374 L45.9425057,74.7144246 L38.6141889,82.1445235 L38.8952879,72.7394201 L42.5166488,72.8472084 L43.2726316,72.081124 C46.4067729,68.9034529 48.6814263,64.9776757 49.8992272,60.682799 L39.6499341,68.0379419 L37.4635152,64.9912926 L56.6251153,51.2400265 C66.0174847,44.4996203 71.8549913,33.917859 72.5652798,22.525515 L72.5748701,22.3546653 L72.4194018,22.3614835 C61.3866147,22.8905668 51.0757742,28.4034384 44.4424695,37.399288 L44.1954502,37.7382621 L38.5902528,45.5208936 L38.988568,47.6402524 C38.2051623,47.7873425 37.4313819,47.9701023 36.6694316,48.1873589 L34.6281309,51.0234265 L32.7383284,49.6627428 C30.1326468,50.8904519 27.7371781,52.5510471 25.6595167,54.5872848 L25.3486692,54.8971479 L24.4801634,55.77708 L29.0682528,55.7771436 L29.7699543,55.0761964 L30.4707528,55.7771436 L30.8943026,55.7775401 L36.5013015,61.462414 L33.8314273,64.0957145 L32.3570028,62.6006436 L32.1746016,62.7841446 L28.9175028,59.5263936 L15.5146049,59.5275401 L22.678795,52.2638473 C25.9593807,48.9376979 29.9660911,46.4489914 34.3603434,44.9778655 L41.1524138,35.5468175 C48.8090758,24.9147888 61.0908942,18.5929659 74.0956964,18.5696436 Z M19.7015028,62.0223988 L22.2984972,64.7276012 L12.9234972,73.7276012 L10.3265028,71.0223988 L19.7015028,62.0223988 Z M63.3596726,32.1257543 C65.4328239,34.2276994 65.4751332,37.5988288 63.4866003,39.7525774 L63.3596726,39.885579 L60.6897985,37.2522785 C61.3659727,36.5667129 61.3659727,35.4446204 60.6897985,34.7590549 C60.0278085,34.0878706 58.9653648,34.0878706 58.3033748,34.7590549 C57.6553745,35.4160551 57.6283745,36.4739631 58.2223748,37.1643723 L58.3033748,37.2522785 L55.6335006,39.885579 C53.5171587,37.7398434 53.5171587,34.2714899 55.6335006,32.1257543 C57.7640269,29.9656374 61.2291464,29.9656374 63.3596726,32.1257543 Z" id="Shape" fill="#9E9E9E" fill-rule="nonzero"></path>
        </g>
        <g id="Group" transform="translate(592.000000, 32.000000)">
            <path d="M49.875,60 L49.875,84 L46.125,84 L46.125,60 L49.875,60 Z M48,22.125 C54.6522118,22.125 60.9118344,24.6485998 65.6674361,29.0954349 L65.9509585,29.3645481 L63.349081,32.0650542 C59.2521899,28.1177909 53.8050168,25.875 48,25.875 C37.8900907,25.875 29.148718,32.7133339 26.6085109,42.3286857 L26.5319303,42.6269487 L26.2299557,43.8379573 L24.9962226,44.0267245 C18.6357356,44.9999102 13.875,50.4968948 13.875,57 C13.875,64.1663653 19.61847,69.9912713 26.7534223,70.1227302 L27,70.125 L27,73.875 C17.6801948,73.875 10.125,66.3198052 10.125,57 C10.125,49.1025655 15.5834323,42.361239 23.0847765,40.5816313 L23.214,40.551 L23.2708816,40.3637161 C26.5372467,29.7585793 36.3253107,22.2820539 47.6421246,22.1274437 L48,22.125 Z M42,70.125 L42,73.875 L27,73.875 L27,70.125 L42,70.125 Z M66,34.125 C76.9766594,34.125 85.875,43.0233406 85.875,54 C85.875,64.8668928 77.1537364,73.6968254 66.3286695,73.8723373 L66,73.875 L54,73.875 L54,70.125 L66,70.125 C74.9055916,70.125 82.125,62.9055916 82.125,54 C82.125,45.0944084 74.9055916,37.875 66,37.875 C64.3277416,37.875 62.6922492,38.1289884 61.1331623,38.6219205 L60.7450053,38.7501228 L59.5235211,35.204636 C61.5901483,34.4926456 63.7713091,34.125 66,34.125 Z M50.0980476,47.7743584 L50.184132,47.8959937 L61.5600943,64.9599371 L58.4399057,67.0400629 L47.99925,51.38025 L37.5600943,67.0400629 L34.4399057,64.9599371 L45.815868,47.8959937 C46.0081095,47.6076315 46.2555497,47.3601912 46.543912,47.1679497 C47.7085795,46.3915047 49.2680616,46.6685949 50.0980476,47.7743584 Z" id="Shape" fill="#9E9E9E" fill-rule="nonzero"></path>
            <rect id="Rectangle" x="0" y="0" width="96" height="96"></rect>
        </g>
        <g id="Group" transform="translate(208.000000, 160.000000)">
            <path d="M61.875,25.5 L43.125,25.5 L43.125,19.5 C43.125,16.8076118 45.3076118,14.625 48,14.625 C50.633858,14.625 52.7798629,16.7137472 52.8719227,19.3251494 L52.875,19.5 L49.125,19.5 C49.125,18.8786797 48.6213203,18.375 48,18.375 C47.4152279,18.375 46.9346635,18.8211661 46.8801499,19.391655 L46.875,19.5 L46.875,21.75 L58.125,21.75 L58.125,18 L58.1217246,17.8340946 C58.0368869,15.6892776 56.3144006,13.9654369 54.170138,13.878445 L54,13.875 L42,13.875 L41.8340946,13.8782754 C39.6892776,13.9631131 37.9654369,15.6855994 37.878445,17.829862 L37.875,18 L37.875,21.75 L39,21.75 L39,25.5 L34.125,25.5 L34.125,19.875 L23.25,19.875 C21.8485774,19.875 20.7036552,20.9732082 20.6288841,22.3559736 L20.625,22.5 L20.625,79.5 C20.625,80.9014226 21.7232082,82.0463448 23.1059736,82.1211159 L23.25,82.125 L73.5,82.125 C74.9014226,82.125 76.0463448,81.0267918 76.1211159,79.6440264 L76.125,79.5 L76.125,42 L79.875,42 L79.875,79.5 C79.875,82.9568005 77.1236603,85.7709911 73.6913702,85.8721826 L73.5,85.875 L23.25,85.875 C19.7931995,85.875 16.9790089,83.1236603 16.8778174,79.6913702 L16.875,79.5 L16.875,22.5 C16.875,19.0431995 19.6263397,16.2290089 23.0586298,16.1278174 L23.25,16.125 L34.3495057,16.1253219 C35.1737405,12.7500346 38.173428,10.2276013 41.778536,10.128054 L42,10.125 L54,10.125 L54.2132213,10.1278307 C57.8219991,10.2237574 60.8256314,12.7474625 61.6504943,16.1253219 L73.5,16.125 C76.9568005,16.125 79.7709911,18.8763397 79.8721826,22.3086298 L79.875,22.5 L79.875,24.375 L76.125,24.375 L76.125,22.5 C76.125,21.0985774 75.0267918,19.9536552 73.6440264,19.8788841 L73.5,19.875 L61.875,19.875 L61.875,25.5 Z M76.6741748,28.6741748 L79.3258252,31.3258252 L48,62.6516504 L34.6741748,49.3258252 L37.3258252,46.6741748 L48,57.34875 L76.6741748,28.6741748 Z" id="Shape" fill="#9E9E9E" fill-rule="nonzero"></path>
            <rect id="Rectangle" x="0" y="0" width="96" height="96"></rect>
        </g>
        <g id="Group" transform="translate(336.000000, 160.000000)">
            <path d="M42,82.125 L42,85.875 L30,85.875 L30,82.125 L42,82.125 Z M25.875,48 C25.875,60.2193001 35.7806999,70.125 48,70.125 C60.0971071,70.125 69.9266546,60.4164235 70.1220359,48.3658773 L70.125,48 L73.875,48 C73.875,61.6596558 63.2903882,72.847143 49.8755612,73.8080648 L49.875,82.125 L66,82.125 L66,85.875 L46.125,85.875 L46.1249781,73.8081035 C32.8502387,72.8574929 22.3467795,61.8927999 22.1284665,48.4278904 L22.125,48 L25.875,48 Z M48,10.125 C58.8668928,10.125 67.6968254,18.8462636 67.8723373,29.6713305 L67.875,30 L67.875,31.875 L57,31.875 C56.3786797,31.875 55.875,32.3786797 55.875,33 C55.875,33.5847721 56.3211661,34.0653365 56.891655,34.1198501 L57,34.125 L66,34.125 L66,37.875 L57,37.875 C54.3076118,37.875 52.125,35.6923882 52.125,33 C52.125,30.366142 54.2137472,28.2201371 56.8251494,28.1280773 L57,28.125 L64.017,28.125 L63.9892204,27.8978657 C62.9703,20.0715112 56.3395526,14.00805 48.2666564,13.8771603 L48,13.875 C39.1834643,13.875 32.0195568,20.9507422 31.8771603,29.7333436 L31.875,30 L31.875,48 C31.875,56.9055916 39.0944084,64.125 48,64.125 C56.1931443,64.125 62.9591031,58.0144927 63.9892204,50.1021343 L64.017,49.875 L57,49.875 C54.366142,49.875 52.2201371,47.7862528 52.1280773,45.1748506 L52.125,45 C52.125,42.366142 54.2137472,40.2201371 56.8251494,40.1280773 L57,40.125 L66,40.125 L66,43.875 L57,43.875 C56.3786797,43.875 55.875,44.3786797 55.875,45 C55.875,45.5847721 56.3211661,46.0653365 56.891655,46.1198501 L57,46.125 L67.875,46.125 L67.875,48 C67.875,58.9766594 58.9766594,67.875 48,67.875 C37.1331072,67.875 28.3031746,59.1537364 28.1276627,48.3286695 L28.125,48 L28.125,30 C28.125,19.0233406 37.0233406,10.125 48,10.125 Z" id="Shape" fill="#9E9E9E" fill-rule="nonzero"></path>
            <rect id="Rectangle" x="0" y="0" width="96" height="96"></rect>
        </g>
        <g id="Group" transform="translate(464.000000, 160.000000)">
            <path d="M66.1941626,15.8170996 L66.1941626,19.5670996 L62.0682772,19.5671616 L62.0682772,25.5376177 L71.7965113,35.2266827 L60.9220847,46.1011093 L52.4358919,37.6158854 L50.8449016,39.2068756 L59.3310944,47.6920996 L21.6776583,85.3455357 L10.5407265,74.2086039 L42.3605317,42.3887987 L45.0121821,45.0404491 L15.8431159,74.2086613 L21.6767469,80.0422923 L54.0268821,47.692157 L45.5425122,39.2068182 L52.4368033,32.3125271 L60.9211732,40.7978659 L66.4869875,35.2320516 L58.3191626,27.0959522 L58.3191626,15.8170996 L66.1941626,15.8170996 Z M84,46.125 L84,49.875 L79.875,49.875 L79.875,54 L76.125,54 L76.125,46.125 L84,46.125 Z M75,46.125 L75,49.875 L72,49.875 L72,46.125 L75,46.125 Z M79.875,42 L79.875,45 L76.125,45 L76.125,42 L79.875,42 Z M84,22.125 L84,25.875 L79.875,25.875 L79.875,30 L76.125,30 L76.125,22.125 L84,22.125 Z M75,22.125 L75,25.875 L72,25.875 L72,22.125 L75,22.125 Z M79.875,18 L79.875,21 L76.125,21 L76.125,18 L79.875,18 Z M57,16.125 L57,19.875 L54,19.875 L54,16.125 L57,16.125 Z M61.875,12 L61.875,15 L58.125,15 L58.125,12 L61.875,12 Z" id="Shape" fill="#9E9E9E" fill-rule="nonzero"></path>
            <rect id="Rectangle" x="0" y="0" width="96" height="96"></rect>
        </g>
        <g id="Group" transform="translate(592.000000, 160.000000)">
            <path d="M47.625,16.125 C56.445778,16.125 63.375,25.114261 63.375,36 C63.375,42.5986722 60.8288631,48.5004852 56.858673,52.1256007 L60,52.125 C67.5787427,52.125 73.7382962,58.2012707 73.8727558,65.7479072 L73.875,66 L73.875,78.375 L70.125,78.375 L70.125,66 C70.125,60.485782 65.7169286,56.0011242 60.2323731,55.877614 L60,55.875 L48,55.875 L47.9446256,55.8717362 L47.9446256,55.8717362 L47.625,55.875 L47.625,52.125 C54.1301238,52.125 59.625,44.996512 59.625,36 C59.625,27.003488 54.1301238,19.875 47.625,19.875 C41.1198762,19.875 35.625,27.003488 35.625,36 C35.625,42.3469259 38.3982169,47.9741354 42.5496323,50.6012488 L42.7693929,50.7367355 L40.8391676,53.9518141 C35.3719553,50.6694835 31.875,43.7117048 31.875,36 C31.875,25.114261 38.804222,16.125 47.625,16.125 Z M36.7766504,52.125 L48,63.34875 L52.6741748,58.6741748 L55.3258252,61.3258252 L48,68.6516504 L35.2515,55.90275 L35.0784186,55.9163776 C29.9943106,56.3751008 25.9941658,60.5920605 25.877614,65.7676269 L25.875,66 L25.875,78 L22.125,78 L22.125,66 C22.125,58.4212573 28.2012707,52.2617038 35.7479072,52.1272442 L36,52.125 L36.7766504,52.125 Z" id="Shape" fill="#9E9E9E" fill-rule="nonzero"></path>
            <rect id="Rectangle" x="0" y="0" width="96" height="96"></rect>
        </g>
        <g id="Group" transform="translate(720.000000, 32.000000)">
            <path d="M78,40.125 C82.020074,40.125 85.875,43.5173348 85.875,48 C85.875,50.8446709 85.0683181,52.6967791 83.2524193,54.8865065 L82.9779313,55.2105991 L81.8137375,56.5544731 L81.6429945,56.756019 L81.4500568,56.9692394 L81.0774491,57.3586381 L80.7141824,57.7269872 L79.9620975,58.4737554 L78.1381737,60.2460126 L76.009566,62.2832852 L72.9256782,65.2058819 L69.96451,67.9928674 L63.8813504,73.6808329 L59.7756519,77.4991679 L59.6987271,77.4164118 C58.3050717,78.870135 56.3568004,79.7863925 54.1975051,79.8269113 L53.9855351,79.8280692 L11.985352,79.4999428 L11.7674349,75.764479 C14.8186795,75.3830734 16.0638693,74.2761747 16.1227951,72.1605664 L16.125,72 L19.875,72 C19.875,73.4520152 19.5561365,74.7103168 18.944478,75.7629929 L18.9195,75.804 L54.0148311,76.0781836 C56.2122133,76.0953507 58.0173262,74.3714426 58.1204755,72.2094586 L58.125,72.0465088 L58.125,72 C58.125,69.7644432 56.3659622,67.9370834 54.1523853,67.8326506 L53.9855351,67.8280692 L7.45844592,67.4645763 L16.375787,58.6865687 L19.0064767,61.3590154 L16.5405,63.78525 L54.0148311,64.0781836 C57.8699,64.1083014 61.0641708,66.8882471 61.7422021,70.5480269 L68.4475928,64.2712659 L73.4412174,59.5515602 L76.0361097,57.0677637 L77.4497131,55.6924172 L78.1906306,54.9547672 L78.626252,54.5042027 L78.7816709,54.3325279 L79.6828214,53.2849802 L80.1999186,52.6900274 C81.6265855,51.0160716 82.125,49.9323395 82.125,48 C82.125,45.7586977 80.1481841,43.9644338 78.1498824,43.878242 L78,43.875 L78,40.125 Z M78,16.125 C82.020074,16.125 85.875,19.5173348 85.875,24 C85.875,26.8446709 85.0683181,28.6967791 83.2524193,30.8865065 L82.9779313,31.2105991 L81.8137375,32.5544731 L81.6037969,32.8021517 L81.3268812,33.110407 L80.9634886,33.4956712 L80.4128581,34.0600571 L79.6118671,34.8598851 L78.4863424,35.9614014 L76.5707016,37.8045675 L73.9915604,40.2525877 L69.4560278,44.5095095 L64.5873911,49.0420459 L62.0360874,46.2937102 L66.2162272,42.4035807 L70.561551,38.3317931 L73.6330465,35.4242704 L75.7178924,33.4240694 L76.6988041,32.4687326 L77.4008633,31.774649 L78.1368384,31.0292988 L78.5380898,30.6060204 L78.7335351,30.3887545 L79.2867033,29.7417805 L80.1999186,28.6900274 C81.6265855,27.0160716 82.125,25.9323395 82.125,24 C82.125,21.7586977 80.1481841,19.9644338 78.1498824,19.878242 L78,19.875 L36.76725,19.875 L16.5405,39.78525 L54.0148311,40.0781836 C58.2944532,40.1116182 61.7597174,43.5339007 61.8721825,47.7866808 L61.8747611,48.0611568 C61.8415389,52.3136059 58.4237256,55.7476059 54.1975077,55.8269113 L53.9855351,55.8280692 L11.985352,55.4999428 L11.7674349,51.764479 C14.8186795,51.3830734 16.0638693,50.2761747 16.1227951,48.1605664 L16.125,48 L19.875,48 C19.875,49.4520152 19.5561365,50.7103168 18.944478,51.7629929 L18.9195,51.804 L54.0148311,52.0781836 C56.2122151,52.0953507 58.0172717,50.371462 58.1203559,48.1958579 L58.125,48 C58.125,45.7644432 56.3659622,43.9370834 54.1523853,43.8326506 L53.9855351,43.8280692 L7.45844592,43.4645763 L35.2319838,16.125 L78,16.125 Z" id="Shape" fill="#9E9E9E" fill-rule="nonzero"></path>
            <rect id="Rectangle" x="0" y="0" width="96" height="96"></rect>
        </g>
        <g id="Group" transform="translate(720.000000, 160.000000)">
            <path d="M67.875,34.125 L67.875,36 C67.875,38.2226094 69.632835,40.0346544 71.8340946,40.1217246 L72,40.125 L73.875,40.125 L73.875,47.625 L70.125,47.625 L70.125,43.65 L69.9393258,43.6026464 C67.2463483,42.8744838 65.1255162,40.7536517 64.3973536,38.0606742 L64.34925,37.875 L6.375,37.875 L6.375,58.125 L64.34925,58.125 L64.3973536,57.9393258 C65.2853568,54.6552068 68.2445519,52.2219884 71.7867787,52.1278307 L72,52.125 L76.125,52.125 L76.125,40.125 L85.0392143,40.125 L94.8829643,55.875 L84,55.875 L84,52.125 L88.1175,52.125 L82.96125,43.875 L79.875,43.875 L79.875,55.875 L72,55.875 C69.7773906,55.875 67.9653456,57.632835 67.8782754,59.8340946 L67.875,60 L67.875,61.875 L2.625,61.875 L2.625,34.125 L67.875,34.125 Z" id="Path-5" fill="#9E9E9E" fill-rule="nonzero" transform="translate(48.753982, 48.000000) rotate(135.000000) translate(-48.753982, -48.000000) "></path>
            <rect id="Rectangle" x="0" y="0" width="96" height="96"></rect>
        </g>
    </g>
</svg>