<?xml version="1.0" encoding="UTF-8"?>
<svg width="1024px" height="384px" viewBox="0 0 1024 384" version="1.1" xmlns="http://www.w3.org/2000/svg" xmlns:xlink="http://www.w3.org/1999/xlink">
    <title>banner-light</title>
    <g id="banner-light" stroke="none" stroke-width="1" fill="none" fill-rule="evenodd">
        <path d="M266.665936,208.670138 L269.149118,216.274992 L268.30924,216.547178 L266.602841,217.087322 L265.290157,217.491124 L263.499282,218.026317 L262.111497,218.429564 L260.673324,218.838049 L259.17384,219.255057 L257.060281,219.830003 L254.198316,220.590068 L251.044697,221.410311 L243.27428,223.401996 L240.54052,224.114817 L237.942256,224.804446 L235.473273,225.473537 L233.127356,226.124747 L230.898292,226.76073 L229.825637,227.073841 L228.266817,227.538341 L226.765862,227.997637 L225.320148,228.452848 L224.385735,228.754606 L223.473932,229.055379 L222.583963,229.355498 L221.71505,229.655295 L220.866417,229.955103 L220.037287,230.255252 L219.226883,230.556076 L218.434428,230.857906 L216.900261,231.46591 L216.900261,231.46591 L216.156994,231.772749 L215.428569,232.081922 L214.714209,232.393759 L214.013138,232.708595 L213.324579,233.026759 L212.647755,233.348585 L211.652823,233.838914 L211.652823,233.838914 L211.001938,234.171344 L210.360069,234.508597 L209.726439,234.851005 L209.100272,235.1989 L208.480791,235.552613 L207.867218,235.912477 L207.258778,236.278823 L206.654693,236.651983 L206.054187,237.032289 L205.456483,237.420073 L205.158438,237.616873 C193.746448,245.19579 188,255.70244 188,271.5 C188,295.800529 207.699471,315.5 232,315.5 C256.057524,315.5 275.60555,296.192548 275.994105,272.22762 L276,271.5 L284,271.5 C284,300.218807 260.718807,323.5 232,323.5 C203.281193,323.5 180,300.218807 180,271.5 C180,253.203166 186.951352,240.290202 200.280875,231.255711 L201.060771,230.73587 L202.046467,230.098986 L202.705594,229.685151 L203.367261,229.279504 L204.032278,228.881689 L205.037855,228.298868 L205.037855,228.298868 L205.714788,227.919069 L206.397904,227.545852 L207.088013,227.178862 L207.785924,226.81774 L208.492445,226.462132 L209.208388,226.111679 L210.301736,225.594886 L210.301736,225.594886 L211.044772,225.255762 L211.800061,224.920545 L212.568413,224.588879 L213.350638,224.260407 L214.147545,223.934772 L214.959943,223.611618 L215.788642,223.290588 L216.634451,222.971325 L217.49818,222.653473 L218.380638,222.336674 L219.282635,222.020573 L220.204979,221.704812 L222.113949,221.072885 L222.113949,221.072885 L223.60511,220.597181 L224.629036,220.278538 L226.211678,219.797422 L227.852851,219.311455 L230.136853,218.653871 L231.925222,218.151901 L234.415401,217.468611 L237.032299,216.766708 L240.491485,215.858808 L249.674294,213.501693 L252.711116,212.709021 L254.935102,212.117138 L257.003882,211.554597 L258.468847,211.147384 L259.871437,210.749206 L260.77712,210.487195 L262.532225,209.967161 L264.23342,209.446124 L265.047132,209.190641 L265.857006,208.932268 L266.665936,208.670138 Z M232,106.5 C244.709957,106.5 256.717747,111.082115 266.10518,119.245523 L266.580239,119.663693 L261.258305,125.636717 C253.254171,118.505075 242.943715,114.5 232,114.5 C207.699471,114.5 188,134.199471 188,158.5 C188,182.800529 207.699471,202.5 232,202.5 C256.057524,202.5 275.60555,183.192548 275.994105,159.22762 L276,158.5 L276,111 L284,111 L284,271 L276,271 L276.001951,186.222398 C266.791771,200.810455 250.527443,210.5 232,210.5 C203.281193,210.5 180,187.218807 180,158.5 C180,129.781193 203.281193,106.5 232,106.5 Z M620,61 L619.999313,130.775601 C629.209716,116.188659 645.473404,106.5 664,106.5 C692.431619,106.5 715.533832,129.317897 715.993033,157.640085 L716,158.5 L716,191 C716,197.627417 721.372583,203 728,203 C734.525457,203 739.834393,197.791456 739.9962,191.304975 L740,191 L740,111 L748,111 L748,191 C748,197.627415 753.37258,203 760,203 C768.951471,203 779.657863,200.263859 790.420462,195.2826 C802.452942,189.713602 813.746274,181.716763 822.039236,172.78769 C830.897987,163.249429 835.831061,153.244788 835.995739,143.97862 L836,143.5 C836,128.036027 823.463973,115.5 808,115.5 C792.690667,115.5 780.251013,127.78656 780.003751,143.036969 L780.002,143.208 L780.004341,143.442323 C780.108637,148.737885 782.096338,153.59814 786.404937,158.904104 L786.9268,159.53548 C787.459596,160.169055 788.025276,160.809388 788.624569,161.457949 L789.235093,162.109306 C789.338724,162.218341 789.443295,162.327618 789.548809,162.437144 L790.19325,163.097341 L791.030903,163.931486 L791.030903,163.931486 L791.904519,164.776115 L793.000776,165.804406 L793.000776,165.804406 L793.760908,166.499374 L794.544665,167.202276 L795.764951,168.272219 L795.764951,168.272219 L796.608479,168.996385 L797.476199,169.729627 L798.368274,170.472272 L799.284865,171.224647 L800.226134,171.987078 L801.684665,173.150294 L802.688341,173.939294 L803.717262,174.739494 L804.771592,175.551218 L805.857011,176.378985 L801.019699,182.750831 L799.822302,181.838284 L798.664347,180.948403 L796.998694,179.653265 L795.933991,178.814415 L794.904447,177.993723 L793.908837,177.189899 L792.945937,176.401657 L792.014523,175.627706 L790.892666,174.678404 L790.892666,174.678404 L789.815702,173.746904 L789.39695,173.378725 L789.39695,173.378725 L788.579236,172.64906 C788.31096,172.407219 788.046911,172.166685 787.786886,171.927246 L787.018676,171.211993 L786.273382,170.502014 L785.549779,169.796021 C784.836615,169.09159 784.154151,168.391205 783.49688,167.689067 L782.847801,166.986131 L782.214294,166.280738 L781.902996,165.926717 L781.290549,165.215223 C775.354261,158.219694 772.138799,151.143349 772.004394,143.500296 L772,143.5 L772.002,143.228 L772,143 L772.003,143 L772.004823,142.904674 C772.322731,123.297006 788.316572,107.5 808,107.5 C827.683428,107.5 843.677269,123.297006 844,142.904674 L844,143.5 C844,155.180053 838.17265,167.172391 827.901034,178.231891 C818.877234,187.947861 806.72999,196.549356 793.780659,202.542702 C782.032988,207.979882 770.215407,211 760,211 C753.4576,211 747.648907,207.858624 743.999993,203.001942 C740.351428,207.858442 734.542589,211 728,211 C717.069364,211 708.186775,202.231271 708.002907,191.344489 L708,191 L708,158.5 C708,134.199471 688.300529,114.5 664,114.5 C639.942476,114.5 620.39445,133.807452 620.005895,157.77238 L620,158.5 L620,207 L612,207 L612.000993,186.993988 C603.091424,200.968124 587.588153,210.33348 569.862481,210.699192 L569.018325,210.709779 L504.017857,210.99996 L503.939401,203.000459 L537,202.5 C561.522644,202.5 581,183.583222 581,159.5 C581,135.199471 561.300529,115.5 537,115.5 C512.942476,115.5 493.39445,134.807452 493.005895,158.77238 L493,159.5 L492,159.5 L492,159.563 L492.999114,159.584192 L492.335922,191.085784 C492.312442,192.201126 492.198466,193.293409 492.001139,194.355746 L492,270.5 L484,270.5 L484.000631,206.959268 C480.612563,209.405884 476.435406,210.819791 471.937508,210.749512 C460.99273,210.5785 452.187111,201.74944 452.002943,190.846703 L452,190.498047 L452.001951,186.222398 C442.791771,200.810455 426.527443,210.5 408,210.5 C379.281193,210.5 356,187.218807 356,158.5 C356,140.110229 365.566426,124.101223 380.0404,114.999057 L360,115 C335.833934,115 316.392279,133.923697 316.005862,157.775717 L316,158.378 L316,206.5 L308,206.5 L308.000992,190.15073 C304.985201,194.944155 301.131992,199.13066 296.467516,202.775878 L296.027414,203.116364 L291.162992,196.765191 C302.153101,188.347766 307.859897,176.658192 307.997452,159.633006 L308,158.378 L308,110.5 L316,110.5 L315.999992,130.923125 C325.053524,116.724006 340.93142,107.295945 359.137618,107.006842 L360,107 L440,107 L440,115 L408,115 C383.589832,115 364,134.307925 364,158.5 C364,182.800529 383.699471,202.5 408,202.5 C432.057524,202.5 451.60555,183.192548 451.994105,159.22762 L452,158.5 L452,110.5 L460,110.5 L460,190.498047 C460,197.191063 465.370293,202.645923 472.062492,202.750488 C477.818339,202.840423 482.70137,198.891529 484.001387,193.51639 L484,110 L492,110 L492.000206,133.424891 C501.001892,117.923485 517.783678,107.5 537,107.5 C565.718807,107.5 589,130.781193 589,159.5 C589,177.774961 579.533933,193.547572 565.161045,202.535297 L564.847,202.728 L568.982611,202.709859 C592.533572,202.604721 611.614973,183.673457 611.994246,160.212315 L612,159.5 L612,61 L620,61 Z M821.311719,188.179069 C821.674299,188.471083 822.032478,188.761884 822.386257,189.051533 L823.434404,189.917082 C824.124376,190.49189 824.79677,191.062328 825.451619,191.628877 L826.420737,192.475844 C827.058048,193.038624 827.677831,193.597755 828.280116,194.153717 L829.170426,194.985344 C838.965774,204.246651 843.856804,212.686362 843.996901,222.562122 L844,223 C844,242.958729 827.80824,259.5 808,259.5 C788.389842,259.5 772.324197,243.2879 772.004845,223.597724 L772,223 L780,223 C780,238.578239 792.648729,251.5 808,251.5 C823.197758,251.5 835.746755,238.835382 835.996215,223.46654 L836,223 C836,215.637964 832.097323,208.813979 823.766137,200.892986 L822.932376,200.110277 C822.084296,199.323914 821.193205,198.52642 820.258601,197.716237 L819.309475,196.901768 L818.331229,196.078494 L817.831152,195.663447 L817.831152,195.663447 L816.809018,194.826319 L816.293762,194.409648 L821.311719,188.179069 Z M744,67.5 C750.627417,67.5 756,72.872583 756,79.5 C756,86.0254567 750.791456,91.3343928 744.304975,91.4962001 L744,91.5 L744,83.5 C746.209139,83.5 748,81.709139 748,79.5 C748,77.290861 746.209139,75.5 744,75.5 C741.857805,75.5 740.108921,77.1839685 740.004895,79.3003597 L740,79.5 L732,79.5 C732,72.872583 737.372583,67.5 744,67.5 Z" id="Shape" fill="#000000" fill-rule="nonzero"></path>
    </g>
</svg>