<?xml version="1.0" encoding="UTF-8"?>
<svg width="918px" height="600px" viewBox="0 0 918 600" version="1.1" xmlns="http://www.w3.org/2000/svg" xmlns:xlink="http://www.w3.org/1999/xlink">
    <title>boundaries-variations</title>
    <g id="boundaries-variations" stroke="none" stroke-width="1" fill="none" fill-rule="evenodd">
        <g id="circle-big" transform="translate(6.000000, 0.000000)">
            <g id="Group" opacity="0.50125558" stroke="#979797" stroke-width="2">
                <g id="grid">
                    <rect id="Rectangle" opacity="0.25" x="33" y="33" width="192" height="192"></rect>
                    <circle id="Oval" opacity="0.75" cx="129" cy="129" r="96"></circle>
                    <circle id="Oval-Copy-2" opacity="0.25" cx="129" cy="129" r="64"></circle>
                    <circle id="Oval-Copy" opacity="0.25" cx="129" cy="129" r="116"></circle>
                    <line x1="1" y1="129" x2="257" y2="129" id="Line" stroke-linecap="square"></line>
                    <line x1="1" y1="97" x2="257" y2="97" id="Line-Copy" opacity="0.25" stroke-linecap="square"></line>
                    <line x1="257" y1="113" x2="1" y2="113" id="Line-13" opacity="0.1" stroke-linecap="square"></line>
                    <line x1="257" y1="81" x2="1" y2="81" id="Line-13-Copy-2" opacity="0.1" stroke-linecap="square"></line>
                    <line x1="257" y1="49" x2="1" y2="49" id="Line-13-Copy-3" opacity="0.1" stroke-linecap="square"></line>
                    <line x1="257" y1="145" x2="1" y2="145" id="Line-13-Copy" opacity="0.1" stroke-linecap="square"></line>
                    <line x1="257" y1="177" x2="1" y2="177" id="Line-13-Copy-4" opacity="0.1" stroke-linecap="square"></line>
                    <line x1="257" y1="209" x2="1" y2="209" id="Line-13-Copy-5" opacity="0.1" stroke-linecap="square"></line>
                    <line x1="1" y1="65" x2="257" y2="65" id="Line-Copy-4" opacity="0.25" stroke-linecap="square"></line>
                    <line x1="1" y1="161" x2="257" y2="161" id="Line-Copy-2" opacity="0.25" stroke-linecap="square"></line>
                    <line x1="1" y1="193" x2="257" y2="193" id="Line-Copy-3" opacity="0.25" stroke-linecap="square"></line>
                    <line x1="129" y1="1" x2="129" y2="257" id="Line-2" stroke-linecap="square"></line>
                    <line x1="161" y1="1" x2="161" y2="257" id="Line-2-Copy" opacity="0.25" stroke-linecap="square"></line>
                    <line x1="97" y1="1" x2="97" y2="257" id="Line-2-Copy-3" opacity="0.25" stroke-linecap="square"></line>
                    <line x1="65" y1="1" x2="65" y2="257" id="Line-2-Copy-4" opacity="0.25" stroke-linecap="square"></line>
                    <line x1="193" y1="1" x2="193" y2="257" id="Line-2-Copy-2" opacity="0.25" stroke-linecap="square"></line>
                    <line x1="33" y1="225" x2="225" y2="33" id="Line-3" opacity="0.75" stroke-linecap="square"></line>
                    <line x1="33" y1="33" x2="225" y2="225" id="Line-4" opacity="0.75" stroke-linecap="square"></line>
                    <line x1="97" y1="33" x2="225" y2="161" id="Line-5" opacity="0.25" stroke-linecap="square"></line>
                    <line x1="161" y1="33" x2="225" y2="97" id="Line-6" opacity="0.25" stroke-linecap="square"></line>
                    <line x1="33" y1="97" x2="161" y2="225" id="Line-7" opacity="0.25" stroke-linecap="square"></line>
                    <line x1="33" y1="161" x2="97" y2="225" id="Line-8" opacity="0.25" stroke-linecap="square"></line>
                    <line x1="97" y1="225" x2="225" y2="97" id="Line-9" opacity="0.25" stroke-linecap="square"></line>
                    <line x1="161" y1="225" x2="225" y2="161" id="Line-10" opacity="0.25" stroke-linecap="square"></line>
                    <line x1="33" y1="161" x2="161" y2="33" id="Line-11" opacity="0.25" stroke-linecap="square"></line>
                    <line x1="33" y1="97" x2="97" y2="33" id="Line-12" opacity="0.25" stroke-linecap="square"></line>
                    <line x1="113" y1="257" x2="113" y2="1" id="Line-14" opacity="0.1" stroke-linecap="square"></line>
                    <line x1="145" y1="257" x2="145" y2="1" id="Line-14-Copy-3" opacity="0.1" stroke-linecap="square"></line>
                    <line x1="177" y1="257" x2="177" y2="1" id="Line-14-Copy-4" opacity="0.1" stroke-linecap="square"></line>
                    <line x1="209" y1="257" x2="209" y2="1" id="Line-14-Copy-5" opacity="0.1" stroke-linecap="square"></line>
                    <line x1="81" y1="257" x2="81" y2="1" id="Line-14-Copy" opacity="0.1" stroke-linecap="square"></line>
                    <line x1="49" y1="257" x2="49" y2="1" id="Line-14-Copy-2" opacity="0.1" stroke-linecap="square"></line>
                </g>
            </g>
            <circle id="boundary" fill-opacity="0.25" fill="#FF375F" cx="129" cy="129" r="116"></circle>
            <circle id="maxline" stroke="#FF375F" stroke-width="2" cx="129" cy="129" r="108"></circle>
            <path d="M22,266 L22,258 L22,262 L97,262 M160.5,262 L236,262 L236,258 L236,266" id="Shape" stroke="#FF375F"></path>
            <path d="M115.34,266 L115.34,264.544 L113.198,264.544 L113.198,256.13 L111.91,256.13 L108.984,257.894 L109.698,259.21 L111.392,258.188 L111.392,264.544 L109.25,264.544 L109.25,266 L115.34,266 Z M120.408,266.126 C121.574667,266.126 122.466,265.692 123.082,264.824 C123.698,263.956 124.006,262.700667 124.006,261.058 C124.006,259.424667 123.698,258.178667 123.082,257.32 C122.466,256.461333 121.574667,256.032 120.408,256.032 C119.241333,256.032 118.35,256.461333 117.734,257.32 C117.118,258.178667 116.81,259.424667 116.81,261.058 C116.81,262.71 117.118,263.967667 117.734,264.831 C118.35,265.694333 119.241333,266.126 120.408,266.126 Z M120.408,264.712 C119.773333,264.712 119.311333,264.420333 119.022,263.837 C118.732667,263.253667 118.588,262.327333 118.588,261.058 C118.588,259.798 118.732667,258.881 119.022,258.307 C119.311333,257.733 119.773333,257.446 120.408,257.446 C121.042667,257.446 121.504667,257.733 121.794,258.307 C122.083333,258.881 122.228,259.798 122.228,261.058 C122.228,262.327333 122.083333,263.253667 121.794,263.837 C121.504667,264.420333 121.042667,264.712 120.408,264.712 Z M128.962,266.112 C130.119333,266.112 131.024667,265.867 131.678,265.377 C132.331333,264.887 132.658,264.208 132.658,263.34 C132.658,262.733333 132.501667,262.22 132.189,261.8 C131.876333,261.38 131.430667,261.090667 130.852,260.932 C131.337333,260.764 131.72,260.479333 132,260.078 C132.28,259.676667 132.42,259.205333 132.42,258.664 C132.42,257.842667 132.112,257.194 131.496,256.718 C130.88,256.242 130.035333,256.004 128.962,256.004 C127.888667,256.004 127.044,256.242 126.428,256.718 C125.812,257.194 125.504,257.842667 125.504,258.664 C125.504,259.196 125.644,259.660333 125.924,260.057 C126.204,260.453667 126.591333,260.745333 127.086,260.932 C126.507333,261.081333 126.059333,261.368333 125.742,261.793 C125.424667,262.217667 125.266,262.733333 125.266,263.34 C125.266,264.208 125.592667,264.887 126.246,265.377 C126.899333,265.867 127.804667,266.112 128.962,266.112 Z M128.962,260.302 C128.383333,260.302 127.947,260.178333 127.653,259.931 C127.359,259.683667 127.212,259.322 127.212,258.846 C127.212,257.894 127.795333,257.418 128.962,257.418 C130.128667,257.418 130.712,257.894 130.712,258.846 C130.712,259.322 130.565,259.683667 130.271,259.931 C129.977,260.178333 129.540667,260.302 128.962,260.302 Z M128.962,264.698 C127.627333,264.698 126.96,264.198667 126.96,263.2 C126.96,262.201333 127.627333,261.702 128.962,261.702 C130.296667,261.702 130.964,262.201333 130.964,263.2 C130.964,264.198667 130.296667,264.698 128.962,264.698 Z M135.976,268.52 L135.976,264.95 C136.181333,265.314 136.475333,265.598667 136.858,265.804 C137.240667,266.009333 137.674667,266.112 138.16,266.112 C138.757333,266.112 139.284667,265.967333 139.742,265.678 C140.199333,265.388667 140.556333,264.978 140.813,264.446 C141.069667,263.914 141.198,263.293333 141.198,262.584 C141.198,261.874667 141.069667,261.247 140.813,260.701 C140.556333,260.155 140.197,259.732667 139.735,259.434 C139.273,259.135333 138.748,258.986 138.16,258.986 C137.665333,258.986 137.224333,259.091 136.837,259.301 C136.449667,259.511 136.153333,259.807333 135.948,260.19 L135.948,260.19 L135.948,259.154 L134.226,259.154 L134.226,268.52 L135.976,268.52 Z M137.698,264.754 C137.138,264.754 136.706333,264.562667 136.403,264.18 C136.099667,263.797333 135.948,263.256 135.948,262.556 C135.948,261.846667 136.099667,261.300667 136.403,260.918 C136.706333,260.535333 137.138,260.344 137.698,260.344 C138.248667,260.344 138.678,260.54 138.986,260.932 C139.294,261.324 139.448,261.874667 139.448,262.584 C139.448,263.274667 139.294,263.809 138.986,264.187 C138.678,264.565 138.248667,264.754 137.698,264.754 Z M143.662,266 L145.468,263.718 L147.288,266 L149.36,266 L146.476,262.472 L149.192,259.154 L147.106,259.154 L145.468,261.24 L143.83,259.154 L141.744,259.154 L144.46,262.472 L141.59,266 L143.662,266 Z" id="108px" fill="#FF375F" fill-rule="nonzero"></path>
        </g>
        <g id="circle-small" transform="translate(328.000000, 0.000000)">
            <g id="Group" opacity="0.50125558" stroke="#979797" stroke-width="2">
                <g id="grid">
                    <rect id="Rectangle" opacity="0.25" x="33" y="33" width="192" height="192"></rect>
                    <circle id="Oval" opacity="0.75" cx="129" cy="129" r="96"></circle>
                    <circle id="Oval-Copy-2" opacity="0.25" cx="129" cy="129" r="64"></circle>
                    <circle id="Oval-Copy" opacity="0.25" cx="129" cy="129" r="116"></circle>
                    <line x1="1" y1="129" x2="257" y2="129" id="Line" stroke-linecap="square"></line>
                    <line x1="1" y1="97" x2="257" y2="97" id="Line-Copy" opacity="0.25" stroke-linecap="square"></line>
                    <line x1="257" y1="113" x2="1" y2="113" id="Line-13" opacity="0.1" stroke-linecap="square"></line>
                    <line x1="257" y1="81" x2="1" y2="81" id="Line-13-Copy-2" opacity="0.1" stroke-linecap="square"></line>
                    <line x1="257" y1="49" x2="1" y2="49" id="Line-13-Copy-3" opacity="0.1" stroke-linecap="square"></line>
                    <line x1="257" y1="145" x2="1" y2="145" id="Line-13-Copy" opacity="0.1" stroke-linecap="square"></line>
                    <line x1="257" y1="177" x2="1" y2="177" id="Line-13-Copy-4" opacity="0.1" stroke-linecap="square"></line>
                    <line x1="257" y1="209" x2="1" y2="209" id="Line-13-Copy-5" opacity="0.1" stroke-linecap="square"></line>
                    <line x1="1" y1="65" x2="257" y2="65" id="Line-Copy-4" opacity="0.25" stroke-linecap="square"></line>
                    <line x1="1" y1="161" x2="257" y2="161" id="Line-Copy-2" opacity="0.25" stroke-linecap="square"></line>
                    <line x1="1" y1="193" x2="257" y2="193" id="Line-Copy-3" opacity="0.25" stroke-linecap="square"></line>
                    <line x1="129" y1="1" x2="129" y2="257" id="Line-2" stroke-linecap="square"></line>
                    <line x1="161" y1="1" x2="161" y2="257" id="Line-2-Copy" opacity="0.25" stroke-linecap="square"></line>
                    <line x1="97" y1="1" x2="97" y2="257" id="Line-2-Copy-3" opacity="0.25" stroke-linecap="square"></line>
                    <line x1="65" y1="1" x2="65" y2="257" id="Line-2-Copy-4" opacity="0.25" stroke-linecap="square"></line>
                    <line x1="193" y1="1" x2="193" y2="257" id="Line-2-Copy-2" opacity="0.25" stroke-linecap="square"></line>
                    <line x1="33" y1="225" x2="225" y2="33" id="Line-3" opacity="0.75" stroke-linecap="square"></line>
                    <line x1="33" y1="33" x2="225" y2="225" id="Line-4" opacity="0.75" stroke-linecap="square"></line>
                    <line x1="97" y1="33" x2="225" y2="161" id="Line-5" opacity="0.25" stroke-linecap="square"></line>
                    <line x1="161" y1="33" x2="225" y2="97" id="Line-6" opacity="0.25" stroke-linecap="square"></line>
                    <line x1="33" y1="97" x2="161" y2="225" id="Line-7" opacity="0.25" stroke-linecap="square"></line>
                    <line x1="33" y1="161" x2="97" y2="225" id="Line-8" opacity="0.25" stroke-linecap="square"></line>
                    <line x1="97" y1="225" x2="225" y2="97" id="Line-9" opacity="0.25" stroke-linecap="square"></line>
                    <line x1="161" y1="225" x2="225" y2="161" id="Line-10" opacity="0.25" stroke-linecap="square"></line>
                    <line x1="33" y1="161" x2="161" y2="33" id="Line-11" opacity="0.25" stroke-linecap="square"></line>
                    <line x1="33" y1="97" x2="97" y2="33" id="Line-12" opacity="0.25" stroke-linecap="square"></line>
                    <line x1="113" y1="257" x2="113" y2="1" id="Line-14" opacity="0.1" stroke-linecap="square"></line>
                    <line x1="145" y1="257" x2="145" y2="1" id="Line-14-Copy-3" opacity="0.1" stroke-linecap="square"></line>
                    <line x1="177" y1="257" x2="177" y2="1" id="Line-14-Copy-4" opacity="0.1" stroke-linecap="square"></line>
                    <line x1="209" y1="257" x2="209" y2="1" id="Line-14-Copy-5" opacity="0.1" stroke-linecap="square"></line>
                    <line x1="81" y1="257" x2="81" y2="1" id="Line-14-Copy" opacity="0.1" stroke-linecap="square"></line>
                    <line x1="49" y1="257" x2="49" y2="1" id="Line-14-Copy-2" opacity="0.1" stroke-linecap="square"></line>
                </g>
            </g>
            <circle id="boundary" fill-opacity="0.25" fill="#FF375F" cx="129" cy="129" r="116"></circle>
            <circle id="maxline" stroke="#FF375F" stroke-width="2" cx="129" cy="129" r="96"></circle>
            <path d="M33,266 L33,258 L33,262 L97,262 M161,262 L225,262 L225,258 L225,266" id="Shape" stroke="#FF375F"></path>
            <path d="M115.683,266.126 C116.513667,266.126 117.232333,265.918333 117.839,265.503 C118.445667,265.087667 118.91,264.485667 119.232,263.697 C119.554,262.908333 119.715,261.972667 119.715,260.89 C119.715,259.322 119.376667,258.115667 118.7,257.271 C118.023333,256.426333 117.059667,256.004 115.809,256.004 C115.174333,256.004 114.607333,256.144 114.108,256.424 C113.608667,256.704 113.216667,257.093667 112.932,257.593 C112.647333,258.092333 112.505,258.659333 112.505,259.294 C112.505,259.91 112.633333,260.458333 112.89,260.939 C113.146667,261.419667 113.503667,261.793 113.961,262.059 C114.418333,262.325 114.941,262.458 115.529,262.458 C116.061,262.458 116.541667,262.334333 116.971,262.087 C117.400333,261.839667 117.722333,261.506 117.937,261.086 C117.918333,262.252667 117.710667,263.144 117.314,263.76 C116.917333,264.376 116.350333,264.684 115.613,264.684 C114.810333,264.684 113.975,264.343333 113.107,263.662 L113.107,263.662 L112.505,264.978 C112.915667,265.342 113.401,265.624333 113.961,265.825 C114.521,266.025667 115.095,266.126 115.683,266.126 Z M115.907,261.03 C115.393667,261.03 114.983,260.866667 114.675,260.54 C114.367,260.213333 114.213,259.779333 114.213,259.238 C114.213,258.696667 114.367,258.260333 114.675,257.929 C114.983,257.597667 115.393667,257.432 115.907,257.432 C116.429667,257.432 116.852,257.597667 117.174,257.929 C117.496,258.260333 117.657,258.696667 117.657,259.238 C117.657,259.77 117.496,260.201667 117.174,260.533 C116.852,260.864333 116.429667,261.03 115.907,261.03 Z M125.007,266.126 C125.641667,266.126 126.211,265.986 126.715,265.706 C127.219,265.426 127.611,265.036333 127.891,264.537 C128.171,264.037667 128.311,263.470667 128.311,262.836 C128.311,262.22 128.182667,261.671667 127.926,261.191 C127.669333,260.710333 127.312333,260.337 126.855,260.071 C126.397667,259.805 125.879667,259.672 125.301,259.672 C124.769,259.672 124.288333,259.791 123.859,260.029 C123.429667,260.267 123.107667,260.596 122.893,261.016 C122.911667,259.858667 123.121667,258.974333 123.523,258.363 C123.924333,257.751667 124.484333,257.446 125.203,257.446 C126.005667,257.446 126.841,257.786667 127.709,258.468 L127.709,258.468 L128.311,257.152 C127.900333,256.788 127.415,256.505667 126.855,256.305 C126.295,256.104333 125.721,256.004 125.133,256.004 C124.302333,256.004 123.583667,256.211667 122.977,256.627 C122.370333,257.042333 121.906,257.644333 121.584,258.433 C121.262,259.221667 121.101,260.157333 121.101,261.24 C121.101,262.808 121.439333,264.014333 122.116,264.859 C122.792667,265.703667 123.756333,266.126 125.007,266.126 Z M124.923,264.698 C124.400333,264.698 123.978,264.532333 123.656,264.201 C123.334,263.869667 123.173,263.433333 123.173,262.892 C123.173,262.36 123.334,261.928333 123.656,261.597 C123.978,261.265667 124.395667,261.1 124.909,261.1 C125.422333,261.1 125.833,261.263333 126.141,261.59 C126.449,261.916667 126.603,262.350667 126.603,262.892 C126.603,263.442667 126.451333,263.881333 126.148,264.208 C125.844667,264.534667 125.436333,264.698 124.923,264.698 Z M131.699,268.52 L131.699,264.95 C131.904333,265.314 132.198333,265.598667 132.581,265.804 C132.963667,266.009333 133.397667,266.112 133.883,266.112 C134.480333,266.112 135.007667,265.967333 135.465,265.678 C135.922333,265.388667 136.279333,264.978 136.536,264.446 C136.792667,263.914 136.921,263.293333 136.921,262.584 C136.921,261.874667 136.792667,261.247 136.536,260.701 C136.279333,260.155 135.92,259.732667 135.458,259.434 C134.996,259.135333 134.471,258.986 133.883,258.986 C133.388333,258.986 132.947333,259.091 132.56,259.301 C132.172667,259.511 131.876333,259.807333 131.671,260.19 L131.671,260.19 L131.671,259.154 L129.949,259.154 L129.949,268.52 L131.699,268.52 Z M133.421,264.754 C132.861,264.754 132.429333,264.562667 132.126,264.18 C131.822667,263.797333 131.671,263.256 131.671,262.556 C131.671,261.846667 131.822667,261.300667 132.126,260.918 C132.429333,260.535333 132.861,260.344 133.421,260.344 C133.971667,260.344 134.401,260.54 134.709,260.932 C135.017,261.324 135.171,261.874667 135.171,262.584 C135.171,263.274667 135.017,263.809 134.709,264.187 C134.401,264.565 133.971667,264.754 133.421,264.754 Z M139.385,266 L141.191,263.718 L143.011,266 L145.083,266 L142.199,262.472 L144.915,259.154 L142.829,259.154 L141.191,261.24 L139.553,259.154 L137.467,259.154 L140.183,262.472 L137.313,266 L139.385,266 Z" id="96px" fill="#FF375F" fill-rule="nonzero"></path>
        </g>
        <g id="square-big" transform="translate(650.000000, 0.000000)">
            <g id="Group" opacity="0.50125558" stroke="#979797" stroke-width="2">
                <g id="grid">
                    <rect id="Rectangle" opacity="0.25" x="33" y="33" width="192" height="192"></rect>
                    <circle id="Oval" opacity="0.75" cx="129" cy="129" r="96"></circle>
                    <circle id="Oval-Copy-2" opacity="0.25" cx="129" cy="129" r="64"></circle>
                    <circle id="Oval-Copy" opacity="0.25" cx="129" cy="129" r="116"></circle>
                    <line x1="1" y1="129" x2="257" y2="129" id="Line" stroke-linecap="square"></line>
                    <line x1="1" y1="97" x2="257" y2="97" id="Line-Copy" opacity="0.25" stroke-linecap="square"></line>
                    <line x1="257" y1="113" x2="1" y2="113" id="Line-13" opacity="0.1" stroke-linecap="square"></line>
                    <line x1="257" y1="81" x2="1" y2="81" id="Line-13-Copy-2" opacity="0.1" stroke-linecap="square"></line>
                    <line x1="257" y1="49" x2="1" y2="49" id="Line-13-Copy-3" opacity="0.1" stroke-linecap="square"></line>
                    <line x1="257" y1="145" x2="1" y2="145" id="Line-13-Copy" opacity="0.1" stroke-linecap="square"></line>
                    <line x1="257" y1="177" x2="1" y2="177" id="Line-13-Copy-4" opacity="0.1" stroke-linecap="square"></line>
                    <line x1="257" y1="209" x2="1" y2="209" id="Line-13-Copy-5" opacity="0.1" stroke-linecap="square"></line>
                    <line x1="1" y1="65" x2="257" y2="65" id="Line-Copy-4" opacity="0.25" stroke-linecap="square"></line>
                    <line x1="1" y1="161" x2="257" y2="161" id="Line-Copy-2" opacity="0.25" stroke-linecap="square"></line>
                    <line x1="1" y1="193" x2="257" y2="193" id="Line-Copy-3" opacity="0.25" stroke-linecap="square"></line>
                    <line x1="129" y1="1" x2="129" y2="257" id="Line-2" stroke-linecap="square"></line>
                    <line x1="161" y1="1" x2="161" y2="257" id="Line-2-Copy" opacity="0.25" stroke-linecap="square"></line>
                    <line x1="97" y1="1" x2="97" y2="257" id="Line-2-Copy-3" opacity="0.25" stroke-linecap="square"></line>
                    <line x1="65" y1="1" x2="65" y2="257" id="Line-2-Copy-4" opacity="0.25" stroke-linecap="square"></line>
                    <line x1="193" y1="1" x2="193" y2="257" id="Line-2-Copy-2" opacity="0.25" stroke-linecap="square"></line>
                    <line x1="33" y1="225" x2="225" y2="33" id="Line-3" opacity="0.75" stroke-linecap="square"></line>
                    <line x1="33" y1="33" x2="225" y2="225" id="Line-4" opacity="0.75" stroke-linecap="square"></line>
                    <line x1="97" y1="33" x2="225" y2="161" id="Line-5" opacity="0.25" stroke-linecap="square"></line>
                    <line x1="161" y1="33" x2="225" y2="97" id="Line-6" opacity="0.25" stroke-linecap="square"></line>
                    <line x1="33" y1="97" x2="161" y2="225" id="Line-7" opacity="0.25" stroke-linecap="square"></line>
                    <line x1="33" y1="161" x2="97" y2="225" id="Line-8" opacity="0.25" stroke-linecap="square"></line>
                    <line x1="97" y1="225" x2="225" y2="97" id="Line-9" opacity="0.25" stroke-linecap="square"></line>
                    <line x1="161" y1="225" x2="225" y2="161" id="Line-10" opacity="0.25" stroke-linecap="square"></line>
                    <line x1="33" y1="161" x2="161" y2="33" id="Line-11" opacity="0.25" stroke-linecap="square"></line>
                    <line x1="33" y1="97" x2="97" y2="33" id="Line-12" opacity="0.25" stroke-linecap="square"></line>
                    <line x1="113" y1="257" x2="113" y2="1" id="Line-14" opacity="0.1" stroke-linecap="square"></line>
                    <line x1="145" y1="257" x2="145" y2="1" id="Line-14-Copy-3" opacity="0.1" stroke-linecap="square"></line>
                    <line x1="177" y1="257" x2="177" y2="1" id="Line-14-Copy-4" opacity="0.1" stroke-linecap="square"></line>
                    <line x1="209" y1="257" x2="209" y2="1" id="Line-14-Copy-5" opacity="0.1" stroke-linecap="square"></line>
                    <line x1="81" y1="257" x2="81" y2="1" id="Line-14-Copy" opacity="0.1" stroke-linecap="square"></line>
                    <line x1="49" y1="257" x2="49" y2="1" id="Line-14-Copy-2" opacity="0.1" stroke-linecap="square"></line>
                </g>
            </g>
            <polygon id="boundary" fill-opacity="0.25" fill="#FF375F" points="25 233 25 25 233 25 233 233"></polygon>
            <polygon id="maxline" stroke="#FF375F" stroke-width="2" points="33 225 33 33 225 33 225 225"></polygon>
            <path d="M33,266 L33,258 L33,262 L97.5,262 M161.5,262 L225,262 L225,258 L225,266" id="Shape" stroke="#FF375F"></path>
            <path d="M115.683,266.126 C116.513667,266.126 117.232333,265.918333 117.839,265.503 C118.445667,265.087667 118.91,264.485667 119.232,263.697 C119.554,262.908333 119.715,261.972667 119.715,260.89 C119.715,259.322 119.376667,258.115667 118.7,257.271 C118.023333,256.426333 117.059667,256.004 115.809,256.004 C115.174333,256.004 114.607333,256.144 114.108,256.424 C113.608667,256.704 113.216667,257.093667 112.932,257.593 C112.647333,258.092333 112.505,258.659333 112.505,259.294 C112.505,259.91 112.633333,260.458333 112.89,260.939 C113.146667,261.419667 113.503667,261.793 113.961,262.059 C114.418333,262.325 114.941,262.458 115.529,262.458 C116.061,262.458 116.541667,262.334333 116.971,262.087 C117.400333,261.839667 117.722333,261.506 117.937,261.086 C117.918333,262.252667 117.710667,263.144 117.314,263.76 C116.917333,264.376 116.350333,264.684 115.613,264.684 C114.810333,264.684 113.975,264.343333 113.107,263.662 L113.107,263.662 L112.505,264.978 C112.915667,265.342 113.401,265.624333 113.961,265.825 C114.521,266.025667 115.095,266.126 115.683,266.126 Z M115.907,261.03 C115.393667,261.03 114.983,260.866667 114.675,260.54 C114.367,260.213333 114.213,259.779333 114.213,259.238 C114.213,258.696667 114.367,258.260333 114.675,257.929 C114.983,257.597667 115.393667,257.432 115.907,257.432 C116.429667,257.432 116.852,257.597667 117.174,257.929 C117.496,258.260333 117.657,258.696667 117.657,259.238 C117.657,259.77 117.496,260.201667 117.174,260.533 C116.852,260.864333 116.429667,261.03 115.907,261.03 Z M125.007,266.126 C125.641667,266.126 126.211,265.986 126.715,265.706 C127.219,265.426 127.611,265.036333 127.891,264.537 C128.171,264.037667 128.311,263.470667 128.311,262.836 C128.311,262.22 128.182667,261.671667 127.926,261.191 C127.669333,260.710333 127.312333,260.337 126.855,260.071 C126.397667,259.805 125.879667,259.672 125.301,259.672 C124.769,259.672 124.288333,259.791 123.859,260.029 C123.429667,260.267 123.107667,260.596 122.893,261.016 C122.911667,259.858667 123.121667,258.974333 123.523,258.363 C123.924333,257.751667 124.484333,257.446 125.203,257.446 C126.005667,257.446 126.841,257.786667 127.709,258.468 L127.709,258.468 L128.311,257.152 C127.900333,256.788 127.415,256.505667 126.855,256.305 C126.295,256.104333 125.721,256.004 125.133,256.004 C124.302333,256.004 123.583667,256.211667 122.977,256.627 C122.370333,257.042333 121.906,257.644333 121.584,258.433 C121.262,259.221667 121.101,260.157333 121.101,261.24 C121.101,262.808 121.439333,264.014333 122.116,264.859 C122.792667,265.703667 123.756333,266.126 125.007,266.126 Z M124.923,264.698 C124.400333,264.698 123.978,264.532333 123.656,264.201 C123.334,263.869667 123.173,263.433333 123.173,262.892 C123.173,262.36 123.334,261.928333 123.656,261.597 C123.978,261.265667 124.395667,261.1 124.909,261.1 C125.422333,261.1 125.833,261.263333 126.141,261.59 C126.449,261.916667 126.603,262.350667 126.603,262.892 C126.603,263.442667 126.451333,263.881333 126.148,264.208 C125.844667,264.534667 125.436333,264.698 124.923,264.698 Z M131.699,268.52 L131.699,264.95 C131.904333,265.314 132.198333,265.598667 132.581,265.804 C132.963667,266.009333 133.397667,266.112 133.883,266.112 C134.480333,266.112 135.007667,265.967333 135.465,265.678 C135.922333,265.388667 136.279333,264.978 136.536,264.446 C136.792667,263.914 136.921,263.293333 136.921,262.584 C136.921,261.874667 136.792667,261.247 136.536,260.701 C136.279333,260.155 135.92,259.732667 135.458,259.434 C134.996,259.135333 134.471,258.986 133.883,258.986 C133.388333,258.986 132.947333,259.091 132.56,259.301 C132.172667,259.511 131.876333,259.807333 131.671,260.19 L131.671,260.19 L131.671,259.154 L129.949,259.154 L129.949,268.52 L131.699,268.52 Z M133.421,264.754 C132.861,264.754 132.429333,264.562667 132.126,264.18 C131.822667,263.797333 131.671,263.256 131.671,262.556 C131.671,261.846667 131.822667,261.300667 132.126,260.918 C132.429333,260.535333 132.861,260.344 133.421,260.344 C133.971667,260.344 134.401,260.54 134.709,260.932 C135.017,261.324 135.171,261.874667 135.171,262.584 C135.171,263.274667 135.017,263.809 134.709,264.187 C134.401,264.565 133.971667,264.754 133.421,264.754 Z M139.385,266 L141.191,263.718 L143.011,266 L145.083,266 L142.199,262.472 L144.915,259.154 L142.829,259.154 L141.191,261.24 L139.553,259.154 L137.467,259.154 L140.183,262.472 L137.313,266 L139.385,266 Z" id="96px" fill="#FF375F" fill-rule="nonzero"></path>
        </g>
        <g id="square-small" transform="translate(6.000000, 322.000000)">
            <g id="Group" opacity="0.50125558" stroke="#979797" stroke-width="2">
                <g id="grid">
                    <rect id="Rectangle" opacity="0.25" x="33" y="33" width="192" height="192"></rect>
                    <circle id="Oval" opacity="0.75" cx="129" cy="129" r="96"></circle>
                    <circle id="Oval-Copy-2" opacity="0.25" cx="129" cy="129" r="64"></circle>
                    <circle id="Oval-Copy" opacity="0.25" cx="129" cy="129" r="116"></circle>
                    <line x1="1" y1="129" x2="257" y2="129" id="Line" stroke-linecap="square"></line>
                    <line x1="1" y1="97" x2="257" y2="97" id="Line-Copy" opacity="0.25" stroke-linecap="square"></line>
                    <line x1="257" y1="113" x2="1" y2="113" id="Line-13" opacity="0.1" stroke-linecap="square"></line>
                    <line x1="257" y1="81" x2="1" y2="81" id="Line-13-Copy-2" opacity="0.1" stroke-linecap="square"></line>
                    <line x1="257" y1="49" x2="1" y2="49" id="Line-13-Copy-3" opacity="0.1" stroke-linecap="square"></line>
                    <line x1="257" y1="145" x2="1" y2="145" id="Line-13-Copy" opacity="0.1" stroke-linecap="square"></line>
                    <line x1="257" y1="177" x2="1" y2="177" id="Line-13-Copy-4" opacity="0.1" stroke-linecap="square"></line>
                    <line x1="257" y1="209" x2="1" y2="209" id="Line-13-Copy-5" opacity="0.1" stroke-linecap="square"></line>
                    <line x1="1" y1="65" x2="257" y2="65" id="Line-Copy-4" opacity="0.25" stroke-linecap="square"></line>
                    <line x1="1" y1="161" x2="257" y2="161" id="Line-Copy-2" opacity="0.25" stroke-linecap="square"></line>
                    <line x1="1" y1="193" x2="257" y2="193" id="Line-Copy-3" opacity="0.25" stroke-linecap="square"></line>
                    <line x1="129" y1="1" x2="129" y2="257" id="Line-2" stroke-linecap="square"></line>
                    <line x1="161" y1="1" x2="161" y2="257" id="Line-2-Copy" opacity="0.25" stroke-linecap="square"></line>
                    <line x1="97" y1="1" x2="97" y2="257" id="Line-2-Copy-3" opacity="0.25" stroke-linecap="square"></line>
                    <line x1="65" y1="1" x2="65" y2="257" id="Line-2-Copy-4" opacity="0.25" stroke-linecap="square"></line>
                    <line x1="193" y1="1" x2="193" y2="257" id="Line-2-Copy-2" opacity="0.25" stroke-linecap="square"></line>
                    <line x1="33" y1="225" x2="225" y2="33" id="Line-3" opacity="0.75" stroke-linecap="square"></line>
                    <line x1="33" y1="33" x2="225" y2="225" id="Line-4" opacity="0.75" stroke-linecap="square"></line>
                    <line x1="97" y1="33" x2="225" y2="161" id="Line-5" opacity="0.25" stroke-linecap="square"></line>
                    <line x1="161" y1="33" x2="225" y2="97" id="Line-6" opacity="0.25" stroke-linecap="square"></line>
                    <line x1="33" y1="97" x2="161" y2="225" id="Line-7" opacity="0.25" stroke-linecap="square"></line>
                    <line x1="33" y1="161" x2="97" y2="225" id="Line-8" opacity="0.25" stroke-linecap="square"></line>
                    <line x1="97" y1="225" x2="225" y2="97" id="Line-9" opacity="0.25" stroke-linecap="square"></line>
                    <line x1="161" y1="225" x2="225" y2="161" id="Line-10" opacity="0.25" stroke-linecap="square"></line>
                    <line x1="33" y1="161" x2="161" y2="33" id="Line-11" opacity="0.25" stroke-linecap="square"></line>
                    <line x1="33" y1="97" x2="97" y2="33" id="Line-12" opacity="0.25" stroke-linecap="square"></line>
                    <line x1="113" y1="257" x2="113" y2="1" id="Line-14" opacity="0.1" stroke-linecap="square"></line>
                    <line x1="145" y1="257" x2="145" y2="1" id="Line-14-Copy-3" opacity="0.1" stroke-linecap="square"></line>
                    <line x1="177" y1="257" x2="177" y2="1" id="Line-14-Copy-4" opacity="0.1" stroke-linecap="square"></line>
                    <line x1="209" y1="257" x2="209" y2="1" id="Line-14-Copy-5" opacity="0.1" stroke-linecap="square"></line>
                    <line x1="81" y1="257" x2="81" y2="1" id="Line-14-Copy" opacity="0.1" stroke-linecap="square"></line>
                    <line x1="49" y1="257" x2="49" y2="1" id="Line-14-Copy-2" opacity="0.1" stroke-linecap="square"></line>
                </g>
            </g>
            <polygon id="boundary" fill-opacity="0.25" fill="#FF375F" points="25 233 25 25 233 25 233 233"></polygon>
            <polygon id="maxline" stroke="#FF375F" stroke-width="2" points="49 209 49 49 209 49 209 209"></polygon>
            <path d="M49,266 L49,258 L49,262 L97.5,262 M161,262 L209,262 L209,258 L209,266" id="Shape" stroke="#FF375F"></path>
            <path d="M116.131,266.112 C117.288333,266.112 118.193667,265.867 118.847,265.377 C119.500333,264.887 119.827,264.208 119.827,263.34 C119.827,262.733333 119.670667,262.22 119.358,261.8 C119.045333,261.38 118.599667,261.090667 118.021,260.932 C118.506333,260.764 118.889,260.479333 119.169,260.078 C119.449,259.676667 119.589,259.205333 119.589,258.664 C119.589,257.842667 119.281,257.194 118.665,256.718 C118.049,256.242 117.204333,256.004 116.131,256.004 C115.057667,256.004 114.213,256.242 113.597,256.718 C112.981,257.194 112.673,257.842667 112.673,258.664 C112.673,259.196 112.813,259.660333 113.093,260.057 C113.373,260.453667 113.760333,260.745333 114.255,260.932 C113.676333,261.081333 113.228333,261.368333 112.911,261.793 C112.593667,262.217667 112.435,262.733333 112.435,263.34 C112.435,264.208 112.761667,264.887 113.415,265.377 C114.068333,265.867 114.973667,266.112 116.131,266.112 Z M116.131,260.302 C115.552333,260.302 115.116,260.178333 114.822,259.931 C114.528,259.683667 114.381,259.322 114.381,258.846 C114.381,257.894 114.964333,257.418 116.131,257.418 C117.297667,257.418 117.881,257.894 117.881,258.846 C117.881,259.322 117.734,259.683667 117.44,259.931 C117.146,260.178333 116.709667,260.302 116.131,260.302 Z M116.131,264.698 C114.796333,264.698 114.129,264.198667 114.129,263.2 C114.129,262.201333 114.796333,261.702 116.131,261.702 C117.465667,261.702 118.133,262.201333 118.133,263.2 C118.133,264.198667 117.465667,264.698 116.131,264.698 Z M124.685,266.126 C125.851667,266.126 126.743,265.692 127.359,264.824 C127.975,263.956 128.283,262.700667 128.283,261.058 C128.283,259.424667 127.975,258.178667 127.359,257.32 C126.743,256.461333 125.851667,256.032 124.685,256.032 C123.518333,256.032 122.627,256.461333 122.011,257.32 C121.395,258.178667 121.087,259.424667 121.087,261.058 C121.087,262.71 121.395,263.967667 122.011,264.831 C122.627,265.694333 123.518333,266.126 124.685,266.126 Z M124.685,264.712 C124.050333,264.712 123.588333,264.420333 123.299,263.837 C123.009667,263.253667 122.865,262.327333 122.865,261.058 C122.865,259.798 123.009667,258.881 123.299,258.307 C123.588333,257.733 124.050333,257.446 124.685,257.446 C125.319667,257.446 125.781667,257.733 126.071,258.307 C126.360333,258.881 126.505,259.798 126.505,261.058 C126.505,262.327333 126.360333,263.253667 126.071,263.837 C125.781667,264.420333 125.319667,264.712 124.685,264.712 Z M131.699,268.52 L131.699,264.95 C131.904333,265.314 132.198333,265.598667 132.581,265.804 C132.963667,266.009333 133.397667,266.112 133.883,266.112 C134.480333,266.112 135.007667,265.967333 135.465,265.678 C135.922333,265.388667 136.279333,264.978 136.536,264.446 C136.792667,263.914 136.921,263.293333 136.921,262.584 C136.921,261.874667 136.792667,261.247 136.536,260.701 C136.279333,260.155 135.92,259.732667 135.458,259.434 C134.996,259.135333 134.471,258.986 133.883,258.986 C133.388333,258.986 132.947333,259.091 132.56,259.301 C132.172667,259.511 131.876333,259.807333 131.671,260.19 L131.671,260.19 L131.671,259.154 L129.949,259.154 L129.949,268.52 L131.699,268.52 Z M133.421,264.754 C132.861,264.754 132.429333,264.562667 132.126,264.18 C131.822667,263.797333 131.671,263.256 131.671,262.556 C131.671,261.846667 131.822667,261.300667 132.126,260.918 C132.429333,260.535333 132.861,260.344 133.421,260.344 C133.971667,260.344 134.401,260.54 134.709,260.932 C135.017,261.324 135.171,261.874667 135.171,262.584 C135.171,263.274667 135.017,263.809 134.709,264.187 C134.401,264.565 133.971667,264.754 133.421,264.754 Z M139.385,266 L141.191,263.718 L143.011,266 L145.083,266 L142.199,262.472 L144.915,259.154 L142.829,259.154 L141.191,261.24 L139.553,259.154 L137.467,259.154 L140.183,262.472 L137.313,266 L139.385,266 Z" id="80px" fill="#FF375F" fill-rule="nonzero"></path>
        </g>
        <g id="rect-vert" transform="translate(328.000000, 322.000000)">
            <g id="Group" opacity="0.50125558" stroke="#979797" stroke-width="2">
                <g id="grid">
                    <rect id="Rectangle" opacity="0.25" x="33" y="33" width="192" height="192"></rect>
                    <circle id="Oval" opacity="0.75" cx="129" cy="129" r="96"></circle>
                    <circle id="Oval-Copy-2" opacity="0.25" cx="129" cy="129" r="64"></circle>
                    <circle id="Oval-Copy" opacity="0.25" cx="129" cy="129" r="116"></circle>
                    <line x1="1" y1="129" x2="257" y2="129" id="Line" stroke-linecap="square"></line>
                    <line x1="1" y1="97" x2="257" y2="97" id="Line-Copy" opacity="0.25" stroke-linecap="square"></line>
                    <line x1="257" y1="113" x2="1" y2="113" id="Line-13" opacity="0.1" stroke-linecap="square"></line>
                    <line x1="257" y1="81" x2="1" y2="81" id="Line-13-Copy-2" opacity="0.1" stroke-linecap="square"></line>
                    <line x1="257" y1="49" x2="1" y2="49" id="Line-13-Copy-3" opacity="0.1" stroke-linecap="square"></line>
                    <line x1="257" y1="145" x2="1" y2="145" id="Line-13-Copy" opacity="0.1" stroke-linecap="square"></line>
                    <line x1="257" y1="177" x2="1" y2="177" id="Line-13-Copy-4" opacity="0.1" stroke-linecap="square"></line>
                    <line x1="257" y1="209" x2="1" y2="209" id="Line-13-Copy-5" opacity="0.1" stroke-linecap="square"></line>
                    <line x1="1" y1="65" x2="257" y2="65" id="Line-Copy-4" opacity="0.25" stroke-linecap="square"></line>
                    <line x1="1" y1="161" x2="257" y2="161" id="Line-Copy-2" opacity="0.25" stroke-linecap="square"></line>
                    <line x1="1" y1="193" x2="257" y2="193" id="Line-Copy-3" opacity="0.25" stroke-linecap="square"></line>
                    <line x1="129" y1="1" x2="129" y2="257" id="Line-2" stroke-linecap="square"></line>
                    <line x1="161" y1="1" x2="161" y2="257" id="Line-2-Copy" opacity="0.25" stroke-linecap="square"></line>
                    <line x1="97" y1="1" x2="97" y2="257" id="Line-2-Copy-3" opacity="0.25" stroke-linecap="square"></line>
                    <line x1="65" y1="1" x2="65" y2="257" id="Line-2-Copy-4" opacity="0.25" stroke-linecap="square"></line>
                    <line x1="193" y1="1" x2="193" y2="257" id="Line-2-Copy-2" opacity="0.25" stroke-linecap="square"></line>
                    <line x1="33" y1="225" x2="225" y2="33" id="Line-3" opacity="0.75" stroke-linecap="square"></line>
                    <line x1="33" y1="33" x2="225" y2="225" id="Line-4" opacity="0.75" stroke-linecap="square"></line>
                    <line x1="97" y1="33" x2="225" y2="161" id="Line-5" opacity="0.25" stroke-linecap="square"></line>
                    <line x1="161" y1="33" x2="225" y2="97" id="Line-6" opacity="0.25" stroke-linecap="square"></line>
                    <line x1="33" y1="97" x2="161" y2="225" id="Line-7" opacity="0.25" stroke-linecap="square"></line>
                    <line x1="33" y1="161" x2="97" y2="225" id="Line-8" opacity="0.25" stroke-linecap="square"></line>
                    <line x1="97" y1="225" x2="225" y2="97" id="Line-9" opacity="0.25" stroke-linecap="square"></line>
                    <line x1="161" y1="225" x2="225" y2="161" id="Line-10" opacity="0.25" stroke-linecap="square"></line>
                    <line x1="33" y1="161" x2="161" y2="33" id="Line-11" opacity="0.25" stroke-linecap="square"></line>
                    <line x1="33" y1="97" x2="97" y2="33" id="Line-12" opacity="0.25" stroke-linecap="square"></line>
                    <line x1="113" y1="257" x2="113" y2="1" id="Line-14" opacity="0.1" stroke-linecap="square"></line>
                    <line x1="145" y1="257" x2="145" y2="1" id="Line-14-Copy-3" opacity="0.1" stroke-linecap="square"></line>
                    <line x1="177" y1="257" x2="177" y2="1" id="Line-14-Copy-4" opacity="0.1" stroke-linecap="square"></line>
                    <line x1="209" y1="257" x2="209" y2="1" id="Line-14-Copy-5" opacity="0.1" stroke-linecap="square"></line>
                    <line x1="81" y1="257" x2="81" y2="1" id="Line-14-Copy" opacity="0.1" stroke-linecap="square"></line>
                    <line x1="49" y1="257" x2="49" y2="1" id="Line-14-Copy-2" opacity="0.1" stroke-linecap="square"></line>
                </g>
            </g>
            <polygon id="boundary" fill-opacity="0.25" fill="#FF375F" points="25 233 25 25 233 25 233 233"></polygon>
            <polygon id="maxline" stroke="#FF375F" stroke-width="2" points="65 225 65 33 193 33 193 225"></polygon>
            <path d="M65,266 L65,258 L65,262 L97.5,262 M161.5,262 L193,262 L193,258 L193,266" id="Shape" stroke="#FF375F"></path>
            <path d="M258,33 L266,33 L262,33 L262,97.5 M262,162 L262,225 L266,225 L258,225" id="Shape" stroke="#FF375F"></path>
            <path d="M116.453,266.126 C117.087667,266.126 117.657,265.986 118.161,265.706 C118.665,265.426 119.057,265.036333 119.337,264.537 C119.617,264.037667 119.757,263.470667 119.757,262.836 C119.757,262.22 119.628667,261.671667 119.372,261.191 C119.115333,260.710333 118.758333,260.337 118.301,260.071 C117.843667,259.805 117.325667,259.672 116.747,259.672 C116.215,259.672 115.734333,259.791 115.305,260.029 C114.875667,260.267 114.553667,260.596 114.339,261.016 C114.357667,259.858667 114.567667,258.974333 114.969,258.363 C115.370333,257.751667 115.930333,257.446 116.649,257.446 C117.451667,257.446 118.287,257.786667 119.155,258.468 L119.155,258.468 L119.757,257.152 C119.346333,256.788 118.861,256.505667 118.301,256.305 C117.741,256.104333 117.167,256.004 116.579,256.004 C115.748333,256.004 115.029667,256.211667 114.423,256.627 C113.816333,257.042333 113.352,257.644333 113.03,258.433 C112.708,259.221667 112.547,260.157333 112.547,261.24 C112.547,262.808 112.885333,264.014333 113.562,264.859 C114.238667,265.703667 115.202333,266.126 116.453,266.126 Z M116.369,264.698 C115.846333,264.698 115.424,264.532333 115.102,264.201 C114.78,263.869667 114.619,263.433333 114.619,262.892 C114.619,262.36 114.78,261.928333 115.102,261.597 C115.424,261.265667 115.841667,261.1 116.355,261.1 C116.868333,261.1 117.279,261.263333 117.587,261.59 C117.895,261.916667 118.049,262.350667 118.049,262.892 C118.049,263.442667 117.897333,263.881333 117.594,264.208 C117.290667,264.534667 116.882333,264.698 116.369,264.698 Z M127.121,266 L127.121,264.068 L128.507,264.068 L128.507,262.668 L127.121,262.668 L127.121,256.13 L125.665,256.13 L121.073,262.738 L121.073,264.068 L125.357,264.068 L125.357,266 L127.121,266 Z M125.357,262.668 L122.753,262.668 L125.357,258.902 L125.357,262.668 Z M131.699,268.52 L131.699,264.95 C131.904333,265.314 132.198333,265.598667 132.581,265.804 C132.963667,266.009333 133.397667,266.112 133.883,266.112 C134.480333,266.112 135.007667,265.967333 135.465,265.678 C135.922333,265.388667 136.279333,264.978 136.536,264.446 C136.792667,263.914 136.921,263.293333 136.921,262.584 C136.921,261.874667 136.792667,261.247 136.536,260.701 C136.279333,260.155 135.92,259.732667 135.458,259.434 C134.996,259.135333 134.471,258.986 133.883,258.986 C133.388333,258.986 132.947333,259.091 132.56,259.301 C132.172667,259.511 131.876333,259.807333 131.671,260.19 L131.671,260.19 L131.671,259.154 L129.949,259.154 L129.949,268.52 L131.699,268.52 Z M133.421,264.754 C132.861,264.754 132.429333,264.562667 132.126,264.18 C131.822667,263.797333 131.671,263.256 131.671,262.556 C131.671,261.846667 131.822667,261.300667 132.126,260.918 C132.429333,260.535333 132.861,260.344 133.421,260.344 C133.971667,260.344 134.401,260.54 134.709,260.932 C135.017,261.324 135.171,261.874667 135.171,262.584 C135.171,263.274667 135.017,263.809 134.709,264.187 C134.401,264.565 133.971667,264.754 133.421,264.754 Z M139.385,266 L141.191,263.718 L143.011,266 L145.083,266 L142.199,262.472 L144.915,259.154 L142.829,259.154 L141.191,261.24 L139.553,259.154 L137.467,259.154 L140.183,262.472 L137.313,266 L139.385,266 Z" id="64px" fill="#FF375F" fill-rule="nonzero"></path>
            <path d="M249.683,133.126 C250.513667,133.126 251.232333,132.918333 251.839,132.503 C252.445667,132.087667 252.91,131.485667 253.232,130.697 C253.554,129.908333 253.715,128.972667 253.715,127.89 C253.715,126.322 253.376667,125.115667 252.7,124.271 C252.023333,123.426333 251.059667,123.004 249.809,123.004 C249.174333,123.004 248.607333,123.144 248.108,123.424 C247.608667,123.704 247.216667,124.093667 246.932,124.593 C246.647333,125.092333 246.505,125.659333 246.505,126.294 C246.505,126.91 246.633333,127.458333 246.89,127.939 C247.146667,128.419667 247.503667,128.793 247.961,129.059 C248.418333,129.325 248.941,129.458 249.529,129.458 C250.061,129.458 250.541667,129.334333 250.971,129.087 C251.400333,128.839667 251.722333,128.506 251.937,128.086 C251.918333,129.252667 251.710667,130.144 251.314,130.76 C250.917333,131.376 250.350333,131.684 249.613,131.684 C248.810333,131.684 247.975,131.343333 247.107,130.662 L247.107,130.662 L246.505,131.978 C246.915667,132.342 247.401,132.624333 247.961,132.825 C248.521,133.025667 249.095,133.126 249.683,133.126 Z M249.907,128.03 C249.393667,128.03 248.983,127.866667 248.675,127.54 C248.367,127.213333 248.213,126.779333 248.213,126.238 C248.213,125.696667 248.367,125.260333 248.675,124.929 C248.983,124.597667 249.393667,124.432 249.907,124.432 C250.429667,124.432 250.852,124.597667 251.174,124.929 C251.496,125.260333 251.657,125.696667 251.657,126.238 C251.657,126.77 251.496,127.201667 251.174,127.533 C250.852,127.864333 250.429667,128.03 249.907,128.03 Z M259.007,133.126 C259.641667,133.126 260.211,132.986 260.715,132.706 C261.219,132.426 261.611,132.036333 261.891,131.537 C262.171,131.037667 262.311,130.470667 262.311,129.836 C262.311,129.22 262.182667,128.671667 261.926,128.191 C261.669333,127.710333 261.312333,127.337 260.855,127.071 C260.397667,126.805 259.879667,126.672 259.301,126.672 C258.769,126.672 258.288333,126.791 257.859,127.029 C257.429667,127.267 257.107667,127.596 256.893,128.016 C256.911667,126.858667 257.121667,125.974333 257.523,125.363 C257.924333,124.751667 258.484333,124.446 259.203,124.446 C260.005667,124.446 260.841,124.786667 261.709,125.468 L261.709,125.468 L262.311,124.152 C261.900333,123.788 261.415,123.505667 260.855,123.305 C260.295,123.104333 259.721,123.004 259.133,123.004 C258.302333,123.004 257.583667,123.211667 256.977,123.627 C256.370333,124.042333 255.906,124.644333 255.584,125.433 C255.262,126.221667 255.101,127.157333 255.101,128.24 C255.101,129.808 255.439333,131.014333 256.116,131.859 C256.792667,132.703667 257.756333,133.126 259.007,133.126 Z M258.923,131.698 C258.400333,131.698 257.978,131.532333 257.656,131.201 C257.334,130.869667 257.173,130.433333 257.173,129.892 C257.173,129.36 257.334,128.928333 257.656,128.597 C257.978,128.265667 258.395667,128.1 258.909,128.1 C259.422333,128.1 259.833,128.263333 260.141,128.59 C260.449,128.916667 260.603,129.350667 260.603,129.892 C260.603,130.442667 260.451333,130.881333 260.148,131.208 C259.844667,131.534667 259.436333,131.698 258.923,131.698 Z M265.699,135.52 L265.699,131.95 C265.904333,132.314 266.198333,132.598667 266.581,132.804 C266.963667,133.009333 267.397667,133.112 267.883,133.112 C268.480333,133.112 269.007667,132.967333 269.465,132.678 C269.922333,132.388667 270.279333,131.978 270.536,131.446 C270.792667,130.914 270.921,130.293333 270.921,129.584 C270.921,128.874667 270.792667,128.247 270.536,127.701 C270.279333,127.155 269.92,126.732667 269.458,126.434 C268.996,126.135333 268.471,125.986 267.883,125.986 C267.388333,125.986 266.947333,126.091 266.56,126.301 C266.172667,126.511 265.876333,126.807333 265.671,127.19 L265.671,127.19 L265.671,126.154 L263.949,126.154 L263.949,135.52 L265.699,135.52 Z M267.421,131.754 C266.861,131.754 266.429333,131.562667 266.126,131.18 C265.822667,130.797333 265.671,130.256 265.671,129.556 C265.671,128.846667 265.822667,128.300667 266.126,127.918 C266.429333,127.535333 266.861,127.344 267.421,127.344 C267.971667,127.344 268.401,127.54 268.709,127.932 C269.017,128.324 269.171,128.874667 269.171,129.584 C269.171,130.274667 269.017,130.809 268.709,131.187 C268.401,131.565 267.971667,131.754 267.421,131.754 Z M273.385,133 L275.191,130.718 L277.011,133 L279.083,133 L276.199,129.472 L278.915,126.154 L276.829,126.154 L275.191,128.24 L273.553,126.154 L271.467,126.154 L274.183,129.472 L271.313,133 L273.385,133 Z" id="96px" fill="#FF375F" fill-rule="nonzero" transform="translate(262.794000, 129.262000) rotate(90.000000) translate(-262.794000, -129.262000) "></path>
        </g>
        <g id="rect-horiz" transform="translate(642.000000, 322.000000)">
            <g id="Group" opacity="0.50125558" stroke="#979797" stroke-width="2">
                <g id="grid">
                    <rect id="Rectangle" opacity="0.25" x="33" y="33" width="192" height="192"></rect>
                    <circle id="Oval" opacity="0.75" cx="129" cy="129" r="96"></circle>
                    <circle id="Oval-Copy-2" opacity="0.25" cx="129" cy="129" r="64"></circle>
                    <circle id="Oval-Copy" opacity="0.25" cx="129" cy="129" r="116"></circle>
                    <line x1="1" y1="129" x2="257" y2="129" id="Line" stroke-linecap="square"></line>
                    <line x1="1" y1="97" x2="257" y2="97" id="Line-Copy" opacity="0.25" stroke-linecap="square"></line>
                    <line x1="257" y1="113" x2="1" y2="113" id="Line-13" opacity="0.1" stroke-linecap="square"></line>
                    <line x1="257" y1="81" x2="1" y2="81" id="Line-13-Copy-2" opacity="0.1" stroke-linecap="square"></line>
                    <line x1="257" y1="49" x2="1" y2="49" id="Line-13-Copy-3" opacity="0.1" stroke-linecap="square"></line>
                    <line x1="257" y1="145" x2="1" y2="145" id="Line-13-Copy" opacity="0.1" stroke-linecap="square"></line>
                    <line x1="257" y1="177" x2="1" y2="177" id="Line-13-Copy-4" opacity="0.1" stroke-linecap="square"></line>
                    <line x1="257" y1="209" x2="1" y2="209" id="Line-13-Copy-5" opacity="0.1" stroke-linecap="square"></line>
                    <line x1="1" y1="65" x2="257" y2="65" id="Line-Copy-4" opacity="0.25" stroke-linecap="square"></line>
                    <line x1="1" y1="161" x2="257" y2="161" id="Line-Copy-2" opacity="0.25" stroke-linecap="square"></line>
                    <line x1="1" y1="193" x2="257" y2="193" id="Line-Copy-3" opacity="0.25" stroke-linecap="square"></line>
                    <line x1="129" y1="1" x2="129" y2="257" id="Line-2" stroke-linecap="square"></line>
                    <line x1="161" y1="1" x2="161" y2="257" id="Line-2-Copy" opacity="0.25" stroke-linecap="square"></line>
                    <line x1="97" y1="1" x2="97" y2="257" id="Line-2-Copy-3" opacity="0.25" stroke-linecap="square"></line>
                    <line x1="65" y1="1" x2="65" y2="257" id="Line-2-Copy-4" opacity="0.25" stroke-linecap="square"></line>
                    <line x1="193" y1="1" x2="193" y2="257" id="Line-2-Copy-2" opacity="0.25" stroke-linecap="square"></line>
                    <line x1="33" y1="225" x2="225" y2="33" id="Line-3" opacity="0.75" stroke-linecap="square"></line>
                    <line x1="33" y1="33" x2="225" y2="225" id="Line-4" opacity="0.75" stroke-linecap="square"></line>
                    <line x1="97" y1="33" x2="225" y2="161" id="Line-5" opacity="0.25" stroke-linecap="square"></line>
                    <line x1="161" y1="33" x2="225" y2="97" id="Line-6" opacity="0.25" stroke-linecap="square"></line>
                    <line x1="33" y1="97" x2="161" y2="225" id="Line-7" opacity="0.25" stroke-linecap="square"></line>
                    <line x1="33" y1="161" x2="97" y2="225" id="Line-8" opacity="0.25" stroke-linecap="square"></line>
                    <line x1="97" y1="225" x2="225" y2="97" id="Line-9" opacity="0.25" stroke-linecap="square"></line>
                    <line x1="161" y1="225" x2="225" y2="161" id="Line-10" opacity="0.25" stroke-linecap="square"></line>
                    <line x1="33" y1="161" x2="161" y2="33" id="Line-11" opacity="0.25" stroke-linecap="square"></line>
                    <line x1="33" y1="97" x2="97" y2="33" id="Line-12" opacity="0.25" stroke-linecap="square"></line>
                    <line x1="113" y1="257" x2="113" y2="1" id="Line-14" opacity="0.1" stroke-linecap="square"></line>
                    <line x1="145" y1="257" x2="145" y2="1" id="Line-14-Copy-3" opacity="0.1" stroke-linecap="square"></line>
                    <line x1="177" y1="257" x2="177" y2="1" id="Line-14-Copy-4" opacity="0.1" stroke-linecap="square"></line>
                    <line x1="209" y1="257" x2="209" y2="1" id="Line-14-Copy-5" opacity="0.1" stroke-linecap="square"></line>
                    <line x1="81" y1="257" x2="81" y2="1" id="Line-14-Copy" opacity="0.1" stroke-linecap="square"></line>
                    <line x1="49" y1="257" x2="49" y2="1" id="Line-14-Copy-2" opacity="0.1" stroke-linecap="square"></line>
                </g>
            </g>
            <polygon id="boundary" fill-opacity="0.25" fill="#FF375F" points="25 233 25 25 233 25 233 233"></polygon>
            <polygon id="maxline" stroke="#FF375F" stroke-width="2" points="33 193 33 65 225 65 225 193"></polygon>
            <path d="M33,266 L33,258 L33,262 L97.5,262 M161,262 L225,262 L225,258 L225,266" id="Shape" stroke="#FF375F"></path>
            <path d="M258,65 L266,65 L262,65 L262,97 M262,160.5 L262,193 L266,193 L258,193" id="Shape" stroke="#FF375F"></path>
            <path d="M116.683,266.126 C117.513667,266.126 118.232333,265.918333 118.839,265.503 C119.445667,265.087667 119.91,264.485667 120.232,263.697 C120.554,262.908333 120.715,261.972667 120.715,260.89 C120.715,259.322 120.376667,258.115667 119.7,257.271 C119.023333,256.426333 118.059667,256.004 116.809,256.004 C116.174333,256.004 115.607333,256.144 115.108,256.424 C114.608667,256.704 114.216667,257.093667 113.932,257.593 C113.647333,258.092333 113.505,258.659333 113.505,259.294 C113.505,259.91 113.633333,260.458333 113.89,260.939 C114.146667,261.419667 114.503667,261.793 114.961,262.059 C115.418333,262.325 115.941,262.458 116.529,262.458 C117.061,262.458 117.541667,262.334333 117.971,262.087 C118.400333,261.839667 118.722333,261.506 118.937,261.086 C118.918333,262.252667 118.710667,263.144 118.314,263.76 C117.917333,264.376 117.350333,264.684 116.613,264.684 C115.810333,264.684 114.975,264.343333 114.107,263.662 L114.107,263.662 L113.505,264.978 C113.915667,265.342 114.401,265.624333 114.961,265.825 C115.521,266.025667 116.095,266.126 116.683,266.126 Z M116.907,261.03 C116.393667,261.03 115.983,260.866667 115.675,260.54 C115.367,260.213333 115.213,259.779333 115.213,259.238 C115.213,258.696667 115.367,258.260333 115.675,257.929 C115.983,257.597667 116.393667,257.432 116.907,257.432 C117.429667,257.432 117.852,257.597667 118.174,257.929 C118.496,258.260333 118.657,258.696667 118.657,259.238 C118.657,259.77 118.496,260.201667 118.174,260.533 C117.852,260.864333 117.429667,261.03 116.907,261.03 Z M126.007,266.126 C126.641667,266.126 127.211,265.986 127.715,265.706 C128.219,265.426 128.611,265.036333 128.891,264.537 C129.171,264.037667 129.311,263.470667 129.311,262.836 C129.311,262.22 129.182667,261.671667 128.926,261.191 C128.669333,260.710333 128.312333,260.337 127.855,260.071 C127.397667,259.805 126.879667,259.672 126.301,259.672 C125.769,259.672 125.288333,259.791 124.859,260.029 C124.429667,260.267 124.107667,260.596 123.893,261.016 C123.911667,259.858667 124.121667,258.974333 124.523,258.363 C124.924333,257.751667 125.484333,257.446 126.203,257.446 C127.005667,257.446 127.841,257.786667 128.709,258.468 L128.709,258.468 L129.311,257.152 C128.900333,256.788 128.415,256.505667 127.855,256.305 C127.295,256.104333 126.721,256.004 126.133,256.004 C125.302333,256.004 124.583667,256.211667 123.977,256.627 C123.370333,257.042333 122.906,257.644333 122.584,258.433 C122.262,259.221667 122.101,260.157333 122.101,261.24 C122.101,262.808 122.439333,264.014333 123.116,264.859 C123.792667,265.703667 124.756333,266.126 126.007,266.126 Z M125.923,264.698 C125.400333,264.698 124.978,264.532333 124.656,264.201 C124.334,263.869667 124.173,263.433333 124.173,262.892 C124.173,262.36 124.334,261.928333 124.656,261.597 C124.978,261.265667 125.395667,261.1 125.909,261.1 C126.422333,261.1 126.833,261.263333 127.141,261.59 C127.449,261.916667 127.603,262.350667 127.603,262.892 C127.603,263.442667 127.451333,263.881333 127.148,264.208 C126.844667,264.534667 126.436333,264.698 125.923,264.698 Z M132.699,268.52 L132.699,264.95 C132.904333,265.314 133.198333,265.598667 133.581,265.804 C133.963667,266.009333 134.397667,266.112 134.883,266.112 C135.480333,266.112 136.007667,265.967333 136.465,265.678 C136.922333,265.388667 137.279333,264.978 137.536,264.446 C137.792667,263.914 137.921,263.293333 137.921,262.584 C137.921,261.874667 137.792667,261.247 137.536,260.701 C137.279333,260.155 136.92,259.732667 136.458,259.434 C135.996,259.135333 135.471,258.986 134.883,258.986 C134.388333,258.986 133.947333,259.091 133.56,259.301 C133.172667,259.511 132.876333,259.807333 132.671,260.19 L132.671,260.19 L132.671,259.154 L130.949,259.154 L130.949,268.52 L132.699,268.52 Z M134.421,264.754 C133.861,264.754 133.429333,264.562667 133.126,264.18 C132.822667,263.797333 132.671,263.256 132.671,262.556 C132.671,261.846667 132.822667,261.300667 133.126,260.918 C133.429333,260.535333 133.861,260.344 134.421,260.344 C134.971667,260.344 135.401,260.54 135.709,260.932 C136.017,261.324 136.171,261.874667 136.171,262.584 C136.171,263.274667 136.017,263.809 135.709,264.187 C135.401,264.565 134.971667,264.754 134.421,264.754 Z M140.385,266 L142.191,263.718 L144.011,266 L146.083,266 L143.199,262.472 L145.915,259.154 L143.829,259.154 L142.191,261.24 L140.553,259.154 L138.467,259.154 L141.183,262.472 L138.313,266 L140.385,266 Z" id="96px" fill="#FF375F" fill-rule="nonzero"></path>
            <path d="M249.453,133.126 C250.087667,133.126 250.657,132.986 251.161,132.706 C251.665,132.426 252.057,132.036333 252.337,131.537 C252.617,131.037667 252.757,130.470667 252.757,129.836 C252.757,129.22 252.628667,128.671667 252.372,128.191 C252.115333,127.710333 251.758333,127.337 251.301,127.071 C250.843667,126.805 250.325667,126.672 249.747,126.672 C249.215,126.672 248.734333,126.791 248.305,127.029 C247.875667,127.267 247.553667,127.596 247.339,128.016 C247.357667,126.858667 247.567667,125.974333 247.969,125.363 C248.370333,124.751667 248.930333,124.446 249.649,124.446 C250.451667,124.446 251.287,124.786667 252.155,125.468 L252.155,125.468 L252.757,124.152 C252.346333,123.788 251.861,123.505667 251.301,123.305 C250.741,123.104333 250.167,123.004 249.579,123.004 C248.748333,123.004 248.029667,123.211667 247.423,123.627 C246.816333,124.042333 246.352,124.644333 246.03,125.433 C245.708,126.221667 245.547,127.157333 245.547,128.24 C245.547,129.808 245.885333,131.014333 246.562,131.859 C247.238667,132.703667 248.202333,133.126 249.453,133.126 Z M249.369,131.698 C248.846333,131.698 248.424,131.532333 248.102,131.201 C247.78,130.869667 247.619,130.433333 247.619,129.892 C247.619,129.36 247.78,128.928333 248.102,128.597 C248.424,128.265667 248.841667,128.1 249.355,128.1 C249.868333,128.1 250.279,128.263333 250.587,128.59 C250.895,128.916667 251.049,129.350667 251.049,129.892 C251.049,130.442667 250.897333,130.881333 250.594,131.208 C250.290667,131.534667 249.882333,131.698 249.369,131.698 Z M260.121,133 L260.121,131.068 L261.507,131.068 L261.507,129.668 L260.121,129.668 L260.121,123.13 L258.665,123.13 L254.073,129.738 L254.073,131.068 L258.357,131.068 L258.357,133 L260.121,133 Z M258.357,129.668 L255.753,129.668 L258.357,125.902 L258.357,129.668 Z M264.699,135.52 L264.699,131.95 C264.904333,132.314 265.198333,132.598667 265.581,132.804 C265.963667,133.009333 266.397667,133.112 266.883,133.112 C267.480333,133.112 268.007667,132.967333 268.465,132.678 C268.922333,132.388667 269.279333,131.978 269.536,131.446 C269.792667,130.914 269.921,130.293333 269.921,129.584 C269.921,128.874667 269.792667,128.247 269.536,127.701 C269.279333,127.155 268.92,126.732667 268.458,126.434 C267.996,126.135333 267.471,125.986 266.883,125.986 C266.388333,125.986 265.947333,126.091 265.56,126.301 C265.172667,126.511 264.876333,126.807333 264.671,127.19 L264.671,127.19 L264.671,126.154 L262.949,126.154 L262.949,135.52 L264.699,135.52 Z M266.421,131.754 C265.861,131.754 265.429333,131.562667 265.126,131.18 C264.822667,130.797333 264.671,130.256 264.671,129.556 C264.671,128.846667 264.822667,128.300667 265.126,127.918 C265.429333,127.535333 265.861,127.344 266.421,127.344 C266.971667,127.344 267.401,127.54 267.709,127.932 C268.017,128.324 268.171,128.874667 268.171,129.584 C268.171,130.274667 268.017,130.809 267.709,131.187 C267.401,131.565 266.971667,131.754 266.421,131.754 Z M272.385,133 L274.191,130.718 L276.011,133 L278.083,133 L275.199,129.472 L277.915,126.154 L275.829,126.154 L274.191,128.24 L272.553,126.154 L270.467,126.154 L273.183,129.472 L270.313,133 L272.385,133 Z" id="64px" fill="#FF375F" fill-rule="nonzero" transform="translate(261.815000, 129.262000) rotate(90.000000) translate(-261.815000, -129.262000) "></path>
        </g>
    </g>
</svg>