<?xml version="1.0" encoding="UTF-8"?>
<svg width="1696px" height="560px" viewBox="0 0 1696 560" version="1.1" xmlns="http://www.w3.org/2000/svg" xmlns:xlink="http://www.w3.org/1999/xlink">
    <title>boundaries</title>
    <g id="boundaries" stroke="none" stroke-width="1" fill="none" fill-rule="evenodd">
        <g id="circular" transform="translate(224.000000, 1.000000)">
            <g id="Group" opacity="0.50125558" stroke="#979797" stroke-width="3.96899225">
                <g id="grid">
                    <rect id="Rectangle" opacity="0.25" x="65.4883721" y="65.4883721" width="381.023256" height="381.023256"></rect>
                    <circle id="Oval" opacity="0.75" cx="256" cy="256" r="190.511628"></circle>
                    <circle id="Oval-Copy-2" opacity="0.25" cx="256" cy="256" r="127.007752"></circle>
                    <circle id="Oval-Copy" opacity="0.25" cx="256" cy="256" r="230.20155"></circle>
                    <line x1="1.98449612" y1="256" x2="510.015504" y2="256" id="Line" stroke-linecap="square"></line>
                    <line x1="1.98449612" y1="192.496124" x2="510.015504" y2="192.496124" id="Line-Copy" opacity="0.25" stroke-linecap="square"></line>
                    <line x1="510.015504" y1="224.248062" x2="1.98449612" y2="224.248062" id="Line-13" opacity="0.1" stroke-linecap="square"></line>
                    <line x1="510.015504" y1="160.744186" x2="1.98449612" y2="160.744186" id="Line-13-Copy-2" opacity="0.1" stroke-linecap="square"></line>
                    <line x1="510.015504" y1="97.2403101" x2="1.98449612" y2="97.2403101" id="Line-13-Copy-3" opacity="0.1" stroke-linecap="square"></line>
                    <line x1="510.015504" y1="287.751938" x2="1.98449612" y2="287.751938" id="Line-13-Copy" opacity="0.1" stroke-linecap="square"></line>
                    <line x1="510.015504" y1="351.255814" x2="1.98449612" y2="351.255814" id="Line-13-Copy-4" opacity="0.1" stroke-linecap="square"></line>
                    <line x1="510.015504" y1="414.75969" x2="1.98449612" y2="414.75969" id="Line-13-Copy-5" opacity="0.1" stroke-linecap="square"></line>
                    <line x1="1.98449612" y1="128.992248" x2="510.015504" y2="128.992248" id="Line-Copy-4" opacity="0.25" stroke-linecap="square"></line>
                    <line x1="1.98449612" y1="319.503876" x2="510.015504" y2="319.503876" id="Line-Copy-2" opacity="0.25" stroke-linecap="square"></line>
                    <line x1="1.98449612" y1="383.007752" x2="510.015504" y2="383.007752" id="Line-Copy-3" opacity="0.25" stroke-linecap="square"></line>
                    <line x1="256" y1="1.98449612" x2="256" y2="510.015504" id="Line-2" stroke-linecap="square"></line>
                    <line x1="319.503876" y1="1.98449612" x2="319.503876" y2="510.015504" id="Line-2-Copy" opacity="0.25" stroke-linecap="square"></line>
                    <line x1="192.496124" y1="1.98449612" x2="192.496124" y2="510.015504" id="Line-2-Copy-3" opacity="0.25" stroke-linecap="square"></line>
                    <line x1="128.992248" y1="1.98449612" x2="128.992248" y2="510.015504" id="Line-2-Copy-4" opacity="0.25" stroke-linecap="square"></line>
                    <line x1="383.007752" y1="1.98449612" x2="383.007752" y2="510.015504" id="Line-2-Copy-2" opacity="0.25" stroke-linecap="square"></line>
                    <line x1="65.4883721" y1="446.511628" x2="446.511628" y2="65.4883721" id="Line-3" opacity="0.75" stroke-linecap="square"></line>
                    <line x1="65.4883721" y1="65.4883721" x2="446.511628" y2="446.511628" id="Line-4" opacity="0.75" stroke-linecap="square"></line>
                    <line x1="192.496124" y1="65.4883721" x2="446.511628" y2="319.503876" id="Line-5" opacity="0.25" stroke-linecap="square"></line>
                    <line x1="319.503876" y1="65.4883721" x2="446.511628" y2="192.496124" id="Line-6" opacity="0.25" stroke-linecap="square"></line>
                    <line x1="65.4883721" y1="192.496124" x2="319.503876" y2="446.511628" id="Line-7" opacity="0.25" stroke-linecap="square"></line>
                    <line x1="65.4883721" y1="319.503876" x2="192.496124" y2="446.511628" id="Line-8" opacity="0.25" stroke-linecap="square"></line>
                    <line x1="192.496124" y1="446.511628" x2="446.511628" y2="192.496124" id="Line-9" opacity="0.25" stroke-linecap="square"></line>
                    <line x1="319.503876" y1="446.511628" x2="446.511628" y2="319.503876" id="Line-10" opacity="0.25" stroke-linecap="square"></line>
                    <line x1="65.4883721" y1="319.503876" x2="319.503876" y2="65.4883721" id="Line-11" opacity="0.25" stroke-linecap="square"></line>
                    <line x1="65.4883721" y1="192.496124" x2="192.496124" y2="65.4883721" id="Line-12" opacity="0.25" stroke-linecap="square"></line>
                    <line x1="224.248062" y1="510.015504" x2="224.248062" y2="1.98449612" id="Line-14" opacity="0.1" stroke-linecap="square"></line>
                    <line x1="287.751938" y1="510.015504" x2="287.751938" y2="1.98449612" id="Line-14-Copy-3" opacity="0.1" stroke-linecap="square"></line>
                    <line x1="351.255814" y1="510.015504" x2="351.255814" y2="1.98449612" id="Line-14-Copy-4" opacity="0.1" stroke-linecap="square"></line>
                    <line x1="414.75969" y1="510.015504" x2="414.75969" y2="1.98449612" id="Line-14-Copy-5" opacity="0.1" stroke-linecap="square"></line>
                    <line x1="160.744186" y1="510.015504" x2="160.744186" y2="1.98449612" id="Line-14-Copy" opacity="0.1" stroke-linecap="square"></line>
                    <line x1="97.2403101" y1="510.015504" x2="97.2403101" y2="1.98449612" id="Line-14-Copy-2" opacity="0.1" stroke-linecap="square"></line>
                </g>
            </g>
            <rect id="frame" fill="#5E5CE6" opacity="0.12" x="26.4599483" y="26.4599483" width="460.403101" height="460.403101" rx="21.1679587"></rect>
            <circle id="maxline" stroke="#FF375F" stroke-width="3.96899225" cx="255.825581" cy="255.825581" r="214.325581"></circle>
            <circle id="boundary" fill-opacity="0.25" fill="#FF375F" cx="255.70155" cy="255.70155" r="230.20155"></circle>
        </g>
        <g id="square" transform="translate(960.000000, 1.000000)">
            <g id="Group" opacity="0.50125558" stroke="#979797" stroke-width="3.96899225">
                <g id="grid">
                    <rect id="Rectangle" opacity="0.25" x="65.4883721" y="65.4883721" width="381.023256" height="381.023256"></rect>
                    <circle id="Oval" opacity="0.75" cx="256" cy="256" r="190.511628"></circle>
                    <circle id="Oval-Copy-2" opacity="0.25" cx="256" cy="256" r="127.007752"></circle>
                    <circle id="Oval-Copy" opacity="0.25" cx="256" cy="256" r="230.20155"></circle>
                    <line x1="1.98449612" y1="256" x2="510.015504" y2="256" id="Line" stroke-linecap="square"></line>
                    <line x1="1.98449612" y1="192.496124" x2="510.015504" y2="192.496124" id="Line-Copy" opacity="0.25" stroke-linecap="square"></line>
                    <line x1="510.015504" y1="224.248062" x2="1.98449612" y2="224.248062" id="Line-13" opacity="0.1" stroke-linecap="square"></line>
                    <line x1="510.015504" y1="160.744186" x2="1.98449612" y2="160.744186" id="Line-13-Copy-2" opacity="0.1" stroke-linecap="square"></line>
                    <line x1="510.015504" y1="97.2403101" x2="1.98449612" y2="97.2403101" id="Line-13-Copy-3" opacity="0.1" stroke-linecap="square"></line>
                    <line x1="510.015504" y1="287.751938" x2="1.98449612" y2="287.751938" id="Line-13-Copy" opacity="0.1" stroke-linecap="square"></line>
                    <line x1="510.015504" y1="351.255814" x2="1.98449612" y2="351.255814" id="Line-13-Copy-4" opacity="0.1" stroke-linecap="square"></line>
                    <line x1="510.015504" y1="414.75969" x2="1.98449612" y2="414.75969" id="Line-13-Copy-5" opacity="0.1" stroke-linecap="square"></line>
                    <line x1="1.98449612" y1="128.992248" x2="510.015504" y2="128.992248" id="Line-Copy-4" opacity="0.25" stroke-linecap="square"></line>
                    <line x1="1.98449612" y1="319.503876" x2="510.015504" y2="319.503876" id="Line-Copy-2" opacity="0.25" stroke-linecap="square"></line>
                    <line x1="1.98449612" y1="383.007752" x2="510.015504" y2="383.007752" id="Line-Copy-3" opacity="0.25" stroke-linecap="square"></line>
                    <line x1="256" y1="1.98449612" x2="256" y2="510.015504" id="Line-2" stroke-linecap="square"></line>
                    <line x1="319.503876" y1="1.98449612" x2="319.503876" y2="510.015504" id="Line-2-Copy" opacity="0.25" stroke-linecap="square"></line>
                    <line x1="192.496124" y1="1.98449612" x2="192.496124" y2="510.015504" id="Line-2-Copy-3" opacity="0.25" stroke-linecap="square"></line>
                    <line x1="128.992248" y1="1.98449612" x2="128.992248" y2="510.015504" id="Line-2-Copy-4" opacity="0.25" stroke-linecap="square"></line>
                    <line x1="383.007752" y1="1.98449612" x2="383.007752" y2="510.015504" id="Line-2-Copy-2" opacity="0.25" stroke-linecap="square"></line>
                    <line x1="65.4883721" y1="446.511628" x2="446.511628" y2="65.4883721" id="Line-3" opacity="0.75" stroke-linecap="square"></line>
                    <line x1="65.4883721" y1="65.4883721" x2="446.511628" y2="446.511628" id="Line-4" opacity="0.75" stroke-linecap="square"></line>
                    <line x1="192.496124" y1="65.4883721" x2="446.511628" y2="319.503876" id="Line-5" opacity="0.25" stroke-linecap="square"></line>
                    <line x1="319.503876" y1="65.4883721" x2="446.511628" y2="192.496124" id="Line-6" opacity="0.25" stroke-linecap="square"></line>
                    <line x1="65.4883721" y1="192.496124" x2="319.503876" y2="446.511628" id="Line-7" opacity="0.25" stroke-linecap="square"></line>
                    <line x1="65.4883721" y1="319.503876" x2="192.496124" y2="446.511628" id="Line-8" opacity="0.25" stroke-linecap="square"></line>
                    <line x1="192.496124" y1="446.511628" x2="446.511628" y2="192.496124" id="Line-9" opacity="0.25" stroke-linecap="square"></line>
                    <line x1="319.503876" y1="446.511628" x2="446.511628" y2="319.503876" id="Line-10" opacity="0.25" stroke-linecap="square"></line>
                    <line x1="65.4883721" y1="319.503876" x2="319.503876" y2="65.4883721" id="Line-11" opacity="0.25" stroke-linecap="square"></line>
                    <line x1="65.4883721" y1="192.496124" x2="192.496124" y2="65.4883721" id="Line-12" opacity="0.25" stroke-linecap="square"></line>
                    <line x1="224.248062" y1="510.015504" x2="224.248062" y2="1.98449612" id="Line-14" opacity="0.1" stroke-linecap="square"></line>
                    <line x1="287.751938" y1="510.015504" x2="287.751938" y2="1.98449612" id="Line-14-Copy-3" opacity="0.1" stroke-linecap="square"></line>
                    <line x1="351.255814" y1="510.015504" x2="351.255814" y2="1.98449612" id="Line-14-Copy-4" opacity="0.1" stroke-linecap="square"></line>
                    <line x1="414.75969" y1="510.015504" x2="414.75969" y2="1.98449612" id="Line-14-Copy-5" opacity="0.1" stroke-linecap="square"></line>
                    <line x1="160.744186" y1="510.015504" x2="160.744186" y2="1.98449612" id="Line-14-Copy" opacity="0.1" stroke-linecap="square"></line>
                    <line x1="97.2403101" y1="510.015504" x2="97.2403101" y2="1.98449612" id="Line-14-Copy-2" opacity="0.1" stroke-linecap="square"></line>
                </g>
            </g>
            <rect id="frame" fill="#5E5CE6" opacity="0.12" x="26.4599483" y="26.4599483" width="460.403101" height="460.403101" rx="21.1679587"></rect>
            <polygon id="maxline" stroke="#FF375F" stroke-width="5.29198966" points="65.4883721 65.4883721 446.511628 65.4883721 446.511628 446.511628 65.4883721 446.511628"></polygon>
            <polygon id="boundary" fill-opacity="0.25" fill="#FF375F" points="49.6124031 49.6124031 462.387597 49.6124031 462.387597 462.387597 49.6124031 462.387597"></polygon>
        </g>
        <line x1="693.5" y1="257" x2="693.5" y2="544" id="Path-17" stroke="#FF375F"></line>
        <line x1="1026.5" y1="256" x2="1025.5" y2="545" id="Path-17-Copy-4" stroke="#FF375F"></line>
        <line x1="1406.5" y1="256" x2="1406.5" y2="544" id="Path-17-Copy-5" stroke="#FF375F"></line>
        <line x1="264.5" y1="257" x2="264.5" y2="544" id="Path-17-Copy" stroke="#FF375F"></line>
        <line x1="479.5" y1="486.5" x2="192" y2="486.5" id="Path-17-Copy-2" stroke="#FF375F"></line>
        <line x1="480.5" y1="26.5" x2="192" y2="27.5" id="Path-17-Copy-3" stroke="#FF375F"></line>
        <path d="M264.5,528 L448.5,528 M512.5,528 L693.5,528" id="Shape" stroke="#FF375F"></path>
        <path d="M208,486.5 L208,288 M208,230.5 L208,27.5" id="Shape" stroke="#FF375F"></path>
        <path d="M1026.5,527 L1184,527 M1248,527 L1406.5,527" id="Shape" stroke="#FF375F"></path>
        <line x1="1216" y1="463.5" x2="1504" y2="463.5" id="Path-18" stroke="#FF375F"></line>
        <line x1="1216" y1="51.5" x2="1504" y2="51.5" id="Path-18-Copy" stroke="#FF375F"></line>
        <path d="M1488,51.5 L1488,225.5 M1488,289.5 L1488,463.5" id="Shape" stroke="#FF375F"></path>
        <path d="M456.44,536 L456.44,533.504 L452.768,533.504 L452.768,519.08 L450.56,519.08 L445.544,522.104 L446.768,524.36 L449.672,522.608 L449.672,533.504 L446,533.504 L446,536 L456.44,536 Z M465.128,536.216 C467.128,536.216 468.656,535.472 469.712,533.984 C470.768,532.496 471.296,530.344 471.296,527.528 C471.296,524.728 470.768,522.592 469.712,521.12 C468.656,519.648 467.128,518.912 465.128,518.912 C463.128,518.912 461.6,519.648 460.544,521.12 C459.488,522.592 458.96,524.728 458.96,527.528 C458.96,530.36 459.488,532.516 460.544,533.996 C461.6,535.476 463.128,536.216 465.128,536.216 Z M465.128,533.792 C464.04,533.792 463.248,533.292 462.752,532.292 C462.256,531.292 462.008,529.704 462.008,527.528 C462.008,525.368 462.256,523.796 462.752,522.812 C463.248,521.828 464.04,521.336 465.128,521.336 C466.216,521.336 467.008,521.828 467.504,522.812 C468,523.796 468.248,525.368 468.248,527.528 C468.248,529.704 468,531.292 467.504,532.292 C467.008,533.292 466.216,533.792 465.128,533.792 Z M479.792,536.192 C481.776,536.192 483.328,535.772 484.448,534.932 C485.568,534.092 486.128,532.928 486.128,531.44 C486.128,530.4 485.86,529.52 485.324,528.8 C484.788,528.08 484.024,527.584 483.032,527.312 C483.864,527.024 484.52,526.536 485,525.848 C485.48,525.16 485.72,524.352 485.72,523.424 C485.72,522.016 485.192,520.904 484.136,520.088 C483.08,519.272 481.632,518.864 479.792,518.864 C477.952,518.864 476.504,519.272 475.448,520.088 C474.392,520.904 473.864,522.016 473.864,523.424 C473.864,524.336 474.104,525.132 474.584,525.812 C475.064,526.492 475.728,526.992 476.576,527.312 C475.584,527.568 474.816,528.06 474.272,528.788 C473.728,529.516 473.456,530.4 473.456,531.44 C473.456,532.928 474.016,534.092 475.136,534.932 C476.256,535.772 477.808,536.192 479.792,536.192 Z M479.792,526.232 C478.8,526.232 478.052,526.02 477.548,525.596 C477.044,525.172 476.792,524.552 476.792,523.736 C476.792,522.104 477.792,521.288 479.792,521.288 C481.792,521.288 482.792,522.104 482.792,523.736 C482.792,524.552 482.54,525.172 482.036,525.596 C481.532,526.02 480.784,526.232 479.792,526.232 Z M479.792,533.768 C477.504,533.768 476.36,532.912 476.36,531.2 C476.36,529.488 477.504,528.632 479.792,528.632 C482.08,528.632 483.224,529.488 483.224,531.2 C483.224,532.912 482.08,533.768 479.792,533.768 Z M491.816,540.32 L491.816,534.2 C492.168,534.824 492.672,535.312 493.328,535.664 C493.984,536.016 494.728,536.192 495.56,536.192 C496.584,536.192 497.488,535.944 498.272,535.448 C499.056,534.952 499.668,534.248 500.108,533.336 C500.548,532.424 500.768,531.36 500.768,530.144 C500.768,528.928 500.548,527.852 500.108,526.916 C499.668,525.98 499.052,525.256 498.26,524.744 C497.468,524.232 496.568,523.976 495.56,523.976 C494.712,523.976 493.956,524.156 493.292,524.516 C492.628,524.876 492.12,525.384 491.768,526.04 L491.768,526.04 L491.768,524.264 L488.816,524.264 L488.816,540.32 L491.816,540.32 Z M494.768,533.864 C493.808,533.864 493.068,533.536 492.548,532.88 C492.028,532.224 491.768,531.296 491.768,530.096 C491.768,528.88 492.028,527.944 492.548,527.288 C493.068,526.632 493.808,526.304 494.768,526.304 C495.712,526.304 496.448,526.64 496.976,527.312 C497.504,527.984 497.768,528.928 497.768,530.144 C497.768,531.328 497.504,532.244 496.976,532.892 C496.448,533.54 495.712,533.864 494.768,533.864 Z M504.992,536 L508.088,532.088 L511.208,536 L514.76,536 L509.816,529.952 L514.472,524.264 L510.896,524.264 L508.088,527.84 L505.28,524.264 L501.704,524.264 L506.36,529.952 L501.44,536 L504.992,536 Z" id="108px" fill="#FF375F" fill-rule="nonzero"></path>
        <path d="M185.94,264.5 L185.94,262.004 L182.268,262.004 L182.268,247.58 L180.06,247.58 L175.044,250.604 L176.268,252.86 L179.172,251.108 L179.172,262.004 L175.5,262.004 L175.5,264.5 L185.94,264.5 Z M200.604,264.5 L200.604,262.004 L196.932,262.004 L196.932,247.58 L194.724,247.58 L189.708,250.604 L190.932,252.86 L193.836,251.108 L193.836,262.004 L190.164,262.004 L190.164,264.5 L200.604,264.5 Z M209.844,264.716 C210.932,264.716 211.908,264.476 212.772,263.996 C213.636,263.516 214.308,262.848 214.788,261.992 C215.268,261.136 215.508,260.164 215.508,259.076 C215.508,258.02 215.288,257.08 214.848,256.256 C214.408,255.432 213.796,254.792 213.012,254.336 C212.228,253.88 211.34,253.652 210.348,253.652 C209.436,253.652 208.612,253.856 207.876,254.264 C207.14,254.672 206.588,255.236 206.22,255.956 C206.252,253.972 206.612,252.456 207.3,251.408 C207.988,250.36 208.948,249.836 210.18,249.836 C211.556,249.836 212.988,250.42 214.476,251.588 L214.476,251.588 L215.508,249.332 C214.804,248.708 213.972,248.224 213.012,247.88 C212.052,247.536 211.068,247.364 210.06,247.364 C208.636,247.364 207.404,247.72 206.364,248.432 C205.324,249.144 204.528,250.176 203.976,251.528 C203.424,252.88 203.148,254.484 203.148,256.34 C203.148,259.028 203.728,261.096 204.888,262.544 C206.048,263.992 207.7,264.716 209.844,264.716 Z M209.7,262.268 C208.804,262.268 208.08,261.984 207.528,261.416 C206.976,260.848 206.7,260.1 206.7,259.172 C206.7,258.26 206.976,257.52 207.528,256.952 C208.08,256.384 208.796,256.1 209.676,256.1 C210.556,256.1 211.26,256.38 211.788,256.94 C212.316,257.5 212.58,258.244 212.58,259.172 C212.58,260.116 212.32,260.868 211.8,261.428 C211.28,261.988 210.58,262.268 209.7,262.268 Z M221.316,268.82 L221.316,262.7 C221.668,263.324 222.172,263.812 222.828,264.164 C223.484,264.516 224.228,264.692 225.06,264.692 C226.084,264.692 226.988,264.444 227.772,263.948 C228.556,263.452 229.168,262.748 229.608,261.836 C230.048,260.924 230.268,259.86 230.268,258.644 C230.268,257.428 230.048,256.352 229.608,255.416 C229.168,254.48 228.552,253.756 227.76,253.244 C226.968,252.732 226.068,252.476 225.06,252.476 C224.212,252.476 223.456,252.656 222.792,253.016 C222.128,253.376 221.62,253.884 221.268,254.54 L221.268,254.54 L221.268,252.764 L218.316,252.764 L218.316,268.82 L221.316,268.82 Z M224.268,262.364 C223.308,262.364 222.568,262.036 222.048,261.38 C221.528,260.724 221.268,259.796 221.268,258.596 C221.268,257.38 221.528,256.444 222.048,255.788 C222.568,255.132 223.308,254.804 224.268,254.804 C225.212,254.804 225.948,255.14 226.476,255.812 C227.004,256.484 227.268,257.428 227.268,258.644 C227.268,259.828 227.004,260.744 226.476,261.392 C225.948,262.04 225.212,262.364 224.268,262.364 Z M234.492,264.5 L237.588,260.588 L240.708,264.5 L244.26,264.5 L239.316,258.452 L243.972,252.764 L240.396,252.764 L237.588,256.34 L234.78,252.764 L231.204,252.764 L235.86,258.452 L230.94,264.5 L234.492,264.5 Z" id="116px" fill="#FF375F" fill-rule="nonzero" transform="translate(209.652000, 258.092000) rotate(-90.000000) translate(-209.652000, -258.092000) "></path>
        <path d="M1194.028,535.216 C1195.452,535.216 1196.684,534.86 1197.724,534.148 C1198.764,533.436 1199.56,532.404 1200.112,531.052 C1200.664,529.7 1200.94,528.096 1200.94,526.24 C1200.94,523.552 1200.36,521.484 1199.2,520.036 C1198.04,518.588 1196.388,517.864 1194.244,517.864 C1193.156,517.864 1192.184,518.104 1191.328,518.584 C1190.472,519.064 1189.8,519.732 1189.312,520.588 C1188.824,521.444 1188.58,522.416 1188.58,523.504 C1188.58,524.56 1188.8,525.5 1189.24,526.324 C1189.68,527.148 1190.292,527.788 1191.076,528.244 C1191.86,528.7 1192.756,528.928 1193.764,528.928 C1194.676,528.928 1195.5,528.716 1196.236,528.292 C1196.972,527.868 1197.524,527.296 1197.892,526.576 C1197.86,528.576 1197.504,530.104 1196.824,531.16 C1196.144,532.216 1195.172,532.744 1193.908,532.744 C1192.532,532.744 1191.1,532.16 1189.612,530.992 L1189.612,530.992 L1188.58,533.248 C1189.284,533.872 1190.116,534.356 1191.076,534.7 C1192.036,535.044 1193.02,535.216 1194.028,535.216 Z M1194.412,526.48 C1193.532,526.48 1192.828,526.2 1192.3,525.64 C1191.772,525.08 1191.508,524.336 1191.508,523.408 C1191.508,522.48 1191.772,521.732 1192.3,521.164 C1192.828,520.596 1193.532,520.312 1194.412,520.312 C1195.308,520.312 1196.032,520.596 1196.584,521.164 C1197.136,521.732 1197.412,522.48 1197.412,523.408 C1197.412,524.32 1197.136,525.06 1196.584,525.628 C1196.032,526.196 1195.308,526.48 1194.412,526.48 Z M1210.012,535.216 C1211.1,535.216 1212.076,534.976 1212.94,534.496 C1213.804,534.016 1214.476,533.348 1214.956,532.492 C1215.436,531.636 1215.676,530.664 1215.676,529.576 C1215.676,528.52 1215.456,527.58 1215.016,526.756 C1214.576,525.932 1213.964,525.292 1213.18,524.836 C1212.396,524.38 1211.508,524.152 1210.516,524.152 C1209.604,524.152 1208.78,524.356 1208.044,524.764 C1207.308,525.172 1206.756,525.736 1206.388,526.456 C1206.42,524.472 1206.78,522.956 1207.468,521.908 C1208.156,520.86 1209.116,520.336 1210.348,520.336 C1211.724,520.336 1213.156,520.92 1214.644,522.088 L1214.644,522.088 L1215.676,519.832 C1214.972,519.208 1214.14,518.724 1213.18,518.38 C1212.22,518.036 1211.236,517.864 1210.228,517.864 C1208.804,517.864 1207.572,518.22 1206.532,518.932 C1205.492,519.644 1204.696,520.676 1204.144,522.028 C1203.592,523.38 1203.316,524.984 1203.316,526.84 C1203.316,529.528 1203.896,531.596 1205.056,533.044 C1206.216,534.492 1207.868,535.216 1210.012,535.216 Z M1209.868,532.768 C1208.972,532.768 1208.248,532.484 1207.696,531.916 C1207.144,531.348 1206.868,530.6 1206.868,529.672 C1206.868,528.76 1207.144,528.02 1207.696,527.452 C1208.248,526.884 1208.964,526.6 1209.844,526.6 C1210.724,526.6 1211.428,526.88 1211.956,527.44 C1212.484,528 1212.748,528.744 1212.748,529.672 C1212.748,530.616 1212.488,531.368 1211.968,531.928 C1211.448,532.488 1210.748,532.768 1209.868,532.768 Z M1221.484,539.32 L1221.484,533.2 C1221.836,533.824 1222.34,534.312 1222.996,534.664 C1223.652,535.016 1224.396,535.192 1225.228,535.192 C1226.252,535.192 1227.156,534.944 1227.94,534.448 C1228.724,533.952 1229.336,533.248 1229.776,532.336 C1230.216,531.424 1230.436,530.36 1230.436,529.144 C1230.436,527.928 1230.216,526.852 1229.776,525.916 C1229.336,524.98 1228.72,524.256 1227.928,523.744 C1227.136,523.232 1226.236,522.976 1225.228,522.976 C1224.38,522.976 1223.624,523.156 1222.96,523.516 C1222.296,523.876 1221.788,524.384 1221.436,525.04 L1221.436,525.04 L1221.436,523.264 L1218.484,523.264 L1218.484,539.32 L1221.484,539.32 Z M1224.436,532.864 C1223.476,532.864 1222.736,532.536 1222.216,531.88 C1221.696,531.224 1221.436,530.296 1221.436,529.096 C1221.436,527.88 1221.696,526.944 1222.216,526.288 C1222.736,525.632 1223.476,525.304 1224.436,525.304 C1225.38,525.304 1226.116,525.64 1226.644,526.312 C1227.172,526.984 1227.436,527.928 1227.436,529.144 C1227.436,530.328 1227.172,531.244 1226.644,531.892 C1226.116,532.54 1225.38,532.864 1224.436,532.864 Z M1234.66,535 L1237.756,531.088 L1240.876,535 L1244.428,535 L1239.484,528.952 L1244.14,523.264 L1240.564,523.264 L1237.756,526.84 L1234.948,523.264 L1231.372,523.264 L1236.028,528.952 L1231.108,535 L1234.66,535 Z" id="96px" fill="#FF375F" fill-rule="nonzero"></path>
        <path d="M1464.928,265.5 L1464.928,263.004 L1461.256,263.004 L1461.256,248.58 L1459.048,248.58 L1454.032,251.604 L1455.256,253.86 L1458.16,252.108 L1458.16,263.004 L1454.488,263.004 L1454.488,265.5 L1464.928,265.5 Z M1479.592,265.5 L1479.592,263.004 L1475.92,263.004 L1475.92,248.58 L1473.712,248.58 L1468.696,251.604 L1469.92,253.86 L1472.824,252.108 L1472.824,263.004 L1469.152,263.004 L1469.152,265.5 L1479.592,265.5 Z M1494.208,265.5 L1494.208,263.004 L1486.696,263.004 L1490.848,258.588 C1491.84,257.532 1492.544,256.576 1492.96,255.72 C1493.376,254.864 1493.584,253.948 1493.584,252.972 C1493.584,251.564 1493.088,250.444 1492.096,249.612 C1491.104,248.78 1489.76,248.364 1488.064,248.364 C1487.008,248.364 1485.956,248.544 1484.908,248.904 C1483.86,249.264 1483,249.74 1482.328,250.332 L1482.328,250.332 L1483.36,252.588 C1484.896,251.42 1486.424,250.836 1487.944,250.836 C1488.792,250.836 1489.436,251.032 1489.876,251.424 C1490.316,251.816 1490.536,252.396 1490.536,253.164 C1490.536,253.772 1490.38,254.384 1490.068,255 C1489.756,255.616 1489.264,256.292 1488.592,257.028 L1488.592,257.028 L1482.832,263.22 L1482.832,265.5 L1494.208,265.5 Z M1500.328,269.82 L1500.328,263.7 C1500.68,264.324 1501.184,264.812 1501.84,265.164 C1502.496,265.516 1503.24,265.692 1504.072,265.692 C1505.096,265.692 1506,265.444 1506.784,264.948 C1507.568,264.452 1508.18,263.748 1508.62,262.836 C1509.06,261.924 1509.28,260.86 1509.28,259.644 C1509.28,258.428 1509.06,257.352 1508.62,256.416 C1508.18,255.48 1507.564,254.756 1506.772,254.244 C1505.98,253.732 1505.08,253.476 1504.072,253.476 C1503.224,253.476 1502.468,253.656 1501.804,254.016 C1501.14,254.376 1500.632,254.884 1500.28,255.54 L1500.28,255.54 L1500.28,253.764 L1497.328,253.764 L1497.328,269.82 L1500.328,269.82 Z M1503.28,263.364 C1502.32,263.364 1501.58,263.036 1501.06,262.38 C1500.54,261.724 1500.28,260.796 1500.28,259.596 C1500.28,258.38 1500.54,257.444 1501.06,256.788 C1501.58,256.132 1502.32,255.804 1503.28,255.804 C1504.224,255.804 1504.96,256.14 1505.488,256.812 C1506.016,257.484 1506.28,258.428 1506.28,259.644 C1506.28,260.828 1506.016,261.744 1505.488,262.392 C1504.96,263.04 1504.224,263.364 1503.28,263.364 Z M1513.504,265.5 L1516.6,261.588 L1519.72,265.5 L1523.272,265.5 L1518.328,259.452 L1522.984,253.764 L1519.408,253.764 L1516.6,257.34 L1513.792,253.764 L1510.216,253.764 L1514.872,259.452 L1509.952,265.5 L1513.504,265.5 Z" id="112px" fill="#FF375F" fill-rule="nonzero" transform="translate(1488.652000, 259.092000) rotate(90.000000) translate(-1488.652000, -259.092000) "></path>
    </g>
</svg>