<?xml version="1.0" encoding="UTF-8"?>
<svg width="129px" height="129px" viewBox="0 0 129 129" version="1.1" xmlns="http://www.w3.org/2000/svg" xmlns:xlink="http://www.w3.org/1999/xlink">
    <title>grid</title>
    <g id="grid" stroke="none" stroke-width="1" fill="none" fill-rule="evenodd" opacity="0.50125558">
        <g stroke="#979797">
            <rect id="Rectangle" opacity="0.25" x="16.5" y="16.5" width="96" height="96"></rect>
            <circle id="Oval" opacity="0.75" cx="64.5" cy="64.5" r="48"></circle>
            <circle id="Oval-Copy-2" opacity="0.25" cx="64.5" cy="64.5" r="32"></circle>
            <circle id="Oval-Copy" opacity="0.25" cx="64.5" cy="64.5" r="58"></circle>
            <line x1="0.5" y1="64.5" x2="128.5" y2="64.5" id="Line" stroke-linecap="square"></line>
            <line x1="0.5" y1="48.5" x2="128.5" y2="48.5" id="Line-Copy" opacity="0.25" stroke-linecap="square"></line>
            <line x1="128.5" y1="56.5" x2="0.5" y2="56.5" id="Line-13" opacity="0.1" stroke-linecap="square"></line>
            <line x1="128.5" y1="40.5" x2="0.5" y2="40.5" id="Line-13-Copy-2" opacity="0.1" stroke-linecap="square"></line>
            <line x1="128.5" y1="24.5" x2="0.5" y2="24.5" id="Line-13-Copy-3" opacity="0.1" stroke-linecap="square"></line>
            <line x1="128.5" y1="72.5" x2="0.5" y2="72.5" id="Line-13-Copy" opacity="0.1" stroke-linecap="square"></line>
            <line x1="128.5" y1="88.5" x2="0.5" y2="88.5" id="Line-13-Copy-4" opacity="0.1" stroke-linecap="square"></line>
            <line x1="128.5" y1="104.5" x2="0.5" y2="104.5" id="Line-13-Copy-5" opacity="0.1" stroke-linecap="square"></line>
            <line x1="0.5" y1="32.5" x2="128.5" y2="32.5" id="Line-Copy-4" opacity="0.25" stroke-linecap="square"></line>
            <line x1="0.5" y1="80.5" x2="128.5" y2="80.5" id="Line-Copy-2" opacity="0.25" stroke-linecap="square"></line>
            <line x1="0.5" y1="96.5" x2="128.5" y2="96.5" id="Line-Copy-3" opacity="0.25" stroke-linecap="square"></line>
            <line x1="64.5" y1="0.5" x2="64.5" y2="128.5" id="Line-2" stroke-linecap="square"></line>
            <line x1="80.5" y1="0.5" x2="80.5" y2="128.5" id="Line-2-Copy" opacity="0.25" stroke-linecap="square"></line>
            <line x1="48.5" y1="0.5" x2="48.5" y2="128.5" id="Line-2-Copy-3" opacity="0.25" stroke-linecap="square"></line>
            <line x1="32.5" y1="0.5" x2="32.5" y2="128.5" id="Line-2-Copy-4" opacity="0.25" stroke-linecap="square"></line>
            <line x1="96.5" y1="0.5" x2="96.5" y2="128.5" id="Line-2-Copy-2" opacity="0.25" stroke-linecap="square"></line>
            <line x1="16.5" y1="112.5" x2="112.5" y2="16.5" id="Line-3" opacity="0.75" stroke-linecap="square"></line>
            <line x1="16.5" y1="16.5" x2="112.5" y2="112.5" id="Line-4" opacity="0.75" stroke-linecap="square"></line>
            <line x1="48.5" y1="16.5" x2="112.5" y2="80.5" id="Line-5" opacity="0.25" stroke-linecap="square"></line>
            <line x1="80.5" y1="16.5" x2="112.5" y2="48.5" id="Line-6" opacity="0.25" stroke-linecap="square"></line>
            <line x1="16.5" y1="48.5" x2="80.5" y2="112.5" id="Line-7" opacity="0.25" stroke-linecap="square"></line>
            <line x1="16.5" y1="80.5" x2="48.5" y2="112.5" id="Line-8" opacity="0.25" stroke-linecap="square"></line>
            <line x1="48.5" y1="112.5" x2="112.5" y2="48.5" id="Line-9" opacity="0.25" stroke-linecap="square"></line>
            <line x1="80.5" y1="112.5" x2="112.5" y2="80.5" id="Line-10" opacity="0.25" stroke-linecap="square"></line>
            <line x1="16.5" y1="80.5" x2="80.5" y2="16.5" id="Line-11" opacity="0.25" stroke-linecap="square"></line>
            <line x1="16.5" y1="48.5" x2="48.5" y2="16.5" id="Line-12" opacity="0.25" stroke-linecap="square"></line>
            <line x1="56.5" y1="128.5" x2="56.5" y2="0.5" id="Line-14" opacity="0.1" stroke-linecap="square"></line>
            <line x1="72.5" y1="128.5" x2="72.5" y2="0.5" id="Line-14-Copy-3" opacity="0.1" stroke-linecap="square"></line>
            <line x1="88.5" y1="128.5" x2="88.5" y2="0.5" id="Line-14-Copy-4" opacity="0.1" stroke-linecap="square"></line>
            <line x1="104.5" y1="128.5" x2="104.5" y2="0.5" id="Line-14-Copy-5" opacity="0.1" stroke-linecap="square"></line>
            <line x1="40.5" y1="128.5" x2="40.5" y2="0.5" id="Line-14-Copy" opacity="0.1" stroke-linecap="square"></line>
            <line x1="24.5" y1="128.5" x2="24.5" y2="0.5" id="Line-14-Copy-2" opacity="0.1" stroke-linecap="square"></line>
        </g>
    </g>
</svg>