<?xml version="1.0" encoding="UTF-8"?>
<svg width="1696px" height="448px" viewBox="0 0 1696 448" version="1.1" xmlns="http://www.w3.org/2000/svg" xmlns:xlink="http://www.w3.org/1999/xlink">
    <title>gridline-usage</title>
    <g id="gridline-usage" stroke="none" stroke-width="1" fill="none" fill-rule="evenodd" transform="translate(-0.000000, 0.000000)">
        <g id="ex1" transform="translate(188.000000, 0.500000)">
            <path d="M106.5,202.5 L106.5,154.5 C106.5,127.990332 127.990332,106.5 154.5,106.5 L309,106.5 L309,106.5" id="Path-6" stroke="#9E9E9E" stroke-width="36"></path>
            <g id="grid" opacity="0.2" stroke="#9E9E9E" stroke-width="21">
                <line x1="10.5" y1="0" x2="10.5" y2="309" id="Path-4"></line>
                <line x1="298.5" y1="0" x2="298.5" y2="309" id="Path-4-Copy-3"></line>
                <line x1="308.5" y1="10.5" x2="0" y2="10.5" id="Path-4-Copy-4"></line>
                <line x1="308.5" y1="106.5" x2="0" y2="106.5" id="Path-4-Copy-5"></line>
                <line x1="308.5" y1="202.5" x2="0" y2="202.5" id="Path-4-Copy-6"></line>
                <line x1="308.5" y1="298.5" x2="0" y2="298.5" id="Path-4-Copy-7"></line>
                <line x1="308.5" y1="0.5" x2="0" y2="309" id="Path-4-Copy-8"></line>
                <line x1="106.5" y1="0" x2="106.5" y2="309" id="Path-4-Copy"></line>
                <line x1="202.5" y1="0" x2="202.5" y2="309" id="Path-4-Copy-2"></line>
            </g>
            <line x1="106.5" y1="309" x2="106.5" y2="0" id="Path-10" stroke="#979797"></line>
            <line x1="0" y1="106.5" x2="308.5" y2="106.5" id="Path-11" stroke="#979797"></line>
            <line x1="0" y1="106.5" x2="308.5" y2="106.5" id="Path-11-Copy" stroke="#979797"></line>
            <line x1="0" y1="202.5" x2="308.5" y2="202.5" id="Path-11-Copy-2" stroke="#979797"></line>
            <circle id="Oval" fill="#FF375F" cx="106.5" cy="202.5" r="5"></circle>
            <circle id="Oval-Copy" fill="#FF375F" cx="106.5" cy="106.5" r="5"></circle>
            <path d="M106.5,202.5 L106.5,154.5 C106.5,127.990332 127.990332,106.5 154.5,106.5 L309,106.5 L309,106.5" id="Path-8" stroke="#FF375F" stroke-width="2" stroke-dasharray="4,4"></path>
        </g>
        <g id="ex2" transform="translate(693.000000, 1.500000)">
            <path d="M106.5,201.5 L262.689579,46.1239084 C270.911974,37.9443388 284.208393,37.9790553 292.387963,46.2014499 C296.302532,50.1365149 298.5,55.4613221 298.5,61.011871 L298.5,309 L298.5,309" id="Path-7" stroke="#9E9E9E" stroke-width="36"></path>
            <g id="grid" opacity="0.2" stroke="#9E9E9E" stroke-width="21">
                <line x1="10.5" y1="0" x2="10.5" y2="309" id="Path-4"></line>
                <line x1="298.5" y1="0" x2="298.5" y2="309" id="Path-4-Copy-3"></line>
                <line x1="308.5" y1="10.5" x2="0" y2="10.5" id="Path-4-Copy-4"></line>
                <line x1="308.5" y1="106.5" x2="0" y2="106.5" id="Path-4-Copy-5"></line>
                <line x1="308.5" y1="202.5" x2="0" y2="202.5" id="Path-4-Copy-6"></line>
                <line x1="308.5" y1="298.5" x2="0" y2="298.5" id="Path-4-Copy-7"></line>
                <line x1="308.5" y1="0.5" x2="0" y2="309" id="Path-4-Copy-8"></line>
                <line x1="106.5" y1="0" x2="106.5" y2="309" id="Path-4-Copy"></line>
                <line x1="202.5" y1="0" x2="202.5" y2="309" id="Path-4-Copy-2"></line>
            </g>
            <line x1="0" y1="308" x2="309" y2="0" id="Path-12" stroke="#979797"></line>
            <line x1="1" y1="10.5" x2="309" y2="10.5" id="Path-12-Copy" stroke="#979797"></line>
            <line x1="298.5" y1="0" x2="298.5" y2="308" id="Path-13" stroke="#979797"></line>
            <circle id="Oval" fill="#FF375F" cx="298" cy="10.5" r="5"></circle>
            <circle id="Oval-Copy-2" fill="#FF375F" cx="106.5" cy="202.5" r="5"></circle>
            <path d="M106.5,202.5 L262.650758,46.3492424 C270.851768,38.1482323 284.148232,38.1482323 292.349242,46.3492424 C296.287506,50.2875064 298.5,55.6289385 298.5,61.1984848 L298.5,309 L298.5,309" id="Path-9" stroke="#FF375F" stroke-width="2" stroke-dasharray="4,4"></path>
        </g>
        <g id="ex3" transform="translate(1198.000000, 0.000000)">
            <path d="M213.5,117 L96.3545461,117.354986 C69.9017851,117.435146 48.5,138.901883 48.5,165.354766 L48.5,310.5 L48.5,310.5" id="Path-14" stroke="#9E9E9E" stroke-width="36"></path>
            <g id="grid" opacity="0.2" transform="translate(0.000000, 0.500000)" stroke="#9E9E9E" stroke-width="21">
                <line x1="10.5" y1="0" x2="10.5" y2="309" id="Path-4"></line>
                <line x1="298.5" y1="0" x2="298.5" y2="309" id="Path-4-Copy-3"></line>
                <line x1="308.5" y1="10.5" x2="0" y2="10.5" id="Path-4-Copy-4"></line>
                <line x1="308.5" y1="106.5" x2="0" y2="106.5" id="Path-4-Copy-5"></line>
                <line x1="308.5" y1="202.5" x2="0" y2="202.5" id="Path-4-Copy-6"></line>
                <line x1="308.5" y1="298.5" x2="0" y2="298.5" id="Path-4-Copy-7"></line>
                <line x1="308.5" y1="0.5" x2="0" y2="309" id="Path-4-Copy-8"></line>
                <line x1="106.5" y1="0" x2="106.5" y2="309" id="Path-4-Copy"></line>
                <line x1="202.5" y1="0" x2="202.5" y2="309" id="Path-4-Copy-2"></line>
            </g>
            <path d="M213.5,117 L96.3545461,117.354986 C69.9017851,117.435146 48.5,138.901883 48.5,165.354766 L48.5,310.5 L48.5,310.5" id="Path-9" stroke="#FF375F" stroke-width="2" stroke-dasharray="4,4"></path>
            <line x1="309" y1="107.5" x2="0" y2="107" id="Path-15" stroke="#979797"></line>
            <line x1="10.5" y1="1" x2="10.5" y2="310.5" id="Path-16" stroke="#979797"></line>
            <line x1="202.5" y1="0" x2="202.5" y2="309.5" id="Path-16-Copy" stroke="#979797"></line>
            <circle id="Oval-Copy-2" fill="#FF375F" cx="213.5" cy="117" r="5"></circle>
            <circle id="Oval-Copy-3" fill="#FF375F" cx="48.5" cy="117" r="5"></circle>
        </g>
        <path d="M342,349.5 C345.65992,349.5 347.652515,351.164712 349.820978,354.813448 L350.963956,356.791373 L351.130181,357.072939 C352.595811,359.508859 353.904962,360.808181 355.988624,361.566572 C358.13872,362.349143 359.856674,362.191745 362.848749,361.146457 L363.562623,360.889499 L365.127638,360.318557 L365.723991,360.110793 L366.230865,359.945144 L366.531893,359.854521 L366.947338,359.742915 L367.211459,359.681591 L367.607609,359.603841 L368.026805,359.536716 L368.176146,359.515445 L368.176146,359.515445 C370.197714,359.234553 372.049331,359.606068 373.764586,360.784429 C374.000913,360.946783 374.232896,361.123543 374.460774,361.314756 C375.932138,362.549376 376.812855,364.034725 377.159164,365.754261 L377.217849,366.079414 L372.280614,366.869171 C372.172424,366.192814 371.883872,365.679514 371.246836,365.144978 C371.140454,365.055713 371.036027,364.976144 370.933374,364.905622 L370.738821,364.779281 C370.706695,364.759725 370.67467,364.740924 370.642674,364.722886 L370.450474,364.623871 C370.000132,364.414474 369.527223,364.357516 368.833657,364.473524 L368.522327,364.533891 L368.180513,364.615797 L367.997091,364.664938 L367.997091,364.664938 L367.603053,364.779825 L367.169868,364.917147 L366.439109,365.165984 L365.892896,365.360968 L365.295407,365.579644 C360.835947,367.227201 357.988664,367.615416 354.278523,366.265035 C351.052996,365.091039 348.997765,363.123642 347.060683,360.002276 L346.732639,359.461262 L345.676633,357.630111 C345.577665,357.459424 345.481979,357.297392 345.3891,357.143634 L345.118416,356.706798 C344.021727,354.986883 343.289953,354.5 342,354.5 C340.561693,354.5 339.824767,355.102228 338.498895,357.349734 L337.518357,359.057675 L337.165253,359.656371 C335.171766,362.970874 333.076258,365.043994 329.721477,366.265035 C326.108963,367.579882 323.303701,367.262083 319.074704,365.751959 L318.039185,365.375854 L317.483405,365.178749 L316.976129,365.005443 L316.404904,364.821922 L316.404904,364.821922 L315.897141,364.674767 C314.430311,364.278791 313.76213,364.389415 313.003885,364.947659 L312.753164,365.144978 L312.650998,365.232748 L312.463371,365.407674 C311.786397,366.079946 311.592198,366.797219 311.768485,368.429166 L311.822803,368.876212 L311.934827,369.632094 L311.934827,369.632094 L312.138888,370.8172 C313.024321,375.709218 312.932808,378.545853 310.909688,382.05 C309.230997,384.957579 306.935804,386.682798 303.685502,388.010355 L303.440656,388.109036 L302.930344,388.306973 L301.892882,388.68708 L301.161678,388.948991 L300.603314,389.154391 L300.099653,389.349823 L299.647752,389.537741 C297.939743,390.27765 297.403364,390.896034 297.191247,392.099008 C296.953138,393.449393 297.386204,394.285691 299.099939,395.794427 L299.506964,396.144466 L301.122943,397.499118 C304.272673,400.188541 306.00319,402.591804 306.645402,406.23397 C307.296233,409.92502 306.513599,412.652385 304.397641,416.385137 L303.041811,418.737738 L302.842784,419.103609 L302.7039,419.386017 L302.610908,419.59925 L302.507897,419.849231 C302.028632,421.017604 302.036431,421.781068 302.595844,422.75 C303.214153,423.820943 303.885504,424.219628 305.791803,424.338083 L306.254178,424.360623 L306.763625,424.374284 L307.323372,424.380138 L308.707776,424.377401 L309.409655,424.38265 L310.051935,424.396463 L310.644267,424.420304 C310.834459,424.430085 311.017935,424.441781 311.196303,424.455637 L311.717692,424.503925 C312.481616,424.586806 313.17468,424.71835 313.943456,424.920787 C315.759534,425.399003 317.411494,426.231915 318.923925,427.500996 C321.107613,429.333327 322.394891,431.523849 323.169166,434.254715 L323.351064,434.940002 L323.489394,435.52586 L323.586389,435.989649 L323.725069,436.727654 L324.048513,438.577893 L324.149837,439.108731 L324.251214,439.590516 C324.709942,441.652515 325.219129,442.312351 326.438083,442.756014 C326.655241,442.835053 326.863432,442.863417 327.095649,442.847488 L327.240288,442.835239 L327.451021,442.806646 L327.591022,442.778728 L327.733559,442.742093 L327.881145,442.69534 L328.036288,442.637068 L328.2015,442.565878 L328.379291,442.480367 L328.57217,442.379138 L328.895273,442.194755 L329.266445,441.967126 L329.69416,441.691524 L330.367046,441.241262 L331.883117,440.194172 L332.407652,439.827601 C336.058969,437.27239 338.708966,436.022179 341.999606,435.908542 L342,435.9 L342.24,435.902 L342.5,435.9 C345.914212,436.016034 348.411993,437.250546 351.452738,439.733905 L353.410716,441.375289 L353.710823,441.616501 L353.852081,441.726984 C355.436852,442.954306 356.31471,443.20996 357.561917,442.756014 C358.721343,442.334018 359.229187,441.716881 359.668483,439.850048 L359.768907,439.396576 L359.86849,438.895857 L359.968824,438.34501 L360.286729,436.520628 L360.42792,435.793736 L360.531527,435.322586 L360.729783,434.538363 L360.729783,434.538363 C361.497744,431.686559 362.809881,429.402558 365.076075,427.500996 C366.513992,426.29444 368.076771,425.475957 369.782563,424.979923 C371.079257,424.602853 372.173522,424.435031 373.685603,424.371412 L374.479334,424.3478 L374.479334,424.3478 L375.359929,424.338637 L376.745505,424.340182 L377.299342,424.33408 L377.803234,424.3204 L378.260379,424.298103 C380.144673,424.181302 380.80232,423.79241 381.404156,422.75 C381.901689,421.888247 381.949012,421.192573 381.599713,420.205073 L381.465165,419.852542 L381.370163,419.618315 L381.275169,419.405799 L381.125155,419.108598 L380.842234,418.595794 L379.824528,416.826452 C377.540903,412.874875 376.678467,410.0685 377.354598,406.23397 C377.976015,402.709739 379.612354,400.346319 382.558857,397.77434 L383.075866,397.3326 L384.685291,395.987147 L385.097938,395.625153 C386.650321,394.227674 387.039327,393.40666 386.808753,392.099008 C386.609416,390.968514 386.126362,390.346935 384.67897,389.664681 L384.279066,389.484951 L383.713572,389.252994 L383.713572,389.252994 L383.070278,389.008836 L381.311321,388.372357 L383.052963,383.685495 L384.485802,384.20313 C384.705299,384.282265 384.919023,384.361311 385.127094,384.44053 L385.734462,384.678978 C389.376772,386.155882 391.124822,387.782802 391.732792,391.230767 C392.340967,394.679901 391.113123,396.987792 388.208989,399.548909 L387.856129,399.854188 L386.120896,401.304993 C383.774287,403.302875 382.680923,404.820734 382.278637,407.10221 C381.870248,409.4183 382.365728,411.165598 383.964266,413.993476 L385.011433,415.80562 L385.20177,416.145853 C385.610136,416.885692 385.921301,417.521675 386.171889,418.158839 C387.133002,420.602635 387.081694,422.916216 385.734283,425.25 C384.177687,427.946103 382.416399,428.939149 379.225664,429.234236 L378.664449,429.278172 C378.472558,429.290664 378.27577,429.301064 378.073858,429.30956 L377.452519,429.329523 L376.799061,429.339188 L375.429309,429.338563 L374.814313,429.343522 L374.259015,429.355618 L373.755308,429.375914 L373.295081,429.405471 C372.486235,429.468798 371.855724,429.584174 371.178699,429.781049 C370.126964,430.086886 369.185025,430.580214 368.290013,431.331218 C366.878305,432.515782 366.076915,433.910738 365.55779,435.838494 L365.458379,436.221796 L365.37168,436.590754 L365.263785,437.111913 L365.108902,437.958621 L364.891217,439.221264 L364.772225,439.863924 L364.647798,440.474725 C364.626535,440.573926 364.604991,440.671841 364.58314,440.768491 L364.448123,441.333383 C363.613259,444.633678 362.309336,446.348984 359.272017,447.454477 C356.138878,448.594847 353.599181,447.855226 350.790587,445.680116 L350.443241,445.406074 L350.073386,445.104472 L348.586915,443.851855 C346.258807,441.90655 344.65255,441.042156 342.558215,440.916303 L342.243552,440.903963 C340.202827,440.96749 338.361703,441.798764 335.609178,443.691849 L333.832024,444.929523 L332.86523,445.592494 L332.038721,446.142151 L331.67056,446.378041 L331.166229,446.687199 L330.710374,446.947012 L330.710374,446.947012 L330.428391,447.095175 L330.095291,447.254702 L330.095291,447.254702 L329.778242,447.38829 C329.695314,447.420702 329.613472,447.450643 329.532214,447.47835 L329.289696,447.555009 L329.047681,447.619686 L328.679027,447.697349 L328.679027,447.697349 L328.42512,447.738294 L328.161195,447.772234 L327.73995,447.813119 L327.437831,447.835765 C326.516884,447.89894 325.609471,447.775313 324.727983,447.454477 C321.421859,446.251147 320.159227,444.32803 319.321666,440.434586 L319.195946,439.819881 L319.075624,439.173074 L318.807018,437.630299 L318.650571,436.811834 L318.563478,436.415258 L318.469438,436.03117 L318.434846,435.897659 C317.917673,433.923649 317.123086,432.516949 315.709987,431.331218 C314.777228,430.54854 313.790158,430.050863 312.670241,429.755963 L312.303945,429.666173 C312.182471,429.638701 312.061123,429.613629 311.93841,429.59078 L311.564681,429.528727 L311.173804,429.478958 L310.756826,429.440417 L310.304792,429.412048 L309.808749,429.392794 L309.259743,429.381599 L308.317341,429.377607 L307.967026,429.379162 C307.730735,429.380597 307.50028,429.380667 307.275429,429.379182 L306.617465,429.369875 C306.403596,429.365092 306.195103,429.358566 305.991756,429.350107 L305.396927,429.318743 C301.82119,429.087253 299.928321,428.129714 298.265717,425.25 C296.87393,422.839354 296.849708,420.468147 297.88196,417.951678 C298.131341,417.343727 298.434962,416.735452 298.829901,416.026628 L299.113681,415.5264 L299.842139,414.277902 C301.59317,411.262931 302.142299,409.489456 301.721363,407.10221 C301.336998,404.92237 300.316107,403.436017 298.163434,401.549932 L297.595002,401.064806 L296.049578,399.767985 C292.963025,397.110716 291.643189,394.769758 292.267208,391.230767 C292.904527,387.616354 294.802822,386.011955 298.831439,384.479917 L299.598571,384.197877 L300.658232,383.817169 L301.374344,383.548749 L301.794915,383.381567 C304.105087,382.437998 305.530974,381.366206 306.579561,379.55 C307.597285,377.787251 307.838368,376.271124 307.540023,373.778951 L307.454336,373.134866 L307.403321,372.796246 L307.403321,372.796246 L307.285464,372.083198 L307.005297,370.497883 L306.920665,369.984769 L306.850139,369.522212 L306.769735,368.905709 L306.769735,368.905709 L306.732345,368.534621 L306.707357,368.186152 C306.70104,368.072879 306.69671,367.962045 306.694284,367.85232 L306.69264,367.525143 C306.693942,367.416306 306.697068,367.307247 306.701937,367.196638 L306.721688,366.858823 L306.735332,366.683931 L306.735332,366.683931 C306.903937,364.672568 307.717152,362.95077 309.285329,361.535645 L309.606588,361.258775 L309.646352,361.2262 C311.405932,359.793421 313.350137,359.268076 315.489284,359.502938 L315.932721,359.55722 L316.209031,359.598681 L316.478305,359.646601 L316.747756,359.702901 L317.024596,359.769501 L317.31604,359.848322 L317.629299,359.941285 L317.971586,360.050309 L318.350115,360.177316 L319.24475,360.492961 L320.370906,360.903583 C320.617917,360.994312 320.856659,361.079816 321.087909,361.160069 L321.759956,361.385042 C324.364433,362.221689 326.00162,362.298063 328.011376,361.566572 C330.017242,360.836496 331.307129,359.614927 332.691132,357.389135 L332.996104,356.884057 L334.020921,355.102887 L334.20096,354.795396 L334.558963,354.207799 C336.582472,350.981071 338.548344,349.5 342,349.5 Z M384.232233,366.232233 L387.767767,369.767767 L342.596194,414.93934 C340.119699,417.415835 336.142035,417.476238 333.592312,415.120547 L333.403806,414.93934 L320.232233,401.767767 L323.767767,398.232233 L336.93934,411.403806 C337.488515,411.952981 338.357577,411.987304 338.946738,411.506776 L339.06066,411.403806 L384.232233,366.232233 Z" id="Shape" fill="#32D74B" fill-rule="nonzero"></path>
        <path d="M848,349.5 C851.65992,349.5 853.652515,351.164712 855.820978,354.813448 L856.963956,356.791373 L857.130181,357.072939 C858.595811,359.508859 859.904962,360.808181 861.988624,361.566572 C864.13872,362.349143 865.856674,362.191745 868.848749,361.146457 L869.562623,360.889499 L871.127638,360.318557 L871.723991,360.110793 L872.230865,359.945144 L872.531893,359.854521 L872.947338,359.742915 L873.211459,359.681591 L873.607609,359.603841 L874.026805,359.536716 L874.176146,359.515445 L874.176146,359.515445 C876.197714,359.234553 878.049331,359.606068 879.764586,360.784429 C880.000913,360.946783 880.232896,361.123543 880.460774,361.314756 C881.932138,362.549376 882.812855,364.034725 883.159164,365.754261 L883.217849,366.079414 L878.280614,366.869171 C878.172424,366.192814 877.883872,365.679514 877.246836,365.144978 C877.140454,365.055713 877.036027,364.976144 876.933374,364.905622 L876.738821,364.779281 C876.706695,364.759725 876.67467,364.740924 876.642674,364.722886 L876.450474,364.623871 C876.000132,364.414474 875.527223,364.357516 874.833657,364.473524 L874.522327,364.533891 L874.180513,364.615797 L873.997091,364.664938 L873.997091,364.664938 L873.603053,364.779825 L873.169868,364.917147 L872.439109,365.165984 L871.892896,365.360968 L871.295407,365.579644 C866.835947,367.227201 863.988664,367.615416 860.278523,366.265035 C857.052996,365.091039 854.997765,363.123642 853.060683,360.002276 L852.732639,359.461262 L851.676633,357.630111 C851.577665,357.459424 851.481979,357.297392 851.3891,357.143634 L851.118416,356.706798 C850.021727,354.986883 849.289953,354.5 848,354.5 C846.561693,354.5 845.824767,355.102228 844.498895,357.349734 L843.518357,359.057675 L843.165253,359.656371 C841.171766,362.970874 839.076258,365.043994 835.721477,366.265035 C832.108963,367.579882 829.303701,367.262083 825.074704,365.751959 L824.039185,365.375854 L823.483405,365.178749 L822.976129,365.005443 L822.404904,364.821922 L822.404904,364.821922 L821.897141,364.674767 C820.430311,364.278791 819.76213,364.389415 819.003885,364.947659 L818.753164,365.144978 L818.650998,365.232748 L818.463371,365.407674 C817.786397,366.079946 817.592198,366.797219 817.768485,368.429166 L817.822803,368.876212 L817.934827,369.632094 L817.934827,369.632094 L818.138888,370.8172 C819.024321,375.709218 818.932808,378.545853 816.909688,382.05 C815.230997,384.957579 812.935804,386.682798 809.685502,388.010355 L809.440656,388.109036 L808.930344,388.306973 L807.892882,388.68708 L807.161678,388.948991 L806.603314,389.154391 L806.099653,389.349823 L805.647752,389.537741 C803.939743,390.27765 803.403364,390.896034 803.191247,392.099008 C802.953138,393.449393 803.386204,394.285691 805.099939,395.794427 L805.506964,396.144466 L807.122943,397.499118 C810.272673,400.188541 812.00319,402.591804 812.645402,406.23397 C813.296233,409.92502 812.513599,412.652385 810.397641,416.385137 L809.041811,418.737738 L808.842784,419.103609 L808.7039,419.386017 L808.610908,419.59925 L808.507897,419.849231 C808.028632,421.017604 808.036431,421.781068 808.595844,422.75 C809.214153,423.820943 809.885504,424.219628 811.791803,424.338083 L812.254178,424.360623 L812.763625,424.374284 L813.323372,424.380138 L814.707776,424.377401 L815.409655,424.38265 L816.051935,424.396463 L816.644267,424.420304 C816.834459,424.430085 817.017935,424.441781 817.196303,424.455637 L817.717692,424.503925 C818.481616,424.586806 819.17468,424.71835 819.943456,424.920787 C821.759534,425.399003 823.411494,426.231915 824.923925,427.500996 C827.107613,429.333327 828.394891,431.523849 829.169166,434.254715 L829.351064,434.940002 L829.489394,435.52586 L829.586389,435.989649 L829.725069,436.727654 L830.048513,438.577893 L830.149837,439.108731 L830.251214,439.590516 C830.709942,441.652515 831.219129,442.312351 832.438083,442.756014 C832.655241,442.835053 832.863432,442.863417 833.095649,442.847488 L833.240288,442.835239 L833.451021,442.806646 L833.591022,442.778728 L833.733559,442.742093 L833.881145,442.69534 L834.036288,442.637068 L834.2015,442.565878 L834.379291,442.480367 L834.57217,442.379138 L834.895273,442.194755 L835.266445,441.967126 L835.69416,441.691524 L836.367046,441.241262 L837.883117,440.194172 L838.407652,439.827601 C842.058969,437.27239 844.708966,436.022179 847.999606,435.908542 L848,435.9 L848.24,435.902 L848.5,435.9 C851.914212,436.016034 854.411993,437.250546 857.452738,439.733905 L859.410716,441.375289 L859.710823,441.616501 L859.852081,441.726984 C861.436852,442.954306 862.31471,443.20996 863.561917,442.756014 C864.721343,442.334018 865.229187,441.716881 865.668483,439.850048 L865.768907,439.396576 L865.86849,438.895857 L865.968824,438.34501 L866.286729,436.520628 L866.42792,435.793736 L866.531527,435.322586 L866.729783,434.538363 L866.729783,434.538363 C867.497744,431.686559 868.809881,429.402558 871.076075,427.500996 C872.513992,426.29444 874.076771,425.475957 875.782563,424.979923 C877.079257,424.602853 878.173522,424.435031 879.685603,424.371412 L880.479334,424.3478 L880.479334,424.3478 L881.359929,424.338637 L882.745505,424.340182 L883.299342,424.33408 L883.803234,424.3204 L884.260379,424.298103 C886.144673,424.181302 886.80232,423.79241 887.404156,422.75 C887.901689,421.888247 887.949012,421.192573 887.599713,420.205073 L887.465165,419.852542 L887.370163,419.618315 L887.275169,419.405799 L887.125155,419.108598 L886.842234,418.595794 L885.824528,416.826452 C883.540903,412.874875 882.678467,410.0685 883.354598,406.23397 C883.976015,402.709739 885.612354,400.346319 888.558857,397.77434 L889.075866,397.3326 L890.685291,395.987147 L891.097938,395.625153 C892.650321,394.227674 893.039327,393.40666 892.808753,392.099008 C892.609416,390.968514 892.126362,390.346935 890.67897,389.664681 L890.279066,389.484951 L889.713572,389.252994 L889.713572,389.252994 L889.070278,389.008836 L887.311321,388.372357 L889.052963,383.685495 L890.485802,384.20313 C890.705299,384.282265 890.919023,384.361311 891.127094,384.44053 L891.734462,384.678978 C895.376772,386.155882 897.124822,387.782802 897.732792,391.230767 C898.340967,394.679901 897.113123,396.987792 894.208989,399.548909 L893.856129,399.854188 L892.120896,401.304993 C889.774287,403.302875 888.680923,404.820734 888.278637,407.10221 C887.870248,409.4183 888.365728,411.165598 889.964266,413.993476 L891.011433,415.80562 L891.20177,416.145853 C891.610136,416.885692 891.921301,417.521675 892.171889,418.158839 C893.133002,420.602635 893.081694,422.916216 891.734283,425.25 C890.177687,427.946103 888.416399,428.939149 885.225664,429.234236 L884.664449,429.278172 C884.472558,429.290664 884.27577,429.301064 884.073858,429.30956 L883.452519,429.329523 L882.799061,429.339188 L881.429309,429.338563 L880.814313,429.343522 L880.259015,429.355618 L879.755308,429.375914 L879.295081,429.405471 C878.486235,429.468798 877.855724,429.584174 877.178699,429.781049 C876.126964,430.086886 875.185025,430.580214 874.290013,431.331218 C872.878305,432.515782 872.076915,433.910738 871.55779,435.838494 L871.458379,436.221796 L871.37168,436.590754 L871.263785,437.111913 L871.108902,437.958621 L870.891217,439.221264 L870.772225,439.863924 L870.647798,440.474725 C870.626535,440.573926 870.604991,440.671841 870.58314,440.768491 L870.448123,441.333383 C869.613259,444.633678 868.309336,446.348984 865.272017,447.454477 C862.138878,448.594847 859.599181,447.855226 856.790587,445.680116 L856.443241,445.406074 L856.073386,445.104472 L854.586915,443.851855 C852.258807,441.90655 850.65255,441.042156 848.558215,440.916303 L848.243552,440.903963 C846.202827,440.96749 844.361703,441.798764 841.609178,443.691849 L839.832024,444.929523 L838.86523,445.592494 L838.038721,446.142151 L837.67056,446.378041 L837.166229,446.687199 L836.710374,446.947012 L836.710374,446.947012 L836.428391,447.095175 L836.095291,447.254702 L836.095291,447.254702 L835.778242,447.38829 C835.695314,447.420702 835.613472,447.450643 835.532214,447.47835 L835.289696,447.555009 L835.047681,447.619686 L834.679027,447.697349 L834.679027,447.697349 L834.42512,447.738294 L834.161195,447.772234 L833.73995,447.813119 L833.437831,447.835765 C832.516884,447.89894 831.609471,447.775313 830.727983,447.454477 C827.421859,446.251147 826.159227,444.32803 825.321666,440.434586 L825.195946,439.819881 L825.075624,439.173074 L824.807018,437.630299 L824.650571,436.811834 L824.563478,436.415258 L824.469438,436.03117 L824.434846,435.897659 C823.917673,433.923649 823.123086,432.516949 821.709987,431.331218 C820.777228,430.54854 819.790158,430.050863 818.670241,429.755963 L818.303945,429.666173 C818.182471,429.638701 818.061123,429.613629 817.93841,429.59078 L817.564681,429.528727 L817.173804,429.478958 L816.756826,429.440417 L816.304792,429.412048 L815.808749,429.392794 L815.259743,429.381599 L814.317341,429.377607 L813.967026,429.379162 C813.730735,429.380597 813.50028,429.380667 813.275429,429.379182 L812.617465,429.369875 C812.403596,429.365092 812.195103,429.358566 811.991756,429.350107 L811.396927,429.318743 C807.82119,429.087253 805.928321,428.129714 804.265717,425.25 C802.87393,422.839354 802.849708,420.468147 803.88196,417.951678 C804.131341,417.343727 804.434962,416.735452 804.829901,416.026628 L805.113681,415.5264 L805.842139,414.277902 C807.59317,411.262931 808.142299,409.489456 807.721363,407.10221 C807.336998,404.92237 806.316107,403.436017 804.163434,401.549932 L803.595002,401.064806 L802.049578,399.767985 C798.963025,397.110716 797.643189,394.769758 798.267208,391.230767 C798.904527,387.616354 800.802822,386.011955 804.831439,384.479917 L805.598571,384.197877 L806.658232,383.817169 L807.374344,383.548749 L807.794915,383.381567 C810.105087,382.437998 811.530974,381.366206 812.579561,379.55 C813.597285,377.787251 813.838368,376.271124 813.540023,373.778951 L813.454336,373.134866 L813.403321,372.796246 L813.403321,372.796246 L813.285464,372.083198 L813.005297,370.497883 L812.920665,369.984769 L812.850139,369.522212 L812.769735,368.905709 L812.769735,368.905709 L812.732345,368.534621 L812.707357,368.186152 C812.70104,368.072879 812.69671,367.962045 812.694284,367.85232 L812.69264,367.525143 C812.693942,367.416306 812.697068,367.307247 812.701937,367.196638 L812.721688,366.858823 L812.735332,366.683931 L812.735332,366.683931 C812.903937,364.672568 813.717152,362.95077 815.285329,361.535645 L815.606588,361.258775 L815.646352,361.2262 C817.405932,359.793421 819.350137,359.268076 821.489284,359.502938 L821.932721,359.55722 L822.209031,359.598681 L822.478305,359.646601 L822.747756,359.702901 L823.024596,359.769501 L823.31604,359.848322 L823.629299,359.941285 L823.971586,360.050309 L824.350115,360.177316 L825.24475,360.492961 L826.370906,360.903583 C826.617917,360.994312 826.856659,361.079816 827.087909,361.160069 L827.759956,361.385042 C830.364433,362.221689 832.00162,362.298063 834.011376,361.566572 C836.017242,360.836496 837.307129,359.614927 838.691132,357.389135 L838.996104,356.884057 L840.020921,355.102887 L840.20096,354.795396 L840.558963,354.207799 C842.582472,350.981071 844.548344,349.5 848,349.5 Z M890.232233,366.232233 L893.767767,369.767767 L848.596194,414.93934 C846.119699,417.415835 842.142035,417.476238 839.592312,415.120547 L839.403806,414.93934 L826.232233,401.767767 L829.767767,398.232233 L842.93934,411.403806 C843.488515,411.952981 844.357577,411.987304 844.946738,411.506776 L845.06066,411.403806 L890.232233,366.232233 Z" id="Shape-Copy" fill="#32D74B" fill-rule="nonzero"></path>
        <polygon id="Path" fill="#FF3B30" fill-rule="nonzero" points="1385 362 1388.53553 365.535534 1355.803 398.268 1388.53553 431 1385 434.535534 1352.268 401.803 1319.53553 434.535534 1316 431 1348.733 398.268 1317 366.535534 1320.53553 363 1352.268 394.733"></polygon>
    </g>
</svg>