<?xml version="1.0" encoding="UTF-8"?>
<svg width="1696px" height="384px" viewBox="0 0 1696 384" version="1.1" xmlns="http://www.w3.org/2000/svg" xmlns:xlink="http://www.w3.org/1999/xlink">
    <title>multiple-strokes-examples</title>
    <g id="multiple-strokes-examples" stroke="none" stroke-width="1" fill="none" fill-rule="evenodd">
        <g id="quote" transform="translate(208.000000, 64.000000)">
            <g id="Group" opacity="0.35" stroke="#979797" stroke-width="1.98449612">
                <g id="grid" opacity="0.50125558">
                    <rect id="Rectangle" opacity="0.25" x="32.744186" y="32.744186" width="190.511628" height="190.511628"></rect>
                    <circle id="Oval" opacity="0.75" cx="128" cy="128" r="95.255814"></circle>
                    <circle id="Oval-Copy-2" opacity="0.25" cx="128" cy="128" r="63.503876"></circle>
                    <circle id="Oval-Copy" opacity="0.25" cx="128" cy="128" r="115.100775"></circle>
                    <line x1="0.992248062" y1="128" x2="255.007752" y2="128" id="Line" stroke-linecap="square"></line>
                    <line x1="0.992248062" y1="96.248062" x2="255.007752" y2="96.248062" id="Line-Copy" opacity="0.25" stroke-linecap="square"></line>
                    <line x1="255.007752" y1="112.124031" x2="0.992248062" y2="112.124031" id="Line-13" opacity="0.1" stroke-linecap="square"></line>
                    <line x1="255.007752" y1="80.372093" x2="0.992248062" y2="80.372093" id="Line-13-Copy-2" opacity="0.1" stroke-linecap="square"></line>
                    <line x1="255.007752" y1="48.620155" x2="0.992248062" y2="48.620155" id="Line-13-Copy-3" opacity="0.1" stroke-linecap="square"></line>
                    <line x1="255.007752" y1="143.875969" x2="0.992248062" y2="143.875969" id="Line-13-Copy" opacity="0.1" stroke-linecap="square"></line>
                    <line x1="255.007752" y1="175.627907" x2="0.992248062" y2="175.627907" id="Line-13-Copy-4" opacity="0.1" stroke-linecap="square"></line>
                    <line x1="255.007752" y1="207.379845" x2="0.992248062" y2="207.379845" id="Line-13-Copy-5" opacity="0.1" stroke-linecap="square"></line>
                    <line x1="0.992248062" y1="64.496124" x2="255.007752" y2="64.496124" id="Line-Copy-4" opacity="0.25" stroke-linecap="square"></line>
                    <line x1="0.992248062" y1="159.751938" x2="255.007752" y2="159.751938" id="Line-Copy-2" opacity="0.25" stroke-linecap="square"></line>
                    <line x1="0.992248062" y1="191.503876" x2="255.007752" y2="191.503876" id="Line-Copy-3" opacity="0.25" stroke-linecap="square"></line>
                    <line x1="128" y1="0.992248062" x2="128" y2="255.007752" id="Line-2" stroke-linecap="square"></line>
                    <line x1="159.751938" y1="0.992248062" x2="159.751938" y2="255.007752" id="Line-2-Copy" opacity="0.25" stroke-linecap="square"></line>
                    <line x1="96.248062" y1="0.992248062" x2="96.248062" y2="255.007752" id="Line-2-Copy-3" opacity="0.25" stroke-linecap="square"></line>
                    <line x1="64.496124" y1="0.992248062" x2="64.496124" y2="255.007752" id="Line-2-Copy-4" opacity="0.25" stroke-linecap="square"></line>
                    <line x1="191.503876" y1="0.992248062" x2="191.503876" y2="255.007752" id="Line-2-Copy-2" opacity="0.25" stroke-linecap="square"></line>
                    <line x1="32.744186" y1="223.255814" x2="223.255814" y2="32.744186" id="Line-3" opacity="0.75" stroke-linecap="square"></line>
                    <line x1="32.744186" y1="32.744186" x2="223.255814" y2="223.255814" id="Line-4" opacity="0.75" stroke-linecap="square"></line>
                    <line x1="96.248062" y1="32.744186" x2="223.255814" y2="159.751938" id="Line-5" opacity="0.25" stroke-linecap="square"></line>
                    <line x1="159.751938" y1="32.744186" x2="223.255814" y2="96.248062" id="Line-6" opacity="0.25" stroke-linecap="square"></line>
                    <line x1="32.744186" y1="96.248062" x2="159.751938" y2="223.255814" id="Line-7" opacity="0.25" stroke-linecap="square"></line>
                    <line x1="32.744186" y1="159.751938" x2="96.248062" y2="223.255814" id="Line-8" opacity="0.25" stroke-linecap="square"></line>
                    <line x1="96.248062" y1="223.255814" x2="223.255814" y2="96.248062" id="Line-9" opacity="0.25" stroke-linecap="square"></line>
                    <line x1="159.751938" y1="223.255814" x2="223.255814" y2="159.751938" id="Line-10" opacity="0.25" stroke-linecap="square"></line>
                    <line x1="32.744186" y1="159.751938" x2="159.751938" y2="32.744186" id="Line-11" opacity="0.25" stroke-linecap="square"></line>
                    <line x1="32.744186" y1="96.248062" x2="96.248062" y2="32.744186" id="Line-12" opacity="0.25" stroke-linecap="square"></line>
                    <line x1="112.124031" y1="255.007752" x2="112.124031" y2="0.992248062" id="Line-14" opacity="0.1" stroke-linecap="square"></line>
                    <line x1="143.875969" y1="255.007752" x2="143.875969" y2="0.992248062" id="Line-14-Copy-3" opacity="0.1" stroke-linecap="square"></line>
                    <line x1="175.627907" y1="255.007752" x2="175.627907" y2="0.992248062" id="Line-14-Copy-4" opacity="0.1" stroke-linecap="square"></line>
                    <line x1="207.379845" y1="255.007752" x2="207.379845" y2="0.992248062" id="Line-14-Copy-5" opacity="0.1" stroke-linecap="square"></line>
                    <line x1="80.372093" y1="255.007752" x2="80.372093" y2="0.992248062" id="Line-14-Copy" opacity="0.1" stroke-linecap="square"></line>
                    <line x1="48.620155" y1="255.007752" x2="48.620155" y2="0.992248062" id="Line-14-Copy-2" opacity="0.1" stroke-linecap="square"></line>
                </g>
            </g>
            <path d="M81.9136706,159.010071 C77.2746348,164.195867 70.5883398,167.508454 63.1309722,167.682694 L62.5116279,167.689922 C59.2236071,167.689922 56.5581395,170.35539 56.5581395,173.643411 L56.5581395,193.488372 C56.5581395,196.658964 59.0366164,199.250676 62.1618152,199.431754 L62.5116279,199.44186 C94.2958293,199.44186 120.062016,173.675674 120.062016,141.891473 L120.062016,96.248062 C120.062016,74.3279231 102.292232,56.5581395 80.372093,56.5581395 C58.4519541,56.5581395 40.6821705,74.3279231 40.6821705,96.248062 C40.6821705,118.168201 58.4519541,135.937984 80.372093,135.937984 C83.1908668,135.937984 85.9410098,135.644141 88.5935612,135.085415" id="Path" stroke="#9E9E9E" stroke-width="5.95348837"></path>
            <path d="M177.169485,159.010071 C172.530449,164.195867 165.844154,167.508454 158.386786,167.682694 L157.767442,167.689922 C154.479421,167.689922 151.813953,170.35539 151.813953,173.643411 L151.813953,193.488372 C151.813953,196.658964 154.29243,199.250676 157.417629,199.431754 L157.767442,199.44186 C189.551643,199.44186 215.317829,173.675674 215.317829,141.891473 L215.317829,96.248062 C215.317829,74.3279231 197.548046,56.5581395 175.627907,56.5581395 C153.707768,56.5581395 135.937984,74.3279231 135.937984,96.248062 C135.937984,118.168201 153.707768,135.937984 175.627907,135.937984 C178.446681,135.937984 181.196824,135.644141 183.849375,135.085415" id="Path-Copy" stroke="#9E9E9E" stroke-width="5.95348837"></path>
        </g>
        <g id="light-bulb" transform="translate(720.000000, 64.000000)">
            <g id="Group" opacity="0.35" stroke="#979797" stroke-width="1.98449612">
                <g id="grid" opacity="0.50125558">
                    <rect id="Rectangle" opacity="0.25" x="32.744186" y="32.744186" width="190.511628" height="190.511628"></rect>
                    <circle id="Oval" opacity="0.75" cx="128" cy="128" r="95.255814"></circle>
                    <circle id="Oval-Copy-2" opacity="0.25" cx="128" cy="128" r="63.503876"></circle>
                    <circle id="Oval-Copy" opacity="0.25" cx="128" cy="128" r="115.100775"></circle>
                    <line x1="0.992248062" y1="128" x2="255.007752" y2="128" id="Line" stroke-linecap="square"></line>
                    <line x1="0.992248062" y1="96.248062" x2="255.007752" y2="96.248062" id="Line-Copy" opacity="0.25" stroke-linecap="square"></line>
                    <line x1="255.007752" y1="112.124031" x2="0.992248062" y2="112.124031" id="Line-13" opacity="0.1" stroke-linecap="square"></line>
                    <line x1="255.007752" y1="80.372093" x2="0.992248062" y2="80.372093" id="Line-13-Copy-2" opacity="0.1" stroke-linecap="square"></line>
                    <line x1="255.007752" y1="48.620155" x2="0.992248062" y2="48.620155" id="Line-13-Copy-3" opacity="0.1" stroke-linecap="square"></line>
                    <line x1="255.007752" y1="143.875969" x2="0.992248062" y2="143.875969" id="Line-13-Copy" opacity="0.1" stroke-linecap="square"></line>
                    <line x1="255.007752" y1="175.627907" x2="0.992248062" y2="175.627907" id="Line-13-Copy-4" opacity="0.1" stroke-linecap="square"></line>
                    <line x1="255.007752" y1="207.379845" x2="0.992248062" y2="207.379845" id="Line-13-Copy-5" opacity="0.1" stroke-linecap="square"></line>
                    <line x1="0.992248062" y1="64.496124" x2="255.007752" y2="64.496124" id="Line-Copy-4" opacity="0.25" stroke-linecap="square"></line>
                    <line x1="0.992248062" y1="159.751938" x2="255.007752" y2="159.751938" id="Line-Copy-2" opacity="0.25" stroke-linecap="square"></line>
                    <line x1="0.992248062" y1="191.503876" x2="255.007752" y2="191.503876" id="Line-Copy-3" opacity="0.25" stroke-linecap="square"></line>
                    <line x1="128" y1="0.992248062" x2="128" y2="255.007752" id="Line-2" stroke-linecap="square"></line>
                    <line x1="159.751938" y1="0.992248062" x2="159.751938" y2="255.007752" id="Line-2-Copy" opacity="0.25" stroke-linecap="square"></line>
                    <line x1="96.248062" y1="0.992248062" x2="96.248062" y2="255.007752" id="Line-2-Copy-3" opacity="0.25" stroke-linecap="square"></line>
                    <line x1="64.496124" y1="0.992248062" x2="64.496124" y2="255.007752" id="Line-2-Copy-4" opacity="0.25" stroke-linecap="square"></line>
                    <line x1="191.503876" y1="0.992248062" x2="191.503876" y2="255.007752" id="Line-2-Copy-2" opacity="0.25" stroke-linecap="square"></line>
                    <line x1="32.744186" y1="223.255814" x2="223.255814" y2="32.744186" id="Line-3" opacity="0.75" stroke-linecap="square"></line>
                    <line x1="32.744186" y1="32.744186" x2="223.255814" y2="223.255814" id="Line-4" opacity="0.75" stroke-linecap="square"></line>
                    <line x1="96.248062" y1="32.744186" x2="223.255814" y2="159.751938" id="Line-5" opacity="0.25" stroke-linecap="square"></line>
                    <line x1="159.751938" y1="32.744186" x2="223.255814" y2="96.248062" id="Line-6" opacity="0.25" stroke-linecap="square"></line>
                    <line x1="32.744186" y1="96.248062" x2="159.751938" y2="223.255814" id="Line-7" opacity="0.25" stroke-linecap="square"></line>
                    <line x1="32.744186" y1="159.751938" x2="96.248062" y2="223.255814" id="Line-8" opacity="0.25" stroke-linecap="square"></line>
                    <line x1="96.248062" y1="223.255814" x2="223.255814" y2="96.248062" id="Line-9" opacity="0.25" stroke-linecap="square"></line>
                    <line x1="159.751938" y1="223.255814" x2="223.255814" y2="159.751938" id="Line-10" opacity="0.25" stroke-linecap="square"></line>
                    <line x1="32.744186" y1="159.751938" x2="159.751938" y2="32.744186" id="Line-11" opacity="0.25" stroke-linecap="square"></line>
                    <line x1="32.744186" y1="96.248062" x2="96.248062" y2="32.744186" id="Line-12" opacity="0.25" stroke-linecap="square"></line>
                    <line x1="112.124031" y1="255.007752" x2="112.124031" y2="0.992248062" id="Line-14" opacity="0.1" stroke-linecap="square"></line>
                    <line x1="143.875969" y1="255.007752" x2="143.875969" y2="0.992248062" id="Line-14-Copy-3" opacity="0.1" stroke-linecap="square"></line>
                    <line x1="175.627907" y1="255.007752" x2="175.627907" y2="0.992248062" id="Line-14-Copy-4" opacity="0.1" stroke-linecap="square"></line>
                    <line x1="207.379845" y1="255.007752" x2="207.379845" y2="0.992248062" id="Line-14-Copy-5" opacity="0.1" stroke-linecap="square"></line>
                    <line x1="80.372093" y1="255.007752" x2="80.372093" y2="0.992248062" id="Line-14-Copy" opacity="0.1" stroke-linecap="square"></line>
                    <line x1="48.620155" y1="255.007752" x2="48.620155" y2="0.992248062" id="Line-14-Copy-2" opacity="0.1" stroke-linecap="square"></line>
                </g>
            </g>
            <path d="M96.248062,128 L96.248062,115.412052 C96.248062,111.028024 99.8020187,107.474067 104.186047,107.474067 C106.291331,107.474067 108.310388,108.310388 109.799049,109.799049 L116.773995,116.773995 C122.973946,122.973946 133.026054,122.973946 139.226005,116.773995 L146.317503,109.682497 C149.417479,106.582521 154.443532,106.582521 157.543508,109.682497 C159.020256,111.159245 159.855546,113.158468 159.868341,115.246866 L160.136227,158.970133 L160.136227,158.970133 C178.905455,147.936367 191.503876,127.532466 191.503876,104.186047 C191.503876,69.1138243 163.072222,40.6821705 128,40.6821705 C92.9277777,40.6821705 64.496124,69.1138243 64.496124,104.186047 C64.496124,127.654161 77.2262284,148.149001 96.1577836,159.141912 L96.2261375,177.634409 C96.2382591,180.913817 98.9001548,183.565891 102.179585,183.565891 L153.79845,183.565891 C157.08647,183.565891 159.751938,180.900424 159.751938,177.612403 L159.751938,175.627907 L159.751938,175.627907" id="Path" stroke="#9E9E9E" stroke-width="5.95348837"></path>
            <line x1="96.248062" y1="199.44186" x2="159.751938" y2="199.44186" id="Path-231" stroke="#9E9E9E" stroke-width="5.95348837"></line>
            <line x1="112.124031" y1="215.317829" x2="143.875969" y2="215.317829" id="Path-232" stroke="#9E9E9E" stroke-width="5.95348837"></line>
        </g>
        <g id="gif" transform="translate(1232.000000, 64.000000)">
            <g id="Group" opacity="0.35" stroke="#979797" stroke-width="1.98449612">
                <g id="grid" opacity="0.50125558">
                    <rect id="Rectangle" opacity="0.25" x="32.744186" y="32.744186" width="190.511628" height="190.511628"></rect>
                    <circle id="Oval" opacity="0.75" cx="128" cy="128" r="95.255814"></circle>
                    <circle id="Oval-Copy-2" opacity="0.25" cx="128" cy="128" r="63.503876"></circle>
                    <circle id="Oval-Copy" opacity="0.25" cx="128" cy="128" r="115.100775"></circle>
                    <line x1="0.992248062" y1="128" x2="255.007752" y2="128" id="Line" stroke-linecap="square"></line>
                    <line x1="0.992248062" y1="96.248062" x2="255.007752" y2="96.248062" id="Line-Copy" opacity="0.25" stroke-linecap="square"></line>
                    <line x1="255.007752" y1="112.124031" x2="0.992248062" y2="112.124031" id="Line-13" opacity="0.1" stroke-linecap="square"></line>
                    <line x1="255.007752" y1="80.372093" x2="0.992248062" y2="80.372093" id="Line-13-Copy-2" opacity="0.1" stroke-linecap="square"></line>
                    <line x1="255.007752" y1="48.620155" x2="0.992248062" y2="48.620155" id="Line-13-Copy-3" opacity="0.1" stroke-linecap="square"></line>
                    <line x1="255.007752" y1="143.875969" x2="0.992248062" y2="143.875969" id="Line-13-Copy" opacity="0.1" stroke-linecap="square"></line>
                    <line x1="255.007752" y1="175.627907" x2="0.992248062" y2="175.627907" id="Line-13-Copy-4" opacity="0.1" stroke-linecap="square"></line>
                    <line x1="255.007752" y1="207.379845" x2="0.992248062" y2="207.379845" id="Line-13-Copy-5" opacity="0.1" stroke-linecap="square"></line>
                    <line x1="0.992248062" y1="64.496124" x2="255.007752" y2="64.496124" id="Line-Copy-4" opacity="0.25" stroke-linecap="square"></line>
                    <line x1="0.992248062" y1="159.751938" x2="255.007752" y2="159.751938" id="Line-Copy-2" opacity="0.25" stroke-linecap="square"></line>
                    <line x1="0.992248062" y1="191.503876" x2="255.007752" y2="191.503876" id="Line-Copy-3" opacity="0.25" stroke-linecap="square"></line>
                    <line x1="128" y1="0.992248062" x2="128" y2="255.007752" id="Line-2" stroke-linecap="square"></line>
                    <line x1="159.751938" y1="0.992248062" x2="159.751938" y2="255.007752" id="Line-2-Copy" opacity="0.25" stroke-linecap="square"></line>
                    <line x1="96.248062" y1="0.992248062" x2="96.248062" y2="255.007752" id="Line-2-Copy-3" opacity="0.25" stroke-linecap="square"></line>
                    <line x1="64.496124" y1="0.992248062" x2="64.496124" y2="255.007752" id="Line-2-Copy-4" opacity="0.25" stroke-linecap="square"></line>
                    <line x1="191.503876" y1="0.992248062" x2="191.503876" y2="255.007752" id="Line-2-Copy-2" opacity="0.25" stroke-linecap="square"></line>
                    <line x1="32.744186" y1="223.255814" x2="223.255814" y2="32.744186" id="Line-3" opacity="0.75" stroke-linecap="square"></line>
                    <line x1="32.744186" y1="32.744186" x2="223.255814" y2="223.255814" id="Line-4" opacity="0.75" stroke-linecap="square"></line>
                    <line x1="96.248062" y1="32.744186" x2="223.255814" y2="159.751938" id="Line-5" opacity="0.25" stroke-linecap="square"></line>
                    <line x1="159.751938" y1="32.744186" x2="223.255814" y2="96.248062" id="Line-6" opacity="0.25" stroke-linecap="square"></line>
                    <line x1="32.744186" y1="96.248062" x2="159.751938" y2="223.255814" id="Line-7" opacity="0.25" stroke-linecap="square"></line>
                    <line x1="32.744186" y1="159.751938" x2="96.248062" y2="223.255814" id="Line-8" opacity="0.25" stroke-linecap="square"></line>
                    <line x1="96.248062" y1="223.255814" x2="223.255814" y2="96.248062" id="Line-9" opacity="0.25" stroke-linecap="square"></line>
                    <line x1="159.751938" y1="223.255814" x2="223.255814" y2="159.751938" id="Line-10" opacity="0.25" stroke-linecap="square"></line>
                    <line x1="32.744186" y1="159.751938" x2="159.751938" y2="32.744186" id="Line-11" opacity="0.25" stroke-linecap="square"></line>
                    <line x1="32.744186" y1="96.248062" x2="96.248062" y2="32.744186" id="Line-12" opacity="0.25" stroke-linecap="square"></line>
                    <line x1="112.124031" y1="255.007752" x2="112.124031" y2="0.992248062" id="Line-14" opacity="0.1" stroke-linecap="square"></line>
                    <line x1="143.875969" y1="255.007752" x2="143.875969" y2="0.992248062" id="Line-14-Copy-3" opacity="0.1" stroke-linecap="square"></line>
                    <line x1="175.627907" y1="255.007752" x2="175.627907" y2="0.992248062" id="Line-14-Copy-4" opacity="0.1" stroke-linecap="square"></line>
                    <line x1="207.379845" y1="255.007752" x2="207.379845" y2="0.992248062" id="Line-14-Copy-5" opacity="0.1" stroke-linecap="square"></line>
                    <line x1="80.372093" y1="255.007752" x2="80.372093" y2="0.992248062" id="Line-14-Copy" opacity="0.1" stroke-linecap="square"></line>
                    <line x1="48.620155" y1="255.007752" x2="48.620155" y2="0.992248062" id="Line-14-Copy-2" opacity="0.1" stroke-linecap="square"></line>
                </g>
            </g>
            <path d="M96.248062,96.248062 C96.248062,87.4800065 89.1401486,80.372093 80.372093,80.372093 L64.496124,80.372093 C55.7280685,80.372093 48.620155,87.4800065 48.620155,96.248062 L48.620155,159.751938 C48.620155,168.519994 55.7280685,175.627907 64.496124,175.627907 L80.372093,175.627907 C89.1401486,175.627907 96.248062,168.519994 96.248062,159.751938 L96.248062,133.953488 C96.248062,130.665468 93.5825945,128 90.2945736,128 L72.4341085,128 L72.4341085,128" id="Path-162" stroke="#9E9E9E" stroke-width="5.95348837"></path>
            <line x1="128" y1="175.627907" x2="128" y2="80.372093" id="Path-163" stroke="#9E9E9E" stroke-width="5.95348837"></line>
            <path d="M208.372093,80.372093 L165.705426,80.372093 C162.417406,80.372093 159.751938,83.0375606 159.751938,86.3255814 L159.751938,175.627907 L159.751938,175.627907" id="Path-164" stroke="#9E9E9E" stroke-width="5.95348837"></path>
            <line x1="175.627907" y1="128" x2="207.379845" y2="128" id="Path-165" stroke="#9E9E9E" stroke-width="5.95348837"></line>
            <path d="M32.744186,191.503876 L32.744186,207.379845 C32.744186,216.147901 39.8520995,223.255814 48.620155,223.255814 L207.379845,223.255814 C216.147901,223.255814 223.255814,216.147901 223.255814,207.379845 L223.255814,143.875969 L223.255814,143.875969" id="Path-166" stroke="#9E9E9E" stroke-width="5.95348837"></path>
            <path d="M32.744186,64.496124 L32.744186,48.620155 C32.744186,39.8520995 39.8520995,32.744186 48.620155,32.744186 L207.379845,32.744186 C216.147901,32.744186 223.255814,39.8520995 223.255814,48.620155 L223.255814,64.496124 L223.255814,64.496124" id="Path-167" stroke="#9E9E9E" stroke-width="5.95348837"></path>
        </g>
        <path d="M288.5,120.5 L288.5,89.5 C288.5,80.663444 295.663444,73.5 304.5,73.5 L505.5,73.5 L505.5,73.5" id="Path-2" stroke="#9E9E9E" stroke-dasharray="4,4"></path>
        <line x1="423.5" y1="192" x2="496" y2="192" id="Path-3" stroke="#9E9E9E" stroke-dasharray="4,4"></line>
        <line x1="911.5" y1="192" x2="1008" y2="192" id="Path-3-Copy" stroke="#9E9E9E" stroke-dasharray="4,4"></line>
        <line x1="1200" y1="115" x2="1265" y2="115" id="Path-3-Copy-4" stroke="#9E9E9E" stroke-dasharray="4,4"></line>
        <line x1="1440" y1="144" x2="1520" y2="144" id="Path-3-Copy-7" stroke="#9E9E9E" stroke-dasharray="4,4"></line>
        <line x1="1440" y1="192" x2="1520" y2="192" id="Path-3-Copy-8" stroke="#9E9E9E" stroke-dasharray="4,4"></line>
        <line x1="1455.5" y1="240" x2="1520" y2="240" id="Path-3-Copy-9" stroke="#9E9E9E" stroke-dasharray="4,4"></line>
        <line x1="1200" y1="192" x2="1282" y2="192" id="Path-3-Copy-5" stroke="#9E9E9E" stroke-dasharray="4,4"></line>
        <path d="M1200,273 L1344,273 C1352.83656,273 1360,265.836556 1360,257 L1360,239.5 L1360,239.5" id="Path-3-Copy-6" stroke="#9E9E9E" stroke-dasharray="4,4"></path>
        <path d="M879.5,264 L961.75,264 C969.620058,264 976,257.620058 976,249.75 C976,241.879942 982.379942,235.5 990.25,235.5 L1008,235.5 L1008,235.5" id="Path-3-Copy-2" stroke="#9E9E9E" stroke-dasharray="4,4"></path>
        <line x1="863.5" y1="279" x2="1008" y2="279.5" id="Path-3-Copy-3" stroke="#9E9E9E" stroke-dasharray="4,4"></line>
        <polygon id="1" fill="#9E9E9E" fill-rule="nonzero" points="529.704 84 529.704 81.792 524.744 81.792 524.744 61.44 522.856 61.44 516.936 65.184 518.152 67.2 522.12 64.704 522.12 81.792 517.16 81.792 517.16 84"></polygon>
        <polygon id="1" fill="#9E9E9E" fill-rule="nonzero" points="1032.704 203 1032.704 200.792 1027.744 200.792 1027.744 180.44 1025.856 180.44 1019.936 184.184 1021.152 186.2 1025.12 183.704 1025.12 200.792 1020.16 200.792 1020.16 203"></polygon>
        <path d="M1542.656,155 L1542.656,150.104 L1546.048,150.104 L1546.048,147.928 L1542.656,147.928 L1542.656,132.44 L1540.512,132.44 L1529.632,148.12 L1529.632,150.104 L1540.064,150.104 L1540.064,155 L1542.656,155 Z M1540.064,147.928 L1532.352,147.928 L1540.064,136.824 L1540.064,147.928 Z" id="4" fill="#9E9E9E" fill-rule="nonzero"></path>
        <path d="M1537.952,202.224 C1539.488,202.224 1540.832,201.92 1541.984,201.312 C1543.136,200.704 1544.02667,199.856 1544.656,198.768 C1545.28533,197.68 1545.6,196.421333 1545.6,194.992 C1545.6,193.584 1545.312,192.341333 1544.736,191.264 C1544.16,190.186667 1543.344,189.349333 1542.288,188.752 C1541.232,188.154667 1539.98933,187.856 1538.56,187.856 C1537.6,187.856 1536.70933,188.010667 1535.888,188.32 C1535.06667,188.629333 1534.35733,189.072 1533.76,189.648 L1533.76,189.648 L1533.76,181.616 L1544.704,181.616 L1544.704,179.44 L1531.168,179.44 L1531.168,192.656 L1532.992,192.656 C1534.272,190.906667 1535.98933,190.032 1538.144,190.032 C1539.616,190.032 1540.79467,190.490667 1541.68,191.408 C1542.56533,192.325333 1543.008,193.530667 1543.008,195.024 C1543.008,196.56 1542.56,197.776 1541.664,198.672 C1540.768,199.568 1539.53067,200.016 1537.952,200.016 C1535.75467,200.016 1533.61067,199.152 1531.52,197.424 L1531.52,197.424 L1530.528,199.44 C1531.44533,200.293333 1532.57067,200.970667 1533.904,201.472 C1535.23733,201.973333 1536.58667,202.224 1537.952,202.224 Z" id="5" fill="#9E9E9E" fill-rule="nonzero"></path>
        <path d="M1538.336,251.256 C1539.72267,251.256 1540.97067,250.946667 1542.08,250.328 C1543.18933,249.709333 1544.05333,248.845333 1544.672,247.736 C1545.29067,246.626667 1545.6,245.378667 1545.6,243.992 C1545.6,242.584 1545.30133,241.336 1544.704,240.248 C1544.10667,239.16 1543.27467,238.317333 1542.208,237.72 C1541.14133,237.122667 1539.92533,236.824 1538.56,236.824 C1537.13067,236.824 1535.872,237.176 1534.784,237.88 C1533.696,238.584 1532.90667,239.533333 1532.416,240.728 L1532.416,240.728 L1532.416,240.248 C1532.416,237.112 1532.95467,234.685333 1534.032,232.968 C1535.10933,231.250667 1536.61867,230.392 1538.56,230.392 C1539.56267,230.392 1540.54933,230.6 1541.52,231.016 C1542.49067,231.432 1543.50933,232.088 1544.576,232.984 L1544.576,232.984 L1545.568,230.968 C1544.62933,230.072 1543.54133,229.384 1542.304,228.904 C1541.06667,228.424 1539.79733,228.184 1538.496,228.184 C1536.68267,228.184 1535.12533,228.658667 1533.824,229.608 C1532.52267,230.557333 1531.52533,231.938667 1530.832,233.752 C1530.13867,235.565333 1529.792,237.741333 1529.792,240.28 C1529.792,243.8 1530.53333,246.509333 1532.016,248.408 C1533.49867,250.306667 1535.60533,251.256 1538.336,251.256 Z M1538.208,249.048 C1536.71467,249.048 1535.504,248.584 1534.576,247.656 C1533.648,246.728 1533.184,245.517333 1533.184,244.024 C1533.184,242.552 1533.648,241.352 1534.576,240.424 C1535.504,239.496 1536.704,239.032 1538.176,239.032 C1539.62667,239.032 1540.79467,239.490667 1541.68,240.408 C1542.56533,241.325333 1543.008,242.530667 1543.008,244.024 C1543.008,245.538667 1542.57067,246.754667 1541.696,247.672 C1540.82133,248.589333 1539.65867,249.048 1538.208,249.048 Z" id="6" fill="#9E9E9E" fill-rule="nonzero"></path>
        <polygon id="1" fill="#9E9E9E" fill-rule="nonzero" points="1189.152 125 1189.152 122.792 1184.192 122.792 1184.192 102.44 1182.304 102.44 1176.384 106.184 1177.6 108.2 1181.568 105.704 1181.568 122.792 1176.608 122.792 1176.608 125"></polygon>
        <path d="M1189.696,202 L1189.696,199.792 L1178.56,199.792 L1184.96,192.848 C1186.304,191.376 1187.26933,190.042667 1187.856,188.848 C1188.44267,187.653333 1188.736,186.405333 1188.736,185.104 C1188.736,183.290667 1188.13333,181.850667 1186.928,180.784 C1185.72267,179.717333 1184.08533,179.184 1182.016,179.184 C1180.65067,179.184 1179.29067,179.434667 1177.936,179.936 C1176.58133,180.437333 1175.456,181.114667 1174.56,181.968 L1174.56,181.968 L1175.552,183.984 C1177.64267,182.256 1179.776,181.392 1181.952,181.392 C1183.27467,181.392 1184.29867,181.722667 1185.024,182.384 C1185.74933,183.045333 1186.112,183.994667 1186.112,185.232 C1186.112,186.192 1185.872,187.146667 1185.392,188.096 C1184.912,189.045333 1184.13867,190.117333 1183.072,191.312 L1183.072,191.312 L1175.168,200.016 L1175.168,202 L1189.696,202 Z" id="2" fill="#9E9E9E" fill-rule="nonzero"></path>
        <path d="M1181.824,284.224 C1184.10667,284.224 1185.91467,283.658667 1187.248,282.528 C1188.58133,281.397333 1189.248,279.850667 1189.248,277.888 C1189.248,276.48 1188.896,275.312 1188.192,274.384 C1187.488,273.456 1186.47467,272.8 1185.152,272.416 C1186.28267,271.989333 1187.16267,271.290667 1187.792,270.32 C1188.42133,269.349333 1188.736,268.213333 1188.736,266.912 C1188.736,265.162667 1188.13333,263.770667 1186.928,262.736 C1185.72267,261.701333 1184.096,261.184 1182.048,261.184 C1180.61867,261.184 1179.24267,261.429333 1177.92,261.92 C1176.59733,262.410667 1175.47733,263.093333 1174.56,263.968 L1174.56,263.968 L1175.552,265.984 C1177.64267,264.256 1179.776,263.392 1181.952,263.392 C1183.296,263.392 1184.33067,263.717333 1185.056,264.368 C1185.78133,265.018667 1186.144,265.952 1186.144,267.168 C1186.144,268.554667 1185.696,269.616 1184.8,270.352 C1183.904,271.088 1182.624,271.456 1180.96,271.456 L1180.96,271.456 L1178.88,271.456 L1178.88,273.664 L1181.472,273.664 C1184.928,273.664 1186.656,275.04 1186.656,277.792 C1186.656,279.178667 1186.24,280.229333 1185.408,280.944 C1184.576,281.658667 1183.36,282.016 1181.76,282.016 C1179.456,282.016 1177.28,281.152 1175.232,279.424 L1175.232,279.424 L1174.24,281.44 C1175.15733,282.314667 1176.288,282.997333 1177.632,283.488 C1178.976,283.978667 1180.37333,284.224 1181.824,284.224 Z" id="3" fill="#9E9E9E" fill-rule="nonzero"></path>
        <path d="M1033.248,246 L1033.248,243.792 L1022.112,243.792 L1028.512,236.848 C1029.856,235.376 1030.82133,234.042667 1031.408,232.848 C1031.99467,231.653333 1032.288,230.405333 1032.288,229.104 C1032.288,227.290667 1031.68533,225.850667 1030.48,224.784 C1029.27467,223.717333 1027.63733,223.184 1025.568,223.184 C1024.20267,223.184 1022.84267,223.434667 1021.488,223.936 C1020.13333,224.437333 1019.008,225.114667 1018.112,225.968 L1018.112,225.968 L1019.104,227.984 C1021.19467,226.256 1023.328,225.392 1025.504,225.392 C1026.82667,225.392 1027.85067,225.722667 1028.576,226.384 C1029.30133,227.045333 1029.664,227.994667 1029.664,229.232 C1029.664,230.192 1029.424,231.146667 1028.944,232.096 C1028.464,233.045333 1027.69067,234.117333 1026.624,235.312 L1026.624,235.312 L1018.72,244.016 L1018.72,246 L1033.248,246 Z" id="2" fill="#9E9E9E" fill-rule="nonzero"></path>
        <path d="M1025.376,290.224 C1027.65867,290.224 1029.46667,289.658667 1030.8,288.528 C1032.13333,287.397333 1032.8,285.850667 1032.8,283.888 C1032.8,282.48 1032.448,281.312 1031.744,280.384 C1031.04,279.456 1030.02667,278.8 1028.704,278.416 C1029.83467,277.989333 1030.71467,277.290667 1031.344,276.32 C1031.97333,275.349333 1032.288,274.213333 1032.288,272.912 C1032.288,271.162667 1031.68533,269.770667 1030.48,268.736 C1029.27467,267.701333 1027.648,267.184 1025.6,267.184 C1024.17067,267.184 1022.79467,267.429333 1021.472,267.92 C1020.14933,268.410667 1019.02933,269.093333 1018.112,269.968 L1018.112,269.968 L1019.104,271.984 C1021.19467,270.256 1023.328,269.392 1025.504,269.392 C1026.848,269.392 1027.88267,269.717333 1028.608,270.368 C1029.33333,271.018667 1029.696,271.952 1029.696,273.168 C1029.696,274.554667 1029.248,275.616 1028.352,276.352 C1027.456,277.088 1026.176,277.456 1024.512,277.456 L1024.512,277.456 L1022.432,277.456 L1022.432,279.664 L1025.024,279.664 C1028.48,279.664 1030.208,281.04 1030.208,283.792 C1030.208,285.178667 1029.792,286.229333 1028.96,286.944 C1028.128,287.658667 1026.912,288.016 1025.312,288.016 C1023.008,288.016 1020.832,287.152 1018.784,285.424 L1018.784,285.424 L1017.792,287.44 C1018.70933,288.314667 1019.84,288.997333 1021.184,289.488 C1022.528,289.978667 1023.92533,290.224 1025.376,290.224 Z" id="3" fill="#9E9E9E" fill-rule="nonzero"></path>
        <path d="M530.248,202 L530.248,199.792 L519.112,199.792 L525.512,192.848 C526.856,191.376 527.821333,190.042667 528.408,188.848 C528.994667,187.653333 529.288,186.405333 529.288,185.104 C529.288,183.290667 528.685333,181.850667 527.48,180.784 C526.274667,179.717333 524.637333,179.184 522.568,179.184 C521.202667,179.184 519.842667,179.434667 518.488,179.936 C517.133333,180.437333 516.008,181.114667 515.112,181.968 L515.112,181.968 L516.104,183.984 C518.194667,182.256 520.328,181.392 522.504,181.392 C523.826667,181.392 524.850667,181.722667 525.576,182.384 C526.301333,183.045333 526.664,183.994667 526.664,185.232 C526.664,186.192 526.424,187.146667 525.944,188.096 C525.464,189.045333 524.690667,190.117333 523.624,191.312 L523.624,191.312 L515.72,200.016 L515.72,202 L530.248,202 Z" id="2" fill="#9E9E9E" fill-rule="nonzero"></path>
    </g>
</svg>