<?xml version="1.0" encoding="UTF-8"?>
<svg width="1696px" height="547px" viewBox="0 0 1696 547" version="1.1" xmlns="http://www.w3.org/2000/svg" xmlns:xlink="http://www.w3.org/1999/xlink">
    <title>spacing-dark</title>
    <g id="spacing-dark" stroke="none" stroke-width="1" fill="none" fill-rule="evenodd">
        <g id="light" transform="translate(90.856000, 119.000000)">
            <path d="M393.644,202.5 L393.644,309.5 M297.644,251 L137.644,251 C119.970888,251 105.644,236.673112 105.644,219 L105.644,138.5 C105.644,120.826888 119.970888,106.5 137.644,106.5 L345.644,106.5 L345.644,106.5 C372.153668,106.5 393.644,85.009668 393.644,58.5 L393.644,0" id="Shape-Copy-2" stroke="#FFFFFF" stroke-width="36" transform="translate(249.644000, 154.750000) scale(1, -1) translate(-249.644000, -154.750000) "></path>
            <g id="grid" opacity="0.2" transform="translate(95.144000, 0.500000)" stroke="#9E9E9E" stroke-width="21">
                <line x1="10.5" y1="0" x2="10.5" y2="309" id="Path-4"></line>
                <line x1="298.5" y1="0" x2="298.5" y2="309" id="Path-4-Copy-3"></line>
                <line x1="308.5" y1="10.5" x2="0" y2="10.5" id="Path-4-Copy-4"></line>
                <line x1="308.5" y1="106.5" x2="0" y2="106.5" id="Path-4-Copy-5"></line>
                <line x1="308.5" y1="202.5" x2="0" y2="202.5" id="Path-4-Copy-6"></line>
                <line x1="308.5" y1="298.5" x2="0" y2="298.5" id="Path-4-Copy-7"></line>
                <line x1="308.5" y1="0.5" x2="0" y2="309" id="Path-4-Copy-8"></line>
                <line x1="106.5" y1="0" x2="106.5" y2="309" id="Path-4-Copy"></line>
                <line x1="202.5" y1="0" x2="202.5" y2="309" id="Path-4-Copy-2"></line>
            </g>
            <circle id="Oval" fill="#FF375F" cx="393.644" cy="203" r="5"></circle>
            <circle id="Oval-Copy" fill="#FF375F" cx="393.644" cy="107" r="5"></circle>
            <circle id="Oval-Copy-2" fill="#FF375F" cx="95.644" cy="59" r="5"></circle>
            <circle id="Oval-Copy-4" fill="#FF375F" cx="297.644" cy="59" r="5"></circle>
            <circle id="Oval-Copy-3" fill="#FF375F" cx="94.644" cy="203" r="5"></circle>
            <path d="M393.644,202.5 L393.644,309.5 M297.644,251 L137.644,251 C119.970888,251 105.644,236.673112 105.644,219 L105.644,138.5 C105.644,120.826888 119.970888,106.5 137.644,106.5 L345.644,106.5 L345.644,106.5 C372.153668,106.5 393.644,85.009668 393.644,58.5 L393.644,0" id="Shape" stroke="#FF375F" stroke-width="4" stroke-dasharray="8,8" transform="translate(249.644000, 154.750000) scale(1, -1) translate(-249.644000, -154.750000) "></path>
            <g id="measuers" transform="translate(0.000000, 58.500000)">
                <line x1="265.61219" y1="0.5" x2="30.6889287" y2="0.5" id="Path-19" stroke="#FF375F"></line>
                <line x1="459.784399" y1="48.5" x2="393.644" y2="48.5" id="Path-19-Copy-2" stroke="#FF375F"></line>
                <line x1="459.61219" y1="144.5" x2="262.162899" y2="144.75" id="Path-19-Copy-3" stroke="#FF375F"></line>
                <line x1="265.61219" y1="144.5" x2="30.9566073" y2="144.625" id="Path-19-Copy" stroke="#FF375F"></line>
                <path d="M38.6121902,0.5 L38.7656673,53.2745358 M38.8822485,93.3620835 L39.030966,144.5" id="Shape" stroke="#FF375F"></path>
                <path d="M451.765667,48.5 L451.61219,78.5664038 M451.61219,116.572 L451.956607,144.75" id="Shape-Copy" stroke="#FF375F"></path>
                <path d="M9.632,78.172 L14.528,78.172 L14.528,81.5 L0.608,81.5 L0.608,78.172 L5.504,78.172 L5.504,63.644 L1.632,65.98 L0,62.972 L6.688,58.94 L9.632,58.94 L9.632,78.172 Z M33.664,78.172 L33.664,81.5 L18.496,81.5 L18.496,78.46 L26.176,70.204 C27.072,69.2226667 27.728,68.3213333 28.144,67.5 C28.56,66.6786667 28.768,65.8626667 28.768,65.052 C28.768,64.028 28.4746667,63.2546667 27.888,62.732 C27.3013333,62.2093333 26.4426667,61.948 25.312,61.948 C23.2853333,61.948 21.248,62.7266667 19.2,64.284 L17.824,61.276 C18.72,60.4866667 19.8666667,59.852 21.264,59.372 C22.6613333,58.892 24.064,58.652 25.472,58.652 C27.7333333,58.652 29.5253333,59.2066667 30.848,60.316 C32.1706667,61.4253333 32.832,62.9186667 32.832,64.796 C32.832,66.0973333 32.5546667,67.3186667 32,68.46 C31.4453333,69.6013333 30.5066667,70.876 29.184,72.284 L23.648,78.172 L33.664,78.172 Z M46.464,65.468 C47.808,65.468 49.008,65.8093333 50.064,66.492 C51.12,67.1746667 51.9413333,68.14 52.528,69.388 C53.1146667,70.636 53.408,72.0706667 53.408,73.692 C53.408,75.3133333 53.1146667,76.732 52.528,77.948 C51.9413333,79.164 51.1253333,80.1026667 50.08,80.764 C49.0346667,81.4253333 47.8293333,81.756 46.464,81.756 C45.3546667,81.756 44.3626667,81.5213333 43.488,81.052 C42.6133333,80.5826667 41.9413333,79.932 41.472,79.1 L41.472,87.26 L37.472,87.26 L37.472,65.852 L41.408,65.852 L41.408,68.22 C41.8773333,67.3453333 42.5546667,66.668 43.44,66.188 C44.3253333,65.708 45.3333333,65.468 46.464,65.468 Z M45.408,78.652 C46.6666667,78.652 47.648,78.22 48.352,77.356 C49.056,76.492 49.408,75.2706667 49.408,73.692 C49.408,72.0706667 49.056,70.812 48.352,69.916 C47.648,69.02 46.6666667,68.572 45.408,68.572 C44.128,68.572 43.1413333,69.0093333 42.448,69.884 C41.7546667,70.7586667 41.408,72.0066667 41.408,73.628 C41.408,75.228 41.7546667,76.4653333 42.448,77.34 C43.1413333,78.2146667 44.128,78.652 45.408,78.652 Z M65.12,73.436 L71.712,81.5 L66.976,81.5 L62.816,76.284 L58.688,81.5 L53.952,81.5 L60.512,73.436 L54.304,65.852 L59.072,65.852 L62.816,70.62 L66.56,65.852 L71.328,65.852 L65.12,73.436 Z" id="Shape" fill="#FF375F" fill-rule="nonzero"></path>
                <path d="M434.496,93.916 C435.818667,94.2786667 436.837333,94.94 437.552,95.9 C438.266667,96.86 438.624,98.0333333 438.624,99.42 C438.624,101.404 437.877333,102.956 436.384,104.076 C434.890667,105.196 432.821333,105.756 430.176,105.756 C427.530667,105.756 425.461333,105.196 423.968,104.076 C422.474667,102.956 421.728,101.404 421.728,99.42 C421.728,98.0333333 422.090667,96.8546667 422.816,95.884 C423.541333,94.9133333 424.565333,94.2573333 425.888,93.916 C424.757333,93.4893333 423.872,92.8226667 423.232,91.916 C422.592,91.0093333 422.272,89.948 422.272,88.732 C422.272,86.8546667 422.976,85.372 424.384,84.284 C425.792,83.196 427.722667,82.652 430.176,82.652 C432.629333,82.652 434.56,83.196 435.968,84.284 C437.376,85.372 438.08,86.8546667 438.08,88.732 C438.08,89.9693333 437.76,91.0466667 437.12,91.964 C436.48,92.8813333 435.605333,93.532 434.496,93.916 Z M430.176,85.884 C427.509333,85.884 426.176,86.972 426.176,89.148 C426.176,90.236 426.512,91.0626667 427.184,91.628 C427.856,92.1933333 428.853333,92.476 430.176,92.476 C431.498667,92.476 432.496,92.1933333 433.168,91.628 C433.84,91.0626667 434.176,90.236 434.176,89.148 C434.176,86.972 432.842667,85.884 430.176,85.884 Z M430.176,102.524 C433.226667,102.524 434.752,101.382667 434.752,99.1 C434.752,96.8173333 433.226667,95.676 430.176,95.676 C427.125333,95.676 425.6,96.8173333 425.6,99.1 C425.6,101.382667 427.125333,102.524 430.176,102.524 Z M450.848,89.468 C452.192,89.468 453.392,89.8093333 454.448,90.492 C455.504,91.1746667 456.325333,92.14 456.912,93.388 C457.498667,94.636 457.792,96.0706667 457.792,97.692 C457.792,99.3133333 457.498667,100.732 456.912,101.948 C456.325333,103.164 455.509333,104.102667 454.464,104.764 C453.418667,105.425333 452.213333,105.756 450.848,105.756 C449.738667,105.756 448.746667,105.521333 447.872,105.052 C446.997333,104.582667 446.325333,103.932 445.856,103.1 L445.856,111.26 L441.856,111.26 L441.856,89.852 L445.792,89.852 L445.792,92.22 C446.261333,91.3453333 446.938667,90.668 447.824,90.188 C448.709333,89.708 449.717333,89.468 450.848,89.468 Z M449.792,102.652 C451.050667,102.652 452.032,102.22 452.736,101.356 C453.44,100.492 453.792,99.2706667 453.792,97.692 C453.792,96.0706667 453.44,94.812 452.736,93.916 C452.032,93.02 451.050667,92.572 449.792,92.572 C448.512,92.572 447.525333,93.0093333 446.832,93.884 C446.138667,94.7586667 445.792,96.0066667 445.792,97.628 C445.792,99.228 446.138667,100.465333 446.832,101.34 C447.525333,102.214667 448.512,102.652 449.792,102.652 Z M469.504,97.436 L476.096,105.5 L471.36,105.5 L467.2,100.284 L463.072,105.5 L458.336,105.5 L464.896,97.436 L458.688,89.852 L463.456,89.852 L467.2,94.62 L470.944,89.852 L475.712,89.852 L469.504,97.436 Z" id="Shape" fill="#FF375F" fill-rule="nonzero"></path>
            </g>
        </g>
        <g id="regular" transform="translate(690.500000, 78.152000)">
            <path d="M304,243.348 L304,350.348 M208,291.848 L48,291.848 C30.326888,291.848 16,277.521112 16,259.848 L16,179.348 C16,161.674888 30.326888,147.348 48,147.348 L256,147.348 L256,147.348 C282.509668,147.348 304,125.857668 304,99.348 L304,40.848" id="Shape-Copy-2" stroke="#FFFFFF" stroke-width="60" transform="translate(160.000000, 195.598000) scale(1, -1) translate(-160.000000, -195.598000) "></path>
            <g id="grid" opacity="0.2" transform="translate(5.500000, 41.348000)" stroke="#9E9E9E" stroke-width="21">
                <line x1="10.5" y1="0" x2="10.5" y2="309" id="Path-4"></line>
                <line x1="298.5" y1="0" x2="298.5" y2="309" id="Path-4-Copy-3"></line>
                <line x1="308.5" y1="10.5" x2="0" y2="10.5" id="Path-4-Copy-4"></line>
                <line x1="308.5" y1="106.5" x2="0" y2="106.5" id="Path-4-Copy-5"></line>
                <line x1="308.5" y1="202.5" x2="0" y2="202.5" id="Path-4-Copy-6"></line>
                <line x1="308.5" y1="298.5" x2="0" y2="298.5" id="Path-4-Copy-7"></line>
                <line x1="308.5" y1="0.5" x2="0" y2="309" id="Path-4-Copy-8"></line>
                <line x1="106.5" y1="0" x2="106.5" y2="309" id="Path-4-Copy"></line>
                <line x1="202.5" y1="0" x2="202.5" y2="309" id="Path-4-Copy-2"></line>
            </g>
            <circle id="Oval" fill="#FF375F" cx="304" cy="243.848" r="5"></circle>
            <circle id="Oval-Copy" fill="#FF375F" cx="304" cy="147.848" r="5"></circle>
            <circle id="Oval-Copy-2" fill="#FF375F" cx="6" cy="99.848" r="5"></circle>
            <circle id="Oval-Copy-4" fill="#FF375F" cx="208" cy="99.848" r="5"></circle>
            <circle id="Oval-Copy-3" fill="#FF375F" cx="5" cy="243.848" r="5"></circle>
            <path d="M304,243.348 L304,350.348 M208,291.848 L48,291.848 C30.326888,291.848 16,277.521112 16,259.848 L16,179.348 C16,161.674888 30.326888,147.348 48,147.348 L256,147.348 L256,147.348 C282.509668,147.348 304,125.857668 304,99.348 L304,40.848" id="Shape" stroke="#FF375F" stroke-width="4" stroke-dasharray="8,8" transform="translate(160.000000, 195.598000) scale(1, -1) translate(-160.000000, -195.598000) "></path>
            <g id="measuers" transform="translate(208.000008, 0.000000)">
                <polyline id="Path-19-Copy-2" stroke="#FF375F" points="79.7212471 13.448 96.4999924 13.448 96.4999924 5.448 95.9999924 147.848"></polyline>
                <polyline id="Path-19-Copy-3" stroke="#FF375F" points="14.7091091 13.448 -7.62962736e-06 13.448 -7.62962737e-06 5.448 -7.62962737e-06 99.848"></polyline>
                <path d="M34.8519924,11.264 C36.174659,11.6266667 37.1933257,12.288 37.9079924,13.248 C38.622659,14.208 38.9799924,15.3813333 38.9799924,16.768 C38.9799924,18.752 38.2333257,20.304 36.7399924,21.424 C35.246659,22.544 33.1773257,23.104 30.5319924,23.104 C27.886659,23.104 25.8173257,22.544 24.3239924,21.424 C22.830659,20.304 22.0839924,18.752 22.0839924,16.768 C22.0839924,15.3813333 22.446659,14.2026667 23.1719924,13.232 C23.8973257,12.2613333 24.9213257,11.6053333 26.2439924,11.264 C25.1133257,10.8373333 24.2279924,10.1706667 23.5879924,9.264 C22.9479924,8.35733333 22.6279924,7.296 22.6279924,6.08 C22.6279924,4.20266667 23.3319924,2.72 24.7399924,1.632 C26.1479924,0.544 28.078659,0 30.5319924,0 C32.9853257,0 34.9159924,0.544 36.3239924,1.632 C37.7319924,2.72 38.4359924,4.20266667 38.4359924,6.08 C38.4359924,7.31733333 38.1159924,8.39466667 37.4759924,9.312 C36.8359924,10.2293333 35.9613257,10.88 34.8519924,11.264 Z M30.5319924,3.232 C27.8653257,3.232 26.5319924,4.32 26.5319924,6.496 C26.5319924,7.584 26.8679924,8.41066667 27.5399924,8.976 C28.2119924,9.54133333 29.2093257,9.824 30.5319924,9.824 C31.854659,9.824 32.8519924,9.54133333 33.5239924,8.976 C34.1959924,8.41066667 34.5319924,7.584 34.5319924,6.496 C34.5319924,4.32 33.198659,3.232 30.5319924,3.232 Z M30.5319924,19.872 C33.582659,19.872 35.1079924,18.7306667 35.1079924,16.448 C35.1079924,14.1653333 33.582659,13.024 30.5319924,13.024 C27.4813257,13.024 25.9559924,14.1653333 25.9559924,16.448 C25.9559924,18.7306667 27.4813257,19.872 30.5319924,19.872 Z M51.2039924,6.816 C52.5479924,6.816 53.7479924,7.15733333 54.8039924,7.84 C55.8599924,8.52266667 56.6813257,9.488 57.2679924,10.736 C57.854659,11.984 58.1479924,13.4186667 58.1479924,15.04 C58.1479924,16.6613333 57.854659,18.08 57.2679924,19.296 C56.6813257,20.512 55.8653257,21.4506667 54.8199924,22.112 C53.774659,22.7733333 52.5693257,23.104 51.2039924,23.104 C50.094659,23.104 49.102659,22.8693333 48.2279924,22.4 C47.3533257,21.9306667 46.6813257,21.28 46.2119924,20.448 L46.2119924,28.608 L42.2119924,28.608 L42.2119924,7.2 L46.1479924,7.2 L46.1479924,9.568 C46.6173257,8.69333333 47.294659,8.016 48.1799924,7.536 C49.0653257,7.056 50.0733257,6.816 51.2039924,6.816 Z M50.1479924,20 C51.406659,20 52.3879924,19.568 53.0919924,18.704 C53.7959924,17.84 54.1479924,16.6186667 54.1479924,15.04 C54.1479924,13.4186667 53.7959924,12.16 53.0919924,11.264 C52.3879924,10.368 51.406659,9.92 50.1479924,9.92 C48.8679924,9.92 47.8813257,10.3573333 47.1879924,11.232 C46.494659,12.1066667 46.1479924,13.3546667 46.1479924,14.976 C46.1479924,16.576 46.494659,17.8133333 47.1879924,18.688 C47.8813257,19.5626667 48.8679924,20 50.1479924,20 Z M69.8599924,14.784 L76.4519924,22.848 L71.7159924,22.848 L67.5559924,17.632 L63.4279924,22.848 L58.6919924,22.848 L65.2519924,14.784 L59.0439924,7.2 L63.8119924,7.2 L67.5559924,11.968 L71.2999924,7.2 L76.0679924,7.2 L69.8599924,14.784 Z" id="Shape" fill="#FF375F" fill-rule="nonzero"></path>
            </g>
        </g>
        <g id="bold" transform="translate(1200.500000, 119.000000)">
            <path d="M304,202.5 L304,309.5 M208,251 L48,251 C30.326888,251 16,236.673112 16,219 L16,138.5 C16,120.826888 30.326888,106.5 48,106.5 L256,106.5 L256,106.5 C282.509668,106.5 304,85.009668 304,58.5 L304,0" id="Shape-Copy-2" stroke="#FFFFFF" stroke-width="96" transform="translate(160.000000, 154.750000) scale(1, -1) translate(-160.000000, -154.750000) "></path>
            <g id="grid" opacity="0.2" transform="translate(5.500000, 0.500000)" stroke="#9E9E9E" stroke-width="21">
                <line x1="10.5" y1="0" x2="10.5" y2="309" id="Path-4"></line>
                <line x1="298.5" y1="0" x2="298.5" y2="309" id="Path-4-Copy-3"></line>
                <line x1="308.5" y1="10.5" x2="0" y2="10.5" id="Path-4-Copy-4"></line>
                <line x1="308.5" y1="106.5" x2="0" y2="106.5" id="Path-4-Copy-5"></line>
                <line x1="308.5" y1="202.5" x2="0" y2="202.5" id="Path-4-Copy-6"></line>
                <line x1="308.5" y1="298.5" x2="0" y2="298.5" id="Path-4-Copy-7"></line>
                <line x1="308.5" y1="0.5" x2="0" y2="309" id="Path-4-Copy-8"></line>
                <line x1="106.5" y1="0" x2="106.5" y2="309" id="Path-4-Copy"></line>
                <line x1="202.5" y1="0" x2="202.5" y2="309" id="Path-4-Copy-2"></line>
            </g>
            <circle id="Oval" fill="#FF375F" cx="304" cy="203" r="5"></circle>
            <circle id="Oval-Copy" fill="#FF375F" cx="304" cy="107" r="5"></circle>
            <circle id="Oval-Copy-2" fill="#FF375F" cx="6" cy="59" r="5"></circle>
            <circle id="Oval-Copy-4" fill="#FF375F" cx="208" cy="59" r="5"></circle>
            <circle id="Oval-Copy-3" fill="#FF375F" cx="5" cy="203" r="5"></circle>
            <path d="M304,202.5 L304,309.5 M208,251 L48,251 C30.326888,251 16,236.673112 16,219 L16,138.5 C16,120.826888 30.326888,106.5 48,106.5 L256,106.5 L256,106.5 C282.509668,106.5 304,85.009668 304,58.5 L304,0" id="Shape" stroke="#FF375F" stroke-width="4" stroke-dasharray="8,8" transform="translate(160.000000, 154.750000) scale(1, -1) translate(-160.000000, -154.750000) "></path>
            <g id="measuers" transform="translate(63.296170, 106.000008)">
                <polyline id="Path-19-Copy-2" stroke="#FF375F" points="318.844228 10.44 318.844228 0.999992371 326.844228 0.999992371 -2.26178443e-15 2.01172411e-13"></polyline>
                <polyline id="Path-19-Copy-3" stroke="#FF375F" points="318.844228 38.76 318.844228 48.4999924 326.844228 48.4999924 2.23493588e-14 49.2499924"></polyline>
                <path d="M304.768,25.384 L304.768,28.584 L301.6,28.584 L301.6,33 L297.568,33 L297.568,28.584 L287.776,28.584 L287.776,25.544 L298.272,10.44 L301.6,10.44 L301.6,25.384 L304.768,25.384 Z M291.616,25.384 L297.568,25.384 L297.568,16.776 L291.616,25.384 Z M316.704,16.968 C318.048,16.968 319.248,17.3093333 320.304,17.992 C321.36,18.6746667 322.181333,19.64 322.768,20.888 C323.354667,22.136 323.648,23.5706667 323.648,25.192 C323.648,26.8133333 323.354667,28.232 322.768,29.448 C322.181333,30.664 321.365333,31.6026667 320.32,32.264 C319.274667,32.9253333 318.069333,33.256 316.704,33.256 C315.594667,33.256 314.602667,33.0213333 313.728,32.552 C312.853333,32.0826667 312.181333,31.432 311.712,30.6 L311.712,38.76 L307.712,38.76 L307.712,17.352 L311.648,17.352 L311.648,19.72 C312.117333,18.8453333 312.794667,18.168 313.68,17.688 C314.565333,17.208 315.573333,16.968 316.704,16.968 Z M315.648,30.152 C316.906667,30.152 317.888,29.72 318.592,28.856 C319.296,27.992 319.648,26.7706667 319.648,25.192 C319.648,23.5706667 319.296,22.312 318.592,21.416 C317.888,20.52 316.906667,20.072 315.648,20.072 C314.368,20.072 313.381333,20.5093333 312.688,21.384 C311.994667,22.2586667 311.648,23.5066667 311.648,25.128 C311.648,26.728 311.994667,27.9653333 312.688,28.84 C313.381333,29.7146667 314.368,30.152 315.648,30.152 Z M335.36,24.936 L341.952,33 L337.216,33 L333.056,27.784 L328.928,33 L324.192,33 L330.752,24.936 L324.544,17.352 L329.312,17.352 L333.056,22.12 L336.8,17.352 L341.568,17.352 L335.36,24.936 Z" id="Shape" fill="#FF375F" fill-rule="nonzero"></path>
            </g>
        </g>
    </g>
</svg>