<?xml version="1.0" encoding="UTF-8"?>
<svg width="1696px" height="512px" viewBox="0 0 1696 512" version="1.1" xmlns="http://www.w3.org/2000/svg" xmlns:xlink="http://www.w3.org/1999/xlink">
    <title>stroke-width-light</title>
    <g id="stroke-width-light" stroke="none" stroke-width="1" fill="none" fill-rule="evenodd">
        <g id="bold" transform="translate(1209.000000, 107.000000)">
            <g id="Group" stroke="#979797" stroke-opacity="0.01" stroke-width="0.5">
                <g id="frame">
                    <rect id="Rectangle" x="0" y="0" width="192.496124" height="192.301227"></rect>
                </g>
            </g>
            <g id="Group" opacity="0.75" stroke="#979797" stroke-width="1.5">
                <g id="grid" opacity="0.50125558">
                    <rect id="Rectangle" opacity="0.25" x="24.8139535" y="24.7888301" width="144.372093" height="144.22592"></rect>
                    <ellipse id="Oval" opacity="0.75" cx="97" cy="96.9017902" rx="72.1860465" ry="72.1129602"></ellipse>
                    <ellipse id="Oval-Copy-2" opacity="0.25" cx="97" cy="96.9017902" rx="48.124031" ry="48.0753068"></ellipse>
                    <ellipse id="Oval-Copy" opacity="0.25" cx="97" cy="96.9017902" rx="87.2248062" ry="87.1364935"></ellipse>
                    <line x1="0.751937984" y1="96.9017902" x2="193.248062" y2="96.9017902" id="Line" stroke-linecap="square"></line>
                    <line x1="0.751937984" y1="72.8641368" x2="193.248062" y2="72.8641368" id="Line-Copy" opacity="0.25" stroke-linecap="square"></line>
                    <line x1="193.248062" y1="84.8829635" x2="0.751937984" y2="84.8829635" id="Line-13" opacity="0.1" stroke-linecap="square"></line>
                    <line x1="193.248062" y1="60.8453101" x2="0.751937984" y2="60.8453101" id="Line-13-Copy-2" opacity="0.1" stroke-linecap="square"></line>
                    <line x1="193.248062" y1="36.8076567" x2="0.751937984" y2="36.8076567" id="Line-13-Copy-3" opacity="0.1" stroke-linecap="square"></line>
                    <line x1="193.248062" y1="108.920617" x2="0.751937984" y2="108.920617" id="Line-13-Copy" opacity="0.1" stroke-linecap="square"></line>
                    <line x1="193.248062" y1="132.95827" x2="0.751937984" y2="132.95827" id="Line-13-Copy-4" opacity="0.1" stroke-linecap="square"></line>
                    <line x1="193.248062" y1="156.995924" x2="0.751937984" y2="156.995924" id="Line-13-Copy-5" opacity="0.1" stroke-linecap="square"></line>
                    <line x1="0.751937984" y1="48.8264834" x2="193.248062" y2="48.8264834" id="Line-Copy-4" opacity="0.25" stroke-linecap="square"></line>
                    <line x1="0.751937984" y1="120.939444" x2="193.248062" y2="120.939444" id="Line-Copy-2" opacity="0.25" stroke-linecap="square"></line>
                    <line x1="0.751937984" y1="144.977097" x2="193.248062" y2="144.977097" id="Line-Copy-3" opacity="0.25" stroke-linecap="square"></line>
                    <line x1="97" y1="0.751176668" x2="97" y2="193.052404" id="Line-2" stroke-linecap="square"></line>
                    <line x1="121.062016" y1="0.751176668" x2="121.062016" y2="193.052404" id="Line-2-Copy" opacity="0.25" stroke-linecap="square"></line>
                    <line x1="72.9379845" y1="0.751176668" x2="72.9379845" y2="193.052404" id="Line-2-Copy-3" opacity="0.25" stroke-linecap="square"></line>
                    <line x1="48.875969" y1="0.751176668" x2="48.875969" y2="193.052404" id="Line-2-Copy-4" opacity="0.25" stroke-linecap="square"></line>
                    <line x1="145.124031" y1="0.751176668" x2="145.124031" y2="193.052404" id="Line-2-Copy-2" opacity="0.25" stroke-linecap="square"></line>
                    <line x1="24.8139535" y1="169.01475" x2="169.186047" y2="24.7888301" id="Line-3" opacity="0.75" stroke-linecap="square"></line>
                    <line x1="24.8139535" y1="24.7888301" x2="169.186047" y2="169.01475" id="Line-4" opacity="0.75" stroke-linecap="square"></line>
                    <line x1="72.9379845" y1="24.7888301" x2="169.186047" y2="120.939444" id="Line-5" opacity="0.25" stroke-linecap="square"></line>
                    <line x1="121.062016" y1="24.7888301" x2="169.186047" y2="72.8641368" id="Line-6" opacity="0.25" stroke-linecap="square"></line>
                    <line x1="24.8139535" y1="72.8641368" x2="121.062016" y2="169.01475" id="Line-7" opacity="0.25" stroke-linecap="square"></line>
                    <line x1="24.8139535" y1="120.939444" x2="72.9379845" y2="169.01475" id="Line-8" opacity="0.25" stroke-linecap="square"></line>
                    <line x1="72.9379845" y1="169.01475" x2="169.186047" y2="72.8641368" id="Line-9" opacity="0.25" stroke-linecap="square"></line>
                    <line x1="121.062016" y1="169.01475" x2="169.186047" y2="120.939444" id="Line-10" opacity="0.25" stroke-linecap="square"></line>
                    <line x1="24.8139535" y1="120.939444" x2="121.062016" y2="24.7888301" id="Line-11" opacity="0.25" stroke-linecap="square"></line>
                    <line x1="24.8139535" y1="72.8641368" x2="72.9379845" y2="24.7888301" id="Line-12" opacity="0.25" stroke-linecap="square"></line>
                    <line x1="84.9689922" y1="193.052404" x2="84.9689922" y2="0.751176668" id="Line-14" opacity="0.1" stroke-linecap="square"></line>
                    <line x1="109.031008" y1="193.052404" x2="109.031008" y2="0.751176668" id="Line-14-Copy-3" opacity="0.1" stroke-linecap="square"></line>
                    <line x1="133.093023" y1="193.052404" x2="133.093023" y2="0.751176668" id="Line-14-Copy-4" opacity="0.1" stroke-linecap="square"></line>
                    <line x1="157.155039" y1="193.052404" x2="157.155039" y2="0.751176668" id="Line-14-Copy-5" opacity="0.1" stroke-linecap="square"></line>
                    <line x1="60.9069767" y1="193.052404" x2="60.9069767" y2="0.751176668" id="Line-14-Copy" opacity="0.1" stroke-linecap="square"></line>
                    <line x1="36.8449612" y1="193.052404" x2="36.8449612" y2="0.751176668" id="Line-14-Copy-2" opacity="0.1" stroke-linecap="square"></line>
                </g>
            </g>
            <path d="M48.124031,60.0941335 L53.5092474,156.929886 C53.8628677,163.288606 59.1221899,168.263574 65.4907343,168.263574 L126.995537,168.263574 C133.368096,168.263574 138.629266,163.282538 138.977597,156.919507 L143.273744,78.4409267 C143.454875,75.1321723 140.919435,72.3030613 137.61068,72.1219304 C137.50146,72.1159513 137.392097,72.1129602 137.282714,72.1129602 L126.310078,72.1129602 C122.996369,72.1129602 120.310078,74.7992517 120.310078,78.1129602 L120.310078,138.22592 C120.310078,141.539629 117.623786,144.22592 114.310078,144.22592 L102.248062,144.22592 C98.9343535,144.22592 96.248062,141.539629 96.248062,138.22592 L96.248062,78.1129602 C96.248062,74.7992517 93.5617705,72.1129602 90.248062,72.1129602 L78.1860465,72.1129602 C74.872338,72.1129602 72.1860465,74.7992517 72.1860465,78.1129602 L72.1860465,144.22592 L72.1860465,144.22592" id="Path-24" stroke="#000000" stroke-width="12"></path>
            <path d="M36.0930233,48.0753068 L154.903101,48.0753068 C155.731528,48.0753068 156.403101,47.4037339 156.403101,46.5753068 L156.403101,42.0658934 C156.403101,38.7469861 153.712595,36.0564801 150.393687,36.0564801 L123.310078,36.0564801 C121.653223,36.0564801 120.310078,34.7133343 120.310078,33.0564801 L120.310078,30.0376534 C120.310078,26.7239449 117.623786,24.0376534 114.310078,24.0376534 L78.1860465,24.0376534 C74.872338,24.0376534 72.1860465,26.7239449 72.1860465,30.0376534 L72.1860465,36.0564801 L72.1860465,36.0564801" id="Path-25" stroke="#000000" stroke-width="12"></path>
            <path d="M49.0639535,250.616574 C52.0155607,250.616574 54.6212765,251.330693 56.8811008,252.75893 C59.1409251,254.187167 60.9049716,256.225861 62.1732403,258.875011 C63.441509,261.52416 64.0756434,264.599478 64.0756434,268.100962 C64.0756434,271.602447 63.441509,274.712319 62.1732403,277.430577 C60.9049716,280.148835 59.1293953,282.256636 56.8465116,283.753982 C54.5636279,285.251327 51.9694419,286 49.0639535,286 C46.8041292,286 44.7403101,285.539278 42.8724961,284.617835 C41.0046822,283.696392 39.5865271,282.429407 38.618031,280.816881 L38.618031,285.447134 L26.5118295,285.447134 L26.5118295,236.725815 L38.8255659,236.725815 L38.8255659,255.454152 C39.8401809,253.979843 41.2583359,252.805002 43.080031,251.929631 C44.9017261,251.05426 46.8963669,250.616574 49.0639535,250.616574 Z M45.2591473,276.808602 C47.380615,276.808602 49.0178346,276.05993 50.1708062,274.562584 C51.3237778,273.065239 51.9002636,270.911365 51.9002636,268.100962 C51.9002636,265.428777 51.3353075,263.378565 50.2053953,261.950328 C49.0754832,260.522091 47.4497933,259.807972 45.3283256,259.807972 C43.160739,259.807972 41.5004599,260.533609 40.3474884,261.984882 C39.1945168,263.436155 38.618031,265.520921 38.618031,268.239179 C38.618031,271.003509 39.1945168,273.122829 40.3474884,274.597138 C41.5004599,276.071448 43.1376796,276.808602 45.2591473,276.808602 Z M86.9044806,286 C83.1688527,286 79.8828837,285.274363 77.0465736,283.82309 C74.2102636,282.371817 72.0196176,280.310087 70.4746357,277.637901 C68.9296537,274.965716 68.1571628,271.832808 68.1571628,268.239179 C68.1571628,264.64555 68.9296537,261.52416 70.4746357,258.875011 C72.0196176,256.225861 74.1987339,254.187167 77.0119845,252.75893 C79.8252351,251.330693 83.1227339,250.616574 86.9044806,250.616574 C90.6862274,250.616574 93.9837261,251.330693 96.7969767,252.75893 C99.6102274,254.187167 101.789344,256.225861 103.334326,258.875011 C104.879307,261.52416 105.651798,264.64555 105.651798,268.239179 C105.651798,271.832808 104.879307,274.965716 103.334326,277.637901 C101.789344,280.310087 99.6102274,282.371817 96.7969767,283.82309 C93.9837261,285.274363 90.6862274,286 86.9044806,286 Z M86.9044806,276.808602 C91.2857726,276.808602 93.4764186,273.952128 93.4764186,268.239179 C93.4764186,262.52623 91.2857726,259.669755 86.9044806,259.669755 C82.5231886,259.669755 80.3325426,262.52623 80.3325426,268.239179 C80.3325426,273.952128 82.5231886,276.808602 86.9044806,276.808602 Z M111.25524,285.447134 L111.25524,236.725815 L123.568977,236.725815 L123.568977,285.447134 L111.25524,285.447134 Z M166.736233,236.725815 L166.736233,285.447134 L154.630031,285.447134 L154.630031,280.816881 C153.661535,282.429407 152.24338,283.696392 150.375566,284.617835 C148.507752,285.539278 146.443933,286 144.184109,286 C141.27862,286 138.684434,285.251327 136.40155,283.753982 C134.118667,282.256636 132.331561,280.148835 131.040233,277.430577 C129.748904,274.712319 129.10324,271.602447 129.10324,268.100962 C129.10324,264.599478 129.737375,261.52416 131.005643,258.875011 C132.273912,256.225861 134.049488,254.187167 136.332372,252.75893 C138.615256,251.330693 141.232501,250.616574 144.184109,250.616574 C146.351695,250.616574 148.346336,251.05426 150.168031,251.929631 C151.989726,252.805002 153.407881,253.979843 154.422496,255.454152 L154.422496,236.725815 L166.736233,236.725815 Z M147.919736,276.808602 C150.087323,276.808602 151.747602,276.071448 152.900574,274.597138 C154.053545,273.122829 154.630031,271.003509 154.630031,268.239179 C154.630031,265.520921 154.053545,263.436155 152.900574,261.984882 C151.747602,260.533609 150.087323,259.807972 147.919736,259.807972 C145.798269,259.807972 144.161049,260.522091 143.008078,261.950328 C141.855106,263.378565 141.27862,265.428777 141.27862,268.100962 C141.27862,270.865292 141.866636,273.007648 143.042667,274.52803 C144.218698,276.048411 145.844388,276.808602 147.919736,276.808602 Z" id="Shape" fill="#000000" fill-rule="nonzero"></path>
        </g>
        <g id="regular" transform="translate(743.000000, 107.000000)">
            <g id="Group" transform="translate(8.150538, 0.000000)" stroke="#979797" stroke-opacity="0.01" stroke-width="0.5">
                <g id="frame">
                    <rect id="Rectangle" x="0" y="0" width="191.566081" height="192.062517"></rect>
                </g>
            </g>
            <g id="Group" transform="translate(8.150538, 0.000000)" opacity="0.75" stroke="#979797" stroke-width="1.5">
                <g id="grid" opacity="0.50125558">
                    <rect id="Rectangle" opacity="0.25" x="24.6940651" y="24.7580588" width="143.67456" height="144.046888"></rect>
                    <ellipse id="Oval" opacity="0.75" cx="96.5313453" cy="96.7815027" rx="71.8372802" ry="72.0234439"></ellipse>
                    <ellipse id="Oval-Copy-2" opacity="0.25" cx="96.5313453" cy="96.7815027" rx="47.8915201" ry="48.0156292"></ellipse>
                    <ellipse id="Oval-Copy" opacity="0.25" cx="96.5313453" cy="96.7815027" rx="86.8033803" ry="87.028328"></ellipse>
                    <line x1="0.748305002" y1="96.7815027" x2="192.314386" y2="96.7815027" id="Line" stroke-linecap="square"></line>
                    <line x1="0.748305002" y1="72.7736881" x2="192.314386" y2="72.7736881" id="Line-Copy" opacity="0.25" stroke-linecap="square"></line>
                    <line x1="192.314386" y1="84.7775954" x2="0.748305002" y2="84.7775954" id="Line-13" opacity="0.1" stroke-linecap="square"></line>
                    <line x1="192.314386" y1="60.7697808" x2="0.748305002" y2="60.7697808" id="Line-13-Copy-2" opacity="0.1" stroke-linecap="square"></line>
                    <line x1="192.314386" y1="36.7619661" x2="0.748305002" y2="36.7619661" id="Line-13-Copy-3" opacity="0.1" stroke-linecap="square"></line>
                    <line x1="192.314386" y1="108.78541" x2="0.748305002" y2="108.78541" id="Line-13-Copy" opacity="0.1" stroke-linecap="square"></line>
                    <line x1="192.314386" y1="132.793225" x2="0.748305002" y2="132.793225" id="Line-13-Copy-4" opacity="0.1" stroke-linecap="square"></line>
                    <line x1="192.314386" y1="156.801039" x2="0.748305002" y2="156.801039" id="Line-13-Copy-5" opacity="0.1" stroke-linecap="square"></line>
                    <line x1="0.748305002" y1="48.7658735" x2="192.314386" y2="48.7658735" id="Line-Copy-4" opacity="0.25" stroke-linecap="square"></line>
                    <line x1="0.748305002" y1="120.789317" x2="192.314386" y2="120.789317" id="Line-Copy-2" opacity="0.25" stroke-linecap="square"></line>
                    <line x1="0.748305002" y1="144.797132" x2="192.314386" y2="144.797132" id="Line-Copy-3" opacity="0.25" stroke-linecap="square"></line>
                    <line x1="96.5313453" y1="0.750244207" x2="96.5313453" y2="192.812761" id="Line-2" stroke-linecap="square"></line>
                    <line x1="120.477105" y1="0.750244207" x2="120.477105" y2="192.812761" id="Line-2-Copy" opacity="0.25" stroke-linecap="square"></line>
                    <line x1="72.5855852" y1="0.750244207" x2="72.5855852" y2="192.812761" id="Line-2-Copy-3" opacity="0.25" stroke-linecap="square"></line>
                    <line x1="48.6398251" y1="0.750244207" x2="48.6398251" y2="192.812761" id="Line-2-Copy-4" opacity="0.25" stroke-linecap="square"></line>
                    <line x1="144.422865" y1="0.750244207" x2="144.422865" y2="192.812761" id="Line-2-Copy-2" opacity="0.25" stroke-linecap="square"></line>
                    <line x1="24.6940651" y1="168.804947" x2="168.368625" y2="24.7580588" id="Line-3" opacity="0.75" stroke-linecap="square"></line>
                    <line x1="24.6940651" y1="24.7580588" x2="168.368625" y2="168.804947" id="Line-4" opacity="0.75" stroke-linecap="square"></line>
                    <line x1="72.5855852" y1="24.7580588" x2="168.368625" y2="120.789317" id="Line-5" opacity="0.25" stroke-linecap="square"></line>
                    <line x1="120.477105" y1="24.7580588" x2="168.368625" y2="72.7736881" id="Line-6" opacity="0.25" stroke-linecap="square"></line>
                    <line x1="24.6940651" y1="72.7736881" x2="120.477105" y2="168.804947" id="Line-7" opacity="0.25" stroke-linecap="square"></line>
                    <line x1="24.6940651" y1="120.789317" x2="72.5855852" y2="168.804947" id="Line-8" opacity="0.25" stroke-linecap="square"></line>
                    <line x1="72.5855852" y1="168.804947" x2="168.368625" y2="72.7736881" id="Line-9" opacity="0.25" stroke-linecap="square"></line>
                    <line x1="120.477105" y1="168.804947" x2="168.368625" y2="120.789317" id="Line-10" opacity="0.25" stroke-linecap="square"></line>
                    <line x1="24.6940651" y1="120.789317" x2="120.477105" y2="24.7580588" id="Line-11" opacity="0.25" stroke-linecap="square"></line>
                    <line x1="24.6940651" y1="72.7736881" x2="72.5855852" y2="24.7580588" id="Line-12" opacity="0.25" stroke-linecap="square"></line>
                    <line x1="84.5584652" y1="192.812761" x2="84.5584652" y2="0.750244207" id="Line-14" opacity="0.1" stroke-linecap="square"></line>
                    <line x1="108.504225" y1="192.812761" x2="108.504225" y2="0.750244207" id="Line-14-Copy-3" opacity="0.1" stroke-linecap="square"></line>
                    <line x1="132.449985" y1="192.812761" x2="132.449985" y2="0.750244207" id="Line-14-Copy-4" opacity="0.1" stroke-linecap="square"></line>
                    <line x1="156.395745" y1="192.812761" x2="156.395745" y2="0.750244207" id="Line-14-Copy-5" opacity="0.1" stroke-linecap="square"></line>
                    <line x1="60.6127052" y1="192.812761" x2="60.6127052" y2="0.750244207" id="Line-14-Copy" opacity="0.1" stroke-linecap="square"></line>
                    <line x1="36.6669451" y1="192.812761" x2="36.6669451" y2="0.750244207" id="Line-14-Copy-2" opacity="0.1" stroke-linecap="square"></line>
                </g>
            </g>
            <path d="M56.0420582,60.0195366 L61.4003441,156.718627 C61.7527482,163.078339 67.0124957,168.054702 73.3819635,168.054702 L134.475374,168.054702 C140.848842,168.054702 146.11043,163.072292 146.457562,156.708285 L150.731691,78.350235 C150.912173,75.0414451 148.376178,72.2128316 145.067388,72.0323499 C144.958559,72.0264136 144.849588,72.0234439 144.740597,72.0234439 L133.879338,72.0234439 C130.56563,72.0234439 127.879338,74.7097354 127.879338,78.0234439 L127.879338,138.046888 C127.879338,141.360596 125.193047,144.046888 121.879338,144.046888 L109.933578,144.046888 C106.61987,144.046888 103.933578,141.360596 103.933578,138.046888 L103.933578,78.0234439 C103.933578,74.7097354 101.247287,72.0234439 97.9335784,72.0234439 L85.9878183,72.0234439 C82.6741098,72.0234439 79.9878183,74.7097354 79.9878183,78.0234439 L79.9878183,144.046888 L79.9878183,144.046888" id="Path-24" stroke="#000000" stroke-width="7.5"></path>
            <path d="M44.0691782,48.0156292 L162.297979,48.0156292 C163.126406,48.0156292 163.797979,47.3440564 163.797979,46.5156292 L163.797979,42.0136756 C163.797979,38.6988881 161.110812,36.0117219 157.796025,36.0117219 L130.879338,36.0117219 C129.222484,36.0117219 127.879338,34.6685762 127.879338,33.0117219 L127.879338,30.0078146 C127.879338,26.6941061 125.193047,24.0078146 121.879338,24.0078146 L85.9878183,24.0078146 C82.6741098,24.0078146 79.9878183,26.6941061 79.9878183,30.0078146 L79.9878183,36.0117219 L79.9878183,36.0117219" id="Path-25" stroke="#000000" stroke-width="7.5"></path>
            <path d="M20.4466859,256.448475 L16.2471982,256.86261 C12.9426833,257.184714 10.5675632,258.197044 9.12183798,259.899598 C7.67611271,261.602152 6.95325008,263.764856 6.95325008,266.38771 L6.95325008,285.092799 L0,285.092799 L0,251.409835 L6.7467179,251.409835 L6.7467179,257.276744 C8.53666346,253.319456 12.1853987,251.133745 17.6929235,250.71961 L19.9647775,250.581565 L20.4466859,256.448475 Z M53.2853026,269.424699 L29.5341018,269.424699 C30.0389583,276.55702 33.5729534,280.123181 40.1360871,280.123181 C43.9913545,280.123181 47.4794535,278.857769 50.6003842,276.326945 L52.7345501,281.227541 C51.1740847,282.561975 49.2464511,283.620319 46.9516491,284.402574 C44.656847,285.184829 42.316149,285.575956 39.9295549,285.575956 C34.5597182,285.575956 30.3258085,284.034454 27.2278258,280.951451 C24.1298431,277.868447 22.5808517,273.612062 22.5808517,268.182294 C22.5808517,264.731171 23.2578183,261.671175 24.6117515,259.002306 C25.9656847,256.333437 27.8703704,254.262763 30.3258085,252.790284 C32.7812467,251.317805 35.5694311,250.581565 38.6903618,250.581565 C43.2340698,250.581565 46.8024869,252.054044 49.3956132,254.999003 C51.9887395,257.943962 53.2853026,262.016287 53.2853026,267.21598 L53.2853026,269.424699 Z M38.82805,255.689228 C36.1660796,255.689228 34.0433878,256.529001 32.4599744,258.208548 C30.876561,259.888094 29.9242182,262.292377 29.6029459,265.421396 L47.2958694,265.421396 C47.1581812,262.292377 46.3664745,259.888094 44.9207493,258.208548 C43.475024,256.529001 41.4441242,255.689228 38.82805,255.689228 Z M92.1821966,251.409835 L92.1821966,282.400922 C92.1821966,287.5546 90.8167894,291.442866 88.085975,294.065719 C85.3551606,296.688573 81.3277831,298 76.0038425,298 C73.1123919,298 70.3701035,297.620376 67.7769773,296.861129 C65.183851,296.101882 62.877575,295.009026 60.8581492,293.582562 L62.9923151,288.543922 C65.195325,289.970386 67.3180169,290.99422 69.3603907,291.615422 C71.4027644,292.236624 73.5943004,292.547225 75.9349984,292.547225 C82.2227559,292.547225 85.3666346,289.349184 85.3666346,282.953102 L85.3666346,277.638372 C84.4028178,279.663031 82.9341445,281.239044 80.9606148,282.366411 C78.9870851,283.493778 76.6922831,284.057462 74.0762088,284.057462 C71.1388622,284.057462 68.5227879,283.367237 66.2279859,281.986788 C63.9331839,280.606338 62.1547123,278.650702 60.8925712,276.119878 C59.6304301,273.589054 58.9993596,270.667103 58.9993596,267.354025 C58.9993596,264.040946 59.6419042,261.118995 60.9269933,258.588171 C62.2120824,256.057348 63.990554,254.090207 66.2624079,252.68675 C68.5342619,251.283294 71.1388622,250.581565 74.0762088,250.581565 C76.646387,250.581565 78.906767,251.133745 80.8573487,252.238104 C82.8079304,253.342464 84.2880777,254.906973 85.2977906,256.931632 L85.2977906,251.409835 L92.1821966,251.409835 Z M75.7284662,278.535664 C78.7117088,278.535664 81.0524069,277.546342 82.7505604,275.567698 C84.4487138,273.589054 85.2977906,270.851163 85.2977906,267.354025 C85.2977906,263.902901 84.4601879,261.176514 82.7849824,259.174862 C81.1097769,257.173211 78.7576049,256.172385 75.7284662,256.172385 C72.6993276,256.172385 70.3242075,257.161707 68.603106,259.140351 C66.8820045,261.118995 66.0214537,263.856886 66.0214537,267.354025 C66.0214537,270.851163 66.8934785,273.589054 68.637528,275.567698 C70.3815775,277.546342 72.7452236,278.535664 75.7284662,278.535664 Z M131.354467,251.409835 L131.354467,285.092799 L124.607749,285.092799 L124.607749,279.640024 C123.55214,281.572653 122.094941,283.045132 120.236151,284.057462 C118.377362,285.069791 116.300566,285.575956 114.005764,285.575956 C105.836269,285.575956 101.751521,281.066488 101.751521,272.047552 L101.751521,251.409835 L108.704771,251.409835 L108.704771,271.97853 C108.704771,274.693414 109.255524,276.695065 110.357028,277.983485 C111.458533,279.271904 113.156687,279.916114 115.451489,279.916114 C118.159355,279.916114 120.327943,279.041829 121.957253,277.29326 C123.586562,275.544691 124.401217,273.220934 124.401217,270.321991 L124.401217,251.409835 L131.354467,251.409835 Z M141.061479,285.092799 L141.061479,236.431959 L148.014729,236.431959 L148.014729,285.092799 L141.061479,285.092799 Z M171.76593,250.581565 C176.263742,250.581565 179.602679,251.708932 181.782741,253.963666 C183.962803,256.2184 185.052834,259.646516 185.052834,264.248014 L185.052834,285.092799 L178.37496,285.092799 L178.37496,279.501979 C177.502935,281.480623 176.206372,282.987613 174.485271,284.02295 C172.764169,285.058287 170.756217,285.575956 168.461415,285.575956 C166.258405,285.575956 164.23898,285.12731 162.403138,284.230018 C160.567296,283.332726 159.133045,282.078818 158.100384,280.468293 C157.067723,278.857769 156.551393,277.063185 156.551393,275.084541 C156.551393,272.645747 157.182463,270.724622 158.444605,269.321165 C159.706746,267.917708 161.795015,266.916882 164.709414,266.318688 C165.915372,266.071159 167.30797,265.874843 168.887209,265.72974 L169.692381,265.661456 C169.829169,265.650787 169.967253,265.640473 170.106633,265.630515 L170.958465,265.575034 L170.958465,265.575034 L171.841405,265.528089 C171.991154,265.520976 172.142199,265.514219 172.29454,265.507817 L173.224139,265.473675 L173.224139,265.473675 L174.184845,265.448069 C174.835685,265.433843 175.507262,265.425308 176.199578,265.422462 L178.306116,265.421396 L178.306116,263.419744 C178.306116,260.842905 177.766837,258.979299 176.68828,257.828924 C175.609724,256.67855 173.8542,256.103363 171.42171,256.103363 C167.612339,256.103363 163.802967,257.276744 159.993596,259.623508 L157.928274,254.722913 C159.71822,253.480509 161.886808,252.479683 164.434038,251.720436 C166.981268,250.961189 169.425232,250.581565 171.76593,250.581565 Z M169.700608,280.399271 C172.224891,280.399271 174.290212,279.53649 175.896574,277.810928 C177.502935,276.085367 178.306116,273.865144 178.306116,271.15026 L178.306116,269.355676 L177.066923,269.355676 C176.768599,269.355676 176.476011,269.356795 176.189161,269.359031 L175.345821,269.369097 C175.208133,269.371334 175.071879,269.37385 174.93706,269.376647 L174.145353,269.396778 L174.145353,269.396778 L173.388068,269.42362 C173.264723,269.428653 173.142811,269.433966 173.022334,269.439558 L172.316683,269.476465 C172.201943,269.483176 172.088637,269.490166 171.976765,269.497436 L171.322747,269.544409 C170.367535,269.619903 169.528498,269.718044 168.805636,269.838833 C166.878002,270.160938 165.501121,270.701614 164.674992,271.460861 C163.848863,272.220109 163.435799,273.312964 163.435799,274.739429 C163.435799,276.349953 164.020973,277.695891 165.191322,278.777243 C166.361671,279.858595 167.864767,280.399271 169.700608,280.399271 Z M215,256.448475 L210.800512,256.86261 C207.495997,257.184714 205.120877,258.197044 203.675152,259.899598 C202.229427,261.602152 201.506564,263.764856 201.506564,266.38771 L201.506564,285.092799 L194.553314,285.092799 L194.553314,251.409835 L201.300032,251.409835 L201.300032,257.276744 C203.089978,253.319456 206.738713,251.133745 212.246238,250.71961 L214.518092,250.581565 L215,256.448475 Z" id="Shape" fill="#000000" fill-rule="nonzero"></path>
        </g>
        <g id="light" transform="translate(293.000000, 107.000000)">
            <g id="Group" stroke="#979797" stroke-opacity="0.01" stroke-width="0.5">
                <g id="frame">
                    <rect id="Rectangle" x="0" y="0" width="192.496124" height="192.062517"></rect>
                </g>
            </g>
            <g id="Group" opacity="0.75" stroke="#979797" stroke-width="1.5">
                <g id="grid" opacity="0.50125558">
                    <rect id="Rectangle" opacity="0.25" x="24.8139535" y="24.7580588" width="144.372093" height="144.046888"></rect>
                    <ellipse id="Oval" opacity="0.75" cx="97" cy="96.7815027" rx="72.1860465" ry="72.0234439"></ellipse>
                    <ellipse id="Oval-Copy-2" opacity="0.25" cx="97" cy="96.7815027" rx="48.124031" ry="48.0156292"></ellipse>
                    <ellipse id="Oval-Copy" opacity="0.25" cx="97" cy="96.7815027" rx="87.2248062" ry="87.028328"></ellipse>
                    <line x1="0.751937984" y1="96.7815027" x2="193.248062" y2="96.7815027" id="Line" stroke-linecap="square"></line>
                    <line x1="0.751937984" y1="72.7736881" x2="193.248062" y2="72.7736881" id="Line-Copy" opacity="0.25" stroke-linecap="square"></line>
                    <line x1="193.248062" y1="84.7775954" x2="0.751937984" y2="84.7775954" id="Line-13" opacity="0.1" stroke-linecap="square"></line>
                    <line x1="193.248062" y1="60.7697808" x2="0.751937984" y2="60.7697808" id="Line-13-Copy-2" opacity="0.1" stroke-linecap="square"></line>
                    <line x1="193.248062" y1="36.7619661" x2="0.751937984" y2="36.7619661" id="Line-13-Copy-3" opacity="0.1" stroke-linecap="square"></line>
                    <line x1="193.248062" y1="108.78541" x2="0.751937984" y2="108.78541" id="Line-13-Copy" opacity="0.1" stroke-linecap="square"></line>
                    <line x1="193.248062" y1="132.793225" x2="0.751937984" y2="132.793225" id="Line-13-Copy-4" opacity="0.1" stroke-linecap="square"></line>
                    <line x1="193.248062" y1="156.801039" x2="0.751937984" y2="156.801039" id="Line-13-Copy-5" opacity="0.1" stroke-linecap="square"></line>
                    <line x1="0.751937984" y1="48.7658735" x2="193.248062" y2="48.7658735" id="Line-Copy-4" opacity="0.25" stroke-linecap="square"></line>
                    <line x1="0.751937984" y1="120.789317" x2="193.248062" y2="120.789317" id="Line-Copy-2" opacity="0.25" stroke-linecap="square"></line>
                    <line x1="0.751937984" y1="144.797132" x2="193.248062" y2="144.797132" id="Line-Copy-3" opacity="0.25" stroke-linecap="square"></line>
                    <line x1="97" y1="0.750244207" x2="97" y2="192.812761" id="Line-2" stroke-linecap="square"></line>
                    <line x1="121.062016" y1="0.750244207" x2="121.062016" y2="192.812761" id="Line-2-Copy" opacity="0.25" stroke-linecap="square"></line>
                    <line x1="72.9379845" y1="0.750244207" x2="72.9379845" y2="192.812761" id="Line-2-Copy-3" opacity="0.25" stroke-linecap="square"></line>
                    <line x1="48.875969" y1="0.750244207" x2="48.875969" y2="192.812761" id="Line-2-Copy-4" opacity="0.25" stroke-linecap="square"></line>
                    <line x1="145.124031" y1="0.750244207" x2="145.124031" y2="192.812761" id="Line-2-Copy-2" opacity="0.25" stroke-linecap="square"></line>
                    <line x1="24.8139535" y1="168.804947" x2="169.186047" y2="24.7580588" id="Line-3" opacity="0.75" stroke-linecap="square"></line>
                    <line x1="24.8139535" y1="24.7580588" x2="169.186047" y2="168.804947" id="Line-4" opacity="0.75" stroke-linecap="square"></line>
                    <line x1="72.9379845" y1="24.7580588" x2="169.186047" y2="120.789317" id="Line-5" opacity="0.25" stroke-linecap="square"></line>
                    <line x1="121.062016" y1="24.7580588" x2="169.186047" y2="72.7736881" id="Line-6" opacity="0.25" stroke-linecap="square"></line>
                    <line x1="24.8139535" y1="72.7736881" x2="121.062016" y2="168.804947" id="Line-7" opacity="0.25" stroke-linecap="square"></line>
                    <line x1="24.8139535" y1="120.789317" x2="72.9379845" y2="168.804947" id="Line-8" opacity="0.25" stroke-linecap="square"></line>
                    <line x1="72.9379845" y1="168.804947" x2="169.186047" y2="72.7736881" id="Line-9" opacity="0.25" stroke-linecap="square"></line>
                    <line x1="121.062016" y1="168.804947" x2="169.186047" y2="120.789317" id="Line-10" opacity="0.25" stroke-linecap="square"></line>
                    <line x1="24.8139535" y1="120.789317" x2="121.062016" y2="24.7580588" id="Line-11" opacity="0.25" stroke-linecap="square"></line>
                    <line x1="24.8139535" y1="72.7736881" x2="72.9379845" y2="24.7580588" id="Line-12" opacity="0.25" stroke-linecap="square"></line>
                    <line x1="84.9689922" y1="192.812761" x2="84.9689922" y2="0.750244207" id="Line-14" opacity="0.1" stroke-linecap="square"></line>
                    <line x1="109.031008" y1="192.812761" x2="109.031008" y2="0.750244207" id="Line-14-Copy-3" opacity="0.1" stroke-linecap="square"></line>
                    <line x1="133.093023" y1="192.812761" x2="133.093023" y2="0.750244207" id="Line-14-Copy-4" opacity="0.1" stroke-linecap="square"></line>
                    <line x1="157.155039" y1="192.812761" x2="157.155039" y2="0.750244207" id="Line-14-Copy-5" opacity="0.1" stroke-linecap="square"></line>
                    <line x1="60.9069767" y1="192.812761" x2="60.9069767" y2="0.750244207" id="Line-14-Copy" opacity="0.1" stroke-linecap="square"></line>
                    <line x1="36.8449612" y1="192.812761" x2="36.8449612" y2="0.750244207" id="Line-14-Copy-2" opacity="0.1" stroke-linecap="square"></line>
                </g>
            </g>
            <path d="M36.1276124,285.092799 L36.1276124,236.431959 L40.3474884,236.431959 L40.3474884,285.092799 L36.1276124,285.092799 Z M51.4851938,285.092799 L51.4851938,251.616902 L55.7050698,251.616902 L55.7050698,285.092799 L51.4851938,285.092799 Z M50.8625891,237.467296 L56.3968527,237.467296 L56.3968527,242.782026 L50.8625891,242.782026 L50.8625891,237.467296 Z M95.690124,251.616902 L95.690124,283.16017 C95.690124,288.037757 94.4795039,291.730459 92.0582636,294.238276 C89.6370233,296.746092 86.0512817,298 81.3010388,298 C75.6745375,298 70.8320568,296.458498 66.7735969,293.375495 L68.433876,290.062416 C70.6937003,291.626926 72.7805788,292.719781 74.6945116,293.340983 C76.6084444,293.962186 78.8336796,294.272787 81.3702171,294.272787 C84.7368941,294.272787 87.2734315,293.375495 88.9798295,291.580911 C90.6862274,289.786326 91.5394264,287.117458 91.5394264,283.574304 L91.5394264,277.01717 C90.5709302,279.271904 89.0835969,281.008969 87.0774264,282.228366 C85.0712558,283.447763 82.6384858,284.057462 79.7791163,284.057462 C76.827509,284.057462 74.2102636,283.367237 71.9273798,281.986788 C69.6444961,280.606338 67.8689199,278.650702 66.6006512,276.119878 C65.3323824,273.589054 64.6982481,270.690111 64.6982481,267.423047 C64.6982481,264.155984 65.3323824,261.25704 66.6006512,258.726216 C67.8689199,256.195392 69.6444961,254.239756 71.9273798,252.859307 C74.2102636,251.478857 76.827509,250.788633 79.7791163,250.788633 C82.5923669,250.788633 84.9905478,251.375324 86.9736589,252.548705 C88.95677,253.722087 90.4556331,255.436145 91.4702481,257.690879 L91.4702481,251.616902 L95.690124,251.616902 Z M80.3325426,280.330248 C83.8375762,280.330248 86.5701189,279.179874 88.5301705,276.879125 C90.4902222,274.578376 91.4702481,271.42635 91.4702481,267.423047 C91.4702481,263.419744 90.4786925,260.256214 88.4955814,257.932458 C86.5124703,255.608701 83.7914574,254.446823 80.3325426,254.446823 C76.827509,254.446823 74.0834367,255.597198 72.1003256,257.897947 C70.1172145,260.198696 69.1256589,263.373729 69.1256589,267.423047 C69.1256589,271.472365 70.1172145,274.635895 72.1003256,276.913636 C74.0834367,279.191378 76.827509,280.330248 80.3325426,280.330248 Z M122.462124,250.788633 C130.532925,250.788633 134.568326,255.11404 134.568326,263.764856 L134.568326,285.092799 L130.34845,285.092799 L130.34845,264.040946 C130.34845,260.727868 129.679726,258.312081 128.342279,256.793587 C127.004832,255.275093 124.883364,254.515846 121.977876,254.515846 C118.657318,254.515846 115.993953,255.528175 113.987783,257.552834 C111.981612,259.577493 110.978527,262.292377 110.978527,265.697485 L110.978527,285.092799 L106.758651,285.092799 L106.758651,236.431959 L110.978527,236.431959 L110.978527,257.207722 C112.039261,255.137048 113.572713,253.549531 115.578884,252.445172 C117.585054,251.340812 119.879468,250.788633 122.462124,250.788633 Z M159.195798,281.986788 C160.210413,281.986788 161.201969,281.917765 162.170465,281.77972 L161.96293,285.299866 C160.948315,285.437911 159.864522,285.506933 158.71155,285.506933 C154.929804,285.506933 152.070434,284.4831 150.133442,282.435434 C148.19645,280.387767 147.227953,277.592357 147.227953,274.049204 L147.227953,254.999003 L140.586837,254.999003 L140.586837,251.616902 L147.227953,251.616902 L147.227953,241.263532 L151.447829,241.263532 L151.447829,251.616902 L161.271147,251.616902 L161.271147,254.999003 L151.447829,254.999003 L151.447829,273.497024 C151.447829,276.303938 152.105023,278.420627 153.419411,279.847091 C154.733798,281.273555 156.659261,281.986788 159.195798,281.986788 Z" id="Shape" fill="#000000" fill-rule="nonzero"></path>
            <path d="M48.124031,60.0195366 L53.50851,156.721841 C53.8625507,163.080217 59.1217259,168.054702 65.489951,168.054702 L126.996309,168.054702 C133.368553,168.054702 138.629578,163.074142 138.978324,156.711448 L143.273291,78.3518168 C143.454646,75.0430747 140.919398,72.2137917 137.610656,72.0324363 C137.501301,72.0264425 137.391802,72.0234439 137.282283,72.0234439 L126.310078,72.0234439 C122.996369,72.0234439 120.310078,74.7097354 120.310078,78.0234439 L120.310078,138.046888 C120.310078,141.360596 117.623786,144.046888 114.310078,144.046888 L102.248062,144.046888 C98.9343535,144.046888 96.248062,141.360596 96.248062,138.046888 L96.248062,78.0234439 C96.248062,74.7097354 93.5617705,72.0234439 90.248062,72.0234439 L78.1860465,72.0234439 C74.872338,72.0234439 72.1860465,74.7097354 72.1860465,78.0234439 L72.1860465,144.046888 L72.1860465,144.046888" id="Path-24" stroke="#000000" stroke-width="4.5"></path>
            <path d="M36.0930233,48.0156292 L154.903101,48.0156292 C155.731528,48.0156292 156.403101,47.3440564 156.403101,46.5156292 L156.403101,42.0136756 C156.403101,38.6988881 153.715935,36.0117219 150.401147,36.0117219 L123.310078,36.0117219 C121.653223,36.0117219 120.310078,34.6685762 120.310078,33.0117219 L120.310078,30.0078146 C120.310078,26.6941061 117.623786,24.0078146 114.310078,24.0078146 L78.1860465,24.0078146 C74.872338,24.0078146 72.1860465,26.6941061 72.1860465,30.0078146 L72.1860465,36.0117219 L72.1860465,36.0117219" id="Path-25" stroke="#000000" stroke-width="4.5"></path>
        </g>
    </g>
</svg>